<svg
	xmlns="http://www.w3.org/2000/svg" width="23.712" height="21.792" viewBox="0 0 17.8 16.339">
	<path d="M5.167 7.338L2.31 8.381a7.172 7.172 0 0 0 .233 1.361l2.71-.981a5.607 5.607 0 0 1-.086-1.423M17.8 4.171a8.8 8.8 0 0 0-.687-1.177l-2.861 1.042a5.814 5.814 0 0 1 .848 1.128c-.014-.012 2.7-.993 2.7-.993z" fill="#c32034"/>
	<path d="M11.512 3.361a5.358 5.358 0 0 1 1.545 1.1l2.858-1.042A8.16 8.16 0 0 0 1.139 8.805L4 7.763a5.24 5.24 0 0 1 .478-1.84 5.3 5.3 0 0 1 7.034-2.562" fill="#db212f"/>
	<path d="M2.714 9.658L0 10.639a8.5 8.5 0 0 0 1.28 2.772l2.845-1.04a5.366 5.366 0 0 1-1.411-2.71" fill="#ea2227"/>
	<path d="M14.56 8.579a5.514 5.514 0 0 1-.479 1.84 5.3 5.3 0 0 1-7.05 2.562 5.358 5.358 0 0 1-1.545-1.1L2.641 12.92a8.064 8.064 0 0 0 3.188 2.651 8.158 8.158 0 0 0 11.588-8.034z" fill="#db212f"/>
	<path d="M15.262 5.088l-2.71.981a5.3 5.3 0 0 1 .662 2.992l2.845-1.042a8.26 8.26 0 0 0-.8-2.931" fill="#ea2227"/>
	<path d="M2.317 8.371l2.845-1.03-.012.564L2.4 8.924zm11.932-4.352l2.894-.981.307.442-2.808.98c-.013.013-.393-.441-.393-.441z" fill="#ad213a"/>
	<path d="M2.626 12.915l2.845-1.018.858.8-2.992 1.1c.013.001-.711-.882-.711-.882zm14.83-5.356l-2.894 1.03-.208 1.141 3.09-1.08c-.013-.012.012-1.091.012-1.091z" fill="#ba2034"/>
</svg>