<svg xmlns="http://www.w3.org/2000/svg" viewBox="0 0 144.05 144"><defs><style>.cls-1{fill:#f08705;}.cls-2,.cls-3{fill:#333;}.cls-3{fill:#df6c0c;}.cls-4{fill:#fff;}.cls-5{fill:none;stroke:#fff;stroke-miterlimit:10;stroke-width:5px;}</style></defs><g><rect class="cls-1" width="144" height="144" rx="5"/><path class="cls-2" d="M144,22V5a4.959,4.959,0,0,0-4.952-5h-134A5.04,5.04,0,0,0,0,5V22H144Z"/><path class="cls-3" d="M34.39,65.824l1.535,60.384L54.133,144H136.9c5.053,0,7.152-1.156,7.152-6.7S144,88.1,144,88.1L113.879,57.941,88.4,35.353,67.55,36.667,56.573,41.375,51.216,53.583,39.539,58.409Z"/><path class="cls-5" d="M69.216,55.5,92.383,78v31.833s1.75,18-14.167,18H45.883S33.05,128.5,33.05,110.167V70.833S31.55,55.5,51.383,55.5Z"/><polyline class="cls-5" points="70.383 57.833 70.383 76.833 90.383 76.833"/><path class="cls-5" d="M52.05,55V50.833S50.55,35.5,70.383,35.5H87.216L111.383,59V89.833s1.583,18-14.167,18H93.8"/><polyline class="cls-5" points="88.383 37.833 88.383 57.833 110.383 57.833"/><path class="cls-4" d="M131.947,113.832a16.777,16.777,0,0,0-4.932-11.9L131.947,97H119.322v12.625l4.718-4.719a12.625,12.625,0,1,1-18.4,17.278l-3.157,2.784a16.834,16.834,0,0,0,29.459-11.135Z"/></g></svg>
