<?xml version="1.0" encoding="utf-8"?>
<!-- Generator: Adobe Illustrator 21.1.0, SVG Export Plug-In . SVG Version: 6.00 Build 0)  -->
<svg version="1.1" id="Layer_1" xmlns="http://www.w3.org/2000/svg" xmlns:xlink="http://www.w3.org/1999/xlink" x="0px" y="0px"
	 viewBox="0 0 64.3 64" style="enable-background:new 0 0 64.3 64;" xml:space="preserve">
<style type="text/css">
	.st0{fill:#E42433;}
	.st1{fill:#FFFFFF;}
</style>
<title>INDIVIDUAL ICONS 3</title>
<ellipse class="st0" cx="32.1" cy="32" rx="32.1" ry="32"/>
<ellipse class="st0" cx="32.1" cy="32" rx="26.4" ry="26.3"/>
<path class="st1" d="M41.3,24.4c0-5-4.1-9.1-9.1-9.1c-5,0-9.1,4.1-9.1,9.1v4.1c-1.9,2.2-3,5.1-3,8c0,6.7,5.4,12.2,12.2,12.2
	c6.7,0,12.2-5.4,12.2-12.2c0-2.9-1.1-5.8-3-8L41.3,24.4z M26,24.4c0.2-3.3,3.1-5.9,6.5-5.6c3,0.2,5.4,2.6,5.6,5.6V26
	c-3.8-2.2-8.4-2.2-12.2,0L26,24.4z M29.8,43.2l-5.7-5.6l2.2-2.1l3.5,3.5l8-8l2.2,2.1L29.8,43.2z"/>
</svg>
