<?xml version="1.0" encoding="utf-8"?>
<!-- Generator: Adobe Illustrator 21.1.0, SVG Export Plug-In . SVG Version: 6.00 Build 0)  -->
<svg version="1.1" id="Layer_1" xmlns="http://www.w3.org/2000/svg" xmlns:xlink="http://www.w3.org/1999/xlink" x="0px" y="0px"
	 viewBox="0 0 65 65" style="enable-background:new 0 0 65 65;" xml:space="preserve">
<style type="text/css">
	.st0{fill:#A8226E;}
	.st1{fill:#FFFFFF;stroke:#A8226E;stroke-miterlimit:10;}
	.st2{fill:#FFFFFF;}
	.st3{fill:none;stroke:#FFFFFF;stroke-miterlimit:10;}
</style>
<title>INDIVIDUAL ICONS 3</title>
<circle class="st0" cx="32.5" cy="32.5" r="32.5"/>
<path class="st1" d="M47.3,39.3c2.6-1.8,5.3-3.3,8.3-4.4c1.7,0.1,2.2,1,1.7,2.7c0.2,0.6-0.1,1-0.7,1.3c-2.4,1.2-4.8,2.5-7.3,3.7
	c-0.3,0.1-0.5,0-0.6-0.2C48.1,41.4,47.6,40.4,47.3,39.3z"/>
<path class="st2" d="M42.3,22.9H39c-0.6,0-1.2,0-1.2-0.8s0.5-0.8,1.1-0.8h7c0.6,0,1,0.2,1,0.8s-0.5,0.8-1.1,0.8L42.3,22.9z"/>
<path class="st2" d="M42.2,32.3h-3.5c-0.5,0-0.9-0.1-1-0.7s0.4-0.9,0.9-0.9c2.4,0,4.7,0,7.1,0c0.5,0,1,0.2,1,0.9s-0.6,0.7-1.1,0.7
	L42.2,32.3z"/>
<path class="st2" d="M42.4,33.9h3.5c0.5,0,0.9,0,1,0.7s-0.4,0.8-0.8,0.8c-2.4,0-4.8,0-7.3,0c-0.5,0-0.9-0.2-0.9-0.8s0.5-0.7,0.9-0.7
	H42.4z"/>
<path class="st2" d="M42.4,27.6h3.5c0.5,0,0.9,0,1,0.6s-0.5,0.8-1,0.8h-7.1c-0.5,0-0.9-0.1-0.9-0.7s0.4-0.7,0.9-0.7H42.4z"/>
<path class="st2" d="M42.4,24.5c1.2,0,2.3,0,3.5,0c0.5,0,0.9,0,1,0.7s-0.4,0.7-0.8,0.7h-7.3c-0.5,0-0.9-0.1-0.9-0.7s0.5-0.7,0.9-0.7
	C40,24.5,41.2,24.5,42.4,24.5z"/>
<path class="st1" d="M57.3,37.6c-0.5-0.9-0.8-2-1.7-2.7c0.3-0.5,0.9-0.7,1.3-1c0.8-0.6,1.5-0.5,1.9,0.5c0.2,0.5,0.5,1,0.8,1.5
	s0.7,1.1-0.1,1.4S58.2,38.7,57.3,37.6z"/>
<path class="st1" d="M47.3,39.3c1.2,0.5,1.9,1.7,1.7,3c-1.2,0.3-2.4,0.8-3.4-0.4L47.3,39.3z"/>
<path class="st1" d="M45.6,41.8c1.1,0.7,2.2,0.2,3.4,0.4l0.3,0.3c-1.1,0.3-2.2,0.3-3.3,0.2C45.1,42.8,45.3,42.3,45.6,41.8z"/>
<path class="st2" d="M48.4,21.3c0.4,0,0.7,0.2,0.8,0.6c0,0.1,0,0.1,0,0.2c0,0.5-0.4,0.8-0.9,0.7c-0.4,0-0.7-0.3-0.7-0.6
	c0,0,0-0.1,0-0.1c0-0.4,0.2-0.7,0.6-0.8C48.3,21.3,48.3,21.3,48.4,21.3z"/>
<path class="st2" d="M48.3,30.7c0.6,0,0.9,0.3,0.9,0.8s-0.3,0.8-0.8,0.8c-0.4,0-0.7-0.2-0.7-0.6c0,0,0-0.1,0-0.1
	C47.5,31.2,47.8,30.8,48.3,30.7C48.2,30.7,48.2,30.7,48.3,30.7z"/>
<path class="st2" d="M49.1,34.6c0,0.5-0.3,0.7-0.7,0.7s-0.8-0.2-0.8-0.8s0.4-0.6,0.8-0.6c0.3-0.1,0.7,0.2,0.7,0.5
	C49.2,34.5,49.2,34.5,49.1,34.6z"/>
<path class="st2" d="M49.1,25.2c0.1,0.3-0.2,0.7-0.5,0.7c-0.1,0-0.1,0-0.2,0c-0.4,0-0.8,0-0.8-0.5s0.2-0.8,0.7-0.8
	S49.1,24.7,49.1,25.2z"/>
<path class="st2" d="M49.1,28.4c0,0.5-0.4,0.6-0.8,0.6s-0.8-0.3-0.7-0.8s0.5-0.5,0.9-0.5S49.2,27.9,49.1,28.4z"/>
<path class="st2" d="M22.1,21.3c1.2,0,2.3,0,3.5,0c0.5,0,1,0,1.1,0.7s-0.4,0.8-1,0.9h-7.1c-0.5,0-0.9-0.1-0.9-0.7s0.4-0.8,1-0.8
	L22.1,21.3z"/>
<path class="st2" d="M22.3,38.4h-3.7c-0.5,0-0.9-0.2-0.9-0.7s0.4-0.7,0.9-0.7c2.4,0,4.9,0,7.3,0c0.5,0,0.8,0.3,0.8,0.8
	s-0.4,0.6-0.8,0.7C24.7,38.5,23.5,38.4,22.3,38.4z"/>
<path class="st2" d="M22.2,32.3h-3.5c-0.5,0-1-0.1-1-0.8s0.4-0.8,0.9-0.8c2.4,0,4.8,0,7.3,0c0.4-0.1,0.8,0.2,0.8,0.6
	c0,0.1,0,0.1,0,0.2c0,0.6-0.4,0.7-0.9,0.7L22.2,32.3L22.2,32.3z"/>
<path class="st2" d="M22.2,27.6c1.2,0,2.3,0,3.5,0c0.4,0,0.9,0,1,0.6S26.3,29,25.8,29h-7.3c-0.4,0-0.8-0.1-0.8-0.6s0.4-0.7,0.8-0.7
	H22.2L22.2,27.6z"/>
<path class="st2" d="M22.2,25.9c-1.2,0-2.3,0-3.5,0c-0.4,0-0.9,0-1-0.6s0.3-0.8,0.8-0.8h7.3c0.5,0,0.8,0.2,0.8,0.8s-0.4,0.6-0.8,0.6
	H22.2z"/>
<path class="st2" d="M22.3,33.9c1.1,0,2.2,0,3.3,0c0.5,0,1,0,1,0.7s-0.5,0.7-0.9,0.7c-2.4,0-4.8,0-7.1,0c-0.5,0-0.9-0.1-0.9-0.7
	s0.5-0.7,0.9-0.7C19.9,33.9,21.1,33.9,22.3,33.9z"/>
<path class="st2" d="M22.2,41.6c-1.2,0-2.3,0-3.5,0c-0.4,0-0.9,0-0.9-0.7s0.4-0.7,0.9-0.7h7.1c0.4,0,0.9,0,0.9,0.7s-0.5,0.7-1,0.7
	C24.5,41.6,23.3,41.6,22.2,41.6z"/>
<path class="st2" d="M28.2,22.8c-0.4,0-0.7-0.3-0.7-0.7c0-0.1,0-0.1,0-0.2c0.1-0.5,0.4-0.7,0.9-0.7s0.6,0.4,0.6,0.8
	S28.7,22.9,28.2,22.8z"/>
<path class="st2" d="M29,37.8c0,0.5-0.3,0.7-0.8,0.7s-0.8-0.3-0.8-0.8s0.5-0.7,0.9-0.7S29,37.4,29,37.8z"/>
<path class="st2" d="M28.3,30.7c0.4,0,0.7,0.3,0.8,0.7c0,0.1,0,0.1,0,0.2c0,0.3-0.2,0.7-0.6,0.7c0,0-0.1,0-0.1,0
	c-0.5,0-0.8-0.2-0.8-0.7S27.8,30.7,28.3,30.7z"/>
<path class="st2" d="M28.3,40.2c0.4,0,0.7,0.1,0.8,0.6s-0.2,0.7-0.7,0.7s-0.9-0.1-0.8-0.7S27.8,40.2,28.3,40.2z"/>
<path class="st2" d="M28.3,33.9c0.4,0,0.7,0.1,0.8,0.7s-0.2,0.7-0.7,0.7s-0.9-0.2-0.8-0.7S27.8,33.9,28.3,33.9z"/>
<path class="st2" d="M29,25.3c0,0.5-0.3,0.6-0.8,0.6s-0.7-0.2-0.8-0.7s0.3-0.7,0.8-0.7c0.3,0,0.6,0.2,0.7,0.5
	C29,25.2,29,25.2,29,25.3z"/>
<path class="st2" d="M29,28.1c0,0.6-0.2,0.8-0.7,0.8s-0.9-0.1-0.8-0.7s0.3-0.7,0.8-0.7S29,27.7,29,28.1z"/>
<rect x="14.4" y="16.1" class="st3" width="37" height="32.8"/>
</svg>
