<?xml version="1.0" encoding="utf-8"?>
<!-- Generator: Adobe Illustrator 21.1.0, SVG Export Plug-In . SVG Version: 6.00 Build 0)  -->
<svg version="1.1" id="Layer_1" xmlns="http://www.w3.org/2000/svg" xmlns:xlink="http://www.w3.org/1999/xlink" x="0px" y="0px"
	 viewBox="0 0 65.8 65.5" style="enable-background:new 0 0 65.8 65.5;" xml:space="preserve">
<style type="text/css">
	.st0{fill:#325C80;}
	.st1{fill:#FFFFFF;}
</style>
<title>INDIVIDUAL ICONS 3</title>
<ellipse class="st0" cx="32.9" cy="32.7" rx="32.9" ry="32.7"/>
<path class="st1" d="M33.9,48.2c0.4-0.4,0.8-0.7,1.2-1c2-1.2,1.2-4.1-0.9-4.9c-0.4-0.1-0.6-0.3-0.7-0.7c-0.1-1.5-1.4-2.6-2.9-2.4
	c0,0-0.1,0-0.1,0c-0.4,0-0.5,0-0.6-0.4c-0.3-1.6-1.7-2.7-3.3-2.4c-0.4,0.1-0.8,0.2-1.2,0.5c-0.6,0.4-0.7,0.2-1-0.3
	c-0.3-0.7-0.9-1.3-1.6-1.7c-0.8-0.5-1.9-0.4-2.7,0.3c-0.5,0.5-1.1,0.9-1.7,1.4c-0.1,0.2-0.4,0.3-0.6,0.1c0,0-0.1-0.1-0.1-0.1
	c-0.5-0.4-0.9-0.8-1.4-1.3c-0.3-0.3-0.3-0.5,0-0.8c2.7-3.5,5.3-7,7.9-10.5c0.2-0.2,0.3-0.4,0.6-0.4c2.3,0,4.5,0.1,6.8,0.4
	c0.2,0,0.5,0.1,0.8,0.2c-1.6,1.5-3.5,2.7-5.7,3.2c-0.8,0.2-1.6,0.4-2.4,0.8c-1,0.4-1.5,1.6-1.1,2.6c0.1,0.3,0.3,0.5,0.5,0.7
	c1.3,1.7,3.5,2.5,5.6,1.9c1.4-0.3,2.7-0.9,3.9-1.8c0.8-0.5,1.7-0.8,2.6-0.8H42c0.2,0,0.4,0,0.5,0.1c2,1.2,3.8,2.8,5.2,4.7
	c0.4,0.6,0.7,1.2,0.8,1.9c0.2,0.8-0.3,1.6-1,1.8c-0.3,0.1-0.7,0.1-1-0.1l-0.3-0.1c-0.1,0.2-0.1,0.5,0,0.7c0.2,1.8-0.7,2.9-2.4,2.9
	c-0.8,0-1.1,0.2-1.2,0.9c-0.1,0.6-0.3,1.1-0.7,1.5c-0.6,1-1.8,1.3-2.8,0.8c0,0,0,0,0,0c-0.4-0.2-0.5-0.2-0.5,0.3c0,1.1-0.9,2-2,2
	C35.6,48.6,34.7,48.5,33.9,48.2z"/>
<path class="st1" d="M52.7,32.7c-0.1,0.1-0.2,0.3-0.3,0.4c-0.8,0.9-1.7,1.8-2.5,2.8c-0.3,0.4-0.5,0.3-0.8-0.1
	c-1.4-2.5-3.7-4.1-6-5.7c-0.2-0.1-0.5-0.2-0.7-0.2c-2.3,0-4.7,0-7,0c-1.1,0-2.1,0.3-3,0.9c-1.4,1.1-3.1,1.7-4.9,1.7
	c-1.2-0.1-2.4-0.7-3.1-1.7c-0.4-0.6-0.3-1,0.3-1.3c0.6-0.3,1.3-0.5,1.9-0.7c2-0.5,3.9-1.5,5.5-2.8c2.4-1.9,5.4-2.8,8.5-2.4
	c1.4,0.2,2.9,0.1,4.3-0.4c0.4-0.2,0.6,0,0.8,0.3c2.2,2.9,4.4,5.9,6.6,8.8C52.4,32.3,52.6,32.5,52.7,32.7z"/>
<path class="st1" d="M13.5,35.5c-0.3,0-0.6-0.1-0.8-0.3C11.1,34,9.5,32.8,8,31.6c-0.5-0.2-0.7-0.8-0.5-1.3c0.1-0.1,0.1-0.2,0.2-0.3
	c3.1-4.1,6.1-8.2,9.2-12.4c0.2-0.5,0.8-0.7,1.3-0.5c0.1,0.1,0.2,0.1,0.3,0.2c1.6,1.2,3.2,2.4,4.8,3.6c0.7,0.5,0.7,1,0.2,1.6
	c-3,4.1-6.1,8.2-9.2,12.3C14.2,35.2,13.9,35.4,13.5,35.5z"/>
<path class="st1" d="M61.7,28.9c0,0.4-0.2,0.8-0.6,1c-1.6,1.1-3.1,2.3-4.7,3.4c-0.7,0.5-1.2,0.5-1.8-0.2c-3.1-4.1-6.1-8.2-9.1-12.3
	c-0.4-0.4-0.4-1-0.1-1.4c0.1-0.1,0.2-0.2,0.3-0.2c1.6-1.2,3.2-2.4,4.8-3.6c0.4-0.4,1-0.4,1.4,0c0.1,0.1,0.2,0.2,0.2,0.3
	c3.1,4.1,6.2,8.2,9.2,12.3C61.5,28.4,61.6,28.7,61.7,28.9z"/>
<path class="st1" d="M28.6,39.4c0,0.4-0.2,0.8-0.5,1c-1.5,1.3-3,2.5-4.5,3.9c-0.7,0.7-1.8,0.7-2.4,0c-0.7-0.7-0.7-1.8,0-2.4
	c0.1-0.1,0.2-0.2,0.3-0.2c1.4-1.2,2.9-2.4,4.4-3.7c0.5-0.5,1.3-0.6,1.9-0.2C28.3,38.1,28.7,38.7,28.6,39.4z"/>
<path class="st1" d="M32.3,42.2c-0.1,0.4-0.3,0.8-0.6,1c-1.3,1.1-2.5,2.2-3.8,3.3c-0.9,0.8-1.8,0.7-2.4,0S25,44.7,25.9,44
	c1.3-1.1,2.5-2.2,3.8-3.2c0.5-0.4,1.1-0.5,1.7-0.2C32,40.9,32.4,41.5,32.3,42.2z"/>
<path class="st1" d="M23.6,37.9c0,0.2-0.1,0.5-0.3,0.6c-0.9,0.7-1.8,1.5-2.6,2.2c-0.3,0.3-0.8,0.3-1.1,0.1c-0.5-0.3-0.9-0.7-1.1-1.2
	c-0.4-0.5-0.2-1.3,0.3-1.6c0,0,0,0,0,0c0.7-0.5,1.4-1.1,2-1.7c0.4-0.5,1.1-0.5,1.6-0.1c0,0,0,0,0.1,0.1
	C23.1,36.6,23.5,37.2,23.6,37.9z"/>
<path class="st1" d="M35,45.2c0,0.3-0.2,0.7-0.4,0.8l-2.7,2.3c-0.4,0.4-1,0.4-1.4,0.1c-0.6-0.3-0.9-0.8-1-1.5c0-0.3,0.2-0.4,0.3-0.5
	c1.1-0.9,2.2-1.8,3.2-2.8c0.1-0.1,0.3-0.2,0.5-0.2C34.3,43.6,34.9,44.3,35,45.2z"/>
</svg>
