<?xml version="1.0" encoding="utf-8"?>
<svg version="1.1" id="Layer_1" xmlns="http://www.w3.org/2000/svg" xmlns:xlink="http://www.w3.org/1999/xlink" x="0px" y="0px"
	 viewBox="0 0 70.175 100.05" style="enable-background:new 0 0 70.175 100.05;" xml:space="preserve">
<style type="text/css">
	.st0{fill:none;stroke:#626366;stroke-width:3.375;stroke-linejoin:round;}
	.st1{fill:#898B8E;}
	.st2{fill:#BBBDBF;}
	.st3{fill:#B3B5B7;}
	.st4{fill:none;stroke:#E1E2E3;stroke-width:1.125;stroke-linecap:round;stroke-linejoin:round;}
	.st5{fill:none;stroke:#626366;stroke-width:3.002;stroke-linecap:round;stroke-linejoin:round;}
	.st6{fill:#FEFEFE;}
	.st7{fill:#C4CACE;}
	.st8{fill:none;stroke:#636466;stroke-width:1.301;}
	.st9{fill:none;stroke:#E1E2E3;stroke-width:1.001;stroke-linecap:round;stroke-linejoin:round;}
	.st10{filter:url(#Adobe_OpacityMaskFilter);}
	.st11{fill:#FFFFFF;}
	.st12{mask:url(#mask-2_1_);fill:none;stroke:#636466;stroke-width:1.451;}
	.st13{fill:none;stroke:#231F20;stroke-width:0.504;}
	.st14{fill:#231F20;}
	.st15{fill:none;stroke:#231F20;stroke-width:0.386;}
	.st16{fill:#00A550;}
	.st17{fill:none;stroke:#231F20;stroke-width:0.259;}
	.st18{fill:#00ADEE;}
	.st19{fill:#FFF100;}
	.st20{fill:#FAAF3F;}
	.st21{fill:#8CC63F;}
	.st22{fill:#D0D2D3;}
	.st23{fill:#27A9E0;}
	.st24{fill:#EB008B;}
	.st25{fill:#2B388F;}
	.st26{fill:#652C90;}
	.st27{fill:#F6931D;}
	.st28{fill:#EC1D24;}
	.st29{fill:#91278F;}
	.st30{fill:none;stroke:#FEFEFE;stroke-width:0.504;stroke-linecap:round;}
	.st31{fill:none;stroke:#FEFEFE;stroke-width:0.507;stroke-linecap:round;}
</style>
<title>icon-surveillance-monitor</title>
<desc>Created with Sketch.</desc>
<polygon id="Stroke-1" class="st0" points="41.77,92.853 54.94,85.861 54.943,89.57 41.772,96.563 "/>
<polygon id="Stroke-3" class="st0" points="8.137,72.645 21.307,65.654 54.94,85.861 41.77,92.853 "/>
<polygon id="Stroke-4" class="st0" points="41.77,92.853 41.772,96.563 8.139,76.353 8.137,72.645 "/>
<polygon id="Fill-6" class="st1" points="41.77,92.853 54.94,85.861 54.943,89.57 41.772,96.563 "/>
<polygon id="Fill-7" class="st2" points="8.137,72.645 21.307,65.654 54.94,85.861 41.77,92.853 "/>
<polygon id="Fill-8" class="st3" points="41.77,92.853 41.772,96.563 8.139,76.353 8.137,72.645 "/>
<polyline id="Stroke-9" class="st4" points="8.409,72.682 41.491,92.558 41.491,96.163 "/>
<polygon id="Stroke-10" class="st5" points="62.799,41.43 68.632,38.334 68.674,95.451 62.838,98.549 "/>
<polygon id="Stroke-12" class="st5" points="1.501,4.599 7.336,1.501 68.632,38.334 62.799,41.43 "/>
<polygon id="Stroke-14" class="st5" points="62.799,41.43 62.838,98.549 1.541,61.717 1.501,4.599 "/>
<polygon id="Fill-17" class="st1" points="62.797,41.43 68.632,38.334 68.672,95.451 62.838,98.549 "/>
<polygon id="Fill-18" class="st2" points="1.501,4.599 7.334,1.501 68.632,38.334 62.797,41.43 "/>
<polygon id="Fill-19" class="st3" points="62.797,41.43 62.838,98.549 1.541,61.717 1.501,4.599 "/>
<polygon id="Fill-20" class="st6" points="59.589,92.129 3.724,58.153 3.724,9.879 59.589,43.853 "/>
<path id="Fill-21" class="st7" d="M38.863,34.4l18.541,11.139l0.103,10.367c0,0-0.33-7.435-5.842-12.092
	C44.628,37.867,38.863,34.4,38.863,34.4"/>
<path id="Stroke-23" class="st8" d="M2.216,62.896l60.616,36.422"/>
<polyline id="Stroke-25" class="st9" points="2.018,4.79 62.776,41.298 62.817,98.063 "/>
<g id="Clip-28">
</g>
<defs>
	<filter id="Adobe_OpacityMaskFilter" filterUnits="userSpaceOnUse" x="68.667" y="76.61" width="1.451" height="15.008">
		<feColorMatrix  type="matrix" values="1 0 0 0 0  0 1 0 0 0  0 0 1 0 0  0 0 0 1 0"/>
	</filter>
</defs>
<mask maskUnits="userSpaceOnUse" x="68.667" y="76.61" width="1.451" height="15.008" id="mask-2_1_">
	<g class="st10">
		<polygon id="path-1_1_" class="st11" points="69.393,76.61 70.174,76.61 70.174,91.618 69.393,91.618 		"/>
	</g>
</mask>
<path id="Stroke-27" class="st12" d="M69.393,76.61v15.008"/>
<polygon id="Fill-30" class="st6" points="60.917,94.875 1.823,60.026 1.823,8.15 60.917,42.999 "/>
<polygon id="Stroke-32" class="st13" points="60.917,94.875 1.823,60.026 1.823,8.15 60.917,42.999 "/>
<polygon id="Fill-34" class="st14" points="22.045,54.319 1.941,42.464 1.941,25.501 22.045,37.356 "/>
<polygon id="Stroke-36" class="st15" points="22.045,54.319 1.941,42.464 1.941,25.501 22.045,37.356 "/>
<path id="Fill-38" class="st16" d="M11.692,40.222c0,1.858-1.973,2.202-4.405,0.767c-2.431-1.434-4.404-4.104-4.404-5.961
	c0-1.859,1.973-2.201,4.404-0.767C9.719,35.695,11.692,38.364,11.692,40.222"/>
<path id="Stroke-40" class="st17" d="M11.692,40.222c0,1.858-1.973,2.202-4.405,0.767c-2.431-1.434-4.404-4.104-4.404-5.961
	c0-1.859,1.973-2.201,4.404-0.767C9.719,35.695,11.692,38.364,11.692,40.222z"/>
<path id="Fill-42" class="st18" d="M20.125,48.947c0-0.928-0.545-2.002-1.217-2.399l-8.247-4.864
	c-0.673-0.396-1.219,0.035-1.219,0.963c0,0.93,0.546,2.005,1.219,2.401l8.247,4.863C19.58,50.308,20.125,49.877,20.125,48.947"/>
<path id="Stroke-44" class="st17" d="M20.125,48.947c0-0.928-0.545-2.002-1.217-2.399l-8.247-4.864
	c-0.673-0.396-1.219,0.035-1.219,0.963c0,0.93,0.546,2.005,1.219,2.401l8.247,4.863C19.58,50.308,20.125,49.877,20.125,48.947z"/>
<polygon id="Fill-46" class="st19" points="15.628,45.13 11.882,44.118 9.257,38.689 10.381,34.273 14.127,35.286 16.751,40.714 "/>
<polygon id="Stroke-48" class="st17" points="15.628,45.13 11.882,44.118 9.257,38.689 10.381,34.273 14.127,35.286 16.751,40.714 
	"/>
<polygon id="Fill-50" class="st14" points="22.045,71.578 1.941,59.722 1.941,42.761 22.045,54.616 "/>
<polygon id="Stroke-52" class="st15" points="22.045,71.578 1.941,59.722 1.941,42.761 22.045,54.616 "/>
<path id="Fill-54" class="st20" d="M11.692,57.48c0,1.858-1.973,2.202-4.405,0.767c-2.431-1.434-4.404-4.103-4.404-5.962
	c0-1.858,1.973-2.201,4.404-0.766C9.719,52.953,11.692,55.622,11.692,57.48"/>
<path id="Stroke-56" class="st17" d="M11.692,57.48c0,1.858-1.973,2.202-4.405,0.767c-2.431-1.434-4.404-4.103-4.404-5.962
	c0-1.858,1.973-2.201,4.404-0.766C9.719,52.953,11.692,55.622,11.692,57.48z"/>
<path id="Fill-58" class="st21" d="M20.964,67.085c0-0.929-0.546-2.003-1.219-2.4l-8.246-4.863
	c-0.672-0.397-1.218,0.034-1.218,0.963c0,0.929,0.546,2.004,1.218,2.401l8.246,4.862C20.418,68.445,20.964,68.014,20.964,67.085"/>
<path id="Stroke-60" class="st17" d="M20.964,67.085c0-0.929-0.546-2.003-1.219-2.4l-8.246-4.863
	c-0.672-0.397-1.218,0.034-1.218,0.963c0,0.929,0.546,2.004,1.218,2.401l8.246,4.862C20.418,68.445,20.964,68.014,20.964,67.085z"/>
<polygon id="Fill-62" class="st22" points="15.628,62.389 11.882,61.377 9.257,55.948 10.381,51.531 14.127,52.545 16.751,57.973 
	"/>
<polygon id="Stroke-64" class="st17" points="15.628,62.389 11.882,61.377 9.257,55.948 10.381,51.531 14.127,52.545 16.751,57.973 
	"/>
<polygon id="Fill-66" class="st14" points="22.045,37.05 1.941,25.194 1.941,8.232 22.045,20.087 "/>
<polygon id="Stroke-68" class="st15" points="22.045,37.05 1.941,25.194 1.941,8.232 22.045,20.087 "/>
<path id="Fill-70" class="st23" d="M11.692,22.952c0,1.859-1.973,2.201-4.405,0.767c-2.431-1.434-4.404-4.103-4.404-5.961
	c0-1.859,1.973-2.201,4.404-0.767C9.719,18.427,11.692,21.096,11.692,22.952"/>
<path id="Stroke-72" class="st17" d="M11.692,22.952c0,1.859-1.973,2.201-4.405,0.767c-2.431-1.434-4.404-4.103-4.404-5.961
	c0-1.859,1.973-2.201,4.404-0.767C9.719,18.427,11.692,21.096,11.692,22.952z"/>
<path id="Fill-74" class="st24" d="M20.125,31.679c0-0.928-0.546-2.004-1.217-2.4l-8.247-4.864
	c-0.673-0.397-1.219,0.035-1.219,0.964c0,0.929,0.546,2.004,1.219,2.401l8.247,4.863C19.58,33.039,20.125,32.608,20.125,31.679"/>
<path id="Stroke-76" class="st17" d="M20.125,31.679c0-0.928-0.546-2.004-1.217-2.4l-8.247-4.864
	c-0.673-0.397-1.219,0.035-1.219,0.964c0,0.929,0.546,2.004,1.219,2.401l8.247,4.863C19.58,33.039,20.125,32.608,20.125,31.679z"/>
<polygon id="Fill-78" class="st25" points="15.628,27.862 11.882,26.849 9.257,21.421 10.381,17.005 14.127,18.017 16.751,23.446 
	"/>
<polygon id="Stroke-80" class="st17" points="15.628,27.862 11.882,26.849 9.257,21.421 10.381,17.005 14.127,18.017 16.751,23.446 
	"/>
<polygon id="Fill-82" class="st14" points="41.854,66.391 21.75,54.535 21.75,37.572 41.854,49.429 "/>
<polygon id="Stroke-84" class="st15" points="41.854,66.391 21.75,54.535 21.75,37.572 41.854,49.429 "/>
<path id="Fill-86" class="st19" d="M31.502,52.294c0,1.857-1.972,2.201-4.405,0.766c-2.43-1.434-4.403-4.103-4.403-5.961
	c0-1.858,1.973-2.201,4.403-0.767C29.53,47.767,31.502,50.436,31.502,52.294"/>
<path id="Stroke-88" class="st17" d="M31.502,52.294c0,1.857-1.972,2.201-4.405,0.766c-2.43-1.434-4.403-4.103-4.403-5.961
	c0-1.858,1.973-2.201,4.403-0.767C29.53,47.767,31.502,50.436,31.502,52.294z"/>
<path id="Fill-90" class="st24" d="M39.936,61.019c0-0.929-0.545-2.003-1.218-2.4l-8.247-4.863
	c-0.672-0.397-1.218,0.034-1.218,0.963c0,0.929,0.546,2.004,1.218,2.401l8.247,4.862C39.391,62.379,39.936,61.949,39.936,61.019"/>
<path id="Stroke-92" class="st17" d="M39.936,61.019c0-0.929-0.545-2.003-1.218-2.4l-8.247-4.863
	c-0.672-0.397-1.218,0.034-1.218,0.963c0,0.929,0.546,2.004,1.218,2.401l8.247,4.862C39.391,62.379,39.936,61.949,39.936,61.019z"/>
<polygon id="Fill-94" class="st21" points="35.438,57.201 31.691,56.189 29.067,50.761 30.19,46.345 33.937,47.357 36.561,52.786 
	"/>
<polygon id="Stroke-96" class="st17" points="35.438,57.201 31.691,56.189 29.067,50.761 30.19,46.345 33.937,47.357 36.561,52.786 
	"/>
<polygon id="Fill-98" class="st14" points="41.854,83.649 21.75,71.794 21.75,54.831 41.854,66.687 "/>
<polygon id="Stroke-100" class="st15" points="41.854,83.649 21.75,71.794 21.75,54.831 41.854,66.687 "/>
<path id="Fill-102" class="st20" d="M31.502,69.552c0,1.858-1.972,2.202-4.405,0.767c-2.43-1.434-4.403-4.103-4.403-5.961
	c0-1.859,1.973-2.202,4.403-0.767C29.53,65.025,31.502,67.694,31.502,69.552"/>
<path id="Stroke-104" class="st17" d="M31.502,69.552c0,1.858-1.972,2.202-4.405,0.767c-2.43-1.434-4.403-4.103-4.403-5.961
	c0-1.859,1.973-2.202,4.403-0.767C29.53,65.025,31.502,67.694,31.502,69.552z"/>
<path id="Fill-106" class="st16" d="M40.773,79.157c0-0.929-0.546-2.003-1.218-2.4l-8.247-4.863
	c-0.672-0.397-1.218,0.034-1.218,0.963s0.546,2.004,1.218,2.401l8.247,4.862C40.227,80.517,40.773,80.086,40.773,79.157"/>
<path id="Stroke-108" class="st17" d="M40.773,79.157c0-0.929-0.546-2.003-1.218-2.4l-8.247-4.863
	c-0.672-0.397-1.218,0.034-1.218,0.963s0.546,2.004,1.218,2.401l8.247,4.862C40.227,80.517,40.773,80.086,40.773,79.157z"/>
<polygon id="Fill-110" class="st24" points="35.438,74.46 31.691,73.447 29.067,68.019 30.19,63.603 33.937,64.616 36.561,70.044 
	"/>
<polygon id="Stroke-112" class="st17" points="35.438,74.46 31.691,73.447 29.067,68.019 30.19,63.603 33.937,64.616 36.561,70.044 
	"/>
<polygon id="Fill-114" class="st14" points="41.854,49.122 21.75,37.266 21.75,20.305 41.854,32.16 "/>
<polygon id="Stroke-116" class="st15" points="41.854,49.122 21.75,37.266 21.75,20.305 41.854,32.16 "/>
<path id="Fill-118" class="st20" d="M31.502,35.025c0,1.857-1.972,2.201-4.405,0.766c-2.43-1.434-4.403-4.103-4.403-5.961
	s1.973-2.201,4.403-0.766C29.53,30.499,31.502,33.167,31.502,35.025"/>
<path id="Stroke-120" class="st17" d="M31.502,35.025c0,1.857-1.972,2.201-4.405,0.766c-2.43-1.434-4.403-4.103-4.403-5.961
	s1.973-2.201,4.403-0.766C29.53,30.499,31.502,33.167,31.502,35.025z"/>
<path id="Fill-122" class="st23" d="M39.936,43.75c0-0.929-0.546-2.003-1.218-2.4l-8.247-4.863
	c-0.672-0.397-1.218,0.034-1.218,0.963c0,0.928,0.546,2.003,1.218,2.401l8.247,4.862C39.39,45.11,39.936,44.679,39.936,43.75"/>
<path id="Stroke-124" class="st17" d="M39.936,43.75c0-0.929-0.546-2.003-1.218-2.4l-8.247-4.863
	c-0.672-0.397-1.218,0.034-1.218,0.963c0,0.928,0.546,2.003,1.218,2.401l8.247,4.862C39.39,45.11,39.936,44.679,39.936,43.75z"/>
<polygon id="Fill-126" class="st26" points="35.438,39.933 31.691,38.921 29.067,33.492 30.19,29.076 33.937,30.089 36.561,35.517 
	"/>
<polygon id="Stroke-128" class="st17" points="35.438,39.933 31.691,38.921 29.067,33.492 30.19,29.076 33.937,30.089 
	36.561,35.517 "/>
<polygon id="Fill-130" class="st14" points="60.922,77.461 40.818,65.605 40.818,48.642 60.922,60.498 "/>
<polygon id="Stroke-132" class="st15" points="60.922,77.461 40.818,65.605 40.818,48.642 60.922,60.498 "/>
<path id="Fill-134" class="st6" d="M50.57,63.363c0,1.857-1.971,2.201-4.403,0.766c-2.433-1.434-4.405-4.102-4.405-5.96
	c0-1.858,1.972-2.202,4.405-0.767C48.599,58.836,50.57,61.505,50.57,63.363"/>
<path id="Stroke-136" class="st17" d="M50.57,63.363c0,1.857-1.971,2.201-4.403,0.766c-2.433-1.434-4.405-4.102-4.405-5.96
	c0-1.858,1.972-2.202,4.405-0.767C48.599,58.836,50.57,61.505,50.57,63.363z"/>
<path id="Fill-138" class="st21" d="M59.005,72.088c0-0.928-0.546-2.002-1.218-2.399l-8.247-4.863
	c-0.673-0.398-1.218,0.034-1.218,0.962c0,0.93,0.545,2.004,1.218,2.402l8.247,4.862C58.459,73.449,59.005,73.017,59.005,72.088"/>
<path id="Stroke-140" class="st17" d="M59.005,72.088c0-0.928-0.546-2.002-1.218-2.399l-8.247-4.863
	c-0.673-0.398-1.218,0.034-1.218,0.962c0,0.93,0.545,2.004,1.218,2.402l8.247,4.862C58.459,73.449,59.005,73.017,59.005,72.088z"/>
<polygon id="Fill-142" class="st27" points="54.506,68.271 50.76,67.259 48.135,61.83 49.259,57.413 53.006,58.427 55.63,63.856 "/>
<polygon id="Stroke-144" class="st17" points="54.506,68.271 50.76,67.259 48.135,61.83 49.259,57.413 53.006,58.427 55.63,63.856 
	"/>
<polygon id="Fill-146" class="st14" points="60.922,94.719 40.818,82.864 40.818,65.901 60.922,77.757 "/>
<polygon id="Stroke-148" class="st15" points="60.922,94.719 40.818,82.864 40.818,65.901 60.922,77.757 "/>
<path id="Fill-150" class="st28" d="M50.57,80.621c0,1.858-1.971,2.202-4.403,0.767c-2.433-1.434-4.405-4.103-4.405-5.961
	s1.972-2.202,4.405-0.767C48.599,76.094,50.57,78.763,50.57,80.621"/>
<path id="Stroke-152" class="st17" d="M50.57,80.621c0,1.858-1.971,2.202-4.403,0.767c-2.433-1.434-4.405-4.103-4.405-5.961
	s1.972-2.202,4.405-0.767C48.599,76.094,50.57,78.763,50.57,80.621z"/>
<path id="Fill-154" class="st27" d="M59.842,90.226c0-0.929-0.546-2.003-1.217-2.4l-8.248-4.863
	c-0.672-0.397-1.218,0.034-1.218,0.963c0,0.928,0.546,2.004,1.218,2.4l8.248,4.864C59.296,91.586,59.842,91.155,59.842,90.226"/>
<path id="Stroke-156" class="st17" d="M59.842,90.226c0-0.929-0.546-2.003-1.217-2.4l-8.248-4.863
	c-0.672-0.397-1.218,0.034-1.218,0.963c0,0.928,0.546,2.004,1.218,2.4l8.248,4.864C59.296,91.586,59.842,91.155,59.842,90.226z"/>
<polygon id="Fill-158" class="st23" points="54.506,85.53 50.76,84.518 48.135,79.088 49.259,74.672 53.006,75.685 55.63,81.114 "/>
<polygon id="Stroke-160" class="st17" points="54.506,85.53 50.76,84.518 48.135,79.088 49.259,74.672 53.006,75.685 55.63,81.114 
	"/>
<polygon id="Fill-162" class="st14" points="60.922,60.191 40.818,48.335 40.818,31.373 60.922,43.229 "/>
<polygon id="Stroke-164" class="st15" points="60.922,60.191 40.818,48.335 40.818,31.373 60.922,43.229 "/>
<path id="Fill-166" class="st19" d="M50.57,46.094c0,1.857-1.971,2.202-4.403,0.767c-2.433-1.434-4.405-4.103-4.405-5.961
	c0-1.858,1.972-2.201,4.405-0.767C48.599,41.568,50.57,44.236,50.57,46.094"/>
<path id="Stroke-168" class="st17" d="M50.57,46.094c0,1.857-1.971,2.202-4.403,0.767c-2.433-1.434-4.405-4.103-4.405-5.961
	c0-1.858,1.972-2.201,4.405-0.767C48.599,41.568,50.57,44.236,50.57,46.094z"/>
<path id="Fill-170" class="st29" d="M59.005,54.819c0-0.928-0.546-2.004-1.218-2.4l-8.247-4.864
	c-0.673-0.397-1.218,0.036-1.218,0.964c0,0.929,0.545,2.004,1.218,2.401l8.247,4.863C58.459,56.18,59.005,55.749,59.005,54.819"/>
<path id="Stroke-172" class="st17" d="M59.005,54.819c0-0.928-0.546-2.004-1.218-2.4l-8.247-4.864
	c-0.673-0.397-1.218,0.036-1.218,0.964c0,0.929,0.545,2.004,1.218,2.401l8.247,4.863C58.459,56.18,59.005,55.749,59.005,54.819z"/>
<polygon id="Fill-174" class="st28" points="54.506,51.003 50.76,49.99 48.135,44.561 49.259,40.145 53.006,41.158 55.63,46.586 "/>
<polygon id="Stroke-176" class="st17" points="54.506,51.003 50.76,49.99 48.135,44.561 49.259,40.145 53.006,41.158 55.63,46.586 
	"/>
<path id="Stroke-178" class="st30" d="M21.702,19.754v52.683"/>
<path id="Stroke-180" class="st30" d="M41.136,30.896v52.682"/>
<path id="Stroke-182" class="st31" d="M1.482,25.678l59.952,35.355"/>
<path id="Stroke-184" class="st31" d="M1.495,43.052l59.954,35.355"/>
</svg>
