<?xml version="1.0" encoding="utf-8"?>
<svg version="1.1" id="Layer_1" xmlns="http://www.w3.org/2000/svg" xmlns:xlink="http://www.w3.org/1999/xlink" x="0px" y="0px"
	 viewBox="0 0 115.788 128.577" style="enable-background:new 0 0 115.788 128.577;" xml:space="preserve">
<style type="text/css">
	.st0{fill:none;stroke:#626467;stroke-width:2.722;stroke-linecap:square;stroke-linejoin:round;}
	.st1{fill:#404042;}
	.st2{fill:#231F20;}
	.st3{fill:#58585B;}
	.st4{fill:#6C6E70;}
	.st5{fill:#D0D2D3;}
	.st6{fill:#B2B3B6;}
	.st7{fill:#A4A6A9;}
	.st8{fill:#A2A5A7;}
	.st9{fill:#A1A3A6;}
	.st10{fill:#9FA1A4;}
	.st11{fill:#9EA0A2;}
	.st12{fill:#9C9EA1;}
	.st13{fill:#9A9C9F;}
	.st14{fill:#999B9D;}
	.st15{fill:#97999C;}
	.st16{fill:#96989A;}
	.st17{fill:#949699;}
	.st18{fill:#A6A8AA;}
	.st19{fill:#A7A9AC;}
	.st20{fill:#A9ABAE;}
	.st21{fill:#ABADAF;}
	.st22{fill:#BABCBE;}
	.st23{fill:#898A8C;}
	.st24{fill:#ACAEB1;}
	.st25{fill:#AEB0B2;}
	.st26{fill:#B0B2B4;}
	.st27{fill:#B1B3B6;}
	.st28{fill:#B3B5B7;}
	.st29{fill:#B5B7B9;}
	.st30{fill:#B6B8BB;}
	.st31{fill:#B8BABC;}
	.st32{fill:#BBBDC0;}
	.st33{fill:#C0C2C4;}
	.st34{fill:#C2C4C6;}
	.st35{fill:#C3C5C7;}
	.st36{fill:#C5C6C8;}
	.st37{fill:#C6C7C9;}
	.st38{fill:#A6A8AB;}
	.st39{fill:#FEFEFE;}
	.st40{fill:none;stroke:#EFEEEE;stroke-width:0.336;stroke-linecap:round;stroke-linejoin:round;}
	.st41{fill:#939597;}
	.st42{fill:#808184;}
	.st43{fill:#469049;}
	.st44{fill:#BBDDB1;}
	.st45{fill:#8CCB8E;}
	.st46{fill:none;stroke:#DFDFDE;stroke-width:0.345;stroke-linecap:round;stroke-linejoin:round;}
</style>
<title>icon-IE300</title>
<desc>Created with Sketch.</desc>
<polygon id="Stroke-1" class="st0" points="56.617,9.061 58.95,7.822 58.995,71.181 56.661,72.419 "/>
<polygon id="Stroke-2" class="st0" points="45.863,2.6 48.197,1.361 58.95,7.823 56.617,9.061 "/>
<polygon id="Stroke-4" class="st0" points="56.617,9.061 56.661,72.418 45.908,65.958 45.863,2.6 "/>
<polygon id="Stroke-7" class="st0" points="51.646,11.673 53.98,10.434 54.024,73.792 51.691,75.03 "/>
<polygon id="Stroke-8" class="st0" points="40.893,5.211 43.227,3.972 53.98,10.434 51.646,11.672 "/>
<polygon id="Stroke-10" class="st0" points="51.646,11.673 51.691,75.03 40.937,68.569 40.893,5.212 "/>
<polygon id="Stroke-11" class="st0" points="46.677,14.607 49.011,13.369 49.055,76.726 46.721,77.965 "/>
<polygon id="Stroke-12" class="st0" points="35.924,8.146 38.257,6.907 49.011,13.369 46.677,14.607 "/>
<polygon id="Stroke-13" class="st0" points="46.677,14.607 46.721,77.965 35.968,71.504 35.924,8.146 "/>
<polygon id="Stroke-14" class="st0" points="41.707,17.219 44.04,15.981 44.085,79.338 41.751,80.577 "/>
<polygon id="Stroke-15" class="st0" points="30.953,10.758 33.287,9.519 44.04,15.981 41.707,17.219 "/>
<polygon id="Stroke-16" class="st0" points="41.707,17.219 41.751,80.577 30.998,74.116 30.953,10.758 "/>
<polygon id="Stroke-17" class="st0" points="36.736,19.574 39.07,18.335 39.114,81.693 36.781,82.932 "/>
<polygon id="Stroke-18" class="st0" points="25.983,13.112 28.317,11.874 39.07,18.335 36.736,19.573 "/>
<polygon id="Stroke-19" class="st0" points="36.736,19.574 36.781,82.932 26.028,76.47 25.983,13.113 "/>
<polygon id="Stroke-20" class="st0" points="31.766,22.185 34.1,20.946 34.144,84.304 31.811,85.543 "/>
<polygon id="Stroke-21" class="st0" points="21.013,15.724 23.346,14.485 34.1,20.946 31.766,22.185 "/>
<polygon id="Stroke-22" class="st0" points="31.766,22.185 31.811,85.543 21.057,79.081 21.013,15.724 "/>
<polygon id="Stroke-23" class="st0" points="26.797,25.12 29.13,23.881 29.175,87.239 26.841,88.477 "/>
<polygon id="Stroke-24" class="st0" points="16.044,18.659 18.377,17.42 29.13,23.882 26.797,25.12 "/>
<polygon id="Stroke-25" class="st0" points="26.797,25.12 26.841,88.477 16.088,82.016 16.044,18.659 "/>
<polygon id="Stroke-26" class="st0" points="21.827,27.731 24.16,26.492 24.205,89.85 21.871,91.088 "/>
<polygon id="Stroke-27" class="st0" points="11.073,21.27 13.407,20.031 24.16,26.493 21.827,27.731 "/>
<polygon id="Stroke-28" class="st0" points="21.827,27.731 21.871,91.088 11.118,84.627 11.073,21.27 "/>
<polygon id="Stroke-29" class="st0" points="16.856,30.236 19.19,28.998 19.234,92.355 16.901,93.594 "/>
<polygon id="Stroke-30" class="st0" points="6.103,23.775 8.437,22.536 19.19,28.998 16.856,30.236 "/>
<polygon id="Stroke-31" class="st0" points="16.856,30.236 16.901,93.594 6.148,87.133 6.103,23.775 "/>
<polygon id="Stroke-32" class="st0" points="12.114,32.475 14.448,31.237 14.492,94.595 12.159,95.834 "/>
<polygon id="Stroke-33" class="st0" points="1.361,26.014 3.695,24.776 14.448,31.237 12.114,32.475 "/>
<polygon id="Stroke-35" class="st0" points="12.114,32.475 12.159,95.834 1.405,89.372 1.361,26.014 "/>
<polygon id="Stroke-38" class="st0" points="54.035,57.205 105.373,29.955 105.42,95.757 54.081,123.007 "/>
<polygon id="Stroke-39" class="st0" points="11.626,31.724 62.965,4.473 105.373,29.955 54.035,57.206 "/>
<polygon id="Stroke-41" class="st0" points="54.035,57.205 54.081,123.007 11.672,97.526 11.626,31.724 "/>
<polygon id="Stroke-42" class="st0" points="112.049,40.444 114.382,39.206 114.427,102.563 112.094,103.802 "/>
<polygon id="Stroke-44" class="st0" points="101.297,33.983 103.63,32.744 114.383,39.206 112.05,40.444 "/>
<polygon id="Stroke-46" class="st0" points="112.049,40.444 112.094,103.802 101.34,97.341 101.296,33.983 "/>
<polygon id="Stroke-49" class="st0" points="107.08,43.056 109.413,41.817 109.458,105.175 107.124,106.413 "/>
<polygon id="Stroke-50" class="st0" points="96.326,36.595 98.66,35.356 109.413,41.818 107.08,43.056 "/>
<polygon id="Stroke-51" class="st0" points="107.08,43.056 107.124,106.413 96.371,99.952 96.326,36.595 "/>
<polygon id="Stroke-52" class="st0" points="102.109,45.991 104.443,44.752 104.487,108.11 102.154,109.349 "/>
<polygon id="Stroke-53" class="st0" points="91.356,39.53 93.69,38.291 104.443,44.752 102.109,45.991 "/>
<polygon id="Stroke-54" class="st0" points="102.109,45.991 102.154,109.349 91.401,102.888 91.356,39.53 "/>
<polygon id="Stroke-55" class="st0" points="97.139,48.602 99.473,47.363 99.517,110.721 97.183,111.96 "/>
<polygon id="Stroke-56" class="st0" points="86.386,42.141 88.719,40.902 99.473,47.363 97.139,48.602 "/>
<polygon id="Stroke-57" class="st0" points="97.139,48.602 97.183,111.96 86.43,105.499 86.386,42.141 "/>
<polygon id="Stroke-58" class="st0" points="92.17,50.957 94.503,49.718 94.548,113.076 92.214,114.314 "/>
<polygon id="Stroke-59" class="st0" points="81.416,44.495 83.75,43.257 94.503,49.718 92.17,50.956 "/>
<polygon id="Stroke-60" class="st0" points="92.17,50.957 92.214,114.314 81.461,107.853 81.416,44.496 "/>
<polygon id="Stroke-61" class="st0" points="87.199,53.568 89.533,52.329 89.577,115.687 87.244,116.926 "/>
<polygon id="Stroke-62" class="st0" points="76.446,47.107 78.78,45.869 89.533,52.33 87.199,53.568 "/>
<polygon id="Stroke-63" class="st0" points="87.199,53.568 87.244,116.926 76.491,110.464 76.446,47.107 "/>
<polygon id="Stroke-64" class="st0" points="82.229,56.503 84.563,55.265 84.607,118.622 82.274,119.861 "/>
<polygon id="Stroke-65" class="st0" points="71.476,50.042 73.81,48.803 84.563,55.265 82.229,56.503 "/>
<polygon id="Stroke-66" class="st0" points="82.229,56.503 82.274,119.861 71.52,113.4 71.476,50.042 "/>
<polygon id="Stroke-67" class="st0" points="77.259,59.114 79.592,57.876 79.638,121.233 77.304,122.472 "/>
<polygon id="Stroke-68" class="st0" points="66.507,52.653 68.84,51.414 79.593,57.876 77.26,59.114 "/>
<polygon id="Stroke-69" class="st0" points="77.259,59.114 77.304,122.472 66.55,116.011 66.507,52.653 "/>
<polygon id="Stroke-70" class="st0" points="72.29,61.619 74.623,60.38 74.668,123.738 72.334,124.977 "/>
<polygon id="Stroke-72" class="st0" points="61.536,55.158 63.87,53.919 74.623,60.38 72.29,61.619 "/>
<polygon id="Stroke-73" class="st0" points="72.29,61.619 72.334,124.977 61.581,118.516 61.536,55.158 "/>
<polygon id="Stroke-75" class="st0" points="67.547,63.859 69.881,62.62 69.926,125.978 67.592,127.216 "/>
<polygon id="Stroke-78" class="st0" points="56.794,57.397 59.128,56.158 69.881,62.62 67.547,63.858 "/>
<polygon id="Stroke-79" class="st0" points="67.547,63.859 67.592,127.216 56.839,120.755 56.794,57.398 "/>
<path id="Stroke-81" class="st0" d="M52.648,122.157l1.4-0.744c0,0.015,0,0.029-0.001,0.043l-1.399,0.743V122.157"/>
<path id="Stroke-84" class="st0" d="M52.648,122.2l1.399-0.743c0,0.028-0.001,0.056-0.003,0.083l-1.399,0.743
	C52.646,122.256,52.647,122.228,52.648,122.2"/>
<path id="Stroke-87" class="st0" d="M52.645,122.283l1.399-0.743c-0.001,0.028-0.003,0.056-0.005,0.083l-1.4,0.743
	C52.641,122.339,52.643,122.311,52.645,122.283"/>
<path id="Stroke-90" class="st0" d="M52.639,122.366l1.399-0.744c-0.002,0.029-0.004,0.056-0.008,0.083l-1.401,0.743
	C52.633,122.421,52.636,122.394,52.639,122.366"/>
<path id="Stroke-93" class="st0" d="M52.63,122.448l1.4-0.743c-0.004,0.029-0.008,0.056-0.013,0.084l-1.4,0.743
	C52.622,122.505,52.626,122.477,52.63,122.448"/>
<path id="Stroke-96" class="st0" d="M52.617,122.533l1.399-0.743c-0.004,0.028-0.01,0.056-0.016,0.083l-1.401,0.743
	C52.605,122.589,52.611,122.561,52.617,122.533"/>
<path id="Stroke-99" class="st0" d="M52.599,122.616l1.4-0.743c-0.007,0.031-0.015,0.06-0.024,0.09l-1.399,0.743
	C52.584,122.677,52.592,122.647,52.599,122.616"/>
<path id="Stroke-102" class="st0" d="M52.576,122.706l1.399-0.743c-0.008,0.032-0.019,0.063-0.03,0.093l-1.4,0.743
	C52.555,122.769,52.566,122.738,52.576,122.706"/>
<path id="Stroke-105" class="st0" d="M52.545,122.798l1.4-0.743c-0.013,0.035-0.027,0.068-0.043,0.1l-1.4,0.743
	C52.518,122.866,52.531,122.833,52.545,122.798"/>
<path id="Stroke-108" class="st0" d="M52.502,122.898l1.4-0.743c-0.02,0.042-0.042,0.081-0.065,0.118l-1.4,0.744
	C52.46,122.98,52.482,122.94,52.502,122.898"/>
<path id="Stroke-111" class="st0" d="M52.436,123.017l1.4-0.744c-0.085,0.134-0.194,0.236-0.32,0.303l-1.4,0.743
	C52.243,123.252,52.351,123.15,52.436,123.017"/>
<path id="Stroke-115" class="st0" d="M53.516,122.576l-1.4,0.743c0.328-0.174,0.532-0.578,0.532-1.162l1.4-0.744
	C54.048,121.997,53.844,122.402,53.516,122.576z"/>
<path id="Stroke-117" class="st0" d="M10.737,33.794l1.4-0.743c0.037-0.02,0.076-0.037,0.116-0.05l-1.4,0.743
	C10.813,33.757,10.774,33.774,10.737,33.794"/>
<path id="Stroke-120" class="st0" d="M10.853,33.744l1.399-0.743c0.04-0.014,0.08-0.025,0.122-0.032l-1.399,0.743
	C10.933,33.72,10.892,33.73,10.853,33.744"/>
<path id="Stroke-123" class="st0" d="M10.975,33.712l1.399-0.743c0.033-0.006,0.066-0.01,0.1-0.013l-1.4,0.743
	C11.039,33.702,11.007,33.706,10.975,33.712"/>
<path id="Stroke-126" class="st0" d="M11.074,33.699l1.4-0.743c0.029-0.002,0.058-0.003,0.088-0.003l-1.4,0.744
	C11.133,33.696,11.102,33.697,11.074,33.699"/>
<path id="Stroke-129" class="st0" d="M11.162,33.697l1.4-0.743c0.028,0,0.056,0.002,0.083,0.004l-1.399,0.743
	C11.218,33.699,11.189,33.697,11.162,33.697"/>
<path id="Stroke-132" class="st0" d="M11.246,33.701l1.399-0.743c0.026,0.002,0.051,0.005,0.077,0.009l-1.401,0.744
	C11.296,33.706,11.27,33.703,11.246,33.701"/>
<path id="Stroke-135" class="st0" d="M11.321,33.711l1.4-0.744c0.025,0.004,0.049,0.009,0.075,0.015l-1.401,0.743
	C11.37,33.719,11.345,33.715,11.321,33.711"/>
<path id="Stroke-138" class="st0" d="M11.395,33.725l1.4-0.744c0.024,0.006,0.047,0.012,0.072,0.018l-1.401,0.744
	C11.443,33.736,11.418,33.73,11.395,33.725"/>
<path id="Stroke-141" class="st0" d="M11.466,33.743l1.4-0.743c0.024,0.006,0.047,0.014,0.071,0.021l-1.401,0.743
	C11.513,33.757,11.489,33.749,11.466,33.743"/>
<path id="Stroke-144" class="st0" d="M11.537,33.764l1.4-0.743c0.024,0.008,0.046,0.016,0.07,0.025l-1.401,0.743
	C11.583,33.78,11.56,33.772,11.537,33.764"/>
<path id="Stroke-147" class="st0" d="M11.606,33.789l1.4-0.743c0.023,0.009,0.046,0.018,0.07,0.028l-1.401,0.743
	C11.652,33.807,11.629,33.798,11.606,33.789"/>
<path id="Stroke-150" class="st0" d="M11.675,33.817l1.4-0.743c0.023,0.01,0.045,0.02,0.069,0.032l-1.401,0.743
	C11.721,33.838,11.697,33.827,11.675,33.817"/>
<path id="Stroke-153" class="st0" d="M11.744,33.849l1.4-0.743c0.024,0.011,0.046,0.023,0.07,0.035l-1.401,0.743
	C11.791,33.872,11.767,33.86,11.744,33.849"/>
<path id="Stroke-156" class="st0" d="M11.813,33.884l1.4-0.743c0.024,0.013,0.047,0.025,0.071,0.039l-1.401,0.743
	C11.86,33.909,11.836,33.897,11.813,33.884"/>
<polyline id="Stroke-159" class="st0" points="11.883,33.923 13.283,33.18 13.31,33.196 11.91,33.939 11.883,33.923 "/>
<path id="Stroke-163" class="st0" d="M10.737,33.794l1.4-0.743c0.307-0.163,0.72-0.128,1.173,0.145l-1.4,0.743
	C11.457,33.667,11.044,33.631,10.737,33.794z"/>
<polygon id="Stroke-165" class="st0" points="11.91,33.939 13.31,33.196 52.323,56.637 50.923,57.38 "/>
<polygon id="Stroke-166" class="st0" points="52.605,60.416 54.004,59.673 54.048,121.414 52.648,122.157 "/>
<path id="Stroke-167" class="st0" d="M50.923,57.38l1.4-0.743c0.015,0.009,0.03,0.018,0.044,0.027l-1.4,0.743
	C50.952,57.398,50.938,57.389,50.923,57.38"/>
<path id="Stroke-170" class="st0" d="M50.966,57.408l1.4-0.743c0.024,0.014,0.047,0.03,0.071,0.046l-1.401,0.743
	C51.015,57.438,50.99,57.423,50.966,57.408"/>
<path id="Stroke-173" class="st0" d="M51.037,57.453l1.4-0.743c0.025,0.016,0.048,0.033,0.073,0.051l-1.401,0.743
	C51.085,57.486,51.061,57.47,51.037,57.453"/>
<path id="Stroke-176" class="st0" d="M51.109,57.504l1.4-0.743c0.024,0.017,0.048,0.036,0.072,0.055l-1.401,0.743
	C51.157,57.54,51.132,57.522,51.109,57.504"/>
<path id="Stroke-179" class="st0" d="M51.18,57.559l1.4-0.743c0.026,0.019,0.05,0.039,0.075,0.06l-1.401,0.743
	C51.23,57.599,51.205,57.579,51.18,57.559"/>
<path id="Stroke-182" class="st0" d="M51.255,57.619l1.4-0.743c0.025,0.021,0.05,0.042,0.074,0.064l-1.4,0.743
	C51.305,57.661,51.28,57.64,51.255,57.619"/>
<path id="Stroke-185" class="st0" d="M51.329,57.683l1.399-0.743c0.026,0.022,0.05,0.045,0.076,0.069l-1.401,0.743
	C51.379,57.728,51.353,57.705,51.329,57.683"/>
<path id="Stroke-188" class="st0" d="M51.403,57.752l1.4-0.743c0.025,0.023,0.048,0.047,0.073,0.071l-1.401,0.744
	C51.451,57.799,51.427,57.775,51.403,57.752"/>
<path id="Stroke-191" class="st0" d="M51.475,57.824l1.4-0.744c0.024,0.024,0.046,0.049,0.07,0.074l-1.401,0.743
	C51.522,57.872,51.498,57.847,51.475,57.824"/>
<path id="Stroke-194" class="st0" d="M51.545,57.897l1.4-0.743c0.022,0.024,0.044,0.048,0.066,0.073L51.61,57.97
	C51.589,57.945,51.567,57.921,51.545,57.897"/>
<path id="Stroke-197" class="st0" d="M51.61,57.97l1.4-0.743c0.022,0.024,0.042,0.048,0.063,0.073l-1.401,0.743
	C51.652,58.018,51.631,57.994,51.61,57.97"/>
<path id="Stroke-200" class="st0" d="M51.673,58.043l1.4-0.743c0.021,0.024,0.04,0.049,0.06,0.074l-1.399,0.743
	C51.713,58.092,51.694,58.067,51.673,58.043"/>
<path id="Stroke-203" class="st0" d="M51.733,58.117l1.399-0.743c0.02,0.025,0.039,0.05,0.059,0.075l-1.4,0.743
	C51.771,58.167,51.753,58.142,51.733,58.117"/>
<path id="Stroke-206" class="st0" d="M51.791,58.192l1.4-0.743c0.021,0.028,0.042,0.056,0.063,0.085l-1.401,0.743
	C51.833,58.249,51.812,58.22,51.791,58.192"/>
<path id="Stroke-209" class="st0" d="M51.853,58.277l1.4-0.743c0.022,0.03,0.043,0.061,0.064,0.092l-1.4,0.743
	C51.896,58.338,51.874,58.307,51.853,58.277"/>
<path id="Stroke-212" class="st0" d="M51.918,58.37l1.399-0.743c0.1,0.148,0.192,0.303,0.273,0.464l-1.401,0.743
	C52.108,58.674,52.018,58.518,51.918,58.37"/>
<path id="Stroke-215" class="st0" d="M52.189,58.833l1.4-0.743c0.017,0.032,0.033,0.065,0.048,0.097l-1.4,0.744
	C52.221,58.898,52.206,58.865,52.189,58.833"/>
<path id="Stroke-218" class="st0" d="M52.237,58.931l1.4-0.743c0.014,0.03,0.028,0.059,0.041,0.09l-1.399,0.743
	C52.265,58.991,52.252,58.961,52.237,58.931"/>
<path id="Stroke-221" class="st0" d="M52.279,59.021l1.399-0.743c0.012,0.025,0.023,0.051,0.035,0.077l-1.401,0.743
	C52.301,59.072,52.29,59.047,52.279,59.021"/>
<path id="Stroke-224" class="st0" d="M52.312,59.098l1.4-0.743c0.011,0.025,0.021,0.051,0.032,0.077l-1.401,0.743
	C52.333,59.149,52.323,59.123,52.312,59.098"/>
<path id="Stroke-227" class="st0" d="M52.343,59.175l1.4-0.743c0.011,0.025,0.021,0.051,0.031,0.077l-1.401,0.743
	C52.365,59.226,52.355,59.2,52.343,59.175"/>
<path id="Stroke-230" class="st0" d="M52.374,59.252l1.4-0.743c0.01,0.026,0.02,0.052,0.029,0.078l-1.401,0.743
	C52.394,59.304,52.384,59.278,52.374,59.252"/>
<path id="Stroke-233" class="st0" d="M52.402,59.33l1.4-0.743c0.01,0.027,0.019,0.054,0.028,0.08l-1.4,0.744
	C52.422,59.384,52.412,59.357,52.402,59.33"/>
<path id="Stroke-236" class="st0" d="M52.43,59.411l1.399-0.743c0.01,0.028,0.019,0.056,0.028,0.084l-1.401,0.743
	C52.448,59.467,52.439,59.439,52.43,59.411"/>
<path id="Stroke-239" class="st0" d="M52.457,59.495l1.4-0.743c0.009,0.029,0.017,0.057,0.026,0.086l-1.401,0.743
	C52.475,59.553,52.466,59.524,52.457,59.495"/>
<path id="Stroke-242" class="st0" d="M52.482,59.581l1.4-0.743l0.024,0.089l-1.401,0.743C52.499,59.641,52.49,59.611,52.482,59.581"
	/>
<path id="Stroke-245" class="st0" d="M52.506,59.671l1.4-0.743c0.008,0.03,0.015,0.06,0.022,0.09l-1.401,0.743
	C52.521,59.731,52.514,59.701,52.506,59.671"/>
<path id="Stroke-248" class="st0" d="M52.527,59.761l1.4-0.743c0.007,0.03,0.014,0.06,0.02,0.091l-1.4,0.743
	C52.541,59.822,52.534,59.791,52.527,59.761"/>
<path id="Stroke-251" class="st0" d="M52.547,59.852l1.4-0.743c0.006,0.03,0.012,0.059,0.017,0.09l-1.4,0.743
	C52.559,59.912,52.553,59.882,52.547,59.852"/>
<path id="Stroke-254" class="st0" d="M52.563,59.942l1.4-0.743c0.005,0.029,0.01,0.059,0.014,0.088l-1.4,0.743
	C52.573,60.001,52.568,59.971,52.563,59.942"/>
<path id="Stroke-257" class="st0" d="M52.577,60.03l1.4-0.743c0.004,0.029,0.008,0.058,0.011,0.087l-1.4,0.743
	C52.585,60.089,52.581,60.059,52.577,60.03"/>
<path id="Stroke-260" class="st0" d="M52.588,60.118l1.4-0.743c0.003,0.029,0.006,0.057,0.008,0.086l-1.399,0.743L52.588,60.118"/>
<path id="Stroke-263" class="st0" d="M52.596,60.204l1.399-0.743c0.003,0.028,0.005,0.057,0.006,0.085l-1.4,0.743
	C52.6,60.261,52.598,60.232,52.596,60.204"/>
<path id="Stroke-266" class="st0" d="M52.601,60.289l1.4-0.743c0.002,0.028,0.003,0.056,0.003,0.084l-1.4,0.743
	C52.604,60.346,52.603,60.317,52.601,60.289"/>
<path id="Stroke-269" class="st0" d="M52.604,60.374l1.4-0.743v0.042l-1.399,0.743C52.605,60.402,52.604,60.388,52.604,60.374"/>
<path id="Stroke-273" class="st0" d="M50.923,57.38l1.4-0.743c0.927,0.557,1.682,1.913,1.682,3.035l-1.399,0.744
	C52.605,59.294,51.851,57.937,50.923,57.38z"/>
<path id="Stroke-275" class="st0" d="M50.923,57.38c0.928,0.557,1.682,1.914,1.683,3.036l0.043,61.741
	c0.001,1.122-0.756,1.58-1.691,1.018L11.921,99.72c-0.927-0.557-1.681-1.918-1.682-3.036l-0.043-61.707
	c-0.001-1.142,0.768-1.607,1.714-1.038L50.923,57.38z"/>
<polygon id="Stroke-278" class="st0" points="34.915,60.022 31.519,57.96 31.519,53.129 34.915,55.19 "/>
<polygon id="Stroke-279" class="st0" points="34.915,66.155 31.519,64.094 31.519,59.261 34.915,61.323 "/>
<polygon id="Stroke-280" class="st0" points="34.915,72.288 31.519,70.226 31.519,65.396 34.915,67.456 "/>
<polygon id="Stroke-281" class="st0" points="34.915,78.42 31.519,76.359 31.519,71.527 34.915,73.589 "/>
<polygon id="Stroke-282" class="st0" points="34.915,89.497 31.519,87.435 31.519,82.604 34.915,84.664 "/>
<polygon id="Stroke-283" class="st0" points="34.915,95.628 31.519,93.567 31.519,88.735 34.915,90.797 "/>
<polygon id="Stroke-284" class="st0" points="34.915,101.761 31.519,99.699 31.519,94.869 34.915,96.93 "/>
<polygon id="Stroke-285" class="st0" points="34.915,107.894 31.519,105.833 31.519,101.001 34.915,103.063 "/>
<polygon id="Stroke-286" class="st0" points="23.989,73.753 20.593,71.691 20.593,66.859 23.989,68.92 "/>
<path id="Stroke-287" class="st0" d="M10.311,34.633c0.128-0.975,0.742-0.88,1.469-0.526c4.946,2.411,23.924,14.325,23.924,14.325
	l15.358,9.228c0,0,0.321,0.203,0.727,0.723c0.513,0.657,0.692,2.241,0.692,2.241l0.149,54.095c0,0,0.01,7.092-0.029,7.472
	c-0.183,1.747-1.73,0.817-1.73,0.817"/>
<polygon id="Stroke-289" class="st0" points="23.782,83.321 20.386,81.259 20.386,76.428 23.782,78.488 "/>
<polygon id="Stroke-291" class="st0" points="23.782,89.453 20.386,87.392 20.386,82.56 23.782,84.622 "/>
<polygon id="Stroke-293" class="st0" points="23.782,95.586 20.386,93.524 20.386,88.694 23.782,90.755 "/>
<polygon id="Stroke-295" class="st0" points="23.782,101.719 20.386,99.658 20.386,94.826 23.782,96.888 "/>
<polygon id="Fill-297" class="st1" points="56.617,9.061 58.95,7.823 58.995,71.181 56.661,72.418 "/>
<polygon id="Fill-299" class="st2" points="45.863,2.6 48.197,1.361 58.95,7.823 56.617,9.061 "/>
<polygon id="Fill-301" class="st3" points="56.617,9.061 56.661,72.418 45.908,65.958 45.863,2.6 "/>
<polygon id="Fill-303" class="st1" points="51.646,11.673 53.98,10.434 54.024,73.792 51.691,75.03 "/>
<polygon id="Fill-305" class="st2" points="40.893,5.211 43.227,3.972 53.98,10.434 51.646,11.672 "/>
<polygon id="Fill-307" class="st3" points="51.646,11.673 51.691,75.03 40.937,68.569 40.893,5.212 "/>
<polygon id="Fill-309" class="st1" points="46.677,14.607 49.011,13.369 49.055,76.726 46.721,77.965 "/>
<polygon id="Fill-311" class="st2" points="35.924,8.146 38.257,6.907 49.011,13.369 46.677,14.607 "/>
<polygon id="Fill-313" class="st3" points="46.677,14.607 46.721,77.965 35.968,71.504 35.924,8.146 "/>
<polygon id="Fill-315" class="st1" points="41.707,17.219 44.04,15.981 44.085,79.338 41.751,80.577 "/>
<polygon id="Fill-317" class="st2" points="30.953,10.758 33.287,9.519 44.04,15.981 41.707,17.219 "/>
<polygon id="Fill-319" class="st3" points="41.707,17.219 41.751,80.577 30.998,74.116 30.953,10.758 "/>
<polygon id="Fill-321" class="st1" points="36.736,19.574 39.07,18.335 39.114,81.693 36.781,82.932 "/>
<polygon id="Fill-323" class="st2" points="25.983,13.112 28.317,11.874 39.07,18.335 36.736,19.573 "/>
<polygon id="Fill-325" class="st3" points="36.736,19.574 36.781,82.932 26.028,76.47 25.983,13.113 "/>
<polygon id="Fill-327" class="st1" points="31.766,22.185 34.1,20.946 34.144,84.304 31.811,85.543 "/>
<polygon id="Fill-329" class="st2" points="21.013,15.724 23.346,14.485 34.1,20.946 31.766,22.185 "/>
<polygon id="Fill-331" class="st3" points="31.766,22.185 31.811,85.543 21.057,79.081 21.013,15.724 "/>
<polygon id="Fill-333" class="st1" points="26.797,25.12 29.13,23.881 29.175,87.239 26.841,88.477 "/>
<polygon id="Fill-335" class="st2" points="16.044,18.659 18.377,17.42 29.13,23.882 26.797,25.12 "/>
<polygon id="Fill-337" class="st3" points="26.797,25.12 26.841,88.477 16.088,82.016 16.044,18.659 "/>
<polygon id="Fill-339" class="st1" points="21.827,27.731 24.16,26.492 24.205,89.85 21.871,91.088 "/>
<polygon id="Fill-341" class="st2" points="11.073,21.27 13.407,20.031 24.16,26.493 21.827,27.731 "/>
<polygon id="Fill-343" class="st3" points="21.827,27.731 21.871,91.088 11.118,84.627 11.073,21.27 "/>
<polygon id="Fill-345" class="st1" points="16.856,30.236 19.19,28.998 19.234,92.355 16.901,93.594 "/>
<polygon id="Fill-347" class="st2" points="6.103,23.775 8.437,22.536 19.19,28.998 16.856,30.236 "/>
<polygon id="Fill-349" class="st3" points="16.856,30.236 16.901,93.594 6.148,87.133 6.103,23.775 "/>
<polygon id="Fill-351" class="st1" points="12.114,32.476 14.448,31.237 14.492,94.595 12.159,95.834 "/>
<polygon id="Fill-353" class="st2" points="1.361,26.014 3.695,24.776 14.448,31.237 12.114,32.475 "/>
<polygon id="Fill-355" class="st3" points="12.114,32.476 12.159,95.834 1.405,89.372 1.361,26.015 "/>
<polygon id="Fill-357" class="st4" points="54.035,57.205 105.373,29.955 105.42,95.757 54.081,123.008 "/>
<polygon id="Fill-359" class="st5" points="11.626,31.724 62.965,4.473 105.373,29.955 54.035,57.206 "/>
<polygon id="Fill-361" class="st6" points="54.035,57.205 54.081,123.008 11.672,97.526 11.626,31.724 "/>
<polygon id="Fill-363" class="st1" points="112.049,40.444 114.382,39.206 114.427,102.563 112.093,103.802 "/>
<polygon id="Fill-365" class="st2" points="101.297,33.983 103.63,32.744 114.383,39.206 112.05,40.444 "/>
<polygon id="Fill-367" class="st3" points="112.049,40.444 112.093,103.802 101.34,97.341 101.297,33.983 "/>
<polygon id="Fill-369" class="st1" points="107.08,43.056 109.413,41.817 109.458,105.175 107.124,106.413 "/>
<polygon id="Fill-371" class="st2" points="96.326,36.595 98.66,35.356 109.413,41.818 107.08,43.056 "/>
<polygon id="Fill-373" class="st3" points="107.08,43.056 107.124,106.413 96.371,99.952 96.326,36.595 "/>
<polygon id="Fill-375" class="st1" points="102.109,45.991 104.443,44.752 104.487,108.11 102.154,109.349 "/>
<polygon id="Fill-377" class="st2" points="91.356,39.53 93.69,38.291 104.443,44.752 102.109,45.991 "/>
<polygon id="Fill-379" class="st3" points="102.109,45.991 102.154,109.349 91.401,102.888 91.356,39.53 "/>
<polygon id="Fill-381" class="st1" points="97.139,48.602 99.473,47.363 99.517,110.721 97.183,111.96 "/>
<polygon id="Fill-383" class="st2" points="86.386,42.141 88.719,40.902 99.473,47.363 97.139,48.602 "/>
<polygon id="Fill-385" class="st3" points="97.139,48.602 97.183,111.96 86.43,105.499 86.386,42.141 "/>
<polygon id="Fill-387" class="st1" points="92.17,50.957 94.503,49.718 94.548,113.076 92.214,114.314 "/>
<polygon id="Fill-389" class="st2" points="81.416,44.495 83.75,43.257 94.503,49.718 92.17,50.956 "/>
<polygon id="Fill-391" class="st3" points="92.17,50.957 92.214,114.314 81.461,107.853 81.416,44.496 "/>
<polygon id="Fill-393" class="st1" points="87.199,53.568 89.533,52.329 89.577,115.687 87.244,116.926 "/>
<polygon id="Fill-395" class="st2" points="76.446,47.107 78.78,45.869 89.533,52.33 87.199,53.568 "/>
<polygon id="Fill-397" class="st3" points="87.199,53.568 87.244,116.926 76.491,110.464 76.446,47.107 "/>
<polygon id="Fill-399" class="st1" points="82.229,56.503 84.563,55.265 84.607,118.622 82.274,119.861 "/>
<polygon id="Fill-401" class="st2" points="71.476,50.042 73.81,48.803 84.563,55.265 82.229,56.503 "/>
<polygon id="Fill-403" class="st3" points="82.229,56.503 82.274,119.861 71.52,113.4 71.476,50.042 "/>
<polygon id="Fill-405" class="st1" points="77.259,59.114 79.592,57.876 79.638,121.233 77.304,122.472 "/>
<polygon id="Fill-407" class="st2" points="66.507,52.653 68.84,51.414 79.593,57.876 77.26,59.114 "/>
<polygon id="Fill-409" class="st3" points="77.259,59.114 77.304,122.472 66.55,116.011 66.507,52.653 "/>
<polygon id="Fill-411" class="st1" points="72.29,61.619 74.623,60.38 74.668,123.738 72.334,124.977 "/>
<polygon id="Fill-413" class="st2" points="61.536,55.158 63.87,53.919 74.623,60.38 72.29,61.619 "/>
<polygon id="Fill-415" class="st3" points="72.29,61.619 72.334,124.977 61.581,118.516 61.536,55.158 "/>
<polygon id="Fill-417" class="st1" points="67.547,63.859 69.881,62.62 69.926,125.978 67.592,127.216 "/>
<polygon id="Fill-419" class="st2" points="56.794,57.397 59.128,56.158 69.881,62.62 67.547,63.858 "/>
<polygon id="Fill-421" class="st3" points="67.547,63.859 67.592,127.216 56.839,120.755 56.794,57.398 "/>
<path id="Fill-424" class="st7" d="M52.648,122.157l1.4-0.744c0,0.015,0,0.029-0.001,0.043l-1.399,0.743V122.157"/>
<path id="Fill-427" class="st8" d="M52.648,122.2l1.399-0.743c0,0.028-0.001,0.056-0.003,0.083l-1.399,0.743
	C52.646,122.256,52.647,122.228,52.648,122.2"/>
<path id="Fill-430" class="st9" d="M52.645,122.283l1.399-0.743c-0.001,0.028-0.003,0.056-0.005,0.083l-1.4,0.743
	C52.641,122.339,52.643,122.311,52.645,122.283"/>
<path id="Fill-433" class="st10" d="M52.639,122.366l1.399-0.744c-0.002,0.029-0.004,0.056-0.008,0.083l-1.401,0.743
	C52.633,122.421,52.636,122.394,52.639,122.366"/>
<path id="Fill-436" class="st11" d="M52.63,122.448l1.4-0.743c-0.004,0.029-0.008,0.056-0.013,0.084l-1.4,0.743
	C52.622,122.505,52.626,122.477,52.63,122.448"/>
<path id="Fill-439" class="st12" d="M52.617,122.533l1.399-0.743c-0.004,0.028-0.01,0.056-0.016,0.083l-1.401,0.743
	C52.605,122.589,52.611,122.561,52.617,122.533"/>
<path id="Fill-442" class="st13" d="M52.599,122.616l1.4-0.743c-0.007,0.031-0.015,0.06-0.024,0.09l-1.399,0.743
	C52.584,122.677,52.592,122.647,52.599,122.616"/>
<path id="Fill-445" class="st14" d="M52.576,122.706l1.399-0.743c-0.008,0.032-0.019,0.063-0.03,0.093l-1.4,0.743
	C52.555,122.769,52.566,122.738,52.576,122.706"/>
<path id="Fill-448" class="st15" d="M52.545,122.798l1.4-0.743c-0.013,0.035-0.027,0.068-0.043,0.1l-1.4,0.743
	C52.518,122.866,52.531,122.833,52.545,122.798"/>
<path id="Fill-451" class="st16" d="M52.502,122.898l1.4-0.743c-0.02,0.042-0.042,0.081-0.065,0.118l-1.4,0.744
	C52.46,122.98,52.482,122.94,52.502,122.898"/>
<path id="Fill-454" class="st17" d="M52.436,123.017l1.4-0.744c-0.085,0.134-0.194,0.236-0.32,0.303l-1.4,0.743
	C52.243,123.252,52.351,123.15,52.436,123.017"/>
<path id="Fill-458" class="st17" d="M10.737,33.794l1.4-0.743c0.037-0.02,0.076-0.037,0.116-0.05l-1.4,0.743
	C10.813,33.757,10.774,33.774,10.737,33.794"/>
<path id="Fill-461" class="st16" d="M10.853,33.744l1.399-0.743c0.04-0.014,0.08-0.025,0.122-0.032l-1.399,0.743
	C10.933,33.72,10.892,33.73,10.853,33.744"/>
<path id="Fill-464" class="st15" d="M10.975,33.712l1.399-0.743c0.033-0.006,0.066-0.01,0.1-0.013l-1.4,0.743
	C11.039,33.702,11.007,33.706,10.975,33.712"/>
<path id="Fill-467" class="st14" d="M11.074,33.699l1.4-0.743c0.029-0.002,0.058-0.003,0.088-0.003l-1.4,0.744
	C11.133,33.696,11.102,33.697,11.074,33.699"/>
<path id="Fill-470" class="st13" d="M11.162,33.697l1.4-0.743c0.028,0,0.056,0.002,0.083,0.004l-1.399,0.743
	C11.218,33.699,11.189,33.697,11.162,33.697"/>
<path id="Fill-473" class="st12" d="M11.246,33.701l1.399-0.743c0.026,0.002,0.051,0.005,0.077,0.009l-1.401,0.744
	C11.296,33.706,11.27,33.703,11.246,33.701"/>
<path id="Fill-476" class="st11" d="M11.321,33.711l1.4-0.744c0.025,0.004,0.049,0.009,0.075,0.015l-1.401,0.743
	C11.37,33.719,11.345,33.715,11.321,33.711"/>
<path id="Fill-479" class="st10" d="M11.395,33.725l1.4-0.744c0.024,0.006,0.047,0.012,0.072,0.018l-1.401,0.744
	C11.443,33.736,11.418,33.73,11.395,33.725"/>
<path id="Fill-482" class="st9" d="M11.466,33.743l1.4-0.743c0.024,0.006,0.047,0.014,0.071,0.021l-1.401,0.743
	C11.513,33.757,11.489,33.749,11.466,33.743"/>
<path id="Fill-485" class="st8" d="M11.537,33.764l1.4-0.743c0.024,0.008,0.046,0.016,0.07,0.025l-1.401,0.743
	C11.583,33.78,11.56,33.772,11.537,33.764"/>
<path id="Fill-488" class="st7" d="M11.606,33.789l1.4-0.743c0.023,0.009,0.046,0.018,0.07,0.028l-1.401,0.743
	C11.652,33.807,11.629,33.798,11.606,33.789"/>
<path id="Fill-491" class="st18" d="M11.675,33.817l1.4-0.743c0.023,0.01,0.045,0.02,0.069,0.032l-1.401,0.743
	C11.721,33.838,11.697,33.827,11.675,33.817"/>
<path id="Fill-494" class="st19" d="M11.744,33.849l1.4-0.743c0.024,0.011,0.046,0.023,0.07,0.035l-1.401,0.743
	C11.791,33.872,11.767,33.86,11.744,33.849"/>
<path id="Fill-497" class="st20" d="M11.813,33.884l1.4-0.743c0.024,0.013,0.047,0.025,0.071,0.039l-1.401,0.743
	C11.86,33.909,11.836,33.897,11.813,33.884"/>
<polygon id="Fill-500" class="st21" points="11.883,33.923 13.283,33.18 13.31,33.196 11.91,33.939 "/>
<polygon id="Fill-504" class="st22" points="11.91,33.939 13.31,33.196 52.323,56.637 50.923,57.38 "/>
<polygon id="Fill-506" class="st23" points="52.605,60.416 54.004,59.673 54.048,121.414 52.648,122.157 "/>
<path id="Fill-509" class="st21" d="M50.923,57.38l1.4-0.743c0.015,0.009,0.03,0.018,0.044,0.027l-1.4,0.743
	C50.952,57.398,50.938,57.389,50.923,57.38"/>
<path id="Fill-512" class="st24" d="M50.966,57.408l1.4-0.743c0.024,0.014,0.047,0.03,0.071,0.046l-1.401,0.743
	C51.015,57.438,50.99,57.423,50.966,57.408"/>
<path id="Fill-515" class="st25" d="M51.037,57.453l1.4-0.743c0.025,0.016,0.048,0.033,0.073,0.051l-1.401,0.743
	C51.085,57.486,51.061,57.47,51.037,57.453"/>
<path id="Fill-518" class="st26" d="M51.109,57.504l1.4-0.743c0.024,0.017,0.048,0.036,0.072,0.055l-1.401,0.743
	C51.157,57.54,51.132,57.522,51.109,57.504"/>
<path id="Fill-521" class="st27" d="M51.18,57.559l1.4-0.743c0.026,0.019,0.05,0.039,0.075,0.06l-1.401,0.743
	C51.23,57.599,51.205,57.579,51.18,57.559"/>
<path id="Fill-524" class="st28" d="M51.255,57.619l1.4-0.743c0.025,0.021,0.05,0.042,0.074,0.064l-1.4,0.743
	C51.305,57.661,51.28,57.64,51.255,57.619"/>
<path id="Fill-527" class="st29" d="M51.329,57.683l1.399-0.743c0.026,0.022,0.05,0.045,0.076,0.069l-1.401,0.743
	C51.379,57.728,51.353,57.705,51.329,57.683"/>
<path id="Fill-530" class="st30" d="M51.403,57.752l1.4-0.743c0.025,0.023,0.048,0.047,0.073,0.071l-1.401,0.744
	C51.451,57.799,51.427,57.775,51.403,57.752"/>
<path id="Fill-533" class="st31" d="M51.475,57.824l1.4-0.744c0.024,0.024,0.046,0.049,0.07,0.074l-1.401,0.743
	C51.522,57.872,51.498,57.847,51.475,57.824"/>
<path id="Fill-536" class="st22" d="M51.545,57.897l1.4-0.743c0.022,0.024,0.044,0.048,0.066,0.073L51.61,57.97
	C51.589,57.945,51.567,57.921,51.545,57.897"/>
<path id="Fill-539" class="st32" d="M51.61,57.97l1.4-0.743c0.022,0.024,0.042,0.048,0.063,0.073l-1.401,0.743
	C51.652,58.018,51.631,57.994,51.61,57.97"/>
<path id="Fill-542" class="st33" d="M51.673,58.043l1.4-0.743c0.021,0.024,0.04,0.049,0.06,0.074l-1.399,0.743
	C51.713,58.092,51.694,58.067,51.673,58.043"/>
<path id="Fill-545" class="st34" d="M51.733,58.117l1.399-0.743c0.02,0.025,0.039,0.05,0.059,0.075l-1.4,0.743
	C51.771,58.167,51.753,58.142,51.733,58.117"/>
<path id="Fill-548" class="st35" d="M51.791,58.192l1.4-0.743c0.021,0.028,0.042,0.056,0.063,0.085l-1.401,0.743
	C51.833,58.249,51.812,58.22,51.791,58.192"/>
<path id="Fill-551" class="st36" d="M51.853,58.277l1.4-0.743c0.022,0.03,0.043,0.061,0.064,0.092l-1.4,0.743
	C51.896,58.338,51.874,58.307,51.853,58.277"/>
<path id="Fill-554" class="st37" d="M51.918,58.37l1.399-0.743c0.1,0.148,0.192,0.303,0.273,0.464l-1.401,0.743
	C52.108,58.674,52.018,58.518,51.918,58.37"/>
<path id="Fill-557" class="st36" d="M52.189,58.833l1.4-0.743c0.017,0.032,0.033,0.065,0.048,0.097l-1.4,0.744
	C52.221,58.898,52.206,58.865,52.189,58.833"/>
<path id="Fill-560" class="st35" d="M52.237,58.931l1.4-0.743c0.014,0.03,0.028,0.059,0.041,0.09l-1.399,0.743
	C52.265,58.991,52.252,58.961,52.237,58.931"/>
<path id="Fill-563" class="st34" d="M52.279,59.021l1.399-0.743c0.012,0.025,0.023,0.051,0.035,0.077l-1.401,0.743
	C52.301,59.072,52.29,59.047,52.279,59.021"/>
<path id="Fill-566" class="st33" d="M52.312,59.098l1.4-0.743c0.011,0.025,0.021,0.051,0.032,0.077l-1.401,0.743
	C52.333,59.149,52.323,59.123,52.312,59.098"/>
<path id="Fill-569" class="st32" d="M52.343,59.175l1.4-0.743c0.011,0.025,0.021,0.051,0.031,0.077l-1.401,0.743
	C52.365,59.226,52.355,59.2,52.343,59.175"/>
<path id="Fill-572" class="st22" d="M52.374,59.252l1.4-0.743c0.01,0.026,0.02,0.052,0.029,0.078l-1.401,0.743
	C52.394,59.304,52.384,59.278,52.374,59.252"/>
<path id="Fill-575" class="st31" d="M52.402,59.33l1.4-0.743c0.01,0.027,0.019,0.054,0.028,0.08l-1.4,0.744
	C52.422,59.384,52.412,59.357,52.402,59.33"/>
<path id="Fill-578" class="st30" d="M52.43,59.411l1.399-0.743c0.01,0.028,0.019,0.056,0.028,0.084l-1.401,0.743
	C52.448,59.467,52.439,59.439,52.43,59.411"/>
<path id="Fill-581" class="st29" d="M52.457,59.495l1.4-0.743c0.009,0.029,0.017,0.057,0.026,0.086l-1.401,0.743
	C52.475,59.553,52.466,59.524,52.457,59.495"/>
<path id="Fill-584" class="st28" d="M52.482,59.581l1.4-0.743l0.024,0.089l-1.401,0.743C52.499,59.641,52.49,59.611,52.482,59.581"
	/>
<path id="Fill-587" class="st27" d="M52.506,59.671l1.4-0.743c0.008,0.03,0.015,0.06,0.022,0.09l-1.401,0.743
	C52.521,59.731,52.514,59.701,52.506,59.671"/>
<path id="Fill-590" class="st26" d="M52.527,59.761l1.4-0.743c0.007,0.03,0.014,0.06,0.02,0.091l-1.4,0.743
	C52.541,59.822,52.534,59.791,52.527,59.761"/>
<path id="Fill-593" class="st25" d="M52.547,59.852l1.4-0.743c0.006,0.03,0.012,0.059,0.017,0.09l-1.4,0.743
	C52.559,59.912,52.553,59.882,52.547,59.852"/>
<path id="Fill-596" class="st24" d="M52.563,59.942l1.4-0.743c0.005,0.029,0.01,0.059,0.014,0.088l-1.4,0.743
	C52.573,60.001,52.568,59.971,52.563,59.942"/>
<path id="Fill-599" class="st21" d="M52.577,60.03l1.4-0.743c0.004,0.029,0.008,0.058,0.011,0.087l-1.4,0.743
	C52.585,60.089,52.581,60.059,52.577,60.03"/>
<path id="Fill-602" class="st20" d="M52.588,60.118l1.4-0.743c0.003,0.029,0.006,0.057,0.008,0.086l-1.399,0.743L52.588,60.118"/>
<path id="Fill-605" class="st19" d="M52.596,60.204l1.399-0.743c0.003,0.028,0.005,0.057,0.006,0.085l-1.4,0.743
	C52.6,60.261,52.598,60.232,52.596,60.204"/>
<path id="Fill-608" class="st18" d="M52.601,60.289l1.4-0.743c0.002,0.028,0.003,0.056,0.003,0.084l-1.4,0.743
	C52.604,60.346,52.603,60.317,52.601,60.289"/>
<path id="Fill-611" class="st7" d="M52.604,60.374l1.4-0.743v0.042l-1.399,0.743C52.605,60.402,52.604,60.388,52.604,60.374"/>
<path id="Fill-615" class="st38" d="M50.923,57.38c0.928,0.557,1.682,1.914,1.683,3.036l0.043,61.741
	c0.001,1.122-0.756,1.58-1.691,1.018L11.921,99.72c-0.927-0.557-1.681-1.918-1.682-3.036l-0.043-61.707
	c-0.001-1.142,0.768-1.607,1.714-1.038L50.923,57.38z"/>
<polygon id="Fill-617" class="st39" points="34.915,60.022 31.519,57.96 31.519,53.129 34.915,55.19 "/>
<polygon id="Fill-619" class="st39" points="34.915,66.155 31.519,64.094 31.519,59.261 34.915,61.323 "/>
<polygon id="Fill-621" class="st39" points="34.915,72.287 31.519,70.225 31.519,65.396 34.915,67.455 "/>
<polygon id="Fill-623" class="st39" points="34.915,78.42 31.519,76.359 31.519,71.527 34.915,73.589 "/>
<polygon id="Fill-625" class="st39" points="34.915,89.497 31.519,87.435 31.519,82.604 34.915,84.664 "/>
<polygon id="Fill-627" class="st39" points="34.915,95.628 31.519,93.567 31.519,88.735 34.915,90.797 "/>
<polygon id="Fill-629" class="st39" points="34.915,101.761 31.519,99.699 31.519,94.869 34.915,96.93 "/>
<polygon id="Fill-631" class="st39" points="34.915,107.894 31.519,105.833 31.519,101.001 34.915,103.063 "/>
<polygon id="Fill-633" class="st39" points="23.989,73.753 20.593,71.691 20.593,66.859 23.989,68.92 "/>
<path id="Stroke-635" class="st40" d="M10.311,34.633c0.128-0.975,0.742-0.88,1.469-0.526c4.946,2.411,23.924,14.325,23.924,14.325
	l15.358,9.228c0,0,0.321,0.203,0.727,0.723c0.513,0.657,0.692,2.241,0.692,2.241l0.149,54.095c0,0,0.01,7.092-0.029,7.472
	c-0.183,1.747-1.73,0.817-1.73,0.817"/>
<polygon id="Fill-637" class="st39" points="23.782,83.321 20.386,81.259 20.386,76.428 23.782,78.488 "/>
<polygon id="Fill-639" class="st39" points="23.782,89.453 20.386,87.392 20.386,82.56 23.782,84.622 "/>
<polygon id="Fill-641" class="st39" points="23.782,95.586 20.386,93.524 20.386,88.694 23.782,90.755 "/>
<polygon id="Fill-643" class="st39" points="23.782,101.719 20.386,99.658 20.386,94.826 23.782,96.888 "/>
<polygon id="Fill-645" class="st3" points="77.925,20.781 81.515,18.876 81.518,23.545 77.93,25.45 "/>
<polygon id="Fill-647" class="st41" points="74.053,18.454 77.641,16.549 81.514,18.876 77.925,20.781 "/>
<polygon id="Fill-649" class="st42" points="77.925,20.781 77.93,25.45 74.057,23.123 74.054,18.454 "/>
<polygon id="Fill-651" class="st3" points="72.225,23.849 75.813,21.944 75.816,26.613 72.228,28.518 "/>
<polygon id="Fill-653" class="st41" points="68.352,21.522 71.94,19.617 75.813,21.944 72.225,23.849 "/>
<polygon id="Fill-655" class="st42" points="72.225,23.849 72.228,28.518 68.355,26.191 68.352,21.522 "/>
<polygon id="Fill-657" class="st43" points="70.252,33.618 79.586,28.663 79.59,34.85 70.256,39.805 "/>
<polygon id="Fill-659" class="st44" points="65.411,30.709 74.746,25.754 79.586,28.663 70.252,33.617 "/>
<polygon id="Fill-661" class="st45" points="70.252,33.618 70.256,39.805 65.416,36.897 65.411,30.71 "/>
<polyline id="Stroke-663" class="st46" points="65.453,30.803 70.252,33.617 70.213,39.652 "/>
<polyline id="Stroke-665" class="st46" points="68.352,21.522 72.193,23.935 72.225,26.97 "/>
<polyline id="Stroke-667" class="st46" points="74.053,18.454 77.975,20.869 77.943,25.309 "/>
</svg>
