<?xml version="1.0" encoding="utf-8"?>
<svg version="1.1" id="Layer_1" xmlns="http://www.w3.org/2000/svg" xmlns:xlink="http://www.w3.org/1999/xlink" x="0px" y="0px"
	 viewBox="0 0 149.197 152.75" style="enable-background:new 0 0 149.197 152.75;" xml:space="preserve">
<style type="text/css">
	.st0{fill:#FEFEFE;}
	.st1{font-family:'ArialMT';}
	.st2{font-size:2.3392px;}
	.st3{fill:none;stroke:#636466;stroke-width:3;stroke-linecap:round;stroke-linejoin:round;}
	.st4{fill:#BBBDBF;}
	.st5{fill:#B3B5B7;}
	.st6{fill:#898B8E;}
	.st7{fill:none;stroke:#DFE0DF;stroke-width:0.75;stroke-linecap:round;stroke-linejoin:round;}
	.st8{fill:none;stroke:#FEFEFE;stroke-width:0.722;stroke-linecap:round;}
	.st9{fill:#636466;}
	.st10{fill:none;stroke:#636466;stroke-width:0.25;stroke-linecap:round;stroke-linejoin:round;}
	.st11{fill:#B22216;}
	.st12{fill:#231F20;}
</style>
<title>icon-SBx8100</title>
<desc>Created with Sketch.</desc>
<g id="Group-5" transform="translate(0.000000, 0.750000)">
	<text transform="matrix(1 0 0 1 33.0898 21.8198)" class="st0 st1 st2">SBx8100</text>
	<polygon id="Stroke-2" class="st3" points="1.5,36.25 69.036,0.75 147.656,46.381 80.407,82.217 	"/>
	<polygon id="Stroke-3" class="st3" points="80.407,82.217 80.437,150.473 1.511,103.053 1.543,36.272 	"/>
	<polygon id="Stroke-4" class="st3" points="80.407,82.217 147.656,46.381 147.697,115.84 80.456,150.5 	"/>
</g>
<polygon id="Fill-6" class="st4" points="1.5,37 69.036,1.5 147.656,47.131 80.407,82.967 "/>
<polygon id="Fill-7" class="st5" points="80.407,82.967 80.437,151.223 1.511,103.803 1.543,37.022 "/>
<polygon id="Fill-8" class="st6" points="80.407,82.967 147.656,47.131 147.697,116.59 80.456,151.25 "/>
<polyline id="Stroke-9" class="st7" points="2.285,37.065 80.357,82.728 80.357,150.548 "/>
<path id="Stroke-10" class="st8" d="M4.451,39.255v65.554"/>
<path id="Stroke-11" class="st8" d="M75.879,81.251v66.489"/>
<path id="Stroke-12" class="st8" d="M39.132,70.433v55.734"/>
<polygon id="Fill-13" class="st0" points="75.62,130.834 4.406,87.93 4.406,86.99 75.62,129.894 "/>
<polygon id="Fill-14" class="st0" points="75.646,140.545 4.434,97.641 4.434,96.701 75.646,139.605 "/>
<polygon id="Fill-15" class="st0" points="75.645,111.417 4.431,68.513 4.431,67.573 75.645,110.477 "/>
<polygon id="Fill-16" class="st0" points="75.393,120.991 4.18,78.087 4.18,77.147 75.393,120.051 "/>
<polygon id="Fill-17" class="st0" points="75.784,101.287 4.572,58.383 4.572,57.443 75.784,100.347 "/>
<polygon id="Fill-18" class="st0" points="12.144,77.844 6.576,74.5 6.576,71.885 12.144,75.231 "/>
<polygon id="Fill-19" class="st0" points="46.398,98.401 40.832,95.057 40.832,92.442 46.398,95.788 "/>
<polygon id="Fill-20" class="st0" points="21.387,85.905 15.82,82.561 15.82,79.946 21.387,83.292 "/>
<polygon id="Fill-21" class="st0" points="56.838,107.54 51.272,104.196 51.272,101.581 56.838,104.927 "/>
<polygon id="Fill-22" class="st0" points="64.124,111.94 58.557,108.596 58.557,105.981 64.124,109.327 "/>
<polygon id="Fill-23" class="st0" points="28.505,90.372 22.938,87.028 22.938,84.413 28.505,87.759 "/>
<polygon id="Fill-24" class="st0" points="12.734,60.465 7.167,57.121 7.167,54.506 12.734,57.852 "/>
<polygon id="Fill-25" class="st0" points="19.819,64.765 14.251,61.421 14.251,58.806 19.819,62.152 "/>
<polygon id="Fill-26" class="st0" points="27.336,69.245 21.77,65.901 21.77,63.286 27.336,66.632 "/>
<polygon id="Fill-27" class="st0" points="34.622,73.646 29.055,70.302 29.055,67.687 34.622,71.033 "/>
<polygon id="Fill-28" class="st9" points="21.588,59.948 4.936,50.33 4.936,39.329 21.588,49.055 "/>
<polygon id="Stroke-29" class="st10" points="21.588,59.948 4.936,50.33 4.936,39.329 21.588,49.055 "/>
<polygon id="Fill-30" class="st9" points="75.011,91.153 58.36,81.535 58.36,70.534 75.011,80.26 "/>
<polygon id="Stroke-31" class="st10" points="75.011,91.153 58.36,81.535 58.36,70.534 75.011,80.26 "/>
<polygon id="Fill-32" class="st9" points="39.352,70.346 22.699,60.728 22.699,49.727 39.352,59.453 "/>
<polygon id="Stroke-33" class="st10" points="39.352,70.346 22.699,60.728 22.699,49.727 39.352,59.453 "/>
<polygon id="Fill-34" class="st9" points="57.285,80.687 40.634,71.069 40.634,60.068 57.285,69.794 "/>
<polygon id="Stroke-35" class="st10" points="57.285,80.687 40.634,71.069 40.634,60.068 57.285,69.794 "/>
<polygon id="Fill-36" class="st0" points="49.125,82.294 43.558,78.95 43.558,76.335 49.125,79.681 "/>
<polygon id="Fill-37" class="st0" points="56.21,86.594 50.642,83.25 50.642,80.635 56.21,83.981 "/>
<polygon id="Fill-38" class="st0" points="63.727,91.074 58.16,87.73 58.16,85.115 63.727,88.461 "/>
<polygon id="Fill-39" class="st0" points="71.013,95.475 65.446,92.131 65.446,89.516 71.013,92.862 "/>
<polygon id="Fill-40" class="st0" points="20.838,92.048 5.649,82.883 5.649,80.629 20.836,89.704 "/>
<polygon id="Fill-41" class="st0" points="20.895,95.462 5.706,86.297 5.706,84.043 20.892,93.118 "/>
<polygon id="Fill-42" class="st0" points="37.413,101.823 22.225,92.658 22.225,90.404 37.412,99.479 "/>
<polygon id="Fill-43" class="st0" points="37.469,105.237 22.281,96.072 22.281,93.818 37.468,102.893 "/>
<polygon id="Fill-44" class="st0" points="56.748,113.61 41.559,104.445 41.559,102.191 56.746,111.266 "/>
<polygon id="Fill-45" class="st0" points="56.805,117.024 41.616,107.859 41.616,105.605 56.803,114.68 "/>
<polygon id="Fill-46" class="st0" points="73.323,123.386 58.135,114.221 58.135,111.967 73.322,121.042 "/>
<polygon id="Fill-47" class="st0" points="73.379,126.8 58.191,117.635 58.191,115.381 73.378,124.456 "/>
<polygon id="Fill-48" class="st0" points="20.793,71.948 5.604,62.783 5.604,60.529 20.791,69.604 "/>
<polygon id="Fill-49" class="st0" points="20.85,75.362 5.661,66.197 5.661,63.943 20.848,73.018 "/>
<polygon id="Fill-50" class="st0" points="37.368,81.724 22.18,72.559 22.18,70.305 37.367,79.38 "/>
<polygon id="Fill-51" class="st0" points="37.424,85.138 22.236,75.973 22.236,73.719 37.423,82.794 "/>
<polygon id="Fill-52" class="st0" points="56.703,93.511 41.514,84.346 41.514,82.092 56.701,91.167 "/>
<polygon id="Fill-53" class="st0" points="56.76,96.925 41.571,87.76 41.571,85.506 56.758,94.581 "/>
<polygon id="Fill-54" class="st0" points="73.278,103.286 58.09,94.121 58.09,91.867 73.277,100.942 "/>
<polygon id="Fill-55" class="st0" points="73.334,106.7 58.146,97.535 58.146,95.281 73.333,104.356 "/>
<polygon id="Fill-56" class="st0" points="20.793,101.943 5.604,92.778 5.604,90.524 20.791,99.599 "/>
<polygon id="Fill-57" class="st0" points="20.85,105.357 5.661,96.192 5.661,93.938 20.848,103.013 "/>
<polygon id="Fill-58" class="st0" points="37.368,111.719 22.18,102.554 22.18,100.3 37.367,109.375 "/>
<polygon id="Fill-59" class="st0" points="37.424,115.133 22.236,105.968 22.236,103.714 37.423,112.789 "/>
<polygon id="Fill-60" class="st0" points="56.703,123.506 41.514,114.341 41.514,112.087 56.701,121.162 "/>
<polygon id="Fill-61" class="st0" points="56.76,126.92 41.571,117.755 41.571,115.501 56.758,124.576 "/>
<polygon id="Fill-62" class="st0" points="73.278,133.281 58.09,124.116 58.09,121.862 73.277,130.937 "/>
<polygon id="Fill-63" class="st0" points="73.334,136.695 58.146,127.53 58.146,125.276 73.333,134.351 "/>
<polygon id="Fill-64" class="st0" points="21.11,111.066 5.921,101.901 5.921,99.647 21.108,108.723 "/>
<polygon id="Fill-65" class="st0" points="21.167,114.48 5.978,105.315 5.978,103.062 21.165,112.136 "/>
<polygon id="Fill-66" class="st0" points="37.686,120.842 22.497,111.677 22.497,109.423 37.685,118.498 "/>
<polygon id="Fill-67" class="st0" points="37.741,124.256 22.553,115.091 22.553,112.837 37.74,121.912 "/>
<polygon id="Fill-68" class="st0" points="57.021,132.629 41.832,123.464 41.832,121.21 57.019,130.285 "/>
<polygon id="Fill-69" class="st0" points="57.077,136.043 41.888,126.878 41.888,124.624 57.075,133.699 "/>
<polygon id="Fill-70" class="st0" points="73.596,142.404 58.408,133.239 58.408,130.985 73.595,140.06 "/>
<polygon id="Fill-71" class="st0" points="73.651,145.818 58.463,136.653 58.463,134.399 73.65,143.474 "/>
<g id="Group-104" transform="translate(39.000000, 14.750000)">
	<path id="Fill-72" class="st11" d="M14.818,4.998c-0.759-1.238-1.352-1.896-2.191-2.403c-0.882-0.533-1.783-0.686-2.302-0.398
		C8.75,3.07,14.211,5.853,10.571,7.871C8.567,8.982,5.814,8.666,3.616,7.339c-1.721-1.038-2.1-1.817-2.548-2.707l2.248-1.246
		C3.74,4.792,4.255,5.512,5.34,6.166c0.94,0.567,1.798,0.678,2.41,0.339c1.713-0.95-3.933-3.631-0.186-5.708
		c1.805-1.001,4.472-0.773,6.757,0.607c1.1,0.663,1.852,1.402,2.531,2.466L14.818,4.998z"/>
	<polygon id="Fill-74" class="st11" points="11.423,12.052 10.439,11.457 14.62,5.657 16.761,6.949 14.277,9.949 19.652,8.695 
		20.925,9.463 18.515,12.507 23.802,11.199 25.943,12.491 15.761,14.67 14.763,14.068 16.939,10.936 	"/>
	<path id="Fill-76" class="st11" d="M31.049,12.917c-0.673,0.373-1.745,0.364-2.381-0.021c-0.637-0.383-0.606-1.002,0.067-1.375
		c0.672-0.374,1.743-0.365,2.379,0.019C31.751,11.925,31.722,12.544,31.049,12.917z M21.603,18.036l-2.097-1.265l7.05-3.91
		l2.097,1.266L21.603,18.036z"/>
	<path id="Fill-78" class="st11" d="M33.298,18.685l-2.43-1.467l-2.905,1.612c-0.688,0.381-0.756,0.854-0.105,1.247
		c0.434,0.262,0.946,0.447,1.815,0.618l-1.605,0.889c-1.059-0.266-1.731-0.53-2.381-0.922c-1.389-0.838-1.916-1.936,0.056-3.03
		l3.029-1.679l-0.954-0.576l0.428-0.237l6.095-0.146l0.26,0.156l-2.219,1.229l2.43,1.466L33.298,18.685z"/>
	<path id="Fill-80" class="st11" d="M34.64,25.516c-1.16-0.328-2.021-0.671-2.73-1.099c-2.343-1.414-2.424-3.128-0.222-4.348
		c2.157-1.197,5.263-1.092,7.46,0.234c0.679,0.41,1.363,1.036,1.783,1.608l-1.652,0.916c-0.243-0.501-0.711-0.979-1.232-1.293
		c-1.258-0.759-2.864-0.808-4.102-0.121c-1.254,0.696-1.284,1.633-0.084,2.358c0.506,0.306,1.076,0.508,2.369,0.863L34.64,25.516z"
		/>
	<path id="Fill-82" class="st11" d="M43.554,24.326l0.029,0.018c1.418-0.083,2.463,0.123,3.289,0.621
		c1.215,0.733,1.664,1.907-0.248,2.967l-4.496,2.493l-2.096-1.266l4.022-2.229c1.055-0.585,1.109-1.119,0.459-1.511
		c-0.492-0.297-1.232-0.372-2.474-0.254l-4.496,2.493l-2.096-1.267l10.429-5.782l2.098,1.267L43.554,24.326z"/>
	<path id="Fill-84" class="st12" d="M50.196,28.813l1.056,0.638c1.996,1.204,3.53,1.157,4.769,0.469
		c1.591-0.88,0.894-1.868-0.638-2.793l-1.027-0.621L50.196,28.813z M45.271,31.542l2.039,1.232c2.039,1.23,3.737,0.909,4.685,0.384
		c1.025-0.569,1.621-1.501-0.765-2.942l-1.707-1.03L45.271,31.542z M56.315,26.912c2.662,1.606,1.799,2.803,0.591,3.473
		c-1.04,0.577-2.206,0.705-3.741,0.434c1.168,1.094,1.031,2.074-0.362,2.846c-1.712,0.949-4.069,0.749-6.079-0.464l-2.891-1.746
		l10.429-5.783L56.315,26.912z"/>
	<polygon id="Fill-86" class="st12" points="51.938,36.347 51.243,35.928 61.673,30.146 62.368,30.565 	"/>
	<path id="Fill-88" class="st12" d="M60.309,37.344c-1.614-1.063-3.798-1.478-4.991-0.816c-0.643,0.356-0.582,0.959,0.156,1.404
		c0.621,0.375,1.373,0.546,2.694,0.599L60.309,37.344z M59.167,40.037l-0.207-0.018c-1.171-0.106-1.552-0.211-1.828-0.377
		c-0.318-0.193-0.236-0.338,0.394-0.755c-1.32-0.106-2.201-0.337-2.895-0.755c-0.984-0.594-0.969-1.489-0.007-2.023
		c1.79-0.993,4.312-0.196,6.297,0.896l0.871-0.483c0.918-0.509,0.931-1.068-0.038-1.653c-0.694-0.419-1.474-0.589-2.852-0.713
		l0.749-0.416c1.315,0.193,2.122,0.432,2.831,0.86c0.81,0.489,1.672,1.417,0.234,2.214l-4.282,2.374
		c-0.274,0.153-0.308,0.22-0.192,0.291c0.159,0.095,0.9,0.171,1.537,0.219L59.167,40.037z"/>
	<path id="Fill-90" class="st12" d="M69.699,40.532c-0.235-0.691-0.573-1.09-1.253-1.5c-1.504-0.908-3.736-0.909-5.373-0.002
		c-1.666,0.924-1.748,2.31-0.186,3.252c0.65,0.393,1.237,0.57,2.376,0.709L69.699,40.532z M64.749,44.079l-0.694-0.419l0.536-0.296
		c-1.2-0.139-1.859-0.343-2.596-0.788c-1.852-1.117-1.723-2.847,0.296-3.966c2.049-1.136,4.952-1.137,6.846,0.006
		c0.665,0.402,0.99,0.758,1.373,1.467l3.975-2.205l0.693,0.419L64.749,44.079z"/>
	<path id="Fill-92" class="st12" d="M75.21,45.435c1.1-0.895,1.064-1.678-0.051-2.35c-1.068-0.646-2.657-0.736-4.157-0.19
		L75.21,45.435z M70.318,43.173c-1.961,0.854-1.991,2.394-0.515,3.284c0.867,0.524,1.882,0.783,3.44,0.89l-0.826,0.457
		c-1.394-0.114-2.479-0.433-3.42-1.001c-1.88-1.134-1.71-2.803,0.416-3.981c2.019-1.119,4.744-1.174,6.465-0.135
		c1.389,0.838,1.853,2.305-0.44,3.576L70.318,43.173z"/>
	<polygon id="Fill-94" class="st12" points="4.819,25.612 3.923,25.071 10.405,24.911 10.79,21.264 11.686,21.805 11.386,24.919 
		16.777,24.879 17.673,25.42 11.344,25.477 10.806,29.226 9.91,28.685 10.377,25.478 	"/>
	<path id="Fill-96" class="st12" d="M23.832,28.021c1.116-0.619,1.166-1.617,0.109-2.254c-1.041-0.629-2.767-0.626-3.899,0.001
		c-1.147,0.637-1.21,1.626-0.14,2.272C20.987,28.695,22.655,28.674,23.832,28.021 M14.868,28.42c-1.207,0.67-1.321,1.771-0.12,2.496
		c1.215,0.732,3.032,0.696,4.348-0.034c1.192-0.661,1.215-1.745,0.044-2.452C17.981,27.732,16.077,27.75,14.868,28.42
		 M19.288,25.333c1.515-0.839,3.984-0.819,5.387,0.028c1.447,0.873,1.379,2.284-0.136,3.123c-0.978,0.543-2.193,0.73-3.628,0.555
		c0.356,0.941-0.008,1.696-1.124,2.315c-1.683,0.933-4.212,0.911-5.773-0.031c-1.591-0.961-1.535-2.432,0.087-3.331
		c1.117-0.619,2.54-0.823,4.121-0.576C17.979,26.56,18.325,25.867,19.288,25.333"/>
	<polygon id="Fill-98" class="st12" points="20.448,35.046 19.711,34.602 30.141,28.819 30.878,29.264 	"/>
	<path id="Fill-100" class="st12" d="M36.059,33.081c-1.417-0.855-4.326-0.397-7.033,1.104c-2.738,1.517-3.65,3.145-2.233,4
		c1.606,0.969,4.647,0.254,7.093-1.102C36.135,35.837,37.722,34.085,36.059,33.081 M26.117,38.627
		c-1.866-1.126-1.118-3.066,1.988-4.786c2.263-1.255,4.136-1.808,6.039-1.791c0.894,0.008,1.941,0.197,2.648,0.625
		c0.696,0.419,0.996,0.971,0.969,1.522c-0.056,1.171-1.302,2.314-3.214,3.373C31.183,39.435,27.809,39.648,26.117,38.627"/>
	<path id="Fill-102" class="st12" d="M43.416,37.522c-1.417-0.855-4.326-0.397-7.033,1.103c-2.738,1.518-3.65,3.145-2.233,4.001
		c1.606,0.968,4.647,0.254,7.093-1.102C43.492,40.278,45.079,38.526,43.416,37.522 M33.474,43.069
		c-1.866-1.126-1.118-3.066,1.988-4.787c2.263-1.255,4.136-1.807,6.039-1.791c0.894,0.008,1.941,0.197,2.648,0.625
		c0.696,0.419,0.996,0.972,0.969,1.523c-0.056,1.17-1.302,2.313-3.214,3.372C38.54,43.876,35.166,44.09,33.474,43.069"/>
</g>
</svg>
