<?xml version="1.0" encoding="utf-8"?>
<svg version="1.1" id="Layer_1" xmlns="http://www.w3.org/2000/svg" xmlns:xlink="http://www.w3.org/1999/xlink" x="0px" y="0px"
	 viewBox="0 0 130.229 110.987" style="enable-background:new 0 0 130.229 110.987;" xml:space="preserve">
<style type="text/css">
	.st0{fill:none;stroke:#626366;stroke-width:3;stroke-linecap:round;stroke-linejoin:round;}
	.st1{fill:#898B8E;}
	.st2{fill:#BBBDBF;}
	.st3{fill:#B3B5B7;}
	.st4{fill:none;stroke:#DFE0DF;stroke-width:0.75;stroke-linecap:round;stroke-linejoin:round;}
	.st5{fill:#FEFEFE;}
	.st6{fill:none;stroke:#FEFEFE;}
	.st7{fill:#231F20;}
	.st8{fill:none;stroke:#FEFEFE;stroke-width:0.722;stroke-linecap:round;}
</style>
<title>icon-SXx908GEN2</title>
<desc>Created with Sketch.</desc>
<polygon id="Stroke-1" class="st0" points="1.5,27.426 50.34,1.5 128.721,48.598 79.881,74.522 "/>
<polygon id="Stroke-3" class="st0" points="79.881,74.522 79.889,109.487 1.508,62.391 1.5,27.426 "/>
<polygon id="Stroke-5" class="st0" points="79.881,74.522 128.721,48.598 128.729,83.563 79.889,109.487 "/>
<polygon id="Fill-8" class="st1" points="79.881,74.524 128.721,48.599 128.729,83.565 79.889,109.489 "/>
<polygon id="Fill-9" class="st2" points="1.5,27.427 50.34,1.502 128.721,48.599 79.881,74.524 "/>
<polygon id="Fill-10" class="st3" points="79.881,74.524 79.889,109.489 1.508,62.393 1.5,27.427 "/>
<polyline id="Stroke-11" class="st4" points="1.894,27.33 79.881,74.189 79.881,109.184 "/>
<polygon id="Fill-12" class="st5" points="24.082,64.284 22.951,63.606 22.951,50.606 24.082,51.284 "/>
<polygon id="Stroke-13" class="st6" points="24.082,64.284 22.951,63.606 22.951,50.606 24.082,51.284 "/>
<polygon id="Fill-14" class="st5" points="7.819,64.284 6.688,63.606 6.688,50.606 7.819,51.284 "/>
<polygon id="Stroke-15" class="st6" points="7.819,64.284 6.688,63.606 6.688,50.606 7.819,51.284 "/>
<polygon id="Fill-16" class="st5" points="8.153,46.95 7.022,46.272 7.022,33.272 8.153,33.95 "/>
<polygon id="Stroke-17" class="st6" points="8.153,46.95 7.022,46.272 7.022,33.272 8.153,33.95 "/>
<polygon id="Fill-18" class="st5" points="72.979,89.647 65.416,85.271 65.364,82.107 72.927,86.483 "/>
<path id="Fill-19" class="st7" d="M45.413,17.769l1.41,0.714c-0.486,0.341-0.793,0.675-0.92,1.005
	c-0.128,0.329-0.064,0.695,0.19,1.099c0.255,0.405,0.675,0.785,1.263,1.14c0.523,0.315,1.067,0.548,1.63,0.698
	c0.564,0.151,1.087,0.205,1.57,0.164c0.481-0.04,0.891-0.154,1.23-0.341c0.344-0.191,0.549-0.415,0.617-0.67
	c0.069-0.255-0.027-0.563-0.287-0.92c-0.162-0.232-0.599-0.701-1.308-1.41c-0.709-0.707-1.148-1.235-1.315-1.583
	c-0.22-0.451-0.249-0.862-0.086-1.232c0.165-0.371,0.497-0.696,1-0.975c0.552-0.306,1.217-0.503,1.994-0.59
	c0.777-0.088,1.574-0.029,2.393,0.177c0.818,0.205,1.576,0.519,2.273,0.94c0.766,0.463,1.312,0.943,1.636,1.442
	c0.325,0.498,0.392,0.984,0.199,1.455c-0.192,0.472-0.598,0.893-1.217,1.263l-1.418-0.734c0.622-0.426,0.906-0.861,0.852-1.302
	c-0.054-0.443-0.478-0.902-1.273-1.383c-0.829-0.5-1.593-0.775-2.292-0.826c-0.701-0.05-1.277,0.05-1.73,0.301
	c-0.393,0.218-0.583,0.478-0.568,0.781c0.01,0.3,0.437,0.859,1.285,1.679c0.846,0.82,1.377,1.409,1.593,1.77
	c0.307,0.526,0.381,1.001,0.217,1.423c-0.163,0.424-0.538,0.799-1.126,1.124c-0.582,0.323-1.289,0.531-2.12,0.627
	c-0.829,0.096-1.684,0.044-2.561-0.154c-0.876-0.198-1.684-0.52-2.423-0.966c-0.937-0.565-1.577-1.119-1.922-1.661
	c-0.344-0.542-0.405-1.082-0.185-1.621C44.233,18.665,44.699,18.186,45.413,17.769"/>
<path id="Fill-21" class="st7" d="M59.312,22.882l2.238,1.351c0.606,0.366,1.084,0.605,1.432,0.717
	c0.459,0.15,0.903,0.207,1.332,0.173c0.432-0.034,0.838-0.158,1.221-0.37c0.363-0.202,0.601-0.429,0.713-0.682
	c0.111-0.252,0.064-0.499-0.138-0.74c-0.204-0.241-0.679-0.586-1.421-1.035l-2.068-1.248L59.312,22.882z M54.257,25.684l2.576,1.555
	c0.444,0.267,0.771,0.445,0.985,0.534c0.375,0.156,0.737,0.26,1.09,0.311c0.351,0.051,0.727,0.043,1.131-0.022
	c0.403-0.065,0.777-0.195,1.126-0.387c0.408-0.227,0.664-0.482,0.768-0.77c0.103-0.286,0.04-0.568-0.189-0.847
	c-0.228-0.28-0.671-0.618-1.33-1.016l-2.393-1.444L54.257,25.684z M51.596,25.573l10.945-6.068l3.883,2.344
	c0.79,0.477,1.315,0.922,1.571,1.332c0.255,0.411,0.289,0.826,0.1,1.245c-0.191,0.418-0.537,0.767-1.04,1.046
	c-0.468,0.259-1.027,0.431-1.681,0.514c-0.654,0.084-1.349,0.051-2.087-0.101c0.431,0.486,0.58,0.96,0.451,1.423
	c-0.133,0.462-0.516,0.87-1.154,1.223c-0.512,0.285-1.092,0.487-1.737,0.607c-0.645,0.121-1.238,0.157-1.777,0.107
	c-0.541-0.05-1.099-0.176-1.676-0.384c-0.576-0.207-1.192-0.508-1.852-0.906L51.596,25.573z"/>
<path id="Fill-23" class="st7" d="M59.697,30.463l6.86-0.631l1.274-3.641l1.588,0.959l-0.707,1.725
	c-0.138,0.326-0.26,0.596-0.368,0.808c0.536-0.058,1.018-0.104,1.446-0.14l3.138-0.275l1.518,0.915l-6.324,0.507l-1.407,4.008
	l-1.561-0.941l0.925-2.295l0.255-0.615l-5.098,0.545L59.697,30.463z"/>
<path id="Fill-25" class="st7" d="M79.929,34.151c0.771-0.428,1.188-0.885,1.254-1.37c0.065-0.485-0.176-0.894-0.722-1.223
	c-0.565-0.341-1.301-0.503-2.208-0.485c-0.906,0.018-1.747,0.242-2.523,0.673c-0.697,0.385-1.065,0.82-1.104,1.301
	c-0.037,0.482,0.237,0.899,0.821,1.25c0.587,0.356,1.289,0.527,2.102,0.514C78.364,34.798,79.158,34.579,79.929,34.151
	 M69.896,33.688l1.34,0.671c-0.504,0.399-0.746,0.763-0.728,1.091c0.019,0.328,0.254,0.63,0.711,0.905
	c0.391,0.235,0.828,0.39,1.312,0.462c0.481,0.073,0.976,0.079,1.48,0.017c0.504-0.062,1.09-0.204,1.754-0.424
	c0.664-0.222,1.275-0.487,1.833-0.796c0.06-0.032,0.147-0.084,0.261-0.153c-0.681,0.085-1.376,0.067-2.081-0.051
	c-0.707-0.118-1.317-0.332-1.829-0.642c-0.857-0.516-1.253-1.137-1.189-1.858c0.064-0.723,0.634-1.381,1.708-1.978
	c1.11-0.615,2.314-0.924,3.609-0.926c1.295-0.001,2.41,0.28,3.341,0.841c0.673,0.407,1.097,0.884,1.271,1.434
	c0.175,0.549,0.053,1.107-0.368,1.676c-0.419,0.567-1.302,1.223-2.646,1.968c-1.398,0.776-2.655,1.307-3.771,1.593
	c-1.116,0.286-2.174,0.378-3.174,0.277c-1-0.104-1.882-0.384-2.644-0.845c-0.809-0.488-1.233-1.02-1.27-1.592
	C68.777,34.785,69.137,34.228,69.896,33.688"/>
<path id="Fill-27" class="st7" d="M81.806,37.557c-1.797,0.996-2.794,1.779-2.992,2.349c-0.196,0.57-0.004,1.031,0.58,1.382
	c0.584,0.353,1.372,0.483,2.368,0.392c0.995-0.091,2.388-0.633,4.181-1.626c1.801-0.999,2.799-1.783,2.994-2.351
	c0.194-0.569-0.005-1.032-0.598-1.39c-0.583-0.352-1.31-0.488-2.181-0.409C85.053,36.01,83.603,36.561,81.806,37.557 M80.5,36.769
	c1.294-0.718,2.46-1.219,3.501-1.505c1.041-0.285,2.024-0.396,2.948-0.334c0.925,0.063,1.764,0.32,2.517,0.775
	c0.555,0.335,0.925,0.695,1.107,1.08c0.182,0.382,0.187,0.78,0.014,1.192s-0.501,0.842-0.985,1.29s-1.269,0.974-2.354,1.575
	c-1.284,0.712-2.445,1.211-3.484,1.498c-1.038,0.287-2.02,0.4-2.948,0.339c-0.927-0.061-1.769-0.32-2.527-0.777
	c-0.998-0.603-1.403-1.285-1.215-2.049C77.302,38.937,78.444,37.909,80.5,36.769"/>
<path id="Fill-29" class="st7" d="M92.787,40.925c-0.518,0.287-0.784,0.617-0.798,0.989c-0.013,0.372,0.233,0.711,0.736,1.016
	c0.491,0.295,1.055,0.446,1.693,0.455c0.639,0.007,1.195-0.119,1.669-0.381c0.492-0.273,0.746-0.6,0.758-0.981
	c0.015-0.381-0.219-0.717-0.7-1.006c-0.484-0.293-1.05-0.445-1.699-0.455C93.798,40.55,93.245,40.671,92.787,40.925 M87.322,43.481
	c-0.384,0.212-0.668,0.469-0.854,0.772c-0.188,0.302-0.209,0.61-0.068,0.924c0.144,0.313,0.409,0.588,0.8,0.824
	c0.607,0.365,1.316,0.554,2.123,0.564c0.809,0.009,1.531-0.162,2.169-0.516c0.648-0.358,0.978-0.778,0.994-1.259
	c0.016-0.48-0.281-0.904-0.893-1.274c-0.598-0.361-1.302-0.544-2.114-0.549C88.668,42.962,87.949,43.133,87.322,43.481
	 M90.764,42.342c-0.324-0.433-0.423-0.829-0.298-1.192c0.123-0.364,0.449-0.692,0.976-0.984c0.797-0.441,1.738-0.649,2.821-0.623
	c1.083,0.026,2.075,0.31,2.974,0.853c0.904,0.546,1.353,1.137,1.348,1.778c-0.004,0.64-0.404,1.181-1.2,1.622
	c-0.508,0.281-1.076,0.45-1.703,0.507c-0.627,0.057-1.301-0.015-2.017-0.21c0.416,0.505,0.546,0.992,0.391,1.463
	c-0.157,0.471-0.575,0.893-1.251,1.269c-0.936,0.519-2.035,0.766-3.298,0.741c-1.262-0.024-2.405-0.345-3.426-0.961
	c-1.021-0.617-1.525-1.291-1.512-2.024c0.014-0.732,0.499-1.363,1.455-1.892c0.711-0.395,1.478-0.623,2.3-0.683
	C89.145,41.946,89.958,42.057,90.764,42.342"/>
<path id="Fill-31" class="st7" d="M41.715,32.345l1.284-0.712l4.393,2.643l-4.063,2.251c-1.24-0.092-2.361-0.274-3.363-0.547
	c-1.002-0.274-1.879-0.637-2.631-1.092c-1.017-0.613-1.711-1.299-2.082-2.055c-0.369-0.757-0.33-1.505,0.117-2.243
	c0.448-0.738,1.208-1.406,2.283-2.002c1.066-0.591,2.271-1.014,3.616-1.272c1.344-0.258,2.635-0.272,3.874-0.043
	c1.239,0.228,2.374,0.654,3.404,1.276c0.749,0.452,1.297,0.932,1.646,1.439c0.348,0.506,0.464,0.991,0.35,1.452
	c-0.114,0.462-0.45,0.95-1.009,1.467l-1.593-0.547c0.403-0.403,0.648-0.763,0.736-1.078c0.087-0.316,0.013-0.657-0.223-1.021
	c-0.237-0.365-0.617-0.705-1.139-1.02c-0.625-0.378-1.268-0.649-1.925-0.813c-0.659-0.163-1.293-0.239-1.901-0.226
	c-0.608,0.013-1.187,0.082-1.736,0.206c-0.94,0.216-1.807,0.544-2.598,0.983c-0.975,0.541-1.632,1.089-1.972,1.645
	s-0.364,1.106-0.076,1.649c0.289,0.543,0.773,1.02,1.457,1.432c0.591,0.358,1.292,0.64,2.098,0.848
	c0.805,0.206,1.492,0.322,2.058,0.347l2.038-1.13L41.715,32.345z"/>
<polygon id="Fill-33" class="st7" points="43.544,38.421 54.49,32.353 61.973,36.869 60.681,37.585 54.567,33.895 51.216,35.753 
	56.94,39.209 55.657,39.921 49.931,36.465 46.205,38.53 52.559,42.365 51.267,43.082 "/>
<polygon id="Fill-35" class="st7" points="52.569,43.868 63.515,37.8 64.921,38.648 61.762,46.693 70.356,41.93 71.67,42.722 
	60.723,48.79 59.319,47.942 62.485,39.892 53.883,44.661 "/>
<path id="Fill-37" class="st7" d="M70.043,52.919l-1.292,0.717l-6.84-4.129c0.315-0.186,0.674-0.328,1.081-0.428
	c0.668-0.168,1.432-0.269,2.293-0.303c0.862-0.033,1.968-0.004,3.32,0.085c2.101,0.138,3.633,0.168,4.599,0.091
	c0.965-0.077,1.701-0.257,2.209-0.539c0.532-0.295,0.802-0.652,0.808-1.072s-0.281-0.806-0.86-1.154
	c-0.611-0.37-1.295-0.557-2.049-0.564c-0.756-0.006-1.481,0.179-2.171,0.558l-1.164-0.867c1.118-0.518,2.24-0.749,3.364-0.697
	c1.124,0.053,2.178,0.376,3.161,0.97c0.993,0.599,1.487,1.235,1.484,1.907c-0.004,0.672-0.436,1.247-1.297,1.725
	c-0.438,0.243-0.954,0.43-1.545,0.562c-0.593,0.133-1.32,0.209-2.181,0.232c-0.86,0.022-2.156-0.016-3.886-0.115
	c-1.438-0.084-2.387-0.125-2.845-0.122s-0.879,0.03-1.265,0.08L70.043,52.919z"/>
<path id="Fill-39" class="st5" d="M77.701,101.666c0,1.909-1.548,2.529-3.458,1.381c-1.913-1.15-3.461-3.629-3.461-5.537
	c0-1.912,1.548-2.531,3.461-1.382C76.153,97.275,77.701,99.754,77.701,101.666"/>
<path id="Fill-41" class="st5" d="M71.02,97.652c0.005,1.781,1.442,4.084,3.223,5.157c1.78,1.066,3.215,0.489,3.219-1.285
	c-0.004-1.783-1.439-4.086-3.219-5.159C72.462,95.299,71.025,95.875,71.02,97.652 M70.545,97.367c0-2.044,1.654-2.705,3.698-1.478
	c2.043,1.228,3.695,3.876,3.695,5.92c0,2.039-1.652,2.704-3.695,1.476C72.199,102.057,70.545,99.407,70.545,97.367"/>
<path id="Fill-43" class="st3" d="M76.697,104.27l-5.637-9.023c-0.177-0.286-0.177-0.573,0-0.643
	c0.177-0.071,0.465,0.102,0.643,0.386l5.637,9.023c0.177,0.285,0.177,0.571,0,0.643c-0.089,0.035-0.206,0.01-0.322-0.061
	C76.902,104.525,76.786,104.412,76.697,104.27"/>
<path id="Fill-45" class="st3" d="M71.095,100.868c-0.178-0.285-0.178-0.571,0-0.643l5.637-2.252
	c0.177-0.07,0.466,0.103,0.642,0.385c0.178,0.285,0.178,0.573,0,0.644l-5.636,2.252c-0.09,0.036-0.206,0.01-0.323-0.06
	C71.299,101.124,71.183,101.01,71.095,100.868"/>
<path id="Fill-47" class="st3" d="M75.983,100.694c0,0.978-0.793,1.292-1.771,0.704c-0.981-0.589-1.775-1.856-1.775-2.834
	c0-0.981,0.794-1.298,1.775-0.709C75.189,98.443,75.983,99.713,75.983,100.694"/>
<path id="Fill-49" class="st5" d="M68.54,95.957c0,1.908-1.547,2.528-3.457,1.38c-1.913-1.15-3.461-3.628-3.461-5.537
	c0-1.912,1.548-2.531,3.461-1.382C66.993,91.565,68.54,94.045,68.54,95.957"/>
<path id="Fill-51" class="st5" d="M61.859,91.943c0.005,1.78,1.442,4.083,3.223,5.156c1.779,1.067,3.215,0.49,3.219-1.285
	c-0.004-1.783-1.44-4.086-3.219-5.159C63.301,89.589,61.864,90.166,61.859,91.943 M61.383,91.658c0-2.045,1.655-2.706,3.699-1.478
	c2.042,1.228,3.695,3.875,3.695,5.919c0,2.04-1.653,2.704-3.695,1.477C63.038,96.347,61.383,93.698,61.383,91.658"/>
<path id="Fill-53" class="st3" d="M67.537,98.561l-5.638-9.024c-0.177-0.285-0.177-0.573,0-0.643
	c0.177-0.071,0.465,0.102,0.643,0.387l5.637,9.023c0.177,0.284,0.177,0.571,0,0.642c-0.089,0.035-0.205,0.01-0.321-0.06
	C67.741,98.816,67.625,98.702,67.537,98.561"/>
<path id="Fill-55" class="st3" d="M61.934,95.159c-0.177-0.284-0.177-0.571,0-0.642l5.638-2.253c0.177-0.07,0.466,0.104,0.641,0.386
	c0.178,0.285,0.178,0.572,0,0.643l-5.636,2.253c-0.089,0.035-0.206,0.009-0.322-0.061C62.138,95.416,62.023,95.302,61.934,95.159"/>
<path id="Fill-57" class="st3" d="M66.822,94.985c0,0.978-0.793,1.292-1.771,0.704c-0.981-0.59-1.775-1.856-1.775-2.834
	c0-0.982,0.794-1.299,1.775-0.71C66.029,92.733,66.822,94.003,66.822,94.985"/>
<path id="Fill-59" class="st5" d="M77.507,80.991c0,1.909-1.547,2.528-3.457,1.381c-1.913-1.15-3.461-3.629-3.461-5.537
	c0-1.912,1.548-2.532,3.461-1.382C75.96,76.599,77.507,79.079,77.507,80.991"/>
<path id="Fill-61" class="st5" d="M70.826,76.976c0.005,1.78,1.442,4.084,3.223,5.157c1.779,1.066,3.215,0.489,3.219-1.285
	c-0.004-1.783-1.44-4.086-3.219-5.159C72.268,74.623,70.831,75.199,70.826,76.976 M70.351,76.691c0-2.044,1.654-2.705,3.698-1.478
	c2.042,1.228,3.695,3.876,3.695,5.92c0,2.039-1.653,2.704-3.695,1.476C72.005,81.381,70.351,78.731,70.351,76.691"/>
<path id="Fill-63" class="st3" d="M76.504,83.594l-5.637-9.023c-0.178-0.286-0.178-0.573,0-0.643
	c0.176-0.071,0.464,0.102,0.643,0.386l5.636,9.023c0.178,0.285,0.178,0.571,0,0.643c-0.088,0.035-0.205,0.01-0.321-0.061
	C76.709,83.849,76.593,83.736,76.504,83.594"/>
<path id="Fill-65" class="st3" d="M70.901,80.193c-0.177-0.285-0.177-0.571,0-0.643l5.638-2.253
	c0.177-0.069,0.466,0.104,0.641,0.386c0.179,0.285,0.179,0.572,0,0.643l-5.635,2.253c-0.09,0.036-0.207,0.01-0.323-0.061
	C71.105,80.449,70.99,80.335,70.901,80.193"/>
<path id="Fill-67" class="st3" d="M75.789,80.018c0,0.978-0.793,1.292-1.771,0.704c-0.981-0.589-1.775-1.856-1.775-2.834
	c0-0.981,0.794-1.298,1.775-0.709C74.996,77.767,75.789,79.037,75.789,80.018"/>
<path id="Fill-69" class="st5" d="M68.347,75.281c0,1.908-1.548,2.528-3.458,1.38c-1.912-1.15-3.46-3.628-3.46-5.537
	c0-1.912,1.548-2.531,3.46-1.382C66.799,70.889,68.347,73.368,68.347,75.281"/>
<path id="Fill-71" class="st5" d="M61.665,71.267c0.005,1.78,1.443,4.083,3.224,5.156c1.779,1.067,3.214,0.49,3.219-1.285
	c-0.005-1.783-1.44-4.086-3.219-5.159C63.108,68.913,61.67,69.49,61.665,71.267 M61.19,70.982c0-2.045,1.655-2.706,3.699-1.479
	c2.042,1.229,3.694,3.876,3.694,5.92c0,2.04-1.652,2.704-3.694,1.477C62.845,75.671,61.19,73.021,61.19,70.982"/>
<path id="Fill-73" class="st3" d="M67.343,77.884l-5.637-9.023c-0.177-0.285-0.177-0.573,0-0.643
	c0.177-0.071,0.465,0.102,0.643,0.387l5.637,9.023c0.177,0.284,0.177,0.571,0,0.642c-0.089,0.035-0.206,0.01-0.322-0.061
	C67.548,78.14,67.432,78.026,67.343,77.884"/>
<path id="Fill-75" class="st3" d="M61.74,74.483c-0.178-0.284-0.178-0.571,0-0.642l5.637-2.253c0.177-0.07,0.467,0.104,0.642,0.386
	c0.178,0.284,0.178,0.572,0,0.643l-5.636,2.253c-0.089,0.035-0.206,0.009-0.322-0.061C61.944,74.74,61.828,74.626,61.74,74.483"/>
<path id="Fill-77" class="st3" d="M66.629,74.309c0,0.978-0.794,1.292-1.772,0.704c-0.981-0.59-1.774-1.857-1.774-2.835
	c0-0.981,0.793-1.298,1.774-0.709C65.835,72.057,66.629,73.327,66.629,74.309"/>
<polygon id="Fill-79" class="st5" points="15.867,69.571 14.736,68.893 14.736,55.893 15.867,56.571 "/>
<polygon id="Stroke-81" class="st6" points="15.867,69.571 14.736,68.893 14.736,55.893 15.867,56.571 "/>
<polygon id="Fill-83" class="st5" points="16.201,52.237 15.07,51.559 15.07,38.559 16.201,39.237 "/>
<polygon id="Stroke-85" class="st6" points="16.201,52.237 15.07,51.559 15.07,38.559 16.201,39.237 "/>
<polygon id="Fill-87" class="st5" points="40.179,72.59 39.048,71.912 39.048,58.912 40.179,59.59 "/>
<polygon id="Stroke-89" class="st6" points="40.179,72.59 39.048,71.912 39.048,58.912 40.179,59.59 "/>
<polygon id="Fill-91" class="st5" points="48.06,88.457 46.929,87.779 46.929,74.779 48.06,75.457 "/>
<polygon id="Stroke-93" class="st6" points="48.06,88.457 46.929,87.779 46.929,74.779 48.06,75.457 "/>
<polygon id="Fill-95" class="st5" points="48.394,71.123 47.263,70.445 47.263,57.445 48.394,58.123 "/>
<polygon id="Stroke-97" class="st6" points="48.394,71.123 47.263,70.445 47.263,57.445 48.394,58.123 "/>
<path id="Stroke-99" class="st8" d="M59.733,64.399v31.048"/>
<path id="Stroke-101" class="st8" d="M3.397,30.748v31.048"/>
<path id="Stroke-103" class="st8" d="M11.445,35.592V66.64"/>
<path id="Stroke-105" class="st8" d="M19.493,40.321v31.048"/>
<path id="Stroke-107" class="st8" d="M27.541,45.051v31.048"/>
<path id="Stroke-109" class="st8" d="M35.589,50.227v31.048"/>
<path id="Stroke-111" class="st8" d="M43.638,54.757v31.048"/>
<path id="Stroke-113" class="st8" d="M51.686,59.847v31.048"/>
</svg>
