<?xml version="1.0" encoding="utf-8"?>
<svg version="1.1" id="Layer_1" xmlns="http://www.w3.org/2000/svg" xmlns:xlink="http://www.w3.org/1999/xlink" x="0px" y="0px"
	 viewBox="0 0 123.668 84.623" style="enable-background:new 0 0 123.668 84.623;" xml:space="preserve">
<style type="text/css">
	.st0{fill:none;stroke:#626366;stroke-width:3;stroke-linecap:round;stroke-linejoin:round;}
	.st1{fill:#898B8E;}
	.st2{fill:#231F20;}
	.st3{fill:#B3B5B7;}
	.st4{fill:none;stroke:#DFE0DF;stroke-width:0.75;stroke-linecap:round;stroke-linejoin:round;}
	.st5{fill:#FEFEFE;}
</style>
<title>icon-switch-24port-poeL3</title>
<desc>Created with Sketch.</desc>
<polygon id="Stroke-1" class="st0" points="79.881,71.039 122.16,48.596 122.168,60.682 79.889,83.123 "/>
<polygon id="Stroke-3" class="st0" points="1.5,23.943 43.779,1.5 122.16,48.595 79.881,71.039 "/>
<polygon id="Stroke-5" class="st0" points="79.881,71.039 79.889,83.123 1.508,36.027 1.5,23.943 "/>
<polygon id="Fill-8" class="st1" points="79.881,71.039 122.16,48.598 122.168,60.682 79.889,83.125 "/>
<polygon id="Fill-9" class="st2" points="1.5,23.943 43.779,1.502 122.16,48.597 79.881,71.039 "/>
<polygon id="Fill-10" class="st3" points="79.881,71.039 79.889,83.125 1.508,36.027 1.5,23.943 "/>
<polyline id="Stroke-11" class="st4" points="1.879,23.949 79.865,70.808 79.865,82.803 "/>
<polygon id="Fill-12" class="st5" points="11.026,39.32 4.983,35.689 4.983,33.947 11.026,37.578 "/>
<polygon id="Fill-13" class="st5" points="75.744,74.048 62.277,65.956 62.277,62.782 75.744,70.874 "/>
<polygon id="Fill-14" class="st5" points="75.693,78.845 62.23,70.755 62.23,67.579 75.693,75.669 "/>
<polygon id="Fill-15" class="st5" points="57.58,63.125 44.111,55.031 44.111,51.857 57.58,59.951 "/>
<polygon id="Fill-16" class="st5" points="57.531,67.921 44.064,59.83 44.064,56.655 57.531,64.747 "/>
<polygon id="Fill-17" class="st5" points="39.459,52.263 25.992,44.171 25.992,40.995 39.459,49.087 "/>
<polygon id="Fill-18" class="st5" points="39.412,57.06 25.945,48.97 25.945,45.796 39.412,53.886 "/>
<polygon id="Fill-19" class="st5" points="19.195,26.61 37.058,26.757 31.649,18.654 43.785,19.7 40.031,14.084 61.542,15.936 
	46.272,18.125 50.984,25.182 40.813,24.304 46.191,32.356 20.243,26.797 "/>
<polygon id="Fill-20" class="st5" points="38.957,38.552 50.561,32.692 51.607,33.319 41.374,38.487 45.276,40.819 43.907,41.51 "/>
<path id="Fill-21" class="st5" d="M51.335,40.695l2.686,1.605l2.387-2.116c0.724-0.644,1.337-1.161,1.844-1.552
	c-0.846,0.315-1.727,0.604-2.644,0.864L51.335,40.695z M44.285,41.736l14.645-4.042l1.129,0.674l-8.36,7.798l-1.194-0.714
	l2.59-2.327l-3.314-1.979l-4.383,1.255L44.285,41.736z"/>
<path id="Fill-23" class="st5" d="M53.946,47.509l4.915-2.482l3.635-5.202l1.275,0.762l-1.936,2.699
	c-0.367,0.503-0.752,0.994-1.159,1.473c0.845-0.165,1.817-0.337,2.916-0.519l4.945-0.806l1.221,0.73l-9.848,1.489l-4.915,2.482
	L53.946,47.509z"/>
<polygon id="Fill-25" class="st5" points="59.117,50.599 70.721,44.739 76.449,48.162 75.08,48.853 70.4,46.057 66.846,47.852 
	71.228,50.471 69.867,51.159 65.484,48.54 61.535,50.535 66.398,53.44 65.029,54.132 "/>
<path id="Fill-27" class="st5" d="M74.024,52.359l2.254,1.347c0.479,0.286,0.927,0.473,1.342,0.561
	c0.414,0.088,0.852,0.094,1.312,0.016c0.459-0.076,0.876-0.21,1.25-0.399c0.549-0.277,0.865-0.587,0.947-0.927
	c0.081-0.342-0.17-0.687-0.758-1.039l-2.508-1.498L74.024,52.359z M66.494,55.006l11.602-5.859l3.514,2.098
	c0.705,0.422,1.138,0.795,1.297,1.121c0.159,0.324,0.085,0.685-0.223,1.083s-0.781,0.759-1.42,1.081
	c-0.822,0.415-1.698,0.658-2.627,0.725c-0.928,0.067-1.85-0.087-2.762-0.464c0.082,0.264,0.1,0.487,0.054,0.67
	c-0.106,0.39-0.33,0.824-0.675,1.299l-1.779,2.418l-1.318-0.788l1.365-1.845c0.391-0.535,0.672-0.955,0.843-1.26
	c0.171-0.304,0.252-0.542,0.243-0.71c-0.01-0.168-0.065-0.315-0.17-0.441c-0.081-0.09-0.258-0.215-0.527-0.377l-1.217-0.727
	l-5.152,2.602L66.494,55.006z"/>
<path id="Fill-29" class="st5" d="M80.218,59.83l1.164,0.486c-0.696,0.473-1.088,0.881-1.176,1.222
	c-0.088,0.34,0.062,0.625,0.447,0.855c0.457,0.273,1.075,0.387,1.855,0.341c0.779-0.046,1.512-0.242,2.198-0.589
	c0.654-0.33,1.048-0.69,1.181-1.079s-0.025-0.717-0.477-0.987c-0.183-0.11-0.464-0.22-0.843-0.33l1.359-0.567
	c0.054,0.044,0.101,0.078,0.141,0.102c0.414,0.248,0.944,0.39,1.592,0.429c0.648,0.037,1.302-0.11,1.962-0.443
	c0.523-0.264,0.834-0.555,0.936-0.872c0.101-0.318-0.038-0.59-0.42-0.818c-0.378-0.226-0.867-0.327-1.468-0.301
	c-0.6,0.025-1.285,0.192-2.054,0.501l-0.72-0.71c1.074-0.411,2.086-0.623,3.032-0.636c0.945-0.014,1.732,0.167,2.359,0.541
	c0.433,0.259,0.696,0.565,0.787,0.92c0.093,0.354,0,0.708-0.277,1.06c-0.277,0.352-0.679,0.662-1.207,0.928
	c-0.501,0.253-1.05,0.429-1.644,0.527c-0.595,0.099-1.195,0.101-1.798,0.008c0.31,0.36,0.345,0.744,0.106,1.15
	c-0.239,0.407-0.733,0.8-1.482,1.179c-1.013,0.511-2.125,0.793-3.333,0.848c-1.209,0.054-2.199-0.149-2.97-0.61
	c-0.695-0.415-0.97-0.913-0.822-1.494C78.793,60.91,79.319,60.357,80.218,59.83"/>
</svg>
