<svg xmlns="http://www.w3.org/2000/svg" width="96" height="96" fill="none" xmlns:v="https://vecta.io/nano"><style><![CDATA[.B{fill-rule:evenodd}.C{fill:#000}.D{fill-opacity:.32}.E{fill-opacity:.24}.F{color-interpolation-filters:sRGB}]]></style><g clip-path="url(#H)"><mask id="A" mask-type="alpha" maskUnits="userSpaceOnUse" x="0" y="0" width="96" height="96"><path d="M0 48c0 4.253 2.949 7.816 6.914 8.757 3.429 16.168 16.161 28.899 32.329 32.329C40.184 93.051 43.747 96 48 96s7.816-2.949 8.757-6.914c16.168-3.429 28.899-16.16 32.329-32.329C93.051 55.816 96 52.253 96 48s-2.949-7.816-6.914-8.757c-3.429-16.168-16.161-28.9-32.329-32.329C55.816 2.949 52.253 0 48 0s-7.816 2.949-8.757 6.914C23.075 10.344 10.344 23.075 6.914 39.243 2.949 40.184 0 43.747 0 48z" fill="#8df7db" class="B"/></mask><g mask="url(#A)"><circle cx="48" cy="48" r="48" fill="url(#D)"/><path d="M52 17.065A9 9 0 0 0 57 9a9 9 0 1 0-18 0 9 9 0 0 0 5 8.064V23h8v-5.936z" fill="#9df3f9" class="B"/><path d="M44 78.936A9 9 0 0 0 48 96a9 9 0 0 0 4-17.064V73h-8v5.936z" fill="#82ebf1" class="B"/><path d="M17.065 44A9 9 0 0 0 0 48a9 9 0 0 0 17.065 4H23v-8h-5.936z" fill="#9df3f9" class="B"/><g filter="url(#B)" class="C D"><circle cx="48" cy="50" r="26"/><path d="M59.317 54C57.67 58.661 53.225 62 48 62c-6.627 0-12-5.373-12-12s5.373-12 12-12c5.225 0 9.67 3.339 11.317 8H80v8H59.317z" class="B"/><use href="#I"/></g><g filter="url(#C)" class="C E"><circle cx="48" cy="48.38" r="26"/><path d="M59.317 52.38c-1.647 4.661-6.092 8-11.317 8-6.627 0-12-5.373-12-12s5.373-12 12-12c5.225 0 9.67 3.339 11.317 8H80v8H59.317z" class="B"/><path d="M87 57.38a9 9 0 1 1 0-18 9 9 0 1 1 0 18z"/></g><circle cx="48" cy="48" r="26" fill="url(#E)"/><path d="M59.317 52C57.67 56.661 53.225 60 48 60c-6.627 0-12-5.373-12-12s5.373-12 12-12c5.225 0 9.67 3.339 11.317 8H80v8H59.317z" fill="url(#F)" class="B"/><path d="M87 57a9 9 0 1 1 0-18 9 9 0 1 1 0 18z" fill="url(#G)"/></g></g><defs><filter id="B" x="14" y="16" width="90" height="68" filterUnits="userSpaceOnUse" class="F"><feFlood flood-opacity="0"/><feBlend in="SourceGraphic"/><feGaussianBlur stdDeviation="4"/></filter><filter id="C" x="21.24" y="21.62" width="75.52" height="53.52" filterUnits="userSpaceOnUse" class="F"><feFlood flood-opacity="0"/><feBlend in="SourceGraphic"/><feGaussianBlur stdDeviation=".38"/></filter><linearGradient id="D" x1="22.703" y1="11.351" x2="72.649" y2="84.649" href="#J"><stop stop-color="#009ca8"/><stop offset="1" stop-color="#007d85"/></linearGradient><linearGradient id="E" x1="31.784" y1="26.27" x2="66.162" y2="83.351" href="#J"><stop stop-color="#36e3ee"/><stop offset="1" stop-color="#00b1be"/></linearGradient><linearGradient id="F" x1="31.135" y1="24" x2="75.243" y2="63.568" href="#J"><stop stop-color="#d2f6f9"/><stop offset="1" stop-color="#82ebf1"/></linearGradient><linearGradient id="G" x1="96.973" y1="50.919" x2="72.324" y2="42.162" href="#J"><stop stop-color="#9aeef3"/><stop offset="1" stop-color="#82ebf1"/></linearGradient><clipPath id="H"><path fill="#fff" d="M0 0h96v96H0z"/></clipPath><path id="I" d="M87 59a9 9 0 1 1 0-18 9 9 0 1 1 0 18z"/><linearGradient id="J" gradientUnits="userSpaceOnUse"/></defs></svg>