<svg xmlns="http://www.w3.org/2000/svg" width="95.935" height="84" fill="none" xmlns:v="https://vecta.io/nano"><g clip-path="url(#H)" transform="translate(-.043 -6)"><mask id="A" mask-type="alpha" maskUnits="userSpaceOnUse" x="0" y="6" width="96" height="84"><path d="M.122 10.786A4 4 0 0 1 4.044 6h24.646a4 4 0 0 1 3.929 3.252L33.143 12h58.834a4 4 0 0 1 3.909 4.848l-5.638 26A4 4 0 0 1 86.339 46H39.62l1.905 10h38.544a4 4 0 0 1 3.914 4.826l-5.485 26A4 4 0 0 1 74.584 90H19.278a4 4 0 0 1-3.922-3.214z" fill="url(#D)"/></mask><g mask="url(#A)"><path d="M95.885 16.848A4 4 0 0 0 91.976 12H1.937l6.376 34h78.026a4 4 0 0 0 3.909-3.152z" fill="url(#E)"/><path d="M83.982 60.826A4 4 0 0 0 80.068 56H14.791a4 4 0 0 0-3.936 4.714l4.714 26A4 4 0 0 0 19.505 90h55.079a4 4 0 0 0 3.914-3.174z" fill="url(#F)"/><g filter="url(#B)"><path d="M4.043 8a4 4 0 0 0-3.922 4.786l15.234 76A4 4 0 0 0 19.277 92H48L32.619 11.252A4 4 0 0 0 28.69 8z" fill="#000" fill-opacity=".32"/></g><g filter="url(#C)"><path d="M4.043 6.38a4 4 0 0 0-3.922 4.786l15.234 76a4 4 0 0 0 3.922 3.214H48L32.619 9.632A4 4 0 0 0 28.69 6.38z" fill="#000" fill-opacity=".24"/></g><path d="M4.043 6a4 4 0 0 0-3.922 4.786l15.234 76A4 4 0 0 0 19.277 90H48L32.619 9.252A4 4 0 0 0 28.69 6z" fill="url(#G)"/></g></g><defs><filter id="B" x="-7.958" y="0" width="63.958" height="100" filterUnits="userSpaceOnUse" color-interpolation-filters="sRGB"><feFlood flood-opacity="0"/><feBlend in="SourceGraphic"/><feGaussianBlur stdDeviation="4"/></filter><filter id="C" x="-.718" y="5.62" width="49.478" height="85.52" filterUnits="userSpaceOnUse" color-interpolation-filters="sRGB"><feFlood flood-opacity="0"/><feBlend in="SourceGraphic"/><feGaussianBlur stdDeviation=".38"/></filter><linearGradient id="D" x1="-12.499" y1="-15" x2="35.789" y2="95.344" href="#I"><stop stop-color="#fac240"/><stop offset=".2" stop-color="#f29800"/></linearGradient><linearGradient id="E" x1="96.937" y1="12" x2="77.183" y2="71.135" href="#I"><stop stop-color="#ffed80"/><stop offset="1" stop-color="#ffdb00"/></linearGradient><linearGradient id="F" x1="85" y1="56" x2="13.812" y2="96.672" href="#I"><stop stop-color="#ea8200"/><stop offset="1" stop-color="#c46a08"/></linearGradient><linearGradient id="G" x1="-12.5" y1="-15" x2="35.788" y2="95.344" href="#I"><stop stop-color="#fac240"/><stop offset=".2" stop-color="#f29800"/></linearGradient><clipPath id="H"><path fill="#fff" d="M0 0h96v96H0z"/></clipPath><linearGradient id="I" gradientUnits="userSpaceOnUse"/></defs></svg>