<svg xmlns="http://www.w3.org/2000/svg" width="96" height="96" fill="none" xmlns:v="https://vecta.io/nano"><mask id="A" mask-type="alpha" maskUnits="userSpaceOnUse" x="0" y="0" width="96" height="96"><path fill-rule="evenodd" d="M41.074 24H16.051a4 4 0 0 0-3.472 2.014l-11.443 20a4 4 0 0 0 0 3.973l11.443 20a4 4 0 0 0 3.472 2.013h25.023 0l12.579 21.986a4 4 0 0 0 3.472 2.013h22.823a4 4 0 0 0 3.472-2.013l11.443-20a4 4 0 0 0 0-3.973L82.269 48l12.595-22.013a4 4 0 0 0 0-3.973l-11.443-20A4 4 0 0 0 79.949 0H57.125a4 4 0 0 0-3.472 2.014L41.074 24z" fill="url(#G)"/></mask><g mask="url(#A)"><path d="M1.137 46.013a4 4 0 0 0 0 3.973l11.443 20a4 4 0 0 0 3.472 2.013h25.143l13.732-24-13.732-24H16.051a4 4 0 0 0-3.472 2.014l-11.443 20z" fill="url(#H)"/><path d="M41.074 72l12.58 21.986a4 4 0 0 0 3.472 2.013h22.823a4 4 0 0 0 3.472-2.013l11.443-20a4 4 0 0 0 0-3.973L82.269 48H54.806L41.074 72z" fill="url(#I)"/><path d="M41.074 24l13.732 24h27.463l12.595-22.013a4 4 0 0 0 0-3.973l-11.443-20A4 4 0 0 0 79.949 0H57.126a4 4 0 0 0-3.472 2.014L41.074 24z" fill="url(#J)"/><g filter="url(#E)"><circle cx="54.672" cy="49.997" r="27.607" fill="#000" fill-opacity=".32"/></g><g filter="url(#F)"><circle cx="54.672" cy="48.377" r="27.607" fill="#000" fill-opacity=".24"/></g><mask id="B" mask-type="alpha" maskUnits="userSpaceOnUse" x="0" y="23" width="55" height="49"><path d="M0 48l13.731 24h27.463l13.732-24-13.732-24H13.732L0 48z" fill="url(#K)"/></mask><g mask="url(#B)"><circle cx="54.672" cy="48" r="27.607" fill="url(#L)"/></g><mask id="C" mask-type="alpha" maskUnits="userSpaceOnUse" x="41" y="47" width="56" height="49"><path d="M41.074 72l13.732 24h27.463L96 72 82.269 48H54.806L41.074 72z" fill="url(#M)"/></mask><g mask="url(#C)"><circle cx="54.672" cy="48" r="27.607" fill="url(#N)"/></g><mask id="D" mask-type="alpha" maskUnits="userSpaceOnUse" x="41" y="0" width="56" height="48"><path d="M41.074 24l13.732 24h27.463L96 24 82.269 0H54.806L41.074 24z" fill="url(#O)"/></mask><g mask="url(#D)"><circle cx="54.672" cy="48" r="27.607" fill="url(#P)"/></g></g><defs><filter id="E" x="19.065" y="14.39" width="71.213" height="71.213" filterUnits="userSpaceOnUse" color-interpolation-filters="sRGB"><feFlood flood-opacity="0"/><feBlend in="SourceGraphic"/><feGaussianBlur stdDeviation="4"/></filter><filter id="F" x="26.305" y="20.01" width="56.733" height="56.733" filterUnits="userSpaceOnUse" color-interpolation-filters="sRGB"><feFlood flood-opacity="0"/><feBlend in="SourceGraphic"/><feGaussianBlur stdDeviation=".38"/></filter><linearGradient id="G" x1="90.171" y1="48" x2="66.342" y2="0" href="#Q"><stop stop-color="#f69b63"/><stop offset="1" stop-color="#ffb685"/></linearGradient><linearGradient id="H" x1="14.399" y1="24" x2="33.186" y2="75.769" href="#Q"><stop stop-color="#7151a7"/><stop offset="1" stop-color="#4a356f"/></linearGradient><linearGradient id="I" x1="44.751" y1="48" x2="96.952" y2="85.458" href="#Q"><stop stop-color="#cd9ef0"/><stop offset="1" stop-color="#8661c5"/></linearGradient><linearGradient id="J" x1="65.001" y1="-2.5" x2="92.209" y2="43.025" href="#Q"><stop stop-color="#f1d9ff"/><stop offset="1" stop-color="#e4b4ff"/></linearGradient><linearGradient id="K" x1="0" y1="24" x2="63.934" y2="47.76" href="#Q"><stop stop-color="#cd9ef0"/><stop offset="1" stop-color="#9f75d3"/></linearGradient><linearGradient id="L" x1="27.065" y1="20.393" x2="48.554" y2="86.559" href="#Q"><stop stop-color="#cd9ef0"/><stop offset="1" stop-color="#9f75d3"/></linearGradient><linearGradient id="M" x1="41.074" y1="48" x2="96.091" y2="95.895" href="#Q"><stop stop-color="#ebc7ff"/><stop offset="1" stop-color="#e4b4ff"/></linearGradient><linearGradient id="N" x1="27.065" y1="20.393" x2="73.913" y2="81.971" href="#Q"><stop stop-color="#ebc7ff"/><stop offset="1" stop-color="#e4b4ff"/></linearGradient><linearGradient id="O" x1="41.074" y1="0" x2="92.069" y2="53.114" href="#Q"><stop stop-color="#f8ecff"/><stop offset=".927" stop-color="#f1d9ff"/></linearGradient><linearGradient id="P" x1="27.065" y1="20.393" x2="80.266" y2="78.842" href="#Q"><stop stop-color="#f8ecff"/><stop offset=".927" stop-color="#f1d9ff"/></linearGradient><linearGradient id="Q" gradientUnits="userSpaceOnUse"/></defs></svg>