<svg xmlns="http://www.w3.org/2000/svg" width="84" height="84" fill="none" xmlns:v="https://vecta.io/nano"><style><![CDATA[.B{color-interpolation-filters:sRGB}.C{flood-opacity:0}.D{fill-rule:evenodd}]]></style><g clip-path="url(#I)" transform="translate(-6 -6)"><mask id="A" mask-type="alpha" maskUnits="userSpaceOnUse" x="6" y="6" width="84" height="84"><rect x="6" y="6" width="84" height="84" rx="4" fill="#c4c4c4"/></mask><g mask="url(#A)"><rect x="6" y="6" width="84" height="84" rx="4" fill="url(#F)"/><g filter="url(#B)"><use href="#J" fill="#000" fill-opacity=".24"/></g><g filter="url(#C)"><use href="#J" fill="#000" fill-opacity=".32"/></g><path d="M6 30h56a4 4 0 0 1 4 4v56H6z" fill="url(#G)"/><g filter="url(#D)" class="D"><path d="M24 48.38c9.941 0 18-8.059 18-18s-8.059-18-18-18-18 8.059-18 18 8.059 18 18 18zm14 6H6v36h36v-32a4 4 0 0 0-4-4z" fill="#000" fill-opacity=".24"/></g><g filter="url(#E)" class="D"><path d="M24 50c9.941 0 18-8.059 18-18s-8.059-18-18-18S6 22.059 6 32s8.059 18 18 18zm14 6H6v36h36V60a4 4 0 0 0-4-4z" fill="#000" fill-opacity=".32"/></g><path d="M24 48c9.941 0 18-8.059 18-18s-8.059-18-18-18S6 20.059 6 30s8.059 18 18 18zm14 6H6v36h36V58a4 4 0 0 0-4-4z" fill="url(#H)" class="D"/></g></g><defs><filter id="B" x="5.24" y="29.62" width="61.52" height="61.52" filterUnits="userSpaceOnUse" class="B"><feFlood class="C"/><feBlend in="SourceGraphic"/><feGaussianBlur stdDeviation=".38"/></filter><filter id="C" x="-2" y="22.38" width="76" height="76" filterUnits="userSpaceOnUse" class="B"><feFlood class="C"/><feBlend in="SourceGraphic"/><feGaussianBlur stdDeviation="4"/></filter><filter id="D" x="5.24" y="11.62" width="37.52" height="79.52" filterUnits="userSpaceOnUse" class="B"><feFlood class="C"/><feBlend in="SourceGraphic"/><feGaussianBlur stdDeviation=".38"/></filter><filter id="E" x="-2" y="6" width="52" height="94" filterUnits="userSpaceOnUse" class="B"><feFlood class="C"/><feBlend in="SourceGraphic"/><feGaussianBlur stdDeviation="4"/></filter><linearGradient id="F" x1="6" y1="6" x2="87.008" y2="92.793" gradientUnits="userSpaceOnUse"><stop stop-color="#8661c5"/><stop offset="1" stop-color="#5c428b"/></linearGradient><linearGradient id="G" x1="6" y1="30" x2="29.351" y2="101.902" gradientUnits="userSpaceOnUse"><stop stop-color="#cd9ef0"/><stop offset="1" stop-color="#9f75d3"/></linearGradient><linearGradient id="H" x1="4.895" y1="12" x2="66.536" y2="48.078" gradientUnits="userSpaceOnUse"><stop stop-color="#f1d9ff"/><stop offset="1" stop-color="#e4b4ff"/></linearGradient><clipPath id="I"><path fill="#fff" d="M0 0h96v96H0z"/></clipPath><path id="J" d="M6 30.38h56a4 4 0 0 1 4 4v56H6z"/></defs></svg>