<svg xmlns="http://www.w3.org/2000/svg" width="96" height="96" fill="none" xmlns:v="https://vecta.io/nano"><style><![CDATA[.B{fill:#000}.C{color-interpolation-filters:sRGB}.D{flood-opacity:0}.E{fill-rule:evenodd}.F{fill-opacity:.32}.G{fill-opacity:.24}]]></style><g clip-path="url(#L)"><mask id="A" mask-type="alpha" maskUnits="userSpaceOnUse" x="0" y="0" width="96" height="96"><path d="M48 93.506C43.981 95.115 39.594 96 35 96 15.67 96 0 80.33 0 61c0-11.005 5.079-20.824 13.022-27.24C13.675 15.004 29.085 0 48 0s34.325 15.004 34.978 33.76C90.921 40.176 96 49.995 96 61c0 19.33-15.67 35-35 35-4.594 0-8.981-.885-13-2.494z" fill="url(#H)" class="E"/></mask><g mask="url(#A)"><path d="M48 28.494C60.893 33.655 70 46.264 70 61a35.48 35.48 0 0 1-.022 1.24C63.971 67.094 56.325 70 48 70s-15.971-2.906-21.978-7.76C26.007 61.829 26 61.415 26 61c0-14.736 9.107-27.345 22-32.506z" fill="url(#I)" class="E"/><g filter="url(#B)" class="B F"><path d="M82.978 35.76A34.85 34.85 0 0 0 61 28c-19.33 0-35 15.67-35 35 0 .415.007.829.022 1.24C18.079 57.824 13 48.005 13 37 13 17.67 28.67 2 48 2c18.915 0 34.325 15.004 34.978 33.76z"/></g><g filter="url(#C)" class="B G"><path d="M82.978 34.14C76.971 29.286 69.325 26.38 61 26.38c-19.33 0-35 15.67-35 35a35.48 35.48 0 0 0 .022 1.24C18.079 56.204 13 46.385 13 35.38c0-19.33 15.67-35 35-35 18.915 0 34.325 15.004 34.978 33.76z"/></g><path d="M82.978 33.76A34.85 34.85 0 0 0 61 26c-19.33 0-35 15.67-35 35 0 .415.007.829.022 1.24C18.079 55.824 13 46.005 13 35 13 15.67 28.67 0 48 0c18.915 0 34.325 15.004 34.978 33.76z" fill="url(#J)" class="E"/><g filter="url(#D)" class="B F"><path d="M69.978 64.241A34.85 34.85 0 0 1 48 72c-19.33 0-35-15.67-35-35a35.48 35.48 0 0 1 .022-1.24C5.079 42.176 0 51.995 0 63c0 19.33 15.67 35 35 35 18.915 0 34.325-15.004 34.978-33.76z"/></g><g filter="url(#E)" class="B G"><path d="M69.978 62.621A34.85 34.85 0 0 1 48 70.38c-19.33 0-35-15.67-35-35a35.48 35.48 0 0 1 .022-1.24C5.079 40.556 0 50.375 0 61.38c0 19.33 15.67 35 35 35 18.915 0 34.325-15.004 34.978-33.76z"/></g><path d="M69.978 62.24A34.85 34.85 0 0 1 48 70c-19.33 0-35-15.67-35-35 0-.415.007-.829.022-1.24C5.079 40.176 0 49.995 0 61c0 19.33 15.67 35 35 35 18.915 0 34.325-15.004 34.978-33.76z" fill="url(#H)" class="E"/><g filter="url(#F)" class="B F"><path d="M48 95.506C60.893 90.345 70 77.736 70 63s-9.107-27.345-22-32.506C52.019 28.885 56.406 28 61 28c19.33 0 35 15.67 35 35S80.33 98 61 98c-4.594 0-8.981-.885-13-2.494z"/></g><g filter="url(#G)" class="B G"><path d="M48 93.886c12.893-5.161 22-17.77 22-32.506s-9.107-27.345-22-32.506c4.019-1.609 8.406-2.494 13-2.494 19.33 0 35 15.67 35 35s-15.67 35-35 35c-4.594 0-8.981-.885-13-2.494z"/></g><path d="M48 93.506C60.893 88.345 70 75.736 70 61s-9.107-27.345-22-32.506C52.019 26.885 56.406 26 61 26c19.33 0 35 15.67 35 35S80.33 96 61 96c-4.594 0-8.981-.885-13-2.494z" fill="url(#K)" class="E"/></g></g><defs><filter id="B" x="5" y="-6" width="85.978" height="78.24" filterUnits="userSpaceOnUse" class="C"><feFlood class="D"/><feBlend in="SourceGraphic"/><feGaussianBlur stdDeviation="4"/></filter><filter id="C" x="12.24" y="-.38" width="71.498" height="63.76" filterUnits="userSpaceOnUse" class="C"><feFlood class="D"/><feBlend in="SourceGraphic"/><feGaussianBlur stdDeviation=".38"/></filter><filter id="D" x="-8" y="27.76" width="85.978" height="78.24" filterUnits="userSpaceOnUse" class="C"><feFlood class="D"/><feBlend in="SourceGraphic"/><feGaussianBlur stdDeviation="4"/></filter><filter id="E" x="-.76" y="33.38" width="71.498" height="63.76" filterUnits="userSpaceOnUse" class="C"><feFlood class="D"/><feBlend in="SourceGraphic"/><feGaussianBlur stdDeviation=".38"/></filter><filter id="F" x="40" y="20" width="64" height="86" filterUnits="userSpaceOnUse" class="C"><feFlood class="D"/><feBlend in="SourceGraphic"/><feGaussianBlur stdDeviation="4"/></filter><filter id="G" x="47.24" y="25.62" width="49.52" height="71.52" filterUnits="userSpaceOnUse" class="C"><feFlood class="D"/><feBlend in="SourceGraphic"/><feGaussianBlur stdDeviation=".38"/></filter><linearGradient id="H" x1="31" y1="54.5" x2="88.165" y2="109.795" href="#M"><stop stop-color="#40c4f5"/><stop offset="1" stop-color="#0095e6"/></linearGradient><linearGradient id="I" x1="26" y1="28.494" x2="68.92" y2="71.088" href="#M"><stop stop-color="#2064ae"/><stop offset="1" stop-color="#27518a"/></linearGradient><linearGradient id="J" x1="24.938" y1="5.533" x2="49.648" y2="64.633" href="#M"><stop stop-color="#7cecff"/><stop offset="1" stop-color="#50e6ff"/></linearGradient><linearGradient id="K" x1="45.5" y1="26" x2="80.5" y2="88" href="#M"><stop stop-color="#0095e6"/><stop offset="1" stop-color="#0078d4"/></linearGradient><clipPath id="L"><path fill="#fff" d="M0 0h96v96H0z"/></clipPath><linearGradient id="M" gradientUnits="userSpaceOnUse"/></defs></svg>