<svg xmlns="http://www.w3.org/2000/svg" width="96" height="84.01" fill="none" xmlns:v="https://vecta.io/nano"><g clip-path="url(#G)" transform="translate(0 -6)"><mask id="A" mask-type="alpha" maskUnits="userSpaceOnUse" x="0" y="6" width="96" height="85"><path d="M4 6h25.494a4 4 0 0 1 3.005 1.36l15.503 17.644L63.501 7.36A4 4 0 0 1 66.506 6H92a4 4 0 0 1 4 4v24.913a4 4 0 0 1-.969 2.61l-44 51.097a4 4 0 0 1-6.062 0l-44-51.097A4 4 0 0 1 0 34.913V10a4 4 0 0 1 4-4z" fill="url(#D)"/></mask><g mask="url(#A)"><path d="M66.506 6H92a4 4 0 0 1 4 4v24.913a4 4 0 0 1-.969 2.61l-44 51.094a4 4 0 0 1-6.062 0l-26.161-30.38L63.501 7.36A4 4 0 0 1 66.506 6z" fill="url(#E)"/><g opacity=".32" filter="url(#B)"><path d="M29.494 8H4a4 4 0 0 0-4 4v24.913a4 4 0 0 0 .969 2.61l44 51.097a4 4 0 0 0 6.062 0l26.164-30.389L32.499 9.36A4 4 0 0 0 29.494 8z" fill="#000"/></g><g filter="url(#C)"><path d="M29.494 6.38H4a4 4 0 0 0-4 4v24.913a4 4 0 0 0 .969 2.61l44 51.097a4 4 0 0 0 6.062 0l26.164-30.389L32.499 7.74a4 4 0 0 0-3.005-1.36z" fill="#000" fill-opacity=".24"/></g><path d="M29.494 6H4a4 4 0 0 0-4 4v24.913a4 4 0 0 0 .969 2.61l44 51.097a4 4 0 0 0 6.062 0l26.164-30.389L32.499 7.36A4 4 0 0 0 29.494 6z" fill="url(#D)"/><path fill-rule="evenodd" d="M48.002 25.004L18.808 58.237l26.161 30.38a4 4 0 0 0 6.062 0l10.577-12.283 15.587-18.104z" fill="url(#F)"/></g></g><defs><filter id="B" x="-8" y="0" width="93.195" height="100.01" filterUnits="userSpaceOnUse" color-interpolation-filters="sRGB"><feFlood flood-opacity="0"/><feBlend in="SourceGraphic"/><feGaussianBlur stdDeviation="4"/></filter><filter id="C" x="-.76" y="5.62" width="78.715" height="85.53" filterUnits="userSpaceOnUse" color-interpolation-filters="sRGB"><feFlood flood-opacity="0"/><feBlend in="SourceGraphic"/><feGaussianBlur stdDeviation=".38"/></filter><linearGradient id="D" x1="-21.5" y1="-19" x2="51.001" y2="64.258" gradientUnits="userSpaceOnUse"><stop stop-color="#ebc7ff"/><stop offset=".493" stop-color="#e4b4ff"/></linearGradient><linearGradient id="E" x1="28" y1="-4" x2="91.185" y2="89.486" gradientUnits="userSpaceOnUse"><stop stop-color="#8661c5"/><stop offset="1" stop-color="#5c428b"/></linearGradient><linearGradient id="F" x1="-6.166" y1="2.535" x2="34.534" y2="116.672" gradientUnits="userSpaceOnUse"><stop stop-color="#cd9ef0"/><stop offset=".894" stop-color="#9f75d3"/></linearGradient><clipPath id="G"><path fill="#fff" d="M0 0h96v96H0z"/></clipPath></defs></svg>