<svg xmlns="http://www.w3.org/2000/svg" width="96" height="96" fill="none" xmlns:v="https://vecta.io/nano"><style><![CDATA[.B{color-interpolation-filters:sRGB}.C{flood-opacity:0}]]></style><g clip-path="url(#J)"><mask id="A" mask-type="alpha" maskUnits="userSpaceOnUse" x="0" y="0" width="96" height="96"><path d="M64 4.023c0-3.47 4.115-5.294 6.686-2.964l24 21.75A4 4 0 0 1 96 25.773V80a4 4 0 0 1-4 4H64V4.023z" fill="url(#F)"/><path d="M32 16a4 4 0 0 1 4-4h28v72H32v7.977c0 3.47-4.115 5.294-6.686 2.964l-24-21.75A4 4 0 0 1 0 70.227V28a4 4 0 0 1 4-4h28v-8z" fill="url(#F)"/></mask><g mask="url(#A)"><path d="M64 4.023c0-3.47 4.115-5.294 6.686-2.964l24 21.75A4 4 0 0 1 96 25.773V80a4 4 0 0 1-4 4H64V4.023z" fill="url(#G)"/><g filter="url(#B)"><path d="M32 18a4 4 0 0 1 4-4h28v72H32V18z" fill="#000" fill-opacity=".32"/></g><g filter="url(#C)"><path d="M32 16.38a4 4 0 0 1 4-4h28v72H32v-68z" fill="#000" fill-opacity=".24"/></g><path d="M32 16a4 4 0 0 1 4-4h28v72H32V16z" fill="url(#H)"/><g filter="url(#D)"><path d="M0 30a4 4 0 0 1 4-4h28v67.977c0 3.47-4.115 5.294-6.686 2.964l-24-21.75A4 4 0 0 1 0 72.227V30z" fill="#000" fill-opacity=".32"/></g><g filter="url(#E)"><path d="M0 28.38a4 4 0 0 1 4-4h28v67.977c0 3.47-4.115 5.294-6.686 2.964l-24-21.75A4 4 0 0 1 0 70.607V28.38z" fill="#000" fill-opacity=".24"/></g><path d="M0 28a4 4 0 0 1 4-4h28v67.977c0 3.47-4.115 5.294-6.686 2.964l-24-21.75A4 4 0 0 1 0 70.227V28z" fill="url(#I)"/></g></g><defs><filter id="B" x="24" y="6" width="48" height="88" filterUnits="userSpaceOnUse" class="B"><feFlood class="C"/><feBlend in="SourceGraphic"/><feGaussianBlur stdDeviation="4"/></filter><filter id="C" x="31.24" y="11.62" width="33.52" height="73.52" filterUnits="userSpaceOnUse" class="B"><feFlood class="C"/><feBlend in="SourceGraphic"/><feGaussianBlur stdDeviation=".38"/></filter><filter id="D" x="-8" y="18" width="48" height="87.985" filterUnits="userSpaceOnUse" class="B"><feFlood class="C"/><feBlend in="SourceGraphic"/><feGaussianBlur stdDeviation="4"/></filter><filter id="E" x="-.76" y="23.62" width="33.52" height="73.505" filterUnits="userSpaceOnUse" class="B"><feFlood class="C"/><feBlend in="SourceGraphic"/><feGaussianBlur stdDeviation=".38"/></filter><linearGradient id="F" x1="1.5" y1=".639" x2="20.369" y2="109.925" href="#K"><stop stop-color="#c3f488"/><stop offset="1" stop-color="#8fdc50"/></linearGradient><linearGradient id="G" x1="61" y1="-1.5" x2="96.5" y2="84.5" href="#K"><stop stop-color="#158915"/><stop offset="1" stop-color="#065f18"/></linearGradient><linearGradient id="H" x1="32" y1="12" x2="65.963" y2="83.062" href="#K"><stop stop-color="#6ad116"/><stop offset="1" stop-color="#34a117"/></linearGradient><linearGradient id="I" x1=".5" y1="24.5" x2="32.5" y2="101.5" href="#K"><stop stop-color="#c3f488"/><stop offset="1" stop-color="#8fdc50"/></linearGradient><clipPath id="J"><path fill="#fff" d="M0 0h96v96H0z"/></clipPath><linearGradient id="K" gradientUnits="userSpaceOnUse"/></defs></svg>