<svg xmlns="http://www.w3.org/2000/svg" width="70" height="94.611" fill="none" xmlns:v="https://vecta.io/nano"><g clip-path="url(#F)" transform="translate(-12 -.673)"><defs><filter id="A" x="-.018" y="-.015" width="1.037" height="1.029"><feFlood flood-opacity="0"/><feBlend in="SourceGraphic"/><feGaussianBlur stdDeviation=".4"/></filter><filter id="B" x="-.185" y="-.145" width="1.369" height="1.291"><feFlood flood-opacity="0"/><feBlend in="SourceGraphic"/><feGaussianBlur stdDeviation="4"/></filter><linearGradient id="C" x1="38.045" y1="-1" x2="56.659" y2="47.723" gradientUnits="userSpaceOnUse"><stop stop-color="#0b53ce"/><stop offset="1" stop-color="#7252aa"/></linearGradient><linearGradient id="D" x1="64.138" y1="93.492" x2="64.138" y2="35.415" gradientUnits="userSpaceOnUse"><stop stop-color="#2266e3"/><stop offset="1" stop-color="#ae7fe2"/></linearGradient><linearGradient id="E" x1="82" y1="56.786" x2="62.076" y2="56.786" gradientUnits="userSpaceOnUse"><stop stop-color="#94b9ff"/><stop offset=".288" stop-color="#94b9ff" stop-opacity=".524"/><stop offset="1" stop-color="#538fff" stop-opacity="0"/></linearGradient><clipPath id="F"><path fill="#fff" d="M0 0h96v96H0z"/></clipPath><path id="G" d="M82 31h0a10.01 10.01 0 0 1-6.568 9.4L30 57v40l52-19z"/></defs><mask id="H" mask-type="alpha" maskUnits="userSpaceOnUse" x="12" y="0" width="70" height="96"><path d="M82 31.047a10 10 0 0 0-6.637-9.417L17.345.909C14.74-.021 12 1.91 12 4.676v31.505a4 4 0 0 0 2.655 3.767l26 9.286c2.605.93 5.345-1.001 5.345-3.767v-18.09a2 2 0 0 1 2.704-1.872l6.818 2.566A10 10 0 0 1 62 37.43v7.878L32.627 56.04A4 4 0 0 0 30 59.797V91.28c0 2.778 2.763 4.711 5.373 3.757L75.432 80.4A10 10 0 0 0 82 71.007z" fill="#fff"/></mask><g mask="url(#H)"><path d="M12-1l70 25v34.325c0 2.766-2.74 4.697-5.345 3.767L62 56.859V37.424a10 10 0 0 0-6.483-9.361l-6.814-2.56A2 2 0 0 0 46 27.375v23.768L12 39z" fill="url(#C)"/><g filter="url(#A)"><path d="M82 31.4h0a10.01 10.01 0 0 1-6.568 9.4L30 57.4v40l52-19z" fill="#000" fill-opacity=".24"/></g><g filter="url(#B)"><path d="M82 33h0a10.01 10.01 0 0 1-6.568 9.4L30 59v40l52-19z" fill="#000" fill-opacity=".32"/></g><use href="#G" fill="url(#D)"/><use href="#G" opacity=".5" fill="url(#E)"/><path opacity=".5" d="M62.001 45.32l-16.009 5.857v23.458a2 2 0 0 0 2.705 1.872l6.827-2.57a10 10 0 0 0 6.477-9.359z" fill="#b0adff"/></g></g></svg>