<svg xmlns="http://www.w3.org/2000/svg" width="95.883" height="89.721" fill="none" xmlns:v="https://vecta.io/nano"><g clip-path="url(#H)" transform="translate(0 -6)"><mask id="A" mask-type="alpha" maskUnits="userSpaceOnUse" x="0" y="6" width="96" height="90"><path fill-rule="evenodd" d="M21.226 8.079A4 4 0 0 1 24.735 6h45.173a4 4 0 0 1 3.461 1.995L95.344 45.92a4 4 0 0 1 .031 3.956L77.61 81.685c-1.456 2.607-5.151 2.757-6.814.278L65.67 74.32 51.23 94.081c-1.598 2.187-4.861 2.187-6.459 0L30.252 74.213l-5.2 7.745c-1.665 2.48-5.363 2.326-6.816-.284L.505 49.822a4 4 0 0 1-.014-3.866z" fill="url(#D)"/></mask><g mask="url(#A)"><path d="M21.226 8.079A4 4 0 0 1 24.735 6h45.173a4 4 0 0 1 3.461 1.995L95.344 45.92a4 4 0 0 1 .031 3.956L77.61 81.685c-1.456 2.607-5.151 2.757-6.814.278L51.254 52.827c-1.584-2.362-5.058-2.363-6.643-.001L25.052 81.958c-1.665 2.48-5.363 2.326-6.816-.284L.505 49.822a4 4 0 0 1-.014-3.866z" fill="url(#E)"/><g filter="url(#B)"><path d="M25.952 29.039c11.758-13.15 32.339-13.15 44.096 0h0a29.58 29.58 0 0 1 1.831 37.164L51.23 94.461c-1.598 2.187-4.861 2.187-6.459 0l-20.65-28.258a29.58 29.58 0 0 1 1.831-37.164z" fill="#000" fill-opacity=".18"/></g><g filter="url(#C)"><path d="M25.952 30.659c11.758-13.15 32.339-13.15 44.096 0h0a29.58 29.58 0 0 1 1.831 37.164L51.23 96.081c-1.598 2.187-4.861 2.187-6.459 0l-20.65-28.258a29.58 29.58 0 0 1 1.831-37.164z" fill="#000" fill-opacity=".2"/></g><path d="M25.952 28.659c11.758-13.15 32.339-13.15 44.096 0h0a29.58 29.58 0 0 1 1.831 37.164L51.23 94.081c-1.598 2.187-4.861 2.187-6.459 0l-20.65-28.258a29.58 29.58 0 0 1 1.831-37.164z" fill="url(#F)"/><circle cx="48" cy="48" r="18" fill="url(#G)"/></g></g><defs><filter id="B" x="17.664" y="18.417" width="60.672" height="78.444" filterUnits="userSpaceOnUse" color-interpolation-filters="sRGB"><feFlood flood-opacity="0"/><feBlend in="SourceGraphic"/><feGaussianBlur stdDeviation=".38"/></filter><filter id="C" x="14.424" y="16.797" width="67.152" height="84.924" filterUnits="userSpaceOnUse" color-interpolation-filters="sRGB"><feFlood flood-opacity="0"/><feBlend in="SourceGraphic"/><feGaussianBlur stdDeviation="2"/></filter><linearGradient id="D" x1="0" y1="6" x2="85.942" y2="104.403" href="#I"><stop stop-color="#ffed80"/><stop offset="1" stop-color="#fcd680"/></linearGradient><linearGradient id="E" x1="8.421" y1="-1.092" x2="110.556" y2="51.325" href="#I"><stop stop-color="#f5b240"/><stop offset=".554" stop-color="#ea8200"/></linearGradient><linearGradient id="F" x1="10" y1="4" x2="108.546" y2="54.526" href="#I"><stop stop-color="#fdd340"/><stop offset="1" stop-color="#f9ae00"/></linearGradient><linearGradient id="G" x1="30" y1="30" x2="64.718" y2="67.197" href="#I"><stop stop-color="#ffed80"/><stop offset="1" stop-color="#fcd680"/></linearGradient><clipPath id="H"><path fill="#fff" d="M0 0h96v96H0z"/></clipPath><linearGradient id="I" gradientUnits="userSpaceOnUse"/></defs></svg>