<svg xmlns="http://www.w3.org/2000/svg" width="84" height="83.099" fill="none" xmlns:v="https://vecta.io/nano"><style><![CDATA[.B{color-interpolation-filters:sRGB}.C{flood-opacity:0}]]></style><g clip-path="url(#J)" transform="translate(-6 -6.901)"><mask id="A" mask-type="alpha" maskUnits="userSpaceOnUse" x="6" y="6" width="84" height="84"><path d="M61.706 7.661a4 4 0 0 1 4.623-.049l21.948 15.195A4 4 0 0 1 90 26.096V86a4 4 0 0 1-4 4H10a4 4 0 0 1-4-4V50.042a4 4 0 0 1 1.654-3.24z" fill="#fff"/></mask><g mask="url(#A)"><g filter="url(#B)"><path d="M64 6l26 18v66H6V48z" fill="url(#G)"/></g><g filter="url(#C)"><use href="#K" fill="#000" fill-opacity=".32"/></g><g filter="url(#D)"><use href="#K" fill="#000" fill-opacity=".24"/></g><path d="M61.636 41.253a4 4 0 0 0 4.738.013L90 24v66H6V68l44.132-31.794a4 4 0 0 1 4.716.029z" fill="url(#H)"/><g filter="url(#E)"><path d="M90 90.38v-29l-6.654-4.806a4 4 0 0 0-4.689.004L32 90.38z" fill="#000" fill-opacity=".24"/></g><g filter="url(#F)"><path d="M90 92.38v-29l-6.654-4.806a4 4 0 0 0-4.689.004L32 92.38z" fill="#000" fill-opacity=".32"/></g><path d="M90 90V61l-6.654-4.806a4 4 0 0 0-4.689.004L32 90z" fill="url(#I)"/></g></g><defs><filter id="B" x="-2" y="0" width="100" height="100" filterUnits="userSpaceOnUse" class="B"><feFlood result="A" class="C"/><feColorMatrix in="SourceAlpha" values="0 0 0 0 0 0 0 0 0 0 0 0 0 0 0 0 0 0 127 0"/><feOffset dy="2"/><feGaussianBlur stdDeviation="4"/><feColorMatrix values="0 0 0 0 0 0 0 0 0 0 0 0 0 0 0 0 0 0 0.2 0"/><feBlend in2="A"/><feBlend in="SourceGraphic"/></filter><filter id="C" x="-2" y="22.42" width="100" height="82" filterUnits="userSpaceOnUse" class="B"><feFlood result="A" class="C"/><feColorMatrix in="SourceAlpha" values="0 0 0 0 0 0 0 0 0 0 0 0 0 0 0 0 0 0 127 0"/><feOffset dy="4"/><feGaussianBlur stdDeviation="4"/><feColorMatrix values="0 0 0 0 0 0 0 0 0 0 0 0 0 0 0 0 0 0 0.25 0"/><feBlend in2="A"/><feBlend in="SourceGraphic"/></filter><filter id="D" x="5.24" y="26.42" width="85.52" height="70.76" filterUnits="userSpaceOnUse" class="B"><feFlood result="A" class="C"/><feColorMatrix in="SourceAlpha" values="0 0 0 0 0 0 0 0 0 0 0 0 0 0 0 0 0 0 127 0"/><feOffset dy="4"/><feGaussianBlur stdDeviation=".38"/><feColorMatrix values="0 0 0 0 0 0 0 0 0 0 0 0 0 0 0 0 0 0 1 0"/><feBlend in2="A"/><feBlend in="SourceGraphic"/></filter><filter id="E" x="31.24" y="55.057" width="59.52" height="36.083" filterUnits="userSpaceOnUse" class="B"><feFlood class="C"/><feBlend in="SourceGraphic"/><feGaussianBlur stdDeviation=".38"/></filter><filter id="F" x="24" y="49.817" width="74" height="50.563" filterUnits="userSpaceOnUse" class="B"><feFlood class="C"/><feBlend in="SourceGraphic"/><feGaussianBlur stdDeviation="4"/></filter><linearGradient id="G" x1="-1.875" y1="9.303" x2="11.921" y2="102.255" gradientUnits="userSpaceOnUse"><stop stop-color="#158915"/><stop offset="1" stop-color="#065f18"/></linearGradient><linearGradient id="H" x1="-13.687" y1="24.458" x2="-2.419" y2="100.635" gradientUnits="userSpaceOnUse"><stop stop-color="#6ad116"/><stop offset="1" stop-color="#34a117"/></linearGradient><linearGradient id="I" x1="32.906" y1="54.731" x2="37.258" y2="95.902" gradientUnits="userSpaceOnUse"><stop stop-color="#c3f488"/><stop offset="1" stop-color="#8fdc50"/></linearGradient><clipPath id="J"><path fill="#fff" d="M0 0h96v96H0z"/></clipPath><path id="K" d="M61.636 43.673a4 4 0 0 0 4.738.013L90 26.42v66H6v-22l44.132-31.794a4 4 0 0 1 4.716.029z"/></defs></svg>