<svg xmlns="http://www.w3.org/2000/svg" width="78.38" height="95.981" fill="none" xmlns:v="https://vecta.io/nano"><style><![CDATA[.B{color-interpolation-filters:sRGB}.C{flood-opacity:0}]]></style><g clip-path="url(#J)" transform="translate(-11.002 -.012)"><mask id="A" mask-type="alpha" maskUnits="userSpaceOnUse" x="11" y="0" width="79" height="96"><path d="M44.28 1.183a4 4 0 0 0-5.657 0L12.177 27.629a4 4 0 0 0 0 5.657l14.7 14.7-14.703 14.703a4 4 0 0 0 0 5.657l26.476 26.476a4 4 0 0 0 5.657 0L73.61 65.517 61.646 53.553l11.966 11.96 14.613-14.763a4 4 0 0 0-.014-5.642L73.557 30.456l-.002.002z" fill="url(#E)"/></mask><g mask="url(#A)"><g filter="url(#B)"><path d="M38.649 36.213a4 4 0 0 1 5.657 0L73.61 65.517 44.306 94.821a4 4 0 0 1-5.657 0L12.173 68.346a4 4 0 0 1 0-5.657z" fill="url(#F)"/></g><g filter="url(#C)"><path d="M38.623 3.178a4 4 0 0 1 5.657 0l29.275 29.275L44.28 61.728a4 4 0 0 1-5.657 0L12.176 35.282a4 4 0 0 1 0-5.657z" fill="#000" fill-opacity=".32"/></g><g filter="url(#D)"><path d="M38.623 1.558a4 4 0 0 1 5.657 0l29.275 29.275L44.28 60.108a4 4 0 0 1-5.657 0L12.176 33.662a4 4 0 0 1 0-5.657z" fill="#000" fill-opacity=".24"/></g><path d="M38.623 1.183a4 4 0 0 1 5.657 0l29.275 29.275L44.28 59.733a4 4 0 0 1-5.657 0L12.176 33.286a4 4 0 0 1 0-5.657z" fill="url(#G)"/><path d="M73.557 30.456L88.21 45.108a4 4 0 0 1 .014 5.642L73.612 65.513 56.049 47.959z" fill="url(#H)"/><path fill-rule="evenodd" d="M56.052 47.96L44.28 59.733a4 4 0 0 1-5.657 0L26.876 47.986l11.773-11.773a4 4 0 0 1 5.657 0z" fill="url(#I)"/></g></g><defs><filter id="B" x="5.345" y="30.385" width="72.265" height="72.265" filterUnits="userSpaceOnUse" class="B"><feFlood result="A" class="C"/><feColorMatrix in="SourceAlpha" values="0 0 0 0 0 0 0 0 0 0 0 0 0 0 0 0 0 0 127 0"/><feOffset dy="1"/><feGaussianBlur stdDeviation="2"/><feColorMatrix values="0 0 0 0 0 0 0 0 0 0 0 0 0 0 0 0 0 0 0.15 0"/><feBlend mode="hard-light" in2="A"/><feBlend in="SourceGraphic"/></filter><filter id="C" x="1.348" y="-7.65" width="80.206" height="80.206" filterUnits="userSpaceOnUse" class="B"><feFlood class="C"/><feBlend in="SourceGraphic"/><feGaussianBlur stdDeviation="4"/></filter><filter id="D" x="8.588" y="-2.03" width="65.726" height="65.726" filterUnits="userSpaceOnUse" class="B"><feFlood class="C"/><feBlend in="SourceGraphic"/><feGaussianBlur stdDeviation=".38"/></filter><linearGradient id="E" x1="11.002" y1=".012" x2="54.665" y2="109.8" href="#K"><stop stop-color="#cd9ef0"/><stop offset="1" stop-color="#9f75d3"/></linearGradient><linearGradient id="F" x1="41.478" y1="33.385" x2="39.265" y2="97.573" href="#K"><stop stop-color="#8661c5"/><stop offset="1" stop-color="#5c428b"/></linearGradient><linearGradient id="G" x1="41.451" y1="-1.645" x2="32.886" y2="61.397" href="#K"><stop stop-color="#ebc7ff"/><stop offset="1" stop-color="#e4b4ff"/></linearGradient><linearGradient id="H" x1="73.555" y1="30.453" x2="71.835" y2="65.898" href="#K"><stop stop-color="#f8ecff"/><stop offset="1" stop-color="#f1d9ff"/></linearGradient><linearGradient id="I" x1="26.876" y1="35.041" x2="35.985" y2="66.681" href="#K"><stop stop-color="#cd9ef0"/><stop offset="1" stop-color="#9f75d3"/></linearGradient><clipPath id="J"><path fill="#fff" d="M0 0h96v96H0z"/></clipPath><linearGradient id="K" gradientUnits="userSpaceOnUse"/></defs></svg>