<svg xmlns="http://www.w3.org/2000/svg" width="84" height="95.281" fill="none" xmlns:v="https://vecta.io/nano"><style><![CDATA[.B{color-interpolation-filters:sRGB}.C{flood-opacity:0}]]></style><g clip-path="url(#I)" transform="translate(-6 -.341)"><mask id="A" mask-type="alpha" maskUnits="userSpaceOnUse" x="6" y="0" width="84" height="96"><path fill-rule="evenodd" d="M8.446 16.68A4 4 0 0 0 6 20.365V42v24c0 14.57 30.852 26.202 39.671 29.23a7.1 7.1 0 0 0 4.658 0C59.148 92.202 90 80.57 90 66V42v-.001-21.634a4 4 0 0 0-2.446-3.686l-38-16.024a4 4 0 0 0-3.108 0zm9.014 20.488l-11.406 4.81 11.405-4.809z" fill="url(#F)"/></mask><g mask="url(#A)"><path d="M90 66c0 14.57-30.852 26.202-39.671 29.23a7.1 7.1 0 0 1-4.658 0C36.852 92.202 6 80.57 6 66c0-23.196 18.804-42 42-42s42 18.804 42 42z" fill="url(#G)"/><g filter="url(#B)"><path d="M6 43.999l40.448-17.053a4 4 0 0 1 3.108 0L90 43.998v24.001L49.554 50.943a4 4 0 0 0-3.108 0L6 67.999z" fill="#000" fill-opacity=".32"/></g><g filter="url(#C)"><path d="M6 42.379l40.448-17.054a4 4 0 0 1 3.108 0L90 42.378v24.001L49.554 49.323a4 4 0 0 0-3.108 0L6 66.379z" fill="#000" fill-opacity=".24"/></g><path d="M6 42l40.448-17.053a4 4 0 0 1 3.108 0L90 41.999V66L49.554 48.945a4 4 0 0 0-3.108 0L6 66z" fill="url(#H)"/><g filter="url(#D)"><path d="M6 22.365a4 4 0 0 1 2.446-3.686l38-16.024a4 4 0 0 1 3.108 0l38 16.024A4 4 0 0 1 90 22.365V44L49.554 26.945a4 4 0 0 0-3.108 0L6 44z" fill="#000" fill-opacity=".32"/></g><g filter="url(#E)"><path d="M6 20.745a4 4 0 0 1 2.446-3.686l38-16.024a4 4 0 0 1 3.108 0l38 16.024A4 4 0 0 1 90 20.745V42.38L49.554 25.325a4 4 0 0 0-3.108 0L6 42.38z" fill="#000" fill-opacity=".24"/></g><path d="M6 20.365a4 4 0 0 1 2.446-3.686l38-16.024a4 4 0 0 1 3.108 0l38 16.024A4 4 0 0 1 90 20.365V42L49.554 24.945a4 4 0 0 0-3.108 0L6 42z" fill="url(#F)"/></g></g><defs><filter id="B" x="-2" y="18.631" width="100" height="57.368" filterUnits="userSpaceOnUse" class="B"><feFlood class="C"/><feBlend in="SourceGraphic"/><feGaussianBlur stdDeviation="4"/></filter><filter id="C" x="5.24" y="24.251" width="85.52" height="42.888" filterUnits="userSpaceOnUse" class="B"><feFlood class="C"/><feBlend in="SourceGraphic"/><feGaussianBlur stdDeviation=".38"/></filter><filter id="D" x="-2" y="-5.659" width="100" height="57.659" filterUnits="userSpaceOnUse" class="B"><feFlood class="C"/><feBlend in="SourceGraphic"/><feGaussianBlur stdDeviation="4"/></filter><filter id="E" x="5.24" y="-.039" width="85.52" height="43.179" filterUnits="userSpaceOnUse" class="B"><feFlood class="C"/><feBlend in="SourceGraphic"/><feGaussianBlur stdDeviation=".38"/></filter><linearGradient id="F" x1="7" y1="-19.229" x2="31.901" y2="62.779" gradientUnits="userSpaceOnUse"><stop stop-color="#ffed80"/><stop offset=".961" stop-color="#ffdb00"/></linearGradient><linearGradient id="G" x1="6" y1="24" x2="102.908" y2="53.283" gradientUnits="userSpaceOnUse"><stop stop-color="#ea8200"/><stop offset="1" stop-color="#c46a08"/></linearGradient><linearGradient id="H" x1="6" y1="24.291" x2="89.136" y2="67.657" gradientUnits="userSpaceOnUse"><stop stop-color="#fac240"/><stop offset="1" stop-color="#f29800"/></linearGradient><clipPath id="I"><path fill="#fff" d="M0 0h96v96H0z"/></clipPath></defs></svg>