<svg xmlns="http://www.w3.org/2000/svg" width="84" height="94.786" fill="none" xmlns:v="https://vecta.io/nano"><g clip-path="url(#I)" transform="translate(-6 -.607)"><mask id="A" mask-type="alpha" maskUnits="userSpaceOnUse" x="6" y="0" width="84" height="96"><path d="M26.999 81.678a4 4 0 0 0 2.015 3.473l17.001 9.715a4 4 0 0 0 3.969 0l38-21.714A4 4 0 0 0 90 69.679V26.321a4 4 0 0 0-2.015-3.473l-38-21.714a4 4 0 0 0-3.969 0l-38 21.714A4 4 0 0 0 6 26.321v19.358a4 4 0 0 0 2.015 3.473L26.999 60z" fill="url(#D)"/></mask><g mask="url(#A)"><path d="M48 96L6 72V24L48 0l42 24v48z" fill="url(#E)"/><path d="M48 72L27 60V36l21-12 21 12v24z" fill="url(#F)"/><path opacity=".5" d="M48 48L27 36l21-12 21 12z" fill="url(#G)"/><g opacity=".2" filter="url(#B)"><path d="M47.999 98l-42-24V26l42 24z" fill="#000"/></g><g opacity=".18" filter="url(#C)"><path d="M47.999 96.38l-42-24v-48l42 24z" fill="#000"/></g><path d="M47.999 96l-42-24V24l42 24z" fill="url(#H)"/></g></g><defs><filter id="B" x="-2.001" y="18" width="58" height="88" filterUnits="userSpaceOnUse" color-interpolation-filters="sRGB"><feFlood flood-opacity="0"/><feBlend in="SourceGraphic"/><feGaussianBlur stdDeviation="4"/></filter><filter id="C" x="5.239" y="23.62" width="43.52" height="73.52" filterUnits="userSpaceOnUse" color-interpolation-filters="sRGB"><feFlood flood-opacity="0"/><feBlend in="SourceGraphic"/><feGaussianBlur stdDeviation=".38"/></filter><linearGradient id="D" x1="90" y1="96" x2="-10.59" y2="73.204" href="#J"><stop stop-color="#fac240"/><stop offset="1" stop-color="#f29800"/></linearGradient><linearGradient id="E" x1="6" y1="0" x2="106.59" y2="22.796" href="#J"><stop stop-color="#fac240"/><stop offset="1" stop-color="#f29800"/></linearGradient><linearGradient id="F" x1="27" y1="24" x2="77.295" y2="35.398" href="#J"><stop stop-color="#ea8200"/><stop offset="1" stop-color="#c46a08"/></linearGradient><linearGradient id="G" x1="27" y1="24" x2="70.866" y2="43.883" href="#J"><stop stop-color="#f5b240"/><stop offset="1" stop-color="#ea8200"/></linearGradient><linearGradient id="H" x1="5.999" y1="24" x2="68.561" y2="63.1" href="#J"><stop stop-color="#ffed80"/><stop offset="1" stop-color="#ffdb00"/></linearGradient><clipPath id="I"><path fill="#fff" d="M0 0h96v96H0z"/></clipPath><linearGradient id="J" gradientUnits="userSpaceOnUse"/></defs></svg>