<svg xmlns="http://www.w3.org/2000/svg" width="96" height="96" fill="none" xmlns:v="https://vecta.io/nano"><defs><filter id="A"><feFlood flood-opacity="0"/><feBlend in="SourceGraphic"/><feGaussianBlur stdDeviation=".4"/></filter><filter id="B"><feFlood flood-opacity="0"/><feBlend in="SourceGraphic"/><feGaussianBlur stdDeviation="4"/></filter><linearGradient id="C" x1="54" y1="126.667" x2="21.5" y2="-30.667" gradientUnits="userSpaceOnUse"><stop stop-color="#6b2929"/><stop offset="1" stop-color="#b6311d"/></linearGradient><linearGradient id="D" x1="63.5" y1="98" x2="42" y2="-2.5" gradientUnits="userSpaceOnUse"><stop stop-color="#d83b01"/><stop offset="1" stop-color="#ed7e43"/></linearGradient><linearGradient id="E" x1="52.5" y1="18.5" x2="70.868" y2="75.15" gradientUnits="userSpaceOnUse"><stop stop-color="#f8b48a"/><stop offset="1" stop-color="#ed7e43"/></linearGradient></defs><mask id="F" mask-type="alpha" maskUnits="userSpaceOnUse" x="0" y="0" width="96" height="96"><path d="M32 24v8h-8C10.745 32 0 42.745 0 56v24c0 8.837 7.163 16 16 16h24c13.255 0 24-10.745 24-24v-8h8c13.255 0 24-10.745 24-24V16c0-8.837-7.163-16-16-16H56C42.745 0 32 10.745 32 24z" fill="#c4c4c4"/></mask><g mask="url(#F)"><path d="M96 0H64V32H96V0Z" fill="url(#C)"/><path d="M32 64H0V96H32V64Z" fill="url(#C)"/><g filter="url(#A)"><path d="M64 96.4v-80c0-8.837 7.163-16 16-16h0-48v80c0 8.837-7.163 16-16 16h0 48z" fill="#000" fill-opacity=".24"/></g><g filter="url(#B)"><path d="M64 98V18c0-8.836 7.163-16 16-16h0-48v80c0 8.837-7.163 16-16 16h0 48z" fill="#000" fill-opacity=".32"/></g><path d="M64 96V16c0-8.836 7.163-16 16-16h0-48v80c0 8.837-7.163 16-16 16h0 48z" fill="url(#D)"/><g filter="url(#A)"><path d="M0 32.4h80c8.837 0 16-7.163 16-16h0v48H16c-8.837 0-16 7.163-16 16h0v-48z" fill="#000" fill-opacity=".24"/></g><g filter="url(#B)"><path d="M0 34h80c8.837 0 16-7.163 16-16h0v48H16C7.163 66 0 73.163 0 82h0V34z" fill="#000" fill-opacity=".32"/></g><path d="M0 32h80c8.837 0 16-7.163 16-16h0v48H16C7.163 64 0 71.163 0 80h0V32z" fill="url(#E)"/></g></svg>