<svg xmlns="http://www.w3.org/2000/svg" width="84" height="93.908" fill="none" xmlns:v="https://vecta.io/nano"><g clip-path="url(#G)" transform="translate(-6 -.642)"><mask id="A" mask-type="alpha" maskUnits="userSpaceOnUse" x="6" y="0" width="84" height="95"><path d="M7.984 23.501l37.98-22.306a4.02 4.02 0 0 1 4.072 0l37.98 22.306A4.02 4.02 0 0 1 90 26.968V67.98A4.02 4.02 0 0 1 85.98 72H48v20.603c0 1.503-1.633 2.438-2.929 1.677L7.984 72.499A4.02 4.02 0 0 1 6 69.032V26.968a4.02 4.02 0 0 1 1.984-3.466z" fill="#75757a"/></mask><g mask="url(#A)"><path d="M91.2 24L48 0v48l43.2 24z" fill="url(#C)"/><path d="M91.2 72L48 48v24z" fill="url(#D)"/><g filter="url(#B)"><path d="M48 48L4.8 24v48L48 96z" fill="url(#E)"/></g><path d="M48 0L4.8 24 48 48z" fill="url(#F)"/></g></g><defs><filter id="B" x=".13" y="19.997" width="53.875" height="82.675" filterUnits="userSpaceOnUse" color-interpolation-filters="sRGB"><feFlood flood-opacity="0" result="A"/><feColorMatrix in="SourceAlpha" values="0 0 0 0 0 0 0 0 0 0 0 0 0 0 0 0 0 0 127 0"/><feOffset dx="0.667182" dy="1.33436"/><feGaussianBlur stdDeviation="2.669"/><feColorMatrix values="0 0 0 0 0 0 0 0 0 0 0 0 0 0 0 0 0 0 0.2 0"/><feBlend in2="A"/><feBlend in="SourceGraphic"/></filter><linearGradient id="C" x1="48" y1="0" x2="111.318" y2="40.704" href="#H"><stop stop-color="#8661c5"/><stop offset="1" stop-color="#5c428b"/></linearGradient><linearGradient id="D" x1="60.842" y1="47.887" x2="60.842" y2="72.113" href="#H"><stop stop-color="#f8ecff"/><stop offset="1" stop-color="#f1d9ff"/></linearGradient><linearGradient id="E" x1="1.508" y1="24.114" x2="46.041" y2="97.194" href="#H"><stop stop-color="#cd9ef0"/><stop offset="1" stop-color="#9f75d3"/></linearGradient><linearGradient id="F" x1="5.211" y1="8.8" x2="46.864" y2="49.172" href="#H"><stop stop-color="#f1d9ff"/><stop offset="1" stop-color="#e4b4ff"/></linearGradient><clipPath id="G"><path fill="#fff" d="M0 0h96v96H0z"/></clipPath><linearGradient id="H" gradientUnits="userSpaceOnUse"/></defs></svg>