<svg xmlns="http://www.w3.org/2000/svg" width="83.9" height="83.99" fill="none" xmlns:v="https://vecta.io/nano"><style><![CDATA[.B{color-interpolation-filters:sRGB}.C{flood-opacity:0}]]></style><g clip-path="url(#J)" transform="translate(-6.1 -6)"><mask id="A" mask-type="alpha" maskUnits="userSpaceOnUse" x="6" y="6" width="84" height="84"><path fill-rule="evenodd" d="M7.278 12.827C4.76 10.306 6.545 6 10.108 6H86a4 4 0 0 1 4 4v75.982c0 3.565-4.311 5.349-6.83 2.827L72.067 77.694v8.232c0 3.564-4.309 5.349-6.829 2.828L54 77.509v8.448c0 3.566-4.314 5.35-6.833 2.824L7.323 48.824C4.809 46.303 6.595 42 10.156 42h8.35L7.339 30.828C4.82 28.308 6.605 24 10.168 24h8.27z" fill="url(#F)"/></mask><g mask="url(#A)"><path d="M7.278 12.827C4.76 10.306 6.545 6 10.108 6H86a4 4 0 0 1 4 4v75.982c0 3.565-4.311 5.349-6.83 2.827z" fill="url(#G)"/><g filter="url(#B)"><use href="#K" fill="#000" fill-opacity=".24"/></g><g filter="url(#C)"><path d="M7.338 33.208c-2.519-2.52-.734-6.828 2.829-6.828h57.899a4 4 0 0 1 4 4v57.925c0 3.564-4.309 5.349-6.829 2.828z" fill="#000" fill-opacity=".32"/></g><path d="M7.338 30.828C4.819 28.308 6.604 24 10.168 24h57.899a4 4 0 0 1 4 4v57.925c0 3.564-4.309 5.349-6.829 2.828z" fill="url(#H)"/><g filter="url(#D)"><use href="#L" fill="#000" fill-opacity=".24"/></g><g filter="url(#E)"><path d="M7.324 51.204c-2.514-2.522-.728-6.824 2.832-6.824H50a4 4 0 0 1 4 4v39.958c0 3.566-4.314 5.35-6.832 2.824z" fill="#000" fill-opacity=".32"/></g><path d="M7.324 48.824C4.809 46.303 6.595 42 10.156 42H50a4 4 0 0 1 4 4v39.958c0 3.566-4.314 5.35-6.832 2.824z" fill="url(#I)"/></g></g><defs><filter id="B" x="5.399" y="23.62" width="67.427" height="67.453" filterUnits="userSpaceOnUse" class="B"><feFlood class="C"/><feBlend in="SourceGraphic"/><feGaussianBlur stdDeviation=".38"/></filter><filter id="C" x="-1.841" y="18.38" width="81.908" height="81.933" filterUnits="userSpaceOnUse" class="B"><feFlood class="C"/><feBlend in="SourceGraphic"/><feGaussianBlur stdDeviation="4"/></filter><filter id="D" x="5.388" y="41.62" width="49.372" height="49.486" filterUnits="userSpaceOnUse" class="B"><feFlood class="C"/><feBlend in="SourceGraphic"/><feGaussianBlur stdDeviation=".38"/></filter><filter id="E" x="-1.852" y="36.38" width="63.852" height="63.966" filterUnits="userSpaceOnUse" class="B"><feFlood class="C"/><feBlend in="SourceGraphic"/><feGaussianBlur stdDeviation="4"/></filter><linearGradient id="F" x1="86.688" y1="89.99" x2="16.507" y2="-1.945" href="#M"><stop stop-color="#f69b63"/><stop offset="1" stop-color="#ffb685"/></linearGradient><linearGradient id="G" x1="108.86" y1="108.366" x2="29.95" y2="-18.398" href="#M"><stop stop-color="#922717"/><stop offset=".514" stop-color="#d83b01"/></linearGradient><linearGradient id="H" x1="17.121" y1="7.486" x2="84.232" y2="103.945" href="#M"><stop stop-color="#f69b63"/><stop offset="1" stop-color="#d83b01"/></linearGradient><linearGradient id="I" x1="51.889" y1="95.634" x2="7.052" y2="37.003" href="#M"><stop stop-color="#f69b63"/><stop offset="1" stop-color="#ffb685"/></linearGradient><clipPath id="J"><path fill="#fff" d="M0 0h96v96H0z"/></clipPath><path id="K" d="M7.338 31.208c-2.519-2.52-.734-6.828 2.829-6.828h57.899a4 4 0 0 1 4 4v57.925c0 3.564-4.309 5.349-6.829 2.828z"/><path id="L" d="M7.324 49.204c-2.514-2.522-.728-6.824 2.832-6.824H50a4 4 0 0 1 4 4v39.958c0 3.566-4.314 5.35-6.832 2.824z"/><linearGradient id="M" gradientUnits="userSpaceOnUse"/></defs></svg>