<svg xmlns="http://www.w3.org/2000/svg" width="96" height="88.011" fill="none" xmlns:v="https://vecta.io/nano"><g clip-path="url(#C)" transform="translate(0 -3.989)"><path d="M20.745 68.902c-2.076.754-3.169 3.064-2.169 5.034A33 33 0 0 0 47.82 92c6.745.037 13.339-1.993 18.894-5.817a33 33 0 0 0 10.549-11.922c1.022-1.959-.045-4.28-2.113-5.058l-1.916-.72c-2.068-.777-4.346.294-5.47 2.196-1.689 2.857-3.986 5.328-6.746 7.228-3.864 2.66-8.451 4.072-13.142 4.046s-9.262-1.489-13.096-4.191c-2.739-1.93-5.008-4.426-6.665-7.302-1.103-1.914-3.369-3.01-5.446-2.256z" fill="url(#A)"/><path d="M36.386 53.647l5.952-5.969a8 8 0 0 1 11.33 0l5.952 5.969a8 8 0 0 0 5.665 2.351h6.719c13.256 0 24.002-10.746 24.002-24.002V16.45c0-2.805-1.448-5.457-4.021-6.575C77.501 3.58 55.289 3.994 48.003 3.994S18.505 3.58 4.021 9.876C1.448 10.994 0 13.645 0 16.45v15.546c0 13.256 10.746 24.002 24.002 24.002h6.719a8 8 0 0 0 5.665-2.351z" fill="url(#B)"/><rect x="39.002" y="11.995" width="18.001" height="8.001" rx="4" fill="#0078d4"/></g><defs><linearGradient id="A" x1="38.002" y1="58.998" x2="61.504" y2="100.501" gradientUnits="userSpaceOnUse"><stop stop-color="#22b8f1"/><stop offset="1" stop-color="#018de1"/></linearGradient><linearGradient id="B" x1="35.48" y1="-7.311" x2="82.44" y2="57.389" gradientUnits="userSpaceOnUse"><stop stop-color="#50e6ff"/><stop offset=".676" stop-color="#0095e6"/><stop offset="1" stop-color="#0078d4"/></linearGradient><clipPath id="C"><path fill="#fff" d="M0 0h96v96H0z"/></clipPath></defs></svg>