<svg xmlns="http://www.w3.org/2000/svg" width="95.661" height="83.606" fill="none" xmlns:v="https://vecta.io/nano"><style><![CDATA[.B{color-interpolation-filters:sRGB}.C{flood-opacity:0}.D{fill-rule:evenodd}]]></style><g clip-path="url(#K)" transform="translate(-.339 -6.394)"><mask id="A" mask-type="alpha" maskUnits="userSpaceOnUse" x="0" y="6" width="97" height="85"><path d="M77.684 7.428a4 4 0 0 0-5.367 0l-13.429 12.15-3.137-2.972a4 4 0 0 0-5.502 0L38.109 28.108l-2.28-2.28a4 4 0 0 0-5.657 0L18.929 37.071a10 10 0 0 0-2.929 7.071v1.859h0v2.059 4.245A40 40 0 0 1 2.908 81.902L1.656 83.04c-2.705 2.459-.965 6.96 2.691 6.96h.487l.111.001h22.056.133.096 23.771c24.853 0 45-20.147 45-45V30.017v-1.579a10 10 0 0 0-3.291-7.415z" fill="url(#G)" class="D"/></mask><g mask="url(#A)"><g filter="url(#B)" class="D"><path d="M77.684 7.428a4 4 0 0 0-5.367 0L57.291 21.023A10 10 0 0 0 54 28.438V32h.001v3.491 2.987a45 45 0 0 1-21.904 38.621l-9.144 5.468C19.469 84.651 20.947 90 25.007 90H51c24.853 0 45-20.147 45-45V30.017v-1.579a10 10 0 0 0-3.291-7.415z" fill="url(#H)"/></g><g filter="url(#C)"><path d="M55.751 18.986a4 4 0 0 0-5.502 0L37.123 31.422A10 10 0 0 0 34 38.681v5.578a40.65 40.65 0 0 1-22.469 36.356l-8.376 4.188C-.62 86.691.724 92.381 4.944 92.381H27c24.853 0 45-20.147 45-45v-8.699a10 10 0 0 0-3.123-7.259z" fill="#000" fill-opacity=".32"/></g><g filter="url(#D)"><path d="M55.751 16.986a4 4 0 0 0-5.502 0L37.123 29.422A10 10 0 0 0 34 36.681v5.578a40.65 40.65 0 0 1-22.469 36.356l-8.376 4.188C-.62 84.691.724 90.381 4.944 90.381H27c24.853 0 45-20.147 45-45v-8.699a10 10 0 0 0-3.123-7.259z" fill="#000" fill-opacity=".24"/></g><path d="M55.751 16.606a4 4 0 0 0-5.502 0L37.123 29.042A10 10 0 0 0 34 36.301V38v3.879a40.65 40.65 0 0 1-22.469 36.356l-8.376 4.188C-.62 84.311.724 90.001 4.944 90.001H27c24.853 0 45-20.147 45-45v-6-2.699a10 10 0 0 0-3.123-7.259z" fill="url(#I)" class="D"/><g filter="url(#E)"><path d="M35.828 27.832a4 4 0 0 0-5.657 0L18.929 39.074A10 10 0 0 0 16 46.145v8.163A40 40 0 0 1 2.907 83.905l-1.251 1.138c-2.705 2.459-.965 6.96 2.691 6.96h.653c24.518 0 44.457-19.608 44.989-43.999h.011v-1.858a10 10 0 0 0-2.929-7.071z" fill="#000" fill-opacity=".32"/></g><g filter="url(#F)"><path d="M35.828 26.212a4 4 0 0 0-5.657 0L18.929 37.454A10 10 0 0 0 16 44.525v8.163A40 40 0 0 1 2.907 82.285l-1.251 1.138c-2.705 2.459-.965 6.96 2.691 6.96h.653c24.518 0 44.457-19.608 44.989-43.999h.011v-1.858a10 10 0 0 0-2.929-7.071z" fill="#000" fill-opacity=".24"/></g><path d="M35.828 25.828a4 4 0 0 0-5.657 0L18.929 37.071A10 10 0 0 0 16 44.142v1.859h0v2.059 4.245A40 40 0 0 1 2.907 81.902L1.655 83.04c-2.705 2.459-.965 6.96 2.691 6.96h.653c24.518 0 44.457-19.608 44.989-43.999h.011v-1.001-.857a10 10 0 0 0-2.929-7.071z" fill="url(#J)" class="D"/></g></g><defs><filter id="B" x="13" y=".394" width="91" height="99.606" filterUnits="userSpaceOnUse" class="B"><feFlood result="A" class="C"/><feColorMatrix in="SourceAlpha" values="0 0 0 0 0 0 0 0 0 0 0 0 0 0 0 0 0 0 127 0"/><feOffset dy="0.4"/><feGaussianBlur stdDeviation=".4"/><feColorMatrix values="0 0 0 0 0 0 0 0 0 0 0 0 0 0 0 0 0 0 0.24 0"/><feBlend in2="A" result="B"/><feColorMatrix in="SourceAlpha" values="0 0 0 0 0 0 0 0 0 0 0 0 0 0 0 0 0 0 127 0"/><feOffset dy="2"/><feGaussianBlur stdDeviation="4"/><feColorMatrix values="0 0 0 0 0 0 0 0 0 0 0 0 0 0 0 0 0 0 0.32 0"/><feBlend in2="B"/><feBlend in="SourceGraphic"/></filter><filter id="C" x="-7.062" y="9.89" width="87.062" height="90.491" filterUnits="userSpaceOnUse" class="B"><feFlood class="C"/><feBlend in="SourceGraphic"/><feGaussianBlur stdDeviation="4"/></filter><filter id="D" x=".178" y="15.13" width="72.582" height="76.01" filterUnits="userSpaceOnUse" class="B"><feFlood class="C"/><feBlend in="SourceGraphic"/><feGaussianBlur stdDeviation=".38"/></filter><filter id="E" x="-7.662" y="18.66" width="65.661" height="81.342" filterUnits="userSpaceOnUse" class="B"><feFlood class="C"/><feBlend in="SourceGraphic"/><feGaussianBlur stdDeviation="4"/></filter><filter id="F" x="-.422" y="24.28" width="51.181" height="66.862" filterUnits="userSpaceOnUse" class="B"><feFlood class="C"/><feBlend in="SourceGraphic"/><feGaussianBlur stdDeviation=".38"/></filter><linearGradient id="G" x1="7.327" y1="7.073" x2="39.32" y2="99.487" href="#L"><stop stop-color="#a7f2ff"/><stop offset="1" stop-color="#7cecff"/></linearGradient><linearGradient id="H" x1="48.531" y1="34.614" x2="78.073" y2="84.097" href="#L"><stop stop-color="#0078d4"/><stop offset="1" stop-color="#2064ae"/></linearGradient><linearGradient id="I" x1="30.202" y1="5.912" x2="111.718" y2="83.023" href="#L"><stop stop-color="#40c4f5"/><stop offset="1" stop-color="#0095e6"/></linearGradient><linearGradient id="J" x1="3.966" y1="25.187" x2="37.116" y2="88.793" href="#L"><stop stop-color="#a7f2ff"/><stop offset="1" stop-color="#7cecff"/></linearGradient><clipPath id="K"><path fill="#fff" d="M0 0h96v96H0z"/></clipPath><linearGradient id="L" gradientUnits="userSpaceOnUse"/></defs></svg>