<svg xmlns="http://www.w3.org/2000/svg" width="96" height="96" fill="none" xmlns:v="https://vecta.io/nano"><g clip-path="url(#H)"><mask id="A" mask-type="alpha" maskUnits="userSpaceOnUse" x="0" y="0" width="96" height="96"><path fill-rule="evenodd" d="M49.993 1.147a4 4 0 0 0-3.988 0l-25.999 14.95A4 4 0 0 0 18 19.564v5.595l-7.988 4.574A4 4 0 0 0 8 33.204v7.871L1.969 44.63A4 4 0 0 0 0 48.076v17.848a4 4 0 0 0 1.969 3.446l44 25.933a4 4 0 0 0 4.062 0l44-25.933A4 4 0 0 0 96 65.924V48.076a4 4 0 0 0-1.969-3.446l-6.039-3.559v-7.867a4 4 0 0 0-2.012-3.471l-7.981-4.571v-5.598a4 4 0 0 0-2.006-3.468L49.993 1.147z" fill="#c4c4c4"/></mask><g mask="url(#A)"><path d="M94.031 44.63A4 4 0 0 1 96 48.076v17.848a4 4 0 0 1-1.969 3.446l-44 25.933a4 4 0 0 1-4.062 0l-44-25.933A4 4 0 0 1 0 65.924V48.076a4 4 0 0 1 1.969-3.446l44-25.933a4 4 0 0 1 4.062 0l44 25.933z" fill="url(#D)"/><path d="M85.98 61.248a4 4 0 0 0 2.012-3.471V33.204a4 4 0 0 0-2.012-3.471L49.984 9.119a4 4 0 0 0-3.976 0L10.012 29.733A4 4 0 0 0 8 33.204v24.573a4 4 0 0 0 2.012 3.471l35.996 20.614a4 4 0 0 0 3.975 0L85.98 61.248z" fill="url(#E)"/><g filter="url(#B)"><path d="M46.005 3.147a4 4 0 0 1 3.988 0l25.999 14.95a4 4 0 0 1 2.006 3.468v29.872a4 4 0 0 1-2.006 3.468l-25.999 14.95a4 4 0 0 1-3.988 0l-25.999-14.95A4 4 0 0 1 18 51.436V21.564a4 4 0 0 1 2.006-3.468l25.999-14.95z" fill="#000" fill-opacity=".32"/></g><g filter="url(#C)"><path d="M46.005 1.527a4 4 0 0 1 3.988 0l25.999 14.95a4 4 0 0 1 2.006 3.468v29.872a4 4 0 0 1-2.006 3.468l-25.999 14.95a4 4 0 0 1-3.988 0l-25.999-14.95A4 4 0 0 1 18 49.816V19.944a4 4 0 0 1 2.006-3.468l25.999-14.95z" fill="#000" fill-opacity=".24"/></g><path d="M46.005 1.147a4 4 0 0 1 3.988 0l25.999 14.95a4 4 0 0 1 2.006 3.468v29.872a4 4 0 0 1-2.006 3.468l-25.999 14.95a4 4 0 0 1-3.988 0l-25.999-14.95A4 4 0 0 1 18 49.436V19.564a4 4 0 0 1 2.006-3.468l25.999-14.95z" fill="url(#F)"/><path d="M46.006 1.146a4 4 0 0 1 3.987 0l25.78 14.816a1.5 1.5 0 0 1 .016 2.591L50.036 33.794a4 4 0 0 1-4.075 0L20.216 18.553a1.5 1.5 0 0 1 .017-2.591L46.006 1.146z" fill="url(#G)"/></g></g><defs><filter id="B" x="10" y="-5.386" width="75.999" height="83.772" filterUnits="userSpaceOnUse" color-interpolation-filters="sRGB"><feFlood flood-opacity="0"/><feBlend in="SourceGraphic"/><feGaussianBlur stdDeviation="4"/></filter><filter id="C" x="17.24" y=".234" width="61.519" height="69.292" filterUnits="userSpaceOnUse" color-interpolation-filters="sRGB"><feFlood flood-opacity="0"/><feBlend in="SourceGraphic"/><feGaussianBlur stdDeviation=".38"/></filter><linearGradient id="D" x1="4.5" y1="-2" x2="154.25" y2="-23.376" href="#I"><stop offset=".209" stop-color="#158915"/><stop offset="1" stop-color="#065f18"/></linearGradient><linearGradient id="E" x1="87.992" y1="83" x2="70.124" y2="-5.538" href="#I"><stop stop-color="#34a117"/><stop offset="1" stop-color="#6ad116"/></linearGradient><linearGradient id="F" x1="18" y1="0" x2="86.561" y2="60.428" href="#I"><stop stop-color="#8fdc50"/><stop offset="1" stop-color="#7bca52"/></linearGradient><linearGradient id="G" x1="18.94" y1=".227" x2="23.034" y2="40.86" href="#I"><stop stop-color="#c3f488"/><stop offset="1" stop-color="#8fdc50"/></linearGradient><clipPath id="H"><path fill="#fff" d="M0 0h96v96H0z"/></clipPath><linearGradient id="I" gradientUnits="userSpaceOnUse"/></defs></svg>