<svg xmlns="http://www.w3.org/2000/svg" width="96" height="92" fill="none" xmlns:v="https://vecta.io/nano"><defs><filter id="A" x="-.017" y="-.017" width="1.034" height="1.034"><feFlood flood-opacity="0"/><feBlend in="SourceGraphic"/><feGaussianBlur stdDeviation=".4"/></filter><filter id="B" x="-.171" y="-.171" width="1.343" height="1.343"><feFlood flood-opacity="0"/><feBlend in="SourceGraphic"/><feGaussianBlur stdDeviation="4"/></filter><linearGradient id="C" x1="41.5" y1="40" x2="74.5" y2="96" gradientUnits="userSpaceOnUse"><stop stop-color="#ffdac2"/><stop offset="1" stop-color="#f69b63"/></linearGradient></defs><mask id="D" mask-type="alpha" maskUnits="userSpaceOnUse" x="0" y="4" width="96" height="92"><path d="M4 4a4 4 0 0 0-4 4v64a4 4 0 0 0 4 4h29.16C36.602 87.566 47.316 96 60 96s23.398-8.434 26.841-20H92a4 4 0 0 0 4-4V8a4 4 0 0 0-4-4z" fill="#fff"/></mask><g mask="url(#D)" transform="translate(0 -4)"><path d="M36 4h60v24H36z" fill="#f9894e"/><path d="M60 4H0v24h60z" fill="#e9672d"/><path fill="#b6311d" d="M0 28h96v24H0z"/><path d="M0 52h96v24H0z" fill="#912c26"/><path fill="#d83b01" d="M32 28h64v24H32z"/><g filter="url(#A)"><circle cx="60" cy="68.4" r="28" fill="#000" fill-opacity=".24"/></g><g filter="url(#B)"><circle cx="60" cy="70" r="28" fill="#000" fill-opacity=".32"/></g><circle cx="60" cy="68" r="28" fill="url(#C)"/><path fill-rule="evenodd" d="M62 48a2 2 0 0 1 2 2v14h10a2 2 0 0 1 2 2v4a2 2 0 0 1-2 2H60a4 4 0 0 1-4-4V50a2 2 0 0 1 2-2z" fill="#d83b01"/></g></svg>