<svg xmlns="http://www.w3.org/2000/svg" width="84" height="94.799" fill="none" xmlns:v="https://vecta.io/nano"><g clip-path="url(#H)" transform="translate(-6 -.607)"><mask id="A" mask-type="alpha" maskUnits="userSpaceOnUse" x="5" y="0" width="86" height="96"><path d="M46.035.608a4 4 0 0 1 3.93 0l39 21.994A4 4 0 0 1 91 26.086v43.827a4 4 0 0 1-2.035 3.484l-39 21.994a4 4 0 0 1-3.93 0l-39-21.994A4 4 0 0 1 5 69.914V26.086a4 4 0 0 1 2.035-3.484z" fill="#fff"/></mask><g mask="url(#A)"><path d="M46.015 1.134a4 4 0 0 1 3.969 0l38 21.714A4 4 0 0 1 90 26.321v43.357a4 4 0 0 1-2.016 3.473l-38 21.714a4 4 0 0 1-3.969 0l-38-21.714A4 4 0 0 1 6 69.679V26.321a4 4 0 0 1 2.015-3.473z" fill="url(#D)"/><path fill-rule="evenodd" d="M6 47.772v-.062l.055.032L32 33.5l.862 29.745 13.135 7.597a4 4 0 0 0 4.005 0L90 47.71V28.086v.022 42.118a4 4 0 0 1-2.053 3.494l-38 21.179a4 4 0 0 1-3.895 0l-38-21.179A4 4 0 0 1 6 70.226V68h0V47.772z" fill="url(#E)"/><g filter="url(#B)"><path d="M46.017 25.765a4 4 0 0 1 3.969-.002l17.004 9.707a4 4 0 0 1 2.017 3.474v19.095a4 4 0 0 1-2.013 3.471l-17.008 9.736a4 4 0 0 1-3.971.002l-16.993-9.705a4 4 0 0 1-2.016-3.473V38.956a4 4 0 0 1 2.014-3.472z" fill="#000" fill-opacity=".24"/></g><g filter="url(#C)"><path d="M46.017 26.765a4 4 0 0 1 3.969-.002l17.004 9.707a4 4 0 0 1 2.017 3.474v19.095a4 4 0 0 1-2.013 3.471l-17.008 9.736a4 4 0 0 1-3.971.002l-16.993-9.705a4 4 0 0 1-2.016-3.473V39.956a4 4 0 0 1 2.014-3.472z" fill="#000" fill-opacity=".32"/></g><path d="M46.017 25.382a4 4 0 0 1 3.969-.001l17.004 9.707a4 4 0 0 1 2.017 3.474v19.095a4 4 0 0 1-2.013 3.471l-17.008 9.736a4 4 0 0 1-3.971.002l-16.993-9.705a4 4 0 0 1-2.016-3.473V38.574a4 4 0 0 1 2.014-3.472z" fill="url(#F)"/><path fill-rule="evenodd" d="M46.039 25.499l-17.289 9.747-.238.145c-.712.525-.667 1.64.134 2.091l17.391 9.804a4 4 0 0 0 3.929 0l17.391-9.804a1.25 1.25 0 0 0 .134-2.091l-.238-.145L49.964 25.5a4 4 0 0 0-3.926-.002z" fill="url(#G)"/></g></g><defs><filter id="B" x="26.245" y="24.477" width="43.521" height="48.058" filterUnits="userSpaceOnUse" color-interpolation-filters="sRGB"><feFlood flood-opacity="0"/><feBlend in="SourceGraphic"/><feGaussianBlur stdDeviation=".38"/></filter><filter id="C" x="19.005" y="18.237" width="58.001" height="62.538" filterUnits="userSpaceOnUse" color-interpolation-filters="sRGB"><feFlood flood-opacity="0"/><feBlend in="SourceGraphic"/><feGaussianBlur stdDeviation="4"/></filter><linearGradient id="D" x1="36.835" y1="32.403" x2="71.151" y2="88.469" href="#I"><stop stop-color="#0078d4"/><stop offset="1" stop-color="#2064ae"/></linearGradient><linearGradient id="E" x1="28.313" y1="27.864" x2="61.893" y2="97.173" href="#I"><stop stop-color="#40c4f5"/><stop offset="1" stop-color="#0095e6"/></linearGradient><linearGradient id="F" x1="34.17" y1="28.492" x2="56.315" y2="69.927" href="#I"><stop stop-color="#7cecff"/><stop offset="1" stop-color="#50e6ff"/></linearGradient><linearGradient id="G" x1="30.93" y1="25.17" x2="37.003" y2="52.04" href="#I"><stop stop-color="#a7f2ff"/><stop offset="1" stop-color="#7cecff"/></linearGradient><clipPath id="H"><path fill="#fff" d="M0 0h96v96H0z"/></clipPath><linearGradient id="I" gradientUnits="userSpaceOnUse"/></defs></svg>