<svg xmlns="http://www.w3.org/2000/svg" width="95.744" height="93.711" fill="none" xmlns:v="https://vecta.io/nano"><defs><filter id="A" x="-2" y="6" width="106" height="80" filterUnits="userSpaceOnUse" color-interpolation-filters="sRGB"><feFlood flood-opacity="0" result="A"/><feColorMatrix in="SourceAlpha" values="0 0 0 0 0 0 0 0 0 0 0 0 0 0 0 0 0 0 127 0"/><feOffset dy="0.4"/><feGaussianBlur stdDeviation=".4"/><feColorMatrix values="0 0 0 0 0 0 0 0 0 0 0 0 0 0 0 0 0 0 0.24 0"/><feBlend in2="A" result="B"/><feColorMatrix in="SourceAlpha" values="0 0 0 0 0 0 0 0 0 0 0 0 0 0 0 0 0 0 127 0"/><feOffset dy="2"/><feGaussianBlur stdDeviation="4"/><feColorMatrix values="0 0 0 0 0 0 0 0 0 0 0 0 0 0 0 0 0 0 0.32 0"/><feBlend in2="B"/><feBlend in="SourceGraphic"/></filter><filter id="B" x="-.011" y="-.011" width="1.021" height="1.022"><feFlood flood-opacity="0"/><feBlend in="SourceGraphic"/><feGaussianBlur stdDeviation=".4"/></filter><filter id="C" x="-.107" y="-.109" width="1.213" height="1.218"><feFlood flood-opacity="0"/><feBlend in="SourceGraphic"/><feGaussianBlur stdDeviation="4"/></filter><filter id="D" x="-.016" y="-.015" width="1.032" height="1.029"><feFlood flood-opacity="0"/><feBlend in="SourceGraphic"/><feGaussianBlur stdDeviation=".4"/></filter><filter id="E" x="-.16" y="-.146" width="1.321" height="1.292"><feFlood flood-opacity="0"/><feBlend in="SourceGraphic"/><feGaussianBlur stdDeviation="4"/></filter><linearGradient id="F" x1="42" y1="7" x2="47.5" y2="44" href="#J"><stop stop-color="#2a6980"/><stop offset="1" stop-color="#0b3239"/></linearGradient><linearGradient id="G" x1="93.647" y1="88" x2="85.216" y2="4.063" href="#J"><stop stop-color="#007991"/><stop offset="1" stop-color="#36a0b5"/></linearGradient><linearGradient id="H" x1="51" y1="0" x2="51" y2="88" href="#J"><stop stop-color="#1bb5d3"/><stop offset="1" stop-color="#169cb7"/></linearGradient><linearGradient id="I" x1="31" y1="88.5" x2="9" y2="30" href="#J"><stop stop-color="#8aecff"/><stop offset="1" stop-color="#caf7ff"/></linearGradient><linearGradient id="J" gradientUnits="userSpaceOnUse"/></defs><mask id="K" mask-type="alpha" maskUnits="userSpaceOnUse" x="0" y="2" width="96" height="94"><path d="M19.243 12a4 4 0 0 0-3.413 1.914l-9.57 15.66c-.173.283-.315.601-.412.918C-11.811 87.993 16.062 88 37.999 88v5.764c0 1.831 2.256 2.699 3.484 1.341L47.905 88h44.095a4 4 0 0 0 4-4V31.126a4 4 0 0 0-.587-2.086l-9.243-15.125A4 4 0 0 0 82.756 12H57.799l-5.06-8.929c-.766-1.352-2.714-1.352-3.48 0L44.199 12z" fill="#fff"/></mask><g mask="url(#K)" transform="translate(-.256 -2.057)"><g filter="url(#A)"><path d="M85 12H17L6 30v46h90V30z" fill="url(#F)"/></g><g filter="url(#B)"><path d="M34 30.4l17-30 17 30h28v58H46c-22.091 0-40-17.909-40-40v-18z" fill="#000" fill-opacity=".24"/></g><g filter="url(#C)"><path d="M34 32L51 2l17 30h28v58H46C23.909 90 6 72.091 6 50V32z" fill="#000" fill-opacity=".32"/></g><path d="M34 30L51 0l17 30h28v58H46C23.909 88 6 70.091 6 48V30z" fill="url(#G)"/><path d="M68 30v58H34V30L51 0z" fill="url(#H)"/><circle cx="51" cy="33" r="13" fill="#49d1e9"/><g filter="url(#D)"><path d="M38 88.4c-22 0-49.969-.007-32-58 0 24.541 10 27.959 32 27.959v-5.805c0-1.831 2.256-2.699 3.484-1.341l17.592 19.464a4 4 0 0 1 0 5.364L41.484 95.505c-1.228 1.358-3.484.49-3.484-1.341z" fill="#000" fill-opacity=".24"/></g><g filter="url(#E)"><path d="M38 90c-22 0-49.969-.007-32-58 0 24.541 10 27.959 32 27.959v-5.804c0-1.831 2.256-2.699 3.484-1.341l17.592 19.464a4 4 0 0 1 0 5.364L41.484 97.105c-1.228 1.358-3.484.49-3.484-1.341z" fill="#000" fill-opacity=".32"/></g><path d="M38 88c-22 0-49.969-.007-32-58 0 24.541 10 27.959 32 27.959v-5.804c0-1.831 2.256-2.699 3.484-1.341l17.592 19.464a4 4 0 0 1 0 5.364L41.484 95.105c-1.228 1.358-3.484.49-3.484-1.341z" fill="url(#I)"/></g></svg>