<svg xmlns="http://www.w3.org/2000/svg" width="95.771" height="87.768" fill="none" xmlns:v="https://vecta.io/nano"><defs><filter id="A" x="62" y="22" width="42" height="76" filterUnits="userSpaceOnUse" color-interpolation-filters="sRGB"><feFlood flood-opacity="0" result="A"/><feColorMatrix in="SourceAlpha" values="0 0 0 0 0 0 0 0 0 0 0 0 0 0 0 0 0 0 127 0"/><feOffset dy="0.4"/><feGaussianBlur stdDeviation=".4"/><feColorMatrix values="0 0 0 0 0 0 0 0 0 0 0 0 0 0 0 0 0 0 0.24 0"/><feBlend in2="A" result="B"/><feColorMatrix in="SourceAlpha" values="0 0 0 0 0 0 0 0 0 0 0 0 0 0 0 0 0 0 127 0"/><feOffset dy="2"/><feGaussianBlur stdDeviation="4"/><feColorMatrix values="0 0 0 0 0 0 0 0 0 0 0 0 0 0 0 0 0 0 0.32 0"/><feBlend in2="B"/><feBlend in="SourceGraphic"/></filter><filter id="B" x="-.015" y="-.012" width="1.03" height="1.024"><feFlood flood-opacity="0"/><feBlend in="SourceGraphic"/><feGaussianBlur stdDeviation=".4"/></filter><filter id="C" x="-.15" y="-.12" width="1.3" height="1.24"><feFlood flood-opacity="0"/><feBlend in="SourceGraphic"/><feGaussianBlur stdDeviation="4"/></filter><filter id="D" x="-.016" y="-.015" width="1.032" height="1.029"><feFlood flood-opacity="0"/><feBlend in="SourceGraphic"/><feGaussianBlur stdDeviation=".4"/></filter><filter id="E" x="-.16" y="-.146" width="1.321" height="1.292"><feFlood flood-opacity="0"/><feBlend in="SourceGraphic"/><feGaussianBlur stdDeviation="4"/></filter><linearGradient id="F" x1="76" y1="7.5" x2="74.04" y2="100.184" gradientUnits="userSpaceOnUse"><stop stop-color="#2a6980"/><stop offset="1" stop-color="#0b3239"/></linearGradient><linearGradient id="G" x1="68.327" y1="88" x2="56.585" y2="4.875" gradientUnits="userSpaceOnUse"><stop stop-color="#007991"/><stop offset="1" stop-color="#36a0b5"/></linearGradient><linearGradient id="H" x1="31" y1="88.5" x2="9" y2="30" gradientUnits="userSpaceOnUse"><stop stop-color="#8aecff"/><stop offset="1" stop-color="#caf7ff"/></linearGradient><clipPath id="I"><path fill="#fff" d="M0 0h96v96H0z"/></clipPath></defs><g clip-path="url(#I)" transform="translate(-.229 -8)"><mask id="J" mask-type="alpha" maskUnits="userSpaceOnUse" x="0" y="8" width="97" height="88"><path d="M6 12a4 4 0 0 1 4-4h56a4 4 0 0 1 4 4v16l23.176 7.131A4 4 0 0 1 96 38.954V84a4 4 0 0 1-4 4H47.906l-6.422 7.105c-1.228 1.358-3.484.49-3.484-1.341V88h-2a30.58 30.58 0 0 1-.429-.003c-21.553-.078-46.916-2.16-29.602-58.038L6 32.261z" fill="#fff"/></mask><g mask="url(#J)"><g filter="url(#A)"><path d="M96 36l-26-8v60h26z" fill="url(#F)"/></g><g filter="url(#B)"><path d="M6 8.4h64v80H36c-16.569 0-30-13.431-30-30z" fill="#000" fill-opacity=".24"/></g><g filter="url(#C)"><path d="M6 10h64v80H36C19.432 90 6 76.569 6 60z" fill="#000" fill-opacity=".32"/></g><path d="M6 8h64v80H36C19.432 88 6 74.569 6 58z" fill="url(#G)"/><g filter="url(#D)"><path d="M38 88.4c-22 0-50-.048-32.031-58.041 0 24.541 10.031 28 32.031 28v-5.804c0-1.831 2.256-2.699 3.484-1.341l17.592 19.463a4 4 0 0 1 0 5.364L41.484 95.505c-1.228 1.358-3.484.49-3.484-1.341z" fill="#000" fill-opacity=".24"/></g><g filter="url(#E)"><path d="M38 90c-22 0-50-.048-32.031-58.041 0 24.541 10.031 28 32.031 28v-5.805c0-1.831 2.256-2.699 3.484-1.341l17.592 19.463a4 4 0 0 1 0 5.364L41.484 97.105c-1.228 1.358-3.484.49-3.484-1.341z" fill="#000" fill-opacity=".32"/></g><path d="M38 88c-22 0-50-.048-32.031-58.041 0 24.541 10.031 28 32.031 28v-5.805c0-1.831 2.256-2.699 3.484-1.341l17.592 19.463a4 4 0 0 1 0 5.364L41.484 95.105c-1.228 1.358-3.484.49-3.484-1.341z" fill="url(#H)"/><path fill="#61e4fe" d="M54 8h16v20H54z"/><path fill="#49d1e9" d="M38 8h16v20H38z"/><path d="M54 28h16v20H54zM22 8h16v20H22z" fill="#2fbed7"/><path d="M38 28h16v20H42a4 4 0 0 1-4-4zM6 8h16v20H6z" fill="#26acc6"/></g></g></svg>