<svg xmlns="http://www.w3.org/2000/svg" width="96" height="96" fill="none" xmlns:v="https://vecta.io/nano"><g clip-path="url(#H)"><mask id="A" mask-type="alpha" maskUnits="userSpaceOnUse" x="0" y="0" width="96" height="96"><path d="M48 4c0-2.209-1.797-4.017-3.999-3.836C19.363 2.196 0 22.837 0 48c0 26.51 21.49 48 48 48 25.163 0 45.804-19.362 47.836-44.001C96.017 49.797 94.209 48 92 48H82c0-18.778-15.222-34-34-34V4z" fill="url(#D)"/></mask><g mask="url(#A)"><path fill-rule="evenodd" d="M48 0C21.49 0 0 21.49 0 48s21.49 48 48 48 48-21.49 48-48H48V0z" fill="url(#E)"/><path d="M48 78c0 2.209 1.799 4.025 3.993 3.768C68.889 79.791 82 65.427 82 48c0-18.778-15.222-34-34-34-17.427 0-31.791 13.111-33.768 30.007C13.975 46.201 15.791 48 18 48h30v30z" fill="url(#F)"/><g filter="url(#B)"><circle cx="48" cy="50" r="20" fill="#000" fill-opacity=".32"/></g><g filter="url(#C)"><circle cx="48" cy="48.38" r="20" fill="#000" fill-opacity=".24"/></g><circle cx="48" cy="48" r="20" fill="url(#G)"/></g></g><defs><filter id="B" x="20" y="22" width="56" height="56" filterUnits="userSpaceOnUse" color-interpolation-filters="sRGB"><feFlood flood-opacity="0"/><feBlend in="SourceGraphic"/><feGaussianBlur stdDeviation="4"/></filter><filter id="C" x="27.24" y="27.62" width="41.52" height="41.52" filterUnits="userSpaceOnUse" color-interpolation-filters="sRGB"><feFlood flood-opacity="0"/><feBlend in="SourceGraphic"/><feGaussianBlur stdDeviation=".38"/></filter><linearGradient id="D" x1="1.5" y1=".623" x2="20.381" y2="109.943" href="#I"><stop stop-color="#c3f488"/><stop offset="1" stop-color="#8fdc50"/></linearGradient><linearGradient id="E" x1="-9" y1="3.775" x2="6.767" y2="110.006" href="#I"><stop stop-color="#158915"/><stop offset="1" stop-color="#065f18"/></linearGradient><linearGradient id="F" x1="14" y1="14" x2="82.1" y2="83.027" href="#I"><stop stop-color="#7bca52"/><stop offset="1" stop-color="#4fb918"/></linearGradient><linearGradient id="G" x1="28.625" y1="28.26" x2="36.492" y2="73.809" href="#I"><stop stop-color="#c3f488"/><stop offset="1" stop-color="#8fdc50"/></linearGradient><clipPath id="H"><path fill="#fff" d="M0 0h96v96H0z"/></clipPath><linearGradient id="I" gradientUnits="userSpaceOnUse"/></defs></svg>