<svg xmlns="http://www.w3.org/2000/svg" width="96" height="96" fill="none" xmlns:v="https://vecta.io/nano"><style><![CDATA[.B{color-interpolation-filters:sRGB}.C{flood-opacity:0}.D{fill-rule:evenodd}]]></style><g clip-path="url(#J)"><mask id="A" mask-type="alpha" maskUnits="userSpaceOnUse" x="0" y="0" width="96" height="96"><path d="M95.68 53.57c.211-1.827.32-3.686.32-5.569C96 21.49 74.51 0 48 0a48.51 48.51 0 0 0-5.569.32A4 4 0 0 0 40 4v8.047C17.733 13.091 0 31.475 0 54c0 23.196 18.804 42 42 42 22.525 0 40.909-17.733 41.953-40H92a4 4 0 0 0 3.68-2.431z" fill="url(#G)"/></mask><g mask="url(#A)"><circle cx="42" cy="54" r="42" fill="url(#H)"/><g filter="url(#C)"><path d="M95.68 55.57c.211-1.827.32-3.686.32-5.569C96 23.49 74.51 2 48 2a48.51 48.51 0 0 0-5.569.32A4 4 0 0 0 40 6v52h52a4 4 0 0 0 3.68-2.431z" fill="#000" fill-opacity=".32"/></g><g filter="url(#D)"><path d="M95.68 53.95c.211-1.827.32-3.686.32-5.569 0-26.51-21.49-48-48-48a48.51 48.51 0 0 0-5.569.32A4 4 0 0 0 40 4.38v52h52a4 4 0 0 0 3.68-2.431z" fill="#000" fill-opacity=".24"/></g><path d="M95.68 53.57c.211-1.827.32-3.686.32-5.569C96 21.49 74.51 0 48 0a48.51 48.51 0 0 0-5.569.32A4 4 0 0 0 40 4v52h52a4 4 0 0 0 3.68-2.431z" fill="url(#I)" class="D"/><mask id="B" mask-type="alpha" maskUnits="userSpaceOnUse" x="40" y="0" width="56" height="56"><path d="M95.68 53.57c.211-1.827.32-3.686.32-5.569C96 21.49 74.51 0 48 0a48.51 48.51 0 0 0-5.569.32A4 4 0 0 0 40 4v52h52a4 4 0 0 0 3.68-2.431z" fill="url(#I)" class="D"/></mask><g mask="url(#B)"><g filter="url(#E)"><path d="M40 32h22a4 4 0 0 1 4 4v22H40V32z" fill="#000" fill-opacity=".32"/></g><g filter="url(#F)"><path d="M40 30.38h22a4 4 0 0 1 4 4v22H40v-26z" fill="#000" fill-opacity=".24"/></g><path d="M40 30h22a4 4 0 0 1 4 4v22H40V30z" fill="url(#G)"/></g></g></g><defs><filter id="C" x="32" y="-6" width="72" height="72" filterUnits="userSpaceOnUse" class="B"><feFlood class="C"/><feBlend in="SourceGraphic"/><feGaussianBlur stdDeviation="4"/></filter><filter id="D" x="39.24" y="-.38" width="57.52" height="57.52" filterUnits="userSpaceOnUse" class="B"><feFlood class="C"/><feBlend in="SourceGraphic"/><feGaussianBlur stdDeviation=".38"/></filter><filter id="E" x="32" y="24" width="42" height="42" filterUnits="userSpaceOnUse" class="B"><feFlood class="C"/><feBlend in="SourceGraphic"/><feGaussianBlur stdDeviation="4"/></filter><filter id="F" x="39.24" y="29.62" width="27.52" height="27.52" filterUnits="userSpaceOnUse" class="B"><feFlood class="C"/><feBlend in="SourceGraphic"/><feGaussianBlur stdDeviation=".38"/></filter><linearGradient id="G" x1="41.9" y1="30.211" x2="52.919" y2="58.03" gradientUnits="userSpaceOnUse"><stop stop-color="#a7f2ff"/><stop offset="1" stop-color="#7cecff"/></linearGradient><linearGradient id="H" x1="30.835" y1="40.353" x2="58.901" y2="92.758" gradientUnits="userSpaceOnUse"><stop stop-color="#0078d4"/><stop offset="1" stop-color="#2064ae"/></linearGradient><linearGradient id="I" x1="56" y1="9.5" x2="109.184" y2="57.733" gradientUnits="userSpaceOnUse"><stop stop-color="#40c4f5"/><stop offset="1" stop-color="#0095e6"/></linearGradient><clipPath id="J"><path fill="#fff" d="M0 0h96v96H0z"/></clipPath></defs></svg>