<svg xmlns="http://www.w3.org/2000/svg" width="96" height="96" fill="none" xmlns:v="https://vecta.io/nano"><g clip-path="url(#G)"><mask id="A" mask-type="alpha" maskUnits="userSpaceOnUse" x="0" y="0" width="96" height="96"><path d="M12 4a4 4 0 0 1 4-4h64a4 4 0 0 1 4 4v31.635c3.655 2.184 7.151 4.72 10.474 7.589 1.484 1.281 1.722 3.47.627 5.096L64.338 94.013A4.5 4.5 0 0 1 60.605 96H35.129a4 4 0 0 1-3.318-1.766L.905 48.321c-1.095-1.626-.857-3.817.637-5.086A70.43 70.43 0 0 1 12 35.892V4z" fill="url(#E)"/></mask><g mask="url(#A)"><path d="M84 4a4 4 0 0 0-4-4h-8v46a4 4 0 0 0 4 4h4a4 4 0 0 0 4-4V4z" fill="#0fb1f1"/><path d="M12 4a4 4 0 0 1 4-4h8v46a4 4 0 0 1-4 4h-4a4 4 0 0 1-4-4V4z" fill="#27518a"/><path transform="matrix(-1 0 0 1 72 0)" fill="#0095e6" d="M0 0h12v40H0z"/><path transform="matrix(-1 0 0 1 44 0)" fill="#2064ae" d="M0 0h10v40H0z"/><path transform="matrix(-1 0 0 1 60 0)" fill="#0078d4" d="M0 0h16v40H0z"/><path transform="matrix(-1 0 0 1 34 0)" fill="#0078d4" d="M0 0h10v40H0z"/><g filter="url(#C)"><path d="M.905 46.321c-1.095-1.626-.857-3.817.637-5.086C14.621 30.13 31.835 23.998 49 24c17.16.002 32.617 6.124 45.474 17.224 1.484 1.281 1.722 3.47.627 5.096L64.338 92.013A4.5 4.5 0 0 1 60.605 94H35.129a4 4 0 0 1-3.318-1.766L.905 46.321z" fill="#000" fill-opacity=".32"/></g><g filter="url(#D)"><path d="M.905 47.941c-1.095-1.626-.857-3.817.637-5.086C14.621 31.75 31.835 25.618 49 25.62c17.16.002 32.617 6.124 45.474 17.224 1.484 1.281 1.722 3.47.627 5.096L64.338 93.633a4.5 4.5 0 0 1-3.733 1.987H35.129a4 4 0 0 1-3.318-1.766L.905 47.941z" fill="#000" fill-opacity=".24"/></g><path d="M.905 48.321c-1.095-1.626-.857-3.817.637-5.086C14.621 32.13 31.835 25.998 49 26c17.16.002 32.617 6.124 45.474 17.224 1.484 1.281 1.722 3.47.627 5.096L64.338 94.013A4.5 4.5 0 0 1 60.605 96H35.129a4 4 0 0 1-3.318-1.766L.905 48.321z" fill="url(#E)"/><mask id="B" mask-type="alpha" maskUnits="userSpaceOnUse" x="0" y="26" width="96" height="70"><path d="M.905 48.321c-1.095-1.626-.857-3.817.637-5.086C14.621 32.13 31.835 25.998 49 26c17.16.002 32.617 6.124 45.474 17.224 1.484 1.281 1.722 3.47.627 5.096L64.338 94.013A4.5 4.5 0 0 1 60.605 96H35.129a4 4 0 0 1-3.318-1.766L.905 48.321z" fill="url(#E)"/></mask><g mask="url(#B)"><path d="M16 6a4 4 0 0 0-4 4v42a4 4 0 0 0 4 4h4a4 4 0 0 0 4-4v-6h48v6a4 4 0 0 0 4 4h4a4 4 0 0 0 4-4V10a4 4 0 0 0-4-4H16z" fill="url(#F)"/></g></g></g><defs><filter id="C" x="-7.775" y="16" width="111.557" height="86" filterUnits="userSpaceOnUse" color-interpolation-filters="sRGB"><feFlood flood-opacity="0"/><feBlend in="SourceGraphic"/><feGaussianBlur stdDeviation="4"/></filter><filter id="D" x="-.535" y="24.86" width="97.077" height="71.52" filterUnits="userSpaceOnUse" color-interpolation-filters="sRGB"><feFlood flood-opacity="0"/><feBlend in="SourceGraphic"/><feGaussianBlur stdDeviation=".38"/></filter><linearGradient id="E" x1="-.774" y1="7" x2="40.765" y2="118.485" gradientUnits="userSpaceOnUse"><stop stop-color="#d3f9ff"/><stop offset="1" stop-color="#80e5fc"/></linearGradient><linearGradient id="F" x1="36.466" y1="19" x2="51.958" y2="56.008" gradientUnits="userSpaceOnUse"><stop stop-color="#7cecff"/><stop offset="1" stop-color="#00b1f2"/></linearGradient><clipPath id="G"><path fill="#fff" d="M0 0h96v96H0z"/></clipPath></defs></svg>