<svg xmlns="http://www.w3.org/2000/svg" width="96" height="84" fill="none" xmlns:v="https://vecta.io/nano"><g clip-path="url(#H)" transform="translate(0 -6)"><mask id="A" mask-type="alpha" maskUnits="userSpaceOnUse" x="0" y="5" width="96" height="85"><path d="M48 90l.492-.007L49 90h30l.99-.032C72.177 89.449 66 82.946 66 75.001 66 83.285 72.716 90 81 90s15-6.716 15-15V42c0-9.941-8.059-18-18-18H66c0-9.941-8.059-18-18-18l-.494.007L47 6H17A15.22 15.22 0 0 0 16 6.033c.611.04 1.212.117 1.8.228C16.893 6.09 15.957 6 15 6 6.716 6 0 12.716 0 21v33c0 9.941 8.059 18 18 18h12c0 9.941 8.059 18 18 18z" fill="url(#D)"/></mask><g mask="url(#A)"><path d="M30 72V21c0-8.284-6.716-15-15-15S0 12.716 0 21v33c0 9.941 8.059 18 18 18z" fill="url(#E)"/><path d="M81 90c8.284 0 15-6.716 15-15V42c0-9.941-8.059-18-18-18H66v51c0 8.284 6.716 15 15 15z" fill="url(#F)"/><g filter="url(#B)"><path d="M30 74V23c0-7.948-6.182-14.453-14-14.967A15.22 15.22 0 0 1 17 8h30l.507.007L48 8c9.941 0 18 8.059 18 18v51.001c0 7.945 6.177 14.448 13.991 14.967A15.19 15.19 0 0 1 79 92H49a19.4 19.4 0 0 1-.507-.007L48 92c-9.941 0-18-8.059-18-18z" fill="#000" fill-opacity=".32"/></g><g filter="url(#C)"><path d="M30 72.38v-51c0-7.948-6.182-14.453-14-14.967.331-.022.664-.033 1-.033h30l.507.007L48 6.38c9.941 0 18 8.059 18 18v51.001c0 7.945 6.177 14.448 13.991 14.967a15.19 15.19 0 0 1-.991.032H49a19.4 19.4 0 0 1-.507-.007L48 90.38c-9.941 0-18-8.059-18-18z" fill="#000" fill-opacity=".24"/></g><path fill-rule="evenodd" d="M30 72v-1-15-16-19c0-7.948-6.182-14.453-14-14.967A15.22 15.22 0 0 1 17 6h30l.507.007L48 6c9.941 0 18 8.059 18 18v.001h0v51c0 7.945 6.177 14.448 13.991 14.967A15.19 15.19 0 0 1 79 90H49a19.4 19.4 0 0 1-.507-.007L48 90c-9.941 0-18-8.059-18-18z" fill="url(#G)"/></g></g><defs><filter id="B" x="8" y="0" width="79.991" height="100" filterUnits="userSpaceOnUse" color-interpolation-filters="sRGB"><feFlood flood-opacity="0"/><feBlend in="SourceGraphic"/><feGaussianBlur stdDeviation="4"/></filter><filter id="C" x="15.24" y="5.62" width="65.511" height="85.52" filterUnits="userSpaceOnUse" color-interpolation-filters="sRGB"><feFlood flood-opacity="0"/><feBlend in="SourceGraphic"/><feGaussianBlur stdDeviation=".38"/></filter><linearGradient id="D" x1="22.207" y1="-3.044" x2="68.469" y2="93.54" href="#I"><stop stop-color="#40c4f5"/><stop offset="1" stop-color="#0095e6"/></linearGradient><linearGradient id="E" x1="30" y1="72" x2="-20.209" y2="47.621" href="#I"><stop stop-color="#27518a"/><stop offset="1" stop-color="#2064ae"/></linearGradient><linearGradient id="F" x1="95.757" y1="85.178" x2="59.788" y2="78.702" href="#I"><stop stop-color="#7ce6ff"/><stop offset="1" stop-color="#a7f2ff"/></linearGradient><linearGradient id="G" x1="22.208" y1="-3.044" x2="68.469" y2="93.54" href="#I"><stop stop-color="#40c4f5"/><stop offset="1" stop-color="#0095e6"/></linearGradient><clipPath id="H"><path fill="#fff" d="M0 0h96v96H0z"/></clipPath><linearGradient id="I" gradientUnits="userSpaceOnUse"/></defs></svg>