<svg xmlns="http://www.w3.org/2000/svg" width="88.04" height="88.04" fill="none" xmlns:v="https://vecta.io/nano"><defs><filter id="A" x="-.015" y="-.01" width="1.029" height="1.019"><feFlood flood-opacity="0"/><feBlend in="SourceGraphic"/><feGaussianBlur stdDeviation=".38"/></filter><filter id="B" x="-.155" y="-.1" width="1.31" height="1.2"><feFlood flood-opacity="0"/><feBlend in="SourceGraphic"/><feGaussianBlur stdDeviation="4"/></filter><filter id="C" x="-.027" y="-.01" width="1.054" height="1.019"><feFlood flood-opacity="0"/><feBlend in="SourceGraphic"/><feGaussianBlur stdDeviation=".38"/></filter><filter id="D" x="-.282" y="-.1" width="1.565" height="1.2"><feFlood flood-opacity="0"/><feBlend in="SourceGraphic"/><feGaussianBlur stdDeviation="4"/></filter><linearGradient id="E" x1="82.5" y1="96" x2="57.013" y2="39.513" gradientUnits="userSpaceOnUse"><stop stop-color="#0b7418"/><stop offset="1" stop-color="#158915"/></linearGradient><linearGradient id="F" x1="58" y1="54.5" x2="43.5" y2="0" gradientUnits="userSpaceOnUse"><stop stop-color="#4fb918"/><stop offset="1" stop-color="#8fdc50"/></linearGradient><linearGradient id="G" x1="11.5" y1="13.5" x2="31.5" y2="85" gradientUnits="userSpaceOnUse"><stop stop-color="#c3f488"/><stop offset="1" stop-color="#6ad116"/></linearGradient></defs><mask id="H" mask-type="alpha" maskUnits="userSpaceOnUse" x="1" y="6" width="89" height="89"><path d="M6 38C6 20.327 20.327 6 38 6h48a4 4 0 0 1 4 4v48c0 17.673-14.327 32-32 32H27.045a48 48 0 0 0-13.793 2.024l-6.137 1.841c-3.051.915-5.896-1.929-4.981-4.981l1.841-6.137A48 48 0 0 0 6 68.955z" fill="#fff"/></mask><g mask="url(#H)" transform="translate(-1.96 -6)"><path d="M0 0h96v96H0z" fill="url(#E)"/><path d="M0 0h96L0 96z" fill="#34a117"/><g filter="url(#A)"><path d="M30 .38c-16.569 0-30 13.431-30 30v66l52.627-52.627A32 32 0 0 0 62 21.125V.38z" fill="#000" fill-opacity=".24"/></g><g filter="url(#B)"><path d="M30 2C13.431 2 0 15.432 0 32v66l52.627-52.627A32 32 0 0 0 62 22.745V2z" fill="#000" fill-opacity=".32"/></g><path d="M30 0C13.431 0 0 13.432 0 30v66l52.627-52.627A32 32 0 0 0 62 20.745V0z" fill="url(#F)"/><mask id="I" mask-type="alpha" maskUnits="userSpaceOnUse" x="0" y="0" width="62" height="96"><path d="M30 0C13.431 0 0 13.432 0 30v66l52.627-52.627A32 32 0 0 0 62 20.745V0z" fill="#fff"/></mask><g mask="url(#I)"><g filter="url(#C)"><path d="M24.627 71.753A32 32 0 0 0 34 49.125V.38h-4c-16.568 0-30 13.431-30 30v66z" fill="#000" fill-opacity=".24"/></g><g filter="url(#D)"><path d="M24.627 73.373A32 32 0 0 0 34 50.745V2h-4C13.432 2 0 15.432 0 32v66z" fill="#000" fill-opacity=".32"/></g><path d="M24.627 71.373A32 32 0 0 0 34 48.745V0h-4C13.432 0 0 13.432 0 30v66z" fill="url(#G)"/></g></g></svg>