<svg xmlns="http://www.w3.org/2000/svg" width="84" height="84" fill="none" xmlns:v="https://vecta.io/nano"><g clip-path="url(#F)" transform="translate(-6 -6)"><g fill-rule="evenodd"><path d="M90 10a4 4 0 0 0-4-4H70a4 4 0 0 0-4 4v38h0c0 9.941-8.059 18-18 18-9.907 0-17.944-8.003-18-17.897v37.844C35.573 88.591 41.714 90 48 90a42 42 0 0 0 41.988-41H90v-1zM6 48.143V48h0v.143z" fill="url(#C)"/><path d="M66 10.053V48H48 30v38.356C30 88.368 28.369 90 26.356 90H10a4 4 0 0 1-4-4V48h0v-.143V47h.012A42 42 0 0 1 48 6c6.286 0 12.427 1.409 18 4.053z" fill="url(#D)"/></g><g opacity=".32" filter="url(#A)"><circle cx="48" cy="50" r="18" fill="#000"/></g><g filter="url(#B)"><circle cx="48" cy="48.38" r="18" fill="#000" fill-opacity=".24"/></g><circle cx="48" cy="48" r="18" fill="url(#E)"/></g><defs><filter id="A" x="22" y="24" width="52" height="52" filterUnits="userSpaceOnUse" color-interpolation-filters="sRGB"><feFlood flood-opacity="0"/><feBlend in="SourceGraphic"/><feGaussianBlur stdDeviation="4"/></filter><filter id="B" x="29.24" y="29.62" width="37.52" height="37.52" filterUnits="userSpaceOnUse" color-interpolation-filters="sRGB"><feFlood flood-opacity="0"/><feBlend in="SourceGraphic"/><feGaussianBlur stdDeviation=".38"/></filter><linearGradient id="C" x1="36.835" y1="34.353" x2="64.901" y2="86.758" gradientUnits="userSpaceOnUse"><stop stop-color="#0078d4"/><stop offset="1" stop-color="#2064ae"/></linearGradient><linearGradient id="D" x1="16.236" y1="13.467" x2="59.268" y2="78.853" gradientUnits="userSpaceOnUse"><stop stop-color="#7cecff"/><stop offset="1" stop-color="#50e6ff"/></linearGradient><linearGradient id="E" x1="39.563" y1="29.881" x2="59.824" y2="63.396" gradientUnits="userSpaceOnUse"><stop stop-color="#40c4f5"/><stop offset="1" stop-color="#0095e6"/></linearGradient><clipPath id="F"><path fill="#fff" d="M0 0h96v96H0z"/></clipPath></defs></svg>