<svg xmlns="http://www.w3.org/2000/svg" width="78" height="96" fill="none" xmlns:v="https://vecta.io/nano"><g mask="url(#F)" transform="translate(-10)"><path fill-rule="evenodd" d="M14 0a4 4 0 0 0-4 4v22a4 4 0 0 0 4 4h26V0zm0 66a4 4 0 0 0-4 4v22a4 4 0 0 0 4 4h26V66z" fill="url(#C)"/><path d="M40 96c26.51 0 48-21.49 48-48S66.51 0 40 0z" fill="url(#D)"/><g opacity=".16" filter="url(#A)"><circle cx="40" cy="50" r="18" fill="#000"/></g><g opacity=".24" filter="url(#B)"><circle cx="40" cy="48.38" r="18" fill="#000"/></g><circle cx="40" cy="48" r="18" fill="url(#E)"/></g><defs><filter id="A" x="14" y="24" width="52" height="52" filterUnits="userSpaceOnUse" color-interpolation-filters="sRGB"><feFlood flood-opacity="0"/><feBlend in="SourceGraphic"/><feGaussianBlur stdDeviation="4"/></filter><filter id="B" x="21.24" y="29.62" width="37.52" height="37.52" filterUnits="userSpaceOnUse" color-interpolation-filters="sRGB"><feFlood flood-opacity="0"/><feBlend in="SourceGraphic"/><feGaussianBlur stdDeviation=".38"/></filter><linearGradient id="C" x1="25" y1="0" x2="56.5" y2="96.5" gradientUnits="userSpaceOnUse"><stop stop-color="#ea8200"/><stop offset="1" stop-color="#c46a08"/></linearGradient><linearGradient id="D" x1="40.5" y1=".5" x2="88.5" y2="96.5" gradientUnits="userSpaceOnUse"><stop stop-color="#fdc400"/><stop offset="1" stop-color="#f29800"/></linearGradient><linearGradient id="E" x1="40" y1="30" x2="58.5" y2="66.5" gradientUnits="userSpaceOnUse"><stop stop-color="#ffe440"/><stop offset="1" stop-color="#ffdb00"/></linearGradient><mask id="F" mask-type="alpha" maskUnits="userSpaceOnUse" x="10" y="0" width="78" height="96"><path d="M40 0H14a4 4 0 0 0-4 4v22a4 4 0 0 0 4 4h26c-9.941 0-18 8.059-18 18s8.059 18 18 18H14a4 4 0 0 0-4 4v22a4 4 0 0 0 4 4h26c26.51 0 48-21.49 48-48S66.51 0 40 0z" fill="#c4c4c4"/></mask></defs></svg>