<svg xmlns="http://www.w3.org/2000/svg" width="84" height="93.95" fill="none" xmlns:v="https://vecta.io/nano"><g clip-path="url(#G)" transform="translate(-6 -.607)"><mask id="A" mask-type="alpha" maskUnits="userSpaceOnUse" x="6" y="0" width="84" height="95"><path d="M46.016 1.134a4 4 0 0 1 3.969 0l38 21.714A4 4 0 0 1 90 26.321v27.357a4 4 0 0 1-2.015 3.473L50.016 78.848A4 4 0 0 0 48 82.321v10.233c0 1.536-1.659 2.498-2.992 1.737L8.015 73.152A4 4 0 0 1 6 69.679V26.321a4 4 0 0 1 2.015-3.473z" fill="#2064ae"/></mask><g mask="url(#A)"><path d="M48 0l42 24v32L50.016 78.848A4 4 0 0 0 48 82.321v10.233c0 1.536-1.659 2.498-2.992 1.737L6 72V24z" fill="url(#D)"/><g filter="url(#B)"><path d="M48 .4l42 24v13.679a4 4 0 0 1-2.015 3.473L50.016 63.248A4 4 0 0 0 48 66.721v10.233c0 1.536-1.659 2.498-2.992 1.736L8.015 57.552A4 4 0 0 1 6 54.079V24.4z" fill="#000" fill-opacity=".24"/></g><g filter="url(#C)"><path d="M48 2l42 24v13.679a4 4 0 0 1-2.015 3.473L50.016 64.848A4 4 0 0 0 48 68.321v10.233c0 1.536-1.659 2.498-2.992 1.737L8.015 59.152A4 4 0 0 1 6 55.679V26z" fill="#000" fill-opacity=".32"/></g><path d="M48 0l42 24v13.679a4 4 0 0 1-2.015 3.473L50.016 62.848A4 4 0 0 0 48 66.321v10.233c0 1.536-1.659 2.498-2.992 1.737L8.015 57.152A4 4 0 0 1 6 53.679V24z" fill="url(#E)"/><path d="M48 0l40.481 23.132a1 1 0 0 1 0 1.736l-38.465 21.98A4 4 0 0 0 48 50.321v10.233c0 1.536-1.659 2.498-2.992 1.736L8.015 41.152A4 4 0 0 1 6 37.679V24z" fill="url(#F)"/></g></g><defs><filter id="B" x="5.2" y="-.4" width="85.6" height="80.157" filterUnits="userSpaceOnUse" color-interpolation-filters="sRGB"><feFlood flood-opacity="0"/><feBlend in="SourceGraphic"/><feGaussianBlur stdDeviation=".4"/></filter><filter id="C" x="-2" y="-6" width="100" height="94.557" filterUnits="userSpaceOnUse" color-interpolation-filters="sRGB"><feFlood flood-opacity="0"/><feBlend in="SourceGraphic"/><feGaussianBlur stdDeviation="4"/></filter><linearGradient id="D" x1="52.873" y1="49.938" x2="72.17" y2="96" gradientUnits="userSpaceOnUse"><stop stop-color="#0078d4"/><stop offset="1" stop-color="#2064ae"/></linearGradient><linearGradient id="E" x1="38.953" y1="26.528" x2="68.058" y2="95.177" gradientUnits="userSpaceOnUse"><stop stop-color="#00b1f2"/><stop offset=".993" stop-color="#0095e6"/></linearGradient><linearGradient id="F" x1="28.513" y1="5.965" x2="56.985" y2="64" gradientUnits="userSpaceOnUse"><stop stop-color="#7cecff"/><stop offset="1" stop-color="#00ccf9"/></linearGradient><clipPath id="G"><path d="M0 0h96v96H0z" fill="#fff"/></clipPath></defs></svg>