<?xml version="1.0" encoding="utf-8"?>
<svg version="1.1" id="Layer_1" xmlns="http://www.w3.org/2000/svg" xmlns:xlink="http://www.w3.org/1999/xlink" x="0px" y="0px"
	 viewBox="0 0 49.359 94.707" style="enable-background:new 0 0 49.359 94.707;" xml:space="preserve">
<style type="text/css">
	.st0{fill:none;stroke:#626366;stroke-width:2.835;stroke-linejoin:round;}
	.st1{fill:#898B8E;}
	.st2{fill:#BBBDBF;}
	.st3{fill:#B3B5B7;}
	.st4{fill:#FEFEFE;}
	.st5{fill:none;stroke:#626366;stroke-width:2.126;stroke-linejoin:round;}
	.st6{fill:none;stroke:#626366;stroke-width:2.126;stroke-linecap:round;stroke-linejoin:round;}
	.st7{fill:#B8BDC1;}
	.st8{fill:#939BA0;}
	.st9{fill:#E1E2E3;}
	.st10{fill:none;stroke:#E1E2E3;stroke-width:0.511;stroke-linecap:round;stroke-linejoin:round;}
	.st11{fill:none;stroke:#E1E2E3;stroke-width:0.85;stroke-linecap:round;stroke-linejoin:round;}
</style>
<title>icon-IC100-1000</title>
<desc>Created with Sketch.</desc>
<g id="Page-1">
	<g id="Desktop" transform="translate(-1612.000000, -865.000000)">
		<g id="icon-IC100-1000" transform="translate(1613.000000, 865.000000)">
			<g id="Group-7" transform="translate(0.000000, 0.706700)">
				<polygon id="Stroke-1" class="st0" points="10.448,26.085 46.895,6.737 46.942,73.236 10.495,92.583 				"/>
				<polygon id="Stroke-3" class="st0" points="0.418,20.058 36.864,0.711 46.896,6.738 10.448,26.085 				"/>
				<polygon id="Stroke-5" class="st0" points="10.448,26.085 10.495,92.583 0.465,86.557 0.418,20.058 				"/>
			</g>
			<polygon id="Fill-8" class="st1" points="10.448,26.792 46.895,7.444 46.942,73.943 10.495,93.29 			"/>
			<polygon id="Fill-9" class="st2" points="0.418,20.764 36.864,1.418 46.896,7.444 10.448,26.792 			"/>
			<polygon id="Fill-10" class="st3" points="10.448,26.792 10.495,93.29 0.465,87.264 0.418,20.765 			"/>
			<polygon id="Fill-11" class="st4" points="7.509,80.593 3.403,78.101 3.403,72.259 7.509,74.751 			"/>
			<polygon id="Fill-12" class="st4" points="7.51,40.934 3.403,38.443 3.403,32.6 7.51,35.092 			"/>
			<polygon id="Fill-13" class="st4" points="7.51,48.35 3.403,45.859 3.403,40.014 7.51,42.508 			"/>
			<polygon id="Fill-14" class="st4" points="7.51,62.741 3.403,60.248 3.403,54.406 7.51,56.898 			"/>
			<g id="Group-21" transform="translate(25.000000, 3.706700)">
				<g id="Group-17">
					<g id="Clip-16">
					</g>
					<path id="Stroke-15" class="st5" d="M7.045,4.389L0.621,0.583c0,0,0.005-0.002,0.008-0.004l6.425,3.805
						C7.051,4.386,7.049,4.388,7.045,4.389"/>
				</g>
				<g id="Group-20">
					<g id="Clip-19">
					</g>
					<path id="Stroke-18" class="st5" d="M7.054,4.384L0.629,0.579c0.127-0.064,0.244-0.065,0.33-0.013L7.384,4.37
						C7.297,4.319,7.18,4.32,7.054,4.384"/>
				</g>
			</g>
			<path id="Stroke-22" class="st5" d="M25.959,4.272l6.425,3.805c-0.089-0.053-0.208-0.051-0.339,0.018L25.622,4.29
				C25.75,4.221,25.871,4.219,25.959,4.272z"/>
			<g id="Group-26" transform="translate(18.000000, 13.706700)">
				<g id="Clip-25">
				</g>
				<path id="Stroke-24" class="st5" d="M6.094,3.581L0.532,0.287C0.46,0.244,0.412,0.159,0.406,0.042l5.562,3.295
					C5.975,3.454,6.023,3.538,6.094,3.581"/>
			</g>
			<path id="Stroke-27" class="st5" d="M24.094,17.288l-5.562-3.294c-0.072-0.043-0.12-0.128-0.126-0.245l5.562,3.295
				C23.975,17.161,24.023,17.245,24.094,17.288z"/>
			<polygon id="Stroke-29" class="st5" points="24.018,17.086 17.592,13.281 17.359,9.181 23.784,12.985 			"/>
			<polygon id="Stroke-30" class="st5" points="24.207,12.241 17.781,8.436 25.589,4.284 32.014,8.09 			"/>
			<g id="Group-37" transform="translate(17.000000, 7.706700)">
				<g id="Group-33">
					<g id="Clip-32">
					</g>
					<path id="Stroke-31" class="st5" d="M6.784,5.278L0.359,1.473C0.358,1.46,0.358,1.446,0.358,1.432l6.425,3.805
						C6.782,5.251,6.783,5.264,6.784,5.278"/>
				</g>
				<g id="Group-36">
					<g id="Clip-35">
					</g>
					<path id="Stroke-34" class="st5" d="M6.783,5.237L0.358,1.432c0.004-0.269,0.188-0.578,0.424-0.703l6.425,3.805
						C6.97,4.659,6.786,4.967,6.783,5.237"/>
				</g>
			</g>
			<g id="Group-44" transform="translate(17.000000, 7.706700)">
				<path id="Stroke-38" class="st5" d="M6.784,5.278L0.359,1.473C0.344,1.194,0.534,0.861,0.782,0.729l6.425,3.805
					C6.958,4.666,6.768,4.999,6.784,5.278z"/>
				<path id="Stroke-40" class="st5" d="M15.014,0.383c0.251-0.134,0.467-0.017,0.483,0.262l0.234,4.101
					c0.015,0.279-0.174,0.613-0.426,0.746L7.498,9.644C7.25,9.775,7.034,9.657,7.018,9.379l-0.234-4.1
					c-0.016-0.28,0.173-0.613,0.422-0.745L15.014,0.383z"/>
				<path id="Stroke-42" class="st6" d="M6.971,4.69L7.218,9.4"/>
			</g>
			<g id="Group-47" transform="translate(17.000000, 12.706700)">
				<g id="Clip-46">
				</g>
				<path id="Stroke-45" class="st5" d="M6.31,4.13L0.748,0.836c-0.072-0.043-0.12-0.128-0.126-0.245l5.562,3.295
					C6.19,4.003,6.239,4.087,6.31,4.13"/>
			</g>
			<path id="Stroke-48" class="st5" d="M23.31,16.837l-5.562-3.294c-0.072-0.043-0.12-0.128-0.126-0.245l5.562,3.295
				C23.19,16.71,23.239,16.794,23.31,16.837z"/>
			<g id="Group-56" transform="translate(25.000000, 3.706700)">
				<g id="Group-52">
					<g id="Clip-51">
					</g>
					<path id="Fill-50" class="st7" d="M7.045,4.389L0.621,0.583c0,0,0.005-0.002,0.008-0.004l6.425,3.805
						C7.051,4.386,7.049,4.388,7.045,4.389"/>
				</g>
				<g id="Group-55">
					<g id="Clip-54">
					</g>
					<path id="Fill-53" class="st8" d="M7.054,4.384L0.629,0.579c0.127-0.064,0.244-0.065,0.33-0.013L7.384,4.37
						C7.297,4.319,7.18,4.32,7.054,4.384"/>
				</g>
			</g>
			<g id="Group-59" transform="translate(18.000000, 13.706700)">
				<g id="Clip-58">
				</g>
				<path id="Fill-57" class="st8" d="M6.094,3.581L0.532,0.287C0.46,0.244,0.412,0.159,0.406,0.042l5.562,3.295
					C5.975,3.454,6.023,3.538,6.094,3.581"/>
			</g>
			<g id="Group-64" transform="translate(17.000000, 3.706700)">
				<polygon id="Fill-60" class="st3" points="7.018,13.379 0.592,9.574 0.359,5.474 6.784,9.278 				"/>
				<polygon id="Fill-62" class="st2" points="7.207,8.534 0.782,4.729 8.589,0.577 15.015,4.383 				"/>
			</g>
			<g id="Group-71" transform="translate(17.000000, 7.706700)">
				<g id="Group-67">
					<g id="Clip-66">
					</g>
					<path id="Fill-65" class="st8" d="M6.784,5.278L0.359,1.473C0.358,1.46,0.358,1.446,0.358,1.432l6.425,3.805
						C6.782,5.251,6.783,5.264,6.784,5.278"/>
				</g>
				<g id="Group-70">
					<g id="Clip-69">
					</g>
					<path id="Fill-68" class="st9" d="M6.783,5.237L0.358,1.432c0.004-0.269,0.188-0.578,0.424-0.703l6.425,3.805
						C6.97,4.659,6.786,4.967,6.783,5.237"/>
				</g>
			</g>
			<g id="Group-76" transform="translate(23.000000, 7.706700)">
				<path id="Fill-72" class="st1" d="M9.014,0.383c0.251-0.134,0.467-0.017,0.483,0.262l0.234,4.101
					c0.015,0.279-0.174,0.613-0.426,0.746L1.498,9.644C1.25,9.775,1.034,9.657,1.018,9.379l-0.234-4.1
					c-0.016-0.28,0.173-0.613,0.422-0.745L9.014,0.383z"/>
				<path id="Stroke-74" class="st10" d="M0.971,4.69L1.218,9.4"/>
			</g>
			<g id="Group-79" transform="translate(17.000000, 12.706700)">
				<g id="Clip-78">
				</g>
				<path id="Fill-77" class="st8" d="M6.31,4.13L0.748,0.836c-0.072-0.043-0.12-0.128-0.126-0.245l5.562,3.295
					C6.19,4.003,6.239,4.087,6.31,4.13"/>
			</g>
			<polyline id="Stroke-80" class="st11" points="0.418,20.764 10.448,26.792 10.495,93.29 			"/>
		</g>
	</g>
</g>
</svg>
