<?xml version="1.0" encoding="utf-8"?>
<!-- Generator: Adobe Illustrator 21.1.0, SVG Export Plug-In . SVG Version: 6.00 Build 0)  -->
<svg version="1.1" id="Layer_1" xmlns="http://www.w3.org/2000/svg" xmlns:xlink="http://www.w3.org/1999/xlink" x="0px" y="0px"
	 viewBox="0 0 60.2 60.2" style="enable-background:new 0 0 60.2 60.2;" xml:space="preserve">
<style type="text/css">
	.st0{fill:#F37738;}
	.st1{fill:#FFFFFF;}
</style>
<title>INDIVIDUAL ICONS</title>
<g id="Layer_2">
	<circle class="st0" cx="30.1" cy="30.1" r="30.1"/>
</g>
<path class="st1" d="M19.9,37.1c3.5,0,6.3-2.8,6.3-6.3c0-3.5-2.8-6.3-6.3-6.3c-3.5,0-6.3,2.8-6.3,6.3S16.4,37.1,19.9,37.1
	C19.9,37.1,19.9,37.1,19.9,37.1z M19.9,25.7c2.8,0,5.1,2.2,5.1,5s-2.2,5.1-5,5.1c-2.8,0-5.1-2.2-5.1-5c0,0,0,0,0,0
	C14.9,28,17.2,25.7,19.9,25.7z"/>
<path class="st1" d="M33.9,30.8c0,3.5,2.8,6.3,6.3,6.3s6.3-2.8,6.3-6.3s-2.8-6.3-6.3-6.3S33.9,27.3,33.9,30.8
	C33.9,30.8,33.9,30.8,33.9,30.8z M40.2,25.7c2.8,0,5.1,2.3,5.1,5.1s-2.3,5.1-5.1,5.1c-2.8,0-5.1-2.3-5.1-5.1
	C35.2,28,37.4,25.7,40.2,25.7z"/>
<path class="st1" d="M36.4,16.8c0-3.5-2.9-6.3-6.4-6.3c-3.5,0-6.3,2.9-6.3,6.4c0,3.5,2.8,6.3,6.3,6.3C33.6,23.2,36.4,20.4,36.4,16.8
	C36.4,16.9,36.4,16.9,36.4,16.8z M30.1,21.9c-2.8,0-5.1-2.3-5.1-5.1s2.3-5.1,5.1-5.1c2.8,0,5.1,2.3,5.1,5.1
	C35.2,19.6,32.9,21.9,30.1,21.9L30.1,21.9z"/>
<path class="st1" d="M25,39.6H14.9c-1.4,0-2.5,1.1-2.6,2.5c0,0,0,0,0,0.1V46h15.2v-3.8C27.6,40.8,26.5,39.7,25,39.6
	C25.1,39.6,25.1,39.6,25,39.6z"/>
<path class="st1" d="M45.3,39.6H35.2c-1.4,0-2.5,1.1-2.5,2.5c0,0,0,0,0,0V46h15.2v-3.8C47.8,40.8,46.7,39.7,45.3,39.6
	C45.3,39.6,45.3,39.6,45.3,39.6z"/>
</svg>
