<?xml version="1.0" encoding="UTF-8" standalone="no"?>
<!-- Generator: Adobe Illustrator 21.1.0, SVG Export Plug-In . SVG Version: 6.00 Build 0)  -->

<svg
   xmlns:dc="http://purl.org/dc/elements/1.1/"
   xmlns:cc="http://creativecommons.org/ns#"
   xmlns:rdf="http://www.w3.org/1999/02/22-rdf-syntax-ns#"
   xmlns:svg="http://www.w3.org/2000/svg"
   xmlns="http://www.w3.org/2000/svg"
   xmlns:sodipodi="http://sodipodi.sourceforge.net/DTD/sodipodi-0.dtd"
   xmlns:inkscape="http://www.inkscape.org/namespaces/inkscape"
   version="1.1"
   id="Layer_1"
   x="0px"
   y="0px"
   viewBox="0 0 60.2 60.2"
   style="enable-background:new 0 0 60.2 60.2;"
   xml:space="preserve"
   sodipodi:docname="collaborative_development.svg"
   inkscape:version="0.92.3 (2405546, 2018-03-11)"><metadata
   id="metadata3438"><rdf:RDF><cc:Work
       rdf:about=""><dc:format>image/svg+xml</dc:format><dc:type
         rdf:resource="http://purl.org/dc/dcmitype/StillImage" /></cc:Work></rdf:RDF></metadata><defs
   id="defs3436" /><sodipodi:namedview
   pagecolor="#ffffff"
   bordercolor="#666666"
   borderopacity="1"
   objecttolerance="10"
   gridtolerance="10"
   guidetolerance="10"
   inkscape:pageopacity="0"
   inkscape:pageshadow="2"
   inkscape:window-width="1920"
   inkscape:window-height="1017"
   id="namedview3434"
   showgrid="false"
   inkscape:zoom="11.088186"
   inkscape:cx="13.854599"
   inkscape:cy="31.18792"
   inkscape:window-x="-8"
   inkscape:window-y="-8"
   inkscape:window-maximized="1"
   inkscape:current-layer="Layer_1" />
<style
   type="text/css"
   id="style3416">
	.st0{fill:#F37738;}
	.st1{fill:#FFFFFF;}
</style>
<title
   id="title3418">INDIVIDUAL ICONS</title>
<g
   id="Layer_2">
	<circle
   class="st0"
   cx="30.1"
   cy="30.1"
   r="30.1"
   id="circle3420" />
</g>




<path
   id="path3431"
   d="M 45.3,39.6 H 35.2 c -1.4,0 -2.5,1.1 -2.5,2.5 0,0 0,0 0,0 V 46 h 15.2 v -3.8 c -0.1,-1.4 -1.2,-2.5 -2.6,-2.6 0,0 0,0 0,0 z M 25,39.6 H 14.9 c -1.4,0 -2.5,1.1 -2.6,2.5 0,0 0,0 0,0.1 V 46 h 15.2 v -3.8 c 0.1,-1.4 -1,-2.5 -2.5,-2.6 0.1,0 0.1,0 0,0 z M 36.4,16.8 c 0,-3.5 -2.9,-6.3 -6.4,-6.3 -3.5,0 -6.3,2.9 -6.3,6.4 0,3.5 2.8,6.3 6.3,6.3 3.6,0 6.4,-2.8 6.4,-6.4 0,0.1 0,0.1 0,0 z m -6.3,5.1 c -2.8,0 -5.1,-2.3 -5.1,-5.1 0,-2.8 2.3,-5.1 5.1,-5.1 2.8,0 5.1,2.3 5.1,5.1 0,2.8 -2.3,5.1 -5.1,5.1 z m 3.8,8.9 c 0,3.5 2.8,6.3 6.3,6.3 3.5,0 6.3,-2.8 6.3,-6.3 0,-3.5 -2.8,-6.3 -6.3,-6.3 -3.5,0 -6.3,2.8 -6.3,6.3 0,0 0,0 0,0 z m 6.3,-5.1 c 2.8,0 5.1,2.3 5.1,5.1 0,2.8 -2.3,5.1 -5.1,5.1 -2.8,0 -5.1,-2.3 -5.1,-5.1 0.1,-2.8 2.3,-5.1 5.1,-5.1 z M 19.9,37.1 c 3.5,0 6.3,-2.8 6.3,-6.3 0,-3.5 -2.8,-6.3 -6.3,-6.3 -3.5,0 -6.3,2.8 -6.3,6.3 0,3.5 2.8,6.3 6.3,6.3 0,0 0,0 0,0 z m 0,-11.4 c 2.8,0 5.1,2.2 5.1,5 0,2.8 -2.2,5.1 -5,5.1 -2.8,0 -5.1,-2.2 -5.1,-5 0,0 0,0 0,0 0,-2.8 2.3,-5.1 5,-5.1 z"
   style="fill:#ffffff" />
</svg>