<?xml version="1.0" encoding="utf-8"?>
<!-- Generator: Adobe Illustrator 21.1.0, SVG Export Plug-In . SVG Version: 6.00 Build 0)  -->
<svg version="1.1" id="Layer_1" xmlns="http://www.w3.org/2000/svg" xmlns:xlink="http://www.w3.org/1999/xlink" x="0px" y="0px"
	 viewBox="0 0 59.5 59.4" style="enable-background:new 0 0 59.5 59.4;" xml:space="preserve">
<style type="text/css">
	.st0{fill:#F37738;}
	.st1{fill:#FFFFFF;}
</style>
<title>INDIVIDUAL ICONS</title>
<g id="Layer_2">
	<ellipse class="st0" cx="29.7" cy="29.7" rx="29.7" ry="29.7"/>
</g>
<g id="Docs">
	<g id="Imported-Layers">
		<path id="Fill-1" class="st1" d="M48.3,48.8H39c-0.3,0-0.5-0.2-0.5-0.5V29.7c0-0.3,0.2-0.5,0.5-0.5h9.3c0.3,0,0.5,0.2,0.5,0.5
			v18.6C48.9,48.6,48.6,48.8,48.3,48.8z M39.5,47.8h8.3V30.2h-8.3L39.5,47.8z"/>
		<path id="Fill-2" class="st1" d="M27.3,20.9c-0.3,0-0.5-0.2-0.5-0.5l0,0v-9.3c0-0.3,0.2-0.5,0.5-0.5c0.1,0,0.2,0,0.2,0.1l8.1,4.7
			c0.2,0.1,0.3,0.5,0.2,0.7c0,0.1-0.1,0.1-0.2,0.2l-8.1,4.6C27.4,20.9,27.3,20.9,27.3,20.9L27.3,20.9z M27.8,12v7.5l6.5-3.8L27.8,12
			z"/>
		<path id="Fill-3" class="st1" d="M15.8,35.4c-0.3,0-0.5-0.2-0.5-0.5V15.8c0-0.3,0.2-0.5,0.5-0.5l0,0h11.5c0.3,0.1,0.5,0.3,0.4,0.6
			c0,0.2-0.2,0.4-0.4,0.4h-11v18.6C16.3,35.1,16,35.4,15.8,35.4"/>
		<path id="Fill-4" class="st1" d="M15.8,48.8c-2.8,0-5.2-2.3-5.2-5.2c0-2.8,2.3-5.2,5.2-5.2s5.2,2.3,5.2,5.2l0,0
			C20.9,46.5,18.6,48.8,15.8,48.8z M15.8,39.5c-2.3,0-4.1,1.9-4.1,4.1c0,2.3,1.9,4.1,4.1,4.1c2.3,0,4.1-1.8,4.1-4.1
			C19.9,41.4,18.1,39.5,15.8,39.5z"/>
		<path id="Fill-5" class="st1" d="M34.9,44.2H20.4c-0.3,0.1-0.5-0.1-0.6-0.4c-0.1-0.3,0.1-0.5,0.4-0.6c0.1,0,0.1,0,0.2,0h14.4
			c0.3-0.1,0.5,0.1,0.6,0.4c0.1,0.3-0.1,0.5-0.4,0.6C35,44.2,34.9,44.2,34.9,44.2z M43.7,30.2c-0.3,0-0.5-0.2-0.5-0.5V16.3h-3.6
			c-0.3,0.1-0.5-0.1-0.6-0.4s0.1-0.5,0.4-0.6c0.1,0,0.1,0,0.2,0h4.2c0.3,0,0.5,0.2,0.5,0.5v14C44.2,30.1,44,30.3,43.7,30.2
			L43.7,30.2z"/>
	</g>
</g>
</svg>
