<?xml version="1.0" encoding="utf-8"?>
<!-- Generator: Adobe Illustrator 21.1.0, SVG Export Plug-In . SVG Version: 6.00 Build 0)  -->
<svg version="1.1" id="Layer_1" xmlns="http://www.w3.org/2000/svg" xmlns:xlink="http://www.w3.org/1999/xlink" x="0px" y="0px"
	 viewBox="0 0 65 65" style="enable-background:new 0 0 65 65;" xml:space="preserve">
<style type="text/css">
	.st0{fill:#F37738;}
	.st1{fill:#FFFFFF;}
</style>
<title>IBM Cloud Private Ref Arch</title>
<circle class="st0" cx="32.5" cy="32.5" r="32.5"/>
<path class="st1" d="M17.6,45.4c-2.8,0-5.1-2.3-5.1-5.1c0-2.8,2.3-5.1,5.1-5.1s5.1,2.3,5.1,5.1S20.4,45.4,17.6,45.4
	C17.6,45.4,17.6,45.4,17.6,45.4z M17.6,36.2c-2.3,0-4.1,1.8-4.1,4.1c0,2.3,1.8,4.1,4.1,4.1s4.1-1.8,4.1-4.1
	C21.7,38,19.9,36.2,17.6,36.2C17.6,36.2,17.6,36.2,17.6,36.2L17.6,36.2z"/>
<path class="st1" d="M32.2,45.4c-2.8,0-5.1-2.3-5.1-5.1s2.3-5.1,5.1-5.1s5.1,2.3,5.1,5.1S35,45.4,32.2,45.4L32.2,45.4z M32.2,36.2
	c-2.3,0-4.1,1.8-4.1,4.1s1.8,4.1,4.1,4.1c2.3,0,4.1-1.8,4.1-4.1C36.2,38,34.4,36.2,32.2,36.2C32.2,36.2,32.2,36.2,32.2,36.2
	L32.2,36.2z"/>
<circle class="st1" cx="32.2" cy="19" r="4.6"/>
<path class="st1" d="M46.7,45.4c-2.8,0-5.1-2.3-5.1-5.1s2.3-5.1,5.1-5.1s5.1,2.3,5.1,5.1S49.5,45.4,46.7,45.4L46.7,45.4z M46.7,36.2
	c-2.3,0-4.1,1.8-4.1,4.1s1.8,4.1,4.1,4.1c2.3,0,4.1-1.8,4.1-4.1C50.8,38,49,36.2,46.7,36.2C46.7,36.2,46.7,36.2,46.7,36.2L46.7,36.2
	z"/>
<rect x="31.7" y="23.6" class="st1" width="1" height="10.2"/>
<path class="st1" d="M47.2,33.8h-1v-4.2H18.1v4.2h-1v-4.7c0-0.3,0.2-0.5,0.5-0.5l0,0h29.1c0.3,0,0.5,0.2,0.5,0.5l0,0L47.2,33.8z"/>
</svg>
