<?xml version="1.0" encoding="utf-8"?>
<!-- Generator: Adobe Illustrator 21.1.0, SVG Export Plug-In . SVG Version: 6.00 Build 0)  -->
<svg version="1.1" id="Layer_1" xmlns="http://www.w3.org/2000/svg" xmlns:xlink="http://www.w3.org/1999/xlink" x="0px" y="0px"
	 viewBox="0 0 83.8 60.8" style="enable-background:new 0 0 83.8 60.8;" xml:space="preserve">
<style type="text/css">
	.st0{opacity:0.3;}
	.st1{fill:#EFCC2E;}
	.st2{fill:#FFFFFF;}
	.st3{opacity:0.2;}
	.st4{opacity:0.8;}
</style>
<title>INDIVIDUAL ICONS 3</title>
<g class="st0">
	<circle class="st1" cx="43.2" cy="30.4" r="30.4"/>
	<path class="st2" d="M52,22.7h-2.6c0,1.9-0.4,3.7-1.1,5.5l-8.3-4c0.8-2.8-0.7-5.7-3.5-6.5c-1.4-0.4-2.9-0.2-4.2,0.5l-2-2L28.6,18
		l2,2c-1.5,2.5-0.7,5.7,1.8,7.1c1.3,0.8,2.8,0.9,4.2,0.5l11.2,23.4l1.2-0.6l-6.2-12.8c3.1-1.6,5.7-4.2,7.3-7.3l12.8,6.2l0.6-1.2
		l-12.8-6.2C51.6,27.2,52,25,52,22.7z M34.2,21.8c0.5-0.5,1.3-0.5,1.8,0c0.5,0.5,0.5,1.3,0,1.8c-0.5,0.5-1.3,0.5-1.8,0
		C33.7,23.1,33.7,22.3,34.2,21.8z M41.7,35.4l-4-8.2c0.8-0.4,1.4-1.1,1.8-1.8l8.2,4C46.4,31.9,44.3,34,41.7,35.4z"/>
</g>
<g class="st3">
	<circle class="st1" cx="53.4" cy="30.4" r="30.4"/>
	<path class="st2" d="M62.2,22.7h-2.6c0,1.9-0.4,3.7-1.1,5.5l-8.3-4c0.8-2.8-0.7-5.7-3.5-6.5c-1.4-0.4-2.9-0.2-4.2,0.5l-2-2L38.7,18
		l2,2c-1.5,2.5-0.7,5.7,1.8,7.1c1.3,0.8,2.8,0.9,4.2,0.5L58,51.1l1.2-0.6L53,37.7c3.1-1.6,5.7-4.2,7.3-7.3l12.8,6.2l0.6-1.2
		l-12.8-6.2C61.7,27.2,62.2,25,62.2,22.7z M44.3,21.8c0.5-0.5,1.3-0.5,1.8,0c0.5,0.5,0.5,1.3,0,1.8c-0.5,0.5-1.3,0.5-1.8,0
		C43.8,23.1,43.8,22.3,44.3,21.8z M51.9,35.4l-4-8.2c0.8-0.4,1.4-1.1,1.8-1.8l8.2,4C56.6,31.9,54.5,34,51.9,35.4L51.9,35.4z"/>
</g>
<g class="st4">
	<circle class="st1" cx="30.4" cy="30.4" r="30.4"/>
</g>
<path class="st2" d="M39.2,22.7h-2.6c0,1.9-0.4,3.7-1.1,5.5l-8.3-4c0.8-2.8-0.7-5.7-3.5-6.5c-1.4-0.4-2.9-0.2-4.2,0.5l-2-2L15.7,18
	l2,2c-1.5,2.5-0.7,5.7,1.8,7.1c1.3,0.8,2.8,0.9,4.2,0.5L35,51.1l1.2-0.6L30,37.7c3.1-1.6,5.7-4.2,7.3-7.3l12.8,6.2l0.6-1.2
	l-12.8-6.2C38.7,27.2,39.2,25,39.2,22.7z M21.4,21.8c0.5-0.5,1.3-0.5,1.8,0c0.5,0.5,0.5,1.3,0,1.8c-0.5,0.5-1.3,0.5-1.8,0
	C20.8,23.1,20.8,22.3,21.4,21.8z M28.9,35.4l-4-8.2c0.8-0.4,1.4-1.1,1.8-1.8l8.2,4C33.6,31.9,31.4,34,28.9,35.4L28.9,35.4z"/>
</svg>
