<?xml version="1.0" encoding="utf-8"?>
<!-- Generator: Adobe Illustrator 21.1.0, SVG Export Plug-In . SVG Version: 6.00 Build 0)  -->
<svg version="1.1" id="Layer_1" xmlns="http://www.w3.org/2000/svg" xmlns:xlink="http://www.w3.org/1999/xlink" x="0px" y="0px"
	 viewBox="0 0 60.3 60.2" style="enable-background:new 0 0 60.3 60.2;" xml:space="preserve">
<style type="text/css">
	.st0{fill:#ECC01B;}
	.st1{fill:#FFFFFF;}
</style>
<title>INDIVIDUAL ICONS</title>
<ellipse class="st0" cx="30.1" cy="30.1" rx="30.1" ry="30.1"/>
<path class="st1" d="M52.5,28.6h-3c-0.7-9.5-8.3-17.1-17.9-17.8v-3h-3v3c-9.5,0.7-17.1,8.3-17.8,17.8h-3v3h3
	c0.7,9.5,8.3,17.1,17.8,17.8v3h3v-3c9.5-0.7,17.1-8.3,17.8-17.8h3V28.6z M46.5,28.6H42c-0.7-5.4-5-9.7-10.4-10.3v-4.5
	C39.5,14.5,45.8,20.7,46.5,28.6z M40.5,31.6c-0.7,4.6-4.3,8.2-8.8,8.8v-5.9h-3v5.8c-4.6-0.7-8.2-4.3-8.8-8.8h5.8v-3h-5.9
	c0.7-4.6,4.3-8.2,8.8-8.8v5.8h3v-5.8c4.6,0.7,8.2,4.3,8.8,8.8h-5.9v3H40.5z M28.6,13.8v4.5c-5.4,0.7-9.7,4.9-10.3,10.3h-4.5
	C14.5,20.7,20.8,14.5,28.6,13.8z M13.8,31.6h4.5c0.7,5.4,4.9,9.6,10.3,10.3v4.5C20.8,45.7,14.5,39.5,13.8,31.6z M31.6,46.4v-4.5
	C37,41.2,41.3,37,42,31.6h4.5C45.8,39.5,39.5,45.7,31.6,46.4z"/>
<rect x="31.6" y="17.8" class="st0" width="9" height="9.4"/>
<rect x="33" y="31.6" class="st0" width="9" height="9.4"/>
<rect x="39" y="23.1" class="st0" width="3.1" height="5.5"/>
<rect x="31.6" y="38.3" class="st0" width="3.1" height="5.5"/>
<rect x="20.1" y="17.5" class="st0" width="8.6" height="7.3"/>
<rect x="17.8" y="31.6" class="st0" width="8.6" height="7.3"/>
<rect x="17.8" y="22.4" class="st0" width="5" height="6.2"/>
<rect x="22.1" y="38" class="st0" width="6.6" height="6.2"/>
</svg>
