<?xml version="1.0" encoding="utf-8"?>
<!-- Generator: Adobe Illustrator 21.1.0, SVG Export Plug-In . SVG Version: 6.00 Build 0)  -->
<svg version="1.1" id="Layer_1" xmlns="http://www.w3.org/2000/svg" xmlns:xlink="http://www.w3.org/1999/xlink" x="0px" y="0px"
	 viewBox="0 0 65 64.9" style="enable-background:new 0 0 65 64.9;" xml:space="preserve">
<style type="text/css">
	.st0{fill:#EABE1B;}
	.st1{fill:#FFFFFF;}
</style>
<title>INDIVIDUAL ICONS 3</title>
<ellipse class="st0" cx="32.5" cy="32.5" rx="32.5" ry="32.5"/>
<path class="st1" d="M30.9,9h3.7l2.2,0.4c9.3,1.9,15.9,7.2,19,16.2s1.1,17.5-5.3,24.7c-2.7,3.1-6.3,5.3-10.2,6.5l-5.8-15.5
	c5-2.7,6.8-5.6,6-9.4c-0.8-3.5-3.7-6.1-7.3-6.3c-3.5-0.2-6.8,2-7.8,5.3c-0.4,1.6-0.4,3.4,0,5c0.7,2.9,3,4.4,5.8,5.3l-5.8,15.5
	c-11-3.3-18.4-15-16.8-26.3C10.3,20.1,17,12.4,26.9,9.9C28.2,9.5,29.6,9.3,30.9,9z"/>
</svg>
