<?xml version="1.0" encoding="utf-8"?>
<!-- Generator: Adobe Illustrator 21.1.0, SVG Export Plug-In . SVG Version: 6.00 Build 0)  -->
<svg version="1.1" id="Layer_1" xmlns="http://www.w3.org/2000/svg" xmlns:xlink="http://www.w3.org/1999/xlink" x="0px" y="0px"
	 viewBox="0 0 60.3 60.2" style="enable-background:new 0 0 60.3 60.2;" xml:space="preserve">
<style type="text/css">
	.st0{fill:#ECC01B;}
	.st1{fill:#ECC01B;stroke:#FFFFFF;stroke-miterlimit:10;}
	.st2{fill:#FFFFFF;}
</style>
<title>INDIVIDUAL ICONS</title>
<ellipse class="st0" cx="30.1" cy="30.1" rx="30.1" ry="30.1"/>
<path class="st1" d="M28.3,35.2c0,2.3-0.8,4.5-2.2,6.3c-1.1,1.5-4.9,6.7-8,9.4v-5.3h-0.3c-5.8,0-10.4-4.7-10.4-10.5
	c0-5.8,4.7-10.4,10.5-10.4C23.6,24.7,28.3,29.4,28.3,35.2z"/>
<circle class="st2" cx="22.7" cy="34.9" r="1.2"/>
<circle class="st2" cx="17.8" cy="34.9" r="1.2"/>
<circle class="st2" cx="13" cy="34.9" r="1.2"/>
<path class="st2" d="M20,15.1l-1.4-1.2l2.5-3.1l-3-2.6l1.2-1.5l4.6,3.8L20,15.1z"/>
<path class="st2" d="M8.4,25.1c-0.2-1.7-0.1-3.4,0.3-5c1-4.1,3.8-7.5,7.5-9.3c1.4-0.7,3-1.1,4.5-1.3l0.3,2.3
	c-6.5,0.7-11.1,6.6-10.4,13.1c0,0,0,0,0,0L8.4,25.1L8.4,25.1z"/>
<path class="st2" d="M51.4,38H26V6.9h18.9l6.6,6.5L51.4,38z"/>
<path class="st0" d="M30.1,15.6H48v3H30.1V15.6z M30.1,22.2H43v3H30.1V22.2z M30.1,28.5h16v3h-16V28.5z"/>
<path class="st0" d="M51.4,13.5h-6.6V6.9L51.4,13.5z"/>
</svg>
