<svg id="uuid-c6c3f75e-5369-448e-b895-3f99fb11bebe"
	xmlns="http://www.w3.org/2000/svg" width="18" height="18" viewBox="0 0 18 18">
	<path d="M7.456.608c-.902-.411-1.909-.559-2.898-.417.053.041.086.107.082.179l-.082,1.405c.879-.183,1.827-.043,2.65.469.338.21.639.474.892.781,0,0,.024.027.061.069.091.104.26.299.334.402.006.031-.004.062-.026.084-.001.001-.002.002-.003.004l-.052.048-.765.681c-.039.035-.042.095-.007.134.017.019.04.03.065.031l1.107.065,1.402.082c.072.004.138-.029.179-.083.025-.033.041-.073.044-.117l.147-2.513c.003-.052-.037-.097-.089-.1-.025-.001-.049.007-.068.024l-.764.682v.003c-.106-.164-.22-.319-.34-.467-.516-.636-1.159-1.122-1.869-1.445Z" fill="#0078d4" />
	<path d="M4.441.147L1.932,0c-.052-.003-.097.037-.1.09-.001.025.007.049.024.068l.681.766h.003c-.159.104-.311.214-.455.331-.629.509-1.111,1.143-1.436,1.842-.424.913-.578,1.937-.434,2.942.041-.053.107-.086.179-.082l1.402.082c-.183-.881-.043-1.83.468-2.655.209-.338.473-.64.78-.893,0,0,.029-.026.072-.064.104-.092.297-.259.399-.332.031-.006.062.004.084.026.001.001.002.002.003.003l.048.052.679.766c.035.039.095.042.134.008.019-.017.03-.04.031-.065l.064-1.109.082-1.405c.004-.072-.029-.138-.082-.179-.033-.025-.073-.041-.117-.044Z" fill="#46a0de" />
	<path d="M10.411,5.611c.025-.363.013-.73-.039-1.095-.041.053-.107.086-.179.082l-1.402-.082c.038.186.062.374.071.564l1.55.53Z" fill="#155ea1" />
	<path d="M3.576,9.604l.271-.049,1.845-.343c-.095-.084-.155-.206-.155-.34v-.025c-.733.051-1.487-.119-2.159-.536-.338-.21-.639-.474-.892-.781,0,0-.024-.027-.061-.069-.091-.104-.26-.299-.334-.402-.006-.031.004-.062.026-.084.001-.001.002-.002.003-.004l.052-.048.765-.681c.039-.035.042-.095.007-.134-.017-.019-.04-.03-.065-.031l-1.107-.065-1.402-.082c-.072-.004-.138.029-.179.083-.025.033-.041.073-.044.117L0,8.645c-.003.052.037.097.089.1.025.001.049-.007.068-.024l.764-.682v-.003c.106.164.22.319.34.467.516.636,1.159,1.122,1.869,1.445.026.012.053.021.08.033.029-.188.173-.342.365-.376Z" fill="#8dc8e8" />
	<g>
		<polygon points="8.241 5.343 5.968 5.765 5.968 8.87 8.241 9.355 10.522 8.44 10.522 6.123 8.241 5.343" fill="#8661c5" />
		<path d="M8.328,9.307l2.082-.844c.048-.019.084-.061.095-.111v-2.102c-.004-.064-.044-.119-.103-.143l-2.106-.716h-.095l-2.066.382c-.066.017-.114.075-.119.143v2.81c-.002.073.048.136.119.151l2.09.438c.035.004.07.002.103-.008Z" fill="none" />
		<path d="M5.968,5.765v3.105l2.297.486v-3.98l-2.297.39ZM6.938,8.631l-.644-.127v-2.388l.644-.103v2.619ZM7.939,8.814l-.739-.119v-2.73l.739-.127v2.977Z" fill="#56407f" />
		<polygon points="13.16 5.383 10.887 5.805 10.887 8.909 13.16 9.395 15.433 8.471 15.433 6.163 13.16 5.383" fill="#8661c5" />
		<path d="M10.887,5.805v3.105l2.281.486v-3.98l-2.281.39ZM11.849,8.67l-.644-.127v-2.388l.644-.103v2.619ZM12.85,8.854l-.739-.119v-2.73l.739-.135v2.985Z" fill="#56407f" />
		<polygon points="5.912 9.626 3.639 10.048 3.639 13.152 5.912 13.638 8.193 12.722 8.193 10.406 5.912 9.626" fill="#8661c5" />
		<path d="M3.632,10.048v3.081l2.297.486v-3.98l-2.297.414ZM4.593,12.921l-.644-.135v-2.388l.644-.111v2.635ZM5.602,13.128l-.739-.119v-2.762l.739-.127v3.009Z" fill="#56407f" />
		<polygon points="10.816 9.594 8.543 10.016 8.543 13.12 10.816 13.614 13.089 12.69 13.089 10.374 10.816 9.594" fill="#8661c5" />
		<path d="M8.543,10.016v3.112l2.289.486v-3.98l-2.289.382ZM9.504,12.889l-.644-.135v-2.388l.644-.111v2.635ZM10.506,13.065l-.739-.119v-2.73l.739-.127v2.977Z" fill="#56407f" />
		<polygon points="15.719 9.634 13.446 10.056 13.446 13.16 15.719 13.646 18 12.73 18 10.414 15.719 9.634" fill="#8661c5" />
		<path d="M13.446,10.056v3.073l2.297.486v-3.98l-2.297.422ZM14.416,12.929l-.644-.135v-2.388l.644-.111v2.635ZM15.417,13.104l-.739-.119v-2.73l.739-.127v2.977Z" fill="#56407f" />
		<polygon points="8.185 13.956 5.912 14.37 5.912 17.475 8.185 17.968 10.466 17.045 10.466 14.736 8.185 13.956" fill="#8661c5" />
		<path d="M8.273,17.904l2.074-.796c.06-.021.099-.08.095-.143v-2.07c.012-.076-.031-.149-.103-.175l-2.098-.716c-.031-.012-.065-.012-.095,0l-2.066.374c-.074.012-.128.076-.127.151v2.818c-.002.073.048.136.119.151l2.09.406c.036.012.075.012.111,0Z" fill="none" />
		<path d="M5.912,14.37v3.105l2.297.494v-4.044l-2.297.446ZM6.882,17.244l-.644-.135v-2.388l.644-.111v2.635ZM7.883,17.427l-.739-.119v-2.738l.739-.127v2.985Z" fill="#56407f" />
		<polygon points="13.097 13.988 10.824 14.41 10.824 17.514 13.097 18 15.377 17.085 15.377 14.768 13.097 13.988" fill="#8661c5" />
		<path d="M10.824,14.41v3.105l2.297.486v-3.98l-2.297.39ZM11.793,17.284l-.644-.135v-2.388l.644-.111v2.635ZM12.795,17.459l-.739-.119v-2.73l.739-.127v2.977Z" fill="#56407f" />
	</g>
</svg>