<svg
	xmlns="http://www.w3.org/2000/svg"
	xmlns:xlink="http://www.w3.org/1999/xlink" width="17.932" height="13.05">
	<defs>
		<linearGradient id="A" x1="8.966" y1="-1.951" x2="8.966" y2="15.931" gradientUnits="userSpaceOnUse">
			<stop offset=".18" stop-color="#5ea0ef"/>
			<stop offset="1" stop-color="#0078d4"/>
		</linearGradient>
		<linearGradient id="B" x1="9.017" y1="11.589" x2="9.017" y2="2.84" gradientUnits="userSpaceOnUse">
			<stop offset="0" stop-color="#86d633"/>
			<stop offset=".596" stop-color="#a4e434"/>
			<stop offset=".999" stop-color="#b4ec36"/>
		</linearGradient>
		<linearGradient id="C" x1="9.017" y1="9.372" x2="9.017" y2="5.198" gradientUnits="userSpaceOnUse">
			<stop offset="0" stop-color="#5e9624"/>
			<stop offset=".111" stop-color="#64a026"/>
			<stop offset=".348" stop-color="#6eaf2a"/>
			<stop offset=".619" stop-color="#74b92c"/>
			<stop offset=".999" stop-color="#76bc2d"/>
		</linearGradient>
		<path id="D" d="M17.932 8.967c-.036-2.004-1.515-3.689-3.497-3.985A5.13 5.13 0 0 0 9.205.001a5.23 5.23 0 0 0-4.981 3.477C1.824 3.787.02 5.82 0 8.24a4.98 4.98 0 0 0 5.051 4.802h8.617c.073.01.146.01.219 0 2.23-.038 4.023-1.845 4.045-4.075z"/>
		<path id="E" d="M10.423 4.375l-.424-.26c-.061-.038-.108-.095-.133-.163l-.323-.902c-.045-.126-.165-.21-.299-.21h-.54c-.143 0-.269.096-.306.234l-.229.844c-.025.093-.092.17-.181.208l-.424.183c-.083.036-.176.034-.258-.003l-.85-.391c-.123-.056-.268-.029-.361.068l-.381.397c-.094.098-.115.244-.054.364l.417.814a.32.32 0 0 1 .013.26l-.164.418c-.035.09-.109.159-.202.187l-.911.281c-.133.041-.224.164-.224.303v.536c0 .143.096.268.233.306l.832.228a.32.32 0 0 1 .208.18l.183.425c.035.082.035.175-.002.256l-.38.842c-.055.121-.028.264.067.357l.399.392c.098.096.247.119.369.055l.798-.414c.081-.042.177-.047.263-.014l.43.17a.32.32 0 0 1 .18.182l.335.876c.047.123.165.204.296.204h.551c.136 0 .256-.086.3-.214l.275-.802c.025-.073.076-.134.142-.172l.397-.228c.088-.05.194-.056.286-.015l.758.336a.32.32 0 0 0 .355-.068l.398-.406c.094-.095.118-.239.06-.36l-.344-.717a.32.32 0 0 1-.005-.265l.182-.416c.036-.083.107-.147.193-.175l.872-.281c.131-.042.22-.164.22-.302v-.522c0-.143-.096-.269-.235-.306l-.863-.232c-.082-.022-.152-.076-.194-.15l-.211-.374a.32.32 0 0 1-.016-.281l.329-.771c.052-.121.023-.262-.072-.353l-.407-.392c-.094-.091-.235-.114-.354-.059l-.698.325c-.097.045-.209.039-.3-.017zm-2.82 3.544c-.056-.056-.091-.132-.093-.211-.048-1.807 1.631-2.303 2.518-1.463h0A1.45 1.45 0 0 1 8.01 8.326l-.406-.407z"/>
		<path id="F" d="M10.032 6.354L8.593 7.8l-.701-.701-.035-.029c-.115-.077-.271-.047-.349.069-.066.099-.054.23.028.315l.879.88.035.029a.25.25 0 0 0 .32-.03l1.62-1.624.029-.035c.076-.116.043-.272-.073-.348-.098-.064-.226-.052-.311.028h-.004z"/>
	</defs>
	<use xlink:href="#D" fill="url(#A)"/>
	<use xlink:href="#E" fill="url(#B)"/>
	<ellipse cx="9.017" cy="7.285" rx="2.078" ry="2.087" fill="url(#C)"/>
	<use xlink:href="#F" fill="#fff"/>
	<use xlink:href="#D" fill="url(#A)"/>
	<use xlink:href="#E" fill="url(#B)"/>
	<ellipse cx="9.017" cy="7.285" rx="2.078" ry="2.087" fill="url(#C)"/>
	<use xlink:href="#F" fill="#fff"/>
</svg>