<svg
	xmlns="http://www.w3.org/2000/svg" width="17.152" height="18">
	<defs>
		<linearGradient id="A" x1="8.575" y1="9.628" x2="8.575" gradientUnits="userSpaceOnUse" y2="0">
			<stop offset="0" stop-color="#0078d4"/>
			<stop offset=".82" stop-color="#5ea0ef"/>
		</linearGradient>
		<linearGradient id="B" x1="8.575" y1="13.343" x2="8.575" y2="9.628" gradientUnits="userSpaceOnUse">
			<stop offset=".151" stop-color="#ccc"/>
			<stop offset="1" stop-color="#707070"/>
		</linearGradient>
	</defs>
	<path d="M17.124 15.194c-.16.7-1.035 1.391-2.617 1.929a21.594 21.594 0 0 1-12.125.017C.925 16.626.139 15.97.016 15.3c-.022-.118 0-1.966 0-1.966l17.136-.16-.028 2.02z" fill="#5ea0ef"/>
	<ellipse cx="8.442" cy="13.379" rx="8.576" ry="2.965" transform="rotate(359.425)" fill="#50e6ff"/>
	<rect x="1.354" width="14.442" height="9.628" rx=".481" fill="url(#A)"/>
	<path d="M11.475 12.54c-1.428-.224-1.484-1.251-1.484-2.912H7.155c0 1.661-.048 2.688-1.476 2.912a.8.8 0 0 0-.714.8h7.22a.8.8 0 0 0-.71-.8z" fill="url(#B)"/>
	<path d="M11.775 5.545V2.557h-.86v3.649h2.172v-.661zm-6.3-1.477a1.757 1.757 0 0 1-.451-.268.389.389 0 0 1-.111-.292.312.312 0 0 1 .137-.267.593.593 0 0 1 .369-.094 1.426 1.426 0 0 1 .856.253v-.758a2.4 2.4 0 0 0-.856-.142 1.492 1.492 0 0 0-.97.3.963.963 0 0 0-.361.79 1.187 1.187 0 0 0 .756 1.065 2.117 2.117 0 0 1 .541.317.351.351 0 0 1 .137.284.342.342 0 0 1-.137.275.662.662 0 0 1-.361.111 1.449 1.449 0 0 1-.961-.378v.856a1.942 1.942 0 0 0 .944.206 1.715 1.715 0 0 0 1.039-.335.96.96 0 0 0 .378-.807.858.858 0 0 0-.223-.618 2.175 2.175 0 0 0-.726-.498zm4.585 1.408a2.058 2.058 0 0 0 .292-1.116 2.1 2.1 0 0 0-.223-.971 1.6 1.6 0 0 0-.618-.661 1.775 1.775 0 0 0-.863-.228 1.913 1.913 0 0 0-.953.241 1.627 1.627 0 0 0-.653.687 2.124 2.124 0 0 0-.267 1.009 2.092 2.092 0 0 0 .206.927 1.639 1.639 0 0 0 .61.653 1.773 1.773 0 0 0 .858.258l.756.858h1.07l-1.039-1a1.525 1.525 0 0 0 .82-.657zm-.858-.223a.808.808 0 0 1-.67.309.79.79 0 0 1-.67-.318 1.328 1.328 0 0 1-.258-.858 1.353 1.353 0 0 1 .258-.859.857.857 0 0 1 .687-.318.771.771 0 0 1 .661.318 1.417 1.417 0 0 1 .241.859 1.288 1.288 0 0 1-.215.867z" fill="#fff"/>
</svg>