<svg
	xmlns="http://www.w3.org/2000/svg" width="17.152" height="17.924">
	<defs>
		<linearGradient id="A" x1="2.515" y1="8.41" x2="13.675" y2="8.41" gradientUnits="userSpaceOnUse">
			<stop offset="0" stop-color="#005ba1"/>
		</linearGradient>
	</defs>
	<path d="M17.124 15.118c-.16.7-1.035 1.391-2.617 1.929a21.585 21.585 0 0 1-12.125.017C.925 16.55.139 15.894.016 15.222c-.022-.118 0-1.966 0-1.966l17.136-.16-.028 2.022z" fill="#5ea0ef"/>
	<ellipse cx="8.443" cy="13.303" rx="8.576" ry="2.965" transform="rotate(359.425)" fill="#50e6ff"/>
	<path d="M8.095 4.039c-3.082 0-5.58-.87-5.58-2.019v10.76c0 1.106 2.455 2 5.5 2.02h.08c3.082 0 5.58-.871 5.58-2.02V2.02c0 1.123-2.5 2.019-5.58 2.019z" fill="url(#A)"/>
	<path d="M13.675 2.02c0 1.123-2.5 2.019-5.58 2.019s-5.58-.867-5.58-2.019S5.013 0 8.095 0s5.58.872 5.58 2.02" fill="#e8e8e8"/>
	<path d="M12.375 1.854c0 .714-1.924 1.289-4.283 1.289s-4.28-.577-4.28-1.289S5.736.572 8.095.572s4.28.577 4.28 1.286" fill="#50e6ff"/>
	<path d="M8.095 2.172a10.054 10.054 0 0 0-3.386.5 9.941 9.941 0 0 0 3.386.472 9.684 9.684 0 0 0 3.386-.5 10.328 10.328 0 0 0-3.386-.472z" fill="#198ab3"/>
	<path d="M10.883 7.466v.365a4.627 4.627 0 0 0-.069.549 1.383 1.383 0 0 0 .043.4.735.735 0 0 1 0 .313 1.453 1.453 0 0 1-.217.748.311.311 0 0 0 0 .061l.087.105a9.189 9.189 0 0 0 .922-2.071h0c.244-.827.27-1.418.078-1.671a2.244 2.244 0 0 0-2.332-.748 2.839 2.839 0 0 1 .792.583 1.981 1.981 0 0 1 .696 1.366zm-.269.07a1 1 0 0 0-.688.078c-.252.157-.174.478 0 .87a6.893 6.893 0 0 0 .3.74l.078.139h0l.1.174.069.113a1.114 1.114 0 0 0 .157-.566 2.29 2.29 0 0 0 0-.287 1.325 1.325 0 0 0-.043-.426 5.247 5.247 0 0 1 .069-.6.694.694 0 0 1-.009-.262zm-.261.356a.335.335 0 0 1-.157.087h0a.279.279 0 0 1-.122 0 .2.2 0 0 1-.061-.165h0c0-.061.1-.113.209-.13h.165s.079 0 .079.069a.174.174 0 0 1-.079.113zm-4.078.78v-.153a.914.914 0 0 0 0-.148 4.682 4.682 0 0 1 0-.87 4.461 4.461 0 0 1 .261-.957 2.093 2.093 0 0 1 .5-.818 4.13 4.13 0 0 0-1.173-.174 1.62 1.62 0 0 0-.957.261 1.739 1.739 0 0 0-.549 1.583 10.727 10.727 0 0 0 .435 1.949c.3.992.636 1.6.931 1.7h0c.131.044.27 0 .409-.182l.6-.7a1.633 1.633 0 0 1-.427-1.522zm.226.348a1.9 1.9 0 0 0 .052.487 1.321 1.321 0 0 0 .226.383.865.865 0 0 0 .644.287 1.809 1.809 0 0 1 .2-.522 3.6 3.6 0 0 0 .183-.513 5.77 5.77 0 0 0 0-.966.5.5 0 0 0-.052-.261.39.39 0 0 0-.108-.243h0a.565.565 0 0 0-.243-.139h-.174a1.356 1.356 0 0 0-.418.121 1.731 1.731 0 0 0-.278.166v.626h0a.955.955 0 0 1 0 .131v.339h0zm.574-1.171h0a.406.406 0 0 1 .244 0 .538.538 0 0 1 .165.052c.078 0 .087.1.078.122h0a.331.331 0 0 1-.1.113.226.226 0 0 1-.052-.035h0a.3.3 0 0 1-.244-.243zm.644 2.61a.2.2 0 0 0-.113.052l-.122.148c-.148.183-.209.244-.635.331a.452.452 0 0 0-.226.087.5.5 0 0 0 .209.1 1.029 1.029 0 0 0 .626 0 1.518 1.518 0 0 0 .339-.226.523.523 0 0 0 .174-.27.311.311 0 0 0-.087-.244.13.13 0 0 0-.13-.017zm4.011 0a1.409 1.409 0 0 1-.983 0 .2.2 0 0 0-.122 0 .263.263 0 0 0-.148.122 1.017 1.017 0 0 0 0 .27 1.573 1.573 0 0 0 .958-.087 1.182 1.182 0 0 0 .417-.3zM9.639 8.597c-.122-.357-.3-.87.157-1.183a1.178 1.178 0 0 1 .779-.131 2.763 2.763 0 0 0-.557-1l-.087-.087-.056-.053h0a.32.32 0 0 0-.052-.052h0a2.044 2.044 0 0 0-.583-.365 2.291 2.291 0 0 0-.965-.192 1.335 1.335 0 0 0-.609.1 1.512 1.512 0 0 0-.261.1 1.821 1.821 0 0 0-.644.87 5.156 5.156 0 0 0-.186.862 1.443 1.443 0 0 1 .87-.2.731.731 0 0 1 .671.787v.005a6.179 6.179 0 0 1 0 1.105 3.269 3.269 0 0 1-.2.548l-.156.426a.435.435 0 0 1 .33.122.577.577 0 0 1 .166.461h.019v.209a5.682 5.682 0 0 0 .209 2.123.459.459 0 0 0 .209.183.527.527 0 0 0 .269.087 1.135 1.135 0 0 0 .871-.3.914.914 0 0 0 .252-.574l.209-1.74h0a.624.624 0 0 1 .078-.383.547.547 0 0 1 .235-.209 4.663 4.663 0 0 1-.932-1.571z" fill="#f2f2f2"/>
	<ellipse cx="2.134" cy="18.167" rx="2.677" ry="1.942" transform="rotate(319.845)" fill="#76bc2d"/>
	<path d="M12.686 13.348a.939.939 0 0 1 .039-1.589c1-.719 1.065.317.262.451 0 .372 1.047.328 1.5-.5.506-.937-.98-1.53-2.269-.109-.824.909-.844 2.153-.117 2.424a2.2 2.2 0 0 0 2.822-2.3c-.698 1.62-1.687 1.856-2.237 1.623z" fill="#fff"/>
</svg>