<svg
	xmlns="http://www.w3.org/2000/svg"
	xmlns:xlink="http://www.w3.org/1999/xlink" width="17.951" height="18">
	<defs>
		<linearGradient id="A" x1="3.875" y1="2.197" x2="8.777" y2="2.197" xlink:href="#H">
			<stop offset="0" stop-color="#b77af4"/>
			<stop offset="1" stop-color="#773adc"/>
		</linearGradient>
		<linearGradient id="B" x1="9.171" y1="2.24" x2="14.064" y2="2.24" xlink:href="#H">
			<stop offset="0" stop-color="#b77af4"/>
			<stop offset="1" stop-color="#773adc"/>
		</linearGradient>
		<linearGradient id="C" x1="1.368" y1="6.8" x2="6.27" y2="6.8" xlink:href="#H">
			<stop offset="0" stop-color="#b77af4"/>
			<stop offset="1" stop-color="#773adc"/>
		</linearGradient>
		<linearGradient id="D" x1="6.647" y1="6.77" x2="11.54" y2="6.77" xlink:href="#H">
			<stop offset="0" stop-color="#b77af4"/>
			<stop offset="1" stop-color="#773adc"/>
		</linearGradient>
		<linearGradient id="E" x1="11.925" y1="6.808" x2="16.828" y2="6.808" xlink:href="#H">
			<stop offset="0" stop-color="#b77af4"/>
			<stop offset="1" stop-color="#773adc"/>
		</linearGradient>
		<linearGradient id="F" x1="3.815" y1="11.454" x2="8.717" y2="11.454" xlink:href="#H">
			<stop offset="0" stop-color="#b77af4"/>
			<stop offset="1" stop-color="#773adc"/>
		</linearGradient>
		<linearGradient id="G" x1="9.102" y1="11.488" x2="14.004" y2="11.488" xlink:href="#H">
			<stop offset="0" stop-color="#b77af4"/>
			<stop offset="1" stop-color="#773adc"/>
		</linearGradient>
		<linearGradient id="H" gradientUnits="userSpaceOnUse"/>
	</defs>
	<path d="M17.921 15.064c-.167.733-1.083 1.456-2.738 2.018a22.6 22.6 0 0 1-12.69.018C.968 16.559.145 15.876.016 15.172c-.022-.124 0-2.058 0-2.058l17.935-.166-.03 2.116z" fill="#5ea0ef"/>
	<ellipse cx="8.844" cy="13.163" rx="8.976" ry="3.103" transform="rotate(359.425)" fill="#50e6ff"/>
	<g transform="translate(-.026 -.041)">
		<path fill="url(#A)" d="M8.777 3.369V.879L6.322.041 3.875.494v3.337l2.447.522z"/>
		<path fill="url(#B)" d="M14.064 3.403V.922L11.617.084 9.171.537v3.337l2.446.522z"/>
		<path fill="url(#C)" d="M6.27 7.972v-2.49l-2.455-.838-2.447.453v3.337l2.447.522z"/>
		<path fill="url(#D)" d="M11.54 7.937V5.448l-2.446-.839-2.447.454v3.336l2.447.531z"/>
		<path fill="url(#E)" d="M16.828 7.98V5.491l-2.456-.839-2.447.454v3.336l2.447.522z"/>
		<path fill="url(#F)" d="M8.717 12.617v-2.481l-2.455-.838-2.447.445v3.336l2.447.531z"/>
		<path fill="url(#G)" d="M14.004 12.66v-2.49l-2.455-.838-2.447.453v3.337l2.447.522z"/>
	</g>
	<path d="M3.849.453V3.79l2.472.522V.034zm1.044 3.08L4.2 3.396V.83l.693-.111zm1.081.197l-.8-.128V.667l.8-.137zM9.145.496v3.337l2.455.522V.077zm1.035 3.08l-.693-.137V.873l.693-.114zm1.078.2l-.8-.128V.71l.8-.145zM1.334 5.059v3.308l2.472.522V4.611zm1.04 3.086l-.7-.146V5.433l.693-.12zm1.086.222l-.8-.128V5.27l.8-.137zm3.161-3.345v3.345l2.464.522V4.611zM7.656 8.11l-.693-.145V5.398l.693-.119zm1.078.189l-.8-.129V5.236l.8-.137zm3.165-3.234v3.3l2.475.524V4.611zm1.044 3.088l-.693-.145V5.441l.693-.12zm1.078.188l-.795-.128V5.279l.8-.137zM3.789 9.702v3.336l2.473.531V9.223zm1.044 3.088l-.693-.145v-2.567l.693-.119zm1.078.2l-.8-.128V9.916l.8-.137zm3.163-3.246v3.337l2.473.522V9.325zm1.044 3.089l-.693-.146v-2.566l.693-.12zm1.078.188l-.8-.128V9.959l.8-.137z" fill="#341a6e"/>
</svg>