<svg
	xmlns="http://www.w3.org/2000/svg" width="17.502" height="15.956">
	<defs>
		<linearGradient id="A" x1="6.326" y1=".621" x2="6.326" y2="11.993" gradientUnits="userSpaceOnUse">
			<stop offset="0" stop-color="#9d79eb"/>
			<stop offset="1" stop-color="#7548d6"/>
		</linearGradient>
		<linearGradient id="B" x1="11.925" y1="12.864" x2="11.903" y2="15.992" gradientUnits="userSpaceOnUse">
			<stop offset="0" stop-color="#3cd4c2"/>
			<stop offset="1" stop-color="#37c2b1"/>
		</linearGradient>
		<linearGradient id="C" x1="11.925" y1="9.248" x2="11.903" y2="12.377" gradientUnits="userSpaceOnUse">
			<stop offset="0" stop-color="#3cd4c2"/>
			<stop offset="1" stop-color="#37c2b1"/>
		</linearGradient>
	</defs>
	<path d="M4.103 1.058a7.351 7.351 0 0 0-1.236 2.477H1.342a5.747 5.747 0 0 1 2.761-2.477zM.988 8.345h1.77a7.717 7.717 0 0 1-.3-2.021 9.867 9.867 0 0 1 .247-2.18h-1.66a5.655 5.655 0 0 0-.057 4.201zm3.511 3.389a8.573 8.573 0 0 1-1.547-2.778H1.259a5.74 5.74 0 0 0 3.24 2.778zm-.9-2.778a6.159 6.159 0 0 0 2.138 3.053c.055.006.111.006.166.008 0-.017-.01-.032-.01-.05V9.658a.782.782 0 0 1 .15-.441v-.261zM3.07 6.324a7.216 7.216 0 0 0 .329 2.021h2.653v-4.2H3.326a9.307 9.307 0 0 0-.256 2.179zm.425-2.789h2.557V.621l-.55.053a4.694 4.694 0 0 0-2.007 2.861zM7.028.656L6.657.625v2.909h2.416A4.592 4.592 0 0 0 7.028.656zm-.371 7.689h2.512a7.254 7.254 0 0 0 .33-2.021 9.255 9.255 0 0 0-.257-2.18H6.657zm1.77-7.331a7.262 7.262 0 0 1 1.275 2.521h1.608a5.746 5.746 0 0 0-2.883-2.521zm1.433 3.13a9.856 9.856 0 0 1 .247 2.178 7.732 7.732 0 0 1-.3 2.023h1.854a5.655 5.655 0 0 0-.057-4.2z" fill="url(#A)"/>
	<rect x="6.325" y="12.9" width="11.177" height="3.056" rx=".374" fill="url(#B)"/>
	<g fill="#fff">
		<rect x="15.766" y="13.435" width=".835" height=".835" rx=".187"/>
		<rect x="15.766" y="14.586" width=".835" height=".835" rx=".187" opacity=".6"/>
	</g>
	<path d="M5.906 12.017c-.055 0-.111 0-.166-.008a6.159 6.159 0 0 1-2.138-3.053h2.444v.261a.791.791 0 0 1 .653-.362h5.4a6.159 6.159 0 0 0-.045-5.2l-.058-.122A6.331 6.331 0 0 0 7.182.065a1.337 1.337 0 0 0-.295-.036L6.326 0l-.645.032a1.734 1.734 0 0 0-.344.053 6.336 6.336 0 0 0-4.675 3.45h-.01v.013a6.3 6.3 0 0 0 4.884 9.044.159.159 0 0 0 .048.007 6.069 6.069 0 0 0 .713.048.793.793 0 0 1-.391-.63zm5.758-3.672H9.81a7.732 7.732 0 0 0 .3-2.023 9.856 9.856 0 0 0-.247-2.178h1.747a5.655 5.655 0 0 1 .054 4.201zm-.354-4.81H9.702a7.262 7.262 0 0 0-1.275-2.521 5.746 5.746 0 0 1 2.883 2.521zM6.657.625l.371.031a4.592 4.592 0 0 1 2.045 2.878H6.657zm0 3.519h2.585a9.255 9.255 0 0 1 .257 2.18 7.254 7.254 0 0 1-.33 2.021H6.657zm-.605 4.201H3.399a7.216 7.216 0 0 1-.329-2.021 9.307 9.307 0 0 1 .256-2.18h2.726zM5.498.678c.181-.027.364-.044.55-.053v2.91H3.495A4.694 4.694 0 0 1 5.498.678zm-1.4.384a7.351 7.351 0 0 0-1.231 2.473H1.342a5.747 5.747 0 0 1 2.761-2.477zM1.045 4.144h1.663a9.867 9.867 0 0 0-.247 2.18 7.717 7.717 0 0 0 .3 2.021H.988a5.655 5.655 0 0 1 .057-4.201zm.214 4.812h1.693a8.573 8.573 0 0 0 1.551 2.778 5.74 5.74 0 0 1-3.244-2.778z" fill="#b796f9"/>
	<rect x="6.325" y="9.285" width="11.177" height="3.056" rx=".374" fill="url(#C)"/>
	<g fill="#fff">
		<rect x="15.766" y="9.819" width=".835" height=".835" rx=".187"/>
		<rect x="15.766" y="10.971" width=".835" height=".835" rx=".187" opacity=".6"/>
	</g>
</svg>