<?xml version="1.0" encoding="UTF-8" standalone="no"?>
<svg
   id="uuid-2a57d3d0-4991-466e-9a94-c89748173b8d"
   width="18.183001"
   height="12.80106"
   viewBox="0 0 18.183001 12.80106"
   version="1.1"
   xmlns="http://www.w3.org/2000/svg"
   xmlns:svg="http://www.w3.org/2000/svg">
  <defs
     id="defs28">
    <linearGradient
       id="uuid-9468b865-eac4-4ff2-b5b6-2babfb3374f2"
       x1="5.9089999"
       y1="2.691"
       x2="5.9089999"
       y2="13.239"
       gradientUnits="userSpaceOnUse"
       gradientTransform="translate(0,-2.6909399)">
      <stop
         offset="0"
         stop-color="#5ea0ef"
         id="stop2" />
      <stop
         offset=".178"
         stop-color="#559cec"
         id="stop4" />
      <stop
         offset=".472"
         stop-color="#3c91e5"
         id="stop6" />
      <stop
         offset=".844"
         stop-color="#1380da"
         id="stop8" />
      <stop
         offset="1"
         stop-color="#0078d4"
         id="stop10" />
    </linearGradient>
    <linearGradient
       id="uuid-3ad1fb1c-b576-4203-8afc-a0b652002d39"
       x1="10.12"
       y1="13.294"
       x2="10.12"
       y2="7.8189998"
       gradientUnits="userSpaceOnUse">
      <stop
         offset="0"
         stop-color="#46a0de"
         id="stop13" />
      <stop
         offset="1"
         stop-color="#8dc8e8"
         id="stop15" />
    </linearGradient>
    <linearGradient
       id="uuid-8bf92bc2-af51-4860-95b1-96ac950961e9"
       x1="15.96"
       y1="13.294"
       x2="15.96"
       y2="7.8189998"
       gradientUnits="userSpaceOnUse">
      <stop
         offset="0"
         stop-color="#46a0de"
         id="stop18" />
      <stop
         offset="1"
         stop-color="#8dc8e8"
         id="stop20" />
    </linearGradient>
    <linearGradient
       id="uuid-39eb49ae-4371-40af-be57-402d26cef923"
       x1="13.04"
       y1="12.564"
       x2="13.04"
       y2="8.5489998"
       gradientUnits="userSpaceOnUse">
      <stop
         offset="0"
         stop-color="#155ea1"
         id="stop23" />
      <stop
         offset="1"
         stop-color="#0078d4"
         id="stop25" />
    </linearGradient>
  </defs>
  <path
     d="m 7.652,10.47406 c 0.004,-0.352 0.014,-0.5799999 0.03,-0.6769999 0.123,-0.733 0.602,-1.294 1.244,-1.502 0.005,-0.002 0.008,-0.006 0.008,-0.011 v -2.377 c 0,-0.602 0.427,-1.145 1.024,-1.224 0.56,-0.075 1.058,0.245 1.257,0.719 h 0.407 l -0.484,-0.485 c -0.326,-0.326 -0.326,-0.854 0,-1.179 l 0.68,-0.681 c -0.516,-1.816 -2.213,-3.11599998 -4.181,-3.05499998 -1.835,-0.033 -3.49,1.09599998 -4.129,2.81599998 -1.959,0.237 -3.45,1.87 -3.508,3.842 0.088,2.228 1.962,3.9659999 4.19,3.8849999 0.124,0 0.251,-0.006 0.368,-0.016 h 3.096 c 0,-0.019 -0.003,-0.037 -0.003,-0.056 z"
     fill="url(#uuid-9468b865-eac4-4ff2-b5b6-2babfb3374f2)"
     id="path30"
     style="fill:url(#uuid-9468b865-eac4-4ff2-b5b6-2babfb3374f2)" />
  <g
     id="g44"
     transform="translate(0,-2.6909399)">
    <path
       d="m 14.915,13.958 -1.091,-1.091 c -0.074,-0.074 -0.185,-0.096 -0.282,-0.056 -0.097,0.04 -0.16,0.134 -0.16,0.239 v 0.64 H 9.479 c -0.289,0 -0.523,-0.235 -0.523,-0.523 0,-0.091 0.006,-0.427 0.014,-0.48 C 9.022,12.387 9.217,12.2 9.479,12.2 H 9.937 L 9.875,11.97 C 9.836,11.824 9.808,11.672 9.791,11.518 L 9.772,11.355 H 9.478 c -0.674,0.002 -1.228,0.499 -1.346,1.209 -0.02,0.114 -0.024,0.602 -0.024,0.607 0,0.366 0.143,0.71 0.402,0.969 0.259,0.258 0.603,0.401 0.968,0.401 h 3.904 v 0.692 c 0,0.105 0.063,0.199 0.16,0.239 0.032,0.013 0.066,0.02 0.099,0.02 0.067,0 0.133,-0.026 0.183,-0.076 l 1.091,-1.091 c 0.101,-0.101 0.101,-0.266 0,-0.367 z"
       fill="#155ea1"
       id="path32" />
    <path
       d="M 17.781,7.021 C 17.522,6.763 17.178,6.62 16.813,6.62 H 12.909 V 5.928 c 0,-0.105 -0.063,-0.199 -0.16,-0.239 -0.098,-0.04 -0.208,-0.018 -0.282,0.056 l -1.091,1.091 c -0.101,0.101 -0.101,0.266 0,0.367 l 1.091,1.091 c 0.074,0.075 0.185,0.097 0.282,0.056 0.097,-0.04 0.16,-0.134 0.16,-0.239 v -0.64 h 3.903 c 0.288,0 0.523,0.235 0.523,0.523 0,0.085 -0.007,0.429 -0.014,0.48 -0.052,0.301 -0.247,0.487 -0.509,0.487 h -0.458 l 0.061,0.23 c 0.039,0.149 0.068,0.302 0.084,0.453 l 0.019,0.163 h 0.294 c 0.674,-0.002 1.228,-0.499 1.347,-1.21 0.018,-0.11 0.024,-0.6 0.024,-0.606 0,-0.366 -0.143,-0.71 -0.402,-0.969 z"
       fill="#155ea1"
       id="path34" />
    <g
       id="g42">
      <path
         d="m 9.39,8.549 c 0,-0.427 0.366,-0.768 0.802,-0.727 0.38,0.036 0.658,0.377 0.658,0.758 v 3.952 c 0,0.381 -0.279,0.722 -0.658,0.758 C 9.757,13.332 9.39,12.99 9.39,12.563 V 8.548 Z"
         fill="url(#uuid-3ad1fb1c-b576-4203-8afc-a0b652002d39)"
         id="path36"
         style="fill:url(#uuid-3ad1fb1c-b576-4203-8afc-a0b652002d39)" />
      <path
         d="m 15.23,8.549 c 0,-0.427 0.366,-0.768 0.802,-0.727 0.38,0.036 0.658,0.377 0.658,0.758 v 3.952 c 0,0.381 -0.279,0.722 -0.658,0.758 -0.435,0.042 -0.802,-0.3 -0.802,-0.727 V 8.548 Z"
         fill="url(#uuid-8bf92bc2-af51-4860-95b1-96ac950961e9)"
         id="path38"
         style="fill:url(#uuid-8bf92bc2-af51-4860-95b1-96ac950961e9)" />
      <rect
         x="11.398"
         y="8.5489998"
         width="3.2850001"
         height="4.0149999"
         fill="url(#uuid-39eb49ae-4371-40af-be57-402d26cef923)"
         id="rect40"
         style="fill:url(#uuid-39eb49ae-4371-40af-be57-402d26cef923)" />
    </g>
  </g>
</svg>
