<svg
	xmlns="http://www.w3.org/2000/svg"
	xmlns:xlink="http://www.w3.org/1999/xlink" width="18" height="17.705">
	<defs>
		<linearGradient id="A" x1="9.024" y1="2.162" x2="8.899" y2="19.749" xlink:href="#G">
			<stop offset="0" stop-color="#50e6ff"/>
			<stop offset="1" stop-color="#32bedd"/>
		</linearGradient>
		<linearGradient id="B" x1="9.187" y1="13.649" x2="9.187" y2="2.148" xlink:href="#G">
			<stop offset=".001" stop-color="#a33a85"/>
			<stop offset="1" stop-color="#ce74b6"/>
		</linearGradient>
		<linearGradient id="C" x1="2.016" y1="0" x2="2.016" y2="2.805" xlink:href="#G">
			<stop offset="0" stop-color="#50e6ff"/>
			<stop offset="1" stop-color="#32bedd"/>
		</linearGradient>
		<linearGradient id="D" x1="1.401" y1="14.899" x2="1.401" y2="17.704" xlink:href="#G">
			<stop offset="0" stop-color="#50e6ff"/>
			<stop offset="1" stop-color="#32bedd"/>
		</linearGradient>
		<linearGradient id="E" x1="1.402" y1="14.899" x2="1.402" y2="17.704" xlink:href="#G">
			<stop offset="0" stop-color="#50e6ff"/>
			<stop offset="1" stop-color="#32bedd"/>
		</linearGradient>
		<path id="F" d="M.952 17.63c.733.248 1.529-.145 1.778-.878s-.145-1.529-.878-1.778-1.529.145-1.778.878.145 1.529.878 1.778z"/>
		<linearGradient id="G" gradientUnits="userSpaceOnUse"/>
	</defs>
	<path fill="url(#A)" transform="translate(-.001 -.148)" d="M1.619 1.948L8.39 8.72l-7.384 7.33.793.799 7.388-7.333 6.865 6.865.796-.796L2.416 1.152z"/>
	<path d="M17.29 10.047a3.64 3.64 0 0 0-3.156-3.501A4.59 4.59 0 0 0 9.405 2.15c-2.001-.036-3.806 1.198-4.499 3.076a4.34 4.34 0 0 0-3.822 4.178 4.41 4.41 0 0 0 4.573 4.236h7.801a.58.58 0 0 0 .195 0c1.982-.024 3.589-1.611 3.639-3.593z" fill="url(#B)"/>
	<path d="M1.567 2.73c.733.248 1.529-.145 1.778-.878S3.2.323 2.467.074.937.219.688.953s.145 1.529.878 1.778z" fill="url(#C)"/>
	<use xlink:href="#F" fill="url(#D)"/>
	<use xlink:href="#F" x="15.195" y="-0.45" fill="url(#E)"/>
</svg>