<svg
	xmlns="http://www.w3.org/2000/svg" width="18" height="17.276">
	<defs>
		<linearGradient id="A" x1="9" y1="16.28" x2="9" y2="12.971" gradientUnits="userSpaceOnUse">
			<stop offset=".001" stop-color="#37c2b1"/>
			<stop offset="1" stop-color="#3cd4c2"/>
		</linearGradient>
		<linearGradient id="B" x1="8.985" y1="11.952" x2="8.985" y2=".002" gradientUnits="userSpaceOnUse">
			<stop offset="0" stop-color="#0078d4"/>
			<stop offset=".156" stop-color="#1380da"/>
			<stop offset=".528" stop-color="#3c91e5"/>
			<stop offset=".822" stop-color="#559cec"/>
			<stop offset="1" stop-color="#5ea0ef"/>
		</linearGradient>
	</defs>
	<path d="M18 16.28H0l3.332-3.149c.108-.102.251-.16.4-.16H14.68c.083 0 .165.019.24.053a.6.6 0 0 1 .198.147z" fill="url(#A)"/>
	<path d="M0 16.28h18v.41c0 .155-.062.305-.172.414a.59.59 0 0 1-.414.172H.586c-.155 0-.304-.062-.414-.172S0 16.845 0 16.69z" fill="#3cd4c2"/>
	<path d="M17.43 8.212a3.78 3.78 0 0 0-.974-2.426c-.603-.667-1.424-1.097-2.316-1.214-.052-1.256-.598-2.442-1.52-3.297A4.77 4.77 0 0 0 9.22.002a4.91 4.91 0 0 0-4.68 3.19c-1.078.124-2.075.632-2.809 1.431S.574 6.458.54 7.542c.018.608.156 1.206.407 1.76A4.59 4.59 0 0 0 2 10.769c.444.415.967.737 1.537.949s1.176.308 1.784.284h8.309a3.84 3.84 0 0 0 3.8-3.79z" fill="url(#B)"/>
	<path d="M6.36 6.462L9 3.872c.028-.029.061-.052.098-.067s.077-.024.117-.024.08.008.117.024a.3.3 0 0 1 .098.067L12 6.462c.022.018.038.043.045.07s.004.057-.007.083a.13.13 0 0 1-.138.077h-1.62c-.036.002-.071.018-.096.044s-.041.06-.044.096l-.021 5.072c0 .029-.012.057-.032.078a.11.11 0 0 1-.078.032h-1.74c-.029 0-.057-.012-.078-.032a.11.11 0 0 1-.032-.078l.021-5.072c0-.035-.013-.07-.037-.096s-.057-.042-.093-.044h-1.6c-.027.002-.054-.006-.077-.02s-.041-.036-.051-.062-.012-.053-.005-.08.022-.05.043-.068z" fill="#f2f2f2"/>
</svg>