<svg
	xmlns="http://www.w3.org/2000/svg" width="17.007" height="16.991">
	<path fill="#32bedd" d="M8.365 8.36V5.669l2.323-1.347V7.01z"/>
	<path fill="#9cebff" d="M6.04 4.319l2.325-1.35 2.323 1.353-2.323 1.35z"/>
	<path fill="#50e6ff" d="M6.04 7.01V4.319l2.325 1.353V8.36z"/>
	<path fill="#32bedd" d="M5.597 13.135v-2.691l2.322-1.346v2.687z"/>
	<path fill="#9cebff" d="M3.272 9.094l2.325-1.35 2.322 1.354-2.322 1.35z"/>
	<path fill="#50e6ff" d="M3.272 11.785V9.094l2.325 1.354v2.687z"/>
	<path fill="#32bedd" d="M11.222 13.143v-2.691l2.322-1.346v2.687z"/>
	<path fill="#9cebff" d="M8.896 9.102l2.326-1.35 2.322 1.354-2.322 1.35z"/>
	<path fill="#50e6ff" d="M8.896 11.793V9.102l2.326 1.354v2.687z"/>
	<path d="M9.106.014l.536.3.217.12a.288.288 0 0 1 .01.5l-.213.128-.647.391a7.057 7.057 0 0 1 5.137 11.281.158.158 0 0 0-.023.047l-.268 1a.287.287 0 0 0 .352.352l.8-.214a.138.138 0 0 0 .075-.048A8.493 8.493 0 0 0 9.106.014z" fill="#005ba1"/>
	<path d="M13.838 14.673l-.241.064a.287.287 0 0 1-.351-.352l.064-.24.178-.663a7.06 7.06 0 0 1-10.86-1.069.138.138 0 0 0-.052-.047l-.7-.357a.288.288 0 0 0-.418.271l.051 1a.155.155 0 0 0 .027.077 8.561 8.561 0 0 0 1.206 1.379 8.48 8.48 0 0 0 11.766-.241z" fill="#0ff"/>
	<path d="M1.005 11.805l-.013-.249a.287.287 0 0 1 .418-.27l.221.113.575.294A7.062 7.062 0 0 1 8.161 1.436a.137.137 0 0 0 .065-.02l.782-.472a.287.287 0 0 0-.01-.5L8.221.018A.151.151 0 0 0 8.144 0a8.493 8.493 0 0 0-7.1 12.565z" fill="#32bedd"/>
</svg>