<svg
	xmlns="http://www.w3.org/2000/svg" width="17.781" height="15.156">
	<defs>
		<linearGradient id="A" x1="11.352" y1="9.115" x2="11.352" y2=".002" gradientUnits="userSpaceOnUse">
			<stop offset="0" stop-color="#0078d4"/>
			<stop offset=".149" stop-color="#1882db"/>
			<stop offset=".373" stop-color="#378fe4"/>
			<stop offset=".594" stop-color="#4c99ea"/>
			<stop offset=".806" stop-color="#5a9eee"/>
			<stop offset="1" stop-color="#5ea0ef"/>
		</linearGradient>
		<linearGradient id="B" x1="6.374" y1="15.156" x2="6.374" y2="6.04" gradientUnits="userSpaceOnUse">
			<stop offset="0" stop-color="#32bedd"/>
			<stop offset="1" stop-color="#50e6ff"/>
		</linearGradient>
	</defs>
	<path d="M17.781 6.26a2.889 2.889 0 0 0-2.508-2.776 3.641 3.641 0 0 0-3.75-3.482 3.735 3.735 0 0 0-3.57 2.434 3.447 3.447 0 0 0-3.03 3.317 3.5 3.5 0 0 0 3.62 3.362l.319-.014h5.863a.611.611 0 0 0 .155-.023 2.923 2.923 0 0 0 2.901-2.818z" fill="url(#A)"/>
	<g fill="#fff">
		<path d="M9.725 9.579l.018.414.41.055a2.371 2.371 0 0 1 2.058 2.3 2.409 2.409 0 0 1-2.384 2.379h-6.3A2.976 2.976 0 0 1 .45 11.841a2.919 2.919 0 0 1 2.571-2.8l.3-.037.1-.285A3.216 3.216 0 0 1 6.499 6.6h.022a3.116 3.116 0 0 1 3.204 2.979z"/>
		<path d="M13.49 4.239l-1.587-1.538c-.173-.173-.319-.112-.319.156v.691a.194.194 0 0 1-.016.075.183.183 0 0 1-.108.1.194.194 0 0 1-.075.012c-1.02 0-3.864.268-3.967 4.157a.2.2 0 0 0 .2.2h1.01a.2.2 0 0 0 .08-.017.208.208 0 0 0 .067-.047.222.222 0 0 0 .042-.071.2.2 0 0 0 .01-.081 2.386 2.386 0 0 1 2.592-2.878.2.2 0 0 1 .2.2v.639c0 .32.1.372.32.156l1.551-1.425a.193.193 0 0 0 .064-.072.2.2 0 0 0-.064-.257z"/>
	</g>
	<path d="M3.468 15.156A3.469 3.469 0 0 1 0 11.792v-.031a3.417 3.417 0 0 1 3.006-3.282 3.713 3.713 0 0 1 3.545-2.44 3.608 3.608 0 0 1 3.712 3.452h0a2.865 2.865 0 0 1 2.486 2.775v.017a2.9 2.9 0 0 1-2.874 2.868H3.59c-.041.005-.082.005-.122.005zM.99 11.779a2.483 2.483 0 0 0 2.567 2.389H9.87a1.914 1.914 0 0 0 1.89-1.889 1.876 1.876 0 0 0-1.628-1.8l-.822-.11-.035-.828A2.622 2.622 0 0 0 6.58 7.03h-.032a2.72 2.72 0 0 0-2.613 1.79l-.208.571-.6.072A2.425 2.425 0 0 0 .99 11.779z" fill="url(#B)"/>
</svg>