<?xml version="1.0" encoding="UTF-8" standalone="no"?>
<svg
   id="uuid-0c31b75c-7043-4fa6-ac60-2d6adbc0732c"
   width="12.6"
   height="18"
   viewBox="0 0 12.6 18"
   version="1.1"
   xmlns="http://www.w3.org/2000/svg"
   xmlns:svg="http://www.w3.org/2000/svg">
  <defs
     id="defs11" />
  <path
     d="M 11.909,11.297 6.3,13.078 0.691,11.297 C 0.351,11.189 0,11.43 0,11.771 v 3.869 c 0,0.215 0.145,0.406 0.359,0.474 L 6.3,18 12.241,16.114 C 12.455,16.046 12.6,15.855 12.6,15.64 v -3.869 c 0,-0.341 -0.351,-0.582 -0.691,-0.474 z"
     fill="#76d263"
     id="path2" />
  <path
     d="M 12.6,9.641 V 5.772 C 12.6,5.431 12.249,5.19 11.909,5.298 L 6.3,7.079 0.691,5.298 C 0.351,5.19 0,5.431 0,5.772 v 3.869 c 0,0.215 0.145,0.406 0.359,0.474 L 6.3,12.001 12.241,10.115 C 12.455,10.047 12.6,9.856 12.6,9.641 Z"
     fill="#399a91"
     id="path4" />
  <path
     d="M 0,3.64 V 0.5 C 0,0.224 0.235,0 0.525,0 h 11.55 c 0.29,0 0.525,0.224 0.525,0.5 v 3.14 c 0,0.215 -0.145,0.406 -0.359,0.474 L 6.3,6 0.359,4.114 C 0.145,4.046 0,3.855 0,3.64 Z"
     fill="#225b62"
     id="path6" />
</svg>
