<svg
	xmlns="http://www.w3.org/2000/svg" width="17.999" height="9.424">
	<defs>
		<linearGradient id="A" x1="9" y1="9.424" x2="9" y2="0" gradientUnits="userSpaceOnUse">
			<stop offset="0" stop-color="#005ba1"/>
			<stop offset="1" stop-color="#0078d4"/>
		</linearGradient>
	</defs>
	<path d="M.609 9.424h8.663a.606.606 0 0 0 .432-.181l8.119-8.206A.609.609 0 0 0 17.39 0H.609A.608.608 0 0 0 0 .612v8.2a.608.608 0 0 0 .609.612z" fill="url(#A)"/>
	<g fill="#fff">
		<path opacity=".6" d="M6.388 6.855v-2.25l1.941-1.126v2.247z"/>
		<path opacity=".9" d="M4.443 3.476l1.945-1.129 1.941 1.132-1.941 1.129z"/>
		<path opacity=".75" d="M4.443 5.726v-2.25l1.945 1.132v2.247z"/>
	</g>
	<g fill="#0ff">
		<path d="M6.665.829l.246.135.1.055a.132.132 0 0 1 0 .228l-.1.059-.3.178A3.232 3.232 0 0 1 8.964 6.65a.065.065 0 0 0-.011.022l-.123.458a.131.131 0 0 0 .17.161l.365-.1a.067.067 0 0 0 .034-.023A3.888 3.888 0 0 0 6.665.829z" opacity=".75"/>
		<path d="M8.832 7.541l-.11.029a.131.131 0 0 1-.161-.161l.03-.11.081-.3a3.223 3.223 0 0 1-4.346.205 3.286 3.286 0 0 1-.627-.694.061.061 0 0 0-.024-.021l-.319-.164a.131.131 0 0 0-.191.124l.023.459a.077.077 0 0 0 .012.036 3.946 3.946 0 0 0 .552.631 3.884 3.884 0 0 0 5.387-.112z" opacity=".5"/>
		<path d="M2.956 6.228l-.006-.116a.132.132 0 0 1 .191-.124l.1.052.263.134a3.231 3.231 0 0 1 1.859-4.532 3.245 3.245 0 0 1 .87-.163.055.055 0 0 0 .03-.009l.358-.216a.131.131 0 0 0-.005-.227l-.356-.2a.062.062 0 0 0-.035-.008 3.823 3.823 0 0 0-.875.137 3.887 3.887 0 0 0-2.376 5.617z"/>
	</g>
</svg>