<?xml version="1.0" encoding="UTF-8" standalone="no"?>
<svg
   id="uuid-dcba0d1e-38f7-462e-884a-f47ffa717fb3"
   width="17.499001"
   height="17.498074"
   viewBox="0 0 17.499001 17.498074"
   version="1.1"
   xmlns="http://www.w3.org/2000/svg"
   xmlns:svg="http://www.w3.org/2000/svg">
  <defs
     id="defs7">
    <linearGradient
       id="uuid-134de539-7bb7-4eb5-a4be-4453ccf2c963"
       x1="12.948"
       y1="12.804"
       x2="12.948"
       y2="7.7399998"
       gradientUnits="userSpaceOnUse"
       gradientTransform="translate(-0.251,-0.25)">
      <stop
         offset="0"
         stop-color="#005ba1"
         id="stop2" />
      <stop
         offset="1"
         stop-color="#0078d4"
         id="stop4" />
    </linearGradient>
  </defs>
  <path
     d="m 11.311,13.729 c -0.068,-0.039 -0.124,-0.008 -0.124,0.071 0,0 -0.004,1.411 -0.004,1.411 -10e-4,0.484 0.34,1.072 0.76,1.314 0.309,0.175 1.373,0.793 1.664,0.959 0.203,0.085 0.117,-0.241 0,-0.284 0,0 -0.433,-0.25 -0.433,-0.25 -0.558,-0.379 -1.768,-0.75 -1.744,-1.596 0,0 0.004,-1.411 0.004,-1.411 0,-0.078 -0.055,-0.174 -0.123,-0.213 z"
     fill="#bebfbe"
     id="path9" />
  <path
     d="m 16.069,15.772 c -0.28,-0.161 -1.363,-0.785 -1.664,-0.959 -0.179,-0.102 -0.338,-0.303 -0.426,-0.506 -0.156,-0.259 -0.062,-1.495 -0.083,-1.792 0.002,-0.098 -0.103,-0.263 -0.212,-0.222 0,0 -2.462,1.428 -2.462,1.428 0.023,-0.013 0.054,-0.011 0.088,0.009 0.071,0.043 0.122,0.131 0.123,0.213 0,0 -0.004,1.411 -0.004,1.411 -0.015,0.857 1.176,1.208 1.744,1.596 0.134,0.102 0.709,0.297 0.52,0.542 0,0 2.462,-1.428 2.462,-1.428 0.089,-0.074 -0.002,-0.245 -0.087,-0.293 z"
     fill="#d9d9d6"
     id="path11" />
  <path
     d="m 0.014,11.169 0.005,0.549 0.437,-0.07 v -0.48 c 0,0 -0.442,0 -0.442,0 z M 1.88,3.973 2.1,4.354 2.559,4.09 2.339,3.709 Z M 0.546,5.33 C 0.59,5.263 0.657,5.189 0.725,5.146 0.725,5.146 0.501,4.767 0.501,4.767 0.354,4.855 0.229,4.997 0.143,5.145 0.126,5.177 0.093,5.237 0.08,5.271 c 0,0 0.404,0.175 0.404,0.175 C 0.497,5.416 0.528,5.357 0.546,5.33 Z M 0.962,4.502 1.182,4.882 1.641,4.618 1.421,4.238 Z M 0.44,5.879 H 0 c 0,0 0.001,0.53 0.001,0.53 h 0.44 c 0,0 -0.001,-0.53 -0.001,-0.53 z m 0.006,2.116 h -0.44 c 0,0 0.001,0.53 0.001,0.53 h 0.44 c 0,0 -0.001,-0.53 -0.001,-0.53 z M 0.443,6.937 H 0.002 c 0,0 0.001,0.53 0.001,0.53 h 0.44 c 0,0 -0.001,-0.53 -0.001,-0.53 z M 0.452,10.11 H 0.011 c 0,0 0.001,0.53 0.001,0.53 h 0.44 c 0,0 -0.001,-0.53 -0.001,-0.53 z M 0.449,9.052 h -0.44 c 0,0 0.001,0.53 0.001,0.53 h 0.44 c 0,0 -0.001,-0.53 -0.001,-0.53 z m 0.42,2.896 c -0.04,-0.024 -0.12,-0.066 -0.16,-0.091 -0.008,0.015 -0.178,0.303 -0.192,0.328 0,0 -0.03,0.052 -0.03,0.052 0.188,0.135 0.422,0.206 0.639,0.076 0,0 -0.208,-0.388 -0.208,-0.388 -0.033,0.017 -0.051,0.019 -0.049,0.024 z M 2.798,3.445 3.018,3.826 3.477,3.562 3.257,3.181 Z M 7.388,0.8 7.608,1.181 8.067,0.916 7.847,0.535 Z M 9.669,0.212 9.47,0.096 9.248,0.476 c 0.113,0.077 0.219,0.084 0.208,0.184 0,0 0.44,-0.002 0.44,-0.002 0,-0.2 -0.083,-0.364 -0.227,-0.447 z M 9.898,1.155 H 9.457 c 0,0 10e-4,0.53 10e-4,0.53 h 0.44 c 0,0 -10e-4,-0.53 -10e-4,-0.53 z M 8.776,0 C 8.742,0.017 8.334,0.255 8.305,0.271 c 0,0 0.22,0.381 0.22,0.381 L 8.982,0.389 C 8.998,0.38 9.014,0.368 9.028,0.354 8.895,0.23 8.85,0.166 8.776,0.001 Z M 4.634,2.387 4.854,2.767 5.313,2.502 5.093,2.122 Z M 3.716,2.915 3.936,3.296 4.395,3.032 4.175,2.652 3.716,2.916 Z M 6.47,1.328 6.69,1.709 7.149,1.445 6.929,1.064 Z M 5.552,1.858 5.772,2.238 6.231,1.974 6.011,1.593 5.552,1.857 Z"
     fill="#0078d4"
     id="path13" />
  <path
     d="m 11.467,1.001 c 0.25,-0.144 0.454,-0.028 0.455,0.259 l 0.019,6.766 c 0,0.287 -0.202,0.637 -0.452,0.781 L 2.185,14.169 C 1.935,14.313 1.731,14.197 1.73,13.91 L 1.711,7.144 c 0,-0.287 0.202,-0.637 0.452,-0.781 z"
     fill="#155ea1"
     id="path15" />
  <path
     d="m 11.641,0.941 c 0.053,-0.007 0.106,0.005 0.149,0.029 -0.251,-0.113 -0.5,-0.413 -0.773,-0.23 0,0 -9.304,5.361 -9.304,5.361 C 1.659,6.132 1.608,6.175 1.562,6.218 1.389,6.393 1.266,6.633 1.261,6.882 c 0,0 0.019,6.766 0.019,6.766 C 1.246,13.97 1.682,14.057 1.863,14.2 1.782,14.153 1.731,14.052 1.731,13.91 L 1.712,7.144 C 1.714,6.988 1.767,6.834 1.844,6.699 1.922,6.565 2.03,6.443 2.163,6.363 c 0,0 9.304,-5.361 9.304,-5.361 0.057,-0.032 0.112,-0.053 0.174,-0.06 z"
     fill="#2a446f"
     id="path17" />
  <path
     d="m 14.246,2.516 c 0.25,-0.144 0.454,-0.028 0.455,0.259 l 0.019,6.766 c 0,0.287 -0.202,0.637 -0.452,0.781 L 4.964,15.683 C 4.714,15.827 4.51,15.711 4.509,15.424 L 4.49,8.658 c 0,-0.287 0.202,-0.637 0.452,-0.781 z"
     fill="#238cd9"
     id="path19" />
  <path
     d="m 14.42,2.456 c 0.053,-0.007 0.106,0.005 0.149,0.029 -0.251,-0.113 -0.5,-0.413 -0.773,-0.23 0,0 -9.304,5.361 -9.304,5.361 C 4.438,7.647 4.387,7.69 4.341,7.733 4.168,7.908 4.045,8.148 4.04,8.397 c 0,0 0.019,6.766 0.019,6.766 -0.034,0.322 0.402,0.409 0.583,0.552 C 4.561,15.668 4.51,15.567 4.51,15.425 L 4.491,8.659 C 4.493,8.503 4.546,8.349 4.623,8.214 4.701,8.08 4.809,7.958 4.942,7.878 c 0,0 9.304,-5.361 9.304,-5.361 0.057,-0.032 0.112,-0.053 0.174,-0.06 z"
     fill="#0078d4"
     id="path21" />
  <path
     d="m 17.025,3.564 c 0.25,-0.144 0.454,-0.028 0.455,0.259 l 0.019,6.766 c 0,0.287 -0.202,0.637 -0.452,0.781 L 7.743,16.731 C 7.493,16.875 7.289,16.759 7.288,16.472 L 7.269,9.706 c 0,-0.287 0.202,-0.637 0.452,-0.781 z"
     fill="#8dc8e8"
     id="path23" />
  <path
     d="m 17.199,3.504 c 0.053,-0.007 0.106,0.005 0.149,0.029 -0.251,-0.113 -0.5,-0.413 -0.773,-0.23 0,0 -9.304,5.361 -9.304,5.361 -0.262,0.164 -0.443,0.471 -0.452,0.781 0,0 0.019,6.766 0.019,6.766 C 6.804,16.533 7.24,16.62 7.421,16.763 7.34,16.716 7.289,16.615 7.289,16.473 L 7.27,9.707 C 7.272,9.551 7.325,9.397 7.402,9.262 7.48,9.128 7.588,9.006 7.721,8.926 c 0,0 9.304,-5.361 9.304,-5.361 0.057,-0.032 0.112,-0.053 0.174,-0.06 z"
     fill="#46a0de"
     id="path25" />
  <path
     d="m 14.016,7.577 c -0.033,0.091 -0.024,0.176 0.029,0.206 1.648,0.955 -0.651,5.554 -2.698,4.655 -1.306,-0.689 -0.091,-3.788 1.261,-4.469 -0.002,0.053 -0.07,0.29 0.06,0.184 0,0 0.615,-0.623 0.615,-0.623 0.039,-0.022 0.069,-0.017 0.108,-0.026 0.21,-0.032 0.435,-0.012 0.625,0.072 z"
     fill="url(#uuid-134de539-7bb7-4eb5-a4be-4453ccf2c963)"
     id="path27"
     style="fill:url(#uuid-134de539-7bb7-4eb5-a4be-4453ccf2c963)" />
  <path
     d="m 11.522,9.98 c 0.185,0.019 1.005,0.104 1.173,0.122 0.005,0.333 -0.003,1.228 -0.004,1.572 0,0 -1.176,-0.122 -1.176,-0.122 0,-0.01 0.007,-1.564 0.007,-1.572 z"
     fill="#9cebff"
     id="path29" />
  <polygon
     points="12.95,11.914 12.947,10.877 12.95,10.353 14.123,8.882 14.127,10.448 "
     fill="#50e6ff"
     id="polygon31"
     transform="translate(-0.251,-0.25)" />
  <polygon
     points="12.945,10.349 12.695,10.326 11.773,10.23 12.941,8.776 14.123,8.882 "
     fill="#c3f1ff"
     id="polygon33"
     transform="translate(-0.251,-0.25)" />
  <path
     d="m 12.749,7.201 c 0.013,-0.008 0.026,-0.01 0.037,-0.007 0.008,0.008 0.574,0.16 0.547,0.188 0.08,0.114 -0.616,0.689 -0.662,0.771 -0.128,0.106 -0.065,-0.132 -0.06,-0.184 -0.476,0.298 -0.929,0.786 -1.265,1.367 -1.09,1.781 -0.544,3.986 1.36,2.967 1.377,-0.637 2.686,-3.786 1.343,-4.52 -0.072,-0.035 -0.053,-0.185 0,-0.266 0.05,-0.084 0.139,-0.17 0.227,-0.131 0.412,0.235 0.649,0.736 0.659,1.399 0.022,1.406 -0.96,3.139 -2.196,3.872 -1.212,0.727 -2.26,0.198 -2.276,-1.218 -0.022,-1.406 0.96,-3.139 2.195,-3.872 0.02,-0.07 0.004,-0.33 0.092,-0.365 z"
     fill="#ffffff"
     id="path35" />
</svg>
