<svg
	xmlns="http://www.w3.org/2000/svg" width="18" height="13.961">
	<defs>
		<linearGradient id="A" x1="5.782" y1="0" x2="5.782" y2="13.96" gradientUnits="userSpaceOnUse">
			<stop offset="0" stop-color="#5ea0ef"/>
			<stop offset="1" stop-color="#0078d4"/>
		</linearGradient>
	</defs>
	<path d="M4.667 3.561H.319A.319.319 0 0 1 0 3.242V.319A.319.319 0 0 1 .319 0h4.348a.319.319 0 0 1 .319.319v2.923a.319.319 0 0 1-.319.319zm0 5.2H.319A.319.319 0 0 1 0 8.441V5.518a.319.319 0 0 1 .319-.319h4.348a.319.319 0 0 1 .319.319v2.923a.319.319 0 0 1-.319.319zm6.578-5.2H6.9a.319.319 0 0 1-.32-.319V.319A.319.319 0 0 1 6.9 0h4.347a.319.319 0 0 1 .319.319v2.923a.319.319 0 0 1-.321.319zm0 10.4H6.9a.32.32 0 0 1-.32-.32v-2.924a.319.319 0 0 1 .32-.319h4.347a.319.319 0 0 1 .319.319v2.923a.319.319 0 0 1-.321.32zm-6.578 0H.319A.319.319 0 0 1 0 13.64v-2.923a.319.319 0 0 1 .319-.319h4.348a.319.319 0 0 1 .319.319v2.923a.319.319 0 0 1-.319.32z" fill="url(#A)"/>
	<path d="M13.217 1.969l4.622 4.621a.551.551 0 0 1 0 .779l-4.622 4.622a.246.246 0 0 1-.42-.174V8.975a.246.246 0 0 0-.246-.246H6.775a.2.2 0 0 1-.2-.2v-3.1a.2.2 0 0 1 .2-.2h5.776a.246.246 0 0 0 .246-.246v-2.84a.246.246 0 0 1 .42-.174z" fill="#86d633"/>
</svg>