<svg
	xmlns="http://www.w3.org/2000/svg" width="17.626" height="18">
	<defs>
		<linearGradient id="A" x1="10.276" y1="15.888" x2="10.276" y2="-2.112" gradientUnits="userSpaceOnUse">
			<stop offset="0" stop-color="#0078d4"/>
			<stop offset="1" stop-color="#5ea0ef"/>
		</linearGradient>
		<linearGradient id="B" x1="6.992" y1=".537" x2="6.992" y2="12.51" gradientUnits="userSpaceOnUse">
			<stop offset="0" stop-color="#50e6ff"/>
			<stop offset="1" stop-color="#32bedd"/>
		</linearGradient>
	</defs>
	<rect x="2.926" width="14.7" height="18" rx=".6" fill="url(#A)"/>
	<rect y="1.867" width="13.985" height="7.291" rx=".541" fill="url(#B)"/>
	<g fill="#fff">
		<path d="M11.7 4.423H4.882a.122.122 0 0 1-.124-.12V3.9a.123.123 0 0 1 .123-.123h6.818a.124.124 0 0 1 .124.123v.4a.122.122 0 0 1-.122.123zm-7.9.291V3.488a.212.212 0 0 0-.212-.212H2.36a.212.212 0 0 0-.212.211h0v1.227a.211.211 0 0 0 .211.211h1.227a.211.211 0 0 0 .212-.211z"/>
		<path d="M11.699 7.023H4.882a.124.124 0 0 1-.124-.123h0v-.406a.124.124 0 0 1 .124-.124h6.816a.125.125 0 0 1 .124.124v.4a.125.125 0 0 1-.123.125zm-8.206-.829H2.47v1.02h1.023v-1.02m.107-.321a.216.216 0 0 1 .213.214V7.32a.214.214 0 0 1-.214.213H2.363a.213.213 0 0 1-.213-.213V6.083a.213.213 0 0 1 .213-.213z" opacity=".8"/>
	</g>
	<path d="M13.195 11.108a.121.121 0 0 0-.084-.035.118.118 0 0 0-.117.119v1.365h0v.122H2.926v1.773h10.068v1.385a.118.118 0 0 0 .2.084l2.324-2.321h0a.117.117 0 0 0 0-.166z" fill="#83b9f9"/>
</svg>