<svg
	xmlns="http://www.w3.org/2000/svg" width="18" height="18" fill="none">
	<path fill-rule="evenodd" d="M12.601 2.768L12.6.675l-.006-.092C12.549.254 12.267 0 11.925 0l-.092.006-.088.018c-.286.079-.495.34-.495.651v2.024H9.674L9.675.675 9.669.583C9.624.254 9.342 0 9 0l-.092.006c-.329.045-.583.327-.583.669l-.001 2.024H6.75V.675L6.744.583C6.699.254 6.417 0 6.075 0 5.702 0 5.4.302 5.4.675v2.092a3.38 3.38 0 0 0-2.633 2.632L.675 5.4l-.092.006C.254 5.451 0 5.733 0 6.075l.006.092c.045.329.327.583.669.583L2.7 6.749v1.575l-2.025.001-.092.006C.254 8.376 0 8.658 0 9l.006.092c.045.329.327.583.669.583L2.7 9.674v1.575l-2.025.001-.092.006c-.329.045-.583.327-.583.669 0 .373.302.675.675.675h2.093A3.38 3.38 0 0 0 5.4 15.233v2.092l.006.092c.045.329.327.583.669.583l.092-.006c.329-.045.583-.327.583-.669v-2.026h1.574l.001 2.026.006.092c.045.329.327.583.669.583l.092-.006c.329-.045.583-.327.583-.669l-.001-2.026h1.576v2.026l.006.092c.045.329.327.583.669.583.373 0 .675-.302.675-.675l.001-2.093a3.38 3.38 0 0 0 2.631-2.628h2.093l.092-.006c.329-.045.583-.327.583-.669l-.006-.091c-.045-.329-.327-.583-.669-.583H15.3V9.679h2.025l.092-.006c.329-.045.583-.327.583-.669l-.006-.092c-.045-.329-.327-.583-.669-.583H15.3V6.754h2.025l.092-.006c.329-.045.583-.327.583-.669 0-.373-.302-.675-.675-.675h-2.092a3.38 3.38 0 0 0-2.633-2.636zm1.805 3.086l-.055-.271a2.48 2.48 0 0 0-1.93-1.932l-.271-.055v.005h-6.3v-.005l-.271.055a2.48 2.48 0 0 0-1.93 1.929l-.055.27H3.6v6.3h-.006l.055.272a2.48 2.48 0 0 0 1.93 1.93l.271.055v-.006h6.3v.006l.271-.055a2.48 2.48 0 0 0 1.928-1.926l.055-.271H14.4v-6.3z" fill="url(#A)"/>
	<path d="M14.351 5.582l.055.271H14.4v6.3h.005l-.055.271a2.48 2.48 0 0 1-1.928 1.926l-.271.055v-.006h-6.3v.006l-.271-.055a2.48 2.48 0 0 1-1.93-1.93l-.055-.272H3.6v-6.3h-.005l.055-.27a2.48 2.48 0 0 1 1.93-1.929l.271-.055v.005h6.3v-.005l.271.055a2.48 2.48 0 0 1 1.93 1.932z" fill="url(#A)"/>
	<path d="M4.693 9.045l.296-.295 2.328 2.335c.025.025.039.059.039.095s-.014.069-.039.095l-.296.295c-.025.025-.059.039-.095.039s-.07-.014-.095-.039l-2.14-2.146c-.05-.05-.078-.118-.078-.189s.028-.139.079-.189z" fill="url(#B)"/>
	<path d="M4.984 9.72l-.295-.296c-.05-.05-.078-.118-.078-.189s.028-.139.079-.189l2.183-2.177c.025-.025.059-.039.095-.039s.07.014.095.039l.295.296c.025.025.039.059.039.095s-.014.07-.039.095z" fill="#f2f2f2"/>
	<path d="M10.98 11.571l-.296-.295c-.012-.012-.022-.027-.029-.043s-.01-.034-.01-.051.003-.035.01-.051.017-.031.029-.043l2.331-2.338.296.295c.05.05.079.118.079.189s-.028.139-.078.189l-2.143 2.149c-.025.025-.059.039-.095.039s-.07-.014-.095-.039z" fill="url(#C)"/>
	<path d="M10.639 7.166l.295-.296c.025-.025.059-.039.095-.039s.07.014.095.039l2.183 2.177c.05.05.079.118.079.189s-.028.139-.078.189l-.295.296-2.371-2.364c-.013-.012-.023-.027-.03-.043s-.011-.034-.011-.052.003-.035.01-.052.017-.031.029-.044zm-.368-1.031l-.472-.151c-.05-.016-.104.012-.12.062l-1.926 6.015c-.016.05.012.104.062.12l.472.151c.05.016.104-.012.12-.062l1.926-6.015c.016-.05-.012-.104-.062-.12z" fill="#f2f2f2"/>
	<defs>
		<linearGradient id="A" x1="9" y1="18" x2="9" y2="0" gradientUnits="userSpaceOnUse">
			<stop stop-color="#0078d4"/>
			<stop offset=".156" stop-color="#1380da"/>
			<stop offset=".528" stop-color="#3c91e5"/>
			<stop offset=".822" stop-color="#559cec"/>
			<stop offset="1" stop-color="#5ea0ef"/>
		</linearGradient>
		<linearGradient id="B" x1="4.613" y1="10.181" x2="7.359" y2="10.181" gradientUnits="userSpaceOnUse">
			<stop stop-color="#5ea0ef"/>
			<stop offset=".372" stop-color="#9fc6f5"/>
			<stop offset=".8" stop-color="#e4effc"/>
			<stop offset="1" stop-color="#fff"/>
		</linearGradient>
		<linearGradient id="C" x1="10.644" y1="10.181" x2="13.389" y2="10.181" gradientUnits="userSpaceOnUse">
			<stop stop-color="#fff"/>
			<stop offset=".2" stop-color="#e4effc"/>
			<stop offset=".628" stop-color="#9fc6f5"/>
			<stop offset="1" stop-color="#5ea0ef"/>
		</linearGradient>
	</defs>
</svg>