<svg
	xmlns="http://www.w3.org/2000/svg"
	xmlns:xlink="http://www.w3.org/1999/xlink" width="18" height="18" fill="none">
	<path d="M17.097 0H.903C.404 0 0 .371 0 .828v16.344c0 .457.404.828.903.828h16.195c.498 0 .903-.371.903-.828V.828C18 .371 17.596 0 17.097 0z" fill="url(#A)"/>
	<path d="M3.193 4.392v-.929c.002-.034.01-.068.025-.099s.035-.059.061-.082.055-.041.088-.052a.27.27 0 0 1 .101-.015h10.923a.24.24 0 0 1 .099.015.25.25 0 0 1 .085.053c.024.023.044.051.057.082a.25.25 0 0 1 .02.098v1.438a.25.25 0 0 1-.02.098c-.013.031-.033.059-.057.082a.25.25 0 0 1-.085.053.24.24 0 0 1-.099.015c-.034-.002-.069-.003-.101-.015a.28.28 0 0 1-.088-.052c-.026-.023-.046-.051-.061-.082a.26.26 0 0 1-.025-.099V3.712H3.742v.68c-.002.034-.01.068-.025.099s-.035.059-.061.082-.055.041-.088.052a.27.27 0 0 1-.101.015c-.069 0-.135-.025-.186-.071a.27.27 0 0 1-.089-.178zm-1.335.131V2.43c.002-.034.01-.068.025-.099s.035-.059.061-.082.055-.041.088-.052a.27.27 0 0 1 .101-.015l13.513-.17c.036-.001.073.005.106.019s.064.034.09.06a.2.2 0 0 1 .059.076.21.21 0 0 1 .019.094v3.728h-.536V2.521l-12.977.157v1.844z" fill="#9cebff"/>
	<path d="M12.11 8.244V2.526c0-.146-.216-.265-.482-.265H6.826c-.266 0-.482.118-.482.265v5.718c0 .146.216.265.482.265h4.802c.266 0 .482-.118.482-.265z" fill="url(#B)"/>
	<g fill="#2a4e77">
		<use xlink:href="#C"/>
		<use xlink:href="#C" x="3.019"/>
		<path d="M13.515 9.286V1.329c0-.203-.325-.368-.727-.368h-7.24c-.401 0-.727.165-.727.368v7.958c0 .203.325.368.727.368h7.24c.401 0 .727-.165.727-.368zM1.923 4.759v9.067c0 .297.155.538.346.538h.758c.191 0 .346-.241.346-.538V4.759c0-.297-.155-.538-.346-.538h-.758c-.191 0-.346.241-.346.538zm12.679.686v8.419c0 .276.155.5.346.5h.758c.191 0 .346-.224.346-.5V5.445c0-.276-.155-.5-.346-.5h-.758c-.191 0-.346.224-.346.5zM8.081 16.356c0 .5.405.906.906.906s.906-.405.906-.906-.405-.906-.906-.906-.906.405-.906.906z"/>
	</g>
	<defs>
		<linearGradient id="A" x1="0" y1="9" x2="18" y2="9" gradientUnits="userSpaceOnUse">
			<stop stop-color="#5ea0ef"/>
			<stop offset="1" stop-color="#83b9f9"/>
		</linearGradient>
		<linearGradient id="B" x1="9.227" y1="2.261" x2="9.227" y2="8.509" gradientUnits="userSpaceOnUse">
			<stop stop-color="#5ea0ef"/>
			<stop offset="1" stop-color="#83b9f9"/>
		</linearGradient>
		<path id="C" d="M6.994 13.341v1.079c0 .035.129.064.288.064h.631c.159 0 .288-.029.288-.064v-1.079c0-.035-.129-.064-.288-.064h-.631c-.159 0-.288.029-.288.064z"/>
	</defs>
</svg>