<svg
	xmlns="http://www.w3.org/2000/svg" width="18" height="14" fill="none">
	<path d="M.876 1.504C1.168.58 1.941 0 2.784 0h12.339c.863 0 1.648.607 1.935 1.557 1.285 4.247 1.223 7.044.01 10.914-.293.935-1.072 1.53-1.926 1.53H2.868c-.885 0-1.684-.64-1.96-1.621C-.274 8.163-.32 5.298.876 1.504z" fill="#0078d4"/>
	<path d="M14 12.889A1.89 1.89 0 0 0 15.889 11 1.89 1.89 0 0 0 14 9.111 1.89 1.89 0 0 0 12.111 11 1.89 1.89 0 0 0 14 12.889z" fill="#fff"/>
	<path fill-rule="evenodd" d="M15.402 9.734c-.085-.094-.179-.179-.281-.255l-1.218 1.401.269.269z" fill="#00188f"/>
	<g fill="#fff">
		<circle cx="8.544" cy="11.544" r=".544"/>
		<circle cx="6.544" cy="11.544" r=".544"/>
		<rect x="2.041" y="11.134" width="3" height="1" rx=".5"/>
	</g>
	<path d="M2.412 2.041a.37.37 0 0 1 .371-.371h12.433a.37.37 0 0 1 .371.371v5.196a.37.37 0 0 1-.371.371H2.783a.37.37 0 0 1-.371-.371z" fill="url(#A)"/>
	<defs>
		<linearGradient id="A" x1="2.412" y1="4.639" x2="15.588" y2="4.639" gradientUnits="userSpaceOnUse">
			<stop stop-color="#5ea0ef"/>
			<stop offset="1" stop-color="#83b9f9"/>
		</linearGradient>
	</defs>
</svg>