<svg
	xmlns="http://www.w3.org/2000/svg"
	xmlns:xlink="http://www.w3.org/1999/xlink" width="18" height="18" fill="none">
	<use xlink:href="#C" fill="url(#A)"/>
	<g fill-rule="evenodd">
		<path d="M2 2h14v8.667H9.508l-2.901-4.19-.548.379 2.638 3.81H2z" fill="url(#A)"/>
		<path d="M2 0a2 2 0 0 0-2 2v14a2 2 0 0 0 2 2h14a2 2 0 0 0 2-2V2a2 2 0 0 0-2-2z" fill="url(#A)"/>
	</g>
	<use xlink:href="#C" fill="url(#B)"/>
	<path fill-rule="evenodd" d="M1.333 1.333h15.333v10H1.333z" fill="url(#B)"/>
	<path d="M1.667 16.333h1.667v-.667H1.667z" fill="url(#B)"/>
	<path d="M16.333 16.333h-1.667v-.667h1.667z" fill="url(#B)"/>
	<use xlink:href="#C" fill-rule="evenodd" fill="url(#B)"/>
	<g fill="#005ba1">
		<use xlink:href="#C"/>
		<path d="M1.667 16.333h1.667v-.667H1.667zm14.666 0h-1.667v-.667h1.667z"/>
		<path fill-rule="evenodd" d="M16.667 1.333H1.333v10h15.333zM16 2H2v8.667h6.697.811H16z"/>
	</g>
	<path d="M6.377 6.02c-.144.055-.258.155-.316.281s-.056.264.005.387l2.39 4.636 1.089-.41-2.392-4.639c-.063-.122-.179-.217-.325-.264s-.308-.044-.452.01z" fill="#0078d4"/>
	<path d="M10.882 11.842a1.6 1.6 0 1 0-3.201.122 1.6 1.6 0 1 0 3.201-.122z" fill="#767676"/>
	<defs>
		<linearGradient id="A" x1="9" y1="17.951" x2="9" y2=".049" gradientUnits="userSpaceOnUse">
			<stop offset=".09" stop-color="#32bedd"/>
			<stop offset="1" stop-color="#50e6ff"/>
		</linearGradient>
		<linearGradient id="B" x1="9.083" y1="0" x2="9.083" y2="18.084" gradientUnits="userSpaceOnUse">
			<stop stop-color="#c3f1ff"/>
			<stop offset=".999" stop-color="#9cebff"/>
		</linearGradient>
		<path id="C" d="M5.312 5.373l-.389-.595c.377-.246.835-.482 1.375-.672l.424.804.59-.311-.363-.688c.513-.129 1.085-.215 1.718-.238v.772h.667v-.772A8.29 8.29 0 0 1 11 3.897l-.319.684.604.282.362-.776a6.41 6.41 0 0 1 1.491.732l-.43.527.517.421.442-.543c.277.243.472.472.59.654l.004.006-.43.586.537.395.703-.957-.255-.392c-.2-.307-.533-.672-.993-1.025-.557-.427-1.309-.846-2.258-1.13C10.827 3.139 9.972 3 9 3c-2.158 0-3.734.686-4.731 1.42-.509.375-.873.767-1.085 1.094l-.255.392.703.957.537-.395-.43-.586.004-.006c.126-.194.339-.442.645-.701l.367.562z"/>
	</defs>
</svg>