<svg
	xmlns="http://www.w3.org/2000/svg"
	xmlns:xlink="http://www.w3.org/1999/xlink" width="18" height="17.985" fill="none">
	<path d="M15.733 3.502l-1.238-.032h-.148l-2.19-.327-1.407-.622L9.861 0 7.819.021l-.095.285L7.025 2.5l-1.407.601-2.391-1.055L1.809 3.47l.148.285 1.058 2.036-.561 1.403L0 8.112v2.057l.286.095 2.201.675.603 1.403-1.058 2.394 1.471 1.424.264-.148 2.042-1.055.656.802 1.693 2.226h2.042l.095-.285.73-1.287 1.164-.58 2.306-.137 1.439-1.466v-.137l.286-1.055.836-2.5zM9.004 13.597c-.917.002-1.813-.268-2.576-.775a4.61 4.61 0 0 1-1.707-2.073c-.35-.845-.441-1.774-.26-2.67s.624-1.718 1.275-2.362a4.63 4.63 0 0 1 2.378-1.255c.9-.174 1.831-.077 2.676.278a4.62 4.62 0 0 1 2.068 1.716 4.6 4.6 0 0 1 .759 2.574c-.008 1.214-.498 2.376-1.362 3.232a4.62 4.62 0 0 1-3.251 1.336z" fill="url(#A)"/>
	<path d="M9.003 12.745c.047.088.14.16.258.201l4.356 1.708c.166.065.352.101.541.105s.377-.024.548-.082l3.065-1.319c.048-.017.09-.042.123-.073s.054-.068.062-.106c.002-.013.002-.027 0-.041-.016-.052-.049-.1-.096-.141a.48.48 0 0 0-.173-.095l-4.348-1.707a1.58 1.58 0 0 0-.541-.106c-.189-.004-.377.024-.548.082l-3.074 1.317a.28.28 0 0 0-.153.104c-.032.047-.039.101-.02.152z" fill="url(#B)"/>
	<path d="M15.022 17.543l-.009.011-.252.107-.011.006c-.171.058-.359.086-.548.082s-.374-.04-.541-.106l-4.356-1.707c-.213-.087-.303-.205-.26-.309l-.047-2.883c.047.088.14.16.258.201l4.356 1.708c.166.065.352.101.541.105s.377-.024.548-.082l.012-.006 3.052-1.314c.048-.017.09-.042.122-.073s.053-.068.062-.106l.048 2.95a.12.12 0 0 1 0 .041c-.009.038-.031.075-.063.106a.34.34 0 0 1-.122.074l-.112.047z" fill="#003067"/>
	<path fill-rule="evenodd" d="M11.153 14.336l-1.44-.604v.232l1.44.604zm0 .592l-1.434-.601v.232l1.434.601zm.24.333v-.232l1.749.733v.232zm-.24.263l-1.434-.601v.232l1.434.601zm.24.333v-.232l1.749.733v.232zm0-1.188v-.232l1.742.731v.232z" fill="#32b0e7"/>
	<path d="M16.807 14.77c-.115-.049-.115-.205 0-.351s.311-.226.42-.173.114.205 0 .35-.309.222-.42.174z" fill="#50e6ff"/>
	<path d="M9.003 8.358a.45.45 0 0 0 .258.2l4.349 1.705c.166.065.351.101.54.105a1.61 1.61 0 0 0 .547-.082l3.06-1.317c.048-.017.09-.042.122-.073s.053-.067.062-.106a.12.12 0 0 0 0-.041c-.016-.052-.049-.1-.095-.141s-.106-.073-.173-.094l-4.341-1.704a1.58 1.58 0 0 0-.54-.105 1.61 1.61 0 0 0-.547.082L9.175 8.102a.28.28 0 0 0-.152.104c-.032.047-.039.101-.02.151z" fill="url(#C)"/>
	<path d="M15.012 13.149l-.009.011-.252.107-.011.006a1.61 1.61 0 0 1-.547.082 1.58 1.58 0 0 1-.54-.105l-4.349-1.704c-.213-.087-.303-.205-.259-.309l-.047-2.878a.45.45 0 0 0 .258.2l4.349 1.705a1.58 1.58 0 0 0 .54.105 1.61 1.61 0 0 0 .547-.082l.012-.006 3.047-1.312c.048-.017.09-.042.122-.073s.053-.067.061-.106l.048 2.945a.12.12 0 0 1 0 .04c-.009.038-.031.074-.063.106s-.074.056-.122.073l-.112.047z" fill="#003067"/>
	<path fill-rule="evenodd" d="M11.149 9.947l-1.438-.603v.232l1.438.603zm0 .591l-1.431-.6v.232l1.431.6zm.24.332v-.232l1.746.732v.232zm-.24.262l-1.431-.6v.232l1.431.6zm.24.332v-.232l1.746.732v.232zm0-1.186v-.232l1.74.729v.232z" fill="#32b0e7"/>
	<use xlink:href="#E" fill="#50e6ff"/>
	<path d="M9.003 3.707a.45.45 0 0 0 .258.2l4.349 1.705a1.58 1.58 0 0 0 .54.105 1.61 1.61 0 0 0 .547-.082l3.06-1.317c.048-.017.09-.042.122-.073s.053-.067.062-.106a.12.12 0 0 0 0-.041c-.016-.052-.049-.1-.095-.141s-.106-.073-.173-.094L13.332 2.16a1.58 1.58 0 0 0-.54-.105 1.61 1.61 0 0 0-.547.082L9.175 3.451a.28.28 0 0 0-.152.104c-.032.047-.039.101-.02.151z" fill="url(#D)"/>
	<path d="M15.012 8.497l-.009.011-.252.107-.011.006a1.61 1.61 0 0 1-.547.082 1.58 1.58 0 0 1-.54-.105L9.304 6.893c-.213-.087-.303-.205-.259-.309l-.047-2.878a.45.45 0 0 0 .258.2l4.349 1.705a1.58 1.58 0 0 0 .54.105c.189.004.376-.024.547-.082l.012-.006 3.047-1.312c.048-.017.09-.042.122-.073s.053-.067.061-.106l.048 2.945a.12.12 0 0 1 0 .041.22.22 0 0 1-.063.106.34.34 0 0 1-.122.074l-.112.047z" fill="#003067"/>
	<path fill-rule="evenodd" d="M11.149 5.295l-1.438-.603v.232l1.438.603zm0 .591l-1.431-.6v.232l1.431.6zm.24.332v-.232l1.746.732v.232zm-.24.262l-1.431-.6v.232l1.431.6zm.24.333v-.232l1.746.732v.232zm0-1.186v-.232l1.74.729v.232z" fill="#32b0e7"/>
	<use xlink:href="#E" y="-4.652" fill="#50e6ff"/>
	<defs>
		<linearGradient id="A" x1="8.528" y1="0" x2="8.528" y2="17.985" gradientUnits="userSpaceOnUse">
			<stop stop-color="#7a7a7a"/>
			<stop offset="1" stop-color="#454545"/>
		</linearGradient>
		<linearGradient id="B" x1="13.475" y1="11.09" x2="13.475" y2="14.759" gradientUnits="userSpaceOnUse">
			<stop stop-color="#5ea0ef"/>
			<stop offset=".18" stop-color="#559cec"/>
			<stop offset=".47" stop-color="#3c91e5"/>
			<stop offset=".84" stop-color="#1380da"/>
			<stop offset="1" stop-color="#0078d4"/>
		</linearGradient>
		<linearGradient id="C" x1="13.468" y1="6.706" x2="13.468" y2="10.369" gradientUnits="userSpaceOnUse">
			<stop stop-color="#5ea0ef"/>
			<stop offset=".18" stop-color="#559cec"/>
			<stop offset=".47" stop-color="#3c91e5"/>
			<stop offset=".84" stop-color="#1380da"/>
			<stop offset="1" stop-color="#0078d4"/>
		</linearGradient>
		<linearGradient id="D" x1="13.468" y1="2.054" x2="13.468" y2="5.718" gradientUnits="userSpaceOnUse">
			<stop stop-color="#5ea0ef"/>
			<stop offset=".18" stop-color="#559cec"/>
			<stop offset=".47" stop-color="#3c91e5"/>
			<stop offset=".84" stop-color="#1380da"/>
			<stop offset="1" stop-color="#0078d4"/>
		</linearGradient>
		<path id="E" d="M16.794 10.38c-.115-.048-.115-.205 0-.35s.311-.225.419-.172.113.205 0 .349-.309.222-.419.173z"/>
	</defs>
</svg>