<svg
	xmlns="http://www.w3.org/2000/svg" width="18" height="13.308" fill="none">
	<path d="M.021 3.307c.095.177.279.32.516.401l8.705 3.413c.333.13.703.203 1.08.211s.753-.048 1.096-.163l6.125-2.636a.67.67 0 0 0 .245-.147.43.43 0 0 0 .125-.212.24.24 0 0 0 0-.081c-.032-.104-.098-.2-.191-.282s-.212-.147-.347-.189L8.685.212a3.16 3.16 0 0 0-1.08-.211c-.378-.008-.753.048-1.096.164L.366 2.796a.56.56 0 0 0-.305.209c-.063.094-.078.202-.04.303z" fill="url(#A)"/>
	<path d="M12.049 12.896l-.019.023-.504.214-.022.011a3.22 3.22 0 0 1-1.096.164 3.16 3.16 0 0 1-1.08-.211L.624 9.685c-.426-.174-.606-.41-.519-.618l-.093-5.76c.095.177.279.32.516.401l8.705 3.413c.333.13.703.203 1.08.211s.753-.048 1.096-.163l.025-.011 6.1-2.627c.096-.034.18-.084.244-.147s.106-.135.123-.212l.096 5.896a.24.24 0 0 1 0 .081.44.44 0 0 1-.126.211.68.68 0 0 1-.244.147l-.224.095z" fill="#003067"/>
	<path fill-rule="evenodd" d="M4.317 6.487L1.439 5.281v.464l2.878 1.207zm0 1.183L1.452 6.469v.464l2.865 1.201zm.48.666v-.464l3.495 1.465v.464zm-.48.525L1.452 7.659v.464l2.865 1.201zm.48.666v-.464l3.495 1.465v.464zm0-2.373v-.464l3.482 1.46v.464z" fill="#32b0e7"/>
	<path d="M15.615 7.354c-.23-.097-.23-.41 0-.701s.622-.451.839-.345.227.41 0 .699-.619.444-.839.347z" fill="#50e6ff"/>
	<defs>
		<linearGradient id="A" x1="8.958" y1="0" x2="8.958" y2="7.333" gradientUnits="userSpaceOnUse">
			<stop stop-color="#5ea0ef"/>
			<stop offset=".18" stop-color="#559cec"/>
			<stop offset=".47" stop-color="#3c91e5"/>
			<stop offset=".84" stop-color="#1380da"/>
			<stop offset="1" stop-color="#0078d4"/>
		</linearGradient>
	</defs>
</svg>