<svg
	xmlns="http://www.w3.org/2000/svg"
	xmlns:xlink="http://www.w3.org/1999/xlink" width="18" height="6.295" fill="none">
	<path d="M4.722 6.08c0 .118.163.214.363.214h7.93c.038 0 .076-.004.112-.013s.068-.022.095-.039.049-.037.064-.059.023-.046.023-.07V2.835c0-.049-.031-.095-.085-.13s-.129-.054-.206-.054h-.003-.15-7.559-.224c-.201 0-.363.096-.363.214z" fill="url(#A)"/>
	<g fill="#fff">
		<use xlink:href="#E" opacity=".6"/>
		<use xlink:href="#E" x="7.157" opacity=".6"/>
		<use xlink:href="#E" x="7.157" y="2.675" opacity=".6"/>
		<use xlink:href="#E" y="2.675" opacity=".6"/>
		<path opacity=".7" d="M6.242 3.593H6.11c-.062 0-.113.031-.113.07v1.623c0 .039.051.07.113.07h.132c.062 0 .113-.031.113-.07V3.662c0-.039-.051-.07-.113-.07z"/>
		<use xlink:href="#F" opacity=".7"/>
		<use xlink:href="#F" x="0.58" opacity=".7"/>
	</g>
	<g fill="#004c87">
		<path d="M2.335 3.905a.42.42 0 0 1-.422.419.42.42 0 0 1-.422-.419.42.42 0 0 1 .422-.419.42.42 0 0 1 .422.419zm13.779.419a.42.42 0 0 0 .422-.419.422.422 0 1 0-.844 0 .42.42 0 0 0 .422.419z"/>
		<path fill-rule="evenodd" d="M4.117 2.347A1.83 1.83 0 0 1 5.954.521h6.118a1.83 1.83 0 0 1 1.837 1.825V3.7c0 1.296 1.057 2.347 2.362 2.347.335-.013.59-.106.896-.208l-.157-.497-.739.183A1.83 1.83 0 0 1 14.434 3.7V2.347C14.434 1.051 13.377 0 12.072 0H5.954C4.65 0 3.593 1.051 3.593 2.347V3.7a1.83 1.83 0 0 1-1.837 1.825L.94 5.31l-.145.542c.301.138.527.167.961.195 1.304 0 2.362-1.051 2.362-2.347zM2.335 3.905a.42.42 0 0 1-.422.419.42.42 0 0 1-.422-.419.42.42 0 0 1 .422-.419.42.42 0 0 1 .422.419zm.525 0c0 .52-.424.941-.947.941s-.947-.421-.947-.941.424-.941.947-.941.947.421.947.941zm13.254.419a.42.42 0 0 0 .422-.419.42.42 0 1 0-.844 0 .42.42 0 0 0 .422.419zm0 .521c.523 0 .947-.421.947-.941s-.424-.941-.947-.941-.947.421-.947.941.424.941.947.941z"/>
	</g>
	<path d="M3.296 2.785l-.096-.146c-.163-.21-.37-.38-.607-.5s-.498-.184-.763-.19h-.043c-.357.001-.707.108-1.002.309a1.79 1.79 0 0 0-.658.816l-.072.231c-.018.072-.03.145-.038.219-.008.053-.014.106-.016.159 0 .018.006.17.012.227l.014.146a1.84 1.84 0 0 0 .08.285c.008.023.012.047.021.07.049.12.111.234.185.341l.005.005a1.79 1.79 0 0 0 2.005.685 1.79 1.79 0 0 0 .907-.648c.226-.307.347-.678.347-1.059-.001-.337-.098-.668-.281-.952zm-1.918.952c0-.08.024-.158.068-.225s.108-.118.182-.149.155-.039.234-.023.151.054.207.111.095.129.111.207.008.16-.023.234-.083.137-.149.182-.145.068-.225.068c-.053 0-.106-.01-.155-.031s-.094-.05-.131-.087-.067-.082-.088-.131-.031-.102-.031-.155zm1.9.508a1.63 1.63 0 0 0-.887-.504v-.004c-.001-.148-.058-.291-.158-.4.206-.269.503-.454.835-.521a1.53 1.53 0 0 1 .21 1.429zM1.646 2.165c-.138.318-.171.671-.095 1.009a.6.6 0 0 0-.349.429 1.41 1.41 0 0 1-.914-.366c.097-.292.278-.549.519-.739a1.58 1.58 0 0 1 .84-.333zM.589 4.767c.343-.075.652-.258.883-.521a.59.59 0 0 0 .312.098.6.6 0 0 0 .177-.035c.165.298.215.646.14.978-.104.021-.21.032-.316.032-.227-.001-.452-.05-.658-.145a1.58 1.58 0 0 1-.537-.406z" fill="url(#B)"/>
	<path d="M2.391 3.74a1.63 1.63 0 0 1 .887.504 1.53 1.53 0 0 0-.21-1.429c-.332.067-.629.253-.835.521.101.109.157.252.158.4z" fill="url(#B)"/>
	<path d="M.589 4.767c.343-.075.652-.258.883-.521a.59.59 0 0 0 .312.098.6.6 0 0 0 .177-.035c.165.298.215.646.14.978-.104.021-.21.032-.316.032-.227-.001-.452-.05-.658-.145a1.58 1.58 0 0 1-.537-.406z" fill="url(#B)"/>
	<use xlink:href="#G" fill="url(#B)"/>
	<path d="M17.719 2.808l-.096-.146c-.163-.21-.37-.38-.607-.5s-.498-.184-.763-.19h-.043c-.357.001-.707.108-1.002.309a1.79 1.79 0 0 0-.658.816l-.072.231a1.61 1.61 0 0 0-.038.219c-.008.053-.014.106-.016.159 0 .018.006.17.012.227l.014.146a1.84 1.84 0 0 0 .08.285c.008.023.012.047.021.07a1.83 1.83 0 0 0 .185.341l.005.005a1.79 1.79 0 0 0 2.005.685 1.79 1.79 0 0 0 .907-.648c.226-.307.347-.678.346-1.058-.001-.337-.098-.668-.281-.952zm-1.918.952c0-.08.024-.158.068-.225s.108-.118.182-.149.155-.039.234-.023.151.054.207.111.095.129.111.207.008.16-.023.234-.083.137-.149.182-.145.068-.225.068c-.053 0-.106-.01-.155-.03s-.094-.05-.131-.087-.067-.082-.088-.131-.031-.102-.031-.155zm1.9.508a1.63 1.63 0 0 0-.887-.503V3.76a.6.6 0 0 0-.158-.4c.206-.269.503-.454.835-.521a1.53 1.53 0 0 1 .21 1.429zM16.07 2.188c-.138.318-.171.671-.095 1.009a.6.6 0 0 0-.349.429 1.41 1.41 0 0 1-.914-.366c.097-.292.278-.549.519-.739a1.58 1.58 0 0 1 .84-.333zm-1.057 2.602c.342-.075.652-.258.883-.521.093.061.201.096.312.099.061-.003.12-.015.177-.035.165.298.215.646.14.978-.104.021-.21.032-.316.032a1.58 1.58 0 0 1-1.195-.551z" fill="url(#C)"/>
	<path d="M16.815 3.764a1.63 1.63 0 0 1 .887.503 1.53 1.53 0 0 0-.21-1.429c-.332.067-.629.253-.835.521a.6.6 0 0 1 .158.4z" fill="url(#C)"/>
	<path d="M15.013 4.791c.342-.075.652-.258.883-.521.093.061.201.096.312.099.061-.003.12-.015.177-.035.165.298.215.646.14.978-.104.021-.21.032-.316.032a1.58 1.58 0 0 1-1.195-.551z" fill="url(#C)"/>
	<use xlink:href="#G" x="14.424" y="0.023" fill="url(#D)"/>
	<defs>
		<linearGradient id="A" x1="8.585" y1="2.294" x2="8.585" y2="6.595" gradientUnits="userSpaceOnUse">
			<stop stop-color="#5ea0ef"/>
			<stop offset="1" stop-color="#0078d4"/>
		</linearGradient>
		<linearGradient id="B" x1="1.788" y1="5.525" x2="1.788" y2="1.948" gradientUnits="userSpaceOnUse">
			<stop stop-color="#0078d4"/>
			<stop offset=".156" stop-color="#1380da"/>
			<stop offset=".528" stop-color="#3c91e5"/>
			<stop offset=".822" stop-color="#559cec"/>
			<stop offset="1" stop-color="#5ea0ef"/>
		</linearGradient>
		<linearGradient id="C" x1="16.212" y1="5.548" x2="16.212" y2="1.972" gradientUnits="userSpaceOnUse">
			<stop stop-color="#0078d4"/>
			<stop offset=".156" stop-color="#1380da"/>
			<stop offset=".528" stop-color="#3c91e5"/>
			<stop offset=".822" stop-color="#559cec"/>
			<stop offset="1" stop-color="#5ea0ef"/>
		</linearGradient>
		<linearGradient id="D" x1="1.788" y1="5.525" x2="1.788" y2="1.949" gradientUnits="userSpaceOnUse">
			<stop stop-color="#0078d4"/>
			<stop offset=".156" stop-color="#1380da"/>
			<stop offset=".528" stop-color="#3c91e5"/>
			<stop offset=".822" stop-color="#559cec"/>
			<stop offset="1" stop-color="#5ea0ef"/>
		</linearGradient>
		<path id="E" d="M5.494 3.325c.08 0 .145-.065.145-.145s-.065-.145-.145-.145-.145.065-.145.145.065.145.145.145z"/>
		<path id="F" d="M6.824 3.593h-.132c-.062 0-.113.031-.113.07v1.623c0 .039.051.07.113.07h.132c.062 0 .113-.031.113-.07V3.662c0-.039-.051-.07-.113-.07z"/>
		<path id="G" d="M1.646 2.165c-.138.318-.171.671-.095 1.009a.6.6 0 0 0-.349.429 1.41 1.41 0 0 1-.914-.366c.097-.292.278-.549.519-.739a1.58 1.58 0 0 1 .84-.333z"/>
	</defs>
</svg>