<svg
	xmlns="http://www.w3.org/2000/svg" width="18" height="18" fill="none">
	<rect width="4.286" height="18" rx="1" fill="url(#A)"/>
	<path d="M1.522 2.462h1.32c.042 0 .082-.017.111-.046S3 2.346 3 2.304V.977c0-.042-.017-.082-.046-.112s-.07-.046-.112-.046h-1.32c-.042 0-.082.017-.112.046s-.046.07-.046.112v1.322c-.001.021.003.042.011.062s.019.038.034.053.032.027.052.035.04.012.061.012zm0 8.171h1.32c.042 0 .082-.017.112-.046s.046-.07.046-.112V3.898c0-.042-.017-.082-.047-.112s-.07-.046-.111-.046h-1.32c-.021 0-.041.004-.06.012s-.037.019-.051.034-.026.032-.034.051-.012.04-.012.061v6.576a.16.16 0 0 0 .045.114c.015.015.032.027.052.035s.04.012.061.012z" fill="#fff"/>
	<path d="M6.939 18a.45.45 0 0 1-.228-.064.44.44 0 0 1-.148-.148c-.039-.064-.062-.138-.064-.218v-.47h.439v.461h.464V18zm2.275 0v-.439h-.928V18zM11 15.544h-.439v.921H11zm0-1.556h-.439v.921H11zm0-1.557h-.439v.921H11zm0-1.556h-.439v.921H11zm0-1.557h-.439v.921H11zm0-1.557h-.439v.921H11zm0-1.557h-.439v.921H11zm0-1.557h-.439v.921H11zm0-1.557h-.439v.921H11zm0-1.557h-.439v.921H11zM8.286 0v.439h.928V0zM6.5.9h.439V.439h.464V0h-.464a.45.45 0 0 0-.228.064.44.44 0 0 0-.148.148C6.525.275 6.502.35 6.5.429zm0 .635h.439v.921H6.5zm0 1.557h.439v.921H6.5zm0 1.557h.439v.921H6.5zm0 1.557h.439v.921H6.5zm0 1.557h.439v.921H6.5zm0 1.557h.439v.921H6.5zm0 1.557h.439v.921H6.5zm0 1.556h.439v.921H6.5zm0 1.557h.439v.921H6.5zm0 1.556h.439v.921H6.5zM10.097 0h.464a.45.45 0 0 1 .228.064.44.44 0 0 1 .148.148c.039.064.062.138.064.218V.9h-.439V.439h-.464zM11 17.1v.461a.45.45 0 0 1-.064.228.44.44 0 0 1-.148.148c-.064.039-.138.062-.218.064h-.474v-.439h.464V17.1zm2.939.9a.45.45 0 0 1-.228-.064.44.44 0 0 1-.147-.148c-.039-.064-.062-.138-.064-.218v-.47h.439v.461h.464V18zm2.275 0v-.439h-.928V18zM18 15.544h-.439v.921H18zm0-1.556h-.439v.921H18zm0-1.557h-.439v.921H18zm0-1.556h-.439v.921H18zm0-1.557h-.439v.921H18zm0-1.557h-.439v.921H18zm0-1.557h-.439v.921H18zm0-1.557h-.439v.921H18zm0-1.557h-.439v.921H18zm0-1.557h-.439v.921H18zM15.286 0v.439h.928V0zM13.5.9h.439V.439h.464V0h-.464a.45.45 0 0 0-.228.064.44.44 0 0 0-.147.148c-.039.064-.062.138-.064.218zm0 .635h.439v.921H13.5zm0 1.557h.439v.921H13.5zm0 1.557h.439v.921H13.5zm0 1.557h.439v.921H13.5zm0 1.557h.439v.921H13.5zm0 1.557h.439v.921H13.5zm0 1.557h.439v.921H13.5zm0 1.556h.439v.921H13.5zm0 1.557h.439v.921H13.5zm0 1.556h.439v.921H13.5zM17.097 0h.464a.45.45 0 0 1 .228.064.44.44 0 0 1 .148.148c.039.064.062.138.064.218V.9h-.439V.439h-.464zM18 17.1v.461a.45.45 0 0 1-.064.228.44.44 0 0 1-.148.148c-.064.039-.138.062-.218.064h-.474v-.439h.464V17.1z" fill-rule="evenodd" fill="#00188f"/>
	<defs>
		<linearGradient id="A" x1="2.143" y1="18" x2="2.143" y2="0" gradientUnits="userSpaceOnUse">
			<stop stop-color="#0078d4"/>
			<stop offset=".156" stop-color="#1380da"/>
			<stop offset=".528" stop-color="#3c91e5"/>
			<stop offset=".822" stop-color="#559cec"/>
			<stop offset="1" stop-color="#5ea0ef"/>
		</linearGradient>
	</defs>
</svg>