<svg
	xmlns="http://www.w3.org/2000/svg" width="18" height="18" fill="none">
	<g fill-rule="evenodd">
		<path d="M.797 2.235l3.724 6.371.043.074v.085 5.16.322h-.331-1.738c-.183 0-.331.144-.331.322v1.233c0 .08.067.145.149.145h3.359 8.62 2.977c.038 0 .069-.03.069-.067V14.57c0-.178-.148-.322-.331-.322h-.778-7.198-1.919-.331v-.322-1.876-3.283-.085l.043-.074 3.724-6.371C9.981 1.654 8.393.644 5.673.644S1.365 1.654.797 2.235zm4.726-.657c-1.814 0-2.891.736-3.234 1.181l-.14.182.13.19 1.08 1.578.143.209.243-.085.779-.235c.938-.228 1.636-.158 2.779.235l.243.083.143-.209 1.08-1.578.13-.19-.14-.182c-.342-.445-1.42-1.181-3.234-1.181z" fill="url(#A)"/>
		<path d="M.797 2.235l3.724 6.371.043.074v.085 5.16.322h-.331-1.738c-.183 0-.331.144-.331.322v1.233c0 .08.067.145.149.145h3.359 8.62 2.977c.038 0 .069-.03.069-.067V14.57c0-.178-.148-.322-.331-.322h-.778-7.198-1.919-.331v-.322-1.876-3.283-.085l.043-.074 3.724-6.371C9.981 1.654 8.393.644 5.673.644S1.365 1.654.797 2.235zm-.667-.23C.682 1.286 2.515 0 5.673 0s4.991 1.286 5.543 2.006l.13.169-.107.183-3.795 6.493v3.198 1.554h1.258v-.441a.98.98 0 0 1 .992-.967h5.875a.98.98 0 0 1 .992.967v.441h.447a.98.98 0 0 1 .992.967v1.312a.71.71 0 0 1-.399.634v.46a.98.98 0 0 1-.992.967h-1.654a.98.98 0 0 1-.992-.967v-.383H6.004h-.662-2.697l-.662-.069a.79.79 0 0 1-.48-.721V14.57a.98.98 0 0 1 .992-.967h1.407V8.851L.107 2.358 0 2.175zm14.494 14.587v.383c0 .178.148.322.331.322h1.654c.183 0 .331-.144.331-.322v-.383zm1.275-2.99v-.441c0-.178-.148-.322-.331-.322H9.693c-.183 0-.331.144-.331.322v.44zM2.975 2.986l.792 1.157.204-.064-.365-.723.594-.284.425.843c.903-.177 1.652-.092 2.653.229l.792-1.158c-.354-.303-1.182-.764-2.548-.764s-2.194.461-2.548.764zm-.686-.228c.342-.445 1.42-1.181 3.234-1.181s2.891.736 3.234 1.181l.14.182-.13.19-1.08 1.578-.143.209-.243-.083c-1.143-.393-1.841-.463-2.779-.235a8.47 8.47 0 0 0-.779.235l-.243.085-.143-.209-1.08-1.578-.13-.19z" fill="url(#A)"/>
	</g>
	<g fill="#1e87dd">
		<path d="M2.645 16.593v.441c0 .178.148.322.331.322h2.036c.183 0 .331-.144.331-.322v-.441zm11.979 0v.383c0 .178.148.322.331.322h1.654c.183 0 .331-.144.331-.322v-.383zm1.275-2.99v-.441c0-.178-.148-.322-.331-.322H9.693c-.183 0-.331.144-.331.322v.441z"/>
		<path fill-rule="evenodd" d="M2.975 2.986l.792 1.157.204-.064-.365-.723.594-.284.425.843c.903-.177 1.652-.092 2.653.229l.792-1.158c-.354-.303-1.182-.764-2.548-.764s-2.194.461-2.548.764zm-.686-.228c.342-.445 1.42-1.181 3.234-1.181s2.891.736 3.234 1.181l.14.182-.13.19-1.08 1.578-.143.209-.243-.083c-1.143-.393-1.841-.463-2.779-.235a8.47 8.47 0 0 0-.779.235l-.243.085-.143-.209-1.08-1.578-.13-.19z"/>
		<path d="M1.983 16.524v.509a.98.98 0 0 0 .992.967h2.036a.98.98 0 0 0 .992-.967v-.441h-.662v.441c0 .178-.148.322-.331.322H2.976c-.183 0-.331-.144-.331-.322v-.441zm11.979.069v.383a.98.98 0 0 0 .992.967h1.654a.98.98 0 0 0 .992-.967v-.383h-.662v.383c0 .178-.148.322-.331.322h-1.654c-.183 0-.331-.144-.331-.322v-.383zm2.598-2.99v-.441a.98.98 0 0 0-.992-.967H9.693a.98.98 0 0 0-.992.967v.441h.662v-.441c0-.178.148-.322.331-.322h5.875c.183 0 .331.144.331.322v.441z"/>
	</g>
	<defs>
		<linearGradient id="A" x1="9" y1="17.951" x2="9" y2=".049" gradientUnits="userSpaceOnUse">
			<stop offset=".09" stop-color="#32bedd"/>
			<stop offset="1" stop-color="#50e6ff"/>
		</linearGradient>
	</defs>
</svg>