<svg
	xmlns="http://www.w3.org/2000/svg"
	xmlns:xlink="http://www.w3.org/1999/xlink" width="18.038" height="18.543" fill="none">
	<path d="M7.128 9c.206.002.411.025.612.068.088.019.153.089.163.175l.048.411c.022.189.188.332.385.332.053 0 .106-.011.155-.031l.393-.166c.082-.034.177-.016.238.047.284.291.495.64.618 1.021.027.082-.004.171-.076.222l-.348.246c-.099.07-.158.181-.158.3s.059.229.158.3l.348.246c.072.051.103.14.076.222-.123.381-.334.73-.618 1.021-.061.063-.156.081-.238.047l-.394-.166a.4.4 0 0 0-.349.019.37.37 0 0 0-.191.281l-.047.411c-.01.085-.074.155-.16.174-.406.093-.829.093-1.235 0-.086-.02-.151-.089-.16-.174l-.047-.41c-.014-.117-.085-.221-.191-.28a.4.4 0 0 0-.348-.019l-.394.166c-.082.034-.177.015-.238-.047-.284-.291-.495-.641-.618-1.022-.026-.082.004-.171.076-.222l.349-.247c.099-.07.158-.181.158-.3s-.059-.229-.158-.3l-.348-.246c-.072-.051-.103-.14-.076-.222.123-.381.334-.73.618-1.021.061-.063.156-.081.238-.047l.393.166a.4.4 0 0 0 .35-.02c.107-.059.178-.164.191-.281l.048-.411c.01-.086.076-.156.163-.175A3.11 3.11 0 0 1 7.128 9zm0 .404c-.127.001-.254.012-.38.032l-.031.263c-.029.245-.176.462-.398.586s-.494.14-.731.04l-.252-.106c-.16.187-.288.398-.378.624l.224.158c.207.146.33.378.33.625s-.122.479-.329.625l-.224.159c.09.227.217.438.378.625l.254-.107a.84.84 0 0 1 .727.039c.222.123.37.34.399.585l.031.265a2.34 2.34 0 0 0 .754 0l.031-.265c.028-.245.176-.463.399-.586a.84.84 0 0 1 .728-.039l.254.107c.16-.187.288-.398.378-.624l-.224-.158c-.207-.146-.329-.378-.329-.625s.122-.479.329-.625l.223-.158c-.09-.226-.218-.437-.378-.624l-.251.106a.83.83 0 0 1-.325.066c-.412 0-.758-.298-.803-.691l-.031-.263c-.125-.02-.251-.03-.374-.031zm-.004 1.212c.581 0 1.051.452 1.051 1.01s-.471 1.01-1.051 1.01-1.051-.452-1.051-1.01.471-1.01 1.051-1.01zm0 .404c-.348 0-.631.271-.631.606s.282.606.631.606.631-.271.631-.606-.282-.606-.631-.606z" fill="#212121"/>
	<g fill="#0061b0">
		<path d="M15.573 6h1.059v5.211h-1.059v-1.068z"/>
		<path d="M15.573 10.143h-4.31v1.068h4.31z"/>
	</g>
	<path d="M17.695 0H9.919a.35.35 0 0 0-.337.349v2.197a.35.35 0 0 0 .343.349h7.769c.046 0 .091-.009.133-.027s.08-.043.112-.076.057-.071.074-.113.025-.088.024-.133V.349c.001-.046-.008-.091-.024-.133s-.042-.081-.074-.113-.07-.058-.112-.076S17.74 0 17.695 0z" fill="url(#A)"/>
	<path d="M17.67 3.111H9.895c-.086.008-.165.047-.223.111s-.09.147-.09.233v2.203c-.001.045.008.09.024.132s.042.08.074.112.07.057.112.074.087.025.132.024h7.745c.09-.002.176-.038.239-.103s.098-.151.098-.24V3.454a.35.35 0 0 0-.337-.343z" fill="url(#A)"/>
	<g fill="#92ceff">
		<path d="M17.177.542h-.451a.09.09 0 0 0-.09.09v.451a.09.09 0 0 0 .09.09h.451a.09.09 0 0 0 .09-.09V.632a.09.09 0 0 0-.09-.09z"/>
		<use xlink:href="#D"/>
		<use xlink:href="#D" y="2.004"/>
		<use xlink:href="#D" y="3.093"/>
	</g>
	<path d="M11.6 7.457H.4a.4.4 0 0 0-.4.4v7.2a.4.4 0 0 0 .4.4h11.2a.4.4 0 0 0 .4-.4v-7.2a.4.4 0 0 0-.4-.4z" fill="url(#B)"/>
	<path d="M8.407 17.877c-1.187-.187-1.233-1.04-1.233-2.42H4.82c0 1.38-.04 2.233-1.227 2.42-.164.018-.315.096-.425.219s-.17.282-.169.447h6c.001-.165-.059-.324-.169-.447s-.261-.201-.425-.219z" fill="url(#C)"/>
	<path d="M9 11.75v-.69l-.097-.037-.738-.242-.193-.473.375-.798-.484-.484-.097.048-.689.351-.472-.194-.302-.831h-.69l-.036.096-.242.739-.471.194-.786-.383-.484.484.048.096.351.69-.194.474-.846.303v.69l.097.037.738.243.193.472-.375.799.484.484.097-.049.689-.351.472.194.302.836h.69l.037-.097.241-.739.471-.194.798.376.484-.484-.048-.097-.351-.69.193-.472zm-3.023 1.001c-.263 0-.519-.078-.738-.224a1.33 1.33 0 0 1-.565-1.364 1.33 1.33 0 0 1 .363-.681c.186-.186.422-.312.68-.364s.525-.025.767.076a1.33 1.33 0 0 1 .82 1.228 1.33 1.33 0 0 1-.389.94c-.249.249-.587.389-.939.389z" fill="#fff"/>
	<defs>
		<linearGradient id="A" x1="13.81" y1="6" x2="13.81" y2="0" gradientUnits="userSpaceOnUse">
			<stop stop-color="#0078d4"/>
			<stop offset=".156" stop-color="#1380da"/>
			<stop offset=".528" stop-color="#3c91e5"/>
			<stop offset=".822" stop-color="#559cec"/>
			<stop offset="1" stop-color="#5ea0ef"/>
		</linearGradient>
		<linearGradient id="B" x1="6" y1="15.457" x2="6" y2="7.457" gradientUnits="userSpaceOnUse">
			<stop stop-color="#0078d4"/>
			<stop offset=".8" stop-color="#5ea0ef"/>
		</linearGradient>
		<linearGradient id="C" x1="6" y1="18.543" x2="6" y2="15.457" gradientUnits="userSpaceOnUse">
			<stop stop-color="#ccc"/>
			<stop offset="1" stop-color="#707070"/>
		</linearGradient>
		<path id="D" d="M17.177 1.631h-.451a.09.09 0 0 0-.09.09v.451a.09.09 0 0 0 .09.09h.451a.09.09 0 0 0 .09-.09v-.451a.09.09 0 0 0-.09-.09z"/>
	</defs>
</svg>