<svg
	xmlns="http://www.w3.org/2000/svg" width="17.171" height="15.87" fill="none">
	<path d="M16.623 0H.548A.55.55 0 0 0 0 .548v10.351a.55.55 0 0 0 .548.548h16.075a.55.55 0 0 0 .548-.548V.548A.55.55 0 0 0 16.623 0z" fill="url(#A)"/>
	<path d="M12.028 14.91c-1.7-.265-1.764-1.49-1.759-3.463H6.901c0 1.973-.062 3.2-1.76 3.463a1 1 0 0 0-.846.96h8.59a1 1 0 0 0-.857-.96z" fill="url(#B)"/>
	<path d="M3.629 5.288l.347-.346 2.731 2.739c.029.029.046.069.046.111s-.017.082-.046.111l-.347.346c-.029.029-.069.046-.111.046s-.082-.017-.111-.046l-2.51-2.517c-.059-.059-.092-.139-.092-.222s.033-.163.092-.222z" fill="url(#C)"/>
	<path d="M3.971 6.079l-.346-.347c-.059-.059-.092-.139-.092-.222s.033-.163.092-.222l2.561-2.554c.029-.029.069-.046.111-.046s.082.017.111.046l.346.347c.029.029.046.069.046.111s-.017.082-.046.111z" fill="#f2f2f2"/>
	<path d="M11.005 8.252l-.347-.346c-.015-.015-.026-.032-.034-.051s-.012-.039-.012-.06.004-.041.012-.06.019-.036.034-.051l2.735-2.742.347.346c.059.059.092.139.092.222s-.033.163-.092.222l-2.514 2.521c-.029.029-.069.046-.111.046s-.082-.016-.111-.046z" fill="url(#D)"/>
	<path d="M10.605 3.083l.346-.347c.029-.029.069-.046.111-.046s.082.016.111.046l2.561 2.554c.059.059.092.139.092.222s-.033.163-.092.222l-.346.347-2.781-2.774a.15.15 0 0 1-.035-.051c-.008-.019-.013-.04-.013-.061s.004-.042.012-.061a.18.18 0 0 1 .034-.052zm-.432-1.209l-.554-.177c-.059-.019-.122.014-.141.073L7.219 8.826c-.019.059.014.122.073.141l.554.177c.059.019.122-.014.141-.072l2.259-7.057c.019-.059-.014-.122-.072-.141z" fill="#f2f2f2"/>
	<defs>
		<linearGradient id="A" x1="8.585" y1="11.448" x2="8.585" y2="0" gradientUnits="userSpaceOnUse">
			<stop stop-color="#0078d4"/>
			<stop offset=".817" stop-color="#5ea0ef"/>
		</linearGradient>
		<linearGradient id="B" x1="8.588" y1="15.87" x2="8.588" y2="11.447" gradientUnits="userSpaceOnUse">
			<stop offset=".149" stop-color="#ccc"/>
			<stop offset="1" stop-color="#707070"/>
		</linearGradient>
		<linearGradient id="C" x1="3.536" y1="6.62" x2="6.757" y2="6.62" gradientUnits="userSpaceOnUse">
			<stop stop-color="#5ea0ef"/>
			<stop offset=".372" stop-color="#9fc6f5"/>
			<stop offset=".8" stop-color="#e4effc"/>
			<stop offset="1" stop-color="#fff"/>
		</linearGradient>
		<linearGradient id="D" x1="10.612" y1="6.62" x2="13.832" y2="6.62" gradientUnits="userSpaceOnUse">
			<stop stop-color="#fff"/>
			<stop offset=".2" stop-color="#e4effc"/>
			<stop offset=".628" stop-color="#9fc6f5"/>
			<stop offset="1" stop-color="#5ea0ef"/>
		</linearGradient>
	</defs>
</svg>