<svg
	xmlns="http://www.w3.org/2000/svg"
	xmlns:xlink="http://www.w3.org/1999/xlink" width="18.026" height="16.543" fill="none">
	<path opacity=".9" d="M9.237 11.996c-.363 0-.717-.108-1.019-.309s-.537-.488-.675-.823-.175-.704-.104-1.06.246-.683.503-.939.584-.431.94-.501.725-.034 1.06.105.621.375.823.676.308.657.308 1.02c-.001.486-.194.952-.538 1.295s-.81.536-1.296.537zm0-2.891a1.06 1.06 0 0 0-.973.658 1.06 1.06 0 0 0 .233 1.151 1.06 1.06 0 0 0 1.152.227 1.06 1.06 0 0 0 .653-.977c0-.14-.027-.278-.081-.407a1.06 1.06 0 0 0-.577-.574 1.06 1.06 0 0 0-.407-.079z" fill="url(#A)"/>
	<path d="M13.512 3.66h-2.3a.08.08 0 0 0-.045.013c-.014.009-.024.021-.03.036s-.008.031-.005.047.011.03.023.041l.657.657c.018.018.027.041.027.066s-.01.048-.027.066L10.03 6.368c-.08.079-.138.172-.211.255V1.869c0-.022.009-.042.024-.057s.036-.024.057-.024h.959c.016 0 .031-.006.044-.015s.023-.022.029-.036.008-.031.005-.046-.01-.03-.021-.042L9.286.023a.08.08 0 0 0-.113 0L7.551 1.648c-.011.012-.018.026-.021.042s-.001.032.005.046.016.027.029.036.028.014.044.015h.951a.09.09 0 0 1 .081.081V6.62l-.208-.252-1.781-1.782c-.009-.009-.016-.019-.02-.03s-.007-.024-.007-.036.002-.024.007-.036.012-.022.02-.03l.656-.657c.015-.015.023-.035.023-.056s-.008-.041-.023-.056c-.007-.007-.016-.013-.026-.017s-.02-.006-.03-.006h-2.3a.08.08 0 0 0-.08.08V6.04a.08.08 0 0 0 .024.057.08.08 0 0 0 .057.023c.021 0 .041-.008.056-.023l.688-.688c.009-.009.019-.016.03-.02s.024-.007.036-.007.024.002.036.007.022.012.03.02L7.61 7.19a3.43 3.43 0 0 1 .819 1.334 1.76 1.76 0 0 1 1.603-.007c.168-.499.448-.953.819-1.327l1.781-1.781c.009-.009.019-.016.03-.021s.024-.007.036-.007.025.002.036.007.022.012.03.021l.688.688c.015.014.035.022.055.023s.042-.008.057-.023.024-.035.025-.057v-2.3c0-.021-.009-.041-.024-.056s-.035-.023-.056-.024z" fill="url(#B)"/>
	<path d="M18.026 14.11v.357c0 .133-.057.261-.159.356s-.24.147-.384.147h-2.032v-1.363h2.032c.144 0 .282.053.384.147s.159.222.159.356zm-15.451-.503v1.363H.543c-.144 0-.282-.053-.384-.147S0 14.601 0 14.467v-.357c0-.133.057-.261.159-.356s.24-.147.384-.147z" fill="#32bedd"/>
	<path d="M15.674 11.371H2.53c-.154 0-.302.065-.411.181s-.17.272-.17.435v3.941c0 .163.061.32.17.435s.257.18.411.18h13.144a.55.55 0 0 0 .222-.047.58.58 0 0 0 .188-.133.62.62 0 0 0 .126-.2c.029-.075.044-.154.044-.235v-3.941c0-.163-.062-.319-.17-.435s-.256-.181-.41-.181z" fill="url(#C)"/>
	<g fill="#b4ec36">
		<use xlink:href="#D"/>
		<use xlink:href="#D" y="2.312"/>
	</g>
	<path d="M6.567 10.031h5.073c.084 0 .165.035.224.098s.093.148.093.237v1.007H6.249v-1.009c0-.044.009-.088.025-.128s.04-.078.069-.108.065-.056.103-.072a.3.3 0 0 1 .121-.025z" fill="#198ab3"/>
	<defs>
		<linearGradient id="A" x1="7.403" y1="10.162" x2="11.071" y2="10.162" gradientUnits="userSpaceOnUse">
			<stop stop-color="#5ea0ef"/>
			<stop offset="1" stop-color="#83b9f9"/>
		</linearGradient>
		<linearGradient id="B" x1="4.871" y1="4.262" x2="13.592" y2="4.262" gradientUnits="userSpaceOnUse">
			<stop stop-color="#5ea0ef"/>
			<stop offset="1" stop-color="#83b9f9"/>
		</linearGradient>
		<linearGradient id="C" x1="9.102" y1="16.543" x2="9.102" y2="11.371" gradientUnits="userSpaceOnUse">
			<stop stop-color="#198ab3"/>
			<stop offset=".101" stop-color="#1c93bb"/>
			<stop offset=".701" stop-color="#2cc2e5"/>
			<stop offset="1" stop-color="#32d4f5"/>
		</linearGradient>
		<path id="D" d="M14.702 12.08h-.915c-.097 0-.176.084-.176.187v.969c0 .103.079.187.176.187h.915c.097 0 .176-.084.176-.187v-.969c0-.103-.079-.187-.176-.187z"/>
	</defs>
</svg>