<svg
	xmlns="http://www.w3.org/2000/svg" width="17.172" height="17.172" fill="none">
	<path d="M.293 7.879L7.879.293a1 1 0 0 1 1.414 0l7.586 7.586a1 1 0 0 1 0 1.414l-7.586 7.586a1 1 0 0 1-1.414 0L.293 9.293a1 1 0 0 1 0-1.414z" fill="url(#A)"/>
	<path opacity=".9" d="M8.761 14.349a1.83 1.83 0 0 1-1.689-1.129 1.83 1.83 0 0 1 .397-1.993 1.83 1.83 0 0 1 1.993-.395 1.83 1.83 0 0 1 1.127 1.691 1.83 1.83 0 0 1-1.828 1.826zm0-2.882c-.208.001-.412.064-.584.181s-.307.282-.386.475-.099.405-.057.609.142.392.29.539.336.247.54.287.416.019.609-.061.357-.215.473-.388.178-.377.178-.585c0-.139-.027-.277-.081-.406s-.132-.245-.23-.344-.216-.176-.345-.229-.267-.079-.406-.079z" fill="#fff"/>
	<path d="M13.023 6.04H10.73c-.016 0-.032.004-.045.013a.08.08 0 0 0-.035.083c.003.016.011.03.023.041l.655.655c.017.017.027.041.027.066s-.01.048-.027.066L9.552 8.74c-.08.079-.137.171-.21.254v-4.74c0-.021.009-.042.024-.057s.036-.024.057-.024h.956c.016 0 .031-.005.044-.014s.023-.022.029-.036.008-.031.005-.046-.01-.03-.021-.042l-1.626-1.62a.08.08 0 0 0-.113 0L7.08 4.035c-.011.012-.018.026-.021.042s-.001.032.005.046.016.027.029.036.028.014.044.014h.948a.09.09 0 0 1 .081.081v4.736L7.96 8.74 6.185 6.963c-.009-.009-.016-.019-.02-.03s-.007-.023-.007-.036.002-.024.007-.036.012-.022.02-.03l.654-.655c.015-.015.023-.035.023-.056s-.008-.041-.023-.056c-.007-.007-.016-.013-.026-.017s-.02-.006-.03-.006H4.49a.08.08 0 0 0-.08.08v2.291a.08.08 0 0 0 .024.057.08.08 0 0 0 .057.023c.021 0 .041-.008.056-.023l.686-.686c.009-.009.019-.016.03-.02s.023-.007.036-.007.024.002.036.007.022.012.03.02L7.14 9.559a3.42 3.42 0 0 1 .817 1.33c.247-.127.52-.194.798-.196s.552.064.8.189c.168-.498.447-.95.817-1.323l1.775-1.775c.009-.009.019-.016.03-.021s.024-.007.036-.007.024.002.036.007.022.012.03.021l.686.686c.015.014.035.022.055.023s.042-.008.057-.023.024-.035.025-.057V6.12c0-.021-.009-.041-.024-.056s-.035-.023-.056-.024z" fill="url(#B)"/>
	<defs>
		<linearGradient id="A" x1="8.586" y1="17.586" x2="8.586" y2="-.414" gradientUnits="userSpaceOnUse">
			<stop stop-color="#0078d4"/>
			<stop offset=".156" stop-color="#1380da"/>
			<stop offset=".528" stop-color="#3c91e5"/>
			<stop offset=".822" stop-color="#559cec"/>
			<stop offset="1" stop-color="#5ea0ef"/>
		</linearGradient>
		<linearGradient id="B" x1="8.756" y1="3.161" x2="8.756" y2="10.472" gradientUnits="userSpaceOnUse">
			<stop stop-color="#fff"/>
			<stop offset="1" stop-color="#fff" stop-opacity=".7"/>
		</linearGradient>
	</defs>
</svg>