<svg
	xmlns="http://www.w3.org/2000/svg" width="18.246" height="18" fill="none">
	<path d="M10.376 9.7a4.89 4.89 0 0 0-1.8 3.629v.007l-.625.006c-4.311 0-7.819-.81-7.927-1.817a.4.4 0 0 1 0-.048c.011-.109.046-.213.103-.306s.135-.171.228-.23c.976-.769 4.008-1.331 7.6-1.331l2.421.09zM0 6.681c0 1.03 3.55 1.865 7.929 1.865s7.929-.835 7.929-1.865-3.55-1.866-7.929-1.866S0 5.65 0 6.681zm0-4.815c0 1.03 3.55 1.865 7.929 1.865s7.929-.835 7.929-1.865S12.308 0 7.929 0 0 .835 0 1.866z" fill="#83b9f9"/>
	<path d="M9.734 16.671c.028.034.047.075.053.118s0 .088-.017.128-.046.075-.082.1-.079.039-.123.041H9.56l-.623.023-.985.014C3.574 17.1.025 16.262.025 15.229v-3.757c0 .031.003.062.01.092h0c.205.966 3.543 1.739 7.678 1.768h.239.248l.377-.005v.007.166c-.003 1.161.407 2.285 1.157 3.171zm6.123-10.013C15.808 7.68 12.277 8.5 7.93 8.5S.084 7.692.008 6.673V10.4c.012.111.049.218.109.312s.141.174.236.232h0c.99.764 4.01 1.32 7.583 1.32l.8-.01a4.92 4.92 0 0 1 1.64-2.554h0c.708-.583 1.565-.955 2.474-1.076s1.833.016 2.668.395c.036.017.076.025.116.023s.079-.015.113-.036.062-.051.081-.086.029-.074.029-.114zM7.929 3.689c-4.334 0-7.845-.812-7.921-1.831v3.724c0 1.031 3.549 1.866 7.929 1.866 4.287 0 7.776-.8 7.921-1.8V5.5 1.823c-.002 1.031-3.551 1.866-7.929 1.866z" fill="#0078d4"/>
	<path d="M17.995 13.5a4.5 4.5 0 0 1-4.5 4.5 4.5 4.5 0 0 1-4.5-4.5v-.176-.004c.013-.366.072-.729.176-1.081a4.5 4.5 0 0 1 4.961-3.209 4.5 4.5 0 0 1 3.863 4.47z" fill="#fff"/>
	<path d="M13.12 18c2.831 0 5.125-2.239 5.125-5s-2.295-5-5.125-5-5.125 2.239-5.125 5 2.295 5 5.125 5z" fill="#f78d1e"/>
	<path d="M13.141 17.354c2.465 0 4.463-1.949 4.463-4.354s-1.998-4.354-4.463-4.354S8.678 10.596 8.678 13s1.998 4.354 4.463 4.354z" fill="#fff"/>
	<path d="M14.983 14.336l-1.297-1.264c-.03-.029-.067-.052-.107-.066s-.083-.021-.126-.018c.033-.041.054-.09.06-.142V9.623c0-.081-.034-.159-.092-.216a.32.32 0 0 0-.222-.09h-.059a.32.32 0 0 0-.222.09c-.059.057-.092.135-.092.216v3.222c0 .081.034.159.092.216a.32.32 0 0 0 .222.089h.044c-.047.057-.071.128-.068.2s.033.142.084.194l1.297 1.264c.059.057.138.089.221.089s.162-.032.221-.089l.043-.04c.059-.057.092-.135.092-.216s-.033-.159-.092-.216z" fill="#b3b3b3"/>
	<path d="M13.143 13.702c.401 0 .727-.317.727-.709s-.325-.709-.727-.709-.727.317-.727.709.325.709.727.709z" fill="#666"/>
</svg>