<svg
	xmlns="http://www.w3.org/2000/svg" width="18" height="10.8" fill="none">
	<path fill-rule="evenodd" d="M17.654.348H.348v10.103h17.306zM0 0v10.8h18V0z" fill="url(#A)"/>
	<path d="M.348.348h17.306v10.103H.348z" fill="url(#A)"/>
	<path d="M5.083 3H2.587l-.215.121-.005-.006-.036.028-.041.023.004.006-.159.126-.35 2.07.24.276-.021.016.019.02-.276.19-.349 2.092.181.268.539-.421.271-1.766h2.009l-.304 1.742.384.457.262-.16.351-2.085-.257-.281.03-.027-.007-.007.298-.24.323-2.018-.145-.171.002-.001-.017-.017-.056-.066-.006.005zm-2.33.672l-.292 1.677h2.027l.239-1.677zm4.46-.068l-.397-.489-.232.183-.35 2.07.259.297-.297.205-.349 2.092.181.268.016-.012.169.2H8.69l.318-.196-.383-.502-2.044-.004.268-1.742-.239-.295.278-.211zM13.761 3h-2.496l-.296.167.381.505h2.055l-.239 1.677h-2.063l-.42.31.019.02-.276.19-.349 2.092.181.268.016-.012.169.2h2.477l.318-.196-.383-.502-2.044-.004.257-1.673h2.087l.389-.354-.007-.007.298-.24.323-2.018-.145-.171.002-.001-.017-.017-.056-.066-.006.005zm2.841.424l-.216-.255-.524.404-.263 1.849.237.263-.299.265-.32 1.836.384.457.262-.16.351-2.085-.265-.29.33-.266z" fill-rule="evenodd" fill="#fff"/>
	<defs>
		<linearGradient id="A" x1="-.086" y1="5.4" x2="17.914" y2="5.4" gradientUnits="userSpaceOnUse">
			<stop stop-color="#005ba1"/>
			<stop offset=".07" stop-color="#0060a9"/>
			<stop offset=".36" stop-color="#0071c8"/>
			<stop offset=".52" stop-color="#0078d4"/>
			<stop offset=".64" stop-color="#0074cd"/>
			<stop offset=".82" stop-color="#006abb"/>
			<stop offset="1" stop-color="#005ba1"/>
		</linearGradient>
	</defs>
</svg>