<svg
	xmlns="http://www.w3.org/2000/svg" width="18" height="16" fill="none">
	<path d="M15.75 12.446h-.125v.125 2.098a1.15 1.15 0 0 1-.095.468c-.065.147-.15.274-.256.382a1.23 1.23 0 0 1-.375.259 1.1 1.1 0 0 1-.458.096H1.31c-.166 0-.32-.03-.462-.089s-.265-.144-.37-.256-.193-.245-.258-.393-.095-.3-.095-.468V4.759c0-.17.03-.326.088-.471a1.07 1.07 0 0 1 .252-.376 1.35 1.35 0 0 1 .386-.262 1.1 1.1 0 0 1 .458-.096h.94.125v-.125V1.33c0-.17.03-.326.088-.471a1.07 1.07 0 0 1 .252-.376 1.35 1.35 0 0 1 .386-.262A1.1 1.1 0 0 1 3.56.125H16.69a1.1 1.1 0 0 1 .458.096 1.23 1.23 0 0 1 .375.259c.106.108.191.235.256.382a1.15 1.15 0 0 1 .095.468v9.911a1.15 1.15 0 0 1-.095.468c-.064.148-.15.274-.256.382s-.231.194-.375.259a1.1 1.1 0 0 1-.458.096zm1.249-1.192H17v-.014V1.33c0-.082-.032-.155-.089-.213s-.128-.09-.207-.099v-.001h-.014H3.56c-.083 0-.155.033-.212.091s-.088.129-.097.208H3.25v.014 2.098.125h.125 4.328L2.375 9.581V4.571v-.125H2.25h-.94c-.083 0-.155.033-.212.091s-.088.129-.097.208H1v.014 9.911c0 .082.032.155.089.213s.128.09.207.099v.001h.014H14.44c.083 0 .155-.033.212-.091s.088-.129.097-.208h.001v-.014-2.098-.125h-.125-4.328l5.328-6.027v5.009.125h.125.94c.083 0 .155-.033.212-.091s.088-.129.097-.208zm-2.374-7.701c.147 0 .285.029.415.087a.89.89 0 0 1 .271.19l-7.615 8.616H3.375c-.147 0-.285-.029-.415-.087-.098-.044-.188-.107-.271-.19l7.615-8.616z" fill="url(#A)" stroke="#fff" stroke-width=".25"/>
	<defs>
		<linearGradient id="A" x1="9" y1="16" x2="9" y2="0" gradientUnits="userSpaceOnUse">
			<stop stop-color="#0078d4"/>
			<stop offset=".156" stop-color="#1380da"/>
			<stop offset=".528" stop-color="#3c91e5"/>
			<stop offset=".822" stop-color="#559cec"/>
			<stop offset="1" stop-color="#5ea0ef"/>
		</linearGradient>
	</defs>
</svg>