<svg
	xmlns="http://www.w3.org/2000/svg" width="18" height="18">
	<defs>
		<linearGradient id="A" x1="10.059" y1="18" x2="10.059" y2="6.748" gradientUnits="userSpaceOnUse">
			<stop offset="0" stop-color="#32bedd"/>
			<stop offset="1" stop-color="#50e6ff"/>
		</linearGradient>
	</defs>
	<path d="M18 14.474c-.057-1.746-1.367-3.195-3.098-3.428-.126-2.444-2.185-4.337-4.631-4.258a4.6 4.6 0 0 0-4.407 2.959 4.26 4.26 0 0 0-3.747 4.098c.092 2.379 2.092 4.236 4.471 4.152h7.867A3.61 3.61 0 0 0 18 14.473z" fill="url(#A)"/>
	<g fill="#fff">
		<path d="M7.642 16.001l-1.947-1.956c-.038-.029-.046-.083-.017-.122.005-.007.011-.012.017-.017l1.947-1.947c.043-.039.109-.035.147.008.015.017.025.039.027.062v1.147c-.002.053.039.097.092.099.01 0 .02 0 .03-.004h2.521c.053.005.092.051.087.104h0v1.209c0 .053-.043.096-.096.096H7.938c-.053 0-.096.042-.096.095v1.156c.02.055-.01.116-.065.135s-.116-.01-.135-.065z"/>
		<path d="M12.44 11.959l2.016 2.016L12.44 16c-.036.038-.097.04-.135.004-.02-.019-.031-.046-.03-.074v-1.147c0-.058-.047-.104-.104-.104H9.564v-1.408h2.607c.057.005.108-.037.113-.095h0v-1.148c.002-.053.047-.094.1-.091.021 0 .041.009.057.022z"/>
	</g>
	<path d="M1.414 13.873v-.049c.021-.685.184-1.353.472-1.964-1.148-.245-1.869-.599-1.869-.992v2.697c0 .344.551.657 1.455.894-.03-.192-.05-.387-.058-.586z" fill="#005ba1"/>
	<path d="M2.711 10.627c.39-.427.851-.775 1.355-1.041-2.342.166-4.049.677-4.049 1.282 0 .393.721.747 1.868.992.211-.447.487-.864.826-1.234z" fill="#198ab3"/>
	<path d="M11.394 6.174v-.071c0 .023-.003.046-.007.069zM5.369 9.115c.31-.653.75-1.224 1.279-1.691l-.943.019c-3.141 0-5.688-.6-5.688-1.34v2.698c0 .544 1.381 1.012 3.362 1.222a4.96 4.96 0 0 1 1.991-.907z" fill="#0078d4"/>
	<path d="M6.649 7.423c.952-.841 2.196-1.341 3.511-1.341l.108.001.15-.002a5.15 5.15 0 0 1 .968.091c.005-.023.007-.046.007-.069 0-.739-2.547-1.339-5.688-1.339s-5.688.6-5.688 1.339 2.547 1.339 5.688 1.339l.944-.019z" fill="#32bedd"/>
	<path d="M5.688 2.679c-3.106 0-5.63-.587-5.683-1.315H0v2.672c0 .74 2.547 1.34 5.688 1.34 3.076 0 5.58-.575 5.683-1.293h0v-.046-.024-.037h0V1.339c.005.739-2.542 1.34-5.683 1.34z" fill="#5ea0ef"/>
	<ellipse cx="5.688" cy="1.339" rx="5.688" ry="1.339" fill="#9cebff"/>
</svg>