<svg id="uuid-173514f7-d6a5-4df7-83a0-8833f8861386"
	xmlns="http://www.w3.org/2000/svg" width="18" height="18" viewBox="0 0 18 18">
	<defs>
		<linearGradient id="uuid-f61a6413-da35-4353-bed6-78a7884009fa" x1="7.697" y1="779.141" x2="14.082" y2="786.603" gradientTransform="translate(0 791.516) scale(1 -1)" gradientUnits="userSpaceOnUse">
			<stop offset="0" stop-color="#225086" />
			<stop offset="1" stop-color="#0055c5" />
		</linearGradient>
		<linearGradient id="uuid-cb1c2182-b5f9-4289-b12e-61332c9846d1" x1="9.001" y1="775.928" x2="9.001" y2="794.817" gradientTransform="translate(0 791.516) scale(1 -1)" gradientUnits="userSpaceOnUse">
			<stop offset="0" stop-color="#44dbf9" />
			<stop offset="1" stop-color="#cbf8ff" />
		</linearGradient>
		<linearGradient id="uuid-ccdab7a0-f665-4cee-84d6-22b22e7e84f8" x1="6.364" y1="778.136" x2="6.364" y2="794.384" gradientTransform="translate(0 791.516) scale(1 -1)" gradientUnits="userSpaceOnUse">
			<stop offset="0" stop-color="#6df" />
			<stop offset="1" stop-color="#0294e4" />
		</linearGradient>
		<linearGradient id="uuid-1020a2ff-bef7-42c0-a2f4-b199d71e5873" x1="13.5" y1="774.693" x2="13.5" y2="790.754" gradientTransform="translate(0 791.516) scale(1 -1)" gradientUnits="userSpaceOnUse">
			<stop offset="0" stop-color="#041642" />
			<stop offset="1" stop-color="#041642" stop-opacity=".25" />
		</linearGradient>
		<linearGradient id="uuid-4620e84d-7910-4a6f-93b2-695acb750ffb" x1="13.5" y1="17.034" x2="13.5" y2="8.507" gradientUnits="userSpaceOnUse">
			<stop offset=".001" stop-color="#e62323" />
			<stop offset="1" stop-color="#f04049" />
		</linearGradient>
	</defs>
	<g>
		<path d="m17.647,9.933L10.147,1.473c-.599-.676-1.694-.676-2.294,0L.353,9.933c-.579.654-.428,1.641.323,2.111l7.499,4.688c.5.313,1.148.313,1.648,0l7.499-4.688c.751-.469.902-1.457.323-2.111h0Z" fill="url(#uuid-f61a6413-da35-4353-bed6-78a7884009fa)" stroke-width="0" />
		<polygon points="4.636 10.165 4.688 10.197 9.001 12.893 9.001 12.893 13.365 10.165 13.366 10.165 13.365 10.165 9.001 5.241 4.636 10.165" fill="url(#uuid-cb1c2182-b5f9-4289-b12e-61332c9846d1)" stroke-width="0" />
		<g>
			<path d="m10.148,1.473c-.599-.676-1.694-.676-2.294,0L.354,9.933c-.579.654-.428,1.641.323,2.111,0,0,2.776,1.735,3.126,1.954.388.242,1.033.511,1.715.511.621,0,1.197-.18,1.676-.487,0,0,0,0,.002-.001l1.804-1.128-4.364-2.728,4.474-5.047c.55-.627,1.377-1.026,2.302-1.026.472,0,.917.107,1.314.292l-2.579-2.909v-.002Z" fill="url(#uuid-ccdab7a0-f665-4cee-84d6-22b22e7e84f8)" stroke-width="0" />
			<path d="m9.001,16.967c.287,0,.574-.078.824-.234l7.499-4.688c.751-.469.902-1.457.323-2.111L10.148,1.473c-.3-.338-.723-.507-1.147-.507v16.001Z" fill="url(#uuid-1020a2ff-bef7-42c0-a2f4-b199d71e5873)" fill-opacity=".5" isolation="isolate" opacity=".5" stroke-width="0" />
		</g>
	</g>
	<g>
		<path d="m13.52,17.034h0c4.376-3.137,4.476-4.926,4.476-5.485,0-.799-.08-2.877-2.168-2.997-1.032-.084-1.989.541-2.328,1.519-.318-.985-1.265-1.627-2.298-1.559-2.088.15-2.198,2.238-2.198,3.037,0,.56.13,2.348,4.466,5.455" fill="url(#uuid-4620e84d-7910-4a6f-93b2-695acb750ffb)" stroke-width="0" />
		<path d="m17.996,11.229h-1.998c-.057.001-.11.031-.14.08l-.629,1.069c-.021.039-.07.053-.109.031-.013-.007-.024-.018-.031-.031l-.949-1.718c-.031-.083-.123-.125-.205-.094-.044.016-.078.051-.094.094l-.839,2.598c-.015.041-.061.062-.103.047-.022-.008-.039-.025-.047-.047l-.759-1.748c-.037-.08-.132-.115-.212-.077-.034.016-.061.043-.077.077l-.999,1.818c-.028.057-.086.092-.15.09h-.959c.147.225.308.442.48.649h.829c.059-.004.112-.038.14-.09l.709-1.319.999,2.188c.031.083.123.125.205.094.044-.016.078-.051.094-.094l.999-2.927.849,1.659c.043.077.14.105.217.062.026-.015.048-.036.062-.062l.999-1.619c.03-.048.083-.078.14-.08h1.579" fill="#fff" stroke-width="0" />
	</g>
</svg>