<svg id="uuid-534fdcde-2428-418f-b0ce-c8534e2e8795"
	xmlns="http://www.w3.org/2000/svg" width="18" height="18" viewBox="0 0 18 18">
	<defs>
		<linearGradient id="uuid-2efb4a2c-8d8d-4538-ad2e-59e73ae649ad" x1="-555" y1="1012.773" x2="-555" y2="1025.516" gradientTransform="translate(564 1025.516) scale(1 -1)" gradientUnits="userSpaceOnUse">
			<stop offset="0" stop-color="#0294e4" />
			<stop offset="1" stop-color="#6df" />
		</linearGradient>
		<linearGradient id="uuid-f4f24ac3-c211-417d-bb6c-99231414a968" x1="-558.241" y1="1020.123" x2="-558.241" y2="1007.516" gradientTransform="translate(564 1025.516) scale(1 -1)" gradientUnits="userSpaceOnUse">
			<stop offset="0" stop-color="#b3b2b3" />
			<stop offset=".375" stop-color="#afaeaf" />
			<stop offset=".763" stop-color="#a2a2a2" />
			<stop offset="1" stop-color="#979797" />
		</linearGradient>
		<linearGradient id="uuid-79bc2215-6a94-48f4-a0d4-423271d529f3" x1="-550.507" y1="1007.516" x2="-550.507" y2="1016.502" gradientTransform="translate(564 1025.516) scale(1 -1)" gradientUnits="userSpaceOnUse">
			<stop offset=".001" stop-color="#773adc" />
			<stop offset=".342" stop-color="#8b55e6" />
			<stop offset=".756" stop-color="#9f70f0" />
			<stop offset="1" stop-color="#a67af4" />
		</linearGradient>
	</defs>
	<path d="m17.986,8.75c-.059-1.978-1.543-3.621-3.504-3.88C14.361,2.086,12.025-.084,9.24.002c-2.216-.04-4.217,1.324-4.988,3.402C1.886,3.691.084,5.664.014,8.046c.106,2.692,2.37,4.791,5.062,4.694.15,0,.303-.007.445-.019h8.195c.073-.001.146-.012.216-.032,2.188-.015,3.975-1.752,4.054-3.938Z" fill="url(#uuid-2efb4a2c-8d8d-4538-ad2e-59e73ae649ad)" />
	<g>
		<path d="m9.851,17.572c-.013.248-.224.439-.472.427H2.139c-.248.012-.459-.179-.472-.427V5.821c.013-.248.224-.439.472-.427h7.24c.248-.012.459.179.472.427v11.751Z" fill="url(#uuid-f4f24ac3-c211-417d-bb6c-99231414a968)" />
		<path d="m2.87,10.786c-.024-.516.373-.954.889-.98h4.073c.516.026.913.465.889.98h0c.024.516-.374.954-.889.98H3.759c-.516-.026-.914-.464-.889-.98Z" fill="#003067" />
		<path d="m2.87,7.871c-.024-.516.373-.954.889-.98h4.073c.516.026.913.465.889.98h0c.024.516-.374.954-.889.98H3.759c-.516-.026-.914-.464-.889-.98Z" fill="#003067" />
		<circle cx="4.014" cy="7.871" r=".658" fill="#50e6ff" />
		<circle cx="4.014" cy="10.783" r=".658" fill="#50e6ff" />
	</g>
	<g>
		<circle cx="13.493" cy="13.507" r="4.493" fill="url(#uuid-79bc2215-6a94-48f4-a0d4-423271d529f3)" />
		<g>
			<path d="m15.257,12.903h-.685c-.223.004-.402.187-.398.411.003.218.18.395.398.398h1.483c.223,0,.404-.181.404-.404v-1.752c.004-.223-.175-.407-.398-.411s-.407.175-.411.398c0,.004,0,.009,0,.013v.404c-.509-.679-1.308-1.079-2.157-1.078-.796-.008-1.554.343-2.063.955-.14.174-.114.428.06.569.17.138.42.115.562-.052.356-.427.886-.67,1.441-.663.783,0,1.484.482,1.764,1.213Z" fill="#fff" />
			<path d="m11.337,15.599v-.404c.897,1.193,2.591,1.433,3.783.536.159-.12.305-.257.434-.408.145-.17.124-.425-.046-.57-.17-.145-.425-.124-.57.046h0c-.678.796-1.873.892-2.669.214-.203-.173-.367-.386-.481-.627h.627c.223.004.407-.175.411-.398s-.175-.407-.398-.411c-.004,0-.009,0-.013,0h-1.483c-.223,0-.404.181-.404.404h0v1.618c-.004.223.175.407.398.411s.407-.175.411-.398c0-.004,0-.009,0-.013h0Z" fill="#fff" />
		</g>
	</g>
</svg>