<svg
	xmlns="http://www.w3.org/2000/svg" width="18" height="15.736">
	<defs>
		<linearGradient id="A" x1="9" y1="15.737" x2="9" y2="3.166" gradientUnits="userSpaceOnUse">
			<stop offset="0" stop-color="#0078d4"/>
			<stop offset=".156" stop-color="#1380da"/>
			<stop offset=".528" stop-color="#3c91e5"/>
			<stop offset=".822" stop-color="#559cec"/>
			<stop offset="1" stop-color="#5ea0ef"/>
		</linearGradient>
		<linearGradient id="B" x1="9" y1="13.807" x2="9" y2="5.096" gradientUnits="userSpaceOnUse">
			<stop offset="0" stop-color="#ef7100"/>
			<stop offset="1" stop-color="#faa21d"/>
		</linearGradient>
	</defs>
	<path d="M13.378 3.268h-.9V.903a.122.122 0 0 0-.027 0H5.659a.122.122 0 0 0-.027 0v2.365h-.9V.858A.9.9 0 0 1 5.659 0h6.792a.9.9 0 0 1 .927.858z" fill="#a3a3a3"/>
	<rect y="3.166" width="18" height="12.57" rx=".6" fill="url(#A)"/>
	<path d="M11.359 5.103a2.307 2.307 0 0 0-2.366 1.55 2.317 2.317 0 0 0-2.381-1.534c-2.138.175-2.244 2.291-2.206 3.1.018.578.137 2.4 4.565 5.56l.038.027.038-.027c4.428-3.187 4.536-5.044 4.55-5.645.027-.787-.097-2.866-2.238-3.031z" fill="url(#B)"/>
	<path d="M13.483 6.938a3.447 3.447 0 0 1-.323 1.883 5.379 5.379 0 0 1-3.167 2.412.728.728 0 0 0-.529-.264.742.742 0 1 0 .691.8A7.412 7.412 0 0 0 13 9.943a3.326 3.326 0 0 0 .592-1.8 4.141 4.141 0 0 0-.109-1.205zM7.107 11.34l.188.216a.286.286 0 0 0 .4.023l.428-.382a.287.287 0 0 0 .023-.4.281.281 0 0 0-.393-.063.3.3 0 0 0-.027.023l-.223.2C6.1 9.411 5.7 8.223 6.346 7.653s1.775-.034 3.167 1.515l-.223.2a.282.282 0 0 0-.025.4h0a.276.276 0 0 0 .388.033h0l.012-.009.422-.377a.287.287 0 0 0 .023-.4l-.189-.207c-.943-1.062-2.576-2.375-3.7-1.717a1.756 1.756 0 0 1-.477-1.112 1.242 1.242 0 0 1 .2-.726 1.911 1.911 0 0 0-.738.437 1.917 1.917 0 0 0 .608 1.778c-.763 1.044.35 2.81 1.293 3.872z" opacity=".9" fill="#fff"/>
</svg>