<?xml version="1.0" encoding="UTF-8" standalone="no"?>
<svg
   id="uuid-ff076a5e-1a21-4690-a2e5-00241679358e"
   width="16.006001"
   height="18"
   viewBox="0 0 16.006001 18"
   version="1.1"
   xmlns="http://www.w3.org/2000/svg"
   xmlns:svg="http://www.w3.org/2000/svg">
  <defs
     id="defs12">
    <radialGradient
       id="uuid-22fe0c1a-c6dd-412e-a6e7-99fe92c45445"
       cx="-39.273998"
       cy="-66.149002"
       r="19.309999"
       gradientTransform="matrix(0.375,0,0,0.375,22.753,33.791)"
       gradientUnits="userSpaceOnUse">
      <stop
         offset=".389"
         stop-color="#a67af4"
         id="stop2" />
      <stop
         offset="1"
         stop-color="#773adc"
         id="stop4" />
    </radialGradient>
    <radialGradient
       id="uuid-4ba47cb3-5931-4197-bf9f-12bd101272c6"
       cx="-39.471001"
       cy="-66.063004"
       r="15.387"
       gradientTransform="matrix(0.375,0,0,0.375,22.753,33.791)"
       gradientUnits="userSpaceOnUse">
      <stop
         offset="0"
         stop-color="#5ea0ef"
         id="stop7" />
      <stop
         offset="1"
         stop-color="#0078d4"
         id="stop9" />
    </radialGradient>
  </defs>
  <path
     d="m 7.983,0.75 c 0.135,0 0.268,0.035 0.385,0.103 l 6.501,3.733 c 0.239,0.137 0.388,0.394 0.388,0.67 v 7.481 c 0,0.275 -0.148,0.531 -0.386,0.669 L 8.39,17.148 c -0.117,0.068 -0.251,0.103 -0.386,0.103 -0.135,0 -0.269,-0.036 -0.386,-0.103 L 1.137,13.406 C 0.899,13.269 0.751,13.012 0.751,12.737 V 5.253 c 0,-0.275 0.148,-0.531 0.386,-0.669 L 7.597,0.853 C 7.714,0.785 7.848,0.75 7.983,0.75 M 7.983,0 C 7.72,0 7.458,0.068 7.222,0.204 L 0.761,3.934 C 0.29,4.206 0,4.708 0,5.252 v 7.484 c 0,0.544 0.29,1.046 0.761,1.318 l 6.481,3.742 C 7.477,17.932 7.74,18 8.003,18 8.266,18 8.529,17.932 8.764,17.796 l 6.481,-3.742 c 0.471,-0.272 0.761,-0.774 0.761,-1.318 V 5.255 c 0,-0.545 -0.292,-1.049 -0.764,-1.32 L 8.741,0.202 C 8.506,0.067 8.245,0 7.983,0 Z"
     fill="#773adc"
     id="path14" />
  <path
     d="m 3.85,10.06 c -0.741,0 -1.342,0.601 -1.342,1.342 0,0.741 0.601,1.342 1.342,1.342 0.741,0 1.342,-0.601 1.342,-1.342 0,-0.741 -0.601,-1.342 -1.342,-1.342 z m 8.033,0 c -0.741,0 -1.342,0.601 -1.342,1.342 0,0.741 0.601,1.342 1.342,1.342 0.741,0 1.342,-0.601 1.342,-1.342 0,-0.741 -0.601,-1.342 -1.342,-1.342 z M 7.87,2.927 c -0.741,0 -1.342,0.601 -1.342,1.342 0,0.741 0.601,1.342 1.342,1.342 0.741,0 1.342,-0.601 1.342,-1.342 0,-0.741 -0.601,-1.342 -1.342,-1.342 z"
     fill="url(#uuid-22fe0c1a-c6dd-412e-a6e7-99fe92c45445)"
     id="path16"
     style="fill:url(#uuid-22fe0c1a-c6dd-412e-a6e7-99fe92c45445)" />
  <path
     d="m 5.505,9.305 c 0.493,0.389 0.835,0.938 0.965,1.553 0.021,0.091 0.103,0.155 0.196,0.152 h 2.409 c 0.014,0 0.027,-0.005 0.041,-0.009 0.007,-0.002 0.014,-0.002 0.021,-0.005 0.015,-0.006 0.028,-0.015 0.041,-0.024 0.005,-0.004 0.011,-0.006 0.016,-0.01 0.013,-0.011 0.024,-0.024 0.034,-0.038 0.003,-0.004 0.007,-0.007 0.01,-0.012 0.012,-0.019 0.021,-0.04 0.026,-0.063 0.13,-0.618 0.475,-1.171 0.972,-1.56 0.083,-0.06 0.105,-0.174 0.051,-0.261 L 9.561,7.751 c 0,0 -0.003,0.002 -0.005,0.003 L 9.038,6.851 C 8.988,6.766 8.882,6.732 8.791,6.771 8.5,6.876 8.193,6.933 7.884,6.938 7.564,6.941 7.247,6.884 6.948,6.771 6.854,6.737 6.749,6.777 6.701,6.865 L 5.453,9.042 C 5.403,9.13 5.424,9.241 5.504,9.303 Z M 5.781,5.923 C 5.4,5.455 5.19,4.872 5.186,4.268 H 3.764 C 3.692,4.268 3.625,4.306 3.59,4.37 L 1.747,7.541 c -0.036,0.063 -0.036,0.14 0,0.203 L 2.422,8.905 C 2.476,8.999 2.592,9.036 2.69,8.992 3.051,8.815 3.449,8.723 3.851,8.724 3.948,8.717 4.045,8.717 4.141,8.724 4.222,8.729 4.3,8.69 4.344,8.622 L 4.917,7.642 5.781,6.147 c 0.047,-0.068 0.047,-0.157 0,-0.225 z m 8.242,1.757 c 0,-0.035 -0.009,-0.071 -0.027,-0.103 L 12.196,4.37 C 12.161,4.307 12.094,4.268 12.022,4.268 h -1.451 c 10e-4,0.597 -0.198,1.177 -0.566,1.647 -0.047,0.068 -0.047,0.157 0,0.225 l 0.649,1.12 v 0 c 0,0 0.218,0.377 0.218,0.377 l 0.573,0.994 c 0.01,0.018 0.023,0.034 0.038,0.048 0.044,0.044 0.106,0.066 0.169,0.058 h 0.276 c 0.153,0 0.305,0.019 0.456,0.045 0.228,0.045 0.448,0.118 0.669,0.224 0.09,0.057 0.21,0.031 0.268,-0.058 L 13.894,7.961 14.046,7.693 C 14.038,7.688 14.03,7.684 14.022,7.68 Z m -3.641,5.927 C 9.914,13.29 9.558,12.833 9.366,12.301 9.335,12.22 9.257,12.168 9.17,12.17 H 6.565 C 6.479,12.167 6.4,12.22 6.369,12.301 6.18,12.83 5.826,13.285 5.36,13.6 5.27,13.661 5.242,13.781 5.295,13.876 l 0.573,0.987 c 0.037,0.061 0.103,0.1 0.174,0.102 h 3.665 c 0.072,-0.002 0.137,-0.04 0.174,-0.102 l 0.566,-0.98 c 0.056,-0.094 0.028,-0.217 -0.065,-0.276 z"
     fill="url(#uuid-4ba47cb3-5931-4197-bf9f-12bd101272c6)"
     id="path18"
     style="fill:url(#uuid-4ba47cb3-5931-4197-bf9f-12bd101272c6)" />
</svg>
