<?xml version="1.0" encoding="UTF-8" standalone="no"?>
<svg
   id="uuid-e675764d-a014-4885-a91b-521dadea5143"
   width="14.687818"
   height="18"
   viewBox="0 0 14.687818 18"
   version="1.1"
   xmlns="http://www.w3.org/2000/svg"
   xmlns:svg="http://www.w3.org/2000/svg">
  <defs
     id="defs7">
    <linearGradient
       id="uuid-6ec85919-fa1f-48f4-a32e-4a1bf1aadb6f"
       x1="-560.02698"
       y1="1206.903"
       x2="-559.95697"
       y2="1198.078"
       gradientTransform="matrix(1,0,0,-1,568,1211.032)"
       gradientUnits="userSpaceOnUse">
      <stop
         offset="0"
         stop-color="#ccc"
         id="stop2" />
      <stop
         offset="1"
         stop-color="#ccc"
         stop-opacity=".02"
         id="stop4" />
    </linearGradient>
  </defs>
  <g
     id="g19"
     transform="translate(-1.658201)">
    <path
       d="m 5.837,14.493 v 2.469 l 0.857,0.921 C 6.745,17.944 6.816,17.985 6.895,18 h 2.117 c 0.092,-0.004 0.178,-0.044 0.24,-0.112 l 0.858,-0.921 v -2.474 z"
       fill="#cecece"
       id="path9" />
    <path
       d="m 13.475,3.224 c 0,0 0,0 0,0 C 13.427,3.138 13.378,3.052 13.326,2.969 13.326,2.967 13.324,2.966 13.323,2.964 13.272,2.881 13.218,2.799 13.163,2.718 13.163,2.717 13.161,2.716 13.161,2.714 12.659,1.981 12.003,1.357 11.232,0.893 11.23,0.892 11.228,0.89 11.225,0.889 11.145,0.841 11.064,0.795 10.981,0.75 10.971,0.745 10.962,0.74 10.952,0.734 10.877,0.694 10.802,0.656 10.725,0.619 10.706,0.61 10.686,0.601 10.666,0.591 10.599,0.559 10.531,0.529 10.463,0.5 10.432,0.487 10.4,0.474 10.369,0.461 10.311,0.438 10.253,0.415 10.195,0.393 10.151,0.376 10.106,0.361 10.061,0.345 10.014,0.329 9.967,0.312 9.919,0.297 9.861,0.278 9.803,0.261 9.744,0.244 9.707,0.234 9.671,0.223 9.634,0.213 9.564,0.194 9.493,0.177 9.422,0.161 9.395,0.155 9.368,0.148 9.34,0.142 9.261,0.125 9.18,0.11 9.1,0.096 9.078,0.092 9.057,0.088 9.035,0.085 8.952,0.071 8.869,0.06 8.785,0.05 8.769,0.048 8.754,0.045 8.738,0.043 8.732,0.043 8.725,0.043 8.719,0.041 8.627,0.031 8.534,0.023 8.44,0.016 8.414,0.014 8.389,0.012 8.363,0.01 8.253,0.004 8.143,0.001 8.032,0 8.028,0 8.023,0 8.019,0 H 7.889 C 7.889,0 7.88,0 7.876,0 7.765,0 7.654,0.004 7.545,0.01 7.519,0.011 7.494,0.014 7.468,0.016 7.374,0.022 7.281,0.03 7.189,0.041 7.183,0.041 7.176,0.041 7.17,0.043 7.154,0.045 7.139,0.048 7.123,0.05 7.039,0.06 6.956,0.072 6.873,0.085 6.851,0.089 6.83,0.093 6.808,0.096 6.727,0.11 6.647,0.125 6.568,0.143 6.541,0.149 6.514,0.155 6.486,0.162 6.415,0.178 6.344,0.196 6.274,0.214 6.237,0.224 6.201,0.234 6.164,0.245 6.105,0.262 6.047,0.279 5.989,0.298 5.941,0.313 5.894,0.329 5.847,0.346 5.802,0.362 5.757,0.377 5.713,0.394 5.654,0.416 5.596,0.439 5.539,0.462 5.507,0.475 5.476,0.488 5.445,0.501 5.376,0.53 5.309,0.561 5.242,0.592 5.222,0.601 5.203,0.61 5.183,0.62 5.106,0.657 5.031,0.695 4.956,0.735 4.946,0.74 4.936,0.745 4.927,0.751 4.845,0.796 4.764,0.842 4.684,0.89 4.682,0.891 4.679,0.893 4.677,0.894 3.906,1.358 3.25,1.982 2.748,2.715 2.748,2.716 2.746,2.717 2.746,2.719 2.691,2.8 2.637,2.882 2.586,2.965 2.586,2.967 2.584,2.968 2.583,2.97 2.531,3.054 2.482,3.139 2.434,3.225 c 0,0 0,0 0,0 C 1.828,4.322 1.545,5.61 1.7,6.949 c 0.017,0.141 0.041,0.277 0.069,0.41 0.485,2.34 2.745,3.598 3.417,6.733 0.053,0.233 0.258,0.399 0.497,0.402 h 4.546 c 0.239,-0.003 0.444,-0.169 0.497,-0.402 C 11.398,10.958 13.657,9.7 14.143,7.361 14.172,7.227 14.196,7.091 14.212,6.95 14.367,5.611 14.084,4.323 13.478,3.226 Z"
       fill="#f2f2f2"
       id="path11" />
    <path
       d="M 10.554,3.495 C 9.74,3.524 9.102,4.204 9.126,5.018 V 5.833 H 6.892 V 5.018 C 6.91,4.195 6.258,3.513 5.435,3.495 H 5.4 C 4.556,3.555 3.92,4.289 3.98,5.133 4.034,5.893 4.639,6.498 5.4,6.553 h 0.678 v 6.35 c 0.013,0.21 0.195,0.37 0.405,0.356 0.192,-0.012 0.344,-0.165 0.356,-0.356 v -6.35 h 2.287 v 6.35 c 0.013,0.21 0.195,0.37 0.405,0.356 0.192,-0.012 0.344,-0.165 0.356,-0.356 v -6.35 h 0.667 C 11.371,6.525 12.01,5.84 11.982,5.024 v -0.002 0 C 12.007,4.207 11.369,3.524 10.554,3.496 v 0 z M 6.077,5.831 H 5.357 C 4.907,5.887 4.497,5.568 4.441,5.118 4.385,4.668 4.704,4.258 5.154,4.202 5.604,4.146 6.014,4.465 6.07,4.915 6.074,4.949 6.076,4.982 6.076,5.016 v 0.815 0 z m 4.53,0 H 9.887 V 4.974 c -0.04,-0.395 0.248,-0.749 0.643,-0.789 0.384,-0.039 0.731,0.232 0.785,0.614 0.008,0.058 0.008,0.117 0,0.174 0.045,0.423 -0.258,0.804 -0.681,0.855 L 10.606,5.83 h 10e-4 z"
       fill="url(#uuid-6ec85919-fa1f-48f4-a32e-4a1bf1aadb6f)"
       id="path13"
       style="fill:url(#uuid-6ec85919-fa1f-48f4-a32e-4a1bf1aadb6f)" />
    <polygon
       points="5.837,16.915 5.837,16.962 6.167,17.317 10.11,16.532 10.11,16.066 "
       fill="#999999"
       id="polygon15" />
    <path
       d="M 10.11,14.892 5.837,15.73 v 0.466 l 4.28,-0.829 z"
       fill="#999999"
       id="path17" />
  </g>
  <g
     id="uuid-b4c57418-a630-4e90-907d-8685652cc478"
     transform="translate(-1.658201)">
    <g
       id="g27">
      <path
         d="m 16.345,13.884 v -0.823 c 0,-0.061 -0.038,-0.115 -0.094,-0.136 l -0.05,-0.018 -1.035,-0.339 c -0.041,-0.013 -0.073,-0.044 -0.089,-0.083 l -0.238,-0.578 c -0.016,-0.038 -0.014,-0.08 0.003,-0.117 l 0.487,-1.038 C 15.355,10.696 15.343,10.63 15.3,10.587 L 14.727,10.015 C 14.683,9.971 14.615,9.959 14.559,9.988 l -0.05,0.025 -0.962,0.49 c -0.038,0.019 -0.082,0.021 -0.121,0.005 L 12.848,10.27 C 12.81,10.254 12.78,10.224 12.767,10.185 L 12.37,9.1 C 12.349,9.043 12.294,9.004 12.233,9.004 H 11.41 c -0.061,0 -0.115,0.038 -0.136,0.094 l -0.018,0.05 -0.339,1.035 c -0.013,0.041 -0.044,0.073 -0.083,0.089 l -0.578,0.238 c -0.038,0.016 -0.081,0.014 -0.118,-0.003 L 9.118,10.02 C 9.062,9.993 8.995,10.004 8.951,10.048 L 8.38,10.62 c -0.045,0.044 -0.056,0.112 -0.028,0.168 l 0.025,0.05 0.494,0.964 c 0.019,0.038 0.021,0.083 0.005,0.122 L 8.638,12.502 C 8.622,12.54 8.591,12.57 8.553,12.584 l -1.104,0.397 c -0.058,0.021 -0.097,0.075 -0.096,0.137 v 0.822 c 0,0.061 0.038,0.115 0.094,0.136 l 0.05,0.018 1.036,0.339 c 0.041,0.013 0.073,0.044 0.089,0.083 l 0.238,0.578 c 0.016,0.038 0.014,0.08 -0.003,0.117 l -0.489,1.038 c -0.026,0.056 -0.014,0.122 0.029,0.165 l 0.573,0.573 c 0.044,0.044 0.112,0.056 0.168,0.027 l 0.05,-0.025 0.966,-0.491 c 0.038,-0.019 0.082,-0.021 0.121,-0.005 l 0.578,0.238 c 0.038,0.016 0.068,0.046 0.081,0.085 l 0.395,1.085 c 0.021,0.058 0.076,0.096 0.137,0.096 h 0.823 c 0.061,0 0.115,-0.038 0.136,-0.094 l 0.018,-0.05 0.339,-1.036 c 0.013,-0.041 0.044,-0.073 0.083,-0.089 l 0.578,-0.238 c 0.038,-0.016 0.08,-0.014 0.117,0.003 l 1.037,0.487 c 0.056,0.026 0.122,0.014 0.165,-0.029 l 0.573,-0.573 c 0.044,-0.044 0.056,-0.112 0.027,-0.168 l -0.025,-0.05 -0.49,-0.961 C 14.828,15.161 14.826,15.117 14.842,15.078 L 15.08,14.5 c 0.016,-0.038 0.046,-0.068 0.085,-0.081 l 1.085,-0.395 c 0.058,-0.021 0.097,-0.077 0.096,-0.139 z"
         fill="#b3b3b3"
         id="path21" />
      <circle
         cx="11.845"
         cy="13.5"
         r="2.431"
         fill="#e6e6e6"
         id="circle23" />
      <path
         d="m 11.139,14.313 -0.754,-0.754 c -0.069,-0.086 -0.194,-0.101 -0.281,-0.032 -0.086,0.069 -0.101,0.194 -0.032,0.281 0.009,0.012 0.02,0.023 0.032,0.032 l 0.895,0.895 c 0.078,0.077 0.204,0.077 0.281,0 l 2.188,-2.188 c 0.086,-0.069 0.1,-0.195 0.03,-0.281 -0.07,-0.086 -0.195,-0.1 -0.281,-0.03 -0.011,0.009 -0.021,0.019 -0.03,0.03 l -2.048,2.048 z"
         fill="#b3b3b3"
         id="path25" />
    </g>
  </g>
</svg>
