<svg
	xmlns="http://www.w3.org/2000/svg" width="17.988" height="17.993">
	<style>
		<![CDATA[.B{fill:#a67af4}.C{fill:#773adc}.D{fill:#b796f9}]]>
	</style>
	<rect x="5.974" width="6.053" height="6.053" rx=".401" class="B"/>
	<path d="M11.392 5.523H6.611c-.059 0-.107-.048-.107-.108V.638c0-.059.048-.107.107-.108h4.778c.059 0 .108.048.108.108v4.777c0 .058-.046.106-.105.108z" class="C"/>
	<path d="M7.202.983h1.257V5.07H7.202zM9.541.982h1.257V5.07H9.541z" class="D"/>
	<path d="M8.045 10.794c.292-.107.598-.161.909-.161a2.64 2.64 0 0 1 .888.154l2.184.779V7.225a.4.4 0 0 0-.401-.401h-5.25a.4.4 0 0 0-.401.401v4.327z" class="B"/>
	<path d="M8.045 10.794c.292-.107.598-.161.909-.161a2.64 2.64 0 0 1 .888.154l1.654.59V7.463c0-.059-.048-.108-.108-.108H6.611c-.059 0-.107.048-.107.108v3.896l1.541-.564z" class="C"/>
	<path d="M9.842 10.786l.956.341V7.806H9.541V10.7a2.64 2.64 0 0 1 .301.085zm-1.797.008c.135-.05.274-.087.414-.113V7.808H7.202v3.295z" class="D"/>
	<path d="M5.264 2.406H1.159a.37.37 0 0 0-.37.37v4.847a.37.37 0 0 0 .37.37h4.105z" class="B"/>
	<path d="M5.264 2.895H1.376c-.055 0-.099.045-.099.099v4.41c0 .055.044.099.099.099h3.887V2.895z" class="C"/>
	<path d="M1.922 3.313h1.161v3.773H1.922zm2.181-.001h1.161v3.774H4.103z" class="D"/>
	<path d="M2.807 11.517a2.13 2.13 0 0 1 .737-.131c.246 0 .489.042.72.125l.999.356V8.684H1.159a.37.37 0 0 0-.37.37v3.202l2.019-.739z" class="B"/>
	<path d="M2.807 11.517a2.13 2.13 0 0 1 .737-.131c.246 0 .489.042.72.125l.999.356V9.173H1.376c-.055 0-.099.045-.099.099v2.804l1.53-.56z" class="C"/>
	<path d="M4.287 11.511l.977.349V9.591H4.103v1.864l.184.056zm-1.48.006a2.02 2.02 0 0 1 .276-.078V9.592H1.922v2.25l.885-.324z" class="D"/>
	<path d="M15.136 11.517a2.13 2.13 0 0 0-.737-.131c-.246 0-.489.042-.72.125l-.999.356V8.684h4.105a.37.37 0 0 1 .37.37v3.202z" class="B"/>
	<path d="M15.136 11.517a2.13 2.13 0 0 0-.737-.131c-.246 0-.489.042-.72.125l-.999.356V9.173h3.887c.055 0 .099.045.099.099v2.804l-1.53-.56z" class="C"/>
	<path d="M13.656 11.511l-.977.349V9.591h1.161v1.864l-.184.056zm1.48.006a2.02 2.02 0 0 0-.276-.078V9.592h1.161v2.25l-.885-.324z" class="D"/>
	<path d="M12.68 2.406h4.105a.37.37 0 0 1 .37.37v4.847a.37.37 0 0 1-.37.37H12.68z" class="B"/>
	<path d="M12.68 2.895h3.887c.055 0 .099.045.099.099v4.41c0 .055-.044.099-.099.099H12.68z" class="C"/>
	<path d="M14.86 3.313h1.161v3.773H14.86zm-2.18-.001h1.161v3.774H12.68z" class="D"/>
	<path d="M17.988 17.993H0l.004-1.012.254.011c.726-.001 1.09-.234 1.454-.467s.73-.467 1.459-.467h.003c.73 0 1.094.233 1.459.467s.729.467 1.458.467 1.093-.234 1.458-.467.73-.467 1.459-.467h.003a2.76 2.76 0 0 1 .482.04c.432.077.708.252.983.428.365.233.729.465 1.456.466s1.092-.234 1.456-.467.73-.467 1.459-.467h.014c.725.004 1.09.236 1.454.468s.73.466 1.459.466l.213-.007v1.008z" fill="#83b9f9"/>
	<path d="M.092 13.594l.82 1.762.026.056h0l.22.496.128.293.156-.096c.38-.243.853-.546 1.731-.546s1.349.303 1.729.546c.179.114.34.214.536.284l-.243-.504-.014-.029-.032-.068-1.011-2.172-.013-.027-.01-.029c-.007-.019-.068-.194-.108-.366s-.072-.383.013-.586c.088-.212.247-.385.448-.492l-.372-.133a1.64 1.64 0 0 0-1.117.005l-2.221.813h0l-.58.213a.3.3 0 0 0-.173.166c-.012.03-.002.098.015.171a2.73 2.73 0 0 0 .072.244zm4.606-.24l1.011 2.172.032.068h0l.413.893c.534-.014.801-.175 1.125-.383.38-.243.853-.546 1.731-.546.204 0 .391.016.57.048.531.094.868.309 1.165.499s.55.336.994.372l.44-.873.01.003.04-.081.054-.109.045-.091.966-1.969s.154-.415.114-.512a.37.37 0 0 0-.217-.208l-.818-.292h0l-2.74-.978c-.446-.159-.933-.157-1.377.006l-2.738 1.003h0l-.715.262c-.096.035-.174.109-.213.204-.015.036-.003.121.018.21a3.24 3.24 0 0 0 .089.301zm9.269-.747c.084.203.054.411.013.586a3.98 3.98 0 0 1-.108.366l-.01.029-.013.027-1.011 2.172-.032.068-.014.029-.249.515c.213-.071.385-.174.575-.295.372-.238.833-.533 1.708-.544h.037c.872.003 1.342.304 1.721.545l.125.077.12-.274.22-.496h0l.026-.055.82-1.762s.045-.128.072-.244c.017-.073.027-.141.015-.171a.3.3 0 0 0-.173-.166l-.58-.212h0l-2.221-.814a1.64 1.64 0 0 0-1.117-.005l-.372.133a.99.99 0 0 1 .448.492z" fill="#0078d4"/>
</svg>