<svg
	xmlns="http://www.w3.org/2000/svg" width="18" height="17.984">
	<defs>
		<linearGradient id="A" x1="8.819" y1="13.807" x2="9.017" y2="-4.804" gradientUnits="userSpaceOnUse">
			<stop offset="0" stop-color="#773adc"/>
			<stop offset=".88" stop-color="#b796f9"/>
		</linearGradient>
		<linearGradient id="B" x1="6.427" y1="22.723" x2="6.427" y2="3.155" gradientUnits="userSpaceOnUse">
			<stop offset="0" stop-color="#773adc"/>
			<stop offset=".869" stop-color="#b796f9"/>
		</linearGradient>
	</defs>
	<path d="M17.591.409A1.4 1.4 0 0 0 16.6 0H6.544a1.407 1.407 0 0 0-1.4 1.4v10.065a1.407 1.407 0 0 0 1.4 1.4H16.6a1.4 1.4 0 0 0 1.4-1.4V1.398a1.4 1.4 0 0 0-.409-.989z" fill="#773adc"/>
	<path d="M14.886 3.114a1.4 1.4 0 0 0-.989-.409H3.839a1.407 1.407 0 0 0-1.4 1.4V14.17a1.407 1.407 0 0 0 1.4 1.4H13.9a1.4 1.4 0 0 0 1.4-1.4V4.103a1.4 1.4 0 0 0-.414-.989z" fill="url(#A)"/>
	<path d="M11.456 17.982H1.4a1.407 1.407 0 0 1-1.4-1.4V6.517a1.407 1.407 0 0 1 1.4-1.4h10.056a1.4 1.4 0 0 1 1.4 1.4v10.067a1.4 1.4 0 0 1-1.4 1.4z" fill="url(#B)"/>
	<g fill="#fff">
		<path d="M4.48 13.628a.333.333 0 0 0-.325.34v.68a.333.333 0 0 0 .325.343h6.161a.332.332 0 0 0 .324-.34v-.68a.332.332 0 0 0-.324-.34zm-2.591.331a.331.331 0 0 1 .33-.331h.7a.331.331 0 0 1 .331.331v.7a.331.331 0 0 1-.332.332h-.7a.331.331 0 0 1-.33-.331zM4.48 10.87a.334.334 0 0 0-.325.34v.68a.333.333 0 0 0 .325.34h6.161a.332.332 0 0 0 .324-.34v-.68a.333.333 0 0 0-.324-.34zm-2.591.331a.331.331 0 0 1 .33-.331h.7a.331.331 0 0 1 .331.331v.7a.331.331 0 0 1-.331.33h-.7a.33.33 0 0 1-.33-.33zM4.48 8.113a.333.333 0 0 0-.325.34v.68a.334.334 0 0 0 .325.34h6.161a.333.333 0 0 0 .324-.34v-.68a.332.332 0 0 0-.324-.34z"/>
		<path d="M1.889 8.443a.33.33 0 0 1 .33-.33h.7a.331.331 0 0 1 .331.33v.7a.331.331 0 0 1-.331.331h-.7a.331.331 0 0 1-.33-.331z"/>
	</g>
</svg>