<?xml version="1.0" encoding="UTF-8" standalone="no"?>
<svg
   id="uuid-731bd5b3-23db-488a-9ced-4191169e8995"
   width="18.000999"
   height="17.345684"
   viewBox="0 0 18.000999 17.345684"
   version="1.1"
   xmlns="http://www.w3.org/2000/svg"
   xmlns:svg="http://www.w3.org/2000/svg">
  <defs
     id="defs27" />
  <path
     d="m 1.823,14.405842 c -0.054,-0.03 -0.087,-0.087 -0.086,-0.149 V 3.0948416 c 0,-0.062 0.032,-0.119 0.086,-0.149 l 2.428,-1.409 c 0.081,-0.049 0.109,-0.152 0.063,-0.235 l -0.698,-1.215 c -0.047,-0.082 -0.151,-0.111 -0.233,-0.065 l -2.034,1.181 -1.263,0.733 c -0.053,0.031 -0.086,0.088 -0.086,0.149 V 15.259842 c 0,0.062 0.033,0.119 0.086,0.15 l 1.221,0.708 2.075,1.2 c 0.08,0.047 0.184,0.021 0.231,-0.06 0,0 0,0 0,-0.001 l 0.7,-1.215 c 0.046,-0.083 0.018,-0.187 -0.063,-0.236 l -2.428,-1.4 z m 16.091,-12.4700004 -1.221,-0.708 -2.077,-1.204 c -0.08,-0.047 -0.184,-0.021 -0.231,0.06 0,0 0,0 0,0.001 l -0.7,1.215 c -0.046,0.083 -0.018,0.187 0.063,0.236 l 2.426,1.408 c 0.054,0.03 0.087,0.087 0.086,0.149 V 14.250842 c 0,0.062 -0.032,0.119 -0.086,0.149 l -2.426,1.409 c -0.081,0.049 -0.109,0.152 -0.063,0.235 l 0.7,1.215 c 0.047,0.082 0.151,0.111 0.233,0.065 l 2.033,-1.18 1.263,-0.733 c 0.054,-0.031 0.087,-0.088 0.087,-0.15 V 2.0858416 c 0,-0.062 -0.033,-0.119 -0.086,-0.15 z"
     fill="#949494"
     id="path2" />
  <path
     d="m 1.739,3.0948416 c -0.001,-0.062 0.032,-0.119 0.086,-0.149 l 2.426,-1.409 c 0.081,-0.049 0.109,-0.152 0.063,-0.235 l -0.698,-1.215 c -0.035,-0.061 -0.104,-0.095 -0.174,-0.084 -0.03,-0.001 -0.06,0.006 -0.086,0.021 l -2.032,1.179 -1.263,0.733 c -0.025,0.015 -0.046,0.035 -0.061,0.06 l 0.02,0.012 c -0.013,0.024 -0.019,0.05 -0.02,0.077 z M 1.825,14.400842 c -0.054,-0.03 -0.087,-0.087 -0.086,-0.149 L 0,15.260842 c 0,0.027 0.007,0.054 0.02,0.078 l -0.02,0.011 c 0.015,0.025 0.036,0.046 0.061,0.061 l 1.261,0.732 2.032,1.18 c 0.026,0.015 0.056,0.022 0.086,0.021 0.07,0.01 0.139,-0.023 0.174,-0.084 l 0.7,-1.215 c 0.046,-0.083 0.018,-0.187 -0.063,-0.236 z m 14.436,-0.15 c 0.001,0.062 -0.032,0.119 -0.086,0.149 l -2.426,1.409 c -0.082,0.047 -0.111,0.152 -0.065,0.235 l 0.7,1.215 c 0.035,0.061 0.104,0.095 0.174,0.084 0.03,10e-4 0.06,-0.006 0.086,-0.021 l 2.032,-1.179 1.263,-0.733 c 0.025,-0.015 0.046,-0.035 0.061,-0.06 l -0.02,-0.012 c 0.013,-0.024 0.019,-0.05 0.02,-0.077 z M 18,1.9958416 c -0.015,-0.025 -0.036,-0.046 -0.061,-0.061 l -1.263,-0.732 -2.032,-1.18 c -0.026,-0.015 -0.056,-0.0219999986 -0.086,-0.021 -0.07,-0.01 -0.139,0.023 -0.174,0.084 l -0.7,1.215 c -0.046,0.083 -0.018,0.187 0.063,0.236 l 2.426,1.408 c 0.054,0.03 0.087,0.087 0.086,0.149 l 1.741,-1.009 c 0,-0.027 -0.007,-0.054 -0.02,-0.078 z"
     fill="#a3a3a3"
     id="path4" />
  <g
     id="g10"
     transform="translate(0,-0.3271584)">
    <path
       d="m 10.35,12.367 c -0.051,-0.029 -0.092,-0.006 -0.092,0.053 l -0.003,1.049 c 0,0.179 0.062,0.379 0.164,0.555 0.102,0.177 0.244,0.331 0.4,0.421 l 0.913,0.527 0.321,0.186 c 0.051,0.029 0.092,0.006 0.092,-0.053 0,-0.059 -0.041,-0.129 -0.092,-0.159 L 11.732,14.76 10.819,14.233 c -0.106,-0.061 -0.201,-0.165 -0.27,-0.285 -0.069,-0.12 -0.111,-0.253 -0.111,-0.375 l 0.003,-1.049 c 0,-0.058 -0.041,-0.129 -0.092,-0.159 z"
       fill="#f4f3f5"
       id="path6" />
    <path
       d="m 10.35,12.367 c -0.051,-0.029 -0.092,-0.006 -0.092,0.053 l -0.003,1.049 c 0,0.179 0.062,0.379 0.164,0.555 0.102,0.177 0.244,0.331 0.4,0.421 l 0.913,0.527 0.321,0.186 c 0.051,0.029 0.092,0.006 0.092,-0.053 0,-0.059 -0.041,-0.129 -0.092,-0.159 L 11.732,14.76 10.819,14.233 c -0.106,-0.061 -0.201,-0.165 -0.27,-0.285 -0.069,-0.12 -0.111,-0.253 -0.111,-0.375 l 0.003,-1.049 c 0,-0.058 -0.041,-0.129 -0.092,-0.159 z"
       fill="#bebfbe"
       id="path8" />
  </g>
  <path
     d="m 13.878,13.561842 -0.321,-0.185 c -0.292,-0.201 -1.119,-0.524 -1.23,-0.904 -0.116,-0.192 -0.046,-1.112 -0.062,-1.332 0.002,-0.073 -0.076,-0.196 -0.157,-0.165 0,0 -1.827,1.062 -1.827,1.062 0.017,-0.01 0.04,-0.008 0.065,0.006 0.168,0.027 0.063,0.956 0.089,1.208 -0.036,0.605 0.898,0.923 1.294,1.187 0.101,0.076 0.525,0.219 0.386,0.403 0,0 1.827,-1.062 1.827,-1.062 0.066,-0.055 -0.002,-0.182 -0.065,-0.218 z"
     fill="#d9d9d6"
     id="path12" />
  <path
     d="m 10.248,2.2298416 c 0,0 -0.1,-0.069 -0.238,0.024 -0.029,0.019 -6.887,3.976 -6.887,3.976 -0.022,0.012 -0.043,0.027 -0.063,0.044 -0.007,0.005 -0.013,0.011 -0.019,0.017 -0.01,0.009 -0.02,0.017 -0.029,0.026 -0.004,0.004 -0.009,0.009 -0.013,0.014 -0.004,0.004 -0.007,0.008 -0.011,0.012 -0.004,0.005 -0.009,0.009 -0.013,0.014 -0.009,0.011 -0.018,0.022 -0.027,0.033 -0.003,0.004 -0.006,0.008 -0.009,0.012 -0.002,0.002 -0.003,0.004 -0.005,0.006 -0.003,0.004 -0.006,0.008 -0.009,0.012 -0.007,0.01 -0.013,0.019 -0.019,0.029 -0.006,0.009 -0.012,0.019 -0.017,0.028 0,0 0,0.002 -10e-4,0.002 -10e-4,0 0,0.002 -10e-4,0.002 -0.004,0.008 -0.009,0.016 -0.013,0.024 -0.005,0.009 -0.01,0.019 -0.015,0.029 -0.004,0.009 -0.008,0.017 -0.012,0.026 0,0 0,10e-4 0,0.002 0,0 0,10e-4 0,0.002 -0.004,0.01 -0.008,0.02 -0.012,0.03 -0.004,0.01 -0.008,0.021 -0.011,0.032 -0.002,0.005 -0.003,0.01 -0.005,0.016 0,0.002 -10e-4,0.005 -0.002,0.007 -0.001,0.004 -0.002,0.008 -0.004,0.012 -0.004,0.013 -0.007,0.026 -0.009,0.038 -0.002,0.008 -0.003,0.015 -0.004,0.023 0,0.004 -0.002,0.008 -0.002,0.012 0,0.004 -10e-4,0.008 -0.002,0.011 -0.003,0.022 -0.004,0.044 -0.004,0.065 l 0.014,5.0180004 c 0,0.106 0.038,0.18 0.098,0.215 l 0.334,0.194 c 0,0 0.116,0.047 0.239,-0.023 l 1.449,-0.837 0.004,1.43 c 0,0.106 0.038,0.18 0.098,0.215 l 0.334,0.194 c -0.02,-0.011 0.115,0.048 0.239,-0.023 l 1.449,-0.836 0.004,1.549 c 0,0.106 0.038,0.18 0.098,0.215 l 0.334,0.194 c 0,0 0.116,0.048 0.239,-0.023 l 6.887,-3.976 c 0.185,-0.107 0.335,-0.3670004 0.334,-0.5790004 l -0.014,-5.018 c 0,-0.106 -0.038,-0.181 -0.099,-0.215 0,0 0,0 0,0 h -10e-4 c 0,0 0,0 0,0 0,0 -0.334,-0.194 -0.334,-0.194 0,0 -0.101,-0.068 -0.237,0.024 l -1.449,0.836 -0.004,-1.549 c 0,-0.106 -0.038,-0.181 -0.099,-0.215 0,0 0,0 0,0 0,0 -0.307,-0.18 -0.334,-0.194 -0.027,-0.014 -0.091,-0.071 -0.239,0.023 -0.019,0.012 -1.449,0.837 -1.449,0.837 l -0.004,-1.43 c 0,-0.106 -0.038,-0.181 -0.099,-0.215 0,0 0,0 0,0 l -0.334,-0.194"
     fill="#0078d4"
     id="path14" />
  <polygon
     points="11.562,11.116 11.562,9.626 12.833,8.885 12.833,10.367 "
     fill="#50e6ff"
     id="polygon16"
     transform="translate(0,-0.3271584)" />
  <polygon
     points="10.284,8.885 11.562,8.136 12.833,8.885 11.562,9.633 "
     fill="#c3f1ff"
     id="polygon18"
     transform="translate(0,-0.3271584)" />
  <polygon
     points="10.284,10.367 10.284,8.885 11.562,9.633 11.562,11.116 "
     fill="#9cebff"
     id="polygon20"
     transform="translate(0,-0.3271584)" />
  <path
     d="m 10.406,2.4188416 c 0.058,-0.022 0.123,-0.026 0.177,0.005 -0.12,-0.055 -0.369,-0.277 -0.511,-0.199 -0.071,0.018 -6.881,3.974 -6.949,4.005 -0.029,0.017 -0.057,0.037 -0.082,0.061 -0.147,0.129 -0.247,0.322 -0.252,0.519 0,0 0.014,5.0180004 0.014,5.0180004 -0.031,0.239 0.301,0.303 0.432,0.409 -0.06,-0.035 -0.098,-0.109 -0.098,-0.215 L 3.123,7.0038416 c 10e-4,-0.115 0.04,-0.23 0.098,-0.33 0.058,-0.099 0.138,-0.19 0.236,-0.249 0.11,-0.055 6.829,-3.957 6.948,-4.004 z m 2.123,0.979 c 0.058,-0.022 0.123,-0.026 0.177,0.005 -0.133,-0.056 -0.372,-0.286 -0.526,-0.194 -0.156,0.087 -6.851,3.941 -6.996,4.043 -0.157,0.13 -0.267,0.33 -0.271,0.536 l 0.014,5.0180004 c -0.031,0.239 0.301,0.303 0.432,0.409 -0.06,-0.035 -0.098,-0.109 -0.098,-0.215 L 5.247,7.9818416 c 0.001,-0.115 0.04,-0.23 0.098,-0.33 0.058,-0.099 0.138,-0.19 0.236,-0.249 0.11,-0.055 6.828,-3.957 6.948,-4.004 z m 1.967,0.909 c -0.076,-0.043 -0.167,-0.018 -0.239,0.023 l -6.887,3.976 c -0.074,0.044 -0.139,0.107 -0.19,0.177 -0.084,0.116 -0.143,0.257 -0.145,0.402 l 0.014,5.0180004 c -0.031,0.239 0.301,0.303 0.432,0.409 -0.06,-0.035 -0.098,-0.109 -0.098,-0.215 L 7.369,9.0788416 c 0.007,-0.229 0.141,-0.458 0.334,-0.579 0.11,-0.055 6.828,-3.957 6.948,-4.004 0.042,-0.016 0.086,-0.022 0.128,-0.013 0.184,0.08 -0.303,-0.178 -0.285,-0.176 z"
     fill="#155ea1"
     id="path22" />
</svg>
