<?xml version="1.0" encoding="UTF-8" standalone="no"?>
<svg
   id="uuid-d2356fe8-6590-417d-8ce3-7061c7e3a831"
   width="17.749001"
   height="17.750999"
   viewBox="0 0 17.749001 17.750999"
   version="1.1"
   xmlns="http://www.w3.org/2000/svg"
   xmlns:svg="http://www.w3.org/2000/svg">
  <defs
     id="defs17">
    <linearGradient
       id="uuid-daca5ccf-0ebe-4a74-a17d-1c39f196b045"
       x1="-2149.665"
       y1="1022.157"
       x2="-2149.665"
       y2="1011.114"
       gradientTransform="rotate(180,-1069.1915,512.758)"
       gradientUnits="userSpaceOnUse">
      <stop
         offset="0"
         stop-color="#b796f9"
         id="stop2" />
      <stop
         offset=".314"
         stop-color="#b593f8"
         id="stop4" />
      <stop
         offset=".503"
         stop-color="#af8bf5"
         id="stop6" />
      <stop
         offset=".658"
         stop-color="#a57cf1"
         id="stop8" />
      <stop
         offset=".796"
         stop-color="#9768ea"
         id="stop10" />
      <stop
         offset=".921"
         stop-color="#854ee2"
         id="stop12" />
      <stop
         offset=".999"
         stop-color="#773adc"
         id="stop14" />
    </linearGradient>
  </defs>
  <g
     id="uuid-65a9092c-9c9e-4919-8c4e-13cd4aceb01b"
     transform="translate(-0.12600005,-0.125)">
    <g
       id="g35">
      <path
         d="m 17.165,3.976 h -0.897 c -0.181,-0.012 -0.362,-0.012 -0.542,0 -0.37,-0.005 -0.666,-0.31 -0.661,-0.68 0.002,-0.107 0.079,-0.305 0.079,-0.305 L 15.785,1.649 15.332,1.422 14.109,3.651 c -0.122,0.211 -0.347,0.343 -0.592,0.345 h -0.818 c -0.11,0 -0.219,0.026 -0.316,0.079 v 0 L 10.835,5.06 c -0.051,0.017 -0.107,0.017 -0.158,0 H 5.322 C 5.164,5.07 5.045,5.206 5.055,5.363 c 0,0.004 0,0.008 0.001,0.012 v 4.748 l -1.726,0.532 0.128,0.552 1.597,-0.236 v 2.857 c 0,0.158 0.128,0.286 0.286,0.286 h 9.24 l 1.134,1.468 0.483,-0.305 -0.671,-1.162 h 1.657 c 0.158,0.005 0.29,-0.118 0.296,-0.276 0,-0.003 0,-0.007 0,-0.01 V 4.272 c 0,-0.163 -0.132,-0.296 -0.295,-0.296 -0.007,0 -0.014,0 -0.02,0 z"
         fill="#773adc"
         id="path19" />
      <circle
         cx="15.784"
         cy="1.199"
         r="1.074"
         fill="#b796f9"
         id="circle21" />
      <circle
         cx="16.475"
         cy="16.476"
         r="1.4"
         fill="#b796f9"
         id="circle23" />
      <circle
         cx="1.87"
         cy="11.403"
         r="1.744"
         fill="#b796f9"
         id="circle25" />
      <g
         id="g31">
        <path
           d="M 15.084,4.814 8.27,3.829 H 8.132 C 7.634,3.825 7.211,4.192 7.146,4.686 L 6.89,6.351 h 9.013 V 5.947 C 15.991,5.41 15.627,4.903 15.09,4.815 c -0.002,0 -0.004,0 -0.006,0 z"
           fill="#a67af4"
           id="path27" />
        <path
           d="M 15.015,5.237 8.211,4.252 H 8.122 C 7.838,4.254 7.599,4.464 7.56,4.745 L 7.323,6.351 h 8.106 l 0.069,-0.463 c 0.047,-0.312 -0.168,-0.603 -0.481,-0.65 0,0 -0.002,0 -0.002,0 z"
           fill="#ffffff"
           id="path29" />
      </g>
      <path
         d="m 5.312,5.06 h 5.966 c 0.077,0.004 0.151,0.035 0.207,0.089 l 0.986,0.985 c 0.054,0.057 0.129,0.089 0.207,0.089 h 4.536 c 0.16,0 0.291,0.126 0.296,0.286 v 7.319 c -0.005,0.159 -0.136,0.286 -0.296,0.286 H 5.381 C 5.225,14.136 5.08,14.027 5.058,13.87 5.056,13.856 5.055,13.842 5.055,13.828 V 5.375 C 5.043,5.219 5.156,5.08 5.311,5.06 Z"
         fill="url(#uuid-daca5ccf-0ebe-4a74-a17d-1c39f196b045)"
         id="path33"
         style="fill:url(#uuid-daca5ccf-0ebe-4a74-a17d-1c39f196b045)" />
    </g>
  </g>
</svg>
