<svg
	xmlns="http://www.w3.org/2000/svg" width="17.202" height="15.362">
	<defs>
		<linearGradient id="A" x1="12.692" y1="14.036" x2="12.692" y2="5.324" gradientUnits="userSpaceOnUse">
			<stop offset="0" stop-color="#0078d4"/>
			<stop offset="1" stop-color="#5ea0ef"/>
		</linearGradient>
		<linearGradient id="B" x1="12.731" y1="9.516" x2="12.731" y2="6.5" gradientUnits="userSpaceOnUse">
			<stop offset=".001" stop-color="#f78d1e"/>
			<stop offset="1" stop-color="#faa21d"/>
		</linearGradient>
		<linearGradient id="C" x1="6.589" y1="0" x2="6.589" y2="11.673" gradientUnits="userSpaceOnUse">
			<stop offset=".225" stop-color="#5ea0ef"/>
			<stop offset="1" stop-color="#0078d4"/>
		</linearGradient>
	</defs>
	<g fill="#0078d4">
		<rect x="16.535" y="6.74" width=".667" height="3.487" rx=".229"/>
		<rect x="16.535" y="10.885" width=".667" height="1.254" rx=".229"/>
	</g>
	<path d="M10.106 4.349h5.161a.162.162 0 0 1 .162.162v1.2H9.944v-1.2a.162.162 0 0 1 .162-.162zm-.162 9.687h5.486v1.166a.16.16 0 0 1-.16.16H10.1a.16.16 0 0 1-.16-.16v-1.166z" fill="#005ba1"/>
	<rect x="8.616" y="5.324" width="8.151" height="8.712" rx=".371" fill="url(#A)"/>
	<rect x="9.332" y="6.044" width="6.797" height="7.271" rx=".31" fill="#005ba1"/>
	<path d="M13.547 6.503a.8.8 0 0 0-.819.536.8.8 0 0 0-.824-.531c-.74.061-.777.794-.764 1.074.007.2.048.831 1.581 1.925l.013.009.013-.01c1.533-1.1 1.57-1.746 1.575-1.954.009-.271-.034-.994-.775-1.049z" fill="url(#B)"/>
	<path d="M16.118 10.381h-1.951a.061.061 0 0 0-.048.025l-.443.763a.059.059 0 0 1-.081.018.077.077 0 0 1-.018-.018l-.634-1.2a.113.113 0 0 0-.151-.053.116.116 0 0 0-.054.053l-.608 1.812a.058.058 0 0 1-.077.029h0a.063.063 0 0 1-.028-.028l-.517-1.208a.114.114 0 0 0-.154-.048.117.117 0 0 0-.048.048l-.713 1.281a.055.055 0 0 1-.048.029H9.3v.447h1.51a.047.047 0 0 0 .048-.029l.444-.817a.059.059 0 0 1 .079-.023.051.051 0 0 1 .023.023l.608 1.414a.113.113 0 0 0 .145.067.111.111 0 0 0 .067-.067l.642-1.9a.054.054 0 0 1 .069-.031.053.053 0 0 1 .031.031l.535 1.015a.112.112 0 0 0 .149.046.117.117 0 0 0 .045-.046l.682-1.147a.056.056 0 0 1 .047-.029h1.691z" fill="#fff"/>
	<path d="M8.213 5.744a.775.775 0 0 1 .774-.774h.554v-.41a.566.566 0 0 1 .565-.566h3.073A4.647 4.647 0 0 0 8.447.002 4.784 4.784 0 0 0 3.875 3.12 4.408 4.408 0 0 0 0 7.363a4.48 4.48 0 0 0 4.636 4.307h3.577z" fill="url(#C)"/>
</svg>