<svg id="uuid-161df770-adcf-4bfb-ad48-870a3c9fbf7e"
	xmlns="http://www.w3.org/2000/svg" width="18" height="18" viewBox="0 0 18 18">
	<defs>
		<linearGradient id="uuid-e4c8cb6b-a435-4c48-b85c-b75144b4a95a" x1="8.084" y1="0" x2="8.084" y2="15.296" gradientUnits="userSpaceOnUse">
			<stop offset=".1" stop-color="#54aef0" />
			<stop offset=".44" stop-color="#379ce5" />
			<stop offset=".78" stop-color="#218ddc" />
			<stop offset="1" stop-color="#1988d9" />
		</linearGradient>
		<linearGradient id="uuid-417b9ab6-9bee-4621-9b9f-8bf4bf013bc9" x1="13.499" y1="15.184" x2="13.499" y2="12.028" gradientUnits="userSpaceOnUse">
			<stop offset="0" stop-color="#b1b3b3" />
			<stop offset=".217" stop-color="#bcbebd" />
			<stop offset=".687" stop-color="#d1d1cf" />
			<stop offset="1" stop-color="#d9d9d6" />
		</linearGradient>
		<linearGradient id="uuid-854ecc2c-7094-422f-a858-d9ff008e6589" x1="13.499" y1="18.001" x2="13.499" y2="15.298" gradientUnits="userSpaceOnUse">
			<stop offset="0" stop-color="#4aa647" />
			<stop offset=".998" stop-color="#8de971" />
		</linearGradient>
		<linearGradient id="uuid-c43d5946-8404-4003-9f40-3d8b8a5dd185" x1="-550.47" y1="1016.012" x2="-550.47" y2="1013.31" gradientTransform="translate(564 1025.516) scale(1 -1)" gradientUnits="userSpaceOnUse">
			<stop offset=".002" stop-color="#8de971" />
			<stop offset="1" stop-color="#4aa647" />
		</linearGradient>
	</defs>
	<g>
		<path d="M9.599,13.729c0-.58.471-1.051,1.051-1.051h.764c.258-.227.503-.449.734-.666-.264-.315-.419-.719-.419-1.158,0-.994.808-1.802,1.802-1.802.378,0,.728.117,1.018.317,1.505-2.038,1.599-3.338,1.615-3.917.048-1.427-.143-5.145-3.947-5.44-1.831-.136-3.525.976-4.127,2.71C7.476.975,5.76-.139,3.914.013.157.308-.042,4.027.005,5.453.005,6.471.31,9.723,8.089,15.296c.539-.386,1.041-.761,1.51-1.125v-.442Z" fill="url(#uuid-e4c8cb6b-a435-4c48-b85c-b75144b4a95a)" />
		<path d="M16.163,5.453c.048-1.427-.143-5.145-3.947-5.44-1.831-.136-3.525.976-4.127,2.71C7.476.975,5.76-.139,3.914.013.157.308-.042,4.027.005,5.453.005,6.471.233,9.676,8.022,15.249" fill="none" />
		<path d="M16.163,4.892h-3.804c-.049.002-.095.027-.124.067l-1.151,1.988c-.045.071-.139.092-.21.047-.019-.012-.035-.028-.047-.047l-1.645-3.129c-.07-.147-.246-.21-.393-.14-.061.029-.111.078-.14.14l-1.579,4.708c-.036.076-.126.109-.202.074-.032-.015-.058-.041-.074-.074l-1.35-3.129c-.075-.144-.253-.201-.398-.125-.054.028-.098.072-.125.125l-1.845,3.319c-.026.045-.072.073-.124.076h-1.75c.262.403.548.79.856,1.16h1.598c.053.004.103-.027.124-.076l1.151-2.121c.041-.074.133-.1.207-.059.025.014.046.034.059.059l1.579,3.671c.058.152.228.229.38.172.079-.03.142-.092.172-.172l1.664-4.945c.028-.074.111-.11.184-.082.038.014.067.044.082.082l1.389,2.634c.074.139.247.192.386.118.05-.027.092-.068.118-.118l1.769-2.977c.026-.045.072-.073.124-.076h3.072" fill="#fff" />
	</g>
	<g>
		<path d="M16.348,13.129h-2.518v-2.544h-.601v2.544h-2.579c-.331,0-.601.269-.601.601v2.92h.601v-2.92h2.579v2.92h.601v-2.92h2.518v2.866h.601v-2.866c0-.331-.269-.601-.601-.601Z" fill="url(#uuid-417b9ab6-9bee-4621-9b9f-8bf4bf013bc9)" />
		<path d="M10.35,15.298c-.746,0-1.351.605-1.351,1.351s.605,1.351,1.351,1.351,1.351-.605,1.351-1.351-.605-1.351-1.351-1.351ZM16.649,15.298c-.746,0-1.351.605-1.351,1.351s.605,1.351,1.351,1.351,1.351-.605,1.351-1.351-.605-1.351-1.351-1.351ZM13.53,15.298c-.746,0-1.351.605-1.351,1.351s.605,1.351,1.351,1.351,1.351-.605,1.351-1.351-.605-1.351-1.351-1.351Z" fill="url(#uuid-854ecc2c-7094-422f-a858-d9ff008e6589)" />
		<circle cx="13.53" cy="10.855" r="1.351" fill="url(#uuid-c43d5946-8404-4003-9f40-3d8b8a5dd185)" />
	</g>
</svg>