<svg
	xmlns="http://www.w3.org/2000/svg" width="17.502" height="17.496">
	<defs>
		<linearGradient id="A" x1="3.145" y1="1.962" x2="3.145" y2="10.534" gradientUnits="userSpaceOnUse">
			<stop offset=".167" stop-color="#50e6ff"/>
			<stop offset="1" stop-color="#32bedd"/>
		</linearGradient>
		<linearGradient id="B" x1="5.867" y1="17.623" x2="5.867" y2="11.068" gradientUnits="userSpaceOnUse">
			<stop offset="0" stop-color="#32bedd"/>
			<stop offset=".826" stop-color="#50e6ff"/>
		</linearGradient>
		<linearGradient id="C" x1="11.253" y1=".001" x2="11.253" y2="6.285" gradientUnits="userSpaceOnUse">
			<stop offset=".167" stop-color="#50e6ff"/>
			<stop offset="1" stop-color="#32bedd"/>
		</linearGradient>
	</defs>
	<path d="M15.46 4.411v3.1a.136.136 0 0 1-.205.118 2.959 2.959 0 0 0-1.485-.4h-.078a2.86 2.86 0 0 0-.293.015.136.136 0 0 1-.147-.137V2.966a.382.382 0 0 1 .62-.3.148.148 0 0 1 .02.019l1.456 1.456a.333.333 0 0 1 .025.028.361.361 0 0 1 .052.083h0a.375.375 0 0 1 .035.159zM4.416 2.037h2.732a.273.273 0 0 1 .193.467l-1.7 1.7a.137.137 0 0 1-.1.04H2.97a.381.381 0 0 1-.269-.65l1.447-1.445a.382.382 0 0 1 .268-.112z" fill="#0078d4"/>
	<path d="M4.258 2.037v5.016a.154.154 0 0 0 .154.154h1.717a.147.147 0 0 1 .118.049.153.153 0 0 1-.006.217l-2.948 2.932a.153.153 0 0 1-.209 0L.109 7.475a.165.165 0 1 1 .112-.31h1.705a.14.14 0 0 0 .122-.154V4.389a.347.347 0 0 1 .1-.245z" fill="url(#A)"/>
	<path d="M2.042 13.081v-2.732a.274.274 0 0 1 .468-.193l1.7 1.7a.133.133 0 0 1 .04.1v2.574a.381.381 0 0 1-.65.269l-1.446-1.448a.386.386 0 0 1-.112-.27z" fill="#0078d4"/>
	<path d="M2.042 13.239h4.254a.154.154 0 0 0 .152-.154v-1.716a.151.151 0 0 1 .049-.119.153.153 0 0 1 .217.006l2.934 2.948a.153.153 0 0 1 0 .209l-2.932 2.976a.164.164 0 0 1-.308-.114v-1.7a.139.139 0 0 0-.153-.124H4.394a.346.346 0 0 1-.245-.1z" fill="url(#B)"/>
	<path d="M15.458 4.254h-5.016-.031a.143.143 0 0 0-.075.041.146.146 0 0 0-.048.109v1.72a.146.146 0 0 1-.049.119.137.137 0 0 1-.023.019.154.154 0 0 1-.192-.026h0L7.09 3.289a.154.154 0 0 1 0-.21L10.023.104s.1-.128.209-.1c.087.023.1.119.1.21v1.7a.162.162 0 0 0 .015.05h0a.134.134 0 0 0 .136.074h2.624a.332.332 0 0 1 .1.015l.033.011h0a.4.4 0 0 1 .111.075l2.021 2.022z" fill="url(#C)"/>
	<path d="M17.367 12.455h-.006a.231.231 0 0 0-.039-.031.239.239 0 0 0-.052-.029.151.151 0 0 0-.035-.014h0a.139.139 0 0 0-.033-.01h-.011-.012-.018-.014-.025-.532v-1.71a3.217 3.217 0 0 0-.82-2.161 2.725 2.725 0 0 0-4.079 0 3.158 3.158 0 0 0-.821 2.161v1.694h-.442-.026l-.038.006a.4.4 0 0 0-.126.045l-.027.017a.274.274 0 0 0-.035.027.109.109 0 0 0-.019.018l-.019.021a.5.5 0 0 0-.038.052.3.3 0 0 0-.029.06.186.186 0 0 0-.01.031.167.167 0 0 0-.008.032c0 .012-.005.023-.006.035s0 .024 0 .037v4.371a.374.374 0 0 0 .034.149.138.138 0 0 0 .014.03.412.412 0 0 0 .107.124h.007a.4.4 0 0 0 .221.073h6.691a.373.373 0 0 0 .231-.082.383.383 0 0 0 .15-.3v-4.365a.384.384 0 0 0-.135-.281zm-5.174-1.822a1.743 1.743 0 0 1 .477-1.184 1.368 1.368 0 0 1 1.93-.147 1.275 1.275 0 0 1 .148.147 1.722 1.722 0 0 1 .179.238 1.708 1.708 0 0 1 .24.447 1.686 1.686 0 0 1 .091.5v1.722h-3.065z" fill="#ffbd02"/>
	<g fill="#ffe452">
		<path d="M17.495 12.736v4.373a.383.383 0 0 1-.15.3l-3.565-2.468h-.007l-3.588-2.483h0a.37.37 0 0 1 .176-.087l.038-.006h.026 6.708.019.006.018.012.011a.139.139 0 0 1 .033.01h0a.151.151 0 0 1 .035.014.239.239 0 0 1 .052.029.231.231 0 0 1 .039.031h.006a.384.384 0 0 1 .131.287z" opacity=".4"/>
		<path d="M17.361 12.451h0-.007l-3.58 2.48h-.007l-3.571 2.473h-.006a.372.372 0 0 1-.115-.128.136.136 0 0 1-.013-.03.38.38 0 0 1-.021-.121v-4.4-.037c0-.013 0-.023.006-.035a.167.167 0 0 1 .008-.032.186.186 0 0 1 .01-.031.3.3 0 0 1 .029-.06.5.5 0 0 1 .038-.052l.016-.003a.109.109 0 0 1 .019-.018.274.274 0 0 1 .035-.027l.027-.017a.33.33 0 0 1 .112-.045l.038-.006h.033 6.7.025.014.018.012.011a.139.139 0 0 1 .033.01h0a.151.151 0 0 1 .035.014.239.239 0 0 1 .052.029.231.231 0 0 1 .049.036z" opacity=".4"/>
	</g>
</svg>