<?xml version="1.0" encoding="UTF-8" standalone="no"?>
<svg
   id="uuid-9961b247-00c3-4402-b206-a8d95adaf082"
   width="18"
   height="14.999"
   viewBox="0 0 18 14.999"
   version="1.1"
   xmlns="http://www.w3.org/2000/svg"
   xmlns:svg="http://www.w3.org/2000/svg">
  <defs
     id="defs17">
    <linearGradient
       id="uuid-27e62ad6-9c1a-44b9-a0e6-cc053af0fff8"
       x1="7.1040001"
       y1="2.052"
       x2="7.1040001"
       y2="18.826"
       gradientUnits="userSpaceOnUse">
      <stop
         offset="0"
         stop-color="#0078d4"
         id="stop2" />
      <stop
         offset="1"
         stop-color="#005ba1"
         id="stop4" />
    </linearGradient>
    <linearGradient
       id="uuid-49d334f2-3426-4ef1-8d05-b378dd12132a"
       x1="14.209"
       y1="4.8730001"
       x2="14.209"
       y2="14.895"
       gradientUnits="userSpaceOnUse">
      <stop
         offset=".001"
         stop-color="#76bc2d"
         id="stop7" />
      <stop
         offset="1"
         stop-color="#86d633"
         id="stop9" />
    </linearGradient>
    <linearGradient
       id="uuid-14e965d7-33a9-4483-a50b-98e9dd609999"
       x1="-549.79102"
       y1="1012.685"
       x2="-549.79102"
       y2="1021.876"
       gradientTransform="matrix(1,0,0,-1,564,1025.516)"
       gradientUnits="userSpaceOnUse">
      <stop
         offset="0"
         stop-color="#5e9624"
         id="stop12" />
      <stop
         offset=".999"
         stop-color="#76bc2d"
         id="stop14" />
    </linearGradient>
  </defs>
  <g
     id="g43"
     transform="translate(0,-1.5)">
    <g
       id="g35">
      <path
         d="M 9.962,8.728 V 5.823 C 9.967,5.451 10.266,5.156 10.638,5.15 11.746,5.121 12.092,4.884 12.459,4.632 12.826,4.38 13.243,4.094 14.209,4.094 V 2.151 C 14.209,1.791 13.913,1.5 13.548,1.5 H 0.661 C 0.296,1.5 0,1.792 0,2.151 v 13.697 c 0,0.36 0.296,0.651 0.661,0.651 h 12.887 c 0.365,0 0.661,-0.292 0.661,-0.651 v -1.895 c -0.127,0 -0.251,-0.034 -0.361,-0.099 C 13.199,13.467 9.962,11.399 9.962,8.727 Z"
         fill="url(#uuid-27e62ad6-9c1a-44b9-a0e6-cc053af0fff8)"
         stroke-width="0"
         id="path19"
         style="fill:url(#uuid-27e62ad6-9c1a-44b9-a0e6-cc053af0fff8)" />
      <path
         d="M 5.896,5.313 V 4.843 L 5.829,4.818 5.317,4.653 5.183,4.332 5.443,3.788 5.108,3.458 5.041,3.491 4.565,3.729 4.239,3.597 4.029,3.028 H 3.552 L 3.527,3.094 3.36,3.598 3.034,3.73 2.489,3.473 2.154,3.803 2.187,3.869 2.431,4.339 2.297,4.66 1.71,4.867 v 0.47 L 1.777,5.362 2.289,5.527 2.423,5.848 2.163,6.393 2.498,6.723 2.565,6.69 3.042,6.451 3.368,6.583 3.578,7.152 H 4.055 L 4.08,7.086 4.247,6.582 4.573,6.45 5.126,6.706 5.461,6.376 5.428,6.31 5.186,5.841 5.32,5.52 5.898,5.313 Z M 3.802,5.995 C 3.295,5.995 2.883,5.59 2.883,5.09 c 0,-0.5 0.411,-0.905 0.919,-0.905 0.508,0 0.919,0.405 0.919,0.905 v 0 c 0,0.499 -0.41,0.905 -0.917,0.905 0,0 0,0 -10e-4,0 z"
         fill="#c3f1ff"
         stroke-width="0"
         id="path21" />
      <path
         d="m 4.078,13.401 v 0 l -0.119,-0.11 c -0.075,-0.074 -0.196,-0.074 -0.271,0 l -1.087,1.071 -0.447,-0.44 c -0.075,-0.074 -0.196,-0.074 -0.271,0 l -0.119,0.11 c -0.074,0.075 -0.074,0.194 0,0.269 l 0.696,0.685 c 0.074,0.074 0.195,0.075 0.27,0.002 0,0 10e-4,-10e-4 0.002,-0.002 L 4.069,13.67 c 0.078,-0.07 0.083,-0.189 0.012,-0.266 0,-10e-4 -0.002,-0.002 -0.003,-0.003 z"
         fill="#c3f1ff"
         stroke-width="0"
         id="path23" />
      <path
         d="m 4.078,10.911 v 0 l -0.119,-0.11 c -0.075,-0.074 -0.196,-0.074 -0.271,0 l -1.087,1.071 -0.447,-0.44 c -0.075,-0.074 -0.196,-0.074 -0.271,0 l -0.119,0.11 c -0.074,0.075 -0.074,0.194 0,0.269 l 0.696,0.685 c 0.074,0.074 0.195,0.075 0.27,0.002 0,0 10e-4,-10e-4 0.002,-0.002 L 4.069,11.18 c 0.078,-0.07 0.083,-0.189 0.012,-0.266 0,-10e-4 -0.002,-0.002 -0.003,-0.003 z"
         fill="#c3f1ff"
         stroke-width="0"
         id="path25" />
      <path
         d="m 4.078,8.362 v 0 L 3.959,8.252 C 3.884,8.178 3.763,8.178 3.688,8.252 L 2.601,9.323 2.154,8.883 C 2.079,8.809 1.958,8.809 1.883,8.883 L 1.764,8.993 C 1.69,9.068 1.69,9.187 1.764,9.262 L 2.46,9.947 c 0.074,0.074 0.195,0.075 0.27,0.002 0,0 10e-4,-10e-4 0.002,-0.002 L 4.069,8.631 C 4.147,8.561 4.152,8.442 4.081,8.365 4.081,8.364 4.079,8.363 4.078,8.362 Z"
         fill="#c3f1ff"
         stroke-width="0"
         id="path27" />
      <rect
         x="5.0310001"
         y="13.713"
         width="7.0679998"
         height="0.963"
         rx="0.32499999"
         ry="0.32499999"
         fill="#c3f1ff"
         stroke-width="0"
         id="rect29" />
      <rect
         x="5.0310001"
         y="11.166"
         width="5.02"
         height="0.963"
         rx="0.32499999"
         ry="0.32499999"
         fill="#c3f1ff"
         stroke-width="0"
         id="rect31" />
      <rect
         x="5.0310001"
         y="8.618"
         width="4.1890001"
         height="0.963"
         rx="0.32499999"
         ry="0.32499999"
         fill="#c3f1ff"
         stroke-width="0"
         id="rect33" />
    </g>
    <g
       id="g41">
      <path
         d="m 18,8.728 c 0,2.41 -3.012,4.35 -3.666,4.743 -0.077,0.045 -0.173,0.045 -0.25,0 -0.655,-0.391 -3.666,-2.334 -3.666,-4.743 v -2.9 c 0.002,-0.126 0.105,-0.228 0.233,-0.23 2.342,-0.061 1.803,-1.056 3.558,-1.056 1.755,0 1.216,0.995 3.558,1.056 0.128,0.002 0.231,0.104 0.233,0.23 z"
         fill="url(#uuid-49d334f2-3426-4ef1-8d05-b378dd12132a)"
         stroke-width="0"
         id="path37"
         style="fill:url(#uuid-49d334f2-3426-4ef1-8d05-b378dd12132a)" />
      <path
         d="m 17.685,8.752 c 0,2.209 -2.761,3.989 -3.362,4.35 -0.07,0.042 -0.159,0.042 -0.229,0 -0.601,-0.358 -3.362,-2.14 -3.362,-4.35 V 6.095 c 0.001,-0.116 0.096,-0.209 0.213,-0.211 2.148,-0.058 1.653,-0.97 3.263,-0.97 1.61,0 1.115,0.912 3.261,0.968 0.117,0.002 0.212,0.095 0.213,0.211 l 0.002,2.659 z"
         fill="url(#uuid-14e965d7-33a9-4483-a50b-98e9dd609999)"
         stroke-width="0"
         id="path39"
         style="fill:url(#uuid-14e965d7-33a9-4483-a50b-98e9dd609999)" />
    </g>
  </g>
  <path
     d="M 16.113,5.644 13.771,7.962 12.63,6.838 12.573,6.792 C 12.386,6.669 12.132,6.717 12.005,6.903 11.898,7.062 11.917,7.272 12.051,7.408 l 1.43,1.411 0.057,0.046 c 0.163,0.111 0.382,0.091 0.521,-0.048 L 16.695,6.214 16.742,6.158 C 16.866,5.972 16.812,5.722 16.623,5.6 16.464,5.497 16.255,5.517 16.117,5.645 h -0.007 0.002 z"
     fill="#ffffff"
     stroke-width="0"
     id="path45" />
</svg>
