<svg
	xmlns="http://www.w3.org/2000/svg" width="18.006" height="15.339">
	<defs>
		<linearGradient id="A" x1="11.009" y1="10.005" x2="11.009" y2="0" gradientUnits="userSpaceOnUse">
			<stop offset="0" stop-color="#773adc"/>
			<stop offset="1" stop-color="#a67af4"/>
		</linearGradient>
	</defs>
	<path d="M18.006 6.842a3.148 3.148 0 0 0-2.73-3.056 3.96 3.96 0 0 0-4.07-3.784A4.074 4.074 0 0 0 7.312 2.68a3.747 3.747 0 0 0-3.3 3.616 3.809 3.809 0 0 0 3.907 3.708h6.93a3.188 3.188 0 0 0 3.157-3.162z" fill="url(#A)"/>
	<path d="M14.329 4.116l-1.864-1.813c-.2-.2-.376-.132-.376.184v.814a.224.224 0 0 1-.224.225h-.011c-1.2 0-4.552.316-4.674 4.9a.234.234 0 0 0 .234.235h1.192a.235.235 0 0 0 .236-.234v-.021a2.813 2.813 0 0 1 3.053-3.394.235.235 0 0 1 .234.235V6c0 .377.123.438.377.184l1.823-1.681a.234.234 0 0 0 .062-.325.261.261 0 0 0-.062-.062z" fill="#fff"/>
	<circle cx="5.508" cy="9.84" r="5.379" fill="#0078d4"/>
	<path d="M11.006 9.658h-.009a5.5 5.5 0 1 0 0 .363h.009zm-2.282 0a6.33 6.33 0 0 0-.442-2.29h1.7a5.071 5.071 0 0 1 .644 2.29zm-8.34.363h1.978a6.31 6.31 0 0 0 .454 2.292H1.031a5.067 5.067 0 0 1-.644-2.292zm7.335-3.015h-2.03V4.949a5.785 5.785 0 0 1 2.03 2.057zm-2.393 0h-1.9a6.131 6.131 0 0 1 1.9-1.912zm0 .362v2.29h-2.6a5.5 5.5 0 0 1 .519-2.29zm-2.965 2.29H.387a5.07 5.07 0 0 1 .643-2.29h1.815a5.923 5.923 0 0 0-.484 2.29zm.363.363h2.6v2.292h-2.1a5.84 5.84 0 0 1-.5-2.292zm2.6 2.654v2.032a5.939 5.939 0 0 1-1.927-2.032zm.363 0h2a5.993 5.993 0 0 1-2 2.081zm0-.362v-2.292h2.678a5.84 5.84 0 0 1-.5 2.292zm0-2.655v-2.29h2.2a5.878 5.878 0 0 1 .474 2.29zm4.1-2.652H8.112a5.962 5.962 0 0 0-2.066-2.251 5.124 5.124 0 0 1 3.742 2.251zM5.221 4.729a6.445 6.445 0 0 0-2.194 2.277h-1.8a5.127 5.127 0 0 1 3.994-2.277zm-3.993 7.946h1.764a6.139 6.139 0 0 0 2.014 2.254 5.126 5.126 0 0 1-3.778-2.254zm4.863 2.245a6.121 6.121 0 0 0 2.006-2.245h1.691a5.129 5.129 0 0 1-3.697 2.245zm3.893-2.607H8.273a6.289 6.289 0 0 0 .454-2.292h1.9a5.08 5.08 0 0 1-.643 2.292z" fill="#83b9f9"/>
</svg>