<svg
	xmlns="http://www.w3.org/2000/svg" width="18" height="17.93">
	<defs>
		<linearGradient id="A" x1="7.516" y1="1.229" x2="7.516" y2="13.638" gradientUnits="userSpaceOnUse">
			<stop offset="0" stop-color="#c3f1ff"/>
			<stop offset="1" stop-color="#fff" stop-opacity="0"/>
		</linearGradient>
		<linearGradient id="B" x1="12.207" y1="6.445" x2="12.207" y2="15.318" gradientUnits="userSpaceOnUse">
			<stop offset=".18" stop-color="#5ea0ef"/>
			<stop offset="1" stop-color="#0078d4"/>
		</linearGradient>
	</defs>
	<path d="M17.969 14.985c-.168.74-1.086 1.46-2.746 2.025a22.659 22.659 0 0 1-12.723.017C.969 16.488.144 15.794.015 15.096c-.024-.123 0-2.014 0-2.014L18 12.914l-.031 2.071z" fill="#5ea0ef"/>
	<path d="M18 12.948v.023c-.015 1.709-4.018 3.131-8.969 3.18-4.809.05-8.744-1.212-9.015-2.849a.969.969 0 0 1-.016-.17c-.006-.755.762-1.454 2.048-2.006a18.989 18.989 0 0 1 6.922-1.2 18.987 18.987 0 0 1 6.957 1.063c1.269.517 2.041 1.185 2.072 1.922z" fill="#50e6ff"/>
	<rect x="1.347" y="9.257" width="12.338" height="4.629" rx=".563" fill="#005ba1"/>
	<rect x="1.347" y="4.629" width="12.338" height="4.629" rx=".563" fill="#0078d4"/>
	<rect x="1.347" width="12.338" height="4.629" rx=".563" fill="#5ea0ef"/>
	<path d="M2.474 2.315h0a.68.68 0 0 1 .68-.68h0a.679.679 0 0 1 .68.68h0a.679.679 0 0 1-.68.679h0a.68.68 0 0 1-.68-.679zm4.66 0a.21.21 0 0 0-.211-.211H4.76a.211.211 0 0 0 0 .422h2.163a.211.211 0 0 0 .211-.211zm0 4.628a.21.21 0 0 0-.211-.211H4.76a.211.211 0 0 0 0 .422h2.163a.21.21 0 0 0 .211-.211zm0 4.629a.21.21 0 0 0-.211-.211H4.76a.211.211 0 1 0 0 .421h2.163a.21.21 0 0 0 .211-.21zm-3.98-3.949h0a.679.679 0 0 0 .68-.68h0a.68.68 0 0 0-.68-.68h0a.681.681 0 0 0-.68.68h0a.68.68 0 0 0 .68.68zm0 4.629h0a.68.68 0 0 0 .68-.68h0a.679.679 0 0 0-.68-.68h0a.68.68 0 0 0-.68.68h0a.681.681 0 0 0 .68.68z" fill="#fff"/>
	<path d="M13.684 4.065v-3.5a.563.563 0 0 0-.563-.563H1.91a.563.563 0 0 0-.563.563v3.5a.563.563 0 0 0 .563.563.563.563 0 0 0-.563.563v3.5a.563.563 0 0 0 .563.562.563.563 0 0 0-.563.563v3.5a.563.563 0 0 0 .563.563h11.211a.563.563 0 0 0 .563-.563v-3.5a.563.563 0 0 0-.563-.563.563.563 0 0 0 .563-.562v-3.5a.563.563 0 0 0-.563-.563.563.563 0 0 0 .563-.563z" opacity=".3" fill="url(#A)"/>
	<path d="M16.653 11.865a2.02 2.02 0 0 0-1.729-1.944 2.549 2.549 0 0 0-2.593-2.466 2.592 2.592 0 0 0-2.482 1.724 2.4 2.4 0 0 0-2.088 2.327 2.444 2.444 0 0 0 2.5 2.379h4.388a2.04 2.04 0 0 0 2.004-2.02z" fill="url(#B)"/>
</svg>