<svg id="uuid-1936ac7a-e40a-4289-a7b0-e0172d01fed0"
	xmlns="http://www.w3.org/2000/svg" width="18" height="18" viewBox="0 0 18 18">
	<defs>
		<linearGradient id="uuid-d3b62619-ffe6-4e65-a8b4-faeb18c8a3c6" x1="12.038" y1="18" x2="12.038" y2="12.007" gradientUnits="userSpaceOnUse">
			<stop offset="0" stop-color="#552f99" />
			<stop offset=".999" stop-color="#773adc" />
		</linearGradient>
		<linearGradient id="uuid-dc34de31-b9ed-4304-8a5d-4e3fbd4d6826" x1="14.958" y1="14.993" x2="14.958" y2="9" gradientUnits="userSpaceOnUse">
			<stop offset=".489" stop-color="#a67af4" />
			<stop offset=".999" stop-color="#b796f9" />
		</linearGradient>
	</defs>
	<g>
		<path d="m8.707,15.491c.104-.105.248-.165.395-.165h.007s.861,0,.861,0v-2.184s0,0,0,0v-.535c0-.205.06-.395.161-.557-.872.087-1.83.135-2.836.135C3.308,12.185.077,11.439.007,10.501v3.425c0,.948,3.265,1.716,7.295,1.716.449,0,.888-.01,1.315-.028.024-.044.053-.086.089-.123Z" fill="#0078d4" stroke-width="0" />
		<path d="m11.022,11.556h2.048c.094-.029.186-.058.272-.088-.09-.106-.137-.24-.132-.379.005-.127.054-.249.138-.344l.01-.011.01-.01.795-.795c-1.011-.662-3.704-1.137-6.868-1.137-4.029,0-7.295.768-7.295,1.716s3.266,1.715,7.295,1.715c.996,0,1.946-.047,2.811-.132.181-.319.523-.535.915-.535Z" fill="#83b9f9" stroke-width="0" />
		<g>
			<path d="m0,6.145C0,7.092,3.266,7.86,7.295,7.86s7.295-.768,7.295-1.715-3.266-1.716-7.295-1.716S0,5.196,0,6.145Z" fill="#83b9f9" stroke-width="0" />
			<path d="m14.591,9.502v-3.397c-.002.948-3.267,1.716-7.295,1.716C3.308,7.821.077,7.074.007,6.137v3.425c0,.948,3.265,1.716,7.295,1.716,2.767,0,5.171-.362,6.407-.896l.881-.881Z" fill="#0078d4" stroke-width="0" />
		</g>
		<g>
			<path d="m7.295,3.393C3.308,3.393.077,2.646.007,1.709H.007v3.425c0,.948,3.265,1.716,7.295,1.716,3.944,0,7.155-.736,7.288-1.655h0v-.136h0V1.677c-.002.948-3.267,1.716-7.295,1.716Z" fill="#0078d4" stroke-width="0" />
			<path d="m0,1.716C0,2.663,3.266,3.431,7.295,3.431s7.295-.768,7.295-1.715S11.324,0,7.295,0,0,.768,0,1.716Z" fill="#83b9f9" stroke-width="0" />
		</g>
	</g>
	<g>
		<path d="m15.08,13.502v-1.495h-4.058c-.332,0-.601.269-.601.601v.602s0,0,0,.001v2.462h0c0,.058-.048.105-.105.105h-1.211c-.029,0-.057.011-.077.031-.041.041-.041.108,0,.149l1.975,1.974c.092.092.241.092.333,0l1.975-1.974c.016-.018.025-.041.026-.065.002-.058-.043-.107-.101-.11h-1.214s0,0,0,0c-.058,0-.105-.047-.105-.105v-2.176h3.164Z" fill="url(#uuid-d3b62619-ffe6-4e65-a8b4-faeb18c8a3c6)" stroke-width="0" />
		<path d="m17.969,11.043l-1.975-1.974c-.092-.092-.241-.092-.333,0l-1.975,1.974c-.016.018-.025.041-.026.065-.002.058.043.107.101.11h1.214s0,0,0,0c.058,0,.105.047.105.105v2.176h-3.164v1.495h4.059c.332,0,.601-.269.601-.601v-3.065h0c0-.058.048-.105.105-.105h1.211c.029,0,.057-.011.077-.031.041-.041.041-.108,0-.149Z" fill="url(#uuid-dc34de31-b9ed-4304-8a5d-4e3fbd4d6826)" stroke-width="0" />
	</g>
</svg>