<svg
	xmlns="http://www.w3.org/2000/svg" width="18" height="12.818">
	<defs>
		<linearGradient id="A" x1="9" y1="-2.392" x2="9" y2="13.116" gradientUnits="userSpaceOnUse">
			<stop offset=".117" stop-color="#5ea0ef"/>
			<stop offset=".271" stop-color="#4595e8"/>
			<stop offset=".531" stop-color="#1f85dd"/>
			<stop offset=".741" stop-color="#087cd6"/>
			<stop offset=".873" stop-color="#0078d4"/>
		</linearGradient>
	</defs>
	<path d="M14.506 4.873A5.158 5.158 0 0 0 9.212.002 5.308 5.308 0 0 0 4.235 3.39 4.97 4.97 0 0 0 0 8.049a4.884 4.884 0 0 0 5 4.768h.086 8.894A4.024 4.024 0 0 0 18 8.79a4.081 4.081 0 0 0-3.494-3.917z" fill="url(#A)"/>
	<path fill="#83b9f9" d="M4.461 8.859l4.454-1.85.797 3.51.689-.085-.812-3.623 3.933 1.438.264-.642L9.299 5.94l-.116.288.073-.264-3.984-.877-.191.668 3.362.729-4.314 1.783z"/>
	<path d="M4.581 6.009a.881.881 0 1 0 .156-1.236l-.02.016a.875.875 0 0 0-.136 1.22zm-1 3.117a.886.886 0 1 0 .15-1.245.886.886 0 0 0-.15 1.245zm9.262-.77A.877.877 0 1 0 13 7.129h0a.867.867 0 0 0-.162 1.214zm-3.482 2.706a.877.877 0 1 0 .156-1.23h0a.867.867 0 0 0-.167 1.217z" fill="#9cebff"/>
	<path d="M11.736 6.447a.264.264 0 0 0 0-.458L9.8 4.869 7.858 3.75a.264.264 0 0 0-.4.229v4.478a.264.264 0 0 0 .4.229L9.8 7.567z" fill="#c3f1ff"/>
</svg>