<?xml version="1.0" encoding="UTF-8" standalone="no"?>
<svg
   id="uuid-a641de71-0e6c-4386-8acf-a2528b12d32c"
   width="16.254499"
   height="17.999001"
   viewBox="0 0 16.254499 17.999001"
   version="1.1"
   xmlns="http://www.w3.org/2000/svg"
   xmlns:svg="http://www.w3.org/2000/svg">
  <defs
     id="defs13">
    <radialGradient
       id="uuid-d5c66d9c-4c9d-4fec-81ec-ee9aa7007b59"
       cx="-24.113001"
       cy="-103.909"
       r="18.146"
       gradientTransform="matrix(0.374,0,0,0.374,17.13675,47.832)"
       gradientUnits="userSpaceOnUse">
      <stop
         offset=".313"
         stop-color="#005ba1"
         id="stop2" />
      <stop
         offset=".379"
         stop-color="#0062ad"
         id="stop4" />
      <stop
         offset=".522"
         stop-color="#006ec2"
         id="stop6" />
      <stop
         offset=".662"
         stop-color="#0075cf"
         id="stop8" />
      <stop
         offset=".793"
         stop-color="#0078d4"
         id="stop10" />
    </radialGradient>
  </defs>
  <path
     d="m 9.46875,7.401 0.73,1.264 c 0.068,0.117 0.193,0.19 0.329,0.19 h 1.46 c 0.136,0 0.261,-0.072 0.329,-0.19 l 0.73,-1.264 c 0.068,-0.117 0.068,-0.262 0,-0.38 l -0.73,-1.264 c -0.068,-0.117 -0.193,-0.19 -0.329,-0.19 h -1.46 c -0.136,0 -0.261,0.072 -0.329,0.19 l -0.73,1.264 c -0.068,0.117 -0.068,0.262 0,0.38 z m 2.847,1.97 c -0.068,-0.117 -0.193,-0.19 -0.329,-0.19 h -1.46 c -0.136,0 -0.261,0.072 -0.329,0.19 l -0.73,1.264 c -0.068,0.117 -0.068,0.262 0,0.38 l 0.73,1.264 c 0.068,0.117 0.193,0.19 0.329,0.19 h 1.46 c 0.136,0 0.261,-0.072 0.329,-0.19 l 0.73,-1.264 c 0.068,-0.117 0.068,-0.262 0,-0.38 z m -8.377,-0.705 c 0.068,0.117 0.193,0.19 0.329,0.19 h 1.46 c 0.136,0 0.261,-0.072 0.329,-0.19 l 0.73,-1.264 c 0.068,-0.117 0.068,-0.262 0,-0.38 l -0.73,-1.264 c -0.068,-0.117 -0.193,-0.19 -0.329,-0.19 h -1.46 c -0.136,0 -0.261,0.072 -0.329,0.19 l -0.73,1.264 c -0.068,0.117 -0.068,0.262 0,0.38 z m 2.847,1.97 -0.73,-1.264 c -0.068,-0.117 -0.193,-0.19 -0.329,-0.19 h -1.46 c -0.136,0 -0.261,0.072 -0.329,0.19 l -0.73,1.264 c -0.068,0.117 -0.068,0.262 0,0.38 l 0.73,1.264 c 0.068,0.117 0.193,0.19 0.329,0.19 h 1.46 c 0.136,0 0.261,-0.072 0.329,-0.19 l 0.73,-1.264 c 0.068,-0.117 0.068,-0.262 0,-0.38 z m 2.4,0.581 c -0.068,-0.117 -0.193,-0.19 -0.329,-0.19 h -1.46 c -0.136,0 -0.261,0.072 -0.329,0.19 l -0.73,1.264 c -0.068,0.117 -0.068,0.262 0,0.38 l 0.73,1.264 c 0.068,0.117 0.193,0.19 0.329,0.19 h 1.46 c 0.136,0 0.261,-0.072 0.329,-0.19 l 0.73,-1.264 c 0.068,-0.117 0.068,-0.262 0,-0.38 z m -2.117,-4.416 c 0.068,0.117 0.193,0.19 0.329,0.19 h 1.46 c 0.136,0 0.261,-0.072 0.329,-0.19 l 0.73,-1.264 c 0.068,-0.117 0.068,-0.262 0,-0.38 l -0.73,-1.264 c -0.068,-0.117 -0.193,-0.19 -0.329,-0.19 h -1.46 c -0.136,0 -0.261,0.072 -0.329,0.19 l -0.73,1.264 c -0.068,0.117 -0.068,0.262 0,0.38 z"
     fill="url(#uuid-d5c66d9c-4c9d-4fec-81ec-ee9aa7007b59)"
     stroke-width="0"
     id="path15"
     style="fill:url(#uuid-d5c66d9c-4c9d-4fec-81ec-ee9aa7007b59)" />
  <path
     d="m 3.68375,8.815 -0.741,-1.283 c -0.069,-0.119 -0.196,-0.193 -0.334,-0.193 h -1.482 c -0.138,0 -0.265,0.073 -0.334,0.193 l -0.741,1.283 c -0.069,0.119 -0.069,0.266 0,0.385 l 0.741,1.283 c 0.069,0.119 0.196,0.193 0.334,0.193 h 1.482 c 0.138,0 0.265,-0.073 0.334,-0.193 L 3.68375,9.2 c 0.069,-0.119 0.069,-0.266 0,-0.385 z m 3.369,-5.67 c 0.069,0.119 0.196,0.193 0.334,0.193 h 1.482 c 0.138,0 0.265,-0.073 0.334,-0.193 l 0.741,-1.283 c 0.069,-0.119 0.069,-0.266 0,-0.385 L 9.20275,0.194 C 9.13375,0.073 9.00675,0 8.86875,0 h -1.482 c -0.138,0 -0.265,0.073 -0.334,0.193 l -0.741,1.283 c -0.069,0.119 -0.069,0.266 0,0.385 l 0.741,1.283 z m 9.15,5.67 -0.741,-1.283 c -0.069,-0.119 -0.196,-0.193 -0.334,-0.193 h -1.482 c -0.138,0 -0.265,0.073 -0.334,0.193 l -0.741,1.283 c -0.069,0.119 -0.069,0.266 0,0.385 l 0.741,1.283 c 0.069,0.119 0.196,0.193 0.334,0.193 h 1.482 c 0.138,0 0.265,-0.073 0.334,-0.193 l 0.741,-1.283 c 0.069,-0.119 0.069,-0.266 0,-0.385 z m -9.389,5.478 -0.741,-1.283 c -0.069,-0.119 -0.196,-0.193 -0.334,-0.193 h -1.482 c -0.138,0 -0.265,0.073 -0.334,0.193 l -0.741,1.283 c -0.069,0.119 -0.069,0.266 0,0.385 l 0.741,1.283 c 0.069,0.119 0.196,0.193 0.334,0.193 h 1.482 c 0.138,0 0.265,-0.073 0.334,-0.193 l 0.741,-1.283 c 0.069,-0.119 0.069,-0.266 0,-0.385 z m 6.259,-10.937 -0.741,-1.283 c -0.069,-0.119 -0.196,-0.193 -0.334,-0.193 h -1.482 c -0.138,0 -0.265,0.073 -0.334,0.193 l -0.741,1.283 c -0.069,0.119 -0.069,0.266 0,0.385 l 0.741,1.283 c 0.069,0.119 0.196,0.193 0.334,0.193 h 1.482 c 0.138,0 0.265,-0.073 0.334,-0.193 l 0.741,-1.283 c 0.069,-0.119 0.069,-0.266 0,-0.385 z m -3.871,11.499 c -0.069,-0.119 -0.196,-0.193 -0.334,-0.193 h -1.482 c -0.138,0 -0.265,0.073 -0.334,0.193 l -0.741,1.283 c -0.069,0.119 -0.069,0.266 0,0.385 l 0.741,1.283 c 0.069,0.119 0.196,0.193 0.334,0.193 h 1.482 c 0.138,0 0.265,-0.073 0.334,-0.193 l 0.741,-1.283 c 0.069,-0.119 0.069,-0.266 0,-0.385 z m 0,-7.324 c -0.069,-0.119 -0.196,-0.193 -0.334,-0.193 h -1.482 c -0.138,0 -0.265,0.073 -0.334,0.193 l -0.741,1.283 c -0.069,0.119 -0.069,0.266 0,0.385 l 0.741,1.283 c 0.069,0.119 0.196,0.193 0.334,0.193 h 1.482 c 0.138,0 0.265,-0.073 0.334,-0.193 l 0.741,-1.283 c 0.069,-0.119 0.069,-0.266 0,-0.385 z"
     fill="#50e6ff"
     stroke-width="0"
     id="path17" />
  <g
     id="g27"
     transform="translate(-0.87225)">
    <path
       d="M 16.313,7.039 C 15.963,5.737 15.284,4.571 14.358,3.645 14.345,3.743 14.32,3.84 14.269,3.928 L 13.993,4.406 C 14.663,5.133 15.182,6 15.486,6.965 H 16 c 0.11,0 0.215,0.03 0.312,0.074 z"
       fill="#005ba1"
       stroke-width="0"
       id="path19" />
    <path
       d="M 4.014,13.617 C 3.34,12.889 2.819,12.018 2.514,11.05 H 2 c -0.11,0 -0.215,-0.03 -0.312,-0.074 0.35,1.303 1.03,2.47 1.957,3.396 0.014,-0.092 0.039,-0.182 0.086,-0.265 z"
       fill="#005ba1"
       stroke-width="0"
       id="path21" />
    <path
       d="M 2,6.965 H 2.514 C 3.196,4.805 4.929,3.112 7.11,2.48 L 6.861,2.048 C 6.81,1.959 6.784,1.861 6.772,1.762 4.293,2.524 2.364,4.524 1.688,7.04 1.785,6.995 1.89,6.966 2,6.966 Z"
       fill="#005ba1"
       stroke-width="0"
       id="path23" />
    <path
       d="m 16,11.05 h -0.514 c -0.681,2.157 -2.411,3.849 -4.589,4.484 l 0.242,0.418 c 0.054,0.094 0.08,0.197 0.091,0.301 2.478,-0.762 4.407,-2.762 5.082,-5.277 C 16.215,11.021 16.11,11.05 16,11.05 Z"
       fill="#005ba1"
       stroke-width="0"
       id="path25" />
  </g>
</svg>
