<?xml version="1.0" encoding="UTF-8" standalone="no"?>
<svg
   id="uuid-747ca526-9f15-40f4-aaad-b337544df5b1"
   width="18.001753"
   height="15.27425"
   viewBox="0 0 18.001753 15.27425"
   version="1.1"
   xmlns="http://www.w3.org/2000/svg"
   xmlns:svg="http://www.w3.org/2000/svg">
  <defs
     id="defs25">
    <linearGradient
       id="uuid-21f2dd4a-ce1f-423d-ae3f-76c0acd4242f"
       x1="936.099"
       y1="1455.675"
       x2="940.06097"
       y2="1455.675"
       gradientTransform="translate(-935.97575,-1438.5257)"
       gradientUnits="userSpaceOnUse">
      <stop
         offset="0"
         stop-color="#6f4bb2"
         id="stop2" />
      <stop
         offset="1"
         stop-color="#c69aeb"
         id="stop4" />
    </linearGradient>
    <linearGradient
       id="uuid-5bdefa1c-2045-414e-b2da-0c1102baf7b5"
       x1="9.8079996"
       y1="12.133"
       x2="17.516001"
       y2="12.133"
       gradientUnits="userSpaceOnUse"
       gradientTransform="translate(0,-1.362)">
      <stop
         offset="0"
         stop-color="#0078d4"
         id="stop7" />
      <stop
         offset="1"
         stop-color="#83b9f9"
         id="stop9" />
    </linearGradient>
    <linearGradient
       id="uuid-1665994e-c9b6-4bf0-82b2-930f12e1ce6f"
       x1="7.895"
       y1="12.948"
       x2="7.895"
       y2="1.364"
       gradientUnits="userSpaceOnUse"
       gradientTransform="translate(0,-1.362)">
      <stop
         offset="0"
         stop-color="#198ab3"
         id="stop12" />
      <stop
         offset=".09"
         stop-color="#1f9dc4"
         id="stop14" />
      <stop
         offset=".24"
         stop-color="#28b5d9"
         id="stop16" />
      <stop
         offset=".4"
         stop-color="#2dc6e9"
         id="stop18" />
      <stop
         offset=".57"
         stop-color="#31d1f2"
         id="stop20" />
      <stop
         offset=".78"
         stop-color="#32d4f5"
         id="stop22" />
    </linearGradient>
  </defs>
  <rect
     x="0.28624806"
     y="15.558346"
     width="3.184"
     height="3.184"
     rx="1.572"
     ry="1.572"
     transform="rotate(-45)"
     fill="url(#uuid-21f2dd4a-ce1f-423d-ae3f-76c0acd4242f)"
     id="rect27"
     style="fill:url(#uuid-21f2dd4a-ce1f-423d-ae3f-76c0acd4242f)" />
  <path
     d="m 14.752,12.966 c -1.158,0.761 -2.713,0.44 -3.475,-0.717 C 10.729,11.415 10.726,10.336 11.271,9.5 11.407,9.304 11.358,9.035 11.162,8.9 10.966,8.764 10.697,8.813 10.562,9.009 10.558,9.015 10.554,9.021 10.55,9.028 9.768,10.232 9.831,11.799 10.707,12.936 L 10.163,13.48 C 9.848,13.388 9.507,13.476 9.276,13.709 L 9.26,13.725 c -0.35,0.35 -0.351,0.918 -0.002,1.27 l 0.016,0.016 c 0.351,0.351 0.921,0.351 1.272,0 l 0.016,-0.016 c 0.238,-0.239 0.322,-0.59 0.218,-0.911 l 0.539,-0.539 c 1.141,0.872 2.708,0.929 3.909,0.142 0.199,-0.131 0.254,-0.399 0.123,-0.598 -0.131,-0.199 -0.399,-0.254 -0.598,-0.123 z m 2.986,-6.418 c 0,0 0,0 -0.001,-0.001 L 17.721,6.531 C 17.37,6.18 16.8,6.18 16.449,6.531 L 16.433,6.547 C 16.2,6.78 16.113,7.121 16.206,7.437 L 15.662,7.981 C 14.525,7.105 12.959,7.042 11.755,7.823 c -0.196,0.136 -0.245,0.404 -0.109,0.6 0.131,0.189 0.386,0.242 0.582,0.122 1.161,-0.756 2.715,-0.428 3.472,0.732 0.545,0.836 0.542,1.915 -0.006,2.749 -0.131,0.199 -0.077,0.467 0.122,0.598 0.199,0.131 0.467,0.077 0.598,-0.122 0.785,-1.201 0.727,-2.767 -0.145,-3.906 L 16.81,8.055 c 0.32,0.104 0.672,0.02 0.911,-0.218 L 17.737,7.821 C 18.089,7.47 18.09,6.901 17.74,6.549 Z"
     fill="url(#uuid-5bdefa1c-2045-414e-b2da-0c1102baf7b5)"
     id="path29"
     style="fill:url(#uuid-5bdefa1c-2045-414e-b2da-0c1102baf7b5)" />
  <path
     d="M 9.261,10.665 H 4.968 L 4.93,10.668 C 4.821,10.677 4.708,10.682 4.602,10.682 H 4.57 C 4.526,10.684 4.483,10.685 4.439,10.685 2.54,10.685 0.993,9.206 0.902,7.311 0.967,5.591 2.249,4.197 3.961,3.99 L 4.506,3.924 4.697,3.409 C 5.254,1.91 6.702,0.902 8.301,0.903 c 0.023,0 0.047,0 0.07,0 h 0.022 c 0,0 0.022,0 0.022,0 0.039,-0.001 0.078,-0.002 0.118,-0.002 1.999,0 3.633,1.566 3.72,3.565 l 0.033,0.755 0.749,0.099 c 0.945,0.125 1.72,0.711 2.117,1.516 0.095,0.039 0.191,0.075 0.283,0.12 C 15.475,6.661 15.6,6.383 15.791,6.146 15.229,5.232 14.28,4.576 13.153,4.427 13.046,1.945 11.001,0 8.534,0 8.486,0 8.437,0 8.389,0.002 c -0.029,0 -0.058,0 -0.087,0 -1.98,0 -3.757,1.231 -4.448,3.094 C 1.701,3.357 0.064,5.151 0,7.316 c 0.094,2.392 2.064,4.27 4.438,4.27 0.054,0 0.108,0 0.163,-0.003 0.137,0 0.275,-0.006 0.404,-0.017 H 9.319 C 9.268,11.268 9.245,10.967 9.26,10.665 Z"
     fill="url(#uuid-1665994e-c9b6-4bf0-82b2-930f12e1ce6f)"
     id="path31"
     style="fill:url(#uuid-1665994e-c9b6-4bf0-82b2-930f12e1ce6f)" />
</svg>
