<?xml version="1.0" encoding="utf-8"?>
<!-- Generator: Adobe Illustrator 21.1.0, SVG Export Plug-In . SVG Version: 6.00 Build 0)  -->
<svg version="1.1" id="Layer_1" xmlns="http://www.w3.org/2000/svg" xmlns:xlink="http://www.w3.org/1999/xlink" x="0px" y="0px"
	 viewBox="0 0 59.3 59.3" style="enable-background:new 0 0 59.3 59.3;" xml:space="preserve">
<style type="text/css">
	.st0{fill:#BF6328;}
	.st1{fill:#FFFFFF;}
</style>
<symbol  id="New_Symbol" viewBox="-26.5 -26.5 53 53">
	<ellipse class="st0" cx="0" cy="0" rx="26.5" ry="26.5"/>
</symbol>
<title>INDIVIDUAL ICONS 2</title>
<use xlink:href="#New_Symbol"  width="53" height="53" x="-26.5" y="-26.5" transform="matrix(-1.1198 -1.368223e-03 1.368223e-03 -1.1198 29.6744 29.6632)" style="overflow:visible;"/>
<path class="st1" d="M24.8,47.2h-6.9c-0.9,0-1.7,0.8-1.7,1.7c0,0,0,0,0,0v1.7l10.3,0.1V49C26.5,48,25.8,47.2,24.8,47.2
	C24.8,47.2,24.8,47.2,24.8,47.2z"/>
<path class="st1" d="M21.4,45.4c-2.4,0-4.4-2-4.4-4.4c0-2.4,2-4.4,4.4-4.4c2.4,0,4.4,2,4.4,4.4S23.8,45.4,21.4,45.4
	C21.4,45.4,21.4,45.4,21.4,45.4z M21.4,37.2c-2.1,0-3.8,1.7-3.8,3.8s1.7,3.8,3.8,3.8s3.8-1.7,3.8-3.8l0,0
	C25.2,39,23.5,37.2,21.4,37.2L21.4,37.2z"/>
<path class="st1" d="M38.2,47.2h-6.9c-0.9,0-1.7,0.8-1.7,1.7c0,0,0,0,0,0v1.7l10.3,0.1V49C39.9,48,39.2,47.2,38.2,47.2
	C38.2,47.2,38.2,47.2,38.2,47.2z"/>
<path class="st1" d="M34.8,45.4c-2.4,0-4.4-2-4.4-4.4c0-2.4,2-4.4,4.4-4.4c2.4,0,4.4,2,4.4,4.4S37.2,45.4,34.8,45.4
	C34.8,45.4,34.8,45.4,34.8,45.4z M34.8,37.2c-2.1,0-3.8,1.7-3.8,3.8s1.7,3.8,3.8,3.8s3.8-1.7,3.8-3.8v0C38.6,39,36.9,37.2,34.8,37.2
	L34.8,37.2z"/>
<path class="st1" d="M40,11.7c-4.2-4.2-11.1-4.2-15.3,0c-2.7,2.7-3.8,6.7-2.8,10.4h-0.3c-3,0-5.4,2.4-5.4,5.4l0,0
	c0,1.5,0.6,3,1.6,4.1l3.8,4.1v-2.7c2.5,0,4.7-1.8,5.3-4.2c1.7,1,3.6,1.5,5.5,1.5v5.4l7.7-8.2c2.1-2.2,3.2-5.1,3.2-8.1
	C43.2,16.4,42,13.7,40,11.7z M39.3,26.8l-6.1,6.5v-4h-0.9c-1.9,0-3.8-0.6-5.4-1.6c0-0.1,0-0.1,0-0.2c0-2.5-1.7-4.7-4.1-5.3
	c-1.1-3.5-0.1-7.3,2.5-9.9c3.9-3.9,10.2-3.9,14.1-0.1c1.9,1.9,2.9,4.4,2.9,7.1C42.3,22.1,41.2,24.8,39.3,26.8z"/>
<circle class="st1" cx="32.3" cy="19.3" r="1.4"/>
<circle class="st1" cx="36.8" cy="19.3" r="1.4"/>
<circle class="st1" cx="27.8" cy="19.3" r="1.4"/>
</svg>
