<?xml version="1.0" encoding="utf-8"?>
<!-- Generator: Adobe Illustrator 21.1.0, SVG Export Plug-In . SVG Version: 6.00 Build 0)  -->
<svg version="1.1" id="Layer_1" xmlns="http://www.w3.org/2000/svg" xmlns:xlink="http://www.w3.org/1999/xlink" x="0px" y="0px"
	 viewBox="0 0 60.4 60.4" style="enable-background:new 0 0 60.4 60.4;" xml:space="preserve">
<style type="text/css">
	.st0{fill:#BF6328;}
	.st1{fill:#FFFFFF;}
</style>
<symbol  id="New_Symbol" viewBox="-26.5 -26.5 53 53">
	<ellipse class="st0" cx="0" cy="0" rx="26.5" ry="26.5"/>
</symbol>
<title>INDIVIDUAL ICONS 2</title>
<use xlink:href="#New_Symbol"  width="53" height="53" x="-26.5" y="-26.5" transform="matrix(-1.1398 -1.392655e-03 1.392655e-03 -1.1398 30.2043 30.1929)" style="overflow:visible;"/>
<path class="st1" d="M26.3,19.8v-3.9H10.7v28.6h39V19.8H26.3z M48.4,43.2H12V23.7h36.4V43.2z"/>
<g id="_7">
	<path class="st1" d="M38.3,32.4h-0.9c-0.6-3.9-4.2-6.6-8.1-6.1c-2.3,0.3-4.3,1.8-5.4,3.8l1.9,0.7c1.4-2.5,4.5-3.3,7-2
		c1.3,0.7,2.2,2,2.5,3.4H34c-0.2,0.2-0.3,0.3-0.1,0.5l1.9,1.9c0.2,0.2,0.4,0.2,0.6,0l1.9-1.9C38.5,32.8,38.4,32.6,38.3,32.4z
		 M30.3,38.6c-2.2,0-4.2-1.4-4.9-3.6h1.1c0.2-0.2,0.2-0.4,0.1-0.5l-1.9-2c-0.2-0.2-0.4-0.2-0.6,0c0,0,0,0,0,0l-1.9,2
		c-0.2,0.3-0.1,0.4,0.1,0.5h0.9c0.9,3.9,4.7,6.3,8.6,5.5c1.9-0.4,3.6-1.6,4.6-3.3l-1.9-0.8C33.5,37.8,31.9,38.6,30.3,38.6L30.3,38.6
		z"/>
</g>
</svg>
