<?xml version="1.0" encoding="UTF-8" standalone="no"?>
<!-- Created with Inkscape (http://www.inkscape.org/) -->

<svg
   xmlns:dc="http://purl.org/dc/elements/1.1/"
   xmlns:cc="http://creativecommons.org/ns#"
   xmlns:rdf="http://www.w3.org/1999/02/22-rdf-syntax-ns#"
   xmlns:svg="http://www.w3.org/2000/svg"
   xmlns="http://www.w3.org/2000/svg"
   xmlns:xlink="http://www.w3.org/1999/xlink"
   xmlns:sodipodi="http://sodipodi.sourceforge.net/DTD/sodipodi-0.dtd"
   xmlns:inkscape="http://www.inkscape.org/namespaces/inkscape"
   width="133.8287mm"
   height="129.05145mm"
   viewBox="0 0 133.82871 129.05145"
   version="1.1"
   id="svg8"
   inkscape:version="0.92.3 (2405546, 2018-03-11)"
   sodipodi:docname="databases.svg">
  <defs
     id="defs2">
    <linearGradient
       inkscape:collect="always"
       id="linearGradient1271">
      <stop
         style="stop-color:#0a279b;stop-opacity:1;"
         offset="0"
         id="stop1267" />
      <stop
         style="stop-color:#9abfe9;stop-opacity:1"
         offset="1"
         id="stop1269" />
    </linearGradient>
    <linearGradient
       inkscape:collect="always"
       id="linearGradient1255">
      <stop
         style="stop-color:#b0e1fe;stop-opacity:1;"
         offset="0"
         id="stop1251" />
      <stop
         style="stop-color:#10a6fc;stop-opacity:1"
         offset="1"
         id="stop1253" />
    </linearGradient>
    <linearGradient
       inkscape:collect="always"
       xlink:href="#linearGradient1255"
       id="linearGradient1257"
       x1="107.44312"
       y1="146.01712"
       x2="106.90132"
       y2="102.04086"
       gradientUnits="userSpaceOnUse" />
    <linearGradient
       inkscape:collect="always"
       xlink:href="#linearGradient1271"
       id="linearGradient1273"
       x1="107.0851"
       y1="186.35414"
       x2="107.50749"
       y2="132.49252"
       gradientUnits="userSpaceOnUse"
       gradientTransform="matrix(1,0,0,0.97351913,0,4.9300842)" />
    <linearGradient
       inkscape:collect="always"
       xlink:href="#linearGradient1255"
       id="linearGradient3797"
       gradientUnits="userSpaceOnUse"
       x1="107.44312"
       y1="146.01712"
       x2="106.90132"
       y2="102.04086"
       gradientTransform="translate(-0.22518656,-39.887208)" />
    <linearGradient
       inkscape:collect="always"
       xlink:href="#linearGradient1271"
       id="linearGradient3799"
       gradientUnits="userSpaceOnUse"
       gradientTransform="matrix(1,0,0,0.97351913,-0.22518656,-34.957124)"
       x1="107.0851"
       y1="186.35414"
       x2="107.50749"
       y2="132.49252" />
  </defs>
  <sodipodi:namedview
     id="base"
     pagecolor="#ffffff"
     bordercolor="#666666"
     borderopacity="1.0"
     inkscape:pageopacity="0.0"
     inkscape:pageshadow="2"
     inkscape:zoom="0.7"
     inkscape:cx="-181.35085"
     inkscape:cy="357.37311"
     inkscape:document-units="mm"
     inkscape:current-layer="layer1"
     showgrid="false"
     inkscape:window-width="1920"
     inkscape:window-height="1017"
     inkscape:window-x="-8"
     inkscape:window-y="-8"
     inkscape:window-maximized="1"
     fit-margin-top="0"
     fit-margin-left="0"
     fit-margin-right="0"
     fit-margin-bottom="0" />
  <metadata
     id="metadata5">
    <rdf:RDF>
      <cc:Work
         rdf:about="">
        <dc:format>image/svg+xml</dc:format>
        <dc:type
           rdf:resource="http://purl.org/dc/dcmitype/StillImage" />
        <dc:title></dc:title>
      </cc:Work>
    </rdf:RDF>
  </metadata>
  <g
     inkscape:label="Layer 1"
     inkscape:groupmode="layer"
     id="layer1"
     transform="translate(-39.038485,-60.179065)">
    <path
       style="color:#000000;font-style:normal;font-variant:normal;font-weight:normal;font-stretch:normal;font-size:medium;line-height:normal;font-family:sans-serif;font-variant-ligatures:normal;font-variant-position:normal;font-variant-caps:normal;font-variant-numeric:normal;font-variant-alternates:normal;font-feature-settings:normal;text-indent:0;text-align:start;text-decoration:none;text-decoration-line:none;text-decoration-style:solid;text-decoration-color:#000000;letter-spacing:normal;word-spacing:normal;text-transform:none;writing-mode:lr-tb;direction:ltr;text-orientation:mixed;dominant-baseline:auto;baseline-shift:baseline;text-anchor:start;white-space:normal;shape-padding:0;clip-rule:nonzero;display:inline;overflow:visible;visibility:visible;opacity:1;isolation:auto;mix-blend-mode:normal;color-interpolation:sRGB;color-interpolation-filters:linearRGB;solid-color:#000000;solid-opacity:1;vector-effect:none;fill:url(#linearGradient1257);fill-opacity:1;fill-rule:nonzero;stroke:none;stroke-width:6.78384876;stroke-linecap:butt;stroke-linejoin:miter;stroke-miterlimit:4;stroke-dasharray:none;stroke-dashoffset:0;stroke-opacity:1;color-rendering:auto;image-rendering:auto;shape-rendering:auto;text-rendering:auto;enable-background:accumulate"
       d="m 106.90132,102.04086 h 0.002 0.002 c 13.77264,-0.0253 30.34853,2.17974 43.18969,6.17548 6.42059,1.99786 11.91065,4.47145 15.54029,7.10777 3.62963,2.63634 5.04651,5.06645 5.04651,7.13114 -5.7e-4,3.18021 -1.54287,6.11851 -5.03191,9.15223 -3.48904,3.03376 -8.79995,5.82457 -15.17922,8.06576 -12.75854,4.48239 -29.7433,6.85309 -45.38737,6.85309 -17.508617,0 -34.033798,-2.94955 -45.902882,-7.59376 -5.934792,-2.32212 -10.694832,-5.08718 -13.768609,-7.89286 -3.073778,-2.80567 -4.303526,-5.37575 -4.303526,-7.68022 0,-1.24774 0.725762,-3.27042 3.090942,-5.67782 2.365179,-2.40737 6.241049,-5.03537 11.64999,-7.37646 10.817914,-4.68216 27.730781,-8.26435 51.051705,-8.26435 z"
       id="path1239"
       inkscape:connector-curvature="0" />
    <path
       style="color:#000000;font-style:normal;font-variant:normal;font-weight:normal;font-stretch:normal;font-size:medium;line-height:normal;font-family:sans-serif;font-variant-ligatures:normal;font-variant-position:normal;font-variant-caps:normal;font-variant-numeric:normal;font-variant-alternates:normal;font-feature-settings:normal;text-indent:0;text-align:start;text-decoration:none;text-decoration-line:none;text-decoration-style:solid;text-decoration-color:#000000;letter-spacing:normal;word-spacing:normal;text-transform:none;writing-mode:lr-tb;direction:ltr;text-orientation:mixed;dominant-baseline:auto;baseline-shift:baseline;text-anchor:start;white-space:normal;shape-padding:0;clip-rule:nonzero;display:inline;overflow:visible;visibility:visible;opacity:1;isolation:auto;mix-blend-mode:normal;color-interpolation:sRGB;color-interpolation-filters:linearRGB;solid-color:#000000;solid-opacity:1;vector-effect:none;fill:url(#linearGradient1273);fill-opacity:1;fill-rule:nonzero;stroke:none;stroke-width:6.57990265;stroke-linecap:butt;stroke-linejoin:miter;stroke-miterlimit:4;stroke-dasharray:none;stroke-dashoffset:0;stroke-opacity:1;color-rendering:auto;image-rendering:auto;shape-rendering:auto;text-rendering:auto;enable-background:accumulate"
       d="m 169.99617,130.59279 0.25537,36.01372 c -9.49319,11.56849 -34.17729,19.56851 -64.12624,19.56851 -11.332658,0 -24.90428,-1.24257 -36.948938,-4.45104 -11.620537,-3.09549 -21.597208,-8.15763 -27.041385,-14.96376 l -0.06178,-35.88006 c 0.08225,0.0744 0.145201,0.16036 0.228589,0.23391 3.899192,3.43902 9.17791,6.2925 15.496642,8.68153 12.637465,4.77806 29.476471,7.62333 47.379552,7.62333 15.99764,0 33.18181,-2.26601 46.6794,-6.84806 6.74879,-2.29104 12.58726,-5.13891 16.96291,-8.81521 0.42837,-0.35989 0.77479,-0.78127 1.17588,-1.16287 z"
       id="path1217-9"
       inkscape:connector-curvature="0" />
    <path
       style="color:#000000;font-style:normal;font-variant:normal;font-weight:normal;font-stretch:normal;font-size:medium;line-height:normal;font-family:sans-serif;font-variant-ligatures:normal;font-variant-position:normal;font-variant-caps:normal;font-variant-numeric:normal;font-variant-alternates:normal;font-feature-settings:normal;text-indent:0;text-align:start;text-decoration:none;text-decoration-line:none;text-decoration-style:solid;text-decoration-color:#000000;letter-spacing:normal;word-spacing:normal;text-transform:none;writing-mode:lr-tb;direction:ltr;text-orientation:mixed;dominant-baseline:auto;baseline-shift:baseline;text-anchor:start;white-space:normal;shape-padding:0;clip-rule:nonzero;display:inline;overflow:visible;visibility:visible;opacity:1;isolation:auto;mix-blend-mode:normal;color-interpolation:sRGB;color-interpolation-filters:linearRGB;solid-color:#000000;solid-opacity:1;vector-effect:none;fill:#ffffff;fill-opacity:1;fill-rule:nonzero;stroke:none;stroke-width:6;stroke-linecap:butt;stroke-linejoin:miter;stroke-miterlimit:4;stroke-dasharray:none;stroke-dashoffset:0;stroke-opacity:1;color-rendering:auto;image-rendering:auto;shape-rendering:auto;text-rendering:auto;enable-background:accumulate"
       d="m 106.82812,100.06641 c -22.365039,5.6e-4 -38.821852,3.01471 -49.933589,7.31054 -5.556387,2.14812 -9.785209,4.60742 -12.773437,7.32422 -2.988229,2.7168 -4.857422,5.82756 -4.857422,9.18555 v 0.002 l 0.08008,44.61719 0.652344,0.81641 c 6.437314,8.09157 17.472537,12.85637 29.55664,15.83203 12.084104,2.97566 25.33039,4.07617 36.478514,4.07617 29.97597,0 55.21573,-6.56627 66.15625,-20.03125 l 0.67969,-0.83594 -0.34571,-45.23242 c 0,-4.59879 -3.21652,-8.24298 -7.45703,-10.99414 -4.2405,-2.75116 -9.83303,-4.91893 -16.20312,-6.68945 -12.7384,-3.54055 -28.56904,-5.4025 -42.02735,-5.38086 z m 0.006,6 h 0.002 0.002 c 12.88878,-0.0212 28.40089,1.82205 40.41797,5.16211 6.00854,1.67002 11.14627,3.73769 14.54297,5.9414 3.3967,2.20372 4.72265,4.23506 4.72265,5.96094 -4e-4,2.65835 -1.44385,5.11448 -4.70898,7.65039 -3.26513,2.53591 -8.2352,4.86877 -14.20508,6.74219 -11.93976,3.74684 -27.83451,5.72851 -42.47461,5.72851 -16.384985,0 -31.84965,-2.46554 -42.957029,-6.34765 -5.553689,-1.94106 -10.00825,-4.25239 -12.884765,-6.59766 -2.876516,-2.34527 -4.027344,-4.4936 -4.027344,-6.41992 0,-1.04299 0.679186,-2.73375 2.892578,-4.7461 2.213392,-2.01234 5.840526,-4.20909 10.902344,-6.16601 10.123635,-3.91383 25.951102,-6.9082 47.775386,-6.9082 z m 59.77344,28.43359 0.24219,31.57422 c -9.00349,10.14241 -32.41429,17.15625 -60.81836,17.15625 -10.748077,0 -23.619625,-1.08939 -35.042969,-3.90235 -11.021103,-2.7139 -20.483138,-7.15202 -25.646484,-13.11914 l -0.05859,-31.45703 c 0.07801,0.0652 0.137711,0.1406 0.216797,0.20508 3.698057,3.01509 8.704478,5.5168 14.697266,7.61133 11.985575,4.18905 27.955963,6.68359 44.93554,6.68359 15.17241,0 31.47015,-1.98669 44.27149,-6.0039 6.40066,-2.00861 11.93796,-4.50542 16.08789,-7.72852 0.40628,-0.31554 0.73483,-0.68496 1.11523,-1.01953 z"
       id="path1217"
       inkscape:connector-curvature="0" />
    <path
       style="color:#000000;font-style:normal;font-variant:normal;font-weight:normal;font-stretch:normal;font-size:medium;line-height:normal;font-family:sans-serif;font-variant-ligatures:normal;font-variant-position:normal;font-variant-caps:normal;font-variant-numeric:normal;font-variant-alternates:normal;font-feature-settings:normal;text-indent:0;text-align:start;text-decoration:none;text-decoration-line:none;text-decoration-style:solid;text-decoration-color:#000000;letter-spacing:normal;word-spacing:normal;text-transform:none;writing-mode:lr-tb;direction:ltr;text-orientation:mixed;dominant-baseline:auto;baseline-shift:baseline;text-anchor:start;white-space:normal;shape-padding:0;clip-rule:nonzero;display:inline;overflow:visible;visibility:visible;opacity:1;isolation:auto;mix-blend-mode:normal;color-interpolation:sRGB;color-interpolation-filters:linearRGB;solid-color:#000000;solid-opacity:1;vector-effect:none;fill:url(#linearGradient3797);fill-opacity:1;fill-rule:nonzero;stroke:none;stroke-width:6.78384876;stroke-linecap:butt;stroke-linejoin:miter;stroke-miterlimit:4;stroke-dasharray:none;stroke-dashoffset:0;stroke-opacity:1;color-rendering:auto;image-rendering:auto;shape-rendering:auto;text-rendering:auto;enable-background:accumulate"
       d="m 106.67613,62.153652 h 0.002 0.002 c 13.77264,-0.0253 30.34853,2.17974 43.18969,6.17548 6.42059,1.99786 11.91065,4.47145 15.54029,7.10777 3.62963,2.63634 5.04651,5.06645 5.04651,7.13114 -5.7e-4,3.18021 -1.54287,6.11851 -5.03191,9.15223 -3.48904,3.03376 -8.79995,5.82457 -15.17922,8.06576 -12.75854,4.482388 -29.7433,6.853088 -45.38737,6.853088 -17.508614,0 -34.033795,-2.94955 -45.902879,-7.593758 -5.934792,-2.32212 -10.694832,-5.08718 -13.768609,-7.89286 -3.073778,-2.80567 -4.303526,-5.37575 -4.303526,-7.68022 0,-1.24774 0.725762,-3.27042 3.090942,-5.67782 2.365179,-2.40737 6.241049,-5.03537 11.64999,-7.37646 10.817914,-4.68216 27.730781,-8.26435 51.051702,-8.26435 z"
       id="path1239-4"
       inkscape:connector-curvature="0" />
    <path
       style="color:#000000;font-style:normal;font-variant:normal;font-weight:normal;font-stretch:normal;font-size:medium;line-height:normal;font-family:sans-serif;font-variant-ligatures:normal;font-variant-position:normal;font-variant-caps:normal;font-variant-numeric:normal;font-variant-alternates:normal;font-feature-settings:normal;text-indent:0;text-align:start;text-decoration:none;text-decoration-line:none;text-decoration-style:solid;text-decoration-color:#000000;letter-spacing:normal;word-spacing:normal;text-transform:none;writing-mode:lr-tb;direction:ltr;text-orientation:mixed;dominant-baseline:auto;baseline-shift:baseline;text-anchor:start;white-space:normal;shape-padding:0;clip-rule:nonzero;display:inline;overflow:visible;visibility:visible;opacity:1;isolation:auto;mix-blend-mode:normal;color-interpolation:sRGB;color-interpolation-filters:linearRGB;solid-color:#000000;solid-opacity:1;vector-effect:none;fill:url(#linearGradient3799);fill-opacity:1;fill-rule:nonzero;stroke:none;stroke-width:6.57990265;stroke-linecap:butt;stroke-linejoin:miter;stroke-miterlimit:4;stroke-dasharray:none;stroke-dashoffset:0;stroke-opacity:1;color-rendering:auto;image-rendering:auto;shape-rendering:auto;text-rendering:auto;enable-background:accumulate"
       d="m 169.77098,90.705582 0.25537,36.013718 c -9.49319,11.56849 -34.17729,19.56851 -64.12624,19.56851 -11.332655,0 -24.904277,-1.24257 -36.948935,-4.45104 C 57.330638,138.74128 47.353967,133.67914 41.90979,126.87301 L 41.84801,90.992952 c 0.08225,0.0744 0.145201,0.16036 0.228589,0.23391 3.899192,3.43902 9.17791,6.2925 15.496642,8.68153 12.637465,4.778058 29.476471,7.623328 47.379549,7.623328 15.99764,0 33.18181,-2.26601 46.6794,-6.84806 6.74879,-2.291038 12.58726,-5.138908 16.96291,-8.815208 0.42837,-0.35989 0.77479,-0.78127 1.17588,-1.16287 z"
       id="path1217-9-9"
       inkscape:connector-curvature="0" />
    <path
       style="color:#000000;font-style:normal;font-variant:normal;font-weight:normal;font-stretch:normal;font-size:medium;line-height:normal;font-family:sans-serif;font-variant-ligatures:normal;font-variant-position:normal;font-variant-caps:normal;font-variant-numeric:normal;font-variant-alternates:normal;font-feature-settings:normal;text-indent:0;text-align:start;text-decoration:none;text-decoration-line:none;text-decoration-style:solid;text-decoration-color:#000000;letter-spacing:normal;word-spacing:normal;text-transform:none;writing-mode:lr-tb;direction:ltr;text-orientation:mixed;dominant-baseline:auto;baseline-shift:baseline;text-anchor:start;white-space:normal;shape-padding:0;clip-rule:nonzero;display:inline;overflow:visible;visibility:visible;opacity:1;isolation:auto;mix-blend-mode:normal;color-interpolation:sRGB;color-interpolation-filters:linearRGB;solid-color:#000000;solid-opacity:1;vector-effect:none;fill:#ffffff;fill-opacity:1;fill-rule:nonzero;stroke:none;stroke-width:6;stroke-linecap:butt;stroke-linejoin:miter;stroke-miterlimit:4;stroke-dasharray:none;stroke-dashoffset:0;stroke-opacity:1;color-rendering:auto;image-rendering:auto;shape-rendering:auto;text-rendering:auto;enable-background:accumulate"
       d="m 106.60293,60.179202 c -22.365036,5.6e-4 -38.821849,3.01471 -49.933586,7.31054 -5.556387,2.14812 -9.785209,4.60742 -12.773437,7.32422 -2.988229,2.7168 -4.857422,5.82756 -4.857422,9.18555 v 0.002 l 0.08008,44.617188 0.652344,0.81641 c 6.437314,8.09157 17.472537,12.85637 29.55664,15.83203 12.084104,2.97566 25.33039,4.07617 36.478511,4.07617 29.97597,0 55.21573,-6.56627 66.15625,-20.03125 l 0.67969,-0.83594 -0.34571,-45.232418 c 0,-4.59879 -3.21652,-8.24298 -7.45703,-10.99414 -4.2405,-2.75116 -9.83303,-4.91893 -16.20312,-6.68945 -12.7384,-3.54055 -28.56904,-5.4025 -42.02735,-5.38086 z m 0.006,6 h 0.002 0.002 c 12.88878,-0.0212 28.40089,1.82205 40.41797,5.16211 6.00854,1.67002 11.14627,3.73769 14.54297,5.9414 3.3967,2.20372 4.72265,4.23506 4.72265,5.96094 -4e-4,2.65835 -1.44385,5.11448 -4.70898,7.65039 -3.26513,2.53591 -8.2352,4.86877 -14.20508,6.74219 -11.93976,3.746838 -27.83451,5.728508 -42.47461,5.728508 -16.384982,0 -31.849647,-2.46554 -42.957026,-6.347648 -5.553689,-1.94106 -10.00825,-4.25239 -12.884765,-6.59766 -2.876516,-2.34527 -4.027344,-4.4936 -4.027344,-6.41992 0,-1.04299 0.679186,-2.73375 2.892578,-4.7461 2.213392,-2.01234 5.840526,-4.20909 10.902344,-6.16601 10.123635,-3.91383 25.951102,-6.9082 47.775383,-6.9082 z m 59.77344,28.43359 0.24219,31.574218 c -9.00349,10.14241 -32.41429,17.15625 -60.81836,17.15625 -10.748074,0 -23.619622,-1.08939 -35.042966,-3.90235 -11.021103,-2.7139 -20.483138,-7.15202 -25.646484,-13.11914 L 45.05816,94.864742 c 0.07801,0.0652 0.137711,0.1406 0.216797,0.20508 3.698057,3.01509 8.704478,5.516798 14.697266,7.611328 11.985575,4.18905 27.955963,6.68359 44.935537,6.68359 15.17241,0 31.47015,-1.98669 44.27149,-6.0039 6.40066,-2.00861 11.93796,-4.505418 16.08789,-7.728518 0.40628,-0.31554 0.73483,-0.68496 1.11523,-1.01953 z"
       id="path1217-1"
       inkscape:connector-curvature="0" />
  </g>
</svg>
