<?xml version="1.0" encoding="UTF-8" standalone="no"?>
<!-- Created with Inkscape (http://www.inkscape.org/) -->

<svg
   xmlns:dc="http://purl.org/dc/elements/1.1/"
   xmlns:cc="http://creativecommons.org/ns#"
   xmlns:rdf="http://www.w3.org/1999/02/22-rdf-syntax-ns#"
   xmlns:svg="http://www.w3.org/2000/svg"
   xmlns="http://www.w3.org/2000/svg"
   xmlns:xlink="http://www.w3.org/1999/xlink"
   xmlns:sodipodi="http://sodipodi.sourceforge.net/DTD/sodipodi-0.dtd"
   xmlns:inkscape="http://www.inkscape.org/namespaces/inkscape"
   width="211.36728mm"
   height="159.31528mm"
   viewBox="0 0 211.36728 159.31528"
   version="1.1"
   id="svg8400"
   inkscape:version="0.92.3 (2405546, 2018-03-11)"
   sodipodi:docname="fax.svg">
  <defs
     id="defs8394">
    <linearGradient
       inkscape:collect="always"
       id="linearGradient8472">
      <stop
         style="stop-color:#98cbff;stop-opacity:1"
         offset="0"
         id="stop8468" />
      <stop
         style="stop-color:#1373ff;stop-opacity:1"
         offset="1"
         id="stop8470" />
    </linearGradient>
    <linearGradient
       inkscape:collect="always"
       id="linearGradient8464">
      <stop
         style="stop-color:#7fa0ee;stop-opacity:1"
         offset="0"
         id="stop8460" />
      <stop
         style="stop-color:#0d10a1;stop-opacity:1"
         offset="1"
         id="stop8462" />
    </linearGradient>
    <linearGradient
       inkscape:collect="always"
       id="linearGradient8456">
      <stop
         style="stop-color:#bfe5ff;stop-opacity:1"
         offset="0"
         id="stop8452" />
      <stop
         style="stop-color:#7fcbff;stop-opacity:1"
         offset="1"
         id="stop8454" />
    </linearGradient>
    <linearGradient
       inkscape:collect="always"
       xlink:href="#linearGradient8456"
       id="linearGradient8458"
       x1="16.783203"
       y1="130.16211"
       x2="206.67188"
       y2="130.16211"
       gradientUnits="userSpaceOnUse" />
    <linearGradient
       inkscape:collect="always"
       xlink:href="#linearGradient8464"
       id="linearGradient8466"
       x1="100.62891"
       y1="171.6416"
       x2="209.4707"
       y2="171.6416"
       gradientUnits="userSpaceOnUse" />
    <linearGradient
       inkscape:collect="always"
       xlink:href="#linearGradient8472"
       id="linearGradient8476"
       gradientUnits="userSpaceOnUse"
       x1="14.230466"
       y1="178.61131"
       x2="96.808594"
       y2="178.61131" />
  </defs>
  <sodipodi:namedview
     id="base"
     pagecolor="#ffffff"
     bordercolor="#666666"
     borderopacity="1.0"
     inkscape:pageopacity="0.0"
     inkscape:pageshadow="2"
     inkscape:zoom="0.7"
     inkscape:cx="799.3607"
     inkscape:cy="262.3572"
     inkscape:document-units="mm"
     inkscape:current-layer="layer1"
     showgrid="false"
     fit-margin-top="0"
     fit-margin-left="0"
     fit-margin-right="0"
     fit-margin-bottom="0"
     inkscape:window-width="1920"
     inkscape:window-height="1017"
     inkscape:window-x="-8"
     inkscape:window-y="-8"
     inkscape:window-maximized="1" />
  <metadata
     id="metadata8397">
    <rdf:RDF>
      <cc:Work
         rdf:about="">
        <dc:format>image/svg+xml</dc:format>
        <dc:type
           rdf:resource="http://purl.org/dc/dcmitype/StillImage" />
        <dc:title></dc:title>
      </cc:Work>
    </rdf:RDF>
  </metadata>
  <g
     inkscape:label="Layer 1"
     inkscape:groupmode="layer"
     id="layer1"
     transform="translate(-2.1092637,-66.078353)">
    <path
       style="color:#000000;font-style:normal;font-variant:normal;font-weight:normal;font-stretch:normal;font-size:medium;line-height:normal;font-family:sans-serif;font-variant-ligatures:normal;font-variant-position:normal;font-variant-caps:normal;font-variant-numeric:normal;font-variant-alternates:normal;font-feature-settings:normal;text-indent:0;text-align:start;text-decoration:none;text-decoration-line:none;text-decoration-style:solid;text-decoration-color:#000000;letter-spacing:normal;word-spacing:normal;text-transform:none;writing-mode:lr-tb;direction:ltr;text-orientation:mixed;dominant-baseline:auto;baseline-shift:baseline;text-anchor:start;white-space:normal;shape-padding:0;clip-rule:nonzero;display:inline;overflow:visible;visibility:visible;opacity:1;isolation:auto;mix-blend-mode:normal;color-interpolation:sRGB;color-interpolation-filters:linearRGB;solid-color:#000000;solid-opacity:1;vector-effect:none;fill:#ffffff;fill-opacity:1;fill-rule:nonzero;stroke:none;stroke-width:4;stroke-linecap:round;stroke-linejoin:round;stroke-miterlimit:4;stroke-dasharray:none;stroke-dashoffset:0;stroke-opacity:1;color-rendering:auto;image-rendering:auto;shape-rendering:auto;text-rendering:auto;enable-background:accumulate"
       d="m 114.03711,66.142578 c -1.64566,-0.120879 -3.24604,-0.07417 -4.76367,0.166016 -1.21993,0.187018 -2.64465,0.701587 -4.65235,1.486328 -2.01023,0.785733 -4.49204,1.846516 -7.306637,3.111328 -5.629198,2.529623 -12.58111,5.874044 -19.589844,9.427734 -7.008734,3.553691 -14.069349,7.313028 -19.910156,10.673828 -5.831787,3.35561 -10.356912,6.198234 -12.726562,8.410157 C 39.693937,104.10325 34.164412,110.3902 31.958984,121.17773 L 11.673828,132 l -0.0059,0.002 a 2.0002,2.0002 0 0 0 -1.306641,2.19336 l -0.132812,46.33594 a 2.0002,2.0002 0 0 0 1.105468,1.79492 l 4.863282,2.43164 -12.9140629,5.85157 a 2.0002,2.0002 0 0 0 -0.046875,3.62109 l 40.7929689,19.77734 a 2.0002,2.0002 0 0 0 1.679687,0.0312 l 15.650391,-6.90625 36.320313,17.90235 a 2.0002,2.0002 0 0 0 2.326173,-0.0293 L 212.3984,166.60938 a 2.0002,2.0002 0 0 0 1.07812,-1.78516 l -0.26562,-44.53711 a 2.0002,2.0002 0 0 0 -1.37696,-2.20703 2.0002,2.0002 0 0 0 -0.01,-0.004 L 137.95117,81.896484 c -1.70826,-3.926724 -4.27795,-8.098053 -8.90625,-10.853515 a 2.0002,2.0002 0 0 0 -0.0391,-0.02344 c -4.68157,-2.64397 -10.02572,-4.513871 -14.96875,-4.876953 z"
       id="path8438"
       inkscape:connector-curvature="0" />
    <path
       style="color:#000000;font-style:normal;font-variant:normal;font-weight:normal;font-stretch:normal;font-size:medium;line-height:normal;font-family:sans-serif;font-variant-ligatures:normal;font-variant-position:normal;font-variant-caps:normal;font-variant-numeric:normal;font-variant-alternates:normal;font-feature-settings:normal;text-indent:0;text-align:start;text-decoration:none;text-decoration-line:none;text-decoration-style:solid;text-decoration-color:#000000;letter-spacing:normal;word-spacing:normal;text-transform:none;writing-mode:lr-tb;direction:ltr;text-orientation:mixed;dominant-baseline:auto;baseline-shift:baseline;text-anchor:start;white-space:normal;shape-padding:0;clip-rule:nonzero;display:inline;overflow:visible;visibility:visible;opacity:1;isolation:auto;mix-blend-mode:normal;color-interpolation:sRGB;color-interpolation-filters:linearRGB;solid-color:#000000;solid-opacity:1;vector-effect:none;fill:#0066ff;fill-opacity:1;fill-rule:nonzero;stroke:none;stroke-width:4;stroke-linecap:round;stroke-linejoin:round;stroke-miterlimit:4;stroke-dasharray:none;stroke-dashoffset:0;stroke-opacity:1;color-rendering:auto;image-rendering:auto;shape-rendering:auto;text-rendering:auto;enable-background:accumulate"
       d="m 113.71289,70.169922 c 4.13901,0.346158 9.08695,1.944636 13.29883,4.318359 3.87153,2.310845 6.01536,5.889546 7.55469,9.611328 0.89398,2.720397 1.5468,5.238277 1.55078,7.320313 0.004,2.098586 -0.50488,3.703602 -2.125,5.279297 -0.81888,0.757813 -3.77551,2.007026 -6.92774,2.705078 -3.16071,0.699933 -6.63006,1.026613 -8.59765,0.894533 a 2.0002,2.0002 0 0 0 -0.0293,-0.002 c -1.4415,-0.0748 -4.39642,-0.924049 -7.14062,-2.433599 C 109.2188,96.720162 107.41556,95.14562 106,93.451172 c 4.54473,-2.463257 8.74135,-4.638343 12.61133,-6.533203 a 2.0002,2.0002 0 1 0 -1.75781,-3.591797 c -4.51153,2.20898 -9.22985,4.581284 -14.80274,7.667969 -0.0102,0.0057 -0.0171,0.008 -0.0273,0.01367 a 2.0002,2.0002 0 0 0 -0.0762,0.03906 c -0.007,0.0037 -0.0109,0.006 -0.0176,0.0098 L 71.050781,107.77539 a 2.0002,2.0002 0 0 0 -0.855469,2.61133 c 2.537942,5.37375 2.291541,9.82219 0.158204,15.26367 -1.423904,3.45266 -4.393478,5.64685 -7.939454,6.91211 -3.53586,1.26165 -7.576162,1.48745 -10.478515,1.0332 -9.422736,-1.93257 -12.994705,-6.09076 -16.132813,-11.38867 1.964204,-10.00391 6.747695,-15.29608 11.945313,-19.80469 a 2.0002,2.0002 0 0 0 0.05664,-0.0508 c 1.679602,-1.57085 6.255346,-4.568106 12.005859,-7.876951 5.750512,-3.308844 12.762581,-7.043246 19.722656,-10.572265 6.960076,-3.529019 13.87238,-6.85385 19.421875,-9.347656 2.774753,-1.246904 5.210383,-2.28756 7.123043,-3.035157 1.91267,-0.747596 3.41516,-1.198335 3.80469,-1.257812 a 2.0002,2.0002 0 0 0 0.0117,-0.002 c 1.14433,-0.181487 2.43581,-0.205471 3.81836,-0.08984 z"
       id="path8436"
       inkscape:connector-curvature="0" />
    <path
       style="color:#000000;font-style:normal;font-variant:normal;font-weight:normal;font-stretch:normal;font-size:medium;line-height:normal;font-family:sans-serif;font-variant-ligatures:normal;font-variant-position:normal;font-variant-caps:normal;font-variant-numeric:normal;font-variant-alternates:normal;font-feature-settings:normal;text-indent:0;text-align:start;text-decoration:none;text-decoration-line:none;text-decoration-style:solid;text-decoration-color:#000000;letter-spacing:normal;word-spacing:normal;text-transform:none;writing-mode:lr-tb;direction:ltr;text-orientation:mixed;dominant-baseline:auto;baseline-shift:baseline;text-anchor:start;white-space:normal;shape-padding:0;clip-rule:nonzero;display:inline;overflow:visible;visibility:visible;opacity:1;isolation:auto;mix-blend-mode:normal;color-interpolation:sRGB;color-interpolation-filters:linearRGB;solid-color:#000000;solid-opacity:1;vector-effect:none;fill:url(#linearGradient8458);fill-opacity:1;fill-rule:nonzero;stroke:none;stroke-width:4;stroke-linecap:round;stroke-linejoin:round;stroke-miterlimit:4;stroke-dasharray:none;stroke-dashoffset:0;stroke-opacity:1;color-rendering:auto;image-rendering:auto;shape-rendering:auto;text-rendering:auto;enable-background:accumulate"
       d="m 139.59375,87.15625 67.07813,32.84961 -108.058599,53.16211 -81.830078,-39.36328 16.203125,-8.64258 c 3.425957,5.39843 8.302976,10.35165 18.197266,12.36719 a 2.0002,2.0002 0 0 0 0.08594,0.0156 c 3.634968,0.57738 8.202065,0.31455 12.488281,-1.21484 4.286217,-1.52939 8.355028,-4.43555 10.300782,-9.16797 a 2.0002,2.0002 0 0 0 0.01172,-0.0293 c 2.168339,-5.52116 2.501261,-10.98925 0.373047,-16.64648 L 102.28125,95.414062 c 1.88165,2.52062 4.45106,4.502644 7.08789,5.953128 3.18716,1.75321 6.35131,2.78974 8.84961,2.92187 2.64796,0.17507 6.23762,-0.21174 9.70898,-0.98047 3.47882,-0.77037 6.71844,-1.74034 8.81055,-3.697262 a 2.0002,2.0002 0 0 0 0.0254,-0.02344 c 2.40392,-2.327168 3.35904,-5.284009 3.35352,-8.175782 -0.003,-1.420447 -0.20839,-2.839089 -0.52344,-4.255859 z"
       id="path8434"
       inkscape:connector-curvature="0" />
    <path
       style="color:#000000;font-style:normal;font-variant:normal;font-weight:normal;font-stretch:normal;font-size:medium;line-height:normal;font-family:sans-serif;font-variant-ligatures:normal;font-variant-position:normal;font-variant-caps:normal;font-variant-numeric:normal;font-variant-alternates:normal;font-feature-settings:normal;text-indent:0;text-align:start;text-decoration:none;text-decoration-line:none;text-decoration-style:solid;text-decoration-color:#000000;letter-spacing:normal;word-spacing:normal;text-transform:none;writing-mode:lr-tb;direction:ltr;text-orientation:mixed;dominant-baseline:auto;baseline-shift:baseline;text-anchor:start;white-space:normal;shape-padding:0;clip-rule:nonzero;display:inline;overflow:visible;visibility:visible;opacity:1;isolation:auto;mix-blend-mode:normal;color-interpolation:sRGB;color-interpolation-filters:linearRGB;solid-color:#000000;solid-opacity:1;vector-effect:none;fill:url(#linearGradient8466);fill-opacity:1;fill-rule:nonzero;stroke:none;stroke-width:4;stroke-linecap:round;stroke-linejoin:round;stroke-miterlimit:4;stroke-dasharray:none;stroke-dashoffset:0;stroke-opacity:1;color-rendering:auto;image-rendering:auto;shape-rendering:auto;text-rendering:auto;enable-background:accumulate"
       d="m 209.22852,123.20312 0.24218,40.42188 -108.66211,56.45508 -0.17968,-43.44531 z"
       id="path8432"
       inkscape:connector-curvature="0" />
    <path
       style="color:#000000;font-style:normal;font-variant:normal;font-weight:normal;font-stretch:normal;font-size:medium;line-height:normal;font-family:sans-serif;font-variant-ligatures:normal;font-variant-position:normal;font-variant-caps:normal;font-variant-numeric:normal;font-variant-alternates:normal;font-feature-settings:normal;text-indent:0;text-align:start;text-decoration:none;text-decoration-line:none;text-decoration-style:solid;text-decoration-color:#000000;letter-spacing:normal;word-spacing:normal;text-transform:none;writing-mode:lr-tb;direction:ltr;text-orientation:mixed;dominant-baseline:auto;baseline-shift:baseline;text-anchor:start;white-space:normal;shape-padding:0;clip-rule:nonzero;display:inline;overflow:visible;visibility:visible;opacity:1;isolation:auto;mix-blend-mode:normal;color-interpolation:sRGB;color-interpolation-filters:linearRGB;solid-color:#000000;solid-opacity:1;vector-effect:none;fill:url(#linearGradient8476);fill-opacity:1;fill-rule:nonzero;stroke:none;stroke-width:4;stroke-linecap:round;stroke-linejoin:round;stroke-miterlimit:4;stroke-dasharray:none;stroke-dashoffset:0;stroke-opacity:1;color-rendering:auto;image-rendering:auto;shape-rendering:auto;text-rendering:auto;enable-background:accumulate"
       d="m 14.351562,137.07617 82.277344,39.57617 0.179688,43.49414 -82.578128,-40.84379 z"
       id="path8421"
       inkscape:connector-curvature="0"
       sodipodi:nodetypes="ccccc" />
    <path
       style="color:#000000;font-style:normal;font-variant:normal;font-weight:normal;font-stretch:normal;font-size:medium;line-height:normal;font-family:sans-serif;font-variant-ligatures:normal;font-variant-position:normal;font-variant-caps:normal;font-variant-numeric:normal;font-variant-alternates:normal;font-feature-settings:normal;text-indent:0;text-align:start;text-decoration:none;text-decoration-line:none;text-decoration-style:solid;text-decoration-color:#000000;letter-spacing:normal;word-spacing:normal;text-transform:none;writing-mode:lr-tb;direction:ltr;text-orientation:mixed;dominant-baseline:auto;baseline-shift:baseline;text-anchor:start;white-space:normal;shape-padding:0;clip-rule:nonzero;display:inline;overflow:visible;visibility:visible;opacity:1;isolation:auto;mix-blend-mode:normal;color-interpolation:sRGB;color-interpolation-filters:linearRGB;solid-color:#000000;solid-opacity:1;vector-effect:none;fill:#0066ff;fill-opacity:1;fill-rule:nonzero;stroke:none;stroke-width:2.79999995;stroke-linecap:round;stroke-linejoin:round;stroke-miterlimit:4;stroke-dasharray:none;stroke-dashoffset:0;stroke-opacity:1;color-rendering:auto;image-rendering:auto;shape-rendering:auto;text-rendering:auto;enable-background:accumulate"
       d="m 53.453125,171.94922 a 1.40014,1.40014 0 0 0 -0.603516,0.1289 l -41.736328,19.35547 a 1.40014,1.40014 0 0 0 -0.01172,2.53321 l 33.236329,15.82226 a 1.40014,1.40014 0 0 0 1.164062,0.0195 l 39.974609,-17.53711 a 1.40014,1.40014 0 0 0 0.121094,-2.5039 l -31.474608,-17.6406 a 1.40014,1.40014 0 0 0 -0.669922,-0.17773 z"
       id="path8446"
       inkscape:connector-curvature="0" />
    <path
       style="color:#000000;font-style:normal;font-variant:normal;font-weight:normal;font-stretch:normal;font-size:medium;line-height:normal;font-family:sans-serif;font-variant-ligatures:normal;font-variant-position:normal;font-variant-caps:normal;font-variant-numeric:normal;font-variant-alternates:normal;font-feature-settings:normal;text-indent:0;text-align:start;text-decoration:none;text-decoration-line:none;text-decoration-style:solid;text-decoration-color:#000000;letter-spacing:normal;word-spacing:normal;text-transform:none;writing-mode:lr-tb;direction:ltr;text-orientation:mixed;dominant-baseline:auto;baseline-shift:baseline;text-anchor:start;white-space:normal;shape-padding:0;clip-rule:nonzero;display:inline;overflow:visible;visibility:visible;opacity:1;isolation:auto;mix-blend-mode:normal;color-interpolation:sRGB;color-interpolation-filters:linearRGB;solid-color:#000000;solid-opacity:1;vector-effect:none;fill:#ffffff;fill-opacity:1;fill-rule:nonzero;stroke:none;stroke-width:2.79999995;stroke-linecap:round;stroke-linejoin:round;stroke-miterlimit:4;stroke-dasharray:none;stroke-dashoffset:0;stroke-opacity:1;color-rendering:auto;image-rendering:auto;shape-rendering:auto;text-rendering:auto;enable-background:accumulate"
       d="M 53.376955,174.91992 81.779299,190.83594 44.964846,206.98633 14.994143,192.7207 Z"
       id="path8423"
       inkscape:connector-curvature="0" />
    <path
       style="color:#000000;font-style:normal;font-variant:normal;font-weight:normal;font-stretch:normal;font-size:medium;line-height:normal;font-family:sans-serif;font-variant-ligatures:normal;font-variant-position:normal;font-variant-caps:normal;font-variant-numeric:normal;font-variant-alternates:normal;font-feature-settings:normal;text-indent:0;text-align:start;text-decoration:none;text-decoration-line:none;text-decoration-style:solid;text-decoration-color:#000000;letter-spacing:normal;word-spacing:normal;text-transform:none;writing-mode:lr-tb;direction:ltr;text-orientation:mixed;dominant-baseline:auto;baseline-shift:baseline;text-anchor:start;white-space:normal;shape-padding:0;clip-rule:nonzero;display:inline;overflow:visible;visibility:visible;opacity:1;isolation:auto;mix-blend-mode:normal;color-interpolation:sRGB;color-interpolation-filters:linearRGB;solid-color:#000000;solid-opacity:1;vector-effect:none;fill:#0066ff;fill-opacity:1;fill-rule:nonzero;stroke:none;stroke-width:5;stroke-linecap:round;stroke-linejoin:round;stroke-miterlimit:4;stroke-dasharray:none;stroke-dashoffset:0;stroke-opacity:1;color-rendering:auto;image-rendering:auto;shape-rendering:auto;text-rendering:auto;enable-background:accumulate"
       d="m 150.78125,100.46484 a 2.50025,2.50025 0 0 0 -1.03711,0.26758 l -50.576171,25.59961 a 2.50025,2.50025 0 0 0 -0.03711,4.44141 l 31.533201,16.6289 a 2.50025,2.50025 0 0 0 2.32422,0.004 l 50.64844,-26.45898 a 2.50025,2.50025 0 0 0 -0.043,-4.45313 L 151.9902,100.7247 a 2.50025,2.50025 0 0 0 -1.20898,-0.25977 z"
       id="path8450"
       inkscape:connector-curvature="0" />
    <path
       style="color:#000000;font-style:normal;font-variant:normal;font-weight:normal;font-stretch:normal;font-size:medium;line-height:normal;font-family:sans-serif;font-variant-ligatures:normal;font-variant-position:normal;font-variant-caps:normal;font-variant-numeric:normal;font-variant-alternates:normal;font-feature-settings:normal;text-indent:0;text-align:start;text-decoration:none;text-decoration-line:none;text-decoration-style:solid;text-decoration-color:#000000;letter-spacing:normal;word-spacing:normal;text-transform:none;writing-mode:lr-tb;direction:ltr;text-orientation:mixed;dominant-baseline:auto;baseline-shift:baseline;text-anchor:start;white-space:normal;shape-padding:0;clip-rule:nonzero;display:inline;overflow:visible;visibility:visible;opacity:1;isolation:auto;mix-blend-mode:normal;color-interpolation:sRGB;color-interpolation-filters:linearRGB;solid-color:#000000;solid-opacity:1;vector-effect:none;fill:#ffffff;fill-opacity:1;fill-rule:nonzero;stroke:none;stroke-width:5;stroke-linecap:round;stroke-linejoin:round;stroke-miterlimit:4;stroke-dasharray:none;stroke-dashoffset:0;stroke-opacity:1;color-rendering:auto;image-rendering:auto;shape-rendering:auto;text-rendering:auto;enable-background:accumulate"
       d="m 150.88085,105.75977 26.09961,13.02343 -45.14453,23.58399 -26.09375,-13.75977 z"
       id="path8425"
       inkscape:connector-curvature="0" />
  </g>
</svg>
