<?xml version="1.0" encoding="UTF-8" standalone="no"?>
<!-- Created with Inkscape (http://www.inkscape.org/) -->

<svg
   xmlns:dc="http://purl.org/dc/elements/1.1/"
   xmlns:cc="http://creativecommons.org/ns#"
   xmlns:rdf="http://www.w3.org/1999/02/22-rdf-syntax-ns#"
   xmlns:svg="http://www.w3.org/2000/svg"
   xmlns="http://www.w3.org/2000/svg"
   xmlns:xlink="http://www.w3.org/1999/xlink"
   xmlns:sodipodi="http://sodipodi.sourceforge.net/DTD/sodipodi-0.dtd"
   xmlns:inkscape="http://www.inkscape.org/namespaces/inkscape"
   width="224.28915mm"
   height="121.63081mm"
   viewBox="0 0 224.28915 121.63081"
   version="1.1"
   id="svg6483"
   inkscape:version="0.92.3 (2405546, 2018-03-11)"
   sodipodi:docname="hard_disk.svg">
  <defs
     id="defs6477">
    <linearGradient
       inkscape:collect="always"
       id="linearGradient6615">
      <stop
         style="stop-color:#f6f6fc;stop-opacity:1"
         offset="0"
         id="stop6611" />
      <stop
         style="stop-color:#1717a2;stop-opacity:1"
         offset="1"
         id="stop6613" />
    </linearGradient>
    <linearGradient
       inkscape:collect="always"
       id="linearGradient6607">
      <stop
         style="stop-color:#f6f6fc;stop-opacity:1"
         offset="0"
         id="stop6603" />
      <stop
         style="stop-color:#1717a2;stop-opacity:1"
         offset="1"
         id="stop6605" />
    </linearGradient>
    <linearGradient
       inkscape:collect="always"
       id="linearGradient6583">
      <stop
         style="stop-color:#7676c8;stop-opacity:1"
         offset="0"
         id="stop6579" />
      <stop
         style="stop-color:#eeeef8;stop-opacity:1"
         offset="1"
         id="stop6581" />
    </linearGradient>
    <linearGradient
       inkscape:collect="always"
       id="linearGradient6567">
      <stop
         style="stop-color:#bfe5ff;stop-opacity:0.84422112"
         offset="0"
         id="stop6563" />
      <stop
         style="stop-color:#40b2ff;stop-opacity:0.95979899"
         offset="1"
         id="stop6565" />
    </linearGradient>
    <linearGradient
       inkscape:collect="always"
       xlink:href="#linearGradient6567"
       id="linearGradient6569"
       x1="413.1524"
       y1="612.39264"
       x2="413.1524"
       y2="347.73267"
       gradientUnits="userSpaceOnUse" />
    <linearGradient
       inkscape:collect="always"
       xlink:href="#linearGradient6583"
       id="linearGradient6585"
       x1="120.54223"
       y1="135.45032"
       x2="120.54038"
       y2="117.9816"
       gradientUnits="userSpaceOnUse"
       gradientTransform="matrix(1.0679961,0,0,1.2254699,-7.3070257,-28.252843)" />
    <linearGradient
       inkscape:collect="always"
       xlink:href="#linearGradient6607"
       id="linearGradient6609"
       x1="-2.1328125"
       y1="614.04395"
       x2="792.66016"
       y2="614.04395"
       gradientUnits="userSpaceOnUse" />
    <linearGradient
       inkscape:collect="always"
       xlink:href="#linearGradient6615"
       id="linearGradient6617"
       x1="-2.1328125"
       y1="697.79785"
       x2="792.66016"
       y2="697.79785"
       gradientUnits="userSpaceOnUse" />
  </defs>
  <sodipodi:namedview
     id="base"
     pagecolor="#ffffff"
     bordercolor="#666666"
     borderopacity="1.0"
     inkscape:pageopacity="0.0"
     inkscape:pageshadow="2"
     inkscape:zoom="0.98994949"
     inkscape:cx="352.39042"
     inkscape:cy="246.68189"
     inkscape:document-units="mm"
     inkscape:current-layer="layer1"
     showgrid="false"
     fit-margin-top="0"
     fit-margin-left="0"
     fit-margin-right="0"
     fit-margin-bottom="0"
     inkscape:window-width="1920"
     inkscape:window-height="1017"
     inkscape:window-x="-8"
     inkscape:window-y="-8"
     inkscape:window-maximized="1" />
  <metadata
     id="metadata6480">
    <rdf:RDF>
      <cc:Work
         rdf:about="">
        <dc:format>image/svg+xml</dc:format>
        <dc:type
           rdf:resource="http://purl.org/dc/dcmitype/StillImage" />
        <dc:title></dc:title>
      </cc:Work>
    </rdf:RDF>
  </metadata>
  <g
     inkscape:label="Layer 1"
     inkscape:groupmode="layer"
     id="layer1"
     transform="translate(7.5643961,-88.771324)">
    <path
       style="color:#000000;font-style:normal;font-variant:normal;font-weight:normal;font-stretch:normal;font-size:medium;line-height:normal;font-family:sans-serif;font-variant-ligatures:normal;font-variant-position:normal;font-variant-caps:normal;font-variant-numeric:normal;font-variant-alternates:normal;font-feature-settings:normal;text-indent:0;text-align:start;text-decoration:none;text-decoration-line:none;text-decoration-style:solid;text-decoration-color:#000000;letter-spacing:normal;word-spacing:normal;text-transform:none;writing-mode:lr-tb;direction:ltr;text-orientation:mixed;dominant-baseline:auto;baseline-shift:baseline;text-anchor:start;white-space:normal;shape-padding:0;clip-rule:nonzero;display:inline;overflow:visible;visibility:visible;opacity:1;isolation:auto;mix-blend-mode:normal;color-interpolation:sRGB;color-interpolation-filters:linearRGB;solid-color:#000000;solid-opacity:1;vector-effect:none;fill:#ffffff;fill-opacity:1;fill-rule:nonzero;stroke:none;stroke-width:26.45669365;stroke-linecap:round;stroke-linejoin:round;stroke-miterlimit:4;stroke-dasharray:none;stroke-dashoffset:0;stroke-opacity:1;paint-order:normal;color-rendering:auto;image-rendering:auto;shape-rendering:auto;text-rendering:auto;enable-background:accumulate"
       d="m 395.26367,335.51367 c -114.54347,0 -218.23356,14.8489 -294.41211,39.39844 -38.089275,12.27476 -69.3361,26.8892 -91.9628881,44.12891 -22.6267879,17.23971 -37.4785159,38.2123 -37.4785159,62.02929 0,15.5954 6.36841,29.9719 17.117188,42.87891 -10.73973,12.90239 -17.117188,27.26535 -17.117188,42.85351 0,15.0155 5.906702,28.89971 15.939453,41.43165 -10.030327,12.5328 -15.939453,26.41814 -15.939453,41.43164 0,23.81699 14.851728,44.78958 37.4785159,62.02929 22.6267881,17.23971 53.8736131,31.85414 91.9628881,44.12891 76.17855,24.54954 179.86864,39.39648 294.41211,39.39648 114.54346,0 218.23358,-14.84694 294.41211,-39.39648 38.08929,-12.27477 69.33611,-26.8892 91.96289,-44.12891 22.62679,-17.23971 37.47852,-38.2123 37.47852,-62.02929 0,-15.012 -5.91874,-28.89199 -15.94727,-41.42383 10.03654,-12.53397 15.94727,-26.42086 15.94727,-41.43946 0,-15.58847 -6.37707,-29.9529 -17.11719,-42.85546 10.74817,-12.9067 17.11719,-27.28205 17.11719,-42.87696 0,-23.81699 -14.85173,-44.78958 -37.47852,-62.02929 -22.62678,-17.23971 -53.8736,-31.85415 -91.96289,-44.12891 -76.17853,-24.54954 -179.86865,-39.39844 -294.41211,-39.39844 z"
       transform="scale(0.26458333)"
       id="path6547"
       inkscape:connector-curvature="0" />
    <path
       style="color:#000000;font-style:normal;font-variant:normal;font-weight:normal;font-stretch:normal;font-size:medium;line-height:normal;font-family:sans-serif;font-variant-ligatures:normal;font-variant-position:normal;font-variant-caps:normal;font-variant-numeric:normal;font-variant-alternates:normal;font-feature-settings:normal;text-indent:0;text-align:start;text-decoration:none;text-decoration-line:none;text-decoration-style:solid;text-decoration-color:#000000;letter-spacing:normal;word-spacing:normal;text-transform:none;writing-mode:lr-tb;direction:ltr;text-orientation:mixed;dominant-baseline:auto;baseline-shift:baseline;text-anchor:start;white-space:normal;shape-padding:0;clip-rule:nonzero;display:inline;overflow:visible;visibility:visible;opacity:1;isolation:auto;mix-blend-mode:normal;color-interpolation:sRGB;color-interpolation-filters:linearRGB;solid-color:#000000;solid-opacity:1;vector-effect:none;fill:url(#linearGradient6569);fill-opacity:1;fill-rule:nonzero;stroke:none;stroke-width:26.45669365;stroke-linecap:round;stroke-linejoin:round;stroke-miterlimit:4;stroke-dasharray:none;stroke-dashoffset:0;stroke-opacity:1;paint-order:normal;color-rendering:auto;image-rendering:auto;shape-rendering:auto;text-rendering:auto;enable-background:accumulate"
       d="m 395.26367,361.9707 c 112.23957,0 213.85965,14.77662 286.29883,38.1211 36.21959,11.67224 65.11203,25.57036 84.04297,39.99414 18.9309,14.42377 27.05469,28.25946 27.05469,40.98437 0,12.72495 -8.12379,26.56842 -27.05469,40.99219 -18.93094,14.42377 -47.82338,28.3219 -84.04297,39.99414 -72.43918,23.34448 -174.05926,38.12109 -286.29883,38.12109 -112.23957,0 -213.85964,-14.77661 -286.29883,-38.12109 C 72.745249,550.3844 43.852799,536.48627 24.921875,522.0625 5.9909498,507.63873 -2.1328125,493.79526 -2.1328125,481.07031 c 0,-12.72491 8.1237623,-26.5606 27.0546875,-40.98437 18.930924,-14.42378 47.823374,-28.3219 84.042965,-39.99414 72.43919,-23.34448 174.05926,-38.1211 286.29883,-38.1211 z"
       id="path6545"
       transform="scale(0.26458333)"
       inkscape:connector-curvature="0" />
    <path
       style="color:#000000;font-style:normal;font-variant:normal;font-weight:normal;font-stretch:normal;font-size:medium;line-height:normal;font-family:sans-serif;font-variant-ligatures:normal;font-variant-position:normal;font-variant-caps:normal;font-variant-numeric:normal;font-variant-alternates:normal;font-feature-settings:normal;text-indent:0;text-align:start;text-decoration:none;text-decoration-line:none;text-decoration-style:solid;text-decoration-color:#000000;letter-spacing:normal;word-spacing:normal;text-transform:none;writing-mode:lr-tb;direction:ltr;text-orientation:mixed;dominant-baseline:auto;baseline-shift:baseline;text-anchor:start;white-space:normal;shape-padding:0;clip-rule:nonzero;display:inline;overflow:visible;visibility:visible;opacity:1;isolation:auto;mix-blend-mode:normal;color-interpolation:sRGB;color-interpolation-filters:linearRGB;solid-color:#000000;solid-opacity:1;vector-effect:none;fill:#ffffff;fill-opacity:1;fill-rule:nonzero;stroke:none;stroke-width:5;stroke-linecap:round;stroke-linejoin:round;stroke-miterlimit:4;stroke-dasharray:none;stroke-dashoffset:0;stroke-opacity:1;paint-order:normal;color-rendering:auto;image-rendering:auto;shape-rendering:auto;text-rendering:auto;enable-background:accumulate"
       d="m 105.49805,110.09375 c -11.204063,0 -21.349268,1.55378 -28.910159,4.17969 -3.780446,1.31295 -6.923943,2.88044 -9.279297,4.81445 -2.355355,1.93401 -4.035157,4.42336 -4.035156,7.30078 -10e-7,2.87742 1.679801,5.36873 4.035156,7.30274 2.355354,1.934 5.498851,3.5015 9.279297,4.81445 7.560891,2.6259 17.706096,4.17969 28.910159,4.17969 11.20406,0 21.34731,-1.55379 28.9082,-4.17969 3.78045,-1.31295 6.92394,-2.88045 9.2793,-4.81445 2.35535,-1.93401 4.03515,-4.42532 4.03515,-7.30274 0,-2.87742 -1.6798,-5.36677 -4.03515,-7.30078 -2.35536,-1.93401 -5.49885,-3.5015 -9.2793,-4.81445 -7.56089,-2.62591 -17.70414,-4.17969 -28.9082,-4.17969 z"
       id="path6553"
       inkscape:connector-curvature="0" />
    <path
       style="color:#000000;font-style:normal;font-variant:normal;font-weight:normal;font-stretch:normal;font-size:medium;line-height:normal;font-family:sans-serif;font-variant-ligatures:normal;font-variant-position:normal;font-variant-caps:normal;font-variant-numeric:normal;font-variant-alternates:normal;font-feature-settings:normal;text-indent:0;text-align:start;text-decoration:none;text-decoration-line:none;text-decoration-style:solid;text-decoration-color:#000000;letter-spacing:normal;word-spacing:normal;text-transform:none;writing-mode:lr-tb;direction:ltr;text-orientation:mixed;dominant-baseline:auto;baseline-shift:baseline;text-anchor:start;white-space:normal;shape-padding:0;clip-rule:nonzero;display:inline;overflow:visible;visibility:visible;opacity:1;isolation:auto;mix-blend-mode:normal;color-interpolation:sRGB;color-interpolation-filters:linearRGB;solid-color:#000000;solid-opacity:1;vector-effect:none;fill:url(#linearGradient6585);fill-opacity:1;fill-rule:nonzero;stroke:#ffffff;stroke-width:5.72013378;stroke-linecap:round;stroke-linejoin:round;stroke-miterlimit:4;stroke-dasharray:none;stroke-dashoffset:0;stroke-opacity:1;paint-order:normal;color-rendering:auto;image-rendering:auto;shape-rendering:auto;text-rendering:auto;enable-background:accumulate"
       d="m 105.36448,112.79108 c 11.46475,0 21.84187,1.88114 29.12166,4.7822 3.63991,1.45054 6.49676,3.17153 8.2749,4.84685 1.77813,1.67533 2.35709,3.07006 2.35709,4.21254 0,1.14248 -0.57896,2.53962 -2.35709,4.21494 -1.77814,1.67532 -4.63499,3.39631 -8.2749,4.84684 -7.27979,2.90107 -17.65691,4.78222 -29.12166,4.78222 -11.464749,0 -21.843955,-1.88115 -29.123755,-4.78222 -3.639899,-1.45053 -6.494671,-3.17152 -8.272798,-4.84684 -1.778126,-1.67532 -2.359186,-3.07246 -2.359186,-4.21494 0,-1.14248 0.58106,-2.53721 2.359186,-4.21254 1.778127,-1.67532 4.632899,-3.39631 8.272798,-4.84685 7.2798,-2.90106 17.659006,-4.7822 29.123755,-4.7822 z"
       id="path6539"
       inkscape:connector-curvature="0" />
    <path
       style="color:#000000;font-style:normal;font-variant:normal;font-weight:normal;font-stretch:normal;font-size:medium;line-height:normal;font-family:sans-serif;font-variant-ligatures:normal;font-variant-position:normal;font-variant-caps:normal;font-variant-numeric:normal;font-variant-alternates:normal;font-feature-settings:normal;text-indent:0;text-align:start;text-decoration:none;text-decoration-line:none;text-decoration-style:solid;text-decoration-color:#000000;letter-spacing:normal;word-spacing:normal;text-transform:none;writing-mode:lr-tb;direction:ltr;text-orientation:mixed;dominant-baseline:auto;baseline-shift:baseline;text-anchor:start;white-space:normal;shape-padding:0;clip-rule:nonzero;display:inline;overflow:visible;visibility:visible;opacity:1;isolation:auto;mix-blend-mode:normal;color-interpolation:sRGB;color-interpolation-filters:linearRGB;solid-color:#000000;solid-opacity:1;vector-effect:none;fill:url(#linearGradient6609);fill-opacity:1;fill-rule:nonzero;stroke:none;stroke-width:26.45669365;stroke-linecap:round;stroke-linejoin:round;stroke-miterlimit:4;stroke-dasharray:none;stroke-dashoffset:0;stroke-opacity:1;paint-order:normal;color-rendering:auto;image-rendering:auto;shape-rendering:auto;text-rendering:auto;enable-background:accumulate"
       d="m 782.80664,542.17773 c 6.77412,8.5475 9.85352,16.79654 9.85352,24.625 0,12.72492 -8.12379,26.56842 -27.05469,40.99219 -18.93094,14.42378 -47.82338,28.31604 -84.04297,39.98828 -72.43918,23.34448 -174.05926,38.12696 -286.29883,38.12696 -112.23957,0 -213.85964,-14.78248 -286.29883,-38.12696 C 72.745249,636.11096 43.852799,622.2187 24.921875,607.79492 5.9909498,593.37115 -2.1328125,579.52765 -2.1328125,566.80273 c 0,-7.82631 3.09110325,-16.07415 9.8613281,-24.61914 0.3905913,0.30352 0.7647788,0.61477 1.1601563,0.91602 22.6267881,17.23971 53.8736131,31.86195 91.9628881,44.13672 76.17855,24.54954 179.86864,39.3984 294.41211,39.39844 114.54346,0 218.23358,-14.8489 294.41211,-39.39844 38.08929,-12.27477 69.33611,-26.89701 91.96289,-44.13672 0.39799,-0.30323 0.77483,-0.61634 1.16797,-0.92188 z"
       transform="scale(0.26458333)"
       id="path6543"
       inkscape:connector-curvature="0" />
    <path
       style="color:#000000;font-style:normal;font-variant:normal;font-weight:normal;font-stretch:normal;font-size:medium;line-height:normal;font-family:sans-serif;font-variant-ligatures:normal;font-variant-position:normal;font-variant-caps:normal;font-variant-numeric:normal;font-variant-alternates:normal;font-feature-settings:normal;text-indent:0;text-align:start;text-decoration:none;text-decoration-line:none;text-decoration-style:solid;text-decoration-color:#000000;letter-spacing:normal;word-spacing:normal;text-transform:none;writing-mode:lr-tb;direction:ltr;text-orientation:mixed;dominant-baseline:auto;baseline-shift:baseline;text-anchor:start;white-space:normal;shape-padding:0;clip-rule:nonzero;display:inline;overflow:visible;visibility:visible;opacity:1;isolation:auto;mix-blend-mode:normal;color-interpolation:sRGB;color-interpolation-filters:linearRGB;solid-color:#000000;solid-opacity:1;vector-effect:none;fill:url(#linearGradient6617);fill-opacity:1;fill-rule:nonzero;stroke:none;stroke-width:26.45669365;stroke-linecap:round;stroke-linejoin:round;stroke-miterlimit:4;stroke-dasharray:none;stroke-dashoffset:0;stroke-opacity:1;paint-order:normal;color-rendering:auto;image-rendering:auto;shape-rendering:auto;text-rendering:auto;enable-background:accumulate"
       d="m 6.3496094,626.83008 c 0.8420327,0.67005 1.6738977,1.34472 2.5390625,2.0039 22.6267881,17.23971 53.8736131,31.86195 91.9628881,44.13672 76.17855,24.54955 179.86864,39.39649 294.41211,39.39649 114.54346,0 218.23358,-14.84694 294.41211,-39.39649 38.08929,-12.27477 69.33611,-26.89701 91.96289,-44.13672 0.86517,-0.65918 1.69703,-1.33385 2.53906,-2.0039 5.81901,7.91034 8.48243,15.55676 8.48243,22.83594 0,12.72495 -8.12379,26.5606 -27.05469,40.98437 -18.93094,14.42374 -47.82338,28.3219 -84.04297,39.99414 -72.43918,23.34448 -174.05926,38.1211 -286.29883,38.12109 -112.23957,0 -213.85964,-14.77661 -286.29883,-38.12109 C 72.745249,718.97229 43.852799,705.07413 24.921875,690.65039 5.9909498,676.22662 -2.1328125,662.39097 -2.1328125,649.66602 c 0,-7.27968 2.66260126,-14.92504 8.4824219,-22.83594 z"
       transform="scale(0.26458333)"
       id="path6533"
       inkscape:connector-curvature="0" />
  </g>
</svg>
