<?xml version="1.0" encoding="UTF-8" standalone="no"?>
<!-- Created with Inkscape (http://www.inkscape.org/) -->

<svg
   xmlns:dc="http://purl.org/dc/elements/1.1/"
   xmlns:cc="http://creativecommons.org/ns#"
   xmlns:rdf="http://www.w3.org/1999/02/22-rdf-syntax-ns#"
   xmlns:svg="http://www.w3.org/2000/svg"
   xmlns="http://www.w3.org/2000/svg"
   xmlns:xlink="http://www.w3.org/1999/xlink"
   xmlns:sodipodi="http://sodipodi.sourceforge.net/DTD/sodipodi-0.dtd"
   xmlns:inkscape="http://www.inkscape.org/namespaces/inkscape"
   width="260.56827mm"
   height="164.36427mm"
   viewBox="0 0 260.56827 164.36427"
   version="1.1"
   id="svg1199"
   inkscape:version="0.92.3 (2405546, 2018-03-11)"
   sodipodi:docname="internet_cloud.svg">
  <defs
     id="defs1193">
    <linearGradient
       inkscape:collect="always"
       id="linearGradient1233">
      <stop
         style="stop-color:#80bafd;stop-opacity:1"
         offset="0"
         id="stop1229" />
      <stop
         style="stop-color:#fbfdff;stop-opacity:1"
         offset="1"
         id="stop1231" />
    </linearGradient>
    <linearGradient
       inkscape:collect="always"
       xlink:href="#linearGradient1233"
       id="linearGradient1235"
       x1="118.13313"
       y1="224.83722"
       x2="118.74414"
       y2="73.349617"
       gradientUnits="userSpaceOnUse" />
  </defs>
  <sodipodi:namedview
     id="base"
     pagecolor="#ffffff"
     bordercolor="#666666"
     borderopacity="1.0"
     inkscape:pageopacity="0.0"
     inkscape:pageshadow="2"
     inkscape:zoom="0.7"
     inkscape:cx="754.61213"
     inkscape:cy="232.74287"
     inkscape:document-units="mm"
     inkscape:current-layer="layer1"
     showgrid="false"
     inkscape:window-width="1920"
     inkscape:window-height="1017"
     inkscape:window-x="-8"
     inkscape:window-y="-8"
     inkscape:window-maximized="1"
     fit-margin-top="0"
     fit-margin-left="0"
     fit-margin-right="0"
     fit-margin-bottom="0" />
  <metadata
     id="metadata1196">
    <rdf:RDF>
      <cc:Work
         rdf:about="">
        <dc:format>image/svg+xml</dc:format>
        <dc:type
           rdf:resource="http://purl.org/dc/dcmitype/StillImage" />
        <dc:title></dc:title>
      </cc:Work>
    </rdf:RDF>
  </metadata>
  <g
     inkscape:label="Layer 1"
     inkscape:groupmode="layer"
     id="layer1"
     transform="translate(23.501943,-67.138277)">
    <path
       style="color:#000000;font-style:normal;font-variant:normal;font-weight:normal;font-stretch:normal;font-size:medium;line-height:normal;font-family:sans-serif;font-variant-ligatures:normal;font-variant-position:normal;font-variant-caps:normal;font-variant-numeric:normal;font-variant-alternates:normal;font-feature-settings:normal;text-indent:0;text-align:start;text-decoration:none;text-decoration-line:none;text-decoration-style:solid;text-decoration-color:#000000;letter-spacing:normal;word-spacing:normal;text-transform:none;writing-mode:lr-tb;direction:ltr;text-orientation:mixed;dominant-baseline:auto;baseline-shift:baseline;text-anchor:start;white-space:normal;shape-padding:0;clip-rule:nonzero;display:inline;overflow:visible;visibility:visible;opacity:1;isolation:auto;mix-blend-mode:normal;color-interpolation:sRGB;color-interpolation-filters:linearRGB;solid-color:#000000;solid-opacity:1;vector-effect:none;fill:#ffffff;fill-opacity:1;fill-rule:nonzero;stroke:none;stroke-width:6;stroke-linecap:butt;stroke-linejoin:miter;stroke-miterlimit:4;stroke-dasharray:none;stroke-dashoffset:0;stroke-opacity:1;color-rendering:auto;image-rendering:auto;shape-rendering:auto;text-rendering:auto;enable-background:accumulate"
       d="m 112.0332,67.138672 c -2.41513,0.0066 -4.86723,0.09762 -7.35351,0.271484 l -0.0898,0.0059 -0.0879,0.01172 C 87.958475,69.578434 76.325332,74.405205 66.019531,84.839844 54.45197,81.430335 42.488717,80.257946 29.699219,84.367188 l -0.07617,0.02344 -0.07422,0.0293 C 13.428458,90.560221 1.8737212,98.340566 -4.0292969,110.6875 l -0.019531,0.0391 -0.017578,0.041 c -3.1287648,7.07679 -4.0702409,12.76375 -3.8417969,17.71484 -6.3774752,4.40361 -11.5727612,10.20107 -13.9902352,18.54883 -2.57056,8.87639 -2.151165,20.29377 1.990235,35.83594 l 0.02539,0.0977 0.0332,0.0937 c 6.789811,20.0305 25.8117207,31.33602 44.394531,36.33008 l 0.04687,0.0117 0.04687,0.0117 c 26.434095,6.19968 41.590647,1.0921 52.078125,-4.18945 13.045785,10.89551 26.788617,15.28529 41.216797,16.16992 l 0.043,0.002 0.041,0.002 c 20.73922,0.68747 36.26189,-1.81953 49.7168,-11.9414 l 0.004,-0.002 0.004,-0.004 c 3.51463,-2.66086 6.47226,-5.4831 9.01562,-8.41211 11.83335,-2.50072 25.42939,-7.70485 35.74219,-13.5332 15.05113,-7.58511 24.85595,-21.09985 24.55859,-38.94727 0.25155,-14.68704 -5.77527,-31.27525 -19.94921,-42.31836 -10.83466,-8.6185 -25.69435,-15.33481 -41.37305,-16.572264 -3.76183,-7.20407 -9.37098,-13.778501 -19.10938,-20.234375 l -0.004,-0.0039 -0.004,-0.002 C 144.04746,71.151617 128.9391,67.092151 112.0332,67.138672 Z"
       id="path1227"
       inkscape:connector-curvature="0" />
    <path
       style="color:#000000;font-style:normal;font-variant:normal;font-weight:normal;font-stretch:normal;font-size:medium;line-height:normal;font-family:sans-serif;font-variant-ligatures:normal;font-variant-position:normal;font-variant-caps:normal;font-variant-numeric:normal;font-variant-alternates:normal;font-feature-settings:normal;text-indent:0;text-align:start;text-decoration:none;text-decoration-line:none;text-decoration-style:solid;text-decoration-color:#000000;letter-spacing:normal;word-spacing:normal;text-transform:none;writing-mode:lr-tb;direction:ltr;text-orientation:mixed;dominant-baseline:auto;baseline-shift:baseline;text-anchor:start;white-space:normal;shape-padding:0;clip-rule:nonzero;display:inline;overflow:visible;visibility:visible;opacity:1;isolation:auto;mix-blend-mode:normal;color-interpolation:sRGB;color-interpolation-filters:linearRGB;solid-color:#000000;solid-opacity:1;vector-effect:none;fill:url(#linearGradient1235);fill-opacity:1;fill-rule:nonzero;stroke:none;stroke-width:6;stroke-linecap:butt;stroke-linejoin:miter;stroke-miterlimit:4;stroke-dasharray:none;stroke-dashoffset:0;stroke-opacity:1;color-rendering:auto;image-rendering:auto;shape-rendering:auto;text-rendering:auto;enable-background:accumulate"
       d="m 118.74414,73.349609 c 13.13893,0.895327 24.73235,4.609091 34.57617,11.087891 15.85425,10.512774 19.15655,19.556 22.74024,33.9375 l 5.82226,-1.44922 c -0.93887,-3.76774 -1.95031,-7.32221 -3.20508,-10.71875 13.03996,1.78624 25.58353,7.47221 34.71094,14.73633 l 0.0137,0.01 0.0117,0.01 c 12.5442,9.76785 17.88689,24.56749 17.64844,37.54883 l -0.002,0.0527 0.002,0.0547 c 0.2764,15.71219 -7.76952,26.74731 -21.31055,33.55274 l -0.0664,0.0332 -0.0645,0.0371 c -7.81133,4.42349 -17.98053,8.55321 -27.46289,11.24219 3.07792,-5.33404 4.93594,-10.93299 5.64844,-16.67188 l -5.95312,-0.74023 c -1.28682,10.36476 -6.31294,19.94826 -17.73243,28.59375 -12.0745,9.07994 -25.71616,11.39568 -45.85937,10.73242 -21.401029,-1.32127 -39.982433,-9.85246 -58.640626,-39.78711 l -5.091797,3.17383 c 5.67295,9.10151 11.516418,16.22445 17.494141,22.03906 -9.614909,4.58787 -22.38555,8.27618 -45.964844,2.75586 -17.3394407,-4.66992 -34.2650414,-15.00354 -40.19336,-32.3711 -3.945965,-14.86129 -4.128813,-25.15877 -2,-32.50976 1.726137,-5.96051 4.968694,-10.13672 9.384766,-13.64063 0.8082493,2.94609 1.8334011,5.75742 3.0878906,8.4336 l 5.4335938,-2.54688 C -2.1349478,132.61181 -4.748712,127.18156 1.40625,113.23438 6.4218591,102.78089 16.227823,95.931468 31.605469,90.0625 47.895545,84.854857 62.571987,88.981624 78.197266,95.652344 l 2.355468,-5.519532 c -2.642985,-1.128339 -5.326285,-2.058732 -8,-3.035156 8.715552,-7.987246 18.114622,-11.803291 32.628906,-13.701172 4.68424,-0.323856 9.20981,-0.34348 13.5625,-0.04687 z"
       id="path1220"
       inkscape:connector-curvature="0" />
  </g>
</svg>
