<?xml version="1.0" encoding="UTF-8" standalone="no"?>
<!-- Created with Inkscape (http://www.inkscape.org/) -->

<svg
   xmlns:dc="http://purl.org/dc/elements/1.1/"
   xmlns:cc="http://creativecommons.org/ns#"
   xmlns:rdf="http://www.w3.org/1999/02/22-rdf-syntax-ns#"
   xmlns:svg="http://www.w3.org/2000/svg"
   xmlns="http://www.w3.org/2000/svg"
   xmlns:xlink="http://www.w3.org/1999/xlink"
   xmlns:sodipodi="http://sodipodi.sourceforge.net/DTD/sodipodi-0.dtd"
   xmlns:inkscape="http://www.inkscape.org/namespaces/inkscape"
   width="191.76978mm"
   height="140.03937mm"
   viewBox="0 0 191.76978 140.03937"
   version="1.1"
   id="svg837"
   inkscape:version="0.92.3 (2405546, 2018-03-11)"
   sodipodi:docname="key.svg">
  <defs
     id="defs831">
    <linearGradient
       inkscape:collect="always"
       id="linearGradient915">
      <stop
         style="stop-color:#8fb4f8;stop-opacity:1"
         offset="0"
         id="stop911" />
      <stop
         style="stop-color:#2129af;stop-opacity:1"
         offset="1"
         id="stop913" />
    </linearGradient>
    <linearGradient
       inkscape:collect="always"
       id="linearGradient907">
      <stop
         style="stop-color:#a2d9ff;stop-opacity:1"
         offset="0"
         id="stop903" />
      <stop
         style="stop-color:#aedeff;stop-opacity:1"
         offset="1"
         id="stop905" />
    </linearGradient>
    <linearGradient
       inkscape:collect="always"
       id="linearGradient899">
      <stop
         style="stop-color:#bfe4ff;stop-opacity:1"
         offset="0"
         id="stop895" />
      <stop
         style="stop-color:#a5daff;stop-opacity:1"
         offset="1"
         id="stop897" />
    </linearGradient>
    <linearGradient
       inkscape:collect="always"
       id="linearGradient891">
      <stop
         style="stop-color:#b2d9ff;stop-opacity:1"
         offset="0"
         id="stop887" />
      <stop
         style="stop-color:#0b6dff;stop-opacity:1"
         offset="1"
         id="stop889" />
    </linearGradient>
    <linearGradient
       inkscape:collect="always"
       xlink:href="#linearGradient891"
       id="linearGradient893"
       x1="30.557383"
       y1="148.04533"
       x2="203.97859"
       y2="148.04533"
       gradientUnits="userSpaceOnUse" />
    <linearGradient
       inkscape:collect="always"
       xlink:href="#linearGradient899"
       id="linearGradient901"
       x1="47.601562"
       y1="102.71271"
       x2="107.63672"
       y2="102.71271"
       gradientUnits="userSpaceOnUse" />
    <linearGradient
       inkscape:collect="always"
       xlink:href="#linearGradient907"
       id="linearGradient909"
       x1="102.43164"
       y1="148.91406"
       x2="196.9082"
       y2="148.91406"
       gradientUnits="userSpaceOnUse" />
    <linearGradient
       inkscape:collect="always"
       xlink:href="#linearGradient915"
       id="linearGradient919"
       x1="193.4668"
       y1="185.70605"
       x2="214.35547"
       y2="185.70605"
       gradientUnits="userSpaceOnUse" />
  </defs>
  <sodipodi:namedview
     id="base"
     pagecolor="#ffffff"
     bordercolor="#666666"
     borderopacity="1.0"
     inkscape:pageopacity="0.0"
     inkscape:pageshadow="2"
     inkscape:zoom="0.7"
     inkscape:cx="570.53447"
     inkscape:cy="272.47645"
     inkscape:document-units="mm"
     inkscape:current-layer="layer1"
     showgrid="false"
     inkscape:window-width="1920"
     inkscape:window-height="1017"
     inkscape:window-x="-8"
     inkscape:window-y="-8"
     inkscape:window-maximized="1"
     fit-margin-top="0"
     fit-margin-left="0"
     fit-margin-right="0"
     fit-margin-bottom="0" />
  <metadata
     id="metadata834">
    <rdf:RDF>
      <cc:Work
         rdf:about="">
        <dc:format>image/svg+xml</dc:format>
        <dc:type
           rdf:resource="http://purl.org/dc/dcmitype/StillImage" />
        <dc:title></dc:title>
      </cc:Work>
    </rdf:RDF>
  </metadata>
  <g
     inkscape:label="Layer 1"
     inkscape:groupmode="layer"
     id="layer1"
     transform="translate(-26.585689,-74.457)">
    <path
       style="color:#000000;font-style:normal;font-variant:normal;font-weight:normal;font-stretch:normal;font-size:medium;line-height:normal;font-family:sans-serif;font-variant-ligatures:normal;font-variant-position:normal;font-variant-caps:normal;font-variant-numeric:normal;font-variant-alternates:normal;font-feature-settings:normal;text-indent:0;text-align:start;text-decoration:none;text-decoration-line:none;text-decoration-style:solid;text-decoration-color:#000000;letter-spacing:normal;word-spacing:normal;text-transform:none;writing-mode:lr-tb;direction:ltr;text-orientation:mixed;dominant-baseline:auto;baseline-shift:baseline;text-anchor:start;white-space:normal;shape-padding:0;clip-rule:nonzero;display:inline;overflow:visible;visibility:visible;opacity:1;isolation:auto;mix-blend-mode:normal;color-interpolation:sRGB;color-interpolation-filters:linearRGB;solid-color:#000000;solid-opacity:1;vector-effect:none;fill:#ffffff;fill-opacity:1;fill-rule:nonzero;stroke:none;stroke-width:4;stroke-linecap:round;stroke-linejoin:miter;stroke-miterlimit:4;stroke-dasharray:none;stroke-dashoffset:0;stroke-opacity:1;color-rendering:auto;image-rendering:auto;shape-rendering:auto;text-rendering:auto;enable-background:accumulate"
       d="m 58.482422,74.457031 c -1.616011,0.0021 -3.285497,0.10657 -5.015625,0.328125 l -0.419922,0.05469 -15.876953,9.634765 a 2.0002,2.0002 0 0 0 -0.695313,0.570313 c -8.268669,7.377546 -11.065141,16.989206 -9.453125,27.560546 3.484779,26.10897 19.988498,45.23374 43.8125,55.53515 l 0.01367,0.006 0.01367,0.006 c 13.850363,5.75072 24.543398,0.92764 30.380866,-6.48242 l 27.89648,14.04297 12.66406,15.84766 13.18946,-6.07227 8.65429,16.58594 13.5918,-3.10938 10.37695,15.53125 18.87305,-8.00586 a 2.0002,2.0002 0 0 0 0.91602,-0.51562 l 10.95117,-8.05469 v -5.80273 l -15.9043,-25.06836 a 2.0002,2.0002 0 0 0 -0.35351,-0.55469 l -0.11914,-0.18945 -0.21094,-0.10547 a 2.0002,2.0002 0 0 0 -0.54297,-0.27539 L 111.66602,120.74805 C 106.6421,108.03144 101.74538,99.095173 88.105469,86.144531 l -0.113281,-0.109375 -0.13086,-0.08984 C 78.53468,79.532933 69.794496,74.442501 58.482422,74.457031 Z"
       id="path883"
       inkscape:connector-curvature="0" />
    <path
       style="color:#000000;font-style:normal;font-variant:normal;font-weight:normal;font-stretch:normal;font-size:medium;line-height:normal;font-family:sans-serif;font-variant-ligatures:normal;font-variant-position:normal;font-variant-caps:normal;font-variant-numeric:normal;font-variant-alternates:normal;font-feature-settings:normal;text-indent:0;text-align:start;text-decoration:none;text-decoration-line:none;text-decoration-style:solid;text-decoration-color:#000000;letter-spacing:normal;word-spacing:normal;text-transform:none;writing-mode:lr-tb;direction:ltr;text-orientation:mixed;dominant-baseline:auto;baseline-shift:baseline;text-anchor:start;white-space:normal;shape-padding:0;clip-rule:nonzero;display:inline;overflow:visible;visibility:visible;opacity:1;isolation:auto;mix-blend-mode:normal;color-interpolation:sRGB;color-interpolation-filters:linearRGB;solid-color:#000000;solid-opacity:1;vector-effect:none;fill:url(#linearGradient893);fill-opacity:1;fill-rule:nonzero;stroke:none;stroke-width:4;stroke-linecap:round;stroke-linejoin:miter;stroke-miterlimit:4;stroke-dasharray:none;stroke-dashoffset:0;stroke-opacity:1;color-rendering:auto;image-rendering:auto;shape-rendering:auto;text-rendering:auto;enable-background:accumulate"
       d="m 50.472656,86.583984 c 3.395983,-0.08616 6.290153,0.263513 8.957032,0.988282 5.333756,1.449537 9.927374,4.467349 15.792968,8.958984 l 0.0098,0.0078 0.0098,0.0078 c 14.050658,10.4891 18.784616,22.39278 21.232421,33.88477 a 2.0002,2.0002 0 0 0 0.121094,0.51172 l 0.136719,0.64453 0.58789,0.28906 a 2.0002,2.0002 0 0 0 0.546876,0.26953 l 91.568364,45.05469 10.99218,17.65821 -95.01562,-48.50977 a 2.0002,2.0002 0 1 0 -1.81836,3.5625 l 100.35547,51.23633 0.0293,2.06054 -14.87696,6.31055 -10.06836,-15.07031 -13.26953,3.03711 -8.98633,-17.22266 -13.80468,6.35547 -11.25586,-14.08594 -31.69532,-15.95508 -0.984373,1.45704 c -4.682188,6.92765 -13.337928,11.93397 -26.615234,6.43359 l -0.0039,-0.002 c -22.805398,-9.86231 -38.143564,-27.6681 -41.4375,-52.41407 l -0.002,-0.0195 -0.002,-0.0195 c -1.461162,-9.55987 0.816799,-17.365922 8.111329,-23.9043 4.393687,-0.931471 8.140281,-1.443078 11.384765,-1.525391 z"
       id="path879"
       inkscape:connector-curvature="0" />
    <path
       style="color:#000000;font-style:normal;font-variant:normal;font-weight:normal;font-stretch:normal;font-size:medium;line-height:normal;font-family:sans-serif;font-variant-ligatures:normal;font-variant-position:normal;font-variant-caps:normal;font-variant-numeric:normal;font-variant-alternates:normal;font-feature-settings:normal;text-indent:0;text-align:start;text-decoration:none;text-decoration-line:none;text-decoration-style:solid;text-decoration-color:#000000;letter-spacing:normal;word-spacing:normal;text-transform:none;writing-mode:lr-tb;direction:ltr;text-orientation:mixed;dominant-baseline:auto;baseline-shift:baseline;text-anchor:start;white-space:normal;shape-padding:0;clip-rule:nonzero;display:inline;overflow:visible;visibility:visible;opacity:1;isolation:auto;mix-blend-mode:normal;color-interpolation:sRGB;color-interpolation-filters:linearRGB;solid-color:#000000;solid-opacity:1;vector-effect:none;fill:#ffffff;fill-opacity:1;fill-rule:nonzero;stroke:none;stroke-width:4;stroke-linecap:round;stroke-linejoin:miter;stroke-miterlimit:4;stroke-dasharray:none;stroke-dashoffset:0;stroke-opacity:1;color-rendering:auto;image-rendering:auto;shape-rendering:auto;text-rendering:auto;enable-background:accumulate"
       d="m 83.892578,121.64648 a 2.0002,2.0002 0 0 0 -1.970703,2.0293 v 26.59375 a 2.0002,2.0002 0 1 0 4,0 v -26.59375 a 2.0002,2.0002 0 0 0 -2.029297,-2.0293 z"
       id="path858"
       inkscape:connector-curvature="0" />
    <path
       style="opacity:1;fill:#ffffff;stroke:none;stroke-width:4;stroke-linecap:round;stroke-linejoin:miter;stroke-miterlimit:4;stroke-dasharray:none;stroke-opacity:1"
       d="m 65.481032,131.29289 c -2.112898,3.90418 -5.513082,5.65417 -10.223058,4.20949 -5.11386,-2.11874 -9.699552,-5.09866 -12.695303,-9.68853 -2.166474,-3.57753 -3.899306,-8.09213 -3.407687,-12.29439 0.348219,-3.7351 3.420997,-7.50705 8.753078,-8.21853 4.440929,-0.46735 8.790955,2.90235 12.027128,6.61492 5.869969,6.18077 8.062307,15.00522 5.545842,19.37704 z"
       id="path860"
       inkscape:connector-curvature="0"
       sodipodi:nodetypes="ccccccc" />
    <path
       style="opacity:1;fill:#0066ff;fill-opacity:1;stroke:none;stroke-width:4;stroke-linecap:round;stroke-linejoin:miter;stroke-miterlimit:4;stroke-dasharray:none;stroke-opacity:1"
       d="m 49.24441,110.44586 -0.06682,3.74177 c 2.719801,6.18174 7.181837,8.35859 11.893494,11.15851 0.555844,3.88713 -0.444981,6.3576 -3.474505,5.67948 -4.766294,-1.59808 -8.949455,-4.60844 -11.425773,-8.61945 -3.686396,-6.14626 -2.893202,-13.02684 3.073601,-11.96031 z"
       id="path862"
       inkscape:connector-curvature="0"
       sodipodi:nodetypes="cccccc" />
    <path
       style="color:#000000;font-style:normal;font-variant:normal;font-weight:normal;font-stretch:normal;font-size:medium;line-height:normal;font-family:sans-serif;font-variant-ligatures:normal;font-variant-position:normal;font-variant-caps:normal;font-variant-numeric:normal;font-variant-alternates:normal;font-feature-settings:normal;text-indent:0;text-align:start;text-decoration:none;text-decoration-line:none;text-decoration-style:solid;text-decoration-color:#000000;letter-spacing:normal;word-spacing:normal;text-transform:none;writing-mode:lr-tb;direction:ltr;text-orientation:mixed;dominant-baseline:auto;baseline-shift:baseline;text-anchor:start;white-space:normal;shape-padding:0;clip-rule:nonzero;display:inline;overflow:visible;visibility:visible;opacity:1;isolation:auto;mix-blend-mode:normal;color-interpolation:sRGB;color-interpolation-filters:linearRGB;solid-color:#000000;solid-opacity:1;vector-effect:none;fill:url(#linearGradient901);fill-opacity:1;fill-rule:nonzero;stroke:none;stroke-width:4;stroke-linecap:round;stroke-linejoin:miter;stroke-miterlimit:4;stroke-dasharray:none;stroke-dashoffset:0;stroke-opacity:1;color-rendering:auto;image-rendering:auto;shape-rendering:auto;text-rendering:auto;enable-background:accumulate"
       d="m 58.513672,78.445312 c 10.148577,-0.04639 17.813223,4.438759 26.939453,10.705079 12.961022,12.328709 17.394085,20.325859 22.183595,32.335939 l -7.968751,5.49414 C 96.894051,115.70294 91.456312,103.65888 77.636719,93.341797 h -0.002 C 71.667492,88.77341 66.600343,85.376068 60.480469,83.712891 56.695858,82.68436 52.481793,82.434889 47.601562,82.824219 l 6.748047,-4.095703 c 1.432639,-0.16936 2.826884,-0.277092 4.164063,-0.283204 z"
       id="path881"
       inkscape:connector-curvature="0" />
    <path
       style="color:#000000;font-style:normal;font-variant:normal;font-weight:normal;font-stretch:normal;font-size:medium;line-height:normal;font-family:sans-serif;font-variant-ligatures:normal;font-variant-position:normal;font-variant-caps:normal;font-variant-numeric:normal;font-variant-alternates:normal;font-feature-settings:normal;text-indent:0;text-align:start;text-decoration:none;text-decoration-line:none;text-decoration-style:solid;text-decoration-color:#000000;letter-spacing:normal;word-spacing:normal;text-transform:none;writing-mode:lr-tb;direction:ltr;text-orientation:mixed;dominant-baseline:auto;baseline-shift:baseline;text-anchor:start;white-space:normal;shape-padding:0;clip-rule:nonzero;display:inline;overflow:visible;visibility:visible;opacity:1;isolation:auto;mix-blend-mode:normal;color-interpolation:sRGB;color-interpolation-filters:linearRGB;solid-color:#000000;solid-opacity:1;vector-effect:none;fill:url(#linearGradient909);fill-opacity:1;fill-rule:nonzero;stroke:none;stroke-width:4;stroke-linecap:round;stroke-linejoin:miter;stroke-miterlimit:4;stroke-dasharray:none;stroke-dashoffset:0;stroke-opacity:1;color-rendering:auto;image-rendering:auto;shape-rendering:auto;text-rendering:auto;enable-background:accumulate"
       d="m 110.27344,124.52539 86.63476,43.70117 -6.33593,5.07617 -88.14063,-43.36718 z"
       id="path877"
       inkscape:connector-curvature="0" />
    <path
       style="color:#000000;font-style:normal;font-variant:normal;font-weight:normal;font-stretch:normal;font-size:medium;line-height:normal;font-family:sans-serif;font-variant-ligatures:normal;font-variant-position:normal;font-variant-caps:normal;font-variant-numeric:normal;font-variant-alternates:normal;font-feature-settings:normal;text-indent:0;text-align:start;text-decoration:none;text-decoration-line:none;text-decoration-style:solid;text-decoration-color:#000000;letter-spacing:normal;word-spacing:normal;text-transform:none;writing-mode:lr-tb;direction:ltr;text-orientation:mixed;dominant-baseline:auto;baseline-shift:baseline;text-anchor:start;white-space:normal;shape-padding:0;clip-rule:nonzero;display:inline;overflow:visible;visibility:visible;opacity:1;isolation:auto;mix-blend-mode:normal;color-interpolation:sRGB;color-interpolation-filters:linearRGB;solid-color:#000000;solid-opacity:1;vector-effect:none;fill:url(#linearGradient919);fill-opacity:1;fill-rule:nonzero;stroke:none;stroke-width:4;stroke-linecap:round;stroke-linejoin:miter;stroke-miterlimit:4;stroke-dasharray:none;stroke-dashoffset:0;stroke-opacity:1;color-rendering:auto;image-rendering:auto;shape-rendering:auto;text-rendering:auto;enable-background:accumulate"
       d="m 200.09375,170.79883 14.26172,22.48047 v 2.61718 l -6.41406,4.7168 -0.006,-0.41601 a 2.0002,2.0002 0 0 0 -0.008,-0.59571 l -0.004,-0.27148 -0.15625,-0.25196 -0.004,-0.008 a 2.0002,2.0002 0 0 0 -0.23633,-0.3789 L 193.4668,176.10938 Z"
       id="path864"
       inkscape:connector-curvature="0" />
  </g>
</svg>
