<?xml version="1.0" encoding="UTF-8" standalone="no"?>
<!-- Created with Inkscape (http://www.inkscape.org/) -->

<svg
   xmlns:dc="http://purl.org/dc/elements/1.1/"
   xmlns:cc="http://creativecommons.org/ns#"
   xmlns:rdf="http://www.w3.org/1999/02/22-rdf-syntax-ns#"
   xmlns:svg="http://www.w3.org/2000/svg"
   xmlns="http://www.w3.org/2000/svg"
   xmlns:xlink="http://www.w3.org/1999/xlink"
   xmlns:sodipodi="http://sodipodi.sourceforge.net/DTD/sodipodi-0.dtd"
   xmlns:inkscape="http://www.inkscape.org/namespaces/inkscape"
   width="135.21484mm"
   height="142.93164mm"
   viewBox="0 0 135.21484 142.93164"
   version="1.1"
   id="svg1367"
   inkscape:version="0.92.3 (2405546, 2018-03-11)"
   sodipodi:docname="mac_client.svg">
  <defs
     id="defs1361">
    <linearGradient
       inkscape:collect="always"
       id="linearGradient898">
      <stop
         style="stop-color:#b6e3fe;stop-opacity:1"
         offset="0"
         id="stop894" />
      <stop
         style="stop-color:#06a2fc;stop-opacity:1"
         offset="1"
         id="stop896" />
    </linearGradient>
    <linearGradient
       inkscape:collect="always"
       id="linearGradient890">
      <stop
         style="stop-color:#2187fc;stop-opacity:1"
         offset="0"
         id="stop886" />
      <stop
         style="stop-color:#8ac6fd;stop-opacity:1"
         offset="1"
         id="stop888" />
    </linearGradient>
    <linearGradient
       inkscape:collect="always"
       id="linearGradient878">
      <stop
         style="stop-color:#0777fd;stop-opacity:1"
         offset="0"
         id="stop874" />
      <stop
         style="stop-color:#3b97fd;stop-opacity:1"
         offset="1"
         id="stop876" />
    </linearGradient>
    <linearGradient
       inkscape:collect="always"
       id="linearGradient870">
      <stop
         style="stop-color:#0d2b9f;stop-opacity:1"
         offset="0"
         id="stop866" />
      <stop
         style="stop-color:#8ab4f3;stop-opacity:1"
         offset="1"
         id="stop868" />
    </linearGradient>
    <linearGradient
       inkscape:collect="always"
       id="linearGradient862">
      <stop
         style="stop-color:#0b299d;stop-opacity:1"
         offset="0"
         id="stop858" />
      <stop
         style="stop-color:#8fbaf7;stop-opacity:1"
         offset="1"
         id="stop860" />
    </linearGradient>
    <linearGradient
       inkscape:collect="always"
       xlink:href="#linearGradient862"
       id="linearGradient864"
       x1="144.47729"
       y1="185.49408"
       x2="144.35953"
       y2="108.9539"
       gradientUnits="userSpaceOnUse"
       gradientTransform="translate(-209.00477,49.177593)" />
    <linearGradient
       inkscape:collect="always"
       xlink:href="#linearGradient870"
       id="linearGradient872"
       x1="140.46683"
       y1="207.55792"
       x2="140.57977"
       y2="144.2469"
       gradientUnits="userSpaceOnUse"
       gradientTransform="translate(-209.00477,49.177593)" />
    <linearGradient
       inkscape:collect="always"
       xlink:href="#linearGradient878"
       id="linearGradient880"
       x1="78.154533"
       y1="207.05316"
       x2="76.70697"
       y2="156.12086"
       gradientUnits="userSpaceOnUse"
       gradientTransform="translate(-209.00477,49.177593)" />
    <linearGradient
       inkscape:collect="always"
       xlink:href="#linearGradient890"
       id="linearGradient892"
       x1="86.390137"
       y1="184.63304"
       x2="83.704155"
       y2="87.346924"
       gradientUnits="userSpaceOnUse"
       gradientTransform="translate(-209.00477,49.177593)" />
    <linearGradient
       inkscape:collect="always"
       xlink:href="#linearGradient898"
       id="linearGradient900"
       x1="92.205986"
       y1="115.68236"
       x2="91.8591"
       y2="76.260101"
       gradientUnits="userSpaceOnUse"
       gradientTransform="translate(-209.00477,49.177593)" />
  </defs>
  <sodipodi:namedview
     id="base"
     pagecolor="#ffffff"
     bordercolor="#666666"
     borderopacity="1.0"
     inkscape:pageopacity="0.0"
     inkscape:pageshadow="2"
     inkscape:zoom="0.49497475"
     inkscape:cx="-7.0240689"
     inkscape:cy="74.397016"
     inkscape:document-units="mm"
     inkscape:current-layer="layer1"
     showgrid="false"
     inkscape:window-width="1920"
     inkscape:window-height="1017"
     inkscape:window-x="-8"
     inkscape:window-y="-8"
     inkscape:window-maximized="1"
     fit-margin-top="0"
     fit-margin-left="0"
     fit-margin-right="0"
     fit-margin-bottom="0" />
  <metadata
     id="metadata1364">
    <rdf:RDF>
      <cc:Work
         rdf:about="">
        <dc:format>image/svg+xml</dc:format>
        <dc:type
           rdf:resource="http://purl.org/dc/dcmitype/StillImage" />
        <dc:title></dc:title>
      </cc:Work>
    </rdf:RDF>
  </metadata>
  <g
     inkscape:label="Layer 1"
     inkscape:groupmode="layer"
     id="layer1"
     transform="translate(170.56337,-120.92173)">
    <path
       style="color:#000000;font-style:normal;font-variant:normal;font-weight:normal;font-stretch:normal;font-size:medium;line-height:normal;font-family:sans-serif;font-variant-ligatures:normal;font-variant-position:normal;font-variant-caps:normal;font-variant-numeric:normal;font-variant-alternates:normal;font-feature-settings:normal;text-indent:0;text-align:start;text-decoration:none;text-decoration-line:none;text-decoration-style:solid;text-decoration-color:#000000;letter-spacing:normal;word-spacing:normal;text-transform:none;writing-mode:lr-tb;direction:ltr;text-orientation:mixed;dominant-baseline:auto;baseline-shift:baseline;text-anchor:start;white-space:normal;shape-padding:0;clip-rule:nonzero;display:inline;overflow:visible;visibility:visible;opacity:1;isolation:auto;mix-blend-mode:normal;color-interpolation:sRGB;color-interpolation-filters:linearRGB;solid-color:#000000;solid-opacity:1;vector-effect:none;fill:url(#linearGradient892);fill-opacity:1;fill-rule:nonzero;stroke:none;stroke-width:7.61838007;stroke-linecap:butt;stroke-linejoin:miter;stroke-miterlimit:4;stroke-dasharray:none;stroke-dashoffset:0;stroke-opacity:1;color-rendering:auto;image-rendering:auto;shape-rendering:auto;text-rendering:auto;enable-background:accumulate"
       d="m -93.094641,165.20276 c -1.33451,2.50995 -1.28387,5.0301 -2.19844,9.08665 -0.91456,4.05654 -1.75153,8.68717 -2.40199,12.93679 l -0.004,0.0255 -0.004,0.0255 c -2.333719,16.7658 -3.268609,31.63652 -4.451129,47.76367 l -61.0854,-29.96116 c 2.22163,-23.21958 4.54201,-45.21175 7.95401,-68.98363 z"
       id="path884"
       inkscape:connector-curvature="0" />
    <path
       style="color:#000000;font-style:normal;font-variant:normal;font-weight:normal;font-stretch:normal;font-size:medium;line-height:normal;font-family:sans-serif;font-variant-ligatures:normal;font-variant-position:normal;font-variant-caps:normal;font-variant-numeric:normal;font-variant-alternates:normal;font-feature-settings:normal;text-indent:0;text-align:start;text-decoration:none;text-decoration-line:none;text-decoration-style:solid;text-decoration-color:#000000;letter-spacing:normal;word-spacing:normal;text-transform:none;writing-mode:lr-tb;direction:ltr;text-orientation:mixed;dominant-baseline:auto;baseline-shift:baseline;text-anchor:start;white-space:normal;shape-padding:0;clip-rule:nonzero;display:inline;overflow:visible;visibility:visible;opacity:1;isolation:auto;mix-blend-mode:normal;color-interpolation:sRGB;color-interpolation-filters:linearRGB;solid-color:#000000;solid-opacity:1;vector-effect:none;fill:url(#linearGradient880);fill-opacity:1;fill-rule:nonzero;stroke:none;stroke-width:7.91022825;stroke-linecap:butt;stroke-linejoin:miter;stroke-miterlimit:4;stroke-dasharray:none;stroke-dashoffset:0;stroke-opacity:1;color-rendering:auto;image-rendering:auto;shape-rendering:auto;text-rendering:auto;enable-background:accumulate"
       d="m -163.2396,205.07971 61.0854,29.96116 c -0.7335,6.52774 -2.33162,16.81368 -2.55018,23.77097 l -60.63619,-29.6184 c 0.62794,-7.70139 1.43543,-16.39741 2.10097,-24.11373 z"
       id="path1659-2"
       inkscape:connector-curvature="0"
       sodipodi:nodetypes="ccccc" />
    <path
       style="opacity:1;fill:#0073fc;fill-opacity:1;stroke:none;stroke-width:1;stroke-linecap:butt;stroke-linejoin:miter;stroke-miterlimit:4;stroke-dasharray:none;stroke-opacity:1"
       d="m -156.0714,194.42014 6.73675,-47.72621 43.26058,21.83484 -6.71214,49.08966 z"
       id="path1661"
       inkscape:connector-curvature="0"
       sodipodi:nodetypes="ccccc" />
    <path
       style="opacity:1;fill:#ffffff;stroke:none;stroke-width:1;stroke-linecap:butt;stroke-linejoin:miter;stroke-miterlimit:4;stroke-dasharray:none;stroke-opacity:1"
       d="m -151.93659,192.34552 5.69159,-39.8755 35.98078,18.10421 -5.5458,41.20918 z"
       id="path1663"
       inkscape:connector-curvature="0"
       sodipodi:nodetypes="ccccc" />
    <path
       style="opacity:1;fill:#ffffff;stroke:none;stroke-width:1;stroke-linecap:butt;stroke-linejoin:miter;stroke-miterlimit:4;stroke-dasharray:none;stroke-opacity:1"
       d="m -122.51909,240.88759 c -1.3376,-0.52938 -1.70331,-1.76341 -1.32292,-3.07106 0.35462,-1.21775 1.79399,-1.47415 3.18917,-0.89769 l 7.11068,3.30728 c 1.43063,0.78425 1.60805,2.15726 1.1103,3.33092 -0.48791,1.05023 -1.71595,0.95583 -2.85844,0.37798 z"
       id="path1665"
       inkscape:connector-curvature="0"
       sodipodi:nodetypes="ccccccc" />
    <path
       style="opacity:1;fill:#ffffff;stroke:none;stroke-width:1;stroke-linecap:butt;stroke-linejoin:miter;stroke-miterlimit:4;stroke-dasharray:none;stroke-opacity:1"
       d="m -159.4533,222.55972 c -1.33759,-0.52938 -1.7033,-1.76341 -1.32291,-3.07106 0.35462,-1.21775 1.79399,-1.47415 3.18917,-0.89769 l 7.11068,3.30728 c 1.43063,0.78425 1.60805,2.15726 1.1103,3.33092 -0.48791,1.05023 -1.71595,0.95583 -2.85844,0.37798 z"
       id="path1665-1"
       inkscape:connector-curvature="0"
       sodipodi:nodetypes="ccccccc" />
    <path
       style="color:#000000;font-style:normal;font-variant:normal;font-weight:normal;font-stretch:normal;font-size:medium;line-height:normal;font-family:sans-serif;font-variant-ligatures:normal;font-variant-position:normal;font-variant-caps:normal;font-variant-numeric:normal;font-variant-alternates:normal;font-feature-settings:normal;text-indent:0;text-align:start;text-decoration:none;text-decoration-line:none;text-decoration-style:solid;text-decoration-color:#000000;letter-spacing:normal;word-spacing:normal;text-transform:none;writing-mode:lr-tb;direction:ltr;text-orientation:mixed;dominant-baseline:auto;baseline-shift:baseline;text-anchor:start;white-space:normal;shape-padding:0;clip-rule:nonzero;display:inline;overflow:visible;visibility:visible;opacity:1;isolation:auto;mix-blend-mode:normal;color-interpolation:sRGB;color-interpolation-filters:linearRGB;solid-color:#000000;solid-opacity:1;vector-effect:none;fill:url(#linearGradient900);fill-opacity:1;fill-rule:nonzero;stroke:none;stroke-width:7.61838007;stroke-linecap:butt;stroke-linejoin:miter;stroke-miterlimit:4;stroke-dasharray:none;stroke-dashoffset:0;stroke-opacity:1;color-rendering:auto;image-rendering:auto;shape-rendering:auto;text-rendering:auto;enable-background:accumulate"
       d="m -155.28559,136.09608 c 4.45436,-5.15295 7.54191,-9.89625 13.60021,-11.13478 l -3.2e-4,-5e-5 59.418699,30.431 c -1.10653,0.63447 -2.14162,1.38716 -3.13536,2.20431 -2.18136,1.79378 -4.24263,3.94428 -6.21118,6.00076 l -1.4811,1.60544 z"
       id="path854"
       inkscape:connector-curvature="0" />
    <path
       style="color:#000000;font-style:normal;font-variant:normal;font-weight:normal;font-stretch:normal;font-size:medium;line-height:normal;font-family:sans-serif;font-variant-ligatures:normal;font-variant-position:normal;font-variant-caps:normal;font-variant-numeric:normal;font-variant-alternates:normal;font-feature-settings:normal;text-indent:0;text-align:start;text-decoration:none;text-decoration-line:none;text-decoration-style:solid;text-decoration-color:#000000;letter-spacing:normal;word-spacing:normal;text-transform:none;writing-mode:lr-tb;direction:ltr;text-orientation:mixed;dominant-baseline:auto;baseline-shift:baseline;text-anchor:start;white-space:normal;shape-padding:0;clip-rule:nonzero;display:inline;overflow:visible;visibility:visible;opacity:1;isolation:auto;mix-blend-mode:normal;color-interpolation:sRGB;color-interpolation-filters:linearRGB;solid-color:#000000;solid-opacity:1;vector-effect:none;fill:url(#linearGradient864);fill-opacity:1;fill-rule:nonzero;stroke:none;stroke-width:8.19876099;stroke-linecap:butt;stroke-linejoin:miter;stroke-miterlimit:4;stroke-dasharray:none;stroke-dashoffset:0;stroke-opacity:1;color-rendering:auto;image-rendering:auto;shape-rendering:auto;text-rendering:auto;enable-background:accumulate"
       d="m -77.758071,157.63306 c 1.72033,0.14375 3.44334,0.53764 4.99825,1.41543 9.8e-4,9.4e-4 0.004,0.001 0.005,0.002 l 0.14028,0.074 0.0226,0.0118 c 14.24886,7.21416 21.40341,11.23777 29.61849,18.40753 1.71183,1.72365 4.3923,8.66694 5.35351,15.51422 l -63.382239,43.12669 c 1.188599,-16.69817 2.190829,-32.15377 4.518569,-49.26482 l 0.002,-0.0118 c 0.66759,-4.45651 1.53586,-9.34856 2.45049,-13.49515 0.87422,-3.96355 1.90952,-7.19327 2.39843,-8.25437 1.8821,-2.00022 3.7556,-3.97228 5.36934,-5.32868 1.77489,-1.49182 3.28757,-2.10009 3.50942,-2.1162 h 0.009 0.009 c 1.53819,-0.1187 3.25589,-0.22484 4.97789,-0.0809 z"
       id="path850"
       inkscape:connector-curvature="0" />
    <path
       style="color:#000000;font-style:normal;font-variant:normal;font-weight:normal;font-stretch:normal;font-size:medium;line-height:normal;font-family:sans-serif;font-variant-ligatures:normal;font-variant-position:normal;font-variant-caps:normal;font-variant-numeric:normal;font-variant-alternates:normal;font-feature-settings:normal;text-indent:0;text-align:start;text-decoration:none;text-decoration-line:none;text-decoration-style:solid;text-decoration-color:#000000;letter-spacing:normal;word-spacing:normal;text-transform:none;writing-mode:lr-tb;direction:ltr;text-orientation:mixed;dominant-baseline:auto;baseline-shift:baseline;text-anchor:start;white-space:normal;shape-padding:0;clip-rule:nonzero;display:inline;overflow:visible;visibility:visible;opacity:1;isolation:auto;mix-blend-mode:normal;color-interpolation:sRGB;color-interpolation-filters:linearRGB;solid-color:#000000;solid-opacity:1;vector-effect:none;fill:url(#linearGradient872);fill-opacity:1;fill-rule:nonzero;stroke:none;stroke-width:8.07909966;stroke-linecap:butt;stroke-linejoin:miter;stroke-miterlimit:4;stroke-dasharray:none;stroke-dashoffset:0;stroke-opacity:1;color-rendering:auto;image-rendering:auto;shape-rendering:auto;text-rendering:auto;enable-background:accumulate"
       d="m -37.619941,193.05804 c -0.86029,4.87278 -4.37057,12.60994 -7.71552,18.48518 l -0.0217,0.035 -0.0196,0.035 c -7.83232,14.39078 -19.17337,24.77049 -28.58892,31.62067 h -0.002 c -8.58575,6.25167 -18.6252,11.80073 -29.344069,17.45886 0.38159,-5.80339 1.60061,-17.04043 2.30957,-24.50802 z"
       id="path848"
       inkscape:connector-curvature="0"
       sodipodi:nodetypes="ccccccccc" />
    <path
       style="color:#000000;font-style:normal;font-variant:normal;font-weight:normal;font-stretch:normal;font-size:medium;line-height:normal;font-family:sans-serif;font-variant-ligatures:normal;font-variant-position:normal;font-variant-caps:normal;font-variant-numeric:normal;font-variant-alternates:normal;font-feature-settings:normal;text-indent:0;text-align:start;text-decoration:none;text-decoration-line:none;text-decoration-style:solid;text-decoration-color:#000000;letter-spacing:normal;word-spacing:normal;text-transform:none;writing-mode:lr-tb;direction:ltr;text-orientation:mixed;dominant-baseline:auto;baseline-shift:baseline;text-anchor:start;white-space:normal;shape-padding:0;clip-rule:nonzero;display:inline;overflow:visible;visibility:visible;opacity:1;isolation:auto;mix-blend-mode:normal;color-interpolation:sRGB;color-interpolation-filters:linearRGB;solid-color:#000000;solid-opacity:1;vector-effect:none;fill:#ffffff;fill-opacity:1;fill-rule:nonzero;stroke:none;stroke-width:7;stroke-linecap:butt;stroke-linejoin:miter;stroke-miterlimit:4;stroke-dasharray:none;stroke-dashoffset:0;stroke-opacity:1;color-rendering:auto;image-rendering:auto;shape-rendering:auto;text-rendering:auto;enable-background:accumulate"
       d="m -139.7743,120.92173 -1.13477,0.18555 c -8.4882,1.38592 -13.1528,5.91062 -18.11719,11.68945 l -0.66211,0.77149 -0.14648,1.00586 c -4.7694,32.80766 -7.74291,64.67991 -10.51172,96.39453 l -0.2168,2.46679 2.25586,1.02344 64.69336,29.39453 1.47852,-0.7168 c 11.610039,-5.62776 22.467319,-11.04499 32.031249,-17.53515 8.9933,-6.09802 19.98951,-15.39614 27.75781,-28.68555 5.13087,-8.41009 6.99805,-15.45508 6.99805,-23.70898 v -0.14844 l -0.0117,-0.14648 c -0.63109,-7.489 -2.55713,-15.04353 -7.05469,-19.36719 l -0.0723,-0.0703 -0.0762,-0.0645 c -7.66555,-6.569 -14.63636,-10.39891 -26.99805,-16.52539 l 0.002,-0.002 c -0.006,-0.003 -0.0116,-0.005 -0.0176,-0.008 -0.0496,-0.0246 -0.0732,-0.0398 -0.12304,-0.0645 l 0.043,0.0195 z m -0.9961,7.35352 54.595709,27.96093 c -1.0167,0.58297 -1.96778,1.27456 -2.88086,2.02539 -2.0043,1.64817 -3.89826,3.62412 -5.70703,5.51368 l -0.33594,0.34961 -0.22656,0.42773 c -1.22619,2.30622 -1.97803,5.3196 -2.81836,9.04688 -0.84033,3.72727 -1.60936,7.98204 -2.207029,11.88671 l -0.004,0.0234 -0.004,0.0234 c -2.1443,15.40492 -3.0033,29.06861 -4.08984,43.88672 l -56.12695,-27.5293 c 2.0626,-21.5575 4.34489,-43.21003 7.53125,-65.28906 4.09281,-4.73469 6.70688,-7.18817 12.27343,-8.32617 z m 58.695319,26.62304 c -0.002,1.6e-4 -0.004,0.002 -0.006,0.002 -0.002,1.7e-4 -0.007,-1.8e-4 -0.01,0 z m 4.80859,6.91407 c 1.48498,0.1214 2.97226,0.45403 4.31445,1.19531 10e-4,7.1e-4 0.003,0.001 0.004,0.002 l 0.12109,0.0625 0.0195,0.01 c 12.29949,6.09226 18.47523,9.49015 25.5664,15.54492 1.47764,1.4556 3.7914,7.31912 4.6211,13.10156 l -54.71094,36.41992 c 1.02599,-14.10139 1.89111,-27.15345 3.90039,-41.60351 l 0.002,-0.01 c 0.57626,-3.76347 1.32575,-7.89474 2.11524,-11.39648 0.75463,-3.34717 1.64828,-6.07463 2.07031,-6.97071 1.62461,-1.68916 3.24179,-3.35454 4.63476,-4.5 1.53207,-1.25983 2.8378,-1.7735 3.0293,-1.78711 h 0.008 0.008 c 1.32775,-0.10024 2.81046,-0.18987 4.29687,-0.0683 z m 34.22461,38.60546 c -0.7721,4.07585 -2.29288,7.96846 -5.29492,12.88282 l -0.0195,0.0293 -0.0176,0.0293 c -7.0294,12.03723 -17.20786,20.71936 -25.6582,26.44922 h -0.002 c -7.7056,5.22923 -16.71588,9.87076 -26.335929,14.60352 0.34247,-4.85426 1.627389,-11.09161 2.263669,-17.3379 z m -118.236329,8.92579 56.11133,27.51953 c -0.673,5.57143 -2.1393,11.59516 -2.33984,17.5332 l -55.63477,-25.2793 c 0.57614,-6.57315 1.25264,-13.18755 1.86328,-19.77343 z"
       id="path1659"
       inkscape:connector-curvature="0" />
  </g>
</svg>
