<?xml version="1.0" encoding="UTF-8" standalone="no"?>
<!-- Created with Inkscape (http://www.inkscape.org/) -->

<svg
   xmlns:dc="http://purl.org/dc/elements/1.1/"
   xmlns:cc="http://creativecommons.org/ns#"
   xmlns:rdf="http://www.w3.org/1999/02/22-rdf-syntax-ns#"
   xmlns:svg="http://www.w3.org/2000/svg"
   xmlns="http://www.w3.org/2000/svg"
   xmlns:xlink="http://www.w3.org/1999/xlink"
   xmlns:sodipodi="http://sodipodi.sourceforge.net/DTD/sodipodi-0.dtd"
   xmlns:inkscape="http://www.inkscape.org/namespaces/inkscape"
   width="189.08951mm"
   height="148.67671mm"
   viewBox="0 0 189.08951 148.67671"
   version="1.1"
   id="svg8306"
   inkscape:version="0.92.3 (2405546, 2018-03-11)"
   sodipodi:docname="phone.svg">
  <defs
     id="defs8300">
    <linearGradient
       inkscape:collect="always"
       id="linearGradient8390">
      <stop
         style="stop-color:#97cbff;stop-opacity:1"
         offset="0"
         id="stop8386" />
      <stop
         style="stop-color:#579bff;stop-opacity:0.89447236"
         offset="1"
         id="stop8388" />
    </linearGradient>
    <linearGradient
       inkscape:collect="always"
       id="linearGradient8384">
      <stop
         style="stop-color:#0c0ea1;stop-opacity:1"
         offset="0"
         id="stop8380" />
      <stop
         style="stop-color:#6d88e1;stop-opacity:0.94472361"
         offset="1"
         id="stop8382" />
    </linearGradient>
    <linearGradient
       inkscape:collect="always"
       id="linearGradient8370">
      <stop
         style="stop-color:#c0e5ff;stop-opacity:0.98492461"
         offset="0"
         id="stop8366" />
      <stop
         style="stop-color:#52b9ff;stop-opacity:1"
         offset="1"
         id="stop8368" />
    </linearGradient>
    <linearGradient
       inkscape:collect="always"
       xlink:href="#linearGradient8370"
       id="linearGradient8364"
       x1="121.89732"
       y1="205.52975"
       x2="121.70834"
       y2="83.632431"
       gradientUnits="userSpaceOnUse" />
    <linearGradient
       inkscape:collect="always"
       xlink:href="#linearGradient8384"
       id="linearGradient8378"
       x1="151.37947"
       y1="221.78273"
       x2="151.0015"
       y2="112.35862"
       gradientUnits="userSpaceOnUse" />
    <linearGradient
       inkscape:collect="always"
       xlink:href="#linearGradient8390"
       id="linearGradient8392"
       x1="14.529297"
       y1="196.83594"
       x2="86.71875"
       y2="196.83594"
       gradientUnits="userSpaceOnUse" />
  </defs>
  <sodipodi:namedview
     id="base"
     pagecolor="#ffffff"
     bordercolor="#666666"
     borderopacity="1.0"
     inkscape:pageopacity="0.0"
     inkscape:pageshadow="2"
     inkscape:zoom="0.7"
     inkscape:cx="356.02058"
     inkscape:cy="397.3555"
     inkscape:document-units="mm"
     inkscape:current-layer="layer1"
     showgrid="false"
     fit-margin-top="0"
     fit-margin-left="0"
     fit-margin-right="0"
     fit-margin-bottom="0"
     inkscape:window-width="1920"
     inkscape:window-height="1017"
     inkscape:window-x="-8"
     inkscape:window-y="-8"
     inkscape:window-maximized="1" />
  <metadata
     id="metadata8303">
    <rdf:RDF>
      <cc:Work
         rdf:about="">
        <dc:format>image/svg+xml</dc:format>
        <dc:type
           rdf:resource="http://purl.org/dc/dcmitype/StillImage" />
        <dc:title></dc:title>
      </cc:Work>
    </rdf:RDF>
  </metadata>
  <g
     inkscape:label="Layer 1"
     inkscape:groupmode="layer"
     id="layer1"
     transform="translate(-10.488637,-78.578968)">
    <path
       style="color:#000000;font-style:normal;font-variant:normal;font-weight:normal;font-stretch:normal;font-size:medium;line-height:normal;font-family:sans-serif;font-variant-ligatures:normal;font-variant-position:normal;font-variant-caps:normal;font-variant-numeric:normal;font-variant-alternates:normal;font-feature-settings:normal;text-indent:0;text-align:start;text-decoration:none;text-decoration-line:none;text-decoration-style:solid;text-decoration-color:#000000;letter-spacing:normal;word-spacing:normal;text-transform:none;writing-mode:lr-tb;direction:ltr;text-orientation:mixed;dominant-baseline:auto;baseline-shift:baseline;text-anchor:start;white-space:normal;shape-padding:0;clip-rule:nonzero;display:inline;overflow:visible;visibility:visible;opacity:1;isolation:auto;mix-blend-mode:normal;color-interpolation:sRGB;color-interpolation-filters:linearRGB;solid-color:#000000;solid-opacity:1;vector-effect:none;fill:#ffffff;fill-opacity:1;fill-rule:nonzero;stroke:none;stroke-width:4;stroke-linecap:round;stroke-linejoin:round;stroke-miterlimit:4;stroke-dasharray:none;stroke-dashoffset:0;stroke-opacity:1;color-rendering:auto;image-rendering:auto;shape-rendering:auto;text-rendering:auto;enable-background:accumulate"
       d="m 149.60547,78.580078 a 2.0002,2.0002 0 0 0 -1.5918,0.88086 l -18.11914,26.861332 -6.56836,-3.35743 c -0.59403,-4.851269 -3.49038,-10.087952 -7.20312,-13.113278 a 2.0002,2.0002 0 0 0 -0.0566,-0.04297 c -6.75478,-5.119425 -16.641604,-5.6468 -23.130863,-4.169922 -2.073211,0.412721 -4.407946,1.739762 -7.654297,3.683594 -3.257443,1.950473 -7.200469,4.535672 -11.460938,7.425781 -8.520936,5.780215 -18.309249,12.784275 -26.1875,18.271485 -12.285623,8.15307 -22.089173,15.35078 -25.996093,26.2207 a 2.0002,2.0002 0 0 0 -0.04297,0.14063 c -1.200106,4.317 -1.326701,10.86398 1.164062,16.03711 l -11.267578,9.14062 a 2.0002,2.0002 0 0 0 -0.976562,2.04883 l 0.113281,20 a 2.0002,2.0002 0 0 0 1.130859,1.79102 l 75.794922,36.50586 a 2.0002,2.0002 0 0 0 2.300782,-0.0254 L 198.47461,172.43555 a 2.0002,2.0002 0 0 0 1.10351,-1.79688 l -0.33203,-65.88086 a 2.0002,2.0002 0 0 0 -1.39257,-2.125 L 150.57227,78.792969 a 2.0002,2.0002 0 0 0 -0.9668,-0.212891 z"
       id="path8356"
       inkscape:connector-curvature="0" />
    <path
       style="color:#000000;font-style:normal;font-variant:normal;font-weight:normal;font-stretch:normal;font-size:medium;line-height:normal;font-family:sans-serif;font-variant-ligatures:normal;font-variant-position:normal;font-variant-caps:normal;font-variant-numeric:normal;font-variant-alternates:normal;font-feature-settings:normal;text-indent:0;text-align:start;text-decoration:none;text-decoration-line:none;text-decoration-style:solid;text-decoration-color:#000000;letter-spacing:normal;word-spacing:normal;text-transform:none;writing-mode:lr-tb;direction:ltr;text-orientation:mixed;dominant-baseline:auto;baseline-shift:baseline;text-anchor:start;white-space:normal;shape-padding:0;clip-rule:nonzero;display:inline;overflow:visible;visibility:visible;opacity:1;isolation:auto;mix-blend-mode:normal;color-interpolation:sRGB;color-interpolation-filters:linearRGB;solid-color:#000000;solid-opacity:1;vector-effect:none;fill:url(#linearGradient8364);fill-opacity:1;fill-rule:nonzero;stroke:none;stroke-width:4;stroke-linecap:round;stroke-linejoin:round;stroke-miterlimit:4;stroke-dasharray:none;stroke-dashoffset:0;stroke-opacity:1;color-rendering:auto;image-rendering:auto;shape-rendering:auto;text-rendering:auto;enable-background:accumulate"
       d="m 150.34375,83.158203 44.08789,22.228517 -13.9668,23.52148 -92.001949,76.98047 -72.333985,-37.94336 9.03711,-7.33203 c 3.434226,2.9476 8.469869,4.72051 14.746093,5.52539 6.487968,1.09765 13.59919,-1.48841 17.548829,-5.02539 a 2.0002,2.0002 0 0 0 0.07031,-0.0664 c 4.013855,-3.95657 6.544732,-9.19882 8.09375,-13.50977 a 2.0002,2.0002 0 0 0 0.03516,-1.25 c -0.821375,-2.7407 -2.00989,-4.63314 -2.980468,-6.44727 -0.82963,-1.55067 -1.498269,-3.20244 -1.970704,-5.44336 l 23.988282,-19.21484 c 3.495844,2.8486 9.240858,7.55054 16.285152,8.66602 a 2.0002,2.0002 0 0 0 0.14844,0.0176 c 3.27742,0.26869 7.30918,-0.27954 11.02539,-1.54296 3.71621,-1.26343 7.20801,-3.18484 8.88672,-6.41016 a 2.0002,2.0002 0 0 0 0.0391,-0.0781 c 1.41654,-3.03802 1.9044,-5.84525 2.16406,-8.41796 l 6.4043,3.27343 a 2.0002,2.0002 0 0 0 2.56836,-0.66211 z"
       id="path8354"
       inkscape:connector-curvature="0" />
    <path
       style="color:#000000;font-style:normal;font-variant:normal;font-weight:normal;font-stretch:normal;font-size:medium;line-height:normal;font-family:sans-serif;font-variant-ligatures:normal;font-variant-position:normal;font-variant-caps:normal;font-variant-numeric:normal;font-variant-alternates:normal;font-feature-settings:normal;text-indent:0;text-align:start;text-decoration:none;text-decoration-line:none;text-decoration-style:solid;text-decoration-color:#000000;letter-spacing:normal;word-spacing:normal;text-transform:none;writing-mode:lr-tb;direction:ltr;text-orientation:mixed;dominant-baseline:auto;baseline-shift:baseline;text-anchor:start;white-space:normal;shape-padding:0;clip-rule:nonzero;display:inline;overflow:visible;visibility:visible;opacity:1;isolation:auto;mix-blend-mode:normal;color-interpolation:sRGB;color-interpolation-filters:linearRGB;solid-color:#000000;solid-opacity:1;vector-effect:none;fill:#0066ff;fill-opacity:1;fill-rule:nonzero;stroke:none;stroke-width:4;stroke-linecap:butt;stroke-linejoin:round;stroke-miterlimit:4;stroke-dasharray:none;stroke-dashoffset:0;stroke-opacity:1;color-rendering:auto;image-rendering:auto;shape-rendering:auto;text-rendering:auto;enable-background:accumulate"
       d="m 154.9375,93.480469 a 2.0002,2.0002 0 0 0 -1.74805,0.93164 l -8.75195,13.898441 a 2.0002,2.0002 0 0 0 0.86523,2.88672 l 27.66211,12.5625 a 2.0002,2.0002 0 0 0 2.52344,-0.76172 l 8.68555,-13.89844 a 2.0002,2.0002 0 0 0 -0.86719,-2.87891 l -27.5957,-12.562497 a 2.0002,2.0002 0 0 0 -0.77344,-0.177734 z"
       id="path8346"
       inkscape:connector-curvature="0" />
    <path
       style="color:#000000;font-style:normal;font-variant:normal;font-weight:normal;font-stretch:normal;font-size:medium;line-height:normal;font-family:sans-serif;font-variant-ligatures:normal;font-variant-position:normal;font-variant-caps:normal;font-variant-numeric:normal;font-variant-alternates:normal;font-feature-settings:normal;text-indent:0;text-align:start;text-decoration:none;text-decoration-line:none;text-decoration-style:solid;text-decoration-color:#000000;letter-spacing:normal;word-spacing:normal;text-transform:none;writing-mode:lr-tb;direction:ltr;text-orientation:mixed;dominant-baseline:auto;baseline-shift:baseline;text-anchor:start;white-space:normal;shape-padding:0;clip-rule:nonzero;display:inline;overflow:visible;visibility:visible;opacity:1;isolation:auto;mix-blend-mode:normal;color-interpolation:sRGB;color-interpolation-filters:linearRGB;solid-color:#000000;solid-opacity:1;vector-effect:none;fill:#ffffff;fill-opacity:1;fill-rule:nonzero;stroke:none;stroke-width:4;stroke-linecap:butt;stroke-linejoin:round;stroke-miterlimit:4;stroke-dasharray:none;stroke-dashoffset:0;stroke-opacity:1;color-rendering:auto;image-rendering:auto;shape-rendering:auto;text-rendering:auto;enable-background:accumulate"
       d="m 155.64453,98.023438 23.92969,10.892582 -6.54883,10.47656 -23.98242,-10.88867 z"
       id="path8344"
       inkscape:connector-curvature="0" />
    <path
       style="color:#000000;font-style:normal;font-variant:normal;font-weight:normal;font-stretch:normal;font-size:medium;line-height:normal;font-family:sans-serif;font-variant-ligatures:normal;font-variant-position:normal;font-variant-caps:normal;font-variant-numeric:normal;font-variant-alternates:normal;font-feature-settings:normal;text-indent:0;text-align:start;text-decoration:none;text-decoration-line:none;text-decoration-style:solid;text-decoration-color:#000000;letter-spacing:normal;word-spacing:normal;text-transform:none;writing-mode:lr-tb;direction:ltr;text-orientation:mixed;dominant-baseline:auto;baseline-shift:baseline;text-anchor:start;white-space:normal;shape-padding:0;clip-rule:nonzero;display:inline;overflow:visible;visibility:visible;opacity:1;isolation:auto;mix-blend-mode:normal;color-interpolation:sRGB;color-interpolation-filters:linearRGB;solid-color:#000000;solid-opacity:1;vector-effect:none;fill:#0066ff;fill-opacity:1;fill-rule:nonzero;stroke:none;stroke-width:4;stroke-linecap:butt;stroke-linejoin:round;stroke-miterlimit:4;stroke-dasharray:none;stroke-dashoffset:0;stroke-opacity:1;color-rendering:auto;image-rendering:auto;shape-rendering:auto;text-rendering:auto;enable-background:accumulate"
       d="m 137.4043,118.20117 a 2.0002,2.0002 0 0 0 -1.25977,0.42383 l -60.736327,47.50781 a 2.0002,2.0002 0 0 0 0.414063,3.40039 l 27.595704,12.36133 a 2.0002,2.0002 0 0 0 2.12305,-0.31055 l 57.19531,-49.31054 a 2.0002,2.0002 0 0 0 -0.50195,-3.34571 l -24.05469,-10.55859 a 2.0002,2.0002 0 0 0 -0.77539,-0.16797 z"
       id="path8342"
       inkscape:connector-curvature="0" />
    <path
       style="color:#000000;font-style:normal;font-variant:normal;font-weight:normal;font-stretch:normal;font-size:medium;line-height:normal;font-family:sans-serif;font-variant-ligatures:normal;font-variant-position:normal;font-variant-caps:normal;font-variant-numeric:normal;font-variant-alternates:normal;font-feature-settings:normal;text-indent:0;text-align:start;text-decoration:none;text-decoration-line:none;text-decoration-style:solid;text-decoration-color:#000000;letter-spacing:normal;word-spacing:normal;text-transform:none;writing-mode:lr-tb;direction:ltr;text-orientation:mixed;dominant-baseline:auto;baseline-shift:baseline;text-anchor:start;white-space:normal;shape-padding:0;clip-rule:nonzero;display:inline;overflow:visible;visibility:visible;opacity:1;isolation:auto;mix-blend-mode:normal;color-interpolation:sRGB;color-interpolation-filters:linearRGB;solid-color:#000000;solid-opacity:1;vector-effect:none;fill:#ffffff;fill-opacity:1;fill-rule:nonzero;stroke:none;stroke-width:4;stroke-linecap:butt;stroke-linejoin:round;stroke-miterlimit:4;stroke-dasharray:none;stroke-dashoffset:0;stroke-opacity:1;color-rendering:auto;image-rendering:auto;shape-rendering:auto;text-rendering:auto;enable-background:accumulate"
       d="m 137.66797,122.51367 20.05469,8.80078 -53.83008,46.41016 -23.408205,-10.48633 z"
       id="path8329"
       inkscape:connector-curvature="0" />
    <path
       style="color:#000000;font-style:normal;font-variant:normal;font-weight:normal;font-stretch:normal;font-size:medium;line-height:normal;font-family:sans-serif;font-variant-ligatures:normal;font-variant-position:normal;font-variant-caps:normal;font-variant-numeric:normal;font-variant-alternates:normal;font-feature-settings:normal;text-indent:0;text-align:start;text-decoration:none;text-decoration-line:none;text-decoration-style:solid;text-decoration-color:#000000;letter-spacing:normal;word-spacing:normal;text-transform:none;writing-mode:lr-tb;direction:ltr;text-orientation:mixed;dominant-baseline:auto;baseline-shift:baseline;text-anchor:start;white-space:normal;shape-padding:0;clip-rule:nonzero;display:inline;overflow:visible;visibility:visible;opacity:1;isolation:auto;mix-blend-mode:normal;color-interpolation:sRGB;color-interpolation-filters:linearRGB;solid-color:#000000;solid-opacity:1;vector-effect:none;fill:#0066ff;fill-opacity:0.92462314;fill-rule:nonzero;stroke:none;stroke-width:4;stroke-linecap:round;stroke-linejoin:round;stroke-miterlimit:4;stroke-dasharray:none;stroke-dashoffset:0;stroke-opacity:1;color-rendering:auto;image-rendering:auto;shape-rendering:auto;text-rendering:auto;enable-background:accumulate"
       d="m 98.396484,89.007812 c 5.087316,-0.136208 11.270226,0.990897 15.224606,3.972657 2.82627,2.322558 5.77982,7.987331 5.91211,11.349611 -0.0739,2.84584 -0.43129,6.23717 -2.05664,9.7539 -0.85549,1.62052 -3.43059,3.37113 -6.60742,4.45118 -3.15968,1.07421 -6.80467,1.53318 -9.33008,1.33984 -5.021933,-0.82077 -9.742936,-4.27096 -13.261716,-7.03125 3.457261,-2.09396 9.014365,-4.88768 13.017576,-6.76563 a 2.0002,2.0002 0 1 0 -1.697264,-3.62109 c -4.730801,2.21927 -12.054325,5.63021 -15.740234,8.36328 a 2.0002,2.0002 0 0 0 -0.419922,0.24805 c -0.0018,0.001 -0.0061,0.003 -0.0078,0.004 a 2.0002,2.0002 0 0 0 -0.01758,0.0137 2.0002,2.0002 0 0 0 -0.0039,0.004 l -26.193359,20.98047 a 2.0002,2.0002 0 0 0 -0.726563,1.86524 c 0.52949,3.44607 1.611397,5.82345 2.664063,7.79101 0.941331,1.75946 1.777399,3.22765 2.423828,5.08594 -1.435404,3.81347 -3.666858,8.21764 -6.814453,11.33984 -2.765351,2.45646 -9.381144,4.86514 -14.201172,4.04297 a 2.0002,2.0002 0 0 0 -0.08398,-0.0117 c -6.582346,-0.83671 -11.316211,-2.83659 -13.660156,-5.38281 -2.261319,-3.65046 -2.365859,-10.66436 -1.378906,-14.28516 3.393406,-9.33828 12.274438,-16.11403 24.445312,-24.18945 a 2.0002,2.0002 0 0 0 0.03711,-0.0254 c 7.912925,-5.51136 17.690238,-12.50585 26.146484,-18.24219 4.228123,-2.868163 8.128514,-5.42197 11.269532,-7.302731 3.141017,-1.88076 5.753829,-3.073885 6.392578,-3.199218 a 2.0002,2.0002 0 0 0 0.0625,-0.01367 c 1.32957,-0.304665 2.906055,-0.489656 4.605468,-0.535157 z"
       id="path8352"
       inkscape:connector-curvature="0" />
    <path
       style="color:#000000;font-style:normal;font-variant:normal;font-weight:normal;font-stretch:normal;font-size:medium;line-height:normal;font-family:sans-serif;font-variant-ligatures:normal;font-variant-position:normal;font-variant-caps:normal;font-variant-numeric:normal;font-variant-alternates:normal;font-feature-settings:normal;text-indent:0;text-align:start;text-decoration:none;text-decoration-line:none;text-decoration-style:solid;text-decoration-color:#000000;letter-spacing:normal;word-spacing:normal;text-transform:none;writing-mode:lr-tb;direction:ltr;text-orientation:mixed;dominant-baseline:auto;baseline-shift:baseline;text-anchor:start;white-space:normal;shape-padding:0;clip-rule:nonzero;display:inline;overflow:visible;visibility:visible;opacity:1;isolation:auto;mix-blend-mode:normal;color-interpolation:sRGB;color-interpolation-filters:linearRGB;solid-color:#000000;solid-opacity:1;vector-effect:none;fill:url(#linearGradient8378);fill-opacity:1;fill-rule:nonzero;stroke:none;stroke-width:4;stroke-linecap:round;stroke-linejoin:round;stroke-miterlimit:4;stroke-dasharray:none;stroke-dashoffset:0;stroke-opacity:1;color-rendering:auto;image-rendering:auto;shape-rendering:auto;text-rendering:auto;enable-background:accumulate"
       d="m 195.28125,111.78906 0.29102,57.62696 -104.880864,52.57031 0.02734,-12.76758 92.576174,-77.46094 a 2.0002,2.0002 0 0 0 0.43555,-0.51367 z"
       id="path8350"
       inkscape:connector-curvature="0" />
    <path
       style="color:#000000;font-style:normal;font-variant:normal;font-weight:normal;font-stretch:normal;font-size:medium;line-height:normal;font-family:sans-serif;font-variant-ligatures:normal;font-variant-position:normal;font-variant-caps:normal;font-variant-numeric:normal;font-variant-alternates:normal;font-feature-settings:normal;text-indent:0;text-align:start;text-decoration:none;text-decoration-line:none;text-decoration-style:solid;text-decoration-color:#000000;letter-spacing:normal;word-spacing:normal;text-transform:none;writing-mode:lr-tb;direction:ltr;text-orientation:mixed;dominant-baseline:auto;baseline-shift:baseline;text-anchor:start;white-space:normal;shape-padding:0;clip-rule:nonzero;display:inline;overflow:visible;visibility:visible;opacity:1;isolation:auto;mix-blend-mode:normal;color-interpolation:sRGB;color-interpolation-filters:linearRGB;solid-color:#000000;solid-opacity:1;vector-effect:none;fill:url(#linearGradient8392);fill-opacity:1;fill-rule:nonzero;stroke:none;stroke-width:4;stroke-linecap:round;stroke-linejoin:round;stroke-miterlimit:4;stroke-dasharray:none;stroke-dashoffset:0;stroke-opacity:1;color-rendering:auto;image-rendering:auto;shape-rendering:auto;text-rendering:auto;enable-background:accumulate"
       d="M 14.529297,171.62305 86.71875,209.49219 86.69141,222.04883 14.619145,187.33594 Z"
       id="path8332"
       inkscape:connector-curvature="0" />
  </g>
</svg>
