<svg
	xmlns="http://www.w3.org/2000/svg" width="17.146" height="18.005">
	<defs>
		<linearGradient id="A" x1="9.004" x2="9.004" y2="13.433" gradientUnits="userSpaceOnUse">
			<stop offset="0" stop-color="#a67af4"/>
			<stop offset=".999" stop-color="#773adc"/>
		</linearGradient>
	</defs>
	<g transform="translate(-.428)">
		<path d="M17.547 15.2c-.161.7-1.035 1.391-2.617 1.928a21.589 21.589 0 0 1-12.121.017C1.352 16.627.566 15.971.443 15.3c-.021-.118 0-1.966 0-1.966l17.131-.159-.027 2.025z" fill="#5ea0ef"/>
		<ellipse cx="9.001" cy="13.295" rx="8.573" ry="2.964" transform="rotate(359.425 9.001 13.298)" fill="#50e6ff"/>
		<path d="M13.364 12.978a.482.482 0 0 1-.5.455H5.146a.482.482 0 0 1-.5-.455V.456a.48.48 0 0 1 .5-.456h7.715a.481.481 0 0 1 .5.455z" fill="url(#A)"/>
		<path d="M11.212 6.791h-4.34a1 1 0 0 1-.947-1.044h0A1 1 0 0 1 6.872 4.7h4.34a1 1 0 0 1 .948 1.045 1 1 0 0 1-.948 1.046zm.948-4.151a1 1 0 0 0-.948-1.04h-4.34a1 1 0 0 0-.947 1.04h0a1 1 0 0 0 .947 1.045h4.34a1 1 0 0 0 .948-1.045z" fill="#552f99"/>
		<path d="M10.94 1.939a.7.7 0 1 1-.7.7.7.7 0 0 1 .7-.7zm-.7 3.8a.7.7 0 1 0 .7-.7.7.7 0 0 0-.701.704z" fill="#50e6ff"/>
	</g>
</svg>