<?xml version="1.0" encoding="UTF-8" standalone="no"?>
<svg
   id="uuid-ea9c23a9-56a9-4034-8d56-6fe01d887ba2"
   width="15.971"
   height="18"
   viewBox="0 0 15.971 18"
   version="1.1"
   xmlns="http://www.w3.org/2000/svg"
   xmlns:svg="http://www.w3.org/2000/svg">
  <defs
     id="defs7">
    <linearGradient
       id="uuid-011a4e3c-0bb2-482c-b7f3-9964bb2689e2"
       x1="9"
       y1="0"
       x2="9"
       y2="18"
       gradientUnits="userSpaceOnUse"
       gradientTransform="translate(-1.015)">
      <stop
         offset="0"
         stop-color="#5ea0ef"
         id="stop2" />
      <stop
         offset="1"
         stop-color="#0078d4"
         id="stop4" />
    </linearGradient>
  </defs>
  <polygon
     points="6.465,13.468 6.465,10.669 8.881,9.269 8.881,12.064 "
     fill="#0078d4"
     stroke-width="0"
     id="polygon9"
     transform="translate(-1.015)" />
  <polygon
     points="4.049,9.268 6.465,7.863 8.881,9.269 6.465,10.672 "
     fill="#5ea0ef"
     stroke-width="0"
     id="polygon11"
     transform="translate(-1.015)" />
  <polygon
     points="4.049,12.064 4.049,9.268 6.465,10.672 6.465,13.468 "
     fill="#83b9f9"
     stroke-width="0"
     id="polygon13"
     transform="translate(-1.015)" />
  <polygon
     points="9.026,9.035 9.026,6.236 11.442,4.836 11.442,7.631 "
     fill="#0078d4"
     stroke-width="0"
     id="polygon15"
     transform="translate(-1.015)" />
  <polygon
     points="6.61,4.835 9.026,3.431 11.442,4.836 9.026,6.24 "
     fill="#5ea0ef"
     stroke-width="0"
     id="polygon17"
     transform="translate(-1.015)" />
  <polygon
     points="6.61,7.631 6.61,4.835 9.026,6.24 9.026,9.035 "
     fill="#83b9f9"
     stroke-width="0"
     id="polygon19"
     transform="translate(-1.015)" />
  <polygon
     points="11.551,13.461 11.551,10.662 13.967,9.262 13.967,12.057 "
     fill="#32bedd"
     stroke-width="0"
     id="polygon21"
     transform="translate(-1.015)" />
  <polygon
     points="9.135,9.261 11.551,7.857 13.967,9.262 11.551,10.666 "
     fill="#50e6ff"
     stroke-width="0"
     id="polygon23"
     transform="translate(-1.015)" />
  <polygon
     points="9.135,12.057 9.135,9.261 11.551,10.666 11.551,13.461 "
     fill="#9cebff"
     stroke-width="0"
     id="polygon25"
     transform="translate(-1.015)" />
  <path
     d="m 7.989,0.863 c 0.138,0 0.276,0.036 0.4,0.108 l 6.324,3.685 c 0.244,0.142 0.394,0.403 0.394,0.686 v 7.324 c 0,0.283 -0.15,0.544 -0.395,0.686 L 8.388,17.028 C 8.265,17.1 8.127,17.136 7.989,17.136 7.851,17.136 7.714,17.1 7.59,17.029 L 1.257,13.352 C 1.012,13.21 0.862,12.948 0.862,12.666 V 5.334 C 0.862,5.051 1.013,4.79 1.257,4.648 L 7.591,0.971 C 7.714,0.899 7.852,0.864 7.99,0.864 m 0,-0.863 c -0.292,0 -0.58,0.077 -0.832,0.224 L 0.825,3.901 C 0.316,4.196 0,4.746 0,5.334 v 7.332 c 0,0.588 0.316,1.138 0.825,1.433 l 6.333,3.677 C 7.41,17.923 7.698,18 7.99,18 8.282,18 8.57,17.922 8.823,17.775 l 6.324,-3.676 c 0.508,-0.296 0.824,-0.845 0.824,-1.433 V 5.342 c 0,-0.587 -0.315,-1.136 -0.823,-1.432 L 8.823,0.225 C 8.57,0.078 8.281,0 7.989,0 v 0 z"
     fill="url(#uuid-011a4e3c-0bb2-482c-b7f3-9964bb2689e2)"
     stroke-width="0"
     id="path27"
     style="fill:url(#uuid-011a4e3c-0bb2-482c-b7f3-9964bb2689e2)" />
</svg>
