<svg width="16.26" height="17.99" viewBox="0.87 0 16.26 17.99" id="uuid-fca9fc8a-7e87-4291-9596-cb878231d323" xmlns="http://www.w3.org/2000/svg"><path d="M9.082,14.677h3.345c.663,0,1.2-.537,1.2-1.2v-6.406" fill="none" stroke="#a3a3a3" stroke-miterlimit="10" stroke-width="1.2" /><path d="M4.973,13.084h0s3.681-2.126,3.681-2.126c-.097-.1-.207-.189-.332-.26l-2.601-1.502c-.157-.09-.326-.148-.499-.177-.339-.057-.693,0-1.001.177l-2.6,1.502c-.124.071-.234.159-.33.259-.266.276-.42.646-.42,1.039h0c0-.392.154-.762.42-1.038l3.682,2.126Z" fill="#66c0ff" /><path d="M9.05,11.744c-.004-.026-.01-.052-.016-.078-.009-.039-.022-.077-.034-.115-.027-.085-.061-.168-.103-.246-.016-.031-.03-.063-.049-.093-.014-.023-.029-.044-.044-.066-.046-.066-.094-.13-.15-.188h-.002s-3.681,2.126-3.681,2.126h0v4.905c.027,0,.054.001.081,0,.091-.005.183-.013.272-.034.022-.005.045-.012.067-.018.114-.032.227-.075.332-.135l2.6-1.502c.232-.134.419-.325.549-.549.129-.224.201-.482.201-.75v-3.003c0-.086-.01-.17-.024-.252Z" fill="#4894fe" /><path d="M4.973,13.084l-3.682-2.126c-.266.276-.42.646-.42,1.039v3.002c0,.536.286,1.031.75,1.299l2.6,1.502c.006.004.013.006.019.009.081.045.167.075.253.103.065.022.131.038.198.051.065.012.13.021.196.024.029.002.058,0,.087,0v-4.903Z" fill="#58aafe" /><path d="M13.102,4.086l3.615-2.126c.115.122.199.267.268.42-.018-.039-.028-.082-.049-.12-.005-.009-.01-.017-.015-.026-.028-.048-.059-.095-.092-.14-.003-.004-.005-.007-.008-.011-.033-.043-.067-.085-.105-.125h-.002c-.095-.099-.203-.188-.326-.259L13.836.198c-.154-.09-.32-.148-.49-.177-.333-.058-.681,0-.983.177l-2.552,1.501c-.121.071-.229.159-.324.259l3.615,2.126v.002Z" fill="#36dff1" /><path d="M13.102,4.086v-.002l-3.615-2.126c-.261.275-.413.646-.412,1.039v3.003c0,.536.28,1.031.736,1.298l2.552,1.501c.088.052.182.084.277.115.057.019.115.034.173.046.071.014.143.024.215.027.024.001.049,0,.073,0v-4.902Z" fill="#16bbda" /><path d="M16.985,2.38c-.069-.152-.153-.298-.268-.42l-3.615,2.126v4.902c.031,0,.061.002.092,0,.082-.005.164-.012.244-.031.029-.007.058-.015.087-.024.102-.03.202-.069.297-.123.006-.003.013-.006.019-.009l2.552-1.501c.455-.268.736-.763.736-1.298v-3.001c0-.176-.04-.344-.097-.504-.014-.039-.03-.077-.047-.115Z" fill="#26cfe8" /></svg>