<?xml version="1.0" encoding="utf-8"?>
<!-- Generator: Adobe Illustrator 21.1.0, SVG Export Plug-In . SVG Version: 6.00 Build 0)  -->
<svg version="1.1" id="Layer_1" xmlns="http://www.w3.org/2000/svg" xmlns:xlink="http://www.w3.org/1999/xlink" x="0px" y="0px"
	 viewBox="0 0 64 64" style="enable-background:new 0 0 64 64;" xml:space="preserve">
<style type="text/css">
	.st0{fill:#14A38A;}
	.st1{fill:#FFFFFF;stroke:#FFFFFF;stroke-width:0.22;stroke-miterlimit:10;}
	.st2{fill:#FFFFFF;}
</style>
<title>IBM Cloud Private Ref Arch</title>
<ellipse class="st0" cx="32" cy="32" rx="32" ry="32"/>
<path class="st1" d="M48,26.8c-0.9-7.1-7.4-12.2-14.5-11.3c-5.6,0.7-10.1,5-11.2,10.5c-6.2-1-12.1,3.3-13.1,9.5s3.3,12.1,9.5,13.1
	c0.6,0.1,1.2,0.1,1.9,0.1h22.9c6.3,0,11.4-5.1,11.5-11.4C54.9,32.8,52.2,28.6,48,26.8L48,26.8z M43.5,45.7H20.6
	c-4.6,0.2-8.5-3.5-8.7-8.1C11.7,33,15.4,29.1,20,29c0.2,0,0.4,0,0.6,0c0.4,0,0.8,0,1.3,0.1l3,0.5l0.5-3c0.9-5.4,6-9,11.4-8.1
	c4.4,0.7,7.8,4.3,8.2,8.7l0.2,1.8l1.7,0.7c4.3,1.8,6.2,6.7,4.4,11C49.9,43.7,46.9,45.7,43.5,45.7L43.5,45.7z"/>
<path class="st2" d="M27.9,37.6c2.2,0,4-1.8,4-4s-1.8-4-4-4s-4,1.8-4,4S25.7,37.6,27.9,37.6z M27.9,30.4c1.8,0,3.2,1.4,3.2,3.2
	c0,1.8-1.4,3.2-3.2,3.2s-3.2-1.4-3.2-3.2l0,0C24.8,31.9,26.2,30.4,27.9,30.4L27.9,30.4z"/>
<path class="st2" d="M36.7,33.6c0,2.2,1.8,4,4,4s4-1.8,4-4s-1.8-4-4-4S36.7,31.4,36.7,33.6z M40.7,30.4c1.8,0,3.2,1.4,3.2,3.2
	s-1.4,3.2-3.2,3.2s-3.2-1.4-3.2-3.2v0C37.5,31.9,39,30.5,40.7,30.4L40.7,30.4z"/>
<path class="st2" d="M38.3,24.8c0-2.2-1.8-4-4-4s-4,1.8-4,4s1.8,4,4,4S38.3,27,38.3,24.8z M34.3,28c-1.8,0-3.2-1.4-3.2-3.2
	s1.4-3.2,3.2-3.2c1.8,0,3.2,1.4,3.2,3.2c0,0,0,0,0,0C37.5,26.6,36.1,28,34.3,28L34.3,28z"/>
<path class="st2" d="M31.1,39.2h-6.4c-0.9,0-1.6,0.7-1.6,1.6v2.4h9.6v-2.4C32.7,39.9,32,39.2,31.1,39.2z"/>
<path class="st2" d="M43.9,39.2h-6.4c-0.9,0-1.6,0.7-1.6,1.6v2.4h9.6v-2.4C45.5,39.9,44.8,39.2,43.9,39.2z"/>
</svg>
