<?xml version="1.0" encoding="utf-8"?>
<!-- Generator: Adobe Illustrator 21.1.0, SVG Export Plug-In . SVG Version: 6.00 Build 0)  -->
<svg version="1.1" id="Layer_1" xmlns="http://www.w3.org/2000/svg" xmlns:xlink="http://www.w3.org/1999/xlink" x="0px" y="0px"
	 viewBox="0 0 65 65" style="enable-background:new 0 0 65 65;" xml:space="preserve">
<style type="text/css">
	.st0{fill:#00AE9A;}
	.st1{fill:#FFFFFF;}
</style>
<title>INDIVIDUAL ICONS 3</title>
<circle class="st0" cx="32.5" cy="32.5" r="32.5"/>
<path class="st1" d="M47.8,32.5c0-0.8-0.1-1.6-0.2-2.4l4.8-4.2l-4.1-6.8L42.5,21c-1.4-1.2-3-2.2-4.7-2.8l-1.3-5.6h-8l-1.3,5.6
	c-1.7,0.6-3.3,1.6-4.7,2.8l-5.8-1.9l-4.1,6.8l4.9,4.2c-0.3,1.6-0.3,3.2,0,4.8l-4.9,4.3l4.1,6.8l5.8-1.9c1.4,1.2,3,2.2,4.7,2.8
	l1.3,5.6h8l1.3-5.6c1.7-0.6,3.3-1.6,4.7-2.8l5.8,1.9l4.1-6.8l-4.9-4.2C47.7,34.1,47.8,33.3,47.8,32.5z M49,39.7l-1.9,3.1l-3.8-1.2
	L41.9,41l-1.1,1c-1.2,1-2.5,1.8-3.9,2.3l-1.3,0.5l-0.3,1.4l-0.8,3.5h-3.7l-0.8-3.5l-0.3-1.4l-1.3-0.5c-1.4-0.5-2.8-1.3-3.9-2.3
	l-1.1-1l-1.4,0.5l-3.8,1.2L16,39.7l3.2-2.8l1.1-1l-0.2-1.5c-0.2-1.3-0.2-2.7,0-4l0.2-1.5l-1.1-1L16,25.4l1.9-3.1l3.8,1.2l1.4,0.5
	l1.1-1c1.2-1,2.5-1.8,3.9-2.3l1.3-0.5l0.3-1.4l0.8-3.5h3.7l0.8,3.5l0.3,1.4l1.3,0.5c1.4,0.5,2.8,1.3,3.9,2.3l1.1,1l1.4-0.5l3.8-1.2
	l1.9,3.1l-3.2,2.7l-1.1,1l0.2,1.5c0.2,1.3,0.2,2.7,0,4L44.7,36l1.1,1L49,39.7z"/>
<path class="st1" d="M32.5,24.5c-4.4,0-8,3.6-8,8s3.6,8,8,8s8-3.6,8-8S36.9,24.5,32.5,24.5z M32.5,35.2c-1.5,0-2.6-1.2-2.6-2.7
	s1.2-2.6,2.7-2.6s2.6,1.2,2.6,2.6C35.2,34,34,35.2,32.5,35.2C32.5,35.2,32.5,35.2,32.5,35.2L32.5,35.2z"/>
</svg>
