<?xml version="1.0" encoding="utf-8"?>
<!-- Generator: Adobe Illustrator 21.1.0, SVG Export Plug-In . SVG Version: 6.00 Build 0)  -->
<svg version="1.1" id="Layer_1" xmlns="http://www.w3.org/2000/svg" xmlns:xlink="http://www.w3.org/1999/xlink" x="0px" y="0px"
	 viewBox="0 0 59.3 59.3" style="enable-background:new 0 0 59.3 59.3;" xml:space="preserve">
<style type="text/css">
	.st0{fill:#01AF9C;}
	.st1{fill:#FFFFFF;}
	.st2{fill:#FFFFFF;stroke:#FFFFFF;stroke-miterlimit:10;}
</style>
<title>INDIVIDUAL ICONS</title>
<circle id="devops_it_service_management" class="st0" cx="29.6" cy="29.6" r="29.6"/>
<path class="st1" d="M25.1,9.7c-8,0-14.4,6.5-14.4,14.5s6.5,14.4,14.4,14.4c8,0,14.4-6.5,14.4-14.4C39.6,16.2,33.1,9.7,25.1,9.7
	C25.1,9.7,25.1,9.7,25.1,9.7z M25.1,37.4c-7.4,0-13.4-6-13.4-13.4s6-13.4,13.4-13.4s13.4,6,13.4,13.4c0,0,0,0,0,0
	C38.4,31.4,32.5,37.4,25.1,37.4L25.1,37.4z"/>
<polygon class="st1" points="31.9,16.5 25.4,22.9 21.8,19.2 20.3,20.7 24,24.5 22.7,25.8 23.4,26.5 24.8,25.2 26.4,26.8 27.9,25.4 
	26.2,23.7 32.7,17.2 "/>
<path class="st0" d="M41.3,39.5H26.8c-0.3,0-0.5-0.2-0.5-0.5c0,0,0,0,0-0.1V27.5c0-0.3,0.2-0.5,0.5-0.5c0,0,0,0,0.1,0h14.4
	c0.3,0,0.5,0.2,0.5,0.5c0,0,0,0,0,0.1v11.6C41.7,39.3,41.5,39.5,41.3,39.5z"/>
<path class="st2" d="M45.5,38.6c0-0.9-0.2-1.8-0.5-2.7l1.9-2.4l-2.5-3.1l-2.9,1.5c-0.3-0.2-0.7-0.4-1.1-0.5L39.2,31L38,28l-4,0.8
	l-0.1,3c-0.8,0.4-1.6,1-2.2,1.7l-2.9-0.4l-1.4,3.7l2.5,1.6c0,0.9,0.2,1.8,0.5,2.7l-1.9,2.4l2.5,3.1l2.9-1.5c0.3,0.2,0.7,0.4,1.1,0.5
	l1.2,0.3l1.2,3l4-0.8l0.1-3c0.8-0.4,1.6-1,2.2-1.7l2.9,0.4l1.4-3.7L45.5,38.6z M46,43.2l-2.4-0.3h-0.3l-0.2,0.3
	c-0.5,0.6-1.2,1.2-1.9,1.5l-0.3,0.2v0.3l-0.1,2.5l-2.9,0.5l-1-2.5l-0.1-0.3l-0.3-0.1c-0.4-0.1-0.8-0.2-1.1-0.3s-0.7-0.3-1-0.4
	L34,44.4l-0.3,0.2l-2.4,1.3l-1.8-2.3l1.6-1.9l0.2-0.3l-0.1-0.3c-0.3-0.8-0.5-1.6-0.4-2.5v-0.3l-0.3-0.2l-1.9-1.3l1.1-2.7l2.4,0.3
	h0.3l0.2-0.3c0.5-0.6,1.2-1.2,1.9-1.5l0.3-0.2V32l0.2-2.5l2.9-0.5l1,2.5l0.1,0.3l0.3,0.1c0.4,0.1,0.8,0.2,1.1,0.3s0.7,0.3,1,0.4
	l0.3,0.2l0.3-0.2l2.4-1.3l1.8,2.3l-1.6,1.9l-0.2,0.3l0.1,0.3c0.3,0.8,0.5,1.6,0.4,2.5V39l0.3,0.2l1.9,1.3L46,43.2z"/>
<path class="st1" d="M33.9,37.1c-0.7,2.1,0.3,4.4,2.4,5.2c2.1,0.8,4.4-0.2,5.2-2.3c0.7-2.1-0.3-4.4-2.4-5.2
	C37.1,34,34.8,35,33.9,37.1C34,37,34,37,33.9,37.1z M39,39c-0.3,0.7-1.1,1-1.7,0.7c-0.7-0.3-1-1.1-0.7-1.7l0,0
	c0.3-0.7,1.1-1,1.7-0.7C39,37.5,39.3,38.3,39,39L39,39z"/>
</svg>
