<?xml version="1.0" encoding="utf-8"?>
<!-- Generator: Adobe Illustrator 21.1.0, SVG Export Plug-In . SVG Version: 6.00 Build 0)  -->
<svg version="1.1" id="Layer_1" xmlns="http://www.w3.org/2000/svg" xmlns:xlink="http://www.w3.org/1999/xlink" x="0px" y="0px"
	 viewBox="0 0 60.3 60.3" style="enable-background:new 0 0 60.3 60.3;" xml:space="preserve">
<style type="text/css">
	.st0{fill:#00B19D;}
	.st1{fill:#FFFFFF;}
</style>
<title>INDIVIDUAL ICONS</title>
<circle class="st0" cx="30.1" cy="30.1" r="30.1"/>
<path class="st1" d="M38,33.1c-2.5,0-4.6,1.9-4.9,4.4h-5.9c-0.1-1-0.5-1.9-1.1-2.6l8.8-8.8c2.1,1.7,5.2,1.4,6.9-0.7
	c1.7-2.1,1.4-5.2-0.7-6.9c-2.1-1.7-5.2-1.4-6.9,0.7c-0.6,0.7-1,1.7-1.1,2.6h-6c-0.3-2.7-2.7-4.7-5.4-4.4s-4.7,2.7-4.4,5.4
	s2.7,4.7,5.4,4.4c2.3-0.2,4.2-2.1,4.4-4.4h6c0.1,1,0.5,1.9,1,2.6l-8.8,8.8c-2.1-1.7-5.2-1.4-6.9,0.7c-1.7,2.1-1.4,5.2,0.7,6.9
	c2.1,1.7,5.2,1.4,6.9-0.7c0.6-0.7,1-1.7,1.1-2.6h6c0.3,2.7,2.7,4.7,5.4,4.4c2.7-0.3,4.7-2.7,4.4-5.4C42.7,35,40.5,33.1,38,33.1
	L38,33.1z M22.3,26.2c-2.2,0-3.9-1.7-3.9-3.9c0-2.2,1.7-3.9,3.9-3.9c2.2,0,3.9,1.7,3.9,3.9c0,0,0,0,0,0
	C26.2,24.4,24.4,26.2,22.3,26.2z M34.1,22.3c0-2.2,1.8-3.9,3.9-3.9s3.9,1.8,3.9,3.9s-1.8,3.9-3.9,3.9S34.1,24.5,34.1,22.3L34.1,22.3
	z M22.3,41.9c-2.2,0-3.9-1.7-3.9-3.9c0-2.2,1.7-3.9,3.9-3.9c2.2,0,3.9,1.7,3.9,3.9c0,0,0,0,0,0C26.2,40.2,24.4,41.9,22.3,41.9z"/>
</svg>
