<?xml version="1.0" encoding="utf-8"?>
<!-- Generator: Adobe Illustrator 21.1.0, SVG Export Plug-In . SVG Version: 6.00 Build 0)  -->
<svg version="1.1" id="Layer_1" xmlns="http://www.w3.org/2000/svg" xmlns:xlink="http://www.w3.org/1999/xlink" x="0px" y="0px"
	 viewBox="0 0 59.3 59.3" style="enable-background:new 0 0 59.3 59.3;" xml:space="preserve">
<style type="text/css">
	.st0{fill:#00B09C;}
	.st1{fill:#FFFFFF;}
</style>
<title>INDIVIDUAL ICONS</title>
<circle class="st0" cx="29.6" cy="29.6" r="29.6"/>
<path class="st1" d="M30.6,14.5c-3.3,0-6.6,1.1-9.2,3.2c-3.2,2.5-5.3,6.1-5.7,10.1c-0.5,4,0.6,8.1,3.2,11.2
	c2.5,3.2,6.2,5.2,10.2,5.5c3.6,0.4,7.3-0.6,10.2-2.7c0.3-0.2,0.5-0.3,0.8,0c0.5,0.6,1.1,1.1,1.7,1.7c0.2,0.2,0.2,0.3,0,0.5
	c-7.9,6.2-19.4,4.7-25.5-3.2c-0.5-0.7-1-1.4-1.4-2.1c-3.8-6.6-3-15,1.9-20.8c2.8-3.4,6.8-5.7,11.2-6.2c3.7-0.6,7.5,0.1,10.9,1.8
	c1,0.5,2,1.1,2.9,1.9c0.3,0.3,0.5,0.3,0.9,0c0.6-0.6,1.2-1.2,1.8-1.8c0.2-0.2,0.4-0.3,0.4,0.1c0.6,2.9,1.2,5.7,1.8,8.6
	c0.1,0.5-0.2,0.4-0.4,0.3l-7.1-1.7c-0.4-0.1-0.9-0.2-1.3-0.3s-0.4-0.2-0.2-0.5c0.6-0.6,1.3-1.3,1.9-1.9c0.3-0.3,0.3-0.4,0-0.7
	C37,15.5,33.8,14.5,30.6,14.5z"/>
</svg>
