<?xml version="1.0" encoding="utf-8"?>
<!-- Generator: Adobe Illustrator 21.1.0, SVG Export Plug-In . SVG Version: 6.00 Build 0)  -->
<svg version="1.1" id="Layer_1" xmlns="http://www.w3.org/2000/svg" xmlns:xlink="http://www.w3.org/1999/xlink" x="0px" y="0px"
	 viewBox="0 0 60.3 60.3" style="enable-background:new 0 0 60.3 60.3;" xml:space="preserve">
<style type="text/css">
	.st0{fill:#0CB29D;}
	.st1{fill:#FFFFFF;}
</style>
<title>INDIVIDUAL ICONS</title>
<circle class="st0" cx="30.1" cy="30.1" r="30.1"/>
<path class="st1" d="M14.7,31.4l-4.9-4.9l1.5-1.5h1.9v-1.9l7.7-7.7h9.9L18.1,28h-1.9v1.9L14.7,31.4z M11,26.5l3.6,3.6l0.6-0.6v-2.4
	h2.4l10.8-10.8h-7.3l-7.2,7.2v2.4h-2.4L11,26.5z"/>
<path class="st1" d="M39.1,31.5L39.1,31.5c4.1,1.4,8.6-0.9,9.9-5c0.3-0.8,0.4-1.5,0.4-2.3c0-0.5,0-0.9-0.1-1.4l-0.4-1.5l-1.2,1.2
	l-3,3c-0.5,0.6-1.3,0.9-2.1,0.9c-0.8,0-1.6-0.3-2.1-0.9c-0.6-0.5-0.9-1.3-0.9-2.1c0-0.8,0.3-1.6,0.9-2.1l3-3l1.2-1.2L43,16.8
	c-0.5-0.1-0.9-0.1-1.4-0.1c-4.3,0-7.7,3.5-7.7,7.7c0,0.9,0.1,1.7,0.4,2.5l0,0l-3.7,3.7l-6.1-6.1l-0.6-0.6l-0.6,0.6l-2.8,2.8
	l-0.6,0.6l0.6,0.6l6.1,6.1L21.2,40c-1.3,1.3-1.3,3.4,0,4.7c0.6,0.6,1.4,1,2.3,1c0.9,0,1.7-0.3,2.3-1l5.3-5.3l5.9,5.9l0.6,0.6
	l0.6-0.6l2.8-2.8l0.6-0.6l-0.5-0.7l-5.9-5.9L39.1,31.5L39.1,31.5z M21.1,27.9l2.8-2.8l6.1,6.2l-2.8,2.8L21.1,27.9z M40.6,41.9
	l-2.7,2.7L32,38.7l0.4-0.4l2.4-2.4L40.6,41.9z M38.4,31l-5.5,5.5l-1.5,1.5l-6,6c-0.5,0.5-1.1,0.7-1.7,0.7c-0.6,0-1.2-0.3-1.7-0.7
	c-0.9-1-0.9-2.5,0-3.4l5.3-5.3l0.6-0.6l2.8-2.8l0.6-0.6l3.7-3.7l0.4-0.4l-0.2-0.6c-0.3-0.7-0.4-1.5-0.4-2.2c0-3.8,3-6.8,6.8-6.8
	c0.4,0,0.8,0,1.2,0.1l-3,3c-1.5,1.5-1.5,4,0,5.5c1.5,1.5,3.9,1.5,5.4,0l3-3c0.1,0.4,0.1,0.8,0.1,1.2c0,3.8-3,6.8-6.8,6.9
	c0,0,0,0,0,0c-0.8,0-1.5-0.1-2.2-0.4l-0.4-0.3L38.4,31z"/>
</svg>
