<?xml version="1.0" encoding="utf-8"?>
<svg version="1.1" id="Layer_1" xmlns="http://www.w3.org/2000/svg" xmlns:xlink="http://www.w3.org/1999/xlink" x="0px" y="0px"
	 viewBox="0 0 43.123 166.111" style="enable-background:new 0 0 43.123 166.111;" xml:space="preserve">
<style type="text/css">
	.st0{fill:none;stroke:#626366;stroke-width:2.209;stroke-linecap:round;stroke-linejoin:round;}
	.st1{fill:url(#Fill-3_1_);}
	.st2{fill:none;stroke:#DFE0DF;stroke-width:0.552;stroke-linecap:round;stroke-linejoin:round;}
	.st3{fill:url(#Fill-11_1_);}
	.st4{fill:none;stroke:#636466;stroke-width:0.552;stroke-linecap:round;stroke-linejoin:round;}
	.st5{fill:#646567;}
	.st6{fill:none;stroke:#646567;stroke-width:0.185;}
	.st7{fill:none;stroke:#616365;stroke-width:2.215;stroke-linecap:round;stroke-linejoin:round;}
	.st8{fill:#8D8F92;}
	.st9{fill:#58585B;}
	.st10{fill:#96989B;}
	.st11{fill:#6C6E70;}
	.st12{fill:#6E7072;}
	.st13{fill:#B1B3B5;}
	.st14{fill:#E7E8E9;}
	.st15{fill:#FEFEFE;}
	.st16{fill:#D7D8D9;}
	.st17{fill:none;stroke:#626366;stroke-width:0.552;stroke-linecap:round;stroke-linejoin:round;}
</style>
<title>icon-wireless-TQ4400e</title>
<desc>Created with Sketch.</desc>
<path id="Stroke-1" class="st0" d="M10.853,151.9c0,0.888-0.721,1.605-1.604,1.605c-0.886,0-1.606-0.717-1.606-1.605V96.154
	c0-0.887,0.72-1.603,1.606-1.603c0.883,0,1.604,0.716,1.604,1.603V151.9z"/>
<linearGradient id="Fill-3_1_" gradientUnits="userSpaceOnUse" x1="-389.0108" y1="11.5671" x2="-389.0108" y2="10.5671" gradientTransform="matrix(3.207 0 0 58.955 1256.9122 -528.4302)">
	<stop  offset="0" style="stop-color:#E6E7E7"/>
	<stop  offset="1" style="stop-color:#939598"/>
</linearGradient>
<path id="Fill-3" class="st1" d="M7.751,96.154V151.9c0,0.887,0.72,1.606,1.605,1.606c0.886,0,1.602-0.719,1.602-1.606V96.154
	c0-0.887-0.716-1.603-1.602-1.603C8.471,94.551,7.751,95.267,7.751,96.154"/>
<path id="Stroke-6" class="st2" d="M9.685,102.686v-5.689"/>
<path id="Stroke-8" class="st0" d="M32.26,162.401c0,0.887-0.718,1.605-1.603,1.605c-0.886,0-1.605-0.718-1.605-1.605v-55.747
	c0-0.887,0.719-1.603,1.605-1.603c0.885,0,1.603,0.716,1.603,1.603V162.401z"/>
<linearGradient id="Fill-11_1_" gradientUnits="userSpaceOnUse" x1="-389.0108" y1="11.5669" x2="-389.0108" y2="10.5669" gradientTransform="matrix(3.207 0 0 58.956 1278.3201 -517.9314)">
	<stop  offset="0" style="stop-color:#E6E7E7"/>
	<stop  offset="1" style="stop-color:#939598"/>
</linearGradient>
<path id="Fill-11" class="st3" d="M29.159,106.654v55.747c0,0.887,0.721,1.606,1.606,1.606c0.886,0,1.601-0.719,1.601-1.606v-55.747
	c0-0.887-0.715-1.603-1.601-1.603C29.88,105.051,29.159,105.767,29.159,106.654"/>
<path id="Stroke-14" class="st2" d="M31.094,113.186v-5.689"/>
<path id="Stroke-16" class="st4" d="M9.623,150.016v-5.689"/>
<path id="Stroke-18" class="st4" d="M30.728,160.694v-5.689"/>
<path id="Fill-20" class="st5" d="M4.91,101.369c-2.215-1.015-4.784-4.496-4.766-7.248c0.019-2.77-0.111-32.44-0.018-33.824
	c0.092-1.385,0.353-2.199,1.46-3.03c1.107-0.83,5.508-3.009,6.245-3.307c0.775-0.314,1.738-0.83,4.229,0.647
	c2.493,1.476,26.14,15.819,27.181,16.414c3.217,1.838,3.652,4.438,3.748,6.327c0.093,1.888,0.023,32.23-0.154,34.355
	c-0.083,0.979-0.365,1.862-1.578,2.648c-1.38,0.895-3.724,1.955-5.231,2.756c-2.793,1.486-3.757,0.518-4.173,0.318
	C29.734,116.401,4.91,101.369,4.91,101.369"/>
<path id="Stroke-22" class="st6" d="M4.91,101.369c-2.215-1.015-4.784-4.496-4.766-7.248c0.019-2.77-0.111-32.44-0.018-33.824
	c0.092-1.385,0.353-2.199,1.46-3.03c1.107-0.83,5.508-3.009,6.245-3.307c0.775-0.314,1.738-0.83,4.229,0.647
	c2.493,1.476,26.14,15.819,27.181,16.414c3.217,1.838,3.652,4.438,3.748,6.327c0.093,1.888,0.023,32.23-0.154,34.355
	c-0.083,0.979-0.365,1.862-1.578,2.648c-1.38,0.895-3.724,1.955-5.231,2.756c-2.793,1.486-3.757,0.518-4.173,0.318
	C29.734,116.401,4.91,101.369,4.91,101.369z"/>
<path id="Stroke-35" class="st7" d="M1.955,58.342c8.969-4.76,6.643-3.484,6.643-3.484c0.588-0.277,1.422-0.095,2.461,0.418
	l-6.432,3.509C4.069,58.56,2.717,57.937,1.955,58.342z"/>
<path id="Stroke-37" class="st7" d="M35.245,114.386l6.532-3.297c0,0.154-0.007,0.302-0.021,0.442l-6.532,3.297
	C35.237,114.689,35.246,114.54,35.245,114.386"/>
<path id="Stroke-40" class="st7" d="M35.224,114.828l6.532-3.297c-0.091,0.876-0.454,1.486-0.99,1.772l-6.531,3.297
	C34.771,116.314,35.134,115.704,35.224,114.828"/>
<path id="Stroke-44" class="st7" d="M40.766,113.303c-8.97,4.761,2.437-1.463-6.531,3.297c0.623-0.331,1.011-1.1,1.01-2.214
	l6.533-3.297C41.778,112.203,41.389,112.971,40.766,113.303z"/>
<polygon id="Stroke-46" class="st7" points="4.443,58.785 11.101,55.34 38.56,72.167 32.008,75.348 "/>
<polygon id="Stroke-48" class="st7" points="35.222,81.148 41.822,77.319 41.813,110.787 35.245,114.386 "/>
<path id="Stroke-82" class="st7" d="M32.008,75.348l7.009-3.116c1.773,1.066,2.802,2.949,2.804,5.087l-6.599,3.829
	C35.221,79.01,33.783,76.413,32.008,75.348z"/>
<path id="Stroke-84" class="st7" d="M32.008,75.348c1.775,1.065,3.213,3.662,3.214,5.8l0.023,33.238
	c0.003,2.138-1.433,3.007-3.208,1.942L4.472,99.765c-1.778-1.069-3.217-3.666-3.219-5.804L1.231,60.724
	c-0.002-2.139,1.434-3.007,3.212-1.939L32.008,75.348z"/>
<path id="Fill-86" class="st8" d="M2.091,58.227c1.129-0.613,0.803-0.633,6.367-3.323c0.585-0.283,1.563-0.141,2.416,0.372
	l-6.396,3.208C3.625,57.971,2.666,57.923,2.091,58.227"/>
<path id="Fill-99" class="st9" d="M40.93,112.878c-8.969,4.761-6.661,3.421-6.661,3.421c0.592-0.383,1.013-1.1,1.011-2.214
	l6.533-3.576C41.813,111.622,41.553,112.546,40.93,112.878"/>
<path id="Fill-101" class="st10" d="M35.28,114.084l6.533-3.297c0,0.154-0.008,0.302-0.021,0.443l-6.533,3.297
	C35.273,114.387,35.282,114.238,35.28,114.084"/>
<path id="Fill-104" class="st11" d="M35.28,114.275l6.555-3.74c-0.091,0.877-0.192,1.945-0.545,2.141l-6.814,3.282
	C34.828,115.762,35.191,115.152,35.28,114.275"/>
<polygon id="Fill-108" class="st12" points="4.478,58.484 10.776,55.21 38.234,71.776 32.043,75.047 "/>
<polygon id="Fill-110" class="st11" points="35.331,80.739 41.821,77.319 41.824,111.149 35.382,114.111 "/>
<path id="Fill-112" class="st8" d="M32.043,75.047l6.19-3.271c1.774,1.065,3.585,3.405,3.588,5.543l-6.564,3.528
	C35.255,78.709,33.817,76.112,32.043,75.047"/>
<path id="Fill-146" class="st13" d="M32.043,75.047c1.774,1.065,3.212,3.662,3.214,5.8l0.022,33.238
	c0.003,2.138-1.432,3.007-3.208,1.942L4.506,99.464c-1.777-1.069-3.217-3.666-3.218-5.804L1.265,60.423
	c-0.001-2.139,1.434-3.008,3.213-1.939L32.043,75.047z"/>
<path id="Fill-179" class="st14" d="M35.239,114.158l-0.024-33.237c-0.006-1.972-1.33-4.363-2.963-5.349L4.686,59.008
	c-1.637-0.978-2.956-0.175-2.959,1.791l0.024,33.237c0.006,1.972,1.326,4.36,2.964,5.344l27.565,16.563
	C33.913,116.924,35.235,116.123,35.239,114.158z M32.252,74.963c1.915,1.151,3.466,3.952,3.468,6.261l0.024,33.238
	c0.001,2.303-1.549,3.24-3.464,2.095L4.715,99.994c-1.914-1.156-3.467-3.958-3.469-6.26L1.223,60.495
	c-0.002-2.308,1.548-3.246,3.463-2.095L32.252,74.963z"/>
<path id="Fill-181" class="st15" d="M32.259,75.612c1.634,0.987,2.957,3.377,2.963,5.349l0.024,33.237
	c-0.004,1.965-1.326,2.766-2.958,1.785L4.723,99.42c-1.639-0.983-2.959-3.372-2.965-5.343L1.736,60.839
	c0.002-1.966,1.32-2.769,2.958-1.79L32.259,75.612z"/>
<path id="Stroke-183" class="st0" d="M13.834,57.454c0,0.888-0.721,1.605-1.604,1.605c-0.886,0-1.606-0.717-1.606-1.605V1.707
	c0-0.887,0.72-1.603,1.606-1.603c0.883,0,1.604,0.716,1.604,1.603V57.454z"/>
<path id="Fill-185" class="st16" d="M13.941,57.454c0,0.888-0.717,1.605-1.603,1.605c-0.885,0-1.605-0.717-1.605-1.605V1.707
	c0-0.887,0.72-1.603,1.605-1.603c0.886,0,1.603,0.716,1.603,1.603C13.941,1.707,13.941,57.454,13.941,57.454z"/>
<path id="Stroke-187" class="st17" d="M12.666,8.24V2.551"/>
<path id="Stroke-189" class="st0" d="M33.741,68.454c0,0.887-0.718,1.605-1.603,1.605c-0.886,0-1.605-0.718-1.605-1.605V12.708
	c0-0.887,0.719-1.603,1.605-1.603c0.885,0,1.603,0.716,1.603,1.603V68.454z"/>
<path id="Fill-191" class="st16" d="M33.848,68.454c0,0.887-0.715,1.605-1.602,1.605c-0.884,0-1.605-0.718-1.605-1.605V12.708
	c0-0.887,0.721-1.603,1.605-1.603c0.887,0,1.602,0.716,1.602,1.603V68.454z"/>
<path id="Stroke-193" class="st17" d="M32.575,19.24v-5.689"/>
<polygon id="Fill-195" class="st11" points="9.033,76.823 9.768,80.265 8.706,79.652 8.561,78.861 7.857,79.162 5.997,78.088 "/>
<polygon id="Fill-197" class="st11" points="9.224,76.929 9.519,78.332 9.78,78.483 9.595,78.676 9.957,80.378 11.046,79.213 
	11.263,79.34 12.017,78.541 "/>
<path id="Fill-199" class="st11" d="M10.383,80.619l1.217-1.312c-0.061,0.394,0.077,0.873,0.339,1.323
	c0.266,0.457,0.627,0.8,0.93,0.77l-0.388,0.428L10.383,80.619z"/>
<path id="Fill-201" class="st11" d="M12.095,78.823l0.939,0.542c-0.131-0.21-0.293-0.385-0.47-0.486S12.226,78.764,12.095,78.823"/>
<path id="Fill-203" class="st11" d="M12.572,81.06c0.184,0.105,0.353,0.116,0.486,0.049l-0.974-0.563
	C12.218,80.769,12.388,80.954,12.572,81.06"/>
<path id="Fill-205" class="st11" d="M11.909,80.187l1.32,0.763c0.034-0.053,0.063-0.115,0.083-0.185l-1.488-0.86
	C11.846,80,11.875,80.095,11.909,80.187"/>
<path id="Fill-207" class="st11" d="M11.777,79.513c0,0.037,0.001,0.074,0.004,0.111l1.575,0.909
	c0.003-0.035,0.003-0.07,0.003-0.107c0-0.042-0.002-0.085-0.006-0.129l-1.571-0.906C11.778,79.43,11.777,79.471,11.777,79.513"/>
<path id="Fill-209" class="st11" d="M11.826,79.158l1.48,0.854c-0.023-0.095-0.053-0.191-0.089-0.284l-1.303-0.753
	C11.878,79.027,11.847,79.089,11.826,79.158"/>
<path id="Fill-211" class="st9" d="M14.791,81.973l-0.231-0.135l-0.091-0.052l0.377-1.056l0.006,0.003l0.399,1.505L14.791,81.973z
	 M15.896,83.717c-0.027-0.058-0.044-0.107-0.076-0.209l-0.979-3.462l-0.006-0.005l-0.914,2.447c-0.013,0.031-0.03,0.05-0.055,0.056
	l0.343,0.198c-0.009-0.022-0.025-0.051-0.024-0.081c-0.001-0.012,0.01-0.043,0.027-0.085l0.193-0.541l0.171,0.1l0.216,0.125
	l0.555,0.319l0.198,0.766c0.015,0.06,0.028,0.104,0.027,0.118c0.001,0.029-0.014,0.04-0.023,0.052L15.896,83.717z"/>
<path id="Fill-213" class="st9" d="M15.928,83.734c0.048-0.004,0.056-0.103,0.055-0.267l-0.008-2.51
	c-0.001-0.08-0.005-0.154-0.051-0.219l0.262,0.152l0.01,2.827c0.001,0.088,0.023,0.16,0.056,0.204L15.928,83.734z"/>
<path id="Fill-215" class="st9" d="M16.453,84.038c0.049-0.005,0.056-0.103,0.055-0.267l-0.009-2.511c0-0.08-0.004-0.155-0.05-0.219
	l0.263,0.152l0.01,2.828c0,0.088,0.022,0.159,0.055,0.204L16.453,84.038z"/>
<path id="Fill-217" class="st9" d="M16.979,84.341c0.049-0.004,0.056-0.103,0.055-0.268l-0.006-1.575c0-0.08-0.003-0.154-0.05-0.218
	l0.264,0.152l0.006,1.892c0.001,0.089,0.022,0.16,0.056,0.204L16.979,84.341z"/>
<path id="Fill-219" class="st9" d="M17.271,81.936c0,0.105-0.063,0.153-0.137,0.11s-0.137-0.164-0.138-0.269
	c-0.001-0.104,0.063-0.153,0.136-0.111C17.206,81.709,17.271,81.831,17.271,81.936"/>
<path id="Fill-221" class="st9" d="M27.355,90.329c0.048-0.006,0.055-0.104,0.054-0.268l-0.006-1.576
	c-0.001-0.08-0.004-0.153-0.05-0.218l0.264,0.152l0.006,1.893c0.001,0.087,0.022,0.158,0.056,0.203L27.355,90.329z"/>
<path id="Fill-223" class="st9" d="M27.646,87.923c0,0.106-0.064,0.152-0.137,0.111c-0.074-0.042-0.139-0.163-0.139-0.268
	c0-0.107,0.063-0.154,0.137-0.112C27.58,87.696,27.645,87.819,27.646,87.923"/>
<path id="Fill-225" class="st9" d="M20.554,85.871l-0.215-0.361l-0.003-0.736c-0.159-0.312-0.266-0.491-0.563-0.664
	c-0.343-0.197-0.576,0.042-0.576,0.493c0.002,0.438,0.282,0.962,0.605,1.148c0.275,0.159,0.425,0.01,0.537-0.009v-0.356l0.214,0.34
	c0.001,0.102,0.001,0.249,0.035,0.307c-0.064-0.02-0.122-0.004-0.178,0.016c-0.216,0.042-0.339,0.143-0.609-0.012
	c-0.466-0.269-0.822-0.963-0.824-1.59c-0.002-0.637,0.39-0.856,0.837-0.598c0.215,0.123,0.392,0.29,0.51,0.601l0.011-0.002
	l-0.004-1.028c0-0.046-0.011-0.104-0.054-0.171l0.268,0.155L20.554,85.871z"/>
<path id="Fill-227" class="st9" d="M22.233,87.226c0,0.059,0.016,0.118,0.037,0.168l-0.306-0.177
	c0.021-0.025,0.037-0.067,0.037-0.126l-0.009-2.566l-0.346-0.199c-0.064-0.038-0.104-0.043-0.141,0.003l-0.001-0.372l1.206,0.697
	l0.001,0.37c-0.038-0.089-0.078-0.129-0.141-0.165l-0.346-0.199L22.233,87.226z"/>
<path id="Fill-229" class="st9" d="M24.141,88.484c0.049-0.004,0.055-0.104,0.055-0.267l-0.009-2.511c0-0.08-0.005-0.153-0.05-0.217
	L24.4,85.64l0.01,2.827c0,0.088,0.022,0.159,0.056,0.204L24.141,88.484z"/>
<path id="Fill-231" class="st9" d="M26.994,88.426c-0.073-0.126-0.172-0.245-0.272-0.304c-0.132-0.075-0.242-0.075-0.241,0.126
	c0.002,0.472,0.659,0.615,0.661,1.391c0.001,0.367-0.21,0.514-0.471,0.363c-0.114-0.066-0.197-0.135-0.257-0.191
	c-0.063-0.052-0.106-0.102-0.139-0.121c-0.018-0.011-0.046-0.002-0.058,0.016l-0.002-0.001l-0.002-0.506
	c0.1,0.21,0.242,0.392,0.391,0.478c0.16,0.093,0.319,0.121,0.318-0.131c-0.001-0.591-0.658-0.687-0.661-1.425
	c-0.001-0.341,0.184-0.445,0.429-0.302c0.085,0.048,0.183,0.148,0.236,0.177c0.021,0.012,0.052,0.022,0.067,0.004L26.994,88.426z"/>
<path id="Fill-233" class="st9" d="M28.682,89.401c-0.073-0.127-0.171-0.246-0.272-0.304c-0.131-0.075-0.242-0.076-0.241,0.125
	c0.002,0.472,0.659,0.616,0.661,1.391c0.001,0.367-0.209,0.514-0.472,0.363c-0.113-0.066-0.196-0.134-0.257-0.19
	c-0.062-0.053-0.105-0.104-0.137-0.122c-0.019-0.012-0.047-0.001-0.058,0.017l-0.003-0.002l-0.002-0.505
	c0.101,0.21,0.243,0.391,0.392,0.478c0.16,0.092,0.319,0.12,0.318-0.132c-0.003-0.59-0.659-0.688-0.662-1.425
	c-0.001-0.341,0.185-0.444,0.429-0.303c0.086,0.05,0.184,0.149,0.236,0.178c0.021,0.012,0.051,0.022,0.068,0.005
	C28.682,88.975,28.682,89.401,28.682,89.401z"/>
<path id="Fill-235" class="st9" d="M17.88,83.212c-0.24,0.14-0.297,0.476-0.184,0.917l0.942-0.546
	C18.398,83.209,18.112,83.076,17.88,83.212 M18.967,83.764l-1.138,0.663c0.24,0.433,0.572,0.61,0.828,0.461
	c0.071-0.041,0.136-0.087,0.186-0.156l0.001,0.419c-0.018,0.012-0.035,0.023-0.053,0.033c-0.351,0.206-0.868-0.079-1.172-0.751
	c-0.305-0.678-0.238-1.307,0.124-1.516c0.38-0.222,0.898,0.205,1.14,0.737C18.908,83.711,18.94,83.736,18.967,83.764"/>
<path id="Fill-237" class="st9" d="M22.905,86.112c-0.24,0.14-0.299,0.476-0.184,0.917l0.941-0.547
	C23.423,86.109,23.137,85.977,22.905,86.112 M23.993,86.665l-1.139,0.661c0.239,0.434,0.572,0.611,0.827,0.462
	c0.071-0.042,0.136-0.088,0.186-0.155l0.002,0.419c-0.018,0.013-0.034,0.022-0.052,0.032c-0.353,0.205-0.868-0.08-1.172-0.75
	c-0.307-0.678-0.239-1.307,0.122-1.517c0.381-0.221,0.899,0.206,1.141,0.738C23.933,86.612,23.966,86.636,23.993,86.665"/>
<path id="Fill-239" class="st9" d="M25.074,87.364c-0.24,0.141-0.297,0.476-0.183,0.917l0.94-0.547
	C25.591,87.361,25.307,87.229,25.074,87.364 M26.162,87.917l-1.14,0.662c0.241,0.432,0.573,0.61,0.829,0.461
	c0.071-0.042,0.136-0.087,0.186-0.155l0.001,0.419c-0.018,0.011-0.035,0.021-0.052,0.032c-0.352,0.205-0.868-0.079-1.172-0.751
	c-0.307-0.677-0.238-1.306,0.123-1.516c0.38-0.221,0.899,0.206,1.14,0.738C26.102,87.864,26.135,87.888,26.162,87.917"/>
<polygon id="Fill-241" class="st11" points="28.731,88.196 28.665,88.157 28.665,88.125 28.825,88.217 28.826,88.251 28.759,88.212 
	28.76,88.479 28.732,88.463 "/>
<path id="Fill-243" class="st11" d="M29.032,88.505c-0.001-0.042-0.003-0.094-0.002-0.131h-0.001
	c-0.009,0.03-0.018,0.063-0.028,0.097l-0.038,0.123l-0.022-0.011l-0.035-0.163c-0.01-0.049-0.019-0.093-0.025-0.132
	c-0.001,0.036-0.002,0.086-0.004,0.13l-0.006,0.125l-0.026-0.015l0.013-0.292l0.036,0.022l0.037,0.165
	c0.01,0.043,0.017,0.081,0.023,0.114l0.001,0.001c0.006-0.028,0.014-0.056,0.022-0.088l0.038-0.122l0.037,0.021l0.014,0.306
	L29.04,88.64L29.032,88.505z"/>
</svg>
