<?xml version="1.0" encoding="utf-8"?>
<svg version="1.1" id="Layer_1" xmlns="http://www.w3.org/2000/svg" xmlns:xlink="http://www.w3.org/1999/xlink" x="0px" y="0px"
	 viewBox="0 0 43.37 79.605" style="enable-background:new 0 0 43.37 79.605;" xml:space="preserve">
<style type="text/css">
	.st0{fill:none;stroke:#626366;stroke-width:3;stroke-linecap:round;stroke-linejoin:round;}
	.st1{fill:#898B8E;}
	.st2{fill:#BBBDBF;}
	.st3{fill:#B3B5B7;}
	.st4{fill:none;stroke:#DFE0DF;stroke-width:0.75;stroke-linecap:round;stroke-linejoin:round;}
	.st5{fill:#FEFEFE;}
	.st6{fill:#231F20;}
	.st7{fill:#626366;}
</style>
<title>icon-keypad</title>
<desc>Created with Sketch.</desc>
<g id="Page-1">
	<g id="Desktop" transform="translate(-329.000000, -206.000000)">
		<g id="icon-keypad" transform="translate(330.000000, 206.000000)">
			<g id="Group-7" transform="translate(0.000000, 0.604000)">
				<polygon id="Stroke-1" class="st0" points="37.188,24.876 40.833,22.941 40.87,75.565 37.225,77.501 				"/>
				<polygon id="Stroke-3" class="st0" points="0.5,2.831 4.145,0.896 40.833,22.941 37.188,24.876 				"/>
				<polygon id="Stroke-5" class="st0" points="37.188,24.876 37.225,77.501 0.537,55.456 0.5,2.831 				"/>
			</g>
			<polygon id="Fill-8" class="st1" points="37.188,25.48 40.833,23.545 40.87,76.169 37.225,78.105 			"/>
			<polygon id="Fill-9" class="st2" points="0.5,3.435 4.145,1.5 40.833,23.545 37.188,25.48 			"/>
			<polygon id="Fill-10" class="st3" points="37.188,25.48 37.225,78.105 0.537,56.06 0.5,3.435 			"/>
			<polyline id="Stroke-11" class="st4" points="0.766,3.583 37.37,25.577 37.37,77.816 			"/>
			<polygon id="Fill-12" class="st5" points="20.591,56.813 13.75,52.687 13.737,45.573 20.575,49.705 			"/>
			<polygon id="Fill-13" class="st6" points="14.883,45.015 21.726,49.143 20.593,49.696 13.751,45.568 			"/>
			<polygon id="Fill-14" class="st7" points="20.612,56.803 20.596,49.695 21.725,49.143 21.741,56.251 			"/>
			<polygon id="Fill-15" class="st5" points="29.832,62.369 22.984,58.245 22.975,51.129 29.812,55.252 			"/>
			<polygon id="Fill-16" class="st6" points="24.117,50.573 30.962,54.696 29.833,55.25 22.991,51.124 			"/>
			<polygon id="Fill-17" class="st7" points="29.854,62.356 29.837,55.246 30.962,54.696 30.979,61.807 			"/>
			<polygon id="Fill-18" class="st5" points="11.475,51.328 4.63,47.204 4.618,40.09 11.462,44.216 			"/>
			<polygon id="Fill-19" class="st6" points="5.767,39.534 12.609,43.66 11.476,44.213 4.638,40.085 			"/>
			<polygon id="Fill-20" class="st7" points="11.495,51.317 11.479,44.209 12.608,43.66 12.625,50.764 			"/>
			<polygon id="Fill-21" class="st5" points="20.597,47.467 13.755,43.348 13.743,36.231 20.583,40.355 			"/>
			<polygon id="Fill-22" class="st6" points="14.892,35.676 21.734,39.791 20.602,40.344 13.766,36.225 			"/>
			<polygon id="Fill-23" class="st7" points="20.625,47.454 20.608,40.344 21.733,39.792 21.75,46.904 			"/>
			<polygon id="Fill-24" class="st5" points="29.841,53.025 22.991,48.896 22.979,41.785 29.82,45.911 			"/>
			<polygon id="Fill-25" class="st6" points="24.125,41.226 30.968,45.353 29.841,45.902 22.997,41.778 			"/>
			<polygon id="Fill-26" class="st7" points="29.859,53.015 29.842,45.902 30.967,45.353 30.99,52.464 			"/>
			<polygon id="Fill-27" class="st5" points="11.479,41.986 4.64,37.86 4.625,30.743 11.467,34.872 			"/>
			<polygon id="Fill-28" class="st6" points="5.769,30.184 12.616,34.312 11.488,34.861 4.64,30.737 			"/>
			<polygon id="Fill-29" class="st7" points="11.508,41.97 11.487,34.861 12.615,34.312 12.634,41.42 			"/>
			<polygon id="Fill-30" class="st5" points="20.582,38.187 13.737,34.061 13.725,26.949 20.563,31.077 			"/>
			<polygon id="Fill-31" class="st6" points="14.87,26.391 21.713,30.517 20.583,31.069 13.747,26.939 			"/>
			<polygon id="Fill-32" class="st7" points="20.604,38.175 20.586,31.067 21.712,30.517 21.732,37.626 			"/>
			<polygon id="Fill-33" class="st5" points="29.813,43.74 22.975,39.619 22.959,32.505 29.802,36.63 			"/>
			<polygon id="Fill-34" class="st6" points="24.111,31.947 30.953,36.066 29.821,36.62 22.984,32.497 			"/>
			<polygon id="Fill-35" class="st7" points="29.841,43.728 29.824,36.62 30.953,36.066 30.964,43.178 			"/>
			<polygon id="Fill-36" class="st5" points="11.462,32.7 4.62,28.578 4.608,21.466 11.445,25.589 			"/>
			<polygon id="Fill-37" class="st6" points="5.751,20.905 12.6,25.03 11.466,25.583 4.625,21.455 			"/>
			<polygon id="Fill-38" class="st7" points="11.487,32.687 11.467,25.581 12.599,25.03 12.615,32.138 			"/>
		</g>
	</g>
</g>
</svg>
