<?xml version="1.0" encoding="UTF-8"?>
<svg width="105px" height="107px" viewBox="0 0 105 107" version="1.1" xmlns="http://www.w3.org/2000/svg" xmlns:xlink="http://www.w3.org/1999/xlink">
    <title>icon-PC-wireless</title>
    <desc>Created with Sketch.</desc>
    <defs>
        <path d="M1.169,9.439 C0.845,9.611 0.644,10.01 0.644,10.59 L17.517,1.633 C17.516,1.056 17.716,0.655 18.039,0.484 C12.416,3.469 6.791,6.454 1.169,9.439" id="path-1"></path>
        <path d="M1.169,9.439 C0.845,9.611 0.644,10.01 0.644,10.59 L17.517,1.633 C17.516,1.056 17.716,0.655 18.039,0.484 C12.416,3.469 6.791,6.454 1.169,9.439" id="path-3"></path>
        <path d="M0.612,9.826 C1.054,10.089 1.452,10.123 1.751,9.965 C7.374,6.981 12.997,3.995 18.622,1.01 C18.326,1.168 17.924,1.133 17.483,0.87" id="path-5"></path>
        <path d="M0.612,9.826 C1.054,10.089 1.452,10.123 1.751,9.965 C7.374,6.981 12.997,3.995 18.622,1.01 C18.326,1.168 17.924,1.133 17.483,0.87" id="path-7"></path>
        <path d="M0.612,9.826 C1.054,10.089 1.452,10.123 1.751,9.965 C7.374,6.981 12.997,3.995 18.622,1.01 C18.326,1.168 17.924,1.133 17.483,0.87" id="path-9"></path>
        <path d="M17.039,0.484 C11.416,3.469 5.791,6.454 0.169,9.439 C0.466,9.282 0.866,9.317 1.308,9.581 L18.181,0.626 C17.913,0.465 17.66,0.389 17.436,0.389 C17.29,0.389 17.157,0.422 17.039,0.484" id="path-11"></path>
        <path d="M17.039,0.484 C11.416,3.469 5.791,6.454 0.169,9.439 C0.466,9.282 0.866,9.317 1.308,9.581 L18.181,0.626 C17.913,0.465 17.66,0.389 17.436,0.389 C17.29,0.389 17.157,0.422 17.039,0.484" id="path-13"></path>
        <path d="M17.039,0.484 C11.416,3.469 5.791,6.454 0.169,9.439 C0.466,9.282 0.866,9.317 1.308,9.581 L18.181,0.626 C17.913,0.465 17.66,0.389 17.436,0.389 C17.29,0.389 17.157,0.422 17.039,0.484" id="path-15"></path>
        <path d="M17.56,0.585 C11.937,3.57 6.314,6.556 0.689,9.541 C1.113,9.318 1.681,9.367 2.308,9.743 L19.179,0.787 C18.799,0.559 18.441,0.451 18.123,0.451 C17.916,0.451 17.726,0.497 17.56,0.585" id="path-17"></path>
        <path d="M17.56,0.585 C11.937,3.57 6.314,6.556 0.689,9.541 C1.113,9.318 1.681,9.367 2.308,9.743 L19.179,0.787 C18.799,0.559 18.441,0.451 18.123,0.451 C17.916,0.451 17.726,0.497 17.56,0.585" id="path-19"></path>
        <path d="M17.56,0.585 C11.937,3.57 6.314,6.556 0.689,9.541 C1.113,9.318 1.681,9.367 2.308,9.743 L19.179,0.787 C18.799,0.559 18.441,0.451 18.123,0.451 C17.916,0.451 17.726,0.497 17.56,0.585" id="path-21"></path>
        <path d="M1.277,9.818 C1.277,10.394 1.074,10.793 0.751,10.965 C6.374,7.981 11.997,4.995 17.622,2.01 C17.946,1.837 18.146,1.439 18.146,0.863" id="path-23"></path>
        <path d="M0.975,9.238 C0.972,10.056 0.687,10.62 0.228,10.865 L17.1,1.909 C17.559,1.667 17.846,1.1 17.846,0.283" id="path-25"></path>
        <path d="M0.975,9.238 C0.972,10.056 0.687,10.62 0.228,10.865 L17.1,1.909 C17.559,1.667 17.846,1.1 17.846,0.283" id="path-27"></path>
        <path d="M0.594,8.969 C1.516,9.521 2.26,10.866 2.26,11.976 L19.134,3.02 C19.13,1.911 18.385,0.566 17.465,0.012" id="path-29"></path>
        <path d="M0.594,8.969 C1.516,9.521 2.26,10.866 2.26,11.976 L19.134,3.02 C19.13,1.911 18.385,0.566 17.465,0.012" id="path-31"></path>
        <path d="M0.594,8.969 C1.516,9.521 2.26,10.866 2.26,11.976 L19.134,3.02 C19.13,1.911 18.385,0.566 17.465,0.012" id="path-33"></path>
        <path d="M0.594,8.969 C1.516,9.521 2.26,10.866 2.26,11.976 L19.134,3.02 C19.13,1.911 18.385,0.566 17.465,0.012" id="path-35"></path>
        <path d="M0.594,8.969 C1.516,9.521 2.26,10.866 2.26,11.976 L19.134,3.02 C19.13,1.911 18.385,0.566 17.465,0.012" id="path-37"></path>
        <path d="M0.594,8.969 C1.516,9.521 2.26,10.866 2.26,11.976 L19.134,3.02 C19.13,1.911 18.385,0.566 17.465,0.012" id="path-39"></path>
        <path d="M0.594,8.969 C1.516,9.521 2.26,10.866 2.26,11.976 L19.134,3.02 C19.13,1.911 18.385,0.566 17.465,0.012" id="path-41"></path>
        <path d="M0.594,8.969 C1.516,9.521 2.26,10.866 2.26,11.976 L19.134,3.02 C19.13,1.911 18.385,0.566 17.465,0.012" id="path-43"></path>
        <path d="M0.594,8.969 C1.516,9.521 2.26,10.866 2.26,11.976 L19.134,3.02 C19.13,1.911 18.385,0.566 17.465,0.012" id="path-45"></path>
        <path d="M0.594,8.969 C1.516,9.521 2.26,10.866 2.26,11.976 L19.134,3.02 C19.13,1.911 18.385,0.566 17.465,0.012" id="path-47"></path>
        <path d="M0.592,9.129 C1.9,9.913 2.955,11.818 2.959,13.396 L19.831,4.442 C19.826,2.865 18.771,0.958 17.465,0.173" id="path-49"></path>
        <path d="M0.592,9.129 C1.9,9.913 2.955,11.818 2.959,13.396 L19.831,4.442 C19.826,2.865 18.771,0.958 17.465,0.173" id="path-51"></path>
        <path d="M0.592,9.129 C1.9,9.913 2.955,11.818 2.959,13.396 L19.831,4.442 C19.826,2.865 18.771,0.958 17.465,0.173" id="path-53"></path>
        <path d="M0.592,9.129 C1.9,9.913 2.955,11.818 2.959,13.396 L19.831,4.442 C19.826,2.865 18.771,0.958 17.465,0.173" id="path-55"></path>
        <path d="M0.592,9.129 C1.9,9.913 2.955,11.818 2.959,13.396 L19.831,4.442 C19.826,2.865 18.771,0.958 17.465,0.173" id="path-57"></path>
        <path d="M0.592,9.129 C1.9,9.913 2.955,11.818 2.959,13.396 L19.831,4.442 C19.826,2.865 18.771,0.958 17.465,0.173" id="path-59"></path>
        <path d="M0.592,9.129 C1.9,9.913 2.955,11.818 2.959,13.396 L19.831,4.442 C19.826,2.865 18.771,0.958 17.465,0.173" id="path-61"></path>
        <path d="M0.592,9.129 C1.9,9.913 2.955,11.818 2.959,13.396 L19.831,4.442 C19.826,2.865 18.771,0.958 17.465,0.173" id="path-63"></path>
        <path d="M0.592,9.129 C1.9,9.913 2.955,11.818 2.959,13.396 L19.831,4.442 C19.826,2.865 18.771,0.958 17.465,0.173" id="path-65"></path>
        <path d="M0.592,9.129 C1.9,9.913 2.955,11.818 2.959,13.396 L19.831,4.442 C19.826,2.865 18.771,0.958 17.465,0.173" id="path-67"></path>
        <path d="M0.38,9.451 C0.38,10.558 1.125,11.902 2.046,12.459 L18.918,3.505 C17.996,2.948 17.252,1.603 17.249,0.496" id="path-69"></path>
        <path d="M0.38,9.451 C0.38,10.558 1.125,11.902 2.046,12.459 L18.918,3.505 C17.996,2.948 17.252,1.603 17.249,0.496" id="path-71"></path>
        <path d="M0.38,9.451 C0.38,10.558 1.125,11.902 2.046,12.459 L18.918,3.505 C17.996,2.948 17.252,1.603 17.249,0.496" id="path-73"></path>
        <path d="M0.38,9.451 C0.38,10.558 1.125,11.902 2.046,12.459 L18.918,3.505 C17.996,2.948 17.252,1.603 17.249,0.496" id="path-75"></path>
        <path d="M0.38,9.451 C0.38,10.558 1.125,11.902 2.046,12.459 L18.918,3.505 C17.996,2.948 17.252,1.603 17.249,0.496" id="path-77"></path>
        <path d="M0.38,9.451 C0.38,10.558 1.125,11.902 2.046,12.459 L18.918,3.505 C17.996,2.948 17.252,1.603 17.249,0.496" id="path-79"></path>
        <path d="M0.38,9.451 C0.38,10.558 1.125,11.902 2.046,12.459 L18.918,3.505 C17.996,2.948 17.252,1.603 17.249,0.496" id="path-81"></path>
        <path d="M0.38,9.451 C0.38,10.558 1.125,11.902 2.046,12.459 L18.918,3.505 C17.996,2.948 17.252,1.603 17.249,0.496" id="path-83"></path>
        <path d="M0.38,9.451 C0.38,10.558 1.125,11.902 2.046,12.459 L18.918,3.505 C17.996,2.948 17.252,1.603 17.249,0.496" id="path-85"></path>
        <path d="M0.38,9.451 C0.38,10.558 1.125,11.902 2.046,12.459 L18.918,3.505 C17.996,2.948 17.252,1.603 17.249,0.496" id="path-87"></path>
        <path d="M0.888,9.46 C0.565,9.632 0.363,10.031 0.363,10.609 L17.237,1.654 C17.235,1.076 17.436,0.676 17.76,0.505 C12.136,3.49 6.511,6.475 0.888,9.46" id="path-89"></path>
        <path d="M0.888,9.46 C0.565,9.632 0.363,10.031 0.363,10.609 L17.237,1.654 C17.235,1.076 17.436,0.676 17.76,0.505 C12.136,3.49 6.511,6.475 0.888,9.46" id="path-91"></path>
        <path d="M0.332,9.846 C0.773,10.11 1.172,10.143 1.471,9.985 C7.094,7.001 12.718,4.015 18.342,1.031 C18.046,1.188 17.644,1.153 17.202,0.89" id="path-93"></path>
        <path d="M0.332,9.846 C0.773,10.11 1.172,10.143 1.471,9.985 C7.094,7.001 12.718,4.015 18.342,1.031 C18.046,1.188 17.644,1.153 17.202,0.89" id="path-95"></path>
        <path d="M0.332,9.846 C0.773,10.11 1.172,10.143 1.471,9.985 C7.094,7.001 12.718,4.015 18.342,1.031 C18.046,1.188 17.644,1.153 17.202,0.89" id="path-97"></path>
        <path d="M17.76,0.505 C12.136,3.49 6.511,6.475 0.888,9.46 C1.186,9.303 1.587,9.337 2.027,9.601 L18.9,0.645 C18.633,0.486 18.381,0.409 18.157,0.409 C18.011,0.409 17.877,0.442 17.76,0.505" id="path-99"></path>
        <path d="M17.76,0.505 C12.136,3.49 6.511,6.475 0.888,9.46 C1.186,9.303 1.587,9.337 2.027,9.601 L18.9,0.645 C18.633,0.486 18.381,0.409 18.157,0.409 C18.011,0.409 17.877,0.442 17.76,0.505" id="path-101"></path>
        <path d="M17.76,0.505 C12.136,3.49 6.511,6.475 0.888,9.46 C1.186,9.303 1.587,9.337 2.027,9.601 L18.9,0.645 C18.633,0.486 18.381,0.409 18.157,0.409 C18.011,0.409 17.877,0.442 17.76,0.505" id="path-103"></path>
        <path d="M17.28,0.606 C11.657,3.59 6.033,6.577 0.408,9.561 C0.832,9.338 1.401,9.387 2.027,9.763 L18.899,0.808 C18.519,0.58 18.16,0.471 17.843,0.471 C17.636,0.471 17.447,0.517 17.28,0.606" id="path-105"></path>
        <path d="M17.28,0.606 C11.657,3.59 6.033,6.577 0.408,9.561 C0.832,9.338 1.401,9.387 2.027,9.763 L18.899,0.808 C18.519,0.58 18.16,0.471 17.843,0.471 C17.636,0.471 17.447,0.517 17.28,0.606" id="path-107"></path>
        <path d="M17.28,0.606 C11.657,3.59 6.033,6.577 0.408,9.561 C0.832,9.338 1.401,9.387 2.027,9.763 L18.899,0.808 C18.519,0.58 18.16,0.471 17.843,0.471 C17.636,0.471 17.447,0.517 17.28,0.606" id="path-109"></path>
        <path d="M0.997,9.838 C0.997,10.414 0.793,10.814 0.471,10.985 C6.094,8.001 11.718,5.015 17.342,2.031 C17.666,1.858 17.866,1.46 17.866,0.884" id="path-111"></path>
        <path d="M1.695,9.258 C1.692,10.077 1.407,10.641 0.948,10.886 L17.819,1.93 C18.278,1.687 18.565,1.121 18.565,0.304" id="path-113"></path>
        <path d="M1.695,9.258 C1.692,10.077 1.407,10.641 0.948,10.886 L17.819,1.93 C18.278,1.687 18.565,1.121 18.565,0.304" id="path-115"></path>
        <path d="M0.313,8.988 C1.236,9.541 1.98,10.886 1.98,11.997 L18.853,3.041 C18.85,1.931 18.105,0.586 17.185,0.032" id="path-117"></path>
        <path d="M0.313,8.988 C1.236,9.541 1.98,10.886 1.98,11.997 L18.853,3.041 C18.85,1.931 18.105,0.586 17.185,0.032" id="path-119"></path>
        <path d="M0.313,8.988 C1.236,9.541 1.98,10.886 1.98,11.997 L18.853,3.041 C18.85,1.931 18.105,0.586 17.185,0.032" id="path-121"></path>
        <path d="M0.313,8.988 C1.236,9.541 1.98,10.886 1.98,11.997 L18.853,3.041 C18.85,1.931 18.105,0.586 17.185,0.032" id="path-123"></path>
        <path d="M0.313,8.988 C1.236,9.541 1.98,10.886 1.98,11.997 L18.853,3.041 C18.85,1.931 18.105,0.586 17.185,0.032" id="path-125"></path>
        <path d="M0.313,8.988 C1.236,9.541 1.98,10.886 1.98,11.997 L18.853,3.041 C18.85,1.931 18.105,0.586 17.185,0.032" id="path-127"></path>
        <path d="M0.313,8.988 C1.236,9.541 1.98,10.886 1.98,11.997 L18.853,3.041 C18.85,1.931 18.105,0.586 17.185,0.032" id="path-129"></path>
        <path d="M0.313,8.988 C1.236,9.541 1.98,10.886 1.98,11.997 L18.853,3.041 C18.85,1.931 18.105,0.586 17.185,0.032" id="path-131"></path>
        <path d="M0.313,8.988 C1.236,9.541 1.98,10.886 1.98,11.997 L18.853,3.041 C18.85,1.931 18.105,0.586 17.185,0.032" id="path-133"></path>
        <path d="M0.313,8.988 C1.236,9.541 1.98,10.886 1.98,11.997 L18.853,3.041 C18.85,1.931 18.105,0.586 17.185,0.032" id="path-135"></path>
        <path d="M0.312,9.15 C1.62,9.933 2.675,11.839 2.678,13.416 L19.551,4.461 C19.545,2.885 18.491,0.977 17.185,0.194" id="path-137"></path>
        <path d="M0.312,9.15 C1.62,9.933 2.675,11.839 2.678,13.416 L19.551,4.461 C19.545,2.885 18.491,0.977 17.185,0.194" id="path-139"></path>
        <path d="M0.312,9.15 C1.62,9.933 2.675,11.839 2.678,13.416 L19.551,4.461 C19.545,2.885 18.491,0.977 17.185,0.194" id="path-141"></path>
        <path d="M0.312,9.15 C1.62,9.933 2.675,11.839 2.678,13.416 L19.551,4.461 C19.545,2.885 18.491,0.977 17.185,0.194" id="path-143"></path>
        <path d="M0.312,9.15 C1.62,9.933 2.675,11.839 2.678,13.416 L19.551,4.461 C19.545,2.885 18.491,0.977 17.185,0.194" id="path-145"></path>
        <path d="M0.312,9.15 C1.62,9.933 2.675,11.839 2.678,13.416 L19.551,4.461 C19.545,2.885 18.491,0.977 17.185,0.194" id="path-147"></path>
        <path d="M0.312,9.15 C1.62,9.933 2.675,11.839 2.678,13.416 L19.551,4.461 C19.545,2.885 18.491,0.977 17.185,0.194" id="path-149"></path>
        <path d="M0.312,9.15 C1.62,9.933 2.675,11.839 2.678,13.416 L19.551,4.461 C19.545,2.885 18.491,0.977 17.185,0.194" id="path-151"></path>
        <path d="M0.312,9.15 C1.62,9.933 2.675,11.839 2.678,13.416 L19.551,4.461 C19.545,2.885 18.491,0.977 17.185,0.194" id="path-153"></path>
        <path d="M0.312,9.15 C1.62,9.933 2.675,11.839 2.678,13.416 L19.551,4.461 C19.545,2.885 18.491,0.977 17.185,0.194" id="path-155"></path>
    </defs>
    <g id="Page-1" stroke="none" stroke-width="1" fill="none" fill-rule="evenodd">
        <g id="Desktop" transform="translate(-1423.000000, -66.000000)">
            <g id="icon-PC-wireless" transform="translate(1424.000000, 66.000000)">
                <polygon id="Stroke-1" stroke="#626366" stroke-width="3" stroke-linejoin="round" points="49.3482 82.5456 61.0572 76.3306 61.0602 79.6276 49.3502 85.8446"></polygon>
                <polygon id="Stroke-2" stroke="#626366" stroke-width="3" stroke-linejoin="round" points="19.4488 64.5808 31.1578 58.3658 61.0568 76.3308 49.3478 82.5458"></polygon>
                <polygon id="Stroke-3" stroke="#626366" stroke-width="3" stroke-linejoin="round" points="49.3482 82.5456 49.3502 85.8446 19.4512 67.8776 19.4492 64.5806"></polygon>
                <polygon id="Fill-4" fill="#898B8E" fill-rule="evenodd" points="49.3482 82.5456 61.0572 76.3306 61.0602 79.6276 49.3502 85.8446"></polygon>
                <polygon id="Fill-5" fill="#BBBDBF" fill-rule="evenodd" points="19.4488 64.5808 31.1578 58.3658 61.0568 76.3308 49.3478 82.5458"></polygon>
                <polygon id="Fill-6" fill="#B3B5B7" fill-rule="evenodd" points="49.3482 82.5456 49.3502 85.8446 19.4512 67.8776 19.4492 64.5806"></polygon>
                <polyline id="Stroke-7" stroke="#E1E2E3" stroke-width="1" stroke-linecap="round" stroke-linejoin="round" points="19.6909 64.614 49.1009 82.284 49.1009 85.489"></polyline>
                <polygon id="Stroke-8" stroke="#626366" stroke-width="2.668" stroke-linecap="round" stroke-linejoin="round" points="68.0445 36.8313 73.2305 34.0783 73.2665 84.8563 68.0795 87.6103"></polygon>
                <g id="Group-13" stroke-width="1" fill-rule="evenodd" transform="translate(13.000000, 0.663000)" stroke="#626366" stroke-linecap="round" stroke-linejoin="round">
                    <polygon id="Stroke-9" stroke-width="2.668" points="0.5493 3.4251 5.7363 0.6711 60.2303 33.4151 55.0443 36.1681"></polygon>
                    <polygon id="Stroke-11" stroke-width="2.668" points="55.0445 36.1683 55.0795 86.9473 0.5855 54.2033 0.5495 3.4253"></polygon>
                </g>
                <polygon id="Fill-14" fill="#898B8E" fill-rule="evenodd" points="68.0425 36.8313 73.2295 34.0783 73.2655 84.8563 68.0795 87.6103"></polygon>
                <polygon id="Fill-15" fill="#BBBDBF" fill-rule="evenodd" points="13.5493 4.0881 18.7353 1.3341 73.2303 34.0781 68.0423 36.8311"></polygon>
                <polygon id="Fill-16" fill="#B3B5B7" fill-rule="evenodd" points="68.0425 36.8313 68.0795 87.6103 13.5845 54.8663 13.5495 4.0883"></polygon>
                <polygon id="Fill-17" fill="#FEFEFE" fill-rule="evenodd" points="65.1909 81.9031 15.5259 51.6981 15.5259 8.7831 65.1909 38.9851"></polygon>
                <g id="Group-344" stroke-width="1" fill-rule="evenodd" transform="translate(0.000000, 3.663000)">
                    <path d="M46.7642,26.9183 L63.2472,36.8203 L63.3392,46.0363 C63.3392,46.0363 63.0462,39.4283 58.1462,35.2863 C51.8902,30.0003 46.7642,26.9183 46.7642,26.9183" id="Fill-18" fill="#C4CACE"></path>
                    <path d="M14.1841,52.2518 L68.0741,84.6308" id="Stroke-20" stroke="#636466" stroke-width="1.156"></path>
                    <polyline id="Stroke-22" stroke="#E1E2E3" stroke-width="0.889" stroke-linecap="round" stroke-linejoin="round" points="14.0083 0.595 68.0233 33.05 68.0603 83.515"></polyline>
                    <path d="M73.9058,64.4432 L73.9058,77.7852" id="Stroke-24" stroke="#636466" stroke-width="1.29"></path>
                    <path d="M48.5562,90.4998 C48.5562,90.4998 49.9312,89.7658 51.0562,89.7338 C52.1812,89.7028 53.5722,90.3748 53.5722,90.3748 C53.5722,90.3748 54.9472,91.1088 55.6182,91.8118 C56.2902,92.5158 56.3372,92.7968 56.3842,93.0468 C56.4312,93.2968 56.4152,93.8748 56.3372,93.9998 C56.2592,94.1248 48.5872,98.0938 48.5872,98.0938 C48.5872,98.0938 48.1342,98.2968 47.4002,98.1868 C46.6652,98.0778 45.4002,97.1868 44.9932,96.6088 C44.5872,96.0308 44.6182,95.1408 44.6182,95.1408 C44.6182,95.1408 44.6342,94.0938 46.0092,92.5308 C46.9152,91.4368 48.5562,90.4998 48.5562,90.4998 Z" id="Stroke-26" stroke="#626366" stroke-width="3" stroke-linecap="round" stroke-linejoin="round"></path>
                    <path d="M48.5562,90.4998 C48.5562,90.4998 49.9312,89.7658 51.0562,89.7338 C52.1812,89.7028 53.5722,90.3748 53.5722,90.3748 C53.5722,90.3748 54.9492,91.1088 55.6182,91.8118 C56.2902,92.5158 56.3372,92.7968 56.3842,93.0468 C56.4312,93.2968 56.4152,93.8748 56.3372,93.9998 C56.2592,94.1248 48.5872,98.0938 48.5872,98.0938 C48.5872,98.0938 48.1342,98.2968 47.4002,98.1868 C46.6652,98.0778 45.4002,97.1868 44.9932,96.6088 C44.5872,96.0308 44.6182,95.1408 44.6182,95.1408 C44.6182,95.1408 44.6342,94.0938 46.0092,92.5308 C46.9152,91.4368 48.5562,90.4998 48.5562,90.4998" id="Fill-28" fill="#BBBDBF"></path>
                    <path d="M48.7574,97.7889 C48.7694,97.6989 49.6464,95.2379 52.5254,93.6819 C55.4094,92.1639 56.0734,93.8029 56.0154,93.4589 L56.0094,94.0059 C53.9314,95.1149 50.8944,96.7339 48.8184,97.8419" id="Fill-30" fill="#898B8E"></path>
                    <path d="M46.4624,96.2264 C46.6494,95.4764 47.7284,93.8354 48.4544,93.0854 C49.1814,92.3354 49.8144,91.8434 50.9154,91.2814 C52.0174,90.7184 53.3534,90.2964 54.0094,90.6244 C54.6654,90.9534 55.5794,91.7734 55.9544,92.2654 C56.3294,92.7574 56.2354,93.2734 56.2354,93.2734 C56.2354,93.2734 54.8534,92.8044 54.0324,93.0854 C53.2124,93.3674 51.8994,94.0234 51.0564,94.8434 C50.2124,95.6644 49.8844,96.7424 49.2984,97.4214 C48.7124,98.1014 47.5874,98.1954 47.5874,98.1954 C47.5874,98.1954 46.4394,97.9604 46.3214,97.7494 C46.2044,97.5384 46.2754,96.9764 46.4624,96.2264" id="Fill-32" fill="#B3B5B7"></path>
                    <path d="M48.3687,93.5838 L47.8647,93.2808 C46.9467,94.2768 46.4197,95.2558 46.1657,95.8048 L46.6717,96.1068 C46.9237,95.5588 47.4527,94.5778 48.3687,93.5838" id="Fill-34" fill="#E1E2E3"></path>
                    <polygon id="Stroke-36" stroke="#626366" stroke-width="3" stroke-linejoin="round" points="30.3999 90.8153 42.1089 84.6003 42.1109 87.8973 30.4019 94.1143"></polygon>
                    <polygon id="Stroke-38" stroke="#626366" stroke-width="3" stroke-linejoin="round" points="0.5 72.8514 12.209 66.6344 42.109 84.6004 30.4 90.8154"></polygon>
                    <polygon id="Stroke-40" stroke="#626366" stroke-width="3" stroke-linejoin="round" points="30.3999 90.8153 30.4019 94.1143 0.5019 76.1483 0.4999 72.8513"></polygon>
                    <polygon id="Fill-42" fill="#898B8E" points="30.3999 90.8153 42.1089 84.6003 42.1109 87.8973 30.4019 94.1143"></polygon>
                    <polygon id="Fill-44" fill="#BBBDBF" points="0.5 72.8514 12.209 66.6344 42.109 84.6004 30.4 90.8154"></polygon>
                    <polygon id="Fill-46" fill="#B3B5B7" points="30.3999 90.8153 30.4019 94.1143 0.5019 76.1483 0.4999 72.8513"></polygon>
                    <polygon id="Fill-48" fill="#231F20" points="7.6573 72.5037 9.1153 71.7307 9.1153 72.0117 7.6573 72.7867"></polygon>
                    <polygon id="Fill-50" fill="#FEFEFE" points="6.4004 71.7479 7.8584 70.9749 9.1154 71.7299 7.6574 72.5039"></polygon>
                    <polygon id="Fill-52" fill="#626366" points="7.6573 72.5037 7.6573 72.7867 6.4003 72.0307 6.4003 71.7477"></polygon>
                    <polygon id="Fill-54" fill="#231F20" points="9.5176 73.6209 10.9756 72.8479 10.9756 73.1309 9.5176 73.9039"></polygon>
                    <polygon id="Fill-56" fill="#FEFEFE" points="8.2608 72.867 9.7188 72.092 10.9758 72.847 9.5178 73.621"></polygon>
                    <polygon id="Fill-58" fill="#626366" points="9.5176 73.6209 9.5176 73.9039 8.2606 73.1479 8.2606 72.8669"></polygon>
                    <polygon id="Fill-60" fill="#231F20" points="11.4707 74.7948 12.9277 74.0218 12.9287 74.3048 11.4707 75.0778"></polygon>
                    <polygon id="Fill-62" fill="#FEFEFE" points="10.2139 74.0389 11.6719 73.2659 12.9279 74.0209 11.4709 74.7949"></polygon>
                    <polygon id="Fill-64" fill="#626366" points="11.4707 74.7948 11.4707 75.0778 10.2137 74.3218 10.2137 74.0388"></polygon>
                    <polygon id="Fill-66" fill="#231F20" points="13.3379 75.9178 14.7949 75.1428 14.7959 75.4258 13.3379 76.1988"></polygon>
                    <polygon id="Fill-68" fill="#FEFEFE" points="12.0811 75.1619 13.5391 74.3889 14.7951 75.1419 13.3381 75.9179"></polygon>
                    <polygon id="Fill-70" fill="#626366" points="13.3379 75.9178 13.3379 76.1988 12.0809 75.4448 12.0809 75.1618"></polygon>
                    <polygon id="Fill-72" fill="#231F20" points="15.2657 77.076 16.7237 76.301 16.7237 76.584 15.2657 77.357"></polygon>
                    <polygon id="Fill-74" fill="#FEFEFE" points="14.0088 76.3201 15.4668 75.5471 16.7238 76.3001 15.2658 77.0761"></polygon>
                    <polygon id="Fill-76" fill="#626366" points="15.2657 77.076 15.2657 77.357 14.0087 76.603 14.0087 76.32"></polygon>
                    <polygon id="Fill-78" fill="#231F20" points="17.1324 78.1971 18.5914 77.4241 18.5914 77.7051 17.1324 78.4801"></polygon>
                    <polygon id="Fill-80" fill="#FEFEFE" points="15.8687 77.4373 17.3277 76.6643 18.5917 77.4233 17.1327 78.1973"></polygon>
                    <polygon id="Fill-82" fill="#626366" points="17.1324 78.1971 17.1324 78.4801 15.8684 77.7201 15.8684 77.4371"></polygon>
                    <polygon id="Fill-84" fill="#231F20" points="19.0855 79.3709 20.5425 78.5979 20.5445 78.8789 19.0855 79.6519"></polygon>
                    <polygon id="Fill-86" fill="#FEFEFE" points="17.8277 78.6151 19.2867 77.8421 20.5427 78.5971 19.0857 79.3711"></polygon>
                    <polygon id="Fill-88" fill="#626366" points="19.0855 79.3709 19.0855 79.6519 17.8295 78.8979 17.8275 78.6149"></polygon>
                    <polygon id="Fill-90" fill="#231F20" points="20.9468 80.4881 22.4038 79.7151 22.4038 79.9981 20.9468 80.7711"></polygon>
                    <polygon id="Fill-92" fill="#FEFEFE" points="19.689 79.7342 21.146 78.9592 22.404 79.7142 20.947 80.4882"></polygon>
                    <polygon id="Fill-94" fill="#626366" points="20.9468 80.4881 20.9468 80.7711 19.6888 80.0151 19.6888 79.7341"></polygon>
                    <polygon id="Fill-96" fill="#231F20" points="22.7769 81.5887 24.2339 80.8147 24.2339 81.0977 22.7769 81.8697"></polygon>
                    <polygon id="Fill-98" fill="#FEFEFE" points="21.5191 80.8338 22.9781 80.0588 24.2341 80.8138 22.7771 81.5888"></polygon>
                    <polygon id="Fill-100" fill="#626366" points="22.7769 81.5887 22.7769 81.8697 21.5189 81.1147 21.5189 80.8337"></polygon>
                    <polygon id="Fill-102" fill="#231F20" points="24.6363 82.7059 26.0953 81.9329 26.0953 82.2139 24.6363 82.9889"></polygon>
                    <polygon id="Fill-104" fill="#FEFEFE" points="23.3804 81.95 24.8374 81.178 26.0954 81.932 24.6364 82.706"></polygon>
                    <polygon id="Fill-106" fill="#626366" points="24.6363 82.7059 24.6363 82.9889 23.3803 82.2329 23.3803 81.9499"></polygon>
                    <polygon id="Fill-108" fill="#231F20" points="26.5894 83.8797 28.0484 83.1047 28.0484 83.3877 26.5894 84.1607"></polygon>
                    <polygon id="Fill-110" fill="#FEFEFE" points="25.3335 83.1239 26.7905 82.3509 28.0485 83.1039 26.5895 83.8799"></polygon>
                    <polygon id="Fill-112" fill="#626366" points="26.5894 83.8797 26.5894 84.1607 25.3334 83.4067 25.3334 83.1237"></polygon>
                    <polygon id="Fill-114" fill="#231F20" points="28.4566 85.0008 29.9156 84.2278 29.9156 84.5108 28.4566 85.2838"></polygon>
                    <polygon id="Fill-116" fill="#FEFEFE" points="27.2007 84.2449 28.6577 83.4719 29.9157 84.2269 28.4567 85.0009"></polygon>
                    <polygon id="Fill-118" fill="#626366" points="28.4566 85.0008 28.4566 85.2838 27.2006 84.5278 27.2006 84.2448"></polygon>
                    <polygon id="Fill-120" fill="#231F20" points="30.3843 86.159 31.8433 85.386 31.8433 85.669 30.3843 86.442"></polygon>
                    <polygon id="Fill-122" fill="#FEFEFE" points="29.1284 85.4051 30.5854 84.6301 31.8434 85.3851 30.3844 86.1591"></polygon>
                    <polygon id="Fill-124" fill="#626366" points="30.3843 86.159 30.3843 86.442 29.1283 85.686 29.1283 85.405"></polygon>
                    <polygon id="Fill-126" fill="#231F20" points="32.2085 87.2547 33.6655 86.4817 33.6675 86.7647 32.2085 87.5377"></polygon>
                    <polygon id="Fill-128" fill="#FEFEFE" points="30.9507 86.5008 32.4097 85.7258 33.6657 86.4808 32.2087 87.2548"></polygon>
                    <polygon id="Fill-130" fill="#626366" points="32.2085 87.2547 32.2085 87.5377 30.9525 86.7817 30.9505 86.5007"></polygon>
                    <polygon id="Fill-132" fill="#231F20" points="9.6573 71.3787 11.1153 70.6057 11.1153 70.8867 9.6573 71.6617"></polygon>
                    <polygon id="Fill-134" fill="#FEFEFE" points="8.4004 70.6229 9.8584 69.8499 11.1154 70.6049 9.6574 71.3789"></polygon>
                    <polygon id="Fill-136" fill="#626366" points="9.6573 71.3787 9.6573 71.6617 8.4003 70.9057 8.4003 70.6227"></polygon>
                    <polygon id="Fill-138" fill="#231F20" points="11.5176 72.4959 12.9756 71.7229 12.9756 72.0059 11.5176 72.7789"></polygon>
                    <polygon id="Fill-140" fill="#FEFEFE" points="10.2608 71.742 11.7188 70.967 12.9758 71.722 11.5178 72.496"></polygon>
                    <polygon id="Fill-142" fill="#626366" points="11.5176 72.4959 11.5176 72.7789 10.2606 72.0229 10.2606 71.7419"></polygon>
                    <polygon id="Fill-144" fill="#231F20" points="13.4707 73.6698 14.9277 72.8968 14.9287 73.1798 13.4707 73.9528"></polygon>
                    <polygon id="Fill-146" fill="#FEFEFE" points="12.2139 72.9139 13.6719 72.1409 14.9279 72.8959 13.4709 73.6699"></polygon>
                    <polygon id="Fill-148" fill="#626366" points="13.4707 73.6698 13.4707 73.9528 12.2137 73.1968 12.2137 72.9138"></polygon>
                    <polygon id="Fill-150" fill="#231F20" points="15.3374 74.7928 16.7944 74.0178 16.7964 74.3008 15.3374 75.0738"></polygon>
                    <polygon id="Fill-152" fill="#FEFEFE" points="14.0811 74.0369 15.5391 73.2639 16.7941 74.0169 15.3371 74.7929"></polygon>
                    <polygon id="Fill-154" fill="#626366" points="15.3374 74.7928 15.3374 75.0738 14.0814 74.3198 14.0814 74.0368"></polygon>
                    <polygon id="Fill-156" fill="#231F20" points="17.2652 75.951 18.7242 75.176 18.7242 75.459 17.2652 76.232"></polygon>
                    <polygon id="Fill-158" fill="#FEFEFE" points="16.0093 75.1951 17.4663 74.4221 18.7243 75.1751 17.2653 75.9511"></polygon>
                    <polygon id="Fill-160" fill="#626366" points="17.2652 75.951 17.2652 76.232 16.0092 75.478 16.0092 75.195"></polygon>
                    <polygon id="Fill-162" fill="#231F20" points="19.1324 77.0721 20.5914 76.2991 20.5914 76.5801 19.1324 77.3551"></polygon>
                    <polygon id="Fill-164" fill="#FEFEFE" points="17.8687 76.3123 19.3277 75.5393 20.5917 76.2983 19.1327 77.0723"></polygon>
                    <polygon id="Fill-166" fill="#626366" points="19.1324 77.0721 19.1324 77.3551 17.8684 76.5951 17.8684 76.3121"></polygon>
                    <polygon id="Fill-168" fill="#231F20" points="21.0855 78.2459 22.5425 77.4729 22.5445 77.7539 21.0855 78.5269"></polygon>
                    <polygon id="Fill-170" fill="#FEFEFE" points="19.8277 77.4901 21.2867 76.7171 22.5427 77.4721 21.0857 78.2461"></polygon>
                    <polygon id="Fill-172" fill="#626366" points="21.0855 78.2459 21.0855 78.5269 19.8295 77.7729 19.8275 77.4899"></polygon>
                    <polygon id="Fill-174" fill="#231F20" points="22.9468 79.3631 24.4038 78.5901 24.4038 78.8731 22.9468 79.6461"></polygon>
                    <polygon id="Fill-176" fill="#FEFEFE" points="21.689 78.6092 23.146 77.8342 24.404 78.5892 22.947 79.3632"></polygon>
                    <polygon id="Fill-178" fill="#626366" points="22.9468 79.3631 22.9468 79.6461 21.6888 78.8901 21.6888 78.6091"></polygon>
                    <polygon id="Fill-180" fill="#231F20" points="24.7769 80.4627 26.2339 79.6897 26.2339 79.9727 24.7769 80.7457"></polygon>
                    <polygon id="Fill-182" fill="#FEFEFE" points="23.5191 79.7088 24.9781 78.9338 26.2341 79.6888 24.7771 80.4628"></polygon>
                    <polygon id="Fill-184" fill="#626366" points="24.7769 80.4627 24.7769 80.7457 23.5189 79.9897 23.5189 79.7087"></polygon>
                    <polygon id="Fill-186" fill="#231F20" points="26.6363 81.5809 28.0953 80.8069 28.0953 81.0899 26.6363 81.8639"></polygon>
                    <polygon id="Fill-188" fill="#FEFEFE" points="25.3804 80.826 26.8374 80.053 28.0954 80.806 26.6364 81.581"></polygon>
                    <polygon id="Fill-190" fill="#626366" points="26.6363 81.5809 26.6363 81.8639 25.3803 81.1089 25.3803 80.8259"></polygon>
                    <polygon id="Fill-192" fill="#231F20" points="28.5894 82.7547 30.0484 81.9797 30.0484 82.2627 28.5894 83.0357"></polygon>
                    <polygon id="Fill-194" fill="#FEFEFE" points="27.3335 81.9989 28.7905 81.2269 30.0485 81.9789 28.5895 82.7549"></polygon>
                    <polygon id="Fill-196" fill="#626366" points="28.5894 82.7547 28.5894 83.0357 27.3334 82.2817 27.3334 81.9987"></polygon>
                    <polygon id="Fill-198" fill="#231F20" points="30.4566 83.8758 31.9156 83.1028 31.9156 83.3858 30.4566 84.1588"></polygon>
                    <polygon id="Fill-200" fill="#FEFEFE" points="29.2007 83.1199 30.6577 82.3469 31.9157 83.1019 30.4567 83.8759"></polygon>
                    <polygon id="Fill-202" fill="#626366" points="30.4566 83.8758 30.4566 84.1588 29.2006 83.4028 29.2006 83.1198"></polygon>
                    <polygon id="Fill-204" fill="#231F20" points="32.3843 85.034 33.8433 84.261 33.8433 84.544 32.3843 85.317"></polygon>
                    <polygon id="Fill-206" fill="#FEFEFE" points="31.1284 84.2801 32.5854 83.5051 33.8434 84.2601 32.3844 85.0341"></polygon>
                    <polygon id="Fill-208" fill="#626366" points="32.3843 85.034 32.3843 85.317 31.1283 84.561 31.1283 84.28"></polygon>
                    <polygon id="Fill-210" fill="#231F20" points="34.2085 86.1297 35.6655 85.3567 35.6675 85.6397 34.2085 86.4127"></polygon>
                    <polygon id="Fill-212" fill="#FEFEFE" points="32.9507 85.3758 34.4097 84.6008 35.6657 85.3558 34.2087 86.1298"></polygon>
                    <polygon id="Fill-214" fill="#626366" points="34.2085 86.1297 34.2085 86.4127 32.9525 85.6567 32.9505 85.3757"></polygon>
                    <polygon id="Fill-216" fill="#231F20" points="11.7823 70.2537 13.2403 69.4807 13.2403 69.7617 11.7823 70.5367"></polygon>
                    <polygon id="Fill-218" fill="#FEFEFE" points="10.5254 69.4979 11.9834 68.7249 13.2404 69.4799 11.7824 70.2539"></polygon>
                    <polygon id="Fill-220" fill="#626366" points="11.7823 70.2537 11.7823 70.5367 10.5253 69.7807 10.5253 69.4977"></polygon>
                    <polygon id="Fill-222" fill="#231F20" points="13.6426 71.3709 15.1006 70.5979 15.1006 70.8809 13.6426 71.6539"></polygon>
                    <polygon id="Fill-224" fill="#FEFEFE" points="12.3858 70.617 13.8438 69.842 15.1008 70.597 13.6428 71.371"></polygon>
                    <polygon id="Fill-226" fill="#626366" points="13.6426 71.3709 13.6426 71.6539 12.3856 70.8979 12.3856 70.6169"></polygon>
                    <polygon id="Fill-228" fill="#231F20" points="15.5952 72.5448 17.0522 71.7718 17.0542 72.0548 15.5952 72.8278"></polygon>
                    <polygon id="Fill-230" fill="#FEFEFE" points="14.3389 71.7889 15.7969 71.0159 17.0519 71.7709 15.5949 72.5449"></polygon>
                    <polygon id="Fill-232" fill="#626366" points="15.5952 72.5448 15.5952 72.8278 14.3392 72.0718 14.3392 71.7888"></polygon>
                    <polygon id="Fill-234" fill="#231F20" points="17.4624 73.6678 18.9194 72.8928 18.9214 73.1758 17.4624 73.9488"></polygon>
                    <polygon id="Fill-236" fill="#FEFEFE" points="16.2066 72.9119 17.6636 72.1389 18.9196 72.8919 17.4626 73.6679"></polygon>
                    <polygon id="Fill-238" fill="#626366" points="17.4624 73.6678 17.4624 73.9488 16.2064 73.1948 16.2064 72.9118"></polygon>
                    <polygon id="Fill-240" fill="#231F20" points="19.3902 74.826 20.8492 74.051 20.8492 74.334 19.3902 75.107"></polygon>
                    <polygon id="Fill-242" fill="#FEFEFE" points="18.1343 74.0701 19.5913 73.2971 20.8493 74.0501 19.3903 74.8261"></polygon>
                    <polygon id="Fill-244" fill="#626366" points="19.3902 74.826 19.3902 75.107 18.1342 74.353 18.1342 74.07"></polygon>
                    <polygon id="Fill-246" fill="#231F20" points="21.2574 75.9471 22.7164 75.1741 22.7164 75.4551 21.2574 76.2301"></polygon>
                    <polygon id="Fill-248" fill="#FEFEFE" points="19.9937 75.1873 21.4527 74.4143 22.7167 75.1733 21.2577 75.9473"></polygon>
                    <polygon id="Fill-250" fill="#626366" points="21.2574 75.9471 21.2574 76.2301 19.9934 75.4701 19.9934 75.1871"></polygon>
                    <polygon id="Fill-252" fill="#231F20" points="23.2105 77.1209 24.6675 76.3479 24.6695 76.6289 23.2105 77.4019"></polygon>
                    <polygon id="Fill-254" fill="#FEFEFE" points="21.9527 76.3651 23.4117 75.5921 24.6677 76.3471 23.2107 77.1211"></polygon>
                    <polygon id="Fill-256" fill="#626366" points="23.2105 77.1209 23.2105 77.4019 21.9545 76.6479 21.9525 76.3649"></polygon>
                    <polygon id="Fill-258" fill="#231F20" points="25.0718 78.2381 26.5288 77.4651 26.5288 77.7481 25.0718 78.5211"></polygon>
                    <polygon id="Fill-260" fill="#FEFEFE" points="23.814 77.4842 25.271 76.7092 26.529 77.4642 25.072 78.2382"></polygon>
                    <polygon id="Fill-262" fill="#626366" points="25.0718 78.2381 25.0718 78.5211 23.8138 77.7651 23.8138 77.4841"></polygon>
                    <polygon id="Fill-264" fill="#231F20" points="26.9019 79.3377 28.3589 78.5647 28.3589 78.8477 26.9019 79.6207"></polygon>
                    <polygon id="Fill-266" fill="#FEFEFE" points="25.6441 78.5838 27.1031 77.8088 28.3591 78.5638 26.9021 79.3378"></polygon>
                    <polygon id="Fill-268" fill="#626366" points="26.9019 79.3377 26.9019 79.6207 25.6439 78.8647 25.6439 78.5837"></polygon>
                    <polygon id="Fill-270" fill="#231F20" points="28.7613 80.4569 30.2203 79.6819 30.2203 79.9649 28.7613 80.7379"></polygon>
                    <polygon id="Fill-272" fill="#FEFEFE" points="27.5054 79.701 28.9624 78.928 30.2204 79.681 28.7614 80.457"></polygon>
                    <polygon id="Fill-274" fill="#626366" points="28.7613 80.4569 28.7613 80.7379 27.5053 79.9839 27.5053 79.7009"></polygon>
                    <polygon id="Fill-276" fill="#231F20" points="30.7144 81.6297 32.1734 80.8557 32.1734 81.1387 30.7144 81.9107"></polygon>
                    <polygon id="Fill-278" fill="#FEFEFE" points="29.4585 80.8748 30.9155 80.1018 32.1735 80.8548 30.7145 81.6298"></polygon>
                    <polygon id="Fill-280" fill="#626366" points="30.7144 81.6297 30.7144 81.9107 29.4584 81.1557 29.4584 80.8747"></polygon>
                    <polygon id="Fill-282" fill="#231F20" points="32.5816 82.7508 34.0406 81.9778 34.0406 82.2608 32.5816 83.0338"></polygon>
                    <polygon id="Fill-284" fill="#FEFEFE" points="31.3257 81.9949 32.7827 81.2229 34.0407 81.9769 32.5817 82.7509"></polygon>
                    <polygon id="Fill-286" fill="#626366" points="32.5816 82.7508 32.5816 83.0338 31.3256 82.2778 31.3256 81.9948"></polygon>
                    <polygon id="Fill-288" fill="#231F20" points="34.5093 83.909 35.9683 83.136 35.9683 83.419 34.5093 84.192"></polygon>
                    <polygon id="Fill-290" fill="#FEFEFE" points="33.2534 83.1551 34.7104 82.3801 35.9684 83.1351 34.5094 83.9091"></polygon>
                    <polygon id="Fill-292" fill="#626366" points="34.5093 83.909 34.5093 84.192 33.2533 83.436 33.2533 83.155"></polygon>
                    <polygon id="Fill-294" fill="#231F20" points="36.3335 85.0047 37.7905 84.2317 37.7925 84.5147 36.3335 85.2877"></polygon>
                    <polygon id="Fill-296" fill="#FEFEFE" points="35.0757 84.2508 36.5347 83.4758 37.7907 84.2308 36.3337 85.0048"></polygon>
                    <polygon id="Fill-298" fill="#626366" points="36.3335 85.0047 36.3335 85.2877 35.0775 84.5317 35.0755 84.2507"></polygon>
                    <polygon id="Fill-300" fill="#231F20" points="6.2657 74.1815 7.7237 73.4065 7.7237 73.6815 6.2657 74.4545"></polygon>
                    <polygon id="Fill-302" fill="#FEFEFE" points="5.0078 73.4256 6.4658 72.6526 7.7238 73.4056 6.2658 74.1816"></polygon>
                    <polygon id="Fill-304" fill="#626366" points="6.2657 74.1815 6.2657 74.4545 5.0087 73.6995 5.0077 73.4255"></polygon>
                    <polygon id="Fill-306" fill="#231F20" points="8.0342 75.244 9.4922 74.469 9.4922 74.744 8.0342 75.517"></polygon>
                    <polygon id="Fill-308" fill="#FEFEFE" points="6.7774 74.4881 8.2354 73.7151 9.4924 74.4681 8.0344 75.2441"></polygon>
                    <polygon id="Fill-310" fill="#626366" points="8.0342 75.244 8.0342 75.517 6.7772 74.764 6.7772 74.488"></polygon>
                    <polygon id="Fill-312" fill="#231F20" points="9.8946 76.3612 11.3526 75.5882 11.3526 75.8612 9.8946 76.6362"></polygon>
                    <polygon id="Fill-314" fill="#FEFEFE" points="8.6377 75.6053 10.0957 74.8323 11.3527 75.5873 9.8947 76.3613"></polygon>
                    <polygon id="Fill-316" fill="#626366" points="9.8946 76.3612 9.8946 76.6362 8.6376 75.8812 8.6376 75.6052"></polygon>
                    <polygon id="Fill-318" fill="#231F20" points="25.4527 85.6805 26.9117 84.9075 26.9117 85.1805 25.4527 85.9555"></polygon>
                    <polygon id="Fill-320" fill="#FEFEFE" points="24.1949 84.9246 25.6539 84.1516 26.9119 84.9066 25.4529 85.6806"></polygon>
                    <polygon id="Fill-322" fill="#626366" points="25.4527 85.6805 25.4527 85.9555 24.1967 85.2005 24.1947 84.9245"></polygon>
                    <polygon id="Fill-324" fill="#231F20" points="27.2222 86.743 28.6792 85.97 28.6792 86.243 27.2222 87.018"></polygon>
                    <polygon id="Fill-326" fill="#FEFEFE" points="25.9644 85.9871 27.4234 85.2141 28.6794 85.9691 27.2224 86.7431"></polygon>
                    <polygon id="Fill-328" fill="#626366" points="27.2222 86.743 27.2222 87.018 25.9642 86.263 25.9642 85.987"></polygon>
                    <polygon id="Fill-330" fill="#231F20" points="29.0816 87.8602 30.5406 87.0872 30.5406 87.3622 29.0816 88.1352"></polygon>
                    <polygon id="Fill-332" fill="#FEFEFE" points="27.8257 87.1063 29.2827 86.3313 30.5407 87.0863 29.0817 87.8603"></polygon>
                    <polygon id="Fill-334" fill="#626366" points="29.0816 87.8602 29.0816 88.1352 27.8256 87.3802 27.8256 87.1062"></polygon>
                    <polygon id="Fill-336" fill="#231F20" points="23.4663 84.5262 24.9253 83.7532 24.9253 84.0282 23.4663 84.8012"></polygon>
                    <polygon id="Fill-338" fill="#FEFEFE" points="10.5723 76.7791 12.0303 76.0061 24.9253 83.7531 23.4663 84.5261"></polygon>
                    <polygon id="Fill-340" fill="#626366" points="23.4663 84.5262 23.4663 84.8012 10.5723 77.0542 10.5723 76.7792"></polygon>
                    <polyline id="Stroke-342" stroke="#E1E2E3" stroke-linecap="round" stroke-linejoin="round" points="0.7422 72.8846 30.1522 90.5536 30.1522 93.7586"></polyline>
                </g>
                <g id="Group-351" stroke-width="1" fill-rule="evenodd" transform="translate(64.000000, 59.663000)">
                    <g id="Group-347">
                        <mask id="mask-2" fill="white">
                            <use xlink:href="#path-1"></use>
                        </mask>
                        <g id="Clip-346"></g>
                        <path d="M1.1685,9.4393 L18.0395,0.4843 C17.7615,0.6323 17.5735,0.9483 17.5265,1.4033 L0.6555,10.3573 C0.7025,9.9033 0.8915,9.5853 1.1685,9.4393" id="Stroke-345" stroke="#636466" stroke-width="2" stroke-linecap="round" stroke-linejoin="round" mask="url(#mask-2)"></path>
                    </g>
                    <g id="Group-350">
                        <mask id="mask-4" fill="white">
                            <use xlink:href="#path-3"></use>
                        </mask>
                        <g id="Clip-349"></g>
                        <path d="M0.6558,10.3577 L17.5268,1.4027 C17.5198,1.4757 17.5168,1.5527 17.5168,1.6327 L0.6438,10.5887 C0.6438,10.5087 0.6468,10.4307 0.6558,10.3577" id="Stroke-348" stroke="#636466" stroke-width="2" stroke-linecap="round" stroke-linejoin="round" mask="url(#mask-4)"></path>
                    </g>
                </g>
                <path d="M65.1685,69.1023 C70.7915,66.1173 76.4165,63.1323 82.0395,60.1473 C81.7165,60.3183 81.5155,60.7183 81.5175,61.2963 L64.6445,70.2523 C64.6445,69.6733 64.8455,69.2743 65.1685,69.1023 Z" id="Stroke-352" stroke="#636466" stroke-width="2" stroke-linecap="round" stroke-linejoin="round"></path>
                <g id="Group-363" stroke-width="1" fill-rule="evenodd" transform="translate(83.000000, 94.663000)">
                    <g id="Group-356">
                        <mask id="mask-6" fill="white">
                            <use xlink:href="#path-5"></use>
                        </mask>
                        <g id="Clip-355"></g>
                        <path d="M0.6118,9.8255 L17.4828,0.8695 C17.5528,0.9115 17.6218,0.9475 17.6888,0.9775 L0.8188,9.9335 C0.7508,9.9035 0.6808,9.8665 0.6118,9.8255" id="Stroke-354" stroke="#636466" stroke-width="2" stroke-linecap="round" stroke-linejoin="round" mask="url(#mask-6)"></path>
                    </g>
                    <g id="Group-359">
                        <mask id="mask-8" fill="white">
                            <use xlink:href="#path-7"></use>
                        </mask>
                        <g id="Clip-358"></g>
                        <path d="M0.8189,9.9334 L17.6889,0.9774 C17.8569,1.0534 18.0139,1.0934 18.1599,1.1024 L1.2899,10.0574 C1.1429,10.0484 0.9839,10.0074 0.8189,9.9334" id="Stroke-357" stroke="#636466" stroke-width="2" stroke-linecap="round" stroke-linejoin="round" mask="url(#mask-8)"></path>
                    </g>
                    <g id="Group-362">
                        <mask id="mask-10" fill="white">
                            <use xlink:href="#path-9"></use>
                        </mask>
                        <g id="Clip-361"></g>
                        <path d="M1.2896,10.0574 L18.1596,1.1024 C18.3326,1.1134 18.4876,1.0804 18.6216,1.0104 L1.7516,9.9644 C1.6166,10.0364 1.4606,10.0684 1.2896,10.0574" id="Stroke-360" stroke="#636466" stroke-width="2" stroke-linecap="round" stroke-linejoin="round" mask="url(#mask-10)"></path>
                    </g>
                </g>
                <path d="M101.6216,95.6731 C95.9976,98.6581 90.3746,101.6431 84.7516,104.6281 C84.4526,104.7861 84.0536,104.7521 83.6116,104.4881 L100.4826,95.5331 C100.9246,95.7961 101.3256,95.8311 101.6216,95.6731 Z" id="Stroke-364" stroke="#636466" stroke-width="2" stroke-linecap="round" stroke-linejoin="round"></path>
                <g id="Group-375" stroke-width="1" fill-rule="evenodd" transform="translate(65.000000, 59.663000)">
                    <g id="Group-368">
                        <mask id="mask-12" fill="white">
                            <use xlink:href="#path-11"></use>
                        </mask>
                        <g id="Clip-367"></g>
                        <path d="M0.1685,9.4393 L17.0395,0.4843 C17.1745,0.4133 17.3295,0.3803 17.4995,0.3913 L0.6295,9.3473 C0.4565,9.3373 0.3045,9.3683 0.1685,9.4393" id="Stroke-366" stroke="#636466" stroke-width="2" stroke-linecap="round" stroke-linejoin="round" mask="url(#mask-12)"></path>
                    </g>
                    <g id="Group-371">
                        <mask id="mask-14" fill="white">
                            <use xlink:href="#path-13"></use>
                        </mask>
                        <g id="Clip-370"></g>
                        <path d="M0.6294,9.347 L17.4994,0.391 C17.6454,0.401 17.8044,0.441 17.9694,0.516 L1.0984,9.47 C0.9324,9.397 0.7744,9.355 0.6294,9.347" id="Stroke-369" stroke="#636466" stroke-width="2" stroke-linecap="round" stroke-linejoin="round" mask="url(#mask-14)"></path>
                    </g>
                    <g id="Group-374">
                        <mask id="mask-16" fill="white">
                            <use xlink:href="#path-15"></use>
                        </mask>
                        <g id="Clip-373"></g>
                        <path d="M1.0982,9.47 L17.9692,0.516 C18.0382,0.546 18.1082,0.584 18.1802,0.625 L1.3082,9.581 C1.2372,9.537 1.1652,9.503 1.0982,9.47" id="Stroke-372" stroke="#636466" stroke-width="2" stroke-linecap="round" stroke-linejoin="round" mask="url(#mask-16)"></path>
                    </g>
                </g>
                <path d="M65.1685,69.1023 C70.7915,66.1173 76.4165,63.1323 82.0395,60.1473 C82.3375,59.9883 82.7375,60.0233 83.1805,60.2883 L66.3085,69.2443 C65.8665,68.9793 65.4665,68.9453 65.1685,69.1023 Z" id="Stroke-376" stroke="#636466" stroke-width="2" stroke-linecap="round" stroke-linejoin="round"></path>
                <g id="Group-387" stroke-width="1" fill-rule="evenodd" transform="translate(64.000000, 58.663000)">
                    <g id="Group-380">
                        <mask id="mask-18" fill="white">
                            <use xlink:href="#path-17"></use>
                        </mask>
                        <g id="Clip-379"></g>
                        <path d="M0.689,9.5408 L17.56,0.5848 C17.751,0.4848 17.971,0.4388 18.212,0.4548 L1.342,9.4088 C1.102,9.3938 0.878,9.4388 0.689,9.5408" id="Stroke-378" stroke="#636466" stroke-width="2" stroke-linecap="round" stroke-linejoin="round" mask="url(#mask-18)"></path>
                    </g>
                    <g id="Group-383">
                        <mask id="mask-20" fill="white">
                            <use xlink:href="#path-19"></use>
                        </mask>
                        <g id="Clip-382"></g>
                        <path d="M1.3423,9.4085 L18.2123,0.4545 C18.4213,0.4665 18.6443,0.5245 18.8803,0.6305 L2.0083,9.5855 C1.7743,9.4795 1.5513,9.4235 1.3423,9.4085" id="Stroke-381" stroke="#636466" stroke-width="2" stroke-linecap="round" stroke-linejoin="round" mask="url(#mask-20)"></path>
                    </g>
                    <g id="Group-386">
                        <mask id="mask-22" fill="white">
                            <use xlink:href="#path-21"></use>
                        </mask>
                        <g id="Clip-385"></g>
                        <path d="M2.0083,9.5858 L18.8803,0.6298 C18.9783,0.6738 19.0783,0.7268 19.1793,0.7868 L2.3083,9.7428 C2.2073,9.6828 2.1083,9.6298 2.0083,9.5858" id="Stroke-384" stroke="#636466" stroke-width="2" stroke-linecap="round" stroke-linejoin="round" mask="url(#mask-22)"></path>
                    </g>
                </g>
                <path d="M64.689,68.2038 C70.314,65.2188 75.937,62.2328 81.56,59.2478 C81.983,59.0238 82.552,59.0738 83.179,59.4498 L66.308,68.4058 C65.681,68.0298 65.113,67.9808 64.689,68.2038 Z" id="Stroke-388" stroke="#636466" stroke-width="2" stroke-linecap="round" stroke-linejoin="round"></path>
                <g id="Group-392" stroke-width="1" fill-rule="evenodd" transform="translate(84.000000, 93.663000)">
                    <mask id="mask-24" fill="white">
                        <use xlink:href="#path-23"></use>
                    </mask>
                    <g id="Clip-391"></g>
                    <path d="M1.2642,10.0467 L18.1342,1.0917 C18.0882,1.5447 17.9022,1.8607 17.6212,2.0097 L0.7512,10.9647 C1.0292,10.8167 1.2172,10.5007 1.2642,10.0467" id="Stroke-390" stroke="#636466" stroke-width="2" stroke-linecap="round" stroke-linejoin="round" mask="url(#mask-24)"></path>
                </g>
                <path d="M101.6216,95.6731 C95.9976,98.6581 90.3746,101.6431 84.7516,104.6281 C85.0736,104.4561 85.2766,104.0571 85.2766,103.4811 L102.1456,94.5271 C102.1456,95.1021 101.9456,95.5011 101.6216,95.6731 Z" id="Stroke-393" stroke="#636466" stroke-width="2" stroke-linecap="round" stroke-linejoin="round"></path>
                <g id="Group-401" stroke-width="1" fill-rule="evenodd" transform="translate(85.000000, 94.663000)">
                    <g id="Group-397">
                        <mask id="mask-26" fill="white">
                            <use xlink:href="#path-25"></use>
                        </mask>
                        <g id="Clip-396"></g>
                        <path d="M0.9751,9.2376 L17.8451,0.2826 C17.8451,0.3936 17.8391,0.5016 17.8291,0.6036 L0.9581,9.5586 C0.9681,9.4566 0.9751,9.3486 0.9751,9.2376" id="Stroke-395" stroke="#636466" stroke-width="2" stroke-linecap="round" stroke-linejoin="round" mask="url(#mask-26)"></path>
                    </g>
                    <g id="Group-400">
                        <mask id="mask-28" fill="white">
                            <use xlink:href="#path-27"></use>
                        </mask>
                        <g id="Clip-399"></g>
                        <path d="M0.9585,9.5584 L17.8295,0.6034 C17.7645,1.2474 17.4945,1.6994 17.0995,1.9094 L0.2285,10.8654 C0.6245,10.6544 0.8905,10.2024 0.9585,9.5584" id="Stroke-398" stroke="#636466" stroke-width="2" stroke-linecap="round" stroke-linejoin="round" mask="url(#mask-28)"></path>
                    </g>
                </g>
                <g id="Group-412" stroke-width="1" fill-rule="evenodd" transform="translate(66.000000, 58.663000)" stroke="#636466" stroke-linecap="round" stroke-linejoin="round">
                    <path d="M36.0992,37.9095 L19.2282,46.8655 C19.6872,46.6205 19.9722,46.0555 19.9752,45.2375 L36.8452,36.2835 C36.8452,37.0995 36.5582,37.6665 36.0992,37.9095 Z" id="Stroke-402" stroke-width="2"></path>
                    <polygon id="Stroke-404" stroke-width="2" points="0.3081 10.5809 17.1801 1.6249 34.4651 12.0119 17.5931 20.9679"></polygon>
                    <polygon id="Stroke-406" stroke-width="2" points="19.2603 23.9764 36.1333 15.0204 36.1463 35.8634 19.2773 44.8184"></polygon>
                    <polygon id="Stroke-408" stroke-width="2" points="0.3081 9.7425 17.1791 0.7865 34.4651 11.1725 17.5921 20.1295"></polygon>
                    <polygon id="Stroke-410" stroke-width="2" points="19.9585 24.3958 36.8315 15.4408 36.8455 36.2828 19.9755 45.2378"></polygon>
                </g>
                <g id="Group-443" stroke-width="1" fill-rule="evenodd" transform="translate(83.000000, 70.663000)">
                    <g id="Group-415">
                        <mask id="mask-30" fill="white">
                            <use xlink:href="#path-29"></use>
                        </mask>
                        <g id="Clip-414"></g>
                        <path d="M0.5933,8.9681 L17.4653,0.0111 C17.5563,0.0671 17.6483,0.1301 17.7363,0.2011 L0.8633,9.1551 C0.7763,9.0851 0.6873,9.0221 0.5933,8.9681" id="Stroke-413" stroke="#636466" stroke-width="2" stroke-linecap="round" stroke-linejoin="round" mask="url(#mask-30)"></path>
                    </g>
                    <g id="Group-418">
                        <mask id="mask-32" fill="white">
                            <use xlink:href="#path-31"></use>
                        </mask>
                        <g id="Clip-417"></g>
                        <path d="M0.8628,9.1556 L17.7358,0.2006 C17.8478,0.2916 17.9578,0.3916 18.0618,0.5046 L1.1908,9.4596 C1.0868,9.3486 0.9768,9.2456 0.8628,9.1556" id="Stroke-416" stroke="#636466" stroke-width="2" stroke-linecap="round" stroke-linejoin="round" mask="url(#mask-32)"></path>
                    </g>
                    <g id="Group-421">
                        <mask id="mask-34" fill="white">
                            <use xlink:href="#path-33"></use>
                        </mask>
                        <g id="Clip-420"></g>
                        <path d="M1.1909,9.4593 L18.0619,0.5043 C18.1279,0.5723 18.1929,0.6473 18.2529,0.7233 L1.3819,9.6783 C1.3209,9.6033 1.2559,9.5283 1.1909,9.4593" id="Stroke-419" stroke="#636466" stroke-width="2" stroke-linecap="round" stroke-linejoin="round" mask="url(#mask-34)"></path>
                    </g>
                    <g id="Group-424">
                        <mask id="mask-36" fill="white">
                            <use xlink:href="#path-35"></use>
                        </mask>
                        <g id="Clip-423"></g>
                        <path d="M1.3824,9.6785 L18.2524,0.7235 C18.3144,0.7985 18.3704,0.8765 18.4264,0.9555 L1.5534,9.9115 C1.4994,9.8315 1.4434,9.7545 1.3824,9.6785" id="Stroke-422" stroke="#636466" stroke-width="2" stroke-linecap="round" stroke-linejoin="round" mask="url(#mask-36)"></path>
                    </g>
                    <g id="Group-427">
                        <mask id="mask-38" fill="white">
                            <use xlink:href="#path-37"></use>
                        </mask>
                        <g id="Clip-426"></g>
                        <path d="M1.5533,9.9115 L18.4263,0.9555 C18.5233,1.0975 18.6133,1.2475 18.6953,1.4025 L1.8223,10.3585 C1.7423,10.2035 1.6533,10.0535 1.5533,9.9115" id="Stroke-425" stroke="#636466" stroke-width="2" stroke-linecap="round" stroke-linejoin="round" mask="url(#mask-38)"></path>
                    </g>
                    <g id="Group-430">
                        <mask id="mask-40" fill="white">
                            <use xlink:href="#path-39"></use>
                        </mask>
                        <g id="Clip-429"></g>
                        <path d="M1.8218,10.3582 L18.6948,1.4022 C18.7378,1.4842 18.7788,1.5682 18.8158,1.6572 L1.9458,10.6102 C1.9068,10.5252 1.8678,10.4412 1.8218,10.3582" id="Stroke-428" stroke="#636466" stroke-width="2" stroke-linecap="round" stroke-linejoin="round" mask="url(#mask-40)"></path>
                    </g>
                    <g id="Group-433">
                        <mask id="mask-42" fill="white">
                            <use xlink:href="#path-41"></use>
                        </mask>
                        <g id="Clip-432"></g>
                        <path d="M1.9458,10.6107 L18.8158,1.6567 C18.8498,1.7327 18.8828,1.8087 18.9088,1.8867 L2.0388,10.8407 C2.0088,10.7647 1.9778,10.6877 1.9458,10.6107" id="Stroke-431" stroke="#636466" stroke-width="2" stroke-linecap="round" stroke-linejoin="round" mask="url(#mask-42)"></path>
                    </g>
                    <g id="Group-436">
                        <mask id="mask-44" fill="white">
                            <use xlink:href="#path-43"></use>
                        </mask>
                        <g id="Clip-435"></g>
                        <path d="M2.0386,10.8411 L18.9086,1.8861 C18.9466,1.9851 18.9776,2.0851 19.0086,2.1851 L2.1376,11.1411 C2.1086,11.0401 2.0756,10.9401 2.0386,10.8411" id="Stroke-434" stroke="#636466" stroke-width="2" stroke-linecap="round" stroke-linejoin="round" mask="url(#mask-44)"></path>
                    </g>
                    <g id="Group-439">
                        <mask id="mask-46" fill="white">
                            <use xlink:href="#path-45"></use>
                        </mask>
                        <g id="Clip-438"></g>
                        <path d="M2.1372,11.1409 L19.0082,2.1849 C19.0532,2.3509 19.0882,2.5149 19.1092,2.6739 L2.2382,11.6289 C2.2172,11.4679 2.1832,11.3039 2.1372,11.1409" id="Stroke-437" stroke="#636466" stroke-width="2" stroke-linecap="round" stroke-linejoin="round" mask="url(#mask-46)"></path>
                    </g>
                    <g id="Group-442">
                        <mask id="mask-48" fill="white">
                            <use xlink:href="#path-47"></use>
                        </mask>
                        <g id="Clip-441"></g>
                        <path d="M2.2378,11.6292 L19.1088,2.6742 C19.1248,2.7912 19.1318,2.9072 19.1338,3.0202 L2.2598,11.9762 C2.2598,11.8622 2.2538,11.7472 2.2378,11.6292" id="Stroke-440" stroke="#636466" stroke-width="2" stroke-linecap="round" stroke-linejoin="round" mask="url(#mask-48)"></path>
                    </g>
                </g>
                <g id="Group-448" stroke-width="1" fill-rule="evenodd" transform="translate(63.000000, 67.663000)" stroke="#636466" stroke-linecap="round" stroke-linejoin="round">
                    <path d="M20.5933,11.9681 L37.4653,3.0111 C38.3853,3.5661 39.1303,4.9111 39.1333,6.0201 L22.2603,14.9761 C22.2603,13.8651 21.5163,12.5211 20.5933,11.9681 Z" id="Stroke-444" stroke-width="2"></path>
                    <path d="M20.5923,11.1292 C21.9003,11.9132 22.9553,13.8182 22.9583,15.3962 L22.9753,36.2372 C22.9723,37.8082 21.9183,38.4502 20.6123,37.6652 L3.3273,27.2782 C2.0213,26.4932 0.9623,24.5822 0.9593,23.0122 L0.9463,2.1692 C0.9453,0.5942 2.0023,-0.0418 3.3083,0.7422 L20.5923,11.1292 Z" id="Stroke-446" stroke-width="2"></path>
                </g>
                <g id="Group-479" stroke-width="1" fill-rule="evenodd" transform="translate(83.000000, 69.663000)">
                    <g id="Group-451">
                        <mask id="mask-50" fill="white">
                            <use xlink:href="#path-49"></use>
                        </mask>
                        <g id="Clip-450"></g>
                        <path d="M0.5923,9.1292 L17.4653,0.1722 C17.5953,0.2512 17.7213,0.3412 17.8473,0.4412 L0.9763,9.3962 C0.8513,9.2952 0.7233,9.2082 0.5923,9.1292" id="Stroke-449" stroke="#636466" stroke-width="2" stroke-linecap="round" stroke-linejoin="round" mask="url(#mask-50)"></path>
                    </g>
                    <g id="Group-454">
                        <mask id="mask-52" fill="white">
                            <use xlink:href="#path-51"></use>
                        </mask>
                        <g id="Clip-453"></g>
                        <path d="M0.9761,9.3958 L17.8471,0.4408 C18.0071,0.5678 18.1631,0.7128 18.3111,0.8698 L1.4401,9.8258 C1.2911,9.6688 1.1371,9.5238 0.9761,9.3958" id="Stroke-452" stroke="#636466" stroke-width="2" stroke-linecap="round" stroke-linejoin="round" mask="url(#mask-52)"></path>
                    </g>
                    <g id="Group-457">
                        <mask id="mask-54" fill="white">
                            <use xlink:href="#path-53"></use>
                        </mask>
                        <g id="Clip-456"></g>
                        <path d="M1.44,9.8255 L18.311,0.8695 C18.404,0.9695 18.497,1.0745 18.583,1.1815 L1.711,10.1385 C1.624,10.0295 1.534,9.9245 1.44,9.8255" id="Stroke-455" stroke="#636466" stroke-width="2" stroke-linecap="round" stroke-linejoin="round" mask="url(#mask-54)"></path>
                    </g>
                    <g id="Group-460">
                        <mask id="mask-56" fill="white">
                            <use xlink:href="#path-55"></use>
                        </mask>
                        <g id="Clip-459"></g>
                        <path d="M1.7115,10.139 L18.5825,1.182 C18.6675,1.288 18.7485,1.399 18.8275,1.512 L1.9555,10.467 C1.8775,10.354 1.7975,10.245 1.7115,10.139" id="Stroke-458" stroke="#636466" stroke-width="2" stroke-linecap="round" stroke-linejoin="round" mask="url(#mask-56)"></path>
                    </g>
                    <g id="Group-463">
                        <mask id="mask-58" fill="white">
                            <use xlink:href="#path-57"></use>
                        </mask>
                        <g id="Clip-462"></g>
                        <path d="M1.9556,10.4671 L18.8276,1.5121 C18.9666,1.7141 19.0946,1.9261 19.2086,2.1471 L2.3386,11.1021 C2.2246,10.8821 2.0956,10.6691 1.9556,10.4671" id="Stroke-461" stroke="#636466" stroke-width="2" stroke-linecap="round" stroke-linejoin="round" mask="url(#mask-58)"></path>
                    </g>
                    <g id="Group-466">
                        <mask id="mask-60" fill="white">
                            <use xlink:href="#path-59"></use>
                        </mask>
                        <g id="Clip-465"></g>
                        <path d="M2.3384,11.1024 L19.2084,2.1464 C19.2704,2.2644 19.3274,2.3844 19.3824,2.5054 L2.5094,11.4604 C2.4564,11.3384 2.4004,11.2194 2.3384,11.1024" id="Stroke-464" stroke="#636466" stroke-width="2" stroke-linecap="round" stroke-linejoin="round" mask="url(#mask-60)"></path>
                    </g>
                    <g id="Group-469">
                        <mask id="mask-62" fill="white">
                            <use xlink:href="#path-61"></use>
                        </mask>
                        <g id="Clip-468"></g>
                        <path d="M2.5093,11.4608 L19.3823,2.5048 C19.4293,2.6128 19.4723,2.7228 19.5143,2.8308 L2.6443,11.7888 C2.6043,11.6768 2.5583,11.5678 2.5093,11.4608" id="Stroke-467" stroke="#636466" stroke-width="2" stroke-linecap="round" stroke-linejoin="round" mask="url(#mask-62)"></path>
                    </g>
                    <g id="Group-472">
                        <mask id="mask-64" fill="white">
                            <use xlink:href="#path-63"></use>
                        </mask>
                        <g id="Clip-471"></g>
                        <path d="M2.6441,11.7884 L19.5141,2.8304 C19.5681,2.9744 19.6141,3.1174 19.6541,3.2604 L2.7841,12.2144 C2.7441,12.0724 2.6971,11.9294 2.6441,11.7884" id="Stroke-470" stroke="#636466" stroke-width="2" stroke-linecap="round" stroke-linejoin="round" mask="url(#mask-64)"></path>
                    </g>
                    <g id="Group-475">
                        <mask id="mask-66" fill="white">
                            <use xlink:href="#path-65"></use>
                        </mask>
                        <g id="Clip-474"></g>
                        <path d="M2.7837,12.2142 L19.6537,3.2602 C19.7207,3.4912 19.7697,3.7252 19.7977,3.9542 L2.9267,12.9092 C2.8967,12.6802 2.8477,12.4482 2.7837,12.2142" id="Stroke-473" stroke="#636466" stroke-width="2" stroke-linecap="round" stroke-linejoin="round" mask="url(#mask-66)"></path>
                    </g>
                    <g id="Group-478">
                        <mask id="mask-68" fill="white">
                            <use xlink:href="#path-67"></use>
                        </mask>
                        <g id="Clip-477"></g>
                        <path d="M2.9263,12.9095 L19.7973,3.9535 C19.8193,4.1175 19.8293,4.2815 19.8313,4.4415 L2.9583,13.3955 C2.9583,13.2365 2.9473,13.0745 2.9263,12.9095" id="Stroke-476" stroke="#636466" stroke-width="2" stroke-linecap="round" stroke-linejoin="round" mask="url(#mask-68)"></path>
                    </g>
                </g>
                <path d="M83.5923,78.7922 L100.4653,69.8352 C101.7713,70.6202 102.8253,72.5272 102.8313,74.1042 L85.9583,83.0592 C85.9553,81.4812 84.9003,79.5762 83.5923,78.7922 Z" id="Stroke-480" stroke="#636466" stroke-width="2" stroke-linecap="round" stroke-linejoin="round"></path>
                <g id="Group-512" stroke-width="1" fill-rule="evenodd" transform="translate(64.000000, 81.663000)">
                    <g id="Group-484">
                        <mask id="mask-70" fill="white">
                            <use xlink:href="#path-69"></use>
                        </mask>
                        <g id="Clip-483"></g>
                        <path d="M0.3794,9.451 L17.2494,0.496 C17.2494,0.61 17.2594,0.723 17.2734,0.84 L0.4024,9.797 C0.3864,9.68 0.3794,9.563 0.3794,9.451" id="Fill-482" fill="#231F20" mask="url(#mask-70)"></path>
                    </g>
                    <g id="Group-487">
                        <mask id="mask-72" fill="white">
                            <use xlink:href="#path-71"></use>
                        </mask>
                        <g id="Clip-486"></g>
                        <path d="M0.4029,9.7967 L17.2729,0.8397 C17.2939,1.0017 17.3279,1.1647 17.3739,1.3287 L0.5029,10.2827 C0.4569,10.1207 0.4229,9.9557 0.4029,9.7967" id="Fill-485" fill="#231F20" mask="url(#mask-72)"></path>
                    </g>
                    <g id="Group-490">
                        <mask id="mask-74" fill="white">
                            <use xlink:href="#path-73"></use>
                        </mask>
                        <g id="Clip-489"></g>
                        <path d="M0.5025,10.283 L17.3735,1.328 C17.4005,1.429 17.4345,1.528 17.4715,1.628 L0.6015,10.582 C0.5645,10.483 0.5305,10.383 0.5025,10.283" id="Fill-488" fill="#231F20" mask="url(#mask-74)"></path>
                    </g>
                    <g id="Group-493">
                        <mask id="mask-76" fill="white">
                            <use xlink:href="#path-75"></use>
                        </mask>
                        <g id="Clip-492"></g>
                        <path d="M0.6011,10.5824 L17.4711,1.6274 C17.5001,1.7054 17.5321,1.7824 17.5651,1.8584 L0.6941,10.8134 C0.6611,10.7374 0.6281,10.6604 0.6011,10.5824" id="Fill-491" fill="#535456" mask="url(#mask-76)"></path>
                    </g>
                    <g id="Group-496">
                        <mask id="mask-78" fill="white">
                            <use xlink:href="#path-77"></use>
                        </mask>
                        <g id="Clip-495"></g>
                        <path d="M0.6939,10.8138 L17.5649,1.8588 C17.6029,1.9448 17.6439,2.0288 17.6879,2.1118 L0.8169,11.0678 C0.7729,10.9848 0.7309,10.8998 0.6939,10.8138" id="Fill-494" fill="#636467" mask="url(#mask-78)"></path>
                    </g>
                    <g id="Group-499">
                        <mask id="mask-80" fill="white">
                            <use xlink:href="#path-79"></use>
                        </mask>
                        <g id="Clip-498"></g>
                        <path d="M0.8169,11.0677 L17.6879,2.1117 C17.7689,2.2667 17.8589,2.4177 17.9559,2.5587 L1.0859,11.5137 C0.9879,11.3717 0.8959,11.2217 0.8169,11.0677" id="Fill-497" fill="#6F7073" mask="url(#mask-80)"></path>
                    </g>
                    <g id="Group-502">
                        <mask id="mask-82" fill="white">
                            <use xlink:href="#path-81"></use>
                        </mask>
                        <g id="Clip-501"></g>
                        <path d="M1.0855,11.514 L17.9555,2.559 C18.0125,2.639 18.0675,2.718 18.1295,2.792 L1.2585,11.749 C1.1975,11.673 1.1405,11.595 1.0855,11.514" id="Fill-500" fill="#636467" mask="url(#mask-82)"></path>
                    </g>
                    <g id="Group-505">
                        <mask id="mask-84" fill="white">
                            <use xlink:href="#path-83"></use>
                        </mask>
                        <g id="Clip-504"></g>
                        <path d="M1.2583,11.7489 L18.1293,2.7919 C18.1913,2.8699 18.2553,2.9439 18.3213,3.0149 L1.4513,11.9699 C1.3853,11.8989 1.3203,11.8249 1.2583,11.7489" id="Fill-503" fill="#535456" mask="url(#mask-84)"></path>
                    </g>
                    <g id="Group-508">
                        <mask id="mask-86" fill="white">
                            <use xlink:href="#path-85"></use>
                        </mask>
                        <g id="Clip-507"></g>
                        <path d="M1.4517,11.9696 L18.3217,3.0146 C18.4277,3.1256 18.5377,3.2276 18.6507,3.3186 L1.7807,12.2746 C1.6667,12.1836 1.5567,12.0806 1.4517,11.9696" id="Fill-506" fill="#231F20" mask="url(#mask-86)"></path>
                    </g>
                    <g id="Group-511">
                        <mask id="mask-88" fill="white">
                            <use xlink:href="#path-87"></use>
                        </mask>
                        <g id="Clip-510"></g>
                        <path d="M1.7808,12.2742 L18.6508,3.3182 C18.7378,3.3872 18.8248,3.4492 18.9178,3.5052 L2.0468,12.4602 C1.9568,12.4052 1.8668,12.3432 1.7808,12.2742" id="Fill-509" fill="#231F20" mask="url(#mask-88)"></path>
                    </g>
                </g>
                <g id="Group-517" stroke-width="1" fill-rule="evenodd" transform="translate(64.000000, 60.663000)" fill="#231F20">
                    <polygon id="Fill-513" points="0.3638 9.6097 17.2368 0.6537 17.2498 21.4957 0.3798 30.4507"></polygon>
                    <polygon id="Fill-515" points="2.0464 33.4598 18.9174 24.5048 36.2024 34.8908 19.3314 43.8458"></polygon>
                </g>
                <g id="Group-524" stroke-width="1" fill-rule="evenodd" transform="translate(64.000000, 59.663000)">
                    <g id="Group-520">
                        <mask id="mask-90" fill="white">
                            <use xlink:href="#path-89"></use>
                        </mask>
                        <g id="Clip-519"></g>
                        <path d="M0.8882,9.4598 L17.7592,0.5048 C17.4812,0.6528 17.2932,0.9688 17.2462,1.4238 L0.3752,10.3778 C0.4222,9.9238 0.6112,9.6058 0.8882,9.4598" id="Fill-518" fill="#231F20" mask="url(#mask-90)"></path>
                    </g>
                    <g id="Group-523">
                        <mask id="mask-92" fill="white">
                            <use xlink:href="#path-91"></use>
                        </mask>
                        <g id="Clip-522"></g>
                        <path d="M0.3755,10.3783 L17.2465,1.4233 C17.2395,1.4963 17.2365,1.5733 17.2365,1.6533 L0.3635,10.6093 C0.3635,10.5293 0.3665,10.4513 0.3755,10.3783" id="Fill-521" fill="#231F20" mask="url(#mask-92)"></path>
                    </g>
                </g>
                <g id="Group-534" stroke-width="1" fill-rule="evenodd" transform="translate(83.000000, 94.663000)">
                    <g id="Group-527">
                        <mask id="mask-94" fill="white">
                            <use xlink:href="#path-93"></use>
                        </mask>
                        <g id="Clip-526"></g>
                        <path d="M0.3316,9.846 L17.2026,0.89 C17.2726,0.932 17.3416,0.968 17.4086,0.998 L0.5386,9.954 C0.4706,9.924 0.4006,9.887 0.3316,9.846" id="Fill-525" fill="#231F20" mask="url(#mask-94)"></path>
                    </g>
                    <g id="Group-530">
                        <mask id="mask-96" fill="white">
                            <use xlink:href="#path-95"></use>
                        </mask>
                        <g id="Clip-529"></g>
                        <path d="M0.5386,9.9539 L17.4086,0.9979 C17.5766,1.0739 17.7336,1.1139 17.8796,1.1229 L1.0096,10.0779 C0.8626,10.0689 0.7036,10.0279 0.5386,9.9539" id="Fill-528" fill="#231F20" mask="url(#mask-96)"></path>
                    </g>
                    <g id="Group-533">
                        <mask id="mask-98" fill="white">
                            <use xlink:href="#path-97"></use>
                        </mask>
                        <g id="Clip-532"></g>
                        <path d="M1.0093,10.078 L17.8793,1.123 C18.0523,1.134 18.2073,1.101 18.3413,1.031 L1.4713,9.985 C1.3363,10.057 1.1803,10.089 1.0093,10.078" id="Fill-531" fill="#231F20" mask="url(#mask-98)"></path>
                    </g>
                </g>
                <g id="Group-544" stroke-width="1" fill-rule="evenodd" transform="translate(64.000000, 59.663000)">
                    <g id="Group-537">
                        <mask id="mask-100" fill="white">
                            <use xlink:href="#path-99"></use>
                        </mask>
                        <g id="Clip-536"></g>
                        <path d="M0.8882,9.4598 L17.7592,0.5048 C17.8942,0.4338 18.0492,0.4008 18.2192,0.4118 L1.3492,9.3678 C1.1762,9.3578 1.0242,9.3888 0.8882,9.4598" id="Fill-535" fill="#ABAEB0" mask="url(#mask-100)"></path>
                    </g>
                    <g id="Group-540">
                        <mask id="mask-102" fill="white">
                            <use xlink:href="#path-101"></use>
                        </mask>
                        <g id="Clip-539"></g>
                        <path d="M1.3492,9.3675 L18.2192,0.4115 C18.3652,0.4215 18.5242,0.4615 18.6892,0.5365 L1.8182,9.4905 C1.6522,9.4175 1.4942,9.3755 1.3492,9.3675" id="Fill-538" fill="#C6C7C9" mask="url(#mask-102)"></path>
                    </g>
                    <g id="Group-543">
                        <mask id="mask-104" fill="white">
                            <use xlink:href="#path-103"></use>
                        </mask>
                        <g id="Clip-542"></g>
                        <path d="M1.8179,9.4906 L18.6889,0.5366 C18.7579,0.5666 18.8279,0.6046 18.8999,0.6456 L2.0279,9.6016 C1.9569,9.5576 1.8849,9.5236 1.8179,9.4906" id="Fill-541" fill="#E0E1E2" mask="url(#mask-104)"></path>
                    </g>
                </g>
                <path d="M64.4087,68.2244 C70.0337,65.2394 75.6567,62.2534 81.2797,59.2684 C81.7027,59.0444 82.2717,59.0944 82.8987,59.4704 L66.0277,68.4264 C65.4007,68.0504 64.8327,68.0014 64.4087,68.2244" id="Fill-545" fill="#636466" fill-rule="evenodd"></path>
                <g id="Group-556" stroke-width="1" fill-rule="evenodd" transform="translate(64.000000, 58.663000)">
                    <g id="Group-549">
                        <mask id="mask-106" fill="white">
                            <use xlink:href="#path-105"></use>
                        </mask>
                        <g id="Clip-548"></g>
                        <path d="M0.4087,9.5614 L17.2797,0.6054 C17.4707,0.5054 17.6907,0.4594 17.9317,0.4754 L1.0617,9.4294 C0.8217,9.4144 0.5977,9.4594 0.4087,9.5614" id="Fill-547" fill="#636466" mask="url(#mask-106)"></path>
                    </g>
                    <g id="Group-552">
                        <mask id="mask-108" fill="white">
                            <use xlink:href="#path-107"></use>
                        </mask>
                        <g id="Clip-551"></g>
                        <path d="M1.062,9.429 L17.932,0.475 C18.141,0.487 18.364,0.545 18.6,0.651 L1.728,9.606 C1.494,9.5 1.271,9.444 1.062,9.429" id="Fill-550" fill="#898B8E" mask="url(#mask-108)"></path>
                    </g>
                    <g id="Group-555">
                        <mask id="mask-110" fill="white">
                            <use xlink:href="#path-109"></use>
                        </mask>
                        <g id="Clip-554"></g>
                        <path d="M1.7281,9.6063 L18.6001,0.6503 C18.6981,0.6943 18.7981,0.7473 18.8991,0.8073 L2.0281,9.7633 C1.9271,9.7033 1.8281,9.6503 1.7281,9.6063" id="Fill-553" fill="#989A9D" mask="url(#mask-110)"></path>
                    </g>
                </g>
                <g id="Group-559" stroke-width="1" fill-rule="evenodd" transform="translate(84.000000, 93.663000)">
                    <mask id="mask-112" fill="white">
                        <use xlink:href="#path-111"></use>
                    </mask>
                    <g id="Clip-558"></g>
                    <path d="M0.9839,10.0672 L17.8539,1.1122 C17.8079,1.5652 17.6219,1.8812 17.3409,2.0302 L0.4709,10.9852 C0.7489,10.8372 0.9369,10.5212 0.9839,10.0672" id="Fill-557" fill="#ABAEB0" mask="url(#mask-112)"></path>
                </g>
                <path d="M101.8189,96.593 L84.9479,105.549 C85.4069,105.304 85.6919,104.739 85.6949,103.921 L102.5649,94.967 C102.5649,95.783 102.2779,96.35 101.8189,96.593" id="Fill-560" fill="#626366" fill-rule="evenodd"></path>
                <g id="Group-568" stroke-width="1" fill-rule="evenodd" transform="translate(84.000000, 94.663000)">
                    <g id="Group-564">
                        <mask id="mask-114" fill="white">
                            <use xlink:href="#path-113"></use>
                        </mask>
                        <g id="Clip-563"></g>
                        <path d="M1.6949,9.2581 L18.5649,0.3031 C18.5649,0.4141 18.5589,0.5221 18.5489,0.6241 L1.6779,9.5791 C1.6879,9.4771 1.6949,9.3691 1.6949,9.2581" id="Fill-562" fill="#808184" mask="url(#mask-114)"></path>
                    </g>
                    <g id="Group-567">
                        <mask id="mask-116" fill="white">
                            <use xlink:href="#path-115"></use>
                        </mask>
                        <g id="Clip-566"></g>
                        <path d="M1.6783,9.5789 L18.5493,0.6239 C18.4843,1.2679 18.2143,1.7199 17.8193,1.9299 L0.9483,10.8859 C1.3443,10.6749 1.6103,10.2229 1.6783,9.5789" id="Fill-565" fill="#76787A" mask="url(#mask-116)"></path>
                    </g>
                </g>
                <g id="Group-577" stroke-width="1" fill-rule="evenodd" transform="translate(66.000000, 58.663000)">
                    <polygon id="Fill-569" fill="#DCDEDF" points="0.0279 10.6014 16.8999 1.6454 34.1849 12.0324 17.3129 20.9884"></polygon>
                    <polygon id="Fill-571" fill="#BDBFC1" points="18.98 23.9969 35.853 15.0409 35.866 35.8839 18.997 44.8389"></polygon>
                    <polygon id="Fill-573" fill="#B3B5B7" points="0.0279 9.763 16.8989 0.807 34.1849 11.193 17.3119 20.15"></polygon>
                    <polygon id="Fill-575" fill="#898B8E" points="19.6783 24.4163 36.5513 15.4613 36.5653 36.3033 19.6953 45.2583"></polygon>
                </g>
                <g id="Group-608" stroke-width="1" fill-rule="evenodd" transform="translate(83.000000, 70.663000)">
                    <g id="Group-580">
                        <mask id="mask-118" fill="white">
                            <use xlink:href="#path-117"></use>
                        </mask>
                        <g id="Clip-579"></g>
                        <path d="M0.313,8.9886 L17.185,0.0316 C17.276,0.0876 17.368,0.1506 17.456,0.2216 L0.583,9.1756 C0.496,9.1056 0.407,9.0426 0.313,8.9886" id="Fill-578" fill="#E0E1E2" mask="url(#mask-118)"></path>
                    </g>
                    <g id="Group-583">
                        <mask id="mask-120" fill="white">
                            <use xlink:href="#path-119"></use>
                        </mask>
                        <g id="Clip-582"></g>
                        <path d="M0.5826,9.1761 L17.4556,0.2211 C17.5676,0.3121 17.6776,0.4121 17.7816,0.5251 L0.9106,9.4801 C0.8066,9.3691 0.6966,9.2661 0.5826,9.1761" id="Fill-581" fill="#FEFEFE" mask="url(#mask-120)"></path>
                    </g>
                    <g id="Group-586">
                        <mask id="mask-122" fill="white">
                            <use xlink:href="#path-121"></use>
                        </mask>
                        <g id="Clip-585"></g>
                        <path d="M0.9107,9.4798 L17.7817,0.5248 C17.8477,0.5928 17.9127,0.6678 17.9727,0.7438 L1.1017,9.6988 C1.0407,9.6238 0.9757,9.5488 0.9107,9.4798" id="Fill-584" fill="#FEFEFE" mask="url(#mask-122)"></path>
                    </g>
                    <g id="Group-589">
                        <mask id="mask-124" fill="white">
                            <use xlink:href="#path-123"></use>
                        </mask>
                        <g id="Clip-588"></g>
                        <path d="M1.1021,9.6991 L17.9721,0.7441 C18.0341,0.8191 18.0901,0.8971 18.1461,0.9761 L1.2731,9.9321 C1.2191,9.8521 1.1631,9.7751 1.1021,9.6991" id="Fill-587" fill="#FEFEFE" mask="url(#mask-124)"></path>
                    </g>
                    <g id="Group-592">
                        <mask id="mask-126" fill="white">
                            <use xlink:href="#path-125"></use>
                        </mask>
                        <g id="Clip-591"></g>
                        <path d="M1.273,9.932 L18.146,0.976 C18.243,1.118 18.333,1.268 18.415,1.423 L1.542,10.379 C1.462,10.224 1.373,10.074 1.273,9.932" id="Fill-590" fill="#FEFEFE" mask="url(#mask-126)"></path>
                    </g>
                    <g id="Group-595">
                        <mask id="mask-128" fill="white">
                            <use xlink:href="#path-127"></use>
                        </mask>
                        <g id="Clip-594"></g>
                        <path d="M1.5415,10.3787 L18.4145,1.4227 C18.4575,1.5047 18.4985,1.5887 18.5355,1.6777 L1.6655,10.6307 C1.6265,10.5457 1.5875,10.4617 1.5415,10.3787" id="Fill-593" fill="#FEFEFE" mask="url(#mask-128)"></path>
                    </g>
                    <g id="Group-598">
                        <mask id="mask-130" fill="white">
                            <use xlink:href="#path-129"></use>
                        </mask>
                        <g id="Clip-597"></g>
                        <path d="M1.6656,10.6312 L18.5356,1.6772 C18.5696,1.7532 18.6026,1.8292 18.6286,1.9072 L1.7586,10.8612 C1.7286,10.7852 1.6976,10.7082 1.6656,10.6312" id="Fill-596" fill="#FEFEFE" mask="url(#mask-130)"></path>
                    </g>
                    <g id="Group-601">
                        <mask id="mask-132" fill="white">
                            <use xlink:href="#path-131"></use>
                        </mask>
                        <g id="Clip-600"></g>
                        <path d="M1.7583,10.8616 L18.6283,1.9066 C18.6663,2.0056 18.6973,2.1056 18.7283,2.2056 L1.8573,11.1616 C1.8283,11.0606 1.7953,10.9606 1.7583,10.8616" id="Fill-599" fill="#FEFEFE" mask="url(#mask-132)"></path>
                    </g>
                    <g id="Group-604">
                        <mask id="mask-134" fill="white">
                            <use xlink:href="#path-133"></use>
                        </mask>
                        <g id="Clip-603"></g>
                        <path d="M1.857,11.1615 L18.728,2.2055 C18.773,2.3715 18.808,2.5355 18.829,2.6945 L1.958,11.6495 C1.937,11.4885 1.903,11.3245 1.857,11.1615" id="Fill-602" fill="#E0E1E2" mask="url(#mask-134)"></path>
                    </g>
                    <g id="Group-607">
                        <mask id="mask-136" fill="white">
                            <use xlink:href="#path-135"></use>
                        </mask>
                        <g id="Clip-606"></g>
                        <path d="M1.9576,11.6497 L18.8286,2.6947 C18.8446,2.8117 18.8516,2.9277 18.8536,3.0407 L1.9796,11.9967 C1.9796,11.8827 1.9736,11.7677 1.9576,11.6497" id="Fill-605" fill="#C6C7C9" mask="url(#mask-136)"></path>
                    </g>
                </g>
                <g id="Group-613" stroke-width="1" fill-rule="evenodd" transform="translate(63.000000, 67.663000)">
                    <path d="M21.9966,35.8387 L21.9796,14.9967 C21.9796,13.8857 21.2356,12.5417 20.3126,11.9887 L3.0276,1.6017 C2.1066,1.0487 1.3636,1.4997 1.3636,2.6097 L1.3796,23.4507 C1.3796,24.5577 2.1246,25.9027 3.0466,26.4597 L20.3316,36.8457 C21.2526,37.3977 21.9966,36.9457 21.9966,35.8387 Z M20.3116,11.1497 C21.6196,11.9337 22.6756,13.8387 22.6786,15.4167 L22.6946,36.2577 C22.6916,37.8287 21.6386,38.4707 20.3316,37.6857 L3.0476,27.2987 C1.7406,26.5137 0.6826,24.6027 0.6796,23.0327 L0.6656,2.1897 C0.6646,0.6147 1.7226,-0.0213 3.0276,0.7627 L20.3116,11.1497 Z" id="Fill-609" fill="#636466"></path>
                    <path d="M20.313,11.9886 C21.236,12.5416 21.98,13.8856 21.98,14.9966 L21.997,35.8386 C21.997,36.9456 21.252,37.3976 20.332,36.8456 L3.046,26.4596 C2.125,25.9026 1.379,24.5576 1.379,23.4506 L1.364,2.6096 C1.364,1.4996 2.107,1.0496 3.028,1.6016 L20.313,11.9886 Z" id="Fill-611" fill="#F5F6F6"></path>
                </g>
                <g id="Group-644" stroke-width="1" fill-rule="evenodd" transform="translate(83.000000, 69.663000)">
                    <g id="Group-616">
                        <mask id="mask-138" fill="white">
                            <use xlink:href="#path-137"></use>
                        </mask>
                        <g id="Clip-615"></g>
                        <path d="M0.312,9.1497 L17.185,0.1927 C17.315,0.2717 17.441,0.3617 17.567,0.4617 L0.696,9.4167 C0.571,9.3157 0.443,9.2287 0.312,9.1497" id="Fill-614" fill="#B3B5B7" mask="url(#mask-138)"></path>
                    </g>
                    <g id="Group-619">
                        <mask id="mask-140" fill="white">
                            <use xlink:href="#path-139"></use>
                        </mask>
                        <g id="Clip-618"></g>
                        <path d="M0.6958,9.4163 L17.5668,0.4613 C17.7268,0.5883 17.8828,0.7333 18.0308,0.8903 L1.1598,9.8463 C1.0108,9.6893 0.8568,9.5443 0.6958,9.4163" id="Fill-617" fill="#B3B5B7" mask="url(#mask-140)"></path>
                    </g>
                    <g id="Group-622">
                        <mask id="mask-142" fill="white">
                            <use xlink:href="#path-141"></use>
                        </mask>
                        <g id="Clip-621"></g>
                        <path d="M1.1597,9.846 L18.0307,0.89 C18.1237,0.99 18.2167,1.095 18.3027,1.202 L1.4307,10.159 C1.3437,10.05 1.2537,9.945 1.1597,9.846" id="Fill-620" fill="#BBBDBF" mask="url(#mask-142)"></path>
                    </g>
                    <g id="Group-625">
                        <mask id="mask-144" fill="white">
                            <use xlink:href="#path-143"></use>
                        </mask>
                        <g id="Clip-624"></g>
                        <path d="M1.4312,10.1595 L18.3022,1.2025 C18.3872,1.3085 18.4682,1.4195 18.5472,1.5325 L1.6752,10.4875 C1.5972,10.3745 1.5172,10.2655 1.4312,10.1595" id="Fill-623" fill="#D2D4D5" mask="url(#mask-144)"></path>
                    </g>
                    <g id="Group-628">
                        <mask id="mask-146" fill="white">
                            <use xlink:href="#path-145"></use>
                        </mask>
                        <g id="Clip-627"></g>
                        <path d="M1.6753,10.4876 L18.5473,1.5326 C18.6863,1.7346 18.8143,1.9466 18.9283,2.1676 L2.0583,11.1226 C1.9443,10.9026 1.8153,10.6896 1.6753,10.4876" id="Fill-626" fill="#E1E2E3" mask="url(#mask-146)"></path>
                    </g>
                    <g id="Group-631">
                        <mask id="mask-148" fill="white">
                            <use xlink:href="#path-147"></use>
                        </mask>
                        <g id="Clip-630"></g>
                        <path d="M2.0581,11.1229 L18.9281,2.1669 C18.9901,2.2849 19.0471,2.4049 19.1021,2.5259 L2.2291,11.4809 C2.1761,11.3589 2.1201,11.2399 2.0581,11.1229" id="Fill-629" fill="#D2D4D5" mask="url(#mask-148)"></path>
                    </g>
                    <g id="Group-634">
                        <mask id="mask-150" fill="white">
                            <use xlink:href="#path-149"></use>
                        </mask>
                        <g id="Clip-633"></g>
                        <path d="M2.229,11.4813 L19.102,2.5253 C19.149,2.6333 19.192,2.7433 19.234,2.8513 L2.364,11.8093 C2.324,11.6973 2.278,11.5883 2.229,11.4813" id="Fill-632" fill="#B3B5B7" mask="url(#mask-150)"></path>
                    </g>
                    <g id="Group-637">
                        <mask id="mask-152" fill="white">
                            <use xlink:href="#path-151"></use>
                        </mask>
                        <g id="Clip-636"></g>
                        <path d="M2.3638,11.8089 L19.2338,2.8509 C19.2878,2.9949 19.3338,3.1379 19.3738,3.2809 L2.5038,12.2349 C2.4638,12.0929 2.4168,11.9499 2.3638,11.8089" id="Fill-635" fill="#898B8E" mask="url(#mask-152)"></path>
                    </g>
                    <g id="Group-640">
                        <mask id="mask-154" fill="white">
                            <use xlink:href="#path-153"></use>
                        </mask>
                        <g id="Clip-639"></g>
                        <path d="M2.5034,12.2347 L19.3734,3.2807 C19.4404,3.5117 19.4894,3.7457 19.5174,3.9747 L2.6464,12.9297 C2.6164,12.7007 2.5674,12.4687 2.5034,12.2347" id="Fill-638" fill="#898B8E" mask="url(#mask-154)"></path>
                    </g>
                    <g id="Group-643">
                        <mask id="mask-156" fill="white">
                            <use xlink:href="#path-155"></use>
                        </mask>
                        <g id="Clip-642"></g>
                        <path d="M2.646,12.93 L19.517,3.974 C19.539,4.138 19.549,4.302 19.551,4.462 L2.678,13.416 C2.678,13.257 2.667,13.095 2.646,12.93" id="Fill-641" fill="#898B8E" mask="url(#mask-156)"></path>
                    </g>
                </g>
                <g id="Group-655" stroke-width="1" fill-rule="evenodd" transform="translate(65.000000, 75.663000)">
                    <path d="M11.5835,11.9998 C11.5835,13.4788 10.5225,14.0398 9.2155,13.2548 C7.9085,12.4678 6.8475,10.6318 6.8475,9.1528 C6.8475,7.6728 7.9085,7.1108 9.2155,7.8978 C10.5225,8.6838 11.5835,10.5208 11.5835,11.9998" id="Fill-645" fill="#626366"></path>
                    <path d="M9.2115,11.7196 L9.2115,21.3846" id="Stroke-647" stroke="#626366" stroke-width="1.854" stroke-linecap="round" stroke-linejoin="round"></path>
                    <path d="M10.5962,10.743 C10.5962,11.09 10.3472,11.222 10.0382,11.037 C9.7332,10.854 9.4852,10.423 9.4852,10.076 C9.4852,9.729 9.7332,9.597 10.0382,9.781 C10.3472,9.967 10.5962,10.396 10.5962,10.743" id="Fill-649" fill="#FEFEFE"></path>
                    <path d="M15.0913,14.2752 C14.6733,10.7352 12.1773,6.7042 9.1533,4.8852 C6.1613,3.0882 3.6883,4.0782 3.2313,7.0392" id="Stroke-651" stroke="#626366" stroke-width="1.246" stroke-linecap="round" stroke-linejoin="round"></path>
                    <path d="M17.7193,13.4593 C17.6473,13.1793 17.5673,12.8973 17.4793,12.6153 C16.1283,8.2163 12.9873,3.8133 9.3233,1.6093 C5.4523,-0.7157 2.1693,0.1113 0.9563,3.2903" id="Stroke-653" stroke="#626366" stroke-width="1.246" stroke-linecap="round" stroke-linejoin="round"></path>
                </g>
            </g>
        </g>
    </g>
</svg>