<?xml version="1.0" encoding="utf-8"?>
<svg version="1.1"
	 id="Layer_1" xmlns:cc="http://creativecommons.org/ns#" xmlns:dc="http://purl.org/dc/elements/1.1/" xmlns:rdf="http://www.w3.org/1999/02/22-rdf-syntax-ns#" xmlns:svg="http://www.w3.org/2000/svg"
	 xmlns="http://www.w3.org/2000/svg" xmlns:xlink="http://www.w3.org/1999/xlink" x="0px" y="0px" viewBox="0 0 106.016 107.776"
	 style="enable-background:new 0 0 106.016 107.776;" xml:space="preserve">
<style type="text/css">
	.st0{fill:none;stroke:#626366;stroke-width:3;stroke-linejoin:round;}
	.st1{fill:#898B8E;}
	.st2{fill:#BBBDBF;}
	.st3{fill:#B3B5B7;}
	.st4{fill:none;stroke:#E1E2E3;stroke-linecap:round;stroke-linejoin:round;}
	.st5{fill:none;stroke:#626366;stroke-width:2.668;stroke-linecap:round;stroke-linejoin:round;}
	.st6{fill:#FEFEFE;}
	.st7{fill:#C4CACE;}
	.st8{fill:none;stroke:#636466;stroke-width:1.156;}
	.st9{fill:none;stroke:#E1E2E3;stroke-width:0.889;stroke-linecap:round;stroke-linejoin:round;}
	.st10{fill:none;stroke:#636466;stroke-width:1.29;}
	.st11{fill:none;stroke:#626366;stroke-width:3;stroke-linecap:round;stroke-linejoin:round;}
	.st12{fill:#E1E2E3;}
	.st13{fill:#231F20;}
	.st14{fill:#626366;}
	.st15{fill:none;stroke:#636466;stroke-width:2;stroke-linecap:round;stroke-linejoin:round;}
	.st16{fill:#636466;stroke:#636466;stroke-width:2;stroke-linecap:round;stroke-linejoin:round;}
	.st17{fill:none;stroke:#636466;stroke-width:2;}
	.st18{fill:#636466;}
	.st19{fill:#F5F6F6;}
	.st20{fill:#787A7D;}
	.st21{fill:none;stroke:#626366;stroke-width:1.854;stroke-linecap:round;stroke-linejoin:round;}
	.st22{fill:none;stroke:#626366;stroke-width:1.246;stroke-linecap:round;stroke-linejoin:round;}
</style>
<title  id="title4">icon-PC-wireless</title>
<desc  id="desc6">Created with Sketch.</desc>
<polygon id="Stroke-1" class="st0" points="50.348,82.546 62.057,76.331 62.06,79.628 50.35,85.845 "/>
<polygon id="Stroke-2" class="st0" points="20.449,64.581 32.158,58.366 62.057,76.331 50.348,82.546 "/>
<polygon id="Stroke-3" class="st0" points="50.348,82.546 50.35,85.845 20.451,67.878 20.449,64.581 "/>
<polygon id="Fill-4" class="st1" points="50.348,82.546 62.057,76.331 62.06,79.628 50.35,85.845 "/>
<polygon id="Fill-5" class="st2" points="20.449,64.581 32.158,58.366 62.057,76.331 50.348,82.546 "/>
<polygon id="Fill-6" class="st3" points="50.348,82.546 50.35,85.845 20.451,67.878 20.449,64.581 "/>
<polyline id="Stroke-7" class="st4" points="20.691,64.614 50.101,82.284 50.101,85.489 "/>
<polygon id="Stroke-8" class="st5" points="69.045,36.831 74.23,34.078 74.267,84.856 69.079,87.61 "/>
<polygon id="Stroke-9" class="st5" points="14.549,4.088 19.736,1.334 74.23,34.078 69.044,36.831 "/>
<polygon id="Stroke-11" class="st5" points="69.044,36.831 69.079,87.61 14.586,54.866 14.549,4.088 "/>
<polygon id="Fill-14" class="st1" points="69.043,36.831 74.229,34.078 74.266,84.856 69.079,87.61 "/>
<polygon id="Fill-15" class="st2" points="14.549,4.088 19.735,1.334 74.23,34.078 69.042,36.831 "/>
<polygon id="Fill-16" class="st3" points="69.043,36.831 69.079,87.61 14.585,54.866 14.55,4.088 "/>
<polygon id="Fill-17" class="st6" points="66.191,81.903 16.526,51.698 16.526,8.783 66.191,38.985 "/>
<path id="Fill-18" class="st7" d="M47.764,30.581l16.483,9.902l0.092,9.216c0,0-0.293-6.608-5.193-10.75
	C52.89,33.663,47.764,30.581,47.764,30.581"/>
<path id="Stroke-20" class="st8" d="M15.184,55.915l53.89,32.379"/>
<polyline id="Stroke-22" class="st9" points="15.008,4.258 69.023,36.713 69.06,87.178 "/>
<path id="Stroke-24" class="st10" d="M74.906,68.106v13.342"/>
<path id="Stroke-26" class="st11" d="M49.556,94.163c0,0,1.375-0.734,2.5-0.766c1.125-0.031,2.516,0.641,2.516,0.641
	s1.375,0.734,2.046,1.437c0.672,0.704,0.719,0.985,0.766,1.235c0.047,0.25,0.031,0.828-0.047,0.953s-7.75,4.094-7.75,4.094
	s-0.453,0.203-1.187,0.093c-0.735-0.109-2-1-2.407-1.578c-0.406-0.578-0.375-1.468-0.375-1.468s0.016-1.047,1.391-2.61
	C47.915,95.1,49.556,94.163,49.556,94.163z"/>
<path id="Fill-28" class="st2" d="M49.556,94.163c0,0,1.375-0.734,2.5-0.766c1.125-0.031,2.516,0.641,2.516,0.641
	s1.377,0.734,2.046,1.437c0.672,0.704,0.719,0.985,0.766,1.235c0.047,0.25,0.031,0.828-0.047,0.953s-7.75,4.094-7.75,4.094
	s-0.453,0.203-1.187,0.093c-0.735-0.109-2-1-2.407-1.578c-0.406-0.578-0.375-1.468-0.375-1.468s0.016-1.047,1.391-2.61
	C47.915,95.1,49.556,94.163,49.556,94.163"/>
<path id="Fill-30" class="st1" d="M49.757,101.452c0.012-0.09,0.889-2.551,3.768-4.107c2.884-1.518,3.548,0.121,3.49-0.223
	l-0.006,0.547c-2.078,1.109-5.115,2.728-7.191,3.836"/>
<path id="Fill-32" class="st3" d="M47.462,99.889c0.187-0.75,1.266-2.391,1.992-3.141c0.727-0.75,1.36-1.242,2.461-1.804
	c1.102-0.563,2.438-0.985,3.094-0.657c0.656,0.329,1.57,1.149,1.945,1.641s0.281,1.008,0.281,1.008s-1.382-0.469-2.203-0.188
	c-0.82,0.282-2.133,0.938-2.976,1.758c-0.844,0.821-1.172,1.899-1.758,2.578c-0.586,0.68-1.711,0.774-1.711,0.774
	s-1.148-0.235-1.266-0.446C47.204,101.201,47.275,100.639,47.462,99.889"/>
<path id="Fill-34" class="st12" d="M49.369,97.247l-0.504-0.303c-0.918,0.996-1.445,1.975-1.699,2.524l0.506,0.302
	C47.924,99.222,48.453,98.241,49.369,97.247"/>
<polygon id="Stroke-36" class="st0" points="31.4,94.478 43.109,88.263 43.111,91.56 31.402,97.777 "/>
<polygon id="Stroke-38" class="st0" points="1.5,76.514 13.209,70.297 43.109,88.263 31.4,94.478 "/>
<polygon id="Stroke-40" class="st0" points="31.4,94.478 31.402,97.777 1.502,79.811 1.5,76.514 "/>
<polygon id="Fill-42" class="st1" points="31.4,94.478 43.109,88.263 43.111,91.56 31.402,97.777 "/>
<polygon id="Fill-44" class="st2" points="1.5,76.514 13.209,70.297 43.109,88.263 31.4,94.478 "/>
<polygon id="Fill-46" class="st3" points="31.4,94.478 31.402,97.777 1.502,79.811 1.5,76.514 "/>
<polygon id="Fill-48" class="st13" points="8.657,76.167 10.115,75.394 10.115,75.675 8.657,76.45 "/>
<polygon id="Fill-50" class="st6" points="7.4,75.411 8.858,74.638 10.115,75.393 8.657,76.167 "/>
<polygon id="Fill-52" class="st14" points="8.657,76.167 8.657,76.45 7.4,75.694 7.4,75.411 "/>
<polygon id="Fill-54" class="st13" points="10.518,77.284 11.976,76.511 11.976,76.794 10.518,77.567 "/>
<polygon id="Fill-56" class="st6" points="9.261,76.53 10.719,75.755 11.976,76.51 10.518,77.284 "/>
<polygon id="Fill-58" class="st14" points="10.518,77.284 10.518,77.567 9.261,76.811 9.261,76.53 "/>
<polygon id="Fill-60" class="st13" points="12.471,78.458 13.928,77.685 13.929,77.968 12.471,78.741 "/>
<polygon id="Fill-62" class="st6" points="11.214,77.702 12.672,76.929 13.928,77.684 12.471,78.458 "/>
<polygon id="Fill-64" class="st14" points="12.471,78.458 12.471,78.741 11.214,77.985 11.214,77.702 "/>
<polygon id="Fill-66" class="st13" points="14.338,79.581 15.795,78.806 15.796,79.089 14.338,79.862 "/>
<polygon id="Fill-68" class="st6" points="13.081,78.825 14.539,78.052 15.795,78.805 14.338,79.581 "/>
<polygon id="Fill-70" class="st14" points="14.338,79.581 14.338,79.862 13.081,79.108 13.081,78.825 "/>
<polygon id="Fill-72" class="st13" points="16.266,80.739 17.724,79.964 17.724,80.247 16.266,81.02 "/>
<polygon id="Fill-74" class="st6" points="15.009,79.983 16.467,79.21 17.724,79.963 16.266,80.739 "/>
<polygon id="Fill-76" class="st14" points="16.266,80.739 16.266,81.02 15.009,80.266 15.009,79.983 "/>
<polygon id="Fill-78" class="st13" points="18.132,81.86 19.591,81.087 19.591,81.368 18.132,82.143 "/>
<polygon id="Fill-80" class="st6" points="16.869,81.1 18.328,80.327 19.592,81.086 18.133,81.86 "/>
<polygon id="Fill-82" class="st14" points="18.132,81.86 18.132,82.143 16.868,81.383 16.868,81.1 "/>
<polygon id="Fill-84" class="st13" points="20.086,83.034 21.542,82.261 21.545,82.542 20.086,83.315 "/>
<polygon id="Fill-86" class="st6" points="18.828,82.278 20.287,81.505 21.543,82.26 20.086,83.034 "/>
<polygon id="Fill-88" class="st14" points="20.086,83.034 20.086,83.315 18.83,82.561 18.827,82.278 "/>
<polygon id="Fill-90" class="st13" points="21.947,84.151 23.404,83.378 23.404,83.661 21.947,84.434 "/>
<polygon id="Fill-92" class="st6" points="20.689,83.397 22.146,82.622 23.404,83.377 21.947,84.151 "/>
<polygon id="Fill-94" class="st14" points="21.947,84.151 21.947,84.434 20.689,83.678 20.689,83.397 "/>
<polygon id="Fill-96" class="st13" points="23.777,85.252 25.234,84.478 25.234,84.761 23.777,85.533 "/>
<polygon id="Fill-98" class="st6" points="22.519,84.497 23.978,83.722 25.234,84.477 23.777,85.252 "/>
<polygon id="Fill-100" class="st14" points="23.777,85.252 23.777,85.533 22.519,84.778 22.519,84.497 "/>
<polygon id="Fill-102" class="st13" points="25.636,86.369 27.095,85.596 27.095,85.877 25.636,86.652 "/>
<polygon id="Fill-104" class="st6" points="24.38,85.613 25.837,84.841 27.095,85.595 25.636,86.369 "/>
<polygon id="Fill-106" class="st14" points="25.636,86.369 25.636,86.652 24.38,85.896 24.38,85.613 "/>
<polygon id="Fill-108" class="st13" points="27.589,87.543 29.048,86.768 29.048,87.051 27.589,87.824 "/>
<polygon id="Fill-110" class="st6" points="26.333,86.787 27.791,86.014 29.049,86.767 27.59,87.543 "/>
<polygon id="Fill-112" class="st14" points="27.589,87.543 27.589,87.824 26.333,87.07 26.333,86.787 "/>
<polygon id="Fill-114" class="st13" points="29.457,88.664 30.916,87.891 30.916,88.174 29.457,88.947 "/>
<polygon id="Fill-116" class="st6" points="28.201,87.908 29.658,87.135 30.916,87.89 29.457,88.664 "/>
<polygon id="Fill-118" class="st14" points="29.457,88.664 29.457,88.947 28.201,88.191 28.201,87.908 "/>
<polygon id="Fill-120" class="st13" points="31.384,89.822 32.843,89.049 32.843,89.332 31.384,90.105 "/>
<polygon id="Fill-122" class="st6" points="30.128,89.068 31.585,88.293 32.843,89.048 31.384,89.822 "/>
<polygon id="Fill-124" class="st14" points="31.384,89.822 31.384,90.105 30.128,89.349 30.128,89.068 "/>
<polygon id="Fill-126" class="st13" points="33.208,90.918 34.666,90.145 34.667,90.428 33.208,91.201 "/>
<polygon id="Fill-128" class="st6" points="31.951,90.164 33.41,89.389 34.666,90.144 33.209,90.918 "/>
<polygon id="Fill-130" class="st14" points="33.208,90.918 33.208,91.201 31.952,90.445 31.951,90.164 "/>
<polygon id="Fill-132" class="st13" points="10.657,75.042 12.115,74.269 12.115,74.55 10.657,75.325 "/>
<polygon id="Fill-134" class="st6" points="9.4,74.286 10.858,73.513 12.115,74.268 10.657,75.042 "/>
<polygon id="Fill-136" class="st14" points="10.657,75.042 10.657,75.325 9.4,74.569 9.4,74.286 "/>
<polygon id="Fill-138" class="st13" points="12.518,76.159 13.976,75.386 13.976,75.669 12.518,76.442 "/>
<polygon id="Fill-140" class="st6" points="11.261,75.405 12.719,74.63 13.976,75.385 12.518,76.159 "/>
<polygon id="Fill-142" class="st14" points="12.518,76.159 12.518,76.442 11.261,75.686 11.261,75.405 "/>
<polygon id="Fill-144" class="st13" points="14.471,77.333 15.928,76.56 15.929,76.843 14.471,77.616 "/>
<polygon id="Fill-146" class="st6" points="13.214,76.577 14.672,75.804 15.928,76.559 14.471,77.333 "/>
<polygon id="Fill-148" class="st14" points="14.471,77.333 14.471,77.616 13.214,76.86 13.214,76.577 "/>
<polygon id="Fill-150" class="st13" points="16.337,78.456 17.794,77.681 17.796,77.964 16.337,78.737 "/>
<polygon id="Fill-152" class="st6" points="15.081,77.7 16.539,76.927 17.794,77.68 16.337,78.456 "/>
<polygon id="Fill-154" class="st14" points="16.337,78.456 16.337,78.737 15.081,77.983 15.081,77.7 "/>
<polygon id="Fill-156" class="st13" points="18.265,79.614 19.724,78.839 19.724,79.122 18.265,79.895 "/>
<polygon id="Fill-158" class="st6" points="17.009,78.858 18.466,78.085 19.724,78.838 18.265,79.614 "/>
<polygon id="Fill-160" class="st14" points="18.265,79.614 18.265,79.895 17.009,79.141 17.009,78.858 "/>
<polygon id="Fill-162" class="st13" points="20.132,80.735 21.591,79.962 21.591,80.243 20.132,81.018 "/>
<polygon id="Fill-164" class="st6" points="18.869,79.975 20.328,79.202 21.592,79.961 20.133,80.735 "/>
<polygon id="Fill-166" class="st14" points="20.132,80.735 20.132,81.018 18.868,80.258 18.868,79.975 "/>
<polygon id="Fill-168" class="st13" points="22.086,81.909 23.542,81.136 23.545,81.417 22.086,82.19 "/>
<polygon id="Fill-170" class="st6" points="20.828,81.153 22.287,80.38 23.543,81.135 22.086,81.909 "/>
<polygon id="Fill-172" class="st14" points="22.086,81.909 22.086,82.19 20.83,81.436 20.827,81.153 "/>
<polygon id="Fill-174" class="st13" points="23.947,83.026 25.404,82.253 25.404,82.536 23.947,83.309 "/>
<polygon id="Fill-176" class="st6" points="22.689,82.272 24.146,81.497 25.404,82.252 23.947,83.026 "/>
<polygon id="Fill-178" class="st14" points="23.947,83.026 23.947,83.309 22.689,82.553 22.689,82.272 "/>
<polygon id="Fill-180" class="st13" points="25.777,84.126 27.234,83.353 27.234,83.636 25.777,84.409 "/>
<polygon id="Fill-182" class="st6" points="24.519,83.372 25.978,82.597 27.234,83.352 25.777,84.126 "/>
<polygon id="Fill-184" class="st14" points="25.777,84.126 25.777,84.409 24.519,83.653 24.519,83.372 "/>
<polygon id="Fill-186" class="st13" points="27.636,85.244 29.095,84.47 29.095,84.753 27.636,85.527 "/>
<polygon id="Fill-188" class="st6" points="26.38,84.489 27.837,83.716 29.095,84.469 27.636,85.244 "/>
<polygon id="Fill-190" class="st14" points="27.636,85.244 27.636,85.527 26.38,84.772 26.38,84.489 "/>
<polygon id="Fill-192" class="st13" points="29.589,86.418 31.048,85.643 31.048,85.926 29.589,86.699 "/>
<polygon id="Fill-194" class="st6" points="28.333,85.662 29.791,84.89 31.049,85.642 29.59,86.418 "/>
<polygon id="Fill-196" class="st14" points="29.589,86.418 29.589,86.699 28.333,85.945 28.333,85.662 "/>
<polygon id="Fill-198" class="st13" points="31.457,87.539 32.916,86.766 32.916,87.049 31.457,87.822 "/>
<polygon id="Fill-200" class="st6" points="30.201,86.783 31.658,86.01 32.916,86.765 31.457,87.539 "/>
<polygon id="Fill-202" class="st14" points="31.457,87.539 31.457,87.822 30.201,87.066 30.201,86.783 "/>
<polygon id="Fill-204" class="st13" points="33.384,88.697 34.843,87.924 34.843,88.207 33.384,88.98 "/>
<polygon id="Fill-206" class="st6" points="32.128,87.943 33.585,87.168 34.843,87.923 33.384,88.697 "/>
<polygon id="Fill-208" class="st14" points="33.384,88.697 33.384,88.98 32.128,88.224 32.128,87.943 "/>
<polygon id="Fill-210" class="st13" points="35.208,89.793 36.666,89.02 36.667,89.303 35.208,90.076 "/>
<polygon id="Fill-212" class="st6" points="33.951,89.039 35.41,88.264 36.666,89.019 35.209,89.793 "/>
<polygon id="Fill-214" class="st14" points="35.208,89.793 35.208,90.076 33.952,89.32 33.951,89.039 "/>
<polygon id="Fill-216" class="st13" points="12.782,73.917 14.24,73.144 14.24,73.425 12.782,74.2 "/>
<polygon id="Fill-218" class="st6" points="11.525,73.161 12.983,72.388 14.24,73.143 12.782,73.917 "/>
<polygon id="Fill-220" class="st14" points="12.782,73.917 12.782,74.2 11.525,73.444 11.525,73.161 "/>
<polygon id="Fill-222" class="st13" points="14.643,75.034 16.101,74.261 16.101,74.544 14.643,75.317 "/>
<polygon id="Fill-224" class="st6" points="13.386,74.28 14.844,73.505 16.101,74.26 14.643,75.034 "/>
<polygon id="Fill-226" class="st14" points="14.643,75.034 14.643,75.317 13.386,74.561 13.386,74.28 "/>
<polygon id="Fill-228" class="st13" points="16.595,76.208 18.052,75.435 18.054,75.718 16.595,76.491 "/>
<polygon id="Fill-230" class="st6" points="15.339,75.452 16.797,74.679 18.052,75.434 16.595,76.208 "/>
<polygon id="Fill-232" class="st14" points="16.595,76.208 16.595,76.491 15.339,75.735 15.339,75.452 "/>
<polygon id="Fill-234" class="st13" points="18.462,77.331 19.919,76.556 19.921,76.839 18.462,77.612 "/>
<polygon id="Fill-236" class="st6" points="17.207,76.575 18.664,75.802 19.92,76.555 18.463,77.331 "/>
<polygon id="Fill-238" class="st14" points="18.462,77.331 18.462,77.612 17.206,76.858 17.206,76.575 "/>
<polygon id="Fill-240" class="st13" points="20.39,78.489 21.849,77.714 21.849,77.997 20.39,78.77 "/>
<polygon id="Fill-242" class="st6" points="19.134,77.733 20.591,76.96 21.849,77.713 20.39,78.489 "/>
<polygon id="Fill-244" class="st14" points="20.39,78.489 20.39,78.77 19.134,78.016 19.134,77.733 "/>
<polygon id="Fill-246" class="st13" points="22.257,79.61 23.716,78.837 23.716,79.118 22.257,79.893 "/>
<polygon id="Fill-248" class="st6" points="20.994,78.85 22.453,78.077 23.717,78.836 22.258,79.61 "/>
<polygon id="Fill-250" class="st14" points="22.257,79.61 22.257,79.893 20.993,79.133 20.993,78.85 "/>
<polygon id="Fill-252" class="st13" points="24.211,80.784 25.667,80.011 25.67,80.292 24.211,81.065 "/>
<polygon id="Fill-254" class="st6" points="22.953,80.028 24.412,79.255 25.668,80.01 24.211,80.784 "/>
<polygon id="Fill-256" class="st14" points="24.211,80.784 24.211,81.065 22.955,80.311 22.952,80.028 "/>
<polygon id="Fill-258" class="st13" points="26.072,81.901 27.529,81.128 27.529,81.411 26.072,82.184 "/>
<polygon id="Fill-260" class="st6" points="24.814,81.147 26.271,80.372 27.529,81.127 26.072,81.901 "/>
<polygon id="Fill-262" class="st14" points="26.072,81.901 26.072,82.184 24.814,81.428 24.814,81.147 "/>
<polygon id="Fill-264" class="st13" points="27.902,83.001 29.359,82.228 29.359,82.511 27.902,83.284 "/>
<polygon id="Fill-266" class="st6" points="26.644,82.247 28.103,81.472 29.359,82.227 27.902,83.001 "/>
<polygon id="Fill-268" class="st14" points="27.902,83.001 27.902,83.284 26.644,82.528 26.644,82.247 "/>
<polygon id="Fill-270" class="st13" points="29.761,84.12 31.22,83.345 31.22,83.628 29.761,84.401 "/>
<polygon id="Fill-272" class="st6" points="28.505,83.364 29.962,82.591 31.22,83.344 29.761,84.12 "/>
<polygon id="Fill-274" class="st14" points="29.761,84.12 29.761,84.401 28.505,83.647 28.505,83.364 "/>
<polygon id="Fill-276" class="st13" points="31.714,85.293 33.173,84.519 33.173,84.802 31.714,85.574 "/>
<polygon id="Fill-278" class="st6" points="30.458,84.538 31.916,83.765 33.174,84.518 31.715,85.293 "/>
<polygon id="Fill-280" class="st14" points="31.714,85.293 31.714,85.574 30.458,84.819 30.458,84.538 "/>
<polygon id="Fill-282" class="st13" points="33.582,86.414 35.041,85.641 35.041,85.924 33.582,86.697 "/>
<polygon id="Fill-284" class="st6" points="32.326,85.658 33.783,84.886 35.041,85.64 33.582,86.414 "/>
<polygon id="Fill-286" class="st14" points="33.582,86.414 33.582,86.697 32.326,85.941 32.326,85.658 "/>
<polygon id="Fill-288" class="st13" points="35.509,87.572 36.968,86.799 36.968,87.082 35.509,87.855 "/>
<polygon id="Fill-290" class="st6" points="34.253,86.818 35.71,86.043 36.968,86.798 35.509,87.572 "/>
<polygon id="Fill-292" class="st14" points="35.509,87.572 35.509,87.855 34.253,87.099 34.253,86.818 "/>
<polygon id="Fill-294" class="st13" points="37.333,88.668 38.791,87.895 38.792,88.178 37.333,88.951 "/>
<polygon id="Fill-296" class="st6" points="36.076,87.914 37.535,87.139 38.791,87.894 37.334,88.668 "/>
<polygon id="Fill-298" class="st14" points="37.333,88.668 37.333,88.951 36.077,88.195 36.076,87.914 "/>
<polygon id="Fill-300" class="st13" points="7.266,77.845 8.724,77.07 8.724,77.345 7.266,78.117 "/>
<polygon id="Fill-302" class="st6" points="6.008,77.089 7.466,76.316 8.724,77.069 7.266,77.845 "/>
<polygon id="Fill-304" class="st14" points="7.266,77.845 7.266,78.117 6.009,77.363 6.008,77.088 "/>
<polygon id="Fill-306" class="st13" points="9.034,78.907 10.492,78.132 10.492,78.407 9.034,79.18 "/>
<polygon id="Fill-308" class="st6" points="7.777,78.151 9.235,77.378 10.492,78.131 9.034,78.907 "/>
<polygon id="Fill-310" class="st14" points="9.034,78.907 9.034,79.18 7.777,78.427 7.777,78.151 "/>
<polygon id="Fill-312" class="st13" points="10.895,80.024 12.353,79.251 12.353,79.524 10.895,80.299 "/>
<polygon id="Fill-314" class="st6" points="9.638,79.268 11.096,78.495 12.353,79.25 10.895,80.024 "/>
<polygon id="Fill-316" class="st14" points="10.895,80.024 10.895,80.299 9.638,79.544 9.638,79.268 "/>
<polygon id="Fill-318" class="st13" points="26.453,89.343 27.912,88.571 27.912,88.843 26.453,89.618 "/>
<polygon id="Fill-320" class="st6" points="25.195,88.588 26.654,87.815 27.912,88.57 26.453,89.344 "/>
<polygon id="Fill-322" class="st14" points="26.453,89.343 26.453,89.618 25.197,88.864 25.195,88.587 "/>
<polygon id="Fill-324" class="st13" points="28.222,90.406 29.679,89.633 29.679,89.906 28.222,90.681 "/>
<polygon id="Fill-326" class="st6" points="26.964,89.65 28.423,88.877 29.679,89.632 28.222,90.406 "/>
<polygon id="Fill-328" class="st14" points="28.222,90.406 28.222,90.681 26.964,89.926 26.964,89.65 "/>
<polygon id="Fill-330" class="st13" points="30.082,91.523 31.541,90.75 31.541,91.025 30.082,91.798 "/>
<polygon id="Fill-332" class="st6" points="28.826,90.769 30.283,89.994 31.541,90.749 30.082,91.523 "/>
<polygon id="Fill-334" class="st14" points="30.082,91.523 30.082,91.798 28.826,91.043 28.826,90.769 "/>
<polygon id="Fill-336" class="st13" points="24.466,88.189 25.925,87.416 25.925,87.691 24.466,88.464 "/>
<polygon id="Fill-338" class="st6" points="11.572,80.442 13.03,79.669 25.925,87.416 24.466,88.189 "/>
<polygon id="Fill-340" class="st14" points="24.466,88.189 24.466,88.464 11.572,80.717 11.572,80.442 "/>
<polyline id="Stroke-342" class="st4" points="1.742,76.548 31.152,94.217 31.152,97.422 "/>
<path id="Stroke-85" class="st15" d="M104.222,97.317l-17.553,9.317c0.478-0.254,0.774-0.841,0.778-1.692l17.552-9.317
	C104.998,96.474,104.7,97.064,104.222,97.317z"/>
<polygon id="Stroke-87" class="st15" points="67.197,68.032 84.751,58.715 102.736,69.521 85.182,78.84 "/>
<polygon id="Stroke-89" class="st15" points="87.447,83.064 105.002,73.746 105.016,95.431 87.464,104.748 "/>
<path id="Stroke-129" class="st15" d="M84.967,78.818c1.361,0.815,2.459,2.797,2.462,4.439l0.019,21.686
	c-0.004,1.633-1.1,2.302-2.459,1.484L67.004,95.62c-1.359-0.816-2.46-2.805-2.463-4.439l-0.015-21.686
	c-0.001-1.639,1.1-2.3,2.458-1.484L84.967,78.818z"/>
<path id="Stroke-163" class="st16" d="M84.967,78.818l17.555-9.318c1.359,0.816,2.455,2.801,2.462,4.441l-17.555,9.316
	C87.426,81.615,86.328,79.633,84.967,78.818z"/>
<path id="Fill-228_1_" class="st17" d="M65.512,67.823c5.853-3.106,11.703-6.213,17.554-9.317c0.439-0.234,1.032-0.181,1.684,0.209
	l-17.553,9.317C66.544,67.642,65.953,67.591,65.512,67.823"/>
<polygon id="Fill-256_1_" class="st3" points="66.693,68.032 84.246,58.715 102.231,69.52 84.676,78.84 "/>
<polygon id="Fill-258_1_" class="st1" points="87.137,83.279 104.692,73.961 104.707,95.646 87.154,104.963 "/>
<path id="Fill-292_1_" class="st18" d="M86.429,104.525l-0.017-21.684c0-1.156-0.774-2.554-1.734-3.13L66.694,68.905
	c-0.958-0.575-1.731-0.107-1.731,1.048l0.016,21.684c0,1.152,0.775,2.551,1.734,3.13l17.984,10.806
	C85.654,106.147,86.429,105.678,86.429,104.525z M84.676,78.839c1.361,0.815,2.459,2.797,2.462,4.439l0.017,21.686
	c-0.002,1.633-1.099,2.3-2.458,1.484L66.713,95.642c-1.359-0.818-2.46-2.806-2.463-4.439l-0.015-21.686
	c-0.001-1.639,1.1-2.3,2.458-1.484L84.676,78.839z"/>
<path id="Fill-294_1_" class="st19" d="M84.677,79.712c0.96,0.575,1.734,1.975,1.734,3.13l0.017,21.684
	c0,1.151-0.774,1.622-1.732,1.048L66.712,94.768c-0.959-0.58-1.734-1.978-1.734-3.13l-0.016-21.684c0-1.156,0.773-1.624,1.731-1.049
	L84.677,79.712z"/>
<path id="Stroke-163-1" class="st2" d="M84.676,78.839l17.555-9.318c1.359,0.816,2.455,2.801,2.462,4.441l-17.555,9.316
	C87.135,81.636,86.037,79.654,84.676,78.839z"/>
<path id="Fill-228-8" class="st2" d="M65.008,67.823c5.853-3.106,11.703-6.213,17.554-9.317c0.439-0.234,1.032-0.181,1.684,0.209
	l-17.553,9.317C66.04,67.642,65.449,67.591,65.008,67.823"/>
<path id="Stroke-85-0" class="st20" d="M103.931,97.338l-17.553,9.317c0.478-0.254,0.774-0.841,0.778-1.692l17.552-9.317
	C104.707,96.495,104.409,97.085,103.931,97.338z"/>
<path id="Fill-645" class="st14" d="M77.679,87.986c0,1.479-1.061,2.04-2.368,1.255c-1.307-0.787-2.368-2.623-2.368-4.102
	c0-1.48,1.061-2.042,2.368-1.255C76.619,84.67,77.679,86.507,77.679,87.986"/>
<path id="Stroke-647" class="st21" d="M75.308,87.706v9.665"/>
<path id="Fill-649" class="st6" d="M76.692,86.729c0,0.347-0.249,0.479-0.558,0.294c-0.305-0.183-0.553-0.614-0.553-0.961
	s0.248-0.479,0.553-0.295C76.443,85.953,76.692,86.382,76.692,86.729"/>
<path id="Stroke-651" class="st22" d="M81.187,90.261c-0.418-3.54-2.914-7.571-5.938-9.39c-2.992-1.797-5.465-0.807-5.922,2.154"/>
<path id="Stroke-653" class="st22" d="M83.815,89.445c-0.072-0.28-0.152-0.562-0.24-0.844c-1.351-4.399-4.492-8.802-8.156-11.006
	c-3.871-2.325-7.154-1.498-8.367,1.681"/>
</svg>
