<?xml version="1.0" encoding="utf-8"?>
<svg version="1.1" id="Layer_1" xmlns="http://www.w3.org/2000/svg" xmlns:xlink="http://www.w3.org/1999/xlink" x="0px" y="0px"
	 viewBox="0 0 75.601 103.382" style="enable-background:new 0 0 75.601 103.382;" xml:space="preserve">
<style type="text/css">
	.st0{fill:none;stroke:#626366;stroke-width:3;stroke-linejoin:round;}
	.st1{fill:#898B8E;}
	.st2{fill:#BBBDBF;}
	.st3{fill:#B3B5B7;}
	.st4{fill:none;stroke:#E1E2E3;stroke-linecap:round;stroke-linejoin:round;}
	.st5{fill:none;stroke:#626366;stroke-width:2.668;stroke-linecap:round;stroke-linejoin:round;}
	.st6{fill:#FEFEFE;}
	.st7{fill:#C4CACE;}
	.st8{fill:none;stroke:#636466;stroke-width:1.156;}
	.st9{fill:none;stroke:#E1E2E3;stroke-width:0.889;stroke-linecap:round;stroke-linejoin:round;}
	.st10{filter:url(#Adobe_OpacityMaskFilter);}
	.st11{fill:#FFFFFF;}
	.st12{mask:url(#mask-2_1_);fill:none;stroke:#636466;stroke-width:1.29;}
	.st13{fill:none;stroke:#626366;stroke-width:3;stroke-linecap:round;stroke-linejoin:round;}
	.st14{fill:#E1E2E3;}
	.st15{fill:#231F20;}
	.st16{fill:#626366;}
</style>
<title>icon-PC</title>
<desc>Created with Sketch.</desc>
<g id="icon-PC">
	<polygon id="Stroke-1" class="st0" points="50.348,82.545 62.057,76.33 62.06,79.627 50.35,85.844 	"/>
	<polygon id="Stroke-2" class="st0" points="20.449,64.581 32.158,58.366 62.057,76.331 50.348,82.546 	"/>
	<polygon id="Stroke-3" class="st0" points="50.348,82.545 50.35,85.844 20.451,67.877 20.449,64.58 	"/>
	<polygon id="Fill-4" class="st1" points="50.348,82.545 62.057,76.33 62.06,79.627 50.35,85.844 	"/>
	<polygon id="Fill-5" class="st2" points="20.449,64.581 32.158,58.366 62.057,76.331 50.348,82.546 	"/>
	<polygon id="Fill-6" class="st3" points="50.348,82.545 50.35,85.844 20.451,67.877 20.449,64.58 	"/>
	<polyline id="Stroke-7" class="st4" points="20.691,64.614 50.101,82.284 50.101,85.489 	"/>
	<g id="Group-14" transform="translate(14.000000, 0.383000)">
		<polygon id="Stroke-8" class="st5" points="55.044,36.448 60.23,33.695 60.266,84.473 55.079,87.227 		"/>
		<polygon id="Stroke-10" class="st5" points="0.549,3.705 5.736,0.951 60.23,33.695 55.044,36.448 		"/>
		<polygon id="Stroke-12" class="st5" points="55.044,36.448 55.079,87.227 0.586,54.483 0.549,3.705 		"/>
	</g>
	<polygon id="Fill-15" class="st1" points="69.043,36.831 74.23,34.078 74.266,84.856 69.08,87.61 	"/>
	<polygon id="Fill-16" class="st2" points="14.549,4.088 19.735,1.334 74.23,34.078 69.042,36.831 	"/>
	<polygon id="Fill-17" class="st3" points="69.043,36.831 69.08,87.61 14.585,54.866 14.55,4.088 	"/>
	<polygon id="Fill-18" class="st6" points="66.191,81.903 16.526,51.698 16.526,8.783 66.191,38.985 	"/>
	<g id="Group-346" transform="translate(1.000000, 3.383000)">
		<path id="Fill-19" class="st7" d="M46.764,27.198L63.247,37.1l0.092,9.216c0,0-0.293-6.608-5.193-10.75
			C51.89,30.28,46.764,27.198,46.764,27.198"/>
		<path id="Stroke-21" class="st8" d="M14.184,52.532l53.89,32.379"/>
		<polyline id="Stroke-23" class="st9" points="14.008,0.875 68.023,33.33 68.06,83.795 		"/>
		<g id="Group-27" transform="translate(73.000000, 64.000000)">
			<g id="Clip-26">
			</g>
			<defs>
				<filter id="Adobe_OpacityMaskFilter" filterUnits="userSpaceOnUse" x="0.261" y="0.723" width="1.29" height="13.342">
					<feColorMatrix  type="matrix" values="1 0 0 0 0  0 1 0 0 0  0 0 1 0 0  0 0 0 1 0"/>
				</filter>
			</defs>
			<mask maskUnits="userSpaceOnUse" x="0.261" y="0.723" width="1.29" height="13.342" id="mask-2_1_">
				<g class="st10">
					<polygon id="path-1_1_" class="st11" points="0.906,0.723 1.6,0.723 1.6,14.065 0.906,14.065 					"/>
				</g>
			</mask>
			<path id="Stroke-25" class="st12" d="M0.906,0.723v13.342"/>
		</g>
		<path id="Stroke-28" class="st13" d="M48.556,90.78c0,0,1.375-0.734,2.5-0.766c1.125-0.031,2.516,0.641,2.516,0.641
			s1.375,0.734,2.046,1.437c0.672,0.704,0.719,0.985,0.766,1.235c0.047,0.25,0.031,0.828-0.047,0.953s-7.75,4.094-7.75,4.094
			s-0.453,0.203-1.187,0.093c-0.735-0.109-2-1-2.407-1.578c-0.406-0.578-0.375-1.468-0.375-1.468s0.016-1.047,1.391-2.61
			C46.915,91.717,48.556,90.78,48.556,90.78z"/>
		<path id="Fill-30" class="st2" d="M48.556,90.78c0,0,1.375-0.734,2.5-0.766c1.125-0.031,2.516,0.641,2.516,0.641
			s1.377,0.734,2.046,1.437c0.672,0.704,0.719,0.985,0.766,1.235c0.047,0.25,0.031,0.828-0.047,0.953s-7.75,4.094-7.75,4.094
			s-0.453,0.203-1.187,0.093c-0.735-0.109-2-1-2.407-1.578c-0.406-0.578-0.375-1.468-0.375-1.468s0.016-1.047,1.391-2.61
			C46.915,91.717,48.556,90.78,48.556,90.78"/>
		<path id="Fill-32" class="st1" d="M48.757,98.069c0.012-0.09,0.889-2.551,3.768-4.107c2.884-1.518,3.548,0.121,3.49-0.223
			l-0.006,0.547c-2.078,1.109-5.115,2.728-7.191,3.836"/>
		<path id="Fill-34" class="st3" d="M46.462,96.506c0.187-0.75,1.266-2.391,1.992-3.141c0.727-0.75,1.36-1.242,2.461-1.804
			c1.102-0.563,2.438-0.985,3.094-0.657c0.656,0.329,1.57,1.149,1.945,1.641c0.375,0.492,0.281,1.008,0.281,1.008
			s-1.382-0.469-2.203-0.188c-0.82,0.282-2.133,0.938-2.976,1.758c-0.844,0.821-1.172,1.899-1.758,2.578
			c-0.586,0.68-1.711,0.774-1.711,0.774s-1.148-0.235-1.266-0.446C46.204,97.818,46.275,97.256,46.462,96.506"/>
		<path id="Fill-36" class="st14" d="M48.369,93.864l-0.504-0.303c-0.918,0.996-1.445,1.975-1.699,2.524l0.506,0.302
			C46.924,95.839,47.453,94.858,48.369,93.864"/>
		<polygon id="Stroke-38" class="st0" points="30.4,91.095 42.109,84.88 42.111,88.177 30.402,94.394 		"/>
		<polygon id="Stroke-40" class="st0" points="0.5,73.131 12.209,66.914 42.109,84.88 30.4,91.095 		"/>
		<polygon id="Stroke-42" class="st0" points="30.4,91.095 30.402,94.394 0.502,76.428 0.5,73.131 		"/>
		<polygon id="Fill-44" class="st1" points="30.4,91.095 42.109,84.88 42.111,88.177 30.402,94.394 		"/>
		<polygon id="Fill-46" class="st2" points="0.5,73.131 12.209,66.914 42.109,84.88 30.4,91.095 		"/>
		<polygon id="Fill-48" class="st3" points="30.4,91.095 30.402,94.394 0.502,76.428 0.5,73.131 		"/>
		<polygon id="Fill-50" class="st15" points="7.657,72.784 9.115,72.011 9.115,72.292 7.657,73.067 		"/>
		<polygon id="Fill-52" class="st6" points="6.401,72.028 7.859,71.255 9.116,72.01 7.658,72.784 		"/>
		<polygon id="Fill-54" class="st16" points="7.657,72.784 7.657,73.067 6.4,72.311 6.4,72.028 		"/>
		<polygon id="Fill-56" class="st15" points="9.518,73.901 10.976,73.128 10.976,73.411 9.518,74.184 		"/>
		<polygon id="Fill-58" class="st6" points="8.261,73.147 9.719,72.372 10.976,73.127 9.518,73.901 		"/>
		<polygon id="Fill-60" class="st16" points="9.518,73.901 9.518,74.184 8.261,73.428 8.261,73.147 		"/>
		<polygon id="Fill-62" class="st15" points="11.471,75.075 12.928,74.302 12.929,74.585 11.471,75.358 		"/>
		<polygon id="Fill-64" class="st6" points="10.214,74.319 11.672,73.546 12.928,74.301 11.471,75.075 		"/>
		<polygon id="Fill-66" class="st16" points="11.471,75.075 11.471,75.358 10.214,74.602 10.214,74.319 		"/>
		<polygon id="Fill-68" class="st15" points="13.338,76.198 14.795,75.423 14.796,75.706 13.338,76.479 		"/>
		<polygon id="Fill-70" class="st6" points="12.081,75.442 13.539,74.669 14.795,75.422 13.338,76.198 		"/>
		<polygon id="Fill-72" class="st16" points="13.338,76.198 13.338,76.479 12.081,75.725 12.081,75.442 		"/>
		<polygon id="Fill-74" class="st15" points="15.266,77.356 16.724,76.581 16.724,76.864 15.266,77.637 		"/>
		<polygon id="Fill-76" class="st6" points="14.009,76.6 15.467,75.827 16.724,76.58 15.266,77.356 		"/>
		<polygon id="Fill-78" class="st16" points="15.266,77.356 15.266,77.637 14.009,76.883 14.009,76.6 		"/>
		<polygon id="Fill-80" class="st15" points="17.132,78.477 18.591,77.704 18.591,77.985 17.132,78.76 		"/>
		<polygon id="Fill-82" class="st6" points="15.869,77.717 17.328,76.944 18.592,77.703 17.133,78.477 		"/>
		<polygon id="Fill-84" class="st16" points="17.132,78.477 17.132,78.76 15.868,78 15.868,77.717 		"/>
		<polygon id="Fill-86" class="st15" points="19.085,79.651 20.542,78.878 20.544,79.159 19.085,79.932 		"/>
		<polygon id="Fill-88" class="st6" points="17.828,78.895 19.287,78.122 20.543,78.877 19.086,79.651 		"/>
		<polygon id="Fill-90" class="st16" points="19.085,79.651 19.085,79.932 17.829,79.178 17.827,78.895 		"/>
		<polygon id="Fill-92" class="st15" points="20.947,80.768 22.404,79.995 22.404,80.278 20.947,81.051 		"/>
		<polygon id="Fill-94" class="st6" points="19.689,80.014 21.146,79.239 22.404,79.994 20.947,80.768 		"/>
		<polygon id="Fill-96" class="st16" points="20.947,80.768 20.947,81.051 19.689,80.295 19.689,80.014 		"/>
		<polygon id="Fill-98" class="st15" points="22.777,81.869 24.234,81.095 24.234,81.378 22.777,82.15 		"/>
		<polygon id="Fill-100" class="st6" points="21.519,81.114 22.978,80.339 24.234,81.094 22.777,81.869 		"/>
		<polygon id="Fill-102" class="st16" points="22.777,81.869 22.777,82.15 21.519,81.395 21.519,81.114 		"/>
		<polygon id="Fill-104" class="st15" points="24.636,82.986 26.095,82.213 26.095,82.494 24.636,83.269 		"/>
		<polygon id="Fill-106" class="st6" points="23.38,82.23 24.837,81.458 26.095,82.212 24.636,82.986 		"/>
		<polygon id="Fill-108" class="st16" points="24.636,82.986 24.636,83.269 23.38,82.513 23.38,82.23 		"/>
		<polygon id="Fill-110" class="st15" points="26.589,84.16 28.049,83.385 28.049,83.668 26.589,84.441 		"/>
		<polygon id="Fill-112" class="st6" points="25.334,83.404 26.791,82.631 28.049,83.384 26.59,84.16 		"/>
		<polygon id="Fill-114" class="st16" points="26.589,84.16 26.589,84.441 25.333,83.687 25.333,83.404 		"/>
		<polygon id="Fill-116" class="st15" points="28.457,85.281 29.916,84.508 29.916,84.791 28.457,85.564 		"/>
		<polygon id="Fill-118" class="st6" points="27.201,84.525 28.658,83.752 29.916,84.507 28.457,85.281 		"/>
		<polygon id="Fill-120" class="st16" points="28.457,85.281 28.457,85.564 27.201,84.808 27.201,84.525 		"/>
		<polygon id="Fill-122" class="st15" points="30.384,86.439 31.843,85.666 31.843,85.949 30.384,86.722 		"/>
		<polygon id="Fill-124" class="st6" points="29.128,85.685 30.585,84.91 31.843,85.665 30.384,86.439 		"/>
		<polygon id="Fill-126" class="st16" points="30.384,86.439 30.384,86.722 29.128,85.966 29.128,85.685 		"/>
		<polygon id="Fill-128" class="st15" points="32.209,87.535 33.666,86.762 33.668,87.045 32.209,87.818 		"/>
		<polygon id="Fill-130" class="st6" points="30.951,86.781 32.41,86.006 33.666,86.761 32.209,87.535 		"/>
		<polygon id="Fill-132" class="st16" points="32.209,87.535 32.209,87.818 30.953,87.062 30.951,86.781 		"/>
		<polygon id="Fill-134" class="st15" points="9.657,71.659 11.115,70.886 11.115,71.167 9.657,71.942 		"/>
		<polygon id="Fill-136" class="st6" points="8.401,70.903 9.859,70.13 11.116,70.885 9.658,71.659 		"/>
		<polygon id="Fill-138" class="st16" points="9.657,71.659 9.657,71.942 8.4,71.186 8.4,70.903 		"/>
		<polygon id="Fill-140" class="st15" points="11.518,72.776 12.976,72.003 12.976,72.286 11.518,73.059 		"/>
		<polygon id="Fill-142" class="st6" points="10.261,72.022 11.719,71.247 12.976,72.002 11.518,72.776 		"/>
		<polygon id="Fill-144" class="st16" points="11.518,72.776 11.518,73.059 10.261,72.303 10.261,72.022 		"/>
		<polygon id="Fill-146" class="st15" points="13.471,73.95 14.928,73.177 14.929,73.46 13.471,74.233 		"/>
		<polygon id="Fill-148" class="st6" points="12.214,73.194 13.672,72.421 14.928,73.176 13.471,73.95 		"/>
		<polygon id="Fill-150" class="st16" points="13.471,73.95 13.471,74.233 12.214,73.477 12.214,73.194 		"/>
		<polygon id="Fill-152" class="st15" points="15.338,75.073 16.794,74.298 16.796,74.581 15.338,75.354 		"/>
		<polygon id="Fill-154" class="st6" points="14.081,74.317 15.539,73.544 16.794,74.297 15.337,75.073 		"/>
		<polygon id="Fill-156" class="st16" points="15.338,75.073 15.338,75.354 14.082,74.6 14.082,74.317 		"/>
		<polygon id="Fill-158" class="st15" points="17.265,76.231 18.724,75.456 18.724,75.739 17.265,76.512 		"/>
		<polygon id="Fill-160" class="st6" points="16.009,75.475 17.466,74.702 18.724,75.455 17.265,76.231 		"/>
		<polygon id="Fill-162" class="st16" points="17.265,76.231 17.265,76.512 16.009,75.758 16.009,75.475 		"/>
		<polygon id="Fill-164" class="st15" points="19.132,77.352 20.591,76.579 20.591,76.86 19.132,77.635 		"/>
		<polygon id="Fill-166" class="st6" points="17.869,76.592 19.328,75.819 20.592,76.578 19.133,77.352 		"/>
		<polygon id="Fill-168" class="st16" points="19.132,77.352 19.132,77.635 17.868,76.875 17.868,76.592 		"/>
		<polygon id="Fill-170" class="st15" points="21.085,78.526 22.542,77.753 22.544,78.034 21.085,78.807 		"/>
		<polygon id="Fill-172" class="st6" points="19.828,77.77 21.287,76.997 22.543,77.752 21.086,78.526 		"/>
		<polygon id="Fill-174" class="st16" points="21.085,78.526 21.085,78.807 19.829,78.053 19.827,77.77 		"/>
		<polygon id="Fill-176" class="st15" points="22.947,79.643 24.404,78.87 24.404,79.153 22.947,79.926 		"/>
		<polygon id="Fill-178" class="st6" points="21.689,78.889 23.146,78.114 24.404,78.869 22.947,79.643 		"/>
		<polygon id="Fill-180" class="st16" points="22.947,79.643 22.947,79.926 21.689,79.17 21.689,78.889 		"/>
		<polygon id="Fill-182" class="st15" points="24.777,80.743 26.234,79.97 26.234,80.253 24.777,81.026 		"/>
		<polygon id="Fill-184" class="st6" points="23.519,79.989 24.978,79.214 26.234,79.969 24.777,80.743 		"/>
		<polygon id="Fill-186" class="st16" points="24.777,80.743 24.777,81.026 23.519,80.27 23.519,79.989 		"/>
		<polygon id="Fill-188" class="st15" points="26.636,81.861 28.095,81.087 28.095,81.37 26.636,82.144 		"/>
		<polygon id="Fill-190" class="st6" points="25.38,81.106 26.837,80.333 28.095,81.086 26.636,81.861 		"/>
		<polygon id="Fill-192" class="st16" points="26.636,81.861 26.636,82.144 25.38,81.389 25.38,81.106 		"/>
		<polygon id="Fill-194" class="st15" points="28.589,83.035 30.049,82.26 30.049,82.543 28.589,83.316 		"/>
		<polygon id="Fill-196" class="st6" points="27.334,82.279 28.791,81.507 30.049,82.259 28.59,83.035 		"/>
		<polygon id="Fill-198" class="st16" points="28.589,83.035 28.589,83.316 27.333,82.562 27.333,82.279 		"/>
		<polygon id="Fill-200" class="st15" points="30.457,84.156 31.916,83.383 31.916,83.666 30.457,84.439 		"/>
		<polygon id="Fill-202" class="st6" points="29.201,83.4 30.658,82.627 31.916,83.382 30.457,84.156 		"/>
		<polygon id="Fill-204" class="st16" points="30.457,84.156 30.457,84.439 29.201,83.683 29.201,83.4 		"/>
		<polygon id="Fill-206" class="st15" points="32.384,85.314 33.843,84.541 33.843,84.824 32.384,85.597 		"/>
		<polygon id="Fill-208" class="st6" points="31.128,84.56 32.585,83.785 33.843,84.54 32.384,85.314 		"/>
		<polygon id="Fill-210" class="st16" points="32.384,85.314 32.384,85.597 31.128,84.841 31.128,84.56 		"/>
		<polygon id="Fill-212" class="st15" points="34.209,86.41 35.666,85.637 35.668,85.92 34.209,86.693 		"/>
		<polygon id="Fill-214" class="st6" points="32.951,85.656 34.41,84.881 35.666,85.636 34.209,86.41 		"/>
		<polygon id="Fill-216" class="st16" points="34.209,86.41 34.209,86.693 32.953,85.937 32.951,85.656 		"/>
		<polygon id="Fill-218" class="st15" points="11.782,70.534 13.24,69.761 13.24,70.042 11.782,70.817 		"/>
		<polygon id="Fill-220" class="st6" points="10.526,69.778 11.984,69.005 13.241,69.76 11.783,70.534 		"/>
		<polygon id="Fill-222" class="st16" points="11.782,70.534 11.782,70.817 10.525,70.061 10.525,69.778 		"/>
		<polygon id="Fill-224" class="st15" points="13.643,71.651 15.101,70.878 15.101,71.161 13.643,71.934 		"/>
		<polygon id="Fill-226" class="st6" points="12.386,70.897 13.844,70.122 15.101,70.877 13.643,71.651 		"/>
		<polygon id="Fill-228" class="st16" points="13.643,71.651 13.643,71.934 12.386,71.178 12.386,70.897 		"/>
		<polygon id="Fill-230" class="st15" points="15.595,72.825 17.052,72.052 17.054,72.335 15.595,73.108 		"/>
		<polygon id="Fill-232" class="st6" points="14.339,72.069 15.797,71.296 17.052,72.051 15.595,72.825 		"/>
		<polygon id="Fill-234" class="st16" points="15.595,72.825 15.595,73.108 14.339,72.352 14.339,72.069 		"/>
		<polygon id="Fill-236" class="st15" points="17.462,73.948 18.919,73.173 18.921,73.456 17.462,74.229 		"/>
		<polygon id="Fill-238" class="st6" points="16.207,73.192 17.664,72.419 18.92,73.172 17.463,73.948 		"/>
		<polygon id="Fill-240" class="st16" points="17.462,73.948 17.462,74.229 16.206,73.475 16.206,73.192 		"/>
		<polygon id="Fill-242" class="st15" points="19.39,75.106 20.849,74.331 20.849,74.614 19.39,75.387 		"/>
		<polygon id="Fill-244" class="st6" points="18.134,74.35 19.591,73.577 20.849,74.33 19.39,75.106 		"/>
		<polygon id="Fill-246" class="st16" points="19.39,75.106 19.39,75.387 18.134,74.633 18.134,74.35 		"/>
		<polygon id="Fill-248" class="st15" points="21.257,76.227 22.716,75.454 22.716,75.735 21.257,76.51 		"/>
		<polygon id="Fill-250" class="st6" points="19.994,75.467 21.453,74.694 22.717,75.453 21.258,76.227 		"/>
		<polygon id="Fill-252" class="st16" points="21.257,76.227 21.257,76.51 19.993,75.75 19.993,75.467 		"/>
		<polygon id="Fill-254" class="st15" points="23.21,77.401 24.667,76.628 24.669,76.909 23.21,77.682 		"/>
		<polygon id="Fill-256" class="st6" points="21.953,76.645 23.412,75.872 24.668,76.627 23.211,77.401 		"/>
		<polygon id="Fill-258" class="st16" points="23.21,77.401 23.21,77.682 21.954,76.928 21.952,76.645 		"/>
		<polygon id="Fill-260" class="st15" points="25.072,78.518 26.529,77.745 26.529,78.028 25.072,78.801 		"/>
		<polygon id="Fill-262" class="st6" points="23.814,77.764 25.271,76.989 26.529,77.744 25.072,78.518 		"/>
		<polygon id="Fill-264" class="st16" points="25.072,78.518 25.072,78.801 23.814,78.045 23.814,77.764 		"/>
		<polygon id="Fill-266" class="st15" points="26.902,79.618 28.359,78.845 28.359,79.128 26.902,79.901 		"/>
		<polygon id="Fill-268" class="st6" points="25.644,78.864 27.103,78.089 28.359,78.844 26.902,79.618 		"/>
		<polygon id="Fill-270" class="st16" points="26.902,79.618 26.902,79.901 25.644,79.145 25.644,78.864 		"/>
		<polygon id="Fill-272" class="st15" points="28.761,80.737 30.22,79.962 30.22,80.245 28.761,81.018 		"/>
		<polygon id="Fill-274" class="st6" points="27.505,79.981 28.962,79.208 30.22,79.961 28.761,80.737 		"/>
		<polygon id="Fill-276" class="st16" points="28.761,80.737 28.761,81.018 27.505,80.264 27.505,79.981 		"/>
		<polygon id="Fill-278" class="st15" points="30.714,81.91 32.174,81.136 32.174,81.419 30.714,82.191 		"/>
		<polygon id="Fill-280" class="st6" points="29.459,81.155 30.916,80.382 32.174,81.135 30.715,81.91 		"/>
		<polygon id="Fill-282" class="st16" points="30.714,81.91 30.714,82.191 29.458,81.436 29.458,81.155 		"/>
		<polygon id="Fill-284" class="st15" points="32.582,83.031 34.041,82.258 34.041,82.541 32.582,83.314 		"/>
		<polygon id="Fill-286" class="st6" points="31.326,82.275 32.783,81.503 34.041,82.257 32.582,83.031 		"/>
		<polygon id="Fill-288" class="st16" points="32.582,83.031 32.582,83.314 31.326,82.558 31.326,82.275 		"/>
		<polygon id="Fill-290" class="st15" points="34.509,84.189 35.968,83.416 35.968,83.699 34.509,84.472 		"/>
		<polygon id="Fill-292" class="st6" points="33.253,83.435 34.71,82.66 35.968,83.415 34.509,84.189 		"/>
		<polygon id="Fill-294" class="st16" points="34.509,84.189 34.509,84.472 33.253,83.716 33.253,83.435 		"/>
		<polygon id="Fill-296" class="st15" points="36.334,85.285 37.791,84.512 37.793,84.795 36.334,85.568 		"/>
		<polygon id="Fill-298" class="st6" points="35.076,84.531 36.535,83.756 37.791,84.511 36.334,85.285 		"/>
		<polygon id="Fill-300" class="st16" points="36.334,85.285 36.334,85.568 35.078,84.812 35.076,84.531 		"/>
		<polygon id="Fill-302" class="st15" points="6.266,74.461 7.724,73.686 7.724,73.961 6.266,74.734 		"/>
		<polygon id="Fill-304" class="st6" points="5.008,73.705 6.466,72.932 7.724,73.685 6.266,74.461 		"/>
		<polygon id="Fill-306" class="st16" points="6.266,74.461 6.266,74.734 5.009,73.979 5.008,73.705 		"/>
		<polygon id="Fill-308" class="st15" points="8.034,75.524 9.492,74.749 9.492,75.024 8.034,75.797 		"/>
		<polygon id="Fill-310" class="st6" points="6.777,74.768 8.235,73.995 9.492,74.748 8.034,75.524 		"/>
		<polygon id="Fill-312" class="st16" points="8.034,75.524 8.034,75.797 6.777,75.044 6.777,74.768 		"/>
		<polygon id="Fill-314" class="st15" points="9.895,76.641 11.353,75.868 11.353,76.141 9.895,76.916 		"/>
		<polygon id="Fill-316" class="st6" points="8.638,75.885 10.096,75.112 11.353,75.867 9.895,76.641 		"/>
		<polygon id="Fill-318" class="st16" points="9.895,76.641 9.895,76.916 8.638,76.161 8.638,75.885 		"/>
		<polygon id="Fill-320" class="st15" points="25.453,85.96 26.912,85.187 26.912,85.46 25.453,86.235 		"/>
		<polygon id="Fill-322" class="st6" points="24.195,85.204 25.654,84.431 26.912,85.186 25.453,85.96 		"/>
		<polygon id="Fill-324" class="st16" points="25.453,85.96 25.453,86.235 24.197,85.48 24.195,85.204 		"/>
		<polygon id="Fill-326" class="st15" points="27.222,87.023 28.679,86.25 28.679,86.523 27.222,87.298 		"/>
		<polygon id="Fill-328" class="st6" points="25.964,86.267 27.424,85.494 28.679,86.249 27.222,87.023 		"/>
		<polygon id="Fill-330" class="st16" points="27.222,87.023 27.222,87.298 25.964,86.543 25.964,86.267 		"/>
		<polygon id="Fill-332" class="st15" points="29.082,88.14 30.541,87.367 30.541,87.642 29.082,88.415 		"/>
		<polygon id="Fill-334" class="st6" points="27.826,87.386 29.283,86.611 30.541,87.366 29.082,88.14 		"/>
		<polygon id="Fill-336" class="st16" points="29.082,88.14 29.082,88.415 27.826,87.66 27.826,87.386 		"/>
		<polygon id="Fill-338" class="st15" points="23.466,84.806 24.925,84.033 24.925,84.308 23.466,85.081 		"/>
		<polygon id="Fill-340" class="st6" points="10.572,77.059 12.03,76.286 24.925,84.033 23.466,84.806 		"/>
		<polygon id="Fill-342" class="st16" points="23.466,84.806 23.466,85.081 10.572,77.334 10.572,77.059 		"/>
		<polyline id="Stroke-344" class="st4" points="0.742,73.164 30.152,90.833 30.152,94.038 		"/>
	</g>
</g>
</svg>
