<?xml version="1.0" encoding="utf-8"?>
<svg version="1.1" id="Layer_1" xmlns="http://www.w3.org/2000/svg" xmlns:xlink="http://www.w3.org/1999/xlink" x="0px" y="0px"
	 viewBox="0 0 62.1 53.7" style="enable-background:new 0 0 62.1 53.7;" xml:space="preserve">
<style type="text/css">
	.st0{fill:none;stroke:#626366;stroke-width:3;stroke-linecap:round;stroke-linejoin:round;}
	.st1{fill:#B0B2B5;}
	.st2{fill:#BBBDBF;}
	.st3{fill:#B3B5B7;}
	.st4{fill:#898B8E;}
	.st5{fill:#FEFEFE;}
	.st6{fill:#231F20;}
	.st7{fill:#626366;}
	.st8{fill:none;stroke:#DFE0DF;stroke-width:0.75;stroke-linecap:round;stroke-linejoin:round;}
	.st9{fill:#999B9D;}
	.st10{fill:#F0F0F1;}
</style>
<title>icon-EFTPOS-printer</title>
<desc>Created with Sketch.</desc>
<g id="Page-1">
	<g id="Desktop" transform="translate(-1120.000000, -82.000000)">
		<g id="icon-EFTPOS-printer" transform="translate(1121.000000, 81.000000)">
			<g id="Group-9" transform="translate(0.000000, 9.650400)">
				<polygon id="Stroke-1" class="st0" points="48.3,22.3 21.3,6.4 32.6,0.4 59.6,16.2 				"/>
				<polygon id="Stroke-3" class="st0" points="27.5,37.9 0.5,22.1 21.3,6.4 48.3,22.3 				"/>
				<polygon id="Stroke-5" class="st0" points="27.5,43.5 0.5,27.7 0.5,22.1 27.5,37.9 				"/>
				<polygon id="Stroke-7" class="st0" points="59.6,16.2 59.6,26.4 27.5,43.5 27.5,37.9 48.3,22.3 				"/>
			</g>
			<polygon id="Stroke-10" class="st0" points="19.1,28.1 22,26.2 24.8,27.9 21.8,29.8 			"/>
			<polygon id="Stroke-11" class="st0" points="24.8,28.5 21.8,30.4 21.8,29.8 24.8,27.9 			"/>
			<polygon id="Stroke-12" class="st0" points="19.1,28.1 21.8,29.8 21.8,30.4 19.1,28.7 			"/>
			<polygon id="Stroke-13" class="st0" points="15.1,30.7 18,28.8 20.8,30.5 17.9,32.4 			"/>
			<polygon id="Stroke-14" class="st0" points="20.8,31.1 17.9,33 17.9,32.4 20.8,30.5 			"/>
			<polygon id="Stroke-15" class="st0" points="15.1,30.7 17.9,32.4 17.9,33 15.1,31.3 			"/>
			<polygon id="Stroke-16" class="st0" points="22.9,25.6 25.9,23.7 28.7,25.4 25.7,27.3 			"/>
			<polygon id="Stroke-17" class="st0" points="28.7,26 25.7,27.9 25.7,27.3 28.7,25.4 			"/>
			<polygon id="Stroke-18" class="st0" points="22.9,25.6 25.7,27.3 25.7,27.9 22.9,26.2 			"/>
			<polygon id="Stroke-19" class="st0" points="22.7,30.3 25.6,28.4 28.4,30.1 25.5,32 			"/>
			<polygon id="Stroke-20" class="st0" points="28.4,30.7 25.5,32.6 25.5,32 28.4,30.1 			"/>
			<polygon id="Stroke-21" class="st0" points="22.7,30.4 25.5,32 25.5,32.6 22.7,31 			"/>
			<polygon id="Stroke-22" class="st0" points="18.8,32.9 21.7,31 24.5,32.7 21.6,34.6 			"/>
			<polygon id="Stroke-23" class="st0" points="24.5,33.3 21.6,35.2 21.6,34.6 24.5,32.7 			"/>
			<polygon id="Stroke-24" class="st0" points="18.8,32.9 21.6,34.6 21.6,35.2 18.8,33.5 			"/>
			<polygon id="Stroke-25" class="st0" points="26.6,27.8 29.5,25.9 32.3,27.6 29.4,29.5 			"/>
			<polygon id="Stroke-26" class="st0" points="32.3,28.2 29.4,30.1 29.4,29.5 32.3,27.6 			"/>
			<polygon id="Stroke-27" class="st0" points="26.6,27.8 29.4,29.5 29.4,30.1 26.6,28.4 			"/>
			<polygon id="Stroke-28" class="st0" points="26.3,32.5 29.3,30.6 32.1,32.3 29.1,34.2 			"/>
			<polygon id="Stroke-29" class="st0" points="32.1,32.9 29.1,34.8 29.1,34.2 32.1,32.3 			"/>
			<polygon id="Stroke-30" class="st0" points="26.3,32.5 29.1,34.2 29.1,34.8 26.3,33.1 			"/>
			<polygon id="Stroke-31" class="st0" points="22.4,35.1 25.3,33.2 28.1,34.9 25.2,36.8 			"/>
			<polygon id="Stroke-32" class="st0" points="28.1,35.5 25.2,37.4 25.2,36.8 28.1,34.9 			"/>
			<polygon id="Stroke-33" class="st0" points="22.4,35.1 25.2,36.8 25.2,37.4 22.4,35.7 			"/>
			<polygon id="Stroke-34" class="st0" points="30.2,30 33.2,28.1 35.9,29.8 33,31.7 			"/>
			<polygon id="Stroke-35" class="st0" points="35.9,30.4 33,32.3 33,31.7 35.9,29.8 			"/>
			<polygon id="Stroke-36" class="st0" points="30.2,30 33,31.7 33,32.3 30.2,30.6 			"/>
			<g id="Group-115" transform="translate(0.000000, 0.650400)">
				<polygon id="Fill-45" class="st1" points="48.3,31.3 21.3,15.4 32.6,9.4 59.6,25.2 				"/>
				<polygon id="Fill-47" class="st2" points="27.5,46.9 0.5,31.1 21.3,15.4 48.3,31.3 				"/>
				<polygon id="Fill-49" class="st3" points="27.5,52.5 0.5,36.7 0.5,31.1 27.5,46.9 				"/>
				<polygon id="Fill-51" class="st4" points="59.6,25.2 59.6,35.4 27.5,52.5 27.5,46.9 48.3,31.3 				"/>
				<polygon id="Fill-53" class="st5" points="19.1,27.5 22,25.6 24.8,27.3 21.8,29.2 				"/>
				<polygon id="Fill-55" class="st6" points="24.8,27.9 21.8,29.8 21.8,29.2 24.8,27.3 				"/>
				<polygon id="Fill-57" class="st7" points="19.1,27.5 21.8,29.2 21.8,29.8 19.1,28.1 				"/>
				<polygon id="Fill-59" class="st5" points="15.1,30 18,28.1 20.8,29.8 17.9,31.7 				"/>
				<polygon id="Fill-61" class="st6" points="20.8,30.4 17.9,32.3 17.9,31.7 20.8,29.8 				"/>
				<polygon id="Fill-63" class="st7" points="15.1,30 17.9,31.7 17.9,32.3 15.1,30.6 				"/>
				<polygon id="Fill-65" class="st5" points="22.9,25 25.9,23.1 28.7,24.7 25.7,26.6 				"/>
				<polygon id="Fill-67" class="st6" points="28.7,25.4 25.7,27.2 25.7,26.6 28.7,24.8 				"/>
				<polygon id="Fill-69" class="st7" points="22.9,25 25.7,26.6 25.7,27.2 22.9,25.6 				"/>
				<polygon id="Fill-71" class="st5" points="22.7,29.7 25.6,27.8 28.4,29.5 25.5,31.4 				"/>
				<polygon id="Fill-73" class="st6" points="28.4,30.1 25.5,32 25.5,31.4 28.4,29.5 				"/>
				<polygon id="Fill-75" class="st7" points="22.7,29.7 25.5,31.4 25.5,32 22.7,30.3 				"/>
				<polygon id="Fill-77" class="st5" points="18.8,32.2 21.7,30.4 24.5,32 21.6,33.9 				"/>
				<polygon id="Fill-79" class="st6" points="24.5,32.6 21.6,34.5 21.6,33.9 24.5,32 				"/>
				<polygon id="Fill-81" class="st7" points="18.8,32.3 21.6,33.9 21.6,34.5 18.8,32.9 				"/>
				<polygon id="Fill-83" class="st5" points="26.6,27.2 29.5,25.3 32.3,27 29.4,28.8 				"/>
				<polygon id="Fill-85" class="st6" points="32.3,27.6 29.4,29.5 29.4,28.9 32.3,27 				"/>
				<polygon id="Fill-87" class="st7" points="26.6,27.2 29.4,28.9 29.4,29.5 26.6,27.8 				"/>
				<polygon id="Fill-89" class="st5" points="26.3,31.9 29.3,30 32.1,31.7 29.1,33.5 				"/>
				<polygon id="Fill-91" class="st6" points="32.1,32.3 29.1,34.2 29.1,33.6 32.1,31.7 				"/>
				<polygon id="Fill-93" class="st7" points="26.3,31.9 29.1,33.6 29.1,34.2 26.3,32.5 				"/>
				<polygon id="Fill-95" class="st5" points="22.4,34.4 25.3,32.5 28.1,34.2 25.2,36.1 				"/>
				<polygon id="Fill-97" class="st6" points="28.1,34.8 25.2,36.7 25.2,36.1 28.1,34.2 				"/>
				<polygon id="Fill-99" class="st7" points="22.4,34.4 25.2,36.1 25.2,36.7 22.4,35 				"/>
				<polygon id="Fill-101" class="st5" points="30.2,29.4 33.2,27.5 35.9,29.1 33,31 				"/>
				<polygon id="Fill-103" class="st6" points="35.9,29.8 33,31.6 33,31 35.9,29.1 				"/>
				<polygon id="Fill-105" class="st7" points="30.2,29.4 33,31 33,31.6 30.2,30 				"/>
				<path id="Fill-107" class="st7" d="M24.1,16.8c-0.7-0.4-0.7-1.1,0-1.5l2.1-1.4c0.7-0.4,1.8-0.5,2.5,0l21.6,13
					c0.7,0.4,0.7,1.1,0,1.5l-2.1,1.4c-0.7,0.4-1.8,0.5-2.5,0L24.1,16.8z"/>
				<polyline id="Stroke-109" class="st8" points="1,31.3 27.5,46.9 27.5,52.1 				"/>
				<polygon id="Fill-111" class="st9" points="41.2,25.7 51.2,7.1 51.7,7.4 41.7,26 				"/>
				<polygon id="Fill-113" class="st10" points="30.2,19 40.2,0.3 51.2,7.1 41.2,25.7 				"/>
			</g>
		</g>
	</g>
</g>
</svg>
