<?xml version="1.0" encoding="utf-8"?>
<svg version="1.1" id="Layer_1" xmlns="http://www.w3.org/2000/svg" xmlns:xlink="http://www.w3.org/1999/xlink" x="0px" y="0px"
	 viewBox="0 0 71 89.6" style="enable-background:new 0 0 71 89.6;" xml:space="preserve">
<style type="text/css">
	.st0{fill:none;stroke:#626366;stroke-width:3;stroke-linejoin:round;}
	.st1{fill:#898B8E;}
	.st2{fill:#BBBDBF;}
	.st3{fill:#B3B5B7;}
	.st4{fill:none;stroke:#DFE0DF;stroke-width:0.75;stroke-linecap:round;stroke-linejoin:round;}
	.st5{fill:#FEFEFE;}
</style>
<title>icon-server</title>
<desc>Created with Sketch.</desc>
<g id="Page-1">
	<g id="Desktop" transform="translate(-659.000000, -207.000000)">
		<g id="icon-server" transform="translate(660.000000, 207.000000)">
			<g id="Group-7" transform="translate(0.000000, 0.641600)">
				<polygon id="Stroke-1" class="st0" points="23.3,38.6 68.5,14.6 68.5,63.5 23.4,87.5 				"/>
				<polygon id="Stroke-3" class="st0" points="0.5,24.8 45.7,0.9 68.5,14.6 23.3,38.6 				"/>
				<polygon id="Stroke-5" class="st0" points="23.3,38.6 23.4,87.5 0.5,73.8 0.5,24.8 				"/>
			</g>
			<polygon id="Fill-8" class="st1" points="23.3,39.2 68.5,15.2 68.5,64.2 23.4,88.1 			"/>
			<polygon id="Fill-9" class="st2" points="0.5,25.5 45.7,1.5 68.5,15.2 23.3,39.2 			"/>
			<polygon id="Fill-10" class="st3" points="23.3,39.2 23.4,88.1 0.5,74.4 0.5,25.5 			"/>
			<polyline id="Stroke-11" class="st4" points="1.2,25.5 23.5,38.9 23.5,87.9 			"/>
			<polygon id="Fill-12" class="st5" points="20.3,49.3 3,38.9 3,32.4 20.3,42.8 			"/>
			<polygon id="Fill-13" class="st5" points="20.3,55.5 3,45.1 3,41.4 20.3,51.8 			"/>
			<polygon id="Fill-14" class="st5" points="20.3,74.7 3,64.3 3,62.6 20.3,73 			"/>
			<polygon id="Fill-15" class="st5" points="20.3,78.5 3,68.1 3,66.4 20.3,76.8 			"/>
			<polygon id="Fill-16" class="st5" points="20.3,82.5 3,72.1 3,70.4 20.3,80.8 			"/>
		</g>
	</g>
</g>
</svg>
