<?xml version="1.0" encoding="utf-8"?>
<svg version="1.1"
	 id="Layer_1" inkscape:version="0.92.3 (2405546, 2018-03-11)" sodipodi:docname="Tablet4.svg" xmlns:cc="http://creativecommons.org/ns#" xmlns:dc="http://purl.org/dc/elements/1.1/" xmlns:inkscape="http://www.inkscape.org/namespaces/inkscape" xmlns:rdf="http://www.w3.org/1999/02/22-rdf-syntax-ns#" xmlns:sodipodi="http://sodipodi.sourceforge.net/DTD/sodipodi-0.dtd" xmlns:svg="http://www.w3.org/2000/svg"
	 xmlns="http://www.w3.org/2000/svg" xmlns:xlink="http://www.w3.org/1999/xlink" x="0px" y="0px" viewBox="0 0 45.453 95.324"
	 style="enable-background:new 0 0 45.453 95.324;" xml:space="preserve">
<style type="text/css">
	.st0{fill:none;stroke:#231F20;stroke-width:4.49;stroke-linecap:round;stroke-linejoin:round;}
	.st1{fill:#606163;}
	.st2{fill:#808184;}
	.st3{fill:#2A2526;}
	.st4{fill:#433B3C;}
	.st5{fill:#6D6E70;}
	.st6{fill:#C6C8C7;}
	.st7{fill:none;stroke:#C6C8C7;stroke-width:1.078;stroke-linecap:round;stroke-linejoin:round;}
	.st8{fill:#707274;}
	.st9{fill:#A6A8AB;}
	.st10{fill:#C4CACE;}
	.st11{fill:#404042;}
</style>
<sodipodi:namedview  bordercolor="#666666" borderopacity="1" gridtolerance="10" guidetolerance="10" id="namedview66" inkscape:current-layer="Layer_1" inkscape:cx="67.018611" inkscape:cy="36.066692" inkscape:pageopacity="0" inkscape:pageshadow="2" inkscape:window-height="1017" inkscape:window-maximized="1" inkscape:window-width="1920" inkscape:window-x="-8" inkscape:window-y="-8" inkscape:zoom="4.9166667" objecttolerance="10" pagecolor="#ffffff" showgrid="false">
	</sodipodi:namedview>
<title  id="title4">icon-iPad</title>
<desc  id="desc6">Created with Sketch.</desc>
<path id="Stroke-11" class="st0" d="M4.296,4.545C5.2,4.054,5.995,3.399,7.554,2.607c1.176-0.598,2.734-0.483,4.463,0.556
	L8.759,5.102C7.03,4.063,5.462,3.927,4.296,4.545z"/>
<path id="Stroke-20" inkscape:connector-curvature="0" class="st0" d="M41.155,90.769c-2.146,1.259-1.328,0.959-3.258,1.938
	c1.276-0.647,2.053-2.23,2.053-4.487l3.258-1.941C43.208,88.539,42.419,90.097,41.155,90.769z"/>
<polygon id="Stroke-22" class="st0" points="8.759,5.102 12.017,3.163 36.646,17.622 33.388,19.56 "/>
<polygon id="Stroke-24" class="st0" points="39.903,31.321 43.161,29.382 43.208,86.279 39.95,88.22 "/>
<path id="Stroke-58" inkscape:connector-curvature="0" class="st0" d="M33.388,19.56l3.258-1.938
	c3.596,2.161,6.51,7.423,6.515,11.76l-3.257,1.939C39.902,26.983,36.984,21.72,33.388,19.56z"/>
<path id="Stroke-60" class="st0" d="M33.388,19.56c3.596,2.16,6.514,7.423,6.516,11.761L39.95,88.22
	c0.004,4.335-2.908,6.098-6.503,3.935L8.818,77.697c-3.606-2.166-6.522-7.428-6.526-11.763l-0.047-56.9
	c-0.002-4.337,2.91-6.098,6.514-3.932L33.388,19.56z"/>
<g id="g28" transform="translate(0,20)">
	<path id="path24" inkscape:connector-curvature="0" class="st1" d="M8.934-18.367c-0.477,0.031-0.917,0.153-1.309,0.363
		l-3.258,1.938c0.525-0.278,1.133-0.404,1.799-0.363c0.573,0.035,1.189,0.195,1.838,0.486c0.27,0.121,0.545,0.266,0.824,0.434
		l3.26-1.939c-0.279-0.169-0.557-0.311-0.826-0.434c-0.649-0.29-1.266-0.449-1.838-0.484C9.257-18.377,9.093-18.377,8.934-18.367z"
		/>
</g>
<polygon id="Fill-80" class="st2" points="12.087,2.552 36.716,17.011 33.458,18.949 8.829,4.491 "/>
<polygon id="Fill-81" class="st3" points="43.278,85.668 40.02,87.608 39.973,30.71 43.231,28.771 "/>
<g id="g54" transform="translate(-20)">
	<path id="path42" inkscape:connector-curvature="0" sodipodi:nodetypes="ccccccccccccccccccccccccc" class="st4" d="M61.994,23.434
		c-0.147-0.335-0.307-0.665-0.477-0.99h0.002c-0.317-0.605-0.666-1.191-1.049-1.746c-0.217-0.313-0.442-0.615-0.676-0.906
		c-0.242-0.3-0.49-0.59-0.824-0.945s-0.76-0.749-1.154-1.063s-0.743-0.559-1.1-0.774l-3.26,1.938
		c0.357,0.216,0.709,0.462,1.051,0.734c0.445,0.354,0.869,0.753,1.279,1.186c0.258,0.275,0.506,0.561,0.748,0.861
		c0.234,0.292,0.461,0.596,0.678,0.908c0.383,0.556,0.732,1.141,1.049,1.746H58.26c0.17,0.328,0.33,0.657,0.477,0.99
		c0.131,0.298,0.254,0.598,0.369,0.903c0.143,0.39,0.271,0.784,0.383,1.175c0.18,0.64,0.313,1.275,0.396,1.906
		c0.059,0.456,0.09,0.91,0.09,1.352l3.258-1.939c-0.002-0.44-0.032-0.894-0.09-1.35c-0.083-0.631-0.215-1.269-0.396-1.908
		c-0.112-0.393-0.241-0.786-0.383-1.176C62.248,24.035,62.125,23.731,61.994,23.434z"/>
</g>
<path id="Fill-113" inkscape:connector-curvature="0" class="st5" d="M31.458,18.949c3.596,2.16,6.514,7.425,6.516,11.761
	l0.046,56.899c0.002,4.335-2.908,6.097-6.503,3.934L6.888,77.086c-3.606-2.166-6.522-7.428-6.526-11.762L0.315,8.422
	C0.313,4.086,3.224,2.325,6.829,4.491L31.458,18.949z"/>
<path id="Fill-115" inkscape:connector-curvature="0" class="st6" d="M37.95,87.84l-0.047-56.899
	c-0.014-3.999-2.697-8.844-6.01-10.846L6.919,5.457C3.856,3.71,1.268,5.644,1.268,9.267l0.047,56.901
	c0.012,3.996,2.69,8.836,6.01,10.83l24.627,14.457C35.261,93.446,37.944,91.824,37.95,87.84z M31.893,18.861
	c3.883,2.333,7.03,8.013,7.034,12.694l0.046,56.898c0.002,4.669-3.253,6.227-7.021,4.248L7.325,78.243
	c-3.881-2.341-7.029-8.02-7.033-12.692L0.245,8.652c0-4.481,3.142-6.422,7.021-4.249L31.893,18.861z"/>
<path id="Stroke-117" inkscape:connector-curvature="0" class="st7" d="M0.745,8.965c0-4.911,3.227-6.151,7.066-3.843l24.03,14.099
	c3.842,2.309,6.955,7.928,6.957,12.559l0.047,56.181c0.004,4.615-3.079,6.364-6.918,4.067"/>
<path id="Fill-123" inkscape:connector-curvature="0" class="st8" d="M31.893,20.095c3.313,2.002,5.996,6.847,6.01,10.846
	L37.95,87.84c-0.006,3.984-2.69,5.607-5.998,3.615L7.325,76.998c-3.321-1.994-5.998-6.834-6.01-10.83L1.268,9.267
	c0.006-3.985,2.678-5.614,5.998-3.63L31.893,20.095z"/>
<polygon id="Fill-125" class="st9" points="5.165,65.68 5.165,9.839 34.063,27.422 34.063,83.265 "/>
<path id="Fill-119" inkscape:connector-curvature="0" class="st10" d="M14.37,19.012L31.368,29.22l0.137,13.794
	c0,0,1.295-8.211-6.039-14.41C16.102,20.693,14.37,19.012,14.37,19.012"/>
<path id="path63" inkscape:connector-curvature="0" d="M43.235,86.566c0.029-0.284,0.043-0.585,0.043-0.897l-3.258,1.94
	c0,0.205-0.016,0.394-0.028,0.586L39.95,88.22l0,0l0,0c0,0.295-0.015,0.577-0.041,0.849c-0.173,1.805-0.903,3.076-2.012,3.638
	c1.93-0.979,1.112-0.679,3.258-1.938c1.088-0.578,1.82-1.816,2.004-3.59l0.006-0.003c0.002-0.017,0.001-0.036,0.003-0.053
	c0.016-0.17,0.021-0.352,0.027-0.532L43.235,86.566z"/>
<path id="Fill-121" class="st11" d="M22.378,80.419c0,0.994-0.803,1.32-1.791,0.724c-0.98-0.587-1.783-1.878-1.783-2.872
	c0-0.985,0.803-1.293,1.783-0.705C21.575,78.161,22.378,79.432,22.378,80.419"/>
</svg>
