<?xml version="1.0" encoding="utf-8"?>
<svg version="1.1" id="Layer_1" xmlns="http://www.w3.org/2000/svg" xmlns:xlink="http://www.w3.org/1999/xlink" x="0px" y="0px"
	 width="24px" height="24px" viewBox="0 0 24 24" enable-background="new 0 0 24 24" xml:space="preserve">
<path fill="#3C9BE4" d="M14,20c0-0.409,0.08-0.803,0.236-1.17c0.155-0.359,0.37-0.678,0.641-0.949
	c0.275-0.274,0.594-0.489,0.949-0.643c0.728-0.311,1.578-0.315,2.303-0.019c0.023-0.024,0.047-0.048,0.07-0.071
	c0.007-0.007,0.015-0.015,0.022-0.021c-0.002-0.004-0.003-0.008-0.005-0.012C18.072,16.755,18,16.381,18,16
	c0-0.409,0.08-0.803,0.236-1.17c0.155-0.359,0.37-0.678,0.641-0.949c0.275-0.274,0.594-0.489,0.949-0.643
	c0.742-0.316,1.609-0.314,2.344-0.002c0.243,0.105,0.458,0.246,0.661,0.403L23,13.5L11.5,0L0,13.5L11.5,23l2.631-2.174
	C14.053,20.556,14,20.281,14,20z"/>
<polygon opacity="0.2" fill="#FFFFFF" enable-background="new    " points="11.5,0 11.5,0 0,13.5 11.5,23 "/>
<circle fill="#FFFFFF" cx="11.5" cy="17.5" r="1.5"/>
<circle fill="#FFFFFF" cx="5.5" cy="13.5" r="1.5"/>
<circle fill="#FFFFFF" cx="11.5" cy="5.5" r="1.5"/>
<rect x="14" y="4.499" transform="matrix(0.8 -0.6 0.6 0.8 -2.7995 10.5997)" opacity="0.5" fill="#FFFFFF" enable-background="new    " width="1" height="10"/>
<rect x="8.001" y="11.894" transform="matrix(0.5547 -0.8321 0.8321 0.5547 -9.1111 13.9759)" fill="#FFFFFF" width="1" height="7.211"/>
<rect x="3.5" y="9" transform="matrix(0.5998 -0.8001 0.8001 0.5998 -4.1996 10.6022)" opacity="0.5" fill="#FFFFFF" enable-background="new    " width="10" height="1"/>
<rect x="10.896" y="15.001" transform="matrix(0.8321 -0.5547 0.5547 0.8321 -6.1628 10.6467)" fill="#FFFFFF" width="7.211" height="1"/>
<rect x="11" y="5.5" fill="#FFFFFF" width="1" height="12"/>
<circle fill="#000C82" cx="21" cy="16" r="2"/>
<path fill="#68217A" d="M14,24c0-1.657,1.343-3,3-3s3,1.343,3,3H14z"/>
<circle fill="#68217A" cx="17" cy="20" r="2"/>
<path fill="#000C82" d="M21,17c-0.772,0-1.469,0.3-2.001,0.779C19.609,18.329,20,19.116,20,20h4C24,18.343,22.657,17,21,17z"/>
<path fill="#FFFFFF" d="M17.5,15c0.279,0,0.536-0.081,0.76-0.214c0.154-0.341,0.358-0.646,0.617-0.906
	c0.028-0.028,0.062-0.049,0.092-0.076C18.989,13.707,19,13.605,19,13.5c0-0.828-0.672-1.5-1.5-1.5S16,12.672,16,13.5
	S16.672,15,17.5,15z"/>
</svg>
