<?xml version="1.0" encoding="utf-8"?>
<svg version="1.1" id="Layer_1" xmlns="http://www.w3.org/2000/svg" xmlns:xlink="http://www.w3.org/1999/xlink" x="0px" y="0px"
	 height="50px" width="50px" viewBox="0 0 50 50" enable-background="new 0 0 50 50" xml:space="preserve">
<path fill="#59B4D9" d="M22,44c-1.1,0-2.1-0.4-2.9-1.2L1.2,24.9C0.4,24.1,0,23.1,0,22c0-1.1,0.4-2.1,1.2-2.9L19.1,1.2
	C19.9,0.4,20.9,0,22,0c1.1,0,2.1,0.4,2.9,1.2l17.9,17.9c0.8,0.8,1.2,1.8,1.2,2.9s-0.4,2.1-1.2,2.9L24.9,42.8
	C24.1,43.6,23.1,44,22,44"/>
<path fill="#FFFFFF" d="M34,18.6c-1.9,0-3.4,1.5-3.4,3.4c0,0.7,0.2,1.3,0.6,1.9l-6.8,6.8c-0.2-0.1-0.4-0.2-0.6-0.3V13
	c1-0.6,1.7-1.7,1.7-3c0-1.9-1.5-3.4-3.4-3.4c-1.9,0-3.4,1.5-3.4,3.4c0,1.3,0.7,2.4,1.7,3v17.4c-0.2,0.1-0.4,0.2-0.6,0.3l-6.8-6.8
	c0.3-0.5,0.6-1.2,0.6-1.9c0-1.9-1.5-3.4-3.4-3.4c-1.9,0-3.4,1.5-3.4,3.4c0,1.9,1.5,3.4,3.4,3.4c0.4,0,0.8-0.1,1.1-0.2l7.2,7.2
	c-0.2,0.5-0.3,1-0.3,1.6c0,2.2,1.8,4,4,4c2.2,0,4-1.8,4-4c0-0.5-0.1-1.1-0.3-1.5l7.2-7.2c0.3,0.1,0.7,0.2,1.1,0.2
	c1.9,0,3.4-1.5,3.4-3.4C37.4,20.1,35.9,18.6,34,18.6z"/>
<rect x="27.3" y="7.2" transform="matrix(0.707 -0.7072 0.7072 0.707 -3.2349 24.869)" opacity="0.5" fill="#FFFFFF" enable-background="new    " width="2.2" height="18.2"/>
<rect x="14.5" y="7.3" transform="matrix(-0.7071 -0.7071 0.7071 -0.7071 15.1 38.955)" opacity="0.5" fill="#FFFFFF" enable-background="new    " width="2.2" height="18.2"/>
<path fill="#B8D432" d="M24.3,34c0,1.3-1.1,2.4-2.4,2.4c-1.3,0-2.4-1.1-2.4-2.4s1.1-2.4,2.4-2.4C23.3,31.6,24.3,32.7,24.3,34"/>
<path fill="#B8D432" d="M23.9,10c0,1.1-0.9,1.9-1.9,1.9s-1.9-0.9-1.9-1.9s0.9-1.9,1.9-1.9S23.9,9,23.9,10"/>
<path fill="#B8D432" d="M11.9,22c0,1.1-0.9,1.9-1.9,1.9c-1.1,0-1.9-0.9-1.9-1.9c0-1.1,0.9-1.9,1.9-1.9C11.1,20.1,11.9,20.9,11.9,22"
	/>
<path fill="#B8D432" d="M35.9,22c0,1.1-0.9,1.9-1.9,1.9s-1.9-0.9-1.9-1.9c0-1.1,0.9-1.9,1.9-1.9S35.9,20.9,35.9,22"/>
<path opacity="0.1" fill="#FFFFFF" enable-background="new    " d="M24.9,1.2C24.1,0.4,23.1,0,22,0c-1.1,0-2.1,0.4-2.9,1.2L1.2,19.1
	C0.4,19.9,0,20.9,0,22c0,1.1,0.4,2.1,1.2,2.9L11.3,35L30.5,6.8L24.9,1.2z"/>
<path fill="#BA141A" d="M48.2,30.3c-0.4-0.5-1-0.8-1.6-1.1c-2.7-1.1-6.6,0.3-9,3.7c-3.8-4.5-8.2-5.4-10.7-2.7
	c-5,5.4,1.3,12.6,6.2,16.6c1.9,1.6,3.7,2.7,4.4,3.1v0c0,0,0,0,0,0c0,0,0,0,0,0v0C40.2,48.7,55.1,37.8,48.2,30.3"/>
<path opacity="0.2" fill="#FFFFFF" d="M37.6,32.9c-3.8-4.5-8.2-5.4-10.7-2.7c-5,5.4,1.3,12.6,6.2,16.6l13.6-17.7
	C43.9,28.1,40,29.5,37.6,32.9"/>
<path opacity="0.5" fill="#FFFFFF" d="M26.2,39.1l2.8,0l2.5-0.1l1.9-5.1c0.1-0.3,0.3-0.9,1.1-0.9c0.8,0,0.9,0.6,0.9,0.9l0.1,8.5
	l1.4-2.9c0.1-0.3,0.4-0.4,0.6-0.4h8.1c0.4,0,0.7,0.4,0.7,0.7s-0.3,0.9-0.7,0.9h-7.3l-2.6,5.2c-0.2,0.5-0.4,0.7-1,0.6l0,0
	c-0.3-0.1-0.6-0.5-0.6-0.8L34,37.9L33.2,40c-0.1,0.3-0.3,0.7-0.6,0.7h-2.4h-3.1l-0.5-0.8L26.2,39.1z"/>
</svg>
