<?xml version="1.0" encoding="utf-8"?>
<svg version="1.1" id="Layer_1" xmlns="http://www.w3.org/2000/svg" xmlns:xlink="http://www.w3.org/1999/xlink" x="0px" y="0px"
	 width="24px" height="24px" viewBox="0 0 24 24" enable-background="new 0 0 24 24" xml:space="preserve">
<polygon fill="#3C9BE4" points="16.5,9 9,17.804 16.5,24 24,17.804 16.5,9 "/>
<polygon opacity="0.2" fill="#FFFFFF" enable-background="new    " points="16.5,9 16.5,9 9,17.804 16.5,24 "/>
<path opacity="0.5" fill="#FFFFFF" enable-background="new    " d="M14.748,16.669l1.308-1.743
	c-0.331-0.103-0.615-0.312-0.804-0.594l-1.308,1.744C14.275,16.178,14.559,16.386,14.748,16.669z"/>
<path opacity="0.5" fill="#FFFFFF" enable-background="new    " d="M17.748,14.331c-0.188,0.282-0.473,0.491-0.804,0.594
	l1.308,1.743c0.188-0.282,0.472-0.491,0.803-0.594L17.748,14.331z"/>
<path fill="#FFFFFF" d="M15.605,18.303l-0.655-0.437c-0.085,0.338-0.284,0.629-0.555,0.832l0.655,0.437
	C15.135,18.796,15.334,18.506,15.605,18.303z"/>
<path fill="#FFFFFF" d="M18.05,17.866l-0.655,0.437c0.271,0.203,0.47,0.493,0.555,0.832l0.655-0.437
	C18.334,18.494,18.135,18.204,18.05,17.866z"/>
<path fill="#FFFFFF" d="M16.5,12c-0.828,0-1.5,0.672-1.5,1.5s0.672,1.5,1.5,1.5s1.5-0.672,1.5-1.5S17.328,12,16.5,12L16.5,12z"/>
<path fill="#FFFFFF" d="M16.5,18c-0.828,0-1.5,0.672-1.5,1.5s0.672,1.5,1.5,1.5s1.5-0.672,1.5-1.5S17.328,18,16.5,18L16.5,18z"/>
<path fill="#FFFFFF" d="M13.5,16c-0.828,0-1.5,0.672-1.5,1.5s0.672,1.5,1.5,1.5s1.5-0.672,1.5-1.5S14.328,16,13.5,16L13.5,16z"/>
<path fill="#FFFFFF" d="M19.5,16c-0.828,0-1.5,0.672-1.5,1.5s0.672,1.5,1.5,1.5s1.5-0.672,1.5-1.5S20.328,16,19.5,16L19.5,16z"/>
<rect x="16" y="14.5" fill="#FFFFFF" width="1" height="4"/>
<polygon fill="#0072C6" points="7.581,17.929 16.5,7.458 22.206,14.156 23,13.5 11.5,0 0,13.5 11.5,23 12.61,22.083 "/>
</svg>
