<?xml version="1.0" encoding="utf-8"?>
<!-- Generator: Adobe Illustrator 22.1.0, SVG Export Plug-In . SVG Version: 6.00 Build 0)  -->
<svg version="1.1" id="Layer_1" xmlns="http://www.w3.org/2000/svg" xmlns:xlink="http://www.w3.org/1999/xlink" x="0px" y="0px"
	 viewBox="0 0 50.077 28.714" style="enable-background:new 0 0 50.077 28.714;" xml:space="preserve">
<style type="text/css">
	.st0{fill:#3999C6;}
	.st1{fill:#7FBA00;}
</style>
<path class="st0" d="M49.739,15.075c0.5-0.5,0.4-1.3,0-1.8l-2.4-2.4l-10.8-10.5c-0.5-0.5-1.2-0.5-1.7,0l0,0c-0.5,0.5-0.6,1.3,0,1.8
	l11.3,11.1c0.5,0.5,0.5,1.3,0,1.8l-11.5,11.5c-0.5,0.5-0.5,1.3,0,1.8l0,0c0.5,0.5,1.3,0.4,1.7,0l10.7-10.6c0,0,0,0,0.1-0.1
	L49.739,15.075z"/>
<path class="st0" d="M0.339,15.075c-0.5-0.5-0.4-1.3,0-1.8l2.4-2.4l10.8-10.5c0.5-0.5,1.2-0.5,1.7,0l0,0c0.5,0.5,0.6,1.3,0,1.8
	l-11.1,11.1c-0.5,0.5-0.5,1.3,0,1.8l11.3,11.5c0.5,0.5,0.5,1.3,0,1.8l0,0c-0.5,0.5-1.3,0.4-1.7,0l-10.9-10.5c0,0,0,0-0.1-0.1
	L0.339,15.075z"/>
<path class="st1" d="M22.739,14.175c0,1.9-1.6,3.3-3.3,3.3c-1.7,0-3.5-1.6-3.5-3.3s1.4-3.3,3.5-3.3
	C21.439,10.875,22.739,12.475,22.739,14.175z"/>
<circle class="st1" cx="30.739" cy="14.175" r="3.3"/>
</svg>
