<?xml version="1.0" encoding="utf-8"?>
<!-- Generator: Adobe Illustrator 22.1.0, SVG Export Plug-In . SVG Version: 6.00 Build 0)  -->
<svg version="1.1" id="Layer_1" xmlns="http://www.w3.org/2000/svg" xmlns:xlink="http://www.w3.org/1999/xlink" x="0px" y="0px"
	 viewBox="0 0 50 43.62" style="enable-background:new 0 0 50 43.62;" xml:space="preserve">
<style type="text/css">
	.st0{fill:#59B4D9;}
</style>
<path class="st0" d="M42.959,8.958c0,4.947-4.011,8.959-8.96,8.959c-4.948,0-8.958-4.011-8.958-8.959
	c0-4.947,4.01-8.958,8.958-8.958C38.948,0,42.959,4.011,42.959,8.958"/>
<polygon class="st0" points="40.55,20.988 34,30.166 27.449,20.988 18,20.988 18,43.62 50,43.62 50,20.988 "/>
<polygon class="st0" points="8.211,16.909 8.211,12.12 4.789,12.12 4.789,16.909 0,16.909 0,20.331 4.789,20.331 4.789,25.12 
	8.211,25.12 8.211,25.031 8.211,20.331 12.911,20.331 13,20.331 13,16.909 "/>
</svg>
