<?xml version="1.0" encoding="utf-8"?>
<!-- Generator: Adobe Illustrator 22.1.0, SVG Export Plug-In . SVG Version: 6.00 Build 0)  -->
<svg version="1.1" id="Layer_1" xmlns="http://www.w3.org/2000/svg" xmlns:xlink="http://www.w3.org/1999/xlink" x="0px" y="0px"
	 viewBox="0 0 50 50" style="enable-background:new 0 0 50 50;" xml:space="preserve">
<style type="text/css">
	.st0{fill:#59B4D9;}
	.st1{opacity:0.2;fill:#FFFFFF;enable-background:new    ;}
	.st2{fill:#FCD116;}
	.st3{opacity:0.3;fill:#FF8C00;enable-background:new    ;}
	.st4{opacity:0.4;fill:#FF8C00;enable-background:new    ;}
	.st5{opacity:0.5;fill:#FFFFFF;enable-background:new    ;}
</style>
<path class="st0" d="M28.6,10.3c0,5.7-4.6,10.3-10.3,10.3S8,16,8,10.3C8.1,4.6,12.7,0,18.3,0C24,0,28.6,4.6,28.6,10.3"/>
<polygon class="st0" points="25.8,24.1 18.3,34.6 10.8,24.1 0,24.1 0,50 36.7,50 36.7,24.1 "/>
<path class="st1" d="M8.1,10.3c0,5.6,4.5,10.1,10,10.3l2.6-20.2C19.9,0.1,19.1,0,18.3,0C12.7,0,8.1,4.6,8.1,10.3"/>
<polygon class="st1" points="10.8,24.1 0,24.1 0,50 14.4,50 16.7,32.2 "/>
<path class="st2" d="M46.5,42.7c2,0,3.5-1.6,3.5-3.5v-8.6c0-2-1.6-3.5-3.5-3.5h-8.6c-2,0-3.5,1.6-3.5,3.5v7.6L27,45.4V50h4l0,0h2.3
	v-2.3h2.3v-2.3h2.3v-2.3l0.3-0.3L46.5,42.7z M47.2,29.8c0.8,0.8,0.8,2.1,0,2.8c-0.8,0.8-2.1,0.8-2.8,0c-0.8-0.8-0.8-2.1,0-2.8
	C45.1,29,46.4,29,47.2,29.8z"/>
<path class="st3" d="M46.5,42.7c2,0,3.5-1.6,3.5-3.5v-8.6c0-2-1.6-3.5-3.5-3.5h-8.6c-2,0-3.5,1.6-3.5,3.5v7.6L27,45.4V50h4l0,0h2.3
	v-2.3h2.3v-2.3h2.3v-2.3l0.3-0.3L46.5,42.7z M47.2,29.8c0.8,0.8,0.8,2.1,0,2.8c-0.8,0.8-2.1,0.8-2.8,0c-0.8-0.8-0.8-2.1,0-2.8
	C45.1,29,46.4,29,47.2,29.8z"/>
<polygon class="st4" points="28.4,47.1 28.4,48.9 35.4,41.9 35,40.6 "/>
<rect x="41.347" y="29.657" transform="matrix(0.7071 -0.7071 0.7071 0.7071 -12.7125 40.2227)" class="st5" width="1.7" height="11.6"/>
<rect x="39.548" y="31.573" transform="matrix(0.7071 -0.7071 0.7071 0.7071 -14.5947 39.5121)" class="st5" width="1.7" height="11.6"/>
</svg>
