<?xml version="1.0" encoding="utf-8"?>
<!-- Generator: Adobe Illustrator 22.1.0, SVG Export Plug-In . SVG Version: 6.00 Build 0)  -->
<svg version="1.1" id="Layer_1" xmlns="http://www.w3.org/2000/svg" xmlns:xlink="http://www.w3.org/1999/xlink" x="0px" y="0px"
	 viewBox="0 0 47.291 49.169" style="enable-background:new 0 0 47.291 49.169;" xml:space="preserve">
<style type="text/css">
	.st0{fill:#E5E5E5;}
	.st1{fill:#3999C6;}
	.st2{opacity:0.5;fill:#1E1E1E;enable-background:new    ;}
	.st3{fill:#7A7A7A;}
	.st4{fill:#59B4D9;}
	.st5{fill:#1E1E1E;}
	.st6{fill:#A0A1A2;}
</style>
<path class="st0" d="M23.614,18.375c-0.145-0.012-0.248-0.063-0.404-0.063c-8.292,0-11.161,3.297-11.161,3.297
	c8.13,4.939,11.161,15.409,11.161,15.409s0.159-0.372,0.404-0.976c0.249,0.604,0.409,0.976,0.409,0.976s3.031-10.47,11.161-15.409
	c0,0-2.871-3.297-11.161-3.297C23.868,18.312,23.762,18.363,23.614,18.375"/>
<path class="st1" d="M47.111,41.046c0.114-0.086,0.18-0.135,0.18-0.135s-1.514-2.411-4.879-5.014
	c-1.953-1.51-4.522-3.086-7.791-4.293v-0.06c-3.277-1.128-7.008-1.774-10.979-1.774c-3.967,0-7.7,0.646-10.976,1.774v0.06
	c-3.267,1.207-5.836,2.783-7.789,4.293C1.513,38.5,0,40.911,0,40.911s0.07,0.053,0.201,0.151c0.142,0.105,0.363,0.264,0.649,0.461
	c2.579,1.764,10.931,7.646,22.792,7.646c11.865,0,20.217-5.882,22.795-7.646C46.742,41.315,46.966,41.152,47.111,41.046"/>
<path class="st2" d="M38.025,35.012c0,2.04-6.473,3.696-14.455,3.696c-7.986,0-14.455-1.656-14.455-3.696
	c0-2.047,6.469-3.705,14.455-3.705C31.552,31.307,38.025,32.965,38.025,35.012"/>
<path class="st3" d="M23.521,31.307L23.521,31.307h-0.015h-0.014c-8,0.233-14.327,1.777-14.536,3.58
	c-0.008-0.492-0.014-0.974-0.022-1.444c-0.025-1.851,6.404-3.448,14.558-3.682h0.014h0.015c8.149,0.234,14.581,1.831,14.556,3.682
	c-0.01,0.47-0.016,0.952-0.022,1.444C37.845,33.084,31.517,31.54,23.521,31.307"/>
<path class="st4" d="M20.716,34.061c-0.302-0.062-7.351-1.457-8.896-7.441c-0.066-0.257,0.039-0.531,0.274-0.649
	c0.224-0.145,0.514-0.116,0.701,0.065c0.041,0.035,3.668,3.508,6.656,3.548c0.246-0.008,0.459,0.15,0.549,0.358l1.367,3.315
	c0.088,0.19,0.049,0.42-0.084,0.599C21.152,34.021,20.929,34.101,20.716,34.061"/>
<path class="st4" d="M33.392,25.631c-0.027,0.035-2.987,3.672-5.753,4.064c-0.227,0.019-0.401,0.186-0.453,0.403l-0.879,3.22
	c-0.059,0.203-0.002,0.409,0.145,0.543c0.153,0.143,0.364,0.193,0.55,0.132c0.271-0.084,6.643-2.224,7.361-7.959
	c0.039-0.237-0.101-0.471-0.332-0.563C33.812,25.367,33.55,25.439,33.392,25.631"/>
<polygon class="st5" points="26.729,30.924 27.644,37.264 19.433,37.264 20.348,30.924 "/>
<path class="st4" d="M23.197,37.482c-2.251-8.971-5.546-12.207-9.584-20.914C9.691,8.103,15.972-0.173,24.035,0.003
	c8.053,0.187,13.961,8.735,9.656,17.01C29.27,25.544,25.845,28.625,23.197,37.482"/>
<path class="st5" d="M20.342,14.434c-0.017,0.746-0.367,1.331-0.781,1.326c-0.422-0.019-0.738-0.615-0.732-1.361
	c0.017-0.737,0.376-1.325,0.781-1.313C20.031,13.098,20.355,13.706,20.342,14.434"/>
<path class="st5" d="M28.346,14.637c-0.023,0.727-0.368,1.322-0.785,1.312c-0.419-0.007-0.74-0.61-0.717-1.352
	c0.006-0.737,0.354-1.327,0.779-1.319C28.037,13.287,28.364,13.891,28.346,14.637"/>
<path class="st6" d="M27.645,25.826c-2.353,2.658-3.495,6.26-4.031,8.691c-0.538-2.431-1.681-6.033-4.034-8.691
	c0,0-3.785-4.027-7.451-4.063c0,0,9.963,9.471,10.92,15.421h0.12h0.892h0.119c0.959-5.95,10.917-15.421,10.917-15.421
	C31.429,21.799,27.645,25.826,27.645,25.826z"/>
<path class="st0" d="M23.521,36.885L23.521,36.885h-0.029c-8-0.229-14.327-1.263-14.536-3.067c-0.008,0.494-0.014,0.974-0.022,1.448
	c-0.025,1.849,6.404,3.443,14.558,3.679v0.003c0.004,0,0.01-0.003,0.014-0.003s0.008,0.003,0.015,0.003v-0.003
	c8.149-0.236,14.581-1.83,14.556-3.679c-0.01-0.474-0.016-0.954-0.022-1.448C37.845,35.622,31.517,36.656,23.521,36.885"/>
<path class="st2" d="M23.643,49.169c11.865,0,20.217-5.882,22.795-7.646c0.305-0.208,0.529-0.371,0.674-0.477
	c-4.695,1.893-13.598,5.329-23.512,5.329c-9.912,0-18.714-3.371-23.398-5.313c0.142,0.105,0.363,0.264,0.649,0.461
	C3.429,43.287,11.781,49.169,23.643,49.169"/>
<path class="st5" d="M29.717,20.412c-1.015-1.465-3.413-2.495-6.212-2.495s-5.197,1.03-6.212,2.495
	c1.464-0.92,3.702-1.509,6.212-1.509S28.253,19.492,29.717,20.412z"/>
</svg>
