<?xml version="1.0" encoding="utf-8"?>
<!-- Generator: Adobe Illustrator 17.0.1, SVG Export Plug-In . SVG Version: 6.00 Build 0)  -->
<!DOCTYPE svg PUBLIC "-//W3C//DTD SVG 1.1//EN" "http://www.w3.org/Graphics/SVG/1.1/DTD/svg11.dtd">
<svg version="1.1" id="Layer_1" xmlns="http://www.w3.org/2000/svg" xmlns:xlink="http://www.w3.org/1999/xlink" x="0px" y="0px"
	 width="50px" height="50px" viewBox="0 0 50 50" enable-background="new 0 0 50 50" xml:space="preserve">
<path fill="#E5E5E5" d="M23.614,18.375c-0.145-0.012-0.248-0.063-0.404-0.063c-8.292,0-11.161,3.297-11.161,3.297
	c8.13,4.939,11.161,15.409,11.161,15.409s0.159-0.372,0.404-0.976c0.249,0.604,0.409,0.976,0.409,0.976s3.031-10.47,11.161-15.409
	c0,0-2.871-3.297-11.161-3.297C23.868,18.312,23.762,18.363,23.614,18.375"/>
<path fill="#3999C6" d="M47.111,41.046c0.114-0.086,0.18-0.135,0.18-0.135s-1.514-2.411-4.879-5.014
	c-1.953-1.51-4.522-3.086-7.791-4.293v-0.06c-3.277-1.128-7.008-1.774-10.979-1.774c-3.967,0-7.7,0.646-10.976,1.774v0.06
	c-3.267,1.207-5.836,2.783-7.789,4.293C1.513,38.5,0,40.911,0,40.911s0.07,0.053,0.201,0.151c0.142,0.105,0.363,0.264,0.649,0.461
	c2.579,1.764,10.931,7.646,22.792,7.646c11.865,0,20.217-5.882,22.795-7.646C46.742,41.315,46.966,41.152,47.111,41.046"/>
<path opacity="0.5" fill="#1E1E1E" enable-background="new    " d="M38.025,35.012c0,2.04-6.473,3.696-14.455,3.696
	c-7.986,0-14.455-1.656-14.455-3.696c0-2.047,6.469-3.705,14.455-3.705C31.552,31.307,38.025,32.965,38.025,35.012"/>
<path fill="#7A7A7A" d="M23.521,31.307L23.521,31.307h-0.015h-0.014c-8,0.233-14.327,1.777-14.536,3.58
	c-0.008-0.492-0.014-0.974-0.022-1.444c-0.025-1.851,6.404-3.448,14.558-3.682h0.014h0.015c8.149,0.234,14.581,1.831,14.556,3.682
	c-0.01,0.47-0.016,0.952-0.022,1.444C37.845,33.084,31.517,31.54,23.521,31.307"/>
<path fill="#59B4D9" d="M20.716,34.061c-0.302-0.062-7.351-1.457-8.896-7.441c-0.066-0.257,0.039-0.531,0.274-0.649
	c0.224-0.145,0.514-0.116,0.701,0.065c0.041,0.035,3.668,3.508,6.656,3.548c0.246-0.008,0.459,0.15,0.549,0.358l1.367,3.315
	c0.088,0.19,0.049,0.42-0.084,0.599C21.152,34.021,20.929,34.101,20.716,34.061"/>
<path fill="#59B4D9" d="M33.392,25.631c-0.027,0.035-2.987,3.672-5.753,4.064c-0.227,0.019-0.401,0.186-0.453,0.403l-0.879,3.22
	c-0.059,0.203-0.002,0.409,0.145,0.543c0.153,0.143,0.364,0.193,0.55,0.132c0.271-0.084,6.643-2.224,7.361-7.959
	c0.039-0.237-0.101-0.471-0.332-0.563C33.812,25.367,33.55,25.439,33.392,25.631"/>
<polygon fill="#1E1E1E" points="26.729,30.924 27.644,37.264 19.433,37.264 20.348,30.924 "/>
<path fill="#59B4D9" d="M23.197,37.482c-2.251-8.971-5.546-12.207-9.584-20.914C9.691,8.103,15.972-0.173,24.035,0.003
	c8.053,0.187,13.961,8.735,9.656,17.01C29.27,25.544,25.845,28.625,23.197,37.482"/>
<path fill="#1E1E1E" d="M20.342,14.434c-0.017,0.746-0.367,1.331-0.781,1.326c-0.422-0.019-0.738-0.615-0.732-1.361
	c0.017-0.737,0.376-1.325,0.781-1.313C20.031,13.098,20.355,13.706,20.342,14.434"/>
<path fill="#1E1E1E" d="M28.346,14.637c-0.023,0.727-0.368,1.322-0.785,1.312c-0.419-0.007-0.74-0.61-0.717-1.352
	c0.006-0.737,0.354-1.327,0.779-1.319C28.037,13.287,28.364,13.891,28.346,14.637"/>
<path fill="#A0A1A2" d="M27.645,25.826c-2.353,2.658-3.495,6.26-4.031,8.691c-0.538-2.431-1.681-6.033-4.034-8.691
	c0,0-3.785-4.027-7.451-4.063c0,0,9.963,9.471,10.92,15.421h0.12h0.892h0.119c0.959-5.95,10.917-15.421,10.917-15.421
	C31.429,21.799,27.645,25.826,27.645,25.826z"/>
<path fill="#E5E5E5" d="M23.521,36.885L23.521,36.885h-0.029c-8-0.229-14.327-1.263-14.536-3.067
	c-0.008,0.494-0.014,0.974-0.022,1.448c-0.025,1.849,6.404,3.443,14.558,3.679v0.003c0.004,0,0.01-0.003,0.014-0.003
	s0.008,0.003,0.015,0.003v-0.003c8.149-0.236,14.581-1.83,14.556-3.679c-0.01-0.474-0.016-0.954-0.022-1.448
	C37.845,35.622,31.517,36.656,23.521,36.885"/>
<path fill="#B8D432" d="M43.49,6.905c-3.596,0-6.511,2.914-6.511,6.51c0,1.275,0.149,2.058,0.783,3.062l-2.139,1.767h3.512
	c1.154,1.042,2.677,1.681,4.355,1.681c3.596,0,6.51-2.916,6.51-6.51C50,9.819,47.086,6.905,43.49,6.905"/>
<path fill="#FFFFFF" d="M46.812,10.702c0,0.978-0.488,1.863-1.465,2.658c-0.408,0.328-0.68,0.597-0.818,0.807
	c-0.137,0.211-0.207,0.489-0.207,0.835v0.386h-1.824v-0.589c0-0.847,0.338-1.555,1.012-2.126c0.42-0.346,0.707-0.631,0.859-0.855
	c0.15-0.225,0.227-0.496,0.227-0.813c0-0.295-0.107-0.536-0.326-0.723C44.052,10.094,43.773,10,43.431,10
	c-0.768,0-1.498,0.307-2.195,0.919V8.808c0.721-0.43,1.529-0.646,2.428-0.646c0.986,0,1.758,0.226,2.314,0.678
	C46.535,9.291,46.812,9.911,46.812,10.702z"/>
<path fill="#FFFFFF" d="M44.744,17.388c0,0.337-0.121,0.615-0.361,0.835s-0.549,0.329-0.922,0.329c-0.355,0-0.662-0.111-0.92-0.333
	s-0.387-0.499-0.387-0.831s0.125-0.607,0.373-0.824c0.248-0.218,0.559-0.326,0.934-0.326c0.369,0,0.676,0.108,0.918,0.326
	C44.623,16.78,44.744,17.056,44.744,17.388z"/>
<path opacity="0.5" fill="#1E1E1E" enable-background="new    " d="M23.643,49.169c11.865,0,20.217-5.882,22.795-7.646
	c0.305-0.208,0.529-0.371,0.674-0.477c-4.695,1.893-13.598,5.329-23.512,5.329c-9.912,0-18.714-3.371-23.398-5.313
	c0.142,0.105,0.363,0.264,0.649,0.461C3.429,43.287,11.781,49.169,23.643,49.169"/>
<path opacity="0.85" fill="#3E3E3E" enable-background="new    " d="M30.983,18.229c0.013-0.648-14.392-0.97-14.412-0.324
	c-0.009,0.452,1.637,2.518,3.98,3.764c0.878-0.241,1.945-0.316,3.052-0.155c0.958,0.14,1.787,0.432,2.427,0.808
	C28.942,21.411,30.976,18.757,30.983,18.229z"/>
<path fill="#1E1E1E" d="M24.415,18.921c-0.721-0.045-0.77,0.511-0.741,1.178c0.032,0.667,0.082,0.915-0.216,0.92
	c-0.294,0.003-0.722-0.166-0.35-0.904c0.378-0.738,0.029-1.718-1.459-0.848c-1.174,0.686-1.027,1.884-0.913,2.362
	c0.842-0.204,1.834-0.266,2.868-0.115c0.958,0.14,1.787,0.432,2.427,0.808c0.111-0.035,0.211-0.087,0.32-0.127
	c0.01-0.025,0.02-0.042,0.031-0.067C27.207,20.165,25.137,18.961,24.415,18.921z"/>
<path fill="#FFFFFF" d="M25.247,19.035c0.737-0.005,1.344-0.598,1.422-1.353c-0.918-0.045-1.907-0.08-2.901-0.102
	C23.799,18.393,24.449,19.042,25.247,19.035z"/>
<path fill="#FFFFFF" d="M21.998,18.985c0.796,0.032,1.465-0.6,1.521-1.41c-0.758-0.015-1.512-0.024-2.229-0.024
	c-0.231,0-0.452,0.002-0.675,0.004C20.653,18.329,21.249,18.957,21.998,18.985z"/>
<path fill="#DD5900" d="M20.552,21.668c1.024,0.544,2.179,0.934,3.389,0.96c0.733,0.017,1.433-0.102,2.09-0.307
	c-0.64-0.376-1.469-0.668-2.427-0.808C22.496,21.352,21.429,21.428,20.552,21.668z"/>
</svg>
