<?xml version="1.0" encoding="utf-8"?>
<!-- Generator: Adobe Illustrator 22.1.0, SVG Export Plug-In . SVG Version: 6.00 Build 0)  -->
<svg version="1.1" id="Layer_1" xmlns="http://www.w3.org/2000/svg" xmlns:xlink="http://www.w3.org/1999/xlink" x="0px" y="0px"
	 viewBox="0 0 49.8 42.6" style="enable-background:new 0 0 49.8 42.6;" xml:space="preserve">
<style type="text/css">
	.st0{fill:#7FBA00;}
	.st1{fill:#FFFFFF;}
</style>
<path class="st0" d="M2.4,42.6h45c1.3,0,2.4-1.1,2.4-2.4V2.4c0-1.3-1.1-2.4-2.4-2.4h-45C1.1,0,0,1.1,0,2.4v37.8
	C0,41.5,1.1,42.6,2.4,42.6z"/>
<path class="st1" d="M39.8,0v21.1h-4.1c-0.4-2.4-1.6-4.7-3.4-6.6c-2.4-2.4-5.5-3.7-8.9-3.7c-3.3,0-6.5,1.3-8.9,3.7
	c-0.8,0.8-0.8,2.1,0,3c0.8,0.8,2.1,0.8,3,0c1.6-1.6,3.7-2.4,5.9-2.4s4.3,0.9,5.9,2.4c3.3,3.3,3.3,8.6,0,11.8
	c-1.6,1.6-3.7,2.4-5.9,2.4s-4.3-0.9-5.9-2.4c-0.8-0.8-2.1-0.8-3,0c-0.8,0.8-0.8,2.1,0,3c2.4,2.4,5.5,3.7,8.9,3.7
	c3.3,0,6.5-1.3,8.9-3.7c2-2,3.1-4.4,3.5-7h6.1c1.2,0,2.1-0.9,2.1-2.1V0"/>
<path class="st1" d="M6.1,0v23.2c0,1.2,0.9,2.1,2.1,2.1H19c0.8,1.7,2.5,2.9,4.5,2.9c2.8,0,5-2.2,5-5c-0.1-2.8-2.4-5-5.1-5
	c-2,0-3.7,1.2-4.5,2.9h-8.7V0"/>
</svg>
