<?xml version="1.0" encoding="UTF-8" standalone="no"?>
<svg
   xmlns:dc="http://purl.org/dc/elements/1.1/"
   xmlns:cc="http://creativecommons.org/ns#"
   xmlns:rdf="http://www.w3.org/1999/02/22-rdf-syntax-ns#"
   xmlns:svg="http://www.w3.org/2000/svg"
   xmlns="http://www.w3.org/2000/svg"
   xmlns:sodipodi="http://sodipodi.sourceforge.net/DTD/sodipodi-0.dtd"
   xmlns:inkscape="http://www.inkscape.org/namespaces/inkscape"
   version="1.1"
   id="Layer_1"
   x="0px"
   y="0px"
   width="50.200001"
   height="41.700001"
   viewBox="0 0 50.200001 41.700001"
   enable-background="new 0 0 50 50"
   xml:space="preserve"
   inkscape:version="0.91 r13725"
   sodipodi:docname="Azure API Management_COLOR.svg"><metadata
     id="metadata4145"><rdf:RDF><cc:Work
         rdf:about=""><dc:format>image/svg+xml</dc:format><dc:type
           rdf:resource="http://purl.org/dc/dcmitype/StillImage" /><dc:title></dc:title></cc:Work></rdf:RDF></metadata><defs
     id="defs4143" /><sodipodi:namedview
     pagecolor="#ffffff"
     bordercolor="#666666"
     borderopacity="1"
     objecttolerance="10"
     gridtolerance="10"
     guidetolerance="10"
     inkscape:pageopacity="0"
     inkscape:pageshadow="2"
     inkscape:window-width="1920"
     inkscape:window-height="1018"
     id="namedview4141"
     showgrid="false"
     fit-margin-top="0"
     fit-margin-left="0"
     fit-margin-right="0"
     fit-margin-bottom="0"
     inkscape:zoom="17.02"
     inkscape:cx="25"
     inkscape:cy="20.7"
     inkscape:window-x="-8"
     inkscape:window-y="-8"
     inkscape:window-maximized="1"
     inkscape:current-layer="Layer_1" /><path
     d="M 20.5,28.5 11.6,28.5 11.6,28.5 C 7.2,28.5 3.6,24.9 3.6,20.4 3.6,15.9 7,12.3 11.6,12.3 12.4,12.3 13.3,12.5 14.3,12.6 L 16,13.1 16.5,11.4 C 18.1,6.2 23.1,3 28.8,3 35.7,3 41,8.3 41,15.2 41,16.3 40.8,17.4 40.5,18.5 L 39.8,21 42.5,20.7 C 42.7,20.7 42.8,20.7 43,20.7 45,20.7 46.6,22.4 46.6,24.3 46.6,26.2 45.2,27.6 43.5,27.9 43.5,27.9 34.9,27.9 34.6,27.9 34.3,25.4 33,23.2 31.3,21.5 29.1,19.3 26.1,18 23,18 20.8,18 18.6,18.6 16.9,19.7 L 18.8,22.7 C 20.2,21.9 21.6,21.6 23.2,21.6 25.4,21.6 27.6,22.4 29,24.1 30.6,25.7 31.5,27.7 31.5,29.9 31.5,32.1 30.7,34.3 29,35.7 27.4,37.4 25.4,38.2 23.2,38.2 21.6,38.2 20.1,37.7 18.8,36.8 L 16.9,39.8 C 18.8,40.9 21,41.7 23,41.7 26.1,41.7 29.1,40.6 31.3,38.3 33.2,36.4 34.3,33.9 34.6,31.3 35.1,31.3 43.7,31.3 43.7,31.3 L 43.9,31.3 C 47.5,31 50.2,27.9 50.2,24.1 50.2,21.1 47.4,18.3 44.1,17.7 44.3,17.1 44.3,16.8 44.3,15.8 44.3,7 38.1,0 28.2,0 L 28.2,0 C 21.9,0 16.3,3.6 14,9.4 13.2,9.4 12.6,9.1 11.7,9.1 5.2,9 0,14 0,20.4 0,26.7 5.2,31.7 11.4,31.7 L 21.2,31.7 20.5,28.5 Z"
     id="path4137"
     inkscape:connector-curvature="0"
     style="fill:#59b4d9" /><circle
     cx="22.799999"
     cy="29.799999"
     r="5.5999999"
     id="circle4139"
     style="fill:#68217a" /></svg>