<?xml version="1.0" encoding="UTF-8" standalone="no"?>
<!-- Generator: Adobe Illustrator 19.1.0, SVG Export Plug-In . SVG Version: 6.00 Build 0)  -->

<svg
   xmlns:dc="http://purl.org/dc/elements/1.1/"
   xmlns:cc="http://creativecommons.org/ns#"
   xmlns:rdf="http://www.w3.org/1999/02/22-rdf-syntax-ns#"
   xmlns:svg="http://www.w3.org/2000/svg"
   xmlns="http://www.w3.org/2000/svg"
   xmlns:sodipodi="http://sodipodi.sourceforge.net/DTD/sodipodi-0.dtd"
   xmlns:inkscape="http://www.inkscape.org/namespaces/inkscape"
   version="1.1"
   id="Layer_1"
   x="0px"
   y="0px"
   width="44"
   height="50"
   viewBox="1 -1 44 50"
   enable-background="new 1 -1 50 50"
   xml:space="preserve"
   sodipodi:docname="APIDefinition.svg"
   inkscape:version="0.92.3 (2405546, 2018-03-11)"><metadata
   id="metadata1583"><rdf:RDF><cc:Work
       rdf:about=""><dc:format>image/svg+xml</dc:format><dc:type
         rdf:resource="http://purl.org/dc/dcmitype/StillImage" /><dc:title></dc:title></cc:Work></rdf:RDF></metadata><defs
   id="defs1581" /><sodipodi:namedview
   pagecolor="#ffffff"
   bordercolor="#666666"
   borderopacity="1"
   objecttolerance="10"
   gridtolerance="10"
   guidetolerance="10"
   inkscape:pageopacity="0"
   inkscape:pageshadow="2"
   inkscape:window-width="1920"
   inkscape:window-height="1017"
   id="namedview1579"
   showgrid="false"
   fit-margin-top="0"
   fit-margin-left="0"
   fit-margin-right="0"
   fit-margin-bottom="0"
   inkscape:zoom="8.5"
   inkscape:cx="1.480948"
   inkscape:cy="18.884403"
   inkscape:window-x="1912"
   inkscape:window-y="-8"
   inkscape:window-maximized="1"
   inkscape:current-layer="Layer_1" />
<polygon
   points="4,49 48,49 48,-1 4,-1 "
   id="polygon1564"
   style="fill:#59b4d9"
   transform="translate(-3)" />
<polygon
   enable-background="new    "
   points="6,47 46,47 46,1 6,1 "
   id="polygon1566"
   style="opacity:0.8;fill:#ffffff"
   transform="translate(-3)" />
<path
   d="m 26.8,41.1 c 0,0.6 -0.5,1.1 -1.1,1.1 H 10.6 C 10,42.2 9.5,41.7 9.5,41.1 9.5,40.5 10,40 10.6,40 h 15.1 c 0.6,0 1.1,0.5 1.1,1.1"
   id="path1568"
   inkscape:connector-curvature="0"
   style="fill:#59b4d9" />
<path
   d="m 36.9,26.1 c 0,0.6 -0.5,1.1 -1.1,1.1 H 10.6 C 10,27.2 9.5,26.7 9.5,26.1 9.5,25.5 10,25 10.6,25 h 25.1 c 0.7,0 1.2,0.5 1.2,1.1"
   id="path1570"
   inkscape:connector-curvature="0"
   style="fill:#59b4d9" />
<path
   d="m 36.9,33.6 c 0,0.6 -0.5,1.1 -1.1,1.1 H 10.6 C 10,34.7 9.5,34.2 9.5,33.6 9.5,33 10,32.5 10.6,32.5 h 25.1 c 0.7,0 1.2,0.5 1.2,1.1"
   id="path1572"
   inkscape:connector-curvature="0"
   style="fill:#59b4d9" />
<path
   d="m 35.717,-1 v 12.47 h -6.423 c -0.236,-1.418 -0.946,-2.778 -2.009,-3.9 -1.418,-1.418 -3.25,-2.187 -5.26,-2.187 -1.95,0 -3.841,0.768 -5.26,2.187 -0.473,0.473 -0.473,1.241 0,1.773 0.473,0.473 1.241,0.473 1.773,0 0.946,-0.946 2.187,-1.418 3.487,-1.418 1.3,0 2.541,0.532 3.487,1.418 1.95,1.95 1.95,5.082 0,6.973 -0.946,0.946 -2.187,1.418 -3.487,1.418 -1.3,0 -2.541,-0.532 -3.487,-1.418 -0.473,-0.473 -1.241,-0.473 -1.773,0 -0.473,0.473 -0.473,1.241 0,1.773 1.418,1.418 3.25,2.187 5.26,2.187 1.95,0 3.841,-0.768 5.26,-2.187 1.182,-1.182 1.832,-2.6 2.068,-4.137 h 7.605 c 0.709,0 1.241,-0.532 1.241,-1.241 V -1"
   id="path1574"
   inkscape:connector-curvature="0"
   style="fill:#59b4d9" />
<path
   d="m 7.801,-1 v 13.711 c 0,0.709 0.532,1.241 1.241,1.241 h 10.382 c 0.473,1.005 1.477,1.714 2.659,1.714 1.655,0 2.955,-1.3 2.955,-2.955 -0.059,-1.655 -1.418,-2.955 -3.014,-2.955 -1.182,0 -2.187,0.709 -2.659,1.714 H 10.224 V -1"
   id="path1576"
   inkscape:connector-curvature="0"
   style="fill:#59b4d9" />
</svg>