<?xml version="1.0" encoding="utf-8"?>
<svg version="1.1" id="Layer_1" xmlns="http://www.w3.org/2000/svg" xmlns:xlink="http://www.w3.org/1999/xlink" x="0px" y="0px"
	 width="50px" height="50px" viewBox="0 0 50 50" enable-background="new 0 0 50 50" xml:space="preserve">
<path fill="#59B4D9" d="M25,50c-1.2,0-2.4-0.5-3.3-1.4L1.4,28.3C0.5,27.4,0,26.2,0,25c0-1.2,0.5-2.4,1.4-3.3L21.7,1.4
	C22.6,0.5,23.8,0,25,0c1.2,0,2.4,0.5,3.3,1.4l20.4,20.4c0.9,0.9,1.4,2,1.4,3.3s-0.5,2.4-1.4,3.3L28.3,48.6C27.4,49.5,26.2,50,25,50"
	/>
<path opacity="0.1" fill="#FFFFFF" enable-background="new    " d="M28.3,1.4C27.4,0.5,26.2,0,25,0c-1.2,0-2.4,0.5-3.3,1.4L1.4,21.7
	C0.5,22.6,0,23.8,0,25c0,1.2,0.5,2.4,1.4,3.3l11.5,11.5L34.6,7.7L28.3,1.4z"/>
<polygon fill="#3E3E3E" points="30.6,12.6 30.6,11.4 30.4,11.3 29.1,10.9 28.7,10 29.4,8.5 28.5,7.6 28.3,7.7 27.1,8.3 26.2,7.9 
	25.6,6.4 24.3,6.4 24.3,6.6 23.8,8 22.9,8.3 21.5,7.6 20.6,8.5 20.6,8.7 21.3,10 20.9,10.9 19.4,11.4 19.4,12.7 19.6,12.8 
	20.9,13.2 21.3,14.1 20.6,15.6 21.5,16.5 21.7,16.4 22.9,15.7 23.8,16.1 24.4,17.6 25.7,17.6 25.7,17.5 26.2,16.1 27.1,15.7 
	28.5,16.4 29.4,15.5 29.4,15.4 28.7,14.1 29.1,13.2 "/>
<path opacity="0.2" fill="#F1F1F1" enable-background="new    " d="M28.3,7.7l-1.3,0.6l-0.9-0.4l-0.6-1.5h-1.3l-0.1,0.2L23.8,8
	l-0.9,0.4l-1.5-0.7l-0.9,0.9l0.1,0.2l0.7,1.3l-0.4,0.9l-1.5,0.6v1.3l0.2,0.1l1.4,0.4l0.4,0.9l-0.7,1.5l0.9,0.9l0.2-0.1l0.5-0.3
	L23,15c0,0,0,0,0,0l4.3-5.9c0,0,0,0,0,0L28.3,7.7z"/>
<circle fill="#59B4D9" cx="25" cy="12" r="2"/>
<polygon fill="#3E3E3E" points="30.6,39.4 30.6,38.1 30.4,38.1 29.1,37.6 28.7,36.7 29.4,35.3 28.5,34.4 28.3,34.4 27.1,35.1 
	26.2,34.7 25.6,33.2 24.3,33.2 24.3,33.4 23.8,34.7 22.9,35.1 21.5,34.4 20.6,35.3 20.6,35.5 21.3,36.8 20.9,37.6 19.4,38.2 
	19.4,39.5 19.6,39.5 20.9,40 21.3,40.9 20.6,42.3 21.5,43.3 21.7,43.2 22.9,42.5 23.8,42.9 24.4,44.4 25.7,44.4 25.7,44.2 
	26.2,42.9 27.1,42.5 28.5,43.2 29.4,42.3 29.4,42.1 28.7,40.9 29.1,40 "/>
<path opacity="0.2" fill="#F1F1F1" enable-background="new    " d="M28.3,34.5l-1.3,0.6l-0.9-0.4l-0.6-1.5h-1.3l-0.1,0.2l-0.4,1.4
	l-0.9,0.4l-1.5-0.7l-0.9,0.9l0.1,0.2l0.7,1.3l-0.4,0.9l-1.5,0.6v1.3l0.2,0.1l1.4,0.4l0.4,0.9l-0.7,1.5l0.9,0.9l0.2-0.1l0.5-0.3
	l0.8-1.1c0,0,0,0,0,0l4.3-5.9c0,0,0,0,0,0L28.3,34.5z"/>
<circle fill="#59B4D9" cx="25" cy="38.8" r="2"/>
<polygon fill="#3E3E3E" points="16.9,25.6 16.9,24.3 16.7,24.3 15.3,23.8 15,22.9 15.7,21.5 14.8,20.6 14.6,20.6 13.3,21.3 
	12.4,20.9 11.9,19.4 10.6,19.4 10.5,19.6 10.1,20.9 9.2,21.3 7.7,20.6 6.8,21.5 6.9,21.7 7.5,22.9 7.2,23.8 5.6,24.4 5.6,25.7 
	5.8,25.7 7.2,26.2 7.5,27.1 6.8,28.5 7.7,29.4 7.9,29.4 9.2,28.7 10.1,29.1 10.6,30.6 11.9,30.6 12,30.4 12.4,29.1 13.3,28.7 
	14.8,29.4 15.7,28.5 15.6,28.3 15,27.1 15.3,26.2 "/>
<path opacity="0.2" fill="#F1F1F1" enable-background="new    " d="M14.6,20.6l-1.3,0.6l-0.9-0.4l-0.6-1.5h-1.3l-0.1,0.2l-0.4,1.4
	l-0.9,0.4l-1.5-0.7l-0.9,0.9l0.1,0.2l0.7,1.3l-0.4,0.9l-1.5,0.6v1.3l0.2,0.1l1.4,0.4l0.4,0.9l-0.7,1.5l0.9,0.9l0.2-0.1l0.5-0.3
	L9.2,28c0,0,0,0,0,0l4.3-5.9c0,0,0,0,0,0L14.6,20.6z"/>
<circle fill="#59B4D9" cx="11.3" cy="25" r="2"/>
<polygon fill="#3E3E3E" points="44.9,25.6 44.9,24.3 44.7,24.3 43.3,23.8 42.9,22.9 43.6,21.5 42.7,20.6 42.6,20.6 41.3,21.3 
	40.4,20.9 39.8,19.4 38.6,19.4 38.5,19.6 38.1,20.9 37.2,21.3 35.7,20.6 34.8,21.5 34.9,21.7 35.5,22.9 35.2,23.8 33.6,24.4 
	33.6,25.7 33.8,25.7 35.2,26.2 35.5,27.1 34.8,28.5 35.7,29.4 35.9,29.4 37.2,28.7 38.1,29.1 38.6,30.6 39.9,30.6 40,30.4 
	40.4,29.1 41.3,28.7 42.8,29.4 43.7,28.5 43.6,28.3 42.9,27.1 43.3,26.2 "/>
<path opacity="0.2" fill="#F1F1F1" enable-background="new    " d="M42.6,20.6l-1.3,0.6l-0.9-0.4l-0.6-1.5h-1.3l-0.1,0.2l-0.4,1.4
	l-0.9,0.4l-1.5-0.7l-0.9,0.9l0.1,0.2l0.7,1.3l-0.4,0.9l-1.5,0.6v1.3l0.2,0.1l1.4,0.4l0.4,0.9l-0.7,1.5l0.9,0.9l0.2-0.1l0.5-0.3
	l0.8-1.1c0,0,0,0,0,0l4.3-5.9c0,0,0,0,0,0L42.6,20.6z"/>
<circle fill="#59B4D9" cx="39.2" cy="25" r="2"/>
</svg>
