<?xml version="1.0" encoding="utf-8"?>
<svg version="1.1" id="Layer_1" xmlns="http://www.w3.org/2000/svg" xmlns:xlink="http://www.w3.org/1999/xlink" x="0px" y="0px"
	 width="50px" height="50px" viewBox="0 0 50 50" enable-background="new 0 0 50 50" xml:space="preserve">
<path fill="#A0A1A2" d="M20.1,46.5H3.5V30h3.4c-0.4-1-0.6-2.1-0.6-3.3c0,0,0-0.1,0-0.2H0V50h23.6V36h-3.5V46.5z"/>
<path fill="#A0A1A2" d="M43.5,30h3v16.6H29.9V36.1h-3.5V50H50V26.5h-7.4c0.5,1,0.9,2,0.9,3.3C43.5,29.8,43.5,29.9,43.5,30z"/>
<path fill="#A0A1A2" d="M3.5,20V3.5h16.6v9.6c1-0.8,2.3-1.3,3.5-1.6V0H0v23.5h6.8C7.3,22.3,8,21,9,20.1L3.5,20L3.5,20z"/>
<path fill="#A0A1A2" d="M29.9,11.1V3.5h16.6v16.6h-7.3c0.3,1,0.5,2.2,0.5,3.4c0,0,0,0.1,0,0.1H50V0H26.4v10.9c0.3,0,0.5-0.1,0.8-0.1
	C28.1,10.9,29,10.9,29.9,11.1z"/>
<path fill="#59B4D9" d="M40.8,29.7c0-2.1-1.7-3.7-3.7-3.7c-0.2,0-0.3,0-0.5,0c0.2-0.8,0.4-1.7,0.4-2.6c0-5.5-4.4-9.9-9.9-9.9
	c-4.3,0-8,2.8-9.3,6.8c-0.7-0.2-1.4-0.4-2.2-0.4c-3.7,0-6.7,3-6.7,6.8c0,3.8,3,6.8,6.7,6.8c0,0,0,0,0,0v0h21.8l0,0
	C39.3,33.3,40.8,31.7,40.8,29.7"/>
<path opacity="0.2" fill="#FFFFFF" d="M19.2,33.5c-0.9-0.9-1.5-2-1.8-3.3c-0.8-3.7,1.4-7.3,5.1-8.1c0.8-0.2,1.5-0.2,2.2-0.1
	c0.3-3.4,2.4-6.5,5.5-8c-0.9-0.3-1.9-0.5-3-0.5c-4.3,0-8,2.8-9.3,6.8c-0.7-0.2-1.4-0.4-2.2-0.4c-3.7,0-6.7,3-6.7,6.8
	c0,3.8,3,6.8,6.7,6.8c0,0,0,0,0,0v0H19.2z"/>
</svg>
