<?xml version="1.0" encoding="UTF-8" standalone="no"?>
<svg
   xmlns:dc="http://purl.org/dc/elements/1.1/"
   xmlns:cc="http://creativecommons.org/ns#"
   xmlns:rdf="http://www.w3.org/1999/02/22-rdf-syntax-ns#"
   xmlns:svg="http://www.w3.org/2000/svg"
   xmlns="http://www.w3.org/2000/svg"
   xmlns:sodipodi="http://sodipodi.sourceforge.net/DTD/sodipodi-0.dtd"
   xmlns:inkscape="http://www.inkscape.org/namespaces/inkscape"
   version="1.1"
   id="Layer_1"
   x="0px"
   y="0px"
   width="34.445"
   height="50"
   viewBox="0 0 34.445 50"
   enable-background="new 0 0 50 50"
   xml:space="preserve"
   inkscape:version="0.91 r13725"
   sodipodi:docname="Azure App Service - Mobile App_COLOR.svg"><metadata
     id="metadata4205"><rdf:RDF><cc:Work
         rdf:about=""><dc:format>image/svg+xml</dc:format><dc:type
           rdf:resource="http://purl.org/dc/dcmitype/StillImage" /><dc:title></dc:title></cc:Work></rdf:RDF></metadata><defs
     id="defs4203" /><sodipodi:namedview
     pagecolor="#ffffff"
     bordercolor="#666666"
     borderopacity="1"
     objecttolerance="10"
     gridtolerance="10"
     guidetolerance="10"
     inkscape:pageopacity="0"
     inkscape:pageshadow="2"
     inkscape:window-width="1920"
     inkscape:window-height="1018"
     id="namedview4201"
     showgrid="false"
     fit-margin-top="0"
     fit-margin-left="0"
     fit-margin-right="0"
     fit-margin-bottom="0"
     inkscape:zoom="12.034957"
     inkscape:cx="4.4261117"
     inkscape:cy="22.992208"
     inkscape:window-x="-8"
     inkscape:window-y="-8"
     inkscape:window-maximized="1"
     inkscape:current-layer="Layer_1" /><path
     d="M 34.445,47 C 34.445,48.657 33.102,50 31.445,50 L 3,50 C 1.343,50 0,48.657 0,47 L 0,3 C 0,1.343 1.343,0 3,0 L 31.445,0 C 33.102,0 34.445,1.343 34.445,3 L 34.445,47 Z"
     id="path4181"
     inkscape:connector-curvature="0"
     style="fill:#3e3e3e" /><rect
     x="2.224"
     y="5"
     width="30"
     height="35.222"
     id="rect4183"
     style="fill:#59b4d9" /><path
     d="M 20.112,45.11 C 20.112,46.706 18.818,47.999 17.222,47.999 15.628,47.999 14.334,46.706 14.334,45.11 14.334,43.515 15.628,42.221 17.222,42.221 18.818,42.221 20.112,43.515 20.112,45.11"
     id="path4185"
     inkscape:connector-curvature="0"
     style="fill:#ffffff" /><path
     d="M 19.117,45.11 C 19.117,46.156 18.269,47.005 17.222,47.005 16.177,47.005 15.329,46.156 15.329,45.11 15.329,44.064 16.177,43.216 17.222,43.216 18.269,43.216 19.117,44.064 19.117,45.11"
     id="path4187"
     inkscape:connector-curvature="0"
     style="fill:#b8d432" /><path
     d="M 2.223,40.222 2.223,5 24.99,5 27.021,0 3,0 C 1.343,0 0,1.343 0,3 L 0,47 C 0,48.658 1.343,50 3,50 L 6.695,50 10.669,40.222 2.223,40.222 Z"
     id="path4189"
     inkscape:connector-curvature="0"
     style="opacity:0.15;fill:#ffffff" /><path
     d="M 22.334,2.817 C 22.334,3.225 22.004,3.555 21.596,3.555 L 12.852,3.555 C 12.443,3.555 12.112,3.225 12.112,2.817 12.112,2.409 12.443,2.078 12.852,2.078 L 21.596,2.078 C 22.004,2.078 22.334,2.409 22.334,2.817"
     id="path4191"
     inkscape:connector-curvature="0"
     style="fill:#1e1e1e" /><path
     d="M 22.334,2.817 C 22.334,3.225 22.004,3.555 21.596,3.555 L 12.852,3.555 C 12.443,3.555 12.112,3.225 12.112,2.817 12.112,2.409 12.443,2.078 12.852,2.078 L 21.596,2.078 C 22.004,2.078 22.334,2.409 22.334,2.817"
     id="path4193"
     inkscape:connector-curvature="0"
     style="fill:#ffffff" /><path
     d="M 17.251,21.311 C 17.206,21.311 17.16,21.297 17.117,21.273 L 8.313,16.191 C 8.232,16.143 8.181,16.054 8.181,15.96 8.181,15.865 8.232,15.777 8.313,15.73 L 17.064,10.681 C 17.146,10.635 17.246,10.635 17.327,10.681 L 26.134,15.765 C 26.216,15.812 26.265,15.9 26.265,15.995 26.265,16.091 26.216,16.178 26.134,16.225 L 17.386,21.273 C 17.343,21.297 17.3,21.311 17.251,21.311"
     id="path4195"
     inkscape:connector-curvature="0"
     style="fill:#ffffff" /><path
     d="M 15.987,33.663 C 15.937,33.663 15.892,33.651 15.853,33.627 L 7.075,28.561 C 6.99,28.514 6.939,28.428 6.939,28.33 L 6.939,18.164 C 6.939,18.068 6.99,17.981 7.075,17.933 7.156,17.884 7.256,17.884 7.343,17.933 L 16.12,22.997 C 16.198,23.047 16.25,23.134 16.25,23.23 L 16.25,33.396 C 16.25,33.493 16.198,33.579 16.12,33.627 16.076,33.651 16.03,33.663 15.987,33.663"
     id="path4197"
     inkscape:connector-curvature="0"
     style="opacity:0.7;fill:#ffffff" /><path
     d="M 18.471,33.663 C 18.423,33.663 18.378,33.651 18.333,33.627 18.255,33.579 18.204,33.493 18.204,33.396 L 18.204,23.294 C 18.204,23.2 18.255,23.112 18.333,23.063 L 27.11,17.999 C 27.194,17.951 27.292,17.951 27.374,17.999 27.458,18.046 27.509,18.134 27.509,18.229 L 27.509,28.33 C 27.509,28.428 27.458,28.514 27.374,28.561 L 18.6,33.627 C 18.564,33.651 18.517,33.663 18.471,33.663"
     id="path4199"
     inkscape:connector-curvature="0"
     style="opacity:0.4;fill:#ffffff" /></svg>