<?xml version="1.0" encoding="utf-8"?>
<svg version="1.1" id="Layer_1" xmlns="http://www.w3.org/2000/svg" xmlns:xlink="http://www.w3.org/1999/xlink" x="0px" y="0px"
	 width="50px" height="50px" viewBox="0 0 50 50" enable-background="new 0 0 50 50" xml:space="preserve">
<path fill="#7FBA00" d="M25,50c-1.2,0-2.4-0.5-3.3-1.4L1.4,28.3C0.5,27.4,0,26.2,0,25s0.5-2.4,1.4-3.3L21.7,1.4
	C22.6,0.5,23.8,0,25,0s2.4,0.5,3.3,1.4l20.4,20.4c0.9,0.9,1.4,2,1.4,3.3c0,1.2-0.5,2.4-1.4,3.3L28.3,48.6C27.4,49.5,26.2,50,25,50"
	/>
<path fill="#FFFFFF" d="M29.738,18.584c-1.398,1.069-3.044,1.589-4.68,1.589c-2.32,0-4.614-1.042-6.131-3.025
	c-2.59-3.382-1.951-8.219,1.437-10.811c1.397-1.075,3.046-1.588,4.679-1.588c2.32,0,4.615,1.042,6.131,3.026
	C33.765,11.158,33.119,15.996,29.738,18.584"/>
<path opacity="0.15" fill="#FFFFFF" enable-background="new    " d="M28.3,1.4C27.4,0.5,26.2,0,25,0s-2.4,0.5-3.3,1.4L1.4,21.7
	C0.5,22.6,0,23.8,0,25s0.5,2.4,1.4,3.3l11.5,11.5L34.6,7.7L28.3,1.4z"/>
<polygon fill="#FFFFFF" points="25,45.6 31.6,39 26.9,39 26.9,19.149 23,19.149 23,39 18.4,39 "/>
<polygon fill="#FFFFFF" points="39.33,33.48 39.33,24.146 36.077,27.399 27.633,18.955 24.805,21.783 33.249,30.227 29.996,33.48 
	"/>
<polygon fill="#FFFFFF" points="10.685,33.515 20.018,33.515 16.766,30.263 25.447,21.582 22.618,18.753 13.937,27.434 
	10.685,24.182 "/>
<path fill="#59B4D9" d="M29.115,17.771c-1.212,0.927-2.64,1.378-4.058,1.378c-2.012,0-4.002-0.903-5.316-2.623
	c-2.246-2.933-1.692-7.127,1.246-9.375c1.212-0.932,2.641-1.377,4.057-1.377c2.012,0,4.002,0.903,5.316,2.624
	C32.608,11.331,32.048,15.526,29.115,17.771"/>
<path fill="#FFFFFF" d="M27.886,13.635c0.486,0.634,1.388,0.748,2.018,0.269c0.033-0.025,0.058-0.056,0.088-0.083
	c0.645,0.454,1.092,0.754,1.344,0.925c0.075-0.193,0.126-0.379,0.179-0.573c-0.266-0.198-0.627-0.476-1.148-0.898
	c0.171-0.449,0.117-0.974-0.195-1.384c-0.447-0.578-1.238-0.725-1.856-0.368c-0.681-0.611-1.43-1.312-2.219-2.096
	c2.452-1.319,4.194-1.126,4.194-1.126c-0.291-0.371-0.617-0.696-0.965-0.989c-1.034-0.16-2.64-0.142-4.476,0.834l-0.001-0.001h0
	c-0.612-0.64-1.234-1.327-1.868-2.063c-0.303,0.097-0.6,0.217-0.886,0.36c0.468,0.766,1.098,1.538,1.807,2.292l0,0
	c0.001,0.002,0.003,0.003,0.005,0.005c-0.592,0.414-1.25,0.967-1.858,1.609c-0.078,0.083-0.152,0.166-0.225,0.249
	c-0.363-0.076-0.745-0.054-1.102,0.075c-0.606-1.307-0.557-2.357-0.461-2.898c-0.263,0.276-0.509,0.565-0.72,0.874
	c-0.158,0.646-0.203,1.578,0.264,2.701c-0.54,0.707-0.566,1.709-0.001,2.449c0.047,0.061,0.097,0.118,0.15,0.173
	c-0.246,0.839-0.357,1.649-0.391,2.344c0.063,0.086,0.063,0.156,0.126,0.24c0.321,0.411,0.724,0.758,1.113,1.072
	c-0.048-0.736,0.004-1.821,0.459-3.043c0.314,0.024,0.633-0.026,0.932-0.151c0.171,0.151,0.35,0.303,0.542,0.458
	c0.656,0.52,1.311,0.924,1.949,1.242c-0.033,0.325,0.048,0.662,0.259,0.941c0.451,0.582,1.286,0.691,1.868,0.246
	c0.121-0.093,0.217-0.205,0.296-0.325c1.041,0.232,1.95,0.273,2.624,0.273c0.103,0,0.582-0.652,0.857-1.056
	c-0.41,0.086-1.628,0.253-3.291-0.225c-0.04-0.187-0.117-0.368-0.24-0.53c-0.422-0.554-1.195-0.674-1.771-0.303
	c-0.578-0.314-1.184-0.707-1.808-1.201c-0.126-0.1-0.247-0.199-0.364-0.299c0.382-0.601,0.422-1.372,0.085-2.02
	c0.077-0.077,0.152-0.153,0.233-0.229c0.618-0.578,1.2-1.04,1.744-1.411c-0.022-0.02-0.042-0.042-0.063-0.062
	c0.022,0.02,0.042,0.041,0.064,0.061c0,0,0,0-0.001,0c0.835,0.772,1.72,1.504,2.559,2.158
	C27.514,12.621,27.549,13.194,27.886,13.635z"/>
</svg>
