<?xml version="1.0" encoding="UTF-8" standalone="no"?>
<svg
   xmlns:dc="http://purl.org/dc/elements/1.1/"
   xmlns:cc="http://creativecommons.org/ns#"
   xmlns:rdf="http://www.w3.org/1999/02/22-rdf-syntax-ns#"
   xmlns:svg="http://www.w3.org/2000/svg"
   xmlns="http://www.w3.org/2000/svg"
   xmlns:sodipodi="http://sodipodi.sourceforge.net/DTD/sodipodi-0.dtd"
   xmlns:inkscape="http://www.inkscape.org/namespaces/inkscape"
   version="1.1"
   id="Layer_1"
   x="0px"
   y="0px"
   height="49.911572"
   width="32.565647"
   viewBox="0 0 32.565647 49.911572"
   enable-background="new 0 0 50 50"
   xml:space="preserve"
   inkscape:version="0.91 r13725"
   sodipodi:docname="Azure Application Insights_COLOR.svg"><metadata
     id="metadata21"><rdf:RDF><cc:Work
         rdf:about=""><dc:format>image/svg+xml</dc:format><dc:type
           rdf:resource="http://purl.org/dc/dcmitype/StillImage" /><dc:title></dc:title></cc:Work></rdf:RDF></metadata><defs
     id="defs19" /><sodipodi:namedview
     pagecolor="#ffffff"
     bordercolor="#666666"
     borderopacity="1"
     objecttolerance="10"
     gridtolerance="10"
     guidetolerance="10"
     inkscape:pageopacity="0"
     inkscape:pageshadow="2"
     inkscape:window-width="1920"
     inkscape:window-height="1018"
     id="namedview17"
     showgrid="false"
     fit-margin-top="0"
     fit-margin-left="0"
     fit-margin-right="0"
     fit-margin-bottom="0"
     inkscape:zoom="16.059063"
     inkscape:cx="16.138431"
     inkscape:cy="25"
     inkscape:window-x="-8"
     inkscape:window-y="-8"
     inkscape:window-maximized="1"
     inkscape:current-layer="Layer_1" /><path
     d="M 32.538431,14.61157 32.538431,14.61157 32.538431,14.31157 C 32.538431,6.6115702 25.938431,0.21157025 17.838431,0.11157025 17.638431,-0.18842975 13.038431,0.21157025 13.038431,0.21157025 L 13.038431,0.21157025 C 5.7384312,1.1115702 0.03843123,7.2115702 0.03843123,14.31157 0.03843123,14.51157 -0.76156877,20.11157 4.9384312,24.81157 7.5384312,27.11157 10.238431,33.31157 10.638431,35.11157 L 10.938431,35.71157 21.538431,35.71157 21.838431,35.11157 C 22.238431,33.31157 25.038431,27.11157 27.538431,24.91157 33.238431,20.11157 32.538431,14.81157 32.538431,14.61157 Z"
     id="path3"
     inkscape:connector-curvature="0"
     style="fill:#68217a" /><rect
     x="11.138432"
     y="39.311573"
     width="10.6"
     height="3.4000001"
     id="rect5"
     style="fill:#7a7a7a" /><polygon
     points="20,46.5 23.3,50 27.2,50 30.5,46.5 "
     id="polygon7"
     style="fill:#7a7a7a"
     transform="translate(-8.8615688,-0.08842975)" /><g
     id="g9"
     style="opacity:0.65"
     transform="translate(-8.8615688,-0.08842975)"><path
       d="M 27.9,35.3 25.9,35.3 25.9,22.6 24.2,22.6 24.2,35.2 22.2,35.2 22.2,22.6 20.5,22.6 C 18.5,22.6 16.8,20.9 16.8,18.9 16.8,16.9 18.4,15.2 20.5,15.2 22.6,15.2 24.2,16.9 24.2,18.9 L 24.2,20.6 25.9,20.6 25.9,18.9 C 25.9,16.9 27.6,15.2 29.6,15.2 31.6,15.2 33.3,16.9 33.3,18.9 33.3,20.9 31.6,22.6 29.6,22.6 L 27.9,22.6 27.9,35.3 Z M 20.5,17.2 C 19.6,17.2 18.8,17.9 18.8,18.9 18.8,19.8 19.6,20.6 20.5,20.6 L 22.2,20.6 22.2,18.9 C 22.1,18 21.4,17.2 20.5,17.2 Z M 29.6,17.2 C 28.7,17.2 27.9,18 27.9,18.9 L 27.9,20.6 29.6,20.6 C 30.5,20.6 31.3,19.8 31.3,18.9 31.3,18 30.6,17.2 29.6,17.2 Z"
       id="path11"
       inkscape:connector-curvature="0"
       style="fill:#ffffff" /></g><g
     enable-background="new    "
     id="g13"
     style="opacity:0.15"
     transform="translate(-8.8615688,-0.08842975)"><path
       d="M 26.7,0.2 C 26.5,-0.1 21.9,0.3 21.9,0.3 14.6,1.2 8.9,7.3 8.9,14.4 8.9,14.6 8.2,19.5 12.8,24 L 34.4,2.4 C 32.1,1 29.5,0.2 26.7,0.2 Z"
       id="path15"
       inkscape:connector-curvature="0"
       style="fill:#ffffff" /></g></svg>