<?xml version="1.0" encoding="UTF-8" standalone="no"?>
<!-- Generator: Adobe Illustrator 17.1.0, SVG Export Plug-In . SVG Version: 6.00 Build 0)  -->

<svg
   xmlns:dc="http://purl.org/dc/elements/1.1/"
   xmlns:cc="http://creativecommons.org/ns#"
   xmlns:rdf="http://www.w3.org/1999/02/22-rdf-syntax-ns#"
   xmlns:svg="http://www.w3.org/2000/svg"
   xmlns="http://www.w3.org/2000/svg"
   xmlns:sodipodi="http://sodipodi.sourceforge.net/DTD/sodipodi-0.dtd"
   xmlns:inkscape="http://www.inkscape.org/namespaces/inkscape"
   version="1.1"
   id="Layer_1"
   x="0px"
   y="0px"
   width="50"
   height="46"
   viewBox="0 0 50 46"
   enable-background="new 0 0 50 50"
   xml:space="preserve"
   sodipodi:docname="AppServiceEnvironment.svg"
   inkscape:version="0.92.3 (2405546, 2018-03-11)"><metadata
   id="metadata1789"><rdf:RDF><cc:Work
       rdf:about=""><dc:format>image/svg+xml</dc:format><dc:type
         rdf:resource="http://purl.org/dc/dcmitype/StillImage" /><dc:title></dc:title></cc:Work></rdf:RDF></metadata><defs
   id="defs1787" /><sodipodi:namedview
   pagecolor="#ffffff"
   bordercolor="#666666"
   borderopacity="1"
   objecttolerance="10"
   gridtolerance="10"
   guidetolerance="10"
   inkscape:pageopacity="0"
   inkscape:pageshadow="2"
   inkscape:window-width="1920"
   inkscape:window-height="1017"
   id="namedview1785"
   showgrid="false"
   fit-margin-top="0"
   fit-margin-left="0"
   fit-margin-right="0"
   fit-margin-bottom="0"
   inkscape:zoom="8.5"
   inkscape:cx="35.118305"
   inkscape:cy="12.513101"
   inkscape:window-x="1912"
   inkscape:window-y="-8"
   inkscape:window-maximized="1"
   inkscape:current-layer="Layer_1" />
<polygon
   points="6,32 44,32 50,43 0,43 "
   id="polygon1762"
   style="fill:#b8d432" />
<rect
   y="43"
   width="50"
   height="3"
   id="rect1764"
   x="0"
   style="fill:#7a7a7a" />
<rect
   y="43"
   enable-background="new    "
   width="50"
   height="3"
   id="rect1766"
   x="0"
   style="opacity:0.5;fill:#dd5900" />
<g
   id="g1776">
	<path
   d="M 21.4,34.9 H 8.8 V 22.5 h 2.5 c -0.3,-0.8 -0.5,-1.6 -0.5,-2.4 0,0 0,-0.1 0,-0.2 H 6.2 V 37.5 H 23.9 V 27 h -2.6 v 7.9 z"
   id="path1768"
   inkscape:connector-curvature="0"
   style="fill:#a0a1a2" />
	<path
   d="m 38.9,22.5 h 2.3 V 35 H 28.6 V 27 H 26 V 37.5 H 43.7 V 19.8 h -5.6 c 0.4,0.7 0.7,1.5 0.7,2.4 0.1,0.2 0.1,0.2 0.1,0.3 z"
   id="path1770"
   inkscape:connector-curvature="0"
   style="fill:#a0a1a2" />
	<path
   d="M 8.8,15 V 2.6 H 21.3 V 9.8 C 22.1,9.2 23,8.8 23.9,8.6 V 0 H 6.2 v 17.7 h 5.1 c 0.3,-1 0.9,-1.9 1.6,-2.6 z"
   id="path1772"
   inkscape:connector-curvature="0"
   style="fill:#a0a1a2" />
	<path
   d="M 28.6,8.4 V 2.6 H 41.1 V 15 h -5.4 c 0.2,0.8 0.3,1.7 0.3,2.5 0,0 0,0.1 0,0.1 h 7.7 V 0 H 26.1 v 8.2 c 0.2,0 0.4,0 0.6,0 0.6,-0.1 1.3,0 1.9,0.2 z"
   id="path1774"
   inkscape:connector-curvature="0"
   style="fill:#a0a1a2" />
</g>
<g
   id="g1782">
	<path
   d="m 36.8,22.3 c 0,-1.5 -1.2,-2.8 -2.8,-2.8 -0.1,0 -0.2,0 -0.3,0 0.2,-0.6 0.3,-1.3 0.3,-2 0,-4.1 -3.3,-7.5 -7.4,-7.5 -3.3,0 -6,2.1 -7,5.1 -0.5,-0.2 -1.1,-0.3 -1.7,-0.3 -2.8,0 -5.1,2.3 -5.1,5.1 0,2.8 2.3,5.1 5.1,5.1 0,0 0,0 0,0 v 0 h 16.4 v 0 c 1.4,0 2.5,-1.2 2.5,-2.7"
   id="path1778"
   inkscape:connector-curvature="0"
   style="fill:#59b4d9" />
	<path
   d="m 20.6,25.1 c -0.7,-0.7 -1.2,-1.5 -1.4,-2.5 -0.6,-2.7 1.1,-5.5 3.8,-6.1 0.6,-0.1 1.1,-0.2 1.7,-0.1 0.2,-2.6 1.8,-4.8 4.1,-6 -0.7,-0.2 -1.5,-0.4 -2.2,-0.4 -3.3,0 -6,2.1 -7,5.1 -0.5,-0.2 -1.1,-0.3 -1.7,-0.3 -2.8,0 -5.1,2.3 -5.1,5.1 0,2.8 2.3,5.1 5.1,5.1 0,0 0,0 0,0 v 0 h 2.7 z"
   id="path1780"
   inkscape:connector-curvature="0"
   style="opacity:0.2;fill:#ffffff" />
</g>
</svg>