<?xml version="1.0" encoding="UTF-8" standalone="no"?>
<!-- Generator: Adobe Illustrator 18.1.1, SVG Export Plug-In . SVG Version: 6.00 Build 0)  -->

<svg
   xmlns:dc="http://purl.org/dc/elements/1.1/"
   xmlns:cc="http://creativecommons.org/ns#"
   xmlns:rdf="http://www.w3.org/1999/02/22-rdf-syntax-ns#"
   xmlns:svg="http://www.w3.org/2000/svg"
   xmlns="http://www.w3.org/2000/svg"
   xmlns:sodipodi="http://sodipodi.sourceforge.net/DTD/sodipodi-0.dtd"
   xmlns:inkscape="http://www.inkscape.org/namespaces/inkscape"
   version="1.1"
   id="Layer_1"
   x="0px"
   y="0px"
   width="50"
   height="46.099998"
   viewBox="0 0 50 46.099998"
   enable-background="new 0 0 50 50"
   xml:space="preserve"
   sodipodi:docname="AppServiceConnectivity.svg"
   inkscape:version="0.92.3 (2405546, 2018-03-11)"><metadata
   id="metadata1723"><rdf:RDF><cc:Work
       rdf:about=""><dc:format>image/svg+xml</dc:format><dc:type
         rdf:resource="http://purl.org/dc/dcmitype/StillImage" /><dc:title></dc:title></cc:Work></rdf:RDF></metadata><defs
   id="defs1721" /><sodipodi:namedview
   pagecolor="#ffffff"
   bordercolor="#666666"
   borderopacity="1"
   objecttolerance="10"
   gridtolerance="10"
   guidetolerance="10"
   inkscape:pageopacity="0"
   inkscape:pageshadow="2"
   inkscape:window-width="1920"
   inkscape:window-height="1017"
   id="namedview1719"
   showgrid="false"
   fit-margin-top="0"
   fit-margin-left="0"
   fit-margin-right="0"
   fit-margin-bottom="0"
   inkscape:zoom="6.0104076"
   inkscape:cx="0.5867586"
   inkscape:cy="7.4096089"
   inkscape:window-x="1912"
   inkscape:window-y="-8"
   inkscape:window-maximized="1"
   inkscape:current-layer="Layer_1" />
<path
   d="M 32.4,36.5 H 31.2 19.4 18.8 c 1.6,5.8 -0.6,6.6 -10.2,6.6 v 3 h 12.2 8.9 11.5 v -3 c -9.5,0 -10.4,-0.8 -8.8,-6.6"
   id="path1694"
   inkscape:connector-curvature="0"
   style="fill:#7a7a7a" />
<path
   d="M 47,0 H 2.7 C 1.2,0 0,1.3 0,2.8 v 30.9 c 0,1.5 1.2,2.8 2.7,2.8 H 47 c 1.5,0 3,-1.3 3,-2.8 V 2.8 C 50,1.3 48.5,0 47,0 M 46.2,3.8 V 32.6 H 3.8 V 3.8 L 46.2,3.7 Z"
   id="path1696"
   inkscape:connector-curvature="0"
   style="fill:#a0a1a2" />
<polygon
   points="3.8,34.6 3.8,5.8 46.2,5.7 46.1,5.8 46.1,34.6 "
   id="polygon1698"
   style="fill:#59b4d9"
   transform="translate(0,-2)" />
<path
   d="m 3.8,32.6 v 0 V 3.8 L 42.5,3.7 47,0 c 0,0 0,0 0,0 H 2.7 C 1.2,0 0,1.3 0,2.8 v 30.9 c 0,1.5 1.2,2.8 2.7,2.8 H 3.8 L 8.4,32.7 H 3.8 Z"
   id="path1700"
   inkscape:connector-curvature="0"
   style="opacity:0.2;fill:#ffffff" />
<polygon
   points="3.8,5.8 42.5,5.7 42.5,5.7 3.8,5.8 3.8,34.6 "
   id="polygon1702"
   style="fill:#59b4d9"
   transform="translate(0,-2)" />
<rect
   x="8.6999998"
   y="43.099998"
   width="32.700001"
   height="3"
   id="rect1704"
   style="fill:#a0a1a2" />
<path
   d="m 25.5,2 c 0,0.4 -0.3,0.7 -0.7,0.7 -0.4,0 -0.7,-0.3 -0.7,-0.7 0,-0.4 0.3,-0.7 0.7,-0.7 0.4,0 0.7,0.4 0.7,0.7"
   id="path1706"
   inkscape:connector-curvature="0"
   style="fill:#b8d432" />
<path
   d="m 41.3,17.9 c 0.3,-0.3 0.3,-0.8 0,-1.2 l -1.6,-1.6 -7.1,-7 c -0.3,-0.3 -0.8,-0.3 -1.2,0 v 0 C 31,8.4 31,9 31.4,9.3 l 7.5,7.4 c 0.3,0.3 0.3,0.9 0,1.2 l -7.5,7.6 c -0.3,0.3 -0.3,0.9 0,1.2 v 0 c 0.3,0.3 0.8,0.3 1.2,0 l 7.1,-7 c 0,0 0,0 0,0 z"
   id="path1708"
   inkscape:connector-curvature="0"
   style="fill:#ffffff" />
<path
   d="m 8.7,17.9 c -0.3,-0.3 -0.3,-0.8 0,-1.2 l 1.6,-1.6 7.1,-7 c 0.3,-0.3 0.8,-0.3 1.2,0 v 0 C 19,8.4 19,9 18.6,9.3 l -7.5,7.4 c -0.3,0.3 -0.3,0.9 0,1.2 l 7.5,7.6 c 0.3,0.3 0.3,0.9 0,1.2 v 0 c -0.3,0.3 -0.8,0.3 -1.2,0 l -7.1,-7 c 0,0 0,0 0,0 z"
   id="path1710"
   inkscape:connector-curvature="0"
   style="fill:#ffffff" />
<path
   d="m 20.5,17.3 c 0,1.3 -1,2.2 -2.2,2.2 -1.2,0 -2.3,-1 -2.3,-2.2 0,-1.1 0.9,-2.2 2.3,-2.2 1.3,0 2.2,1 2.2,2.2 z"
   id="path1712"
   inkscape:connector-curvature="0"
   style="fill:#ffffff" />
<path
   d="m 27.2,17.3 c 0,1.3 -1,2.2 -2.2,2.2 -1.2,0 -2.3,-1 -2.3,-2.2 0,-1.1 1,-2.2 2.3,-2.2 1.3,0 2.2,1 2.2,2.2 z"
   id="path1714"
   inkscape:connector-curvature="0"
   style="fill:#ffffff" />
<circle
   cx="31.799999"
   cy="17.299999"
   r="2.2"
   id="circle1716"
   style="fill:#ffffff" />
</svg>