<?xml version="1.0" encoding="UTF-8" standalone="no"?>
<!-- Generator: Adobe Illustrator 17.1.0, SVG Export Plug-In . SVG Version: 6.00 Build 0)  -->

<svg
   xmlns:dc="http://purl.org/dc/elements/1.1/"
   xmlns:cc="http://creativecommons.org/ns#"
   xmlns:rdf="http://www.w3.org/1999/02/22-rdf-syntax-ns#"
   xmlns:svg="http://www.w3.org/2000/svg"
   xmlns="http://www.w3.org/2000/svg"
   xmlns:sodipodi="http://sodipodi.sourceforge.net/DTD/sodipodi-0.dtd"
   xmlns:inkscape="http://www.inkscape.org/namespaces/inkscape"
   version="1.1"
   id="Layer_1"
   x="0px"
   y="0px"
   width="49.799999"
   height="42.799999"
   viewBox="0 0 49.799999 42.799999"
   enable-background="new 0 0 50 50"
   xml:space="preserve"
   sodipodi:docname="ARMExplorer.svg"
   inkscape:version="0.92.3 (2405546, 2018-03-11)"><metadata
   id="metadata1877"><rdf:RDF><cc:Work
       rdf:about=""><dc:format>image/svg+xml</dc:format><dc:type
         rdf:resource="http://purl.org/dc/dcmitype/StillImage" /><dc:title></dc:title></cc:Work></rdf:RDF></metadata><defs
   id="defs1875" /><sodipodi:namedview
   pagecolor="#ffffff"
   bordercolor="#666666"
   borderopacity="1"
   objecttolerance="10"
   gridtolerance="10"
   guidetolerance="10"
   inkscape:pageopacity="0"
   inkscape:pageshadow="2"
   inkscape:window-width="1920"
   inkscape:window-height="1017"
   id="namedview1873"
   showgrid="false"
   fit-margin-top="0"
   fit-margin-left="0"
   fit-margin-right="0"
   fit-margin-bottom="0"
   inkscape:zoom="8.5"
   inkscape:cx="10.307728"
   inkscape:cy="15.284403"
   inkscape:window-x="1912"
   inkscape:window-y="-8"
   inkscape:window-maximized="1"
   inkscape:current-layer="Layer_1" />
<path
   d="M 7.9,24.8 C 5.8,24.8 4.3,24.4 3.4,23.7 2.5,22.9 2.1,21.6 2.1,19.7 V 16.3 C 2.1,14.6 1.4,13.7 0,13.7 v -2.6 c 1.4,0 2.1,-0.9 2.1,-2.7 V 5.2 C 2.1,3.3 2.5,1.9 3.4,1.1 4.3,0.3 5.8,0 7.9,0 V 2.6 C 6.4,2.6 5.6,3.4 5.6,5.1 v 3 c 0,2.3 -0.7,3.7 -2.2,4.3 v 0 c 1.4,0.6 2.2,2 2.2,4.3 v 2.9 c 0,0.9 0.2,1.6 0.5,2 0.4,0.4 0.9,0.6 1.7,0.6 v 2.6 h 0.1 z"
   id="path1858"
   inkscape:connector-curvature="0"
   style="fill:#59b4d9" />
<path
   d="m 41.9,18 c 2.1,0 3.6,0.4 4.5,1.1 0.9,0.8 1.3,2.1 1.3,4 v 3.4 c 0,1.7 0.7,2.6 2.1,2.6 v 2.6 c -1.4,0 -2.1,0.9 -2.1,2.7 v 3.1 c 0,1.9 -0.4,3.3 -1.3,4.1 -0.9,0.8 -2.4,1.2 -4.5,1.2 v -2.6 c 1.5,0 2.3,-0.8 2.3,-2.5 v -3 c 0,-2.3 0.7,-3.7 2.2,-4.3 v 0 c -1.4,-0.6 -2.2,-2 -2.2,-4.3 v -2.9 c 0,-0.9 -0.2,-1.6 -0.5,-2 -0.4,-0.4 -0.9,-0.6 -1.7,-0.6 z"
   id="path1860"
   inkscape:connector-curvature="0"
   style="fill:#59b4d9" />
<path
   d="M 25.6,23.4 H 12.8 c -1.3,0 -2.4,-1.1 -2.4,-2.1 0,-1 1.1,-1.9 2.4,-1.9 h 12.8 c 1.4,0 2.4,0.8 2.4,1.9 0,1.1 -1,2.1 -2.4,2.1 z"
   id="path1862"
   inkscape:connector-curvature="0"
   style="fill:#a0a1a2" />
<path
   d="M 36.6,32.5 H 16.8 c -1.3,0 -2.4,-1.1 -2.4,-2.1 0,-1 1.1,-1.9 2.4,-1.9 h 19.8 c 1.4,0 2.4,0.8 2.4,1.9 0,1.1 -1,2.1 -2.4,2.1 z"
   id="path1864"
   inkscape:connector-curvature="0"
   style="fill:#a0a1a2" />
<path
   d="M 36.6,13.5 H 12.8 c -1.3,0 -2.4,-1.1 -2.4,-2.1 0,-1 1.1,-1.9 2.4,-1.9 h 23.8 c 1.4,0 2.4,0.8 2.4,1.9 0,1.1 -1,2.1 -2.4,2.1 z"
   id="path1866"
   inkscape:connector-curvature="0"
   style="fill:#a0a1a2" />
<path
   d="M 32.6,4 H 12.8 C 11.5,4 10.4,2.9 10.4,1.9 10.4,0.9 11.5,0 12.8,0 H 32.6 C 34,0 35,0.8 35,1.9 35,3 34,4 32.6,4 Z"
   id="path1868"
   inkscape:connector-curvature="0"
   style="fill:#a0a1a2" />
<path
   d="M 31.6,42.8 H 16.8 c -1.3,0 -2.4,-1.1 -2.4,-2.1 0,-1 1.1,-1.9 2.4,-1.9 h 14.8 c 1.3,0 2.4,0.8 2.4,1.9 0,1 -1,2.1 -2.4,2.1 z"
   id="path1870"
   inkscape:connector-curvature="0"
   style="fill:#a0a1a2" />
</svg>