<?xml version="1.0" encoding="utf-8"?>
<!-- Generator: Adobe Illustrator 17.1.0, SVG Export Plug-In . SVG Version: 6.00 Build 0)  -->
<!DOCTYPE svg PUBLIC "-//W3C//DTD SVG 1.1//EN" "http://www.w3.org/Graphics/SVG/1.1/DTD/svg11.dtd">
<svg version="1.1" id="Layer_1" xmlns="http://www.w3.org/2000/svg" xmlns:xlink="http://www.w3.org/1999/xlink" x="0px" y="0px"
	 height="50px" width="50px" viewBox="0 0 50 50" enable-background="new 0 0 50 50" xml:space="preserve">
<path fill="#777777" d="M29.4,47.5c0,1.4-1.1,2.5-2.5,2.5H2.5C1.1,50,0,48.9,0,47.5V2.5C0,1.1,1.1,0,2.5,0h24.3
	c1.4,0,2.5,1.1,2.5,2.5V47.5z"/>
<path fill="#1E1E1E" d="M4.3,27c0-1.8,1.4-3.2,3.2-3.2h14.6c1.8,0,3.2,1.4,3.2,3.2l0,0c0,1.8-1.4,3.2-3.2,3.2H7.5
	C5.7,30.2,4.3,28.8,4.3,27L4.3,27z"/>
<circle fill="#B8D432" cx="7.6" cy="27" r="2.1"/>
<path fill="#1E1E1E" d="M4.3,17.5c0-1.8,1.4-3.2,3.2-3.2h14.6c1.8,0,3.2,1.4,3.2,3.2l0,0c0,1.8-1.4,3.2-3.2,3.2H7.5
	C5.7,20.7,4.3,19.3,4.3,17.5L4.3,17.5z"/>
<circle fill="#B8D432" cx="7.6" cy="17.5" r="2.1"/>
<path fill="#1E1E1E" d="M4.3,8.1c0-1.8,1.4-3.2,3.2-3.2h14.6c1.8,0,3.2,1.4,3.2,3.2l0,0c0,1.8-1.4,3.2-3.2,3.2H7.5
	C5.7,11.3,4.3,9.8,4.3,8.1L4.3,8.1z"/>
<circle fill="#B8D432" cx="7.6" cy="8.1" r="2.1"/>
<path fill="#59B4D9" d="M48.8,13H21.2c-0.7,0-1.2,0.5-1.2,1.2v4v0.4v30.2c0,0.7,0.5,1.2,1.2,1.2h27.6c0.7,0,1.2-0.5,1.2-1.2V18.6
	v-0.4v-4C50,13.5,49.5,13,48.8,13z"/>
<path opacity="0.1" fill="#FFFFFF" d="M21.2,13c-0.7,0-1.2,0.5-1.2,1.2v4.4v12.6v17.6c0,0.7,0.5,1.2,1.2,1.2h11.5l13.5-37H21.2z"/>
<rect x="35.2" y="31.7" opacity="0.6" fill="#FFFFFF" width="10" height="2"/>
<path fill="#FFFFFF" d="M24.4,21.5l-0.3-0.4c-0.1-0.1-0.1-0.2,0-0.3l1-0.9c0,0,0.1-0.1,0.2-0.1c0.1,0,0.1,0,0.2,0.1l2.6,2.8l4.5-5.7
	c0-0.1,0.1-0.1,0.2-0.1c0.1,0,0.1,0,0.1,0l1,0.8c0,0,0.1,0.1,0.1,0.2c0,0.1,0,0.1,0,0.2l-5.8,7.4L24.4,21.5z"/>
<path fill="#FFFFFF" d="M24.4,31.6l-0.3-0.4c-0.1-0.1-0.1-0.2,0-0.3l1-0.9c0,0,0.1-0.1,0.2-0.1c0.1,0,0.1,0,0.2,0.1l2.6,2.8l4.5-5.7
	c0-0.1,0.1-0.1,0.2-0.1c0.1,0,0.1,0,0.1,0l1,0.8c0,0,0.1,0.1,0.1,0.2c0,0.1,0,0.1,0,0.2l-5.8,7.4L24.4,31.6z"/>
<rect x="35.2" y="21.5" opacity="0.6" fill="#FFFFFF" width="10" height="2"/>
<path fill="#FFFFFF" d="M24.4,42.6l-0.3-0.4c-0.1-0.1-0.1-0.2,0-0.3l1-0.9c0,0,0.1-0.1,0.2-0.1c0.1,0,0.1,0,0.2,0.1l2.6,2.8l4.5-5.7
	c0-0.1,0.1-0.1,0.2-0.1c0.1,0,0.1,0,0.1,0l1,0.8c0,0,0.1,0.1,0.1,0.2c0,0.1,0,0.1,0,0.2l-5.8,7.4L24.4,42.6z"/>
<rect x="35.2" y="42.5" opacity="0.6" fill="#FFFFFF" width="10" height="2"/>
</svg>
