<?xml version="1.0" encoding="UTF-8" standalone="no"?>
<!-- Generator: Adobe Illustrator 17.1.0, SVG Export Plug-In . SVG Version: 6.00 Build 0)  -->

<svg
   xmlns:dc="http://purl.org/dc/elements/1.1/"
   xmlns:cc="http://creativecommons.org/ns#"
   xmlns:rdf="http://www.w3.org/1999/02/22-rdf-syntax-ns#"
   xmlns:svg="http://www.w3.org/2000/svg"
   xmlns="http://www.w3.org/2000/svg"
   xmlns:sodipodi="http://sodipodi.sourceforge.net/DTD/sodipodi-0.dtd"
   xmlns:inkscape="http://www.inkscape.org/namespaces/inkscape"
   version="1.1"
   id="Layer_1"
   x="0px"
   y="0px"
   height="50"
   width="40"
   viewBox="0 0 40 50"
   enable-background="new 0 0 50 50"
   xml:space="preserve"
   sodipodi:docname="Auditing.svg"
   inkscape:version="0.92.3 (2405546, 2018-03-11)"><metadata
   id="metadata1931"><rdf:RDF><cc:Work
       rdf:about=""><dc:format>image/svg+xml</dc:format><dc:type
         rdf:resource="http://purl.org/dc/dcmitype/StillImage" /><dc:title></dc:title></cc:Work></rdf:RDF></metadata><defs
   id="defs1929" /><sodipodi:namedview
   pagecolor="#ffffff"
   bordercolor="#666666"
   borderopacity="1"
   objecttolerance="10"
   gridtolerance="10"
   guidetolerance="10"
   inkscape:pageopacity="0"
   inkscape:pageshadow="2"
   inkscape:window-width="1920"
   inkscape:window-height="1017"
   id="namedview1927"
   showgrid="false"
   fit-margin-top="0"
   fit-margin-left="0"
   fit-margin-right="0"
   fit-margin-bottom="0"
   inkscape:zoom="8.5"
   inkscape:cx="15.15935"
   inkscape:cy="23.605152"
   inkscape:window-x="1912"
   inkscape:window-y="-8"
   inkscape:window-maximized="1"
   inkscape:current-layer="Layer_1" />
<path
   d="M 38.4,0 H 1.6 C 0.7,0 0,0.7 0,1.6 V 7 7.5 48.3 c 0,1 0.7,1.7 1.6,1.7 H 38.4 C 39.3,50 40,49.3 40,48.4 V 7.5 7 1.6 C 40,0.7 39.3,0 38.4,0 Z"
   id="path1910"
   inkscape:connector-curvature="0"
   style="fill:#59b4d9" />
<path
   d="M 1.6,0 C 0.7,0 0,0.7 0,1.6 v 5.9 17 23.8 c 0,1 0.7,1.7 1.6,1.7 H 17 L 34.9,0 Z"
   id="path1912"
   inkscape:connector-curvature="0"
   style="opacity:0.1;fill:#ffffff" />
<rect
   x="20.299999"
   y="25.299999"
   width="13.3"
   height="2.5999999"
   id="rect1914"
   style="opacity:0.6;fill:#ffffff" />
<path
   d="M 5.9,11.5 5.5,11 C 5.4,10.9 5.4,10.7 5.5,10.6 L 6.8,9.4 C 6.9,9.3 6.9,9.3 7,9.3 c 0.1,0 0.2,0 0.2,0.1 l 3.5,3.8 6,-7.8 c 0.1,-0.1 0.2,-0.1 0.2,-0.1 0.1,0 0.1,0 0.2,0.1 l 1.4,1.1 c 0.1,0.1 0.1,0.1 0.1,0.2 0,0.1 0,0.2 -0.1,0.2 l -7.8,10 z"
   id="path1916"
   inkscape:connector-curvature="0"
   style="fill:#ffffff" />
<path
   d="M 5.9,25.1 5.5,24.6 C 5.4,24.5 5.4,24.3 5.5,24.2 L 6.8,23 c 0.1,-0.1 0.1,-0.1 0.2,-0.1 0.1,0 0.2,0 0.2,0.1 l 3.5,3.8 6,-7.8 c 0.1,-0.1 0.2,-0.1 0.2,-0.1 0.1,0 0.1,0 0.2,0.1 l 1.4,1.1 c 0.1,0.1 0.1,0.1 0.1,0.2 0,0.1 0,0.2 -0.1,0.2 l -7.8,10 z"
   id="path1918"
   inkscape:connector-curvature="0"
   style="fill:#ffffff" />
<rect
   x="20.299999"
   y="11.4"
   width="13.3"
   height="2.5999999"
   id="rect1920"
   style="opacity:0.6;fill:#ffffff" />
<path
   d="M 5.9,40 5.5,39.5 c -0.1,-0.1 -0.1,-0.3 0,-0.4 l 1.3,-1.2 c 0.1,-0.1 0.1,-0.1 0.2,-0.1 0.1,0 0.2,0 0.2,0.1 l 3.5,3.8 6,-7.8 c 0.1,-0.1 0.2,-0.1 0.2,-0.1 0.1,0 0.1,0 0.2,0.1 l 1.4,1.1 c 0.1,0.1 0.1,0.1 0.1,0.2 0,0.1 0,0.2 -0.1,0.2 l -7.8,10 z"
   id="path1922"
   inkscape:connector-curvature="0"
   style="fill:#ffffff" />
<rect
   x="20.299999"
   y="39.900002"
   width="13.3"
   height="2.5999999"
   id="rect1924"
   style="opacity:0.6;fill:#ffffff" />
</svg>