<?xml version="1.0" encoding="utf-8"?>
<!-- Generator: Adobe Illustrator 17.1.0, SVG Export Plug-In . SVG Version: 6.00 Build 0)  -->
<!DOCTYPE svg PUBLIC "-//W3C//DTD SVG 1.1//EN" "http://www.w3.org/Graphics/SVG/1.1/DTD/svg11.dtd">
<svg version="1.1" id="Layer_1" xmlns="http://www.w3.org/2000/svg" xmlns:xlink="http://www.w3.org/1999/xlink" x="0px" y="0px"
	 viewBox="0 0 50 50" enable-background="new 0 0 50 50" xml:space="preserve">
<g>
	<path fill="#FCD116" d="M12.4,0H3.7L0,11.6c-0.1,0.3,0,0.5,0.3,0.5h4.1c0.1,0,0.2,0,0.3,0.1c0.1,0.1,0.1,0.2,0.1,0.4L0.6,22.8
		c-0.1,0.3,0,0.3,0.2,0.1L14.1,7.8c0.2-0.2,0.1-0.4-0.2-0.4l-4.4,0H8.7C8.4,7.4,8.3,7.2,8.4,7L12.4,0z"/>
</g>
<path fill="#0072C6" d="M45.1,20c0-0.3,0-0.7,0-1.1c0-5.8-4.8-10.5-10.6-10.5c-3.5,0-6.7,1.7-8.7,4.4c-1.3-0.8-2.7-1.2-4.3-1.2
	c-4.2,0-7.6,3.2-8,7.2c0.6-0.1,1.3-0.1,2-0.1c3.1,0,6.1,1,8.5,2.8c1.8-4.2,6.4-6.9,11.5-7v-3.6l6.3,5.4l-6.3,5.3v-3.5
	c-2.9,0.1-5.8,1.2-7.4,3.9l0.3,0c6,0,10.9,4.5,11.6,10.2c1.4,1.1,2.5,2.4,3.3,3.8c3.9-1,6.6-4.4,6.6-8.5C50,24,48.2,21.4,45.1,20z"
	/>
<path fill="#59B4D9" d="M4.9,33.8c0-0.4-0.1-0.7-0.1-1.1c0-5.8,4.8-10.5,10.6-10.5c3.5,0,6.7,1.7,8.7,4.4c1.3-0.8,2.7-1.2,4.3-1.2
	c4.4,0,8.1,3.6,8.1,8l0,0.6c3,1.5,4.6,4,4.6,7.2c0,5-4,8.8-9.2,8.8H9.2C4,50,0,46.1,0,41.2C0,37.9,1.8,35.3,4.9,33.8z"/>
<path opacity="0.3" fill="#FF8C00" d="M13.9,7.4l-2.7,0L1.3,22.3L14.1,7.8C14.3,7.6,14.2,7.4,13.9,7.4z"/>
<g opacity="0.3">
	<path fill="#FF8C00" d="M12.4,0H9.8L6.2,7.4h2.4C8.4,7.4,8.3,7.2,8.4,7L12.4,0z"/>
</g>
</svg>
