<?xml version="1.0" encoding="utf-8"?>
<!-- Generator: Adobe Illustrator 17.0.1, SVG Export Plug-In . SVG Version: 6.00 Build 0)  -->
<!DOCTYPE svg PUBLIC "-//W3C//DTD SVG 1.1//EN" "http://www.w3.org/Graphics/SVG/1.1/DTD/svg11.dtd">
<svg version="1.1" id="Layer_1" xmlns="http://www.w3.org/2000/svg" xmlns:xlink="http://www.w3.org/1999/xlink" x="0px" y="0px"
	 width="30px" height="30px" viewBox="0 0 30 30" enable-background="new 0 0 30 30" xml:space="preserve">
<rect fill="#A0A1A2" width="30" height="30"/>
<g>
	<path fill="#FFFFFF" d="M9.143,11.378c0-0.804,0.258-1.619,0.774-2.444s1.27-1.509,2.26-2.05s2.146-0.813,3.466-0.813
		c1.228,0,2.311,0.227,3.25,0.679s1.665,1.068,2.178,1.847c0.512,0.779,0.768,1.625,0.768,2.539c0,0.719-0.146,1.35-0.438,1.892
		c-0.293,0.542-0.64,1.009-1.041,1.403c-0.402,0.394-1.124,1.056-2.165,1.987c-0.288,0.262-0.519,0.493-0.692,0.691
		c-0.173,0.199-0.302,0.381-0.387,0.547c-0.085,0.164-0.15,0.33-0.197,0.494c-0.046,0.166-0.116,0.455-0.209,0.87
		c-0.161,0.88-0.664,1.32-1.511,1.32c-0.44,0-0.811-0.144-1.11-0.432c-0.301-0.288-0.451-0.716-0.451-1.282
		c0-0.711,0.11-1.326,0.33-1.848c0.22-0.52,0.512-0.977,0.876-1.371s0.854-0.861,1.473-1.403c0.542-0.474,0.933-0.832,1.175-1.073
		c0.24-0.241,0.443-0.51,0.609-0.806c0.164-0.296,0.247-0.618,0.247-0.965c0-0.677-0.252-1.249-0.755-1.714
		c-0.504-0.465-1.153-0.698-1.949-0.698c-0.931,0-1.616,0.235-2.057,0.705s-0.813,1.162-1.117,2.076
		c-0.288,0.957-0.834,1.435-1.638,1.435c-0.474,0-0.874-0.167-1.2-0.501C9.306,12.129,9.143,11.767,9.143,11.378z M15.338,25.292
		c-0.517,0-0.967-0.167-1.352-0.501c-0.386-0.335-0.578-0.803-0.578-1.403c0-0.533,0.187-0.981,0.559-1.346s0.829-0.546,1.371-0.546
		c0.533,0,0.981,0.182,1.346,0.546s0.546,0.813,0.546,1.346c0,0.593-0.19,1.058-0.571,1.396S15.837,25.292,15.338,25.292z"/>
</g>
</svg>
