<?xml version="1.0" encoding="utf-8"?>
<!-- Generator: Adobe Illustrator 17.1.0, SVG Export Plug-In . SVG Version: 6.00 Build 0)  -->
<!DOCTYPE svg PUBLIC "-//W3C//DTD SVG 1.1//EN" "http://www.w3.org/Graphics/SVG/1.1/DTD/svg11.dtd">
<svg version="1.1" id="Layer_1" xmlns="http://www.w3.org/2000/svg" xmlns:xlink="http://www.w3.org/1999/xlink" x="0px" y="0px"
	 width="50px" height="50px" viewBox="0 0 50 50" enable-background="new 0 0 50 50" xml:space="preserve">
<rect fill="#A0A1A2" width="50" height="50"/>
<path fill="#E5E5E5" d="M33,18.2c0,4.5-3.7,8.2-8.2,8.2c-4.5,0-8.2-3.7-8.2-8.2c0-4.5,3.7-8.2,8.2-8.2C29.3,10,33,13.7,33,18.2"/>
<polygon fill="#E5E5E5" points="30.8,29.2 24.8,37.7 18.8,29.2 10.1,29.2 10.1,50 39.4,50 39.4,29.2 "/>
<path fill="#FFFFFF" d="M16.5,18.2c0,4.5,3.6,8.1,8,8.2l2.1-16.2C26,10.1,25.4,10,24.8,10C20.2,10,16.5,13.7,16.5,18.2"/>
<polygon fill="#FFFFFF" points="18.8,29.2 10.1,29.2 10.1,50 21.6,50 23.4,35.8 "/>
</svg>
