<?xml version="1.0" encoding="UTF-8" standalone="no"?>
<!-- Generator: Adobe Illustrator 17.1.0, SVG Export Plug-In . SVG Version: 6.00 Build 0)  -->

<svg
   xmlns:dc="http://purl.org/dc/elements/1.1/"
   xmlns:cc="http://creativecommons.org/ns#"
   xmlns:rdf="http://www.w3.org/1999/02/22-rdf-syntax-ns#"
   xmlns:svg="http://www.w3.org/2000/svg"
   xmlns="http://www.w3.org/2000/svg"
   xmlns:sodipodi="http://sodipodi.sourceforge.net/DTD/sodipodi-0.dtd"
   xmlns:inkscape="http://www.inkscape.org/namespaces/inkscape"
   version="1.1"
   id="Layer_1"
   x="0px"
   y="0px"
   height="46.400002"
   width="50"
   viewBox="0 0 50 46.400002"
   xml:space="preserve"
   sodipodi:docname="Batch.svg"
   inkscape:version="0.92.3 (2405546, 2018-03-11)"><metadata
   id="metadata2355"><rdf:RDF><cc:Work
       rdf:about=""><dc:format>image/svg+xml</dc:format><dc:type
         rdf:resource="http://purl.org/dc/dcmitype/StillImage" /><dc:title></dc:title></cc:Work></rdf:RDF></metadata><defs
   id="defs2353" /><sodipodi:namedview
   pagecolor="#ffffff"
   bordercolor="#666666"
   borderopacity="1"
   objecttolerance="10"
   gridtolerance="10"
   guidetolerance="10"
   inkscape:pageopacity="0"
   inkscape:pageshadow="2"
   inkscape:window-width="1920"
   inkscape:window-height="1017"
   id="namedview2351"
   showgrid="false"
   fit-margin-top="0"
   fit-margin-left="0"
   fit-margin-right="0"
   fit-margin-bottom="0"
   inkscape:zoom="12.020815"
   inkscape:cx="14.084254"
   inkscape:cy="18.721823"
   inkscape:window-x="1912"
   inkscape:window-y="-8"
   inkscape:window-maximized="1"
   inkscape:current-layer="Layer_1" />
<path
   d="m 0,25.2 c 0,0.7 0.5,1.2 1.2,1.2 h 27.6 c 0.7,0 1.2,-0.5 1.2,-1.2 V 5.2 H 0 Z"
   id="path2314"
   inkscape:connector-curvature="0"
   style="fill:#0072c6" />
<path
   d="M 28.8,0 H 1.2 C 0.5,0 0,0.5 0,1.2 V 5.6 H 30 V 1.2 C 30,0.5 29.5,0 28.8,0 Z"
   id="path2316"
   inkscape:connector-curvature="0"
   style="fill:#a0a1a2" />
<path
   d="M 1.2,0 C 0.5,0 0,0.5 0,1.2 v 4.4 2 17.6 c 0,0.7 0.5,1.2 1.2,1.2 H 12.7 L 26.2,0 Z"
   id="path2318"
   inkscape:connector-curvature="0"
   style="opacity:0.1;fill:#ffffff" />
<path
   d="M 5.1,12.6 4.8,12.3 C 4.7,12.2 4.7,12.1 4.8,12 l 0.8,-0.7 c 0,0 0.1,-0.1 0.1,-0.1 0.1,0 0.1,0 0.1,0.1 L 8,13.7 11.9,8.8 c 0,0 0.1,-0.1 0.2,-0.1 0,0 0.1,0 0.1,0 l 0.9,0.7 c 0,0 0.1,0.1 0.1,0.1 0,0.1 0,0.1 0,0.1 l -5,6.3 z"
   id="path2320"
   inkscape:connector-curvature="0"
   style="fill:#ffffff" />
<path
   d="M 5.1,20.4 4.8,20.1 C 4.7,20 4.7,19.9 4.8,19.8 l 0.8,-0.7 c 0,0 0.1,-0.1 0.1,-0.1 0.1,0 0.1,0 0.1,0.1 l 2.2,2.4 3.9,-4.9 c 0,0 0.1,-0.1 0.2,-0.1 0,0 0.1,0 0.1,0 l 0.9,0.7 c 0,0 0.1,0.1 0.1,0.1 0,0.1 0,0.1 0,0.1 l -5,6.3 z"
   id="path2322"
   inkscape:connector-curvature="0"
   style="fill:#ffffff" />
<path
   d="m 10,35.2 c 0,0.7 0.5,1.2 1.2,1.2 h 27.6 c 0.7,0 1.2,-0.5 1.2,-1.2 v -20 H 10 Z"
   id="path2324"
   inkscape:connector-curvature="0"
   style="fill:#3999c6" />
<path
   d="M 38.8,10 H 11.2 C 10.5,10 10,10.5 10,11.2 v 4.4 H 40 V 11.2 C 40,10.5 39.5,10 38.8,10 Z"
   id="path2326"
   inkscape:connector-curvature="0"
   style="fill:#a0a1a2" />
<path
   d="M 11.2,10 C 10.5,10 10,10.5 10,11.2 v 4.4 2 17.6 c 0,0.7 0.5,1.2 1.2,1.2 H 22.7 L 36.2,10 Z"
   id="path2328"
   inkscape:connector-curvature="0"
   style="opacity:0.1;fill:#ffffff" />
<path
   d="m 15.1,22.6 -0.3,-0.3 c -0.1,-0.1 -0.1,-0.2 0,-0.3 l 0.8,-0.7 c 0,0 0.1,-0.1 0.1,-0.1 0.1,0 0.1,0 0.1,0.1 l 2.2,2.4 3.9,-4.9 c 0,0 0.1,-0.1 0.2,-0.1 0,0 0.1,0 0.1,0 l 0.9,0.7 c 0,0 0.1,0.1 0.1,0.1 0,0.1 0,0.1 0,0.1 l -5,6.3 z"
   id="path2330"
   inkscape:connector-curvature="0"
   style="fill:#ffffff" />
<path
   d="m 15.1,30.4 -0.3,-0.3 c -0.1,-0.1 -0.1,-0.2 0,-0.3 l 0.8,-0.7 c 0,0 0.1,-0.1 0.1,-0.1 0.1,0 0.1,0 0.1,0.1 l 2.2,2.4 3.9,-4.9 c 0,0 0.1,-0.1 0.2,-0.1 0,0 0.1,0 0.1,0 l 0.9,0.7 c 0,0 0.1,0.1 0.1,0.1 0,0.1 0,0.1 0,0.1 l -5,6.3 z"
   id="path2332"
   inkscape:connector-curvature="0"
   style="fill:#ffffff" />
<path
   d="m 20,45.2 c 0,0.7 0.5,1.2 1.2,1.2 h 27.6 c 0.7,0 1.2,-0.5 1.2,-1.2 v -20 H 20 Z"
   id="path2334"
   inkscape:connector-curvature="0"
   style="fill:#59b4d9" />
<path
   d="M 48.8,20 H 21.2 C 20.5,20 20,20.5 20,21.2 v 4.4 H 50 V 21.2 C 50,20.5 49.5,20 48.8,20 Z"
   id="path2336"
   inkscape:connector-curvature="0"
   style="fill:#a0a1a2" />
<rect
   x="20"
   y="25.6"
   width="30"
   height="2"
   id="rect2338"
   style="opacity:0.15;fill:#ffffff" />
<path
   d="M 21.2,20 C 20.5,20 20,20.5 20,21.2 v 4.4 2 17.6 c 0,0.7 0.5,1.2 1.2,1.2 H 32.7 L 46.2,20 Z"
   id="path2340"
   inkscape:connector-curvature="0"
   style="opacity:0.1;fill:#ffffff" />
<path
   d="m 25.1,32.6 -0.3,-0.3 c -0.1,-0.1 -0.1,-0.2 0,-0.3 l 0.8,-0.7 c 0,0 0.1,-0.1 0.1,-0.1 0.1,0 0.1,0 0.1,0.1 l 2.2,2.4 3.9,-4.9 c 0,0 0.1,-0.1 0.2,-0.1 0,0 0.1,0 0.1,0 l 0.9,0.7 c 0,0 0.1,0.1 0.1,0.1 0,0.1 0,0.1 0,0.1 l -5,6.3 z"
   id="path2342"
   inkscape:connector-curvature="0"
   style="fill:#ffffff" />
<rect
   x="33.200001"
   y="32.5"
   width="12"
   height="2"
   id="rect2344"
   style="opacity:0.6;fill:#ffffff" />
<path
   d="m 25.1,40.4 -0.3,-0.3 c -0.1,-0.1 -0.1,-0.2 0,-0.3 l 0.8,-0.7 c 0,0 0.1,-0.1 0.1,-0.1 0.1,0 0.1,0 0.1,0.1 l 2.2,2.4 3.9,-4.9 c 0,0 0.1,-0.1 0.2,-0.1 0,0 0.1,0 0.1,0 l 0.9,0.7 c 0,0 0.1,0.1 0.1,0.1 0,0.1 0,0.1 0,0.1 l -5,6.3 z"
   id="path2346"
   inkscape:connector-curvature="0"
   style="fill:#ffffff" />
<rect
   x="33.200001"
   y="40.400002"
   width="12"
   height="2"
   id="rect2348"
   style="opacity:0.6;fill:#ffffff" />
</svg>