<?xml version="1.0" encoding="utf-8"?>
<!-- Generator: Adobe Illustrator 17.0.1, SVG Export Plug-In . SVG Version: 6.00 Build 0)  -->
<!DOCTYPE svg PUBLIC "-//W3C//DTD SVG 1.1//EN" "http://www.w3.org/Graphics/SVG/1.1/DTD/svg11.dtd">
<svg version="1.1" id="Layer_1" xmlns="http://www.w3.org/2000/svg" xmlns:xlink="http://www.w3.org/1999/xlink" x="0px" y="0px"
	 width="50px" height="50px" viewBox="0 0 50 50" enable-background="new 0 0 50 50" xml:space="preserve">
<path fill="#0F0F0F" d="M28.431,27.562c0,0.811-0.254,1.462-0.764,1.955c-0.512,0.493-1.254,0.796-2.23,0.908v1.59h-1.07v-1.546
	c-1.006-0.01-1.928-0.234-2.768-0.674v-2.028c0.264,0.215,0.684,0.423,1.264,0.626c0.578,0.202,1.08,0.318,1.504,0.348v-2.666
	c-1.078-0.4-1.844-0.839-2.293-1.314c-0.449-0.477-0.674-1.103-0.674-1.879s0.277-1.432,0.828-1.967
	c0.553-0.534,1.266-0.846,2.139-0.934v-1.362h1.07v1.333c1.029,0.049,1.799,0.215,2.307,0.498v1.978
	c-0.68-0.41-1.447-0.664-2.307-0.762v2.775c1.078,0.392,1.848,0.831,2.307,1.318C28.203,26.249,28.431,26.849,28.431,27.562z
	 M24.367,24.017v-2.322c-0.678,0.122-1.018,0.477-1.018,1.063C23.349,23.269,23.689,23.69,24.367,24.017z M26.484,27.664
	c0-0.473-0.35-0.863-1.047-1.172v2.22C26.134,28.599,26.484,28.25,26.484,27.664z"/>
<path fill="#7FBA00" d="M25,38.81c-7.627,0-13.811-6.183-13.811-13.809s6.183-13.809,13.81-13.81l0,0
	c7.627,0,13.81,6.182,13.81,13.809h11.19c0-13.807-11.192-25-25-25v0.001C11.191,0.002,0,11.194,0,25.001s11.192,25,25,25
	c6.393,0,12.221-2.403,16.641-6.35l-7.457-8.358C31.741,37.474,28.53,38.81,25,38.81z"/>
<path opacity="0.1" fill="#FFFFFF" enable-background="new    " d="M25,38.81c-7.627,0-13.811-6.183-13.811-13.809
	s6.183-13.809,13.81-13.81l0,0c7.627,0,13.81,6.182,13.81,13.809h11.19c0-13.807-11.192-25-25-25v0.001
	C11.191,0.002,0,11.194,0,25.001s11.192,25,25,25c6.393,0,12.221-2.403,16.641-6.35l-7.457-8.358
	C31.741,37.474,28.53,38.81,25,38.81z"/>
<path fill="#FCD116" d="M50,25H38.809c0,4.096-1.793,7.764-4.625,10.292l7.457,8.359C46.768,39.072,50,32.415,50,25"/>
<path opacity="0.9" fill="#B8D432" enable-background="new    " d="M38.809,25h11.19c0-13.807-11.192-25-25-25v11.191
	C32.625,11.191,38.809,17.373,38.809,25"/>
</svg>
