<?xml version="1.0" encoding="UTF-8" standalone="no"?>
<svg
   xmlns:dc="http://purl.org/dc/elements/1.1/"
   xmlns:cc="http://creativecommons.org/ns#"
   xmlns:rdf="http://www.w3.org/1999/02/22-rdf-syntax-ns#"
   xmlns:svg="http://www.w3.org/2000/svg"
   xmlns="http://www.w3.org/2000/svg"
   xmlns:sodipodi="http://sodipodi.sourceforge.net/DTD/sodipodi-0.dtd"
   xmlns:inkscape="http://www.inkscape.org/namespaces/inkscape"
   version="1.1"
   id="Layer_1"
   x="0px"
   y="0px"
   width="47"
   height="50"
   viewBox="0 0 47 50"
   enable-background="new 0 0 50 50"
   xml:space="preserve"
   inkscape:version="0.91 r13725"
   sodipodi:docname="Azure BizTalk Services - Hybrid Connections_COLOR.svg"><metadata
     id="metadata19"><rdf:RDF><cc:Work
         rdf:about=""><dc:format>image/svg+xml</dc:format><dc:type
           rdf:resource="http://purl.org/dc/dcmitype/StillImage" /><dc:title></dc:title></cc:Work></rdf:RDF></metadata><defs
     id="defs17" /><sodipodi:namedview
     pagecolor="#ffffff"
     bordercolor="#666666"
     borderopacity="1"
     objecttolerance="10"
     gridtolerance="10"
     guidetolerance="10"
     inkscape:pageopacity="0"
     inkscape:pageshadow="2"
     inkscape:window-width="1920"
     inkscape:window-height="1018"
     id="namedview15"
     showgrid="false"
     fit-margin-top="0"
     fit-margin-left="0"
     fit-margin-right="0"
     fit-margin-bottom="0"
     inkscape:zoom="14.656481"
     inkscape:cx="25.636207"
     inkscape:cy="26.296746"
     inkscape:window-x="-8"
     inkscape:window-y="-8"
     inkscape:window-maximized="1"
     inkscape:current-layer="Layer_1" /><circle
     cx="22.799999"
     cy="11.1"
     r="4"
     id="circle3"
     style="fill:#7fba00" /><circle
     cx="23.1"
     cy="38.900002"
     r="4"
     id="circle5"
     style="fill:#7fba00" /><path
     d="M 13,40.9 11.1,40.9 C 5,40.9 0,35.9 0,29.8 L 0,20.1 C 0.1,14.3 5,9.3 11,9 L 14,9 C 15,9 15.8,9.8 15.8,10.8 15.8,11.8 15,12.6 14,12.6 L 11.1,12.6 C 7.1,12.8 3.7,16.1 3.7,20 L 3.7,29.7 C 3.7,33.8 7,37.1 11.1,37.1 L 13,37.1 C 14,37.1 14.8,37.9 14.8,38.9 14.8,40.1 14,40.9 13,40.9 Z"
     id="path7"
     inkscape:connector-curvature="0"
     style="fill:#59b4d9" /><path
     d="M 35.9,40.9 32,40.9 C 31,40.9 30.2,40.1 30.2,39.1 30.2,38.1 31,37.3 32,37.3 L 35.9,37.3 C 40,37.3 43.3,34 43.3,29.9 L 43.3,20.2 C 43.3,16.1 40,12.8 35.9,12.8 L 33,12.8 C 32,12.8 31.2,12 31.2,11 31.2,10 32,9.2 33,9.2 L 35.9,9.2 C 42,9.2 47,14.2 47,20.3 L 47,30 C 47,36 42,40.9 35.9,40.9 Z"
     id="path9"
     inkscape:connector-curvature="0"
     style="fill:#804998" /><path
     d="M 22.6,22.2 C 19.8,22.2 16.9,21.1 14.8,19 14.1,18.3 14.1,17.1 14.8,16.4 15.5,15.7 16.7,15.7 17.4,16.4 20.3,19.3 25,19.3 27.8,16.4 30.7,13.5 30.7,8.8 27.8,6 26.4,4.6 24.5,3.8 22.6,3.8 20.6,3.8 18.8,4.6 17.4,6 16.7,6.7 15.5,6.7 14.8,6 14.1,5.3 14.1,4.1 14.8,3.4 16.9,1.2 19.7,0 22.6,0 25.6,0 28.3,1.2 30.4,3.2 34.7,7.5 34.7,14.6 30.4,18.9 28.3,21.1 25.5,22.2 22.6,22.2 Z"
     id="path11"
     inkscape:connector-curvature="0"
     style="fill:#68217a" /><path
     d="M 23,50 C 20,50 17.3,48.8 15.2,46.8 10.9,42.5 10.9,35.4 15.2,31.1 17.3,29 20.1,27.9 23,27.9 26,27.9 28.7,29.1 30.8,31.1 31.5,31.8 31.5,33 30.8,33.7 30.1,34.4 28.9,34.4 28.2,33.7 26.8,32.3 24.9,31.5 23,31.5 21,31.5 19.2,32.3 17.8,33.7 14.9,36.6 14.9,41.3 17.8,44.1 19.2,45.5 21,46.3 23,46.3 25,46.3 26.8,45.5 28.2,44.1 28.9,43.4 30.1,43.4 30.8,44.1 31.5,44.8 31.5,46 30.8,46.7 28.8,48.8 26,50 23,50 Z"
     id="path13"
     inkscape:connector-curvature="0"
     style="fill:#0072c6" /></svg>