<?xml version="1.0" encoding="UTF-8" standalone="no"?>
<svg
   xmlns:dc="http://purl.org/dc/elements/1.1/"
   xmlns:cc="http://creativecommons.org/ns#"
   xmlns:rdf="http://www.w3.org/1999/02/22-rdf-syntax-ns#"
   xmlns:svg="http://www.w3.org/2000/svg"
   xmlns="http://www.w3.org/2000/svg"
   xmlns:sodipodi="http://sodipodi.sourceforge.net/DTD/sodipodi-0.dtd"
   xmlns:inkscape="http://www.inkscape.org/namespaces/inkscape"
   version="1.1"
   id="Layer_1"
   x="0px"
   y="0px"
   width="50"
   height="48.400002"
   viewBox="0 0 50 48.400002"
   enable-background="new 0 0 50 50"
   xml:space="preserve"
   inkscape:version="0.91 r13725"
   sodipodi:docname="Azure BizTalk Services_COLOR.svg"><metadata
     id="metadata15"><rdf:RDF><cc:Work
         rdf:about=""><dc:format>image/svg+xml</dc:format><dc:type
           rdf:resource="http://purl.org/dc/dcmitype/StillImage" /><dc:title></dc:title></cc:Work></rdf:RDF></metadata><defs
     id="defs13" /><sodipodi:namedview
     pagecolor="#ffffff"
     bordercolor="#666666"
     borderopacity="1"
     objecttolerance="10"
     gridtolerance="10"
     guidetolerance="10"
     inkscape:pageopacity="0"
     inkscape:pageshadow="2"
     inkscape:window-width="1920"
     inkscape:window-height="1018"
     id="namedview11"
     showgrid="false"
     fit-margin-top="0"
     fit-margin-left="0"
     fit-margin-right="0"
     fit-margin-bottom="0"
     inkscape:zoom="10.363697"
     inkscape:cx="28.240741"
     inkscape:cy="17.742825"
     inkscape:window-x="-8"
     inkscape:window-y="-8"
     inkscape:window-maximized="1"
     inkscape:current-layer="Layer_1" /><path
     d="M 29.6,23.2 C 29.6,20.7 27.6,18.7 25.1,18.7 22.6,18.7 20.6,20.7 20.6,23.2 20.6,25.7 22.6,27.7 25.1,27.7 27.6,27.7 29.6,25.7 29.6,23.2 Z"
     id="path3"
     inkscape:connector-curvature="0"
     style="fill:#b8d432" /><path
     d="M 43.1,15.3 C 43.4,14.3 43.5,13.3 43.5,12.2 43.5,5.5 38.2,0 31.7,0 26.8,0 22.6,3.1 20.8,7.5 19.3,5.6 17,4.5 14.4,4.5 9.8,4.5 6.1,8.4 6.1,13.1 6.1,13.9 6.2,14.7 6.4,15.5 2.7,16.9 0,20.2 0,24.6 0,30.2 4.4,34.4 9.9,34.4 L 12.8,34.4 24.1,34.4 24.1,30.3 C 22.3,30 20.7,29.1 19.7,27.7 L 15.9,29.7 17.2,32.7 11.4,31.2 13.4,25.2 14.9,28 18.6,25.8 C 18.3,25 18.1,24 18.1,23 18.1,22.1 18.3,21.2 18.6,20.4 L 18.6,20.4 14.7,18.1 13.2,20.8 11.3,14.8 17.2,13.8 15.8,16.3 19.7,18.6 C 20.8,17.2 22.4,16.2 24.3,15.9 L 24.3,11.5 21.5,11.5 25.3,6.9 29.3,11.5 26.3,11.5 26.3,15.9 C 28.2,16.2 29.8,17.2 30.9,18.6 L 34.8,16.3 33.3,13.7 39.2,14.9 37.3,20.8 35.8,18.2 31.9,20.5 C 32.2,21.3 32.4,22.2 32.4,23.1 32.4,24 32.2,24.9 31.9,25.7 L 35.8,28 37.5,25.1 39.3,31.3 33,32.7 34.6,29.8 30.7,27.5 C 29.6,29 27.9,30 26.1,30.2 L 26.1,34.4 38.3,34.4 40.2,34.4 C 45.7,34.4 50,30.2 50,24.6 50,20.1 47.1,16.6 43.1,15.3 Z"
     id="path5"
     inkscape:connector-curvature="0"
     style="fill:#59b4d9" /><rect
     x="23.5"
     y="34.400002"
     width="3"
     height="7"
     id="rect7"
     style="fill:#3999c6" /><circle
     cx="25"
     cy="44.400002"
     r="4"
     id="circle9"
     style="fill:#0072c6" /></svg>