<?xml version="1.0" encoding="UTF-8" standalone="no"?>
<!-- Generator: Adobe Illustrator 17.1.0, SVG Export Plug-In . SVG Version: 6.00 Build 0)  -->

<svg
   xmlns:dc="http://purl.org/dc/elements/1.1/"
   xmlns:cc="http://creativecommons.org/ns#"
   xmlns:rdf="http://www.w3.org/1999/02/22-rdf-syntax-ns#"
   xmlns:svg="http://www.w3.org/2000/svg"
   xmlns="http://www.w3.org/2000/svg"
   xmlns:sodipodi="http://sodipodi.sourceforge.net/DTD/sodipodi-0.dtd"
   xmlns:inkscape="http://www.inkscape.org/namespaces/inkscape"
   version="1.1"
   id="Layer_1"
   x="0px"
   y="0px"
   width="50"
   height="42.700001"
   viewBox="0 0 50 42.700001"
   enable-background="new 0 0 50 50"
   xml:space="preserve"
   sodipodi:docname="BlobPage.svg"
   inkscape:version="0.92.3 (2405546, 2018-03-11)"><metadata
   id="metadata4859"><rdf:RDF><cc:Work
       rdf:about=""><dc:format>image/svg+xml</dc:format><dc:type
         rdf:resource="http://purl.org/dc/dcmitype/StillImage" /><dc:title></dc:title></cc:Work></rdf:RDF></metadata><defs
   id="defs4857" /><sodipodi:namedview
   pagecolor="#ffffff"
   bordercolor="#666666"
   borderopacity="1"
   objecttolerance="10"
   gridtolerance="10"
   guidetolerance="10"
   inkscape:pageopacity="0"
   inkscape:pageshadow="2"
   inkscape:window-width="1851"
   inkscape:window-height="921"
   id="namedview4855"
   showgrid="false"
   fit-margin-top="0"
   fit-margin-left="0"
   fit-margin-right="0"
   fit-margin-bottom="0"
   inkscape:zoom="8.5"
   inkscape:cx="50.379038"
   inkscape:cy="17.272846"
   inkscape:window-x="1928"
   inkscape:window-y="22"
   inkscape:window-maximized="0"
   inkscape:current-layer="Layer_1" />
<path
   d="m 0,40.8 c 0,1 0.8,1.9 1.8,1.9 h 46.3 c 1,0 1.9,-0.8 1.9,-1.9 V 7.7 H 0 Z"
   id="path4840"
   inkscape:connector-curvature="0"
   style="fill:#a0a1a2" />
<path
   d="M 48.1,0 H 1.8 C 0.8,0 0,0.9 0,1.9 V 7.6 H 50 V 1.9 C 50,0.9 49.2,0 48.1,0"
   id="path4842"
   inkscape:connector-curvature="0"
   style="fill:#7a7a7a" />
<polygon
   points="3.7,43 22.7,43 22.7,25.6 13.1,16 3.7,16 "
   id="polygon4844"
   style="fill:#b8d432"
   transform="translate(0,-4)" />
<polygon
   points="4.8,42 21.6,42 21.6,26.3 12.4,26.3 12.4,17.1 4.8,17.1 "
   id="polygon4846"
   style="opacity:0.8;fill:#ffffff"
   transform="translate(0,-4)" />
<polygon
   points="27.2,43 46.2,43 46.2,25.6 36.6,16 27.2,16 "
   id="polygon4848"
   style="fill:#b8d432"
   transform="translate(0,-4)" />
<polygon
   points="28.3,42 45.1,42 45.1,26.3 35.9,26.3 35.9,17.1 28.3,17.1 "
   id="polygon4850"
   style="opacity:0.8;fill:#ffffff"
   transform="translate(0,-4)" />
<path
   d="M 2,0 C 0.9,0 0,0.9 0,2 v 7.3 3.3 28 c 0,1.1 0.9,2 2,2 H 4.2 L 43.6,0 Z"
   id="path4852"
   inkscape:connector-curvature="0"
   style="opacity:0.2;fill:#ffffff" />
</svg>