<?xml version="1.0" encoding="UTF-8" standalone="no"?>
<!-- Generator: Adobe Illustrator 17.1.0, SVG Export Plug-In . SVG Version: 6.00 Build 0)  -->

<svg
   xmlns:dc="http://purl.org/dc/elements/1.1/"
   xmlns:cc="http://creativecommons.org/ns#"
   xmlns:rdf="http://www.w3.org/1999/02/22-rdf-syntax-ns#"
   xmlns:svg="http://www.w3.org/2000/svg"
   xmlns="http://www.w3.org/2000/svg"
   xmlns:sodipodi="http://sodipodi.sourceforge.net/DTD/sodipodi-0.dtd"
   xmlns:inkscape="http://www.inkscape.org/namespaces/inkscape"
   version="1.1"
   id="Layer_1"
   x="0px"
   y="0px"
   width="50"
   height="42.700001"
   viewBox="0 0 50 42.700001"
   enable-background="new 0 0 50 50"
   xml:space="preserve"
   sodipodi:docname="BlobBlock.svg"
   inkscape:version="0.92.3 (2405546, 2018-03-11)"><metadata
   id="metadata4786"><rdf:RDF><cc:Work
       rdf:about=""><dc:format>image/svg+xml</dc:format><dc:type
         rdf:resource="http://purl.org/dc/dcmitype/StillImage" /><dc:title></dc:title></cc:Work></rdf:RDF></metadata><defs
   id="defs4784" /><sodipodi:namedview
   pagecolor="#ffffff"
   bordercolor="#666666"
   borderopacity="1"
   objecttolerance="10"
   gridtolerance="10"
   guidetolerance="10"
   inkscape:pageopacity="0"
   inkscape:pageshadow="2"
   inkscape:window-width="1851"
   inkscape:window-height="921"
   id="namedview4782"
   showgrid="false"
   fit-margin-top="0"
   fit-margin-left="0"
   fit-margin-right="0"
   fit-margin-bottom="0"
   inkscape:zoom="12.020815"
   inkscape:cx="12.256842"
   inkscape:cy="16.802534"
   inkscape:window-x="1928"
   inkscape:window-y="22"
   inkscape:window-maximized="0"
   inkscape:current-layer="Layer_1" />
<path
   d="m 0,40.8 c 0,1 0.8,1.9 1.8,1.9 h 46.3 c 1,0 1.9,-0.8 1.9,-1.9 V 7.7 H 0 Z"
   id="path4767"
   inkscape:connector-curvature="0"
   style="fill:#a0a1a2" />
<path
   d="M 48.1,0 H 1.8 C 0.8,0 0,0.9 0,1.9 V 7.6 H 50 V 1.9 C 50,0.9 49.2,0 48.1,0"
   id="path4769"
   inkscape:connector-curvature="0"
   style="fill:#7a7a7a" />
<rect
   x="3.7"
   y="11.1"
   width="20.4"
   height="13"
   id="rect4771"
   style="fill:#0072c6" />
<rect
   x="3.7"
   y="25.9"
   width="20.4"
   height="13"
   id="rect4773"
   style="fill:#0072c6" />
<rect
   x="25.9"
   y="11.1"
   width="20.299999"
   height="13"
   id="rect4775"
   style="fill:#ffffff" />
<rect
   x="25.9"
   y="25.9"
   width="20.299999"
   height="13"
   id="rect4777"
   style="fill:#0072c6" />
<path
   d="M 2,0 C 0.9,0 0,0.9 0,2 v 7.3 3.3 28 c 0,1.1 0.9,2 2,2 H 4.2 L 43.6,0 Z"
   id="path4779"
   inkscape:connector-curvature="0"
   style="opacity:0.2;fill:#ffffff" />
</svg>