<?xml version="1.0" encoding="UTF-8" standalone="no"?>
<svg
   xmlns:dc="http://purl.org/dc/elements/1.1/"
   xmlns:cc="http://creativecommons.org/ns#"
   xmlns:rdf="http://www.w3.org/1999/02/22-rdf-syntax-ns#"
   xmlns:svg="http://www.w3.org/2000/svg"
   xmlns="http://www.w3.org/2000/svg"
   xmlns:sodipodi="http://sodipodi.sourceforge.net/DTD/sodipodi-0.dtd"
   xmlns:inkscape="http://www.inkscape.org/namespaces/inkscape"
   version="1.1"
   id="Layer_1"
   x="0px"
   y="0px"
   viewBox="0 0 48.157524 35.919476"
   xml:space="preserve"
   sodipodi:docname="Blockchain.svg"
   width="48.157524"
   height="35.919476"
   inkscape:version="0.92.3 (2405546, 2018-03-11)"><metadata
   id="metadata4360"><rdf:RDF><cc:Work
       rdf:about=""><dc:format>image/svg+xml</dc:format><dc:type
         rdf:resource="http://purl.org/dc/dcmitype/StillImage" /><dc:title>Blockchain_icon</dc:title></cc:Work></rdf:RDF></metadata><defs
   id="defs4358" /><sodipodi:namedview
   pagecolor="#ffffff"
   bordercolor="#666666"
   borderopacity="1"
   objecttolerance="10"
   gridtolerance="10"
   guidetolerance="10"
   inkscape:pageopacity="0"
   inkscape:pageshadow="2"
   inkscape:window-width="1920"
   inkscape:window-height="1017"
   id="namedview4356"
   showgrid="false"
   fit-margin-top="0"
   fit-margin-left="0"
   fit-margin-right="0"
   fit-margin-bottom="0"
   inkscape:zoom="11.805556"
   inkscape:cx="24.078763"
   inkscape:cy="17.959738"
   inkscape:window-x="1912"
   inkscape:window-y="-8"
   inkscape:window-maximized="1"
   inkscape:current-layer="Layer_1" />
<style
   type="text/css"
   id="style4335">
	.st0{fill:#0072C6;}
	.st1{opacity:0.3;}
	.st2{fill:#FFFFFF;}
	.st3{fill:none;}
</style>
<title
   id="title4337">Blockchain_icon</title>


<g
   transform="translate(0.02080241,0.00819059)"
   id="g4351"><g
     id="g4345"><circle
       class="st0"
       cx="23"
       cy="15"
       r="5"
       id="circle4339"
       style="fill:#0072c6" /><path
       inkscape:connector-curvature="0"
       class="st0"
       d="M 37.2,10.2 C 34.6,2.4 26.1,-1.9 18.2,0.8 13,2.6 9.1,7.1 8.2,12.6 c -6.3,2.1 -9.7,8.9 -7.6,15.1 2.1,6.2 8.9,9.7 15.1,7.6 2.6,-0.9 4.8,-2.6 6.3,-4.8 v -8.7 c -1.6,-0.2 -3.1,-1 -4.2,-2.3 l -0.9,0.9 c 1.9,2.7 1.3,6.5 -1.4,8.4 C 12.8,30.7 9,30.1 7.1,27.4 5.2,24.7 5.8,21 8.5,19.1 c 2.1,-1.5 4.9,-1.5 7,0 l 1.2,-1.2 c -1.6,-3.5 -0.1,-7.7 3.4,-9.3 3.5,-1.6 7.7,-0.1 9.3,3.4 0.8,1.8 0.9,3.9 0.1,5.7 l 2.2,1.6 c 0.2,-0.2 0.4,-0.4 0.6,-0.5 2.4,-1.7 5.7,-1.1 7.3,1.2 1.7,2.4 1.1,5.7 -1.2,7.3 C 36,29 32.7,28.4 31.1,26.1 30,24.6 29.8,22.6 30.6,20.9 l -2.1,-1.5 c -1.1,1.3 -2.6,2.2 -4.3,2.4 v 8 c 0,0 0,0 0,0 3.8,6.1 11.9,7.9 17.9,4 6,-3.9 7.9,-11.9 4,-17.9 -2,-2.9 -5.2,-5.1 -8.9,-5.7 z"
       id="path4341"
       style="fill:#0072c6" /><circle
       class="st0"
       cx="12"
       cy="24"
       r="4"
       id="circle4343"
       style="fill:#0072c6" /></g><g
     class="st1"
     id="g4349"
     style="opacity:0.3"><path
       inkscape:connector-curvature="0"
       class="st2"
       d="M 12.2,16.6 C 13.5,8.5 21.1,2.9 29.3,4.2 c 2.2,0.3 4.3,1.2 6.1,2.4 -4.6,-6.8 -13.9,-8.7 -20.8,-4 -3.4,2.3 -5.8,6 -6.4,10.1 -6.2,2 -9.6,8.8 -7.6,15.1 0.9,2.7 2.7,5 5.2,6.5 -3.5,-5.6 -1.7,-13 4,-16.5 0.7,-0.5 1.6,-0.9 2.4,-1.2 z"
       id="path4347"
       style="fill:#ffffff" /></g></g></svg>