<?xml version="1.0" encoding="utf-8"?>
<svg version="1.1" id="Layer_1" xmlns="http://www.w3.org/2000/svg" xmlns:xlink="http://www.w3.org/1999/xlink" x="0px" y="0px"
	 viewBox="0 0 48 36" style="enable-background:new 0 0 48 36;" xml:space="preserve">
<style type="text/css">
	.st0{fill:#0072C6;}
	.st1{opacity:0.3;}
	.st2{fill:#FFFFFF;}
	.st3{fill:none;}
</style>
<title>Blockchain_icon</title>
<g>
	<g>
		<circle class="st0" cx="23" cy="15" r="5"/>
		<path class="st0" d="M37.2,10.2c-2.6-7.8-11.1-12.1-19-9.4C13,2.6,9.1,7.1,8.2,12.6c-6.3,2.1-9.7,8.9-7.6,15.1s8.9,9.7,15.1,7.6
			c2.6-0.9,4.8-2.6,6.3-4.8v-8.7c-1.6-0.2-3.1-1-4.2-2.3l-0.9,0.9c1.9,2.7,1.3,6.5-1.4,8.4c-2.7,1.9-6.5,1.3-8.4-1.4
			S5.8,21,8.5,19.1c2.1-1.5,4.9-1.5,7,0l1.2-1.2c-1.6-3.5-0.1-7.7,3.4-9.3s7.7-0.1,9.3,3.4c0.8,1.8,0.9,3.9,0.1,5.7l2.2,1.6
			c0.2-0.2,0.4-0.4,0.6-0.5c2.4-1.7,5.7-1.1,7.3,1.2c1.7,2.4,1.1,5.7-1.2,7.3c-2.4,1.7-5.7,1.1-7.3-1.2c-1.1-1.5-1.3-3.5-0.5-5.2
			l-2.1-1.5c-1.1,1.3-2.6,2.2-4.3,2.4v8c0,0,0,0,0,0c3.8,6.1,11.9,7.9,17.9,4s7.9-11.9,4-17.9C44.1,13,40.9,10.8,37.2,10.2z"/>
		<circle class="st0" cx="12" cy="24" r="4"/>
	</g>
	<g class="st1">
		<path class="st2" d="M12.2,16.6c1.3-8.1,8.9-13.7,17.1-12.4c2.2,0.3,4.3,1.2,6.1,2.4c-4.6-6.8-13.9-8.7-20.8-4
			c-3.4,2.3-5.8,6-6.4,10.1C2,14.7-1.4,21.5,0.6,27.8c0.9,2.7,2.7,5,5.2,6.5c-3.5-5.6-1.7-13,4-16.5C10.5,17.3,11.4,16.9,12.2,16.6z
			"/>
	</g>
</g>
<rect x="-1" y="-7" class="st3" width="50" height="50"/>
</svg>
