<?xml version="1.0" encoding="UTF-8" standalone="no"?>
<!-- Generator: Adobe Illustrator 17.0.1, SVG Export Plug-In . SVG Version: 6.00 Build 0)  -->

<svg
   xmlns:dc="http://purl.org/dc/elements/1.1/"
   xmlns:cc="http://creativecommons.org/ns#"
   xmlns:rdf="http://www.w3.org/1999/02/22-rdf-syntax-ns#"
   xmlns:svg="http://www.w3.org/2000/svg"
   xmlns="http://www.w3.org/2000/svg"
   xmlns:sodipodi="http://sodipodi.sourceforge.net/DTD/sodipodi-0.dtd"
   xmlns:inkscape="http://www.inkscape.org/namespaces/inkscape"
   version="1.1"
   id="Layer_1"
   x="0px"
   y="0px"
   width="50"
   height="37.978085"
   viewBox="0 0 50 37.978085"
   enable-background="new 0 0 50 50"
   xml:space="preserve"
   sodipodi:docname="Book.svg"
   inkscape:version="0.92.3 (2405546, 2018-03-11)"><metadata
   id="metadata4971"><rdf:RDF><cc:Work
       rdf:about=""><dc:format>image/svg+xml</dc:format><dc:type
         rdf:resource="http://purl.org/dc/dcmitype/StillImage" /><dc:title></dc:title></cc:Work></rdf:RDF></metadata><defs
   id="defs4969" /><sodipodi:namedview
   pagecolor="#ffffff"
   bordercolor="#666666"
   borderopacity="1"
   objecttolerance="10"
   gridtolerance="10"
   guidetolerance="10"
   inkscape:pageopacity="0"
   inkscape:pageshadow="2"
   inkscape:window-width="1851"
   inkscape:window-height="921"
   id="namedview4967"
   showgrid="false"
   fit-margin-top="0"
   fit-margin-left="0"
   fit-margin-right="0"
   fit-margin-bottom="0"
   inkscape:zoom="12.020815"
   inkscape:cx="23.684263"
   inkscape:cy="19.354483"
   inkscape:window-x="1928"
   inkscape:window-y="22"
   inkscape:window-maximized="0"
   inkscape:current-layer="Layer_1" />
<path
   d="m 36.194,24.326083 c 2.303,0 4.003,0.407 5.126,0.801 0.562,0.197 0.969,0.393 1.236,0.534 l 0.256,0.148 v -3.206 c -1.418,-0.555 -3.619,-1.156 -6.619,-1.156 -2.991,0 -5.15,0.597 -6.545,1.154 v 3.214 c 0.183,-0.113 2.318,-1.489 6.546,-1.489 z"
   id="path4952"
   inkscape:connector-curvature="0"
   style="fill:#59b4d9" />
<path
   d="m 36.194,18.090083 c 2.303,0 4.003,0.421 5.126,0.815 0.562,0.197 0.969,0.379 1.236,0.52 l 0.256,0.148 v -3.206 c -1.418,-0.555 -3.619,-1.156 -6.619,-1.156 -2.991,0 -5.15,0.602 -6.545,1.159 v 3.223 c 0.099,-0.056 2.234,-1.489 6.546,-1.503 z"
   id="path4954"
   inkscape:connector-curvature="0"
   style="fill:#59b4d9" />
<path
   d="m 29.649,13.371083 c 0.098,-0.07 2.233,-1.503 6.545,-1.503 2.303,0 4.003,0.407 5.126,0.801 0.562,0.197 0.969,0.393 1.236,0.52 l 0.256,0.162 v -3.205 C 41.394,9.5900829 39.194,8.9890829 36.194,8.9890829 c -2.991,0 -5.15,0.597 -6.545,1.1540001 v 3.214 z"
   id="path4956"
   inkscape:connector-curvature="0"
   style="fill:#59b4d9" />
<path
   d="m 13.806,24.326083 c -2.303,0 -4.003,0.407 -5.126,0.801 -0.562,0.197 -0.969,0.393 -1.236,0.534 l -0.256,0.148 v -3.206 c 1.418,-0.555 3.619,-1.156 6.619,-1.156 2.991,0 5.15,0.597 6.545,1.154 v 3.214 c -0.183,-0.113 -2.318,-1.489 -6.546,-1.489 z"
   id="path4958"
   inkscape:connector-curvature="0"
   style="fill:#59b4d9" />
<path
   d="m 13.806,18.090083 c -2.303,0 -4.003,0.421 -5.126,0.815 -0.562,0.197 -0.969,0.379 -1.236,0.52 l -0.256,0.148 v -3.206 c 1.418,-0.555 3.619,-1.156 6.619,-1.156 2.991,0 5.15,0.602 6.545,1.159 v 3.223 c -0.099,-0.056 -2.234,-1.489 -6.546,-1.503 z"
   id="path4960"
   inkscape:connector-curvature="0"
   style="fill:#59b4d9" />
<path
   d="m 20.351,13.371083 c -0.098,-0.07 -2.233,-1.503 -6.545,-1.503 -2.303,0 -4.003,0.407 -5.126,0.801 -0.562,0.197 -0.969,0.393 -1.236,0.52 l -0.256,0.162 v -3.205 c 1.418,-0.5560001 3.618,-1.1570001 6.618,-1.1570001 2.991,0 5.15,0.597 6.545,1.1540001 v 3.214 z"
   id="path4962"
   inkscape:connector-curvature="0"
   style="fill:#59b4d9" />
<path
   d="m 49.761,7.8230829 c -0.07,-0.098 -1.32,-1.98 -3.483,-3.905 C 44.115,1.9940829 40.772,8.2908582e-5 36.376,8.2908582e-5 31.966,-0.01391709 28.665,2.0080829 26.544,3.9320829 c -0.598,0.546 -1.113,1.088 -1.545,1.589 -0.431,-0.502 -0.947,-1.043 -1.545,-1.589 -2.121,-1.924 -5.421,-3.94699999 -9.832,-3.931999991418 -4.396,0 -7.739,1.993999991418 -9.902,3.917999991418 -2.163,1.924 -3.413,3.806 -3.483,3.905 L 0,8.7360829 V 37.079083 l 3.399,0.899 h 0.169 v -0.014 l 0.014,-0.028 0.112,-0.169 c 0.112,-0.155 0.267,-0.393 0.492,-0.674 0.435,-0.576 1.095,-1.362 1.952,-2.121 1.756,-1.545 4.228,-3.006 7.486,-3.006 3.16,0 5.534,1.362 7.219,2.837 0.71,0.626 0.979,1.286 1.067,1.844 H 25 28.09 c 0.089,-0.558 0.357,-1.218 1.067,-1.844 1.685,-1.475 4.059,-2.837 7.219,-2.837 3.258,0 5.73,1.461 7.486,3.006 0.857,0.758 1.517,1.545 1.952,2.121 0.225,0.281 0.379,0.52 0.492,0.674 l 0.112,0.169 0.014,0.028 v 0.014 h 0.169 L 50,37.079083 V 8.7360829 Z M 23.75,32.107083 c -2.121,-1.868 -5.421,-3.778 -9.691,-3.764 -4.354,0 -8.146,1.952 -10.309,3.848 V 9.2560829 l 0.379,-0.52 c 0.435,-0.562 1.152,-1.348 2.008,-2.107 1.756,-1.545 4.228,-3.006 7.486,-3.006 3.16,0 6.011,1.362 7.697,2.837 1.236,1.081 2.065,2.219 2.43,2.781 z m 22.5,0.084 c -2.163,-1.896 -5.955,-3.848 -10.309,-3.848 -4.27,-0.014 -7.57,1.896 -9.691,3.764 V 9.2420829 c 0.365,-0.562 1.194,-1.699 2.43,-2.781 1.685,-1.475 4.536,-2.837 7.697,-2.837 3.258,0 5.73,1.461 7.486,3.006 0.857,0.758 1.573,1.545 2.008,2.107 l 0.379,0.52 c 0,0 0,22.9340001 0,22.9340001 z"
   id="path4964"
   inkscape:connector-curvature="0"
   style="fill:#59b4d9" />
</svg>