<?xml version="1.0" encoding="utf-8"?>
<!-- Generator: Adobe Illustrator 17.1.0, SVG Export Plug-In . SVG Version: 6.00 Build 0)  -->
<!DOCTYPE svg PUBLIC "-//W3C//DTD SVG 1.1//EN" "http://www.w3.org/Graphics/SVG/1.1/DTD/svg11.dtd">
<svg version="1.1" id="Layer_1" xmlns="http://www.w3.org/2000/svg" xmlns:xlink="http://www.w3.org/1999/xlink" x="0px" y="0px"
	 height="50px" width="50px" viewBox="0 0 50 50" enable-background="new 0 0 50 50" xml:space="preserve">
<path fill="#3999C6" d="M49,22.5c1.4,1.4,1.4,3.7,0,5L27.5,49c-1.4,1.4-3.7,1.4-5,0L1,27.5c-1.4-1.4-1.4-3.7,0-5L22.5,1
	c1.4-1.4,3.7-1.4,5,0L49,22.5z"/>
<polygon fill="#FFFFFF" points="16.2,30.1 23.2,39.9 30.2,30.1 "/>
<polygon fill="#FFFFFF" points="33.5,30.1 39.9,28.5 36.4,22.9 "/>
<rect x="21" y="11.1" fill="#FFFFFF" width="4.5" height="20.1"/>
<path fill="#FFFFFF" d="M37,29.1c-16.9-4.5-15.7-15.3-15.7-15.8l3.7,0.5l-1.9-0.2l1.9,0.2c0,0.3-0.7,8.1,12.9,11.7L37,29.1z"/>
<path opacity="0.2" fill="#FFFFFF" d="M27.5,1c-1.4-1.4-3.7-1.4-5,0L1,22.5c-1.4,1.4-1.4,3.7,0,5l14.1,14.1L33.7,7.2L27.5,1z"/>
</svg>
