<?xml version="1.0" encoding="utf-8"?>
<!-- Generator: Adobe Illustrator 17.0.1, SVG Export Plug-In . SVG Version: 6.00 Build 0)  -->
<!DOCTYPE svg PUBLIC "-//W3C//DTD SVG 1.1//EN" "http://www.w3.org/Graphics/SVG/1.1/DTD/svg11.dtd">
<svg version="1.1" id="Layer_1" xmlns="http://www.w3.org/2000/svg" xmlns:xlink="http://www.w3.org/1999/xlink" x="0px" y="0px"
	 width="50px" height="50px" viewBox="0 0 50 50" enable-background="new 0 0 50 50" xml:space="preserve">
<path fill="#7A7A7A" d="M7.824,32.85c0-0.726,0.032-1.442,0.094-2.147H2.1c-1.159,0-2.1,0.93-2.1,2.076s0.941,2.076,2.1,2.076h5.808
	C7.852,34.196,7.824,33.527,7.824,32.85 M46.381,20.733c0.82-0.813,0.82-2.127,0-2.939c-0.82-0.811-2.152-0.811-2.971,0
	l-3.713,3.671c0.723,1.273,1.327,2.648,1.797,4.099L46.381,20.733z M3.619,45.415c-0.821,0.811-0.821,2.127,0,2.936
	c0.82,0.812,2.15,0.812,2.97,0l4.166-4.118c-0.721-1.272-1.327-2.646-1.794-4.098L3.619,45.415z M8.85,25.904
	c0.45-1.468,1.041-2.856,1.749-4.148l-4.008-3.962c-0.82-0.811-2.151-0.811-2.972,0c-0.821,0.812-0.821,2.126,0,2.939L8.85,25.904z
	 M41.379,40.472c-0.489,1.434-1.11,2.792-1.85,4.044l3.881,3.835c0.819,0.812,2.15,0.812,2.971,0c0.82-0.809,0.82-2.125,0-2.936
	L41.379,40.472z M47.898,30.703h-5.363c0.061,0.705,0.095,1.421,0.095,2.147c0,0.677-0.03,1.346-0.085,2.005h5.353
	c1.161,0,2.102-0.93,2.102-2.076C50,31.633,49.059,30.703,47.898,30.703"/>
<path fill="#804998" d="M23.736,36.485L23.736,36.485V17.199h-4.762c-4.681,2.849-7.905,8.745-7.905,15.543
	c0,0.551,0.022,1.095,0.063,1.633c0.02,0.267,0.06,0.527,0.091,0.791c0.03,0.263,0.052,0.529,0.092,0.787
	c0.059,0.383,0.139,0.757,0.218,1.131c0.028,0.129,0.047,0.262,0.077,0.39c0.103,0.442,0.225,0.874,0.356,1.301
	c0.016,0.053,0.028,0.109,0.045,0.162c0.148,0.47,0.314,0.93,0.494,1.38c0.003,0.006,0.005,0.013,0.007,0.02
	c0.549,1.369,1.243,2.633,2.054,3.772c0.005,0.007,0.009,0.015,0.014,0.022l0,0c1.137,1.59,2.504,2.927,4.042,3.93
	c0.011,0.007,0.021,0.016,0.033,0.023c0.353,0.228,0.715,0.436,1.084,0.628c0.039,0.02,0.076,0.045,0.114,0.065
	c0.347,0.176,0.703,0.33,1.063,0.473c0.063,0.025,0.124,0.058,0.188,0.082c0.355,0.134,0.718,0.244,1.084,0.344
	c0.072,0.02,0.14,0.048,0.212,0.066c0.438,0.111,0.883,0.2,1.335,0.261l0,0h0.001C23.736,50.003,23.736,36.485,23.736,36.485z"/>
<path fill="#804998" d="M39.561,32.742c0-0.394-0.013-0.784-0.036-1.171c-0.011-0.198-0.031-0.392-0.047-0.588
	c-0.014-0.16-0.025-0.32-0.043-0.479c-0.518-4.874-2.699-9.114-5.826-11.856c-0.027-0.024-0.053-0.048-0.08-0.072
	c-0.25-0.216-0.506-0.421-0.768-0.618c-0.056-0.042-0.111-0.088-0.167-0.129c-0.306-0.223-0.619-0.436-0.939-0.631h-4.762v16.65l0,0
	V50l0,0c3.964-0.536,7.439-3.064,9.742-6.739C38.468,40.341,39.561,36.696,39.561,32.742z"/>
<path fill="#7A7A7A" d="M13.372,1.803c3.442,0.024,5.003,1.288,5.917,2.697c0.753,1.182,0.967,2.557,1.014,3.374
	c-1.92,1.301-3.296,3.327-3.727,5.682h17.479c-0.431-2.355-1.809-4.381-3.729-5.682c0.049-0.819,0.262-2.192,1.014-3.374
	c0.913-1.407,2.474-2.671,5.92-2.697c0.504,0,0.912-0.404,0.912-0.901C38.173,0.405,37.765,0,37.261,0
	c-3.931-0.024-6.298,1.641-7.471,3.546c-0.749,1.2-1.068,2.444-1.203,3.412c-1.013-0.4-2.114-0.621-3.269-0.623
	c-1.157,0.002-2.262,0.225-3.274,0.623c-0.136-0.968-0.454-2.212-1.205-3.412c-1.172-1.905-3.54-3.57-7.467-3.546
	c-0.506,0-0.913,0.405-0.913,0.902S12.866,1.803,13.372,1.803"/>
<path opacity="0.2" fill="#FFFFFF" enable-background="new    " d="M18.974,17.199c-4.681,2.849-7.905,8.745-7.905,15.543
	c0,4.356,1.33,8.335,3.511,11.387l9.156-7.644V17.199H18.974z"/>
<path opacity="0.2" fill="#FFFFFF" enable-background="new    " d="M31.656,17.199h-4.762v16.65l10.994-9.177
	C36.493,21.462,34.326,18.824,31.656,17.199"/>
</svg>
