<?xml version="1.0" encoding="utf-8"?>
<!-- Generator: Adobe Illustrator 17.0.1, SVG Export Plug-In . SVG Version: 6.00 Build 0)  -->
<!DOCTYPE svg PUBLIC "-//W3C//DTD SVG 1.1//EN" "http://www.w3.org/Graphics/SVG/1.1/DTD/svg11.dtd">
<svg version="1.1" id="Layer_1" xmlns="http://www.w3.org/2000/svg" xmlns:xlink="http://www.w3.org/1999/xlink" x="0px" y="0px"
	 width="50px" height="50px" viewBox="0.5 0.5 50 50" enable-background="new 0.5 0.5 50 50" xml:space="preserve">
<polygon fill="#804998" points="26.931,12.098 33.833,5.55 33.833,9.103 25.504,17.854 17.167,9.134 17.167,5.592 24.032,12.098 
	24.032,0.5 26.931,0.5 "/>
<path fill="#804998" d="M0.5,48.647c0,1.021,0.836,1.853,1.848,1.853h46.295c1.02,0,1.853-0.832,1.853-1.853L50.5,15.508h-3.768
	v15.796H4.201V15.508H0.5V48.647z"/>
<rect x="4.228" y="31.304" opacity="0.35" fill="#FFFFFF" enable-background="new    " width="42.5" height="15.206"/>
<rect x="21.146" y="19.979" fill="#B8D432" width="8.323" height="8.324"/>
<rect x="33.564" y="19.979" fill="#B8D432" width="8.32" height="8.324"/>
<rect x="8.729" y="19.979" fill="#B8D432" width="8.324" height="8.324"/>
<rect x="26.673" y="34.474" fill="#B8D432" width="8.323" height="8.324"/>
<rect x="14.256" y="34.474" fill="#B8D432" width="8.324" height="8.324"/>
</svg>
