<?xml version="1.0" encoding="UTF-8" standalone="no"?>
<svg
   xmlns:dc="http://purl.org/dc/elements/1.1/"
   xmlns:cc="http://creativecommons.org/ns#"
   xmlns:rdf="http://www.w3.org/1999/02/22-rdf-syntax-ns#"
   xmlns:svg="http://www.w3.org/2000/svg"
   xmlns="http://www.w3.org/2000/svg"
   xmlns:sodipodi="http://sodipodi.sourceforge.net/DTD/sodipodi-0.dtd"
   xmlns:inkscape="http://www.inkscape.org/namespaces/inkscape"
   version="1.1"
   id="Layer_1"
   x="0px"
   y="0px"
   width="40.666668"
   height="41.416668"
   viewBox="0 0 244.00001 207.08334"
   enable-background="new 0 0 300 250"
   xml:space="preserve"
   inkscape:version="0.91 r13725"
   sodipodi:docname="Azure Cache including Redis_COLOR.svg"><metadata
     id="metadata31"><rdf:RDF><cc:Work
         rdf:about=""><dc:format>image/svg+xml</dc:format><dc:type
           rdf:resource="http://purl.org/dc/dcmitype/StillImage" /><dc:title></dc:title></cc:Work></rdf:RDF></metadata><defs
     id="defs29" /><sodipodi:namedview
     pagecolor="#ffffff"
     bordercolor="#666666"
     borderopacity="1"
     objecttolerance="10"
     gridtolerance="10"
     guidetolerance="10"
     inkscape:pageopacity="0"
     inkscape:pageshadow="2"
     inkscape:window-width="1920"
     inkscape:window-height="1018"
     id="namedview27"
     showgrid="false"
     fit-margin-top="0"
     fit-margin-left="0"
     fit-margin-right="0"
     fit-margin-bottom="0"
     inkscape:zoom="7.3282407"
     inkscape:cx="43.8625"
     inkscape:cy="9.7498532"
     inkscape:window-x="-8"
     inkscape:window-y="-8"
     inkscape:window-maximized="1"
     inkscape:current-layer="Layer_1" /><path
     d="M 0,9.0000046 0,189.5 C 0,208.5 42,223.5 93.5,223.5 L 93.5,9.0000046 0,9.0000046 Z"
     id="path3"
     inkscape:connector-curvature="0"
     style="fill:#3999c6" /><path
     d="M 92.5,223.5 94,223.5 C 146,223.5 187.5,208.5 187.5,189.5 L 187.5,9.0000046 92.5,9.0000046 92.5,223.5 Z"
     id="path5"
     inkscape:connector-curvature="0"
     style="fill:#59b4d9" /><path
     d="M 187.5,9.0000046 C 187.5,27.500005 145.5,43.000005 94,43.000005 42.5,43.000005 0,27.500005 0,9.0000046 0,-9.4999954 42,-24.999995 93.5,-24.999995 145,-24.999995 187.5,-9.4999954 187.5,9.0000046"
     id="path7"
     inkscape:connector-curvature="0"
     style="fill:#ffffff" /><path
     d="M 168.5,7.0000046 C 168.5,19.500005 135,29.500005 94,29.500005 53,29.500005 19,19.500005 19,7.0000046 19,-5.4999954 52.5,-15.499995 93.5,-15.499995 134.5,-15.499995 168.5,-5.4999954 168.5,7.0000046"
     id="path9"
     inkscape:connector-curvature="0"
     style="fill:#7fba00" /><path
     d="M 152.5,20.500005 C 162.5,16.500005 168,12.000005 168,7.0000046 168,-5.4999954 134.5,-15.499995 93.5,-15.499995 52.5,-15.499995 19,-5.4999954 19,7.0000046 19,12.000005 25,17.000005 34.5,20.500005 48,15.000005 69.5,12.000005 93.5,12.000005 117.5,12.000005 139,15.500005 152.5,20.500005"
     id="path11"
     inkscape:connector-curvature="0"
     style="fill:#b8d432" /><path
     d="M 119,80.500005 119,201 C 119,213.5 147,223.5 181.5,223.5 L 181.5,80.500005 119,80.500005 Z"
     id="path13"
     inkscape:connector-curvature="0"
     style="fill:#0072c6" /><path
     d="M 180.5,223.5 181.5,223.5 C 216,223.5 244,213.5 244,201 L 244,80.500005 180.5,80.500005 180.5,223.5 Z"
     id="path15"
     inkscape:connector-curvature="0"
     style="fill:#0072c6" /><path
     enable-background="new    "
     d="M 180.5,223.5 181.5,223.5 C 216,223.5 244,213.5 244,201 L 244,80.500005 180.5,80.500005 180.5,223.5 Z"
     id="path17"
     inkscape:connector-curvature="0"
     style="opacity:0.15;fill:#ffffff" /><path
     d="M 244,80.500005 C 244,93.000005 216,103 181.5,103 147,103 119,93.000005 119,80.500005 119,68.000005 147,58.000005 181.5,58.000005 216,58.000005 244,68.000005 244,80.500005"
     id="path19"
     inkscape:connector-curvature="0"
     style="fill:#ffffff" /><path
     d="M 231,79.000005 C 231,87.000005 208.5,94.000005 181.5,94.000005 154.5,94.000005 132,87.500005 132,79.000005 132,71.000005 154.5,64.000005 181.5,64.000005 208.5,64.000005 231,71.000005 231,79.000005"
     id="path21"
     inkscape:connector-curvature="0"
     style="fill:#7fba00" /><path
     d="M 220.5,88.000005 C 227,85.500005 231,82.500005 231,79.000005 231,71.000005 208.5,64.000005 181.5,64.000005 154,64.000005 132,70.500005 132,79.000005 132,82.500005 136,85.500005 142.5,88.000005 151.5,84.500005 166,82.000005 182,82.000005 197,82.000005 211,84.500005 220.5,88.000005"
     id="path23"
     inkscape:connector-curvature="0"
     style="fill:#b8d432" /><polygon
     points="174.5,193 244,136 217,180 240.5,180 171,237.5 198,193 "
     id="polygon25"
     style="fill:#ffffff"
     transform="translate(-25,-26.499995)" /></svg>