<?xml version="1.0" encoding="utf-8"?>
<!-- Generator: Adobe Illustrator 17.1.0, SVG Export Plug-In . SVG Version: 6.00 Build 0)  -->
<!DOCTYPE svg PUBLIC "-//W3C//DTD SVG 1.1//EN" "http://www.w3.org/Graphics/SVG/1.1/DTD/svg11.dtd">
<svg version="1.1" id="Layer_1" xmlns="http://www.w3.org/2000/svg" xmlns:xlink="http://www.w3.org/1999/xlink" x="0px" y="0px"
	 height="15px" width="15px" viewBox="0 0 15 15" enable-background="new 0 0 15 15" xml:space="preserve">
<g>
	<path fill="#A0A1A2" d="M14.2,0H0.9C0.4,0,0,0.4,0,0.9V14c0,0.6,0.4,1,0.9,1h13.2c0.5,0,0.9-0.4,0.9-0.9V0.9
		C15.1,0.4,14.7,0,14.2,0z M14,14H1V4h13V14z"/>
	<rect x="5" y="5" fill="#A0A1A2" width="2" height="2"/>
	<rect x="8" y="5" fill="#A0A1A2" width="2" height="2"/>
	<rect x="2" y="8" fill="#A0A1A2" width="2" height="2"/>
	<rect x="5" y="8" fill="#A0A1A2" width="2" height="2"/>
	<rect x="8" y="8" fill="#A0A1A2" width="2" height="2"/>
	<rect x="11" y="8" fill="#A0A1A2" width="2" height="2"/>
	<rect x="2" y="11" fill="#A0A1A2" width="2" height="2"/>
	<rect x="5" y="11" fill="#A0A1A2" width="2" height="2"/>
	<rect x="8" y="11" fill="#A0A1A2" width="2" height="2"/>
	<rect x="11" y="5" fill="#A0A1A2" width="2" height="2"/>
</g>
</svg>
