<?xml version="1.0" encoding="utf-8"?>
<!-- Generator: Adobe Illustrator 19.1.0, SVG Export Plug-In . SVG Version: 6.00 Build 0)  -->
<svg version="1.1" id="Layer_1" xmlns="http://www.w3.org/2000/svg" xmlns:xlink="http://www.w3.org/1999/xlink" x="0px" y="0px"
	 width="50px" height="50px" viewBox="0 0 50 50" style="enable-background:new 0 0 50 50;" xml:space="preserve">
<style type="text/css">
	.st0{fill:#DD5900;}
	.st1{fill:#FCD116;}
	.st2{fill:#3999C6;}
	.st3{opacity:0.2;fill:#FFFFFF;enable-background:new    ;}
	.st4{fill:#68217A;}
	.st5{fill:#E5E5E5;}
	.st6{fill:#0072C6;}
	.st7{opacity:0.15;fill:#FFFFFF;enable-background:new    ;}
</style>
<ellipse transform="matrix(-0.7071 -0.7071 0.7071 -0.7071 -5.5673 72.8951)" class="st0" cx="12.313" cy="37.601" rx="4.1" ry="16.9"/>
<ellipse transform="matrix(-0.7071 -0.7071 0.7071 -0.7071 -5.5673 72.8951)" class="st1" cx="12.313" cy="37.601" rx="2.5" ry="12.2"/>
<path class="st2" d="M49.986,18.6c0-2.4-1.9-4.3-4.2-4.3c-0.2,0-0.3,0-0.6,0c0.2-0.9,0.4-1.9,0.4-3c0-6.2-5.1-11.2-11.2-11.2
	c-4.9,0-9.1,3.3-10.6,7.6c-0.8-0.2-1.6-0.4-2.5-0.4c-4.3,0-7.6,3.5-7.6,7.8s3.4,7.8,7.6,7.8l0,0l0,0h24.7l0,0
	C48.286,22.6,49.986,20.8,49.986,18.6"/>
<path class="st3" d="M25.286,22.8c-1-1-1.8-2.2-2.1-3.8c-0.9-4.2,1.6-8.3,5.7-9.2c0.9-0.2,1.7-0.2,2.6-0.1c0.3-3.9,2.7-7.3,6.3-9
	c-1.1-0.3-2.2-0.6-3.4-0.6c-4.9,0-9.1,3.3-10.6,7.6c-0.8-0.2-1.6-0.4-2.5-0.4c-4.3,0-7.6,3.5-7.6,7.8s3.4,7.8,7.6,7.8l0,0l0,0h4
	V22.8z"/>
<polygon class="st4" points="4.686,21.6 4.686,30.8 8.586,34.6 17.786,34.6 17.786,21.6 "/>
<polygon class="st4" points="28.486,45.3 19.286,45.3 15.386,41.5 15.386,32.3 28.486,32.2 "/>
<rect x="9.143" y="23.688" transform="matrix(-0.7071 0.7071 -0.7071 -0.7071 53.779 40.3006)" class="st5" width="18.8" height="15.2"/>
<polygon class="st4" points="17.33,43.356 10.53,45.856 4.03,39.356 6.53,32.556 "/>
<path class="st4" d="M19.886,19.3c6.6-6.6,16.1-5.4,16.1-5.4s1.3,9.5-5.4,16.2L19.886,19.3z"/>
<circle class="st6" cx="20.686" cy="29.3" r="2.9"/>
<path class="st7" d="M35.886,13.8c-1.6-0.1-10-0.5-16,5.5l-2.3,2.3h-12.9v9.2l1.8,1.8l-2.5,6.8l3.2,3.2L35.886,13.8z"/>
</svg>
