<?xml version="1.0" encoding="UTF-8" standalone="no"?>
<!-- Generator: Adobe Illustrator 17.0.1, SVG Export Plug-In . SVG Version: 6.00 Build 0)  -->

<svg
   xmlns:dc="http://purl.org/dc/elements/1.1/"
   xmlns:cc="http://creativecommons.org/ns#"
   xmlns:rdf="http://www.w3.org/1999/02/22-rdf-syntax-ns#"
   xmlns:svg="http://www.w3.org/2000/svg"
   xmlns="http://www.w3.org/2000/svg"
   xmlns:sodipodi="http://sodipodi.sourceforge.net/DTD/sodipodi-0.dtd"
   xmlns:inkscape="http://www.inkscape.org/namespaces/inkscape"
   version="1.1"
   id="Layer_1"
   x="0px"
   y="0px"
   width="50"
   height="42.143002"
   viewBox="0 0 50 42.143002"
   enable-background="new 0 0 50 50"
   xml:space="preserve"
   sodipodi:docname="Certificate.svg"
   inkscape:version="0.92.3 (2405546, 2018-03-11)"><metadata
   id="metadata5550"><rdf:RDF><cc:Work
       rdf:about=""><dc:format>image/svg+xml</dc:format><dc:type
         rdf:resource="http://purl.org/dc/dcmitype/StillImage" /><dc:title></dc:title></cc:Work></rdf:RDF></metadata><defs
   id="defs5548" /><sodipodi:namedview
   pagecolor="#ffffff"
   bordercolor="#666666"
   borderopacity="1"
   objecttolerance="10"
   gridtolerance="10"
   guidetolerance="10"
   inkscape:pageopacity="0"
   inkscape:pageshadow="2"
   inkscape:window-width="1851"
   inkscape:window-height="921"
   id="namedview5546"
   showgrid="false"
   fit-margin-top="0"
   fit-margin-left="0"
   fit-margin-right="0"
   fit-margin-bottom="0"
   inkscape:zoom="8.5"
   inkscape:cx="31.168008"
   inkscape:cy="22.917522"
   inkscape:window-x="1930"
   inkscape:window-y="0"
   inkscape:window-maximized="0"
   inkscape:current-layer="Layer_1" />
<path
   d="m 50,33.571 c 0,1.973 -1.599,3.571 -3.571,3.571 H 3.571 C 1.599,37.143 0,35.544 0,33.571 v -30 C 0,1.599 1.599,0 3.571,0 H 46.428 C 48.401,0 50,1.599 50,3.571 Z"
   id="path5529"
   inkscape:connector-curvature="0"
   style="fill:#fcd116" />
<rect
   x="4.2859998"
   y="4.2860003"
   width="41.429001"
   height="28.570999"
   id="rect5531"
   style="fill:#ffffff" />
<circle
   cx="12.143"
   cy="26.429001"
   r="5.7140002"
   id="circle5533"
   style="fill:#dd5900" />
<circle
   cx="12.143"
   cy="26.429001"
   r="4.2859998"
   id="circle5535"
   style="fill:#ff8c00" />
<path
   d="m 12.143,30.714 c -1.662,0 -3.174,-0.64 -4.317,-1.679 l -0.678,13.031 4.923,-4.923 5,5 0.072,-0.714 -0.683,-12.394 c -1.143,1.04 -2.655,1.679 -4.317,1.679 z"
   id="path5537"
   inkscape:connector-curvature="0"
   style="fill:#dd5900" />
<path
   d="m 40.962,25.085 c 0,0.441 -0.358,0.799 -0.799,0.799 H 22.227 c -0.441,0 -0.799,-0.358 -0.799,-0.799 0,-0.441 0.358,-0.799 0.799,-0.799 h 17.936 c 0.441,0 0.799,0.358 0.799,0.799"
   id="path5539"
   inkscape:connector-curvature="0"
   style="fill:#7a7a7a" />
<path
   d="m 40.962,20.714 c 0,0.441 -0.358,0.799 -0.799,0.799 H 22.227 c -0.441,0 -0.799,-0.358 -0.799,-0.799 0,-0.441 0.358,-0.799 0.799,-0.799 h 17.936 c 0.441,0 0.799,0.358 0.799,0.799"
   id="path5541"
   inkscape:connector-curvature="0"
   style="fill:#7a7a7a" />
<path
   d="m 40.962,14.286 c 0,0.441 -0.358,0.799 -0.799,0.799 H 10.084 c -0.441,0 -0.799,-0.358 -0.799,-0.799 0,-0.441 0.358,-0.799 0.799,-0.799 h 30.078 c 0.442,-10e-4 0.8,0.357 0.8,0.799"
   id="path5543"
   inkscape:connector-curvature="0"
   style="fill:#7a7a7a" />
</svg>