<?xml version="1.0" encoding="UTF-8" standalone="no"?>
<!-- Generator: Adobe Illustrator 17.0.1, SVG Export Plug-In . SVG Version: 6.00 Build 0)  -->

<svg
   xmlns:dc="http://purl.org/dc/elements/1.1/"
   xmlns:cc="http://creativecommons.org/ns#"
   xmlns:rdf="http://www.w3.org/1999/02/22-rdf-syntax-ns#"
   xmlns:svg="http://www.w3.org/2000/svg"
   xmlns="http://www.w3.org/2000/svg"
   xmlns:sodipodi="http://sodipodi.sourceforge.net/DTD/sodipodi-0.dtd"
   xmlns:inkscape="http://www.inkscape.org/namespaces/inkscape"
   version="1.1"
   id="Layer_1"
   x="0px"
   y="0px"
   width="16.000145"
   height="13.82"
   viewBox="0 0 16.000145 13.82"
   enable-background="new 0 0 16 16"
   xml:space="preserve"
   sodipodi:docname="Check.svg"
   inkscape:version="0.92.3 (2405546, 2018-03-11)"><metadata
   id="metadata5634"><rdf:RDF><cc:Work
       rdf:about=""><dc:format>image/svg+xml</dc:format><dc:type
         rdf:resource="http://purl.org/dc/dcmitype/StillImage" /><dc:title></dc:title></cc:Work></rdf:RDF></metadata><defs
   id="defs5632" /><sodipodi:namedview
   pagecolor="#ffffff"
   bordercolor="#666666"
   borderopacity="1"
   objecttolerance="10"
   gridtolerance="10"
   guidetolerance="10"
   inkscape:pageopacity="0"
   inkscape:pageshadow="2"
   inkscape:window-width="1851"
   inkscape:window-height="921"
   id="namedview5630"
   showgrid="false"
   fit-margin-top="0"
   fit-margin-left="0"
   fit-margin-right="0"
   fit-margin-bottom="0"
   inkscape:zoom="37.565048"
   inkscape:cx="9.7854065"
   inkscape:cy="6.9107307"
   inkscape:window-x="1930"
   inkscape:window-y="0"
   inkscape:window-maximized="0"
   inkscape:current-layer="Layer_1" />
<path
   d="m 0.6319024,7.427 -0.531,-0.575 c -0.138,-0.152 -0.138,-0.393 0.022,-0.538 l 1.534,-1.418 c 0.073,-0.066 0.16,-0.101 0.255,-0.101 0.108,0 0.204,0.044 0.276,0.123 l 4.218,4.523 7.2579996,-9.296 c 0.073,-0.094 0.182,-0.145 0.298,-0.145 0.088,0 0.167,0.029 0.233,0.081 l 1.659,1.28 c 0.081,0.059 0.13,0.145 0.145,0.248 0.007,0.101 -0.015,0.204 -0.081,0.276 L 6.5949024,13.82 Z"
   id="path5627"
   inkscape:connector-curvature="0"
   style="fill:#7fba00" />
</svg>