<?xml version="1.0" encoding="UTF-8" standalone="no"?>
<!-- Generator: Adobe Illustrator 17.1.0, SVG Export Plug-In . SVG Version: 6.00 Build 0)  -->

<svg
   xmlns:dc="http://purl.org/dc/elements/1.1/"
   xmlns:cc="http://creativecommons.org/ns#"
   xmlns:rdf="http://www.w3.org/1999/02/22-rdf-syntax-ns#"
   xmlns:svg="http://www.w3.org/2000/svg"
   xmlns="http://www.w3.org/2000/svg"
   xmlns:sodipodi="http://sodipodi.sourceforge.net/DTD/sodipodi-0.dtd"
   xmlns:inkscape="http://www.inkscape.org/namespaces/inkscape"
   version="1.1"
   id="Layer_1"
   x="0px"
   y="0px"
   width="50"
   height="42.599998"
   viewBox="0 0 50 42.599998"
   enable-background="new 0 0 50 50"
   xml:space="preserve"
   sodipodi:docname="ClassicIPAddress.svg"
   inkscape:version="0.92.3 (2405546, 2018-03-11)"><metadata
   id="metadata5720"><rdf:RDF><cc:Work
       rdf:about=""><dc:format>image/svg+xml</dc:format><dc:type
         rdf:resource="http://purl.org/dc/dcmitype/StillImage" /><dc:title></dc:title></cc:Work></rdf:RDF></metadata><defs
   id="defs5718" /><sodipodi:namedview
   pagecolor="#ffffff"
   bordercolor="#666666"
   borderopacity="1"
   objecttolerance="10"
   gridtolerance="10"
   guidetolerance="10"
   inkscape:pageopacity="0"
   inkscape:pageshadow="2"
   inkscape:window-width="1851"
   inkscape:window-height="921"
   id="namedview5716"
   showgrid="false"
   fit-margin-top="0"
   fit-margin-left="0"
   fit-margin-right="0"
   fit-margin-bottom="0"
   inkscape:zoom="12.020815"
   inkscape:cx="26.619799"
   inkscape:cy="19.492891"
   inkscape:window-x="1930"
   inkscape:window-y="0"
   inkscape:window-maximized="0"
   inkscape:current-layer="Layer_1" />
<path
   d="m 0,40.6 c 0,1.1 0.9,2 2,2 h 46 c 1.1,0 2,-0.9 2,-2 V 9.3 H 0 Z"
   id="path5699"
   inkscape:connector-curvature="0"
   style="fill:#59b4d9" />
<path
   d="M 48,0 H 2 C 0.9,0 0,0.9 0,2 V 12.6 H 50 V 2 C 50,0.9 49.1,0 48,0"
   id="path5701"
   inkscape:connector-curvature="0"
   style="fill:#0072c6" />
<rect
   x="12.9"
   y="4.8000002"
   width="33.700001"
   height="3.9000001"
   id="rect5703"
   style="fill:#ffffff" />
<path
   d="m 11.3,6.7 c 0,2.7 -2.2,4.9 -4.9,4.9 C 3.7,11.6 1.5,9.4 1.5,6.7 1.5,4 3.7,1.8 6.4,1.8 c 2.7,0 4.9,2.2 4.9,4.9"
   id="path5705"
   inkscape:connector-curvature="0"
   style="fill:#59b4d9" />
<polygon
   points="7.4,14.1 4.5,11.3 7.4,8.4 8.6,8.4 6.4,10.8 11.8,10.8 11.8,11.7 6.4,11.7 8.6,14.1 "
   id="polygon5707"
   style="fill:#ffffff"
   transform="translate(-0.5,-4.5)" />
<path
   d="m 17.4,32.1 c 0,0.6 -0.2,1 -0.6,1.4 -0.4,0.4 -0.9,0.5 -1.6,0.5 -0.6,0 -1.1,-0.2 -1.5,-0.6 -0.4,-0.4 -0.6,-0.8 -0.6,-1.4 0,-0.6 0.2,-1 0.6,-1.4 0.4,-0.4 0.9,-0.5 1.6,-0.5 0.6,0 1.1,0.2 1.5,0.6 0.4,0.4 0.6,0.8 0.6,1.4 z"
   id="path5709"
   inkscape:connector-curvature="0"
   style="fill:#0072c6" />
<path
   d="m 26.3,32.1 c 0,0.6 -0.2,1 -0.6,1.4 C 25.3,33.9 24.8,34 24.1,34 23.5,34 23,33.8 22.6,33.4 22.2,33 22,32.6 22,32 c 0,-0.6 0.2,-1 0.6,-1.4 0.4,-0.4 0.9,-0.5 1.6,-0.5 0.6,0 1.1,0.2 1.5,0.6 0.4,0.4 0.6,0.8 0.6,1.4 z"
   id="path5711"
   inkscape:connector-curvature="0"
   style="fill:#0072c6" />
<path
   d="m 35.2,32.1 c 0,0.6 -0.2,1 -0.6,1.4 C 34.2,33.9 33.7,34 33,34 32.4,34 31.9,33.8 31.5,33.4 31.1,33 30.9,32.6 30.9,32 c 0,-0.6 0.2,-1 0.6,-1.4 0.4,-0.4 0.9,-0.5 1.6,-0.5 0.6,0 1.1,0.2 1.5,0.6 0.4,0.4 0.6,0.8 0.6,1.4 z"
   id="path5713"
   inkscape:connector-curvature="0"
   style="fill:#0072c6" />
</svg>