<?xml version="1.0" encoding="utf-8"?>
<!-- Generator: Adobe Illustrator 17.0.1, SVG Export Plug-In . SVG Version: 6.00 Build 0)  -->
<!DOCTYPE svg PUBLIC "-//W3C//DTD SVG 1.1//EN" "http://www.w3.org/Graphics/SVG/1.1/DTD/svg11.dtd">
<svg version="1.1" id="Layer_1" xmlns="http://www.w3.org/2000/svg" xmlns:xlink="http://www.w3.org/1999/xlink" x="0px" y="0px"
	 width="50px" height="50px" viewBox="0 0 50 50" enable-background="new 0 0 50 50" xml:space="preserve">
<path fill="#FFFFFF" d="M22.83,4.372C17.124,4.974,12.221,7.82,8.877,11.951c-3.345,4.134-5.106,9.52-4.508,15.227
	c0.604,5.703,3.449,10.604,7.581,13.949c4.134,3.346,9.52,5.109,15.222,4.509c5.705-0.601,10.606-3.451,13.955-7.581
	c3.34-4.132,5.106-9.519,4.505-15.225c-0.608-5.751-3.528-10.669-7.724-14.064c-3.531-2.859-8.032-4.51-12.856-4.51
	C24.319,4.256,23.578,4.294,22.83,4.372"/>
<path fill="#3999C6" d="M49.859,22.385c-0.728-6.937-4.271-12.883-9.273-16.928c-0.971-0.786-2.018-1.472-3.1-2.1l-1.963,3.777
	c0.83,0.493,1.636,1.024,2.385,1.632c4.196,3.395,7.116,8.312,7.723,14.063c0.602,5.706-1.165,11.093-4.504,15.226
	c-3.349,4.131-8.25,6.98-13.955,7.581c-3.82,0.4-7.489-0.277-10.744-1.761l-1.961,3.774c3.976,1.851,8.479,2.708,13.151,2.214
	c6.862-0.719,12.796-4.164,16.814-9.133C48.453,35.767,50.587,29.243,49.859,22.385"/>
<path fill="#A0A1A2" d="M11.951,41.127c-4.133-3.346-6.978-8.247-7.581-13.949c-0.599-5.708,1.162-11.094,4.508-15.228
	c3.343-4.13,8.246-6.977,13.951-7.578c4.613-0.484,9.016,0.574,12.694,2.76l1.963-3.776C33.07,0.793,27.824-0.43,22.381,0.143
	C15.522,0.865,9.588,4.309,5.569,9.274L5.562,9.283c-4.018,4.965-6.144,11.484-5.423,18.338c0.723,6.859,4.164,12.796,9.135,16.815
	c1.582,1.282,3.335,2.346,5.194,3.212l1.961-3.774C14.826,43.144,13.315,42.231,11.951,41.127"/>
<path fill="#59B4D9" d="M11.951,41.127c-4.133-3.346-6.978-8.247-7.581-13.949c-0.599-5.708,1.162-11.094,4.508-15.228
	c3.343-4.13,8.246-6.977,13.951-7.578c4.613-0.484,9.016,0.574,12.694,2.76l1.963-3.776C33.07,0.793,27.824-0.43,22.381,0.143
	C15.522,0.865,9.588,4.309,5.569,9.274L5.562,9.283c-4.018,4.965-6.144,11.484-5.423,18.338c0.723,6.859,4.164,12.796,9.135,16.815
	c1.582,1.282,3.335,2.346,5.194,3.212l1.961-3.774C14.826,43.144,13.315,42.231,11.951,41.127"/>
<path fill="#7A7A7A" d="M35.497,31.558l-9.601-3.414c-1.041-0.37-1.584-1.514-1.214-2.554c0.37-1.041,1.514-1.584,2.554-1.214
	l9.601,3.414c1.041,0.37,1.584,1.514,1.214,2.554C37.682,31.384,36.538,31.928,35.497,31.558z"/>
<path fill="#7A7A7A" d="M24.801,27.773c-1.104,0-2-0.896-2-2V8.755c0-1.104,0.896-2,2-2s2,0.896,2,2v17.018
	C26.801,26.878,25.906,27.773,24.801,27.773z"/>
<circle fill="#1E1E1E" cx="24.801" cy="25.773" r="2.921"/>
<rect x="11.79" y="12.992" transform="matrix(0.7071 0.7071 -0.7071 0.7071 13.566 -5.6206)" fill="#7A7A7A" width="3.556" height="1.147"/>
<rect x="24.418" y="7.087" fill="#7A7A7A" width="1.146" height="3.556"/>
<rect x="35.725" y="11.902" transform="matrix(0.7071 0.7071 -0.7071 0.7071 20.3048 -21.6604)" fill="#7A7A7A" width="1.147" height="3.556"/>
<rect x="39.055" y="24.415" fill="#7A7A7A" width="3.556" height="1.147"/>
<rect x="34.358" y="35.56" transform="matrix(0.7071 0.7071 -0.7071 0.7071 36.134 -14.9688)" fill="#7A7A7A" width="3.556" height="1.147"/>
<rect x="34.358" y="35.56" transform="matrix(0.7071 0.7071 -0.7071 0.7071 36.134 -14.9688)" fill="#7A7A7A" width="3.556" height="1.147"/>
<rect x="24.418" y="38.996" fill="#7A7A7A" width="1.146" height="3.556"/>
<rect x="11.79" y="12.992" transform="matrix(0.7071 0.7071 -0.7071 0.7071 13.566 -5.6206)" fill="#7A7A7A" width="3.556" height="1.147"/>
<rect x="13.168" y="34.459" transform="matrix(0.7071 0.7071 -0.7071 0.7071 29.6485 0.8972)" fill="#7A7A7A" width="1.147" height="3.556"/>
<rect x="13.168" y="34.459" transform="matrix(0.7071 0.7071 -0.7071 0.7071 29.6485 0.8972)" fill="#7A7A7A" width="1.147" height="3.556"/>
<rect x="7.151" y="24.415" fill="#7A7A7A" width="3.557" height="1.147"/>
</svg>
