<?xml version="1.0" encoding="UTF-8" standalone="no"?>
<!-- Generator: Adobe Illustrator 22.1.0, SVG Export Plug-In . SVG Version: 6.00 Build 0)  -->

<svg
   xmlns:dc="http://purl.org/dc/elements/1.1/"
   xmlns:cc="http://creativecommons.org/ns#"
   xmlns:rdf="http://www.w3.org/1999/02/22-rdf-syntax-ns#"
   xmlns:svg="http://www.w3.org/2000/svg"
   xmlns="http://www.w3.org/2000/svg"
   xmlns:sodipodi="http://sodipodi.sourceforge.net/DTD/sodipodi-0.dtd"
   xmlns:inkscape="http://www.inkscape.org/namespaces/inkscape"
   version="1.1"
   id="Layer_1"
   x="0px"
   y="0px"
   width="49.799"
   height="35.900002"
   viewBox="0 0 49.799 35.900002"
   enable-background="new 0 0 50 50"
   xml:space="preserve"
   sodipodi:docname="Cloud_Cycle.svg"
   inkscape:version="0.92.3 (2405546, 2018-03-11)"><metadata
   id="metadata158"><rdf:RDF><cc:Work
       rdf:about=""><dc:format>image/svg+xml</dc:format><dc:type
         rdf:resource="http://purl.org/dc/dcmitype/StillImage" /><dc:title></dc:title></cc:Work></rdf:RDF></metadata><defs
   id="defs156" /><sodipodi:namedview
   pagecolor="#ffffff"
   bordercolor="#666666"
   borderopacity="1"
   objecttolerance="10"
   gridtolerance="10"
   guidetolerance="10"
   inkscape:pageopacity="0"
   inkscape:pageshadow="2"
   inkscape:window-width="1920"
   inkscape:window-height="1017"
   id="namedview154"
   showgrid="false"
   fit-margin-top="0"
   fit-margin-left="0"
   fit-margin-right="0"
   fit-margin-bottom="0"
   inkscape:zoom="17"
   inkscape:cx="24.899"
   inkscape:cy="17"
   inkscape:window-x="1912"
   inkscape:window-y="-8"
   inkscape:window-maximized="1"
   inkscape:current-layer="Layer_1" />
<path
   d="m 45.036,18.999 c 0.497,-1.252 0.778,-2.612 0.778,-4.041 0,-6.058 -4.907,-10.969 -10.96,-10.969 -1.683,0 -3.271,0.391 -4.696,1.069 C 27.79,1.987 24.086,0 19.91,0 12.757,0 6.958,5.804 6.958,12.964 c 0,0.581 0.051,1.149 0.125,1.71 -1.704,0.643 -3.202,1.702 -4.381,3.047 0.99,0.858 2.395,1.373 3.847,1.373 5.276,-0.032 12.204,-4.331 15.868,-6.891 L 20.67,10.288 28.572,8.614 26.001,16.277 24.288,14.429 C 22.642,15.761 13.72,22.377 6.501,22.377 4.269,22.377 2.395,21.742 0.93,20.49 0.365,21.76 0.041,23.158 0,24.629 c 1.41,1.29 3.477,1.963 6.234,1.963 6.822,0 17.441,-4.259 26.425,-10.596 l -1.509,-1.814 7.97,-1.304 -2.924,7.536 -1.69,-2.007 c -9.437,7.101 -20.119,11.508 -27.812,11.508 -2.377,0 -4.408,-0.418 -6.04,-1.236 0.549,1.508 1.913,3.531 2.527,3.974 1.083,0.783 3.312,1.412 6.569,1.412 10e-4,0 10e-4,0 0.002,0 6.033,0 14.506,-2.498 21.949,-6.68 l -1.507,-1.953 8.012,-1.01 -3.198,7.423 -1.601,-2.05 C 28.995,32.5 24.152,34.603 19.449,35.9 h 21.383 c 4.953,0 8.967,-4.018 8.967,-8.975 0,-3.435 -1.93,-6.417 -4.763,-7.926 z"
   id="path151"
   inkscape:connector-curvature="0"
   style="fill:#59b4d9" />
</svg>