<?xml version="1.0" encoding="UTF-8" standalone="no"?>
<!-- Generator: Adobe Illustrator 17.1.0, SVG Export Plug-In . SVG Version: 6.00 Build 0)  -->

<svg
   xmlns:dc="http://purl.org/dc/elements/1.1/"
   xmlns:cc="http://creativecommons.org/ns#"
   xmlns:rdf="http://www.w3.org/1999/02/22-rdf-syntax-ns#"
   xmlns:svg="http://www.w3.org/2000/svg"
   xmlns="http://www.w3.org/2000/svg"
   xmlns:sodipodi="http://sodipodi.sourceforge.net/DTD/sodipodi-0.dtd"
   xmlns:inkscape="http://www.inkscape.org/namespaces/inkscape"
   version="1.1"
   id="Layer_1"
   x="0px"
   y="0px"
   viewBox="0 0 50 42.599998"
   enable-background="new 0 0 50 50"
   xml:space="preserve"
   sodipodi:docname="Code.svg"
   width="50"
   height="42.599998"
   inkscape:version="0.92.3 (2405546, 2018-03-11)"><metadata
   id="metadata6111"><rdf:RDF><cc:Work
       rdf:about=""><dc:format>image/svg+xml</dc:format><dc:type
         rdf:resource="http://purl.org/dc/dcmitype/StillImage" /><dc:title></dc:title></cc:Work></rdf:RDF></metadata><defs
   id="defs6109" /><sodipodi:namedview
   pagecolor="#ffffff"
   bordercolor="#666666"
   borderopacity="1"
   objecttolerance="10"
   gridtolerance="10"
   guidetolerance="10"
   inkscape:pageopacity="0"
   inkscape:pageshadow="2"
   inkscape:window-width="1851"
   inkscape:window-height="921"
   id="namedview6107"
   showgrid="false"
   fit-margin-top="0"
   fit-margin-left="0"
   fit-margin-right="0"
   fit-margin-bottom="0"
   inkscape:zoom="12.020815"
   inkscape:cx="23.06345"
   inkscape:cy="17.836037"
   inkscape:window-x="1930"
   inkscape:window-y="0"
   inkscape:window-maximized="0"
   inkscape:current-layer="Layer_1" />
<path
   d="m 0,40.6 c 0,1.1 0.9,2 2,2 h 46 c 1.1,0 2,-0.9 2,-2 V 8.6 H 0 Z"
   id="path6092"
   inkscape:connector-curvature="0"
   style="fill:#3999c6" />
<path
   d="M 48,0 H 2 C 0.9,0 0,0.9 0,2 V 9.3 H 50 V 2 C 50,0.9 49.1,0 48,0 Z"
   id="path6094"
   inkscape:connector-curvature="0"
   style="fill:#a0a1a2" />
<rect
   x="0"
   y="9.3000002"
   enable-background="new    "
   width="50"
   height="3.3"
   id="rect6096"
   style="opacity:0.15;fill:#ffffff" />
<path
   enable-background="new    "
   d="M 2,0 C 0.9,0 0,0.9 0,2 v 7.3 3.3 28 c 0,1.1 0.9,2 2,2 H 21.2 L 43.6,0 Z"
   id="path6098"
   inkscape:connector-curvature="0"
   style="opacity:0.1;fill:#ffffff" />
<polygon
   points="20.4,40 27.8,22.2 30.6,22.2 23.1,40 "
   id="polygon6100"
   style="fill:#ffffff"
   transform="translate(0.5,-4.5)" />
<polygon
   points="17.7,24.2 6.5,30.1 6.5,32.2 17.7,38.1 17.7,35.4 9.8,31.1 17.7,26.9 "
   id="polygon6102"
   style="fill:#ffffff"
   transform="translate(0.5,-4.5)" />
<polygon
   points="32.4,24.2 43.6,30.1 43.6,32.2 32.4,38.1 32.4,35.4 40.4,31.1 32.4,26.9 "
   id="polygon6104"
   style="fill:#ffffff"
   transform="translate(0.5,-4.5)" />
</svg>