<?xml version="1.0" encoding="utf-8"?>
<svg version="1.1" id="Layer_1" xmlns="http://www.w3.org/2000/svg" xmlns:xlink="http://www.w3.org/1999/xlink" x="0px" y="0px"
	 width="50px" height="50px" viewBox="0 0 50 50" enable-background="new 0 0 50 50" xml:space="preserve">
<rect x="0" y="0" fill="#009480" width="50" height="50"/>
<path fill="#FFFFFF" d="M37.488,21.047c0-6.256-5.07-11.349-11.349-11.349s-11.349,5.07-11.349,11.349
	c0,4.651,2.791,8.628,6.767,10.395c-0.372,0.628-1.279,1.488-2.186,2.047c-1.744,1.116-3.814,1.698-5.721,2.535
	c-0.326,0.14-0.814,0.349-0.837,0.581c-0.14,1.07-0.14,2.163-0.209,3.233c0.233,0.07,0.349,0.14,0.465,0.14
	c5.395,1,10.279-0.279,14.698-3.093C32.372,33.953,37.488,29.186,37.488,21.047z"/>
<path fill="#414141" d="M26.186,13.465c-4.14-0.023-7.535,3.279-7.581,7.372c-0.047,4.186,3.279,7.605,7.419,7.628
	c4.163,0.023,7.581-3.326,7.581-7.465C33.628,16.884,30.279,13.512,26.186,13.465z"/>
<path fill="#FFFFFF" d="M21.07,21.558v-0.674l3.977-2.977v1.233l-2.86,2.07v0.023l2.86,1.86v1.233L21.07,21.558z"/>
<path fill="#FFFFFF" d="M27.163,24.302V23.07l2.86-1.837v-0.023l-2.86-2.07v-1.233l3.977,3v0.651L27.163,24.302z"/>
</svg>
