<?xml version="1.0" encoding="utf-8"?>
<svg version="1.1" id="Layer_1" xmlns="http://www.w3.org/2000/svg" xmlns:xlink="http://www.w3.org/1999/xlink" x="0px" y="0px"
	 width="50px" height="50px" viewBox="0 0 50 50" enable-background="new 0 0 50 50" xml:space="preserve">
<rect y="0" fill="#009480" width="50" height="50"/>
<path fill="#FFFFFF" d="M31.512,15.628c-2.93-1.395-6.023-2-9.256-1.256c-6.326,1.442-10.651,5.651-14.558,10.605
	c2.93,3.93,6.302,7.163,10.605,9.302c4.186,2.07,8.465,2.279,12.767,0.326c4.465-2.023,7.93-5.209,10.86-9.047
	c0.14-0.186,0.256-0.395,0.395-0.605C39.372,21.047,35.953,17.744,31.512,15.628z"/>
<path fill="#414141" d="M25.023,17.651c-4.116,0-7.512,3.349-7.512,7.488c-0.023,4.116,3.349,7.512,7.488,7.512
	c4.116,0.023,7.512-3.349,7.512-7.488C32.512,21.047,29.14,17.651,25.023,17.651z M25.093,30.419
	c-2.047,0.023-3.953-1.419-4.279-3.256c1.558,1.186,2.814,1.488,4.209,1.488c1.395,0,2.953-0.465,4.209-1.488
	C28.93,28.907,27.023,30.395,25.093,30.419z"/>
<path fill="#FFFFFF" d="M27.977,24.605c-0.651,0-1.186-0.535-1.186-1.186c0.023-0.651,0.535-1.163,1.186-1.163
	s1.186,0.535,1.186,1.186S28.628,24.605,27.977,24.605z"/>
<path fill="#FFFFFF" d="M22.023,24.605c-0.651,0-1.186-0.535-1.186-1.186c0.023-0.651,0.535-1.163,1.186-1.163
	c0.651,0,1.186,0.535,1.186,1.186C23.209,24.093,22.674,24.605,22.023,24.605z"/>
</svg>
