<?xml version="1.0" encoding="utf-8"?>
<svg version="1.1" id="Layer_1" xmlns="http://www.w3.org/2000/svg" xmlns:xlink="http://www.w3.org/1999/xlink" x="0px" y="0px"
	 width="50px" height="50px" viewBox="0 0 50 50" enable-background="new 0 0 50 50" xml:space="preserve">
<rect y="0" fill="#009480" width="50" height="50"/>
<path fill="#FFFFFF" d="M31.465,15.581c-2.953-1.395-6.047-1.977-9.256-1.209C15.884,15.86,11.581,20.093,7.698,25.07
	c2.953,3.907,6.349,7.14,10.674,9.233c4.209,2.047,8.465,2.233,12.767,0.256c4.442-2.047,7.884-5.256,10.814-9.116
	c0.14-0.186,0.256-0.395,0.372-0.605C39.349,20.953,35.907,17.674,31.465,15.581z"/>
<path fill="#414141" d="M25,17.651c-4.14,0-7.488,3.349-7.488,7.512c0,4.14,3.349,7.512,7.488,7.512s7.488-3.349,7.488-7.512
	S29.14,17.651,25,17.651z M25,30.698c-1.093,0-2.07-1.07-2.07-2.302c0-1,0.907-1.814,2.047-1.814c1.14,0,2.07,0.814,2.07,1.791
	C27.07,29.628,26.116,30.698,25,30.698z"/>
<path fill="#FFFFFF" d="M28,24.605c-0.651,0-1.186-0.535-1.186-1.186c0.023-0.651,0.535-1.163,1.186-1.163
	c0.651,0,1.186,0.535,1.186,1.186C29.186,24.093,28.651,24.605,28,24.605z"/>
<path fill="#FFFFFF" d="M22.047,24.605c-0.651,0-1.186-0.535-1.186-1.186c0.023-0.651,0.535-1.163,1.186-1.163
	c0.651,0,1.186,0.535,1.186,1.186C23.233,24.093,22.698,24.605,22.047,24.605z"/>
</svg>
