<?xml version="1.0" encoding="utf-8"?>
<svg version="1.1" id="Layer_1" xmlns="http://www.w3.org/2000/svg" xmlns:xlink="http://www.w3.org/1999/xlink" x="0px" y="0px"
	 width="50px" height="50px" viewBox="0 0 50 50" enable-background="new 0 0 50 50" xml:space="preserve">
<rect y="0" fill="#009480" width="50" height="50"/>
<path fill="#FFFFFF" d="M9.907,25.419c0-1.419,0-2.814,0-4.233c0.093-0.605,0.233-1.233,0.302-1.837
	c0.395-2.86,2.326-5.767,5.837-6.372C22.023,11.93,28,11.907,33.977,13c3.256,0.605,5.047,2.721,5.698,5.86
	c0.605,2.907,0.558,5.837,0.07,8.767c-0.488,2.814-2.465,5.674-6.093,6.116c-2.372,0.279-4.744,0.488-7.116,0.744
	c-0.326,0.047-0.698,0.116-0.953,0.302c-1.326,0.86-2.07,1.837-3.977,2.605c-1.558,0.674-4.86,1.395-5.116,1.326
	c-0.116-0.186,2.326-2.884,2.535-4.512c-0.86-0.14-1.512-0.233-2.14-0.326c-3.721-0.558-5.907-2.605-6.605-6.233
	C10.14,26.907,10.047,26.163,9.907,25.419z"/>
<path fill="#414141" d="M29.047,30.256c0.605-0.093,1.047-0.14,1.512-0.209c2.605-0.372,4.14-1.698,4.628-4.023
	c0.093-0.465,0.163-0.953,0.256-1.442c0-0.907,0-1.814,0-2.721c-0.07-0.395-0.163-0.791-0.209-1.186
	c-0.279-1.837-1.628-3.721-4.093-4.116c-4.186-0.674-8.372-0.698-12.558,0.023c-2.279,0.395-3.535,1.767-4,3.791
	c-0.442,1.884-0.395,3.767-0.047,5.674c0.326,1.814,1.744,3.581,4.256,3.953C22.512,30.512,29.047,30.256,29.047,30.256z"/>
<path fill="#FFFFFF" d="M19,23.186C19,22.512,19.512,22,20.186,22c0.651,0,1.186,0.535,1.186,1.186c0,0.628-0.535,1.163-1.186,1.163
	C19.535,24.372,19,23.837,19,23.186z"/>
<path fill="#FFFFFF" d="M29.93,22c0.674,0,1.186,0.512,1.186,1.186c0,0.651-0.535,1.186-1.186,1.186
	c-0.628,0-1.163-0.535-1.186-1.163C28.744,22.535,29.279,22,29.93,22z"/>
<path fill="#FFFFFF" d="M25.047,24.372c-0.651,0-1.186-0.535-1.186-1.186c0.023-0.651,0.535-1.163,1.186-1.163
	c0.651,0,1.186,0.535,1.186,1.186C26.233,23.837,25.721,24.372,25.047,24.372z"/>
</svg>
