<?xml version="1.0" encoding="utf-8"?>
<svg version="1.1" id="Layer_1" xmlns="http://www.w3.org/2000/svg" xmlns:xlink="http://www.w3.org/1999/xlink" x="0px" y="0px"
	 width="50px" height="50px" viewBox="0 0 50 50" enable-background="new 0 0 50 50" xml:space="preserve">
<rect fill="#009480" width="50" height="50"/>
<path fill="#FFFFFF" d="M21.909,9.674h6.147v3.366l3.295,1.378l2.206-2.371l4.45,4.45l-2.378,2.244l1.337,3.202h3.362v6.14h-3.364
	l-1.377,3.294l2.361,2.213l-4.415,4.428l-2.187-2.386l-3.321,1.387v3.31h-6.113v-3.321l-3.264-1.362l-2.227,2.371l-4.498-4.488
	l2.439-2.139l-1.397-3.336H9.669v-6.099h3.321l1.362-3.269l-2.365-2.211l4.456-4.463l2.214,2.378l3.247-1.357V9.667L21.909,9.674z"
	/>
<ellipse fill="#FFFFFF" cx="25" cy="25" rx="12.705" ry="12.705"/>
<path fill="#414142" d="M25.096,17.024c-4.393,0-8.004,3.485-8.061,7.838s3.482,8.078,7.887,8.114
	c4.404,0.036,8.05-3.532,8.061-7.944C32.994,20.621,29.456,17.058,25.096,17.024z"/>
<path fill="#FFFFFF" d="M29.742,23.873c-0.019-0.057-0.052-0.108-0.096-0.149c-0.047-0.042-0.102-0.074-0.161-0.096
	c-0.087-0.027-0.178-0.04-0.269-0.037h-3.13c0.058-0.202,0.125-0.401,0.204-0.596l0.108-0.263c0.035-0.09,0.075-0.177,0.12-0.263
	l0.126-0.244c0.039-0.071,0.083-0.139,0.13-0.204l0.22-0.299c0.079-0.115,0.148-0.237,0.204-0.364
	c0.064-0.148,0.114-0.302,0.149-0.46c0.042-0.196,0.062-0.396,0.059-0.596c0.001-0.087-0.014-0.174-0.043-0.256
	c-0.044-0.143-0.14-0.264-0.269-0.34c-0.063-0.031-0.133-0.047-0.204-0.047c-0.07,0.001-0.139,0.016-0.204,0.043
	c-0.075,0.033-0.144,0.079-0.204,0.136c-0.078,0.07-0.146,0.15-0.204,0.238c-0.069,0.111-0.127,0.229-0.173,0.352
	c-0.086,0.236-0.205,0.458-0.352,0.661c-0.146,0.199-0.312,0.383-0.495,0.55c-0.187,0.17-0.386,0.326-0.596,0.466
	c-0.214,0.142-0.435,0.282-0.661,0.417c-0.285,0.159-0.553,0.347-0.8,0.56c-0.185,0.162-0.349,0.347-0.488,0.55
	c-0.111,0.162-0.196,0.342-0.25,0.531c-0.031,0.121-0.051,0.245-0.059,0.37h-2.139v4.885h2.111V28.75l0,0
	c0.025,0.062,0.071,0.112,0.13,0.142c0.117,0.065,0.241,0.115,0.37,0.149c0.181,0.05,0.364,0.09,0.55,0.12l0.655,0.096l0.71,0.071
	l0.698,0.047h1.085c0.176,0.021,0.354,0.008,0.525-0.037c0.137-0.049,0.266-0.117,0.383-0.204c0.109-0.079,0.209-0.169,0.299-0.269
	c0.102-0.116,0.198-0.238,0.287-0.364c0.052-0.069,0.089-0.148,0.108-0.232c0.001-0.087,0.015-0.174,0.043-0.256
	c0.028-0.089,0.043-0.182,0.043-0.275c0.018-0.102,0.05-0.201,0.096-0.293c0.034-0.075,0.08-0.144,0.136-0.204l0.185-0.204
	c0.067-0.075,0.129-0.155,0.185-0.238c0.063-0.091,0.109-0.192,0.136-0.299c0.005-0.073,0.005-0.147,0-0.22v-0.596
	c-0.006-0.068-0.006-0.136,0-0.204c0.056-0.075,0.12-0.143,0.191-0.204l0.12-0.22l0.126-0.214l0.096-0.161
	c0.035-0.048,0.067-0.097,0.096-0.149c0.03-0.054,0.056-0.11,0.077-0.167c0.022-0.058,0.039-0.118,0.053-0.179
	c0.007-0.057,0.007-0.116,0-0.173C29.761,23.969,29.755,23.92,29.742,23.873z"/>
</svg>
