<?xml version="1.0" encoding="utf-8"?>
<svg version="1.1" id="Layer_1" xmlns="http://www.w3.org/2000/svg" xmlns:xlink="http://www.w3.org/1999/xlink" x="0px" y="0px"
	 width="50px" height="50px" viewBox="0 0 50 50" enable-background="new 0 0 50 50" xml:space="preserve">
<rect y="0" fill="#009480" width="50" height="50"/>
<path fill="#FFFFFF" d="M31.512,15.628c-2.93-1.395-6.023-2-9.256-1.256c-6.326,1.442-10.651,5.651-14.558,10.605
	c2.93,3.93,6.302,7.163,10.605,9.302c4.186,2.07,8.465,2.279,12.767,0.326c4.465-2.023,7.93-5.209,10.86-9.047
	c0.14-0.186,0.256-0.395,0.395-0.605C39.372,21.047,35.953,17.744,31.512,15.628z"/>
<path fill="#414141" d="M25.07,17.651c-4.116-0.023-7.512,3.279-7.558,7.372c-0.047,4.186,3.279,7.605,7.419,7.628
	c4.163,0.023,7.581-3.326,7.581-7.465S29.186,17.674,25.07,17.651z M24.07,28.814c-0.907,0-1.814,0-2.721,0c0-0.907,0-1.814,0-2.721
	c0.907,0,1.814,0,2.721,0C24.07,26.977,24.07,27.884,24.07,28.814z M24.07,24.209c-0.907,0-1.814,0-2.721,0c0-0.907,0-1.814,0-2.721
	c0.907,0,1.814,0,2.721,0C24.07,22.395,24.07,23.302,24.07,24.209z M28.674,28.814c-0.907,0-1.814,0-2.721,0
	c0-0.907,0-1.814,0-2.721c0.907,0,1.814,0,2.721,0C28.674,26.977,28.674,27.884,28.674,28.814z M28.674,24.209
	c-0.907,0-1.814,0-2.721,0c0-0.907,0-1.814,0-2.744c0.907,0,1.814,0,2.721,0C28.674,22.395,28.674,23.302,28.674,24.209z"/>
</svg>
