<?xml version="1.0" encoding="utf-8"?>
<svg version="1.1" id="Layer_1" xmlns="http://www.w3.org/2000/svg" xmlns:xlink="http://www.w3.org/1999/xlink" x="0px" y="0px"
	 width="50px" height="50px" viewBox="0 0 50 50" enable-background="new 0 0 50 50" xml:space="preserve">
<rect fill="#009480" width="50" height="50"/>
<path fill="#FFFFFF" d="M37.442,21.038c0-6.267-5.087-11.346-11.361-11.346s-11.36,5.07-11.36,11.346
	c0,4.648,2.789,8.625,6.783,10.385c-0.371,0.617-1.29,1.479-2.186,2.052c-1.748,1.113-3.81,1.69-5.72,2.535
	c-0.319,0.139-0.811,0.353-0.841,0.588c-0.142,1.069-0.147,2.16-0.2,3.222c0.238,0.078,0.348,0.129,0.461,0.15
	c5.402,1.002,10.298-0.27,14.722-3.091C32.333,33.944,37.442,29.179,37.442,21.038z"/>
<path fill="#414142" d="M26.183,13.374c-4.097,0-7.473,3.252-7.518,7.311c-0.045,4.058,3.25,7.537,7.363,7.567
	s7.514-3.299,7.525-7.432C33.564,16.688,30.254,13.406,26.183,13.374z"/>
<path fill="#FFFFFF" d="M28.041,18.412v-1.63h0.519v-1.064h-4.522v1.064h0.519v1.63l-2.675,5.341l0.809,1.358h7.235l0.802-1.341
	L28.041,18.412z M25.928,19.727L23.785,24h-0.526l-0.285-0.272l2.675-5.077v-1.847h1.309v1.853l0.519,1.064h-1.555l0,0
	L25.928,19.727z"/>
</svg>
