<?xml version="1.0" encoding="UTF-8" standalone="no"?>
<!-- Generator: Adobe Illustrator 17.1.0, SVG Export Plug-In . SVG Version: 6.00 Build 0)  -->

<svg
   xmlns:dc="http://purl.org/dc/elements/1.1/"
   xmlns:cc="http://creativecommons.org/ns#"
   xmlns:rdf="http://www.w3.org/1999/02/22-rdf-syntax-ns#"
   xmlns:svg="http://www.w3.org/2000/svg"
   xmlns="http://www.w3.org/2000/svg"
   xmlns:sodipodi="http://sodipodi.sourceforge.net/DTD/sodipodi-0.dtd"
   xmlns:inkscape="http://www.inkscape.org/namespaces/inkscape"
   version="1.1"
   id="Layer_1"
   x="0px"
   y="0px"
   height="49.599998"
   width="49.995583"
   viewBox="0 0 49.995583 49.599998"
   enable-background="new 0 0 50 50"
   xml:space="preserve"
   sodipodi:docname="ContinuousExport.svg"
   inkscape:version="0.92.3 (2405546, 2018-03-11)"><metadata
   id="metadata1147"><rdf:RDF><cc:Work
       rdf:about=""><dc:format>image/svg+xml</dc:format><dc:type
         rdf:resource="http://purl.org/dc/dcmitype/StillImage" /><dc:title></dc:title></cc:Work></rdf:RDF></metadata><defs
   id="defs1145" /><sodipodi:namedview
   pagecolor="#ffffff"
   bordercolor="#666666"
   borderopacity="1"
   objecttolerance="10"
   gridtolerance="10"
   guidetolerance="10"
   inkscape:pageopacity="0"
   inkscape:pageshadow="2"
   inkscape:window-width="1920"
   inkscape:window-height="1017"
   id="namedview1143"
   showgrid="false"
   fit-margin-top="0"
   fit-margin-left="0"
   fit-margin-right="0"
   fit-margin-bottom="0"
   inkscape:zoom="12.020815"
   inkscape:cx="25.604848"
   inkscape:cy="21.413195"
   inkscape:window-x="1912"
   inkscape:window-y="-8"
   inkscape:window-maximized="1"
   inkscape:current-layer="Layer_1" />
<g
   id="g1130"
   transform="translate(-0.00428913,-0.2)">
	<path
   d="m 19.4,45.9 2.8,-3.8 C 14.9,40.5 8.1,34.3 7.4,26.4 6.7,17.8 12.2,10.1 20.3,7.9 L 23.3,4 19.5,0.5 C 7.5,3.3 -1,14.5 0.1,27.1 c 1,12 10.5,21.3 22,22.7 z"
   id="path1126"
   inkscape:connector-curvature="0"
   style="fill:#0072c6" />
	<path
   d="m 28.8,0.2 2.4,3.9 -3.3,3.6 C 35.2,9.4 42,15.6 42.7,23.4 43.4,31.9 38,39.6 30,41.9 l -2.3,4.3 3.5,3 C 42.9,46.2 51,35.2 49.9,22.8 48.9,11 39.9,1.9 28.8,0.2 Z"
   id="path1128"
   inkscape:connector-curvature="0"
   style="fill:#0072c6" />
</g>
<g
   id="g1140"
   transform="translate(-0.00428913,-0.2)">
	<rect
   x="12.7"
   y="21.5"
   width="4.0999999"
   height="9.6999998"
   id="rect1132"
   style="fill:#0072c6" />
	<rect
   x="19.5"
   y="16"
   width="4.0999999"
   height="15.2"
   id="rect1134"
   style="fill:#59b4d9" />
	<rect
   x="26.299999"
   y="22.9"
   width="4.0999999"
   height="8.3000002"
   id="rect1136"
   style="fill:#3999c6" />
	<rect
   x="33.200001"
   y="18.700001"
   width="4.0999999"
   height="12.4"
   id="rect1138"
   style="fill:#0072c6" />
</g>
</svg>