<?xml version="1.0" encoding="utf-8"?>
<!-- Generator: Adobe Illustrator 19.1.0, SVG Export Plug-In . SVG Version: 6.00 Build 0)  -->
<svg version="1.1" id="Layer_1" xmlns="http://www.w3.org/2000/svg" xmlns:xlink="http://www.w3.org/1999/xlink" x="0px" y="0px"
	 width="50px" height="50px" viewBox="0 0 50 50" enable-background="new 0 0 50 50" xml:space="preserve">
<g id="Retention">
	<path fill="#59B4D9" d="M18.5,50h0.3c10.4,0,18.8-3,18.8-6.8V6.9H18.5L18.5,50L18.5,50z"/>
	<g id="arrow_copy">
	</g>
	<path fill="#3999C6" d="M0,6.8v36.3c0,3.8,8.4,6.8,18.8,6.8V6.8L0,6.8L0,6.8z"/>
	<path fill="#FFFFFF" d="M37.6,6.8c0,3.8-8.4,6.8-18.8,6.8S0,10.6,0,6.8S8.4,0,18.8,0S37.6,3,37.6,6.8"/>
	<path fill="#7FBA00" d="M33.7,6.4c0,2.5-6.7,4.5-14.9,4.5S3.9,8.9,3.9,6.4s6.7-4.5,14.9-4.5S33.7,3.9,33.7,6.4"/>
	<path fill="#B8D432" d="M30.6,9.2c2-0.8,3.1-1.8,3.1-2.8c0-2.5-6.7-4.5-14.9-4.5S3.9,3.9,3.9,6.4c0,1,1.1,2,3.1,2.8
		c2.8-1,7-1.8,11.8-1.8S27.8,8.2,30.6,9.2"/>
</g>
<g id="_x31_" display="none">
	<path display="inline" fill="#59B4D9" d="M546.7,9122.4h28.8c1195.2,0,2160-345.6,2160-777.6V4183.2H546.7V9122.4z"/>
	<g id="arrow" display="inline">
	</g>
	<g display="inline">
		<path fill="#B8D432" d="M3383.5,8013.6l187.2-1108.8l-388.8,230.4c-331.2-532.8-849.6-921.6-1468.8-1080
			c-633.6-172.8-1296-72-1857.6,259.2s-964.8,864-1137.6,1497.6l561.6,144c129.6-489.6,432-892.8,864-1152s936-331.2,1425.6-201.6
			c460.8,115.2,849.6,403.2,1108.8,820.8l-374.4,216L3383.5,8013.6z"/>
	</g>
	<path display="inline" fill="#3999C6" d="M-1584.5,4168.8V8330.4c0,432,964.8,777.6,2160,777.6V4168.8H-1584.5z"/>
	<path display="inline" fill="#FFFFFF" d="M2735.5,4168.8c0,432-964.8,777.6-2160,777.6s-2160-345.6-2160-777.6
		s964.8-777.6,2160-777.6C1770.7,3391.2,2735.5,3736.8,2735.5,4168.8"/>
	<path display="inline" fill="#7FBA00" d="M2289.1,4125.6c0,288-763.2,518.4-1713.6,518.4s-1713.6-230.4-1713.6-518.4
		s763.2-518.4,1713.6-518.4S2289.1,3837.6,2289.1,4125.6"/>
	<path display="inline" fill="#B8D432" d="M1929.1,4442.4c230.4-86.4,360-201.6,360-316.8c0-288-763.2-518.4-1713.6-518.4
		s-1713.6,230.4-1713.6,518.4c0,115.2,129.6,230.4,360,316.8c316.8-115.2,806.4-201.6,1353.6-201.6S1612.3,4327.2,1929.1,4442.4"/>
</g>
<g id="_x32_" display="none">
	<g id="DB" display="inline">
		<path fill="#59B4D9" d="M1833.1,9136.8h14.4c820.8,0,1483.2-244.8,1483.2-532.8V5738.4h-1512v3398.4H1833.1L1833.1,9136.8z"/>
		<path fill="#3999C6" d="M364.3,5738.4V8604c0,302.4,662.4,532.8,1483.2,532.8V5738.4H364.3z"/>
		<path fill="#FFFFFF" d="M3330.7,5738.4c0,302.4-662.4,532.8-1483.2,532.8S364.3,6026.4,364.3,5738.4
			c0-302.4,662.4-532.8,1483.2-532.8S3330.7,5436,3330.7,5738.4"/>
		<path fill="#7FBA00" d="M3028.3,5709.6c0,201.6-532.8,360-1180.8,360s-1180.8-158.4-1180.8-360s532.8-360,1180.8-360
			S3028.3,5508,3028.3,5709.6"/>
		<path fill="#B8D432" d="M2783.5,5925.6c158.4-57.6,244.8-129.6,244.8-216c0-201.6-532.8-360-1180.8-360S666.7,5508,666.7,5709.6
			c0,86.4,86.4,158.4,244.8,216c216-86.4,547.2-144,936-144C2221.9,5781.6,2567.5,5839.2,2783.5,5925.6"/>
	</g>
	<path display="inline" fill="#0072C6" d="M-427.7,6213.6c0-43.2,0-86.4,0-129.6c0-691.2,576-1252.8,1267.2-1252.8
		c417.6,0,792,201.6,1022.4,518.4c144-86.4,331.2-144,504-144c532.8,0,964.8,432,964.8,950.4v72c360,187.2,547.2,475.2,547.2,849.6
		c0,590.4-475.2,1051.2-1094.4,1051.2H76.3c-619.2,0-1094.4-460.8-1094.4-1051.2C-1018.1,6688.8-802.1,6386.4-427.7,6213.6z"/>
	<path display="inline" fill="#0072C6" d="M3517.9,6501.6v-72c0-432-288-806.4-691.2-936c0,43.2,0,72,0,115.2
		c0,936-748.8,1670.4-1713.6,1670.4H-946.1c0,28.8-14.4,72-14.4,100.8c0,604.8,489.6,1080,1123.2,1080h2793.6
		c633.6,0,1123.2-475.2,1123.2-1080C4093.9,6991.2,3892.3,6688.8,3517.9,6501.6z"/>
	<g display="inline">
		<path fill="#FFFFFF" d="M2898.7,8172l720-864h-446.4c-14.4-633.6-273.6-1224-720-1670.4c-460.8-460.8-1080-720-1742.4-720
			s-1267.2,259.2-1742.4,720l403.2,403.2c360-360,820.8-547.2,1324.8-547.2s979.2,187.2,1324.8,547.2
			c345.6,345.6,532.8,792,547.2,1267.2h-432L2898.7,8172z"/>
	</g>
	<path display="inline" fill="#59B4D9" d="M-2011.7,4773.6c0-43.2,0-86.4,0-129.6c0-691.2,576-1252.8,1267.2-1252.8
		c417.6,0,792,201.6,1022.4,518.4c144-86.4,331.2-144,504-144c532.8,0,964.8,432,964.8,950.4v72c360,187.2,547.2,475.2,547.2,849.6
		c0,590.4-475.2,1051.2-1094.4,1051.2h-2707.2c-619.2,0-1094.4-460.8-1094.4-1051.2C-2602.1,5248.8-2386.1,4946.4-2011.7,4773.6z"/>
</g>
<g id="_x33_" display="none">
	<path display="inline" fill="#0072C6" d="M-1594.1,5244c0-57.6,0-100.8,0-158.4c0-835.2,691.2-1512,1526.4-1512
		c504,0,964.8,244.8,1252.8,633.6c187.2-115.2,388.8-172.8,619.2-172.8c633.6,0,1166.4,518.4,1166.4,1152v86.4
		c432,216,662.4,576,662.4,1036.8c0,705.6-576,1267.2-1324.8,1267.2H-960.5c-748.8,0-1324.8-561.6-1324.8-1267.2
		C-2299.7,5820-2040.5,5445.6-1594.1,5244z"/>
	<path display="inline" fill="#B8D432" d="M2970.7,7893.6c-28.8-648-302.4-1267.2-763.2-1728
		c-489.6-489.6-1137.6-763.2-1828.8-763.2l0,0l0,0v144l0,0c43.2,0,86.4,0,129.6,0c-43.2,0-86.4,0-129.6,0v720
		c460.8,0,907.2,187.2,1224,504c302.4,302.4,475.2,691.2,504,1123.2h-561.6l489.6,561.6l489.6,561.6l489.6-561.6l489.6-561.6
		L2970.7,7893.6L2970.7,7893.6z"/>
	<g display="inline">
		<path fill="#59B4D9" d="M2783.5,7332c-158.4,57.6-316.8,86.4-489.6,86.4h-417.6c129.6,230.4,216,489.6,230.4,748.8h-561.6
			l489.6,561.6l489.6,561.6l489.6-561.6l489.6-561.6h-532.8C2956.3,7879.2,2884.3,7605.6,2783.5,7332z"/>
		<path fill="#59B4D9" d="M364.3,6554.4v-720c43.2,0,86.4,0,129.6,0c-43.2,0-86.4,0-129.6,0l0,0v-144l0,0l0,0
			c691.2,0,1339.2,273.6,1828.8,763.2c259.2,259.2,446.4,561.6,576,892.8c489.6-187.2,835.2-633.6,835.2-1180.8
			c0-460.8-230.4-820.8-662.4-1036.8v-86.4c0-633.6-518.4-1152-1152-1152c-216,0-432,57.6-619.2,172.8
			c-288-388.8-748.8-633.6-1252.8-633.6c-849.6,0-1526.4,676.8-1526.4,1512c0,57.6,0,100.8,0,158.4
			c-460.8,216-705.6,590.4-705.6,1065.6c0,705.6,576,1267.2,1324.8,1267.2h2851.2c-72-129.6-172.8-259.2-273.6-360
			C1271.5,6727.2,839.5,6554.4,364.3,6554.4z"/>
		<path fill="#FFFFFF" d="M2783.5,7332c-129.6-331.2-316.8-633.6-576-892.8C1717.9,5949.6,1069.9,5676,378.7,5676l0,0l0,0v144l0,0
			c43.2,0,86.4,0,129.6,0c-43.2,0-86.4,0-129.6,0v720c460.8,0,907.2,187.2,1224,504c115.2,115.2,201.6,230.4,273.6,360h417.6
			C2466.7,7418.4,2639.5,7389.6,2783.5,7332z"/>
	</g>
</g>
<polygon fill="#0072C6" points="48.569,29.114 45.136,25.681 43.706,24.25 43.563,24.25 26.396,24.25 26.396,50 50,50 50,30.688 
	50,30.544 "/>
<polygon opacity="0.8" fill="#FFFFFF" enable-background="new    " points="43.563,25.681 27.826,25.681 27.826,48.569 
	48.569,48.569 48.569,30.688 43.563,30.688 "/>
<path fill="#0072C6" d="M43.419,45.136c0,0.429-0.358,0.787-0.787,0.787H31.832c-0.429,0-0.787-0.358-0.787-0.787
	s0.358-0.787,0.787-0.787h10.801C43.062,44.349,43.419,44.707,43.419,45.136"/>
<path fill="#0072C6" d="M45.637,37.268c0,0.429-0.358,0.787-0.787,0.787H31.832c-0.429,0-0.787-0.358-0.787-0.787
	c0-0.429,0.358-0.787,0.787-0.787h12.947C45.279,36.481,45.637,36.839,45.637,37.268"/>
<path fill="#0072C6" d="M45.637,41.202c0,0.429-0.358,0.787-0.787,0.787H31.832c-0.429,0-0.787-0.358-0.787-0.787
	c0-0.429,0.358-0.787,0.787-0.787h12.947C45.279,40.415,45.637,40.773,45.637,41.202"/>
<path fill="#0072C6" d="M45.637,33.334c0,0.429-0.358,0.787-0.787,0.787H31.832c-0.429,0-0.787-0.358-0.787-0.787
	c0-0.429,0.358-0.787,0.787-0.787h12.947C45.279,32.547,45.637,32.905,45.637,33.334"/>
</svg>
