<?xml version="1.0" encoding="utf-8"?>
<!-- Generator: Adobe Illustrator 19.1.0, SVG Export Plug-In . SVG Version: 6.00 Build 0)  -->
<svg version="1.1" id="Layer_1" xmlns="http://www.w3.org/2000/svg" xmlns:xlink="http://www.w3.org/1999/xlink" x="0px" y="0px"
	 width="50px" height="50px" viewBox="0 0 50 50" enable-background="new 0 0 50 50" xml:space="preserve">
<path fill="#59B4D9" d="M25.256,9.065c0,5.006-4.059,9.065-9.066,9.065c-5.007,0-9.065-4.059-9.065-9.065
	C7.125,4.059,11.183,0,16.19,0C21.197,0,25.256,4.059,25.256,9.065"/>
<polygon fill="#59B4D9" points="22.818,21.237 16.19,30.523 9.562,21.237 0.001,21.237 0.001,44.137 32.38,44.137 32.38,21.237 "/>
<path opacity="0.2" fill="#FFFFFF" d="M7.126,9.065c0,4.931,3.939,8.935,8.843,9.054l2.277-17.875C17.584,0.089,16.899,0,16.19,0
	C11.183,0,7.126,4.059,7.126,9.065"/>
<polygon opacity="0.2" fill="#FFFFFF" points="9.564,21.237 0,21.237 0,44.137 12.696,44.137 14.698,28.433 "/>
<rect x="21.5" y="29" fill="#FFFFFF" width="28.5" height="14.583"/>
<path fill="#EAC282" d="M40.636,41.33c-1.305,1.305-3.04,2.024-4.886,2.024c-1.846,0-3.581-0.719-4.886-2.024L21.5,31.966V50H50
	V31.966L40.636,41.33z"/>
<path fill="#EAC282" d="M35.75,40.963c1.474,0,2.861-0.574,3.903-1.617L50,29v-0.549H21.5V29l10.347,10.347
	C32.889,40.389,34.275,40.963,35.75,40.963z"/>
</svg>
