<?xml version="1.0" encoding="UTF-8" standalone="no"?>
<!-- Generator: Adobe Illustrator 17.1.0, SVG Export Plug-In . SVG Version: 6.00 Build 0)  -->

<svg
   xmlns:dc="http://purl.org/dc/elements/1.1/"
   xmlns:cc="http://creativecommons.org/ns#"
   xmlns:rdf="http://www.w3.org/1999/02/22-rdf-syntax-ns#"
   xmlns:svg="http://www.w3.org/2000/svg"
   xmlns="http://www.w3.org/2000/svg"
   xmlns:sodipodi="http://sodipodi.sourceforge.net/DTD/sodipodi-0.dtd"
   xmlns:inkscape="http://www.inkscape.org/namespaces/inkscape"
   version="1.1"
   id="Layer_1"
   x="0px"
   y="0px"
   height="40"
   width="50"
   viewBox="0 0 50 40"
   enable-background="new 0 0 50 50"
   xml:space="preserve"
   sodipodi:docname="Counter.svg"
   inkscape:version="0.92.3 (2405546, 2018-03-11)"><metadata
   id="metadata1529"><rdf:RDF><cc:Work
       rdf:about=""><dc:format>image/svg+xml</dc:format><dc:type
         rdf:resource="http://purl.org/dc/dcmitype/StillImage" /><dc:title></dc:title></cc:Work></rdf:RDF></metadata><defs
   id="defs1527" /><sodipodi:namedview
   pagecolor="#ffffff"
   bordercolor="#666666"
   borderopacity="1"
   objecttolerance="10"
   gridtolerance="10"
   guidetolerance="10"
   inkscape:pageopacity="0"
   inkscape:pageshadow="2"
   inkscape:window-width="1920"
   inkscape:window-height="1017"
   id="namedview1525"
   showgrid="false"
   fit-margin-top="0"
   fit-margin-left="0"
   fit-margin-right="0"
   fit-margin-bottom="0"
   inkscape:zoom="17"
   inkscape:cx="25"
   inkscape:cy="20"
   inkscape:window-x="1912"
   inkscape:window-y="-8"
   inkscape:window-maximized="1"
   inkscape:current-layer="Layer_1" />
<path
   d="M 44.5,40 H 5.5 C 2.5,40 0,37.5 0,34.5 V 5.5 C 0,2.5 2.5,0 5.5,0 h 39 c 3,0 5.5,2.5 5.5,5.5 v 29 c 0,3 -2.5,5.5 -5.5,5.5 z"
   id="path1504"
   inkscape:connector-curvature="0"
   style="fill:#a0a1a2" />
<rect
   x="2.7"
   y="8.1000004"
   width="13"
   height="24"
   id="rect1506"
   style="fill:#0072c6" />
<rect
   x="2.7"
   y="8.1000004"
   width="13"
   height="12"
   id="rect1508"
   style="opacity:0.15;fill:#ffffff" />
<path
   d="m 14.1,19.7 c 0,2.5 -0.5,4.4 -1.4,5.7 -0.9,1.3 -2.2,2 -3.8,2 C 7.3,27.4 6.1,26.8 5.2,25.5 4.4,24.2 4,22.4 4,20 c 0,-2.6 0.4,-4.5 1.3,-5.9 0.9,-1.4 2.2,-2 3.9,-2 3.3,0.1 4.9,2.6 4.9,7.6 z m -2.4,0.1 c 0,-2 -0.2,-3.4 -0.6,-4.3 -0.4,-0.9 -1.1,-1.4 -1.9,-1.4 -1.8,0 -2.7,2 -2.7,5.9 0,1.8 0.2,3.2 0.7,4.1 0.5,0.9 1.1,1.4 2,1.4 0.9,0 1.5,-0.5 1.9,-1.4 0.4,-0.9 0.5,-2.4 0.6,-4.3 z"
   id="path1510"
   inkscape:connector-curvature="0"
   style="fill:#ffffff" />
<rect
   x="18.700001"
   y="8.1000004"
   width="13"
   height="24"
   id="rect1512"
   style="fill:#0072c6" />
<rect
   x="18.700001"
   y="8.1000004"
   width="13"
   height="12"
   id="rect1514"
   style="opacity:0.15;fill:#ffffff" />
<path
   d="m 30.1,19.7 c 0,2.5 -0.5,4.4 -1.4,5.7 -0.9,1.3 -2.2,2 -3.8,2 -1.6,0 -2.8,-0.6 -3.7,-1.9 C 20.4,24.2 20,22.4 20,20 c 0,-2.6 0.4,-4.5 1.3,-5.9 0.9,-1.4 2.2,-2 3.9,-2 3.3,0.1 4.9,2.6 4.9,7.6 z m -2.4,0.1 c 0,-2 -0.2,-3.4 -0.6,-4.3 -0.4,-0.9 -1.1,-1.4 -1.9,-1.4 -1.8,0 -2.7,2 -2.7,5.9 0,1.8 0.2,3.2 0.7,4.1 0.5,0.9 1.1,1.4 2,1.4 0.9,0 1.5,-0.5 1.9,-1.4 0.4,-0.9 0.5,-2.4 0.6,-4.3 z"
   id="path1516"
   inkscape:connector-curvature="0"
   style="fill:#ffffff" />
<rect
   x="34.700001"
   y="8.1000004"
   width="13"
   height="24"
   id="rect1518"
   style="fill:#0072c6" />
<rect
   x="34.700001"
   y="8.1000004"
   width="13"
   height="12"
   id="rect1520"
   style="opacity:0.15;fill:#ffffff" />
<path
   d="m 42.5,12.1 v 15 H 40.1 V 15 c -0.8,0.6 -1.8,1 -3.1,1.4 v -2 c 0.9,-0.3 1.7,-0.6 2.4,-1 0.7,-0.4 1.4,-0.8 2,-1.2 h 1.1 z"
   id="path1522"
   inkscape:connector-curvature="0"
   style="fill:#ffffff" />
</svg>