<?xml version="1.0" encoding="UTF-8" standalone="no"?>
<!-- Generator: Adobe Illustrator 17.0.1, SVG Export Plug-In . SVG Version: 6.00 Build 0)  -->

<svg
   xmlns:dc="http://purl.org/dc/elements/1.1/"
   xmlns:cc="http://creativecommons.org/ns#"
   xmlns:rdf="http://www.w3.org/1999/02/22-rdf-syntax-ns#"
   xmlns:svg="http://www.w3.org/2000/svg"
   xmlns="http://www.w3.org/2000/svg"
   xmlns:sodipodi="http://sodipodi.sourceforge.net/DTD/sodipodi-0.dtd"
   xmlns:inkscape="http://www.inkscape.org/namespaces/inkscape"
   version="1.1"
   id="Layer_1"
   x="0px"
   y="0px"
   width="50"
   height="49.216751"
   viewBox="0 0 50 49.216751"
   enable-background="new 0 0 50 50"
   xml:space="preserve"
   sodipodi:docname="Cubes.svg"
   inkscape:version="0.92.3 (2405546, 2018-03-11)"><metadata
   id="metadata1626"><rdf:RDF><cc:Work
       rdf:about=""><dc:format>image/svg+xml</dc:format><dc:type
         rdf:resource="http://purl.org/dc/dcmitype/StillImage" /><dc:title></dc:title></cc:Work></rdf:RDF></metadata><defs
   id="defs1624" /><sodipodi:namedview
   pagecolor="#ffffff"
   bordercolor="#666666"
   borderopacity="1"
   objecttolerance="10"
   gridtolerance="10"
   guidetolerance="10"
   inkscape:pageopacity="0"
   inkscape:pageshadow="2"
   inkscape:window-width="1920"
   inkscape:window-height="1017"
   id="namedview1622"
   showgrid="false"
   fit-margin-top="0"
   fit-margin-left="0"
   fit-margin-right="0"
   fit-margin-bottom="0"
   inkscape:zoom="17"
   inkscape:cx="25"
   inkscape:cy="24.217"
   inkscape:window-x="1912"
   inkscape:window-y="-8"
   inkscape:window-maximized="1"
   inkscape:current-layer="Layer_1" />
<path
   d="m 11.923,34.93975 c -0.055,0 -0.107,-0.013 -0.155,-0.043 l -10.173,-5.872 c -0.099,-0.056 -0.158,-0.158 -0.158,-0.267 0,-0.111 0.059,-0.212 0.158,-0.266 l 10.109,-5.834 c 0.093,-0.056 0.211,-0.056 0.306,0 l 10.172,5.874 c 0.099,0.054 0.159,0.156 0.159,0.268 0,0.11 -0.06,0.211 -0.159,0.265 l -10.107,5.832 c -0.048,0.03 -0.099,0.043 -0.152,0.043"
   id="path1597"
   inkscape:connector-curvature="0"
   style="fill:#7fba00" />
<path
   d="m 10.454,49.21675 c -0.052,0 -0.107,-0.015 -0.152,-0.04 L 0.158,43.32075 C 0.059,43.26675 0,43.16275 0,43.05475 v -11.751 c 0,-0.108 0.059,-0.212 0.158,-0.266 0.093,-0.055 0.213,-0.055 0.307,0 l 10.143,5.855 c 0.097,0.055 0.156,0.157 0.156,0.268 v 11.748 c 0,0.111 -0.059,0.212 -0.156,0.268 -0.05,0.025 -0.098,0.04 -0.154,0.04"
   id="path1599"
   inkscape:connector-curvature="0"
   style="fill:#b8d432" />
<path
   d="m 13.326,49.21675 c -0.052,0 -0.105,-0.015 -0.156,-0.04 -0.094,-0.056 -0.151,-0.157 -0.151,-0.268 v -11.674 c 0,-0.109 0.057,-0.211 0.151,-0.268 l 10.142,-5.853 c 0.098,-0.054 0.213,-0.054 0.31,0 0.094,0.056 0.151,0.158 0.151,0.268 v 11.673 c 0,0.108 -0.057,0.212 -0.151,0.266 l -10.142,5.856 c -0.046,0.025 -0.099,0.04 -0.154,0.04"
   id="path1601"
   inkscape:connector-curvature="0"
   style="fill:#b8d432" />
<path
   d="m 38.146,34.94075 c -0.054,0 -0.104,-0.016 -0.152,-0.044 l -10.176,-5.873 c -0.097,-0.055 -0.154,-0.158 -0.154,-0.269 0,-0.108 0.057,-0.21 0.154,-0.264 l 10.11,-5.835 c 0.096,-0.053 0.214,-0.053 0.306,0 l 10.178,5.876 c 0.092,0.054 0.153,0.155 0.153,0.264 0,0.113 -0.061,0.213 -0.153,0.268 l -10.112,5.833 c -0.049,0.028 -0.1,0.044 -0.154,0.044"
   id="path1603"
   inkscape:connector-curvature="0"
   style="fill:#7fba00" />
<path
   d="m 36.683,49.21575 c -0.055,0 -0.109,-0.013 -0.156,-0.041 l -10.144,-5.855 c -0.098,-0.055 -0.156,-0.155 -0.156,-0.267 v -11.749 c 0,-0.11 0.058,-0.211 0.156,-0.269 0.093,-0.053 0.212,-0.053 0.31,0 l 10.142,5.855 c 0.094,0.057 0.151,0.158 0.151,0.268 v 11.75 c 0,0.113 -0.057,0.211 -0.151,0.267 -0.051,0.028 -0.102,0.041 -0.152,0.041"
   id="path1605"
   inkscape:connector-curvature="0"
   style="fill:#b8d432" />
<path
   d="m 39.553,49.21575 c -0.052,0 -0.105,-0.013 -0.156,-0.041 -0.094,-0.056 -0.152,-0.154 -0.152,-0.267 v -11.674 c 0,-0.11 0.058,-0.211 0.152,-0.268 l 10.141,-5.853 c 0.098,-0.054 0.213,-0.054 0.31,0 0.093,0.055 0.152,0.157 0.152,0.266 v 11.674 c 0,0.112 -0.059,0.212 -0.152,0.267 l -10.144,5.855 c -0.043,0.028 -0.098,0.041 -0.151,0.041"
   id="path1607"
   inkscape:connector-curvature="0"
   style="fill:#b8d432" />
<path
   d="m 24.937,12.32475 c -0.052,0 -0.105,-0.016 -0.155,-0.044 l -10.176,-5.873 c -0.093,-0.055 -0.152,-0.158 -0.152,-0.268 0,-0.109 0.059,-0.211 0.152,-0.265 l 10.113,-5.835 c 0.097,-0.053 0.213,-0.053 0.306,0 l 10.178,5.876 c 0.094,0.055 0.152,0.155 0.152,0.265 0,0.112 -0.058,0.212 -0.152,0.267 l -10.111,5.833 c -0.049,0.028 -0.1,0.044 -0.155,0.044"
   id="path1609"
   inkscape:connector-curvature="0"
   style="fill:#7fba00" />
<path
   d="m 23.475,26.60075 c -0.057,0 -0.11,-0.014 -0.155,-0.041 l -10.144,-5.855 c -0.099,-0.056 -0.156,-0.156 -0.156,-0.267 v -11.749 c 0,-0.111 0.057,-0.211 0.156,-0.27 0.094,-0.053 0.208,-0.053 0.31,0 l 10.142,5.856 c 0.091,0.056 0.151,0.158 0.151,0.267 v 11.75 c 0,0.113 -0.06,0.211 -0.151,0.268 -0.051,0.027 -0.103,0.041 -0.153,0.041"
   id="path1611"
   inkscape:connector-curvature="0"
   style="fill:#b8d432" />
<path
   d="m 26.346,26.60075 c -0.056,0 -0.107,-0.014 -0.157,-0.041 -0.093,-0.057 -0.152,-0.155 -0.152,-0.268 v -11.674 c 0,-0.11 0.059,-0.211 0.152,-0.267 l 10.14,-5.854 c 0.098,-0.054 0.212,-0.054 0.307,0 0.097,0.055 0.155,0.157 0.155,0.267 v 11.674 c 0,0.111 -0.058,0.211 -0.155,0.267 l -10.141,5.855 c -0.042,0.027 -0.096,0.041 -0.149,0.041"
   id="path1613"
   inkscape:connector-curvature="0"
   style="fill:#b8d432" />
<path
   d="m 13.326,49.21675 c -0.052,0 -0.105,-0.015 -0.156,-0.04 -0.094,-0.056 -0.151,-0.157 -0.151,-0.268 v -11.674 c 0,-0.109 0.057,-0.211 0.151,-0.268 l 10.142,-5.853 c 0.098,-0.054 0.213,-0.054 0.31,0 0.094,0.056 0.151,0.158 0.151,0.268 v 11.673 c 0,0.108 -0.057,0.212 -0.151,0.266 l -10.142,5.856 c -0.046,0.025 -0.099,0.04 -0.154,0.04"
   id="path1615"
   inkscape:connector-curvature="0"
   style="opacity:0.5;fill:#ffffff" />
<path
   d="m 39.553,49.21575 c -0.052,0 -0.105,-0.013 -0.156,-0.041 -0.094,-0.056 -0.152,-0.154 -0.152,-0.267 v -11.674 c 0,-0.11 0.058,-0.211 0.152,-0.268 l 10.141,-5.853 c 0.098,-0.054 0.213,-0.054 0.31,0 0.093,0.055 0.152,0.157 0.152,0.266 v 11.674 c 0,0.112 -0.059,0.212 -0.152,0.267 l -10.144,5.855 c -0.043,0.028 -0.098,0.041 -0.151,0.041"
   id="path1617"
   inkscape:connector-curvature="0"
   style="opacity:0.5;fill:#ffffff" />
<path
   d="m 26.346,26.60075 c -0.056,0 -0.107,-0.014 -0.157,-0.041 -0.093,-0.057 -0.152,-0.155 -0.152,-0.268 v -11.674 c 0,-0.11 0.059,-0.211 0.152,-0.267 l 10.14,-5.854 c 0.098,-0.054 0.212,-0.054 0.307,0 0.097,0.055 0.155,0.157 0.155,0.267 v 11.674 c 0,0.111 -0.058,0.211 -0.155,0.267 l -10.141,5.855 c -0.042,0.027 -0.096,0.041 -0.149,0.041"
   id="path1619"
   inkscape:connector-curvature="0"
   style="opacity:0.5;fill:#ffffff" />
</svg>