<?xml version="1.0" encoding="utf-8"?>
<svg version="1.1" id="Layer_1" xmlns="http://www.w3.org/2000/svg" xmlns:xlink="http://www.w3.org/1999/xlink" x="0px" y="0px"
	 width="50px" height="50px" viewBox="0 0 50 50" enable-background="new 0 0 50 50" xml:space="preserve">
<path fill="#59B4D9" d="M44,14.2c0-0.4,0.1-0.9,0.1-1.3c0-7.1-5.8-12.8-13-12.8C26.9,0,23,2,20.6,5.3c-1.5-1-3.3-1.5-5.2-1.5
	c-5.4,0-9.8,4.4-9.8,9.7v0.8C2,16.2,0,19.3,0,23.1c0,6,4.9,10.7,11.2,10.7h27.6c6.3,0,11.2-4.7,11.2-10.7C50,19.1,47.8,15.9,44,14.2
	z"/>
<path opacity="0.2" fill="#FFFFFF" enable-background="new    " d="M7,28c0-4.1,2.1-7.3,6-9.3v-0.8c0-5.7,4.7-10.3,10.4-10.3
	c2,0,3.9,0.5,5.5,1.5c2.5-3.5,6.7-5.7,11.2-5.7l0,0c-2.4-2.1-5.5-3.4-9-3.4C26.9,0,23,2,20.6,5.3c-1.5-1-3.3-1.5-5.2-1.5
	c-5.4,0-9.8,4.4-9.8,9.7v0.8C2,16.2,0,19.3,0,23.1c0,5.1,3.5,9.3,8.4,10.4C7.5,31.9,7,30,7,28z"/>
<path fill="#FCD116" d="M38.07,21.93L38.07,21.93v-0.239c0-6.123-5.248-11.212-11.689-11.291c-0.159-0.239-3.817,0.08-3.817,0.08
	l0,0c-5.805,0.716-10.337,5.566-10.337,11.212c0,0.159-0.636,4.612,3.896,8.349c2.067,1.829,4.214,6.759,4.532,8.19l0.239,0.477
	h8.429l0.239-0.477c0.318-1.431,2.545-6.361,4.532-8.111C38.627,26.304,38.07,22.089,38.07,21.93z"/>
<path opacity="0.2" fill="#FF8C00" d="M38.07,21.93L38.07,21.93v-0.239c0-6.123-5.248-11.212-11.689-11.291
	c-0.159-0.239-3.817,0.08-3.817,0.08l0,0c-5.805,0.716-10.337,5.566-10.337,11.212c0,0.159-0.636,4.612,3.896,8.349
	c2.067,1.829,4.214,6.759,4.532,8.19l0.239,0.477h8.429l0.239-0.477c0.318-1.431,2.545-6.361,4.532-8.111
	C38.627,26.304,38.07,22.089,38.07,21.93z"/>
<rect x="21.054" y="41.571" fill="#7A7A7A" width="8.429" height="2.704"/>
<polygon fill="#7A7A7A" points="23.678,50 26.779,50 29.403,47.217 21.054,47.217 "/>
<path fill="#FFFFFF" d="M28.631,18.082c0,1.905-1.54,3.486-3.486,3.486s-3.486-1.54-3.486-3.486c0-1.905,1.54-3.486,3.486-3.486
	S28.631,16.177,28.631,18.082"/>
<polygon fill="#FFFFFF" points="27.698,22.866 25.144,26.433 22.59,22.866 19.955,22.866 19.955,29.662 30.333,29.662 
	30.333,22.866 "/>
<g opacity="0.15" enable-background="new    ">
	<path fill="#FFFFFF" d="M26.381,10.4c-0.159-0.239-3.817,0.08-3.817,0.08c-5.805,0.716-10.337,5.566-10.337,11.212
		c0,0.159-0.557,4.055,3.101,7.634L32.504,12.15C30.675,11.037,28.608,10.4,26.381,10.4z"/>
</g>
</svg>
