<?xml version="1.0" encoding="UTF-8" standalone="no"?>
<!-- Generator: Adobe Illustrator 17.0.1, SVG Export Plug-In . SVG Version: 6.00 Build 0)  -->

<svg
   xmlns:dc="http://purl.org/dc/elements/1.1/"
   xmlns:cc="http://creativecommons.org/ns#"
   xmlns:rdf="http://www.w3.org/1999/02/22-rdf-syntax-ns#"
   xmlns:svg="http://www.w3.org/2000/svg"
   xmlns="http://www.w3.org/2000/svg"
   xmlns:sodipodi="http://sodipodi.sourceforge.net/DTD/sodipodi-0.dtd"
   xmlns:inkscape="http://www.inkscape.org/namespaces/inkscape"
   version="1.1"
   id="Layer_1"
   x="0px"
   y="0px"
   width="50"
   height="42.633999"
   viewBox="0 0 50 42.633999"
   enable-background="new 0 0 50 50"
   xml:space="preserve"
   sodipodi:docname="CustomDomain.svg"
   inkscape:version="0.92.3 (2405546, 2018-03-11)"><metadata
   id="metadata1814"><rdf:RDF><cc:Work
       rdf:about=""><dc:format>image/svg+xml</dc:format><dc:type
         rdf:resource="http://purl.org/dc/dcmitype/StillImage" /><dc:title></dc:title></cc:Work></rdf:RDF></metadata><defs
   id="defs1812" /><sodipodi:namedview
   pagecolor="#ffffff"
   bordercolor="#666666"
   borderopacity="1"
   objecttolerance="10"
   gridtolerance="10"
   guidetolerance="10"
   inkscape:pageopacity="0"
   inkscape:pageshadow="2"
   inkscape:window-width="1920"
   inkscape:window-height="1017"
   id="namedview1810"
   showgrid="false"
   fit-margin-top="0"
   fit-margin-left="0"
   fit-margin-right="0"
   fit-margin-bottom="0"
   inkscape:zoom="4.72"
   inkscape:cx="25"
   inkscape:cy="21.481"
   inkscape:window-x="1912"
   inkscape:window-y="-8"
   inkscape:window-maximized="1"
   inkscape:current-layer="Layer_1" />
<path
   d="m 0,40.627 c 0,1.108 0.898,2.007 2.007,2.007 H 47.993 C 49.102,42.634 50,41.735 50,40.627 V 9.298 H 0 Z"
   id="path1791"
   inkscape:connector-curvature="0"
   style="fill:#0072c6" />
<path
   d="M 47.993,0 H 2.007 C 0.898,0 0,0.898 0,2.007 V 12.634 H 50 V 2.007 C 50,0.898 49.101,0 47.993,0"
   id="path1793"
   inkscape:connector-curvature="0"
   style="fill:#a0a1a2" />
<path
   d="M 2.014,0 C 0.906,0 0.007,0.898 0.007,2.007 v 7.291 3.336 27.993 c 0,1.108 0.899,2.007 2.007,2.007 H 4.202 L 43.62,0 Z"
   id="path1795"
   inkscape:connector-curvature="0"
   style="opacity:0.2;fill:#ffffff" />
<rect
   x="12.857"
   y="4.7790003"
   width="33.671001"
   height="3.9419999"
   id="rect1797"
   style="fill:#ffffff" />
<path
   d="m 11.31,6.683 c 0,2.693 -2.184,4.878 -4.878,4.878 -2.694,0 -4.878,-2.185 -4.878,-4.878 0,-2.694 2.184,-4.879 4.878,-4.879 2.693,0 4.878,2.185 4.878,4.879"
   id="path1799"
   inkscape:connector-curvature="0"
   style="fill:#59b4d9" />
<polygon
   points="6.928,13.414 3.969,10.597 6.917,7.779 8.115,7.779 5.916,10.101 11.309,10.101 11.309,11.079 5.916,11.079 8.129,13.414 "
   id="polygon1801"
   style="fill:#ffffff"
   transform="translate(0,-3.847)" />
<path
   d="m 17.286,22.626 -2.644,8.816 H 13.179 L 11.362,25.131 C 11.293,24.89 11.247,24.617 11.224,24.313 H 11.19 c -0.017,0.207 -0.077,0.474 -0.181,0.801 L 9.037,31.442 H 7.625 L 4.956,22.626 h 1.481 l 1.825,6.629 c 0.058,0.201 0.098,0.465 0.121,0.792 h 0.069 c 0.017,-0.252 0.069,-0.522 0.155,-0.809 l 2.032,-6.612 h 1.292 l 1.825,6.646 c 0.057,0.213 0.101,0.477 0.129,0.792 h 0.069 c 0.011,-0.224 0.06,-0.488 0.146,-0.792 l 1.791,-6.646 z"
   id="path1803"
   inkscape:connector-curvature="0"
   style="fill:#ffffff" />
<path
   d="m 30.91,22.626 -2.644,8.816 H 26.803 L 24.986,25.131 C 24.917,24.89 24.871,24.617 24.848,24.313 h -0.035 c -0.017,0.207 -0.077,0.474 -0.181,0.801 l -1.972,6.328 h -1.41 l -2.669,-8.816 h 1.481 l 1.825,6.629 c 0.058,0.201 0.098,0.465 0.121,0.792 h 0.069 c 0.017,-0.252 0.069,-0.522 0.155,-0.809 l 2.032,-6.612 h 1.292 l 1.825,6.646 c 0.057,0.213 0.101,0.477 0.129,0.792 h 0.069 c 0.011,-0.224 0.06,-0.488 0.146,-0.792 l 1.791,-6.646 z"
   id="path1805"
   inkscape:connector-curvature="0"
   style="fill:#ffffff" />
<path
   d="m 44.535,22.626 -2.644,8.816 H 40.428 L 38.611,25.131 C 38.542,24.89 38.496,24.617 38.473,24.313 h -0.035 c -0.017,0.207 -0.077,0.474 -0.181,0.801 l -1.972,6.328 h -1.412 l -2.669,-8.816 h 1.481 l 1.825,6.629 c 0.058,0.201 0.098,0.465 0.121,0.792 H 35.7 c 0.017,-0.252 0.069,-0.522 0.155,-0.809 l 2.032,-6.612 h 1.292 l 1.825,6.646 c 0.057,0.213 0.101,0.477 0.129,0.792 h 0.069 c 0.011,-0.224 0.06,-0.488 0.146,-0.792 l 1.791,-6.646 z"
   id="path1807"
   inkscape:connector-curvature="0"
   style="fill:#ffffff" />
</svg>