<?xml version="1.0" encoding="UTF-8" standalone="no"?>
<svg
   xmlns:dc="http://purl.org/dc/elements/1.1/"
   xmlns:cc="http://creativecommons.org/ns#"
   xmlns:rdf="http://www.w3.org/1999/02/22-rdf-syntax-ns#"
   xmlns:svg="http://www.w3.org/2000/svg"
   xmlns="http://www.w3.org/2000/svg"
   xmlns:sodipodi="http://sodipodi.sourceforge.net/DTD/sodipodi-0.dtd"
   xmlns:inkscape="http://www.inkscape.org/namespaces/inkscape"
   version="1.1"
   id="Layer_1"
   x="0px"
   y="0px"
   width="37.486"
   height="49.688"
   viewBox="-454 256 37.486 49.688"
   enable-background="new -454 256 50 50"
   xml:space="preserve"
   inkscape:version="0.91 r13725"
   sodipodi:docname="Azure DataServices category rollup.svg"><metadata
     id="metadata25"><rdf:RDF><cc:Work
         rdf:about=""><dc:format>image/svg+xml</dc:format><dc:type
           rdf:resource="http://purl.org/dc/dcmitype/StillImage" /><dc:title></dc:title></cc:Work></rdf:RDF></metadata><defs
     id="defs23" /><sodipodi:namedview
     pagecolor="#ffffff"
     bordercolor="#666666"
     borderopacity="1"
     objecttolerance="10"
     gridtolerance="10"
     guidetolerance="10"
     inkscape:pageopacity="0"
     inkscape:pageshadow="2"
     inkscape:window-width="1920"
     inkscape:window-height="1018"
     id="namedview21"
     showgrid="false"
     fit-margin-top="0"
     fit-margin-left="0"
     fit-margin-right="0"
     fit-margin-bottom="0"
     inkscape:zoom="10.363697"
     inkscape:cx="22.055104"
     inkscape:cy="17.809073"
     inkscape:window-x="-8"
     inkscape:window-y="-8"
     inkscape:window-maximized="1"
     inkscape:current-layer="Layer_1" /><path
     d="M -454,262.788 -454,298.899 C -454,302.648 -445.608,305.688 -435.257,305.688 L -435.257,262.788 C -435.257,262.788 -454,262.788 -454,262.788 Z"
     id="path3"
     inkscape:connector-curvature="0"
     style="fill:#3999c6" /><path
     d="M -435.514,305.687 -435.257,305.687 C -424.906,305.687 -416.514,302.649 -416.514,298.899 L -416.514,262.788 -435.514,262.788 -435.514,305.687 Z"
     id="path5"
     inkscape:connector-curvature="0"
     style="fill:#59b4d9" /><path
     d="M -416.514,262.788 C -416.514,266.537 -424.906,269.576 -435.257,269.576 -445.608,269.576 -454,266.537 -454,262.788 -454,259.039 -445.608,256 -435.257,256 -424.906,256 -416.514,259.039 -416.514,262.788"
     id="path7"
     inkscape:connector-curvature="0"
     style="fill:#ffffff" /><path
     d="M -420.346,262.397 C -420.346,264.872 -427.022,266.876 -435.257,266.876 -443.492,266.876 -450.169,264.872 -450.169,262.397 -450.169,259.923 -443.492,257.918 -435.257,257.918 -427.022,257.918 -420.346,259.923 -420.346,262.397"
     id="path9"
     inkscape:connector-curvature="0"
     style="fill:#7fba00" /><path
     d="M -423.47,265.134 C -421.518,264.377 -420.345,263.429 -420.345,262.399 -420.345,259.924 -427.021,257.919 -435.257,257.919 -443.492,257.919 -450.168,259.924 -450.168,262.399 -450.168,263.429 -448.995,264.377 -447.043,265.134 -444.317,264.076 -440.057,263.393 -435.257,263.393 -430.456,263.393 -426.198,264.076 -423.47,265.134"
     id="path11"
     inkscape:connector-curvature="0"
     style="fill:#b8d432" /><path
     d="M -443.729,280.765 -445.433,280.765 -445.433,290.519 -443.709,290.519 C -442.194,290.519 -441.02,290.045 -440.151,289.136 -439.319,288.227 -438.898,287.015 -438.898,285.482 -438.898,284.043 -439.319,282.909 -440.132,282.069 -440.985,281.201 -442.178,280.765 -443.729,280.765"
     id="path13"
     inkscape:connector-curvature="0"
     style="fill:#3999c6" /><path
     d="M -426.515,283.628 C -426.099,283.266 -425.891,282.792 -425.891,282.204 -425.891,281.065 -426.723,280.498 -428.411,280.498 L -429.713,280.498 -429.713,284.138 -428.18,284.138 C -427.479,284.138 -426.911,283.963 -426.515,283.628"
     id="path15"
     inkscape:connector-curvature="0"
     style="fill:#59b4d9" /><path
     d="M -425.946,287.241 C -426.402,286.902 -427.022,286.711 -427.823,286.711 L -429.716,286.711 -429.716,290.763 -427.841,290.763 C -427.044,290.763 -426.402,290.574 -425.928,290.195 -425.493,289.815 -425.267,289.326 -425.267,288.68 -425.263,288.073 -425.49,287.581 -425.946,287.241"
     id="path17"
     inkscape:connector-curvature="0"
     style="fill:#59b4d9" /><path
     d="M -436.917,276.561 C -436.23,277.29 -435.711,278.019 -435.361,278.748 -435.109,279.252 -434.695,280.577 -434.12,282.722 L -432.27,279.947 C -431.78,279.274 -431.184,278.633 -430.483,278.023 -429.782,277.413 -429.165,276.996 -428.633,276.772 -428.297,276.632 -427.925,276.562 -427.518,276.562 -426.915,276.562 -426.435,276.723 -426.078,277.046 -425.72,277.369 -425.542,277.761 -425.542,278.224 -425.542,278.757 -425.647,279.121 -425.857,279.317 -426.25,279.667 -426.698,279.843 -427.203,279.843 -427.497,279.843 -427.813,279.78 -428.149,279.654 -428.808,279.43 -429.25,279.318 -429.473,279.318 -429.809,279.318 -430.209,279.515 -430.671,279.907 -431.54,280.636 -432.577,282.045 -433.783,284.133 L -432.059,291.366 C -431.792,292.473 -431.569,293.136 -431.386,293.353 -431.204,293.571 -431.022,293.679 -430.839,293.679 -430.545,293.679 -430.201,293.518 -429.809,293.195 -429.038,292.55 -428.379,291.709 -427.832,290.672 L -427.096,291.05 C -427.979,292.704 -429.1,294.078 -430.46,295.171 -431.231,295.788 -431.883,296.096 -432.415,296.096 -433.2,296.096 -433.824,295.655 -434.287,294.772 -434.581,294.225 -435.191,291.87 -436.116,287.707 -438.303,291.506 -440.055,293.952 -441.373,295.045 -442.228,295.746 -443.055,296.096 -443.854,296.096 -444.415,296.096 -444.926,295.893 -445.389,295.486 -445.725,295.178 -445.893,294.764 -445.893,294.245 -445.893,293.782 -445.739,293.397 -445.43,293.089 -445.122,292.781 -444.743,292.626 -444.295,292.626 -443.846,292.626 -443.37,292.85 -442.865,293.299 -442.501,293.622 -442.22,293.783 -442.024,293.783 -441.856,293.783 -441.639,293.671 -441.372,293.447 -440.713,292.914 -439.816,291.765 -438.681,289.999 -437.546,288.233 -436.803,286.958 -436.452,286.172 -437.321,282.766 -437.791,280.965 -437.861,280.768 -438.183,279.857 -438.604,279.212 -439.122,278.833 -439.64,278.454 -440.405,278.266 -441.414,278.266 -441.736,278.266 -442.108,278.28 -442.529,278.308 L -442.529,277.551 -436.917,276.561 Z"
     id="path19"
     inkscape:connector-curvature="0"
     style="fill:#ffffff" /></svg>