<?xml version="1.0" encoding="UTF-8" standalone="no"?>
<!-- Generator: Adobe Illustrator 17.1.0, SVG Export Plug-In . SVG Version: 6.00 Build 0)  -->

<svg
   xmlns:dc="http://purl.org/dc/elements/1.1/"
   xmlns:cc="http://creativecommons.org/ns#"
   xmlns:rdf="http://www.w3.org/1999/02/22-rdf-syntax-ns#"
   xmlns:svg="http://www.w3.org/2000/svg"
   xmlns="http://www.w3.org/2000/svg"
   xmlns:sodipodi="http://sodipodi.sourceforge.net/DTD/sodipodi-0.dtd"
   xmlns:inkscape="http://www.inkscape.org/namespaces/inkscape"
   version="1.1"
   id="Layer_1"
   x="0px"
   y="0px"
   width="37.799999"
   height="50"
   viewBox="0 0 37.799999 50"
   enable-background="new 0 0 50 50"
   xml:space="preserve"
   sodipodi:docname="DatabaseRestore.svg"
   inkscape:version="0.92.3 (2405546, 2018-03-11)"><metadata
   id="metadata2732"><rdf:RDF><cc:Work
       rdf:about=""><dc:format>image/svg+xml</dc:format><dc:type
         rdf:resource="http://purl.org/dc/dcmitype/StillImage" /><dc:title></dc:title></cc:Work></rdf:RDF></metadata><defs
   id="defs2730" /><sodipodi:namedview
   pagecolor="#ffffff"
   bordercolor="#666666"
   borderopacity="1"
   objecttolerance="10"
   gridtolerance="10"
   guidetolerance="10"
   inkscape:pageopacity="0"
   inkscape:pageshadow="2"
   inkscape:window-width="1920"
   inkscape:window-height="1017"
   id="namedview2728"
   showgrid="false"
   fit-margin-top="0"
   fit-margin-left="0"
   fit-margin-right="0"
   fit-margin-bottom="0"
   inkscape:zoom="8.5"
   inkscape:cx="7.787989"
   inkscape:cy="14.887272"
   inkscape:window-x="1912"
   inkscape:window-y="-8"
   inkscape:window-maximized="1"
   inkscape:current-layer="Layer_1" />
<path
   d="m 0,6.8 v 36.3 c 0,3.7 8.5,6.8 18.8,6.8 V 6.8 Z"
   id="path2709"
   inkscape:connector-curvature="0"
   style="fill:#3999c6" />
<path
   d="m 18.6,50 h 0.3 c 10.5,0 18.8,-3 18.8,-6.8 V 6.8 H 18.6 Z"
   id="path2711"
   inkscape:connector-curvature="0"
   style="fill:#59b4d9" />
<path
   d="m 37.8,6.8 c 0,3.7 -8.5,6.8 -18.8,6.8 C 8.7,13.6 0,10.6 0,6.8 0,3 8.5,0 18.8,0 c 10.3,0 19,3 19,6.8"
   id="path2713"
   inkscape:connector-curvature="0"
   style="fill:#ffffff" />
<path
   d="m 33.9,6.4 c 0,2.5 -6.7,4.5 -15,4.5 -8.3,0 -15,-1.9 -15,-4.5 0,-2.6 6.7,-4.5 15,-4.5 8.3,0 15,2 15,4.5"
   id="path2715"
   inkscape:connector-curvature="0"
   style="fill:#7fba00" />
<path
   d="M 30.7,9.2 C 32.7,8.4 33.8,7.5 33.8,6.5 33.8,4 27.1,2 18.8,2 c -8.3,0 -15,2 -15,4.5 0,1 1.2,2 3.1,2.7 2.7,-1.1 7,-1.7 11.9,-1.7 4.9,-0.1 9.2,0.6 11.9,1.7"
   id="path2717"
   inkscape:connector-curvature="0"
   style="fill:#b8d432" />
<path
   d="M 10.4,24.9 H 8.7 v 9.9 h 1.7 c 1.5,0 2.7,-0.5 3.6,-1.4 0.8,-0.9 1.3,-2.1 1.3,-3.7 0,-1.4 -0.4,-2.6 -1.2,-3.4 -1,-0.9 -2.2,-1.4 -3.7,-1.4"
   id="path2719"
   inkscape:connector-curvature="0"
   style="fill:#3999c6" />
<path
   d="m 27.7,27.8 c 0.4,-0.4 0.6,-0.8 0.6,-1.4 0,-1.1 -0.8,-1.7 -2.5,-1.7 h -1.3 v 3.6 H 26 c 0.7,0 1.3,-0.1 1.7,-0.5"
   id="path2721"
   inkscape:connector-curvature="0"
   style="fill:#59b4d9" />
<path
   d="M 28.3,31.4 C 27.8,31.1 27.2,30.9 26.4,30.9 H 24.5 V 35 h 1.9 c 0.8,0 1.4,-0.2 1.9,-0.6 C 28.7,34 29,33.5 29,32.9 28.9,32.3 28.7,31.8 28.3,31.4"
   id="path2723"
   inkscape:connector-curvature="0"
   style="fill:#59b4d9" />
<path
   d="m 10.5,38.2 2.6,-2.6 c 1.5,2.3 4.2,3.8 7.1,3.8 4.7,0 8.5,-3.7 8.4,-8.5 -0.1,-4.6 -3.9,-8.5 -8.7,-8.5 -2.7,0 -5.1,1.3 -6.6,3.3 l 4,4.3 H 7.1 V 19.3 l 3.7,3.9 C 13,20.6 16.2,19 20,19 c 6.7,0 12.2,5.4 12.4,12.1 0.1,6.6 -5.1,11.8 -11.9,11.8 -4.1,0 -7.8,-1.8 -10,-4.7 z"
   id="path2725"
   inkscape:connector-curvature="0"
   style="fill:#ffffff" />
</svg>