<?xml version="1.0" encoding="UTF-8" standalone="no"?>
<!-- Generator: Adobe Illustrator 18.1.0, SVG Export Plug-In . SVG Version: 6.00 Build 0)  -->

<svg
   xmlns:dc="http://purl.org/dc/elements/1.1/"
   xmlns:cc="http://creativecommons.org/ns#"
   xmlns:rdf="http://www.w3.org/1999/02/22-rdf-syntax-ns#"
   xmlns:svg="http://www.w3.org/2000/svg"
   xmlns="http://www.w3.org/2000/svg"
   xmlns:sodipodi="http://sodipodi.sourceforge.net/DTD/sodipodi-0.dtd"
   xmlns:inkscape="http://www.inkscape.org/namespaces/inkscape"
   version="1.1"
   id="Layer_1"
   x="0px"
   y="0px"
   height="50"
   width="37.599998"
   viewBox="275 1149 37.599998 50"
   enable-background="new 275 1149 50 50"
   xml:space="preserve"
   sodipodi:docname="dataExport.svg"
   inkscape:version="0.92.3 (2405546, 2018-03-11)"><metadata
   id="metadata2933"><rdf:RDF><cc:Work
       rdf:about=""><dc:format>image/svg+xml</dc:format><dc:type
         rdf:resource="http://purl.org/dc/dcmitype/StillImage" /><dc:title></dc:title></cc:Work></rdf:RDF></metadata><defs
   id="defs2931" /><sodipodi:namedview
   pagecolor="#ffffff"
   bordercolor="#666666"
   borderopacity="1"
   objecttolerance="10"
   gridtolerance="10"
   guidetolerance="10"
   inkscape:pageopacity="0"
   inkscape:pageshadow="2"
   inkscape:window-width="1920"
   inkscape:window-height="1017"
   id="namedview2929"
   showgrid="false"
   fit-margin-top="0"
   fit-margin-left="0"
   fit-margin-right="0"
   fit-margin-bottom="0"
   inkscape:zoom="8.5"
   inkscape:cx="-10.006566"
   inkscape:cy="17.471624"
   inkscape:window-x="1912"
   inkscape:window-y="-8"
   inkscape:window-maximized="1"
   inkscape:current-layer="Layer_1" />
<g
   id="Retention"
   transform="translate(-6.7)">
	<path
   d="m 300.2,1199 h 0.3 c 10.4,0 18.8,-3 18.8,-6.8 v -36.3 h -19.1 z"
   id="path2862"
   inkscape:connector-curvature="0"
   style="fill:#59b4d9" />
	<g
   id="arrow_copy">
	</g>
	<path
   d="m 281.7,1155.8 v 36.3 c 0,3.8 8.4,6.8 18.8,6.8 v -43.1 z"
   id="path2865"
   inkscape:connector-curvature="0"
   style="fill:#3999c6" />
	<path
   d="m 319.3,1155.8 c 0,3.8 -8.4,6.8 -18.8,6.8 -10.4,0 -18.8,-3 -18.8,-6.8 0,-3.8 8.4,-6.8 18.8,-6.8 10.4,0 18.8,3 18.8,6.8"
   id="path2867"
   inkscape:connector-curvature="0"
   style="fill:#ffffff" />
	<path
   d="m 315.4,1155.4 c 0,2.5 -6.7,4.5 -14.9,4.5 -8.2,0 -14.9,-2 -14.9,-4.5 0,-2.5 6.7,-4.5 14.9,-4.5 8.2,0 14.9,2 14.9,4.5"
   id="path2869"
   inkscape:connector-curvature="0"
   style="fill:#7fba00" />
	<path
   d="m 312.3,1158.2 c 2,-0.8 3.1,-1.8 3.1,-2.8 0,-2.5 -6.7,-4.5 -14.9,-4.5 -8.2,0 -14.9,2 -14.9,4.5 0,1 1.1,2 3.1,2.8 2.8,-1 7,-1.8 11.8,-1.8 4.8,0 9,0.8 11.8,1.8"
   id="path2871"
   inkscape:connector-curvature="0"
   style="fill:#b8d432" />
	<g
   id="Arrow">
		<polygon
   points="293.6,1178 300.5,1171.9 307.4,1178 307.4,1181.8 302.3,1177.2 302.3,1188.2 298.7,1188.2 298.7,1177.2 293.6,1181.8 "
   id="polygon2873"
   style="fill:#ffffff" />
	</g>
</g>
<g
   id="_x31_"
   display="none"
   style="display:none"
   transform="translate(-6.7)">
	<path
   display="inline"
   d="m 546.7,9122.4 h 28.8 c 1195.2,0 2160,-345.6 2160,-777.6 V 4183.2 H 546.7 Z"
   id="path2877"
   inkscape:connector-curvature="0"
   style="display:inline;fill:#59b4d9" />
	<g
   id="arrow"
   display="inline"
   style="display:inline">
	</g>
	<g
   display="inline"
   id="g2882"
   style="display:inline">
		<path
   d="m 3383.5,8013.6 187.2,-1108.8 -388.8,230.4 c -331.2,-532.8 -849.6,-921.6 -1468.8,-1080 -633.6,-172.8 -1296,-72 -1857.6,259.2 -561.6,331.2 -964.8,864 -1137.6,1497.6 l 561.6,144 c 129.6,-489.6 432,-892.8 864,-1152 432,-259.2 936,-331.2 1425.6,-201.6 460.8,115.2 849.6,403.2 1108.8,820.8 l -374.4,216 z"
   id="path2880"
   inkscape:connector-curvature="0"
   style="fill:#b8d432" />
	</g>
	<path
   display="inline"
   d="m -1584.5,4168.8 v 4161.6 c 0,432 964.8,777.6 2160,777.6 V 4168.8 Z"
   id="path2884"
   inkscape:connector-curvature="0"
   style="display:inline;fill:#3999c6" />
	<path
   display="inline"
   d="m 2735.5,4168.8 c 0,432 -964.8,777.6 -2160,777.6 -1195.2,0 -2160,-345.6 -2160,-777.6 0,-432 964.8,-777.6 2160,-777.6 1195.2,0 2160,345.6 2160,777.6"
   id="path2886"
   inkscape:connector-curvature="0"
   style="display:inline;fill:#ffffff" />
	<path
   display="inline"
   d="m 2289.1,4125.6 c 0,288 -763.2,518.4 -1713.6,518.4 -950.4,0 -1713.6,-230.4 -1713.6,-518.4 0,-288 763.2,-518.4 1713.6,-518.4 950.4,0 1713.6,230.4 1713.6,518.4"
   id="path2888"
   inkscape:connector-curvature="0"
   style="display:inline;fill:#7fba00" />
	<path
   display="inline"
   d="m 1929.1,4442.4 c 230.4,-86.4 360,-201.6 360,-316.8 0,-288 -763.2,-518.4 -1713.6,-518.4 -950.4,0 -1713.6,230.4 -1713.6,518.4 0,115.2 129.6,230.4 360,316.8 316.8,-115.2 806.4,-201.6 1353.6,-201.6 547.2,0 1036.8,86.4 1353.6,201.6"
   id="path2890"
   inkscape:connector-curvature="0"
   style="display:inline;fill:#b8d432" />
</g>
<g
   id="_x32_"
   display="none"
   style="display:none"
   transform="translate(-6.7)">
	<g
   id="DB"
   display="inline"
   style="display:inline">
		<path
   d="m 1833.1,9136.8 h 14.4 c 820.8,0 1483.2,-244.8 1483.2,-532.8 V 5738.4 h -1512 v 3398.4 z"
   id="path2893"
   inkscape:connector-curvature="0"
   style="fill:#59b4d9" />
		<path
   d="M 364.3,5738.4 V 8604 c 0,302.4 662.4,532.8 1483.2,532.8 V 5738.4 Z"
   id="path2895"
   inkscape:connector-curvature="0"
   style="fill:#3999c6" />
		<path
   d="m 3330.7,5738.4 c 0,302.4 -662.4,532.8 -1483.2,532.8 -820.8,0 -1483.2,-244.8 -1483.2,-532.8 0,-302.4 662.4,-532.8 1483.2,-532.8 820.8,0 1483.2,230.4 1483.2,532.8"
   id="path2897"
   inkscape:connector-curvature="0"
   style="fill:#ffffff" />
		<path
   d="m 3028.3,5709.6 c 0,201.6 -532.8,360 -1180.8,360 -648,0 -1180.8,-158.4 -1180.8,-360 0,-201.6 532.8,-360 1180.8,-360 648,0 1180.8,158.4 1180.8,360"
   id="path2899"
   inkscape:connector-curvature="0"
   style="fill:#7fba00" />
		<path
   d="m 2783.5,5925.6 c 158.4,-57.6 244.8,-129.6 244.8,-216 0,-201.6 -532.8,-360 -1180.8,-360 -648,0 -1180.8,158.4 -1180.8,360 0,86.4 86.4,158.4 244.8,216 216,-86.4 547.2,-144 936,-144 374.4,0 720,57.6 936,144"
   id="path2901"
   inkscape:connector-curvature="0"
   style="fill:#b8d432" />
	</g>
	<path
   display="inline"
   d="m -427.7,6213.6 c 0,-43.2 0,-86.4 0,-129.6 0,-691.2 576,-1252.8 1267.2,-1252.8 417.6,0 792,201.6 1022.4,518.4 144,-86.4 331.2,-144 504,-144 532.8,0 964.8,432 964.8,950.4 v 72 c 360,187.2 547.2,475.2 547.2,849.6 0,590.4 -475.2,1051.2 -1094.4,1051.2 H 76.3 c -619.2,0 -1094.4,-460.8 -1094.4,-1051.2 0,-388.8 216,-691.2 590.4,-864 z"
   id="path2904"
   inkscape:connector-curvature="0"
   style="display:inline;fill:#0072c6" />
	<path
   display="inline"
   d="m 3517.9,6501.6 v -72 c 0,-432 -288,-806.4 -691.2,-936 0,43.2 0,72 0,115.2 0,936 -748.8,1670.4 -1713.6,1670.4 H -946.1 c 0,28.8 -14.4,72 -14.4,100.8 0,604.8 489.6,1080 1123.2,1080 h 2793.6 c 633.6,0 1123.2,-475.2 1123.2,-1080 14.4,-388.8 -187.2,-691.2 -561.6,-878.4 z"
   id="path2906"
   inkscape:connector-curvature="0"
   style="display:inline;fill:#0072c6" />
	<g
   display="inline"
   id="g2910"
   style="display:inline">
		<path
   d="m 2898.7,8172 720,-864 h -446.4 c -14.4,-633.6 -273.6,-1224 -720,-1670.4 -460.8,-460.8 -1080,-720 -1742.4,-720 -662.4,0 -1267.2,259.2 -1742.4,720 l 403.2,403.2 c 360,-360 820.8,-547.2 1324.8,-547.2 504,0 979.2,187.2 1324.8,547.2 345.6,345.6 532.8,792 547.2,1267.2 h -432 z"
   id="path2908"
   inkscape:connector-curvature="0"
   style="fill:#ffffff" />
	</g>
	<path
   display="inline"
   d="m -2011.7,4773.6 c 0,-43.2 0,-86.4 0,-129.6 0,-691.2 576,-1252.8 1267.2,-1252.8 417.6,0 792,201.6 1022.4,518.4 144,-86.4 331.2,-144 504,-144 532.8,0 964.8,432 964.8,950.4 v 72 c 360,187.2 547.2,475.2 547.2,849.6 0,590.4 -475.2,1051.2 -1094.4,1051.2 h -2707.2 c -619.2,0 -1094.4,-460.8 -1094.4,-1051.2 0,-388.8 216,-691.2 590.4,-864 z"
   id="path2912"
   inkscape:connector-curvature="0"
   style="display:inline;fill:#59b4d9" />
</g>
<g
   id="_x33_"
   display="none"
   style="display:none"
   transform="translate(-6.7)">
	<path
   display="inline"
   d="m -1594.1,5244 c 0,-57.6 0,-100.8 0,-158.4 0,-835.2 691.2,-1512 1526.4,-1512 504,0 964.8,244.8 1252.8,633.6 187.2,-115.2 388.8,-172.8 619.2,-172.8 633.6,0 1166.4,518.4 1166.4,1152 v 86.4 c 432,216 662.4,576 662.4,1036.8 0,705.6 -576,1267.2 -1324.8,1267.2 H -960.5 c -748.8,0 -1324.8,-561.6 -1324.8,-1267.2 -14.4,-489.6 244.8,-864 691.2,-1065.6 z"
   id="path2915"
   inkscape:connector-curvature="0"
   style="display:inline;fill:#0072c6" />
	<path
   display="inline"
   d="m 2970.7,7893.6 c -28.8,-648 -302.4,-1267.2 -763.2,-1728 C 1717.9,5676 1069.9,5402.4 378.7,5402.4 v 0 0 144 0 c 43.2,0 86.4,0 129.6,0 -43.2,0 -86.4,0 -129.6,0 v 720 c 460.8,0 907.2,187.2 1224,504 302.4,302.4 475.2,691.2 504,1123.2 h -561.6 l 489.6,561.6 489.6,561.6 489.6,-561.6 489.6,-561.6 z"
   id="path2917"
   inkscape:connector-curvature="0"
   style="display:inline;fill:#b8d432" />
	<g
   display="inline"
   id="g2925"
   style="display:inline">
		<path
   d="m 2783.5,7332 c -158.4,57.6 -316.8,86.4 -489.6,86.4 h -417.6 c 129.6,230.4 216,489.6 230.4,748.8 h -561.6 l 489.6,561.6 489.6,561.6 489.6,-561.6 489.6,-561.6 h -532.8 c -14.4,-288 -86.4,-561.6 -187.2,-835.2 z"
   id="path2919"
   inkscape:connector-curvature="0"
   style="fill:#59b4d9" />
		<path
   d="m 364.3,6554.4 v -720 c 43.2,0 86.4,0 129.6,0 -43.2,0 -86.4,0 -129.6,0 v 0 -144 0 0 c 691.2,0 1339.2,273.6 1828.8,763.2 259.2,259.2 446.4,561.6 576,892.8 489.6,-187.2 835.2,-633.6 835.2,-1180.8 0,-460.8 -230.4,-820.8 -662.4,-1036.8 v -86.4 c 0,-633.6 -518.4,-1152 -1152,-1152 -216,0 -432,57.6 -619.2,172.8 -288,-388.8 -748.8,-633.6 -1252.8,-633.6 -849.6,0 -1526.4,676.8 -1526.4,1512 0,57.6 0,100.8 0,158.4 -460.8,216 -705.6,590.4 -705.6,1065.6 0,705.6 576,1267.2 1324.8,1267.2 h 2851.2 c -72,-129.6 -172.8,-259.2 -273.6,-360 -316.8,-345.6 -748.8,-518.4 -1224,-518.4 z"
   id="path2921"
   inkscape:connector-curvature="0"
   style="fill:#59b4d9" />
		<path
   d="M 2783.5,7332 C 2653.9,7000.8 2466.7,6698.4 2207.5,6439.2 1717.9,5949.6 1069.9,5676 378.7,5676 v 0 0 144 0 c 43.2,0 86.4,0 129.6,0 -43.2,0 -86.4,0 -129.6,0 v 720 c 460.8,0 907.2,187.2 1224,504 115.2,115.2 201.6,230.4 273.6,360 h 417.6 c 172.8,14.4 345.6,-14.4 489.6,-72 z"
   id="path2923"
   inkscape:connector-curvature="0"
   style="fill:#ffffff" />
	</g>
</g>
</svg>