<?xml version="1.0" encoding="UTF-8" standalone="no"?>
<svg
   xmlns:dc="http://purl.org/dc/elements/1.1/"
   xmlns:cc="http://creativecommons.org/ns#"
   xmlns:rdf="http://www.w3.org/1999/02/22-rdf-syntax-ns#"
   xmlns:svg="http://www.w3.org/2000/svg"
   xmlns="http://www.w3.org/2000/svg"
   xmlns:sodipodi="http://sodipodi.sourceforge.net/DTD/sodipodi-0.dtd"
   xmlns:inkscape="http://www.inkscape.org/namespaces/inkscape"
   version="1.1"
   id="Layer_1"
   x="0px"
   y="0px"
   width="372.89999"
   height="362.60001"
   viewBox="0 0 372.89999 362.60001"
   xml:space="preserve"
   inkscape:version="0.91 r13725"
   sodipodi:docname="Azure Data Warehouse_COLOR.svg"><metadata
     id="metadata78"><rdf:RDF><cc:Work
         rdf:about=""><dc:format>image/svg+xml</dc:format><dc:type
           rdf:resource="http://purl.org/dc/dcmitype/StillImage" /><dc:title></dc:title></cc:Work></rdf:RDF></metadata><defs
     id="defs76" /><sodipodi:namedview
     pagecolor="#ffffff"
     bordercolor="#666666"
     borderopacity="1"
     objecttolerance="10"
     gridtolerance="10"
     guidetolerance="10"
     inkscape:pageopacity="0"
     inkscape:pageshadow="2"
     inkscape:window-width="1920"
     inkscape:window-height="1018"
     id="namedview74"
     showgrid="false"
     fit-margin-top="0"
     fit-margin-left="0"
     fit-margin-right="0"
     fit-margin-bottom="0"
     inkscape:zoom="1.2954622"
     inkscape:cx="230.45437"
     inkscape:cy="96.694132"
     inkscape:window-x="-8"
     inkscape:window-y="-8"
     inkscape:window-maximized="1"
     inkscape:current-layer="Layer_1" /><g
     id="Layer_4"
     transform="translate(-17.5,-14.9)"><rect
       x="107.3"
       y="128.60001"
       style="fill:#7fbb42"
       width="35.700001"
       height="35.700001"
       id="rect4" /><rect
       x="79"
       y="225.39999"
       style="fill:#7fbb42"
       width="35.700001"
       height="35.700001"
       id="rect6" /><rect
       x="129.8"
       y="225.39999"
       style="fill:#7fbb42"
       width="35.700001"
       height="35.700001"
       id="rect8" /><rect
       x="180.10001"
       y="225.39999"
       style="fill:#7fbb42"
       width="35.700001"
       height="35.700001"
       id="rect10" /><rect
       x="79"
       y="177"
       style="fill:#7fbb42"
       width="35.700001"
       height="35.700001"
       id="rect12" /><rect
       x="129.8"
       y="177"
       style="fill:#7fbb42"
       width="35.700001"
       height="35.700001"
       id="rect14" /><polygon
       style="fill:#3999c6"
       points="46.2,111.4 46.2,262.3 70.2,262.3 70.2,111.4 245,111.4 245,252.7 271.4,252.7 271.4,111.4 297.7,111.4 297.7,89.6 158.1,14.9 17.5,89.6 17.5,111.4 "
       id="polygon16" /><polygon
       style="opacity:0.8;fill:#b8d433;enable-background:new"
       points="107.3,133.2 107.3,128.6 143,128.6 143,164.3 138.9,164.3 138.9,133.2 "
       id="polygon18" /><polygon
       style="opacity:0.5;fill:#b8d433;enable-background:new"
       points="143,159.8 143,164.3 107.3,164.3 107.3,128.6 111.4,128.6 111.4,159.8 "
       id="polygon20" /><polygon
       style="opacity:0.8;fill:#b8d433;enable-background:new"
       points="79,181.6 79,177 114.7,177 114.7,212.7 110.7,212.7 110.7,181.6 "
       id="polygon22" /><polygon
       style="opacity:0.5;fill:#b8d433;enable-background:new"
       points="114.7,208.1 114.7,212.7 79,212.7 79,177 83.1,177 83.1,208.1 "
       id="polygon24" /><polygon
       style="opacity:0.8;fill:#b8d433;enable-background:new"
       points="129.8,181.6 129.8,177 165.7,177 165.7,212.7 161.4,212.7 161.4,181.6 "
       id="polygon26" /><polygon
       style="opacity:0.5;fill:#b8d433;enable-background:new"
       points="165.7,208.1 165.7,212.7 129.8,212.7 129.8,177 134.1,177 134.1,208.1 "
       id="polygon28" /><polygon
       style="opacity:0.8;fill:#b8d433;enable-background:new"
       points="79,229.9 79,225.4 114.7,225.4 114.7,261.1 110.7,261.1 110.7,229.9 "
       id="polygon30" /><polygon
       style="opacity:0.5;fill:#b8d433;enable-background:new"
       points="114.7,256.5 114.7,261.1 79,261.1 79,225.4 83.1,225.4 83.1,256.5 "
       id="polygon32" /><polygon
       style="opacity:0.8;fill:#b8d433;enable-background:new"
       points="129.8,229.9 129.8,225.4 165.7,225.4 165.7,261.1 161.4,261.1 161.4,229.9 "
       id="polygon34" /><polygon
       style="opacity:0.5;fill:#b8d433;enable-background:new"
       points="165.7,256.5 165.7,261.1 129.8,261.1 129.8,225.4 134.1,225.4 134.1,256.5 "
       id="polygon36" /><polygon
       style="opacity:0.8;fill:#b8d433;enable-background:new"
       points="180.1,229.9 180.1,225.4 215.8,225.4 215.8,261.1 211.7,261.1 211.7,229.9 "
       id="polygon38" /><polygon
       style="opacity:0.5;fill:#b8d433;enable-background:new"
       points="215.8,256.5 215.8,261.1 180.1,261.1 180.1,225.4 184.2,225.4 184.2,256.5 "
       id="polygon40" /><polygon
       style="opacity:0.8;fill:#b8d433;enable-background:new"
       points="138.2,128.6 143,128.6 143,132.2 112.6,164.3 107.3,164.3 107.3,160.2 "
       id="polygon42" /><polygon
       style="opacity:0.8;fill:#b8d433;enable-background:new"
       points="161,177 165.7,177 165.7,180.6 135.1,212.7 129.8,212.7 129.8,208.6 "
       id="polygon44" /><polygon
       style="opacity:0.8;fill:#b8d433;enable-background:new"
       points="109.9,177 114.7,177 114.7,180.6 84.3,212.7 79,212.7 79,208.6 "
       id="polygon46" /><polygon
       style="opacity:0.8;fill:#b8d433;enable-background:new"
       points="109.9,225.4 114.7,225.4 114.7,229 84.3,261.1 79,261.1 79,257 "
       id="polygon48" /><polygon
       style="opacity:0.8;fill:#b8d433;enable-background:new"
       points="161,225.4 165.7,225.4 165.7,229 135.1,261.1 129.8,261.1 129.8,257 "
       id="polygon50" /><polygon
       style="opacity:0.8;fill:#b8d433;enable-background:new"
       points="211,225.4 215.8,225.4 215.8,229 185.4,261.1 180.1,261.1 180.1,257 "
       id="polygon52" /><g
       id="g54"><path
         style="fill:#3999c6"
         d="M 229,192.8 229,348.2 C 229,364.2 265.2,377.4 309.7,377.4 L 309.7,192.8 229,192.8 Z"
         id="path56"
         inkscape:connector-curvature="0" /><path
         style="fill:#5ab4d9"
         d="M 308.5,377.5 309.7,377.5 C 354.3,377.5 390.4,364.3 390.4,348.3 L 390.4,192.8 308.5,192.8 308.5,377.5 Z"
         id="path58"
         inkscape:connector-curvature="0" /><path
         style="fill:#ffffff"
         d="M 390.4,192.8 C 390.4,208.8 354.2,222 309.7,222 265.2,222 229,208.9 229,192.8 229,176.7 265.2,163.6 309.7,163.6 354.2,163.6 390.4,176.5 390.4,192.8"
         id="path60"
         inkscape:connector-curvature="0" /><path
         style="fill:#7fbb42"
         d="M 373.9,191.1 C 373.9,201.6 345.2,210.5 309.7,210.5 274.2,210.5 245.5,201.9 245.5,191.1 245.5,180.6 274.2,171.7 309.7,171.7 345.2,171.7 373.9,180.4 373.9,191.1"
         id="path62"
         inkscape:connector-curvature="0" /><path
         style="fill:#b8d433"
         d="M 360.5,202.9 C 368.9,199.5 373.9,195.5 373.9,191.2 373.9,180.7 345.2,171.8 309.7,171.8 274.2,171.8 245.5,180.4 245.5,191.2 245.5,195.8 250.5,199.8 258.9,202.9 270.6,198.3 289.1,195.5 309.7,195.5 330.3,195.2 348.7,198.3 360.5,202.9"
         id="path64"
         inkscape:connector-curvature="0" /><g
         id="g66"><path
           style="fill:#ffffff"
           d="M 249.1,304.2 249.1,293.2 C 251,294.9 253.2,296.1 255.6,297 258,297.7 260.4,298.2 262.5,298.2 263.9,298.2 265.1,298 266.1,297.7 267.1,297.5 268,297.2 268.7,296.7 269.4,296.2 269.9,295.7 270.1,295 270.3,294.3 270.6,293.8 270.6,293.1 270.6,292.1 270.4,291.2 269.9,290.5 269.4,289.8 268.7,289.1 267.7,288.3 266.7,287.6 265.5,287.1 264.3,286.4 263.1,285.9 261.7,285.2 260,284.5 256.2,282.8 253.3,280.9 251.4,278.8 249.5,276.4 248.5,273.8 248.5,270.4 248.5,267.8 249,265.6 249.9,263.9 250.9,262 252.3,260.5 254,259.3 255.7,258.1 257.8,257.1 260.2,256.7 262.6,256.2 265,256 267.6,256 270.2,256 272.4,256.2 274.3,256.5 276.2,256.7 278.1,257.2 279.8,257.9 L 279.8,268.2 C 279.1,267.7 278.1,267.2 277.2,266.8 276.3,266.4 275.3,266.1 274.3,265.8 273.3,265.6 272.1,265.3 271.2,265.1 270.2,264.9 269.3,264.9 268.3,264.9 267.1,264.9 265.9,264.9 264.9,265.1 263.9,265.3 263,265.6 262.3,266.1 261.6,266.6 261.1,267.1 260.6,267.5 260.1,268.2 260.1,268.7 260.1,269.4 260.1,270.1 260.3,270.8 260.8,271.6 261.3,272.3 261.8,272.8 262.7,273.5 263.4,274 264.4,274.7 265.6,275.2 266.8,275.7 268,276.4 269.4,276.9 271.3,277.6 273.2,278.6 274.7,279.5 276.4,280.5 277.6,281.4 278.8,282.6 280,283.8 280.7,285 281.4,286.7 281.9,288.1 282.4,289.8 282.4,292 282.4,294.6 281.9,297 281,298.9 280,300.8 278.6,302.3 276.7,303.5 275,304.7 272.9,305.4 270.5,305.9 268.1,306.4 265.7,306.6 263.1,306.6 260.5,306.6 257.8,306.4 255.4,305.9 252.9,305.9 250.8,305.1 249.1,304.2 Z"
           id="path68"
           inkscape:connector-curvature="0" /><path
           style="fill:#ffffff"
           d="M 311.1,307.1 C 304.2,307.1 298.4,304.7 293.9,300.2 289.6,295.6 287.2,289.7 287.2,282.2 287.2,274.5 289.4,268.3 293.9,263.5 298.5,258.7 304.2,256.3 311.6,256.3 318.5,256.3 324.3,258.7 328.6,263.2 332.9,267.7 335.1,273.7 335.1,281.4 335.1,289.1 332.9,295.3 328.4,300.1 328.2,300.3 328.2,300.3 327.9,300.6 327.7,300.8 327.7,300.8 327.4,301.1 L 339.9,313.1 324.3,313.1 317.8,306.4 C 316.2,306.8 313.8,307.1 311.1,307.1 Z M 311.6,265.9 C 307.8,265.9 304.7,267.3 302.3,270.2 299.9,273.1 298.9,276.9 298.9,281.7 298.9,286.5 300.1,290.3 302.3,293.2 304.7,296.1 307.6,297.5 311.2,297.5 315,297.5 317.9,296.1 320.3,293.4 322.5,290.5 323.7,286.7 323.7,281.9 323.7,276.9 322.5,272.8 320.3,269.9 318.3,267.3 315.4,265.9 311.6,265.9 Z"
           id="path70"
           inkscape:connector-curvature="0" /><path
           style="fill:#ffffff"
           d="M 372.7,306.1 343.5,306.1 343.5,257 354.5,257 354.5,297 372.7,297 372.7,306.1 372.7,306.1 Z"
           id="path72"
           inkscape:connector-curvature="0" /></g></g></g></svg>