<?xml version="1.0" encoding="utf-8"?>
<svg version="1.1" id="Layer_1" xmlns="http://www.w3.org/2000/svg" xmlns:xlink="http://www.w3.org/1999/xlink" x="0px" y="0px"
	 viewBox="-549 251 100 100" style="enable-background:new -549 251 100 100;" xml:space="preserve">
	<g>
		<path fill="#a0a1a2" d="M-466.3,342.8h-65.5c-5,0-9.1-4.1-9.1-9.1v-65.5c0-5,4.1-9.1,9.1-9.1h65.5c5,0,9.1,4.1,9.1,9.1v65.5
			C-457.2,338.7-461.3,342.8-466.3,342.8z M-531.8,265.1c-1.7,0-3,1.4-3,3v65.5c0,1.7,1.4,3,3,3h65.5c1.7,0,3-1.4,3-3v-65.5
			c0-1.7-1.4-3-3-3H-531.8z"/>
		<g>
			<path fill="#7a7a7a" d="M-507.9,251.9c-2.2-1-4.8-1.2-7.1-0.3c-2.3,0.8-4.2,2.5-5.2,4.8l-1.4,2.9h29.5L-507.9,251.9z"/>
			<path fill="#7a7a7a" d="M-449.6,285c-0.8-2.3-2.5-4.2-4.8-5.2l-2.9-1.4V308l7.4-15.8C-448.8,289.9-448.7,287.4-449.6,285z"/>
			<path fill="#7a7a7a" d="M-548.1,316.7c-1,2.2-1.2,4.8-0.3,7.1c0.8,2.3,2.5,4.2,4.8,5.2l2.9,1.4v-29.5L-548.1,316.7z"/>
			<path fill="#7a7a7a" d="M-483.3,350.1c1.2,0.6,2.6,0.9,3.9,0.9c1.1,0,2.1-0.2,3.2-0.6c2.3-0.8,4.2-2.5,5.2-4.8l0,0l1.4-2.9h-29.5
				L-483.3,350.1z"/>
		</g>
		<path fill="#FFFFFF" d="M-531.8,265.1c-1.7,0-3,1.4-3,3v65.5c0,1.7,1.4,3,3,3h65.5c1.7,0,3-1.4,3-3v-65.5c0-1.7-1.4-3-3-3H-531.8z"/>
		<path fill="#59b4d9" d="M-484.6,294.7L-484.6,294.7h-12.7l5.3-17.7c0.1-0.5-0.1-1-0.5-1.2c-0.1-0.1-0.3-0.1-0.4-0.1
			c-0.3,0-0.6,0.2-0.8,0.4l-20.5,29.9c-0.2,0.3-0.2,0.7-0.1,1c0.2,0.3,0.5,0.5,0.9,0.5h12.3l-5.5,18c-0.1,0.5,0.1,1,0.5,1.2
			c0.1,0.1,0.3,0.1,0.4,0.1c0.3,0,0.6-0.2,0.8-0.4l21.1-30.2c0.1-0.2,0.2-0.4,0.2-0.6C-483.6,295.1-484.1,294.7-484.6,294.7z"/>
	</g>
</svg>
