<?xml version="1.0" encoding="UTF-8" standalone="no"?>
<svg
   xmlns:dc="http://purl.org/dc/elements/1.1/"
   xmlns:cc="http://creativecommons.org/ns#"
   xmlns:rdf="http://www.w3.org/1999/02/22-rdf-syntax-ns#"
   xmlns:svg="http://www.w3.org/2000/svg"
   xmlns="http://www.w3.org/2000/svg"
   xmlns:sodipodi="http://sodipodi.sourceforge.net/DTD/sodipodi-0.dtd"
   xmlns:inkscape="http://www.inkscape.org/namespaces/inkscape"
   version="1.1"
   id="Layer_1"
   x="0px"
   y="0px"
   viewBox="-549 251 100 78.5"
   xml:space="preserve"
   inkscape:version="0.91 r13725"
   sodipodi:docname="Azure Data Lake Store_COLOR.svg"
   width="100"
   height="78.5"><metadata
     id="metadata13"><rdf:RDF><cc:Work
         rdf:about=""><dc:format>image/svg+xml</dc:format><dc:type
           rdf:resource="http://purl.org/dc/dcmitype/StillImage" /><dc:title></dc:title></cc:Work></rdf:RDF></metadata><defs
     id="defs11" /><sodipodi:namedview
     pagecolor="#ffffff"
     bordercolor="#666666"
     borderopacity="1"
     objecttolerance="10"
     gridtolerance="10"
     guidetolerance="10"
     inkscape:pageopacity="0"
     inkscape:pageshadow="2"
     inkscape:window-width="1920"
     inkscape:window-height="1018"
     id="namedview9"
     showgrid="false"
     fit-margin-top="0"
     fit-margin-left="0"
     fit-margin-right="0"
     fit-margin-bottom="0"
     inkscape:zoom="7.3282406"
     inkscape:cx="27.126038"
     inkscape:cy="39.310048"
     inkscape:window-x="-8"
     inkscape:window-y="-8"
     inkscape:window-maximized="1"
     inkscape:current-layer="Layer_1" /><g
     id="g3"
     transform="translate(0,-10.7)"><path
       d="M -489.9,269.8 -492.8,264.8 C -493.9,262.9 -496,261.7 -498.2,261.7 L -542.8,261.7 C -546.2,261.7 -549,264.5 -549,267.9 L -549,270.8 -549,271.1 -488.8,271.1 C -489.3,270.8 -489.6,270.3 -489.9,269.8 Z"
       id="path5"
       inkscape:connector-curvature="0"
       style="fill:#3999c6" /><path
       d="M -452.9,274.3 -549,274.3 -549,278.9 -549,334 C -549,337.4 -546.2,340.2 -542.8,340.2 L -455.2,340.2 C -451.8,340.2 -449,337.4 -449,334 L -449,280 C -449,277.5 -450.6,275.3 -452.9,274.3 Z M -486.3,304.3 -504,329.6 C -504.2,329.8 -504.4,330 -504.7,330 -504.8,330 -505,330 -505.1,329.9 -505.5,329.7 -505.7,329.3 -505.5,328.9 L -500.9,313.8 -511.2,313.8 C -511.5,313.8 -511.8,313.6 -512,313.3 -512.1,313 -512.1,312.7 -511.9,312.4 L -494.7,287.4 C -494.5,287.2 -494.3,287 -494,287 -493.9,287 -493.8,287 -493.6,287.1 -493.2,287.3 -493,287.7 -493.2,288.1 L -497.6,302.9 -487,302.9 -487,302.9 C -486.5,302.9 -486.1,303.3 -486.1,303.8 -486.1,304 -486.2,304.1 -486.3,304.3 Z"
       id="path7"
       inkscape:connector-curvature="0"
       style="fill:#59b4d9" /></g></svg>