<?xml version="1.0" encoding="UTF-8" standalone="no"?>
<!-- Generator: Adobe Illustrator 20.1.0, SVG Export Plug-In . SVG Version: 6.00 Build 0)  -->

<svg
   xmlns:dc="http://purl.org/dc/elements/1.1/"
   xmlns:cc="http://creativecommons.org/ns#"
   xmlns:rdf="http://www.w3.org/1999/02/22-rdf-syntax-ns#"
   xmlns:svg="http://www.w3.org/2000/svg"
   xmlns="http://www.w3.org/2000/svg"
   xmlns:sodipodi="http://sodipodi.sourceforge.net/DTD/sodipodi-0.dtd"
   xmlns:inkscape="http://www.inkscape.org/namespaces/inkscape"
   version="1.1"
   id="Layer_1"
   x="0px"
   y="0px"
   width="40.081249"
   height="50.001499"
   viewBox="0 0 40.081249 50.001499"
   enable-background="new 0 0 50 50"
   xml:space="preserve"
   sodipodi:docname="Logo-DC-OS.svg"
   inkscape:version="0.92.3 (2405546, 2018-03-11)"><metadata
   id="metadata325"><rdf:RDF><cc:Work
       rdf:about=""><dc:format>image/svg+xml</dc:format><dc:type
         rdf:resource="http://purl.org/dc/dcmitype/StillImage" /><dc:title></dc:title></cc:Work></rdf:RDF></metadata><defs
   id="defs323" /><sodipodi:namedview
   pagecolor="#ffffff"
   bordercolor="#666666"
   borderopacity="1"
   objecttolerance="10"
   gridtolerance="10"
   guidetolerance="10"
   inkscape:pageopacity="0"
   inkscape:pageshadow="2"
   inkscape:window-width="1920"
   inkscape:window-height="1017"
   id="namedview321"
   showgrid="false"
   fit-margin-top="0"
   fit-margin-left="0"
   fit-margin-right="0"
   fit-margin-bottom="0"
   inkscape:zoom="17"
   inkscape:cx="20.0415"
   inkscape:cy="25"
   inkscape:window-x="1912"
   inkscape:window-y="-8"
   inkscape:window-maximized="1"
   inkscape:current-layer="Layer_1" />
<linearGradient
   id="path-2_2_"
   gradientUnits="userSpaceOnUse"
   x1="1.0375"
   y1="51.233601"
   x2="1.0375"
   y2="51.170898"
   gradientTransform="matrix(640,0,0,-640,-639.0002,32799.398)">
	<stop
   offset="0"
   style="stop-color:#7540B7"
   id="stop260" />
	<stop
   offset="1"
   style="stop-color:#9351E5"
   id="stop262" />
</linearGradient>
<path
   id="path-2_1_"
   d="m 19.7585,49.8845 -19.64,-19.64 c -0.157,-0.157 -0.157,-0.41 0,-0.567 l 19.639,-19.639 c 0.157,-0.157 0.41,-0.157 0.567,0 l 19.639,19.639 c 0.157,0.157 0.157,0.41 0,0.567 l -19.639,19.64 c -0.156,0.156 -0.41,0.156 -0.566,0"
   inkscape:connector-curvature="0"
   style="fill:url(#path-2_2_)" />
<linearGradient
   id="Fill-11_2_"
   gradientUnits="userSpaceOnUse"
   x1="-0.072300002"
   y1="53.336601"
   x2="-0.072300002"
   y2="53.3992"
   gradientTransform="matrix(188.2576,0,0,-188.2592,38.6136,10082.997)">
	<stop
   offset="0"
   style="stop-color:#E9DCF9"
   id="stop266" />
	<stop
   offset="1"
   style="stop-color:#FFFFFF"
   id="stop268" />
</linearGradient>
<path
   id="Fill-11_1_"
   d="m 20.3275,30.2285 c -0.158,-0.158 -0.414,-0.158 -0.572,0 l -5.491,5.491 c -0.158,0.158 -0.158,0.414 0,0.572 l 5.491,5.491 c 0.158,0.158 0.414,0.158 0.572,0 l 5.491,-5.491 c 0.158,-0.158 0.158,-0.414 0,-0.572 z"
   inkscape:connector-curvature="0"
   style="fill:url(#Fill-11_2_)" />
<linearGradient
   id="Path_1_"
   gradientUnits="userSpaceOnUse"
   x1="-0.63459998"
   y1="52.7743"
   x2="-0.63459998"
   y2="52.836899"
   gradientTransform="matrix(188.2592,0,0,-188.2568,151.5472,9969.9434)">
	<stop
   offset="0"
   style="stop-color:#DECBF7"
   id="stop272" />
	<stop
   offset="1"
   style="stop-color:#F4EDFC"
   id="stop274" />
</linearGradient>
<path
   id="Path_8_"
   d="m 27.3995,23.1565 c -0.158,-0.158 -0.414,-0.158 -0.572,0 l -5.491,5.491 c -0.158,0.158 -0.158,0.414 0,0.572 l 5.491,5.491 c 0.158,0.158 0.414,0.158 0.572,0 l 5.491,-5.491 c 0.158,-0.158 0.158,-0.414 0,-0.572 z"
   inkscape:connector-curvature="0"
   style="fill:url(#Path_1_)" />
<linearGradient
   id="Path_2_"
   gradientUnits="userSpaceOnUse"
   x1="0.49000001"
   y1="52.7743"
   x2="0.49000001"
   y2="52.836899"
   gradientTransform="matrix(188.2592,0,0,-188.2568,-74.3248,9969.9434)">
	<stop
   offset="0"
   style="stop-color:#DECBF7"
   id="stop278" />
	<stop
   offset="1"
   style="stop-color:#F4EDFC"
   id="stop280" />
</linearGradient>
<path
   id="Path_9_"
   d="m 18.7455,28.6475 -5.491,-5.491 c -0.158,-0.158 -0.414,-0.158 -0.572,0 l -5.491,5.491 c -0.158,0.158 -0.158,0.414 0,0.572 l 5.491,5.491 c 0.158,0.158 0.414,0.158 0.572,0 l 5.491,-5.491 c 0.158,-0.159 0.158,-0.415 0,-0.572 z"
   inkscape:connector-curvature="0"
   style="fill:url(#Path_2_)" />
<linearGradient
   id="Path_3_"
   gradientUnits="userSpaceOnUse"
   x1="-1.197"
   y1="52.274601"
   x2="-1.197"
   y2="52.212002"
   gradientTransform="matrix(188.2568,0,0,-188.2568,264.4864,9857.0068)">
	<stop
   offset="0"
   style="stop-color:#D3B9F4"
   id="stop284" />
	<stop
   offset="1"
   style="stop-color:#BE96EF"
   id="stop286" />
</linearGradient>
<path
   id="Path_10_"
   d="m 39.9635,21.5745 -5.491,-5.491 c -0.158,-0.158 -0.414,-0.158 -0.572,0 l -5.491,5.491 c -0.158,0.158 -0.158,0.414 0,0.572 l 5.491,5.491 c 0.158,0.158 0.414,0.158 0.572,0 l 5.491,-5.491 c 0.157,-0.158 0.157,-0.414 0,-0.572 z"
   inkscape:connector-curvature="0"
   style="fill:url(#Path_3_)" />
<linearGradient
   id="Path_4_"
   gradientUnits="userSpaceOnUse"
   x1="-0.072300002"
   y1="52.274601"
   x2="-0.072300002"
   y2="52.212002"
   gradientTransform="matrix(188.2576,0,0,-188.2568,38.6136,9857.0068)">
	<stop
   offset="0"
   style="stop-color:#D3B9F4"
   id="stop290" />
	<stop
   offset="1"
   style="stop-color:#BE96EF"
   id="stop292" />
</linearGradient>
<path
   id="Path_11_"
   d="m 19.7555,16.0835 -5.491,5.491 c -0.158,0.158 -0.158,0.414 0,0.572 l 5.491,5.491 c 0.158,0.158 0.414,0.158 0.572,0 l 5.491,-5.491 c 0.158,-0.158 0.158,-0.414 0,-0.572 l -5.491,-5.491 c -0.158,-0.158 -0.414,-0.158 -0.572,0 z"
   inkscape:connector-curvature="0"
   style="fill:url(#Path_4_)" />
<linearGradient
   id="Path_5_"
   gradientUnits="userSpaceOnUse"
   x1="1.0523"
   y1="52.274601"
   x2="1.0523"
   y2="52.212002"
   gradientTransform="matrix(188.2568,0,0,-188.2568,-187.2568,9857.0068)">
	<stop
   offset="0"
   style="stop-color:#D3B9F4"
   id="stop296" />
	<stop
   offset="1"
   style="stop-color:#BE96EF"
   id="stop298" />
</linearGradient>
<path
   id="Path_12_"
   d="m 11.6725,22.1465 -5.491,5.491 c -0.158,0.158 -0.414,0.158 -0.572,0 l -5.491,-5.491 c -0.158,-0.158 -0.158,-0.414 0,-0.572 l 5.491,-5.491 c 0.158,-0.158 0.414,-0.158 0.572,0 l 5.491,5.491 c 0.158,0.158 0.158,0.414 0,0.572 z"
   inkscape:connector-curvature="0"
   style="fill:url(#Path_5_)" />
<linearGradient
   id="Path_6_"
   gradientUnits="userSpaceOnUse"
   x1="-0.63459998"
   y1="51.648102"
   x2="-0.63459998"
   y2="51.585499"
   gradientTransform="matrix(188.2592,0,0,-188.2592,151.5472,9731.3135)">
	<stop
   offset="0"
   style="stop-color:#BE96EF"
   id="stop302" />
	<stop
   offset="1"
   style="stop-color:#A873EA"
   id="stop304" />
</linearGradient>
<path
   id="Path_13_"
   d="m 21.3375,14.2665 5.491,5.491 c 0.158,0.158 0.414,0.158 0.572,0 l 5.491,-5.491 c 0.158,-0.158 0.158,-0.414 0,-0.572 l -5.491,-5.491 c -0.158,-0.158 -0.414,-0.158 -0.572,0 l -5.491,5.491 c -0.158,0.159 -0.158,0.414 0,0.572 z"
   inkscape:connector-curvature="0"
   style="fill:url(#Path_6_)" />
<linearGradient
   id="Path_7_"
   gradientUnits="userSpaceOnUse"
   x1="0.49000001"
   y1="51.648102"
   x2="0.49000001"
   y2="51.585499"
   gradientTransform="matrix(188.2592,0,0,-188.2592,-74.3248,9731.3135)">
	<stop
   offset="0"
   style="stop-color:#BE96EF"
   id="stop308" />
	<stop
   offset="1"
   style="stop-color:#A873EA"
   id="stop310" />
</linearGradient>
<path
   id="Path_14_"
   d="m 12.6835,19.7575 c 0.158,0.158 0.414,0.158 0.572,0 l 5.491,-5.491 c 0.158,-0.158 0.158,-0.414 0,-0.572 l -5.491,-5.491 c -0.158,-0.158 -0.414,-0.158 -0.572,0 l -5.491,5.491 c -0.158,0.158 -0.158,0.414 0,0.572 z"
   inkscape:connector-curvature="0"
   style="fill:url(#Path_7_)" />
<linearGradient
   id="Path_16_"
   gradientUnits="userSpaceOnUse"
   x1="-0.072300002"
   y1="51.005299"
   x2="-0.072300002"
   y2="50.942699"
   gradientTransform="matrix(188.2576,0,0,-188.2568,38.6136,9602.0957)">
	<stop
   offset="0"
   style="stop-color:#A873EA"
   id="stop314" />
	<stop
   offset="1"
   style="stop-color:#9351E5"
   id="stop316" />
</linearGradient>
<path
   id="Path_15_"
   d="m 19.7555,11.6725 c 0.158,0.158 0.414,0.158 0.572,0 l 5.491,-5.491 c 0.158,-0.158 0.158,-0.414 0,-0.572 l -5.491,-5.491 c -0.158,-0.158 -0.414,-0.158 -0.572,0 l -5.491,5.491 c -0.158,0.158 -0.158,0.414 0,0.572 z"
   inkscape:connector-curvature="0"
   style="fill:url(#Path_16_)" />
</svg>