<?xml version="1.0" encoding="utf-8"?>
<svg version="1.1" id="Layer_1" xmlns="http://www.w3.org/2000/svg" xmlns:xlink="http://www.w3.org/1999/xlink" x="0px" y="0px"
	 width="50px" height="50px" viewBox="0 0 50 50" enable-background="new 0 0 50 50" xml:space="preserve">
<path fill="#0072C6" d="M50,25.5c0-3.2-2.6-5.8-5.8-5.8c-0.2,0-0.5,0-0.7,0c0.4-1.3,0.5-2.7,0.5-4.1C44.1,7,37.1,0,28.6,0
	C21.8,0,16,4.4,14,10.6c-1.1-0.4-2.2-0.6-3.4-0.6C4.7,10,0,14.8,0,20.7c0,5.9,4.7,10.6,10.5,10.6c0,0,0,0,0,0v0h34.1l0,0
	C47.7,31,50,28.5,50,25.5"/>
<path opacity="0.1" fill="#FFFFFF" d="M16.2,31.3c-1.4-1.4-2.4-3.2-2.9-5.2c-1.3-5.7,2.2-11.4,7.9-12.7c1.2-0.3,2.4-0.3,3.5-0.2
	c0.5-5.4,3.8-10.1,8.6-12.5C31.8,0.3,30.3,0,28.6,0C21.8,0,16,4.4,14,10.6c-1.1-0.4-2.2-0.6-3.4-0.6C4.7,10,0,14.8,0,20.7
	c0,5.9,4.7,10.6,10.5,10.6c0,0,0,0,0,0v0H16.2z"/>
<path fill="#59B4D9" d="M46.3,46.3L35.8,28v-7.4H36c1.3,0,2.3-1,2.3-2.3S37.2,16,36,16H24.4c-1.3,0-2.3,1-2.3,2.3s1,2.3,2.3,2.3h0.2
	V28L14,46.3c-1.2,2-0.2,3.7,2.1,3.7h28.1C46.6,50,47.5,48.4,46.3,46.3z"/>
<path fill="#804998" d="M37.6,38.5h-5c0.1,0.3,0.2,0.6,0.2,0.9c0,1.2-1,2.1-2.1,2.1s-2.1-1-2.1-2.1c0-0.3,0.1-0.7,0.2-0.9h-6.1
	L18.4,46H42L37.6,38.5z"/>
<path fill="#68217A" d="M30.7,41.5c1.2,0,2.1-1,2.1-2.1c0-0.3-0.1-0.7-0.2-0.9h-3.8c-0.1,0.3-0.2,0.6-0.2,0.9
	C28.6,40.6,29.6,41.5,30.7,41.5z"/>
<circle fill="#68217A" cx="33.4" cy="43.2" r="1"/>
<path opacity="0.25" fill="#FFFFFF" d="M14,46.3L24.6,28v-7.4h-0.2c-1.3,0-2.3-1-2.3-2.3s1-2.3,2.3-2.3h5V28l-5.6,22h-7.7
	C13.8,50,12.9,48.4,14,46.3z"/>
</svg>
