<?xml version="1.0" encoding="utf-8"?>
<!-- Generator: Adobe Illustrator 17.1.0, SVG Export Plug-In . SVG Version: 6.00 Build 0)  -->
<!DOCTYPE svg PUBLIC "-//W3C//DTD SVG 1.1//EN" "http://www.w3.org/Graphics/SVG/1.1/DTD/svg11.dtd">
<svg version="1.1" id="Layer_1" xmlns="http://www.w3.org/2000/svg" xmlns:xlink="http://www.w3.org/1999/xlink" x="0px" y="0px"
	 viewBox="0 0 50 50" enable-background="new 0 0 50 50" xml:space="preserve">
<g>
	<path fill="#A0A1A2" d="M23.5,38c0,1.1-0.9,2-2,2H2c-1.1,0-2-0.9-2-2V2c0-1.1,0.9-2,2-2h19.4c1.1,0,2,0.9,2,2V38z"/>
	<path opacity="0.6" fill="#1E1E1E" d="M3.5,21.6c0-1.4,1.1-2.6,2.6-2.6h11.7c1.4,0,2.6,1.1,2.6,2.6l0,0c0,1.4-1.1,2.6-2.6,2.6H6
		C4.6,24.2,3.5,23,3.5,21.6L3.5,21.6z"/>
	<circle fill="#B8D432" cx="6.1" cy="21.6" r="1.7"/>
	<path opacity="0.6" fill="#1E1E1E" d="M3.5,14c0-1.4,1.1-2.6,2.6-2.6h11.7c1.4,0,2.6,1.1,2.6,2.6l0,0c0,1.4-1.1,2.6-2.6,2.6H6
		C4.6,16.6,3.5,15.4,3.5,14L3.5,14z"/>
	<circle fill="#B8D432" cx="6.1" cy="14" r="1.7"/>
	<path opacity="0.6" fill="#1E1E1E" d="M3.5,6.5C3.5,5,4.6,3.9,6,3.9h11.7c1.4,0,2.6,1.1,2.6,2.6l0,0c0,1.4-1.1,2.6-2.6,2.6H6
		C4.6,9,3.5,7.9,3.5,6.5L3.5,6.5z"/>
	<circle fill="#B8D432" cx="6.1" cy="6.5" r="1.7"/>
</g>
<g>
	<path fill="#A0A1A2" d="M50,38c0,1.1-0.9,2-2,2H28.5c-1.1,0-2-0.9-2-2V2c0-1.1,0.9-2,2-2H48c1.1,0,2,0.9,2,2V38z"/>
	<path opacity="0.6" fill="#1E1E1E" d="M30,21.6c0-1.4,1.1-2.6,2.6-2.6h11.7c1.4,0,2.6,1.1,2.6,2.6l0,0c0,1.4-1.1,2.6-2.6,2.6H32.5
		C31.1,24.2,30,23,30,21.6L30,21.6z"/>
	<circle fill="#B8D432" cx="32.6" cy="21.6" r="1.7"/>
	<path opacity="0.6" fill="#1E1E1E" d="M30,14c0-1.4,1.1-2.6,2.6-2.6h11.7c1.4,0,2.6,1.1,2.6,2.6l0,0c0,1.4-1.1,2.6-2.6,2.6H32.5
		C31.1,16.6,30,15.4,30,14L30,14z"/>
	<circle fill="#B8D432" cx="32.6" cy="14" r="1.7"/>
	<path opacity="0.6" fill="#1E1E1E" d="M30,6.5c0-1.4,1.1-2.6,2.6-2.6h11.7c1.4,0,2.6,1.1,2.6,2.6l0,0c0,1.4-1.1,2.6-2.6,2.6H32.5
		C31.1,9,30,7.9,30,6.5L30,6.5z"/>
	<circle fill="#B8D432" cx="32.6" cy="6.5" r="1.7"/>
</g>
<g>
	<path fill="#3E3E3E" d="M37.6,48c0,1.1-0.9,2-2,2H16.2c-1.1,0-2-0.9-2-2V12c0-1.1,0.9-2,2-2h19.4c1.1,0,2,0.9,2,2V48z"/>
	<path fill="#1E1E1E" d="M17.6,31.6c0-1.4,1.1-2.6,2.6-2.6h11.7c1.4,0,2.6,1.1,2.6,2.6l0,0c0,1.4-1.1,2.6-2.6,2.6H20.2
		C18.7,34.2,17.6,33,17.6,31.6L17.6,31.6z"/>
	<circle fill="#B8D432" cx="20.3" cy="31.6" r="1.7"/>
	<path fill="#1E1E1E" d="M17.6,24c0-1.4,1.1-2.6,2.6-2.6h11.7c1.4,0,2.6,1.1,2.6,2.6l0,0c0,1.4-1.1,2.6-2.6,2.6H20.2
		C18.7,26.6,17.6,25.4,17.6,24L17.6,24z"/>
	<circle fill="#B8D432" cx="20.3" cy="24" r="1.7"/>
	<path fill="#1E1E1E" d="M17.6,16.5c0-1.4,1.1-2.6,2.6-2.6h11.7c1.4,0,2.6,1.1,2.6,2.6l0,0c0,1.4-1.1,2.6-2.6,2.6H20.2
		C18.7,19,17.6,17.9,17.6,16.5L17.6,16.5z"/>
	<circle fill="#B8D432" cx="20.3" cy="16.5" r="1.7"/>
</g>
</svg>
