<?xml version="1.0" encoding="UTF-8" standalone="no"?>
<svg
   xmlns:dc="http://purl.org/dc/elements/1.1/"
   xmlns:cc="http://creativecommons.org/ns#"
   xmlns:rdf="http://www.w3.org/1999/02/22-rdf-syntax-ns#"
   xmlns:svg="http://www.w3.org/2000/svg"
   xmlns="http://www.w3.org/2000/svg"
   xmlns:sodipodi="http://sodipodi.sourceforge.net/DTD/sodipodi-0.dtd"
   xmlns:inkscape="http://www.inkscape.org/namespaces/inkscape"
   version="1.1"
   id="Layer_1"
   x="0px"
   y="0px"
   height="42.504002"
   width="50"
   viewBox="0 0 50 42.504002"
   xml:space="preserve"
   inkscape:version="0.91 r13725"
   sodipodi:docname="Discs.svg"><metadata
     id="metadata27"><rdf:RDF><cc:Work
         rdf:about=""><dc:format>image/svg+xml</dc:format><dc:type
           rdf:resource="http://purl.org/dc/dcmitype/StillImage" /><dc:title></dc:title></cc:Work></rdf:RDF></metadata><defs
     id="defs25" /><sodipodi:namedview
     pagecolor="#ffffff"
     bordercolor="#666666"
     borderopacity="1"
     objecttolerance="10"
     gridtolerance="10"
     guidetolerance="10"
     inkscape:pageopacity="0"
     inkscape:pageshadow="2"
     inkscape:window-width="1920"
     inkscape:window-height="1018"
     id="namedview23"
     showgrid="false"
     fit-margin-top="0"
     fit-margin-left="0"
     fit-margin-right="0"
     fit-margin-bottom="0"
     inkscape:zoom="10.363697"
     inkscape:cx="16.94835"
     inkscape:cy="10.755606"
     inkscape:window-x="-8"
     inkscape:window-y="-8"
     inkscape:window-maximized="1"
     inkscape:current-layer="Layer_1" /><path
     d="M 50,33.45 C 50,38.451 38.806,42.504 25,42.504 11.194,42.504 0,38.451 0,33.45 L 0,28.57 50,28.57 50,33.45 Z"
     id="path3"
     inkscape:connector-curvature="0"
     style="fill:#7fba00" /><path
     d="M 50,28.57 C 50,33.571 38.806,37.624 25,37.624 11.194,37.624 0,33.571 0,28.57 0,23.57 11.193,19.516 25,19.516 38.807,19.516 50,23.57 50,28.57"
     id="path5"
     inkscape:connector-curvature="0"
     style="fill:#b8d432" /><path
     d="M 33.013,28.049 C 33.013,29.379 29.425,30.456 24.999,30.456 20.573,30.456 16.984,29.379 16.984,28.049 16.984,26.719 20.573,25.642 24.999,25.642 29.425,25.642 33.013,26.72 33.013,28.049"
     id="path7"
     inkscape:connector-curvature="0"
     style="fill:#7fba00" /><path
     d="M 43.071,22.367 C 39.569,21.04 34.967,20.098 29.792,19.734 L 26.548,25.738 C 28.144,25.832 29.571,26.067 30.675,26.4 L 43.071,22.367 Z"
     id="path9"
     inkscape:connector-curvature="0"
     style="opacity:0.25;fill:#ffffff" /><path
     d="M 5.902,34.46 C 9.503,36.003 14.5,37.103 20.19,37.505 L 23.983,30.485 C 22.404,30.425 20.969,30.228 19.815,29.933 L 5.902,34.46 Z"
     id="path11"
     inkscape:connector-curvature="0"
     style="opacity:0.25;fill:#ffffff" /><path
     d="M 50,13.934 C 50,18.935 38.806,22.988 25,22.988 11.194,22.988 0,18.934 0,13.934 L 0,9.054 50,9.054 50,13.934 Z"
     id="path13"
     inkscape:connector-curvature="0"
     style="fill:#0072c6" /><path
     d="M 50,9.054 C 50,14.055 38.806,18.108 25,18.108 11.194,18.108 0,14.054 0,9.054 0,4.054 11.193,0 25,0 38.807,0 50,4.053 50,9.054"
     id="path15"
     inkscape:connector-curvature="0"
     style="fill:#59b4d9" /><path
     d="M 33.013,8.533 C 33.013,9.863 29.425,10.94 24.999,10.94 20.573,10.94 16.984,9.863 16.984,8.533 16.984,7.203 20.573,6.126 24.999,6.126 29.425,6.126 33.013,7.203 33.013,8.533"
     id="path17"
     inkscape:connector-curvature="0"
     style="fill:#0072c6" /><path
     d="M 43.071,2.801 C 39.569,1.474 34.967,0.532 29.792,0.168 L 26.548,6.172 C 28.144,6.266 29.571,6.501 30.675,6.834 L 43.071,2.801 Z"
     id="path19"
     inkscape:connector-curvature="0"
     style="opacity:0.25;fill:#ffffff" /><path
     d="M 5.902,14.894 C 9.503,16.437 14.5,17.537 20.19,17.939 L 23.983,10.919 C 22.404,10.859 20.969,10.662 19.815,10.367 L 5.902,14.894 Z"
     id="path21"
     inkscape:connector-curvature="0"
     style="opacity:0.25;fill:#ffffff" /></svg>