<?xml version="1.0" encoding="utf-8"?>
<svg version="1.1" id="Layer_1" xmlns="http://www.w3.org/2000/svg" xmlns:xlink="http://www.w3.org/1999/xlink" x="0px" y="0px"
	 width="50px" height="50px" viewBox="-374 616 50 50" enable-background="new -374 616 50 50" xml:space="preserve">
<circle fill="#0072C6" cx="-349" cy="641" r="25"/>
<path opacity="0.2" fill="#FFFFFF" d="M-366.678,658.678c-9.763-9.763-9.763-25.592,0-35.355c9.763-9.763,25.592-9.763,35.355,0
	L-366.678,658.678z"/>
<path opacity="0.8" fill="#FFFFFF" d="M-326,640.996c0-5.152-1.748-10.12-4.968-14.168l0,0l-0.184-0.184
	c-0.092-0.092-0.092-0.184-0.184-0.276l-1.472-1.564l0,0c-4.324-4.416-10.028-6.808-16.192-6.808c0,0,0,0-0.092,0l0,0h-0.092
	c-6.072,0.092-11.684,2.392-16.008,6.716l0,0l-1.564,1.656c-0.092,0.092-0.092,0.184-0.184,0.276l-0.184,0.092l0,0
	c-3.128,4.048-4.876,9.108-4.876,14.26c0,5.152,1.748,10.12,4.968,14.168l0,0l0.184,0.184c0.092,0.092,0.092,0.184,0.184,0.276
	l1.472,1.564l0,0c4.324,4.324,9.936,6.716,16.008,6.716h0.092l0,0c0,0,0,0,0.092,0c6.072,0,11.868-2.392,16.192-6.716l0,0
	l1.472-1.656c0.092-0.092,0.092-0.184,0.184-0.276l0.184-0.184l0,0C-327.748,651.208-326,646.148-326,640.996z M-335.292,626
	c-0.092,0-0.184,0.092-0.276,0.092c-0.184,0.092-0.368,0.184-0.46,0.184c-0.368,0.184-0.828,0.276-1.288,0.46
	c-0.092,0-0.184,0.092-0.276,0.092c-0.552,0.184-1.012,0.276-1.564,0.46l0,0c-0.092,0-0.276,0.092-0.368,0.092
	c-0.828-2.208-1.84-4.14-3.036-5.612C-339.892,622.596-337.408,624.068-335.292,626z M-349.184,620.664h0.092
	c2.484,0,5.06,2.668,6.9,7.268c-2.116,0.368-4.416,0.552-6.808,0.552s-4.784-0.184-6.992-0.552
	C-354.244,623.424-351.668,620.756-349.184,620.664z M-355.716,621.86c-1.104,1.472-2.116,3.312-2.944,5.52
	c-0.092,0-0.092,0-0.184,0l0,0c-0.552-0.184-1.104-0.276-1.564-0.46c-0.092,0-0.184-0.092-0.276-0.092
	c-0.368-0.184-0.828-0.368-1.196-0.552c-0.184-0.092-0.276-0.092-0.46-0.184c-0.092-0.092-0.184-0.092-0.368-0.184
	C-360.592,624.16-358.292,622.688-355.716,621.86z M-362.708,655.992c0.092,0,0.184-0.092,0.276-0.092
	c0.184-0.092,0.276-0.092,0.46-0.184c0.368-0.184,0.828-0.276,1.288-0.46c0.092,0,0.184-0.092,0.276-0.092
	c0.552-0.184,1.012-0.276,1.564-0.46l0,0c0.092,0,0.092,0,0.184,0c0.828,2.116,1.84,4.048,2.944,5.52
	C-358.292,659.304-360.684,657.832-362.708,655.992z M-349.092,661.328h-0.092c-2.484-0.092-5.06-2.668-6.808-7.176
	c2.208-0.368,4.6-0.552,6.992-0.552s4.6,0.184,6.808,0.552C-343.94,658.66-346.608,661.328-349.092,661.328z M-342.56,660.224
	c1.196-1.472,2.208-3.404,3.036-5.612c0.092,0,0.276,0.092,0.368,0.092l0,0c0.552,0.184,1.104,0.276,1.564,0.46
	c0.092,0,0.184,0.092,0.276,0.092c0.46,0.184,0.828,0.276,1.288,0.46c0.184,0.092,0.276,0.092,0.46,0.184
	c0.092,0,0.184,0.092,0.368,0.184C-337.408,657.924-339.892,659.396-342.56,660.224z M-333.268,653.876L-333.268,653.876
	c-0.276,0-0.46-0.092-0.736-0.184c-0.276-0.092-0.644-0.276-0.92-0.368c-0.092,0-0.184-0.092-0.276-0.092
	c-1.104-0.46-2.3-0.736-3.496-1.104c0.276-1.104,0.552-2.208,0.736-3.312h-2.76c-0.184,1.012-0.368,1.932-0.644,2.76
	c-2.392-0.46-4.968-0.644-7.636-0.644c-2.76,0-5.336,0.276-7.82,0.736c-0.276-0.92-0.46-1.84-0.644-2.852h-2.76
	c0.184,1.196,0.46,2.3,0.736,3.404c-1.104,0.276-2.208,0.644-3.22,1.012c-0.092,0.092-0.276,0.092-0.368,0.184
	c-0.276,0.092-0.644,0.276-0.92,0.368c-0.184,0-0.46,0.092-0.644,0.184l0,0c-2.76-3.312-4.324-7.452-4.6-11.684h2.3v-2.668h-2.3
	c0.276-4.232,1.84-8.28,4.508-11.5l0.092-0.092c0.184,0.092,0.46,0.184,0.644,0.276c0.368,0.184,0.644,0.276,1.012,0.46
	c0.092,0,0.184,0.092,0.276,0.092c1.012,0.368,2.116,0.736,3.312,1.012c-0.276,1.012-0.46,2.024-0.644,3.036h2.76
	c0.184-0.828,0.368-1.748,0.552-2.484c2.484,0.46,5.152,0.736,7.82,0.736c2.668,0,5.244-0.276,7.636-0.644
	c0.184,0.736,0.368,1.564,0.552,2.484h2.76c-0.184-1.012-0.368-2.024-0.644-3.036c1.196-0.276,2.3-0.644,3.404-1.104
	c0.092,0,0.276-0.092,0.368-0.092c0.368-0.092,0.644-0.276,1.012-0.368c0.184-0.092,0.46-0.184,0.644-0.276l0,0
	c2.668,3.312,4.324,7.36,4.6,11.592h-2.76v2.668h2.76C-329.036,646.516-330.6,650.656-333.268,653.876z"/>
<path fill="#FFFFFF" d="M-354.778,640.855c0,1.09-0.143,2.023-0.427,2.797c-0.284,0.775-0.694,1.407-1.226,1.896
	c-0.533,0.49-1.18,0.85-1.943,1.079c-0.762,0.229-1.67,0.344-2.723,0.344h-2.838c-0.201,0-0.373-0.06-0.51-0.178
	c-0.138-0.12-0.206-0.314-0.206-0.583v-10.36c0-0.27,0.069-0.464,0.206-0.583c0.138-0.12,0.308-0.179,0.51-0.179h3.049
	c1.059,0,1.958,0.124,2.696,0.373c0.738,0.248,1.359,0.615,1.865,1.102c0.505,0.487,0.889,1.088,1.153,1.804
	C-354.91,639.082-354.778,639.913-354.778,640.855z M-357.276,640.938c0-0.564-0.066-1.087-0.198-1.571
	c-0.132-0.483-0.343-0.903-0.634-1.258c-0.291-0.355-0.664-0.632-1.121-0.831c-0.456-0.2-1.054-0.299-1.796-0.299h-1.222v8.082
	h1.259c0.661,0,1.218-0.085,1.672-0.257c0.453-0.172,0.831-0.43,1.134-0.776s0.53-0.776,0.68-1.291
	C-357.352,642.224-357.276,641.624-357.276,640.938z"/>
<path fill="#FFFFFF" d="M-342.995,646.128c0,0.141-0.024,0.267-0.073,0.376c-0.051,0.11-0.116,0.201-0.199,0.276
	c-0.081,0.074-0.18,0.126-0.293,0.16c-0.114,0.034-0.229,0.051-0.345,0.051h-1.028c-0.215,0-0.399-0.021-0.557-0.064
	c-0.155-0.042-0.3-0.121-0.431-0.234c-0.132-0.113-0.259-0.267-0.381-0.459c-0.123-0.193-0.26-0.443-0.412-0.749l-2.958-5.557
	c-0.172-0.33-0.346-0.687-0.523-1.07c-0.178-0.383-0.337-0.754-0.478-1.116h-0.018c0.025,0.441,0.043,0.88,0.055,1.317
	s0.018,0.89,0.018,1.354v6.218c0,0.062-0.017,0.117-0.051,0.166c-0.034,0.049-0.092,0.09-0.175,0.124
	c-0.083,0.034-0.195,0.06-0.335,0.077c-0.141,0.019-0.322,0.028-0.542,0.028c-0.214,0-0.392-0.009-0.533-0.028
	s-0.251-0.044-0.33-0.077c-0.08-0.033-0.135-0.075-0.166-0.124c-0.03-0.049-0.046-0.104-0.046-0.166v-10.681
	c0-0.288,0.084-0.503,0.252-0.648c0.168-0.143,0.375-0.216,0.62-0.216h1.294c0.233,0,0.429,0.02,0.588,0.06
	c0.159,0.04,0.301,0.105,0.427,0.198c0.125,0.092,0.245,0.219,0.354,0.381c0.11,0.163,0.223,0.363,0.339,0.602l2.315,4.344
	c0.133,0.263,0.268,0.523,0.399,0.776s0.259,0.509,0.381,0.763c0.121,0.254,0.24,0.503,0.358,0.748
	c0.116,0.245,0.229,0.49,0.339,0.735h0.009c-0.018-0.429-0.032-0.877-0.041-1.341c-0.009-0.465-0.013-0.909-0.013-1.331v-5.575
	c0-0.061,0.018-0.116,0.054-0.166c0.036-0.049,0.098-0.092,0.184-0.128c0.085-0.037,0.199-0.063,0.339-0.078
	c0.141-0.016,0.322-0.023,0.542-0.023c0.208,0,0.381,0.007,0.523,0.023c0.141,0.016,0.249,0.041,0.327,0.078
	c0.075,0.037,0.13,0.079,0.161,0.128c0.03,0.05,0.045,0.104,0.045,0.166v10.682L-342.995,646.128L-342.995,646.128z"/>
<path fill="#FFFFFF" d="M-333.36,643.408c0,0.626-0.117,1.173-0.349,1.644c-0.233,0.472-0.548,0.866-0.946,1.18
	c-0.398,0.316-0.864,0.552-1.397,0.712c-0.532,0.159-1.102,0.238-1.708,0.238c-0.41,0-0.791-0.034-1.143-0.101
	c-0.352-0.068-0.663-0.148-0.932-0.243c-0.27-0.095-0.495-0.194-0.675-0.299c-0.18-0.104-0.312-0.196-0.391-0.276
	c-0.079-0.079-0.135-0.194-0.17-0.344c-0.033-0.15-0.051-0.366-0.051-0.648c0-0.19,0.006-0.349,0.019-0.477
	c0.012-0.129,0.031-0.233,0.06-0.313c0.027-0.079,0.064-0.136,0.11-0.17c0.046-0.033,0.099-0.051,0.161-0.051
	c0.086,0,0.207,0.051,0.362,0.152c0.156,0.1,0.357,0.213,0.602,0.335c0.245,0.122,0.537,0.234,0.877,0.335
	c0.339,0.101,0.733,0.152,1.18,0.152c0.293,0,0.557-0.035,0.789-0.106c0.232-0.071,0.43-0.17,0.592-0.299
	c0.162-0.128,0.285-0.287,0.372-0.477c0.086-0.19,0.129-0.401,0.129-0.634c0-0.27-0.074-0.5-0.221-0.693
	c-0.147-0.193-0.339-0.365-0.575-0.515c-0.236-0.15-0.503-0.291-0.803-0.422c-0.3-0.132-0.61-0.271-0.927-0.419
	c-0.319-0.147-0.627-0.314-0.927-0.5c-0.3-0.187-0.569-0.41-0.803-0.671c-0.236-0.26-0.427-0.569-0.575-0.924
	c-0.148-0.355-0.221-0.78-0.221-1.277c0-0.569,0.106-1.07,0.317-1.502c0.212-0.432,0.496-0.789,0.854-1.075
	c0.359-0.284,0.781-0.498,1.268-0.638s1.003-0.211,1.547-0.211c0.282,0,0.564,0.021,0.845,0.064
	c0.281,0.043,0.545,0.101,0.789,0.175s0.463,0.156,0.652,0.248c0.19,0.092,0.316,0.168,0.376,0.23
	c0.061,0.061,0.102,0.113,0.124,0.156c0.022,0.043,0.04,0.1,0.055,0.17c0.016,0.071,0.026,0.159,0.031,0.267
	c0.006,0.107,0.01,0.24,0.01,0.4c0,0.178-0.005,0.328-0.015,0.45c-0.009,0.122-0.025,0.224-0.045,0.303
	c-0.022,0.079-0.052,0.138-0.092,0.175c-0.04,0.037-0.094,0.055-0.161,0.055c-0.068,0-0.175-0.042-0.322-0.128
	s-0.328-0.179-0.542-0.281c-0.214-0.1-0.462-0.193-0.743-0.276c-0.282-0.083-0.591-0.124-0.927-0.124
	c-0.263,0-0.493,0.032-0.688,0.097c-0.196,0.064-0.361,0.153-0.491,0.267c-0.132,0.113-0.23,0.25-0.294,0.408
	c-0.064,0.159-0.096,0.328-0.096,0.505c0,0.263,0.072,0.491,0.215,0.685c0.144,0.193,0.337,0.364,0.579,0.514
	c0.242,0.15,0.516,0.291,0.823,0.422c0.306,0.132,0.618,0.271,0.937,0.419c0.318,0.147,0.63,0.314,0.937,0.5
	c0.306,0.187,0.578,0.41,0.818,0.671c0.238,0.26,0.431,0.567,0.578,0.919C-333.434,642.517-333.36,642.931-333.36,643.408z"/>
</svg>
