<?xml version="1.0" encoding="UTF-8" standalone="no"?>
<!-- Generator: Adobe Illustrator 20.1.0, SVG Export Plug-In . SVG Version: 6.00 Build 0)  -->

<svg
   xmlns:dc="http://purl.org/dc/elements/1.1/"
   xmlns:cc="http://creativecommons.org/ns#"
   xmlns:rdf="http://www.w3.org/1999/02/22-rdf-syntax-ns#"
   xmlns:svg="http://www.w3.org/2000/svg"
   xmlns="http://www.w3.org/2000/svg"
   xmlns:sodipodi="http://sodipodi.sourceforge.net/DTD/sodipodi-0.dtd"
   xmlns:inkscape="http://www.inkscape.org/namespaces/inkscape"
   version="1.1"
   id="Layer_1"
   x="0px"
   y="0px"
   width="50"
   height="41.947659"
   viewBox="0 0 50 41.947659"
   enable-background="new 0 0 50 50"
   xml:space="preserve"
   sodipodi:docname="Logo-docker.svg"
   inkscape:version="0.92.3 (2405546, 2018-03-11)"><metadata
   id="metadata621"><rdf:RDF><cc:Work
       rdf:about=""><dc:format>image/svg+xml</dc:format><dc:type
         rdf:resource="http://purl.org/dc/dcmitype/StillImage" /><dc:title></dc:title></cc:Work></rdf:RDF></metadata><defs
   id="defs619" /><sodipodi:namedview
   pagecolor="#ffffff"
   bordercolor="#666666"
   borderopacity="1"
   objecttolerance="10"
   gridtolerance="10"
   guidetolerance="10"
   inkscape:pageopacity="0"
   inkscape:pageshadow="2"
   inkscape:window-width="1920"
   inkscape:window-height="1017"
   id="namedview617"
   showgrid="false"
   fit-margin-top="0"
   fit-margin-left="0"
   fit-margin-right="0"
   fit-margin-bottom="0"
   inkscape:zoom="17"
   inkscape:cx="25"
   inkscape:cy="20.973658"
   inkscape:window-x="1912"
   inkscape:window-y="-8"
   inkscape:window-maximized="1"
   inkscape:current-layer="Layer_1" />
<path
   id="docker_2_"
   d="m 37.02,39.308 c 1.125,-0.964 2.25,-1.929 3.371,-2.897 0.383,-0.331 0.804,-0.674 1.184,-1.021 -0.305,-0.384 -0.815,-0.662 -1.248,-0.827 -0.874,-0.333 -1.736,-0.221 -2.537,0.242 -1.049,0.606 -1.496,1.571 -1.457,2.771 0.015,0.473 0.143,0.928 0.394,1.331 0.088,0.141 0.186,0.274 0.293,0.401 m 1.301,0.914 c 0.551,0.192 1.18,0.165 1.746,0.066 0.289,-0.123 1.029,-0.446 1.302,-0.398 l 0.043,0.007 0.039,0.019 c 0.166,0.081 0.325,0.195 0.41,0.363 0.198,0.397 0.103,0.795 -0.286,1.02 l -0.13,0.075 c -1.437,0.83 -2.966,0.715 -4.399,-0.06 -0.685,-0.37 -1.209,-0.92 -1.596,-1.59 l -0.09,-0.157 c -0.923,-1.598 -0.798,-3.279 0.242,-4.799 0.359,-0.525 0.829,-0.931 1.378,-1.248 l 0.208,-0.12 c 1.354,-0.781 2.804,-0.728 4.195,-0.042 0.747,0.369 1.353,0.919 1.77,1.642 l 0.075,0.13 c 0.303,0.525 -0.09,0.983 -0.495,1.296 -0.47,0.363 -0.945,0.8 -1.397,1.189 -1.006,0.868 -2.01,1.738 -3.015,2.607 z m 10.771,-7.27 h 0.15 c 0.455,0 0.758,0.306 0.758,0.758 0,0.627 -0.6,0.788 -1.119,0.788 -0.681,0 -1.33,0.412 -1.799,0.874 -0.585,0.577 -0.841,1.315 -0.841,2.127 v 3.669 c 0,0.421 -0.262,0.758 -0.698,0.758 h -0.119 c -0.436,0 -0.698,-0.338 -0.698,-0.758 v -3.879 c 0,-1.49 0.725,-2.705 1.934,-3.558 0.721,-0.51 1.548,-0.779 2.432,-0.779 z m -18.887,2.604 c 0.589,-0.589 1.179,-1.178 1.777,-1.757 0.167,-0.162 0.797,-0.846 1.045,-0.846 h 0.271 l 0.031,0.006 c 0.346,0.072 0.605,0.291 0.605,0.662 v 0.15 c 0,0.253 -0.297,0.548 -0.46,0.721 -0.348,0.369 -0.715,0.726 -1.071,1.087 l -1.831,1.858 c 0.788,0.79 1.576,1.581 2.358,2.377 0.216,0.22 0.433,0.441 0.646,0.664 0.075,0.079 0.186,0.178 0.25,0.288 0.068,0.103 0.109,0.219 0.109,0.342 v 0.157 l -0.009,0.036 c -0.085,0.346 -0.305,0.625 -0.688,0.625 h -0.12 c -0.251,0 -0.534,-0.284 -0.706,-0.446 -0.354,-0.334 -0.695,-0.684 -1.042,-1.025 l -1.163,-1.142 v 1.825 c 0,0.42 -0.263,0.758 -0.698,0.758 H 29.39 c -0.435,0 -0.698,-0.338 -0.698,-0.758 V 30.853 c 0,-0.421 0.263,-0.757 0.698,-0.757 h 0.119 c 0.435,0 0.698,0.336 0.698,0.757 v 4.703 z M 25.29,34.53 c -0.229,-0.107 -0.657,-0.143 -0.904,-0.152 -1.266,-0.048 -2.182,0.665 -2.719,1.782 -0.186,0.385 -0.27,0.793 -0.27,1.219 0,1.298 0.681,2.207 1.84,2.761 0.423,0.202 0.97,0.241 1.432,0.241 0.407,0 0.982,-0.249 1.343,-0.421 l 0.063,-0.03 h 0.28 l 0.031,0.006 c 0.345,0.072 0.605,0.29 0.605,0.661 v 0.15 c 0,0.923 -1.686,1.134 -2.33,1.179 -2.27,0.157 -3.968,-1.09 -4.616,-3.255 -0.113,-0.376 -0.163,-0.75 -0.163,-1.141 v -0.3 c 0,-1.643 0.815,-2.945 2.225,-3.782 0.655,-0.389 1.38,-0.585 2.142,-0.585 h 0.3 c 0.808,0 1.552,0.229 2.218,0.685 l 0.055,0.038 0.035,0.057 c 0.072,0.119 0.134,0.257 0.134,0.4 v 0.15 c 0,0.387 -0.289,0.595 -0.639,0.662 l -0.029,0.005 h -0.09 C 26.006,34.859 25.492,34.624 25.29,34.53 Z m -13.817,2.88 c 0,1.152 0.565,1.999 1.538,2.595 0.457,0.28 0.96,0.406 1.494,0.406 1.138,0 1.979,-0.577 2.565,-1.538 0.279,-0.458 0.405,-0.961 0.405,-1.494 0,-1.071 -0.516,-1.889 -1.398,-2.482 -0.483,-0.325 -1.021,-0.488 -1.603,-0.488 -1.269,0 -2.183,0.641 -2.731,1.781 -0.186,0.384 -0.27,0.793 -0.27,1.22 z m 2.851,-4.518 h 0.21 c 1.756,0 3.091,0.852 3.937,2.384 0.338,0.613 0.519,1.282 0.519,1.983 v 0.3 c 0,1.643 -0.81,2.952 -2.226,3.783 -0.656,0.385 -1.38,0.584 -2.14,0.584 h -0.3 c -1.643,0 -2.949,-0.812 -3.782,-2.226 -0.387,-0.656 -0.584,-1.38 -0.584,-2.141 v -0.3 c 0,-1.643 0.815,-2.945 2.225,-3.783 0.655,-0.389 1.38,-0.584 2.141,-0.584 z M 1.55,37.41 c 0,1.187 0.575,2.079 1.615,2.648 0.42,0.23 0.877,0.354 1.357,0.354 1.165,0 2.029,-0.549 2.624,-1.536 0.277,-0.459 0.406,-0.961 0.406,-1.496 0,-1.029 -0.487,-1.831 -1.316,-2.428 -0.503,-0.361 -1.068,-0.543 -1.685,-0.543 -1.269,0 -2.183,0.641 -2.731,1.781 -0.186,0.384 -0.27,0.793 -0.27,1.22 z m 6.002,-3.387 v -3.2 c 0,-0.42 0.263,-0.758 0.698,-0.758 h 0.12 c 0.435,0 0.697,0.338 0.697,0.758 v 6.736 c 0,1.643 -0.812,2.95 -2.226,3.782 -0.656,0.386 -1.38,0.584 -2.14,0.584 H 4.4 c -1.643,0 -2.948,-0.812 -3.782,-2.226 -0.387,-0.656 -0.584,-1.38 -0.584,-2.141 v -0.3 c 0,-1.643 0.812,-2.95 2.225,-3.784 C 2.915,33.087 3.639,32.89 4.4,32.89 h 0.301 c 1.112,0.002 2.055,0.433 2.851,1.133 z"
   inkscape:connector-curvature="0"
   style="clip-rule:evenodd;fill:#394d54;fill-rule:evenodd" />
<path
   id="outline_4_"
   d="m 28.842,8.943 h 4.472 v 4.571 h 2.261 c 1.044,0 2.118,-0.186 3.107,-0.521 0.486,-0.165 1.031,-0.394 1.51,-0.682 -0.631,-0.824 -0.953,-1.865 -1.048,-2.89 -0.129,-1.395 0.153,-3.211 1.097,-4.303 l 0.47,-0.544 0.56,0.45 c 1.41,1.133 2.596,2.716 2.805,4.521 1.698,-0.499 3.692,-0.381 5.188,0.483 l 0.614,0.354 -0.323,0.631 c -1.266,2.47 -3.912,3.236 -6.499,3.1 -3.871,9.643 -12.3,14.208 -22.52,14.208 -5.28,0 -10.124,-1.974 -12.882,-6.658 L 7.609,21.586 7.207,20.768 C 6.275,18.706 5.965,16.447 6.175,14.19 l 0.063,-0.676 h 3.824 V 8.943 h 4.471 V 4.471 h 8.943 V 0 h 5.366 z"
   inkscape:connector-curvature="0"
   style="clip-rule:evenodd;fill:#394d54;fill-rule:evenodd" />
<path
   d="m 43.33,10.634 c 0.3,-2.33 -1.444,-4.16 -2.525,-5.029 -1.246,1.441 -1.44,5.217 0.515,6.807 -1.091,0.969 -3.39,1.848 -5.745,1.848 H 6.917 c -0.229,2.458 0.203,4.721 1.188,6.658 l 0.326,0.596 c 0.206,0.35 0.432,0.688 0.676,1.014 v 0 c 1.178,0.076 2.264,0.102 3.258,0.08 0,0 0,0 10e-4,0 1.953,-0.043 3.547,-0.274 4.754,-0.692 0.18,-0.062 0.376,0.033 0.438,0.212 0.062,0.18 -0.033,0.376 -0.213,0.438 -0.161,0.056 -0.328,0.108 -0.501,0.157 0,0 0,0 -0.001,0 -0.951,0.271 -1.971,0.454 -3.286,0.536 0.078,0.001 -0.081,0.012 -0.082,0.012 -0.045,0.003 -0.101,0.009 -0.146,0.012 -0.518,0.029 -1.077,0.035 -1.648,0.035 -0.625,0 -1.241,-0.012 -1.929,-0.047 l -0.018,0.012 c 2.388,2.684 6.121,4.293 10.801,4.293 9.905,0 18.306,-4.391 22.026,-14.248 2.639,0.271 5.176,-0.402 6.33,-2.655 -1.837,-1.061 -4.2,-0.723 -5.561,-0.039 z"
   id="path580"
   inkscape:connector-curvature="0"
   style="fill:#00aada" />
<path
   d="m 43.33,10.634 c 0.3,-2.33 -1.444,-4.16 -2.525,-5.029 -1.246,1.441 -1.44,5.217 0.515,6.807 -1.091,0.969 -3.39,1.848 -5.745,1.848 H 8.614 c -0.117,3.764 1.28,6.621 3.751,8.348 0,0 0,0 10e-4,0 1.953,-0.043 3.547,-0.274 4.754,-0.692 0.18,-0.062 0.376,0.033 0.438,0.212 0.062,0.18 -0.033,0.376 -0.213,0.438 -0.161,0.056 -0.328,0.108 -0.501,0.157 0,0 0,0 -0.001,0 -0.951,0.271 -2.058,0.478 -3.374,0.559 0,0 -0.032,-0.03 -0.032,-0.03 3.371,1.729 8.258,1.723 13.862,-0.43 6.283,-2.414 12.13,-7.013 16.21,-12.273 -0.062,0.027 -0.122,0.056 -0.179,0.085 z"
   id="path582"
   inkscape:connector-curvature="0"
   style="fill:#24b8eb" />
<path
   d="m 6.971,17.245 c 0.178,1.316 0.563,2.549 1.134,3.672 l 0.326,0.596 c 0.206,0.35 0.432,0.688 0.676,1.014 1.178,0.076 2.265,0.102 3.259,0.08 1.953,-0.043 3.547,-0.274 4.754,-0.692 0.18,-0.062 0.376,0.033 0.438,0.212 0.062,0.18 -0.033,0.376 -0.213,0.438 -0.161,0.056 -0.328,0.108 -0.501,0.157 0,0 0,0 -0.001,0 -0.951,0.271 -2.053,0.466 -3.368,0.547 -0.045,0.003 -0.124,0.003 -0.169,0.006 -0.518,0.029 -1.071,0.047 -1.642,0.047 -0.625,0 -1.264,-0.012 -1.952,-0.047 2.388,2.684 6.145,4.299 10.825,4.299 8.479,0 15.856,-3.219 20.138,-10.33 H 6.971 Z"
   id="path584"
   inkscape:connector-curvature="0"
   style="fill:#008bb8" />
<path
   d="m 8.872,17.245 c 0.507,2.311 1.725,4.126 3.493,5.362 1.953,-0.043 3.547,-0.274 4.754,-0.692 0.18,-0.062 0.376,0.033 0.438,0.212 0.062,0.18 -0.033,0.376 -0.213,0.438 -0.161,0.056 -0.328,0.108 -0.501,0.157 0,0 0,0 -0.001,0 -0.951,0.271 -2.076,0.466 -3.392,0.547 3.37,1.729 8.244,1.704 13.847,-0.448 3.39,-1.302 6.652,-3.241 9.579,-5.576 z"
   id="path586"
   inkscape:connector-curvature="0"
   style="fill:#039bc6" />
<path
   d="m 14.053,10.011 h 0.306 v 3.23 h -0.306 z m -0.587,0 h 0.318 v 3.23 h -0.318 z m -0.587,0 h 0.318 v 3.23 h -0.318 z m -0.588,0 h 0.318 v 3.23 h -0.318 z m -0.587,0 h 0.318 v 3.23 h -0.318 z m -0.575,0 h 0.306 v 3.23 H 11.129 Z M 10.807,9.688 h 3.875 v 3.876 h -3.875 z"
   id="path588"
   inkscape:connector-curvature="0"
   style="clip-rule:evenodd;fill:#00acd3;fill-rule:evenodd" />
<path
   d="m 18.525,5.539 h 0.306 v 3.23 h -0.306 z m -0.587,0 h 0.318 v 3.23 h -0.318 z m -0.588,0 h 0.318 v 3.23 H 17.35 Z m -0.587,0 h 0.318 v 3.23 h -0.318 z m -0.587,0 h 0.318 v 3.23 h -0.318 z m -0.575,0 h 0.306 v 3.23 H 15.601 Z M 15.278,5.216 h 3.876 v 3.875 h -3.876 z"
   id="path590"
   inkscape:connector-curvature="0"
   style="clip-rule:evenodd;fill:#00acd3;fill-rule:evenodd" />
<path
   d="m 18.525,10.011 h 0.306 v 3.23 h -0.306 z m -0.587,0 h 0.318 v 3.23 h -0.318 z m -0.588,0 h 0.318 v 3.23 H 17.35 Z m -0.587,0 h 0.318 v 3.23 h -0.318 z m -0.587,0 h 0.318 v 3.23 h -0.318 z m -0.575,0 h 0.306 v 3.23 H 15.601 Z M 15.278,9.688 h 3.876 v 3.876 h -3.876 z"
   id="path592"
   inkscape:connector-curvature="0"
   style="clip-rule:evenodd;fill:#20c2ef;fill-rule:evenodd" />
<path
   d="m 22.997,10.011 h 0.306 v 3.23 h -0.306 z m -0.588,0 h 0.318 v 3.23 h -0.318 z m -0.587,0 h 0.318 v 3.23 h -0.318 z m -0.587,0 h 0.318 v 3.23 h -0.318 z m -0.587,0 h 0.318 v 3.23 h -0.318 z m -0.575,0 h 0.306 v 3.23 H 20.073 Z M 19.75,9.688 h 3.876 v 3.876 H 19.75 Z"
   id="path594"
   inkscape:connector-curvature="0"
   style="clip-rule:evenodd;fill:#00acd3;fill-rule:evenodd" />
<path
   d="m 22.997,5.539 h 0.306 v 3.23 h -0.306 z m -0.588,0 h 0.318 v 3.23 h -0.318 z m -0.587,0 h 0.318 v 3.23 h -0.318 z m -0.587,0 h 0.318 v 3.23 h -0.318 z m -0.587,0 h 0.318 v 3.23 h -0.318 z m -0.575,0 h 0.306 v 3.23 H 20.073 Z M 19.75,5.216 h 3.876 V 9.091 H 19.75 Z"
   id="path596"
   inkscape:connector-curvature="0"
   style="clip-rule:evenodd;fill:#20c2ef;fill-rule:evenodd" />
<path
   d="m 27.468,10.011 h 0.306 v 3.23 h -0.306 z m -0.587,0 h 0.318 v 3.23 h -0.318 z m -0.587,0 h 0.318 v 3.23 h -0.318 z m -0.587,0 h 0.318 v 3.23 h -0.318 z m -0.588,0 h 0.318 v 3.23 h -0.318 z m -0.575,0 h 0.306 v 3.23 H 24.544 Z M 24.221,9.688 h 3.876 v 3.876 h -3.876 z"
   id="path598"
   inkscape:connector-curvature="0"
   style="clip-rule:evenodd;fill:#20c2ef;fill-rule:evenodd" />
<path
   d="m 27.468,5.539 h 0.306 v 3.23 h -0.306 z m -0.587,0 h 0.318 v 3.23 h -0.318 z m -0.587,0 h 0.318 v 3.23 h -0.318 z m -0.587,0 h 0.318 v 3.23 h -0.318 z m -0.588,0 h 0.318 v 3.23 h -0.318 z m -0.575,0 h 0.306 v 3.23 H 24.544 Z M 24.221,5.216 h 3.876 v 3.875 h -3.876 z"
   id="path600"
   inkscape:connector-curvature="0"
   style="clip-rule:evenodd;fill:#00acd3;fill-rule:evenodd" />
<path
   d="m 27.468,1.068 h 0.306 v 3.23 h -0.306 z m -0.587,0 h 0.318 v 3.23 h -0.318 z m -0.587,0 h 0.318 v 3.23 h -0.318 z m -0.587,0 h 0.318 v 3.23 h -0.318 z m -0.588,0 h 0.318 v 3.23 h -0.318 z m -0.575,0 h 0.306 v 3.23 H 24.544 Z M 24.221,0.745 h 3.876 v 3.876 h -3.876 z"
   id="path602"
   inkscape:connector-curvature="0"
   style="clip-rule:evenodd;fill:#20c2ef;fill-rule:evenodd" />
<path
   d="m 31.94,10.011 h 0.306 v 3.23 H 31.94 Z m -0.587,0 h 0.318 v 3.23 h -0.318 z m -0.588,0 h 0.318 v 3.23 h -0.318 z m -0.587,0 h 0.318 v 3.23 h -0.318 z m -0.587,0 h 0.318 v 3.23 h -0.318 z m -0.575,0 h 0.306 v 3.23 H 29.016 Z M 28.693,9.688 h 3.876 v 3.876 h -3.876 z"
   id="path604"
   inkscape:connector-curvature="0"
   style="clip-rule:evenodd;fill:#00acd3;fill-rule:evenodd" />
<path
   d="m 18.911,19.847 c 0.59,0 1.069,0.479 1.069,1.069 0,0.59 -0.479,1.069 -1.069,1.069 -0.591,0 -1.069,-0.479 -1.069,-1.069 0,-0.59 0.479,-1.069 1.069,-1.069"
   id="path606"
   inkscape:connector-curvature="0"
   style="clip-rule:evenodd;fill:#d4edf1;fill-rule:evenodd" />
<path
   d="m 18.911,20.15 c 0.098,0 0.191,0.018 0.277,0.052 -0.093,0.054 -0.156,0.155 -0.156,0.271 0,0.173 0.14,0.312 0.313,0.312 0.118,0 0.221,-0.066 0.274,-0.163 0.037,0.09 0.058,0.19 0.058,0.294 0,0.423 -0.343,0.766 -0.766,0.766 -0.423,0 -0.766,-0.343 -0.766,-0.766 0,-0.423 0.343,-0.766 0.766,-0.766"
   id="path608"
   inkscape:connector-curvature="0"
   style="clip-rule:evenodd;fill:#394d54;fill-rule:evenodd" />
<path
   d="m 0,17.631 h 23.42 2.897 23.419 c -1.083,-0.275 -3.426,-0.646 -3.04,-2.065 -1.969,2.279 -6.718,1.599 -7.916,0.475 -1.335,1.936 -9.104,1.2 -9.646,-0.308 -1.673,1.964 -6.858,1.964 -8.531,0 -0.542,1.508 -8.311,2.244 -9.646,0.308 C 9.759,17.165 5.01,17.845 3.041,15.566 3.427,16.986 1.083,17.357 0,17.631"
   id="path610"
   inkscape:connector-curvature="0"
   style="clip-rule:evenodd;fill:#394d54;fill-rule:evenodd" />
<path
   d="m 21.753,27.551 c -2.648,-1.256 -4.101,-2.964 -4.91,-4.829 -0.984,0.281 -2.166,0.46 -3.539,0.537 -0.518,0.029 -1.062,0.044 -1.633,0.044 -0.658,0 -1.353,-0.019 -2.081,-0.058 2.428,2.427 5.415,4.295 10.946,4.329 0.408,10e-4 0.814,-0.007 1.217,-0.023 z"
   id="path612"
   inkscape:connector-curvature="0"
   style="fill:#bfdbe0" />
<path
   d="m 17.827,24.443 c -0.366,-0.497 -0.722,-1.122 -0.983,-1.721 -0.984,0.281 -2.166,0.46 -3.54,0.538 0.944,0.512 2.293,0.986 4.523,1.183 z"
   id="path614"
   inkscape:connector-curvature="0"
   style="fill:#d4edf1" />
</svg>