<?xml version="1.0" encoding="UTF-8" standalone="no"?>
<svg
   xmlns:dc="http://purl.org/dc/elements/1.1/"
   xmlns:cc="http://creativecommons.org/ns#"
   xmlns:rdf="http://www.w3.org/1999/02/22-rdf-syntax-ns#"
   xmlns:svg="http://www.w3.org/2000/svg"
   xmlns="http://www.w3.org/2000/svg"
   xmlns:sodipodi="http://sodipodi.sourceforge.net/DTD/sodipodi-0.dtd"
   xmlns:inkscape="http://www.inkscape.org/namespaces/inkscape"
   version="1.1"
   id="Layer_1"
   x="0px"
   y="0px"
   width="37.799999"
   height="50"
   viewBox="0 0 37.799999 50"
   enable-background="new 0 0 50 50"
   xml:space="preserve"
   inkscape:version="0.91 r13725"
   sodipodi:docname="Azure DocumentDB_COLOR.svg"><metadata
     id="metadata23"><rdf:RDF><cc:Work
         rdf:about=""><dc:format>image/svg+xml</dc:format><dc:type
           rdf:resource="http://purl.org/dc/dcmitype/StillImage" /><dc:title></dc:title></cc:Work></rdf:RDF></metadata><defs
     id="defs21" /><sodipodi:namedview
     pagecolor="#ffffff"
     bordercolor="#666666"
     borderopacity="1"
     objecttolerance="10"
     gridtolerance="10"
     guidetolerance="10"
     inkscape:pageopacity="0"
     inkscape:pageshadow="2"
     inkscape:window-width="1920"
     inkscape:window-height="1018"
     id="namedview19"
     showgrid="false"
     fit-margin-top="0"
     fit-margin-left="0"
     fit-margin-right="0"
     fit-margin-bottom="0"
     inkscape:zoom="14.656481"
     inkscape:cx="6.0841321"
     inkscape:cy="23.516266"
     inkscape:window-x="-8"
     inkscape:window-y="-8"
     inkscape:window-maximized="1"
     inkscape:current-layer="Layer_1" /><path
     d="M 0,6.8 0,43.1 C 0,46.9 8.4,49.9 18.9,49.9 L 18.9,6.8 0,6.8 Z"
     id="path3"
     inkscape:connector-curvature="0"
     style="fill:#3999c6" /><path
     d="M 18.6,50 18.9,50 C 29.3,50 37.8,46.9 37.8,43.2 L 37.8,6.8 18.6,6.8 18.6,50 Z"
     id="path5"
     inkscape:connector-curvature="0"
     style="fill:#59b4d9" /><path
     d="M 37.8,6.8 C 37.8,10.6 29.4,13.6 18.9,13.6 8.4,13.6 0,10.6 0,6.8 0,3.1 8.5,0 18.9,0 29.3,0 37.8,3.1 37.8,6.8"
     id="path7"
     inkscape:connector-curvature="0"
     style="fill:#ffffff" /><path
     d="M 33.9,6.4 C 33.9,8.9 27.2,10.9 18.9,10.9 10.6,10.9 3.9,8.9 3.9,6.4 3.9,3.9 10.6,1.9 18.9,1.9 27.2,1.9 33.9,3.9 33.9,6.4"
     id="path9"
     inkscape:connector-curvature="0"
     style="fill:#7fba00" /><path
     d="M 30.8,9.2 C 32.8,8.4 33.9,7.5 33.9,6.4 33.9,3.9 27.2,1.9 18.9,1.9 10.6,1.9 3.9,3.9 3.9,6.4 3.9,7.4 5.1,8.4 7,9.2 9.7,8.1 14,7.4 18.9,7.4 23.7,7.4 28,8.1 30.8,9.2"
     id="path11"
     inkscape:connector-curvature="0"
     style="fill:#b8d432" /><g
     id="g13"
     transform="translate(-6.1,0)"><path
       d="M 19.6,41.8 C 18.1,41.8 16.9,41.6 16.1,41.3 15.2,41 14.6,40.5 14.2,39.9 13.8,39.2 13.6,38.2 13.6,36.9 L 13.6,34.7 C 13.6,33.3 13,32.5 11.8,32.5 L 11.8,29.8 C 13,29.8 13.6,29.1 13.6,27.6 L 13.6,25.6 C 13.6,24.2 13.8,23.1 14.2,22.5 14.6,21.8 15.2,21.4 16,21 16.9,20.7 18,20.5 19.5,20.5 L 19.5,23.2 C 18.8,23.2 18.4,23.3 18,23.6 17.7,23.9 17.5,24.4 17.5,25.1 L 17.5,26.8 C 17.5,27.9 17.4,28.8 17.1,29.5 16.8,30.2 16.3,30.7 15.6,31 L 15.6,31 C 16.3,31.3 16.8,31.8 17.1,32.6 17.4,33.3 17.6,34.3 17.6,35.4 L 17.6,36.9 C 17.6,37.6 17.7,38.1 18,38.4 18.3,38.7 18.8,38.9 19.5,38.9 L 19.5,41.8 Z"
       id="path15"
       inkscape:connector-curvature="0"
       style="fill:#ffffff" /><path
       d="M 36.6,32.5 C 35.4,32.5 34.8,33.2 34.8,34.7 L 34.8,36.7 C 34.8,38.1 34.6,39.2 34.2,39.8 33.8,40.5 33.2,40.9 32.4,41.3 31.5,41.6 30.4,41.8 28.9,41.8 L 28.9,39.1 C 29.6,39.1 30.1,39 30.4,38.7 30.7,38.4 30.9,37.9 30.9,37.2 L 30.9,35.5 C 30.9,34.4 31,33.5 31.3,32.8 31.6,32.1 32.1,31.6 32.8,31.3 L 32.8,31.3 C 32.1,31 31.6,30.4 31.3,29.7 31,29 30.8,28 30.8,26.9 L 30.8,25.4 C 30.8,24.7 30.7,24.2 30.4,23.9 30.1,23.6 29.6,23.4 28.9,23.4 L 28.9,20.7 C 30.4,20.7 31.6,20.9 32.4,21.2 33.3,21.5 33.9,22 34.3,22.6 34.7,23.3 34.9,24.3 34.9,25.6 L 34.9,27.8 C 34.9,29.2 35.5,30 36.7,30 L 36.7,32.5 Z"
       id="path17"
       inkscape:connector-curvature="0"
       style="fill:#ffffff" /></g></svg>