<?xml version="1.0" encoding="UTF-8" standalone="no"?>
<!-- Generator: Adobe Illustrator 17.0.1, SVG Export Plug-In . SVG Version: 6.00 Build 0)  -->

<svg
   xmlns:dc="http://purl.org/dc/elements/1.1/"
   xmlns:cc="http://creativecommons.org/ns#"
   xmlns:rdf="http://www.w3.org/1999/02/22-rdf-syntax-ns#"
   xmlns:svg="http://www.w3.org/2000/svg"
   xmlns="http://www.w3.org/2000/svg"
   xmlns:sodipodi="http://sodipodi.sourceforge.net/DTD/sodipodi-0.dtd"
   xmlns:inkscape="http://www.inkscape.org/namespaces/inkscape"
   version="1.1"
   id="Layer_1"
   x="0px"
   y="0px"
   width="50.000999"
   height="46.148998"
   viewBox="0 0 50.000999 46.148998"
   enable-background="new 0 0 50 50"
   xml:space="preserve"
   sodipodi:docname="Download.svg"
   inkscape:version="0.92.3 (2405546, 2018-03-11)"><metadata
   id="metadata4601"><rdf:RDF><cc:Work
       rdf:about=""><dc:format>image/svg+xml</dc:format><dc:type
         rdf:resource="http://purl.org/dc/dcmitype/StillImage" /><dc:title></dc:title></cc:Work></rdf:RDF></metadata><defs
   id="defs4599" /><sodipodi:namedview
   pagecolor="#ffffff"
   bordercolor="#666666"
   borderopacity="1"
   objecttolerance="10"
   gridtolerance="10"
   guidetolerance="10"
   inkscape:pageopacity="0"
   inkscape:pageshadow="2"
   inkscape:window-width="1920"
   inkscape:window-height="1017"
   id="namedview4597"
   showgrid="false"
   fit-margin-top="0"
   fit-margin-left="0"
   fit-margin-right="0"
   fit-margin-bottom="0"
   inkscape:zoom="12.020815"
   inkscape:cx="19.469031"
   inkscape:cy="18.519554"
   inkscape:window-x="1912"
   inkscape:window-y="-8"
   inkscape:window-maximized="1"
   inkscape:current-layer="Layer_1" />
<path
   d="M 32.426,36.534 H 31.235 19.445 18.83 c 1.634,5.768 -0.561,6.595 -10.175,6.595 v 3.02 h 12.227 8.927 11.538 v -3.02 c -9.614,0 -10.557,-0.824 -8.921,-6.595"
   id="path4580"
   inkscape:connector-curvature="0"
   style="fill:#7a7a7a" />
<path
   d="M 46.98,0 H 2.718 C 1.214,0 0.001,1.345 0.001,2.847 v 30.866 c 0,1.493 1.213,2.823 2.717,2.823 H 46.98 c 1.501,0 3.021,-1.33 3.021,-2.823 V 2.847 C 50.001,1.341 48.481,0 46.98,0"
   id="path4582"
   inkscape:connector-curvature="0"
   style="fill:#a0a1a2" />
<path
   enable-background="new    "
   d="M 47.011,0.003 C 47,0.003 46.99,10e-4 46.98,10e-4 H 2.717 C 1.213,10e-4 0,1.345 0,2.848 v 30.865 c 0,1.494 1.213,2.824 2.717,2.824 H 3.77 Z"
   id="path4584"
   inkscape:connector-curvature="0"
   style="opacity:0.2;fill:#ffffff" />
<polygon
   points="3.79,34.689 3.79,5.848 46.212,5.786 46.212,5.848 46.212,34.689 "
   id="polygon4586"
   style="fill:#59b4d9"
   transform="translate(0,-2)" />
<polygon
   points="33.333,17.58 25.003,26.331 16.666,17.611 16.666,14.069 23.532,20.575 23.532,6.977 26.43,6.977 26.43,20.575 33.333,14.027 "
   id="polygon4588"
   style="fill:#ffffff"
   transform="translate(0,-2)" />
<rect
   x="17.778"
   y="27.18"
   width="14.445"
   height="3.3329999"
   id="rect4590"
   style="fill:#ffffff" />
<rect
   x="8.6549997"
   y="43.127998"
   width="32.692001"
   height="3.0209999"
   id="rect4592"
   style="fill:#a0a1a2" />
<path
   d="m 25.518,2.095 c 0,0.392 -0.318,0.71 -0.71,0.71 -0.393,0 -0.709,-0.318 -0.709,-0.71 0,-0.393 0.316,-0.71 0.709,-0.71 0.392,0 0.71,0.317 0.71,0.71"
   id="path4594"
   inkscape:connector-curvature="0"
   style="fill:#b8d432" />
</svg>