<?xml version="1.0" encoding="utf-8"?>
<svg version="1.1" id="Layer_1" xmlns="http://www.w3.org/2000/svg" xmlns:xlink="http://www.w3.org/1999/xlink" x="0px" y="0px"
	 width="50px" height="50px" viewBox="0 0 50 50" style="enable-background:new 0 0 50 50;" xml:space="preserve">
<style type="text/css">
	.st0{fill:#0072C6;}
	.st1{opacity:0.2;fill:#FFFFFF;enable-background:new    ;}
	.st2{fill:#7FBA00;}
	.st3{fill:#B8D432;}
	.st4{fill:#FFFFFF;}
</style>
<path class="st0" d="M25,50c-1.2,0-2.4-0.5-3.3-1.4L1.4,28.3C0.5,27.4,0,26.2,0,25c0-1.2,0.5-2.4,1.4-3.3L21.7,1.4
	C22.6,0.5,23.8,0,25,0c1.2,0,2.4,0.5,3.3,1.4l20.4,20.4c0.9,0.9,1.4,2,1.4,3.3s-0.5,2.4-1.4,3.3L28.3,48.6C27.4,49.5,26.2,50,25,50"
	/>
<path class="st1" d="M33.5,6.6l-5.2-5.2C27.4,0.5,26.2,0,25,0c-1.2,0-2.4,0.5-3.3,1.4L1.4,21.7C0.5,22.6,0,23.8,0,25
	c0,1.2,0.5,2.4,1.4,3.3l8.3,8.3L33.5,6.6z"/>
<path class="st2" d="M12,20.4L12,20.4H7v9.7c0,1,2.2,1.8,4.9,1.8v0H12c0,0,0,0,0,0l0,0l0,0c2.8,0,5-0.8,5-1.8v-9.7H12z"/>
<path class="st3" d="M12,20.4v11.5c2.8,0,5-0.8,5-1.8v-9.7H12z"/>
<path class="st4" d="M17,20.4c0,1.3-2.2,2.3-5,2.3s-5-1-5-2.3c0-1.3,2.2-2.3,5-2.3S17,19.1,17,20.4"/>
<path class="st2" d="M15.7,20.4c0,0.7-1.6,1.3-3.7,1.3s-3.7-0.6-3.7-1.3s1.6-1.3,3.7-1.3S15.7,19.7,15.7,20.4"/>
<path class="st2" d="M38,20.4L38,20.4h-5v9.7c0,1,2.2,1.8,4.9,1.8v0H38c0,0,0,0,0,0l0,0l0,0c2.8,0,5-0.8,5-1.8v-9.7H38z"/>
<path class="st3" d="M38,20.4v11.5c2.8,0,5-0.8,5-1.8v-9.7H38z"/>
<path class="st4" d="M43,20.4c0,1.3-2.2,2.3-5,2.3s-5-1-5-2.3c0-1.3,2.2-2.3,5-2.3S43,19.1,43,20.4"/>
<path class="st2" d="M41.7,20.4c0,0.7-1.6,1.3-3.7,1.3s-3.7-0.6-3.7-1.3s1.6-1.3,3.7-1.3S41.7,19.7,41.7,20.4"/>
<path class="st2" d="M25,7.4L25,7.4h-5v9.7c0,1,2.2,1.8,4.9,1.8v0H25c0,0,0,0,0,0l0,0l0,0c2.8,0,5-0.8,5-1.8V7.4H25z"/>
<path class="st3" d="M25,7.4v11.5c2.8,0,5-0.8,5-1.8V7.4H25z"/>
<path class="st4" d="M30,7.4c0,1.3-2.2,2.3-5,2.3s-5-1-5-2.3s2.2-2.3,5-2.3S30,6.1,30,7.4"/>
<path class="st2" d="M28.7,7.4c0,0.7-1.6,1.3-3.7,1.3s-3.7-0.6-3.7-1.3S23,6.1,25,6.1S28.7,6.7,28.7,7.4"/>
<path class="st2" d="M25,33.4L25,33.4h-5v9.7c0,1,2.2,1.8,4.9,1.8v0H25c0,0,0,0,0,0l0,0l0,0c2.8,0,5-0.8,5-1.8v-9.7H25z"/>
<path class="st3" d="M25,33.4v11.5c2.8,0,5-0.8,5-1.8v-9.7H25z"/>
<path class="st4" d="M30,33.4c0,1.3-2.2,2.3-5,2.3s-5-1-5-2.3c0-1.3,2.2-2.3,5-2.3S30,32.1,30,33.4"/>
<path class="st2" d="M28.7,33.4c0,0.7-1.6,1.3-3.7,1.3s-3.7-0.6-3.7-1.3s1.6-1.3,3.7-1.3S28.7,32.7,28.7,33.4"/>
</svg>
