<?xml version="1.0" encoding="utf-8"?>
<svg version="1.1" id="Layer_1" xmlns="http://www.w3.org/2000/svg" xmlns:xlink="http://www.w3.org/1999/xlink" x="0px" y="0px"
	 width="50px" height="50px" viewBox="0 0 50 50" enable-background="new 0 0 50 50" xml:space="preserve">
<polygon fill="#0072C6" points="39,22 39,20 24.004,20 23.996,19.996 16.991,27 11.82,27 23.82,15 32,15 32,13 23,13 23,13.005 
	22.992,13 8.991,27 7,27 7,29 13,29 20,35.999 20,35.999 20,36 37,36 37,34 20.828,34 15.829,29 28,29 28,27 19.82,27 24.82,22 "/>
<circle fill="#59B4D9" cx="30" cy="28" r="2.9"/>
<ellipse transform="matrix(0.7071 -0.7071 0.7071 0.7071 -0.2338 27.4349)" fill="#59B4D9" cx="33" cy="14" rx="2.9" ry="2.9"/>
<ellipse transform="matrix(0.7071 -0.7071 0.7071 0.7071 -3.1333 34.4349)" fill="#B8D432" cx="40" cy="21" rx="2.9" ry="2.9"/>
<ellipse transform="matrix(0.7071 -0.7071 0.7071 0.7071 -13.9114 36.4141)" fill="#B8D432" cx="37" cy="35" rx="2.9" ry="2.9"/>
<path fill="#0072C6" d="M0.801,0C0.3,0,0,0.3,0,0.8v10c0,0.5,0.3,0.8,0.801,0.8h5.008c0.501,0,0.801-0.3,0.801-0.8V6.7H43.37v4.2
	c0,0.5,0.3,0.8,1.002,0.8h4.808c0.501,0,0.801-0.3,0.801-0.8v-5v-5c0.1-0.6-0.2-0.9-0.701-0.9l0,0H0.801z"/>
<path fill="#0072C6" d="M49.2,50c0.5,0,0.8-0.3,0.8-0.8v-9.8c0-0.5-0.3-0.8-0.8-0.8h-4.8c-0.5,0-0.8,0.3-0.8,0.8v4H6.7v-4.2
	c0-0.5-0.3-0.8-1-0.8H0.8c-0.5,0-0.8,0.3-0.8,1v9.8C0,49.7,0.3,50,0.8,50H49.2z"/>
</svg>
