<?xml version="1.0" encoding="UTF-8" standalone="no"?>
<svg
   xmlns:dc="http://purl.org/dc/elements/1.1/"
   xmlns:cc="http://creativecommons.org/ns#"
   xmlns:rdf="http://www.w3.org/1999/02/22-rdf-syntax-ns#"
   xmlns:svg="http://www.w3.org/2000/svg"
   xmlns="http://www.w3.org/2000/svg"
   xmlns:sodipodi="http://sodipodi.sourceforge.net/DTD/sodipodi-0.dtd"
   xmlns:inkscape="http://www.inkscape.org/namespaces/inkscape"
   version="1.1"
   id="Layer_1"
   x="0px"
   y="0px"
   width="50"
   height="30.6"
   viewBox="0 0 50 30.6"
   enable-background="new 0 0 50 50"
   xml:space="preserve"
   inkscape:version="0.91 r13725"
   sodipodi:docname="Azure Express Route_COLOR.svg"><metadata
     id="metadata19"><rdf:RDF><cc:Work
         rdf:about=""><dc:format>image/svg+xml</dc:format><dc:type
           rdf:resource="http://purl.org/dc/dcmitype/StillImage" /><dc:title></dc:title></cc:Work></rdf:RDF></metadata><defs
     id="defs17" /><sodipodi:namedview
     pagecolor="#ffffff"
     bordercolor="#666666"
     borderopacity="1"
     objecttolerance="10"
     gridtolerance="10"
     guidetolerance="10"
     inkscape:pageopacity="0"
     inkscape:pageshadow="2"
     inkscape:window-width="1920"
     inkscape:window-height="1018"
     id="namedview15"
     showgrid="false"
     fit-margin-top="0"
     fit-margin-left="0"
     fit-margin-right="0"
     fit-margin-bottom="0"
     inkscape:zoom="10.363697"
     inkscape:cx="25.45505"
     inkscape:cy="8.2232427"
     inkscape:window-x="-8"
     inkscape:window-y="-8"
     inkscape:window-maximized="1"
     inkscape:current-layer="Layer_1" /><rect
     x="9.8000002"
     y="23.099998"
     width="31"
     height="3.8"
     id="rect3"
     style="fill:#68217a" /><rect
     x="-11.053578"
     y="19.708536"
     transform="matrix(0.70710678,-0.70710678,0.70710678,0.70710678,0,0)"
     width="21.199797"
     height="3.7999635"
     id="rect5"
     style="fill:#68217a" /><rect
     x="25.289461"
     y="-15.693048"
     transform="matrix(0.70710678,0.70710678,-0.70710678,0.70710678,0,0)"
     width="21.199797"
     height="3.7999635"
     id="rect7"
     style="fill:#68217a" /><path
     d="M 25,0 C 21.9,0 19.4,2.5 19.4,5.6 19.4,8.7 21.9,11.2 25,11.2 28.1,11.2 30.6,8.7 30.6,5.6 30.6,2.5 28.1,0 25,0 Z M 25,7.4 C 24,7.4 23.2,6.6 23.2,5.6 23.2,4.6 24,3.8 25,3.8 26,3.8 26.8,4.6 26.8,5.6 26.8,6.6 26,7.4 25,7.4 Z"
     id="path9"
     inkscape:connector-curvature="0"
     style="fill:#7fba00" /><path
     d="M 5.6,19.4 C 2.5,19.4 0,21.9 0,25 0,28.1 2.5,30.6 5.6,30.6 8.7,30.6 11.2,28.1 11.2,25 11.2,21.9 8.7,19.4 5.6,19.4 Z M 5.6,26.8 C 4.6,26.8 3.8,26 3.8,25 3.8,24 4.6,23.2 5.6,23.2 6.6,23.2 7.4,24 7.4,25 7.4,26 6.6,26.8 5.6,26.8 Z"
     id="path11"
     inkscape:connector-curvature="0"
     style="fill:#7fba00" /><path
     d="M 44.4,19.4 C 41.3,19.4 38.8,21.9 38.8,25 38.8,28.1 41.3,30.6 44.4,30.6 47.5,30.6 50,28.1 50,25 50,21.9 47.5,19.4 44.4,19.4 Z M 44.4,26.8 C 43.4,26.8 42.6,26 42.6,25 42.6,24 43.4,23.2 44.4,23.2 45.4,23.2 46.2,24 46.2,25 46.2,26 45.4,26.8 44.4,26.8 Z"
     id="path13"
     inkscape:connector-curvature="0"
     style="fill:#7fba00" /></svg>