<?xml version="1.0" encoding="UTF-8" standalone="no"?>
<!-- Generator: Adobe Illustrator 17.1.0, SVG Export Plug-In . SVG Version: 6.00 Build 0)  -->

<svg
   xmlns:dc="http://purl.org/dc/elements/1.1/"
   xmlns:cc="http://creativecommons.org/ns#"
   xmlns:rdf="http://www.w3.org/1999/02/22-rdf-syntax-ns#"
   xmlns:svg="http://www.w3.org/2000/svg"
   xmlns="http://www.w3.org/2000/svg"
   xmlns:sodipodi="http://sodipodi.sourceforge.net/DTD/sodipodi-0.dtd"
   xmlns:inkscape="http://www.inkscape.org/namespaces/inkscape"
   version="1.1"
   id="Layer_1"
   x="0px"
   y="0px"
   height="50"
   width="48"
   viewBox="0 0 48 50"
   enable-background="new 0 0 50 50"
   xml:space="preserve"
   sodipodi:docname="Files.svg"
   inkscape:version="0.92.3 (2405546, 2018-03-11)"><metadata
   id="metadata1056"><rdf:RDF><cc:Work
       rdf:about=""><dc:format>image/svg+xml</dc:format><dc:type
         rdf:resource="http://purl.org/dc/dcmitype/StillImage" /><dc:title></dc:title></cc:Work></rdf:RDF></metadata><defs
   id="defs1054" /><sodipodi:namedview
   pagecolor="#ffffff"
   bordercolor="#666666"
   borderopacity="1"
   objecttolerance="10"
   gridtolerance="10"
   guidetolerance="10"
   inkscape:pageopacity="0"
   inkscape:pageshadow="2"
   inkscape:window-width="1920"
   inkscape:window-height="1017"
   id="namedview1052"
   showgrid="false"
   fit-margin-top="0"
   fit-margin-left="0"
   fit-margin-right="0"
   fit-margin-bottom="0"
   inkscape:zoom="6.0104076"
   inkscape:cx="32.384959"
   inkscape:cy="29.362397"
   inkscape:window-x="1912"
   inkscape:window-y="-8"
   inkscape:window-maximized="1"
   inkscape:current-layer="Layer_1" />
<polygon
   points="41.8,12 41.6,12 13,12 13,50 49,50 49,19.4 49,19.2 47.4,17.5 43.5,13.6 "
   id="polygon1029"
   style="fill:#59b4d9"
   transform="translate(-1)" />
<polygon
   points="15,48 47,48 47,20 41,20 41,14 15,14 "
   id="polygon1031"
   style="opacity:0.8;fill:#ffffff"
   transform="translate(-1)" />
<path
   d="m 19,39.1 c 0,-0.5 0.4,-0.9 0.9,-0.9 h 12.4 c 0.5,0 0.9,0.4 0.9,0.9 0,0.5 -0.4,0.9 -0.9,0.9 H 19.9 C 19.4,40 19,39.6 19,39.1"
   id="path1033"
   inkscape:connector-curvature="0"
   style="fill:#59b4d9" />
<path
   d="M 19,32.9 C 19,32.4 19.4,32 19.9,32 h 20.5 c 0.5,0 0.9,0.4 0.9,0.9 0,0.5 -0.4,0.9 -0.9,0.9 H 19.9 C 19.4,33.8 19,33.4 19,32.9"
   id="path1035"
   inkscape:connector-curvature="0"
   style="fill:#59b4d9" />
<path
   d="m 19,27.1 c 0,-0.5 0.4,-0.9 0.9,-0.9 h 20.5 c 0.5,0 0.9,0.4 0.9,0.9 0,0.5 -0.4,0.9 -0.9,0.9 H 19.9 C 19.4,28 19,27.6 19,27.1"
   id="path1037"
   inkscape:connector-curvature="0"
   style="fill:#59b4d9" />
<rect
   x="2"
   width="29"
   height="6"
   id="rect1039"
   y="0"
   style="fill:#59b4d9" />
<rect
   x="0"
   width="6"
   height="40"
   id="rect1041"
   y="0"
   style="fill:#59b4d9" />
<polygon
   points="3,38 7,38 7,6 30,6 30,2 5,2 3,2 "
   id="polygon1043"
   style="opacity:0.8;fill:#ffffff"
   transform="translate(-1)" />
<rect
   x="8"
   y="6"
   width="29"
   height="6"
   id="rect1045"
   style="fill:#59b4d9" />
<rect
   x="6"
   y="6"
   width="6"
   height="38"
   id="rect1047"
   style="fill:#59b4d9" />
<polygon
   points="9,42 13,42 13,12 36,12 36,8 11,8 9,8 "
   id="polygon1049"
   style="opacity:0.8;fill:#ffffff"
   transform="translate(-1)" />
</svg>