<?xml version="1.0" encoding="UTF-8" standalone="no"?>
<!-- Generator: Adobe Illustrator 17.1.0, SVG Export Plug-In . SVG Version: 6.00 Build 0)  -->

<svg
   xmlns:dc="http://purl.org/dc/elements/1.1/"
   xmlns:cc="http://creativecommons.org/ns#"
   xmlns:rdf="http://www.w3.org/1999/02/22-rdf-syntax-ns#"
   xmlns:svg="http://www.w3.org/2000/svg"
   xmlns="http://www.w3.org/2000/svg"
   xmlns:sodipodi="http://sodipodi.sourceforge.net/DTD/sodipodi-0.dtd"
   xmlns:inkscape="http://www.inkscape.org/namespaces/inkscape"
   version="1.1"
   id="Layer_1"
   x="0px"
   y="0px"
   height="50"
   width="44"
   viewBox="0 0 44 50"
   enable-background="new 0 0 50 50"
   xml:space="preserve"
   sodipodi:docname="File.svg"
   inkscape:version="0.92.3 (2405546, 2018-03-11)"><metadata
   id="metadata959"><rdf:RDF><cc:Work
       rdf:about=""><dc:format>image/svg+xml</dc:format><dc:type
         rdf:resource="http://purl.org/dc/dcmitype/StillImage" /><dc:title></dc:title></cc:Work></rdf:RDF></metadata><defs
   id="defs957" /><sodipodi:namedview
   pagecolor="#ffffff"
   bordercolor="#666666"
   borderopacity="1"
   objecttolerance="10"
   gridtolerance="10"
   guidetolerance="10"
   inkscape:pageopacity="0"
   inkscape:pageshadow="2"
   inkscape:window-width="1920"
   inkscape:window-height="1017"
   id="namedview955"
   showgrid="false"
   fit-margin-top="0"
   fit-margin-left="0"
   fit-margin-right="0"
   fit-margin-bottom="0"
   inkscape:zoom="8.5"
   inkscape:cx="30.42569"
   inkscape:cy="14.542692"
   inkscape:window-x="1912"
   inkscape:window-y="-8"
   inkscape:window-maximized="1"
   inkscape:current-layer="Layer_1" />
<polygon
   points="38.2,0 38,0 3,0 3,50 47,50 47,9 47,8.8 45,6.8 40.2,2 "
   id="polygon942"
   style="fill:#59b4d9"
   transform="translate(-3)" />
<polygon
   points="5,48 45,48 45,9 38,9 38,2 5,2 "
   id="polygon944"
   style="opacity:0.8;fill:#ffffff"
   transform="translate(-3)" />
<path
   d="m 25.8,39.2 c 0,0.6 -0.5,1.1 -1.1,1.1 H 9.6 C 9,40.3 8.5,39.8 8.5,39.2 8.5,38.6 9,38.1 9.6,38.1 h 15.1 c 0.6,0 1.1,0.5 1.1,1.1"
   id="path946"
   inkscape:connector-curvature="0"
   style="fill:#59b4d9" />
<path
   d="m 35.9,24.2 c 0,0.6 -0.5,1.1 -1.1,1.1 H 9.6 C 9,25.3 8.5,24.8 8.5,24.2 8.5,23.6 9,23.1 9.6,23.1 h 25.1 c 0.7,0 1.2,0.5 1.2,1.1"
   id="path948"
   inkscape:connector-curvature="0"
   style="fill:#59b4d9" />
<path
   d="m 35.9,31.7 c 0,0.6 -0.5,1.1 -1.1,1.1 H 9.6 C 9,32.8 8.5,32.3 8.5,31.7 8.5,31.1 9,30.6 9.6,30.6 h 25.1 c 0.7,0 1.2,0.5 1.2,1.1"
   id="path950"
   inkscape:connector-curvature="0"
   style="fill:#59b4d9" />
<path
   d="m 35.9,16.7 c 0,0.6 -0.5,1.1 -1.1,1.1 H 9.6 C 9,17.8 8.5,17.3 8.5,16.7 8.5,16.1 9,15.6 9.6,15.6 h 25.1 c 0.7,0 1.2,0.5 1.2,1.1"
   id="path952"
   inkscape:connector-curvature="0"
   style="fill:#59b4d9" />
</svg>