<?xml version="1.0" encoding="UTF-8" standalone="no"?>
<!-- Generator: Adobe Illustrator 17.0.1, SVG Export Plug-In . SVG Version: 6.00 Build 0)  -->

<svg
   xmlns:dc="http://purl.org/dc/elements/1.1/"
   xmlns:cc="http://creativecommons.org/ns#"
   xmlns:rdf="http://www.w3.org/1999/02/22-rdf-syntax-ns#"
   xmlns:svg="http://www.w3.org/2000/svg"
   xmlns="http://www.w3.org/2000/svg"
   xmlns:sodipodi="http://sodipodi.sourceforge.net/DTD/sodipodi-0.dtd"
   xmlns:inkscape="http://www.inkscape.org/namespaces/inkscape"
   version="1.1"
   id="Layer_1"
   x="0px"
   y="0px"
   width="49.999001"
   height="46.080002"
   viewBox="0 0 49.999001 46.080002"
   enable-background="new 0 0 50 50"
   xml:space="preserve"
   sodipodi:docname="FolderCube.svg"
   inkscape:version="0.92.3 (2405546, 2018-03-11)"><metadata
   id="metadata1327"><rdf:RDF><cc:Work
       rdf:about=""><dc:format>image/svg+xml</dc:format><dc:type
         rdf:resource="http://purl.org/dc/dcmitype/StillImage" /><dc:title></dc:title></cc:Work></rdf:RDF></metadata><defs
   id="defs1325" /><sodipodi:namedview
   pagecolor="#ffffff"
   bordercolor="#666666"
   borderopacity="1"
   objecttolerance="10"
   gridtolerance="10"
   guidetolerance="10"
   inkscape:pageopacity="0"
   inkscape:pageshadow="2"
   inkscape:window-width="1920"
   inkscape:window-height="1017"
   id="namedview1323"
   showgrid="false"
   fit-margin-top="0"
   fit-margin-left="0"
   fit-margin-right="0"
   fit-margin-bottom="0"
   inkscape:zoom="12.020815"
   inkscape:cx="22.860814"
   inkscape:cy="22.352006"
   inkscape:window-x="1912"
   inkscape:window-y="-8"
   inkscape:window-maximized="1"
   inkscape:current-layer="Layer_1" />
<path
   d="M 48.065,9.912 V 5.935 H 21.897 L 15.963,0 H 0 v 43.708 c 0,1.31 1.06,2.371 2.37,2.372 v 0 h 45.258 c 1.309,0 2.371,-1.062 2.371,-2.372 V 9.912 Z"
   id="path1312"
   inkscape:connector-curvature="0"
   style="fill:#fee087" />
<path
   d="m 26.176,25.945 c -0.052,0 -0.105,-0.016 -0.155,-0.044 L 15.846,20.028 c -0.093,-0.055 -0.152,-0.158 -0.152,-0.267 0,-0.11 0.059,-0.212 0.152,-0.266 L 25.958,13.66 c 0.097,-0.053 0.213,-0.053 0.306,0 l 10.178,5.876 c 0.094,0.054 0.152,0.155 0.152,0.265 0,0.112 -0.058,0.212 -0.152,0.267 l -10.111,5.833 c -0.048,0.028 -0.099,0.044 -0.155,0.044"
   id="path1314"
   inkscape:connector-curvature="0"
   style="fill:#dd5900" />
<path
   d="m 24.714,40.221 c -0.056,0 -0.11,-0.013 -0.155,-0.041 L 14.415,34.325 C 14.316,34.269 14.259,34.17 14.259,34.058 V 22.309 c 0,-0.11 0.057,-0.211 0.156,-0.269 0.093,-0.053 0.208,-0.053 0.31,0 l 10.143,5.855 c 0.09,0.057 0.15,0.158 0.15,0.268 v 11.75 c 0,0.113 -0.06,0.211 -0.15,0.267 -0.051,0.028 -0.103,0.041 -0.154,0.041"
   id="path1316"
   inkscape:connector-curvature="0"
   style="fill:#ff8c00" />
<path
   enable-background="new    "
   d="m 27.585,40.221 c -0.055,0 -0.107,-0.013 -0.157,-0.041 -0.093,-0.056 -0.152,-0.154 -0.152,-0.267 V 28.239 c 0,-0.11 0.059,-0.211 0.152,-0.268 l 10.141,-5.853 c 0.097,-0.054 0.212,-0.054 0.306,0 0.097,0.055 0.156,0.157 0.156,0.266 v 11.674 c 0,0.112 -0.059,0.211 -0.156,0.267 l -10.14,5.855 c -0.042,0.028 -0.097,0.041 -0.15,0.041"
   id="path1318"
   inkscape:connector-curvature="0"
   style="opacity:0.5;fill:#ff8c00" />
<path
   enable-background="new    "
   d="m 4.742,9.912 v 33.796 c 0,1.31 -1.062,2.372 -2.371,2.372 C 1.06,46.08 0,45.018 0,43.708 V 0 h 15.963 l 5.934,5.935 h 26.168 v 3.977 z"
   id="path1320"
   inkscape:connector-curvature="0"
   style="opacity:0.2;fill:#1e1e1e" />
</svg>