<?xml version="1.0" encoding="UTF-8" standalone="no"?>
<!-- Generator: Adobe Illustrator 17.0.1, SVG Export Plug-In . SVG Version: 6.00 Build 0)  -->

<svg
   xmlns:dc="http://purl.org/dc/elements/1.1/"
   xmlns:cc="http://creativecommons.org/ns#"
   xmlns:rdf="http://www.w3.org/1999/02/22-rdf-syntax-ns#"
   xmlns:svg="http://www.w3.org/2000/svg"
   xmlns="http://www.w3.org/2000/svg"
   xmlns:sodipodi="http://sodipodi.sourceforge.net/DTD/sodipodi-0.dtd"
   xmlns:inkscape="http://www.inkscape.org/namespaces/inkscape"
   version="1.1"
   id="Layer_1"
   x="0px"
   y="0px"
   width="50"
   height="46.080002"
   viewBox="0 0 50 46.080002"
   enable-background="new 0 0 50 50"
   xml:space="preserve"
   sodipodi:docname="FolderWebsite.svg"
   inkscape:version="0.92.3 (2405546, 2018-03-11)"><metadata
   id="metadata1388"><rdf:RDF><cc:Work
       rdf:about=""><dc:format>image/svg+xml</dc:format><dc:type
         rdf:resource="http://purl.org/dc/dcmitype/StillImage" /><dc:title></dc:title></cc:Work></rdf:RDF></metadata><defs
   id="defs1386" /><sodipodi:namedview
   pagecolor="#ffffff"
   bordercolor="#666666"
   borderopacity="1"
   objecttolerance="10"
   gridtolerance="10"
   guidetolerance="10"
   inkscape:pageopacity="0"
   inkscape:pageshadow="2"
   inkscape:window-width="1920"
   inkscape:window-height="1017"
   id="namedview1384"
   showgrid="false"
   fit-margin-top="0"
   fit-margin-left="0"
   fit-margin-right="0"
   fit-margin-bottom="0"
   inkscape:zoom="12.020815"
   inkscape:cx="32.845692"
   inkscape:cy="20.326698"
   inkscape:window-x="1912"
   inkscape:window-y="-8"
   inkscape:window-maximized="1"
   inkscape:current-layer="Layer_1" />
<path
   d="M 47.064,9.912 V 5.934 H 21.897 L 15.963,0 H 0 v 43.708 c 0,1.309 1.06,2.372 2.371,2.372 v 0 H 47.629 C 48.938,46.08 50,45.017 50,43.709 V 9.912 Z"
   id="path1373"
   inkscape:connector-curvature="0"
   style="fill:#fee087" />
<path
   d="m 32.59,36.052 c -1.656,1.267 -3.607,1.883 -5.544,1.883 -2.749,0 -5.467,-1.234 -7.263,-3.584 -3.069,-4.007 -2.312,-9.737 1.703,-12.807 1.655,-1.274 3.608,-1.882 5.543,-1.882 2.749,0 5.467,1.234 7.263,3.585 3.069,4.006 2.304,9.739 -1.702,12.805"
   id="path1375"
   inkscape:connector-curvature="0"
   style="fill:#59b4d9" />
<path
   d="m 30.911,30.399 c 0.664,0.866 1.895,1.023 2.757,0.367 0.045,-0.034 0.079,-0.075 0.12,-0.112 0.88,0.62 1.565,1.08 1.909,1.314 0.104,-0.265 0.17,-0.515 0.244,-0.78 -0.362,-0.269 -0.933,-0.709 -1.639,-1.281 0.233,-0.613 0.158,-1.329 -0.267,-1.89 -0.609,-0.787 -1.688,-0.988 -2.532,-0.505 -0.934,-0.838 -1.95,-1.784 -3.034,-2.861 3.351,-1.802 5.73,-1.537 5.73,-1.537 -0.398,-0.508 -0.843,-0.952 -1.318,-1.352 -1.414,-0.219 -3.607,-0.194 -6.115,1.14 v -0.001 c -0.122,0.064 -0.244,0.139 -0.367,0.21 0.122,-0.071 0.244,-0.146 0.366,-0.211 -0.835,-0.875 -1.687,-1.812 -2.552,-2.819 -0.416,0.133 -0.82,0.298 -1.211,0.492 0.639,1.046 1.498,2.101 2.469,3.131 0,0 0,0 0.001,0 0.032,0.034 0.067,0.068 0.099,0.102 -0.033,-0.034 -0.07,-0.065 -0.101,-0.099 -0.828,0.57 -1.673,1.296 -2.531,2.203 -0.109,0.117 -0.205,0.236 -0.308,0.354 -0.492,-0.1 -1.009,-0.074 -1.493,0.099 -0.83,-1.789 -0.773,-3.229 -0.642,-3.968 -0.359,0.376 -0.695,0.771 -0.984,1.193 -0.217,0.885 -0.276,2.162 0.365,3.699 -0.735,0.965 -0.776,2.328 -0.006,3.336 0.067,0.087 0.146,0.158 0.221,0.235 -0.336,1.146 -0.504,2.255 -0.55,3.204 0.086,0.118 0.086,0.212 0.173,0.327 0.438,0.562 0.992,1.094 1.524,1.523 -0.065,-1.007 0.007,-2.551 0.631,-4.221 0.426,0.031 0.856,-0.035 1.262,-0.205 0.236,0.208 0.48,0.417 0.744,0.63 0.897,0.71 1.791,1.263 2.663,1.698 -0.045,0.444 0.066,0.904 0.354,1.286 0.616,0.795 1.757,0.944 2.552,0.336 0.166,-0.127 0.297,-0.28 0.405,-0.445 1.422,0.317 2.664,0.372 3.585,0.372 0.141,0 0.795,-0.889 1.17,-1.441 -0.56,0.117 -2.226,0.339 -4.497,-0.313 -0.055,-0.253 -0.16,-0.5 -0.328,-0.719 -0.577,-0.756 -1.629,-0.92 -2.417,-0.415 -0.791,-0.429 -1.618,-0.963 -2.472,-1.639 -0.178,-0.141 -0.331,-0.281 -0.495,-0.422 0.513,-0.817 0.571,-1.857 0.12,-2.735 0.108,-0.108 0.199,-0.218 0.314,-0.325 0.807,-0.753 1.663,-1.424 2.387,-1.926 1.14,1.054 2.348,2.052 3.492,2.944 -0.306,0.643 -0.258,1.426 0.202,2.027 z"
   id="path1377"
   inkscape:connector-curvature="0"
   style="fill:#ffffff" />
<path
   d="m 27.309,25.361 c 0.002,-0.001 0.004,-0.003 0.006,-0.005 0.058,-0.037 0.117,-0.075 0.175,-0.113 -0.06,0.04 -0.121,0.079 -0.181,0.118 z"
   id="path1379"
   inkscape:connector-curvature="0"
   style="fill:#ffffff" />
<path
   d="M 4.742,9.912 V 43.708 C 4.742,45.017 3.68,46.08 2.371,46.08 1.06,46.08 0,45.017 0,43.708 V 0 h 15.963 l 5.934,5.934 h 25.167 v 3.978 z"
   id="path1381"
   inkscape:connector-curvature="0"
   style="opacity:0.2;fill:#1e1e1e" />
</svg>