<?xml version="1.0" encoding="utf-8"?>
<!-- Generator: Adobe Illustrator 17.0.1, SVG Export Plug-In . SVG Version: 6.00 Build 0)  -->
<!DOCTYPE svg PUBLIC "-//W3C//DTD SVG 1.1//EN" "http://www.w3.org/Graphics/SVG/1.1/DTD/svg11.dtd">
<svg version="1.1" id="Layer_1" xmlns="http://www.w3.org/2000/svg" xmlns:xlink="http://www.w3.org/1999/xlink" x="0px" y="0px"
	 width="50px" height="50px" viewBox="0 0 50 50" enable-background="new 0 0 50 50" xml:space="preserve">
<circle fill="#EC008C" cx="25" cy="25" r="25"/>
<path fill="#FFFFFF" d="M10.055,19.625v4.507h5.294v2.179h-5.294v6.379h-2.53V17.446h8.25v2.179H10.055z"/>
<path fill="#FFFFFF" d="M28.669,22.177c0,0.688-0.128,1.338-0.383,1.951c-0.255,0.613-0.631,1.146-1.127,1.6
	c-0.496,0.453-1.105,0.813-1.828,1.079c-0.723,0.266-1.549,0.398-2.477,0.398h-1.807v5.485h-2.53V17.446h4.709
	c0.914,0,1.711,0.11,2.392,0.33c0.68,0.22,1.247,0.535,1.7,0.946c0.454,0.411,0.792,0.909,1.016,1.493
	C28.558,20.8,28.669,21.454,28.669,22.177z M26.011,22.262c0-0.411-0.065-0.781-0.196-1.111c-0.131-0.33-0.331-0.611-0.601-0.845
	c-0.27-0.233-0.604-0.413-1.004-0.537s-0.874-0.186-1.419-0.186h-1.743v5.485h1.626c1.049,0,1.867-0.237,2.456-0.712
	C25.717,23.881,26.011,23.183,26.011,22.262z"/>
<path fill="#FFFFFF" d="M44.796,24.919c0,1.226-0.176,2.333-0.526,3.322c-0.351,0.989-0.851,1.832-1.499,2.53
	s-1.426,1.237-2.333,1.616s-1.921,0.568-3.04,0.568c-1.085,0-2.071-0.188-2.961-0.563c-0.89-0.375-1.649-0.899-2.28-1.573
	c-0.631-0.673-1.12-1.482-1.467-2.429c-0.348-0.946-0.521-1.986-0.521-3.12c0-1.169,0.165-2.247,0.495-3.232
	c0.329-0.985,0.813-1.837,1.45-2.557c0.639-0.719,1.421-1.281,2.35-1.685c0.929-0.404,1.991-0.605,3.189-0.605
	c1.056,0,2.023,0.184,2.902,0.553c0.878,0.368,1.632,0.889,2.259,1.563s1.114,1.487,1.462,2.439
	C44.622,22.7,44.796,23.757,44.796,24.919z M42.117,25.153c0-0.942-0.108-1.77-0.324-2.482c-0.217-0.712-0.524-1.308-0.925-1.786
	s-0.881-0.84-1.44-1.084c-0.561-0.244-1.188-0.367-1.882-0.367c-0.723,0-1.375,0.138-1.956,0.415s-1.073,0.665-1.478,1.164
	c-0.404,0.5-0.716,1.093-0.936,1.781s-0.329,1.446-0.329,2.275c0,0.886,0.116,1.678,0.351,2.376c0.233,0.698,0.556,1.29,0.967,1.775
	s0.896,0.855,1.457,1.11c0.56,0.256,1.165,0.383,1.817,0.383c0.694,0,1.327-0.118,1.897-0.355s1.063-0.589,1.478-1.053
	c0.415-0.464,0.735-1.044,0.962-1.738C42.004,26.872,42.117,26.067,42.117,25.153z"/>
</svg>
