<?xml version="1.0" encoding="utf-8"?>
<!-- Generator: Adobe Illustrator 17.1.0, SVG Export Plug-In . SVG Version: 6.00 Build 0)  -->
<!DOCTYPE svg PUBLIC "-//W3C//DTD SVG 1.1//EN" "http://www.w3.org/Graphics/SVG/1.1/DTD/svg11.dtd">
<svg version="1.1" id="Layer_1" xmlns="http://www.w3.org/2000/svg" xmlns:xlink="http://www.w3.org/1999/xlink" x="0px" y="0px"
	 viewBox="0 0 50 50" enable-background="new 0 0 50 50" xml:space="preserve">
<rect fill="#A0A1A2" width="11.7" height="11.5"/>
<rect x="16.1" fill="#A0A1A2" width="11.7" height="11.5"/>
<rect x="32.3" fill="#A0A1A2" width="11.7" height="11.5"/>
<rect y="16.1" fill="#A0A1A2" width="27.9" height="11.5"/>
<rect x="32.3" y="16.1" fill="#A0A1A2" width="11.7" height="11.5"/>
<rect y="32.3" fill="#A0A1A2" width="44" height="11.7"/>
<path fill="#0072C6" d="M45.8,16.5c0,4.7-3.8,8.6-8.6,8.6s-8.6-3.8-8.6-8.6c0-4.7,3.8-8.6,8.6-8.6S45.8,11.8,45.8,16.5"/>
<polygon fill="#0072C6" points="43.5,28.3 37.2,37.1 30.9,28.3 24.4,28.3 24.4,50 50,50 50,28.3 "/>
<path opacity="0.2" fill="#FFFFFF" d="M28.6,16.5c0,4.7,3.8,8.6,8.6,8.6c0.3,0,0.6-0.1,0.9-0.1l2.1-16.5c-0.9-0.3-1.9-0.6-3-0.6
	C32.4,7.9,28.6,11.8,28.6,16.5"/>
<polygon opacity="0.2" fill="#FFFFFF" points="30.9,28.3 24.4,28.3 24.4,50 35,50 36.7,36.4 "/>
</svg>
