<?xml version="1.0" encoding="utf-8"?>
<!-- Generator: Adobe Illustrator 17.1.0, SVG Export Plug-In . SVG Version: 6.00 Build 0)  -->
<!DOCTYPE svg PUBLIC "-//W3C//DTD SVG 1.1//EN" "http://www.w3.org/Graphics/SVG/1.1/DTD/svg11.dtd">
<svg version="1.1" id="Layer_1" xmlns="http://www.w3.org/2000/svg" xmlns:xlink="http://www.w3.org/1999/xlink" x="0px" y="0px"
	 height="50px" width="50px" viewBox="0 0 50 50" enable-background="new 0 0 50 50" xml:space="preserve">
<path fill="#7A7A7A" d="M50,27.7V22l-0.8-0.3l-6.1-2l-1.6-3.9l3.1-6.6l-4-4l-0.8,0.4l-5.7,2.9l-3.9-1.6L27.7,0H22l-0.3,0.8l-2,6.1
	l-3.9,1.6L9.3,5.4l-4,4l0.4,0.8l2.9,5.7l-1.6,3.9L0,22.3V28l0.8,0.3l6.1,2l1.6,3.9l-3.1,6.6l4,4l0.8-0.4l5.7-2.9l3.9,1.6l2.5,6.9H28
	l0.3-0.8l2-6.1l3.9-1.6l6.6,3.1l4-4l-0.4-0.8l-2.9-5.7l1.6-3.9L50,27.7z M25,31.5c-3.6,0-6.5-2.9-6.5-6.5s2.9-6.5,6.5-6.5
	s6.5,2.9,6.5,6.5S28.6,31.5,25,31.5z"/>
<path opacity="0.2" fill="#F1F1F1" enable-background="new    " d="M39.7,5.6l-5.6,2.9l-3.9-1.6L27.7,0H22l-0.3,0.8l-2,6.1l-3.9,1.6
	L9.2,5.4l-4,4l0.4,0.8l2.9,5.7l-1.6,3.9L0,22.3V28l0.8,0.3l6.1,2l1.6,3.9l-3.1,6.6l4,4l0.8-0.4l2.4-1.2l3.5-4.8c0,0,0,0,0,0l5.6-7.8
	c-1.9-1.1-3.2-3.2-3.2-5.6c0-3.6,2.9-6.5,6.5-6.5c1.7,0,3.2,0.6,4.3,1.6l5.8-8c0,0,0,0,0,0L39.7,5.6z"/>
</svg>
