<?xml version="1.0" encoding="utf-8"?>
<!-- Generator: Adobe Illustrator 17.0.1, SVG Export Plug-In . SVG Version: 6.00 Build 0)  -->
<!DOCTYPE svg PUBLIC "-//W3C//DTD SVG 1.1//EN" "http://www.w3.org/Graphics/SVG/1.1/DTD/svg11.dtd">
<svg version="1.1" id="Layer_1" xmlns="http://www.w3.org/2000/svg" xmlns:xlink="http://www.w3.org/1999/xlink" x="0px" y="0px"
	 width="50px" height="50px" viewBox="0 0 50 50" enable-background="new 0 0 50 50" xml:space="preserve">
<path fill="#59B4D9" d="M50,27.726v-5.69l-0.803-0.261l-6.091-1.989l-1.625-3.925l3.124-6.609l-4.024-4.023L39.826,5.61
	l-5.711,2.903L30.19,6.885L27.724,0h-5.688l-0.263,0.807l-1.989,6.092l-3.922,1.623L9.25,5.4L5.227,9.422l0.383,0.753l2.9,5.714
	L6.887,19.81L0,22.276v5.691l0.804,0.264l6.092,1.987l1.625,3.923l-3.123,6.611l4.021,4.025l0.755-0.384l5.712-2.901l3.924,1.625
	L22.275,50h5.691l0.262-0.803l1.989-6.089l3.923-1.626l6.61,3.126l4.025-4.026l-0.383-0.754l-2.902-5.711l1.627-3.924L50,27.726z
	 M25.943,36.31c-6.132-0.105-11.148-5.216-11.148-11.417c0-3.351,1.491-6.362,3.817-8.371L16,14h8v8l-2.872-2.993
	c-1.744,1.407-2.989,3.561-2.989,5.994c0,4.343,3.507,7.908,7.792,7.978c4.309,0.07,7.781-3.368,7.781-7.699
	c0-2.753-1.417-5.203-3.554-6.632l2.369-2.391c2.741,2.09,4.332,5.445,4.332,9.138C36.859,31.585,32.098,36.414,25.943,36.31z"/>
</svg>
