<?xml version="1.0" encoding="utf-8"?>
<!-- Generator: Adobe Illustrator 17.0.1, SVG Export Plug-In . SVG Version: 6.00 Build 0)  -->
<!DOCTYPE svg PUBLIC "-//W3C//DTD SVG 1.1//EN" "http://www.w3.org/Graphics/SVG/1.1/DTD/svg11.dtd">
<svg version="1.1" id="Layer_1" xmlns="http://www.w3.org/2000/svg" xmlns:xlink="http://www.w3.org/1999/xlink" x="0px" y="0px"
	 width="50px" height="50px" viewBox="0 0 50 50" enable-background="new 0 0 50 50" xml:space="preserve">
<polygon fill="#7A7A7A" points="50,27.726 50,22.036 49.197,21.775 43.106,19.786 41.481,15.861 44.605,9.252 40.581,5.229 
	39.826,5.61 34.115,8.513 30.19,6.885 27.724,0 22.036,0 21.773,0.807 19.784,6.899 15.862,8.522 9.25,5.4 5.227,9.422 5.61,10.175 
	8.51,15.889 6.887,19.81 0,22.276 0,27.967 0.804,28.231 6.896,30.218 8.521,34.141 5.398,40.752 9.419,44.777 10.174,44.393 
	15.886,41.492 19.81,43.117 22.275,50 27.966,50 28.228,49.197 30.217,43.108 34.14,41.482 40.75,44.608 44.775,40.582 
	44.392,39.828 41.49,34.117 43.117,30.193 "/>
<path opacity="0.2" fill="#FFFFFF" enable-background="new    " d="M39.749,5.648l-5.634,2.865L30.19,6.886L27.725,0h-5.689
	l-0.262,0.807l-1.989,6.091l-3.922,1.624L9.249,5.398L5.227,9.422l0.383,0.753l2.9,5.715l-1.623,3.92L0,22.277v5.69l0.804,0.263
	l6.092,1.988l1.625,3.923l-3.123,6.611l4.021,4.025l0.755-0.384l2.433-1.236l3.452-4.77c0.006,0.004,0.012,0.008,0.018,0.012
	l19.047-26.32c-0.006-0.005-0.012-0.009-0.018-0.014L39.749,5.648z"/>
<path fill="#FFFFFF" d="M32.527,16.257l-2.369,2.391c2.137,1.429,3.554,3.879,3.554,6.632c0,4.331-3.472,7.769-7.781,7.699
	c-4.285-0.07-7.792-3.635-7.792-7.978c0-2.433,1.245-4.587,2.989-5.994L23,20.747V15h-5.809l1.421,1.522
	c-2.326,2.009-3.817,5.02-3.817,8.371c0,6.201,5.016,11.312,11.148,11.417c6.155,0.104,10.916-4.725,10.916-10.915
	C36.859,21.702,35.268,18.347,32.527,16.257z"/>
</svg>
