<?xml version="1.0" encoding="utf-8"?>
<!-- Generator: Adobe Illustrator 17.1.0, SVG Export Plug-In . SVG Version: 6.00 Build 0)  -->
<!DOCTYPE svg PUBLIC "-//W3C//DTD SVG 1.1//EN" "http://www.w3.org/Graphics/SVG/1.1/DTD/svg11.dtd">
<svg version="1.1" id="Layer_1" xmlns="http://www.w3.org/2000/svg" xmlns:xlink="http://www.w3.org/1999/xlink" x="0px" y="0px"
	 viewBox="0 0 50 50" enable-background="new 0 0 50 50" xml:space="preserve">
<path fill="#FF8C00" d="M25,47.5C12.6,47.5,2.5,37.4,2.5,25S12.6,2.5,25,2.5S47.5,12.6,47.5,25S37.4,47.5,25,47.5z M25,3.5
	C13.1,3.5,3.5,13.1,3.5,25S13.1,46.5,25,46.5S46.5,36.9,46.5,25S36.9,3.5,25,3.5z"/>
<path fill="#59B4D9" stroke="#59B4D9" stroke-width="0.1937" stroke-miterlimit="10" d="M26.9,35.2c0.8-0.8,2-0.8,2.7,0l-3.1-3.1
	c-0.8-0.8-0.8-2,0-2.7c0.8-0.8,2-0.8,2.7,0l0.8,0.8l0.6,0.6l1.5,1.5c0.8,0.8,2,0.8,2.7,0c0.8-0.8,0.8-2,0-2.7l-1.5-1.5l-0.9-0.9
	L28,22.6c-0.8-0.8-0.8-2,0-2.7c0.8-0.8,2-0.8,2.7,0l2,2c-0.8-0.8-0.8-2,0-2.7c0.8-0.8,2-0.8,2.7,0l5.2,5.2
	c-0.2-3.8-1.7-7.4-4.6-10.3c-2.6-2.6-6-4.1-9.5-4.5l2.3,2.3c1,1,1,2.5,0,3.4s-2.5,1-3.4,0l-1.6-1.6c-1-1-2.5-1-3.4,0
	c-1,1-1,2.5,0,3.4l3.1,3.1c1,1,1,2.5,0,3.4s-2.5,1-3.4,0l-3.4-3.4c0.4,0.9,0.2,2-0.5,2.7c-1,1-2.5,1-3.4,0l2.5,2.5c1,1,1,2.5,0,3.4
	c-1,1-2.5,1-3.4,0l-2.3-2.3c0.4,3.5,1.8,6.8,4.5,9.5c4.1,4.1,9.9,5.4,15.1,4L27,37.8C26.1,37.2,26.1,36,26.9,35.2z"/>
<path fill="#B8D432" d="M40.7,24.4l-5.2-5.2c-0.8-0.8-2-0.8-2.7,0s-0.8,2,0,2.7l-2-2c-0.8-0.8-2-0.8-2.7,0c-0.8,0.8-0.8,2,0,2.7
	l4.5,4.5l0.9,0.9l1.5,1.5c0.8,0.8,0.8,2,0,2.7c-0.8,0.8-2,0.8-2.7,0l-1.5-1.5l-0.6-0.6l-0.8-0.8c-0.8-0.8-2-0.8-2.7,0
	c-0.8,0.8-0.8,2,0,2.7l3.1,3.1c-0.8-0.8-2-0.8-2.7,0c-0.8,0.8-0.8,2,0,2.7l2.2,2.2c2.6-0.7,5-2,7-4C39.4,32.9,40.9,28.6,40.7,24.4z"
	/>
<path fill="#B8D432" d="M15.1,28.8c1-1,1-2.5,0-3.4l-2.5-2.5c1,1,2.5,1,3.4,0c0.7-0.7,0.9-1.8,0.5-2.7l3.4,3.4c1,1,2.5,1,3.4,0
	s1-2.5,0-3.4l-3-3.2c-1-1-1-2.5,0-3.4s2.5-1,3.4,0l1.6,1.6c1,1,2.5,1,3.4,0c1-1,1-2.5,0-3.4l-2.3-2.3c-4.5-0.5-9.2,1-12.6,4.5
	s-5,8.1-4.5,12.6l2.3,2.3C12.6,29.8,14.2,29.8,15.1,28.8z"/>
<circle fill="#FCD116" cx="25" cy="3.6" r="3.6"/>
<circle fill="#FCD116" cx="25" cy="46.4" r="3.6"/>
<circle fill="#FCD116" cx="46.4" cy="25" r="3.6"/>
<circle fill="#FCD116" cx="3.6" cy="25" r="3.6"/>
</svg>
