<?xml version="1.0" encoding="UTF-8" standalone="no"?>
<!-- Generator: Adobe Illustrator 17.1.0, SVG Export Plug-In . SVG Version: 6.00 Build 0)  -->

<svg
   xmlns:dc="http://purl.org/dc/elements/1.1/"
   xmlns:cc="http://creativecommons.org/ns#"
   xmlns:rdf="http://www.w3.org/1999/02/22-rdf-syntax-ns#"
   xmlns:svg="http://www.w3.org/2000/svg"
   xmlns="http://www.w3.org/2000/svg"
   xmlns:sodipodi="http://sodipodi.sourceforge.net/DTD/sodipodi-0.dtd"
   xmlns:inkscape="http://www.inkscape.org/namespaces/inkscape"
   version="1.1"
   id="Layer_1"
   x="0px"
   y="0px"
   width="45"
   height="47.5"
   viewBox="0 0 45 47.5"
   enable-background="new 0 0 50 50"
   xml:space="preserve"
   sodipodi:docname="GeoReplicationStandard.svg"
   inkscape:version="0.92.3 (2405546, 2018-03-11)"><metadata
   id="metadata2179"><rdf:RDF><cc:Work
       rdf:about=""><dc:format>image/svg+xml</dc:format><dc:type
         rdf:resource="http://purl.org/dc/dcmitype/StillImage" /><dc:title></dc:title></cc:Work></rdf:RDF></metadata><defs
   id="defs2177" /><sodipodi:namedview
   pagecolor="#ffffff"
   bordercolor="#666666"
   borderopacity="1"
   objecttolerance="10"
   gridtolerance="10"
   guidetolerance="10"
   inkscape:pageopacity="0"
   inkscape:pageshadow="2"
   inkscape:window-width="1920"
   inkscape:window-height="1017"
   id="namedview2175"
   showgrid="false"
   fit-margin-top="0"
   fit-margin-left="0"
   fit-margin-right="0"
   fit-margin-bottom="0"
   inkscape:zoom="12.020815"
   inkscape:cx="23.2066"
   inkscape:cy="16.837558"
   inkscape:window-x="1912"
   inkscape:window-y="-8"
   inkscape:window-maximized="1"
   inkscape:current-layer="Layer_1" />
<path
   d="M 22.5,45 C 10.1,45 0,34.9 0,22.5 0,10.1 10.1,0 22.5,0 34.9,0 45,10.1 45,22.5 45,34.9 34.9,45 22.5,45 Z m 0,-44 C 10.6,1 1,10.6 1,22.5 1,34.4 10.6,44 22.5,44 34.4,44 44,34.4 44,22.5 44,10.6 34.4,1 22.5,1 Z"
   id="path2164"
   inkscape:connector-curvature="0"
   style="fill:#59b4d9" />
<path
   stroke-miterlimit="10"
   d="m 24.4,32.7 c 0.8,-0.8 2,-0.8 2.7,0 L 24,29.6 c -0.8,-0.8 -0.8,-2 0,-2.7 0.8,-0.8 2,-0.8 2.7,0 l 0.8,0.8 0.6,0.6 1.5,1.5 c 0.8,0.8 2,0.8 2.7,0 0.8,-0.8 0.8,-2 0,-2.7 l -1.5,-1.5 -0.9,-0.9 -4.4,-4.6 c -0.8,-0.8 -0.8,-2 0,-2.7 0.8,-0.8 2,-0.8 2.7,0 l 2,2 c -0.8,-0.8 -0.8,-2 0,-2.7 0.8,-0.8 2,-0.8 2.7,0 l 5.2,5.2 C 37.9,18.1 36.4,14.5 33.5,11.6 30.9,9 27.5,7.5 24,7.1 l 2.3,2.3 c 1,1 1,2.5 0,3.4 -1,0.9 -2.5,1 -3.4,0 l -1.6,-1.6 c -1,-1 -2.5,-1 -3.4,0 -1,1 -1,2.5 0,3.4 l 3.1,3.1 c 1,1 1,2.5 0,3.4 -1,0.9 -2.5,1 -3.4,0 l -3.4,-3.4 c 0.4,0.9 0.2,2 -0.5,2.7 -1,1 -2.5,1 -3.4,0 l 2.5,2.5 c 1,1 1,2.5 0,3.4 -1,1 -2.5,1 -3.4,0 L 7.1,24 c 0.4,3.5 1.8,6.8 4.5,9.5 4.1,4.1 9.9,5.4 15.1,4 l -2.2,-2.2 c -0.9,-0.6 -0.9,-1.8 -0.1,-2.6 z"
   id="path2166"
   inkscape:connector-curvature="0"
   style="fill:#59b4d9;stroke:#59b4d9;stroke-width:0.1937;stroke-miterlimit:10" />
<path
   d="M 38.2,21.9 33,16.7 c -0.8,-0.8 -2,-0.8 -2.7,0 -0.7,0.8 -0.8,2 0,2.7 l -2,-2 c -0.8,-0.8 -2,-0.8 -2.7,0 -0.8,0.8 -0.8,2 0,2.7 l 4.5,4.5 0.9,0.9 1.5,1.5 c 0.8,0.8 0.8,2 0,2.7 -0.8,0.8 -2,0.8 -2.7,0 l -1.5,-1.5 -0.6,-0.6 -0.8,-0.8 c -0.8,-0.8 -2,-0.8 -2.7,0 -0.8,0.8 -0.8,2 0,2.7 l 3.1,3.1 c -0.8,-0.8 -2,-0.8 -2.7,0 -0.8,0.8 -0.8,2 0,2.7 l 2.2,2.2 c 2.6,-0.7 5,-2 7,-4 3.1,-3.1 4.6,-7.4 4.4,-11.6 z"
   id="path2168"
   inkscape:connector-curvature="0"
   style="fill:#b8d432" />
<path
   d="m 12.6,26.3 c 1,-1 1,-2.5 0,-3.4 l -2.5,-2.5 c 1,1 2.5,1 3.4,0 0.7,-0.7 0.9,-1.8 0.5,-2.7 l 3.4,3.4 c 1,1 2.5,1 3.4,0 0.9,-1 1,-2.5 0,-3.4 l -3,-3.2 c -1,-1 -1,-2.5 0,-3.4 1,-0.9 2.5,-1 3.4,0 l 1.6,1.6 c 1,1 2.5,1 3.4,0 1,-1 1,-2.5 0,-3.4 L 23.9,7 C 19.4,6.5 14.7,8 11.3,11.5 7.9,15 6.3,19.6 6.8,24.1 l 2.3,2.3 c 1,0.9 2.6,0.9 3.5,-0.1 z"
   id="path2170"
   inkscape:connector-curvature="0"
   style="fill:#b8d432" />
<circle
   cx="22.5"
   cy="43.900002"
   r="3.5999999"
   id="circle2172"
   style="fill:#0072c6" />
</svg>