<?xml version="1.0" encoding="utf-8"?>
<!-- Generator: Adobe Illustrator 17.0.1, SVG Export Plug-In . SVG Version: 6.00 Build 0)  -->
<!DOCTYPE svg PUBLIC "-//W3C//DTD SVG 1.1//EN" "http://www.w3.org/Graphics/SVG/1.1/DTD/svg11.dtd">
<svg version="1.1" id="Layer_1" xmlns="http://www.w3.org/2000/svg" xmlns:xlink="http://www.w3.org/1999/xlink" x="0px" y="0px"
	 width="50px" height="50px" viewBox="0 0 50 50" enable-background="new 0 0 50 50" xml:space="preserve">
<polygon fill="#59B4D9" points="29.946,22.868 20.19,12.584 25.484,12.584 38.523,24.994 25.53,37.416 20.252,37.416 29.946,27.187 
	0,27.187 0,22.868 "/>
<path fill="#59B4D9" d="M48.147,0H46L30.269,0.002L15,0h-3.143C10.836,0,10,0.837,10,1.857V17h5V5h30v40H15V33h-5v15.152
	C10,49.164,10.84,50,11.861,50h36.286C49.168,50,50,49.164,50,48.152V1.857C50,0.837,49.168,0,48.147,0z"/>
</svg>
