<?xml version="1.0" encoding="UTF-8" standalone="no"?>
<!-- Generator: Adobe Illustrator 19.1.0, SVG Export Plug-In . SVG Version: 6.00 Build 0)  -->

<svg
   xmlns:dc="http://purl.org/dc/elements/1.1/"
   xmlns:cc="http://creativecommons.org/ns#"
   xmlns:rdf="http://www.w3.org/1999/02/22-rdf-syntax-ns#"
   xmlns:svg="http://www.w3.org/2000/svg"
   xmlns="http://www.w3.org/2000/svg"
   xmlns:sodipodi="http://sodipodi.sourceforge.net/DTD/sodipodi-0.dtd"
   xmlns:inkscape="http://www.inkscape.org/namespaces/inkscape"
   version="1.1"
   id="Layer_1"
   x="0px"
   y="0px"
   width="47.799999"
   height="49.959808"
   viewBox="0 0 47.799999 49.959808"
   xml:space="preserve"
   sodipodi:docname="Gift.svg"
   inkscape:version="0.92.3 (2405546, 2018-03-11)"><metadata
   id="metadata2488"><rdf:RDF><cc:Work
       rdf:about=""><dc:format>image/svg+xml</dc:format><dc:type
         rdf:resource="http://purl.org/dc/dcmitype/StillImage" /><dc:title></dc:title></cc:Work></rdf:RDF></metadata><defs
   id="defs2486" /><sodipodi:namedview
   pagecolor="#ffffff"
   bordercolor="#666666"
   borderopacity="1"
   objecttolerance="10"
   gridtolerance="10"
   guidetolerance="10"
   inkscape:pageopacity="0"
   inkscape:pageshadow="2"
   inkscape:window-width="1920"
   inkscape:window-height="1017"
   id="namedview2484"
   showgrid="false"
   fit-margin-top="0"
   fit-margin-left="0"
   fit-margin-right="0"
   fit-margin-bottom="0"
   inkscape:zoom="12.020815"
   inkscape:cx="13.349737"
   inkscape:cy="25.341117"
   inkscape:window-x="1912"
   inkscape:window-y="-8"
   inkscape:window-maximized="1"
   inkscape:current-layer="Layer_1" />
<style
   type="text/css"
   id="style2453">
	.st0{fill:#0072C6;}
	.st1{opacity:0.15;fill:#FFFFFF;enable-background:new    ;}
	.st2{opacity:0.25;fill:#1E1E1E;enable-background:new    ;}
	.st3{fill:#B8D432;}
	.st4{fill:#7FBA00;}
	.st5{opacity:0.25;fill:#FCD116;enable-background:new    ;}
</style>
<path
   class="st0"
   d="m 23.9,21.359808 -23.9,-9.6 v -0.1 L 23.9,1.9598076 47.8,11.559808 v 0.1 z"
   id="path2455"
   inkscape:connector-curvature="0"
   style="fill:#0072c6" />
<path
   class="st0"
   d="m 23.9,49.959808 23.9,-9.7 v -28.6 l -23.9,9.7 z"
   id="path2457"
   inkscape:connector-curvature="0"
   style="fill:#0072c6" />
<path
   class="st1"
   d="m 23.9,49.959808 23.9,-9.7 v -28.6 l -23.9,9.7 z"
   id="path2459"
   inkscape:connector-curvature="0"
   style="opacity:0.15;fill:#ffffff;enable-background:new" />
<path
   class="st0"
   d="m 23.9,49.959808 -23.9,-9.6 v -28.6 l 23.9,9.6 z"
   id="path2461"
   inkscape:connector-curvature="0"
   style="fill:#0072c6" />
<path
   class="st2"
   d="m 23.9,49.959808 -23.9,-9.6 v -28.6 l 23.9,9.6 z"
   id="path2463"
   inkscape:connector-curvature="0"
   style="opacity:0.25;fill:#1e1e1e;enable-background:new" />
<polygon
   class="st3"
   points="41.2,43.4 41.2,14.7 34.9,17.4 34.9,46 "
   id="polygon2465"
   style="fill:#b8d432"
   transform="translate(-1.1,-0.04019238)" />
<polygon
   class="st4"
   points="8.4,43.4 8.4,14.7 14.9,17.4 14.9,46 "
   id="polygon2467"
   style="fill:#7fba00"
   transform="translate(-1.1,-0.04019238)" />
<polygon
   class="st4"
   points="34.9,17.4 41.2,14.7 41.2,14.6 17.3,5 10.9,7.6 10.9,7.7 "
   id="polygon2469"
   style="fill:#7fba00"
   transform="translate(-1.1,-0.04019238)" />
<polygon
   class="st3"
   points="14.9,17.4 8.4,14.7 8.4,14.6 32.7,5 39.1,7.6 39.1,7.7 "
   id="polygon2471"
   style="fill:#b8d432"
   transform="translate(-1.1,-0.04019238)" />
<path
   class="st4"
   d="m 17.9,15.259808 c 0.5,0.1 1.1,0.1 1.7,-0.2 l 7.7,-3.1 -5.9,-3.1000004 -6.9,-2.5 c -0.6,-0.2 -1.1,-0.3 -1.8,0 -1.7,0.7 -3.1,2.6 -3.1,4.3000004 0,0.8 0.4,1.5 0.9,1.8 z"
   id="path2473"
   inkscape:connector-curvature="0"
   style="fill:#7fba00" />
<path
   class="st4"
   d="m 20.5,9.4598076 5.9,-7.8 c 0.6,-0.6 1.1,-1.09999998 1.8,-1.39999998 0.6,-0.2 1.2,-0.3 1.7,-0.2 l 7,2.59999998 c 0.7,0.3 1.2,1 1.2,2 0,1.7 -1.4,3.6 -3.1,4.3 l -7.7,3.1000004 z"
   id="path2475"
   inkscape:connector-curvature="0"
   style="fill:#7fba00" />
<path
   class="st5"
   d="M 37,2.6598076 30,0.05980762 c -0.5,-0.1 -1.1,-0.1 -1.7,0.2 -0.7,0.3 -1.3,0.79999998 -1.8,1.39999998 l -5.4,7.2 -6.5,-2.4 c -0.6,-0.2 -1.1,-0.3 -1.8,0 -1.7,0.7 -3.1,2.6 -3.1,4.3000004 0,0.8 0.4,1.5 0.9,1.8 l 7.3,2.7 c 0.5,0.1 1.1,0.1 1.7,-0.2 l 7.7,-3.1 -0.7,-0.4 0.8,0.3 7.7,-3.1000004 c 1.7,-0.7 3.1,-2.6 3.1,-4.3 0,-0.9 -0.5,-1.6 -1.2,-1.8 z"
   id="path2477"
   inkscape:connector-curvature="0"
   style="opacity:0.25;fill:#fcd116;enable-background:new" />
<path
   class="st2"
   d="m 33.3,4.1598076 c 0.6,-0.6 1.1,-1.1 1.8,-1.4 1.7,-0.7 3.1,0.2 3.1,1.9 0,1.7 -1.4,3.6 -3.1,4.3 l -7.7,3.1000004 z"
   id="path2479"
   inkscape:connector-curvature="0"
   style="opacity:0.25;fill:#1e1e1e;enable-background:new" />
<path
   class="st2"
   d="m 21.4,8.8598076 c -0.6,-0.2 -1.1,-0.3 -1.8,0 -1.7,0.7 -3.1,2.6000004 -3.1,4.3000004 0,1.7 1.4,2.5 3.1,1.9 l 7.7,-3.1 z"
   id="path2481"
   inkscape:connector-curvature="0"
   style="opacity:0.25;fill:#1e1e1e;enable-background:new" />
</svg>