<?xml version="1.0" encoding="UTF-8" standalone="no"?>
<!-- Generator: Adobe Illustrator 17.0.1, SVG Export Plug-In . SVG Version: 6.00 Build 0)  -->

<svg
   xmlns:dc="http://purl.org/dc/elements/1.1/"
   xmlns:cc="http://creativecommons.org/ns#"
   xmlns:rdf="http://www.w3.org/1999/02/22-rdf-syntax-ns#"
   xmlns:svg="http://www.w3.org/2000/svg"
   xmlns="http://www.w3.org/2000/svg"
   xmlns:sodipodi="http://sodipodi.sourceforge.net/DTD/sodipodi-0.dtd"
   xmlns:inkscape="http://www.inkscape.org/namespaces/inkscape"
   version="1.1"
   id="Layer_1"
   x="0px"
   y="0px"
   width="43.708298"
   height="50.051308"
   viewBox="0 0 43.708298 50.051308"
   enable-background="new 0 0 50 50"
   xml:space="preserve"
   sodipodi:docname="Globe.svg"
   inkscape:version="0.92.3 (2405546, 2018-03-11)"><metadata
   id="metadata2577"><rdf:RDF><cc:Work
       rdf:about=""><dc:format>image/svg+xml</dc:format><dc:type
         rdf:resource="http://purl.org/dc/dcmitype/StillImage" /><dc:title></dc:title></cc:Work></rdf:RDF></metadata><defs
   id="defs2575" /><sodipodi:namedview
   pagecolor="#ffffff"
   bordercolor="#666666"
   borderopacity="1"
   objecttolerance="10"
   gridtolerance="10"
   guidetolerance="10"
   inkscape:pageopacity="0"
   inkscape:pageshadow="2"
   inkscape:window-width="1920"
   inkscape:window-height="1017"
   id="namedview2573"
   showgrid="false"
   fit-margin-top="0"
   fit-margin-left="0"
   fit-margin-right="0"
   fit-margin-bottom="0"
   inkscape:zoom="8.5"
   inkscape:cx="12.938853"
   inkscape:cy="20.055976"
   inkscape:window-x="1912"
   inkscape:window-y="-8"
   inkscape:window-maximized="1"
   inkscape:current-layer="Layer_1" />
<path
   d="m 21.039299,40.402308 h -3.951 c 0.957,5.788 -2.336,6.618 -7.9680003,6.618 v 3.031 h 7.1630003 5.229 6.759 v -3.031 c -5.631,0 -8.19,-0.827 -7.232,-6.618"
   id="path2560"
   inkscape:connector-curvature="0"
   style="fill:#ff8c00" />
<rect
   x="9.1222982"
   y="47.019306"
   width="19.150999"
   height="3.0320001"
   id="rect2562"
   style="fill:#fcd116" />
<path
   stroke-miterlimit="10"
   d="m 21.020299,30.979308 c 0.904,-0.904 2.37,-0.904 3.274,0 l -3.66,-3.66 c -0.904,-0.904 -0.904,-2.37 0,-3.274 0.904,-0.904 2.37,-0.904 3.274,0 l 0.971,0.971 0.756,0.686 1.79,1.79 c 0.904,0.904 2.37,0.904 3.274,0 0.904,-0.904 0.904,-2.37 0,-3.274 l -1.79,-1.79 -1.133,-1.133 -5.447,-5.447 c -0.904,-0.904 -0.904,-2.37 0,-3.274 0.904,-0.904 2.37,-0.904 3.274,0 l 2.387,2.387 c -0.904,-0.904 -0.904,-2.37 0,-3.274 0.904,-0.904 2.37,-0.904 3.274,0 l 6.195,6.195 c -0.208,-4.491 -2.028,-8.9210004 -5.458,-12.3510004 -3.17,-3.17 -7.195,-4.96300003 -11.332,-5.38300003 l 2.778,2.77800003 c 1.141,1.141 1.141,2.99 0,4.131 -1.141,1.141 -2.99,1.141 -4.131,0 l -1.9,-1.9 c -1.141,-1.141 -2.99,-1.141 -4.131,0 -1.141,1.141 -1.141,2.99 0,4.131 l 3.743,3.7430004 c 1.141,1.141 1.141,2.99 0,4.131 -1.141,1.141 -2.99,1.141 -4.131,0 l -4.1060003,-4.106 c 0.489,1.076 0.294,2.388 -0.591,3.273 -1.141,1.141 -2.99,1.141 -4.131,0 l 2.988,2.988 c 1.141,1.141 1.141,2.99 0,4.131 -1.141,1.141 -2.99,1.141 -4.131,0 l -2.77799998,-2.778 c 0.42,4.138 2.21299998,8.162 5.38299998,11.332 4.8980003,4.898 11.8340003,6.508 18.0770003,4.842 l -2.589,-2.589 c -0.904,-0.906 -0.904,-2.372 0.001,-3.276 z"
   id="path2564"
   inkscape:connector-curvature="0"
   style="fill:#59b4d9;stroke:#59b4d9;stroke-width:0.23199999;stroke-miterlimit:10" />
<path
   d="m 37.461299,17.882308 -6.195,-6.195 c -0.904,-0.904 -2.37,-0.904 -3.274,0 -0.904,0.904 -0.904,2.37 0,3.274 l -2.387,-2.387 c -0.904,-0.904 -2.37,-0.904 -3.274,0 -0.904,0.904 -0.904,2.37 0,3.274 l 5.447,5.447 1.133,1.133 1.79,1.79 c 0.904,0.904 0.904,2.37 0,3.274 -0.904,0.904 -2.37,0.904 -3.274,0 l -1.79,-1.79 -0.756,-0.686 -0.971,-0.971 c -0.904,-0.904 -2.37,-0.904 -3.274,0 -0.904,0.904 -0.904,2.37 0,3.274 l 3.66,3.66 c -0.904,-0.904 -2.37,-0.904 -3.274,0 -0.904,0.904 -0.904,2.37 0,3.274 l 2.589,2.589 c 3.074,-0.82 5.981,-2.431 8.392,-4.842 3.877,-3.88 5.697,-9.038 5.458,-14.118 z"
   id="path2566"
   inkscape:connector-curvature="0"
   style="fill:#b8d432" />
<path
   d="m 7.0572987,23.445308 c 1.141,-1.141 1.141,-2.99 0,-4.131 l -2.988,-2.988 c 1.141,1.141 2.99,1.141 4.131,0 0.885,-0.885 1.08,-2.196 0.591,-3.273 l 4.1060003,4.106 c 1.141,1.141 2.99,1.141 4.131,0 1.141,-1.141 1.141,-2.99 0,-4.131 l -3.743,-3.7430004 c -1.141,-1.141 -1.141,-2.99 0,-4.131 1.141,-1.141 2.99,-1.141 4.131,0 l 1.9,1.9 c 1.141,1.141 2.99,1.141 4.131,0 1.141,-1.141 1.141,-2.99 0,-4.131 l -2.778,-2.77800003 c -5.403,-0.546 -10.9980003,1.24700003 -15.1370003,5.38600003 -4.139,4.139 -5.93199998,9.7340004 -5.38299998,15.1370004 l 2.77799998,2.778 c 1.14,1.14 2.989,1.14 4.13,-10e-4 z"
   id="path2568"
   inkscape:connector-curvature="0"
   style="fill:#b8d432" />
<path
   d="m 18.766299,43.707308 c -6.662,0 -12.9260003,-2.594 -17.6370003,-7.305 -0.67999998,-0.68 -0.67999998,-1.781 0,-2.461 0.68,-0.679 1.781,-0.68 2.461,0 4.054,4.054 9.4430003,6.286 15.1760003,6.286 5.733,0 11.122,-2.232 15.176,-6.286 4.054,-4.054 6.286,-9.443 6.286,-15.176 0,-5.733 -2.232,-11.1220004 -6.286,-15.1760004 -0.68,-0.68 -0.68,-1.781 0,-2.461 0.68,-0.68000003 1.782,-0.67900003 2.461,0 4.711,4.711 7.305,10.9740004 7.305,17.6370004 0,6.663 -2.594,12.926 -7.305,17.637 -4.711,4.711 -10.975,7.305 -17.637,7.305 z"
   id="path2570"
   inkscape:connector-curvature="0"
   style="fill:#fcd116" />
</svg>