<?xml version="1.0" encoding="UTF-8" standalone="no"?>
<!-- Generator: Adobe Illustrator 17.1.0, SVG Export Plug-In . SVG Version: 6.00 Build 0)  -->

<svg
   xmlns:dc="http://purl.org/dc/elements/1.1/"
   xmlns:cc="http://creativecommons.org/ns#"
   xmlns:rdf="http://www.w3.org/1999/02/22-rdf-syntax-ns#"
   xmlns:svg="http://www.w3.org/2000/svg"
   xmlns="http://www.w3.org/2000/svg"
   xmlns:sodipodi="http://sodipodi.sourceforge.net/DTD/sodipodi-0.dtd"
   xmlns:inkscape="http://www.inkscape.org/namespaces/inkscape"
   version="1.1"
   id="Layer_1"
   x="0px"
   y="0px"
   viewBox="0 0 50 44.051483"
   enable-background="new 0 0 50 50"
   xml:space="preserve"
   sodipodi:docname="GreatScott.svg"
   width="50"
   height="44.051483"
   inkscape:version="0.92.3 (2405546, 2018-03-11)"><metadata
   id="metadata3118"><rdf:RDF><cc:Work
       rdf:about=""><dc:format>image/svg+xml</dc:format><dc:type
         rdf:resource="http://purl.org/dc/dcmitype/StillImage" /><dc:title></dc:title></cc:Work></rdf:RDF></metadata><defs
   id="defs3116" /><sodipodi:namedview
   pagecolor="#ffffff"
   bordercolor="#666666"
   borderopacity="1"
   objecttolerance="10"
   gridtolerance="10"
   guidetolerance="10"
   inkscape:pageopacity="0"
   inkscape:pageshadow="2"
   inkscape:window-width="1920"
   inkscape:window-height="1017"
   id="namedview3114"
   showgrid="false"
   fit-margin-top="0"
   fit-margin-left="0"
   fit-margin-right="0"
   fit-margin-bottom="0"
   inkscape:zoom="17"
   inkscape:cx="25"
   inkscape:cy="21.1"
   inkscape:window-x="1912"
   inkscape:window-y="-8"
   inkscape:window-maximized="1"
   inkscape:current-layer="Layer_1" />
<path
   d="m 11.6,42.051484 c 0,1.1 -0.8,2 -1.7,2 H 6.3 c -0.9,0 -1.7,-0.9 -1.7,-2 v -9.3 c 0,-1.1 0.8,-2 1.7,-2 h 3.5 c 0.9,0 1.7,0.9 1.7,2 v 9.3 z"
   id="path3055"
   inkscape:connector-curvature="0"
   style="fill:#1e1e1e" />
<path
   d="m 45.9,42.051484 c 0,1.1 -0.8,2 -1.7,2 h -3.5 c -0.9,0 -1.7,-0.9 -1.7,-2 v -9.3 c 0,-1.1 0.8,-2 1.7,-2 h 3.5 c 0.9,0 1.7,0.9 1.7,2 z"
   id="path3057"
   inkscape:connector-curvature="0"
   style="fill:#1e1e1e" />
<path
   d="m 46.6,33.551484 c 0,0.4 -0.3,0.7 -0.6,0.7 H 4.8 c -0.3,0 -0.6,-0.3 -0.6,-0.7 l 0.7,-4.2 c 0,-0.4 0.3,-0.7 0.6,-0.7 h 39.9 c 0.3,0 0.6,0.3 0.6,0.7 z"
   id="path3059"
   inkscape:connector-curvature="0"
   style="fill:#1e1e1e" />
<path
   d="m 45.9,28.051484 c 0,0.4 -0.3,0.7 -0.6,0.7 H 5.4 c -0.3,0 -0.6,-0.3 -0.6,-0.7 l 2.9,-4.5 c 0,-0.4 0.3,-0.7 0.6,-0.7 h 34.1 c 0.3,0 0.6,0.3 0.6,0.7 z"
   id="path3061"
   inkscape:connector-curvature="0"
   style="fill:#a0a1a2" />
<path
   d="m 42.6,22.451484 c 0,0.4 -0.3,0.7 -0.6,0.7 H 8.7 c -0.3,0 -0.6,-0.3 -0.6,-0.7 l 4.9,-5 c 0,-0.4 0.3,-0.7 0.6,-0.7 H 37 c 0.3,0 0.6,0.3 0.6,0.7 z"
   id="path3063"
   inkscape:connector-curvature="0"
   style="fill:#a0a1a2" />
<path
   d="m 42.2,22.251484 c 0,0.4 -0.3,0.6 -0.6,0.6 H 9.2 c -0.3,0 -0.6,-0.3 -0.6,-0.6 l 4.9,-4.5 c 0,-0.4 0.3,-0.6 0.6,-0.6 h 22.7 c 0.3,0 0.6,0.3 0.6,0.6 z"
   id="path3065"
   inkscape:connector-curvature="0"
   style="fill:#59b4d9" />
<path
   d="m 45.7,36.951484 c 0,0.2 -0.3,0.4 -0.6,0.4 H 5.7 c -0.3,0 -0.6,-0.2 -0.6,-0.4 l -0.9,-2.5 c 0,-0.2 0.3,-0.4 0.6,-0.4 H 46 c 0.3,0 0.6,0.2 0.6,0.4 z"
   id="path3067"
   inkscape:connector-curvature="0"
   style="fill:#7a7a7a" />
<path
   d="m 45.7,37.951484 c 0,0.2 -0.3,0.4 -0.6,0.4 H 5.7 c -0.3,0 -0.6,-0.2 -0.6,-0.4 l -0.9,-2.5 c 0,-0.2 0.3,-0.4 0.6,-0.4 H 46 c 0.3,0 0.6,0.2 0.6,0.4 z"
   id="path3069"
   inkscape:connector-curvature="0"
   style="fill:#1e1e1e" />
<path
   d="m 45.3,39.151484 c 0,0.1 -0.3,0.3 -0.6,0.3 H 6.1 c -0.3,0 -0.6,-0.1 -0.6,-0.3 l -0.2,-1.6 c 0,-0.1 0.3,-0.3 0.6,-0.3 h 38.9 c 0.3,0 0.6,0.1 0.6,0.3 z"
   id="path3071"
   inkscape:connector-curvature="0"
   style="fill:#7a7a7a" />
<path
   d="m 11.3,32.551484 c 0,0.4 -0.3,0.7 -0.6,0.7 H 6.4 c -0.3,0 -0.6,-0.3 -0.6,-0.7 v -2.2 c 0,-0.4 0.3,-0.7 0.6,-0.7 h 4.3 c 0.3,0 0.6,0.3 0.6,0.7 z"
   id="path3073"
   inkscape:connector-curvature="0"
   style="fill:#e5e5e5" />
<path
   d="m 18.4,32.551484 c 0,0.4 -0.3,0.7 -0.6,0.7 h -4.3 c -0.3,0 -0.6,-0.3 -0.6,-0.7 v -2.2 c 0,-0.4 0.3,-0.7 0.6,-0.7 h 4.3 c 0.3,0 0.6,0.3 0.6,0.7 z"
   id="path3075"
   inkscape:connector-curvature="0"
   style="fill:#e5e5e5" />
<path
   d="m 28.2,32.051484 c 0,0.1 -0.3,0.3 -0.6,0.3 h -4.3 c -0.3,0 -0.6,-0.1 -0.6,-0.3 v -0.9 c 0,-0.1 0.3,-0.2 0.6,-0.2 h 4.3 c 0.3,0 0.6,0.1 0.6,0.2 z"
   id="path3077"
   inkscape:connector-curvature="0"
   style="fill:#e5e5e5" />
<path
   d="m 14.1,36.351484 c 0,0.1 -0.2,0.1 -0.6,0.1 H 9.2 c -0.3,0 -0.7,0 -0.7,-0.1 v -0.7 c 0,-0.1 0.3,-0.1 0.7,-0.1 h 4.3 c 0.3,0 0.6,0 0.6,0.1 z"
   id="path3079"
   inkscape:connector-curvature="0"
   style="fill:#ff8c00" />
<path
   d="m 42.6,36.351484 c 0,0.1 -0.3,0.1 -0.6,0.1 h -4.3 c -0.3,0 -0.6,0 -0.6,-0.1 v -0.7 c 0,-0.1 0.3,-0.1 0.6,-0.1 H 42 c 0.3,0 0.6,0 0.6,0.1 z"
   id="path3081"
   inkscape:connector-curvature="0"
   style="fill:#ff8c00" />
<path
   d="m 38,32.551484 c 0,0.4 -0.3,0.7 -0.6,0.7 h -4.3 c -0.3,0 -0.6,-0.3 -0.6,-0.7 v -2.2 c 0,-0.4 0.3,-0.7 0.6,-0.7 h 4.3 c 0.3,0 0.6,0.3 0.6,0.7 z"
   id="path3083"
   inkscape:connector-curvature="0"
   style="fill:#e5e5e5" />
<path
   d="m 44.9,32.551484 c 0,0.4 -0.3,0.7 -0.6,0.7 H 40 c -0.3,0 -0.6,-0.3 -0.6,-0.7 v -2.2 c 0,-0.4 0.3,-0.7 0.6,-0.7 h 4.3 c 0.3,0 0.6,0.3 0.6,0.7 z"
   id="path3085"
   inkscape:connector-curvature="0"
   style="fill:#e5e5e5" />
<g
   id="g3091"
   transform="translate(0,-2.0485163)">
	<g
   id="g3089">
		<path
   d="M 22,17.8 21,13.1 C 20.6,12.5 17.5,7.8 11.4,7.1 4.6,6.4 0.9,11 0.9,11.1 L 0,10.5 C 0.2,10.3 4.1,5.3 11.5,6.1 18.6,6.9 21.9,12.4 22,12.7 l 0.1,0.2 1,4.7 z"
   id="path3087"
   inkscape:connector-curvature="0"
   style="fill:#1e1e1e" />
	</g>
</g>
<path
   d="m 21.5,10.851484 c 0,0 -2.3,-4.0000003 -7.2,-5.7000003 0.2,-0.3 0.2,-0.7 0.1,-1.1 L 13.6,0.95148372 c -0.2,-0.7 -0.9,-1.1 -1.5,-0.9 l -0.7,0.3 c -0.6,0.2 -1,0.99999998 -0.8,1.69999998 l 0.4,2.5 c -7,-0.5 -10,3.6 -10,3.6 l 1,2.8000003 9.8,-4.0000003 c 0,0 2.2,0.3 4.2,1.6 1.8,1.1 3.5,3.1000003 3.5,3.1000003 l 1,3.9 h 2.1 z"
   id="path3093"
   inkscape:connector-curvature="0"
   style="clip-rule:evenodd;fill:#a0a1a2;fill-rule:evenodd" />
<path
   d="m 7.5,7.3514837 c 0,0.4 -3.8,2 -4.1,2 -0.3,0 -0.6,-0.3 -0.6,-0.7 0,-0.4 3.8,-2 4.1,-2 0.4,0 0.6,0.3 0.6,0.7 z"
   id="path3095"
   inkscape:connector-curvature="0"
   style="clip-rule:evenodd;fill:#1e1e1e;fill-rule:evenodd" />
<g
   id="g3101"
   transform="translate(0,-2.0485163)">
	<g
   id="g3099">
		<path
   d="M 28,17.8 26.9,17.6 28,12.7 C 28.1,12.5 31.4,6.9 38.5,6.1 46,5.3 49.8,10.3 50,10.5 l -0.9,0.7 c 0,0 -3.7,-4.7 -10.5,-4 -6.1,0.7 -9.2,5.4 -9.6,6 z"
   id="path3097"
   inkscape:connector-curvature="0"
   style="fill:#1e1e1e" />
	</g>
</g>
<path
   d="m 28.5,10.851484 c 0,0 2.3,-4.0000003 7.2,-5.7000003 -0.2,-0.3 -0.2,-0.7 -0.1,-1.1 l 0.8,-3.09999998 c 0.2,-0.7 0.9,-1.1 1.5,-0.9 l 0.7,0.3 c 0.6,0.2 1,0.99999998 0.8,1.69999998 l -0.4,2.5 c 7,-0.5 10,3.6 10,3.6 L 48,10.951484 38.2,6.9514837 c 0,0 -2.2,0.3 -4.2,1.6 -1.8,1.1 -3.5,3.1000003 -3.5,3.1000003 l -1,3.9 h -2.1 z"
   id="path3103"
   inkscape:connector-curvature="0"
   style="clip-rule:evenodd;fill:#a0a1a2;fill-rule:evenodd" />
<path
   d="m 42.7,7.3514837 c 0,0.4 3.6,1.9 3.9,1.9 0.3,0 0.6,-0.3 0.6,-0.7 0,-0.4 -3.6,-1.9 -3.9,-1.9 -0.3,0.1 -0.6,0.4 -0.6,0.7 z"
   id="path3105"
   inkscape:connector-curvature="0"
   style="clip-rule:evenodd;fill:#1e1e1e;fill-rule:evenodd" />
<path
   d="m 24.1,23.051484 c 0,0.1 -0.1,0.1 -0.2,0.1 l -9.9,-1.1 c -0.1,0 -0.1,0 -0.1,-0.1 v -0.1 c 0,-0.1 0.1,-0.2 0.2,-0.2 l 9.9,1.1 c 0,0 0.1,0.1 0.1,0.3 z"
   id="path3107"
   inkscape:connector-curvature="0"
   style="fill:#1e1e1e" />
<path
   d="m 35.4,23.051484 c 0,0.1 -0.1,0.1 -0.2,0.1 l -9.9,-1.1 c -0.1,0 -0.1,0 -0.1,-0.1 v -0.1 c 0,-0.1 0.1,-0.2 0.2,-0.2 l 9.9,1.1 c 0.1,0 0.2,0.1 0.1,0.3 z"
   id="path3109"
   inkscape:connector-curvature="0"
   style="fill:#1e1e1e" />
<path
   d="m 37.6,16.751484 c 0,0.1 -0.2,0.1 -0.5,0.1 H 13.6 c -0.3,0 -0.5,0 -0.5,-0.1 l 2.5,-1 c 0,-0.1 0.2,-0.1 0.5,-0.1 h 18.5 c 0.3,0 0.5,0 0.5,0.1 z"
   id="path3111"
   inkscape:connector-curvature="0"
   style="fill:#a0a1a2" />
</svg>