<?xml version="1.0" encoding="utf-8"?>
<!-- Generator: Adobe Illustrator 17.0.1, SVG Export Plug-In . SVG Version: 6.00 Build 0)  -->
<!DOCTYPE svg PUBLIC "-//W3C//DTD SVG 1.1//EN" "http://www.w3.org/Graphics/SVG/1.1/DTD/svg11.dtd">
<svg version="1.1" id="Layer_1" xmlns="http://www.w3.org/2000/svg" xmlns:xlink="http://www.w3.org/1999/xlink" x="0px" y="0px"
	 width="50px" height="50px" viewBox="0 0 50 50" enable-background="new 0 0 50 50" xml:space="preserve">
<path fill="#FFFFFF" d="M22.83,4.368C17.124,4.97,12.221,7.816,8.877,11.947c-3.345,4.134-5.106,9.52-4.508,15.227
	c0.604,5.703,3.449,10.604,7.581,13.949c4.134,3.346,9.52,5.109,15.222,4.509c5.705-0.601,10.606-3.451,13.955-7.581
	c3.34-4.132,5.106-9.519,4.505-15.225c-0.608-5.751-3.528-10.669-7.724-14.064c-3.531-2.859-8.032-4.51-12.856-4.51
	C24.319,4.252,23.578,4.29,22.83,4.368"/>
<path fill="#A0A1A2" d="M49.859,22.381c-0.728-6.937-4.271-12.883-9.273-16.928c-0.971-0.786-2.018-1.472-3.1-2.1L35.523,7.13
	c0.83,0.493,1.636,1.024,2.385,1.632c4.196,3.395,7.116,8.312,7.723,14.063c0.602,5.706-1.165,11.093-4.504,15.226
	c-3.349,4.131-8.25,6.98-13.955,7.581c-3.82,0.4-7.489-0.277-10.744-1.761l-1.961,3.774c3.976,1.851,8.479,2.708,13.151,2.214
	c6.862-0.719,12.796-4.164,16.814-9.133C48.453,35.763,50.587,29.239,49.859,22.381"/>
<path fill="#A0A1A2" d="M11.951,41.123c-4.133-3.346-6.978-8.247-7.581-13.949C3.771,21.466,5.532,16.08,8.878,11.946
	c3.343-4.13,8.246-6.977,13.951-7.578c4.613-0.484,9.016,0.574,12.694,2.76l1.963-3.776c-4.416-2.564-9.661-3.787-15.105-3.214
	C15.522,0.861,9.588,4.305,5.569,9.27L5.562,9.279c-4.018,4.965-6.144,11.484-5.423,18.338c0.723,6.859,4.164,12.796,9.135,16.815
	c1.582,1.282,3.335,2.346,5.194,3.212l1.961-3.774C14.826,43.14,13.315,42.227,11.951,41.123"/>
<path opacity="0.2" fill="#FFFFFF" enable-background="new    " d="M11.951,41.123c-4.133-3.346-6.978-8.247-7.581-13.949
	C3.771,21.466,5.532,16.08,8.878,11.946c3.343-4.13,8.246-6.977,13.951-7.578c4.613-0.484,9.016,0.574,12.694,2.76l1.963-3.776
	c-4.416-2.564-9.661-3.787-15.105-3.214C15.522,0.861,9.588,4.305,5.569,9.27L5.562,9.279c-4.018,4.965-6.144,11.484-5.423,18.338
	c0.723,6.859,4.164,12.796,9.135,16.815c1.582,1.282,3.335,2.346,5.194,3.212l1.961-3.774C14.826,43.14,13.315,42.227,11.951,41.123
	"/>
<polygon fill="#BA141A" points="29.678,27.103 25,12.803 25,12.802 25,12.802 25,12.801 25,12.803 20.322,27.104 25,27.104 
	25,27.103 "/>
<polygon fill="#3E3E3E" points="25,27.103 25,27.103 20.322,27.103 25,41.406 25,41.406 29.678,27.103 "/>
<path d="M27.834,12.422h-1.433l-2.596-3.959c-0.154-0.231-0.258-0.406-0.318-0.523h-0.016c0.022,0.234,0.035,0.574,0.035,1.019
	v3.463h-1.341V6.12h1.529l2.5,3.837l0.318,0.514h0.016c-0.022-0.153-0.035-0.442-0.035-0.865V6.12h1.341
	C27.834,6.12,27.834,12.422,27.834,12.422z"/>
<polygon opacity="0.3" fill="#FFFFFF" enable-background="new    " points="29.678,27.103 29.678,27.103 29.678,27.103 25,12.801 
	25,27.103 25,27.103 25,41.406 29.678,27.103 "/>
</svg>
