<?xml version="1.0" encoding="utf-8"?>
<!-- Generator: Adobe Illustrator 19.1.0, SVG Export Plug-In . SVG Version: 6.00 Build 0)  -->
<svg version="1.1" id="Layer_1" xmlns="http://www.w3.org/2000/svg" xmlns:xlink="http://www.w3.org/1999/xlink" x="0px" y="0px"
	 width="50px" height="50px" viewBox="17 -17 50 50" enable-background="new 17 -17 50 50" xml:space="preserve">
<path fill="#3999C6" d="M59.78-2.597L24.775,32.408c-0.828,0.828-2.172,0.828-3,0l-4.154-4.154c-0.828-0.828-0.828-2.172,0-3
	L52.626-9.75c0.828-0.828,2.172-0.828,3,0l4.154,4.154C60.608-4.768,60.608-3.425,59.78-2.597z"/>
<rect x="38.629" y="0.943" transform="matrix(0.7071 -0.7071 0.7071 0.7071 8.6522 32.8904)" opacity="0.6" fill="#0072C6" width="10.8" height="10.117"/>
<rect x="34.727" y="-8.938" transform="matrix(0.7071 0.7071 -0.7071 0.7071 14.9421 -34.6789)" fill="#7A7A7A" width="29.211" height="19.271"/>
<polygon fill="#A0A1A2" points="32.191,-2.817 31.635,-7.758 40.877,-17 45.818,-16.444 "/>
<polygon fill="#A0A1A2" points="66.473,4.212 67.03,9.153 57.788,18.395 52.847,17.838 "/>
</svg>
