<?xml version="1.0" encoding="UTF-8" standalone="no"?>
<svg
   xmlns:dc="http://purl.org/dc/elements/1.1/"
   xmlns:cc="http://creativecommons.org/ns#"
   xmlns:rdf="http://www.w3.org/1999/02/22-rdf-syntax-ns#"
   xmlns:svg="http://www.w3.org/2000/svg"
   xmlns="http://www.w3.org/2000/svg"
   xmlns:sodipodi="http://sodipodi.sourceforge.net/DTD/sodipodi-0.dtd"
   xmlns:inkscape="http://www.inkscape.org/namespaces/inkscape"
   version="1.1"
   id="Layer_1"
   x="0px"
   y="0px"
   width="50.200001"
   height="38.77597"
   viewBox="0 0 50.200001 38.77597"
   enable-background="new 0 0 50 50"
   xml:space="preserve"
   inkscape:version="0.91 r13725"
   sodipodi:docname="Azure HDInsight_COLOR.svg"><metadata
     id="metadata27"><rdf:RDF><cc:Work
         rdf:about=""><dc:format>image/svg+xml</dc:format><dc:type
           rdf:resource="http://purl.org/dc/dcmitype/StillImage" /><dc:title></dc:title></cc:Work></rdf:RDF></metadata><defs
     id="defs25" /><sodipodi:namedview
     pagecolor="#ffffff"
     bordercolor="#666666"
     borderopacity="1"
     objecttolerance="10"
     gridtolerance="10"
     guidetolerance="10"
     inkscape:pageopacity="0"
     inkscape:pageshadow="2"
     inkscape:window-width="1920"
     inkscape:window-height="1018"
     id="namedview23"
     showgrid="false"
     fit-margin-top="0"
     fit-margin-left="0"
     fit-margin-right="0"
     fit-margin-bottom="0"
     inkscape:zoom="14.656481"
     inkscape:cx="16.072365"
     inkscape:cy="21.245451"
     inkscape:window-x="-8"
     inkscape:window-y="-8"
     inkscape:window-maximized="1"
     inkscape:current-layer="Layer_1" /><polygon
     points="7.9,17.7 5.3,20.8 3.9,22.3 2.5,22.8 2.1,21.9 2.8,21 2.9,19.7 3.4,19.7 3.8,20.1 3.7,18.8 3.2,18.4 3.2,17.9 2,18.6 0.8,19.9 0.6,21.1 1.1,22.1 1.5,23.7 2.4,24.1 3.4,24.1 4.3,23.5 3.7,26.6 4.3,30 3.6,31.6 1.5,33.9 1.8,35.4 2.9,37 4.8,38.3 5.9,38.5 7,38.5 6.3,41.5 8.9,42.6 12.2,43 13.3,42.2 13.4,40.3 14.7,38.2 14.8,36.5 17.8,36.8 20.6,36.5 17.8,38.2 18.3,40.2 20,43 21.8,43.7 23.1,43.2 23.7,42 26.6,39.8 27.2,40.3 31.7,40.5 32.6,39.7 32.7,38.4 32.4,37.9 32.2,34.4 30.7,31.4 30.9,30 31.8,30.5 34.4,32.9 35.6,33 37,32.4 38.4,31.4 39.1,29.1 43.1,29.4 45.6,28.4 47.6,26.6 49,23.9 49.4,20.7 49.1,17.1 48.3,13.8 47.5,12.7 46.4,12.4 44.5,14.5 42.8,15.1 41.3,12.6 39.8,11.2 38.9,10.7 35.7,7.9 33,6.5 30.4,6.3 27.3,6.8 24.6,7.8 22.8,9.3 21.3,11.1 19.8,11.5 17.2,14 13.7,14.6 10.6,16 "
     id="polygon3"
     style="clip-rule:evenodd;fill:#fcd116;fill-rule:evenodd"
     transform="translate(0,-5.4873818)" /><polygon
     points="3.9,20.7 3.7,20.8 4.1,21.3 4.2,20.7 "
     id="polygon5"
     style="fill:#1e1e1e"
     transform="translate(0,-5.4873818)" /><path
     d="M 49.7,11.412618 C 49.5,9.9126182 49.1,8.4126182 48.5,7.4126182 48.4,7.3126182 48.3,7.1126182 48.2,7.0126182 47.9,6.7126182 47.5,6.5126182 47.1,6.3126182 46.7,6.1126182 46.2,6.1126182 45.8,6.3126182 45.7,6.4126182 45.6,6.4126182 45.5,6.5126182 45.3,6.7126182 45.1,7.0126182 44.9,7.3126182 44.7,7.6126182 44.4,8.0126182 44.2,8.2126182 43.9,8.5126182 43.5,8.6126182 43.1,8.8126182 42.9,8.4126182 42.8,8.0126182 42.5,7.7126182 42.2,7.3126182 42,6.9126182 41.6,6.5126182 41.3,6.2126182 41.1,6.0126182 40.8,5.7126182 40.5,5.5126182 40.2,5.3126182 39.9,5.1126182 39,4.5126182 38.3,3.9126182 37.5,3.2126182 37.2,2.9126182 36.8,2.6126182 36.5,2.3126182 34.7,0.81261822 33,0.11261822 31.2,0.01261822 29.4,-0.08738178 27.5,0.41261822 25.2,1.3126182 24.1,1.8126182 23.3,2.3126182 22.6,2.9126182 21.9,3.5126182 21.4,4.2126182 20.7,5.1126182 20.3,5.1126182 20,5.2126182 19.7,5.3126182 19.3,5.4126182 19,5.7126182 18.5,6.1126182 18.2,6.4126182 17.9,6.7126182 17.6,6.9126182 L 17.6,6.9126182 C 17.3,7.2126182 17.1,7.4126182 16.8,7.7126182 14.7,8.0126182 13.1,8.4126182 11.6,9.0126182 10.1,9.6126182 8.7,10.412618 7.3,11.612618 6.7,12.112618 6.2,12.612618 5.8,13.212618 5.4,13.812618 5,14.312618 4.7,14.912618 4.4,15.212618 4.1,15.512618 3.8,15.812618 3.5,16.112618 3.2,16.312618 2.8,16.412618 L 2.8,16.412618 C 2.6,16.512618 2.5,16.512618 2.5,16.512618 2.5,16.512618 2.5,16.412618 2.5,16.412618 3,15.912618 3.1,15.212618 3.1,14.512618 3.2,14.612618 3.2,14.712618 3.3,14.812618 3.4,14.912618 3.4,15.012618 3.5,15.112618 L 3.7,14.912618 4,15.012618 C 4.1,14.512618 4.2,14.012618 4.1,13.412618 4,13.112618 3.9,12.812618 3.6,12.612618 3.6,12.512618 3.7,12.512618 3.7,12.412618 3.8,12.212618 3.9,12.012618 3.9,11.712618 L 3.7,11.612618 3.7,11.612618 3.9,11.712618 4.2,11.512618 3.8,11.612618 C 3.2,11.712618 2,12.412618 1.1,13.312618 0.8,13.612618 0.5,14.012618 0.3,14.412618 0,14.912618 0,15.312618 0,15.712618 0.1,16.112618 0.3,16.412618 0.6,16.812618 0.7,17.112618 0.7,17.312618 0.8,17.512618 0.9,17.712618 1,17.912618 1,18.112618 1.3,18.612618 1.7,19.012618 2.1,19.112618 2.5,19.212618 2.9,19.212618 3.3,19.112618 3.2,19.612618 3.2,20.112618 3.1,20.612618 3.1,21.312618 3.1,22.112618 3.2,23.012618 3.2,23.212618 3.2,23.412618 3.3,23.612618 3.3,23.812618 3.4,24.012618 3.4,24.212618 3.3,24.412618 3.2,24.612618 3.2,24.812618 3.1,25.112618 3,25.512618 2.8,25.812618 2.5,26.112618 2.3,26.312618 2,26.612618 1.8,26.812618 1.5,27.112618 1.3,27.312618 1.3,27.312618 1.2,27.412618 1.1,27.512618 0.6,28.012618 0.5,28.112618 0.6,28.912618 0.7,29.412618 0.9,29.912618 1.1,30.512618 1.3,31.012618 1.7,31.412618 2.1,31.912618 2.8,32.512618 3.7,33.112618 4.6,33.512618 5.1,33.712618 5.7,33.812618 6.2,33.712618 6.2,33.812618 6.2,33.912618 6.1,33.912618 6,34.112618 5.9,34.312618 5.8,34.612618 5.2,36.012618 5.8,36.712618 6.8,37.112618 7.3,37.312618 7.9,37.512618 8.4,37.612618 8.5,37.612618 8.6,37.712618 8.8,37.712618 9.4,37.912618 10.6,38.212618 11.6,38.312618 12.7,38.412618 13.7,38.112618 14,37.112618 14.1,36.712618 14.2,36.412618 14.2,36.112618 14.2,35.812618 14.2,35.512618 14.2,35.212618 14.5,34.512618 14.7,34.312618 14.9,34.012618 14.9,33.912618 15,33.912618 15,33.812618 15.2,33.412618 15.4,33.212618 15.4,32.912618 15.4,32.612618 15.4,32.312618 15.4,31.912618 15.4,31.912618 15.4,31.812618 15.4,31.712618 16,31.812618 16.7,31.812618 17.3,31.812618 17.6,31.812618 17.9,31.812618 18.3,31.812618 18.2,31.812618 18.1,31.912618 18,31.912618 18,31.912618 17.9,31.912618 17.9,32.012618 17,32.412618 17,33.312618 17.3,34.112618 17.5,34.912618 18,35.712618 18.4,36.112618 19.1,37.112618 19.7,38.012618 20.4,38.412618 21.2,38.912618 22.1,38.912618 23.3,38.312618 23.9,38.012618 24.1,37.612618 24.3,37.212618 24.4,37.112618 24.5,36.912618 24.6,36.812618 24.8,36.612618 25.4,36.112618 26.1,35.612618 26.3,35.412618 26.5,35.312618 26.8,35.112618 27,35.212618 27.1,35.312618 27.4,35.412618 27.7,35.512618 28.1,35.512618 28.5,35.512618 28.8,35.512618 29.9,35.512618 30.6,35.512618 30.8,35.512618 31,35.512618 31.1,35.512618 31.8,35.512618 32.4,35.512618 32.8,35.212618 33.3,34.912618 33.5,34.512618 33.6,33.712618 33.6,33.312618 33.6,33.112618 33.6,32.912618 33.6,32.712618 33.5,32.512618 33.3,32.212618 33.3,31.812618 33.3,31.512618 33.3,31.112618 33.3,30.712618 33.3,30.312618 33.3,30.012618 33.3,29.612618 33.2,29.212618 33.1,28.812618 33,28.412618 32.9,28.112618 32.7,27.712618 32.6,27.412618 32.5,27.212618 32.4,26.912618 L 32.2,27.012618 32.2,27.012618 32.4,26.912618 32.4,26.912618 C 32.3,26.512618 32.1,26.112618 31.9,25.712618 31.9,25.612618 31.9,25.512618 31.9,25.412618 32,25.512618 32.2,25.712618 32.3,25.812618 L 32.9,26.412618 C 33.3,26.812618 33.7,27.212618 34.2,27.512618 34.7,27.812618 35.2,28.012618 35.9,27.912618 36.6,27.912618 37.4,27.612618 38.1,27.112618 38.7,26.612618 39.2,26.012618 39.5,25.312618 39.6,25.112618 39.6,24.912618 39.7,24.712618 39.7,24.512618 39.8,24.412618 39.8,24.212618 40.8,24.412618 42,24.412618 43,24.312618 44,24.212618 45.1,23.912618 45.9,23.512618 47.2,22.812618 48.1,21.812618 48.8,20.612618 L 48.8,20.612618 C 49.6,19.312618 50,17.712618 50.2,16.112618 50.1,14.912618 50,13.112618 49.7,11.412618 Z M 34.7,23.512618 C 34.4,24.512618 33.9,26.212618 35.3,26.512618 35.8,26.612618 36.1,26.612618 36.8,26.212618 36.2,26.312618 35.9,26.312618 35.5,26.212618 35.1,26.112618 34.9,25.912618 34.8,25.612618 34.9,25.712618 35.1,25.712618 35.5,25.812618 36.5,26.012618 37.5,25.612618 37.7,24.812618 37.8,24.412618 37.8,24.212618 38,23.612618 38.2,23.712618 38.4,23.712618 38.7,23.812618 38.6,24.212618 38.4,24.612618 38.3,25.112618 38,26.212618 36.7,27.112618 35.5,27.012618 34.4,27.012618 33.8,26.312618 33,25.712618 32.5,25.312618 32,24.812618 31.5,24.412618 30.2,24.012618 29.1,23.512618 27.9,22.612618 28.8,23.612618 29.4,24.212618 30.6,24.712618 30.4,26.512618 29.8,27.812618 29.3,29.512618 29.1,30.312618 27.2,33.412618 26.6,33.712618 26.2,33.912618 23.9,35.912618 23.4,36.212618 23.1,36.612618 22.8,37.212618 22.3,37.512618 20.8,38.312618 19.8,36.812618 19,35.512618 18.6,34.912618 17.6,33.212618 18.5,32.712618 19.3,32.312618 19.8,31.912618 20.7,31.412618 20.8,31.612618 21,31.912618 21.2,32.112618 21.2,31.812618 21.1,31.612618 21.1,31.312618 21,30.812618 21,30.512618 21.1,30.012618 21.1,29.612618 21.2,29.112618 21.2,28.712618 21.1,29.212618 20.8,29.612618 20.7,30.112618 20.6,30.312618 20.6,30.412618 20.6,30.612618 18.7,31.012618 16.7,31.012618 14.8,30.712618 14.7,30.012618 14.5,29.212618 14.4,28.712618 14.4,29.312618 14.4,31.012618 14.4,31.912618 14.4,32.612618 14.4,32.912618 14,33.512618 13.7,34.112618 13.5,34.212618 13,35.212618 13,35.812618 13,36.212618 12.9,36.812618 12.6,37.812618 9.9,37.012618 9.2,36.812618 8.3,36.612618 6.5,36.212618 6.9,35.012618 7.3,34.012618 7.6,32.912618 7.8,31.412618 6.2,29.112618 4.7,25.912618 4.4,23.012618 4.2,20.812618 4.3,19.412618 4.8,18.112618 5.6,16.012618 6.6,14.112618 8.3,12.612618 10.6,10.612618 12.7,9.8126182 16.1,9.3126182 15.3,10.212618 14.5,11.212618 13.6,12.212618 12.7,13.212618 12.2,14.312618 11.6,15.412618 10.8,17.012618 10.8,17.612618 11.9,18.912618 12.8,20.112618 13.3,20.612618 13.6,21.812618 13.3,22.512618 13.2,23.012618 13.1,23.912618 14.2,25.112618 15,25.912618 16,26.112618 17,26.312618 17.9,26.312618 18.8,25.812618 20.8,24.812618 22.7,23.412618 25,23.312618 26.1,20.712618 26,18.512618 25.4,15.912618 25.1,14.212618 24.9,12.512618 24.8,10.812618 24.4,12.612618 24.3,14.212618 24.6,16.012618 25,18.212618 25.3,20.612618 24.2,22.512618 22.1,22.712618 20.3,23.912618 18.4,24.912618 17.6,25.312618 16.9,25.312618 16,25.112618 15.4,25.012618 14.9,24.512618 14,23.512618 14,22.512618 14.2,22.112618 14.6,21.212618 15.3,19.812618 16.1,18.512618 17,17.112618 16,18.412618 15,19.512618 14.2,20.712618 13.9,19.812618 13.4,19.312618 12.7,18.312618 12,17.312618 11.9,16.912618 12.4,15.712618 13,14.512618 13.4,13.512618 14.4,12.512618 16,10.712618 17.5,8.8126182 19.3,7.0126182 20.3,6.1126182 20.7,6.1126182 21.9,5.9126182 23.1,5.7126182 24.2,5.5126182 25.4,5.2126182 24.2,5.4126182 23.1,5.5126182 22,5.5126182 22,5.5126182 22,5.5126182 22,5.5126182 23.1,4.1126182 23.7,3.3126182 25.5,2.5126182 29.9,0.61261822 32.7,0.41261822 36.1,3.3126182 37,4.1126182 37.8,4.8126182 38.7,5.4126182 38.4,5.4126182 38.1,5.5126182 37.7,5.6126182 38.2,5.5126182 38.7,5.6126182 39.2,5.7126182 39.3,5.8126182 39.5,5.9126182 39.6,6.0126182 40.2,6.4126182 40.6,6.6126182 41,7.2126182 41.5,7.8126182 41.8,8.5126182 42.2,9.2126182 42,9.1126182 41.8,9.1126182 41.6,9.0126182 41.5,8.9126182 41.3,8.9126182 41.2,8.9126182 40.9,8.9126182 40.7,8.9126182 40.4,9.1126182 40.4,9.1126182 40.4,9.1126182 40.4,9.1126182 40,9.3126182 39.5,9.5126182 39.1,9.5126182 39.3,9.6126182 39.7,9.6126182 39.9,9.5126182 39.9,9.5126182 40,9.5126182 40,9.5126182 39.9,9.6126182 39.9,9.8126182 39.8,10.012618 39.8,10.212618 39.8,10.512618 39.9,10.712618 39.9,10.712618 39.9,10.712618 39.9,10.712618 39.9,10.812618 40,10.812618 40,10.912618 39.8,11.012618 39.7,11.012618 39.5,11.112618 40.3,11.012618 41.1,11.012618 41.9,11.112618 42,11.412618 42,11.612618 42.1,11.912618 42,11.912618 41.9,11.912618 41.8,11.912618 41.8,11.912618 41.8,11.912618 41.8,11.912618 41.4,11.612618 41,11.612618 40.4,11.812618 38.7,12.212618 39.1,13.212618 38.3,14.712618 39.1,13.712618 39.1,12.612618 40.4,12.312618 40.7,12.212618 40.9,12.112618 41.1,12.212618 40.7,12.412618 40.4,12.712618 40.2,13.112618 39.8,14.212618 40.1,15.012618 39.6,16.012618 40.1,15.112618 40.1,14.312618 40.6,13.312618 40.8,13.012618 41.4,12.412618 41.7,12.412618 41.8,12.412618 41.9,12.412618 42,12.412618 42.1,13.012618 42.1,13.612618 42.1,14.012618 42,14.912618 41.8,16.212618 41.7,16.712618 42.2,16.112618 42.4,14.912618 42.6,14.012618 42.8,13.112618 42.8,12.012618 42.6,11.012618 42.3,9.6126182 43.7,9.9126182 44.5,9.2126182 45.1,8.7126182 45.5,8.0126182 46,7.5126182 46.5,7.0126182 47.4,7.7126182 47.6,8.3126182 48.5,10.512618 48.9,14.012618 48.7,16.312618 48.4,18.812618 47.2,21.612618 45,22.812618 42.2,24.412618 38.8,23.412618 36,22.512618 35.4,22.312618 35,22.012618 34.5,21.712618 34.8,22.212618 34.9,22.912618 34.7,23.512618 Z M 32.2,33.612618 C 32.1,34.612618 31.8,34.712618 30.8,34.712618 30.4,34.712618 28.7,34.712618 28.3,34.612618 27.7,34.512618 27.4,34.512618 27.2,34.412618 28.1,33.712618 29.7,30.912618 30,29.912618 30.3,28.912618 30.7,28.012618 30.9,27.012618 31,27.412618 31.1,27.812618 31.3,28.212618 31.6,28.912618 31.7,29.312618 31.8,30.112618 31.8,30.912618 31.8,31.712618 31.9,32.512618 32.2,33.012618 32.2,33.112618 32.2,33.612618 Z M 3,12.812618 C 2.8,13.112618 2.7,13.412618 2.7,13.612618 2.4,14.712618 2.8,15.712618 1.8,16.512618 2.3,17.412618 2.2,17.812618 3.3,17.412618 3.7,17.212618 4.1,17.012618 4.4,16.712618 4.3,17.112618 4.1,17.512618 4,17.912618 4,18.012618 4,18.012618 3.9,18.112618 3.1,18.412618 2.1,18.612618 1.7,17.812618 1.5,17.412618 1.4,17.012618 1.3,16.512618 0,15.212618 1.9,13.412618 3,12.812618 Z M 3.1,14.012618 C 3.1,13.912618 3.1,13.712618 3.2,13.612618 3.2,13.512618 3.2,13.512618 3.3,13.412618 3.6,13.612618 3.6,13.812618 3.7,14.212618 3.5,14.012618 3.3,13.912618 3.1,14.012618 Z M 4.1,25.712618 C 4.7,27.712618 5.7,29.812618 6.8,31.512618 6.8,31.512618 6.8,31.512618 6.8,31.512618 6.7,31.812618 6.6,32.112618 6.5,32.312618 5.7,33.412618 3.7,31.812618 3.1,31.212618 2.4,30.512618 2,29.712618 1.9,29.012618 1.8,28.512618 1.9,28.512618 2.3,28.112618 2.8,27.612618 3.3,27.112618 3.8,26.612618 3.9,26.312618 4,26.012618 4.1,25.712618 Z M 42.2,9.2126182 C 42.2,9.3126182 42.3,9.4126182 42.3,9.5126182 42.3,9.5126182 42.2,9.6126182 42.2,9.6126182 42.1,9.5126182 42,9.3126182 41.9,9.2126182 42,9.2126182 42.1,9.2126182 42.2,9.2126182 Z M 5,15.312618 5,15.312618 5,15.312618 5,15.312618 5,15.312618 Z M 3.4,12.912618 3.4,12.912618 3.4,12.912618 3.4,12.912618 3.4,12.912618 Z M 0.9,16.712618 0.9,16.712618 0.9,16.712618 0.9,16.712618 0.9,16.712618 Z M 14.9,31.412618 14.9,31.412618 14.9,31.412618 14.9,31.412618 14.9,31.412618 Z M 39.3,24.012618 39.3,24.012618 39.3,24.012618 39.3,24.012618 39.3,24.012618 39.3,24.012618 39.3,24.012618 Z M 48.3,20.612618 48.3,20.612618 48.3,20.612618 48.3,20.612618 48.3,20.612618 Z"
     id="path7"
     inkscape:connector-curvature="0"
     style="fill:#1e1e1e" /><path
     d="M 44.7,10.412618 C 46.1,9.9126182 46.8,8.8126182 47.1,7.4126182 46.5,8.5126182 45.7,9.5126182 44.5,10.012618 43.9,10.312618 43.5,10.212618 42.8,10.112618 43.5,10.412618 44,10.612618 44.7,10.412618 Z"
     id="path9"
     inkscape:connector-curvature="0"
     style="fill:#1e1e1e" /><path
     d="M 36.7,11.812618 C 36.3,11.812618 35.8,11.912618 35.2,12.012618 35.2,11.812618 35.1,11.712618 35.1,11.512618 34.9,11.112618 34.6,10.812618 34.2,10.712618 34.5,10.512618 34.9,10.312618 35.2,10.112618 34.4,10.512618 33.5,10.412618 32.8,10.812618 32.2,11.212618 31.4,12.512618 30.8,13.012618 31.2,12.812618 31.6,12.512618 32,12.212618 32,12.412618 32.1,12.712618 32.2,12.912618 32.4,13.212618 32.6,13.512618 32.9,13.612618 32.7,13.912618 32.5,14.212618 32.4,14.612618 33.5,13.312618 35.1,12.212618 36.7,11.812618 Z"
     id="path11"
     inkscape:connector-curvature="0"
     style="fill:#1e1e1e" /><path
     d="M 29.5,10.312618 C 29.8,9.1126182 30.2,8.0126182 32,7.2126182 29.6,7.8126182 29.2,8.8126182 29.5,10.312618 Z"
     id="path13"
     inkscape:connector-curvature="0"
     style="fill:#1e1e1e" /><path
     d="M 33.4,21.712618 C 33.3,22.012618 33.3,22.512618 33.2,22.812618 33.3,22.412618 33.5,21.912618 33.7,21.612618 33.9,21.212618 34,21.212618 34.4,21.012618 34.7,20.912618 35.2,20.612618 35.4,20.512618 35.1,20.512618 34.6,20.712618 34.3,20.712618 33.6,20.812618 33.5,21.012618 33.4,21.712618 Z"
     id="path15"
     inkscape:connector-curvature="0"
     style="fill:#1e1e1e" /><path
     d="M 20.6,8.2126182 C 19.7,9.1126182 18.9,12.012618 18.6,13.212618 19,12.212618 20.1,9.5126182 20.9,8.8126182 21.1,8.6126182 21.3,8.5126182 21.5,8.4126182 20.9,9.4126182 21,9.6126182 21.2,10.912618 21.4,9.6126182 21.8,9.0126182 22.6,8.0126182 23.4,7.8126182 24.2,7.5126182 25.1,7.2126182 24.1,7.3126182 23.2,7.4126182 22.2,7.5126182 21.3,7.7126182 21.1,7.7126182 20.6,8.2126182 Z"
     id="path17"
     inkscape:connector-curvature="0"
     style="fill:#1e1e1e" /><path
     d="M 32.5,13.312618 C 32.3,13.012618 32.5,12.612618 32.8,12.412618 33.1,12.212618 33.5,12.412618 33.7,12.712618 33.7,12.712618 33.7,12.812618 33.7,12.812618 33.4,13.012618 33.1,13.312618 32.8,13.612618 32.7,13.612618 32.5,13.512618 32.5,13.312618"
     id="path19"
     inkscape:connector-curvature="0"
     style="clip-rule:evenodd;fill:#fffacb;fill-rule:evenodd" /><path
     d="M 39.9,10.412618 C 39.9,10.112618 40.2,9.9126182 40.4,9.9126182 40.7,9.9126182 40.9,10.212618 40.9,10.412618 40.9,10.512618 40.9,10.512618 40.9,10.612618 40.6,10.612618 40.4,10.712618 40.1,10.812618 40,10.812618 39.9,10.612618 39.9,10.412618"
     id="path21"
     inkscape:connector-curvature="0"
     style="clip-rule:evenodd;fill:#fffacb;fill-rule:evenodd" /></svg>