<?xml version="1.0" encoding="UTF-8" standalone="no"?>
<!-- Generator: Adobe Illustrator 17.1.0, SVG Export Plug-In . SVG Version: 6.00 Build 0)  -->

<svg
   xmlns:dc="http://purl.org/dc/elements/1.1/"
   xmlns:cc="http://creativecommons.org/ns#"
   xmlns:rdf="http://www.w3.org/1999/02/22-rdf-syntax-ns#"
   xmlns:svg="http://www.w3.org/2000/svg"
   xmlns="http://www.w3.org/2000/svg"
   xmlns:sodipodi="http://sodipodi.sourceforge.net/DTD/sodipodi-0.dtd"
   xmlns:inkscape="http://www.inkscape.org/namespaces/inkscape"
   version="1.1"
   id="Layer_1"
   x="0px"
   y="0px"
   viewBox="0 0 48.062035 40.83913"
   enable-background="new 0 0 50 50"
   xml:space="preserve"
   sodipodi:docname="HeartPulse.svg"
   width="48.062035"
   height="40.83913"
   inkscape:version="0.92.3 (2405546, 2018-03-11)"><metadata
   id="metadata3950"><rdf:RDF><cc:Work
       rdf:about=""><dc:format>image/svg+xml</dc:format><dc:type
         rdf:resource="http://purl.org/dc/dcmitype/StillImage" /><dc:title></dc:title></cc:Work></rdf:RDF></metadata><defs
   id="defs3948" /><sodipodi:namedview
   pagecolor="#ffffff"
   bordercolor="#666666"
   borderopacity="1"
   objecttolerance="10"
   gridtolerance="10"
   guidetolerance="10"
   inkscape:pageopacity="0"
   inkscape:pageshadow="2"
   inkscape:window-width="1920"
   inkscape:window-height="1017"
   id="namedview3946"
   showgrid="false"
   fit-margin-top="0"
   fit-margin-left="0"
   fit-margin-right="0"
   fit-margin-bottom="0"
   inkscape:zoom="17"
   inkscape:cx="24.054189"
   inkscape:cy="20.2"
   inkscape:window-x="1912"
   inkscape:window-y="-8"
   inkscape:window-maximized="1"
   inkscape:current-layer="Layer_1" />
<path
   d="m 44.454189,2.9391304 c -4.8,-5.2 -14.6,-2.99999997 -20.4,5.1 -7.2,-8.59999997 -15.8000001,-10.3 -20.7000001,-5.1 -5,5.4 -3.69999999,11.6999996 -0.7,16.8999996 l 5.1,-0.1 4.9000001,-0.2 3.7,-9.7999996 c 0.2,-0.6 0.6,-1.7 2.1,-1.7 1.6,0 1.7,1.2 1.7,1.8 l 0.1,16.2999996 2.6,-5.5 c 0.2,-0.5 0.7,-0.8 1.2,-0.8 h 15.6 c 0.7,0 1.3,0.7 1.3,1.4 0,0.7 -0.6,1.7 -1.3,1.7 h -14 l -5,10 c -0.3,1 -0.8,1.3 -1.9,1.2 v 0 c -0.6,-0.1 -1.1,-1 -1.1,-1.6 l -0.2,-15 -1.5,4.1 c -0.1,0.5 -0.6,1.3 -1.1,1.4 h -4.6 -6.2000001 c 6.1000001,8.9 16.6000001,16.4 19.6000001,17.7 v 0.1 0 0 -0.1 c 6,-2.2 34.3,-23.2 20.8,-37.7999996 z"
   id="path3943"
   inkscape:connector-curvature="0"
   style="fill:#59b4d9" />
</svg>