<?xml version="1.0" encoding="UTF-8" standalone="no"?>
<!-- Generator: Adobe Illustrator 17.0.1, SVG Export Plug-In . SVG Version: 6.00 Build 0)  -->

<svg
   xmlns:dc="http://purl.org/dc/elements/1.1/"
   xmlns:cc="http://creativecommons.org/ns#"
   xmlns:rdf="http://www.w3.org/1999/02/22-rdf-syntax-ns#"
   xmlns:svg="http://www.w3.org/2000/svg"
   xmlns="http://www.w3.org/2000/svg"
   xmlns:sodipodi="http://sodipodi.sourceforge.net/DTD/sodipodi-0.dtd"
   xmlns:inkscape="http://www.inkscape.org/namespaces/inkscape"
   version="1.1"
   id="Layer_1"
   x="0px"
   y="0px"
   width="45.000565"
   height="38.306068"
   viewBox="0 0 45.000565 38.306068"
   enable-background="new 0 0 50 50"
   xml:space="preserve"
   sodipodi:docname="Heart.svg"
   inkscape:version="0.92.3 (2405546, 2018-03-11)"><metadata
   id="metadata3884"><rdf:RDF><cc:Work
       rdf:about=""><dc:format>image/svg+xml</dc:format><dc:type
         rdf:resource="http://purl.org/dc/dcmitype/StillImage" /><dc:title></dc:title></cc:Work></rdf:RDF></metadata><defs
   id="defs3882" /><sodipodi:namedview
   pagecolor="#ffffff"
   bordercolor="#666666"
   borderopacity="1"
   objecttolerance="10"
   gridtolerance="10"
   guidetolerance="10"
   inkscape:pageopacity="0"
   inkscape:pageshadow="2"
   inkscape:window-width="1920"
   inkscape:window-height="1017"
   id="namedview3880"
   showgrid="false"
   fit-margin-top="0"
   fit-margin-left="0"
   fit-margin-right="0"
   fit-margin-bottom="0"
   inkscape:zoom="12.020815"
   inkscape:cx="12.62041"
   inkscape:cy="16.138485"
   inkscape:window-x="1912"
   inkscape:window-y="-8"
   inkscape:window-maximized="1"
   inkscape:current-layer="Layer_1" />
<path
   d="m 41.701114,2.7900673 c -0.8,-0.872 -1.755,-1.513 -2.807,-1.95 -4.855,-2.022 -11.869,0.495 -16.261,6.731 -6.757,-8.151 -14.8349997,-9.681 -19.3309997,-4.781 -8.986,9.7839997 2.267,22.6399997 11.1429997,29.9379997 3.498,2.877 6.627,4.891 8.003,5.514 v 0.064 c 0.012,-0.002 0.038,-0.023 0.047,-0.025 0,0 0.049,0.023 0.066,0.025 v -0.064 c 4.856,-2.202 31.661,-21.81 19.14,-35.4519997"
   id="path3875"
   inkscape:connector-curvature="0"
   style="fill:#ba141a" />
<path
   enable-background="new    "
   d="m 22.632114,7.5720673 c -6.756,-8.151 -14.8319997,-9.683 -19.3299997,-4.78 -8.986,9.7829997 2.268,22.6379997 11.1429997,29.9369997 l 24.449,-31.8879997 c -4.856,-2.022 -11.869,0.495 -16.262,6.731"
   id="path3877"
   inkscape:connector-curvature="0"
   style="opacity:0.2;fill:#ffffff" />
</svg>