<?xml version="1.0" encoding="UTF-8" standalone="no"?>
<!-- Generator: Adobe Illustrator 17.1.0, SVG Export Plug-In . SVG Version: 6.00 Build 0)  -->

<svg
   xmlns:dc="http://purl.org/dc/elements/1.1/"
   xmlns:cc="http://creativecommons.org/ns#"
   xmlns:rdf="http://www.w3.org/1999/02/22-rdf-syntax-ns#"
   xmlns:svg="http://www.w3.org/2000/svg"
   xmlns="http://www.w3.org/2000/svg"
   xmlns:sodipodi="http://sodipodi.sourceforge.net/DTD/sodipodi-0.dtd"
   xmlns:inkscape="http://www.inkscape.org/namespaces/inkscape"
   version="1.1"
   id="Layer_1"
   x="0px"
   y="0px"
   height="39"
   width="50"
   viewBox="0 0 50 39"
   enable-background="new 0 0 50 50"
   xml:space="preserve"
   sodipodi:docname="Image.svg"
   inkscape:version="0.92.3 (2405546, 2018-03-11)"><metadata
   id="metadata4275"><rdf:RDF><cc:Work
       rdf:about=""><dc:format>image/svg+xml</dc:format><dc:type
         rdf:resource="http://purl.org/dc/dcmitype/StillImage" /><dc:title></dc:title></cc:Work></rdf:RDF></metadata><defs
   id="defs4273" /><sodipodi:namedview
   pagecolor="#ffffff"
   bordercolor="#666666"
   borderopacity="1"
   objecttolerance="10"
   gridtolerance="10"
   guidetolerance="10"
   inkscape:pageopacity="0"
   inkscape:pageshadow="2"
   inkscape:window-width="1920"
   inkscape:window-height="1017"
   id="namedview4271"
   showgrid="false"
   fit-margin-top="0"
   fit-margin-left="0"
   fit-margin-right="0"
   fit-margin-bottom="0"
   inkscape:zoom="17"
   inkscape:cx="25"
   inkscape:cy="19"
   inkscape:window-x="1912"
   inkscape:window-y="-8"
   inkscape:window-maximized="1"
   inkscape:current-layer="Layer_1" />
<rect
   y="0"
   width="50"
   height="39"
   id="rect4254"
   x="0"
   style="fill:#7a7a7a" />
<rect
   x="2.2"
   y="2.1999998"
   width="45.700001"
   height="34.799999"
   id="rect4256"
   style="fill:#59b4d9" />
<rect
   x="2.2"
   y="2.1999998"
   width="45.700001"
   height="34.799999"
   id="rect4258"
   style="fill:#59b4d9" />
<path
   d="M 47.8,22.3 44.5,19 c -1.3,-1.3 -3.4,-1.3 -4.8,0 L 21.9,37 h 26 V 22.3 Z"
   id="path4260"
   inkscape:connector-curvature="0"
   style="fill:#b8d432" />
<path
   d="M 47.8,22.3 44.5,19 c -1.3,-1.3 -3.4,-1.3 -4.8,0 L 21.9,37 h 26 V 22.3 Z"
   id="path4262"
   inkscape:connector-curvature="0"
   style="opacity:0.25;fill:#ffffff" />
<path
   d="m 43.1,37 -14,-14 c -1,-1 -2.7,-1 -3.7,0 l -14,14 z"
   id="path4264"
   inkscape:connector-curvature="0"
   style="fill:#7fba00" />
<path
   d="m 43.1,37 -14,-14 c -1,-1 -2.7,-1 -3.7,0 l -14,14 z"
   id="path4266"
   inkscape:connector-curvature="0"
   style="opacity:0.25;fill:#ffffff" />
<path
   d="m 27.6,17.3 c 0,-1.4 -1.1,-2.5 -2.4,-2.5 -0.1,0 -0.2,0 -0.3,0 0.1,-0.6 0.2,-1.1 0.2,-1.7 0,-3.6 -2.9,-6.6 -6.5,-6.6 -2.9,0 -5.3,1.9 -6.2,4.5 -0.5,-0.2 -0.9,-0.3 -1.5,-0.3 -2.5,0 -4.4,2 -4.4,4.5 0,2.5 2,4.5 4.4,4.5 0,0 0,0 0,0 v 0 h 14.4 v 0 c 1.3,-0.1 2.3,-1.1 2.3,-2.4"
   id="path4268"
   inkscape:connector-curvature="0"
   style="opacity:0.62999998;fill:#ffffff" />
</svg>