<?xml version="1.0" encoding="utf-8"?>
<!-- Generator: Adobe Illustrator 17.1.0, SVG Export Plug-In . SVG Version: 6.00 Build 0)  -->
<!DOCTYPE svg PUBLIC "-//W3C//DTD SVG 1.1//EN" "http://www.w3.org/Graphics/SVG/1.1/DTD/svg11.dtd">
<svg version="1.1" id="Layer_1" xmlns="http://www.w3.org/2000/svg" xmlns:xlink="http://www.w3.org/1999/xlink" x="0px" y="0px"
	 width="50px" height="50px" viewBox="0 0 50 50" enable-background="new 0 0 50 50" xml:space="preserve">
<path fill="#A0A1A2" d="M48,0H2C0.9,0,0,0.9,0,2v7.3v0.3V48c0,1.1,0.9,2,2,2h46c1.1,0,2-0.9,2-2V9.6V9.3V2C50,0.9,49.1,0,48,0z"/>
<g>
	<path fill="#0072C6" d="M25,21.9c3.3,0,6.5,1.3,8.9,3.7c4.9,4.9,4.9,12.8,0,17.7C31.5,45.7,28.4,47,25,47c-3.3,0-6.5-1.3-8.9-3.7
		c-0.8-0.8-0.8-2.1,0-3c0.8-0.8,2.1-0.8,3,0c1.6,1.6,3.7,2.4,5.9,2.4s4.3-0.9,5.9-2.4c3.3-3.3,3.3-8.6,0-11.8
		c-1.6-1.6-3.7-2.4-5.9-2.4s-4.3,0.9-5.9,2.4c-0.8,0.8-2.1,0.8-3,0c-0.8-0.8-0.8-2.1,0-3C18.5,23.2,21.7,21.9,25,21.9z"/>
</g>
<g>
	<circle fill="#68217A" cx="24.9" cy="34.5" r="4.5"/>
</g>
<polygon fill="#FFFFFF" points="26.3,13.6 33.2,7 33.2,10.6 24.9,19.4 16.6,10.6 16.6,7.1 23.4,13.6 23.4,0 26.3,0 "/>
<path fill="#68217A" d="M23.5,32.2H0v4.2h23.5c1.2,0,2.1-0.9,2.1-2.1S24.7,32.2,23.5,32.2z"/>
<path fill="#0072C6" d="M50,32.2H35.7c-1.2,0-2.1,0.9-2.1,2.1s0.9,2.1,2.1,2.1H50V32.2z"/>
<g opacity="0.2">
	<g>
		<g>
			<path fill="#FFFFFF" d="M2,0C0.9,0,0,0.9,0,2v7.3V20v28c0,1.1,0.9,2,2,2h2.2L43.6,0H2z"/>
		</g>
	</g>
</g>
</svg>
