<?xml version="1.0" encoding="UTF-8" standalone="no"?>
<!-- Generator: Adobe Illustrator 17.0.1, SVG Export Plug-In . SVG Version: 6.00 Build 0)  -->

<svg
   xmlns:dc="http://purl.org/dc/elements/1.1/"
   xmlns:cc="http://creativecommons.org/ns#"
   xmlns:rdf="http://www.w3.org/1999/02/22-rdf-syntax-ns#"
   xmlns:svg="http://www.w3.org/2000/svg"
   xmlns="http://www.w3.org/2000/svg"
   xmlns:sodipodi="http://sodipodi.sourceforge.net/DTD/sodipodi-0.dtd"
   xmlns:inkscape="http://www.inkscape.org/namespaces/inkscape"
   version="1.1"
   id="Layer_1"
   x="0px"
   y="0px"
   width="44.493999"
   height="44.493"
   viewBox="0 0 44.493999 44.493"
   enable-background="new 0 0 50 50"
   xml:space="preserve"
   sodipodi:docname="Info_2.svg"
   inkscape:version="0.92.3 (2405546, 2018-03-11)"><metadata
   id="metadata4554"><rdf:RDF><cc:Work
       rdf:about=""><dc:format>image/svg+xml</dc:format><dc:type
         rdf:resource="http://purl.org/dc/dcmitype/StillImage" /><dc:title></dc:title></cc:Work></rdf:RDF></metadata><defs
   id="defs4552" /><sodipodi:namedview
   pagecolor="#ffffff"
   bordercolor="#666666"
   borderopacity="1"
   objecttolerance="10"
   gridtolerance="10"
   guidetolerance="10"
   inkscape:pageopacity="0"
   inkscape:pageshadow="2"
   inkscape:window-width="1920"
   inkscape:window-height="1017"
   id="namedview4550"
   showgrid="false"
   fit-margin-top="0"
   fit-margin-left="0"
   fit-margin-right="0"
   fit-margin-bottom="0"
   inkscape:zoom="17"
   inkscape:cx="22.247"
   inkscape:cy="22.246"
   inkscape:window-x="1912"
   inkscape:window-y="-8"
   inkscape:window-maximized="1"
   inkscape:current-layer="Layer_1" />
<path
   d="m 44.494,22.247 c 0,12.287 -9.96,22.246 -22.247,22.246 C 9.96,44.493 0,34.534 0,22.247 0,9.96 9.96,0 22.247,0 34.533,0 44.494,9.961 44.494,22.247"
   id="path4541"
   inkscape:connector-curvature="0"
   style="fill:#3999c6" />
<path
   d="M 22.247,0 C 9.96,0 0,9.961 0,22.247 0,27.513 1.84,32.343 4.897,36.153 L 37.667,6.233 C 33.667,2.382 28.239,0 22.247,0"
   id="path4543"
   inkscape:connector-curvature="0"
   style="fill:#59b4d9" />
<path
   d="m 26.114,16.765 v 16.098 c 0,1.434 0.166,2.35 0.499,2.749 0.333,0.398 0.985,0.626 1.956,0.684 v 0.782 H 17.597 v -0.782 c 0.898,-0.029 1.564,-0.29 1.999,-0.782 0.289,-0.333 0.434,-1.217 0.434,-2.651 V 21.001 c 0,-1.433 -0.166,-2.349 -0.498,-2.748 -0.334,-0.398 -0.979,-0.627 -1.935,-0.684 v -0.804 z"
   id="path4545"
   inkscape:connector-curvature="0"
   style="fill:#ffffff" />
<path
   d="m 23.073,6.924 c 0.94,0 1.737,0.33 2.39,0.989 0.651,0.659 0.976,1.451 0.976,2.378 0,0.927 -0.329,1.717 -0.987,2.369 -0.659,0.651 -1.453,0.977 -2.379,0.977 -0.928,0 -1.717,-0.326 -2.369,-0.977 -0.652,-0.652 -0.978,-1.442 -0.978,-2.369 0,-0.927 0.326,-1.719 0.978,-2.378 0.652,-0.659 1.441,-0.989 2.369,-0.989"
   id="path4547"
   inkscape:connector-curvature="0"
   style="fill:#ffffff" />
</svg>