<?xml version="1.0" encoding="utf-8"?>
<!-- Generator: Adobe Illustrator 17.0.1, SVG Export Plug-In . SVG Version: 6.00 Build 0)  -->
<!DOCTYPE svg PUBLIC "-//W3C//DTD SVG 1.1//EN" "http://www.w3.org/Graphics/SVG/1.1/DTD/svg11.dtd">
<svg version="1.1" id="Layer_1" xmlns="http://www.w3.org/2000/svg" xmlns:xlink="http://www.w3.org/1999/xlink" x="0px" y="0px"
	 width="50px" height="50px" viewBox="0 0 50 50" enable-background="new 0 0 50 50" xml:space="preserve">
<path fill-rule="evenodd" clip-rule="evenodd" fill="#59B4D9" d="M13.796,14.204l7.511-5.841v11.682L13.796,14.204z M2.841,18.466
	V9.943l4.261,4.261L2.841,18.466z M21.307,0L10.034,11.273L2.841,5.682L0,7.102v14.205l2.841,1.42l7.193-5.591l11.273,11.273
	l7.102-2.841V2.841L21.307,0z"/>
<path fill="#59B4D9" d="M45.694,25.261l-3.977-1.068l-1.057-3.977l4.057-4.057c-2.398-0.648-5.068-0.034-6.943,1.852
	c-1.898,1.886-2.5,4.568-1.841,6.977L24.989,35.932c-2.409-0.659-5.091-0.045-6.989,1.841c-1.875,1.875-2.489,4.546-1.841,6.943
	l4.057-4.057l3.977,1.057l1.057,3.977l-4.057,4.057c2.398,0.648,5.068,0.034,6.943-1.852c1.977-1.966,2.557-4.807,1.739-7.296
	l10.727-10.727c2.489,0.818,5.33,0.239,7.307-1.739c1.875-1.875,2.489-4.546,1.841-6.943L45.694,25.261z"/>
</svg>
