<?xml version="1.0" encoding="utf-8"?>
<!-- Generator: Adobe Illustrator 17.1.0, SVG Export Plug-In . SVG Version: 6.00 Build 0)  -->
<!DOCTYPE svg PUBLIC "-//W3C//DTD SVG 1.1//EN" "http://www.w3.org/Graphics/SVG/1.1/DTD/svg11.dtd">
<svg version="1.1" id="Layer_1" xmlns="http://www.w3.org/2000/svg" xmlns:xlink="http://www.w3.org/1999/xlink" x="0px" y="0px"
	 viewBox="0 0 50 50" enable-background="new 0 0 50 50" xml:space="preserve">
<path fill="#7A7A7A" d="M48,0H2C0.9,0,0,0.9,0,2v6.6v0.7V48c0,1.1,0.9,2,2,2h46c1.1,0,2-0.9,2-2V9.3V8.6V2C50,0.9,49.1,0,48,0z"/>
<path opacity="0.1" fill="#FFFFFF" d="M2,0C0.9,0,0,0.9,0,2v7.3v3.3V48c0,1.1,0.9,2,2,2h19.2L43.6,0H2z"/>
<path fill-rule="evenodd" clip-rule="evenodd" fill="#E5E5E5" d="M34.6,23.8H15.4c-0.8,0-1.5,0.7-1.5,1.7v7.2l2.6,0.7v-7h16.9v7
	l2.6-0.7v-7.2C36.1,24.5,35.4,23.8,34.6,23.8z"/>
<polygon fill-rule="evenodd" clip-rule="evenodd" fill="#E5E5E5" points="26.3,26.2 23.7,26.2 23.7,19.1 26.3,19.1 "/>
<path fill-rule="evenodd" clip-rule="evenodd" fill="#59B4D9" d="M29.3,8h-8.5c-0.9,0-1.7,0.7-1.7,1.7v8c0,0.9,0.7,1.7,1.7,1.7h8.5
	c0.9,0,1.7-0.7,1.7-1.7v-8C30.9,8.7,30.2,8,29.3,8z"/>
<path fill-rule="evenodd" clip-rule="evenodd" fill="#59B4D9" d="M19.4,30.7h-8.5c-0.9,0-1.7,0.7-1.7,1.7v8c0,0.9,0.7,1.7,1.7,1.7
	h8.5c0.9,0,1.7-0.7,1.7-1.7v-8C21.1,31.5,20.3,30.7,19.4,30.7z"/>
<path fill-rule="evenodd" clip-rule="evenodd" fill="#59B4D9" d="M39.1,30.7h-8.5c-0.9,0-1.7,0.7-1.7,1.7v8c0,0.9,0.7,1.7,1.7,1.7
	h8.5c0.9,0,1.7-0.7,1.7-1.7v-8C40.7,31.5,40,30.7,39.1,30.7z"/>
</svg>
