<?xml version="1.0" encoding="UTF-8" standalone="no"?>
<!-- Generator: Adobe Illustrator 17.0.1, SVG Export Plug-In . SVG Version: 6.00 Build 0)  -->

<svg
   xmlns:dc="http://purl.org/dc/elements/1.1/"
   xmlns:cc="http://creativecommons.org/ns#"
   xmlns:rdf="http://www.w3.org/1999/02/22-rdf-syntax-ns#"
   xmlns:svg="http://www.w3.org/2000/svg"
   xmlns="http://www.w3.org/2000/svg"
   xmlns:sodipodi="http://sodipodi.sourceforge.net/DTD/sodipodi-0.dtd"
   xmlns:inkscape="http://www.inkscape.org/namespaces/inkscape"
   version="1.1"
   id="Layer_1"
   x="0px"
   y="0px"
   width="31.00325"
   height="50.0005"
   viewBox="0 0 31.00325 50.0005"
   enable-background="new 0 0 50 50"
   xml:space="preserve"
   sodipodi:docname="Key.svg"
   inkscape:version="0.92.3 (2405546, 2018-03-11)"><metadata
   id="metadata5040"><rdf:RDF><cc:Work
       rdf:about=""><dc:format>image/svg+xml</dc:format><dc:type
         rdf:resource="http://purl.org/dc/dcmitype/StillImage" /><dc:title></dc:title></cc:Work></rdf:RDF></metadata><defs
   id="defs5038" /><sodipodi:namedview
   pagecolor="#ffffff"
   bordercolor="#666666"
   borderopacity="1"
   objecttolerance="10"
   gridtolerance="10"
   guidetolerance="10"
   inkscape:pageopacity="0"
   inkscape:pageshadow="2"
   inkscape:window-width="1920"
   inkscape:window-height="1017"
   id="namedview5036"
   showgrid="false"
   fit-margin-top="0"
   fit-margin-left="0"
   fit-margin-right="0"
   fit-margin-bottom="0"
   inkscape:zoom="12.020815"
   inkscape:cx="7.5926369"
   inkscape:cy="21.63856"
   inkscape:window-x="1912"
   inkscape:window-y="-8"
   inkscape:window-maximized="1"
   inkscape:current-layer="Layer_1" />
<path
   d="m 29.33675,19.5245 c 2.222,-2.22 2.222,-5.824 0,-8.045 l -9.812,-9.813 c -2.222,-2.222 -5.824,-2.222 -8.046,0 l -9.813,9.813 c -2.221,2.221 -2.221,5.825 0,8.045 l 8.633,8.633 v 16.641 l 5.202,5.202 4.519,-4.519 v -0.033 l 2.652,-2.653 -2.629,-2.629 2.629,-2.629 -2.629,-2.629 2.629,-2.629 -2.652,-2.653 v -0.784 z m -13.835,-15.486 c 1.783,0 3.229,1.446 3.229,3.229 0,1.784 -1.446,3.229 -3.229,3.229 -1.783,0 -3.229,-1.445 -3.229,-3.229 0,-1.784 1.446,-3.229 3.229,-3.229 z"
   id="path5027"
   inkscape:connector-curvature="0"
   style="fill:#fcd116" />
<polygon
   enable-background="new    "
   points="24.758,30.008 22.728,29.008 22.728,43.961 24.758,45.961 "
   id="polygon5029"
   style="opacity:0.4;fill:#ff8c00"
   transform="translate(-10.00025,-5e-4)" />
<rect
   x="5.8677502"
   y="13.6165"
   enable-background="new    "
   width="18.639999"
   height="2.6789999"
   id="rect5031"
   style="opacity:0.5;fill:#ffffff" />
<rect
   x="5.8677502"
   y="17.9755"
   enable-background="new    "
   width="18.639999"
   height="2.6789999"
   id="rect5033"
   style="opacity:0.5;fill:#ffffff" />
</svg>