<?xml version="1.0" encoding="UTF-8" standalone="no"?>
<svg
   xmlns:dc="http://purl.org/dc/elements/1.1/"
   xmlns:cc="http://creativecommons.org/ns#"
   xmlns:rdf="http://www.w3.org/1999/02/22-rdf-syntax-ns#"
   xmlns:svg="http://www.w3.org/2000/svg"
   xmlns="http://www.w3.org/2000/svg"
   xmlns:sodipodi="http://sodipodi.sourceforge.net/DTD/sodipodi-0.dtd"
   xmlns:inkscape="http://www.inkscape.org/namespaces/inkscape"
   version="1.1"
   id="Layer_1"
   x="0px"
   y="0px"
   width="44.799999"
   height="50"
   viewBox="0 0 44.799999 50"
   enable-background="new 0 0 50 50"
   xml:space="preserve"
   inkscape:version="0.91 r13725"
   sodipodi:docname="Azure KeyVault_COLOR.svg"><metadata
     id="metadata3393"><rdf:RDF><cc:Work
         rdf:about=""><dc:format>image/svg+xml</dc:format><dc:type
           rdf:resource="http://purl.org/dc/dcmitype/StillImage" /><dc:title></dc:title></cc:Work></rdf:RDF></metadata><defs
     id="defs3391" /><sodipodi:namedview
     pagecolor="#ffffff"
     bordercolor="#666666"
     borderopacity="1"
     objecttolerance="10"
     gridtolerance="10"
     guidetolerance="10"
     inkscape:pageopacity="0"
     inkscape:pageshadow="2"
     inkscape:window-width="1920"
     inkscape:window-height="1018"
     id="namedview3389"
     showgrid="false"
     fit-margin-top="0"
     fit-margin-left="0"
     fit-margin-right="0"
     fit-margin-bottom="0"
     inkscape:zoom="17.02"
     inkscape:cx="22.4"
     inkscape:cy="25"
     inkscape:window-x="-8"
     inkscape:window-y="-8"
     inkscape:window-maximized="1"
     inkscape:current-layer="Layer_1" /><path
     d="M 44.8,27.6 C 44.8,20.3 41.3,13.9 36,9.8 36,10 36,10.3 36,10.5 36,12.7 35.4,14.8 34.5,16.6 37.1,19.5 38.7,23.3 38.7,27.5 38.7,36.5 31.4,43.8 22.4,43.8 13.4,43.8 6.1,36.5 6.1,27.5 6.1,23 7.9,19 10.8,16 10,14.3 9.5,12.4 9.5,10.4 9.5,10 9.5,9.5 9.6,9.1 3.8,13.1 0,19.9 0,27.5 0,40 10,50 22.4,50 34.8,50 44.8,40 44.8,27.6 Z"
     id="path3383"
     inkscape:connector-curvature="0"
     style="fill:#7fba00" /><g
     id="g3385"
     transform="translate(-2.6,0)"><path
       d="M 25.3,0 C 19.6,0 15,4.6 15,10.3 15,15 18.1,18.9 22.4,20.2 L 22.4,30.4 17.6,30.4 17.6,35.6 22.4,35.6 22.4,39.4 28.1,39.4 28.1,20.1 C 32.4,18.9 35.5,14.9 35.5,10.2 35.6,4.6 31,0 25.3,0 Z M 25.3,5.4 C 28,5.4 30.2,7.6 30.2,10.3 30.2,13 28,15.2 25.3,15.2 22.6,15.2 20.4,13 20.4,10.3 20.4,7.6 22.6,5.4 25.3,5.4 Z"
       id="path3387"
       inkscape:connector-curvature="0"
       style="fill:#fcd116" /></g></svg>