<?xml version="1.0" encoding="UTF-8" standalone="no"?>
<!-- Created with Inkscape (http://www.inkscape.org/) -->

<svg
   xmlns:dc="http://purl.org/dc/elements/1.1/"
   xmlns:cc="http://creativecommons.org/ns#"
   xmlns:rdf="http://www.w3.org/1999/02/22-rdf-syntax-ns#"
   xmlns:svg="http://www.w3.org/2000/svg"
   xmlns="http://www.w3.org/2000/svg"
   xmlns:sodipodi="http://sodipodi.sourceforge.net/DTD/sodipodi-0.dtd"
   xmlns:inkscape="http://www.inkscape.org/namespaces/inkscape"
   viewBox="0 174.7524 722.84631 701.96637"
   id="svg2"
   version="1.1"
   sodipodi:docname="Kubernetes.svg"
   inkscape:export-filename="/home/thockin/src/kubernetes/new.png"
   inkscape:export-xdpi="460.95001"
   inkscape:export-ydpi="460.95001"
   width="722.84631"
   height="701.96637"
   inkscape:version="0.92.3 (2405546, 2018-03-11)">
  <defs
     id="defs4" />
  <sodipodi:namedview
     id="base"
     pagecolor="#ffffff"
     bordercolor="#666666"
     borderopacity="1.0"
     inkscape:pageopacity="0.0"
     inkscape:pageshadow="2"
     inkscape:zoom="1.0119068"
     inkscape:cx="616.35487"
     inkscape:cy="295.37316"
     inkscape:document-units="px"
     inkscape:current-layer="g3052"
     showgrid="false"
     inkscape:window-width="1920"
     inkscape:window-height="1017"
     inkscape:window-x="1912"
     inkscape:window-y="-8"
     inkscape:window-maximized="1"
     inkscape:snap-global="false"
     fit-margin-top="10"
     fit-margin-left="10"
     fit-margin-right="10"
     fit-margin-bottom="10" />
  <metadata
     id="metadata7">
    <rdf:RDF>
      <cc:Work
         rdf:about="">
        <dc:format>image/svg+xml</dc:format>
        <dc:type
           rdf:resource="http://purl.org/dc/dcmitype/StillImage" />
        <dc:title></dc:title>
      </cc:Work>
    </rdf:RDF>
  </metadata>
  <g
     inkscape:label="Layer 1"
     inkscape:groupmode="layer"
     id="layer1"
     transform="translate(-6.3259079,1.2304783e-5)">
    <g
       id="g3052">
      <path
         style="fill:#326ce5;fill-opacity:1;stroke:#ffffff;stroke-width:0;stroke-miterlimit:4;stroke-dasharray:none;stroke-opacity:1"
         d="m 365.14317,175.03119 a 48.051867,47.65863 0 0 0 -18.41489,4.65996 L 95.443773,299.75752 a 48.051867,47.65863 0 0 0 -25.999381,32.3305 L 7.4508108,601.78742 a 48.051867,47.65863 0 0 0 6.5239482,36.54054 48.051867,47.65863 0 0 0 2.731703,3.79224 L 190.63558,858.37464 a 48.051867,47.65863 0 0 0 37.56894,17.93282 l 278.92291,-0.0643 A 48.051867,47.65863 0 0 0 544.69638,858.3425 L 718.56121,642.05593 A 48.051867,47.65863 0 0 0 727.849,601.72314 L 665.75901,332.02375 A 48.051867,47.65863 0 0 0 639.75963,299.69324 L 388.44298,179.69115 a 48.051867,47.65863 0 0 0 -23.29981,-4.65996 z"
         id="path3055"
         inkscape:connector-curvature="0"
         inkscape:export-filename="new.png"
         inkscape:export-xdpi="250.55"
         inkscape:export-ydpi="250.55" />
      <path
         inkscape:connector-curvature="0"
         id="path3059"
         d="m 367.6331,266.81344 c -8.30639,8.4e-4 -15.04142,7.48258 -15.04043,16.71159 10e-6,0.14164 0.029,0.27699 0.0321,0.41779 -0.0122,1.254 -0.0728,2.76472 -0.0321,3.85652 0.19809,5.32303 1.35842,9.39705 2.05681,14.30127 1.26523,10.49658 2.3254,19.19762 1.67116,27.28489 -0.63626,3.04963 -2.8825,5.83868 -4.88493,7.77731 l -0.35351,6.36326 c -9.02613,0.74783 -18.11264,2.11722 -27.18848,4.1779 -39.0533,8.8671 -72.67751,28.98363 -98.27702,56.14453 -1.6611,-1.13324 -4.56718,-3.21803 -5.43132,-3.85653 -2.68534,0.36264 -5.39934,1.1912 -8.93427,-0.86771 -6.73082,-4.53078 -12.86111,-10.78482 -20.27888,-18.31848 -3.39886,-3.60373 -5.86018,-7.03533 -9.8984,-10.50902 -0.91705,-0.78886 -2.31657,-1.85581 -3.34232,-2.66743 -3.15708,-2.51709 -6.88075,-3.8298 -10.47688,-3.95293 -4.6236,-0.15831 -9.07459,1.64941 -11.98736,5.30272 -5.17823,6.49477 -3.52035,16.42163 3.69584,22.17499 0.0732,0.0583 0.15119,0.10365 0.22496,0.16069 0.99161,0.80382 2.20589,1.83378 3.11736,2.50674 4.28523,3.16394 8.19968,4.78358 12.46942,7.29525 8.99546,5.55526 16.45281,10.16154 22.36782,15.71533 2.30982,2.46218 2.71353,6.80076 3.02094,8.67717 l 4.82065,4.30645 c -25.80621,38.83638 -37.74954,86.80717 -30.69143,135.68528 l -6.29898,1.83184 c -1.66016,2.14383 -4.00607,5.51713 -6.45973,6.52395 -7.73888,2.43754 -16.44857,3.33264 -26.96351,4.435 -4.93667,0.41049 -9.19619,0.16552 -14.42982,1.15696 -1.15189,0.21821 -2.75687,0.63635 -4.01721,0.93199 -0.0438,0.009 -0.0847,0.0222 -0.12855,0.0321 -0.0687,0.0159 -0.15895,0.0493 -0.22496,0.0643 -8.865,2.14196 -14.5599,10.29023 -12.72652,18.31848 1.83381,8.03013 10.49296,12.91345 19.41116,10.99109 0.0644,-0.0147 0.15786,-0.0172 0.22496,-0.0321 0.10068,-0.023 0.18932,-0.0719 0.28924,-0.0964 1.24319,-0.2729 2.80114,-0.57653 3.88866,-0.86772 5.14546,-1.37768 8.87199,-3.40192 13.49782,-5.17417 9.95182,-3.56936 18.19428,-6.55117 26.22435,-7.71304 3.35381,-0.26267 6.88734,2.06932 8.64503,3.05308 l 6.55609,-1.12482 c 15.0869,46.77479 46.70418,84.58125 86.73959,108.30398 l -2.7317,6.55608 c 0.98462,2.54574 2.0706,5.99016 1.33715,8.50422 -2.91931,7.5703 -7.91972,15.56078 -13.61374,24.46904 -2.757,4.1156 -5.57862,7.30951 -8.06656,12.01949 -0.59534,1.12702 -1.35357,2.85827 -1.92826,4.04935 -3.86561,8.27081 -1.03009,17.79677 6.3954,21.37156 7.47214,3.59724 16.74704,-0.19678 20.76094,-8.48435 0.006,-0.0117 0.0264,-0.0204 0.0321,-0.0321 0.004,-0.009 -0.004,-0.0231 0,-0.0321 0.57172,-1.17501 1.3817,-2.71949 1.86399,-3.82439 2.13099,-4.88186 2.84005,-9.06545 4.33858,-13.78706 3.97954,-9.99625 6.16599,-20.48484 11.64421,-27.02044 1.50012,-1.78967 3.9458,-2.47795 6.48145,-3.15684 l 3.40659,-6.17043 c 34.90228,13.39683 73.96979,16.99179 112.99608,8.13083 8.90287,-2.02141 17.49774,-4.63755 25.80655,-7.77732 0.95743,1.69824 2.73672,4.96278 3.21377,5.78478 2.57676,0.83834 5.3893,1.27126 7.6809,4.65997 4.0986,7.00239 6.90153,15.28638 10.3162,25.29235 1.49878,4.72152 2.23948,8.9053 4.37072,13.78706 0.48576,1.11269 1.29168,2.67886 1.86399,3.85652 4.00545,8.3145 13.30975,12.12148 20.79308,8.51649 7.42457,-3.57669 10.26322,-13.10179 6.39539,-21.37156 -0.57476,-1.19104 -1.365,-2.92236 -1.96039,-4.04935 -2.48819,-4.70985 -5.30935,-7.87191 -8.06656,-11.98735 -5.6945,-8.90797 -10.41742,-16.30815 -13.33714,-23.87829 -1.22083,-3.90442 0.20597,-6.33266 1.15696,-8.87 -0.56951,-0.6528 -1.7882,-4.33997 -2.50674,-6.07402 41.60662,-24.56672 72.29544,-63.78305 86.70745,-109.07528 1.94616,0.30586 5.32873,0.90434 6.42754,1.12481 2.26202,-1.4919 4.34187,-3.43849 8.42007,-3.11735 8.03012,1.16145 16.27234,4.1442 26.22435,7.71304 4.62592,1.77201 8.3523,3.82889 13.49782,5.20631 1.08753,0.29113 2.64545,0.56274 3.88866,0.83558 0.1,0.0245 0.18851,0.0734 0.28924,0.0964 0.0672,0.015 0.16059,0.0174 0.22496,0.0321 8.91871,1.91999 17.57941,-2.96048 19.41116,-10.99108 1.83133,-8.02872 -3.86094,-16.17889 -12.72652,-18.31848 -1.28955,-0.29323 -3.11838,-0.79123 -4.37072,-1.0284 -5.23368,-0.99116 -9.49313,-0.74673 -14.42982,-1.15696 -10.515,-1.10181 -19.2245,-1.99787 -26.96351,-4.435 -3.15542,-1.22409 -5.40019,-4.97876 -6.49186,-6.52395 l -6.07403,-1.76757 c 3.14925,-22.78373 2.30008,-46.4956 -3.14949,-70.22083 -5.50031,-23.94613 -15.22078,-45.84719 -28.18474,-65.14307 1.55808,-1.41641 4.5005,-4.022 5.33485,-4.78852 0.2439,-2.69871 0.0344,-5.52822 2.82812,-8.51648 5.91471,-5.5541 13.37266,-10.1596 22.36782,-15.71532 4.2696,-2.51191 8.21649,-4.13109 12.50156,-7.29526 0.96901,-0.71552 2.29221,-1.84865 3.31018,-2.66742 7.21466,-5.7553 8.87574,-15.68157 3.69583,-22.175 -5.1799,-6.49344 -15.21744,-7.10508 -22.4321,-1.34979 -1.02692,0.81332 -2.42038,1.87429 -3.34232,2.66743 -4.03803,3.47392 -6.53186,6.90512 -9.93054,10.50902 -7.41736,7.53405 -13.54829,13.81948 -20.27887,18.35062 -2.91657,1.69796 -7.18852,1.11045 -9.12715,0.99627 l -5.72051,4.08148 c -32.6198,-34.20536 -77.03238,-56.07429 -124.85468,-60.32247 -0.13375,-2.00408 -0.30898,-5.62659 -0.35351,-6.71678 -1.95779,-1.87339 -4.32282,-3.47278 -4.91706,-7.52021 -0.65425,-8.08727 0.43807,-16.78831 1.70329,-27.28489 0.69839,-4.90422 1.85872,-8.97824 2.05681,-14.30127 0.0451,-1.21005 -0.0272,-2.96593 -0.0321,-4.27431 -9.9e-4,-9.22901 -6.73404,-16.71244 -15.04044,-16.71159 z m -18.83268,116.65977 -4.46713,78.898 -0.32138,0.16069 c -0.29962,7.0583 -6.10869,12.69438 -13.24072,12.69438 -2.92151,0 -5.61812,-0.93821 -7.80946,-2.53888 l -0.12855,0.0643 -64.69315,-45.86047 c 19.88284,-19.55117 45.31455,-33.99949 74.62369,-40.65416 5.35387,-1.21561 10.70536,-2.11759 16.0367,-2.76384 z m 37.6975,0 c 34.21863,4.20856 65.86425,19.70304 90.11405,43.45014 l -64.27536,45.57123 -0.22496,-0.0964 c -5.70503,4.16679 -13.74303,3.13293 -18.18993,-2.44246 -1.82163,-2.28405 -2.77743,-4.96966 -2.89239,-7.6809 l -0.0643,-0.0321 z m -151.81839,72.88825 59.06905,52.83434 -0.0643,0.32138 c 5.33163,4.635 6.11786,12.67813 1.67115,18.2542 -1.82151,2.28414 -4.25973,3.81615 -6.87746,4.53142 l -0.0643,0.2571 -75.71637,21.85362 c -3.85373,-35.2385 4.4515,-69.49312 21.98217,-98.05206 z m 265.48936,0.0321 c 8.77651,14.22548 15.42254,30.11392 19.37902,47.3388 3.90903,17.01834 4.89006,34.00626 3.27804,50.42402 l -76.10202,-21.9179 -0.0643,-0.32138 c -6.81473,-1.86248 -11.00284,-8.79453 -9.41634,-15.74746 0.64999,-2.84829 2.16194,-5.25787 4.21004,-7.03815 l -0.0321,-0.16069 58.74768,-52.57724 z M 355.5172,513.27724 h 24.19967 l 15.04043,18.80054 -5.39913,23.46051 -21.72507,10.44474 -21.78934,-10.47688 -5.39913,-23.46051 z m 77.58035,64.33963 c 1.02838,-0.0519 2.05227,0.0407 3.05308,0.22496 l 0.12855,-0.16068 78.31953,13.24072 c -11.4621,32.20257 -33.39523,60.10021 -62.70061,78.76945 l -30.40225,-73.4346 0.0964,-0.12855 c -2.79275,-6.48923 0.002,-14.09899 6.42754,-17.19366 1.64509,-0.79229 3.3638,-1.23101 5.07775,-1.31764 z m -131.53951,0.32138 c 5.97682,0.0838 11.33778,4.23214 12.72652,10.31619 0.65015,2.84825 0.33371,5.67037 -0.73917,8.16297 l 0.22496,0.28924 -30.08086,72.69543 C 255.56551,651.355 233.16467,624.3332 221.1817,591.17902 l 77.64463,-13.17645 0.12855,0.16069 c 0.8685,-0.15982 1.74932,-0.23694 2.60316,-0.22496 z m 65.593,31.84849 c 2.08195,-0.0765 4.1945,0.35066 6.20257,1.31764 2.63221,1.26754 4.6656,3.26333 5.94547,5.65623 h 0.28924 l 38.27597,69.16029 c -4.96749,1.66522 -10.07435,3.08838 -15.29753,4.27431 -29.27309,6.64648 -58.45316,4.63263 -84.87561,-4.37073 l 38.17956,-69.03173 h 0.0643 c 2.29095,-4.2827 6.63576,-6.83773 11.21605,-7.00601 z"
         style="font-style:normal;font-variant:normal;font-stretch:normal;font-size:medium;line-height:normal;-inkscape-font-specification:Sans;text-indent:0;text-align:start;text-decoration:none;text-decoration-line:none;letter-spacing:normal;word-spacing:normal;text-transform:none;writing-mode:lr-tb;direction:ltr;baseline-shift:baseline;text-anchor:start;display:inline;visibility:visible;fill:#ffffff;fill-opacity:1;stroke:#ffffff;stroke-width:0.25710142;stroke-miterlimit:4;stroke-dasharray:none;stroke-opacity:1;marker:none;enable-background:accumulate"
         sodipodi:nodetypes="ccccccccsccccscssccsccccccccscccsccccccccccccccscccscsccsccccscscsccccccccscccscsccccsccccscscscccccccccccccccscccsccccccccccccscccccscccccccccccccccccccccccscccscccccccccscccscccc"
         inkscape:export-filename="./path3059.png"
         inkscape:export-xdpi="250.55"
         inkscape:export-ydpi="250.55" />
    </g>
  </g>
</svg>
