<?xml version="1.0" encoding="utf-8"?>
<svg version="1.1" id="Layer_1" xmlns="http://www.w3.org/2000/svg" xmlns:xlink="http://www.w3.org/1999/xlink" x="0px" y="0px"
	 width="50px" height="50px" viewBox="0 0 50 50" enable-background="new 0 0 50 50" xml:space="preserve">
<path fill="#7FBA00" d="M25.001,50c-1.232,0-2.392-0.48-3.261-1.352L1.351,28.26C0.492,27.401,0,26.214,0,24.999
	c0-1.214,0.492-2.402,1.351-3.26L21.74,1.351c0.871-0.872,2.029-1.352,3.261-1.352c1.231,0,2.39,0.48,3.261,1.352l20.386,20.388
	C49.521,22.607,50,23.766,50,24.999c0,1.233-0.479,2.392-1.353,3.263L28.262,48.648C27.392,49.52,26.232,50,25.001,50"/>
<path fill="#FFFFFF" d="M45.613,24.66L39,18.048v4.668l-7.016-0.006c-0.677-2.418-2.573-4.328-4.984-5.02V11h4.613L25,4.387
	L18.388,11H23v6.689c-2.407,0.692-4.301,2.596-4.981,5.008L11,22.691v-4.618l-6.613,6.613L11,31.298V26.63l7.022,0.006
	c0.683,2.407,2.574,4.305,4.978,4.996v4.636c-1,0.728-2.528,2.258-2.528,4.04c0,2.481,2.033,4.5,4.514,4.5s4.51-2.019,4.51-4.5
	c0-1.762-1.496-3.274-2.496-4.013v-4.663c2.399-0.689,4.289-2.583,4.975-4.983L39,26.655v4.618L45.613,24.66z"/>
<path fill="#59B4D9" d="M25,19.402c-2.899,0-5.258,2.359-5.258,5.258s2.359,5.258,5.258,5.258s5.258-2.358,5.258-5.258
	S27.899,19.402,25,19.402z"/>
<path opacity="0.15" fill="#FFFFFF" d="M28.262,1.351c-0.871-0.872-2.029-1.352-3.261-1.352c-1.231,0-2.389,0.48-3.26,1.352
	L1.352,21.739C0.492,22.597,0,23.785,0,24.999c0,1.215,0.492,2.403,1.352,3.261l11.543,11.544L34.61,7.698L28.262,1.351z"/>
</svg>
