<?xml version="1.0" encoding="UTF-8" standalone="no"?>
<!-- Generator: Adobe Illustrator 17.0.1, SVG Export Plug-In . SVG Version: 6.00 Build 0)  -->

<svg
   xmlns:dc="http://purl.org/dc/elements/1.1/"
   xmlns:cc="http://creativecommons.org/ns#"
   xmlns:rdf="http://www.w3.org/1999/02/22-rdf-syntax-ns#"
   xmlns:svg="http://www.w3.org/2000/svg"
   xmlns="http://www.w3.org/2000/svg"
   xmlns:sodipodi="http://sodipodi.sourceforge.net/DTD/sodipodi-0.dtd"
   xmlns:inkscape="http://www.inkscape.org/namespaces/inkscape"
   version="1.1"
   id="Layer_1"
   x="0px"
   y="0px"
   width="23.156"
   height="50.000999"
   viewBox="0 0 23.156 50.000999"
   enable-background="new 0 0 50 50"
   xml:space="preserve"
   sodipodi:docname="Location.svg"
   inkscape:version="0.92.3 (2405546, 2018-03-11)"><metadata
   id="metadata5634"><rdf:RDF><cc:Work
       rdf:about=""><dc:format>image/svg+xml</dc:format><dc:type
         rdf:resource="http://purl.org/dc/dcmitype/StillImage" /><dc:title></dc:title></cc:Work></rdf:RDF></metadata><defs
   id="defs5632" /><sodipodi:namedview
   pagecolor="#ffffff"
   bordercolor="#666666"
   borderopacity="1"
   objecttolerance="10"
   gridtolerance="10"
   guidetolerance="10"
   inkscape:pageopacity="0"
   inkscape:pageshadow="2"
   inkscape:window-width="1920"
   inkscape:window-height="1017"
   id="namedview5630"
   showgrid="false"
   fit-margin-top="0"
   fit-margin-left="0"
   fit-margin-right="0"
   fit-margin-bottom="0"
   inkscape:zoom="17"
   inkscape:cx="11"
   inkscape:cy="25.001"
   inkscape:window-x="1912"
   inkscape:window-y="-8"
   inkscape:window-maximized="1"
   inkscape:current-layer="Layer_1" />
<path
   d="m 7.666,38.421 c 0,2.161 1.752,3.914 3.913,3.914 2.162,0 3.914,-1.753 3.914,-3.914 0,-1.43 -0.775,-2.666 -1.92,-3.35 -0.662,1.107 -1.106,1.822 -1.193,1.96 l -0.801,1.286 -0.801,-1.286 c -0.086,-0.138 -0.531,-0.853 -1.193,-1.96 -1.146,0.684 -1.919,1.92 -1.919,3.35"
   id="path5619"
   inkscape:connector-curvature="0"
   style="opacity:0.8;fill:#3e3e3e" />
<path
   d="m 3.668,38.421 c 0,4.363 3.549,7.911 7.909,7.911 4.363,0 7.912,-3.548 7.912,-7.911 0,-2.896 -1.569,-5.426 -3.895,-6.804 -0.238,0.416 -0.471,0.82 -0.693,1.2 1.913,1.138 3.203,3.221 3.203,5.604 0,3.599 -2.928,6.525 -6.527,6.525 -3.598,0 -6.524,-2.926 -6.524,-6.525 0,-2.383 1.289,-4.466 3.201,-5.604 -0.221,-0.38 -0.453,-0.784 -0.69,-1.2 -2.328,1.378 -3.896,3.908 -3.896,6.804"
   id="path5621"
   inkscape:connector-curvature="0"
   style="opacity:0.5;fill:#3e3e3e" />
<path
   d="m 17.381,28.417 c -0.227,0.413 -0.448,0.816 -0.668,1.214 3.02,1.77 5.058,5.044 5.058,8.79 0,5.62 -4.574,10.192 -10.193,10.192 -5.621,0 -10.192,-4.572 -10.192,-10.192 0,-3.747 2.038,-7.02 5.057,-8.79 C 6.224,29.233 6,28.83 5.776,28.417 2.328,30.424 0,34.151 0,38.421 c 0,6.385 5.193,11.58 11.578,11.58 6.385,0 11.578,-5.195 11.578,-11.58 0,-4.27 -2.328,-7.996 -5.775,-10.004"
   id="path5623"
   inkscape:connector-curvature="0"
   style="opacity:0.2;fill:#3e3e3e" />
<path
   d="m 15.492,10.553 c 0,2.161 -1.752,3.914 -3.914,3.914 -2.161,0 -3.914,-1.753 -3.914,-3.914 0,-2.161 1.753,-3.914 3.914,-3.914 2.162,0 3.914,1.753 3.914,3.914 M 11.579,0 C 5.186,0 0.006,5.183 0.006,11.574 c 0,6.393 11.573,24.958 11.573,24.958 0,0 11.574,-18.565 11.574,-24.958 C 23.152,5.183 17.97,0 11.579,0"
   id="path5625"
   inkscape:connector-curvature="0"
   style="fill:#b8d432" />
<path
   d="m 11.579,14.466 c -2.161,0 -3.913,-1.752 -3.913,-3.913 0,-2.162 1.752,-3.914 3.913,-3.914 1.484,0 2.761,0.837 3.425,2.056 L 17.362,1.56 C 15.661,0.573 13.688,0.001 11.579,0.001 5.186,0.001 0.005,5.182 0.005,11.573 c 0,3.98 4.484,12.673 7.87,18.672 l 5.342,-16.148 c -0.501,0.231 -1.051,0.369 -1.638,0.369"
   id="path5627"
   inkscape:connector-curvature="0"
   style="opacity:0.2;fill:#ffffff" />
</svg>