<?xml version="1.0" encoding="UTF-8" standalone="no"?>
<svg
   xmlns:dc="http://purl.org/dc/elements/1.1/"
   xmlns:cc="http://creativecommons.org/ns#"
   xmlns:rdf="http://www.w3.org/1999/02/22-rdf-syntax-ns#"
   xmlns:svg="http://www.w3.org/2000/svg"
   xmlns="http://www.w3.org/2000/svg"
   xmlns:sodipodi="http://sodipodi.sourceforge.net/DTD/sodipodi-0.dtd"
   xmlns:inkscape="http://www.inkscape.org/namespaces/inkscape"
   version="1.1"
   id="Layer_1"
   x="0px"
   y="0px"
   width="50"
   height="38.799999"
   viewBox="0 0 50 38.799999"
   xml:space="preserve"
   inkscape:version="0.91 r13725"
   sodipodi:docname="Azure Logic Apps_COLOR.svg"><metadata
     id="metadata29"><rdf:RDF><cc:Work
         rdf:about=""><dc:format>image/svg+xml</dc:format><dc:type
           rdf:resource="http://purl.org/dc/dcmitype/StillImage" /><dc:title></dc:title></cc:Work></rdf:RDF></metadata><defs
     id="defs27" /><sodipodi:namedview
     pagecolor="#ffffff"
     bordercolor="#666666"
     borderopacity="1"
     objecttolerance="10"
     gridtolerance="10"
     guidetolerance="10"
     inkscape:pageopacity="0"
     inkscape:pageshadow="2"
     inkscape:window-width="1920"
     inkscape:window-height="1018"
     id="namedview25"
     showgrid="false"
     fit-margin-top="0"
     fit-margin-left="0"
     fit-margin-right="0"
     fit-margin-bottom="0"
     inkscape:zoom="10.363697"
     inkscape:cx="25.794187"
     inkscape:cy="14.543704"
     inkscape:window-x="-8"
     inkscape:window-y="-8"
     inkscape:window-maximized="1"
     inkscape:current-layer="Layer_1" /><style
     type="text/css"
     id="style3">
	.st0{fill:#59B4D9;}
	.st1{fill:#7FBA00;}
	.st2{fill:#0072C6;}
</style><path
     class="st0"
     d="M 26,15.7 26,10.7 23.5,10.7 23.5,15.7 C 23.5,16.6 22.7,17.4 21.4,17.8 L 18,18.5 C 15.7,19.2 14.1,21 14.1,23 L 14.1,28.7 16.6,28.7 16.6,23 C 16.6,22.1 17.4,21.3 18.7,20.9 L 22.1,20.1 C 24.4,19.5 26,17.7 26,15.7 Z"
     id="path5"
     inkscape:connector-curvature="0"
     style="fill:#59b4d9" /><g
     id="g7"
     transform="translate(0,-5.6)"><path
       class="st1"
       d="M 19.6,36.9 19.6,32.3 C 19.6,31.2 18.7,30.3 17.6,30.3 L 13,30.3 C 11.9,30.3 11,31.2 11,32.3 L 11,36.9 C 11,38 11.9,38.9 13,38.9 L 17.6,38.9 C 18.7,38.9 19.6,38 19.6,36.9 Z"
       id="path9"
       inkscape:connector-curvature="0"
       style="fill:#7fba00" /></g><path
     class="st0"
     d="M 23.2,15.7 23.2,10.7 25.7,10.7 25.7,15.7 C 25.7,16.6 26.5,17.4 27.8,17.8 L 32,18.7 C 34.3,19.4 35.9,21.2 35.9,23.2 L 35.9,28.9 33.4,28.9 33.4,23.2 C 33.4,22.3 32.6,21.5 31.3,21.1 L 27.1,20.2 C 24.8,19.5 23.2,17.7 23.2,15.7 Z"
     id="path11"
     inkscape:connector-curvature="0"
     style="fill:#59b4d9" /><g
     id="g13"
     transform="translate(0,-5.6)"><path
       class="st1"
       d="M 30.4,37.1 30.4,32.5 C 30.4,31.4 31.3,30.5 32.4,30.5 L 37,30.5 C 38.1,30.5 39,31.4 39,32.5 L 39,37.1 C 39,38.2 38.1,39.1 37,39.1 L 32.4,39.1 C 31.3,39.1 30.4,38.2 30.4,37.1 Z"
       id="path15"
       inkscape:connector-curvature="0"
       style="fill:#7fba00" /></g><rect
     x="23.200001"
     y="10.699999"
     class="st0"
     width="2.8"
     height="4.8000002"
     id="rect17"
     style="fill:#59b4d9" /><path
     class="st2"
     d="M 26.5,6.1 26.5,9.8 22.8,9.8 22.8,6.1 26.5,6.1 M 27.3,3.3 22,3.3 C 20.9,3.3 20,4.2 20,5.3 L 20,10.6 C 20,11.7 20.9,12.6 22,12.6 L 27.3,12.6 C 28.4,12.6 29.3,11.7 29.3,10.6 L 29.3,5.3 C 29.3,4.2 28.4,3.3 27.3,3.3 L 27.3,3.3 Z"
     id="path19"
     inkscape:connector-curvature="0"
     style="fill:#0072c6" /><path
     class="st0"
     d="M 7.9,38.8 C 5.8,38.8 4.3,38.4 3.4,37.7 2.5,36.9 2.1,35.6 2.1,33.7 L 2.1,23.3 C 2.1,21.6 1.4,20.7 0,20.7 L 0,18.1 C 1.4,18.1 2.1,17.2 2.1,15.4 L 2.1,5.2 C 2.1,3.3 2.5,1.9 3.4,1.1 4.3,0.3 5.8,0 7.9,0 L 7.9,2.6 C 6.4,2.6 5.6,3.4 5.6,5.1 L 5.6,15.1 C 5.6,17.4 4.9,18.8 3.4,19.4 L 3.4,19.4 C 4.8,20 5.6,21.4 5.6,23.7 L 5.6,33.6 C 5.6,34.5 5.8,35.2 6.1,35.6 6.5,36 7,36.2 7.8,36.2 L 7.9,38.8 C 7.8,38.8 7.9,38.8 7.9,38.8 Z"
     id="path21"
     inkscape:connector-curvature="0"
     style="fill:#59b4d9" /><path
     class="st0"
     d="M 42.1,0 C 44.2,0 45.7,0.4 46.6,1.1 47.5,1.9 47.9,3.2 47.9,5.1 L 47.9,15.5 C 47.9,17.2 48.6,18.1 50,18.1 L 50,20.7 C 48.6,20.7 47.9,21.6 47.9,23.4 L 47.9,33.5 C 47.9,35.4 47.5,36.8 46.6,37.6 45.7,38.4 44.2,38.8 42.1,38.8 L 42.1,36.2 C 43.6,36.2 44.4,35.4 44.4,33.7 L 44.4,23.7 C 44.4,21.4 45.1,20 46.6,19.4 L 46.6,19.4 C 45.2,18.8 44.4,17.4 44.4,15.1 L 44.4,5.2 C 44.4,4.3 44.2,3.6 43.9,3.2 43.5,2.8 43,2.6 42.2,2.6 L 42.1,0 42.1,0 Z"
     id="path23"
     inkscape:connector-curvature="0"
     style="fill:#59b4d9" /></svg>