<?xml version="1.0" encoding="UTF-8" standalone="no"?>
<svg
   xmlns:dc="http://purl.org/dc/elements/1.1/"
   xmlns:cc="http://creativecommons.org/ns#"
   xmlns:rdf="http://www.w3.org/1999/02/22-rdf-syntax-ns#"
   xmlns:svg="http://www.w3.org/2000/svg"
   xmlns="http://www.w3.org/2000/svg"
   xmlns:sodipodi="http://sodipodi.sourceforge.net/DTD/sodipodi-0.dtd"
   xmlns:inkscape="http://www.inkscape.org/namespaces/inkscape"
   version="1.1"
   id="Layer_1"
   x="0px"
   y="0px"
   width="23.525227"
   height="24"
   viewBox="0 0 23.525227 24"
   enable-background="new 0 0 24 24"
   xml:space="preserve"
   inkscape:version="0.91 r13725"
   sodipodi:docname="MachineLearningWebServices-color.svg"><metadata
     id="metadata17"><rdf:RDF><cc:Work
         rdf:about=""><dc:format>image/svg+xml</dc:format><dc:type
           rdf:resource="http://purl.org/dc/dcmitype/StillImage" /><dc:title></dc:title></cc:Work></rdf:RDF></metadata><defs
     id="defs15" /><sodipodi:namedview
     pagecolor="#ffffff"
     bordercolor="#666666"
     borderopacity="1"
     objecttolerance="10"
     gridtolerance="10"
     guidetolerance="10"
     inkscape:pageopacity="0"
     inkscape:pageshadow="2"
     inkscape:window-width="1920"
     inkscape:window-height="1018"
     id="namedview13"
     showgrid="false"
     fit-margin-top="0"
     fit-margin-left="0"
     fit-margin-right="0"
     fit-margin-bottom="0"
     inkscape:zoom="21.591036"
     inkscape:cx="11.29599"
     inkscape:cy="9.6477001"
     inkscape:window-x="-8"
     inkscape:window-y="-8"
     inkscape:window-maximized="1"
     inkscape:current-layer="Layer_1" /><path
     d="M 15.525227,0 C 11.446227,0 8.0872273,3.055 7.5942273,7 L 8.6062273,7 C 8.7212273,6.224 8.9602273,5.488 9.3082273,4.815 9.6722273,5.588 10.170227,6.312 10.744227,7 L 12.525227,7 12.525227,7.092 C 12.682227,7.036 12.849227,7 13.025227,7 13.852227,7 14.525227,7.673 14.525227,8.5 14.525227,9.327 13.852227,10 13.025227,10 12.849227,10 12.682227,9.964 12.525227,9.908 L 12.525227,10 11.525227,10 11.525227,10.461 C 11.640227,10.548 11.750227,10.642 11.878227,10.709 11.751227,11.2 11.633227,11.697 11.525227,12.199 L 11.525227,12.706 12.218227,13.934 C 12.380227,12.925 12.597227,11.944 12.846227,10.982 L 12.846227,10.982 C 12.906227,10.986 12.963227,11 13.025227,11 13.709227,11 14.329227,10.724 14.780227,10.278 15.630227,10.744 16.555227,11.137 17.527227,11.477 17.527227,11.485 17.525227,11.492 17.525227,11.5 17.525227,12.328 18.197227,13 19.025227,13 19.585227,13 20.067227,12.69 20.325227,12.235 20.545227,12.279 20.754227,12.341 20.978227,12.378 19.694227,13.974 17.728227,15 15.525227,15 14.398227,15 13.339227,14.723 12.395227,14.248 L 13.187227,15.651 C 13.927227,15.877 14.711227,16 15.525227,16 19.943227,16 23.525227,12.418 23.525227,8 23.525227,3.582 19.943227,0 15.525227,0 Z M 22.511227,7.714 C 21.802227,7.445 21.129227,7.136 20.496227,6.795 20.514227,6.699 20.525227,6.601 20.525227,6.5 20.525227,5.672 19.853227,5 19.025227,5 18.717227,5 18.430227,5.094 18.192227,5.253 17.393227,4.595 16.702227,3.871 16.150227,3.091 16.543227,2.456 16.960227,1.846 17.397227,1.264 20.259227,2.061 22.385227,4.63 22.511227,7.714 Z M 19.525227,6.5 C 19.525227,6.776 19.301227,7 19.025227,7 18.749227,7 18.525227,6.776 18.525227,6.5 18.525227,6.224 18.749227,6 19.025227,6 19.301227,6 19.525227,6.224 19.525227,6.5 Z M 15.525227,1 C 15.796227,1 16.063227,1.019 16.327227,1.049 16.067227,1.409 15.812227,1.777 15.568227,2.156 15.368227,1.787 15.199227,1.41 15.059227,1.023 15.213227,1.013 15.367227,1 15.525227,1 Z M 13.503227,6.048 C 13.348227,6.018 13.189227,6 13.025227,6 12.483227,6 11.985227,6.177 11.576227,6.469 L 11.577227,6.468 C 10.873227,5.634 10.314227,4.734 9.9572273,3.774 10.951227,2.467 12.395227,1.529 14.054227,1.172 14.282227,1.847 14.585227,2.5 14.972227,3.123 14.429227,4.048 13.950227,5.035 13.503227,6.048 Z M 19.025227,12 C 18.749227,12 18.525227,11.776 18.525227,11.5 18.525227,11.224 18.749227,11 19.025227,11 19.301227,11 19.525227,11.224 19.525227,11.5 19.525227,11.776 19.301227,12 19.025227,12 Z M 21.592227,11.473 C 21.224227,11.421 20.862227,11.358 20.504227,11.287 20.504227,11.287 20.504227,11.287 20.503227,11.287 20.399227,10.56 19.780227,10 19.025227,10 18.553227,10 18.137227,10.223 17.862227,10.564 16.967227,10.25 16.117227,9.883 15.334227,9.457 L 15.334227,9.457 C 15.456227,9.162 15.525227,8.839 15.525227,8.5 15.525227,7.633 15.083227,6.87 14.413227,6.422 14.777227,5.596 15.165227,4.792 15.595227,4.029 16.159227,4.758 16.835227,5.435 17.600227,6.055 L 17.600227,6.055 C 17.556227,6.196 17.525227,6.344 17.525227,6.5 17.525227,7.328 18.197227,8 19.025227,8 19.397227,8 19.732227,7.86 19.994227,7.636 20.767227,8.054 21.588227,8.428 22.460227,8.744 22.354227,9.728 22.064227,10.654 21.592227,11.473 Z"
     id="path3"
     inkscape:connector-curvature="0"
     style="fill:#a0a1a2" /><path
     d="M 11.525227,8 4.5252273,8 4.5252273,9 5.5252273,9 5.5252273,12.969 0.24522727,22.224 C -0.33077273,23.184 0.14922727,24 1.2532273,24 L 14.741227,24 C 15.893227,24 16.325227,23.232 15.749227,22.224 L 10.525227,12.969 10.525227,9 11.525227,9 11.525227,8 11.525227,8 Z"
     id="path5"
     inkscape:connector-curvature="0"
     style="fill:#59b4d9" /><path
     d="M 11.652227,17 4.3762273,17 1.1132273,22.72 C 1.0412273,22.84 1.0152273,22.921 1.0052273,22.966 1.0482273,22.981 1.1262273,23 1.2532273,23 L 14.741227,23 C 14.855227,23 14.937227,22.988 14.991227,22.975 14.976227,22.917 14.944227,22.832 14.881227,22.721 L 11.652227,17 Z"
     id="path7"
     inkscape:connector-curvature="0"
     style="fill:#0072c6" /><path
     enable-background="new    "
     d="M 4.5252273,9 5.5252273,9 5.5252273,12.969 0.24522727,22.224 C -0.33077273,23.184 0.14922727,24 1.2532273,24 L 2.7072273,24 6.5252273,17 8.5252273,13.333 8.5252273,8 4.5252273,8 4.5252273,9 Z"
     id="path9"
     inkscape:connector-curvature="0"
     style="opacity:0.25;fill:#ecf0f1" /><path
     enable-background="new    "
     d="M 3.2522273,23 6.5252273,17 4.3762273,17 1.1132273,22.72 C 1.0412273,22.84 1.0152273,22.921 1.0052273,22.966 1.0482273,22.981 1.1262273,23 1.2532273,23 L 3.2522273,23 Z"
     id="path11"
     inkscape:connector-curvature="0"
     style="opacity:0.25;fill:#ecf0f1" /></svg>