<?xml version="1.0" encoding="UTF-8" standalone="no"?>
<svg
   xmlns:dc="http://purl.org/dc/elements/1.1/"
   xmlns:cc="http://creativecommons.org/ns#"
   xmlns:rdf="http://www.w3.org/1999/02/22-rdf-syntax-ns#"
   xmlns:svg="http://www.w3.org/2000/svg"
   xmlns="http://www.w3.org/2000/svg"
   xmlns:sodipodi="http://sodipodi.sourceforge.net/DTD/sodipodi-0.dtd"
   xmlns:inkscape="http://www.inkscape.org/namespaces/inkscape"
   version="1.1"
   id="Layer_1"
   x="0px"
   y="0px"
   width="49.016544"
   height="50"
   viewBox="0 0 49.016544 50"
   enable-background="new 0 0 50 50"
   xml:space="preserve"
   inkscape:version="0.91 r13725"
   sodipodi:docname="Azure Machine Learning_COLOR.svg"><metadata
     id="metadata17"><rdf:RDF><cc:Work
         rdf:about=""><dc:format>image/svg+xml</dc:format><dc:type
           rdf:resource="http://purl.org/dc/dcmitype/StillImage" /><dc:title></dc:title></cc:Work></rdf:RDF></metadata><defs
     id="defs15" /><sodipodi:namedview
     pagecolor="#ffffff"
     bordercolor="#666666"
     borderopacity="1"
     objecttolerance="10"
     gridtolerance="10"
     guidetolerance="10"
     inkscape:pageopacity="0"
     inkscape:pageshadow="2"
     inkscape:window-width="1920"
     inkscape:window-height="1018"
     id="namedview13"
     showgrid="false"
     fit-margin-top="0"
     fit-margin-left="0"
     fit-margin-right="0"
     fit-margin-bottom="0"
     inkscape:zoom="10.363697"
     inkscape:cx="17.541921"
     inkscape:cy="24.25381"
     inkscape:window-x="-8"
     inkscape:window-y="-8"
     inkscape:window-maximized="1"
     inkscape:current-layer="Layer_1" /><path
     d="M 48.28808,44.623 32.72008,17.659 32.72008,6.743 33.00108,6.743 C 34.86308,6.743 36.37308,5.233 36.37308,3.371 36.37308,1.509 34.86308,0 33.00108,0 L 16.01608,0 C 14.15408,0 12.64408,1.51 12.64408,3.372 12.64408,5.234 14.15408,6.744 16.01608,6.744 L 16.29708,6.744 16.29708,17.659 0.72907993,44.623 C -0.97892007,47.58 0.41807993,50 3.8330799,50 L 45.18408,50 C 48.59808,50 49.99508,47.58 48.28808,44.623 Z"
     id="path3"
     inkscape:connector-curvature="0"
     style="fill:#59b4d9" /><polygon
     points="35.466,33.017 13.551,33.017 7.127,44.143 41.889,44.143 "
     id="polygon5"
     style="fill:#b8d432"
     transform="translate(7.9934474e-5,0)" /><path
     d="M 25.33408,37.532 C 27.06908,37.532 28.47508,36.126 28.47508,34.391 28.47508,33.898 28.35808,33.433 28.15508,33.017 L 22.51208,33.017 C 22.30908,33.432 22.19208,33.897 22.19208,34.391 22.19308,36.126 23.59908,37.532 25.33408,37.532 Z"
     id="path7"
     inkscape:connector-curvature="0"
     style="fill:#7fba00" /><circle
     cx="29.23208"
     cy="39.956001"
     r="1.541"
     id="circle9"
     style="fill:#7fba00" /><path
     d="M 0.72907993,44.623 16.29708,17.658 16.29708,6.743 16.01608,6.743 C 14.15408,6.743 12.64408,5.233 12.64408,3.371 12.64408,1.509 14.15308,0 16.01608,0 L 23.33508,0 23.33508,17.572 15.13008,50 3.8330799,50 C 0.41807993,50 -0.97892007,47.58 0.72907993,44.623 Z"
     id="path11"
     inkscape:connector-curvature="0"
     style="opacity:0.25;fill:#ffffff" /></svg>