<?xml version="1.0" encoding="utf-8"?>
<svg version="1.1" id="Layer_1" xmlns="http://www.w3.org/2000/svg" xmlns:xlink="http://www.w3.org/1999/xlink" x="0px" y="0px"
	 width="24px" height="24px" viewBox="0 0 24 24" enable-background="new 0 0 24 24" xml:space="preserve">
<g>
	<path fill="#A0A1A2" d="M17.148,6.148l0.008,0.008C16.948,6.052,16.729,6,16.5,6c-0.208,0-0.403,0.039-0.586,0.117
		s-0.341,0.185-0.477,0.32c-0.136,0.136-0.242,0.294-0.32,0.477C15.039,7.097,15,7.292,15,7.5s0.039,0.404,0.117,0.586
		c0.078,0.183,0.185,0.341,0.32,0.477c0.136,0.136,0.294,0.242,0.477,0.32S16.292,9,16.5,9s0.403-0.039,0.586-0.117
		s0.341-0.185,0.477-0.32c0.136-0.135,0.242-0.294,0.32-0.477C17.961,7.904,18,7.708,18,7.5c0-0.229-0.052-0.448-0.156-0.656
		l0.008,0.008l2.875-2.875l-0.703-0.703L17.148,6.148z M16.852,7.852C16.753,7.951,16.636,8,16.5,8s-0.253-0.049-0.352-0.148
		C16.05,7.753,16,7.636,16,7.5c0-0.135,0.05-0.252,0.148-0.352C16.247,7.05,16.364,7,16.5,7s0.253,0.05,0.352,0.148
		C16.95,7.248,17,7.365,17,7.5C17,7.636,16.95,7.753,16.852,7.852z"/>
	<path fill="#A0A1A2" d="M19.68,10.68l0.711,0.711c0.516-0.516,0.91-1.11,1.184-1.785c0.273-0.674,0.41-1.376,0.41-2.105
		c0-0.391-0.04-0.774-0.121-1.152C21.782,5.97,21.661,5.604,21.5,5.25l-0.906,0.406C20.864,6.255,21,6.878,21,7.523
		c0,0.599-0.114,1.169-0.344,1.711C20.427,9.776,20.102,10.258,19.68,10.68z"/>
	<path fill="#A0A1A2" d="M23.73,5.512c-0.18-0.638-0.433-1.235-0.758-1.793c-0.325-0.557-0.716-1.063-1.172-1.52
		c-0.456-0.456-0.962-0.846-1.52-1.172c-0.558-0.325-1.155-0.578-1.793-0.758S17.188,0,16.5,0s-1.351,0.09-1.988,0.27
		s-1.235,0.433-1.793,0.758c-0.558,0.326-1.063,0.716-1.52,1.172c-0.456,0.456-0.847,0.962-1.172,1.52
		C9.702,4.276,9.449,4.874,9.27,5.512C9.134,5.992,9.067,6.491,9.033,7h1c0.032-0.419,0.089-0.831,0.201-1.227
		c0.156-0.552,0.375-1.069,0.656-1.551c0.281-0.481,0.62-0.92,1.016-1.316s0.835-0.734,1.316-1.016s0.999-0.5,1.551-0.656
		S15.901,1,16.5,1c0.599,0,1.175,0.078,1.727,0.234s1.069,0.375,1.551,0.656s0.921,0.62,1.316,1.016
		c0.396,0.396,0.734,0.835,1.016,1.316c0.281,0.482,0.5,0.999,0.656,1.551C22.922,6.326,23,6.901,23,7.5s-0.078,1.175-0.234,1.727
		s-0.375,1.069-0.656,1.551c-0.281,0.482-0.62,0.921-1.016,1.316c-0.396,0.396-0.835,0.734-1.316,1.016s-0.999,0.5-1.551,0.656
		S17.099,14,16.5,14s-1.175-0.078-1.727-0.234s-1.069-0.375-1.551-0.656c-0.445-0.26-0.851-0.575-1.223-0.933v0.53l0.712,1.262
		c0.002,0.001,0.004,0.003,0.006,0.004c0.558,0.326,1.155,0.578,1.793,0.758S15.812,15,16.5,15s1.351-0.09,1.988-0.27
		s1.235-0.432,1.793-0.758c0.558-0.325,1.063-0.716,1.52-1.172c0.456-0.456,0.847-0.962,1.172-1.52
		c0.325-0.557,0.578-1.155,0.758-1.793C23.91,8.851,24,8.188,24,7.5S23.91,6.15,23.73,5.512z"/>
	<path fill="#A0A1A2" d="M12,10.651c0.182,0.259,0.379,0.51,0.609,0.74l0.711-0.711c-0.211-0.211-0.397-0.437-0.56-0.68H12V10.651z"
		/>
	<path fill="#A0A1A2" d="M16.5,2.016c-0.511,0-1,0.065-1.469,0.195c-0.469,0.13-0.906,0.314-1.312,0.551s-0.776,0.522-1.109,0.855
		s-0.62,0.703-0.859,1.109s-0.425,0.844-0.555,1.312C11.109,6.35,11.062,6.673,11.033,7H12h0.033
		c0.026-0.235,0.064-0.466,0.127-0.691c0.106-0.383,0.258-0.741,0.453-1.074c0.195-0.333,0.429-0.637,0.699-0.91
		s0.573-0.509,0.906-0.707s0.69-0.35,1.07-0.457C15.669,3.054,16.065,3,16.477,3c0.646,0,1.269,0.136,1.867,0.406L18.75,2.5
		c-0.354-0.161-0.72-0.282-1.098-0.363C17.274,2.056,16.891,2.016,16.5,2.016z"/>
</g>
<path fill="#59B4D9" d="M12,8H5v1h1v3.969l-5.28,9.255C0.144,23.184,0.624,24,1.728,24h13.488c1.152,0,1.584-0.768,1.008-1.776
	L11,12.969V9h1V8L12,8z"/>
<path fill="#0072C6" d="M12.127,17H4.851l-3.263,5.72c-0.072,0.12-0.098,0.201-0.108,0.246C1.523,22.981,1.601,23,1.728,23h13.488
	c0.114,0,0.196-0.012,0.25-0.025c-0.015-0.058-0.047-0.143-0.11-0.254L12.127,17z"/>
<path opacity="0.25" fill="#ECF0F1" enable-background="new    " d="M5,9h1v3.969l-5.28,9.255C0.144,23.184,0.624,24,1.728,24h1.454
	L7,17l2-3.667V8H5V9z"/>
<path opacity="0.25" fill="#ECF0F1" enable-background="new    " d="M3.727,23L7,17H4.851l-3.263,5.72
	c-0.072,0.12-0.098,0.201-0.108,0.246C1.523,22.981,1.601,23,1.728,23H3.727z"/>
</svg>
