<?xml version="1.0" encoding="utf-8"?>
<!-- Generator: Adobe Illustrator 17.1.0, SVG Export Plug-In . SVG Version: 6.00 Build 0)  -->
<!DOCTYPE svg PUBLIC "-//W3C//DTD SVG 1.1//EN" "http://www.w3.org/Graphics/SVG/1.1/DTD/svg11.dtd">
<svg version="1.1" id="Layer_1" xmlns="http://www.w3.org/2000/svg" xmlns:xlink="http://www.w3.org/1999/xlink" x="0px" y="0px"
	 viewBox="0 0 50 50" enable-background="new 0 0 50 50" xml:space="preserve">
<polygon fill="#7A7A7A" points="50,27.7 50,22 49.2,21.8 43.1,19.8 41.5,15.9 44.6,9.3 40.6,5.2 39.8,5.6 34.1,8.5 30.2,6.9 27.7,0 
	22,0 21.8,0.8 19.8,6.9 15.9,8.5 9.3,5.4 5.2,9.4 5.6,10.2 8.5,15.9 6.9,19.8 0,22.3 0,28 0.8,28.2 6.9,30.2 8.5,34.1 5.4,40.8 
	9.4,44.8 10.2,44.4 15.9,41.5 19.8,43.1 22.3,50 28,50 28.2,49.2 30.2,43.1 34.1,41.5 40.8,44.6 44.8,40.6 44.4,39.8 41.5,34.1 
	43.1,30.2 "/>
<path opacity="0.2" fill="#FFFFFF" enable-background="new    " d="M39.7,5.6l-5.6,2.9l-3.9-1.6L27.7,0H22l-0.3,0.8l-2,6.1l-3.9,1.6
	L9.2,5.4l-4,4l0.4,0.8l2.9,5.7l-1.6,3.9L0,22.3V28l0.8,0.3l6.1,2l1.6,3.9l-3.1,6.6l4,4l0.8-0.4l2.4-1.2l3.5-4.8l0,0l19-26.3l0,0
	L39.7,5.6z"/>
<path fill="#FFFFFF" d="M29.3,27.4v5H17.5V20.7h5v-2.5h-5.9c-0.9,0-1.7,0.8-1.7,1.7v13.4c0,0.9,0.8,1.7,1.7,1.7H30
	c0.9,0,1.7-0.8,1.7-1.7v-5.9C31.7,27.4,29.3,27.4,29.3,27.4z"/>
<polygon fill="#FFFFFF" points="36,14 28.4,14 31.3,16.8 20.5,27.6 22.4,29.5 33.2,18.8 36,21.6 "/>
</svg>
