<?xml version="1.0" encoding="UTF-8" standalone="no"?>
<svg
   xmlns:dc="http://purl.org/dc/elements/1.1/"
   xmlns:cc="http://creativecommons.org/ns#"
   xmlns:rdf="http://www.w3.org/1999/02/22-rdf-syntax-ns#"
   xmlns:svg="http://www.w3.org/2000/svg"
   xmlns="http://www.w3.org/2000/svg"
   xmlns:sodipodi="http://sodipodi.sourceforge.net/DTD/sodipodi-0.dtd"
   xmlns:inkscape="http://www.inkscape.org/namespaces/inkscape"
   version="1.1"
   id="Layer_1"
   x="0px"
   y="0px"
   width="21"
   height="24"
   viewBox="0 0 21 24"
   enable-background="new 0 0 24 24"
   xml:space="preserve"
   inkscape:version="0.92.3 (2405546, 2018-03-11)"
   sodipodi:docname="ManagedApplications.svg"><metadata
     id="metadata29"><rdf:RDF><cc:Work
         rdf:about=""><dc:format>image/svg+xml</dc:format><dc:type
           rdf:resource="http://purl.org/dc/dcmitype/StillImage" /><dc:title></dc:title></cc:Work></rdf:RDF></metadata><defs
     id="defs27" /><sodipodi:namedview
     pagecolor="#ffffff"
     bordercolor="#666666"
     borderopacity="1"
     objecttolerance="10"
     gridtolerance="10"
     guidetolerance="10"
     inkscape:pageopacity="0"
     inkscape:pageshadow="2"
     inkscape:window-width="1920"
     inkscape:window-height="1017"
     id="namedview25"
     showgrid="false"
     fit-margin-top="0"
     fit-margin-left="0"
     fit-margin-right="0"
     fit-margin-bottom="0"
     inkscape:zoom="21.591036"
     inkscape:cx="10.580845"
     inkscape:cy="6.7582484"
     inkscape:window-x="1912"
     inkscape:window-y="-8"
     inkscape:window-maximized="1"
     inkscape:current-layer="Layer_1" /><path
     d="M 2.5,23 C 2.224,23 2,22.776 2,22.5 2,22.224 2.224,22 2.5,22 L 21,22 21,0 3,0 C 1.895,0 1,0.895 1,2 L 1,22.5 C 1,23.328 1.672,24 2.5,24 L 21,24 21,23 2.5,23 Z"
     id="path3"
     inkscape:connector-curvature="0"
     style="fill:#0072c6" /><path
     d="M 1,22.5 C 1,23.328 1.672,24 2.5,24 L 21,24 21,23 2.5,23 C 2.224,23 2,22.776 2,22.5 2,22.224 2.224,22 2.5,22 L 21,22 21,21 2.5,21 C 1.672,21 1,21.672 1,22.5 Z"
     id="path5"
     inkscape:connector-curvature="0"
     style="opacity:0.5;fill:#000c82" /><path
     d="M 2.5,23 C 2.224,23 2,22.776 2,22.5 2,22.224 2.224,22 2.5,22 L 21,22 C 20.724,22 20.5,22.224 20.5,22.5 20.5,22.776 20.724,23 21,23 L 2.5,23 Z"
     id="path7"
     inkscape:connector-curvature="0"
     style="fill:#a0a1a2" /><rect
     x="0"
     y="3"
     width="3"
     height="1"
     id="rect9"
     style="fill:#a0a1a2" /><rect
     x="0"
     y="7"
     width="3"
     height="1"
     id="rect11"
     style="fill:#a0a1a2" /><rect
     x="0"
     y="11"
     width="3"
     height="1"
     id="rect13"
     style="fill:#a0a1a2" /><rect
     x="0"
     y="15"
     width="3"
     height="1"
     id="rect15"
     style="fill:#a0a1a2" /><rect
     x="0"
     y="19"
     width="3"
     height="1"
     id="rect17"
     style="fill:#a0a1a2" /><polygon
     points="12,10.141 9,8.641 9,12.86 12,14.352 "
     id="polygon19"
     style="fill:#ffffff"
     transform="translate(-1,0)" /><polygon
     points="12.5,9.273 15.383,7.836 12.5,6.398 9.617,7.836 "
     id="polygon21"
     style="fill:#ffffff"
     transform="translate(-1,0)" /><polygon
     points="13,10.141 13,14.352 16,12.86 16,8.641 "
     id="polygon23"
     style="fill:#ffffff"
     transform="translate(-1,0)" /></svg>