<?xml version="1.0" encoding="UTF-8" standalone="no"?>
<svg
   xmlns:dc="http://purl.org/dc/elements/1.1/"
   xmlns:cc="http://creativecommons.org/ns#"
   xmlns:rdf="http://www.w3.org/1999/02/22-rdf-syntax-ns#"
   xmlns:svg="http://www.w3.org/2000/svg"
   xmlns="http://www.w3.org/2000/svg"
   xmlns:sodipodi="http://sodipodi.sourceforge.net/DTD/sodipodi-0.dtd"
   xmlns:inkscape="http://www.inkscape.org/namespaces/inkscape"
   version="1.1"
   id="Layer_1"
   x="0px"
   y="0px"
   height="42.599998"
   width="50"
   viewBox="0 0 50 42.599998"
   enable-background="new 0 0 50 50"
   xml:space="preserve"
   inkscape:version="0.91 r13725"
   sodipodi:docname="Azure Management Portal_COLOR.svg"><metadata
     id="metadata25"><rdf:RDF><cc:Work
         rdf:about=""><dc:format>image/svg+xml</dc:format><dc:type
           rdf:resource="http://purl.org/dc/dcmitype/StillImage" /><dc:title></dc:title></cc:Work></rdf:RDF></metadata><defs
     id="defs23" /><sodipodi:namedview
     pagecolor="#ffffff"
     bordercolor="#666666"
     borderopacity="1"
     objecttolerance="10"
     gridtolerance="10"
     guidetolerance="10"
     inkscape:pageopacity="0"
     inkscape:pageshadow="2"
     inkscape:window-width="1920"
     inkscape:window-height="1018"
     id="namedview21"
     showgrid="false"
     fit-margin-top="0"
     fit-margin-left="0"
     fit-margin-right="0"
     fit-margin-bottom="0"
     inkscape:zoom="10.363697"
     inkscape:cx="22.318028"
     inkscape:cy="15.52327"
     inkscape:window-x="-8"
     inkscape:window-y="-8"
     inkscape:window-maximized="1"
     inkscape:current-layer="Layer_1" /><path
     d="M 0,40.6 C 0,41.7 0.9,42.6 2,42.6 L 48,42.6 C 49.1,42.6 50,41.7 50,40.6 L 50,6.3 0,6.3 0,40.6 Z"
     id="path3"
     inkscape:connector-curvature="0"
     style="fill:#1e1e1e" /><path
     d="M 0,40.6 C 0,41.7 0.9,42.6 2,42.6 L 48,42.6 C 49.1,42.6 50,41.7 50,40.6 L 50,6 0,6 0,40.6 Z"
     id="path5"
     inkscape:connector-curvature="0"
     style="opacity:0.25;fill:#0072c6" /><path
     d="M 48,0 2,0 C 0.9,0 0,0.9 0,2 L 0,8 50,8 50,2 C 50,0.9 49.1,0 48,0"
     id="path7"
     inkscape:connector-curvature="0"
     style="fill:#a0a1a2" /><rect
     x="12"
     y="12"
     width="38"
     height="26"
     id="rect9"
     style="fill:#e5e5e5" /><rect
     x="0"
     y="12"
     width="12"
     height="26"
     id="rect11"
     style="fill:#59b4d9" /><g
     id="g13"
     style="opacity:0.2"
     transform="translate(0,-3.7)"><g
       id="g15"><g
         id="g17"><path
           d="M 2,3.7 C 0.9,3.7 0,4.6 0,5.7 L 0,13 0,16.3 0,44.3 C 0,45.4 0.9,46.3 2,46.3 L 4.2,46.3 43.6,3.7 2,3.7 Z"
           id="path19"
           inkscape:connector-curvature="0"
           style="fill:#ffffff" /></g></g></g></svg>