<?xml version="1.0" encoding="UTF-8" standalone="no"?>
<svg
   xmlns:dc="http://purl.org/dc/elements/1.1/"
   xmlns:cc="http://creativecommons.org/ns#"
   xmlns:rdf="http://www.w3.org/1999/02/22-rdf-syntax-ns#"
   xmlns:svg="http://www.w3.org/2000/svg"
   xmlns="http://www.w3.org/2000/svg"
   xmlns:sodipodi="http://sodipodi.sourceforge.net/DTD/sodipodi-0.dtd"
   xmlns:inkscape="http://www.inkscape.org/namespaces/inkscape"
   version="1.1"
   id="Layer_2"
   x="0px"
   y="0px"
   width="50"
   height="42"
   viewBox="0 0 50 42"
   enable-background="new 0 0 50 50"
   xml:space="preserve"
   inkscape:version="0.91 r13725"
   sodipodi:docname="MD_snapshot.svg"><metadata
     id="metadata37"><rdf:RDF><cc:Work
         rdf:about=""><dc:format>image/svg+xml</dc:format><dc:type
           rdf:resource="http://purl.org/dc/dcmitype/StillImage" /><dc:title></dc:title></cc:Work></rdf:RDF></metadata><defs
     id="defs35" /><sodipodi:namedview
     pagecolor="#ffffff"
     bordercolor="#666666"
     borderopacity="1"
     objecttolerance="10"
     gridtolerance="10"
     guidetolerance="10"
     inkscape:pageopacity="0"
     inkscape:pageshadow="2"
     inkscape:window-width="1920"
     inkscape:window-height="1018"
     id="namedview33"
     showgrid="false"
     fit-margin-top="0"
     fit-margin-left="0"
     fit-margin-right="0"
     fit-margin-bottom="0"
     inkscape:zoom="10.363697"
     inkscape:cx="21.300615"
     inkscape:cy="16.099375"
     inkscape:window-x="-8"
     inkscape:window-y="-8"
     inkscape:window-maximized="1"
     inkscape:current-layer="Layer_2" /><polygon
     points="3,14 3,7 10,7 10,4 0,4 0,14 "
     id="polygon3"
     style="fill:#7a7a7a"
     transform="translate(0,-4)" /><polygon
     points="10,43 3,43 3,36 0,36 0,46 10,46 "
     id="polygon5"
     style="fill:#7a7a7a"
     transform="translate(0,-4)" /><polygon
     points="47,36 47,43 40,43 40,46 50,46 50,36 "
     id="polygon7"
     style="fill:#7a7a7a"
     transform="translate(0,-4)" /><polygon
     points="40,7 47,7 47,14 50,14 50,4 40,4 "
     id="polygon9"
     style="fill:#7a7a7a"
     transform="translate(0,-4)" /><path
     d="M 45,30.757 C 45,34.757 36.046,38 25.002,38 13.958,38 5.004,34.758 5.004,30.757 L 5.004,26.853 45,26.853 45,30.757 Z"
     id="path11"
     inkscape:connector-curvature="0"
     style="fill:#7fba00" /><path
     d="M 45,26.854 C 45,30.854 36.046,34.097 25.002,34.097 13.958,34.097 5.004,30.854 5.004,26.854 5.004,22.854 13.958,19.611 25.002,19.611 36.046,19.611 45,22.854 45,26.854"
     id="path13"
     inkscape:connector-curvature="0"
     style="fill:#b8d432" /><path
     d="M 31.412,26.437 C 31.412,27.501 28.542,28.362 25.001,28.362 21.46,28.362 18.59,27.5 18.59,26.437 18.59,25.373 21.461,24.512 25.001,24.512 28.541,24.512 31.412,25.374 31.412,26.437"
     id="path15"
     inkscape:connector-curvature="0"
     style="fill:#7fba00" /><path
     d="M 31.412,26.437 C 31.412,27.501 28.542,28.362 25.001,28.362 21.46,28.362 18.59,27.5 18.59,26.437 18.59,25.373 21.461,24.512 25.001,24.512 28.541,24.512 31.412,25.374 31.412,26.437"
     id="path17"
     inkscape:connector-curvature="0"
     style="opacity:0.25;fill:#00188f" /><path
     enable-background="new    "
     d="M 39.457,21.892 C 36.656,20.831 32.974,20.077 28.835,19.786 L 26.24,24.589 C 27.517,24.664 28.658,24.852 29.541,25.119 L 39.457,21.892 Z"
     id="path19"
     inkscape:connector-curvature="0"
     style="opacity:0.25;fill:#ffffff" /><path
     enable-background="new    "
     d="M 9.725,31.565 C 12.606,32.799 16.603,33.679 21.154,34.001 L 24.188,28.386 C 22.925,28.338 21.777,28.18 20.854,27.944 L 9.725,31.565 Z"
     id="path21"
     inkscape:connector-curvature="0"
     style="opacity:0.25;fill:#ffffff" /><path
     d="M 45,15.146 C 45,19.146 36.046,22.389 25.002,22.389 13.958,22.389 5.004,19.146 5.004,15.146 L 5.004,11.242 45,11.242 45,15.146 Z"
     id="path23"
     inkscape:connector-curvature="0"
     style="fill:#0072c6" /><path
     d="M 45,11.243 C 45,15.243 36.046,18.486 25.002,18.486 13.958,18.486 5.004,15.242 5.004,11.243 5.004,7.244 13.957,4 25.002,4 36.047,4 45,7.242 45,11.243"
     id="path25"
     inkscape:connector-curvature="0"
     style="fill:#59b4d9" /><path
     d="M 31.412,10.826 C 31.412,11.89 28.542,12.751 25.001,12.751 21.46,12.751 18.59,11.889 18.59,10.826 18.59,9.763 21.461,8.901 25.001,8.901 28.541,8.901 31.412,9.762 31.412,10.826"
     id="path27"
     inkscape:connector-curvature="0"
     style="fill:#0072c6" /><path
     enable-background="new    "
     d="M 39.457,6.241 C 36.656,5.179 32.974,4.426 28.835,4.135 L 26.24,8.938 C 27.517,9.013 28.658,9.201 29.541,9.468 L 39.457,6.241 Z"
     id="path29"
     inkscape:connector-curvature="0"
     style="opacity:0.25;fill:#ffffff" /><path
     enable-background="new    "
     d="M 9.725,15.914 C 12.606,17.148 16.603,18.028 21.154,18.35 L 24.188,12.735 C 22.925,12.687 21.777,12.529 20.854,12.293 L 9.725,15.914 Z"
     id="path31"
     inkscape:connector-curvature="0"
     style="opacity:0.25;fill:#ffffff" /></svg>