<?xml version="1.0" encoding="UTF-8" standalone="no"?>
<!-- Generator: Adobe Illustrator 17.0.1, SVG Export Plug-In . SVG Version: 6.00 Build 0)  -->

<svg
   xmlns:dc="http://purl.org/dc/elements/1.1/"
   xmlns:cc="http://creativecommons.org/ns#"
   xmlns:rdf="http://www.w3.org/1999/02/22-rdf-syntax-ns#"
   xmlns:svg="http://www.w3.org/2000/svg"
   xmlns="http://www.w3.org/2000/svg"
   xmlns:sodipodi="http://sodipodi.sourceforge.net/DTD/sodipodi-0.dtd"
   xmlns:inkscape="http://www.inkscape.org/namespaces/inkscape"
   version="1.1"
   id="Layer_1"
   x="0px"
   y="0px"
   width="44"
   height="50"
   viewBox="0 0 44 50"
   enable-background="new 0 0 50 50"
   xml:space="preserve"
   sodipodi:docname="MediaFile.svg"
   inkscape:version="0.92.3 (2405546, 2018-03-11)"><metadata
   id="metadata6346"><rdf:RDF><cc:Work
       rdf:about=""><dc:format>image/svg+xml</dc:format><dc:type
         rdf:resource="http://purl.org/dc/dcmitype/StillImage" /><dc:title></dc:title></cc:Work></rdf:RDF></metadata><defs
   id="defs6344" /><sodipodi:namedview
   pagecolor="#ffffff"
   bordercolor="#666666"
   borderopacity="1"
   objecttolerance="10"
   gridtolerance="10"
   guidetolerance="10"
   inkscape:pageopacity="0"
   inkscape:pageshadow="2"
   inkscape:window-width="1920"
   inkscape:window-height="1017"
   id="namedview6342"
   showgrid="false"
   fit-margin-top="0"
   fit-margin-left="0"
   fit-margin-right="0"
   fit-margin-bottom="0"
   inkscape:zoom="17"
   inkscape:cx="22"
   inkscape:cy="25"
   inkscape:window-x="1912"
   inkscape:window-y="-8"
   inkscape:window-maximized="1"
   inkscape:current-layer="Layer_1" />
<polygon
   points="38.239,0 38,0 3,0 3,50 47,50 47,9 47,8.761 45,6.761 40.239,2 "
   id="polygon6327"
   style="fill:#59b4d9"
   transform="translate(-3)" />
<polygon
   points="5,48 45,48 45,9 38,9 38,2 5,2 "
   id="polygon6329"
   style="opacity:0.8;fill:#ffffff"
   transform="translate(-3)" />
<path
   d="m 35.857,24.738 c 0,0.618 -0.501,1.119 -1.119,1.119 H 19.637 c -0.618,0 -1.119,-0.501 -1.119,-1.119 0,-0.618 0.501,-1.119 1.119,-1.119 h 15.101 c 0.618,0 1.119,0.501 1.119,1.119"
   id="path6331"
   inkscape:connector-curvature="0"
   style="fill:#59b4d9" />
<polygon
   points="11.509,26.485 11.509,11.203 24.765,18.844 "
   id="polygon6333"
   style="fill:#59b4d9"
   transform="translate(-3)" />
<path
   d="m 35.857,29.89 c 0,0.618 -0.501,1.118 -1.119,1.118 H 9.628 c -0.617,0 -1.118,-0.5 -1.118,-1.118 0,-0.618 0.501,-1.119 1.118,-1.119 h 25.11 c 0.618,0 1.119,0.501 1.119,1.119"
   id="path6335"
   inkscape:connector-curvature="0"
   style="fill:#59b4d9" />
<path
   d="m 35.857,35.042 c 0,0.618 -0.501,1.119 -1.119,1.119 H 9.628 c -0.617,0 -1.118,-0.501 -1.118,-1.119 0,-0.617 0.501,-1.119 1.118,-1.119 h 25.11 c 0.618,0 1.119,0.502 1.119,1.119"
   id="path6337"
   inkscape:connector-curvature="0"
   style="fill:#59b4d9" />
<path
   d="m 35.857,40.194 c 0,0.618 -0.501,1.119 -1.119,1.119 H 9.628 c -0.617,0 -1.118,-0.501 -1.118,-1.119 0,-0.618 0.501,-1.119 1.118,-1.119 h 25.11 c 0.618,0 1.119,0.501 1.119,1.119"
   id="path6339"
   inkscape:connector-curvature="0"
   style="fill:#59b4d9" />
</svg>