<?xml version="1.0" encoding="UTF-8" standalone="no"?>
<svg
   xmlns:dc="http://purl.org/dc/elements/1.1/"
   xmlns:cc="http://creativecommons.org/ns#"
   xmlns:rdf="http://www.w3.org/1999/02/22-rdf-syntax-ns#"
   xmlns:svg="http://www.w3.org/2000/svg"
   xmlns="http://www.w3.org/2000/svg"
   xmlns:sodipodi="http://sodipodi.sourceforge.net/DTD/sodipodi-0.dtd"
   xmlns:inkscape="http://www.inkscape.org/namespaces/inkscape"
   version="1.1"
   id="Layer_1"
   x="0px"
   y="0px"
   width="34.400002"
   height="50"
   viewBox="0 0 34.400002 50"
   enable-background="new 0 0 50 50"
   xml:space="preserve"
   inkscape:version="0.91 r13725"
   sodipodi:docname="Azure Mobile Engagement_COLOR.svg"><metadata
     id="metadata29"><rdf:RDF><cc:Work
         rdf:about=""><dc:format>image/svg+xml</dc:format><dc:type
           rdf:resource="http://purl.org/dc/dcmitype/StillImage" /><dc:title></dc:title></cc:Work></rdf:RDF></metadata><defs
     id="defs27" /><sodipodi:namedview
     pagecolor="#ffffff"
     bordercolor="#666666"
     borderopacity="1"
     objecttolerance="10"
     gridtolerance="10"
     guidetolerance="10"
     inkscape:pageopacity="0"
     inkscape:pageshadow="2"
     inkscape:window-width="1920"
     inkscape:window-height="1018"
     id="namedview25"
     showgrid="false"
     fit-margin-top="0"
     fit-margin-left="0"
     fit-margin-right="0"
     fit-margin-bottom="0"
     inkscape:zoom="7.3282407"
     inkscape:cx="27.159554"
     inkscape:cy="21.418689"
     inkscape:window-x="-8"
     inkscape:window-y="-8"
     inkscape:window-maximized="1"
     inkscape:current-layer="Layer_1" /><path
     d="M 34.4,47 C 34.4,48.7 33.1,50 31.4,50 L 3,50 C 1.3,50 0,48.7 0,47 L 0,3 C 0,1.3 1.3,0 3,0 L 31.4,0 C 33.1,0 34.4,1.3 34.4,3 L 34.4,47 Z"
     id="path3"
     inkscape:connector-curvature="0"
     style="fill:#3e3e3e" /><rect
     x="2.1999998"
     y="5"
     width="30"
     height="35.200001"
     id="rect5"
     style="fill:#59b4d9" /><path
     d="M 20.1,45.1 C 20.1,46.7 18.8,48 17.2,48 15.6,48 14.3,46.7 14.3,45.1 14.3,43.5 15.6,42.2 17.2,42.2 18.8,42.2 20.1,43.5 20.1,45.1"
     id="path7"
     inkscape:connector-curvature="0"
     style="fill:#ffffff" /><path
     d="M 19.1,45.1 C 19.1,46.1 18.3,47 17.2,47 16.2,47 15.3,46.2 15.3,45.1 15.3,44 16.1,43.2 17.2,43.2 18.3,43.2 19.1,44.1 19.1,45.1"
     id="path9"
     inkscape:connector-curvature="0"
     style="fill:#b8d432" /><path
     enable-background="new    "
     d="M 2.2,40.2 2.2,5 25,5 27,0 3,0 C 1.3,0 0,1.3 0,3 L 0,47 C 0,48.7 1.3,50 3,50 L 6.7,50 10.7,40.2 2.2,40.2 Z"
     id="path11"
     inkscape:connector-curvature="0"
     style="opacity:0.15;fill:#ffffff" /><path
     d="M 22.3,2.8 C 22.3,3.2 22,3.5 21.6,3.5 L 12.9,3.5 C 12.5,3.5 12.2,3.2 12.2,2.8 12.2,2.4 12.5,2.1 12.9,2.1 L 21.6,2.1 C 22,2.1 22.3,2.4 22.3,2.8"
     id="path13"
     inkscape:connector-curvature="0"
     style="fill:#1e1e1e" /><path
     d="M 22.3,2.8 C 22.3,3.2 22,3.5 21.6,3.5 L 12.9,3.5 C 12.5,3.5 12.2,3.2 12.2,2.8 12.2,2.4 12.5,2.1 12.9,2.1 L 21.6,2.1 C 22,2.1 22.3,2.4 22.3,2.8"
     id="path15"
     inkscape:connector-curvature="0"
     style="fill:#ffffff" /><rect
     x="5.3000002"
     y="32.299999"
     width="6"
     height="6"
     id="rect17"
     style="clip-rule:evenodd;opacity:0.75;fill:#ffffff;fill-rule:evenodd" /><rect
     x="14"
     y="27.799999"
     width="6"
     height="10.5"
     id="rect19"
     style="clip-rule:evenodd;opacity:0.75;fill:#ffffff;fill-rule:evenodd" /><rect
     x="22.700001"
     y="23.299999"
     width="6"
     height="15"
     id="rect21"
     style="clip-rule:evenodd;opacity:0.75;fill:#ffffff;fill-rule:evenodd" /><path
     d="M 25.9,7 8.1,7 C 6.5,7 5.3,8.3 5.3,9.8 L 5.3,18.4 C 5.3,20 6.6,21.2 8.1,21.2 L 11.6,21.2 11.6,24.9 15.3,21.2 25.9,21.2 C 27.5,21.2 28.7,19.9 28.7,18.4 L 28.7,9.8 C 28.7,8.3 27.5,7 25.9,7 Z"
     id="path23"
     inkscape:connector-curvature="0"
     style="opacity:0.75;fill:#ffffff" /></svg>