<?xml version="1.0" encoding="utf-8"?>
<!-- Generator: Adobe Illustrator 17.0.1, SVG Export Plug-In . SVG Version: 6.00 Build 0)  -->
<!DOCTYPE svg PUBLIC "-//W3C//DTD SVG 1.1//EN" "http://www.w3.org/Graphics/SVG/1.1/DTD/svg11.dtd">
<svg version="1.1" id="Layer_1" xmlns="http://www.w3.org/2000/svg" xmlns:xlink="http://www.w3.org/1999/xlink" x="0px" y="0px"
	 width="50px" height="50px" viewBox="0 0 50 50" enable-background="new 0 0 50 50" xml:space="preserve">
<path opacity="0.4" fill="#59B4D9" d="M16.456,19.473l-5.048-4.086c-2.158,3.088-3.137,6.688-2.991,10.232l6.454-0.679
	C14.871,23.05,15.392,21.152,16.456,19.473"/>
<path opacity="0.8" fill="#59B4D9" d="M30.575,16.279l4.087-5.049c-3.09-2.156-6.693-3.13-10.238-2.982l0.679,6.453
	C26.994,14.699,28.894,15.217,30.575,16.279"/>
<path opacity="0.6" fill="#59B4D9" d="M22.853,14.956l-0.68-6.46c-3.49,0.623-6.795,2.35-9.348,5.123l5.044,4.084
	C19.274,16.294,21.012,15.371,22.853,14.956"/>
<path opacity="0.25" fill="#59B4D9" d="M15.121,27.189l-6.46,0.682c0.62,3.492,2.345,6.801,5.121,9.357l4.083-5.044
	C16.455,30.775,15.534,29.034,15.121,27.189"/>
<path fill="#59B4D9" d="M36.43,12.647l-4.084,5.045c1.008,1.002,1.759,2.178,2.264,3.437h6.775
	C40.643,17.958,38.977,14.985,36.43,12.647z"/>
<path fill="#59B4D9" d="M44.261,24.978c0-0.003,0.002-0.005,0.002-0.008c-0.008-1.17-0.96-2.113-2.133-2.113l-0.004-0.005
	l-0.621,0.005H34.82h-7.601c-0.009-0.008-0.012,0.007-0.019,0c-0.57-0.565-1.314-0.813-2.057-0.813
	c-0.752,0-1.506,0.288-2.079,0.866c-1.136,1.145-1.129,2.995,0.018,4.131c0.57,0.565,1.312,0.845,2.052,0.845
	c0.688,0,1.373-0.298,1.923-0.779h15.085c1.172-0.004,2.114-0.952,2.118-2.124h0.002C44.262,24.981,44.261,24.98,44.261,24.978z"/>
<path fill="#59B4D9" d="M25,4.2c11.469,0,20.8,9.331,20.8,20.8S36.469,45.8,25,45.8S4.2,36.469,4.2,25S13.531,4.2,25,4.2 M25,0
	C11.193,0,0,11.193,0,25s11.193,25,25,25s25-11.193,25-25S38.807,0,25,0L25,0z"/>
</svg>
