<?xml version="1.0" encoding="UTF-8" standalone="no"?>
<!-- Generator: Adobe Illustrator 17.1.0, SVG Export Plug-In . SVG Version: 6.00 Build 0)  -->

<svg
   xmlns:dc="http://purl.org/dc/elements/1.1/"
   xmlns:cc="http://creativecommons.org/ns#"
   xmlns:rdf="http://www.w3.org/1999/02/22-rdf-syntax-ns#"
   xmlns:svg="http://www.w3.org/2000/svg"
   xmlns="http://www.w3.org/2000/svg"
   xmlns:sodipodi="http://sodipodi.sourceforge.net/DTD/sodipodi-0.dtd"
   xmlns:inkscape="http://www.inkscape.org/namespaces/inkscape"
   version="1.1"
   x="0px"
   y="0px"
   viewBox="0 0 16 16.1"
   enable-background="new 0 0 16 16"
   xml:space="preserve"
   id="svg6831"
   sodipodi:docname="New.svg"
   width="16"
   height="16.1"
   inkscape:version="0.92.3 (2405546, 2018-03-11)"><metadata
   id="metadata6837"><rdf:RDF><cc:Work
       rdf:about=""><dc:format>image/svg+xml</dc:format><dc:type
         rdf:resource="http://purl.org/dc/dcmitype/StillImage" /><dc:title></dc:title></cc:Work></rdf:RDF></metadata><defs
   id="defs6835" /><sodipodi:namedview
   pagecolor="#ffffff"
   bordercolor="#666666"
   borderopacity="1"
   objecttolerance="10"
   gridtolerance="10"
   guidetolerance="10"
   inkscape:pageopacity="0"
   inkscape:pageshadow="2"
   inkscape:window-width="1920"
   inkscape:window-height="1017"
   id="namedview6833"
   showgrid="false"
   fit-margin-top="0"
   fit-margin-left="0"
   fit-margin-right="0"
   fit-margin-bottom="0"
   inkscape:zoom="53.125"
   inkscape:cx="8"
   inkscape:cy="8"
   inkscape:window-x="1912"
   inkscape:window-y="-8"
   inkscape:window-maximized="1"
   inkscape:current-layer="svg6831" />
<g
   id="outline"
   transform="translate(0,0.1)">
</g>
<g
   id="icon_x5F_bg"
   transform="translate(0,0.1)">
	<g
   id="g6822">
		<path
   d="M 3.8,8.7 C 3.8,8.5 3.7,8.3 3.7,8 3.7,7.8 3.7,7.6 3.8,7.3 V 7 H 0 v 1.8 h 3.9 z"
   id="path6806"
   inkscape:connector-curvature="0"
   style="fill:#fcd116" />
		<path
   d="m 12.1,7.1 v 0.3 c 0,0.2 0.1,0.4 0.1,0.7 0,0.2 0,0.4 -0.1,0.7 V 9.1 H 16 v -2 z"
   id="path6808"
   inkscape:connector-curvature="0"
   style="fill:#fcd116" />
		<path
   d="M 4.6,10.5 4.4,10.3 1.3,13.4 2.6,14.7 5.7,11.6 5.5,11.4 C 5.2,11.1 4.9,10.8 4.6,10.5 Z"
   id="path6810"
   inkscape:connector-curvature="0"
   style="fill:#fcd116" />
		<path
   d="m 11.4,5.5 0.2,0.2 3.1,-3.1 -1.3,-1.3 -3.1,3.1 0.2,0.2 c 0.3,0.3 0.6,0.6 0.9,0.9 z"
   id="path6812"
   inkscape:connector-curvature="0"
   style="fill:#fcd116" />
		<path
   d="M 7.3,12.2 H 7 V 16 H 8.8 V 12.1 H 8.5 c -0.3,0.1 -0.7,0.1 -1.2,0.1 z"
   id="path6814"
   inkscape:connector-curvature="0"
   style="fill:#fcd116" />
		<path
   d="M 8.7,3.8 H 9 V -0.1 H 7.1 v 3.9 h 0.3 c 0.4,0 0.8,0 1.3,0 z"
   id="path6816"
   inkscape:connector-curvature="0"
   style="fill:#fcd116" />
		<path
   d="m 11.4,10.5 c -0.3,0.4 -0.6,0.7 -0.9,0.9 l -0.2,0.2 3.1,3.1 1.3,-1.3 -3.1,-3.1 z"
   id="path6818"
   inkscape:connector-curvature="0"
   style="fill:#fcd116" />
		<path
   d="M 1.3,2.6 4.4,5.7 4.6,5.5 C 4.9,5.1 5.2,4.8 5.5,4.6 L 5.7,4.4 2.6,1.3 Z"
   id="path6820"
   inkscape:connector-curvature="0"
   style="fill:#fcd116" />
	</g>
</g>
<g
   id="color_x5F_action"
   transform="translate(0,0.1)">
</g>
<g
   id="color_x5F_decoration"
   transform="translate(0,0.1)">
</g>
<g
   id="color_x5F_importance"
   transform="translate(0,0.1)">
</g>
<g
   id="icon_x5F_fg"
   transform="translate(0,0.1)">
</g>
<g
   id="not_x5F_bg"
   transform="translate(0,0.1)">
</g>
<g
   id="not_x5F_fg"
   transform="translate(0,0.1)">
</g>
</svg>