<?xml version="1.0" encoding="utf-8"?>
<!-- Generator: Adobe Illustrator 17.0.1, SVG Export Plug-In . SVG Version: 6.00 Build 0)  -->
<!DOCTYPE svg PUBLIC "-//W3C//DTD SVG 1.1//EN" "http://www.w3.org/Graphics/SVG/1.1/DTD/svg11.dtd">
<svg version="1.1" id="Layer_1" xmlns="http://www.w3.org/2000/svg" xmlns:xlink="http://www.w3.org/1999/xlink" x="0px" y="0px"
	 width="50px" height="50px" viewBox="0 0 50 50" enable-background="new 0 0 50 50" xml:space="preserve">
<path fill="#B8D432" d="M43.327,0H6.275C2.611-0.02,0,2.188,0,5.839v26.218c0,3.706,2.661,6.985,6.329,7.029l13.383,0.025
	L30.702,49.9l0.082-10.758h12.441c3.661,0.03,6.664-2.933,6.664-6.594l0.056-26.317C49.97,2.59,46.993,0,43.327,0"/>
<path fill="#FFFFFF" d="M28.611,27.92c0,2.025-1.642,3.666-3.666,3.666c-2.024,0-3.667-1.641-3.667-3.666
	c0-2.025,1.643-3.666,3.667-3.666C26.969,24.254,28.611,25.895,28.611,27.92"/>
<polygon fill="#FFFFFF" points="25.636,6.305 24.607,6.305 22.039,6.305 22.957,22.237 24.607,22.237 25.636,22.237 27.283,22.237 
	28.202,6.305 "/>
</svg>
