<?xml version="1.0" encoding="UTF-8" standalone="no"?>
<svg
   xmlns:dc="http://purl.org/dc/elements/1.1/"
   xmlns:cc="http://creativecommons.org/ns#"
   xmlns:rdf="http://www.w3.org/1999/02/22-rdf-syntax-ns#"
   xmlns:svg="http://www.w3.org/2000/svg"
   xmlns="http://www.w3.org/2000/svg"
   xmlns:sodipodi="http://sodipodi.sourceforge.net/DTD/sodipodi-0.dtd"
   xmlns:inkscape="http://www.inkscape.org/namespaces/inkscape"
   version="1.1"
   id="Layer_1"
   x="0px"
   y="0px"
   width="36.599998"
   height="49.900002"
   viewBox="0 0 36.599998 49.900002"
   enable-background="new 0 0 50 50"
   xml:space="preserve"
   inkscape:version="0.91 r13725"
   sodipodi:docname="NSG.svg"><metadata
     id="metadata29"><rdf:RDF><cc:Work
         rdf:about=""><dc:format>image/svg+xml</dc:format><dc:type
           rdf:resource="http://purl.org/dc/dcmitype/StillImage" /><dc:title></dc:title></cc:Work></rdf:RDF></metadata><defs
     id="defs27" /><sodipodi:namedview
     pagecolor="#ffffff"
     bordercolor="#666666"
     borderopacity="1"
     objecttolerance="10"
     gridtolerance="10"
     guidetolerance="10"
     inkscape:pageopacity="0"
     inkscape:pageshadow="2"
     inkscape:window-width="1920"
     inkscape:window-height="1018"
     id="namedview25"
     showgrid="false"
     fit-margin-top="0"
     fit-margin-left="0"
     fit-margin-right="0"
     fit-margin-bottom="0"
     inkscape:zoom="10.363697"
     inkscape:cx="12.520143"
     inkscape:cy="21.384187"
     inkscape:window-x="-8"
     inkscape:window-y="-8"
     inkscape:window-maximized="1"
     inkscape:current-layer="Layer_1" /><path
     d="M 31.2,6 31.2,6 C 20.2,4.8 18.3,0 18.3,0 18.3,0 15.8,6.2 0,6.2 L 0,31.8 C 0,34.9 1.7,37.8 4.1,40.3 L 4.1,40.3 C 9.5,46 18.3,49.9 18.3,49.9 18.3,49.9 36.6,41.9 36.6,31.8 L 36.6,6.2 C 34.6,6.2 32.8,6.1 31.2,6 Z"
     id="path3"
     inkscape:connector-curvature="0"
     style="fill:#3999c6" /><path
     enable-background="new    "
     d="M 22.9,16.5 31.2,6 C 20.2,4.8 18.3,0 18.3,0 18.3,0 15.8,6.2 0,6.2 L 0,31.8 C 0,34.9 1.7,37.8 4.1,40.3 L 10.3,32.5 22.9,16.5 Z"
     id="path5"
     inkscape:connector-curvature="0"
     style="opacity:0.4;fill:#59b4d9" /><g
     id="g7"
     transform="translate(-7,0)"><path
       enable-background="new    "
       d="M 10.8,24.4 10.8,30.5 C 10.8,33 12.2,35.3 14.1,37.3 18.4,41.9 25.4,44.9 25.4,44.9 L 25.4,24.4 10.8,24.4 Z"
       id="path9"
       inkscape:connector-curvature="0"
       style="opacity:0.3;fill:#ffffff" /><path
       enable-background="new    "
       d="M 25.3,44.9 C 25.3,44.9 39.9,38.5 39.9,30.5 L 39.9,24.4 25.3,24.4 25.3,44.9 Z"
       id="path11"
       inkscape:connector-curvature="0"
       style="opacity:0.7;fill:#ffffff" /><path
       enable-background="new    "
       d="M 25.3,5.1 25.3,5.1 C 25.3,5.1 23.3,10.1 10.7,10.1 L 10.7,24.4 25.3,24.4 25.3,5.1 Z"
       id="path13"
       inkscape:connector-curvature="0"
       style="opacity:0.7;fill:#ffffff" /><path
       enable-background="new    "
       d="M 35.5,9.9 C 26.8,8.9 25.3,5.2 25.3,5.2 L 25.3,24.4 39.9,24.4 39.9,10.1 C 38.3,10.1 36.8,10 35.5,9.9 Z"
       id="path15"
       inkscape:connector-curvature="0"
       style="opacity:0.3;fill:#ffffff" /></g><g
     id="g17"
     transform="translate(-7,0)"><path
       d="M 20.322,29.25 18.545,29.25 13.862,22.045 C 13.743,21.863 13.646,21.673 13.568,21.478 L 13.527,21.478 C 13.564,21.687 13.582,22.137 13.582,22.825 L 13.582,29.251 12.01,29.251 12.01,19.448 13.904,19.448 18.429,26.482 C 18.62,26.774 18.743,26.974 18.798,27.084 L 18.825,27.084 C 18.78,26.824 18.757,26.384 18.757,25.765 L 18.757,19.449 20.322,19.449 20.322,29.25 Z"
       id="path19"
       inkscape:connector-curvature="0"
       style="fill:#3e3e3e" /><path
       d="M 22.298,28.86 22.298,27.185 C 22.448,27.322 22.627,27.445 22.835,27.554 23.043,27.663 23.262,27.755 23.495,27.831 23.727,27.905 23.96,27.964 24.192,28.005 24.424,28.046 24.639,28.067 24.835,28.067 25.519,28.067 26.028,27.953 26.363,27.725 26.698,27.497 26.865,27.167 26.865,26.734 26.865,26.502 26.809,26.3 26.698,26.129 26.586,25.959 26.43,25.802 26.229,25.661 26.029,25.52 25.792,25.384 25.521,25.254 25.25,25.124 24.959,24.988 24.649,24.847 24.316,24.669 24.006,24.489 23.719,24.307 23.432,24.125 23.182,23.923 22.97,23.702 22.758,23.481 22.592,23.231 22.471,22.953 22.35,22.675 22.29,22.349 22.29,21.975 22.29,21.515 22.394,21.115 22.601,20.775 22.808,20.435 23.082,20.155 23.421,19.934 23.76,19.713 24.147,19.549 24.58,19.442 25.013,19.335 25.455,19.281 25.906,19.281 26.931,19.281 27.678,19.397 28.148,19.63 L 28.148,21.236 C 27.592,20.835 26.877,20.634 26.002,20.634 25.76,20.634 25.52,20.657 25.281,20.702 25.042,20.747 24.827,20.823 24.638,20.928 24.449,21.033 24.295,21.167 24.177,21.331 24.059,21.495 24,21.696 24,21.929 24,22.148 24.045,22.337 24.137,22.496 24.229,22.655 24.362,22.801 24.537,22.934 24.712,23.067 24.927,23.195 25.18,23.32 25.433,23.445 25.726,23.581 26.058,23.727 26.4,23.905 26.722,24.092 27.025,24.288 27.329,24.484 27.595,24.701 27.825,24.937 28.055,25.174 28.238,25.437 28.372,25.727 28.507,26.017 28.574,26.346 28.574,26.715 28.574,27.212 28.473,27.631 28.273,27.973 28.073,28.315 27.802,28.593 27.462,28.807 27.123,29.021 26.733,29.176 26.29,29.272 25.848,29.368 25.381,29.416 24.889,29.416 24.725,29.416 24.523,29.403 24.284,29.379 24.045,29.354 23.8,29.317 23.549,29.27 23.299,29.221 23.061,29.164 22.838,29.095 22.615,29.026 22.435,28.947 22.298,28.86 Z"
       id="path21"
       inkscape:connector-curvature="0"
       style="fill:#3e3e3e" /><path
       d="M 38.021,28.58 C 37,29.137 35.863,29.414 34.61,29.414 33.161,29.414 31.987,28.963 31.089,28.06 30.191,27.157 29.742,25.964 29.742,24.478 29.742,22.96 30.233,21.715 31.216,20.742 32.197,19.769 33.445,19.283 34.958,19.283 36.047,19.283 36.963,19.443 37.706,19.762 L 37.706,21.437 C 36.954,20.936 36.059,20.685 35.019,20.685 33.975,20.685 33.12,21.029 32.452,21.717 31.785,22.405 31.451,23.296 31.451,24.39 31.451,25.515 31.738,26.401 32.312,27.045 32.886,27.691 33.666,28.013 34.65,28.013 35.325,28.013 35.908,27.883 36.4,27.623 L 36.4,25.292 34.336,25.292 34.336,23.925 38.021,23.925 C 38.021,23.925 38.021,28.58 38.021,28.58 Z"
       id="path23"
       inkscape:connector-curvature="0"
       style="fill:#3e3e3e" /></g></svg>