<?xml version="1.0" encoding="UTF-8" standalone="no"?>
<!-- Generator: Adobe Illustrator 17.1.0, SVG Export Plug-In . SVG Version: 6.00 Build 0)  -->

<svg
   xmlns:dc="http://purl.org/dc/elements/1.1/"
   xmlns:cc="http://creativecommons.org/ns#"
   xmlns:rdf="http://www.w3.org/1999/02/22-rdf-syntax-ns#"
   xmlns:svg="http://www.w3.org/2000/svg"
   xmlns="http://www.w3.org/2000/svg"
   xmlns:sodipodi="http://sodipodi.sourceforge.net/DTD/sodipodi-0.dtd"
   xmlns:inkscape="http://www.inkscape.org/namespaces/inkscape"
   version="1.1"
   id="Layer_1"
   x="0px"
   y="0px"
   height="49.5"
   width="50"
   viewBox="0 0 50 49.5"
   enable-background="new 0 0 50 50"
   xml:space="preserve"
   sodipodi:docname="Offer.svg"
   inkscape:version="0.92.3 (2405546, 2018-03-11)"><metadata
   id="metadata7290"><rdf:RDF><cc:Work
       rdf:about=""><dc:format>image/svg+xml</dc:format><dc:type
         rdf:resource="http://purl.org/dc/dcmitype/StillImage" /><dc:title></dc:title></cc:Work></rdf:RDF></metadata><defs
   id="defs7288" /><sodipodi:namedview
   pagecolor="#ffffff"
   bordercolor="#666666"
   borderopacity="1"
   objecttolerance="10"
   gridtolerance="10"
   guidetolerance="10"
   inkscape:pageopacity="0"
   inkscape:pageshadow="2"
   inkscape:window-width="1920"
   inkscape:window-height="1017"
   id="namedview7286"
   showgrid="false"
   fit-margin-top="0"
   fit-margin-left="0"
   fit-margin-right="0"
   fit-margin-bottom="0"
   inkscape:zoom="17"
   inkscape:cx="25"
   inkscape:cy="24.5"
   inkscape:window-x="1912"
   inkscape:window-y="-8"
   inkscape:window-maximized="1"
   inkscape:current-layer="Layer_1" />
<path
   d="M 42.3,0 28.6,0.5 0,29.1 20.3,49.4 48.9,20.8 50,7.7 Z m 1.1,10.6 c -1.1,1.1 -2.9,1.1 -4,0 -1.1,-1.1 -1.1,-2.9 0,-4 1.1,-1.1 2.9,-1.1 4,0 1.1,1.1 1.1,2.9 0,4 z"
   id="path7257"
   inkscape:connector-curvature="0"
   style="fill:#3999c6" />
<polygon
   points="24.4,14.4 23,13 25.4,10.5 27.9,13 26.5,14.4 25.4,13.3 "
   id="polygon7259"
   style="fill:#ffffff" />
<polygon
   points="15,20.9 15.7,21.6 15,20.9 16.4,22.3 13.3,25.4 11.9,24 "
   id="polygon7261"
   style="fill:#ffffff" />
<rect
   x="25.426245"
   y="-3.589062"
   transform="rotate(45)"
   width="1.9999808"
   height="4.2999592"
   id="rect7263"
   style="fill:#ffffff;stroke-width:0.9999904" />
<polygon
   points="9.5,26.5 10.9,27.9 9.8,28.9 10.9,30 9.5,31.4 7,28.9 "
   id="polygon7265"
   style="fill:#ffffff" />
<rect
   x="32.598953"
   y="13.523177"
   transform="rotate(45)"
   width="4.6999545"
   height="1.9999808"
   id="rect7267"
   style="fill:#ffffff;stroke-width:0.9999904" />
<polygon
   points="19.5,38.6 20.5,39.6 21.6,38.6 23,40 20.5,42.5 18,40 "
   id="polygon7269"
   style="fill:#ffffff" />
<rect
   x="42.555851"
   y="4.187499"
   transform="rotate(45)"
   width="1.9999808"
   height="4.2999592"
   id="rect7271"
   style="fill:#ffffff;stroke-width:0.9999904" />
<polygon
   points="32.6,27.5 34,28.9 31,32 30.3,31.3 31,32 29.5,30.6 "
   id="polygon7273"
   style="fill:#ffffff" />
<polygon
   points="35.1,25.1 36.5,26.5 35.1,25.1 "
   id="polygon7275"
   style="fill:#ffffff" />
<polygon
   points="36.1,24 35.1,23 36.5,21.5 39,24 36.5,26.5 35.1,25.1 "
   id="polygon7277"
   style="fill:#ffffff" />
<rect
   x="32.68314"
   y="-10.52479"
   transform="rotate(45)"
   width="4.6999545"
   height="1.9999808"
   id="rect7279"
   style="fill:#ffffff;stroke-width:0.9999904" />
<polygon
   points="24.9,44.9 24.9,4.3 0,29.1 20.3,49.5 "
   id="polygon7281"
   style="opacity:0.1;fill:#ffffff" />
<path
   d="m 45.1,4.9 c -2,-2 -5.3,-2 -7.3,0 -2,2 -2,5.3 0,7.3 2,2 5.3,2 7.3,0 2,-2 2,-5.2 0,-7.3 z m -1.7,5.7 c -1.1,1.1 -2.9,1.1 -4,0 -1.1,-1.1 -1.1,-2.9 0,-4 1.1,-1.1 2.9,-1.1 4,0 1.1,1.1 1.1,2.9 0,4 z"
   id="path7283"
   inkscape:connector-curvature="0"
   style="opacity:0.3;fill:#1e1e1e" />
</svg>