<?xml version="1.0" encoding="UTF-8" standalone="no"?>
<!-- Generator: Adobe Illustrator 17.1.0, SVG Export Plug-In . SVG Version: 6.00 Build 0)  -->

<svg
   xmlns:dc="http://purl.org/dc/elements/1.1/"
   xmlns:cc="http://creativecommons.org/ns#"
   xmlns:rdf="http://www.w3.org/1999/02/22-rdf-syntax-ns#"
   xmlns:svg="http://www.w3.org/2000/svg"
   xmlns="http://www.w3.org/2000/svg"
   xmlns:sodipodi="http://sodipodi.sourceforge.net/DTD/sodipodi-0.dtd"
   xmlns:inkscape="http://www.inkscape.org/namespaces/inkscape"
   version="1.1"
   id="Layer_1"
   x="0px"
   y="0px"
   viewBox="0 0 44.5 50"
   enable-background="new 0 0 50 50"
   xml:space="preserve"
   sodipodi:docname="OnPremiseSetup.svg"
   width="44.5"
   height="50"
   inkscape:version="0.92.3 (2405546, 2018-03-11)"><metadata
   id="metadata7409"><rdf:RDF><cc:Work
       rdf:about=""><dc:format>image/svg+xml</dc:format><dc:type
         rdf:resource="http://purl.org/dc/dcmitype/StillImage" /><dc:title></dc:title></cc:Work></rdf:RDF></metadata><defs
   id="defs7407" /><sodipodi:namedview
   pagecolor="#ffffff"
   bordercolor="#666666"
   borderopacity="1"
   objecttolerance="10"
   gridtolerance="10"
   guidetolerance="10"
   inkscape:pageopacity="0"
   inkscape:pageshadow="2"
   inkscape:window-width="1920"
   inkscape:window-height="1017"
   id="namedview7405"
   showgrid="false"
   fit-margin-top="0"
   fit-margin-left="0"
   fit-margin-right="0"
   fit-margin-bottom="0"
   inkscape:zoom="17"
   inkscape:cx="22.3"
   inkscape:cy="25"
   inkscape:window-x="1912"
   inkscape:window-y="-8"
   inkscape:window-maximized="1"
   inkscape:current-layer="Layer_1" />
<path
   d="M 30,47.5 C 30,48.9 28.9,50 27.5,50 H 2.5 C 1.1,50 0,48.9 0,47.5 V 2.5 C 0,1.1 1.1,0 2.5,0 h 24.9 c 1.4,0 2.5,1.1 2.5,2.5 v 45 z"
   id="path7382"
   inkscape:connector-curvature="0"
   style="fill:#a0a1a2" />
<rect
   x="3.9999998"
   y="5"
   width="6"
   height="7"
   id="rect7384"
   style="fill:#7a7a7a" />
<rect
   x="12"
   y="5"
   width="6"
   height="7"
   id="rect7386"
   style="fill:#7a7a7a" />
<rect
   x="20"
   y="5"
   width="6"
   height="7"
   id="rect7388"
   style="fill:#7a7a7a" />
<rect
   x="3.9999998"
   y="16"
   width="6"
   height="7"
   id="rect7390"
   style="fill:#7a7a7a" />
<rect
   x="12"
   y="16"
   width="6"
   height="7"
   id="rect7392"
   style="fill:#7a7a7a" />
<rect
   x="20"
   y="16"
   width="6"
   height="7"
   id="rect7394"
   style="fill:#7a7a7a" />
<rect
   x="3.9999998"
   y="27"
   width="6"
   height="7"
   id="rect7396"
   style="fill:#7a7a7a" />
<rect
   x="12"
   y="27"
   width="6"
   height="7"
   id="rect7398"
   style="fill:#7a7a7a" />
<rect
   x="20"
   y="27"
   width="6"
   height="7"
   id="rect7400"
   style="fill:#7a7a7a" />
<path
   d="m 29.8,49.1 2.1,0.9 0.2,-0.3 1.7,-2 h 1.7 l 2,2.3 2.1,-0.9 v -0.3 l -0.2,-2.6 1.2,-1.2 3,0.2 0.9,-2.2 -0.2,-0.3 -2,-1.7 v -1.8 l 2.2,-2 -0.8,-2.2 h -0.3 l -2.6,0.2 -1.2,-1.2 0.2,-3 -2.2,-1 -0.2,0.3 -1.7,2 H 34 L 32,30 29.9,30.9 v 0.4 l 0.2,2.6 -1.2,1.2 -3,-0.2 -0.9,2.2 0.3,0.2 2,1.7 v 1.8 l -2.2,2 0.9,2.2 h 0.3 l 2.6,-0.2 1.2,1.3 z m 0.7,-11 c 1,-2.5 3.8,-3.6 6.2,-2.6 2.4,1 3.5,3.9 2.5,6.3 -1,2.5 -3.8,3.6 -6.2,2.6 -2.4,-1 -3.6,-3.8 -2.5,-6.3"
   id="path7402"
   inkscape:connector-curvature="0"
   style="fill:#3e3e3e" />
</svg>