<?xml version="1.0" encoding="UTF-8" standalone="no"?>
<!-- Generator: Adobe Illustrator 22.1.0, SVG Export Plug-In . SVG Version: 6.00 Build 0)  -->

<svg
   xmlns:dc="http://purl.org/dc/elements/1.1/"
   xmlns:cc="http://creativecommons.org/ns#"
   xmlns:rdf="http://www.w3.org/1999/02/22-rdf-syntax-ns#"
   xmlns:svg="http://www.w3.org/2000/svg"
   xmlns="http://www.w3.org/2000/svg"
   xmlns:sodipodi="http://sodipodi.sourceforge.net/DTD/sodipodi-0.dtd"
   xmlns:inkscape="http://www.inkscape.org/namespaces/inkscape"
   version="1.1"
   id="Layer_2_1_"
   x="0px"
   y="0px"
   width="50.001999"
   height="45.557266"
   viewBox="0 0 50.001999 45.557266"
   enable-background="new 0 0 50 50"
   xml:space="preserve"
   sodipodi:docname="Azure OpenShift.svg"
   inkscape:version="0.92.3 (2405546, 2018-03-11)"><metadata
   id="metadata6595"><rdf:RDF><cc:Work
       rdf:about=""><dc:format>image/svg+xml</dc:format><dc:type
         rdf:resource="http://purl.org/dc/dcmitype/StillImage" /><dc:title></dc:title></cc:Work></rdf:RDF></metadata><defs
   id="defs6593" /><sodipodi:namedview
   pagecolor="#ffffff"
   bordercolor="#666666"
   borderopacity="1"
   objecttolerance="10"
   gridtolerance="10"
   guidetolerance="10"
   inkscape:pageopacity="0"
   inkscape:pageshadow="2"
   inkscape:window-width="1920"
   inkscape:window-height="1017"
   id="namedview6591"
   showgrid="false"
   fit-margin-top="0"
   fit-margin-left="0"
   fit-margin-right="0"
   fit-margin-bottom="0"
   inkscape:zoom="12.020815"
   inkscape:cx="22.481001"
   inkscape:cy="15.81429"
   inkscape:window-x="1912"
   inkscape:window-y="-8"
   inkscape:window-maximized="1"
   inkscape:current-layer="Layer_2_1_" />
<g
   id="g6568"
   transform="translate(-0.111,-2.2218527)">
	<path
   d="m 6.76,24.653 c 0.045,1.402 0.223,2.814 0.538,4.221 l 7.677,-2.632 c -0.237,-1.48 -0.242,-2.958 -0.036,-4.393 z"
   id="path6564"
   inkscape:connector-curvature="0"
   style="fill:#ba141a" />
	<path
   d="m 47.948,10.534 -8.179,2.804 c 1.043,1.007 1.946,2.178 2.667,3.491 l 7.677,-2.632 c -0.616,-1.304 -1.341,-2.529 -2.165,-3.663 z"
   id="path6566"
   inkscape:connector-curvature="0"
   style="fill:#ba141a" />
</g>
<g
   id="g6574"
   transform="translate(-0.111,-2.2218527)">
	<path
   d="m 36.279,21.614 c 0.668,1.95 0.903,3.944 0.757,5.877 l 8.019,-2.749 c -0.14,-1.911 -0.523,-3.836 -1.174,-5.734 -0.277,-0.809 -0.6,-1.591 -0.956,-2.347 l -7.677,2.632 c 0.403,0.731 0.751,1.505 1.031,2.321 z"
   id="path6570"
   inkscape:connector-curvature="0"
   style="fill:#ba141a" />
	<path
   d="M 8.4,31.171 C 8.12,30.354 7.92,29.53 7.788,28.706 l -7.677,2.632 c 0.183,0.816 0.408,1.631 0.685,2.44 0.651,1.898 1.529,3.653 2.591,5.248 l 8.019,-2.749 C 10.107,34.839 9.069,33.121 8.4,31.171 Z"
   id="path6572"
   inkscape:connector-curvature="0"
   style="fill:#ba141a" />
</g>
<path
   d="m 40.883,23.876147 c -0.429,5.698 -4.17,10.87 -9.918,12.841 -5.748,1.971 -11.876,0.182 -15.71,-4.055 l -8.019,2.749 c 5.595,8.405 16.336,12.337 26.336,8.91 10,-3.427 16.07,-13.123 15.331,-23.193 z"
   id="path6576"
   inkscape:connector-curvature="0"
   style="fill:#ba141a" />
<path
   d="m 11.601,20.697147 c 0.76,-5.303 4.391,-10.002 9.807,-11.8579997 5.416,-1.856 11.166,-0.374 15.019,3.3479997 l 8.178,-2.8029997 c -5.724,-7.877 -16.112,-11.47 -25.804,-8.148 C 9.109,4.5581473 3.11,13.768147 3.423,23.500147 Z"
   id="path6578"
   inkscape:connector-curvature="0"
   style="fill:#ba141a" />
<path
   d="m 14.692,21.402147 c 0.012,-0.597 0.052,-1.19 0.136,-1.775 l -8.179,2.804 c 0.018,0.559 0.073,1.121 0.134,1.682 z"
   id="path6580"
   inkscape:connector-curvature="0"
   style="opacity:0.4;fill:#1e1e1e" />
<path
   d="m 48.763,9.7231473 c -0.297,-0.481 -0.598,-0.958 -0.927,-1.411 l -8.179,2.8039997 c 0.425,0.411 0.82,0.855 1.196,1.319 z"
   id="path6582"
   inkscape:connector-curvature="0"
   style="opacity:0.4;fill:#1e1e1e" />
<g
   id="g6588"
   transform="translate(-0.111,-2.2218527)">
	<path
   d="m 49.037,25.922 c 0.035,-0.853 0.04,-1.71 -0.024,-2.573 l -8.02,2.749 c -0.071,0.938 -0.24,1.86 -0.484,2.758 z"
   id="path6584"
   inkscape:connector-curvature="0"
   style="opacity:0.4;fill:#1e1e1e" />
	<path
   d="M 17.467,36.786 C 16.712,36.222 16.004,35.59 15.365,34.884 l -8.02,2.749 c 0.489,0.735 1.031,1.423 1.595,2.087 z"
   id="path6586"
   inkscape:connector-curvature="0"
   style="opacity:0.4;fill:#1e1e1e" />
</g>
</svg>