<?xml version="1.0" encoding="UTF-8" standalone="no"?>
<svg
   xmlns:dc="http://purl.org/dc/elements/1.1/"
   xmlns:cc="http://creativecommons.org/ns#"
   xmlns:rdf="http://www.w3.org/1999/02/22-rdf-syntax-ns#"
   xmlns:svg="http://www.w3.org/2000/svg"
   xmlns="http://www.w3.org/2000/svg"
   xmlns:sodipodi="http://sodipodi.sourceforge.net/DTD/sodipodi-0.dtd"
   xmlns:inkscape="http://www.inkscape.org/namespaces/inkscape"
   version="1.1"
   id="Layer_1"
   x="0px"
   y="0px"
   width="48.400002"
   height="48.400002"
   viewBox="0 0 48.400002 48.400002"
   enable-background="new 0 0 50 50"
   xml:space="preserve"
   inkscape:version="0.91 r13725"
   sodipodi:docname="Operations Management Suite (OMS)_COLOR.svg"><metadata
     id="metadata65"><rdf:RDF><cc:Work
         rdf:about=""><dc:format>image/svg+xml</dc:format><dc:type
           rdf:resource="http://purl.org/dc/dcmitype/StillImage" /><dc:title></dc:title></cc:Work></rdf:RDF></metadata><defs
     id="defs63" /><sodipodi:namedview
     pagecolor="#ffffff"
     bordercolor="#666666"
     borderopacity="1"
     objecttolerance="10"
     gridtolerance="10"
     guidetolerance="10"
     inkscape:pageopacity="0"
     inkscape:pageshadow="2"
     inkscape:window-width="1920"
     inkscape:window-height="1018"
     id="namedview61"
     showgrid="false"
     fit-margin-top="0"
     fit-margin-left="0"
     fit-margin-right="0"
     fit-margin-bottom="0"
     inkscape:zoom="14.656481"
     inkscape:cx="8.177891"
     inkscape:cy="26.110122"
     inkscape:window-x="-8"
     inkscape:window-y="-8"
     inkscape:window-maximized="1"
     inkscape:current-layer="Layer_1" /><rect
     x="4.9000001"
     y="21"
     width="3.2"
     height="3.2"
     id="rect3"
     style="clip-rule:evenodd;fill:#59b4d9;fill-rule:evenodd" /><rect
     x="4.9000001"
     y="25.799999"
     width="3.2"
     height="3.2"
     id="rect5"
     style="clip-rule:evenodd;fill:#59b4d9;fill-rule:evenodd" /><path
     d="M 4.9,19.4 8.1,19.4 8.1,16.5 C 6.9,17.1 5.9,17.8 4.9,18.6 L 4.9,19.4 Z"
     id="path7"
     inkscape:connector-curvature="0"
     style="clip-rule:evenodd;fill:#59b4d9;fill-rule:evenodd" /><rect
     x="9.6999998"
     y="35.5"
     width="3.2"
     height="3.2"
     id="rect9"
     style="clip-rule:evenodd;fill:#59b4d9;fill-rule:evenodd" /><rect
     x="9.6999998"
     y="40.299999"
     width="3.2"
     height="3.2"
     id="rect11"
     style="clip-rule:evenodd;fill:#59b4d9;fill-rule:evenodd" /><rect
     x="9.6999998"
     y="45.200001"
     width="3.2"
     height="3.2"
     id="rect13"
     style="clip-rule:evenodd;fill:#59b4d9;fill-rule:evenodd" /><rect
     x="9.6999998"
     y="30.700001"
     width="3.2"
     height="3.2"
     id="rect15"
     style="clip-rule:evenodd;fill:#59b4d9;fill-rule:evenodd" /><rect
     x="0"
     y="25.799999"
     width="3.2"
     height="3.2"
     id="rect17"
     style="clip-rule:evenodd;fill:#59b4d9;fill-rule:evenodd" /><rect
     x="4.9000001"
     y="40.299999"
     width="3.2"
     height="3.2"
     id="rect19"
     style="clip-rule:evenodd;fill:#59b4d9;fill-rule:evenodd" /><rect
     x="0"
     y="35.5"
     width="3.2"
     height="3.2"
     id="rect21"
     style="clip-rule:evenodd;fill:#59b4d9;fill-rule:evenodd" /><rect
     x="0"
     y="30.700001"
     width="3.2"
     height="3.2"
     id="rect23"
     style="clip-rule:evenodd;fill:#59b4d9;fill-rule:evenodd" /><path
     d="M 4.9,45.9 C 5.9,46.7 7,47.4 8.1,48 L 8.1,45.1 4.9,45.1 4.9,45.9 Z"
     id="path25"
     inkscape:connector-curvature="0"
     style="clip-rule:evenodd;fill:#59b4d9;fill-rule:evenodd" /><path
     d="M 0.39999998,24.2 3.3,24.2 3.3,21 2.5,21 C 1.6,22 0.89999998,23 0.39999998,24.2 Z"
     id="path27"
     inkscape:connector-curvature="0"
     style="clip-rule:evenodd;fill:#59b4d9;fill-rule:evenodd" /><rect
     x="4.9000001"
     y="35.5"
     width="3.2"
     height="3.2"
     id="rect29"
     style="clip-rule:evenodd;fill:#59b4d9;fill-rule:evenodd" /><path
     d="M 29,43.5 29.8,43.5 C 30.6,42.5 31.3,41.4 31.9,40.3 L 29,40.3 29,43.5 Z"
     id="path31"
     inkscape:connector-curvature="0"
     style="clip-rule:evenodd;fill:#59b4d9;fill-rule:evenodd" /><rect
     x="9.6999998"
     y="25.799999"
     width="3.2"
     height="3.2"
     id="rect33"
     style="clip-rule:evenodd;fill:#59b4d9;fill-rule:evenodd" /><rect
     x="24.199999"
     y="40.299999"
     width="3.2"
     height="3.2"
     id="rect35"
     style="clip-rule:evenodd;fill:#59b4d9;fill-rule:evenodd" /><path
     d="M 31.5,0 C 22.2,0 14.6,7.6 14.6,16.9 14.6,21.9 14.6,33.8 14.6,33.8 14.6,33.8 27.2,33.8 31.5,33.8 40.8,33.8 48.4,26.2 48.4,16.9 48.4,7.6 40.8,0 31.5,0 Z"
     id="path37"
     inkscape:connector-curvature="0"
     style="fill:#7fba00" /><rect
     x="22.6"
     y="14.5"
     width="3.2"
     height="9.6999998"
     id="rect39"
     style="fill:#68217a" /><rect
     x="29"
     y="17.700001"
     width="3.2"
     height="6.5"
     id="rect41"
     style="fill:#68217a" /><rect
     x="35.5"
     y="11.3"
     width="3.2"
     height="12.9"
     id="rect43"
     style="fill:#68217a" /><path
     d="M 24.2,48 C 25.4,47.4 26.4,46.7 27.4,45.9 L 27.4,45.1 24.2,45.1 24.2,48 Z"
     id="path45"
     inkscape:connector-curvature="0"
     style="clip-rule:evenodd;fill:#59b4d9;fill-rule:evenodd" /><rect
     x="29"
     y="35.5"
     width="3.2"
     height="3.2"
     id="rect47"
     style="clip-rule:evenodd;fill:#59b4d9;fill-rule:evenodd" /><rect
     x="24.199999"
     y="35.5"
     width="3.2"
     height="3.2"
     id="rect49"
     style="clip-rule:evenodd;fill:#59b4d9;fill-rule:evenodd" /><rect
     x="14.5"
     y="40.299999"
     width="3.2"
     height="3.2"
     id="rect51"
     style="clip-rule:evenodd;fill:#59b4d9;fill-rule:evenodd" /><polygon
     points="11.3,16.1 11.3,19.4 14.5,19.4 14.5,16.1 "
     id="polygon53"
     style="clip-rule:evenodd;fill:#59b4d9;fill-rule:evenodd"
     transform="translate(-1.6,0)" /><rect
     x="19.4"
     y="40.299999"
     width="3.2"
     height="3.2"
     id="rect55"
     style="clip-rule:evenodd;fill:#59b4d9;fill-rule:evenodd" /><rect
     x="19.4"
     y="45.200001"
     width="3.2"
     height="3.2"
     id="rect57"
     style="clip-rule:evenodd;fill:#59b4d9;fill-rule:evenodd" /><rect
     x="14.5"
     y="35.5"
     width="3.2"
     height="3.2"
     id="rect59"
     style="clip-rule:evenodd;fill:#59b4d9;fill-rule:evenodd" /></svg>