<?xml version="1.0" encoding="utf-8"?>
<!-- Generator: Adobe Illustrator 18.1.0, SVG Export Plug-In . SVG Version: 6.00 Build 0)  -->
<!DOCTYPE svg PUBLIC "-//W3C//DTD SVG 1.1//EN" "http://www.w3.org/Graphics/SVG/1.1/DTD/svg11.dtd">
<svg version="1.1" id="Layer_1" xmlns="http://www.w3.org/2000/svg" xmlns:xlink="http://www.w3.org/1999/xlink" x="0px" y="0px"
	 height="50px" width="50px" viewBox="275 1149 50 50" enable-background="new 275 1149 50 50" xml:space="preserve">
<path fill="#0F0F0F" d="M304.7,1177.4c0,1.1-0.3,2-1.1,2.7c-0.7,0.6-1.7,1.1-3.1,1.3v2.1H299v-2.1c-1.4,0-2.7-0.3-3.7-1v-2.8
	c0.3,0.3,1,0.5,1.7,0.9c0.7,0.3,1.5,0.4,2,0.4v-3.6c-1.5-0.5-2.6-1.2-3.1-1.8c-0.6-0.6-1-1.5-1-2.6s0.4-1.9,1.2-2.7
	c0.7-0.7,1.7-1.2,2.9-1.3v-1.8h1.5v1.8c1.4,0.1,2.4,0.3,3.2,0.6v2.7c-1-0.5-2-0.9-3.2-1.1v3.8c1.5,0.5,2.6,1.2,3.2,1.8
	C304.4,1175.6,304.7,1176.4,304.7,1177.4z M299.1,1172.6v-3.2c-1,0.2-1.4,0.6-1.4,1.5C297.8,1171.6,298.2,1172.1,299.1,1172.6z
	 M302,1177.5c0-0.6-0.4-1.2-1.4-1.6v3C301.6,1178.8,302,1178.4,302,1177.5z"/>
<g>
	<path fill="#EC008C" d="M300,1187.8c-7.7,0-13.8-6.2-13.8-13.8s6.2-13.8,13.8-13.8l0,0c7.7,0,13.8,6.2,13.8,13.8H325
		c0-13.8-11.2-25-25-25l0,0c-13.8,0-25,11.2-25,25s11.2,25,25,25c6.4,0,12.2-2.4,16.6-6.4l-7.4-8.4
		C306.7,1186.4,303.5,1187.8,300,1187.8z"/>
	<path opacity="0.1" fill="#FFFFFF" enable-background="new    " d="M300,1187.8c-7.7,0-13.8-6.2-13.8-13.8s6.2-13.8,13.8-13.8l0,0
		c7.7,0,13.8,6.2,13.8,13.8H325c0-13.8-11.2-25-25-25l0,0c-13.8,0-25,11.2-25,25s11.2,25,25,25c6.4,0,12.2-2.4,16.6-6.4l-7.4-8.4
		C306.7,1186.4,303.5,1187.8,300,1187.8z"/>
	<path fill="#FCD116" d="M325,1174h-11.2c0,4.1-1.8,7.8-4.6,10.3l7.4,8.4C321.8,1188,325,1181.4,325,1174"/>
	<path opacity="0.9" fill="#F472D0" enable-background="new    " d="M313.8,1174H325c0-13.8-11.2-25-25-25v11.2
		C307.7,1160.2,313.8,1166.3,313.8,1174"/>
</g>
</svg>
