<?xml version="1.0" encoding="UTF-8" standalone="no"?>
<!-- Generator: Adobe Illustrator 17.0.1, SVG Export Plug-In . SVG Version: 6.00 Build 0)  -->

<svg
   xmlns:dc="http://purl.org/dc/elements/1.1/"
   xmlns:cc="http://creativecommons.org/ns#"
   xmlns:rdf="http://www.w3.org/1999/02/22-rdf-syntax-ns#"
   xmlns:svg="http://www.w3.org/2000/svg"
   xmlns="http://www.w3.org/2000/svg"
   xmlns:sodipodi="http://sodipodi.sourceforge.net/DTD/sodipodi-0.dtd"
   xmlns:inkscape="http://www.inkscape.org/namespaces/inkscape"
   version="1.1"
   id="Layer_1"
   x="0px"
   y="0px"
   width="50"
   height="49.709"
   viewBox="0 0 50 49.709"
   enable-background="new 0 0 50 50"
   xml:space="preserve"
   sodipodi:docname="PersonWithFriend.svg"
   inkscape:version="0.92.3 (2405546, 2018-03-11)"><metadata
   id="metadata1613"><rdf:RDF><cc:Work
       rdf:about=""><dc:format>image/svg+xml</dc:format><dc:type
         rdf:resource="http://purl.org/dc/dcmitype/StillImage" /><dc:title></dc:title></cc:Work></rdf:RDF></metadata><defs
   id="defs1611" /><sodipodi:namedview
   pagecolor="#ffffff"
   bordercolor="#666666"
   borderopacity="1"
   objecttolerance="10"
   gridtolerance="10"
   guidetolerance="10"
   inkscape:pageopacity="0"
   inkscape:pageshadow="2"
   inkscape:window-width="1920"
   inkscape:window-height="1017"
   id="namedview1609"
   showgrid="false"
   fit-margin-top="0"
   fit-margin-left="0"
   fit-margin-right="0"
   fit-margin-bottom="0"
   inkscape:zoom="12.020815"
   inkscape:cx="27.192895"
   inkscape:cy="17.056846"
   inkscape:window-x="1912"
   inkscape:window-y="-8"
   inkscape:window-maximized="1"
   inkscape:current-layer="Layer_1" />
<path
   d="m 44.977,10.209 c 0,5.638 -4.571,10.209 -10.21,10.209 -5.639,0 -10.209,-4.571 -10.209,-10.209 C 24.558,4.571 29.128,0 34.767,0 c 5.639,0 10.21,4.571 10.21,10.209"
   id="path1600"
   inkscape:connector-curvature="0"
   style="fill:#59b4d9" />
<polygon
   points="27.302,24.209 19.534,24.209 19.534,50 50,50 50,24.209 42.232,24.209 34.767,34.668 "
   id="polygon1602"
   style="fill:#59b4d9"
   transform="translate(0,-0.291)" />
<path
   d="m 14.294,27.345 c 0,3.168 -2.568,5.734 -5.736,5.734 -3.168,0 -5.736,-2.566 -5.736,-5.734 0,-3.168 2.568,-5.735 5.736,-5.735 3.168,0 5.736,2.567 5.736,5.735"
   id="path1604"
   inkscape:connector-curvature="0"
   style="fill:#59b4d9" />
<polygon
   points="4.364,35.512 0,35.512 0,50 17.115,50 17.115,35.512 12.751,35.512 8.558,41.388 "
   id="polygon1606"
   style="fill:#59b4d9"
   transform="translate(0,-0.291)" />
</svg>