<?xml version="1.0" encoding="utf-8"?>
<!-- Generator: Adobe Illustrator 17.1.0, SVG Export Plug-In . SVG Version: 6.00 Build 0)  -->
<!DOCTYPE svg PUBLIC "-//W3C//DTD SVG 1.1//EN" "http://www.w3.org/Graphics/SVG/1.1/DTD/svg11.dtd">
<svg version="1.1" id="Layer_1" xmlns="http://www.w3.org/2000/svg" xmlns:xlink="http://www.w3.org/1999/xlink" x="0px" y="0px"
	 viewBox="0 0 50 50" enable-background="new 0 0 50 50" xml:space="preserve">
<path fill="#59B4D9" d="M25,4.2c11.5,0,20.8,9.3,20.8,20.8S36.5,45.8,25,45.8S4.2,36.5,4.2,25S13.5,4.2,25,4.2 M25,0
	C11.2,0,0,11.2,0,25s11.2,25,25,25s25-11.2,25-25S38.8,0,25,0L25,0z"/>
<path fill="#59B4D9" d="M37,33c-1-1-2-2-3-3c-0.6-0.6-1.2-1-2-1s-1.5,0.4-2,1s-1.2,1-2,1s-1.4-0.4-2-1c-1-1-4-4-5-5
	c-0.6-0.6-1-1.2-1-2s0.4-1.5,1-2s1-1.2,1-2s-0.4-1.4-1-2c-1-1-2-2-3-3c-0.6-0.6-1.2-1-2-1c-0.8,0-1.4,0.4-2,1l-1,1
	c-0.6,0.6-1,1.2-1,2c0,5.5,3,10,7,14c0,0,0,0,1,1c4,4,8.5,7,14,7c0.8,0,1.4-0.4,2-1l1-1c0.6-0.6,1-1.2,1-2S37.6,33.6,37,33z"/>
</svg>
