<?xml version="1.0" encoding="UTF-8" standalone="no"?>
<!-- Generator: Adobe Illustrator 17.1.0, SVG Export Plug-In . SVG Version: 6.00 Build 0)  -->

<svg
   xmlns:dc="http://purl.org/dc/elements/1.1/"
   xmlns:cc="http://creativecommons.org/ns#"
   xmlns:rdf="http://www.w3.org/1999/02/22-rdf-syntax-ns#"
   xmlns:svg="http://www.w3.org/2000/svg"
   xmlns="http://www.w3.org/2000/svg"
   xmlns:sodipodi="http://sodipodi.sourceforge.net/DTD/sodipodi-0.dtd"
   xmlns:inkscape="http://www.inkscape.org/namespaces/inkscape"
   version="1.1"
   id="Layer_1"
   x="0px"
   y="0px"
   height="42.599998"
   width="50"
   viewBox="0 0 50 42.599998"
   enable-background="new 0 0 50 50"
   xml:space="preserve"
   sodipodi:docname="PortalCurrent.svg"
   inkscape:version="0.92.3 (2405546, 2018-03-11)"><metadata
   id="metadata1799"><rdf:RDF><cc:Work
       rdf:about=""><dc:format>image/svg+xml</dc:format><dc:type
         rdf:resource="http://purl.org/dc/dcmitype/StillImage" /><dc:title></dc:title></cc:Work></rdf:RDF></metadata><defs
   id="defs1797" /><sodipodi:namedview
   pagecolor="#ffffff"
   bordercolor="#666666"
   borderopacity="1"
   objecttolerance="10"
   gridtolerance="10"
   guidetolerance="10"
   inkscape:pageopacity="0"
   inkscape:pageshadow="2"
   inkscape:window-width="1920"
   inkscape:window-height="1017"
   id="namedview1795"
   showgrid="false"
   fit-margin-top="0"
   fit-margin-left="0"
   fit-margin-right="0"
   fit-margin-bottom="0"
   inkscape:zoom="17"
   inkscape:cx="25"
   inkscape:cy="21.3"
   inkscape:window-x="1912"
   inkscape:window-y="-8"
   inkscape:window-maximized="1"
   inkscape:current-layer="Layer_1" />
<path
   d="m 0,40.6 c 0,1.1 0.9,2 2,2 h 46 c 1.1,0 2,-0.9 2,-2 V 9.3 H 0 Z"
   id="path1770"
   inkscape:connector-curvature="0"
   style="fill:#1e1e1e" />
<path
   d="m 0,40.6 c 0,1.1 0.9,2 2,2 h 46 c 1.1,0 2,-0.9 2,-2 V 9.3 H 0 Z"
   id="path1772"
   inkscape:connector-curvature="0"
   style="opacity:0.25;fill:#0072c6" />
<path
   d="M 48,0 H 2 C 0.9,0 0,0.9 0,2 V 12.6 H 50 V 2 C 50,0.9 49.1,0 48,0"
   id="path1774"
   inkscape:connector-curvature="0"
   style="fill:#a0a1a2" />
<rect
   x="12.9"
   y="4.8000002"
   width="33.700001"
   height="3.9000001"
   id="rect1776"
   style="fill:#ffffff" />
<path
   d="m 11.3,6.7 c 0,2.7 -2.2,4.9 -4.9,4.9 C 3.7,11.6 1.5,9.4 1.5,6.7 1.5,4 3.7,1.8 6.4,1.8 c 2.7,0 4.9,2.2 4.9,4.9"
   id="path1778"
   inkscape:connector-curvature="0"
   style="fill:#59b4d9" />
<polygon
   points="6.9,13.3 4,10.4 6.9,7.6 8.1,7.6 5.9,9.9 11.3,9.9 11.3,10.9 5.9,10.9 8.1,13.3 "
   id="polygon1780"
   style="fill:#ffffff"
   transform="translate(0,-3.7)" />
<rect
   x="12"
   y="19"
   width="38"
   height="20"
   id="rect1782"
   style="fill:#e5e5e5" />
<rect
   x="0"
   y="19"
   width="12"
   height="20"
   id="rect1784"
   style="fill:#59b4d9" />
<g
   id="g1792"
   style="opacity:0.2"
   transform="translate(0,-3.7)">
	<g
   id="g1790">
		<g
   id="g1788">
			<path
   d="m 2,3.7 c -1.1,0 -2,0.9 -2,2 v 7.3 3.3 28 c 0,1.1 0.9,2 2,2 H 4.2 L 43.6,3.7 Z"
   id="path1786"
   inkscape:connector-curvature="0"
   style="fill:#ffffff" />
		</g>
	</g>
</g>
</svg>