<?xml version="1.0" encoding="utf-8"?>
<!-- Generator: Adobe Illustrator 17.0.1, SVG Export Plug-In . SVG Version: 6.00 Build 0)  -->
<!DOCTYPE svg PUBLIC "-//W3C//DTD SVG 1.1//EN" "http://www.w3.org/Graphics/SVG/1.1/DTD/svg11.dtd">
<svg version="1.1" id="Layer_1" xmlns="http://www.w3.org/2000/svg" xmlns:xlink="http://www.w3.org/1999/xlink" x="0px" y="0px"
	 width="50px" height="50px" viewBox="0 0 50 50" enable-background="new 0 0 50 50" xml:space="preserve">
<path opacity="0.5" fill="#59B4D9" d="M41.386,50c-6.829,0-16.33-5.585-26.069-15.323C1.768,21.125-3.448,8.134,2.338,2.348
	C3.875,0.811,6.039,0,8.599,0c6.829,0,16.331,5.585,26.069,15.325c6.637,6.638,11.379,13.177,13.715,18.916
	c2.365,5.811,2.104,10.572-0.736,13.413C46.111,49.189,43.946,50,41.386,50 M8.599,3.078c-1.75,0-3.124,0.486-4.083,1.445
	C0.791,8.249,4.052,19.056,17.495,32.498c9.031,9.032,17.962,14.424,23.892,14.424c1.75,0,3.123-0.486,4.082-1.446
	c1.908-1.908,1.932-5.486,0.063-10.074C43.35,30.04,38.84,23.85,32.49,17.502C23.459,8.471,14.528,3.078,8.599,3.078"/>
<path fill="#59B4D9" d="M8.599,50c-2.56,0-4.724-0.811-6.261-2.346c-2.84-2.841-3.101-7.602-0.735-13.413
	c2.336-5.739,7.078-12.278,13.715-18.916C25.056,5.585,34.558,0,41.387,0c2.56,0,4.724,0.811,6.26,2.347
	c5.786,5.787,0.57,18.778-12.979,32.33C24.929,44.415,15.427,50,8.599,50 M41.387,3.078c-5.93,0-14.861,5.393-23.893,14.424
	C11.146,23.85,6.634,30.04,4.453,35.402c-1.869,4.588-1.845,8.166,0.063,10.074c0.959,0.96,2.332,1.446,4.083,1.446
	c5.93,0,14.86-5.392,23.892-14.424C45.933,19.056,49.194,8.249,45.468,4.522C44.509,3.564,43.137,3.078,41.387,3.078"/>
<path fill="#59B4D9" d="M31.914,20.031c-0.291-0.318-0.639-0.551-1.022-0.71c-1.768-0.736-4.322,0.18-5.922,2.451
	c-2.46-2.968-5.402-3.526-7.039-1.741c-3.272,3.563,0.826,8.244,4.058,10.902c1.274,1.048,2.413,1.781,2.914,2.008v0.023
	c0.004-0.001,0.014-0.008,0.017-0.009c0,0,0.018,0.008,0.024,0.009v-0.023C26.713,32.139,36.473,24.998,31.914,20.031"/>
</svg>
