<?xml version="1.0" encoding="utf-8"?>
<!-- Generator: Adobe Illustrator 17.0.1, SVG Export Plug-In . SVG Version: 6.00 Build 0)  -->
<!DOCTYPE svg PUBLIC "-//W3C//DTD SVG 1.1//EN" "http://www.w3.org/Graphics/SVG/1.1/DTD/svg11.dtd">
<svg version="1.1" id="Layer_1" xmlns="http://www.w3.org/2000/svg" xmlns:xlink="http://www.w3.org/1999/xlink" x="0px" y="0px"
	 width="50px" height="50px" viewBox="0 0 50 50" enable-background="new 0 0 50 50" xml:space="preserve">
<path fill="#FFFFFF" d="M23.844,21.87c0.132-0.091,0.264-0.182,0.395-0.263C24.107,21.688,23.976,21.779,23.844,21.87L23.844,21.87z
	"/>
<polygon fill="#FFFFFF" points="25.134,23.341 25.122,23.328 25.135,23.341 "/>
<path fill="#A0A1A2" d="M41.386,50c-6.829,0-16.33-5.585-26.069-15.323C1.768,21.125-3.448,8.134,2.338,2.348
	C3.875,0.811,6.039,0,8.599,0c6.829,0,16.331,5.585,26.069,15.325c6.637,6.638,11.379,13.177,13.715,18.916
	c2.365,5.811,2.104,10.572-0.736,13.413C46.111,49.189,43.946,50,41.386,50 M8.599,3.078c-1.75,0-3.124,0.486-4.083,1.445
	C0.791,8.249,4.052,19.056,17.495,32.498c9.031,9.032,17.962,14.424,23.892,14.424c1.75,0,3.123-0.486,4.082-1.446
	c1.908-1.908,1.932-5.486,0.063-10.074C43.35,30.04,38.84,23.85,32.49,17.502C23.459,8.471,14.528,3.078,8.599,3.078"/>
<path fill="#0F0F0F" d="M8.599,50c-2.56,0-4.724-0.811-6.261-2.346c-2.84-2.841-3.101-7.602-0.735-13.413
	c2.336-5.739,7.078-12.278,13.715-18.916C25.056,5.585,34.558,0,41.387,0c2.56,0,4.724,0.811,6.26,2.347
	c5.786,5.787,0.57,18.778-12.979,32.33C24.929,44.415,15.427,50,8.599,50 M41.387,3.078c-5.93,0-14.861,5.393-23.893,14.424
	c-6.348,6.348-10.86,12.538-13.041,17.9c-1.869,4.588-1.845,8.166,0.063,10.074c0.959,0.96,2.332,1.446,4.083,1.446
	c5.93,0,14.86-5.392,23.892-14.424C45.933,19.056,49.194,8.249,45.468,4.522C44.509,3.564,43.137,3.078,41.387,3.078"/>
<path fill="#BA141A" d="M32.273,20.801c-0.303-0.33-0.665-0.573-1.063-0.739c-1.839-0.766-4.496,0.188-6.16,2.55
	c-2.559-3.088-5.619-3.668-7.323-1.811c-3.404,3.706,0.859,8.576,4.221,11.341c1.325,1.09,2.51,1.853,3.032,2.089v0.024
	c0.005-0.001,0.014-0.009,0.018-0.009c0,0,0.018,0.009,0.025,0.009v-0.024C26.863,33.397,37.017,25.969,32.273,20.801"/>
<path opacity="0.2" fill="#FFFFFF" d="M25.05,22.613c-2.559-3.088-5.619-3.668-7.323-1.811c-3.404,3.706,0.859,8.576,4.221,11.341
	l9.262-12.08C29.371,19.297,26.714,20.25,25.05,22.613"/>
</svg>
