<?xml version="1.0" encoding="UTF-8" standalone="no"?>
<!-- Generator: Adobe Illustrator 17.1.0, SVG Export Plug-In . SVG Version: 6.00 Build 0)  -->

<svg
   xmlns:dc="http://purl.org/dc/elements/1.1/"
   xmlns:cc="http://creativecommons.org/ns#"
   xmlns:rdf="http://www.w3.org/1999/02/22-rdf-syntax-ns#"
   xmlns:svg="http://www.w3.org/2000/svg"
   xmlns="http://www.w3.org/2000/svg"
   xmlns:sodipodi="http://sodipodi.sourceforge.net/DTD/sodipodi-0.dtd"
   xmlns:inkscape="http://www.inkscape.org/namespaces/inkscape"
   version="1.1"
   id="Layer_1"
   x="0px"
   y="0px"
   height="49.820141"
   width="30.79566"
   viewBox="0 0 30.79566 49.820141"
   enable-background="new 0 0 50 50"
   xml:space="preserve"
   sodipodi:docname="Power.svg"
   inkscape:version="0.92.3 (2405546, 2018-03-11)"><metadata
   id="metadata1996"><rdf:RDF><cc:Work
       rdf:about=""><dc:format>image/svg+xml</dc:format><dc:type
         rdf:resource="http://purl.org/dc/dcmitype/StillImage" /><dc:title></dc:title></cc:Work></rdf:RDF></metadata><defs
   id="defs1994" /><sodipodi:namedview
   pagecolor="#ffffff"
   bordercolor="#666666"
   borderopacity="1"
   objecttolerance="10"
   gridtolerance="10"
   guidetolerance="10"
   inkscape:pageopacity="0"
   inkscape:pageshadow="2"
   inkscape:window-width="1920"
   inkscape:window-height="1017"
   id="namedview1992"
   showgrid="false"
   fit-margin-top="0"
   fit-margin-left="0"
   fit-margin-right="0"
   fit-margin-bottom="0"
   inkscape:zoom="12.020815"
   inkscape:cx="8.7331457"
   inkscape:cy="16.924312"
   inkscape:window-x="1912"
   inkscape:window-y="-8"
   inkscape:window-maximized="1"
   inkscape:current-layer="Layer_1" />
<g
   id="g1989"
   transform="translate(-9.5382955)">
	<g
   id="g1981">
		<path
   d="M 36.4,0 H 17.6 l -8,25.2 c -0.2,0.6 0.1,1 0.7,1 h 8.8 c 0.3,0 0.5,0.1 0.6,0.2 0.2,0.2 0.2,0.5 0.1,0.8 L 10.7,49.3 C 10.5,49.9 10.6,50 11,49.5 L 40.1,17 c 0.4,-0.5 0.2,-0.9 -0.4,-0.9 h -9.5 -1.7 c -0.6,0 -0.9,-0.4 -0.6,-1 z"
   id="path1979"
   inkscape:connector-curvature="0"
   style="fill:#fcd116" />
	</g>
	<path
   d="M 39.7,16.1 H 33.9 L 12.3,48.5 40.1,17 c 0.4,-0.5 0.3,-0.9 -0.4,-0.9 z"
   id="path1983"
   inkscape:connector-curvature="0"
   style="opacity:0.3;fill:#ff8c00" />
	<g
   id="g1987"
   style="opacity:0.3">
		<path
   d="m 36.4,0 h -5.5 l -7.8,16.1 h 5.2 c -0.5,-0.1 -0.7,-0.5 -0.4,-1 z"
   id="path1985"
   inkscape:connector-curvature="0"
   style="fill:#ff8c00" />
	</g>
</g>
</svg>