<?xml version="1.0" encoding="UTF-8" standalone="no"?>
<!-- Generator: Adobe Illustrator 17.0.1, SVG Export Plug-In . SVG Version: 6.00 Build 0)  -->

<svg
   xmlns:dc="http://purl.org/dc/elements/1.1/"
   xmlns:cc="http://creativecommons.org/ns#"
   xmlns:rdf="http://www.w3.org/1999/02/22-rdf-syntax-ns#"
   xmlns:svg="http://www.w3.org/2000/svg"
   xmlns="http://www.w3.org/2000/svg"
   xmlns:sodipodi="http://sodipodi.sourceforge.net/DTD/sodipodi-0.dtd"
   xmlns:inkscape="http://www.inkscape.org/namespaces/inkscape"
   version="1.1"
   id="Layer_1"
   x="0px"
   y="0px"
   width="50"
   height="42.633999"
   viewBox="0 0 50 42.633999"
   enable-background="new 0 0 50 50"
   xml:space="preserve"
   sodipodi:docname="Powershell.svg"
   inkscape:version="0.92.3 (2405546, 2018-03-11)"><metadata
   id="metadata2089"><rdf:RDF><cc:Work
       rdf:about=""><dc:format>image/svg+xml</dc:format><dc:type
         rdf:resource="http://purl.org/dc/dcmitype/StillImage" /><dc:title></dc:title></cc:Work></rdf:RDF></metadata><defs
   id="defs2087" /><sodipodi:namedview
   pagecolor="#ffffff"
   bordercolor="#666666"
   borderopacity="1"
   objecttolerance="10"
   gridtolerance="10"
   guidetolerance="10"
   inkscape:pageopacity="0"
   inkscape:pageshadow="2"
   inkscape:window-width="1920"
   inkscape:window-height="1017"
   id="namedview2085"
   showgrid="false"
   fit-margin-top="0"
   fit-margin-left="0"
   fit-margin-right="0"
   fit-margin-bottom="0"
   inkscape:zoom="8.5"
   inkscape:cx="12.99208"
   inkscape:cy="13.588753"
   inkscape:window-x="1912"
   inkscape:window-y="-8"
   inkscape:window-maximized="1"
   inkscape:current-layer="Layer_1" />
<path
   d="m 0,40.627 c 0,1.108 0.898,2.007 2.007,2.007 H 47.993 C 49.102,42.634 50,41.735 50,40.627 V 8.634 H 0 Z"
   id="path2072"
   inkscape:connector-curvature="0"
   style="fill:#3999c6" />
<path
   d="M 47.993,0 H 2.007 C 0.898,0 0,0.898 0,2.007 V 9.298 H 50 V 2.007 C 50,0.898 49.101,0 47.993,0 Z"
   id="path2074"
   inkscape:connector-curvature="0"
   style="fill:#a0a1a2" />
<rect
   y="9.2980003"
   width="50"
   height="3.336"
   id="rect2076"
   x="0"
   style="opacity:0.15;fill:#ffffff" />
<path
   d="M 2.014,0 C 0.906,0 0.007,0.898 0.007,2.007 v 7.291 3.336 27.993 c 0,1.108 0.899,2.007 2.007,2.007 H 21.202 L 43.62,0 Z"
   id="path2078"
   inkscape:connector-curvature="0"
   style="opacity:0.1;fill:#ffffff" />
<polygon
   points="16.343,31.637 16.343,31.584 7.363,26.563 7.363,25.317 18.397,31.505 18.397,31.743 7.363,37.334 7.363,36.062 "
   id="polygon2080"
   style="fill:#ffffff"
   transform="translate(0,-4)" />
<rect
   x="17.621"
   y="37.785"
   width="11.262"
   height="1.576"
   id="rect2082"
   style="fill:#ffffff" />
</svg>