<?xml version="1.0" encoding="utf-8"?>
<!-- Generator: Adobe Illustrator 17.1.0, SVG Export Plug-In . SVG Version: 6.00 Build 0)  -->
<!DOCTYPE svg PUBLIC "-//W3C//DTD SVG 1.1//EN" "http://www.w3.org/Graphics/SVG/1.1/DTD/svg11.dtd">
<svg version="1.1" id="Layer_1" xmlns="http://www.w3.org/2000/svg" xmlns:xlink="http://www.w3.org/1999/xlink" x="0px" y="0px"
	 height="40px" width="40px" viewBox="0 0 40 40" enable-background="new 0 0 40 40" xml:space="preserve">
<polygon fill="#B8D432" points="40,20.4 40,17.5 22.5,0 19.6,0 1.8,0 40,38.1 "/>
<path fill="#7FBA00" d="M15.1,4.6l-1.3,1.3l-0.6-0.6l3.6-3.6l1.1,1.1c0.4,0.4,0.6,0.8,0.7,1.2c0,0.4-0.1,0.8-0.5,1.2
	c-0.3,0.3-0.8,0.5-1.2,0.5c-0.5,0-0.9-0.2-1.3-0.6L15.1,4.6z M16.9,2.8l-1.3,1.3L16,4.5c0.3,0.3,0.5,0.4,0.8,0.4
	c0.3,0,0.5-0.1,0.7-0.3c0.4-0.4,0.4-0.9-0.1-1.4L16.9,2.8z"/>
<path fill="#7FBA00" d="M19.1,11.2l-0.7-0.7l0.4-1.5c0-0.1,0.1-0.3,0.1-0.4c0-0.1,0-0.2,0-0.3c0-0.1,0-0.2-0.1-0.3
	c0-0.1-0.1-0.2-0.2-0.2l-0.2-0.2L16.9,9l-0.6-0.6l3.6-3.6L21.1,6c0.2,0.2,0.3,0.3,0.4,0.5c0.1,0.2,0.2,0.4,0.2,0.6
	c0,0.2,0,0.4-0.1,0.6c-0.1,0.2-0.2,0.4-0.3,0.5c-0.1,0.1-0.3,0.2-0.4,0.3c-0.1,0.1-0.3,0.1-0.4,0.1c-0.2,0-0.3,0-0.5,0
	c-0.2,0-0.3-0.1-0.5-0.2l0,0c0,0.1,0,0.2,0,0.3c0,0.1,0,0.2,0,0.3c0,0.1,0,0.2,0,0.3c0,0.1,0,0.2-0.1,0.3L19.1,11.2z M20,5.9
	l-1.2,1.2l0.5,0.5c0.1,0.1,0.2,0.2,0.3,0.2c0.1,0,0.2,0.1,0.3,0.1c0.1,0,0.2,0,0.3-0.1c0.1,0,0.2-0.1,0.3-0.2
	c0.2-0.2,0.3-0.4,0.2-0.6c0-0.2-0.1-0.4-0.3-0.6L20,5.9z"/>
<path fill="#7FBA00" d="M21.6,13.7l-2-2l3.6-3.6l1.9,1.9l-0.5,0.5l-1.3-1.3l-1,1l1.2,1.2L23,12l-1.2-1.2l-1.1,1.1l1.4,1.4L21.6,13.7
	z"/>
<path fill="#7FBA00" d="M28.8,13.7L23.9,16l-0.7-0.7l2.3-4.9l0.7,0.7l-1.8,3.6c-0.1,0.1-0.1,0.2-0.2,0.4l0,0
	c0.1-0.1,0.2-0.2,0.4-0.2l3.6-1.8L28.8,13.7z"/>
<path fill="#7FBA00" d="M26.4,18.5l-0.6-0.6l3.6-3.6l0.6,0.6L26.4,18.5z"/>
<path fill="#7FBA00" d="M29.4,21.5l-2-2l3.6-3.6l1.9,1.9l-0.5,0.5L31.1,17l-1,1l1.2,1.2l-0.5,0.5l-1.2-1.2l-1.1,1.1l1.4,1.4
	L29.4,21.5z"/>
<path fill="#7FBA00" d="M38.3,23.2l-4.6,2.6L33,25.1l1.8-3.2c0.1-0.1,0.2-0.3,0.3-0.4l0,0c-0.1,0.1-0.3,0.2-0.4,0.3l-3.2,1.8
	l-0.7-0.7l2.6-4.6l0.7,0.7l-2,3.3c-0.1,0.1-0.2,0.3-0.3,0.4l0,0c0.1-0.1,0.2-0.2,0.4-0.3l3.4-1.9l0.6,0.6l-2,3.3
	c-0.1,0.1-0.2,0.2-0.3,0.4l0,0c0.1-0.1,0.2-0.2,0.4-0.3l3.3-2L38.3,23.2z"/>
<path opacity="0.35" fill="#1E1E1E" enable-background="new    " d="M15.1,4.6l-1.3,1.3l-0.6-0.6l3.6-3.6l1.1,1.1
	c0.4,0.4,0.6,0.8,0.7,1.2c0,0.4-0.1,0.8-0.5,1.2c-0.3,0.3-0.8,0.5-1.2,0.5c-0.5,0-0.9-0.2-1.3-0.6L15.1,4.6z M16.9,2.8l-1.3,1.3
	L16,4.5c0.3,0.3,0.5,0.4,0.8,0.4c0.3,0,0.5-0.1,0.7-0.3c0.4-0.4,0.4-0.9-0.1-1.4L16.9,2.8z"/>
<path opacity="0.35" fill="#1E1E1E" enable-background="new    " d="M19.1,11.2l-0.7-0.7l0.4-1.5c0-0.1,0.1-0.3,0.1-0.4
	c0-0.1,0-0.2,0-0.3c0-0.1,0-0.2-0.1-0.3c0-0.1-0.1-0.2-0.2-0.2l-0.2-0.2L16.9,9l-0.6-0.6l3.6-3.6L21.1,6c0.2,0.2,0.3,0.3,0.4,0.5
	c0.1,0.2,0.2,0.4,0.2,0.6c0,0.2,0,0.4-0.1,0.6c-0.1,0.2-0.2,0.4-0.3,0.5c-0.1,0.1-0.3,0.2-0.4,0.3c-0.1,0.1-0.3,0.1-0.4,0.1
	c-0.2,0-0.3,0-0.5,0c-0.2,0-0.3-0.1-0.5-0.2l0,0c0,0.1,0,0.2,0,0.3c0,0.1,0,0.2,0,0.3c0,0.1,0,0.2,0,0.3c0,0.1,0,0.2-0.1,0.3
	L19.1,11.2z M20,5.9l-1.2,1.2l0.5,0.5c0.1,0.1,0.2,0.2,0.3,0.2c0.1,0,0.2,0.1,0.3,0.1c0.1,0,0.2,0,0.3-0.1c0.1,0,0.2-0.1,0.3-0.2
	c0.2-0.2,0.3-0.4,0.2-0.6c0-0.2-0.1-0.4-0.3-0.6L20,5.9z"/>
<path opacity="0.35" fill="#1E1E1E" enable-background="new    " d="M21.6,13.7l-2-2l3.6-3.6l1.9,1.9l-0.5,0.5l-1.3-1.3l-1,1
	l1.2,1.2L23,12l-1.2-1.2l-1.1,1.1l1.4,1.4L21.6,13.7z"/>
<path opacity="0.35" fill="#1E1E1E" enable-background="new    " d="M28.8,13.7L23.9,16l-0.7-0.7l2.3-4.9l0.7,0.7l-1.8,3.6
	c-0.1,0.1-0.1,0.2-0.2,0.4l0,0c0.1-0.1,0.2-0.2,0.4-0.2l3.6-1.8L28.8,13.7z"/>
<path opacity="0.35" fill="#1E1E1E" enable-background="new    " d="M26.4,18.5l-0.6-0.6l3.6-3.6l0.6,0.6L26.4,18.5z"/>
<path opacity="0.35" fill="#1E1E1E" enable-background="new    " d="M29.4,21.5l-2-2l3.6-3.6l1.9,1.9l-0.5,0.5L31.1,17l-1,1l1.2,1.2
	l-0.5,0.5l-1.2-1.2l-1.1,1.1l1.4,1.4L29.4,21.5z"/>
<path opacity="0.35" fill="#1E1E1E" enable-background="new    " d="M38.3,23.2l-4.6,2.6L33,25.1l1.8-3.2c0.1-0.1,0.2-0.3,0.3-0.4
	l0,0c-0.1,0.1-0.3,0.2-0.4,0.3l-3.2,1.8l-0.7-0.7l2.6-4.6l0.7,0.7l-2,3.3c-0.1,0.1-0.2,0.3-0.3,0.4l0,0c0.1-0.1,0.2-0.2,0.4-0.3
	l3.4-1.9l0.6,0.6l-2,3.3c-0.1,0.1-0.2,0.2-0.3,0.4l0,0c0.1-0.1,0.2-0.2,0.4-0.3l3.3-2L38.3,23.2z"/>
<polygon opacity="0.6" fill="#1E1E1E" enable-background="new    " points="40,38.1 1.8,0 0,0 40,40 "/>
</svg>
