<?xml version="1.0" encoding="UTF-8" standalone="no"?>
<!-- Generator: Adobe Illustrator 17.1.0, SVG Export Plug-In . SVG Version: 6.00 Build 0)  -->

<svg
   xmlns:dc="http://purl.org/dc/elements/1.1/"
   xmlns:cc="http://creativecommons.org/ns#"
   xmlns:rdf="http://www.w3.org/1999/02/22-rdf-syntax-ns#"
   xmlns:svg="http://www.w3.org/2000/svg"
   xmlns="http://www.w3.org/2000/svg"
   xmlns:sodipodi="http://sodipodi.sourceforge.net/DTD/sodipodi-0.dtd"
   xmlns:inkscape="http://www.inkscape.org/namespaces/inkscape"
   version="1.1"
   id="Layer_1"
   x="0px"
   y="0px"
   height="46"
   width="50"
   viewBox="0 0 50 46"
   enable-background="new 0 0 50 50"
   xml:space="preserve"
   sodipodi:docname="ProcessExplorer.svg"
   inkscape:version="0.92.3 (2405546, 2018-03-11)"><metadata
   id="metadata2592"><rdf:RDF><cc:Work
       rdf:about=""><dc:format>image/svg+xml</dc:format><dc:type
         rdf:resource="http://purl.org/dc/dcmitype/StillImage" /><dc:title></dc:title></cc:Work></rdf:RDF></metadata><defs
   id="defs2590" /><sodipodi:namedview
   pagecolor="#ffffff"
   bordercolor="#666666"
   borderopacity="1"
   objecttolerance="10"
   gridtolerance="10"
   guidetolerance="10"
   inkscape:pageopacity="0"
   inkscape:pageshadow="2"
   inkscape:window-width="1920"
   inkscape:window-height="1017"
   id="namedview2588"
   showgrid="false"
   fit-margin-top="0"
   fit-margin-left="0"
   fit-margin-right="0"
   fit-margin-bottom="0"
   inkscape:zoom="12.020815"
   inkscape:cx="26.388834"
   inkscape:cy="21.854821"
   inkscape:window-x="1912"
   inkscape:window-y="-8"
   inkscape:window-maximized="1"
   inkscape:current-layer="Layer_1" />
<path
   d="M 32.4,36.4 H 31.2 19.4 18.8 C 20.4,42.1 18.2,43 8.6,43 v 3 h 12.2 8.9 11.5 v -3 c -9.5,0 -10.4,-0.8 -8.8,-6.6"
   id="path2567"
   inkscape:connector-curvature="0"
   style="fill:#7a7a7a" />
<path
   d="M 47,0 H 2.7 C 1.2,0 0,1.3 0,2.8 v 30.8 c 0,1.5 1.2,2.8 2.7,2.8 H 47 c 1.5,0 3,-1.3 3,-2.8 V 2.8 C 50,1.3 48.5,0 47,0 M 46.2,3.8 V 32.5 H 3.8 V 3.8 L 46.2,3.7 Z"
   id="path2569"
   inkscape:connector-curvature="0"
   style="fill:#a0a1a2" />
<polygon
   points="3.8,34.6 3.8,5.8 46.2,5.8 46.1,5.8 46.1,34.6 "
   id="polygon2571"
   style="fill:#59b4d9"
   transform="translate(0,-2)" />
<path
   d="m 3.8,32.6 v 0 V 3.8 L 42.5,3.7 47,0 c 0,0 0,0 0,0 H 2.7 C 1.2,0 0,1.3 0,2.8 v 30.8 c 0,1.5 1.2,2.8 2.7,2.8 h 1.1 l 4.6,-3.8 z"
   id="path2573"
   inkscape:connector-curvature="0"
   style="opacity:0.2;fill:#ffffff" />
<polygon
   points="3.8,5.8 42.5,5.8 42.5,5.8 3.8,5.8 3.8,34.6 "
   id="polygon2575"
   style="fill:#59b4d9"
   transform="translate(0,-2)" />
<rect
   x="8.6999998"
   y="43"
   width="32.700001"
   height="3"
   id="rect2577"
   style="fill:#a0a1a2" />
<path
   d="m 25.5,2.1 c 0,0.4 -0.3,0.7 -0.7,0.7 -0.4,0 -0.7,-0.3 -0.7,-0.7 0,-0.4 0.3,-0.7 0.7,-0.7 0.4,0 0.7,0.3 0.7,0.7"
   id="path2579"
   inkscape:connector-curvature="0"
   style="fill:#b8d432" />
<polygon
   points="16.2,24.9 21.5,18.8 25.1,22.2 31.3,10.6 35,27.1 38.6,18.9 46.2,21.9 46.2,34.6 3.8,34.6 3.8,20.7 12.5,18.8 "
   id="polygon2581"
   style="fill:#0072c6"
   transform="translate(0,-2)" />
<g
   id="g2585"
   transform="translate(0,-2)">
	<path
   d="M 38.1,17.4 35.3,23.7 31.7,7.5 24.9,20.3 21.4,17.1 16.3,23 13,17.4 l -9.2,2 v 2 c 0.1,0 0.1,0 0.2,0 l 8,-1.8 4,6.7 5.6,-6.4 3.8,3.6 5.5,-10.4 3.7,16.8 4.5,-9.9 6.7,2.6 c 0.1,0 0.2,0 0.3,0 v -2.1 z"
   id="path2583"
   inkscape:connector-curvature="0"
   style="fill:#b8d432" />
</g>
</svg>