<?xml version="1.0" encoding="UTF-8" standalone="no"?>
<!-- Generator: Adobe Illustrator 17.0.1, SVG Export Plug-In . SVG Version: 6.00 Build 0)  -->

<svg
   xmlns:dc="http://purl.org/dc/elements/1.1/"
   xmlns:cc="http://creativecommons.org/ns#"
   xmlns:rdf="http://www.w3.org/1999/02/22-rdf-syntax-ns#"
   xmlns:svg="http://www.w3.org/2000/svg"
   xmlns="http://www.w3.org/2000/svg"
   xmlns:sodipodi="http://sodipodi.sourceforge.net/DTD/sodipodi-0.dtd"
   xmlns:inkscape="http://www.inkscape.org/namespaces/inkscape"
   version="1.1"
   id="Layer_1"
   x="0px"
   y="0px"
   width="50"
   height="45.137001"
   viewBox="0.5 0.5 50 45.137001"
   enable-background="new 0.5 0.5 50 50"
   xml:space="preserve"
   sodipodi:docname="Publish.svg"
   inkscape:version="0.92.3 (2405546, 2018-03-11)"><metadata
   id="metadata2712"><rdf:RDF><cc:Work
       rdf:about=""><dc:format>image/svg+xml</dc:format><dc:type
         rdf:resource="http://purl.org/dc/dcmitype/StillImage" /><dc:title></dc:title></cc:Work></rdf:RDF></metadata><defs
   id="defs2710" /><sodipodi:namedview
   pagecolor="#ffffff"
   bordercolor="#666666"
   borderopacity="1"
   objecttolerance="10"
   gridtolerance="10"
   guidetolerance="10"
   inkscape:pageopacity="0"
   inkscape:pageshadow="2"
   inkscape:window-width="1920"
   inkscape:window-height="1017"
   id="namedview2708"
   showgrid="false"
   fit-margin-top="0"
   fit-margin-left="0"
   fit-margin-right="0"
   fit-margin-bottom="0"
   inkscape:zoom="17"
   inkscape:cx="25"
   inkscape:cy="22.137"
   inkscape:window-x="1912"
   inkscape:window-y="-8"
   inkscape:window-maximized="1"
   inkscape:current-layer="Layer_1" />
<path
   d="m 45.636,23.068 c 0,-0.326 -0.007,-0.65 -0.021,-0.973 h -4.288 c 0.017,0.322 0.029,0.646 0.029,0.973 0,0.458 -0.021,0.912 -0.054,1.362 -0.283,3.821 -1.744,7.319 -4.023,10.131 -1.325,-0.697 -2.826,-1.296 -4.46,-1.78 0.739,-2.513 1.203,-5.342 1.311,-8.351 0.016,-0.451 0.027,-0.904 0.027,-1.362 0,-0.326 -0.005,-0.65 -0.013,-0.973 -0.077,-3.011 -0.507,-5.85 -1.217,-8.381 1.682,-0.504 3.22,-1.132 4.57,-1.863 1.364,-0.739 2.534,-1.582 3.471,-2.505 C 40.491,8.725 39.981,8.131 39.444,7.563 35.328,3.219 29.511,0.5 23.068,0.5 16.625,0.5 10.808,3.219 6.692,7.563 6.154,8.131 5.645,8.725 5.168,9.346 2.244,13.152 0.5,17.909 0.5,23.068 c 0,5.261 1.814,10.103 4.843,13.945 0.483,0.612 0.995,1.199 1.537,1.758 4.104,4.23 9.842,6.866 16.187,6.866 6.345,0 12.084,-2.637 16.188,-6.867 0.542,-0.559 1.055,-1.145 1.537,-1.758 2.766,-3.508 4.514,-7.85 4.798,-12.583 0.028,-0.45 0.046,-0.903 0.046,-1.361 z M 10.507,36.341 c 1.094,-0.53 2.29,-0.983 3.563,-1.355 0.838,2.143 1.893,3.98 3.11,5.389 -2.515,-0.858 -4.784,-2.245 -6.673,-4.034 z M 4.834,24.43 h 7.172 c 0.108,3.01 0.571,5.838 1.311,8.351 -1.633,0.483 -3.134,1.082 -4.46,1.78 C 6.578,31.749 5.117,28.251 4.834,24.43 Z M 8.639,11.852 c 1.35,0.731 2.888,1.359 4.57,1.863 -0.71,2.531 -1.14,5.37 -1.217,8.381 H 4.809 c 0.203,-3.849 1.602,-7.384 3.83,-10.244 z m 8.543,-6.094 c -1.284,1.485 -2.39,3.444 -3.25,5.74 -1.326,-0.396 -2.567,-0.879 -3.694,-1.447 1.942,-1.914 4.31,-3.394 6.944,-4.293 z m 4.524,6.97 c -1.91,-0.072 -3.76,-0.293 -5.5,-0.656 0.32,-0.824 0.676,-1.607 1.072,-2.335 1.278,-2.354 2.839,-3.923 4.428,-4.506 z m 0,9.367 h -7.38 c 0.074,-2.77 0.466,-5.417 1.14,-7.801 1.95,0.425 4.048,0.69 6.24,0.769 z m 0,9.366 c -2.153,0.077 -4.214,0.335 -6.133,0.747 C 14.868,29.841 14.446,27.2 14.342,24.43 h 7.364 z m 0,9.444 c -1.589,-0.583 -3.15,-2.151 -4.428,-4.506 -0.338,-0.622 -0.648,-1.283 -0.93,-1.976 1.698,-0.346 3.5,-0.556 5.358,-0.627 z m 2.335,-7.123 c 1.997,0.053 3.931,0.271 5.747,0.641 -0.283,0.693 -0.593,1.354 -0.93,1.976 -1.382,2.546 -3.095,4.174 -4.817,4.628 z M 28.858,9.737 c 0.395,0.728 0.752,1.511 1.072,2.335 -1.858,0.388 -3.84,0.616 -5.889,0.671 V 5.109 c 1.721,0.454 3.434,2.082 4.817,4.628 z m 3.345,1.761 c -0.859,-2.296 -1.965,-4.254 -3.25,-5.74 2.634,0.899 5.002,2.379 6.944,4.293 -1.127,0.568 -2.368,1.051 -3.694,1.447 z M 31.81,22.095 h -7.769 v -7.017 c 2.334,-0.06 4.564,-0.334 6.629,-0.784 0.673,2.384 1.066,5.032 1.14,7.801 z m -0.016,2.335 c -0.104,2.771 -0.526,5.412 -1.231,7.778 -2.035,-0.437 -4.228,-0.703 -6.522,-0.761 V 24.43 Z m 3.835,11.911 c -1.891,1.79 -4.162,3.181 -6.677,4.039 1.219,-1.41 2.275,-3.249 3.114,-5.395 1.274,0.372 2.47,0.825 3.563,1.356 z"
   id="path2703"
   inkscape:connector-curvature="0"
   style="fill:#59b4d9" />
<polygon
   points="36.785,26.43 50.5,26.43 43.642,14.552 "
   id="polygon2705"
   style="fill:#59b4d9"
   transform="translate(0,-2)" />
</svg>