<?xml version="1.0" encoding="UTF-8" standalone="no"?>
<!-- Generator: Adobe Illustrator 17.1.0, SVG Export Plug-In . SVG Version: 6.00 Build 0)  -->

<svg
   xmlns:dc="http://purl.org/dc/elements/1.1/"
   xmlns:cc="http://creativecommons.org/ns#"
   xmlns:rdf="http://www.w3.org/1999/02/22-rdf-syntax-ns#"
   xmlns:svg="http://www.w3.org/2000/svg"
   xmlns="http://www.w3.org/2000/svg"
   xmlns:sodipodi="http://sodipodi.sourceforge.net/DTD/sodipodi-0.dtd"
   xmlns:inkscape="http://www.inkscape.org/namespaces/inkscape"
   version="1.1"
   id="Layer_1"
   x="0px"
   y="0px"
   height="50"
   width="41.400002"
   viewBox="0 0 41.400002 50"
   enable-background="new 0 0 50 50"
   xml:space="preserve"
   sodipodi:docname="PullRequest.svg"
   inkscape:version="0.92.3 (2405546, 2018-03-11)"><metadata
   id="metadata2856"><rdf:RDF><cc:Work
       rdf:about=""><dc:format>image/svg+xml</dc:format><dc:type
         rdf:resource="http://purl.org/dc/dcmitype/StillImage" /><dc:title></dc:title></cc:Work></rdf:RDF></metadata><defs
   id="defs2854" /><sodipodi:namedview
   pagecolor="#ffffff"
   bordercolor="#666666"
   borderopacity="1"
   objecttolerance="10"
   gridtolerance="10"
   guidetolerance="10"
   inkscape:pageopacity="0"
   inkscape:pageshadow="2"
   inkscape:window-width="1920"
   inkscape:window-height="1017"
   id="namedview2852"
   showgrid="false"
   fit-margin-top="0"
   fit-margin-left="0"
   fit-margin-right="0"
   fit-margin-bottom="0"
   inkscape:zoom="17"
   inkscape:cx="21"
   inkscape:cy="25"
   inkscape:window-x="1912"
   inkscape:window-y="-8"
   inkscape:window-maximized="1"
   inkscape:current-layer="Layer_1" />
<path
   d="M 4.8,33.6 C 2.2,33.8 0,36 0,38.8 v 6 C 0,47.7 2.4,50 5.2,50 h 6 c 2.9,0 5.2,-2.4 5.2,-5.2 v -6 c 0,-2.6 -2.1,-5 -4.8,-5.2 V 16.4 c 2.6,-0.2 4.8,-2.4 4.8,-5.2 v -6 C 16.4,2.3 14,0 11.2,0 h -6 C 2.4,0 0.1,2.4 0.1,5.2 v 6 c 0,2.6 2.1,5 4.8,5.2 v 0.6 0 16.1 0 0.5 M 12,11.2 c 0,0.2 -0.2,0.5 -0.5,0.5 h -6 C 5.3,11.7 5,11.5 5,11.2 v -6 C 5,5 5.2,4.7 5.5,4.7 h 6 C 11.7,4.8 12,5 12,5.2 v 6 M 4.8,39.3 c 0,-0.2 0.2,-0.5 0.5,-0.5 h 6 c 0.2,0 0.5,0.2 0.5,0.5 v 6 c 0,0.2 -0.2,0.5 -0.5,0.5 h -6 c -0.2,0 -0.5,-0.2 -0.5,-0.5 z"
   id="path2847"
   inkscape:connector-curvature="0"
   style="clip-rule:evenodd;fill:#194f7a;fill-rule:evenodd" />
<path
   d="M 36.7,33.6 H 36.6 V 23.3 c 0,-1 -0.5,-1.9 -1,-2.6 l -4,-3.9 4.4,-4.4 H 21.5 v 14.5 l 5.1,-5.1 2.8,2.8 v 9.1 C 27,34 25,36.1 25,38.8 v 6 c 0,2.9 2.4,5.2 5.2,5.2 h 6 c 2.9,0 5.2,-2.4 5.2,-5.2 v -6 c 0,-2.6 -2.1,-5 -4.7,-5.2 z m 0,11.6 c 0,0.2 -0.2,0.5 -0.5,0.5 h -6 c -0.2,0 -0.5,-0.2 -0.5,-0.5 v -6 c 0,-0.2 0.2,-0.5 0.5,-0.5 h 6 c 0.2,0 0.5,0.2 0.5,0.5 z"
   id="path2849"
   inkscape:connector-curvature="0"
   style="fill:#59b4d9" />
</svg>