<?xml version="1.0" encoding="UTF-8" standalone="no"?>
<!-- Generator: Adobe Illustrator 17.1.0, SVG Export Plug-In . SVG Version: 6.00 Build 0)  -->

<svg
   xmlns:dc="http://purl.org/dc/elements/1.1/"
   xmlns:cc="http://creativecommons.org/ns#"
   xmlns:rdf="http://www.w3.org/1999/02/22-rdf-syntax-ns#"
   xmlns:svg="http://www.w3.org/2000/svg"
   xmlns="http://www.w3.org/2000/svg"
   xmlns:sodipodi="http://sodipodi.sourceforge.net/DTD/sodipodi-0.dtd"
   xmlns:inkscape="http://www.inkscape.org/namespaces/inkscape"
   version="1.1"
   id="Layer_1"
   x="0px"
   y="0px"
   height="39.5"
   width="49.900002"
   viewBox="0 0 49.900002 39.5"
   enable-background="new 0 0 50 50"
   xml:space="preserve"
   sodipodi:docname="QSDiagnostics.svg"
   inkscape:version="0.92.3 (2405546, 2018-03-11)"><metadata
   id="metadata2933"><rdf:RDF><cc:Work
       rdf:about=""><dc:format>image/svg+xml</dc:format><dc:type
         rdf:resource="http://purl.org/dc/dcmitype/StillImage" /><dc:title></dc:title></cc:Work></rdf:RDF></metadata><defs
   id="defs2931" /><sodipodi:namedview
   pagecolor="#ffffff"
   bordercolor="#666666"
   borderopacity="1"
   objecttolerance="10"
   gridtolerance="10"
   guidetolerance="10"
   inkscape:pageopacity="0"
   inkscape:pageshadow="2"
   inkscape:window-width="1920"
   inkscape:window-height="1017"
   id="namedview2929"
   showgrid="false"
   fit-margin-top="0"
   fit-margin-left="0"
   fit-margin-right="0"
   fit-margin-bottom="0"
   inkscape:zoom="12.020815"
   inkscape:cx="13.426386"
   inkscape:cy="14.830452"
   inkscape:window-x="1912"
   inkscape:window-y="-8"
   inkscape:window-maximized="1"
   inkscape:current-layer="Layer_1" />
<path
   d="m 44.7,34.2 v -9.7 c -2.1,1.2 -5,2.3 -5.2,2.3 -0.9,0 -2.3,-1.8 -3.5,-3 -1.8,1.8 -5.2,5.4 -5.8,5.4 -1.5,0 -4.1,-7.8 -4.9,-9.6 -1.7,1.5 -4.9,4.8 -5.5,4.8 -0.6,0 -1.2,-0.8 -2.5,-1.6 V 34.3 H 44.7 Z M 44.7,22 V 12 H 17.3 v 8.2 c 1,0.4 1.2,1.2 2.2,1.8 2,-2.1 5.2,-5.7 6.1,-5.7 1.2,0 4.4,8.7 4.9,9.6 1.7,-1.5 4.9,-4.8 5.5,-4.8 0.9,0 2.6,2.1 3.8,3.3 z M 5.5,9.2 H 44.8 V 5.3 H 5.5 Z m 8.9,25 V 12 h -9 v 22.2 z m -2.5,-5.8 c 0,1.1 -0.9,2 -2,2 -1.1,0 -1.9,-0.9 -1.9,-2 0,-1.1 0.9,-2 1.9,-2 1,0 2,0.9 2,2 z m 0,-5.4 c 0,1.1 -0.9,2 -2,2 C 8.8,25 8,24.1 8,23 c 0,-1.1 0.9,-2 1.9,-2 1,0 2,0.8 2,2 z m 0,-5.6 c 0,1.1 -0.9,2 -2,2 -1.1,0 -1.9,-0.9 -1.9,-2 0,-1.1 0.9,-2 1.9,-2 1,0 2,0.9 2,2 z M 2.3,0 C 1.2,0 0,1.2 0,2.4 v 34.7 c 0,1.2 1.2,2.4 2.3,2.4 h 45.3 c 1.2,0 2.3,-1.2 2.3,-2.4 V 2.4 C 49.9,1.2 48.7,0 47.6,0 Z m 0,2.4 H 47.6 V 9.6 37.1 H 3.5 2.3 Z"
   id="path2926"
   inkscape:connector-curvature="0"
   style="clip-rule:evenodd;fill:#59b4d9;fill-rule:evenodd" />
</svg>