<?xml version="1.0" encoding="UTF-8" standalone="no"?>
<!-- Generator: Adobe Illustrator 17.1.0, SVG Export Plug-In . SVG Version: 6.00 Build 0)  -->

<svg
   xmlns:dc="http://purl.org/dc/elements/1.1/"
   xmlns:cc="http://creativecommons.org/ns#"
   xmlns:rdf="http://www.w3.org/1999/02/22-rdf-syntax-ns#"
   xmlns:svg="http://www.w3.org/2000/svg"
   xmlns="http://www.w3.org/2000/svg"
   xmlns:sodipodi="http://sodipodi.sourceforge.net/DTD/sodipodi-0.dtd"
   xmlns:inkscape="http://www.inkscape.org/namespaces/inkscape"
   version="1.1"
   id="Layer_1"
   x="0px"
   y="0px"
   height="49.799999"
   width="44.400002"
   viewBox="0 0 44.400002 49.799999"
   enable-background="new 0 0 50 50"
   xml:space="preserve"
   sodipodi:docname="QSFile.svg"
   inkscape:version="0.92.3 (2405546, 2018-03-11)"><metadata
   id="metadata3007"><rdf:RDF><cc:Work
       rdf:about=""><dc:format>image/svg+xml</dc:format><dc:type
         rdf:resource="http://purl.org/dc/dcmitype/StillImage" /><dc:title></dc:title></cc:Work></rdf:RDF></metadata><defs
   id="defs3005" /><sodipodi:namedview
   pagecolor="#ffffff"
   bordercolor="#666666"
   borderopacity="1"
   objecttolerance="10"
   gridtolerance="10"
   guidetolerance="10"
   inkscape:pageopacity="0"
   inkscape:pageshadow="2"
   inkscape:window-width="1920"
   inkscape:window-height="1017"
   id="namedview3003"
   showgrid="false"
   fit-margin-top="0"
   fit-margin-left="0"
   fit-margin-right="0"
   fit-margin-bottom="0"
   inkscape:zoom="17"
   inkscape:cx="22.2"
   inkscape:cy="24.8"
   inkscape:window-x="1912"
   inkscape:window-y="-8"
   inkscape:window-maximized="1"
   inkscape:current-layer="Layer_1" />
<path
   d="m 27.6,39 c 0,0.8 -0.6,1.4 -1.4,1.4 H 10.4 C 9.6,40.4 9,39.8 9,39 9,38.2 9.6,37.6 10.4,37.6 h 15.8 c 0.8,0 1.4,0.6 1.4,1.4"
   id="path2992"
   inkscape:connector-curvature="0"
   style="fill:#59b4d9" />
<path
   d="m 35.3,22.9 c 0,0.8 -0.6,1.4 -1.4,1.4 H 10.4 C 9.6,24.3 9,23.7 9,22.9 9,22.1 9.6,21.5 10.4,21.5 H 34 c 0.7,0.1 1.3,0.7 1.3,1.4"
   id="path2994"
   inkscape:connector-curvature="0"
   style="fill:#59b4d9" />
<path
   d="m 35.3,31 c 0,0.8 -0.6,1.4 -1.4,1.4 H 10.4 C 9.6,32.4 9,31.8 9,31 9,30.3 9.6,29.6 10.4,29.6 H 34 c 0.7,0 1.3,0.6 1.3,1.4"
   id="path2996"
   inkscape:connector-curvature="0"
   style="fill:#59b4d9" />
<path
   d="M 3.4,46.4 V 3.5 H 32.1 L 28.6,0 H 2.3 C 1.2,0 0,1.2 0,2.4 v 45 c 0,1.2 1.2,2.4 2.3,2.4 H 42 c 1.2,0 2.3,-1.2 2.3,-2.4 V 15.8 l -3.4,-3.4 v 34 z"
   id="path2998"
   inkscape:connector-curvature="0"
   style="fill:#59b4d9" />
<path
   d="m 28.7,0.1 v 13.3 c 0,1.2 1.2,2.4 2.3,2.4 h 13.4 z"
   id="path3000"
   inkscape:connector-curvature="0"
   style="fill:#59b4d9" />
</svg>