<?xml version="1.0" encoding="UTF-8" standalone="no"?>
<!-- Generator: Adobe Illustrator 17.1.0, SVG Export Plug-In . SVG Version: 6.00 Build 0)  -->

<svg
   xmlns:dc="http://purl.org/dc/elements/1.1/"
   xmlns:cc="http://creativecommons.org/ns#"
   xmlns:rdf="http://www.w3.org/1999/02/22-rdf-syntax-ns#"
   xmlns:svg="http://www.w3.org/2000/svg"
   xmlns="http://www.w3.org/2000/svg"
   xmlns:sodipodi="http://sodipodi.sourceforge.net/DTD/sodipodi-0.dtd"
   xmlns:inkscape="http://www.inkscape.org/namespaces/inkscape"
   version="1.1"
   id="Layer_1"
   x="0px"
   y="0px"
   height="38"
   width="50"
   viewBox="0 0 50 38"
   enable-background="new 0 0 50 50"
   xml:space="preserve"
   sodipodi:docname="QSMail.svg"
   inkscape:version="0.92.3 (2405546, 2018-03-11)"><metadata
   id="metadata3061"><rdf:RDF><cc:Work
       rdf:about=""><dc:format>image/svg+xml</dc:format><dc:type
         rdf:resource="http://purl.org/dc/dcmitype/StillImage" /><dc:title></dc:title></cc:Work></rdf:RDF></metadata><defs
   id="defs3059" /><sodipodi:namedview
   pagecolor="#ffffff"
   bordercolor="#666666"
   borderopacity="1"
   objecttolerance="10"
   gridtolerance="10"
   guidetolerance="10"
   inkscape:pageopacity="0"
   inkscape:pageshadow="2"
   inkscape:window-width="1920"
   inkscape:window-height="1017"
   id="namedview3057"
   showgrid="false"
   fit-margin-top="0"
   fit-margin-left="0"
   fit-margin-right="0"
   fit-margin-bottom="0"
   inkscape:zoom="17"
   inkscape:cx="25"
   inkscape:cy="19"
   inkscape:window-x="1912"
   inkscape:window-y="-8"
   inkscape:window-maximized="1"
   inkscape:current-layer="Layer_1" />
<g
   id="g3052"
   transform="translate(0,-6)">
	<path
   d="M 24.6,30.2 C 24,30.2 23.5,30 23,29.7 L 1,12.4 l 3.1,-3 20.5,16 21.3,-16.5 3.1,3 -22.8,17.7 c -0.5,0.4 -1,0.6 -1.6,0.6 z"
   id="path3050"
   inkscape:connector-curvature="0"
   style="fill:#59b4d9" />
</g>
<path
   d="M 4.4,34.3 H 46.1 L 46,4 H 3.8 L 3.9,33.7 Z M 48,38 H 2.6 C 1.1,38 0,36.9 0,35.5 V 2.6 C 0,1.1 1.1,0 2.6,0 H 47.5 C 48.9,0 50,1.1 50,2.6 v 32.9 c 0,1.4 -1.1,2.5 -2.6,2.5 z"
   id="path3054"
   inkscape:connector-curvature="0"
   style="fill:#59b4d9" />
</svg>