<?xml version="1.0" encoding="utf-8"?>
<!-- Generator: Adobe Illustrator 17.1.0, SVG Export Plug-In . SVG Version: 6.00 Build 0)  -->
<!DOCTYPE svg PUBLIC "-//W3C//DTD SVG 1.1//EN" "http://www.w3.org/Graphics/SVG/1.1/DTD/svg11.dtd">
<svg version="1.1" id="Layer_1" xmlns="http://www.w3.org/2000/svg" xmlns:xlink="http://www.w3.org/1999/xlink" x="0px" y="0px"
	 height="50px" width="50px" viewBox="0 0 50 50" enable-background="new 0 0 50 50" xml:space="preserve">
<path fill="#7A7A7A" d="M50,25.5c0-3.2-2.6-5.8-5.8-5.8c-0.2,0-0.5,0-0.7,0c0.4-1.3,0.5-2.7,0.5-4.1C44.1,7,37.1,0,28.6,0
	C21.8,0,16,4.4,14,10.6c-1.1-0.4-2.2-0.6-3.4-0.6C4.7,10,0,14.8,0,20.7c0,5.9,4.7,10.6,10.5,10.6c0,0,0,0,0,0v0h34.1l0,0
	C47.7,31,50,28.5,50,25.5"/>
<path opacity="0.2" fill="#FFFFFF" enable-background="new    " d="M16.2,31.3c-1.4-1.4-2.4-3.1-2.9-5.2c-1.3-5.7,2.2-11.4,7.9-12.7
	c1.2-0.3,2.4-0.3,3.5-0.2c0.5-5.4,3.8-10.1,8.6-12.5C31.8,0.3,30.3,0,28.6,0C21.8,0,16,4.4,14,10.6c-1.1-0.4-2.2-0.6-3.4-0.6
	C4.7,10,0,14.8,0,20.7c0,5.9,4.7,10.6,10.5,10.6c0,0,0,0,0,0v0H16.2z"/>
<path fill="#59B4D9" d="M38.1,44.8c0,2.9-2.3,5.2-5.2,5.2s-5.2-2.3-5.2-5.2s5.2-12.7,5.2-12.7S38.1,41.9,38.1,44.8z"/>
<path opacity="0.3" fill="#FFFFFF" d="M30.5,46.4c-0.5-2.5,1.3-9.8,2.5-14.1c-0.1-0.1-0.1-0.2-0.1-0.2s-5.2,9.8-5.2,12.7
	c0,2.7,2.1,5,4.8,5.2C31.5,49.1,30.8,47.8,30.5,46.4z"/>
</svg>
