<?xml version="1.0" encoding="UTF-8" standalone="no"?>
<!-- Generator: Adobe Illustrator 19.1.0, SVG Export Plug-In . SVG Version: 6.00 Build 0)  -->

<svg
   xmlns:dc="http://purl.org/dc/elements/1.1/"
   xmlns:cc="http://creativecommons.org/ns#"
   xmlns:rdf="http://www.w3.org/1999/02/22-rdf-syntax-ns#"
   xmlns:svg="http://www.w3.org/2000/svg"
   xmlns="http://www.w3.org/2000/svg"
   xmlns:sodipodi="http://sodipodi.sourceforge.net/DTD/sodipodi-0.dtd"
   xmlns:inkscape="http://www.inkscape.org/namespaces/inkscape"
   version="1.1"
   id="Layer_1"
   x="0px"
   y="0px"
   width="50.025116"
   height="34.141811"
   viewBox="0 0 50.025116 34.141811"
   enable-background="new 0 0 50 50"
   xml:space="preserve"
   sodipodi:docname="Recommendation.svg"
   inkscape:version="0.92.3 (2405546, 2018-03-11)"><metadata
   id="metadata3549"><rdf:RDF><cc:Work
       rdf:about=""><dc:format>image/svg+xml</dc:format><dc:type
         rdf:resource="http://purl.org/dc/dcmitype/StillImage" /><dc:title></dc:title></cc:Work></rdf:RDF></metadata><defs
   id="defs3547" /><sodipodi:namedview
   pagecolor="#ffffff"
   bordercolor="#666666"
   borderopacity="1"
   objecttolerance="10"
   gridtolerance="10"
   guidetolerance="10"
   inkscape:pageopacity="0"
   inkscape:pageshadow="2"
   inkscape:window-width="1920"
   inkscape:window-height="1017"
   id="namedview3545"
   showgrid="false"
   fit-margin-top="0"
   fit-margin-left="0"
   fit-margin-right="0"
   fit-margin-bottom="0"
   inkscape:zoom="8.5"
   inkscape:cx="-13.128877"
   inkscape:cy="12.525999"
   inkscape:window-x="1912"
   inkscape:window-y="-8"
   inkscape:window-maximized="1"
   inkscape:current-layer="Layer_1" />
<path
   d="m 10.212558,11.541811 v 12.7 c 0,3 6.6,5.3 14.8,5.3 v -18 z"
   id="path3522"
   inkscape:connector-curvature="0"
   style="fill:#0072c6" />
<path
   d="m 24.812558,29.641811 h 0.2 c 8.1,0 14.8,-2.4 14.8,-5.3 v -12.8 h -15 z"
   id="path3524"
   inkscape:connector-curvature="0"
   style="fill:#0072c6" />
<path
   d="m 24.812558,29.641811 h 0.2 c 8.1,0 14.8,-2.4 14.8,-5.3 v -12.8 h -15 z"
   id="path3526"
   inkscape:connector-curvature="0"
   style="opacity:0.15;fill:#ffffff" />
<g
   id="g3530"
   transform="translate(0.054153,-7.875)">
	<path
   d="m 48.6,16.6 c 1.8,0.7 1.8,2 0,2.7 l -20.3,8.3 c -1.8,0.7 -4.8,0.7 -6.6,0 L 1.4,19.4 c -1.8,-0.7 -1.8,-2 0,-2.7 L 21.7,8.4 c 1.8,-0.7 4.8,-0.7 6.6,0 z"
   id="path3528"
   inkscape:connector-curvature="0"
   style="fill:#0072c6" />
</g>
<path
   d="m 0.01255848,11.741811 c -0.1,0.5 0.4,1.1 1.40000002,1.5 l 20.2999995,8.3 c 1.8,0.7 4.8,0.7 6.6,0 l 20.3,-8.3 c 1,-0.4 1.4,-1 1.4,-1.5 v -1.8 c 0.1,0.5 -0.4,1.1 -1.4,1.5 l -20.3,8.3 c -1.8,0.7 -4.8,0.7 -6.6,0 l -20.2999995,-8.3 c -1.10000002,-0.4 -1.50000002,-1 -1.30000002,-1.6 z"
   id="path3532"
   inkscape:connector-curvature="0"
   style="fill:#0072c6" />
<path
   d="m 0.01255848,11.741811 c -0.1,0.5 0.4,1.1 1.40000002,1.5 l 20.2999995,8.3 c 1.8,0.7 4.8,0.7 6.6,0 l 20.3,-8.3 c 1,-0.4 1.4,-1 1.4,-1.5 v -1.8 c 0.1,0.5 -0.4,1.1 -1.4,1.5 l -20.3,8.3 c -1.8,0.7 -4.8,0.7 -6.6,0 l -20.2999995,-8.3 c -1.10000002,-0.4 -1.50000002,-1 -1.30000002,-1.6 z"
   id="path3534"
   inkscape:connector-curvature="0"
   style="opacity:0.25;fill:#1e1e1e" />
<circle
   cx="25.012558"
   cy="9.041811"
   r="1.9"
   id="circle3536"
   style="opacity:0.25;fill:#1e1e1e" />
<g
   id="g3540"
   transform="translate(0.01255848,-7.958189)">
	<polygon
   points="10,22.6 23.1,17.3 23.5,18.2 11,23.3 11,41.3 10,41.3 "
   id="polygon3538"
   style="fill:#fcd116" />
</g>
<path
   d="m 9.1125585,34.141811 v -12.5 c 0,-0.7 0.6,-1.4 1.3999995,-1.4 v 0 c 0.7,0 1.4,0.6 1.4,1.4 v 12.4 H 9.1125585 Z"
   id="path3542"
   inkscape:connector-curvature="0"
   style="fill:#ff8c00" />
</svg>