<?xml version="1.0" encoding="utf-8"?>
<svg version="1.1" id="Layer_1" xmlns="http://www.w3.org/2000/svg" xmlns:xlink="http://www.w3.org/1999/xlink" x="0px" y="0px"
	 width="50px" height="50px" viewBox="0 0 50 50" enable-background="new 0 0 50 50" xml:space="preserve">
<polygon fill="#B8D432" points="37.8,13.1 34.5,9.8 23.8,20.6 34.5,31.4 37.8,28.3 30.5,20.9 "/>
<polygon fill="#B8D432" points="12.2,22.2 19.5,29.5 12.2,36.9 15.5,40.2 26.2,29.4 15.5,18.6 "/>
<path fill="#59B4D9" d="M25,0C11.1,0,0,11.4,0,25c0,13.9,11.4,25,25,25s25-11.4,25-25S38.9,0,25,0z M25,3.3C37,3.3,46.7,13,46.7,25
	S36.9,46.7,25,46.7S3.3,36.9,3.3,25S13,3.3,25,3.3z"/>
</svg>
