<?xml version="1.0" encoding="utf-8"?>
<!-- Generator: Adobe Illustrator 17.0.1, SVG Export Plug-In . SVG Version: 6.00 Build 0)  -->
<!DOCTYPE svg PUBLIC "-//W3C//DTD SVG 1.1//EN" "http://www.w3.org/Graphics/SVG/1.1/DTD/svg11.dtd">
<svg version="1.1" id="Layer_1" xmlns="http://www.w3.org/2000/svg" xmlns:xlink="http://www.w3.org/1999/xlink" x="0px" y="0px"
	 width="50px" height="50px" viewBox="0 0 50 50" enable-background="new 0 0 50 50" xml:space="preserve">
<path fill="#A0A1A2" d="M25.001,50c-1.232,0-2.392-0.48-3.261-1.352L1.351,28.26C0.492,27.401,0,26.214,0,24.999
	c0-1.214,0.492-2.402,1.351-3.26L21.74,1.351c0.871-0.872,2.029-1.352,3.261-1.352c1.231,0,2.39,0.48,3.261,1.352l20.386,20.388
	C49.521,22.607,50,23.766,50,24.999c0,1.233-0.479,2.392-1.353,3.263L28.262,48.648C27.392,49.52,26.232,50,25.001,50"/>
<path opacity="0.15" fill="#FFFFFF" d="M28.262,1.351c-0.871-0.872-2.029-1.352-3.261-1.352c-1.231,0-2.389,0.48-3.26,1.352
	L1.352,21.739C0.492,22.597,0,23.785,0,24.999c0,1.215,0.492,2.403,1.352,3.261l11.543,11.544L34.61,7.698L28.262,1.351z"/>
<path fill="#FFFFFF" d="M18.269,27.734h1.893l0.086-0.266l0.663-2.025l1.304-0.539l2.198,1.04l1.337-1.336l-0.127-0.251
	l-0.962-1.899l0.541-1.305l2.289-0.818l0.002-1.891l-0.269-0.087l-2.023-0.663l-0.539-1.304l1.039-2.198l-1.337-1.337l-0.251,0.127
	l-1.9,0.962l-1.302-0.54l-0.819-2.29l-1.891-0.001l-0.088,0.267l-0.661,2.025l-1.306,0.539l-2.196-1.04l-1.34,1.336l0.128,0.251
	l0.964,1.901l-0.541,1.302l-2.289,0.819l-0.001,1.891l0.266,0.087l2.025,0.663l0.539,1.305l-1.04,2.196l1.336,1.339l0.251-0.127
	l1.899-0.964l1.305,0.542L18.269,27.734z M15.309,19.421c0.001-2.138,1.736-3.869,3.874-3.869c2.139,0.002,3.87,1.736,3.869,3.875
	c-0.001,2.139-1.735,3.871-3.874,3.869C17.04,23.294,15.308,21.559,15.309,19.421"/>
<path fill="#B8D432" d="M19.18,21.937c-1.389-0.001-2.514-1.128-2.513-2.515c0.001-1.388,1.127-2.512,2.516-2.511
	c1.388,0.001,2.513,1.127,2.512,2.513C21.694,20.813,20.568,21.938,19.18,21.937"/>
<path fill="#FFFFFF" d="M40.918,28.692l-2.788,2.889c-1.033,1.063-2.23,1.16-3.607,0.835l4.881-5.054
	c0.722-0.745,0.271-2.213-0.52-2.905c-0.782-0.692-2.279-0.945-3.01-0.19l-4.872,5.053c-0.453-1.278-0.444-2.431,0.58-3.484
	l2.788-2.889c1.49-1.549,4.41-1.469,6.022-0.049s2.064,4.271,0.565,5.82L40.918,28.692z"/>
<path fill="#FFFFFF" d="M28.252,38.919l4.881-5.054c0.444,1.278,0.444,2.431-0.59,3.485l-2.778,2.889
	c-1.499,1.549-4.37,1.286-5.992-0.134c-1.612-1.42-2.055-4.062-0.556-5.611l2.788-2.889c1.024-1.062,2.23-1.16,3.597-0.844
	l-4.881,5.054c-0.722,0.754-0.34,2.159,0.451,2.851c0.782,0.692,2.245,1.051,2.977,0.296L28.252,38.919z"/>
<path fill-rule="evenodd" clip-rule="evenodd" fill="#FFFFFF" d="M27.794,34.505l6.965-7.218c0.384-0.397,1.23-1.307,1.979-0.558
	c0.645,0.645-0.082,1.481-0.465,1.888l-6.975,7.218c-0.384,0.397-1.461,1.621-2.154,0.928C26.274,35.894,27.4,34.903,27.794,34.505z
	"/>
</svg>
