<?xml version="1.0" encoding="UTF-8" standalone="no"?>
<svg
   xmlns:dc="http://purl.org/dc/elements/1.1/"
   xmlns:cc="http://creativecommons.org/ns#"
   xmlns:rdf="http://www.w3.org/1999/02/22-rdf-syntax-ns#"
   xmlns:svg="http://www.w3.org/2000/svg"
   xmlns="http://www.w3.org/2000/svg"
   xmlns:sodipodi="http://sodipodi.sourceforge.net/DTD/sodipodi-0.dtd"
   xmlns:inkscape="http://www.inkscape.org/namespaces/inkscape"
   version="1.1"
   id="Layer_1"
   x="0px"
   y="0px"
   width="50"
   height="40.341999"
   viewBox="0 0 50 40.341999"
   enable-background="new 0 0 50 50"
   xml:space="preserve"
   inkscape:version="0.91 r13725"
   sodipodi:docname="ResourceGroup_COLOR.svg"><metadata
     id="metadata19"><rdf:RDF><cc:Work
         rdf:about=""><dc:format>image/svg+xml</dc:format><dc:type
           rdf:resource="http://purl.org/dc/dcmitype/StillImage" /><dc:title></dc:title></cc:Work></rdf:RDF></metadata><defs
     id="defs17" /><sodipodi:namedview
     pagecolor="#ffffff"
     bordercolor="#666666"
     borderopacity="1"
     objecttolerance="10"
     gridtolerance="10"
     guidetolerance="10"
     inkscape:pageopacity="0"
     inkscape:pageshadow="2"
     inkscape:window-width="1920"
     inkscape:window-height="1018"
     id="namedview15"
     showgrid="false"
     fit-margin-top="0"
     fit-margin-left="0"
     fit-margin-right="0"
     fit-margin-bottom="0"
     inkscape:zoom="16.059062"
     inkscape:cx="25"
     inkscape:cy="20.171"
     inkscape:window-x="-8"
     inkscape:window-y="-8"
     inkscape:window-maximized="1"
     inkscape:current-layer="Layer_1" /><path
     d="M 25.047,17.818 C 24.969,17.818 24.897,17.795 24.827,17.754 L 10.116,9.264 C 9.976,9.184 9.893,9.036 9.893,8.875 9.893,8.719 9.976,8.571 10.116,8.493 L 24.732,0.058 C 24.871,-0.019 25.041,-0.019 25.174,0.058 L 39.888,8.553 C 40.021,8.631 40.109,8.777 40.109,8.935 40.109,9.098 40.021,9.243 39.888,9.322 L 25.269,17.755 C 25.2,17.795 25.126,17.818 25.047,17.818"
     id="path3"
     inkscape:connector-curvature="0"
     style="fill:#3999c6" /><path
     d="M 22.932,38.455 C 22.852,38.455 22.774,38.436 22.706,38.396 L 8.042,29.932 C 7.9,29.853 7.816,29.708 7.816,29.546 L 7.816,12.561 C 7.816,12.402 7.9,12.256 8.042,12.172 8.176,12.095 8.348,12.095 8.49,12.172 L 23.152,20.636 C 23.288,20.718 23.37,20.864 23.37,21.023 L 23.37,38.01 C 23.37,38.173 23.287,38.315 23.152,38.396 23.079,38.437 23.006,38.455 22.932,38.455"
     id="path5"
     inkscape:connector-curvature="0"
     style="fill:#59b4d9" /><path
     d="M 27.081,38.455 C 27.006,38.455 26.929,38.436 26.855,38.396 26.719,38.315 26.635,38.173 26.635,38.01 L 26.635,21.133 C 26.635,20.974 26.719,20.828 26.855,20.746 L 41.515,12.285 C 41.657,12.207 41.823,12.207 41.963,12.285 42.097,12.365 42.183,12.512 42.183,12.67 L 42.183,29.547 C 42.183,29.709 42.098,29.853 41.963,29.933 L 27.298,38.397 C 27.237,38.437 27.158,38.455 27.081,38.455"
     id="path7"
     inkscape:connector-curvature="0"
     style="fill:#59b4d9" /><path
     d="M 27.081,38.455 C 27.006,38.455 26.929,38.436 26.855,38.396 26.719,38.315 26.635,38.173 26.635,38.01 L 26.635,21.133 C 26.635,20.974 26.719,20.828 26.855,20.746 L 41.515,12.285 C 41.657,12.207 41.823,12.207 41.963,12.285 42.097,12.365 42.183,12.512 42.183,12.67 L 42.183,29.547 C 42.183,29.709 42.098,29.853 41.963,29.933 L 27.298,38.397 C 27.237,38.437 27.158,38.455 27.081,38.455"
     id="path9"
     inkscape:connector-curvature="0"
     style="opacity:0.5;fill:#ffffff" /><path
     d="M 9.558,40.342 C 9.311,40.342 9.061,40.279 8.832,40.147 L 1.987,36.195 C 0.835,35.529 0,34.082 0,32.753 L 0,7.589 C 0,6.26 0.835,4.812 1.987,4.148 L 8.832,0.196 C 9.529,-0.205 10.418,0.033 10.819,0.728 11.221,1.424 10.982,2.313 10.287,2.715 L 3.442,6.667 C 3.199,6.808 2.91,7.308 2.91,7.589 L 2.91,32.753 C 2.91,33.034 3.199,33.535 3.442,33.675 L 10.287,37.627 C 10.983,38.029 11.221,38.918 10.819,39.614 10.55,40.081 10.061,40.342 9.558,40.342 Z"
     id="path11"
     inkscape:connector-curvature="0"
     style="fill:#7a7a7a" /><path
     d="M 40.442,0 C 40.689,0 40.939,0.063 41.168,0.195 L 48.013,4.147 C 49.165,4.813 50,6.26 50,7.589 L 50,32.753 C 50,34.082 49.165,35.53 48.013,36.194 L 41.168,40.146 C 40.471,40.547 39.582,40.309 39.181,39.614 38.779,38.918 39.018,38.029 39.713,37.627 L 46.558,33.675 C 46.801,33.534 47.09,33.034 47.09,32.753 L 47.09,7.589 C 47.09,7.308 46.801,6.807 46.558,6.667 L 39.713,2.715 C 39.017,2.313 38.779,1.424 39.181,0.728 39.45,0.261 39.939,0 40.442,0 Z"
     id="path13"
     inkscape:connector-curvature="0"
     style="fill:#7a7a7a" /></svg>