<?xml version="1.0" encoding="UTF-8" standalone="no"?>
<!-- Generator: Adobe Illustrator 17.1.0, SVG Export Plug-In . SVG Version: 6.00 Build 0)  -->

<svg
   xmlns:dc="http://purl.org/dc/elements/1.1/"
   xmlns:cc="http://creativecommons.org/ns#"
   xmlns:rdf="http://www.w3.org/1999/02/22-rdf-syntax-ns#"
   xmlns:svg="http://www.w3.org/2000/svg"
   xmlns="http://www.w3.org/2000/svg"
   xmlns:sodipodi="http://sodipodi.sourceforge.net/DTD/sodipodi-0.dtd"
   xmlns:inkscape="http://www.inkscape.org/namespaces/inkscape"
   version="1.1"
   id="Layer_1"
   x="0px"
   y="0px"
   height="49.700001"
   width="48.200001"
   viewBox="0 0 48.200001 49.700001"
   enable-background="new 0 0 50 50"
   xml:space="preserve"
   sodipodi:docname="ResourceRole.svg"
   inkscape:version="0.92.3 (2405546, 2018-03-11)"><metadata
   id="metadata3992"><rdf:RDF><cc:Work
       rdf:about=""><dc:format>image/svg+xml</dc:format><dc:type
         rdf:resource="http://purl.org/dc/dcmitype/StillImage" /><dc:title></dc:title></cc:Work></rdf:RDF></metadata><defs
   id="defs3990" /><sodipodi:namedview
   pagecolor="#ffffff"
   bordercolor="#666666"
   borderopacity="1"
   objecttolerance="10"
   gridtolerance="10"
   guidetolerance="10"
   inkscape:pageopacity="0"
   inkscape:pageshadow="2"
   inkscape:window-width="1920"
   inkscape:window-height="1017"
   id="namedview3988"
   showgrid="false"
   fit-margin-top="0"
   fit-margin-left="0"
   fit-margin-right="0"
   fit-margin-bottom="0"
   inkscape:zoom="12.020815"
   inkscape:cx="24.537055"
   inkscape:cy="19.880706"
   inkscape:window-x="1912"
   inkscape:window-y="-8"
   inkscape:window-maximized="1"
   inkscape:current-layer="Layer_1" />
<path
   d="m 28.4,10.2 c 0,5.6 -4.6,10.2 -10.2,10.2 C 12.6,20.4 8,15.9 8,10.2 8,4.6 12.6,0 18.2,0 23.9,0 28.4,4.6 28.4,10.2"
   id="path3971"
   inkscape:connector-curvature="0"
   style="fill:#b8d432" />
<polygon
   points="10.8,24.1 0,24.1 0,49.9 36.5,49.9 36.5,24.1 25.7,24.1 18.2,34.6 "
   id="polygon3973"
   style="fill:#b8d432"
   transform="translate(0,-0.2)" />
<path
   d="m 8,10.2 c 0,5.6 4.4,10.1 10,10.2 L 20.6,0.3 C 19.9,0.1 19.1,0 18.3,0 12.6,0 8,4.6 8,10.2"
   id="path3975"
   inkscape:connector-curvature="0"
   style="opacity:0.2;fill:#ffffff" />
<polygon
   points="0,49.9 14.3,49.9 16.6,32.3 10.8,24.1 0,24.1 "
   id="polygon3977"
   style="opacity:0.2;fill:#ffffff"
   transform="translate(0,-0.2)" />
<path
   d="m 37.7,37.1 c 0,0 -0.1,0 -0.1,0 l -9,-5.2 c -0.1,0 -0.1,-0.1 -0.1,-0.2 0,-0.1 0.1,-0.2 0.1,-0.2 l 9,-5.2 c 0.1,0 0.2,0 0.3,0 l 9,5.2 c 0.1,0 0.1,0.1 0.1,0.2 0,0.1 -0.1,0.2 -0.1,0.2 l -9,5.2 c -0.1,-0.1 -0.2,0 -0.2,0"
   id="path3979"
   inkscape:connector-curvature="0"
   style="fill:#3999c6" />
<path
   d="m 36.4,49.7 c 0,0 -0.1,0 -0.1,0 l -9,-5.2 c -0.1,0 -0.1,-0.1 -0.1,-0.2 V 33.8 c 0,-0.1 0.1,-0.2 0.1,-0.2 0.1,0 0.2,0 0.3,0 l 9,5.2 c 0.1,0.1 0.1,0.1 0.1,0.2 v 10.4 c 0,0.1 -0.1,0.2 -0.1,0.2 -0.1,0.1 -0.2,0.1 -0.2,0.1"
   id="path3981"
   inkscape:connector-curvature="0"
   style="fill:#59b4d9" />
<path
   d="m 38.9,49.7 c 0,0 -0.1,0 -0.1,0 -0.1,0 -0.1,-0.1 -0.1,-0.2 V 39.1 c 0,-0.1 0.1,-0.2 0.1,-0.2 l 9,-5.2 c 0.1,0 0.2,0 0.3,0 0.1,0 0.1,0.1 0.1,0.2 v 10.4 c 0,0.1 -0.1,0.2 -0.1,0.2 l -9,5.2 c -0.1,0 -0.1,0 -0.2,0"
   id="path3983"
   inkscape:connector-curvature="0"
   style="fill:#59b4d9" />
<path
   d="m 38.9,49.7 c 0,0 -0.1,0 -0.1,0 -0.1,0 -0.1,-0.1 -0.1,-0.2 V 39.1 c 0,-0.1 0.1,-0.2 0.1,-0.2 l 9,-5.2 c 0.1,0 0.2,0 0.3,0 0.1,0 0.1,0.1 0.1,0.2 v 10.4 c 0,0.1 -0.1,0.2 -0.1,0.2 l -9,5.2 c -0.1,0 -0.1,0 -0.2,0"
   id="path3985"
   inkscape:connector-curvature="0"
   style="opacity:0.5;fill:#ffffff" />
</svg>