<?xml version="1.0" encoding="utf-8"?>
<!-- Generator: Adobe Illustrator 17.1.0, SVG Export Plug-In . SVG Version: 6.00 Build 0)  -->
<!DOCTYPE svg PUBLIC "-//W3C//DTD SVG 1.1//EN" "http://www.w3.org/Graphics/SVG/1.1/DTD/svg11.dtd">
<svg version="1.1" id="Layer_1" xmlns="http://www.w3.org/2000/svg" xmlns:xlink="http://www.w3.org/1999/xlink" x="0px" y="0px"
	 height="50px" width="50px" viewBox="0 0 50 50" enable-background="new 0 0 50 50" xml:space="preserve">
<path fill="#3999C6" d="M17.2,17.8c-0.1,0-0.1,0-0.2-0.1L2.3,9.3C2.2,9.2,2.1,9,2.1,8.9c0-0.2,0.1-0.3,0.2-0.4l14.6-8.4
	c0.1-0.1,0.3-0.1,0.4,0l14.7,8.5c0.1,0.1,0.2,0.2,0.2,0.4c0,0.2-0.1,0.3-0.2,0.4l-14.6,8.4C17.4,17.8,17.3,17.8,17.2,17.8"/>
<path fill="#59B4D9" d="M15.1,38.5c-0.1,0-0.2,0-0.2-0.1L0.2,29.9C0.1,29.9,0,29.7,0,29.5v-17c0-0.2,0.1-0.3,0.2-0.4
	c0.1-0.1,0.3-0.1,0.4,0l14.7,8.5c0.1,0.1,0.2,0.2,0.2,0.4v17c0,0.2-0.1,0.3-0.2,0.4C15.3,38.4,15.2,38.5,15.1,38.5"/>
<path fill="#59B4D9" d="M19.3,38.5c-0.1,0-0.2,0-0.2-0.1c-0.1-0.1-0.2-0.2-0.2-0.4V21.1c0-0.2,0.1-0.3,0.2-0.4l14.7-8.5
	c0.1-0.1,0.3-0.1,0.4,0c0.1,0.1,0.2,0.2,0.2,0.4v16.9c0,0.2-0.1,0.3-0.2,0.4l-14.7,8.5C19.4,38.4,19.3,38.5,19.3,38.5"/>
<path opacity="0.5" fill="#FFFFFF" enable-background="new    " d="M19.3,38.5c-0.1,0-0.2,0-0.2-0.1c-0.1-0.1-0.2-0.2-0.2-0.4V21.1
	c0-0.2,0.1-0.3,0.2-0.4l14.7-8.5c0.1-0.1,0.3-0.1,0.4,0c0.1,0.1,0.2,0.2,0.2,0.4v16.9c0,0.2-0.1,0.3-0.2,0.4l-14.7,8.5
	C19.4,38.4,19.3,38.5,19.3,38.5"/>
<path fill="#FCD116" d="M42.5,28.3c-0.4,0-0.6-0.3-0.4-0.6l5.5-9.2H36.3l-5.9,15.6c-0.2,0.4,0.1,0.7,0.5,0.7h5.7
	c0.4,0,0.6,0.3,0.5,0.7l-5.8,14.2c-0.2,0.4-0.1,0.4,0.2,0.1l18.4-21c0.3-0.3,0.2-0.6-0.2-0.5L42.5,28.3z"/>
<path opacity="0.3" fill="#FF8C00" d="M36.6,34.8c0.4,0,0.6,0.3,0.5,0.7l-5.8,14.2c-0.2,0.4-0.1,0.4,0.2,0.1l8.1-15H36.6z"/>
<path opacity="0.3" fill="#FF8C00" d="M30.9,34.8h1.7l7.6-16.3h-3.9l-5.9,15.6C30.3,34.5,30.5,34.8,30.9,34.8z"/>
</svg>
