<?xml version="1.0" encoding="UTF-8" standalone="no"?>
<svg
   xmlns:dc="http://purl.org/dc/elements/1.1/"
   xmlns:cc="http://creativecommons.org/ns#"
   xmlns:rdf="http://www.w3.org/1999/02/22-rdf-syntax-ns#"
   xmlns:svg="http://www.w3.org/2000/svg"
   xmlns="http://www.w3.org/2000/svg"
   xmlns:sodipodi="http://sodipodi.sourceforge.net/DTD/sodipodi-0.dtd"
   xmlns:inkscape="http://www.inkscape.org/namespaces/inkscape"
   version="1.1"
   id="Layer_1"
   x="0px"
   y="0px"
   width="50.042999"
   height="42.007999"
   viewBox="0 0 50.042999 42.007999"
   enable-background="new 0 0 50 50"
   xml:space="preserve"
   inkscape:version="0.91 r13725"
   sodipodi:docname="azure_route_filter.svg"><metadata
     id="metadata29"><rdf:RDF><cc:Work
         rdf:about=""><dc:format>image/svg+xml</dc:format><dc:type
           rdf:resource="http://purl.org/dc/dcmitype/StillImage" /><dc:title></dc:title></cc:Work></rdf:RDF></metadata><defs
     id="defs27" /><sodipodi:namedview
     pagecolor="#ffffff"
     bordercolor="#666666"
     borderopacity="1"
     objecttolerance="10"
     gridtolerance="10"
     guidetolerance="10"
     inkscape:pageopacity="0"
     inkscape:pageshadow="2"
     inkscape:window-width="1920"
     inkscape:window-height="1018"
     id="namedview25"
     showgrid="false"
     fit-margin-top="0"
     fit-margin-left="0"
     fit-margin-right="0"
     fit-margin-bottom="0"
     inkscape:zoom="10.363697"
     inkscape:cx="25.25722"
     inkscape:cy="13.584105"
     inkscape:window-x="-8"
     inkscape:window-y="-8"
     inkscape:window-maximized="1"
     inkscape:current-layer="Layer_1" /><polygon
     points="41.681,36.313 39.199,46 30.594,40.905 "
     id="polygon3"
     style="fill:#804998"
     transform="translate(0,-3.992)" /><path
     d="M 24.025,22.004 C 24.025,22.004 23.55,22.866 23.025,23.004 29.619,23.004 33.927,33.954 36.494,40.344 L 39.825,39.382 C 37.202,32.443 34.025,22.004 24.025,22.004 Z"
     id="path5"
     inkscape:connector-curvature="0"
     style="fill:#804998" /><polygon
     points="41.681,13.679 39.199,3.992 30.594,9.087 "
     id="polygon7"
     style="fill:#804998"
     transform="translate(0,-3.992)" /><path
     d="M 24.025,20.004 C 24.025,20.004 23.55,19.142 23.025,19.004 29.619,19.004 33.927,8.054 36.494,1.664 L 39.825,2.626 C 37.202,9.565 34.025,20.004 24.025,20.004 Z"
     id="path9"
     inkscape:connector-curvature="0"
     style="fill:#804998" /><polygon
     points="42.043,18.996 50.043,24.996 42.043,30.996 "
     id="polygon11"
     style="fill:#804998"
     transform="translate(0,-3.992)" /><rect
     x="19.004"
     y="-45.203999"
     transform="matrix(0,1,-1,0,0,0)"
     width="4.0040002"
     height="24.204"
     id="rect13"
     style="fill:#804998" /><path
     d="M 4.754,34.008 19,34.008 C 21.625,34.008 23.754,31.88 23.754,29.254 L 23.754,12.758 C 23.754,10.133 21.626,8.004 19,8.004 L 4.754,8.004 C 2.128,8.004 0,10.132 0,12.758 L 0,29.255 C 0,31.88 2.128,34.008 4.754,34.008 Z"
     id="path15"
     inkscape:connector-curvature="0"
     style="fill:#7fba00" /><path
     d="M 4.754,34.008 19,8.004 4.754,8.004 C 2.128,8.004 0,10.132 0,12.758 L 0,29.255 C 0,31.88 2.128,34.008 4.754,34.008 Z"
     id="path17"
     inkscape:connector-curvature="0"
     style="opacity:0.2;fill:#ffffff" /><rect
     x="14"
     y="18.004"
     width="6"
     height="6"
     id="rect19"
     style="fill:#ffffff" /><rect
     x="4"
     y="12.008"
     width="6"
     height="6"
     id="rect21"
     style="fill:#ffffff" /><rect
     x="4"
     y="24.007999"
     width="6"
     height="6"
     id="rect23"
     style="fill:#ffffff" /></svg>