<?xml version="1.0" encoding="utf-8"?>
<!-- Generator: Adobe Illustrator 17.0.1, SVG Export Plug-In . SVG Version: 6.00 Build 0)  -->
<!DOCTYPE svg PUBLIC "-//W3C//DTD SVG 1.1//EN" "http://www.w3.org/Graphics/SVG/1.1/DTD/svg11.dtd">
<svg version="1.1" id="Layer_1" xmlns="http://www.w3.org/2000/svg" xmlns:xlink="http://www.w3.org/1999/xlink" x="0px" y="0px"
	 width="50px" height="50px" viewBox="-0.5 0.5 50 50" enable-background="new -0.5 0.5 50 50" xml:space="preserve">
<path fill-rule="evenodd" clip-rule="evenodd" fill="#A0A1A2" d="M36.167,27.167v10H12.833V13.833h9.997v-5H11.167
	c-1.841,0-3.333,1.493-3.333,3.333v26.667c0,1.841,1.493,3.333,3.333,3.333h26.667c1.841,0,3.333-1.493,3.333-3.333V27.167H36.167z"
	/>
<rect x="21.167" y="0.5" fill="#B8D432" width="6.667" height="5"/>
<rect x="11.167" y="0.5" fill="#B8D432" width="6.667" height="5"/>
<path fill="#B8D432" d="M44.5,45.5h-3.333v5h5c1.841,0,3.333-1.493,3.333-3.333v-5h-5V45.5z"/>
<rect x="-0.5" y="32.167" fill="#B8D432" width="5" height="6.667"/>
<rect x="21.167" y="45.5" fill="#B8D432" width="6.667" height="5"/>
<rect x="44.5" y="32.167" fill="#B8D432" width="5" height="6.667"/>
<rect x="31.167" y="45.5" fill="#B8D432" width="6.667" height="5"/>
<rect x="11.167" y="45.5" fill="#B8D432" width="6.667" height="5"/>
<path fill="#B8D432" d="M4.5,45.5v-3.333h-5v5c0,1.841,1.493,3.333,3.333,3.333h5v-5H4.5z"/>
<rect x="-0.5" y="12.167" fill="#B8D432" width="5" height="6.667"/>
<path fill="#B8D432" d="M4.5,5.5h3.333v-5h-5C0.993,0.5-0.5,1.993-0.5,3.833v5h5V5.5z"/>
<rect x="-0.5" y="22.167" fill="#B8D432" width="5" height="6.667"/>
<rect x="44.5" y="22.167" fill="#B8D432" width="5" height="6.667"/>
<polygon fill="#0F0F0F" points="49.5,0.5 34.5,0.5 40.084,6.084 18.715,27.453 22.597,31.333 43.965,9.965 49.5,15.5 "/>
</svg>
