<?xml version="1.0" encoding="utf-8"?>
<!-- Generator: Adobe Illustrator 17.1.0, SVG Export Plug-In . SVG Version: 6.00 Build 0)  -->
<!DOCTYPE svg PUBLIC "-//W3C//DTD SVG 1.1//EN" "http://www.w3.org/Graphics/SVG/1.1/DTD/svg11.dtd">
<svg version="1.1" id="Layer_1" xmlns="http://www.w3.org/2000/svg" xmlns:xlink="http://www.w3.org/1999/xlink" x="0px" y="0px"
	 width="50px" height="50px" viewBox="0 0 50 50" enable-background="new 0 0 50 50" xml:space="preserve">
<path fill="#A0A1A2" d="M35.7,0H2.1C0.9,0,0,1,0,2.2v23.4c0,1.1,0.9,2.1,2.1,2.1h33.7c1.1,0,2.3-1,2.3-2.1V2.2C38,1,36.9,0,35.7,0"
	/>
<path opacity="0.2" fill="#FFFFFF" enable-background="new    " d="M35.7,0C35.7,0,35.7,0,35.7,0L2.1,0C0.9,0,0,1,0,2.2v23.4
	c0,1.1,0.9,2.1,2.1,2.1h0.8L35.7,0z"/>
<polygon fill="#59B4D9" points="35.1,24.8 2.9,24.8 2.9,2.9 35.1,2.9 "/>
<path fill="#B8D432" d="M19.4,1.6c0,0.3-0.2,0.5-0.5,0.5c-0.3,0-0.5-0.2-0.5-0.5s0.2-0.5,0.5-0.5C19.2,1.1,19.4,1.3,19.4,1.6"/>
<path fill="#A0A1A2" d="M41.7,7.5H8c-1.1,0-2.1,1-2.1,2.2v23.4c0,1.1,0.9,2.1,2.1,2.1h33.7c1.1,0,2.3-1,2.3-2.1V9.6
	C44,8.5,42.8,7.5,41.7,7.5"/>
<path opacity="0.2" fill="#FFFFFF" enable-background="new    " d="M41.7,7.5C41.7,7.5,41.7,7.5,41.7,7.5L8,7.5
	c-1.1,0-2.1,1-2.1,2.2v23.4c0,1.1,0.9,2.1,2.1,2.1h0.8L41.7,7.5z"/>
<polygon fill="#59B4D9" points="41.1,32.3 8.8,32.3 8.8,10.4 41.1,10.3 "/>
<path fill="#B8D432" d="M25.4,9c0,0.3-0.2,0.5-0.5,0.5c-0.3,0-0.5-0.2-0.5-0.5c0-0.3,0.2-0.5,0.5-0.5C25.1,8.5,25.4,8.7,25.4,9"/>
<path fill="#7A7A7A" d="M36.6,42.7h-0.9h-9h-0.5c1.2,4.4-0.4,5-7.7,5V50h9.3h6.8h8.8v-2.3C36.1,47.7,35.4,47.1,36.6,42.7"/>
<path fill="#A0A1A2" d="M47.7,15H14c-1.1,0-2.1,1-2.1,2.2v23.4c0,1.1,0.9,2.1,2.1,2.1h33.7c1.1,0,2.3-1,2.3-2.1V17.1
	C50,16,48.8,15,47.7,15"/>
<path opacity="0.2" fill="#FFFFFF" enable-background="new    " d="M47.7,15C47.7,15,47.7,15,47.7,15L14,15c-1.1,0-2.1,1-2.1,2.2
	v23.4c0,1.1,0.9,2.1,2.1,2.1h0.8L47.7,15z"/>
<polygon fill="#59B4D9" points="47.1,39.8 14.9,39.8 14.9,17.9 47.1,17.8 "/>
<rect x="18.6" y="47.7" fill="#A0A1A2" width="24.9" height="2.3"/>
<path fill="#B8D432" d="M31.4,16.5c0,0.3-0.2,0.5-0.5,0.5c-0.3,0-0.5-0.2-0.5-0.5s0.2-0.5,0.5-0.5C31.1,16,31.4,16.2,31.4,16.5"/>
</svg>
