<?xml version="1.0" encoding="utf-8"?>
<svg version="1.1" id="Layer_1" xmlns="http://www.w3.org/2000/svg" xmlns:xlink="http://www.w3.org/1999/xlink" x="0px" y="0px"
	 height="50px" width="50px" viewBox="0 0 50 50" enable-background="new 0 0 50 50" xml:space="preserve">
<path fill="#59B4D9" d="M30.9,46.7L29,43.6l1.8-3.2H36c-1.1-1.9-3.2-3.2-5.5-3.2c-2.4,0-4.5,1.3-5.6,3.2H11.1
	c-1.1-1.9-3.2-3.2-5.6-3.2c-2.4,0-4.4,1.3-5.5,3.2h5.1L7,43.6l-1.8,3.2H0c1.1,1.9,3.2,3.2,5.5,3.2c2.5,0,4.6-1.4,5.7-3.5l13.5,0
	c1.1,2.1,3.2,3.5,5.7,3.5c2.4,0,4.4-1.3,5.5-3.2L30.9,46.7z"/>
<g>
	<g>
		<path fill="#59B4D9" d="M29.7,18.4c-1.3,0-2.4,0.8-2.9,1.9H8.2v0c-3.1,0-5.7-2.6-5.7-5.7s2.6-5.7,5.7-5.7v0h0.1h0h2.6
			C11,8.2,11.2,7.6,11.4,7c0.1-0.2,0.2-0.4,0.3-0.7c1.3-2.3,3.8-3.8,6.6-3.8c2.5,0,4.7,1.2,6.1,3.1c0.8-0.4,1.6-0.6,2.5-0.8
			C25.2,1.9,22,0,18.4,0C14.1,0,10.5,2.6,9,6.4c0,0,0,0,0,0l0,0c0,0,0,0,0,0H8.2C3.7,6.4,0,10,0,14.6c0,4.5,3.7,8.2,8.2,8.2h18.6
			c0.5,1.1,1.6,1.9,2.9,1.9c1.7,0,3.2-1.4,3.2-3.2S31.5,18.4,29.7,18.4z"/>
		<path fill="#59B4D9" d="M40,12.1c-1.9-3.8-5.7-6.3-10.2-6.3c-5.4,0-10,3.8-11.1,8.9c-2.6,0.3-4.9,1.7-6.4,3.7h13.6
			c0.9-1.2,2.4-1.9,3.9-1.9c2.8,0,5.1,2.3,5.1,5.1s-2.3,5.1-5.1,5.1c-1.6,0-3-0.7-3.9-1.9H10.7c0.6,4.3,4.3,7.6,8.8,7.6c0,0,0,0,0,0
			v0h20.3v0c0,0,0,0,0,0c5.6,0,10.1-4.5,10.1-10.1C50,16.6,45.5,12.1,40,12.1z"/>
	</g>
</g>
<path fill="#59B4D9" d="M50,44.4V43l-0.2-0.1l-1.5-0.5l-0.4-1l0.8-1.7l-1-1l-0.2,0.1L46,39.6l-1-0.4l-0.6-1.7H43l-0.1,0.2l-0.5,1.5
	l-1,0.4l-1.7-0.8l-1,1l0.1,0.2l0.7,1.4l-0.4,1l-1.7,0.6v1.4l0.2,0.1l1.5,0.5l0.4,1l-0.8,1.7l1,1l0.2-0.1l1.4-0.7l1,0.4l0.6,1.7h1.4
	l0.1-0.2l0.5-1.5l1-0.4l1.7,0.8l1-1l-0.1-0.2L47.9,46l0.4-1L50,44.4z M43.8,45.7c-1.1,0-2-0.9-2-2c0-1.1,0.9-2,2-2c1.1,0,2,0.9,2,2
	C45.7,44.8,44.8,45.7,43.8,45.7"/>
</svg>
