<?xml version="1.0" encoding="utf-8"?>
<svg version="1.1" id="Layer_1" xmlns="http://www.w3.org/2000/svg" xmlns:xlink="http://www.w3.org/1999/xlink" x="0px" y="0px"
	 width="50px" height="50px" viewBox="0 0 50 50" enable-background="new 0 0 50 50" xml:space="preserve">
<path fill="#59B4D9" d="M44,14.2c0-0.4,0.1-0.9,0.1-1.3c0-7.1-5.8-12.8-13-12.8C26.9,0,23,2,20.6,5.3c-1.5-1-3.3-1.5-5.2-1.5
	c-5.4,0-9.8,4.4-9.8,9.7l0,0.8C2,16.2,0,19.3,0,23.1c0,6,4.9,10.7,11.2,10.7h27.6c6.3,0,11.2-4.7,11.2-10.7
	C50,19.1,47.8,15.9,44,14.2z"/>
<path opacity="0.2" fill="#FFFFFF" d="M7,28c0-4.1,2.1-7.3,6-9.3l0-0.8c0-5.7,4.7-10.3,10.4-10.3c2,0,3.9,0.5,5.5,1.5
	c2.5-3.5,6.7-5.7,11.2-5.7c0,0,0,0,0,0C37.7,1.3,34.6,0,31.1,0C26.9,0,23,2,20.6,5.3c-1.5-1-3.3-1.5-5.2-1.5c-5.4,0-9.8,4.4-9.8,9.7
	l0,0.8C2,16.2,0,19.3,0,23.1c0,5.1,3.5,9.3,8.4,10.4C7.5,31.9,7,30,7,28z"/>
<path fill="#FFFFFF" d="M34.3,31c-1,3.9-4.4,6.6-8.4,6.6c-0.7,0-1.4-0.1-2.1-0.3c-1-0.3-2-0.7-2.8-1.3c-0.9-0.6-1.6-1.4-2.2-2.2
	c-1.3-2-1.9-4.4-1.3-6.9c1-3.9,4.4-6.6,8.4-6.6c0.7,0,1.4,0.1,2.1,0.3c2.2,0.6,4.1,1.9,5.3,3.9C34.5,26.4,34.9,28.8,34.3,31"/>
<path opacity="0.1" fill="#59B4D9" d="M34.3,31c-1,3.9-4.4,6.6-8.4,6.6c-0.7,0-1.4-0.1-2.1-0.3c-1-0.3-2-0.7-2.8-1.3
	c-0.9-0.6-1.6-1.4-2.2-2.2c-1.3-2-1.9-4.4-1.3-6.9c1-3.9,4.4-6.6,8.4-6.6c0.7,0,1.4,0.1,2.1,0.3c2.2,0.6,4.1,1.9,5.3,3.9
	C34.5,26.4,34.9,28.8,34.3,31"/>
<path opacity="0.3" fill="#59B4D9" d="M30.6,21.7c-0.8-0.5-1.7-0.9-2.6-1.1c-0.7-0.2-1.4-0.3-2.1-0.3c-4,0-7.4,2.7-8.4,6.6
	c-0.6,2.5-0.1,5,1.3,6.9c0.2,0.3,0.5,0.7,0.8,1C21.4,29.1,25.4,24.4,30.6,21.7"/>
<path fill="#3E3E3E" d="M36.5,22.6c-1.7-2.8-4.4-4.8-7.6-5.6c-1-0.2-2-0.4-3-0.4c-5.7,0-10.6,3.9-12,9.4c-0.8,3.1-0.3,6.3,1.3,9.1
	l-9.4,9.5c-1.2,1.2-1.2,3.3,0,4.5C6.5,49.7,7.3,50,8.1,50c0.8,0,1.6-0.3,2.3-0.9l9.4-9.5c1,0.6,2.1,1,3.2,1.3c1,0.2,2,0.4,3,0.4
	c5.7,0,10.6-3.9,12-9.4C38.7,28.7,38.2,25.4,36.5,22.6z M34.3,31c-1,3.9-4.4,6.6-8.4,6.6c-0.7,0-1.4-0.1-2.1-0.3
	c-1-0.3-2-0.7-2.8-1.3c-0.9-0.6-1.6-1.4-2.2-2.2c-1.3-2-1.9-4.4-1.3-6.9c1-3.9,4.4-6.6,8.4-6.6c0.7,0,1.4,0.1,2.1,0.3
	c2.2,0.6,4.1,1.9,5.3,3.9C34.5,26.5,34.9,28.8,34.3,31z"/>
<path opacity="0.5" fill="#1E1E1E" d="M18.9,39.1c-1.3-0.9-2.3-1.9-3.2-3.2c-0.2-0.3-0.3-0.5-0.5-0.8L14.4,36l-0.1,0.1
	c0.1,0.2,0.2,0.4,0.4,0.6c1,1.4,2.1,2.6,3.5,3.6c0.1,0.1,0.4,0.2,0.7,0.3l0.9-0.9C19.4,39.4,19.2,39.3,18.9,39.1z"/>
</svg>
