<?xml version="1.0" encoding="UTF-8" standalone="no"?>
<!-- Generator: Adobe Illustrator 17.0.1, SVG Export Plug-In . SVG Version: 6.00 Build 0)  -->

<svg
   xmlns:dc="http://purl.org/dc/elements/1.1/"
   xmlns:cc="http://creativecommons.org/ns#"
   xmlns:rdf="http://www.w3.org/1999/02/22-rdf-syntax-ns#"
   xmlns:svg="http://www.w3.org/2000/svg"
   xmlns="http://www.w3.org/2000/svg"
   xmlns:sodipodi="http://sodipodi.sourceforge.net/DTD/sodipodi-0.dtd"
   xmlns:inkscape="http://www.inkscape.org/namespaces/inkscape"
   version="1.1"
   id="Layer_1"
   x="0px"
   y="0px"
   width="48.497051"
   height="47.367001"
   viewBox="0 0 48.497051 47.367001"
   enable-background="new 0 0 50 50"
   xml:space="preserve"
   sodipodi:docname="SearchGrid.svg"
   inkscape:version="0.92.3 (2405546, 2018-03-11)"><metadata
   id="metadata4885"><rdf:RDF><cc:Work
       rdf:about=""><dc:format>image/svg+xml</dc:format><dc:type
         rdf:resource="http://purl.org/dc/dcmitype/StillImage" /><dc:title></dc:title></cc:Work></rdf:RDF></metadata><defs
   id="defs4883" /><sodipodi:namedview
   pagecolor="#ffffff"
   bordercolor="#666666"
   borderopacity="1"
   objecttolerance="10"
   gridtolerance="10"
   guidetolerance="10"
   inkscape:pageopacity="0"
   inkscape:pageshadow="2"
   inkscape:window-width="1920"
   inkscape:window-height="1017"
   id="namedview4881"
   showgrid="false"
   fit-margin-top="0"
   fit-margin-left="0"
   fit-margin-right="0"
   fit-margin-bottom="0"
   inkscape:zoom="6.0104076"
   inkscape:cx="2.8614758"
   inkscape:cy="7.8715329"
   inkscape:window-x="1912"
   inkscape:window-y="-8"
   inkscape:window-maximized="1"
   inkscape:current-layer="Layer_1" />
<rect
   x="15.758049"
   y="0"
   width="9.802"
   height="9.6949997"
   id="rect4860"
   style="fill:#b8d432" />
<rect
   x="27.199049"
   y="0"
   width="9.8310003"
   height="9.6949997"
   id="rect4862"
   style="fill:#b8d432" />
<rect
   x="38.696053"
   y="0"
   width="9.8009996"
   height="9.6949997"
   id="rect4864"
   style="fill:#b8d432" />
<rect
   x="38.696053"
   y="11.469"
   width="9.8009996"
   height="9.6949997"
   id="rect4866"
   style="fill:#b8d432" />
<rect
   x="38.696053"
   y="22.938"
   width="9.8009996"
   height="9.8310003"
   id="rect4868"
   style="fill:#b8d432" />
<path
   d="m 3.6180498,47.367 c -0.961,0 -1.865,-0.373 -2.546,-1.048 C 0.38604975,45.64 0.00404975,44.732 4.9754595e-5,43.766 -0.00495025,42.798 0.36704975,41.889 1.0480498,41.202 l 8.747,-8.83 c -1.479,-2.758 -1.888,-5.921 -1.145,-8.952 1.3990002,-5.652 6.4310002,-9.599 12.2360002,-9.599 1.01,0 2.026,0.124 3.022,0.368 3.269,0.805 6.029,2.836 7.771,5.718 1.742,2.882 2.258,6.272 1.45,9.541 -1.389,5.646 -6.421,9.589 -12.235,9.589 -1.017,0 -2.031,-0.124 -3.018,-0.367 -1.032,-0.254 -2.033,-0.643 -2.984,-1.16 l -8.7010002,8.784 c -0.687,0.693 -1.6,1.073 -2.573,1.073 M 20.88605,18.598 c -3.604,0 -6.728,2.452 -7.598,5.965 -0.525,2.141 -0.105,4.429 1.151,6.27 0.545,0.802 1.223,1.488 2.017,2.037 0.793,0.547 1.655,0.94 2.563,1.163 0.612,0.152 1.244,0.227 1.875,0.227 3.609,0 6.734,-2.448 7.597,-5.956 0.502,-2.028 0.182,-4.133 -0.901,-5.926 -1.081,-1.79 -2.795,-3.051 -4.823,-3.551 -0.619,-0.153 -1.252,-0.229 -1.881,-0.229"
   id="path4870"
   inkscape:connector-curvature="0"
   style="fill:#3e3e3e" />
<path
   d="m 24.28905,13.08 c 0.432,0.106 0.854,0.234 1.271,0.379 v -1.991 h -9.802 v 2.284 c 1.631,-0.686 3.412,-1.068 5.27,-1.068 1.092,0 2.189,0.132 3.261,0.396"
   id="path4872"
   inkscape:connector-curvature="0"
   style="fill:#b8d432" />
<path
   d="m 32.67205,19.249 c 0.372,0.617 0.679,1.26 0.946,1.915 h 3.41 v -9.696 h -9.83 v 2.704 c 2.245,1.137 4.139,2.869 5.474,5.077"
   id="path4874"
   inkscape:connector-curvature="0"
   style="fill:#b8d432" />
<path
   d="m 34.23805,29.541 c -0.282,1.146 -0.704,2.227 -1.243,3.227 h 4.034 v -9.831 h -2.807 c 0.546,2.142 0.561,4.398 0.016,6.604"
   id="path4876"
   inkscape:connector-curvature="0"
   style="fill:#b8d432" />
<path
   d="m 27.70505,26.414 c 0,3.703 -3.003,6.704 -6.705,6.704 -3.703,0 -6.705,-3.001 -6.705,-6.704 0,-3.703 3.002,-6.704 6.705,-6.704 3.701,0 6.705,3.001 6.705,6.704"
   id="path4878"
   inkscape:connector-curvature="0"
   style="fill:#b8d432" />
</svg>