<?xml version="1.0" encoding="UTF-8" standalone="no"?>
<!-- Generator: Adobe Illustrator 18.1.0, SVG Export Plug-In . SVG Version: 6.00 Build 0)  -->

<svg
   xmlns:dc="http://purl.org/dc/elements/1.1/"
   xmlns:cc="http://creativecommons.org/ns#"
   xmlns:rdf="http://www.w3.org/1999/02/22-rdf-syntax-ns#"
   xmlns:svg="http://www.w3.org/2000/svg"
   xmlns="http://www.w3.org/2000/svg"
   xmlns:sodipodi="http://sodipodi.sourceforge.net/DTD/sodipodi-0.dtd"
   xmlns:inkscape="http://www.inkscape.org/namespaces/inkscape"
   version="1.1"
   id="Layer_1"
   x="0px"
   y="0px"
   height="48.900002"
   width="44.903976"
   viewBox="275 1149 44.903976 48.900002"
   enable-background="new 275 1149 50 50"
   xml:space="preserve"
   sodipodi:docname="serversAndMobileDevices.svg"
   inkscape:version="0.92.3 (2405546, 2018-03-11)"><metadata
   id="metadata5605"><rdf:RDF><cc:Work
       rdf:about=""><dc:format>image/svg+xml</dc:format><dc:type
         rdf:resource="http://purl.org/dc/dcmitype/StillImage" /><dc:title></dc:title></cc:Work></rdf:RDF></metadata><defs
   id="defs5603" /><sodipodi:namedview
   pagecolor="#ffffff"
   bordercolor="#666666"
   borderopacity="1"
   objecttolerance="10"
   gridtolerance="10"
   guidetolerance="10"
   inkscape:pageopacity="0"
   inkscape:pageshadow="2"
   inkscape:window-width="1920"
   inkscape:window-height="1017"
   id="namedview5601"
   showgrid="false"
   fit-margin-top="0"
   fit-margin-left="0"
   fit-margin-right="0"
   fit-margin-bottom="0"
   inkscape:zoom="17"
   inkscape:cx="22.5"
   inkscape:cy="24.5"
   inkscape:window-x="1912"
   inkscape:window-y="-8"
   inkscape:window-maximized="1"
   inkscape:current-layer="Layer_1" />
<g
   id="g5575"
   transform="translate(-2.5,-0.6)">
	<path
   d="m 306.2,1196 c 0,1.4 -1.1,2.4 -2.4,2.4 H 280 c -1.4,0 -2.5,-1.1 -2.5,-2.4 v -44 c 0,-1.4 1.1,-2.4 2.5,-2.4 h 23.8 c 1.4,0 2.4,1.1 2.4,2.4 z"
   id="path5561"
   inkscape:connector-curvature="0"
   style="fill:#3e3e3e" />
	<path
   d="m 281.6,1175.9 c 0,-1.8 1.4,-3.1 3.1,-3.1 H 299 c 1.8,0 3.1,1.4 3.1,3.1 v 0 c 0,1.8 -1.4,3.1 -3.1,3.1 h -14.3 c -1.7,0 -3.1,-1.4 -3.1,-3.1 z"
   id="path5563"
   inkscape:connector-curvature="0"
   style="fill:#1e1e1e" />
	<circle
   cx="284.89999"
   cy="1175.9"
   r="2.0999999"
   id="circle5565"
   style="fill:#b8d432" />
	<path
   d="m 281.6,1166.6 c 0,-1.8 1.4,-3.1 3.1,-3.1 H 299 c 1.8,0 3.1,1.4 3.1,3.1 v 0 c 0,1.8 -1.4,3.1 -3.1,3.1 h -14.3 c -1.7,0 -3.1,-1.4 -3.1,-3.1 z"
   id="path5567"
   inkscape:connector-curvature="0"
   style="fill:#1e1e1e" />
	<circle
   cx="284.89999"
   cy="1166.6"
   r="2.0999999"
   id="circle5569"
   style="fill:#b8d432" />
	<path
   d="m 281.6,1157.3 c 0,-1.8 1.4,-3.1 3.1,-3.1 H 299 c 1.8,0 3.1,1.4 3.1,3.1 v 0 c 0,1.8 -1.4,3.1 -3.1,3.1 h -14.3 c -1.7,0.1 -3.1,-1.4 -3.1,-3.1 z"
   id="path5571"
   inkscape:connector-curvature="0"
   style="fill:#1e1e1e" />
	<circle
   cx="284.89999"
   cy="1157.3"
   r="2.0999999"
   id="circle5573"
   style="fill:#b8d432" />
</g>
<g
   id="Phone"
   transform="translate(-2.5,-0.6)">
	<path
   d="m 318.5,1162.4 c 1.2,0 2.1,0.9 2.1,2.1 v 30 c 0,1.2 -0.9,2.1 -2.1,2.1 H 301 c -1.2,0 -2.1,-0.9 -2.1,-2.1 v -30.1 c 0,-1.2 0.9,-2.1 2.1,-2.1 l 17.5,0.1 m 0,-1.9 H 301 c -2.3,0 -4,1.8 -4,4 v 30 c 0,2.3 1.8,4 4,4 h 17.4 c 2.3,0 4,-1.8 4,-4 v -30.1 c 0.1,-2.2 -1.7,-3.9 -3.9,-3.9 z"
   id="path5577"
   inkscape:connector-curvature="0"
   style="fill:#ffffff" />
	<path
   d="m 320.5,1194.5 c 0,1.2 -0.9,2.1 -2.1,2.1 H 301 c -1.2,0 -2.1,-0.9 -2.1,-2.1 v -30.1 c 0,-1.2 0.9,-2.1 2.1,-2.1 h 17.4 c 1.2,0 2.1,0.9 2.1,2.1 z"
   id="path5579"
   inkscape:connector-curvature="0"
   style="fill:#3e3e3e" />
	<rect
   x="300.5"
   y="1165.8"
   width="18.5"
   height="24"
   id="rect5581"
   style="fill:#59b4d9" />
	<path
   d="m 312.7,1193.2 c 0,1.1 -0.9,2 -2,2 -1.1,0 -2,-0.9 -2,-2 0,-1.1 0.9,-2 2,-2 1.1,0 2,0.9 2,2"
   id="path5583"
   inkscape:connector-curvature="0"
   style="fill:#ffffff" />
	<path
   d="m 312,1193.2 c 0,0.7 -0.6,1.3 -1.3,1.3 -0.7,0 -1.3,-0.6 -1.3,-1.3 0,-0.7 0.6,-1.3 1.3,-1.3 0.7,0 1.3,0.6 1.3,1.3"
   id="path5585"
   inkscape:connector-curvature="0"
   style="fill:#b8d432" />
	<path
   enable-background="new    "
   d="m 300.5,1189.9 v -24 h 15.6 l 1.4,-3.4 h -16.4 c -1.2,0 -2.1,0.9 -2.1,2.1 v 30 c 0,1.2 0.9,2.1 2.1,2.1 h 2.5 l 2.7,-6.7 z"
   id="path5587"
   inkscape:connector-curvature="0"
   style="opacity:0.15;fill:#ffffff" />
	<path
   d="m 314.3,1164.3 c 0,0.3 -0.2,0.5 -0.5,0.5 h -6 c -0.3,0 -0.5,-0.2 -0.5,-0.5 0,-0.3 0.2,-0.5 0.5,-0.5 h 6 c 0.2,0 0.5,0.2 0.5,0.5"
   id="path5589"
   inkscape:connector-curvature="0"
   style="fill:#1e1e1e" />
	<path
   d="m 314.3,1164.3 c 0,0.3 -0.2,0.5 -0.5,0.5 h -6 c -0.3,0 -0.5,-0.2 -0.5,-0.5 0,-0.3 0.2,-0.5 0.5,-0.5 h 6 c 0.2,0 0.5,0.2 0.5,0.5"
   id="path5591"
   inkscape:connector-curvature="0"
   style="fill:#ffffff" />
	<path
   d="m 309.8,1176.9 v 0 l -6.1,-3.5 c -0.1,0 -0.1,-0.1 -0.1,-0.2 0,-0.1 0,-0.1 0.1,-0.2 l 6,-3.4 c 0.1,0 0.1,0 0.2,0 l 6,3.4 c 0.1,0 0.1,0.1 0.1,0.2 0,0.1 0,0.1 -0.1,0.2 l -6.1,3.5 c 0,0 0,0 0,0"
   id="path5593"
   inkscape:connector-curvature="0"
   style="fill:#ffffff" />
	<path
   enable-background="new    "
   d="m 308.9,1185.4 v 0 l -6.1,-3.5 c -0.1,0 -0.1,-0.1 -0.1,-0.2 v -7 c 0,-0.1 0,-0.1 0.1,-0.2 0.1,0 0.1,0 0.2,0 l 6,3.4 c 0.1,0 0.1,0.1 0.1,0.2 v 7 c 0,0.2 0,0.3 -0.2,0.3 0.1,0 0.1,0 0,0"
   id="path5595"
   inkscape:connector-curvature="0"
   style="opacity:0.7;fill:#ffffff" />
	<path
   enable-background="new    "
   d="m 310.6,1185.4 c -0.1,0 -0.1,0 0,0 -0.2,-0.1 -0.2,-0.1 -0.2,-0.2 v -6.9 c 0,-0.1 0,-0.1 0.1,-0.2 l 6,-3.4 c 0.1,0 0.1,0 0.2,0 0.1,0 0.1,0.1 0.1,0.2 v 6.9 c 0,0.1 0,0.1 -0.1,0.2 l -6.1,3.4 v 0"
   id="path5597"
   inkscape:connector-curvature="0"
   style="opacity:0.4;fill:#ffffff" />
</g>
</svg>