<?xml version="1.0" encoding="utf-8"?>
<!-- Generator: Adobe Illustrator 17.0.1, SVG Export Plug-In . SVG Version: 6.00 Build 0)  -->
<!DOCTYPE svg PUBLIC "-//W3C//DTD SVG 1.1//EN" "http://www.w3.org/Graphics/SVG/1.1/DTD/svg11.dtd">
<svg version="1.1" id="Layer_1" xmlns="http://www.w3.org/2000/svg" xmlns:xlink="http://www.w3.org/1999/xlink" x="0px" y="0px"
	 width="50px" height="50px" viewBox="0 0 50 50" enable-background="new 0 0 50 50" xml:space="preserve">
<path fill="#3E3E3E" d="M29.364,47.462c0,1.402-1.136,2.538-2.538,2.538H2.538C1.136,50,0,48.864,0,47.462V2.538
	C0,1.136,1.136,0,2.538,0h24.288c1.402,0,2.538,1.136,2.538,2.538V47.462z"/>
<path fill="#1E1E1E" d="M4.316,27.024c0-1.762,1.429-3.191,3.191-3.191h14.614c1.762,0,3.191,1.429,3.191,3.191l0,0
	c0,1.762-1.429,3.191-3.191,3.191H7.507C5.745,30.215,4.316,28.787,4.316,27.024L4.316,27.024z"/>
<circle fill="#B8D432" cx="7.643" cy="27.024" r="2.142"/>
<path fill="#1E1E1E" d="M4.316,17.545c0-1.762,1.429-3.191,3.191-3.191h14.614c1.762,0,3.191,1.429,3.191,3.191l0,0
	c0,1.762-1.429,3.191-3.191,3.191H7.507C5.745,20.736,4.316,19.307,4.316,17.545L4.316,17.545z"/>
<circle fill="#B8D432" cx="7.643" cy="17.545" r="2.142"/>
<path fill="#1E1E1E" d="M4.316,8.065c0-1.762,1.429-3.191,3.191-3.191h14.614c1.762,0,3.191,1.429,3.191,3.191l0,0
	c0,1.762-1.429,3.191-3.191,3.191H7.507C5.745,11.257,4.316,9.828,4.316,8.065L4.316,8.065z"/>
<circle fill="#B8D432" cx="7.643" cy="8.065" r="2.142"/>
<polygon fill="#BA141A" points="43.167,25.117 31.557,19.889 19.948,25.117 15.867,35.404 15.867,50 47.248,50 47.248,35.404 "/>
<polygon fill="#A0A1A2" points="47.111,37.362 42.247,26.523 31.557,21.709 20.868,26.523 16.004,37.362 13.784,36.365 
	19.027,24.684 31.557,19.042 44.088,24.684 49.331,36.365 "/>
<path fill="#FFFFFF" d="M39.369,50H23.561V37.812h15.808V50z M25.187,48.374h12.555v-8.935H25.187V48.374z"/>
<rect x="22.623" y="43.092" transform="matrix(-0.802 -0.5973 0.5973 -0.802 30.4733 97.9112)" fill="#FFFFFF" width="17.682" height="1.626"/>
<rect x="30.65" y="35.065" transform="matrix(-0.5972 -0.8021 0.8021 -0.5972 15.0365 95.3626)" fill="#FFFFFF" width="1.626" height="17.682"/>
<rect x="28.943" y="27.568" opacity="0.5" fill="#1E1E1E" enable-background="new    " width="5.229" height="4.187"/>
</svg>
