<?xml version="1.0" encoding="UTF-8" standalone="no"?>
<!-- Generator: Adobe Illustrator 17.1.0, SVG Export Plug-In . SVG Version: 6.00 Build 0)  -->

<svg
   xmlns:dc="http://purl.org/dc/elements/1.1/"
   xmlns:cc="http://creativecommons.org/ns#"
   xmlns:rdf="http://www.w3.org/1999/02/22-rdf-syntax-ns#"
   xmlns:svg="http://www.w3.org/2000/svg"
   xmlns="http://www.w3.org/2000/svg"
   xmlns:sodipodi="http://sodipodi.sourceforge.net/DTD/sodipodi-0.dtd"
   xmlns:inkscape="http://www.inkscape.org/namespaces/inkscape"
   version="1.1"
   id="Layer_1"
   x="0px"
   y="0px"
   height="50"
   width="29.299999"
   viewBox="0 0 29.299999 50"
   enable-background="new 0 0 50 50"
   xml:space="preserve"
   sodipodi:docname="Server.svg"
   inkscape:version="0.92.3 (2405546, 2018-03-11)"><metadata
   id="metadata5184"><rdf:RDF><cc:Work
       rdf:about=""><dc:format>image/svg+xml</dc:format><dc:type
         rdf:resource="http://purl.org/dc/dcmitype/StillImage" /><dc:title></dc:title></cc:Work></rdf:RDF></metadata><defs
   id="defs5182" /><sodipodi:namedview
   pagecolor="#ffffff"
   bordercolor="#666666"
   borderopacity="1"
   objecttolerance="10"
   gridtolerance="10"
   guidetolerance="10"
   inkscape:pageopacity="0"
   inkscape:pageshadow="2"
   inkscape:window-width="1920"
   inkscape:window-height="1017"
   id="namedview5180"
   showgrid="false"
   fit-margin-top="0"
   fit-margin-left="0"
   fit-margin-right="0"
   fit-margin-bottom="0"
   inkscape:zoom="17"
   inkscape:cx="14.6"
   inkscape:cy="25"
   inkscape:window-x="1912"
   inkscape:window-y="-8"
   inkscape:window-maximized="1"
   inkscape:current-layer="Layer_1" />
<g
   id="g5177"
   transform="translate(-10.4)">
	<path
   d="m 39.7,47.5 c 0,1.4 -1.1,2.5 -2.5,2.5 H 12.9 c -1.4,0 -2.5,-1.1 -2.5,-2.5 V 2.5 C 10.4,1.1 11.5,0 12.9,0 h 24.3 c 1.4,0 2.5,1.1 2.5,2.5 z"
   id="path5163"
   inkscape:connector-curvature="0"
   style="fill:#3e3e3e" />
	<path
   d="m 14.6,27 c 0,-1.8 1.4,-3.2 3.2,-3.2 h 14.6 c 1.8,0 3.2,1.4 3.2,3.2 v 0 c 0,1.8 -1.4,3.2 -3.2,3.2 H 17.8 c -1.7,0 -3.2,-1.4 -3.2,-3.2 z"
   id="path5165"
   inkscape:connector-curvature="0"
   style="fill:#1e1e1e" />
	<circle
   cx="18"
   cy="27"
   r="2.0999999"
   id="circle5167"
   style="fill:#b8d432" />
	<path
   d="m 14.6,17.5 c 0,-1.8 1.4,-3.2 3.2,-3.2 h 14.6 c 1.8,0 3.2,1.4 3.2,3.2 v 0 c 0,1.8 -1.4,3.2 -3.2,3.2 H 17.8 c -1.7,0 -3.2,-1.4 -3.2,-3.2 z"
   id="path5169"
   inkscape:connector-curvature="0"
   style="fill:#1e1e1e" />
	<circle
   cx="18"
   cy="17.5"
   r="2.0999999"
   id="circle5171"
   style="fill:#b8d432" />
	<path
   d="m 14.6,8.1 c 0,-1.8 1.4,-3.2 3.2,-3.2 h 14.6 c 1.8,0 3.2,1.4 3.2,3.2 v 0 c 0,1.8 -1.4,3.2 -3.2,3.2 H 17.8 c -1.7,0 -3.2,-1.5 -3.2,-3.2 z"
   id="path5173"
   inkscape:connector-curvature="0"
   style="fill:#1e1e1e" />
	<circle
   cx="18"
   cy="8.1000004"
   r="2.0999999"
   id="circle5175"
   style="fill:#b8d432" />
</g>
</svg>