<?xml version="1.0" encoding="utf-8"?>
<svg version="1.1" id="Layer_1" xmlns="http://www.w3.org/2000/svg" xmlns:xlink="http://www.w3.org/1999/xlink" x="0px" y="0px"
	 width="50px" height="50px" viewBox="0 0 50 50" enable-background="new 0 0 50 50" xml:space="preserve">
<path fill="#DD5900" d="M24.996,9.48l15.78,13.101l-5.321,18.032H14.197L9.18,22.61L24.996,9.48 M24.996,3.894L4.293,21.082
	l6.641,23.828h27.734l7.031-23.828L24.996,3.894L24.996,3.894z"/>
<path fill-rule="evenodd" clip-rule="evenodd" fill="#FF8C00" d="M25,0c4.315,0,7.813,3.498,7.813,7.813
	c0,4.315-3.498,7.812-7.813,7.812c-4.315,0-7.812-3.498-7.812-7.812C17.187,3.498,20.685,0,25,0z"/>
<path fill-rule="evenodd" clip-rule="evenodd" fill="#FF8C00" d="M42.188,13.281c4.315,0,7.812,3.498,7.812,7.812
	c0,4.315-3.498,7.812-7.812,7.812c-4.315,0-7.813-3.498-7.813-7.812C34.375,16.779,37.873,13.281,42.188,13.281z"/>
<path fill-rule="evenodd" clip-rule="evenodd" fill="#FF8C00" d="M36.328,34.375c4.315,0,7.813,3.498,7.813,7.812
	c0,4.315-3.498,7.812-7.813,7.812c-4.315,0-7.812-3.498-7.812-7.812C28.516,37.873,32.013,34.375,36.328,34.375z"/>
<path fill-rule="evenodd" clip-rule="evenodd" fill="#FF8C00" d="M13.662,34.375c4.315,0,7.813,3.498,7.813,7.812
	c0,4.315-3.498,7.813-7.813,7.813s-7.813-3.498-7.813-7.813C5.849,37.873,9.347,34.375,13.662,34.375z"/>
<path fill-rule="evenodd" clip-rule="evenodd" fill="#FF8C00" d="M7.813,13.281c4.315,0,7.812,3.498,7.812,7.812
	c0,4.315-3.498,7.812-7.812,7.812C3.498,28.906,0,25.409,0,21.094C0,16.779,3.498,13.281,7.813,13.281z"/>
<path opacity="0.25" fill-rule="evenodd" clip-rule="evenodd" fill="#FFFFFF" d="M15.055,49.875l3.183-14.018
	c-1.286-0.931-2.866-1.481-4.576-1.481c-0.401,0-0.794,0.03-1.179,0.089l-1.711-6.139c2.847-1.167,4.853-3.964,4.853-7.231
	c0-1.159-0.254-2.258-0.707-3.248l4.972-4.127c0.859,0.744,1.882,1.304,3.007,1.619l3.455-15.219C25.912,0.042,25.461,0,25,0
	c-4.315,0-7.812,3.498-7.812,7.813c0,0.794,0.119,1.56,0.34,2.282l-5.402,4.485c-1.236-0.82-2.718-1.298-4.312-1.298
	C3.498,13.281,0,16.779,0,21.094c0,3.846,2.78,7.04,6.439,7.69l2.094,7.514c-1.644,1.432-2.684,3.539-2.684,5.89
	c0,4.315,3.498,7.813,7.813,7.813C14.137,50,14.603,49.956,15.055,49.875z"/>
</svg>
