<?xml version="1.0" encoding="utf-8"?>
<svg version="1.1" id="Layer_1" xmlns="http://www.w3.org/2000/svg" xmlns:xlink="http://www.w3.org/1999/xlink" x="0px" y="0px"
	 width="50px" height="50px" viewBox="0 0 50 50" enable-background="new 0 0 50 50" xml:space="preserve">
<path fill="#0072C6" d="M0.833,0C0.333,0,0,0.333,0,0.833v10c0,0.5,0.333,0.833,0.833,0.833h5c0.5,0,0.833-0.333,0.833-0.833V6.667
	h36.667v4.167c0,0.5,0.333,0.833,1,0.833h4.833c0.5,0,0.833-0.333,0.833-0.833v-5v-5C50,0.333,49.667,0,49.167,0l0,0H0.833z"/>
<path fill="#0072C6" d="M49.167,50c0.5,0,0.833-0.333,0.833-0.833v-9.833c0-0.5-0.333-0.833-0.833-0.833h-4.833
	c-0.5,0-0.833,0.333-0.833,0.833v4H6.667v-4.167c0-0.5-0.333-0.833-1-0.833H0.833c-0.5,0-0.833,0.333-0.833,1v9.833
	C0,49.667,0.333,50,0.833,50H49.167z"/>
<rect x="18.802" y="21.37" transform="matrix(0.7071 -0.7071 0.7071 0.7071 -9.956 20.9636)" fill="#B8D432" width="3.051" height="2.259"/>
<rect x="21.932" y="18.238" transform="matrix(0.7071 -0.7071 0.7071 0.7071 -6.8254 22.2618)" fill="#B8D432" width="3.055" height="2.263"/>
<polygon fill="#B8D432" points="26.31,18.11 24.71,16.52 26.85,14.38 28.45,15.97 "/>
<rect x="25.448" y="31.567" transform="matrix(0.7073 -0.7069 0.7069 0.7073 -15.6049 28.474)" fill="#B8D432" width="2.263" height="3.027"/>
<polygon fill="#B8D432" points="23.74,31.83 21.58,29.67 23.18,28.08 25.34,30.24 "/>
<polygon fill="#B8D432" points="20.61,28.7 18.45,26.54 20.05,24.95 22.2,27.1 "/>
<path fill="#59B4D9" d="M36.131,15.247c-0.527,0.527-1.229,0.818-1.974,0.818c-0.746,0-1.447-0.29-1.974-0.818l-3.783-3.783v7.691
	h11.515v-7.691L36.131,15.247z"/>
<path fill="#59B4D9" d="M34.156,15.503c0.596,0,1.156-0.232,1.577-0.653l4.181-4.181v-0.222H28.399v0.222l4.181,4.181
	C33,15.271,33.561,15.503,34.156,15.503z"/>
<path fill="#59B4D9" d="M36.131,34.971c-0.527,0.527-1.229,0.818-1.974,0.818c-0.746,0-1.447-0.29-1.974-0.818l-3.783-3.783v7.691
	h11.515v-7.691L36.131,34.971z"/>
<path fill="#59B4D9" d="M34.156,35.227c0.596,0,1.156-0.232,1.577-0.653l4.181-4.181v-0.222H28.399v0.222l4.181,4.181
	C33,34.995,33.561,35.227,34.156,35.227z"/>
<path fill="#59B4D9" d="M12.324,25.374c-0.84,0.84-1.958,1.303-3.147,1.303s-2.306-0.463-3.147-1.303L0,19.343v12.258h18.354V19.343
	L12.324,25.374z"/>
<path fill="#59B4D9" d="M9.177,25.782c0.95,0,1.842-0.37,2.514-1.041l6.663-6.663v-0.353H0v0.354l6.663,6.663
	C7.335,25.412,8.227,25.782,9.177,25.782z"/>
</svg>
