<?xml version="1.0" encoding="utf-8"?>
<svg version="1.1" id="Layer_1" xmlns="http://www.w3.org/2000/svg" xmlns:xlink="http://www.w3.org/1999/xlink" x="0px" y="0px"
	 width="50px" height="50px" viewBox="0 0 50 50" style="enable-background:new 0 0 50 50;" xml:space="preserve">
<style type="text/css">
	.st0{fill:#0072C6;}
	.st1{fill:#B8D432;}
	.st2{fill:#59B4D9;}
</style>
<path class="st0" d="M0.8,0C0.3,0,0,0.3,0,0.8v10c0,0.5,0.3,0.8,0.8,0.8h5c0.5,0,0.8-0.3,0.8-0.8V6.7h36.7v4.2c0,0.5,0.3,0.8,1,0.8
	h4.8c0.5,0,0.8-0.3,0.8-0.8v-5v-5C50,0.3,49.7,0,49.2,0l0,0H0.8z"/>
<path class="st0" d="M49.2,50c0.5,0,0.8-0.3,0.8-0.8v-9.8c0-0.5-0.3-0.8-0.8-0.8h-4.8c-0.5,0-0.8,0.3-0.8,0.8v4H6.7v-4.2
	c0-0.5-0.3-0.8-1-0.8H0.8c-0.5,0-0.8,0.3-0.8,1v9.8C0,49.7,0.3,50,0.8,50H49.2z"/>
<g>
	<rect x="29" y="15.2" transform="matrix(0.848 -0.53 0.53 0.848 -8.6583 19.8107)" class="st0" width="2.5" height="19.7"/>
</g>
<g>
	<rect x="10.2" y="23.8" transform="matrix(0.5299 -0.848 0.848 0.5299 -11.7871 28.7355)" class="st0" width="19.7" height="2.5"/>
</g>
<circle class="st1" cx="25" cy="16.7" r="5.4"/>
<g>
	<circle class="st2" cx="14.6" cy="33.3" r="5.4"/>
	<circle class="st2" cx="35.4" cy="33.3" r="5.4"/>
</g>
</svg>
