<?xml version="1.0" encoding="utf-8"?>
<svg version="1.1" id="Layer_1" xmlns="http://www.w3.org/2000/svg" xmlns:xlink="http://www.w3.org/1999/xlink" x="0px" y="0px"
	 width="50px" height="50px" viewBox="0 0 50 50" enable-background="new 0 0 50 50" xml:space="preserve">
<path fill="#0072C6" d="M0.833,0C0.333,0,0,0.333,0,0.833v10c0,0.5,0.333,0.833,0.833,0.833h5c0.5,0,0.833-0.333,0.833-0.833V6.667
	h36.667v4.167c0,0.5,0.333,0.833,1,0.833h4.833c0.5,0,0.833-0.333,0.833-0.833v-5v-5C50,0.333,49.667,0,49.167,0l0,0H0.833z"/>
<path fill="#0072C6" d="M49.167,50c0.5,0,0.833-0.333,0.833-0.833v-9.833c0-0.5-0.333-0.833-0.833-0.833h-4.833
	c-0.5,0-0.833,0.333-0.833,0.833v4H6.667v-4.167c0-0.5-0.333-0.833-1-0.833H0.833c-0.5,0-0.833,0.333-0.833,1v9.833
	C0,49.667,0.333,50,0.833,50H49.167z"/>
<path fill="#59B4D9" d="M29.857,26.098C28.56,27.395,26.835,28.11,25,28.11s-3.56-0.714-4.858-2.012l-9.309-9.309v18.923h28.333
	V16.788L29.857,26.098z"/>
<path fill="#59B4D9" d="M25,26.728c1.466,0,2.844-0.571,3.88-1.607l10.286-10.286V14.29H10.833v0.546L21.119,25.12
	C22.156,26.157,23.534,26.728,25,26.728z"/>
</svg>
