<?xml version="1.0" encoding="utf-8"?>
<svg version="1.1" id="Layer_1" xmlns="http://www.w3.org/2000/svg" xmlns:xlink="http://www.w3.org/1999/xlink" x="0px" y="0px"
	 width="50px" height="50px" viewBox="0 0 50 50" enable-background="new 0 0 50 50" xml:space="preserve">
<path fill="#0072C6" d="M0.833,0C0.333,0,0,0.333,0,0.833v10c0,0.5,0.333,0.833,0.833,0.833h5c0.5,0,0.833-0.333,0.833-0.833V6.667
	h36.667v4.167c0,0.5,0.333,0.833,1,0.833h4.833c0.5,0,0.833-0.333,0.833-0.833v-5v-5C50,0.333,49.667,0,49.167,0l0,0H0.833z"/>
<path fill="#0072C6" d="M49.167,50c0.5,0,0.833-0.333,0.833-0.833v-9.833c0-0.5-0.333-0.833-0.833-0.833h-4.833
	c-0.5,0-0.833,0.333-0.833,0.833v4H6.667v-4.167c0-0.5-0.333-0.833-1-0.833H0.833c-0.5,0-0.833,0.333-0.833,1v9.833
	C0,49.667,0.333,50,0.833,50H49.167z"/>
<path fill="#59B4D9" d="M12.324,25.711c-0.84,0.84-1.958,1.303-3.147,1.303s-2.306-0.463-3.147-1.303L0,19.681v12.258h18.354V19.681
	L12.324,25.711z"/>
<path fill="#59B4D9" d="M9.177,26.119c0.95,0,1.842-0.37,2.514-1.041l6.663-6.663v-0.353H0v0.354l6.663,6.663
	C7.335,25.75,8.227,26.119,9.177,26.119z"/>
<path fill="#59B4D9" d="M43.97,25.711c-0.84,0.84-1.958,1.303-3.147,1.303s-2.306-0.463-3.147-1.303l-6.03-6.03v12.258H50V19.681
	L43.97,25.711z"/>
<path fill="#59B4D9" d="M40.823,26.119c0.95,0,1.842-0.37,2.514-1.041L50,18.415v-0.353H31.646v0.354l6.663,6.663
	C38.981,25.75,39.873,26.119,40.823,26.119z"/>
<rect x="25.813" y="23.779" fill="#B8D432" width="3.084" height="2.434"/>
<rect x="21.042" y="23.779" fill="#B8D432" width="3.262" height="2.434"/>
</svg>
