<?xml version="1.0" encoding="UTF-8" standalone="no"?>
<!-- Generator: Adobe Illustrator 17.1.0, SVG Export Plug-In . SVG Version: 6.00 Build 0)  -->

<svg
   xmlns:dc="http://purl.org/dc/elements/1.1/"
   xmlns:cc="http://creativecommons.org/ns#"
   xmlns:rdf="http://www.w3.org/1999/02/22-rdf-syntax-ns#"
   xmlns:svg="http://www.w3.org/2000/svg"
   xmlns="http://www.w3.org/2000/svg"
   xmlns:sodipodi="http://sodipodi.sourceforge.net/DTD/sodipodi-0.dtd"
   xmlns:inkscape="http://www.inkscape.org/namespaces/inkscape"
   version="1.1"
   id="Layer_1"
   x="0px"
   y="0px"
   width="36.599998"
   height="49.900002"
   viewBox="0 0 36.599998 49.900002"
   enable-background="new 0 0 50 50"
   xml:space="preserve"
   sodipodi:docname="ShieldFirewall.svg"
   inkscape:version="0.92.3 (2405546, 2018-03-11)"><metadata
   id="metadata5845"><rdf:RDF><cc:Work
       rdf:about=""><dc:format>image/svg+xml</dc:format><dc:type
         rdf:resource="http://purl.org/dc/dcmitype/StillImage" /><dc:title></dc:title></cc:Work></rdf:RDF></metadata><defs
   id="defs5843" /><sodipodi:namedview
   pagecolor="#ffffff"
   bordercolor="#666666"
   borderopacity="1"
   objecttolerance="10"
   gridtolerance="10"
   guidetolerance="10"
   inkscape:pageopacity="0"
   inkscape:pageshadow="2"
   inkscape:window-width="1920"
   inkscape:window-height="1017"
   id="namedview5841"
   showgrid="false"
   fit-margin-top="0"
   fit-margin-left="0"
   fit-margin-right="0"
   fit-margin-bottom="0"
   inkscape:zoom="17"
   inkscape:cx="18"
   inkscape:cy="24.9"
   inkscape:window-x="1912"
   inkscape:window-y="-8"
   inkscape:window-maximized="1"
   inkscape:current-layer="Layer_1" />
<path
   d="M 31.2,6 V 6 C 20.2,4.8 18.3,0 18.3,0 18.3,0 15.8,6.2 0,6.2 v 25.6 c 0,3.1 1.7,6 4.1,8.5 v 0 c 5.4,5.7 14.2,9.6 14.2,9.6 0,0 18.3,-8 18.3,-18.1 V 6.2 c -2,0 -3.8,-0.1 -5.4,-0.2 z"
   id="path5826"
   inkscape:connector-curvature="0"
   style="fill:#3999c6" />
<path
   d="M 22.9,16.5 31.2,6 C 20.2,4.8 18.3,0 18.3,0 18.3,0 15.8,6.2 0,6.2 v 25.6 c 0,3.1 1.7,6 4.1,8.5 l 6.2,-7.8 z"
   id="path5828"
   inkscape:connector-curvature="0"
   style="opacity:0.4;fill:#59b4d9" />
<g
   id="g5838"
   transform="translate(-7)">
	<path
   d="m 10.8,24.4 v 6.1 c 0,2.5 1.4,4.8 3.3,6.8 4.3,4.6 11.3,7.6 11.3,7.6 V 24.4 Z"
   id="path5830"
   inkscape:connector-curvature="0"
   style="opacity:0.3;fill:#ffffff" />
	<path
   d="m 25.3,44.9 c 0,0 14.6,-6.4 14.6,-14.4 V 24.4 H 25.3 Z"
   id="path5832"
   inkscape:connector-curvature="0"
   style="opacity:0.7;fill:#ffffff" />
	<path
   d="m 25.3,5.1 c 0,0 0,0 0,0 0,0 -2,5 -14.6,5 v 14.3 h 14.6 z"
   id="path5834"
   inkscape:connector-curvature="0"
   style="opacity:0.7;fill:#ffffff" />
	<path
   d="M 35.5,9.9 C 26.8,8.9 25.3,5.2 25.3,5.2 V 24.4 H 39.9 V 10.1 c -1.6,0 -3.1,-0.1 -4.4,-0.2 z"
   id="path5836"
   inkscape:connector-curvature="0"
   style="opacity:0.3;fill:#ffffff" />
</g>
</svg>