<?xml version="1.0" encoding="UTF-8" standalone="no"?>
<svg
   xmlns:dc="http://purl.org/dc/elements/1.1/"
   xmlns:cc="http://creativecommons.org/ns#"
   xmlns:rdf="http://www.w3.org/1999/02/22-rdf-syntax-ns#"
   xmlns:svg="http://www.w3.org/2000/svg"
   xmlns="http://www.w3.org/2000/svg"
   xmlns:sodipodi="http://sodipodi.sourceforge.net/DTD/sodipodi-0.dtd"
   xmlns:inkscape="http://www.inkscape.org/namespaces/inkscape"
   version="1.1"
   id="Layer_1"
   x="0px"
   y="0px"
   width="37.486"
   height="49.688"
   viewBox="-0.5 0.5 37.486 49.688"
   enable-background="new -0.5 0.5 50 50"
   xml:space="preserve"
   inkscape:version="0.91 r13725"
   sodipodi:docname="Azure SQL Database (generic)_COLOR.svg"><metadata
     id="metadata25"><rdf:RDF><cc:Work
         rdf:about=""><dc:format>image/svg+xml</dc:format><dc:type
           rdf:resource="http://purl.org/dc/dcmitype/StillImage" /><dc:title></dc:title></cc:Work></rdf:RDF></metadata><defs
     id="defs23" /><sodipodi:namedview
     pagecolor="#ffffff"
     bordercolor="#666666"
     borderopacity="1"
     objecttolerance="10"
     gridtolerance="10"
     guidetolerance="10"
     inkscape:pageopacity="0"
     inkscape:pageshadow="2"
     inkscape:window-width="1920"
     inkscape:window-height="1018"
     id="namedview21"
     showgrid="false"
     fit-margin-top="0"
     fit-margin-left="0"
     fit-margin-right="0"
     fit-margin-bottom="0"
     inkscape:zoom="7.3282407"
     inkscape:cx="30.021651"
     inkscape:cy="16.6021"
     inkscape:window-x="-8"
     inkscape:window-y="-8"
     inkscape:window-maximized="1"
     inkscape:current-layer="Layer_1" /><path
     d="M -0.5,7.288 -0.5,43.399 C -0.5,47.148 7.892,50.188 18.243,50.188 L 18.243,7.288 C 18.243,7.288 -0.5,7.288 -0.5,7.288 Z"
     id="path3"
     inkscape:connector-curvature="0"
     style="fill:#0072c6" /><path
     d="M 17.986,50.187 18.243,50.187 C 28.594,50.187 36.986,47.149 36.986,43.399 L 36.986,7.288 17.986,7.288 17.986,50.187 Z"
     id="path5"
     inkscape:connector-curvature="0"
     style="fill:#0072c6" /><path
     d="M 17.986,50.187 18.243,50.187 C 28.594,50.187 36.986,47.149 36.986,43.399 L 36.986,7.288 17.986,7.288 17.986,50.187 Z"
     id="path7"
     inkscape:connector-curvature="0"
     style="opacity:0.15;fill:#ffffff" /><path
     d="M 36.986,7.288 C 36.986,11.037 28.594,14.076 18.243,14.076 7.892,14.076 -0.5,11.037 -0.5,7.288 -0.5,3.539 7.892,0.5 18.243,0.5 28.594,0.5 36.986,3.539 36.986,7.288"
     id="path9"
     inkscape:connector-curvature="0"
     style="fill:#ffffff" /><path
     d="M 33.154,6.897 C 33.154,9.372 26.478,11.376 18.243,11.376 10.008,11.376 3.331,9.372 3.331,6.897 3.331,4.423 10.008,2.418 18.243,2.418 26.478,2.418 33.154,4.423 33.154,6.897"
     id="path11"
     inkscape:connector-curvature="0"
     style="fill:#7fba00" /><path
     d="M 30.03,9.634 C 31.982,8.877 33.155,7.929 33.155,6.899 33.155,4.424 26.479,2.419 18.243,2.419 10.008,2.419 3.332,4.424 3.332,6.899 3.332,7.929 4.505,8.877 6.457,9.634 9.183,8.576 13.443,7.893 18.243,7.893 23.044,7.893 27.302,8.576 30.03,9.634"
     id="path13"
     inkscape:connector-curvature="0"
     style="fill:#b8d432" /><path
     d="M 12.29,32.354 C 12.29,33.476 11.883,34.345 11.069,34.961 10.255,35.577 9.131,35.885 7.696,35.885 6.475,35.885 5.455,35.665 4.635,35.225 L 4.635,32.585 C 5.581,33.388 6.623,33.79 7.761,33.79 8.311,33.79 8.736,33.68 9.036,33.46 9.336,33.24 9.486,32.949 9.486,32.585 9.486,32.228 9.342,31.917 9.053,31.653 8.764,31.389 8.177,31.048 7.292,30.63 5.488,29.784 4.586,28.628 4.586,27.166 4.586,26.105 4.979,25.254 5.766,24.613 6.552,23.973 7.597,23.652 8.9,23.652 10.055,23.652 11.011,23.804 11.771,24.106 L 11.771,26.572 C 10.974,26.022 10.066,25.747 9.049,25.747 8.538,25.747 8.134,25.855 7.837,26.072 7.54,26.29 7.392,26.58 7.392,26.942 7.392,27.316 7.511,27.623 7.751,27.862 7.99,28.101 8.481,28.397 9.223,28.749 10.329,29.272 11.116,29.802 11.587,30.341 12.055,30.881 12.29,31.552 12.29,32.354 Z"
     id="path15"
     inkscape:connector-curvature="0"
     style="fill:#ffffff" /><path
     d="M 25.017,29.682 C 25.017,31.073 24.7,32.281 24.068,33.303 23.435,34.326 22.545,35.043 21.396,35.456 L 24.827,38.632 21.363,38.632 18.913,35.885 C 17.863,35.847 16.915,35.569 16.071,35.052 15.227,34.536 14.575,33.827 14.116,32.928 13.657,32.029 13.427,31.026 13.427,29.921 13.427,28.695 13.676,27.602 14.173,26.642 14.671,25.682 15.37,24.944 16.272,24.427 17.174,23.911 18.207,23.652 19.374,23.652 20.462,23.652 21.437,23.902 22.298,24.403 23.158,24.903 23.826,25.615 24.302,26.539 24.779,27.463 25.017,28.511 25.017,29.682 Z M 22.213,29.831 C 22.213,28.632 21.952,27.685 21.429,26.989 20.906,26.293 20.192,25.945 19.284,25.945 18.36,25.945 17.621,26.294 17.065,26.992 16.51,27.691 16.232,28.62 16.232,29.78 16.232,30.935 16.504,31.857 17.048,32.547 17.593,33.237 18.315,33.582 19.217,33.582 20.136,33.582 20.864,33.248 21.403,32.58 21.943,31.913 22.213,30.996 22.213,29.831 Z"
     id="path17"
     inkscape:connector-curvature="0"
     style="fill:#ffffff" /><polygon
     points="35.893,23.851 35.893,33.518 40.273,33.518 40.273,35.679 33.229,35.679 33.229,23.851 "
     id="polygon19"
     style="fill:#ffffff"
     transform="translate(-6.257,0)" /></svg>