<?xml version="1.0" encoding="UTF-8" standalone="no"?>
<!-- Generator: Adobe Illustrator 17.1.0, SVG Export Plug-In . SVG Version: 6.00 Build 0)  -->

<svg
   xmlns:dc="http://purl.org/dc/elements/1.1/"
   xmlns:cc="http://creativecommons.org/ns#"
   xmlns:rdf="http://www.w3.org/1999/02/22-rdf-syntax-ns#"
   xmlns:svg="http://www.w3.org/2000/svg"
   xmlns="http://www.w3.org/2000/svg"
   xmlns:sodipodi="http://sodipodi.sourceforge.net/DTD/sodipodi-0.dtd"
   xmlns:inkscape="http://www.inkscape.org/namespaces/inkscape"
   version="1.1"
   id="Layer_1"
   x="0px"
   y="0px"
   height="40.200001"
   width="50.091995"
   viewBox="0 0 50.091995 40.200001"
   enable-background="new 0 0 50 50"
   xml:space="preserve"
   sodipodi:docname="SSD.svg"
   inkscape:version="0.92.3 (2405546, 2018-03-11)"><metadata
   id="metadata6325"><rdf:RDF><cc:Work
       rdf:about=""><dc:format>image/svg+xml</dc:format><dc:type
         rdf:resource="http://purl.org/dc/dcmitype/StillImage" /><dc:title></dc:title></cc:Work></rdf:RDF></metadata><defs
   id="defs6323" /><sodipodi:namedview
   pagecolor="#ffffff"
   bordercolor="#666666"
   borderopacity="1"
   objecttolerance="10"
   gridtolerance="10"
   guidetolerance="10"
   inkscape:pageopacity="0"
   inkscape:pageshadow="2"
   inkscape:window-width="1920"
   inkscape:window-height="1017"
   id="namedview6321"
   showgrid="false"
   fit-margin-top="0"
   fit-margin-left="0"
   fit-margin-right="0"
   fit-margin-bottom="0"
   inkscape:zoom="17"
   inkscape:cx="25.045943"
   inkscape:cy="18.7"
   inkscape:window-x="1912"
   inkscape:window-y="-8"
   inkscape:window-maximized="1"
   inkscape:current-layer="Layer_1" />
<path
   d="M 50.045943,37.6 V 29.3 H 0.04594311 v 8.3 h 0.1 c -0.3,1.3 0.89999999,2.6 2.69999999,2.6 H 47.445943 c 1.7,0 2.9,-1.3 2.6,-2.6 z"
   id="path6306"
   inkscape:connector-curvature="0"
   style="fill:#a0a1a2" />
<path
   d="m 49.945943,29 c 0.3,1.3 -0.9,2.6 -2.7,2.6 H 2.7459431 C 0.94594311,31.6 -0.25405689,30.3 0.04594311,29 L 6.9459431,1.3 c 0.1,-0.6 1.3,-1.3 2.5,-1.3 H 40.545943 c 1.3,0 2.4,0.6 2.6,1.3 z"
   id="path6308"
   inkscape:connector-curvature="0"
   style="fill:#a0a1a2" />
<path
   d="m 49.945943,29 -6.8,-27.7 c -0.2,-0.7 -1.3,-1.3 -2.6,-1.3 H 9.4459431 c -1.2,0 -2.4,0.7 -2.5,1.3 L 0.14594311,29 c -0.3,1.3 0.89999999,2.6 2.69999999,2.6 H 47.445943 c 1.7,0 2.9,-1.3 2.5,-2.6 z m -6.6,-0.7 H 6.7459431 c -1.5,0 -2.4,-1 -2.2,-2.1 l 5.5999999,-22 c 0.1,-0.5 1.1,-1 2.1,-1 h 25.5 c 1,0 2,0.5 2.1,1 l 5.6,22 c 0.3,1.1 -0.6,2.1 -2.1,2.1 z"
   id="path6310"
   inkscape:connector-curvature="0"
   style="opacity:0.4;fill:#ffffff" />
<polygon
   points="34,39.9 34,38.3 32.6,38.3 32.6,39.9 28.5,39.9 28.5,38.3 27,38.3 27,39.9 23,39.9 23,38.3 21.5,38.3 21.5,39.9 17.4,39.9 17.4,38.3 16,38.3 16,39.9 11.9,39.9 11.9,38.3 10.4,38.3 10.4,39.9 10.4,41 11.9,41 16,41 17.4,41 21.5,41 23,41 27,41 28.5,41 32.6,41 34,41 38.1,41 38.4,41 39.6,41 39.6,38.3 38.1,38.3 38.1,39.9 "
   id="polygon6312"
   style="opacity:0.75;fill:#1e1e1e"
   transform="translate(0.04594311,-3.5)" />
<path
   d="m 30.545943,13.7 h -3.5 -0.7 c -0.2,0 -0.3,-0.2 -0.2,-0.4 l 3.4,-6 0.2,-0.4 h -7.2 l -3.2,10.2 c -0.1,0.2 0,0.4 0.3,0.4 h 3.3 c 0.1,0 0.2,0 0.2,0.1 0.1,0.1 0.1,0.2 0,0.3 l -3.4,8.3 c -0.1,0.2 0,0.3 0.1,0.1 l 10.8,-12.3 c 0.2,-0.2 0.2,-0.3 -0.1,-0.3 z"
   id="path6314"
   inkscape:connector-curvature="0"
   style="fill:#fcd116" />
<path
   d="m 30.545943,13.7 h -2.2 l -8.1,12.1 10.4,-11.8 c 0.2,-0.2 0.2,-0.3 -0.1,-0.3 z"
   id="path6316"
   inkscape:connector-curvature="0"
   style="opacity:0.3;fill:#ff8c00" />
<path
   d="m 29.545943,7.3 0.2,-0.4 h -2.1 l -3.3,6.8 h 2 c -0.2,0 -0.2,-0.2 -0.1,-0.4 z"
   id="path6318"
   inkscape:connector-curvature="0"
   style="opacity:0.3;fill:#ff8c00" />
</svg>