<?xml version="1.0" encoding="UTF-8" standalone="no"?>
<!-- Generator: Adobe Illustrator 17.1.0, SVG Export Plug-In . SVG Version: 6.00 Build 0)  -->

<svg
   xmlns:dc="http://purl.org/dc/elements/1.1/"
   xmlns:cc="http://creativecommons.org/ns#"
   xmlns:rdf="http://www.w3.org/1999/02/22-rdf-syntax-ns#"
   xmlns:svg="http://www.w3.org/2000/svg"
   xmlns="http://www.w3.org/2000/svg"
   xmlns:sodipodi="http://sodipodi.sourceforge.net/DTD/sodipodi-0.dtd"
   xmlns:inkscape="http://www.inkscape.org/namespaces/inkscape"
   version="1.1"
   id="Layer_1"
   x="0px"
   y="0px"
   height="42.599998"
   width="50"
   viewBox="0 0 50 42.599998"
   enable-background="new 0 0 50 50"
   xml:space="preserve"
   sodipodi:docname="StorageAzureFiles.svg"
   inkscape:version="0.92.3 (2405546, 2018-03-11)"><metadata
   id="metadata7007"><rdf:RDF><cc:Work
       rdf:about=""><dc:format>image/svg+xml</dc:format><dc:type
         rdf:resource="http://purl.org/dc/dcmitype/StillImage" /><dc:title></dc:title></cc:Work></rdf:RDF></metadata><defs
   id="defs7005" /><sodipodi:namedview
   pagecolor="#ffffff"
   bordercolor="#666666"
   borderopacity="1"
   objecttolerance="10"
   gridtolerance="10"
   guidetolerance="10"
   inkscape:pageopacity="0"
   inkscape:pageshadow="2"
   inkscape:window-width="1920"
   inkscape:window-height="1017"
   id="namedview7003"
   showgrid="false"
   fit-margin-top="0"
   fit-margin-left="0"
   fit-margin-right="0"
   fit-margin-bottom="0"
   inkscape:zoom="8.5"
   inkscape:cx="27.877947"
   inkscape:cy="16.941764"
   inkscape:window-x="1912"
   inkscape:window-y="-8"
   inkscape:window-maximized="1"
   inkscape:current-layer="Layer_1" />
<path
   d="m 0,40.7 c 0,1 0.8,1.9 1.8,1.9 h 46.3 c 1,0 1.9,-0.8 1.9,-1.9 V 7.6 H 0 Z"
   id="path6992"
   inkscape:connector-curvature="0"
   style="fill:#a0a1a2" />
<path
   d="M 48.1,0 H 1.8 C 0.8,0 0,0.8 0,1.9 V 7.6 H 50 V 1.9 C 50,0.8 49.2,0 48.1,0"
   id="path6994"
   inkscape:connector-curvature="0"
   style="fill:#7a7a7a" />
<path
   d="M 38,17.2 V 14.8 H 22.8 L 19.2,11.2 H 9.7 v 26.3 c 0,0.8 0.6,1.4 1.4,1.4 v 0 h 27.2 c 0.8,0 1.4,-0.6 1.4,-1.4 V 17.2 Z"
   id="path6996"
   inkscape:connector-curvature="0"
   style="opacity:0.8;fill:#ffffff" />
<path
   d="m 12.5,17.2 v 20.3 c 0,0.8 -0.6,1.4 -1.4,1.4 -0.8,0 -1.4,-0.6 -1.4,-1.4 V 11.2 h 9.6 l 3.6,3.6 H 38 v 2.4 z"
   id="path6998"
   inkscape:connector-curvature="0"
   style="fill:#0072c6" />
<path
   d="M 2,0 C 0.9,0 0,0.9 0,2 v 7.3 3.3 28 c 0,1.1 0.9,2 2,2 H 4.2 L 43.6,0 Z"
   id="path7000"
   inkscape:connector-curvature="0"
   style="opacity:0.2;fill:#ffffff" />
</svg>