<?xml version="1.0" encoding="utf-8"?>
<!-- Generator: Adobe Illustrator 19.1.0, SVG Export Plug-In . SVG Version: 6.00 Build 0)  -->
<svg version="1.1" id="Layer_1" xmlns="http://www.w3.org/2000/svg" xmlns:xlink="http://www.w3.org/1999/xlink" x="0px" y="0px"
	 width="50px" height="50px" viewBox="0 0 50 50" enable-background="new 0 0 50 50" xml:space="preserve">
<g>
	<path fill="#3E3E3E" d="M21.364,47.462c0,1.402-1.136,2.538-2.538,2.538H2.538C1.136,50,0,48.864,0,47.462V18.538
		C0,17.136,1.136,16,2.538,16h16.288c1.402,0,2.538,1.136,2.538,2.538V47.462z"/>
	<path fill="#1E1E1E" d="M3.316,33.545c0-1.762,1.429-3.191,3.191-3.191h8.614c1.762,0,3.191,1.429,3.191,3.191l0,0
		c0,1.762-1.429,3.191-3.191,3.191H6.507C4.745,36.736,3.316,35.307,3.316,33.545L3.316,33.545z"/>
	<circle fill="#B8D432" cx="6.643" cy="33.545" r="2.142"/>
	<path fill="#1E1E1E" d="M3.316,24.065c0-1.762,1.429-3.191,3.191-3.191h8.614c1.762,0,3.191,1.429,3.191,3.191l0,0
		c0,1.762-1.429,3.191-3.191,3.191H6.507C4.745,27.257,3.316,25.828,3.316,24.065L3.316,24.065z"/>
	<circle fill="#B8D432" cx="6.643" cy="24.065" r="2.142"/>
</g>
<g>
	<path fill="#3E3E3E" d="M50,47.462C50,48.864,48.864,50,47.462,50H31.174c-1.402,0-2.538-1.136-2.538-2.538V18.538
		c0-1.402,1.136-2.538,2.538-2.538h16.288C48.864,16,50,17.136,50,18.538V47.462z"/>
	<path fill="#1E1E1E" d="M31.952,33.545c0-1.762,1.429-3.191,3.191-3.191h8.614c1.762,0,3.191,1.429,3.191,3.191l0,0
		c0,1.762-1.429,3.191-3.191,3.191h-8.614C33.381,36.736,31.952,35.307,31.952,33.545L31.952,33.545z"/>
	<circle fill="#B8D432" cx="35.279" cy="33.545" r="2.142"/>
	<path fill="#1E1E1E" d="M31.952,24.065c0-1.762,1.429-3.191,3.191-3.191h8.614c1.762,0,3.191,1.429,3.191,3.191l0,0
		c0,1.762-1.429,3.191-3.191,3.191h-8.614C33.381,27.257,31.952,25.828,31.952,24.065L31.952,24.065z"/>
	<circle fill="#B8D432" cx="35.279" cy="24.065" r="2.142"/>
</g>
<polygon fill="#59B4D9" points="20.627,10.034 14.786,15.875 8.945,10.034 "/>
<polygon fill="#59B4D9" points="40.752,10.034 34.911,15.875 29.07,10.034 "/>
<g>
	<path fill="#59B4D9" d="M13.382,11.426C13.382,5.125,18.509,0,24.81,0s11.554,4.784,11.554,11.084c0,0.864-0.699,1.563-1.563,1.563
		s-1.563-0.699-1.563-1.563c0-4.578-3.852-7.959-8.429-7.959s-8.302,3.723-8.302,8.301C16.507,11.426,13.382,11.426,13.382,11.426z"
		/>
</g>
</svg>
