<?xml version="1.0" encoding="UTF-8" standalone="no"?>
<!-- Generator: Adobe Illustrator 17.0.1, SVG Export Plug-In . SVG Version: 6.00 Build 0)  -->

<svg
   xmlns:dc="http://purl.org/dc/elements/1.1/"
   xmlns:cc="http://creativecommons.org/ns#"
   xmlns:rdf="http://www.w3.org/1999/02/22-rdf-syntax-ns#"
   xmlns:svg="http://www.w3.org/2000/svg"
   xmlns="http://www.w3.org/2000/svg"
   xmlns:sodipodi="http://sodipodi.sourceforge.net/DTD/sodipodi-0.dtd"
   xmlns:inkscape="http://www.inkscape.org/namespaces/inkscape"
   version="1.1"
   id="Layer_1"
   x="0px"
   y="0px"
   width="32.379002"
   height="50"
   viewBox="0 0 32.379002 50"
   enable-background="new 0 0 50 50"
   xml:space="preserve"
   sodipodi:docname="Support.svg"
   inkscape:version="0.92.3 (2405546, 2018-03-11)"><metadata
   id="metadata7880"><rdf:RDF><cc:Work
       rdf:about=""><dc:format>image/svg+xml</dc:format><dc:type
         rdf:resource="http://purl.org/dc/dcmitype/StillImage" /><dc:title></dc:title></cc:Work></rdf:RDF></metadata><defs
   id="defs7878" /><sodipodi:namedview
   pagecolor="#ffffff"
   bordercolor="#666666"
   borderopacity="1"
   objecttolerance="10"
   gridtolerance="10"
   guidetolerance="10"
   inkscape:pageopacity="0"
   inkscape:pageshadow="2"
   inkscape:window-width="1920"
   inkscape:window-height="1017"
   id="namedview7876"
   showgrid="false"
   fit-margin-top="0"
   fit-margin-left="0"
   fit-margin-right="0"
   fit-margin-bottom="0"
   inkscape:zoom="17"
   inkscape:cx="15.999"
   inkscape:cy="25"
   inkscape:window-x="1912"
   inkscape:window-y="-8"
   inkscape:window-maximized="1"
   inkscape:current-layer="Layer_1" />
<path
   d="m 25.255,14.928 c 0,5.006 -4.059,9.065 -9.066,9.065 -5.007,0 -9.065,-4.059 -9.065,-9.065 0,-5.006 4.058,-9.065 9.065,-9.065 5.007,0 9.066,4.059 9.066,9.065"
   id="path7869"
   inkscape:connector-curvature="0"
   style="fill:#59b4d9" />
<polygon
   points="18.562,27.1 9.001,27.1 9.001,50 41.38,50 41.38,27.1 31.818,27.1 25.19,36.387 "
   id="polygon7871"
   style="fill:#59b4d9"
   transform="translate(-9.001)" />
<path
   d="m 30.965,24.14 h -6.881 v -3.33 h 3.552 V 14.983 C 27.636,8.557 22.408,3.329 15.982,3.329 9.556,3.329 4.328,8.557 4.328,14.983 v 1.665 H 0.998 V 14.983 C 0.998,6.722 7.72,0 15.981,0 24.242,0 30.964,6.722 30.964,14.983 Z"
   id="path7873"
   inkscape:connector-curvature="0"
   style="fill:#59b4d9" />
</svg>