<?xml version="1.0" encoding="UTF-8" standalone="no"?>
<!-- Generator: Adobe Illustrator 17.1.0, SVG Export Plug-In . SVG Version: 6.00 Build 0)  -->

<svg
   xmlns:dc="http://purl.org/dc/elements/1.1/"
   xmlns:cc="http://creativecommons.org/ns#"
   xmlns:rdf="http://www.w3.org/1999/02/22-rdf-syntax-ns#"
   xmlns:svg="http://www.w3.org/2000/svg"
   xmlns="http://www.w3.org/2000/svg"
   xmlns:sodipodi="http://sodipodi.sourceforge.net/DTD/sodipodi-0.dtd"
   xmlns:inkscape="http://www.inkscape.org/namespaces/inkscape"
   version="1.1"
   id="Layer_1"
   x="0px"
   y="0px"
   height="49.400002"
   width="50"
   viewBox="0 0 50 49.400002"
   enable-background="new 0 0 50 50"
   xml:space="preserve"
   sodipodi:docname="Tag.svg"
   inkscape:version="0.92.3 (2405546, 2018-03-11)"><metadata
   id="metadata7963"><rdf:RDF><cc:Work
       rdf:about=""><dc:format>image/svg+xml</dc:format><dc:type
         rdf:resource="http://purl.org/dc/dcmitype/StillImage" /><dc:title></dc:title></cc:Work></rdf:RDF></metadata><defs
   id="defs7961" /><sodipodi:namedview
   pagecolor="#ffffff"
   bordercolor="#666666"
   borderopacity="1"
   objecttolerance="10"
   gridtolerance="10"
   guidetolerance="10"
   inkscape:pageopacity="0"
   inkscape:pageshadow="2"
   inkscape:window-width="1920"
   inkscape:window-height="1017"
   id="namedview7959"
   showgrid="false"
   fit-margin-top="0"
   fit-margin-left="0"
   fit-margin-right="0"
   fit-margin-bottom="0"
   inkscape:zoom="17"
   inkscape:cx="25"
   inkscape:cy="24.7"
   inkscape:window-x="1912"
   inkscape:window-y="-8"
   inkscape:window-maximized="1"
   inkscape:current-layer="Layer_1" />
<path
   d="M 42.3,0 28.6,0.5 0,29.1 20.3,49.4 48.9,20.8 50,7.7 Z m 1.1,10.6 c -1.1,1.1 -2.9,1.1 -4,0 -1.1,-1.1 -1.1,-2.9 0,-4 1.1,-1.1 2.9,-1.1 4,0 1.1,1.1 1.1,2.9 0,4 z"
   id="path7952"
   inkscape:connector-curvature="0"
   style="fill:#804998" />
<polygon
   points="24.9,45.2 24.9,4.5 0,29.4 20.3,49.7 "
   id="polygon7954"
   style="opacity:0.1;fill:#ffffff"
   transform="translate(0,-0.3)" />
<path
   d="m 45.1,4.9 c -2,-2 -5.3,-2 -7.3,0 -2,2 -2,5.3 0,7.3 2,2 5.3,2 7.3,0 2,-2 2,-5.3 0,-7.3 z m -1.7,5.7 c -1.1,1.1 -2.9,1.1 -4,0 -1.1,-1.1 -1.1,-2.9 0,-4 1.1,-1.1 2.9,-1.1 4,0 1.1,1.1 1.1,2.9 0,4 z"
   id="path7956"
   inkscape:connector-curvature="0"
   style="opacity:0.3;fill:#1e1e1e" />
</svg>