<?xml version="1.0" encoding="UTF-8" standalone="no"?>
<!-- Generator: Adobe Illustrator 17.1.0, SVG Export Plug-In . SVG Version: 6.00 Build 0)  -->

<svg
   xmlns:dc="http://purl.org/dc/elements/1.1/"
   xmlns:cc="http://creativecommons.org/ns#"
   xmlns:rdf="http://www.w3.org/1999/02/22-rdf-syntax-ns#"
   xmlns:svg="http://www.w3.org/2000/svg"
   xmlns="http://www.w3.org/2000/svg"
   xmlns:sodipodi="http://sodipodi.sourceforge.net/DTD/sodipodi-0.dtd"
   xmlns:inkscape="http://www.inkscape.org/namespaces/inkscape"
   version="1.1"
   id="Layer_1"
   x="0px"
   y="0px"
   height="38.299999"
   width="49.5"
   viewBox="0 0 49.5 38.299999"
   enable-background="new 0 0 50 50"
   xml:space="preserve"
   sodipodi:docname="TasksPolychromatic.svg"
   inkscape:version="0.92.3 (2405546, 2018-03-11)"><metadata
   id="metadata8210"><rdf:RDF><cc:Work
       rdf:about=""><dc:format>image/svg+xml</dc:format><dc:type
         rdf:resource="http://purl.org/dc/dcmitype/StillImage" /><dc:title></dc:title></cc:Work></rdf:RDF></metadata><defs
   id="defs8208" /><sodipodi:namedview
   pagecolor="#ffffff"
   bordercolor="#666666"
   borderopacity="1"
   objecttolerance="10"
   gridtolerance="10"
   guidetolerance="10"
   inkscape:pageopacity="0"
   inkscape:pageshadow="2"
   inkscape:window-width="1920"
   inkscape:window-height="1017"
   id="namedview8206"
   showgrid="false"
   fit-margin-top="0"
   fit-margin-left="0"
   fit-margin-right="0"
   fit-margin-bottom="0"
   inkscape:zoom="17"
   inkscape:cx="24.5"
   inkscape:cy="20.4"
   inkscape:window-x="1912"
   inkscape:window-y="-8"
   inkscape:window-maximized="1"
   inkscape:current-layer="Layer_1" />
<path
   d="M 47.3,3.5 H 13.4 c -1.2,0 -2.2,1 -2.2,2.2 0,1.2 1,2.2 2.2,2.2 h 33.9 c 1.2,0 2.2,-1 2.2,-2.2 0,-1.2 -1,-2.2 -2.2,-2.2 z"
   id="path8191"
   inkscape:connector-curvature="0"
   style="fill:#59b4d9" />
<path
   d="M 47.3,16.6 H 13.4 c -1.2,0 -2.2,1 -2.2,2.2 0,1.2 1,2.2 2.2,2.2 h 33.9 c 1.2,0 2.2,-1 2.2,-2.2 0,-1.2 -1,-2.2 -2.2,-2.2 z"
   id="path8193"
   inkscape:connector-curvature="0"
   style="fill:#59b4d9" />
<path
   d="M 47.3,29.8 H 13.4 c -1.2,0 -2.2,1 -2.2,2.2 0,1.2 1,2.2 2.2,2.2 h 33.9 c 1.2,0 2.2,-1 2.2,-2.2 0,-1.2 -1,-2.2 -2.2,-2.2 z"
   id="path8195"
   inkscape:connector-curvature="0"
   style="fill:#59b4d9" />
<g
   id="g8203"
   transform="translate(-0.5,-7.1)">
	<path
   d="m 4.8,7.2 v 10 H 2.6 V 9.6 C 2.4,9.8 2.1,10 1.7,10.1 1.3,10.2 0.9,10.4 0.5,10.4 V 8.6 C 1.6,8.3 2.6,7.8 3.4,7.1 h 1.4 z"
   id="path8197"
   inkscape:connector-curvature="0" />
	<path
   d="m 2.9,29.4 h 4.2 v 1.8 H 0.6 V 30.5 C 0.6,30 0.7,29.5 0.9,29.1 1.1,28.7 1.3,28.3 1.7,27.9 2,27.5 2.5,27.1 3.2,26.6 3.8,26.1 4.3,25.7 4.5,25.4 4.8,25.1 4.9,24.7 4.9,24.3 4.9,23.5 4.4,23 3.5,23 2.7,23 1.9,23.3 1.1,24 V 22 C 2,21.4 2.9,21.2 4,21.2 c 1,0 1.8,0.2 2.3,0.7 0.6,0.5 0.9,1.2 0.9,2 0,0.5 -0.1,0.9 -0.3,1.3 C 6.7,25.6 6.5,26 6.2,26.3 5.9,26.6 5.4,27.1 4.7,27.5 4,28 3.6,28.3 3.4,28.6 3,29 2.9,29.2 2.9,29.4 Z"
   id="path8199"
   inkscape:connector-curvature="0" />
	<path
   d="m 7.3,42.4 c 0,0.9 -0.3,1.6 -1,2.2 -0.7,0.5 -1.6,0.8 -2.8,0.8 -1,0 -1.8,-0.2 -2.5,-0.5 V 43 c 0.6,0.5 1.4,0.7 2.3,0.7 0.6,0 1,-0.1 1.3,-0.4 C 4.9,43.1 5,42.7 5,42.3 5,41.9 4.8,41.5 4.4,41.3 4,41.1 3.6,41 2.9,41 H 2 v -1.7 h 0.8 c 1.3,0 1.9,-0.4 1.9,-1.3 0,-0.8 -0.5,-1.2 -1.5,-1.2 -0.7,0 -1.3,0.2 -1.9,0.6 v -1.8 c 0.7,-0.3 1.5,-0.5 2.4,-0.5 1,0 1.7,0.2 2.3,0.7 0.6,0.5 0.9,1 0.9,1.8 C 7,38.9 6.3,39.7 5,40 v 0 c 0.7,0.1 1.2,0.3 1.6,0.7 0.4,0.5 0.7,1.1 0.7,1.7 z"
   id="path8201"
   inkscape:connector-curvature="0" />
</g>
</svg>