<?xml version="1.0" encoding="UTF-8" standalone="no"?>
<!-- Generator: Adobe Illustrator 17.1.0, SVG Export Plug-In . SVG Version: 6.00 Build 0)  -->

<svg
   xmlns:dc="http://purl.org/dc/elements/1.1/"
   xmlns:cc="http://creativecommons.org/ns#"
   xmlns:rdf="http://www.w3.org/1999/02/22-rdf-syntax-ns#"
   xmlns:svg="http://www.w3.org/2000/svg"
   xmlns="http://www.w3.org/2000/svg"
   xmlns:sodipodi="http://sodipodi.sourceforge.net/DTD/sodipodi-0.dtd"
   xmlns:inkscape="http://www.inkscape.org/namespaces/inkscape"
   version="1.1"
   id="Layer_1"
   x="0px"
   y="0px"
   height="44"
   width="50"
   viewBox="0 0 50 44"
   enable-background="new 0 0 50 50"
   xml:space="preserve"
   sodipodi:docname="Task.svg"
   inkscape:version="0.92.3 (2405546, 2018-03-11)"><metadata
   id="metadata8072"><rdf:RDF><cc:Work
       rdf:about=""><dc:format>image/svg+xml</dc:format><dc:type
         rdf:resource="http://purl.org/dc/dcmitype/StillImage" /><dc:title></dc:title></cc:Work></rdf:RDF></metadata><defs
   id="defs8070" /><sodipodi:namedview
   pagecolor="#ffffff"
   bordercolor="#666666"
   borderopacity="1"
   objecttolerance="10"
   gridtolerance="10"
   guidetolerance="10"
   inkscape:pageopacity="0"
   inkscape:pageshadow="2"
   inkscape:window-width="1920"
   inkscape:window-height="1017"
   id="namedview8068"
   showgrid="false"
   fit-margin-top="0"
   fit-margin-left="0"
   fit-margin-right="0"
   fit-margin-bottom="0"
   inkscape:zoom="17"
   inkscape:cx="25"
   inkscape:cy="22"
   inkscape:window-x="1912"
   inkscape:window-y="-8"
   inkscape:window-maximized="1"
   inkscape:current-layer="Layer_1" />
<path
   d="m 0,42 c 0,1.1 0.9,2 2,2 h 46 c 1.1,0 2,-0.9 2,-2 V 8.6 H 0 Z"
   id="path8051"
   inkscape:connector-curvature="0"
   style="fill:#3999c6" />
<path
   d="M 48,0 H 2 C 0.9,0 0,0.9 0,2 V 9.3 H 50 V 2 C 50,0.9 49.1,0 48,0 Z"
   id="path8053"
   inkscape:connector-curvature="0"
   style="fill:#a0a1a2" />
<rect
   y="9.3000002"
   width="50"
   height="3.3"
   id="rect8055"
   x="0"
   style="opacity:0.15;fill:#ffffff" />
<path
   d="M 2,0 C 0.9,0 0,0.9 0,2 V 9.3 12.6 42 c 0,1.1 0.9,2 2,2 H 21.2 L 43.6,0 Z"
   id="path8057"
   inkscape:connector-curvature="0"
   style="opacity:0.1;fill:#ffffff" />
<path
   d="M 8.6,20.9 8.1,20.4 C 8,20.3 8,20.1 8.1,20 l 1.4,-1.2 c 0.1,-0.1 0.1,-0.1 0.2,-0.1 0.1,0 0.2,0 0.2,0.1 l 3.7,4 6.4,-8.1 c 0.1,-0.1 0.2,-0.1 0.3,-0.1 0.1,0 0.1,0 0.2,0.1 l 1.5,1.1 c 0.1,0.1 0.1,0.1 0.1,0.2 0,0.1 0,0.2 -0.1,0.2 l -8.3,10.5 z"
   id="path8059"
   inkscape:connector-curvature="0"
   style="fill:#ffffff" />
<rect
   x="22"
   y="20.9"
   width="20"
   height="3.3"
   id="rect8061"
   style="opacity:0.6;fill:#ffffff" />
<path
   d="M 8.6,34 8.1,33.5 C 8,33.4 8,33.2 8.1,33 l 1.4,-1.2 c 0.1,-0.1 0.1,-0.1 0.2,-0.1 0.1,0 0.2,0 0.2,0.1 l 3.7,4 6.4,-8.1 c 0.1,-0.1 0.2,-0.1 0.3,-0.1 0.1,0 0.1,0 0.2,0.1 l 1.5,1.1 c 0.1,0.1 0.1,0.1 0.1,0.2 0,0.1 0,0.2 -0.1,0.2 l -8.3,10.5 z"
   id="path8063"
   inkscape:connector-curvature="0"
   style="fill:#ffffff" />
<rect
   x="22"
   y="34"
   width="20"
   height="3.3"
   id="rect8065"
   style="opacity:0.6;fill:#ffffff" />
</svg>