<?xml version="1.0" encoding="utf-8"?>
<!-- Generator: Adobe Illustrator 19.1.0, SVG Export Plug-In . SVG Version: 6.00 Build 0)  -->
<svg version="1.1" id="Layer_1" xmlns="http://www.w3.org/2000/svg" xmlns:xlink="http://www.w3.org/1999/xlink" x="0px" y="0px"
	 width="50px" height="50px" viewBox="0 0 50 50" enable-background="new 0 0 50 50" xml:space="preserve">
<circle fill="#0072C6" cx="25" cy="25" r="25"/>
<path opacity="0.2" fill="#FFFFFF" enable-background="new    " d="M7.322,42.678c-9.762-9.763-9.762-25.594,0-35.356
	s25.594-9.762,35.356,0L7.322,42.678z"/>
<polygon fill="#FFFFFF" points="34.078,14.665 19.484,37.07 15.672,37.07 30.234,14.665 "/>
<path fill="#FFFFFF" d="M20.992,15.836c-0.933-0.989-2.227-1.484-3.883-1.484c-1.729,0-3.112,0.547-4.148,1.641
	c-1.037,1.094-1.555,2.573-1.555,4.437c0,1.708,0.487,3.068,1.461,4.078c0.974,1.01,2.258,1.515,3.852,1.515
	c1.719,0,3.094-0.541,4.125-1.625c1.031-1.083,1.547-2.547,1.547-4.391C22.391,18.217,21.924,16.826,20.992,15.836z M16.906,23.274
	c-1.448,0-2.172-1-2.172-3c0-2.114,0.76-3.172,2.281-3.172c1.406,0,2.109,1.016,2.109,3.047
	C19.125,22.232,18.385,23.274,16.906,23.274z"/>
<path fill="#FFFFFF" d="M36.953,27.18c-0.928-0.979-2.225-1.469-3.891-1.469c-1.729,0-3.112,0.547-4.148,1.641
	c-1.037,1.094-1.555,2.573-1.555,4.438c0,1.709,0.486,3.068,1.461,4.078c0.974,1.011,2.258,1.516,3.852,1.516
	c1.719,0,3.094-0.547,4.125-1.641s1.547-2.563,1.547-4.406C38.344,29.545,37.88,28.159,36.953,27.18z M32.859,34.633
	c-1.469,0-2.203-1-2.203-3c0-2.114,0.755-3.172,2.266-3.172c0.646,0,1.166,0.266,1.563,0.797c0.396,0.531,0.594,1.281,0.594,2.25
	C35.078,33.592,34.338,34.633,32.859,34.633z"/>
</svg>
