<?xml version="1.0" encoding="utf-8"?>
<!-- Generator: Adobe Illustrator 17.0.1, SVG Export Plug-In . SVG Version: 6.00 Build 0)  -->
<!DOCTYPE svg PUBLIC "-//W3C//DTD SVG 1.1//EN" "http://www.w3.org/Graphics/SVG/1.1/DTD/svg11.dtd">
<svg version="1.1" id="Layer_1" xmlns="http://www.w3.org/2000/svg" xmlns:xlink="http://www.w3.org/1999/xlink" x="0px" y="0px"
	 width="50px" height="50px" viewBox="0 0 50 50" enable-background="new 0 0 50 50" xml:space="preserve">
<path fill="#804998" d="M44.977,10.5c0,5.638-4.571,10.209-10.21,10.209S24.558,16.138,24.558,10.5s4.57-10.209,10.209-10.209
	C40.406,0.291,44.977,4.862,44.977,10.5"/>
<polygon fill="#804998" points="42.232,24.209 34.767,34.668 27.302,24.209 19.534,24.209 19.534,50 50,50 50,24.209 "/>
<path fill="#804998" d="M14.294,27.636c0,3.168-2.568,5.734-5.736,5.734s-5.736-2.566-5.736-5.734s2.568-5.735,5.736-5.735
	S14.294,24.468,14.294,27.636"/>
<polygon fill="#804998" points="12.751,35.512 8.558,41.388 4.364,35.512 0,35.512 0,50 17.115,50 17.115,35.512 "/>
<path opacity="0.2" fill="#FFFFFF" enable-background="new    " d="M24.558,10.5c0,5.554,4.437,10.063,9.959,10.197l2.564-20.132
	c-0.744-0.174-1.516-0.274-2.314-0.274C29.128,0.291,24.558,4.862,24.558,10.5"/>
<polygon opacity="0.2" fill="#FFFFFF" enable-background="new    " points="27.304,24.209 19.533,24.209 19.533,50 30.832,50 
	33.086,32.314 "/>
<path opacity="0.2" fill="#FFFFFF" enable-background="new    " d="M2.823,27.636c0,3.167,2.567,5.734,5.735,5.734
	c0.2,0,0.387-0.038,0.582-0.057l1.407-11.038c-0.622-0.23-1.286-0.374-1.989-0.374C5.39,21.901,2.823,24.469,2.823,27.636"/>
<polygon opacity="0.2" fill="#FFFFFF" enable-background="new    " points="4.365,35.512 0.001,35.512 0.001,50 7.063,50 
	8.221,40.916 "/>
</svg>
