<?xml version="1.0" encoding="utf-8"?>
<!-- Generator: Adobe Illustrator 17.0.1, SVG Export Plug-In . SVG Version: 6.00 Build 0)  -->
<!DOCTYPE svg PUBLIC "-//W3C//DTD SVG 1.1//EN" "http://www.w3.org/Graphics/SVG/1.1/DTD/svg11.dtd">
<svg version="1.1" id="Layer_1" xmlns="http://www.w3.org/2000/svg" xmlns:xlink="http://www.w3.org/1999/xlink" x="0px" y="0px"
	 width="50px" height="50px" viewBox="0.5 0.5 50 50" enable-background="new 0.5 0.5 50 50" xml:space="preserve">
<rect x="26.839" y="12.777" fill="#68217A" width="11.062" height="3.571"/>
<rect x="12.777" y="26.768" fill="#68217A" width="3.571" height="11.232"/>
<rect x="21.35" y="26.028" transform="matrix(0.7071 0.7071 -0.7071 0.7071 27.8135 -11.5206)" fill="#68217A" width="12.926" height="3.571"/>
<path fill="#804998" d="M14.562,28.625C6.808,28.625,0.5,22.317,0.5,14.563S6.808,0.5,14.562,0.5s14.062,6.308,14.062,14.062
	S22.316,28.625,14.562,28.625z M14.562,4.072c-5.784,0-10.491,4.706-10.491,10.491s4.707,10.491,10.491,10.491
	s10.491-4.706,10.491-10.491S20.347,4.072,14.562,4.072z"/>
<circle fill="#804998" cx="43.357" cy="14.563" r="7.143"/>
<circle fill="#804998" cx="14.563" cy="43.357" r="7.143"/>
<circle fill="#804998" cx="34.987" cy="34.987" r="7.143"/>
</svg>
