<?xml version="1.0" encoding="UTF-8" standalone="no"?>
<!-- Generator: Adobe Illustrator 17.1.0, SVG Export Plug-In . SVG Version: 6.00 Build 0)  -->

<svg
   xmlns:dc="http://purl.org/dc/elements/1.1/"
   xmlns:cc="http://creativecommons.org/ns#"
   xmlns:rdf="http://www.w3.org/1999/02/22-rdf-syntax-ns#"
   xmlns:svg="http://www.w3.org/2000/svg"
   xmlns="http://www.w3.org/2000/svg"
   xmlns:sodipodi="http://sodipodi.sourceforge.net/DTD/sodipodi-0.dtd"
   xmlns:inkscape="http://www.inkscape.org/namespaces/inkscape"
   version="1.1"
   id="Layer_1"
   x="0px"
   y="0px"
   width="45"
   height="40.599998"
   viewBox="0 0 45 40.599998"
   enable-background="new 0 0 50 50"
   xml:space="preserve"
   sodipodi:docname="Toolbox.svg"
   inkscape:version="0.92.3 (2405546, 2018-03-11)"><metadata
   id="metadata991"><rdf:RDF><cc:Work
       rdf:about=""><dc:format>image/svg+xml</dc:format><dc:type
         rdf:resource="http://purl.org/dc/dcmitype/StillImage" /><dc:title></dc:title></cc:Work></rdf:RDF></metadata><defs
   id="defs989" /><sodipodi:namedview
   pagecolor="#ffffff"
   bordercolor="#666666"
   borderopacity="1"
   objecttolerance="10"
   gridtolerance="10"
   guidetolerance="10"
   inkscape:pageopacity="0"
   inkscape:pageshadow="2"
   inkscape:window-width="1920"
   inkscape:window-height="1017"
   id="namedview987"
   showgrid="false"
   fit-margin-top="0"
   fit-margin-left="0"
   fit-margin-right="0"
   fit-margin-bottom="0"
   inkscape:zoom="17"
   inkscape:cx="23"
   inkscape:cy="20.6"
   inkscape:window-x="1912"
   inkscape:window-y="-8"
   inkscape:window-maximized="1"
   inkscape:current-layer="Layer_1" />
<path
   d="M 0,40.6 V 12.8 C 0,11.2 1.3,9.9 2.9,9.9 H 42 c 1.6,0 2.9,1.3 2.9,2.9 v 27.8 z"
   id="path968"
   inkscape:connector-curvature="0"
   style="fill:#ba141a" />
<path
   d="m 42.3,26.6 c -2.9,0 -5.2,2.3 -5.2,5.2 0,2.9 2.3,5.2 5.2,5.2 1,0 1.9,-0.3 2.7,-0.8 v -8.8 c -0.8,-0.5 -1.7,-0.8 -2.7,-0.8 z"
   id="path970"
   inkscape:connector-curvature="0"
   style="fill:#804998" />
<path
   d="M 35.1,9.9 H 31.7 V 5 C 31.7,4.1 31,3.4 30.1,3.4 H 14.9 C 14,3.4 13.3,4.1 13.3,5 V 9.9 H 9.9 V 5 c 0,-2.8 2.2,-5 5,-5 h 15.2 c 2.8,0 5,2.2 5,5 z"
   id="path972"
   inkscape:connector-curvature="0"
   style="fill:#0f0f0f" />
<polygon
   enable-background="new    "
   points="2,38.3 17.6,42.1 19.1,35.8 2,31.7 "
   id="polygon974"
   style="opacity:0.6;fill:#fee087"
   transform="translate(-2,-5)" />
<path
   enable-background="new    "
   d="m 14.8,14.3 c 0.3,1.7 -2.4,3.4 -6,4 -3.6,0.6 -6.7,-0.3 -7,-2 -0.3,-1.7 2.4,-3.4 6,-4 3.7,-0.5 6.8,0.4 7,2"
   id="path976"
   inkscape:connector-curvature="0"
   style="opacity:0.8;fill:#ff8c00" />
<path
   enable-background="new    "
   d="m 42.3,28.3 c -2,0 -3.5,1.6 -3.5,3.5 0,1.9 1.6,3.5 3.5,3.5 1.1,0 2.1,-0.5 2.7,-1.3 v -4.4 c -0.6,-0.8 -1.6,-1.3 -2.7,-1.3 z"
   id="path978"
   inkscape:connector-curvature="0"
   style="opacity:0.2;fill:#ffffff" />
<rect
   x="0"
   y="22.1"
   enable-background="new    "
   width="45"
   height="2.0999999"
   id="rect980"
   style="opacity:0.3;fill:#1e1e1e" />
<path
   enable-background="new    "
   d="m 26.2,21 c 0.7,0 1.3,0.6 1.3,1.3 v 4 c 0,0.7 -0.6,1.3 -1.3,1.3 h -7.4 c -0.7,0 -1.3,-0.6 -1.3,-1.3 v -4 c 0,-0.7 0.6,-1.3 1.3,-1.3 z"
   id="path982"
   inkscape:connector-curvature="0"
   style="opacity:0.3;fill:#1e1e1e" />
<rect
   x="0"
   y="21"
   width="45"
   height="2.0999999"
   id="rect984"
   style="fill:#e5e5e5" />
</svg>