<?xml version="1.0" encoding="UTF-8" standalone="no"?>
<!-- Generator: Adobe Illustrator 17.1.0, SVG Export Plug-In . SVG Version: 6.00 Build 0)  -->

<svg
   xmlns:dc="http://purl.org/dc/elements/1.1/"
   xmlns:cc="http://creativecommons.org/ns#"
   xmlns:rdf="http://www.w3.org/1999/02/22-rdf-syntax-ns#"
   xmlns:svg="http://www.w3.org/2000/svg"
   xmlns="http://www.w3.org/2000/svg"
   xmlns:sodipodi="http://sodipodi.sourceforge.net/DTD/sodipodi-0.dtd"
   xmlns:inkscape="http://www.inkscape.org/namespaces/inkscape"
   version="1.1"
   id="Layer_1"
   x="0px"
   y="0px"
   width="46.799999"
   height="50.035954"
   viewBox="0 0 46.799999 50.035954"
   enable-background="new 0 0 50 50"
   xml:space="preserve"
   sodipodi:docname="Tools.svg"
   inkscape:version="0.92.3 (2405546, 2018-03-11)"><metadata
   id="metadata1067"><rdf:RDF><cc:Work
       rdf:about=""><dc:format>image/svg+xml</dc:format><dc:type
         rdf:resource="http://purl.org/dc/dcmitype/StillImage" /><dc:title></dc:title></cc:Work></rdf:RDF></metadata><defs
   id="defs1065" /><sodipodi:namedview
   pagecolor="#ffffff"
   bordercolor="#666666"
   borderopacity="1"
   objecttolerance="10"
   gridtolerance="10"
   guidetolerance="10"
   inkscape:pageopacity="0"
   inkscape:pageshadow="2"
   inkscape:window-width="1920"
   inkscape:window-height="1017"
   id="namedview1063"
   showgrid="false"
   fit-margin-top="0"
   fit-margin-left="0"
   fit-margin-right="0"
   fit-margin-bottom="0"
   inkscape:zoom="17"
   inkscape:cx="23.4"
   inkscape:cy="25"
   inkscape:window-x="1912"
   inkscape:window-y="-8"
   inkscape:window-maximized="1"
   inkscape:current-layer="Layer_1" />
<path
   d="m 39.6,11.235954 0.5,0.5 2.5,-2.1000004 4.2,-6.9 -1.1,-1.1 -6.6,4.4 -2,2.6 0.5,0.5 -13.1,13.5000004 -2.7,-2.8 -3,3.1 c 0.2,1.5 -0.3,3.1 -1.4,4.3 -1.1,1.2 -2.7,1.7 -4.1,1.5 l -13.3,13.6 7.4,7.7 13.2,-13.7 c -0.2,-1.5 0.3,-3.1 1.5,-4.3 1.1,-1.2 2.7,-1.7 4.1,-1.5 l 3,-3.1 -2.7,-2.8 z"
   id="path1056"
   inkscape:connector-curvature="0"
   style="fill:#59b4d9" />
<path
   d="m 38.4,46.035954 c 1.9,2 5,2 6.9,0 1,-1 1.4,-2.3 1.4,-3.6 0,-1.3 -0.5,-2.6 -1.4,-3.6 l -14.8,-15.2 -1.4,1.5 2.7,2.8 -1.2,1.1 -3,3.1 -0.4,0.4 -0.6,-0.1 c -0.4,0 -0.9,0 -1.3,0.1 z"
   id="path1058"
   inkscape:connector-curvature="0"
   style="fill:#59b4d9" />
<path
   d="M 18.7,3.1359536 C 16,0.33595355 12.1,-0.56404645 8.7,0.33595355 l 5.9,6.00000005 -1.5,5.9000004 -5.8,1.6 -5.8,-6.0000004 c -0.9,3.6000004 0,7.5000004 2.7,10.3000004 2.7,2.8 6.6,3.7 10.1,2.7 l 0.2,0.2 2.7,2.8 c 0.1,-0.3 0.1,-0.6 0.1,-0.9 0,-0.2 0,-0.3 0,-0.5 l -0.2,-0.4 4.5,-4.7 0.8,0.9 1.8,1.9 1.4,-1.5 -4.3,-4.6 v 0 c 1.1,-3.7 0.3,-7.9000004 -2.6,-10.9000004 z"
   id="path1060"
   inkscape:connector-curvature="0"
   style="fill:#59b4d9" />
</svg>