<?xml version="1.0" encoding="UTF-8" standalone="no"?>
<!-- Generator: Adobe Illustrator 17.0.1, SVG Export Plug-In . SVG Version: 6.00 Build 0)  -->

<svg
   xmlns:dc="http://purl.org/dc/elements/1.1/"
   xmlns:cc="http://creativecommons.org/ns#"
   xmlns:rdf="http://www.w3.org/1999/02/22-rdf-syntax-ns#"
   xmlns:svg="http://www.w3.org/2000/svg"
   xmlns="http://www.w3.org/2000/svg"
   xmlns:sodipodi="http://sodipodi.sourceforge.net/DTD/sodipodi-0.dtd"
   xmlns:inkscape="http://www.inkscape.org/namespaces/inkscape"
   version="1.1"
   id="Layer_1"
   x="0px"
   y="0px"
   width="50"
   height="50"
   viewBox="0 0 50 50"
   enable-background="new 0 0 50 50"
   xml:space="preserve"
   sodipodi:docname="TrafficManagerEnabled.svg"
   inkscape:version="0.92.3 (2405546, 2018-03-11)"><metadata
   id="metadata1222"><rdf:RDF><cc:Work
       rdf:about=""><dc:format>image/svg+xml</dc:format><dc:type
         rdf:resource="http://purl.org/dc/dcmitype/StillImage" /><dc:title></dc:title></cc:Work></rdf:RDF></metadata><defs
   id="defs1220" /><sodipodi:namedview
   pagecolor="#ffffff"
   bordercolor="#666666"
   borderopacity="1"
   objecttolerance="10"
   gridtolerance="10"
   guidetolerance="10"
   inkscape:pageopacity="0"
   inkscape:pageshadow="2"
   inkscape:window-width="1920"
   inkscape:window-height="1017"
   id="namedview1218"
   showgrid="false"
   fit-margin-top="0"
   fit-margin-left="0"
   fit-margin-right="0"
   fit-margin-bottom="0"
   inkscape:zoom="17"
   inkscape:cx="25"
   inkscape:cy="25"
   inkscape:window-x="1912"
   inkscape:window-y="-8"
   inkscape:window-maximized="1"
   inkscape:current-layer="Layer_1" />
<polygon
   points="35.368,0 14.662,0 0,15.029 0,35.426 14.632,50 35.368,50 50,35.5 50,14.588 "
   id="polygon1207"
   style="fill:#804998" />
<path
   enable-background="new    "
   d="M 34.538,2 H 15.488 L 2,15.827 V 34.592 L 15.462,48 H 34.539 L 48,34.66 V 15.421 Z m -1.135,43.24 h -0.152 l -11.28,-11.446 2.382,-2.662 h -8.177 v 8.382 l 2.677,-2.882 8.868,8.608 H 16.602 L 4.76,33.446 V 16.95 l 3.322,-3.406 8.829,7.955 -5.029,5.221 H 27.941 V 10.765 L 22.691,16 13.806,7.677 16.652,4.76 H 33.397 L 45.24,16.567 v 14.745 l -5.622,-5.298 4.118,-3.706 H 32.353 v 10.75 l 3.72,-3.691 6.368,6.915 z"
   id="path1209"
   inkscape:connector-curvature="0"
   style="opacity:0.8;fill:#ffffff" />
<polygon
   enable-background="new    "
   points="14.662,0 0,15.029 0,35.427 7.503,42.899 42.896,7.506 35.368,0 "
   id="polygon1211"
   style="opacity:0.2;fill:#ffffff" />
<circle
   cx="8"
   cy="42"
   r="8"
   id="circle1213"
   style="fill:#7fba00" />
<path
   d="M 3.989,42.469 3.7,42.156 C 3.625,42.073 3.625,41.942 3.712,41.863 l 0.835,-0.772 c 0.04,-0.036 0.087,-0.055 0.139,-0.055 0.059,0 0.111,0.024 0.15,0.067 l 2.296,2.462 3.951,-5.06 c 0.04,-0.051 0.099,-0.079 0.162,-0.079 0.048,0 0.091,0.016 0.127,0.044 l 0.903,0.697 c 0.044,0.032 0.071,0.079 0.079,0.135 0.004,0.055 -0.008,0.111 -0.044,0.15 l -5.075,6.497 z"
   id="path1215"
   inkscape:connector-curvature="0"
   style="fill:#ffffff" />
</svg>