<?xml version="1.0" encoding="UTF-8" standalone="no"?>
<!-- Generator: Adobe Illustrator 17.0.1, SVG Export Plug-In . SVG Version: 6.00 Build 0)  -->

<svg
   xmlns:dc="http://purl.org/dc/elements/1.1/"
   xmlns:cc="http://creativecommons.org/ns#"
   xmlns:rdf="http://www.w3.org/1999/02/22-rdf-syntax-ns#"
   xmlns:svg="http://www.w3.org/2000/svg"
   xmlns="http://www.w3.org/2000/svg"
   xmlns:sodipodi="http://sodipodi.sourceforge.net/DTD/sodipodi-0.dtd"
   xmlns:inkscape="http://www.inkscape.org/namespaces/inkscape"
   version="1.1"
   id="Layer_1"
   x="0px"
   y="0px"
   width="41.998001"
   height="40.308998"
   viewBox="0 0 41.998001 40.308998"
   enable-background="new 0 0 50 50"
   xml:space="preserve"
   sodipodi:docname="Variables.svg"
   inkscape:version="0.92.3 (2405546, 2018-03-11)"><metadata
   id="metadata1398"><rdf:RDF><cc:Work
       rdf:about=""><dc:format>image/svg+xml</dc:format><dc:type
         rdf:resource="http://purl.org/dc/dcmitype/StillImage" /><dc:title></dc:title></cc:Work></rdf:RDF></metadata><defs
   id="defs1396" /><sodipodi:namedview
   pagecolor="#ffffff"
   bordercolor="#666666"
   borderopacity="1"
   objecttolerance="10"
   gridtolerance="10"
   guidetolerance="10"
   inkscape:pageopacity="0"
   inkscape:pageshadow="2"
   inkscape:window-width="1920"
   inkscape:window-height="1017"
   id="namedview1394"
   showgrid="false"
   fit-margin-top="0"
   fit-margin-left="0"
   fit-margin-right="0"
   fit-margin-bottom="0"
   inkscape:zoom="17"
   inkscape:cx="20.546371"
   inkscape:cy="19.994035"
   inkscape:window-x="1912"
   inkscape:window-y="-8"
   inkscape:window-maximized="1"
   inkscape:current-layer="Layer_1" />
<path
   d="m 18.525,0.001 c 1.417,1.504 2.488,3.009 3.211,4.512 0.521,1.041 1.374,3.775 2.56,8.2 L 28.114,6.986 C 29.126,5.598 30.356,4.274 31.802,3.016 33.248,1.758 34.521,0.897 35.62,0.434 36.314,0.145 37.081,0 37.92,0 c 1.244,0 2.235,0.333 2.972,0.998 0.738,0.666 1.106,1.475 1.106,2.43 0,1.1 -0.217,1.851 -0.651,2.256 -0.81,0.723 -1.736,1.085 -2.777,1.085 -0.607,0 -1.258,-0.13 -1.952,-0.39 -1.36,-0.462 -2.271,-0.694 -2.733,-0.694 -0.694,0 -1.519,0.406 -2.473,1.215 -1.793,1.504 -3.934,4.411 -6.421,8.721 l 3.558,14.926 c 0.55,2.285 1.012,3.652 1.388,4.1 0.376,0.449 0.752,0.673 1.128,0.673 0.607,0 1.316,-0.332 2.126,-0.998 1.591,-1.33 2.95,-3.066 4.079,-5.207 l 1.519,0.781 c -1.822,3.413 -4.136,6.248 -6.942,8.504 -1.591,1.273 -2.936,1.909 -4.035,1.909 -1.62,0 -2.907,-0.911 -3.862,-2.733 C 23.343,36.448 22.084,31.588 20.175,22.997 15.663,30.836 12.047,35.883 9.328,38.14 7.564,39.586 5.857,40.309 4.208,40.309 3.051,40.309 1.995,39.89 1.041,39.051 0.347,38.415 0,37.561 0,36.491 0,35.536 0.318,34.741 0.955,34.105 1.591,33.469 2.372,33.15 3.298,33.15 c 0.926,0 1.909,0.463 2.95,1.388 0.752,0.666 1.331,0.998 1.736,0.998 0.347,0 0.795,-0.231 1.345,-0.694 1.36,-1.099 3.211,-3.471 5.554,-7.116 2.343,-3.645 3.876,-6.276 4.599,-7.897 C 17.689,12.8 16.72,9.084 16.575,8.678 15.91,6.798 15.042,5.467 13.972,4.686 12.902,3.905 11.325,3.515 9.243,3.515 c -0.665,0 -1.432,0.029 -2.3,0.087 V 2.04 Z"
   id="path1391"
   inkscape:connector-curvature="0"
   style="fill:#3e3e3e" />
</svg>