<?xml version="1.0" encoding="UTF-8" standalone="no"?>
<!-- Generator: Adobe Illustrator 17.0.1, SVG Export Plug-In . SVG Version: 6.00 Build 0)  -->

<svg
   xmlns:dc="http://purl.org/dc/elements/1.1/"
   xmlns:cc="http://creativecommons.org/ns#"
   xmlns:rdf="http://www.w3.org/1999/02/22-rdf-syntax-ns#"
   xmlns:svg="http://www.w3.org/2000/svg"
   xmlns="http://www.w3.org/2000/svg"
   xmlns:sodipodi="http://sodipodi.sourceforge.net/DTD/sodipodi-0.dtd"
   xmlns:inkscape="http://www.inkscape.org/namespaces/inkscape"
   version="1.1"
   id="Layer_1"
   x="0px"
   y="0px"
   width="50"
   height="44.500999"
   viewBox="0 0 50 44.500999"
   enable-background="new 0 0 50 50"
   xml:space="preserve"
   sodipodi:docname="Versions.svg"
   inkscape:version="0.92.3 (2405546, 2018-03-11)"><metadata
   id="metadata1492"><rdf:RDF><cc:Work
       rdf:about=""><dc:format>image/svg+xml</dc:format><dc:type
         rdf:resource="http://purl.org/dc/dcmitype/StillImage" /><dc:title></dc:title></cc:Work></rdf:RDF></metadata><defs
   id="defs1490" /><sodipodi:namedview
   pagecolor="#ffffff"
   bordercolor="#666666"
   borderopacity="1"
   objecttolerance="10"
   gridtolerance="10"
   guidetolerance="10"
   inkscape:pageopacity="0"
   inkscape:pageshadow="2"
   inkscape:window-width="1920"
   inkscape:window-height="1017"
   id="namedview1488"
   showgrid="false"
   fit-margin-top="0"
   fit-margin-left="0"
   fit-margin-right="0"
   fit-margin-bottom="0"
   inkscape:zoom="8.5"
   inkscape:cx="19.883686"
   inkscape:cy="13.433967"
   inkscape:window-x="1912"
   inkscape:window-y="-8"
   inkscape:window-maximized="1"
   inkscape:current-layer="Layer_1" />
<path
   d="m 0,31.283 c 0,0.853 0.691,1.545 1.545,1.545 h 35.41 c 0.854,0 1.545,-0.692 1.545,-1.545 V 7.16 H 0 Z"
   id="path1475"
   inkscape:connector-curvature="0"
   style="fill:#59b4d9" />
<path
   d="M 36.955,0 H 1.545 C 0.691,0 0,0.691 0,1.545 V 7.418 H 38.501 V 1.545 C 38.501,0.691 37.808,0 36.955,0"
   id="path1477"
   inkscape:connector-curvature="0"
   style="fill:#a0a1a2" />
<path
   d="M 1.551,0 C 0.698,0 0.006,0.691 0.006,1.545 v 5.614 2.569 21.555 c 0,0.853 0.692,1.545 1.545,1.545 H 3.236 L 33.588,0 Z"
   id="path1479"
   inkscape:connector-curvature="0"
   style="opacity:0.2;fill:#ffffff" />
<path
   d="m 11.499,42.956 c 0,0.853 0.691,1.545 1.545,1.545 h 35.41 c 0.854,0 1.545,-0.692 1.545,-1.545 V 18.832 h -38.5 z"
   id="path1481"
   inkscape:connector-curvature="0"
   style="fill:#0072c6" />
<path
   d="m 48.455,11.673 h -35.41 c -0.854,0 -1.545,0.691 -1.545,1.545 v 5.873 H 50 v -5.873 c 0,-0.854 -0.692,-1.545 -1.545,-1.545"
   id="path1483"
   inkscape:connector-curvature="0"
   style="fill:#3e3e3e" />
<path
   d="m 13.05,11.673 c -0.853,0 -1.545,0.691 -1.545,1.545 v 5.614 2.569 21.555 c 0,0.853 0.692,1.545 1.545,1.545 h 1.685 L 45.087,11.672 H 13.05 Z"
   id="path1485"
   inkscape:connector-curvature="0"
   style="opacity:0.2;fill:#ffffff" />
</svg>