<?xml version="1.0" encoding="UTF-8" standalone="no"?>
<!-- Generator: Adobe Illustrator 17.1.0, SVG Export Plug-In . SVG Version: 6.00 Build 0)  -->

<svg
   xmlns:dc="http://purl.org/dc/elements/1.1/"
   xmlns:cc="http://creativecommons.org/ns#"
   xmlns:rdf="http://www.w3.org/1999/02/22-rdf-syntax-ns#"
   xmlns:svg="http://www.w3.org/2000/svg"
   xmlns="http://www.w3.org/2000/svg"
   xmlns:sodipodi="http://sodipodi.sourceforge.net/DTD/sodipodi-0.dtd"
   xmlns:inkscape="http://www.inkscape.org/namespaces/inkscape"
   version="1.1"
   id="Layer_1"
   x="0px"
   y="0px"
   height="46.099998"
   width="50"
   viewBox="0 0 50 46.099998"
   enable-background="new 0 0 50 50"
   xml:space="preserve"
   sodipodi:docname="VirtualMachineWindows.svg"
   inkscape:version="0.92.3 (2405546, 2018-03-11)"><metadata
   id="metadata2266"><rdf:RDF><cc:Work
       rdf:about=""><dc:format>image/svg+xml</dc:format><dc:type
         rdf:resource="http://purl.org/dc/dcmitype/StillImage" /><dc:title></dc:title></cc:Work></rdf:RDF></metadata><defs
   id="defs2264" /><sodipodi:namedview
   pagecolor="#ffffff"
   bordercolor="#666666"
   borderopacity="1"
   objecttolerance="10"
   gridtolerance="10"
   guidetolerance="10"
   inkscape:pageopacity="0"
   inkscape:pageshadow="2"
   inkscape:window-width="1920"
   inkscape:window-height="1017"
   id="namedview2262"
   showgrid="false"
   fit-margin-top="0"
   fit-margin-left="0"
   fit-margin-right="0"
   fit-margin-bottom="0"
   inkscape:zoom="17"
   inkscape:cx="25"
   inkscape:cy="23.1"
   inkscape:window-x="1912"
   inkscape:window-y="-8"
   inkscape:window-maximized="1"
   inkscape:current-layer="Layer_1" />
<g
   id="g2249"
   transform="translate(0,-2)">
	<path
   d="M 32.4,38.5 H 31.2 19.4 18.8 c 1.6,5.8 -0.6,6.6 -10.2,6.6 v 3 h 12.2 8.9 11.5 v -3 c -9.5,0 -10.4,-0.8 -8.8,-6.6"
   id="path2237"
   inkscape:connector-curvature="0"
   style="fill:#7a7a7a" />
	<path
   d="M 47,2 H 2.7 C 1.2,2 0,3.3 0,4.8 v 30.9 c 0,1.5 1.2,2.8 2.7,2.8 H 47 c 1.5,0 3,-1.3 3,-2.8 V 4.8 C 50,3.3 48.5,2 47,2 M 46.2,5.8 V 34.6 H 3.8 V 5.8 L 46.2,5.7 Z"
   id="path2239"
   inkscape:connector-curvature="0"
   style="fill:#a0a1a2" />
	<polygon
   points="3.8,34.7 3.8,5.8 46.2,5.8 46.1,5.8 46.1,34.7 "
   id="polygon2241"
   style="fill:#59b4d9" />
	<path
   d="m 3.8,34.7 v 0 V 5.8 L 42.5,5.7 47,2 c 0,0 0,0 0,0 H 2.7 C 1.2,2 0,3.3 0,4.8 v 30.9 c 0,1.5 1.2,2.8 2.7,2.8 h 1.1 l 4.6,-3.8 z"
   id="path2243"
   inkscape:connector-curvature="0"
   style="opacity:0.2;fill:#ffffff" />
	<polygon
   points="3.8,5.8 42.5,5.8 42.5,5.8 3.8,5.8 3.8,34.7 "
   id="polygon2245"
   style="fill:#59b4d9" />
	<path
   d="m 25.5,4.1 c 0,0.4 -0.3,0.7 -0.7,0.7 -0.4,0 -0.7,-0.3 -0.7,-0.7 0,-0.4 0.3,-0.7 0.7,-0.7 0.4,0 0.7,0.3 0.7,0.7"
   id="path2247"
   inkscape:connector-curvature="0"
   style="fill:#b8d432" />
</g>
<g
   id="g2259"
   transform="translate(0,-2)">
	<polygon
   points="35.7,9.3 25.9,11 25.9,19 35.7,19 "
   id="polygon2251"
   style="fill:#ffffff" />
	<polygon
   points="13.7,12.4 13.7,19 23.5,19 23.5,11.1 "
   id="polygon2253"
   style="fill:#ffffff" />
	<polygon
   points="13.7,28.2 23.5,29.5 23.5,21.5 13.7,21.5 "
   id="polygon2255"
   style="fill:#ffffff" />
	<polygon
   points="35.7,31.3 35.7,21.5 25.9,21.5 25.9,29.6 "
   id="polygon2257"
   style="fill:#ffffff" />
</g>
</svg>