<?xml version="1.0" encoding="utf-8"?>
<svg version="1.1" id="Layer_1" xmlns="http://www.w3.org/2000/svg" xmlns:xlink="http://www.w3.org/1999/xlink" x="0px" y="0px"
	 width="50px" height="50px" viewBox="0 0 50 50" enable-background="new 0 0 50 50" xml:space="preserve">
<rect x="21.667" fill="#59B4D9" width="6.667" height="5"/>
<rect x="11.667" fill="#59B4D9" width="6.667" height="5"/>
<path fill="#59B4D9" d="M45,45h-3.333v5h5C48.508,50,50,48.507,50,46.667v-5h-5V45z"/>
<rect y="31.667" fill="#59B4D9" width="5" height="6.667"/>
<rect x="21.667" y="45" fill="#59B4D9" width="6.667" height="5"/>
<rect x="45" y="31.667" fill="#59B4D9" width="5" height="6.667"/>
<rect x="31.667" y="45" fill="#59B4D9" width="6.667" height="5"/>
<rect x="11.667" y="45" fill="#59B4D9" width="6.667" height="5"/>
<path fill="#59B4D9" d="M5,45v-3.333H0v5C0,48.508,1.493,50,3.333,50h5v-5H5z"/>
<rect y="11.667" fill="#59B4D9" width="5" height="6.667"/>
<path fill="#59B4D9" d="M5,5h3.333V0h-5C1.493,0,0,1.493,0,3.333v5h5V5z"/>
<rect y="21.667" fill="#59B4D9" width="5" height="6.667"/>
<rect x="45" y="21.667" fill="#59B4D9" width="5" height="6.667"/>
<rect x="45" y="11.666" fill="#59B4D9" width="5" height="6.667"/>
<rect x="31.666" y="0" fill="#59B4D9" width="6.667" height="5"/>
<path fill="#59B4D9" d="M45,5v3.333h5v-5C50,1.492,48.507,0,46.667,0l-5,0v5H45z"/>
<path fill="#A0A1A2" d="M35.328,8.959H9.949c-0.863,0-1.558,0.77-1.558,1.63v17.675c0,0.855,0.695,1.617,1.558,1.617h25.379
	c0.86,0,1.732-0.762,1.732-1.617V10.59C37.061,9.727,36.189,8.959,35.328,8.959"/>
<path opacity="0.2" fill="#FFFFFF" enable-background="new    " d="M35.346,8.961c-0.006,0-0.012-0.002-0.018-0.002H9.949
	c-0.863,0-1.558,0.77-1.558,1.63v17.674c0,0.855,0.695,1.617,1.558,1.617h0.604L35.346,8.961z"/>
<polygon fill="#59B4D9" points="34.881,27.678 10.564,27.678 10.564,11.163 34.881,11.127 "/>
<path fill="#B8D432" d="M23.022,10.159c0,0.225-0.182,0.406-0.407,0.406c-0.225,0-0.406-0.182-0.406-0.406
	c0-0.225,0.181-0.406,0.406-0.406C22.84,9.752,23.022,9.933,23.022,10.159"/>
<path fill="#FFFFFF" d="M23.039,18.919c-0.026,0-0.052-0.008-0.077-0.022l-5.049-2.91c-0.046-0.027-0.075-0.078-0.075-0.132
	c0-0.054,0.029-0.105,0.075-0.132l5.018-2.891c0.047-0.026,0.104-0.026,0.151,0l5.05,2.912c0.047,0.027,0.075,0.078,0.075,0.132
	c0,0.055-0.028,0.105-0.075,0.132l-5.016,2.89C23.091,18.912,23.067,18.919,23.039,18.919"/>
<path fill="#7A7A7A" d="M31.531,35.535h-0.683h-6.76h-0.353c0.937,3.303-0.322,3.776-5.834,3.776v1.73h7.011h5.119h6.616v-1.729
	C31.134,39.311,30.593,38.84,31.531,35.535"/>
<path fill="#A0A1A2" d="M39.877,14.614H14.498c-0.863,0-1.558,0.77-1.558,1.63v17.675c0,0.855,0.695,1.617,1.558,1.617h25.379
	c0.86,0,1.732-0.762,1.732-1.617V16.244C41.609,15.382,40.737,14.614,39.877,14.614"/>
<path opacity="0.2" fill="#FFFFFF" enable-background="new    " d="M39.895,14.616c-0.006,0-0.012-0.002-0.018-0.002h-25.38
	c-0.863,0-1.558,0.77-1.558,1.63v17.674c0,0.855,0.695,1.617,1.558,1.617h0.604L39.895,14.616z"/>
<polygon fill="#59B4D9" points="39.429,33.333 15.112,33.333 15.112,16.818 39.429,16.782 "/>
<rect x="17.901" y="39.311" fill="#A0A1A2" width="18.745" height="1.73"/>
<path fill="#B8D432" d="M27.571,15.814c0,0.225-0.182,0.406-0.407,0.406c-0.225,0-0.406-0.182-0.406-0.406s0.181-0.406,0.406-0.406
	C27.389,15.407,27.571,15.589,27.571,15.814"/>
<path fill="#FFFFFF" d="M27.587,24.575c-0.026,0-0.052-0.008-0.077-0.022l-5.049-2.91c-0.046-0.027-0.075-0.078-0.075-0.132
	c0-0.054,0.029-0.105,0.075-0.132l5.018-2.891c0.047-0.026,0.104-0.026,0.151,0l5.05,2.912c0.047,0.027,0.075,0.078,0.075,0.132
	c0,0.055-0.028,0.105-0.075,0.132l-5.016,2.89C27.64,24.566,27.615,24.575,27.587,24.575"/>
<path opacity="0.7" fill="#FFFFFF" enable-background="new    " d="M26.861,31.648c-0.029,0-0.054-0.007-0.077-0.02l-5.033-2.901
	c-0.049-0.027-0.078-0.076-0.078-0.132v-5.822c0-0.055,0.029-0.105,0.078-0.132c0.047-0.028,0.103-0.028,0.154,0l5.033,2.9
	c0.044,0.029,0.075,0.078,0.075,0.133v5.822c0,0.056-0.029,0.105-0.075,0.132C26.913,31.641,26.886,31.648,26.861,31.648"/>
<path opacity="0.4" fill="#FFFFFF" enable-background="new    " d="M28.287,31.648c-0.028,0-0.054-0.007-0.079-0.02
	c-0.044-0.027-0.074-0.077-0.074-0.132V25.71c0-0.054,0.029-0.104,0.074-0.132l5.033-2.899c0.048-0.027,0.104-0.027,0.152,0
	c0.048,0.027,0.077,0.077,0.077,0.132v5.785c0,0.056-0.029,0.106-0.077,0.132l-5.031,2.901
	C28.339,31.641,28.312,31.648,28.287,31.648"/>
</svg>
