<?xml version="1.0" encoding="UTF-8" standalone="no"?>
<!-- Generator: Adobe Illustrator 17.1.0, SVG Export Plug-In . SVG Version: 6.00 Build 0)  -->

<svg
   xmlns:dc="http://purl.org/dc/elements/1.1/"
   xmlns:cc="http://creativecommons.org/ns#"
   xmlns:rdf="http://www.w3.org/1999/02/22-rdf-syntax-ns#"
   xmlns:svg="http://www.w3.org/2000/svg"
   xmlns="http://www.w3.org/2000/svg"
   xmlns:sodipodi="http://sodipodi.sourceforge.net/DTD/sodipodi-0.dtd"
   xmlns:inkscape="http://www.inkscape.org/namespaces/inkscape"
   version="1.1"
   id="Layer_1"
   x="0px"
   y="0px"
   height="46.099998"
   width="50"
   viewBox="0 0 50 46.099998"
   enable-background="new 0 0 50 50"
   xml:space="preserve"
   sodipodi:docname="VirtualMachineLinux.svg"
   inkscape:version="0.92.3 (2405546, 2018-03-11)"><metadata
   id="metadata2018"><rdf:RDF><cc:Work
       rdf:about=""><dc:format>image/svg+xml</dc:format><dc:type
         rdf:resource="http://purl.org/dc/dcmitype/StillImage" /><dc:title></dc:title></cc:Work></rdf:RDF></metadata><defs
   id="defs2016" /><sodipodi:namedview
   pagecolor="#ffffff"
   bordercolor="#666666"
   borderopacity="1"
   objecttolerance="10"
   gridtolerance="10"
   guidetolerance="10"
   inkscape:pageopacity="0"
   inkscape:pageshadow="2"
   inkscape:window-width="1920"
   inkscape:window-height="1017"
   id="namedview2014"
   showgrid="false"
   fit-margin-top="0"
   fit-margin-left="0"
   fit-margin-right="0"
   fit-margin-bottom="0"
   inkscape:zoom="6.0104076"
   inkscape:cx="26.706578"
   inkscape:cy="1.9030051"
   inkscape:window-x="1912"
   inkscape:window-y="-8"
   inkscape:window-maximized="1"
   inkscape:current-layer="Layer_1" />
<g
   id="g1995"
   transform="translate(0,-2)">
	<path
   d="M 32.4,38.5 H 31.2 19.4 18.8 c 1.6,5.8 -0.6,6.6 -10.2,6.6 v 3 h 12.2 8.9 11.5 v -3 c -9.5,0 -10.4,-0.8 -8.8,-6.6"
   id="path1983"
   inkscape:connector-curvature="0"
   style="fill:#7a7a7a" />
	<path
   d="M 47,2 H 2.7 C 1.2,2 0,3.3 0,4.8 v 30.9 c 0,1.5 1.2,2.8 2.7,2.8 H 47 c 1.5,0 3,-1.3 3,-2.8 V 4.8 C 50,3.3 48.5,2 47,2 M 46.2,5.8 V 34.6 H 3.8 V 5.8 L 46.2,5.7 Z"
   id="path1985"
   inkscape:connector-curvature="0"
   style="fill:#a0a1a2" />
	<polygon
   points="3.8,34.7 3.8,5.8 46.2,5.8 46.1,5.8 46.1,34.7 "
   id="polygon1987"
   style="fill:#59b4d9" />
	<path
   d="m 3.8,34.7 v 0 V 5.8 L 42.5,5.7 47,2 c 0,0 0,0 0,0 H 2.7 C 1.2,2 0,3.3 0,4.8 v 30.9 c 0,1.5 1.2,2.8 2.7,2.8 h 1.1 l 4.6,-3.8 z"
   id="path1989"
   inkscape:connector-curvature="0"
   style="opacity:0.2;fill:#ffffff" />
	<polygon
   points="3.8,5.8 42.5,5.8 42.5,5.8 3.8,5.8 3.8,34.7 "
   id="polygon1991"
   style="fill:#59b4d9" />
	<path
   d="m 25.5,4.1 c 0,0.4 -0.3,0.7 -0.7,0.7 -0.4,0 -0.7,-0.3 -0.7,-0.7 0,-0.4 0.3,-0.7 0.7,-0.7 0.4,0 0.7,0.3 0.7,0.7"
   id="path1993"
   inkscape:connector-curvature="0"
   style="fill:#b8d432" />
</g>
<g
   id="g2011"
   transform="translate(0,-2)">
	<polygon
   points="18,27.8 19.7,25.1 18.8,21.2 18.2,18.4 19.6,15.5 26.3,13.8 28.5,15.4 30.3,18.7 29.3,25.6 32.6,34.1 32.9,34.7 14.2,34.7 15,32.7 "
   id="polygon1997"
   style="clip-rule:evenodd;fill:#ffffff;fill-rule:evenodd" />
	<g
   id="g2009">
		<path
   d="m 28.8,24.9 c 0,0 2.7,-0.5 2.4,-2.8 -0.3,-2 -2.5,-0.6 -3.6,-0.8 -1.1,-0.2 -1.6,-0.5 -1.6,-0.5 0,0 -0.8,-0.1 -1.2,-0.4 -0.4,-0.3 -0.5,-0.4 -0.7,-0.4 -0.2,0 -0.7,0.1 -0.9,0.1 -0.2,0.1 -1.1,0.7 -1.4,0.9 -0.3,0.2 -1.4,0.8 -1.6,0.9 -0.1,0.1 -1.4,1.1 -0.9,1.6 0.5,0.5 1.1,2.6 1.7,2.9 0.7,0.4 1.6,0.7 2.2,0.6 2.1,-0.1 3.3,-0.6 3.3,-0.6 0,0 1.8,-0.5 2.3,-1.5 z"
   id="path1999"
   inkscape:connector-curvature="0"
   style="clip-rule:evenodd;fill:#fcd116;fill-rule:evenodd" />
		<g
   id="g2007">
			<path
   d="m 13,34.7 c 0.7,-1.6 1.5,-3.1 2.5,-4.4 1.4,-1.9 3.3,-3.6 2.9,-7.5 -0.1,-1.5 -0.8,-2.9 -0.9,-4.3 0,-2.2 1,-4.7 2.4,-5.8 3.1,-2.6 8.6,-1.7 10.6,1.2 0.7,1 1.2,2.8 1.4,4.1 0.4,3.9 0.4,7.6 2.4,10.8 1.2,1.9 2.9,3.6 3.9,6 h -7 c -0.4,-0.8 -0.8,-1.6 -1.1,-2.5 -0.4,-1 -0.8,-2.2 -1.2,-3.3 -0.5,-1.2 -0.7,-2.6 -1.2,-3.3 -0.2,-0.3 2.7,-1 2.7,-2.8 -0.3,-2 -2.3,-1.3 -3.1,-1.5 0.8,-0.7 2,-1.8 1.8,-3.1 -0.2,-1 -1.8,-2.3 -3.4,-1.6 -1.2,0.5 -1.1,2.5 -1.3,3.7 -0.7,-0.1 -1.5,0.1 -1.5,-0.2 -0.1,-1.5 -0.3,-3.1 -1.7,-3.2 -2.4,-0.2 -3.9,2.6 -0.9,4.9 -0.3,0.5 -1,0.5 -0.9,1.4 2.2,2.7 6.1,0.3 8.9,-0.3 -2,1.3 -5.1,2.5 -8.3,1.6 -0.2,1.8 1.9,2.7 2.8,2.6 1.5,0 3.6,-0.3 4.6,-1.2 -1.8,1.5 -4.6,2 -7.3,0.7 -1.1,3.2 -3.5,5.2 -5,8 z"
   id="path2001"
   inkscape:connector-curvature="0"
   style="clip-rule:evenodd;fill:#1e1e1e;fill-rule:evenodd" />
			<path
   d="m 27.2,19.3 c 0.2,1.1 -0.5,1.4 -0.8,1.9 -0.4,-0.1 -0.7,-0.3 -1.1,-0.4 -0.1,-1.2 1,-2.6 1.9,-1.5 z"
   id="path2003"
   inkscape:connector-curvature="0"
   style="clip-rule:evenodd;fill:#1e1e1e;fill-rule:evenodd" />
			<path
   d="m 22.2,20.8 c -0.3,0.2 -0.6,0.4 -0.9,0.5 -0.5,-0.4 -1,-0.8 -0.9,-1.4 0.3,-1.2 1.9,-0.6 1.8,0.9 z"
   id="path2005"
   inkscape:connector-curvature="0"
   style="clip-rule:evenodd;fill:#1e1e1e;fill-rule:evenodd" />
		</g>
	</g>
</g>
</svg>