<?xml version="1.0" encoding="utf-8"?>
<svg version="1.1" id="Layer_1" xmlns="http://www.w3.org/2000/svg" xmlns:xlink="http://www.w3.org/1999/xlink" x="0px" y="0px"
	 width="50px" height="50px" viewBox="0 0 50 50" enable-background="new 0 0 50 50" xml:space="preserve">
<path fill="#A0A1A2" d="M35.723,0H2.066C0.923,0,0.001,1.021,0.001,2.162v23.439c0,1.134,0.922,2.144,2.066,2.144h33.656
	c1.141,0,2.297-1.01,2.297-2.144V2.162C38.02,1.018,36.864,0,35.723,0"/>
<path opacity="0.2" fill="#FFFFFF" d="M35.746,0.002c-0.008,0-0.016-0.002-0.024-0.002H2.066C0.922,0.001,0,1.021,0,2.163v23.438
	c0,1.134,0.922,2.144,2.066,2.144h0.801L35.746,0.002z"/>
<polygon fill="#59B4D9" points="35.129,24.823 2.882,24.823 2.882,2.922 35.129,2.875 "/>
<path fill="#B8D432" d="M19.404,1.591c0,0.298-0.242,0.539-0.54,0.539c-0.299,0-0.539-0.241-0.539-0.539
	c0-0.298,0.24-0.539,0.539-0.539C19.162,1.052,19.404,1.293,19.404,1.591"/>
<path fill="#FFFFFF" d="M19.425,13.209c-0.035,0-0.069-0.011-0.102-0.029l-6.695-3.859c-0.061-0.036-0.1-0.104-0.1-0.175
	c0-0.072,0.039-0.139,0.1-0.175l6.654-3.834c0.062-0.035,0.138-0.035,0.2,0l6.697,3.861c0.062,0.036,0.1,0.103,0.1,0.175
	c0,0.073-0.037,0.139-0.1,0.175l-6.652,3.833C19.495,13.198,19.462,13.209,19.425,13.209"/>
<path fill="#A0A1A2" d="M41.671,7.456H8.015c-1.144,0-2.066,1.021-2.066,2.162v23.439c0,1.134,0.922,2.144,2.066,2.144h33.656
	c1.141,0,2.297-1.01,2.297-2.144V9.618C43.969,8.474,42.813,7.456,41.671,7.456"/>
<path opacity="0.2" fill="#FFFFFF" d="M41.695,7.458c-0.008,0-0.016-0.002-0.024-0.002H8.015c-1.144,0-2.066,1.021-2.066,2.162
	v23.438c0,1.134,0.922,2.144,2.066,2.144h0.801L41.695,7.458z"/>
<polygon fill="#59B4D9" points="41.078,32.279 8.83,32.279 8.83,10.378 41.078,10.331 "/>
<path fill="#B8D432" d="M25.352,9.047c0,0.298-0.242,0.539-0.54,0.539c-0.299,0-0.539-0.241-0.539-0.539
	c0-0.298,0.24-0.539,0.539-0.539C25.11,8.508,25.352,8.748,25.352,9.047"/>
<path fill="#FFFFFF" d="M25.374,20.664c-0.035,0-0.069-0.011-0.102-0.029l-6.695-3.859c-0.061-0.036-0.1-0.104-0.1-0.175
	c0-0.072,0.039-0.139,0.1-0.175l6.654-3.834c0.062-0.035,0.138-0.035,0.2,0l6.697,3.861c0.062,0.036,0.1,0.103,0.1,0.175
	c0,0.073-0.037,0.139-0.1,0.175l-6.652,3.833C25.443,20.654,25.411,20.664,25.374,20.664"/>
<path fill="#7A7A7A" d="M36.636,42.698h-0.906h-8.965h-0.468c1.242,4.38-0.427,5.008-7.737,5.008V50h9.297h6.788h8.773v-2.293
	C36.109,47.706,35.392,47.081,36.636,42.698"/>
<path fill="#A0A1A2" d="M47.703,14.955H14.047c-1.144,0-2.066,1.021-2.066,2.162v23.439c0,1.134,0.922,2.144,2.066,2.144h33.656
	c1.141,0,2.297-1.01,2.297-2.144V17.117C50,15.974,48.844,14.955,47.703,14.955"/>
<path opacity="0.2" fill="#FFFFFF" d="M47.727,14.958c-0.008,0-0.016-0.002-0.024-0.002H14.046c-1.144,0-2.066,1.021-2.066,2.162
	v23.438c0,1.134,0.922,2.144,2.066,2.144h0.801L47.727,14.958z"/>
<polygon fill="#59B4D9" points="47.109,39.779 14.862,39.779 14.862,17.878 47.109,17.83 "/>
<rect x="18.561" y="47.706" fill="#A0A1A2" width="24.858" height="2.294"/>
<path fill="#B8D432" d="M31.384,16.546c0,0.298-0.242,0.539-0.54,0.539c-0.299,0-0.539-0.241-0.539-0.539
	c0-0.298,0.24-0.539,0.539-0.539C31.142,16.007,31.384,16.248,31.384,16.546"/>
<path fill="#FFFFFF" d="M31.405,28.164c-0.035,0-0.069-0.011-0.102-0.029l-6.695-3.859c-0.061-0.036-0.1-0.104-0.1-0.175
	c0-0.072,0.039-0.139,0.1-0.175l6.654-3.834c0.062-0.035,0.138-0.035,0.2,0l6.697,3.861c0.062,0.036,0.1,0.103,0.1,0.175
	c0,0.073-0.037,0.139-0.1,0.175l-6.652,3.833C31.475,28.153,31.442,28.164,31.405,28.164"/>
<path opacity="0.7" fill="#FFFFFF" d="M30.443,37.544c-0.038,0-0.072-0.009-0.102-0.027l-6.675-3.847
	c-0.065-0.036-0.104-0.101-0.104-0.175v-7.72c0-0.073,0.039-0.139,0.104-0.175c0.062-0.037,0.137-0.037,0.204,0l6.674,3.846
	c0.059,0.038,0.099,0.104,0.099,0.177v7.72c0,0.074-0.039,0.139-0.099,0.175C30.511,37.535,30.476,37.544,30.443,37.544"/>
<path opacity="0.4" fill="#FFFFFF" d="M32.333,37.544c-0.037,0-0.071-0.009-0.105-0.027c-0.059-0.036-0.098-0.102-0.098-0.175V29.67
	c0-0.071,0.039-0.138,0.098-0.175l6.674-3.845c0.064-0.036,0.138-0.036,0.201,0c0.064,0.036,0.102,0.102,0.102,0.175v7.671
	c0,0.074-0.039,0.14-0.102,0.175l-6.672,3.847C32.403,37.535,32.367,37.544,32.333,37.544"/>
</svg>
