<?xml version="1.0" encoding="utf-8"?>
<!-- Generator: Adobe Illustrator 19.1.0, SVG Export Plug-In . SVG Version: 6.00 Build 0)  -->
<svg version="1.1" id="Layer_1" xmlns="http://www.w3.org/2000/svg" xmlns:xlink="http://www.w3.org/1999/xlink" x="0px" y="0px"
	 width="50px" height="50px" viewBox="-454 256 50 50" style="enable-background:new -454 256 50 50;" xml:space="preserve">
<style type="text/css">
	.st0{fill:#7A7A7A;}
	.st1{fill:#A0A1A2;}
	.st2{opacity:0.2;fill:#FFFFFF;enable-background:new    ;}
	.st3{fill:#59B4D9;}
	.st4{fill:#B8D432;}
	.st5{fill:#FFFFFF;}
	.st6{opacity:0.7;fill:#FFFFFF;enable-background:new    ;}
	.st7{opacity:0.4;fill:#FFFFFF;enable-background:new    ;}
	.st8{fill:#0F0F0F;}
</style>
<path class="st0" d="M-429.3,298.7h-0.9h-9h-0.5c1.2,4.4-0.4,5-7.7,5v2.3h9.3h6.8h8.8v-2.3C-429.9,303.7-430.6,303.1-429.3,298.7"/>
<path class="st1" d="M-418.3,271h-33.7c-1.1,0-2.1,1-2.1,2.2v23.4c0,1.1,0.9,2.1,2.1,2.1h33.7c1.1,0,2.3-1,2.3-2.1v-23.4
	C-416,272-417.1,271-418.3,271"/>
<path class="st2" d="M-418.3,271C-418.3,271-418.3,271-418.3,271l-33.7,0c-1.1,0-2.1,1-2.1,2.2v23.4c0,1.1,0.9,2.1,2.1,2.1h0.8
	L-418.3,271z"/>
<polygon class="st3" points="-418.9,295.8 -451.1,295.8 -451.1,273.9 -418.9,273.8 "/>
<rect x="-447.4" y="303.7" class="st1" width="24.9" height="2.3"/>
<path class="st4" d="M-434.6,272.5c0,0.3-0.2,0.5-0.5,0.5c-0.3,0-0.5-0.2-0.5-0.5s0.2-0.5,0.5-0.5
	C-434.8,272-434.6,272.2-434.6,272.5"/>
<path class="st5" d="M-434.6,284.2c0,0-0.1,0-0.1,0l-6.7-3.9c-0.1,0-0.1-0.1-0.1-0.2c0-0.1,0-0.1,0.1-0.2l6.7-3.8c0.1,0,0.1,0,0.2,0
	l6.7,3.9c0.1,0,0.1,0.1,0.1,0.2c0,0.1,0,0.1-0.1,0.2l-6.7,3.8C-434.5,284.2-434.5,284.2-434.6,284.2"/>
<path class="st6" d="M-435.5,293.5c0,0-0.1,0-0.1,0l-6.7-3.8c-0.1,0-0.1-0.1-0.1-0.2v-7.7c0-0.1,0-0.1,0.1-0.2c0.1,0,0.1,0,0.2,0
	l6.7,3.8c0.1,0,0.1,0.1,0.1,0.2v7.7c0,0.1,0,0.1-0.1,0.2C-435.5,293.5-435.5,293.5-435.5,293.5"/>
<path class="st7" d="M-433.6,293.5c0,0-0.1,0-0.1,0c-0.1,0-0.1-0.1-0.1-0.2v-7.7c0-0.1,0-0.1,0.1-0.2l6.7-3.8c0.1,0,0.1,0,0.2,0
	c0.1,0,0.1,0.1,0.1,0.2v7.7c0,0.1,0,0.1-0.1,0.2L-433.6,293.5C-433.6,293.5-433.6,293.5-433.6,293.5"/>
<rect x="-432.3" y="256" class="st4" width="6.7" height="5"/>
<rect x="-442.3" y="256" class="st4" width="6.7" height="5"/>
<path class="st4" d="M-409,301h-6.3v5h8c1.8,0,3.3-1.5,3.3-3.3v-5h-5V301z"/>
<rect x="-409" y="287.7" class="st4" width="5" height="6.7"/>
<path class="st4" d="M-449,261h3.3v-5h-5c-1.8,0-3.3,1.5-3.3,3.3v8h5V261z"/>
<rect x="-409" y="277.7" class="st4" width="5" height="6.7"/>
<polygon class="st8" points="-404,256 -419,256 -413.4,261.6 -418.4,266.5 -414.5,270.4 -409.5,265.5 -404,271 "/>
</svg>
