<?xml version="1.0" encoding="utf-8"?>
<!-- Generator: Adobe Illustrator 17.1.0, SVG Export Plug-In . SVG Version: 6.00 Build 0)  -->
<!DOCTYPE svg PUBLIC "-//W3C//DTD SVG 1.1//EN" "http://www.w3.org/Graphics/SVG/1.1/DTD/svg11.dtd">
<svg version="1.1" id="Layer_1" xmlns="http://www.w3.org/2000/svg" xmlns:xlink="http://www.w3.org/1999/xlink" x="0px" y="0px"
	 height="50px" width="50px" viewBox="0 0 50 50" enable-background="new 0 0 50 50" xml:space="preserve">
<path fill="#7A7A7A" d="M32.4,36.5h-1.2H19.4h-0.6c1.6,5.8-0.6,6.6-10.2,6.6v3h12.2h8.9h11.5v-3C31.7,43.1,30.8,42.3,32.4,36.5"/>
<path fill="#A0A1A2" d="M47,0H2.7C1.2,0,0,1.3,0,2.8v30.9c0,1.5,1.2,2.8,2.7,2.8H47c1.5,0,3-1.3,3-2.8V2.8C50,1.3,48.5,0,47,0
	 M46.2,3.8v28.8H3.8V3.8l42.4-0.1L46.2,3.8z"/>
<polygon fill="#59B4D9" points="46.2,3.8 46.2,32.7 3.8,32.7 3.8,3.8 46.2,3.8 "/>
<path opacity="0.2" fill="#FFFFFF" d="M3.8,32.7L3.8,32.7L3.8,3.8l38.7-0.1L47,0c0,0,0,0,0,0H2.7C1.2,0,0,1.3,0,2.8v30.9
	c0,1.5,1.2,2.8,2.7,2.8h1.1l4.6-3.8H3.8z"/>
<polygon fill="#59B4D9" points="3.8,32.7 3.8,32.7 3.8,3.8 42.5,3.8 42.5,3.8 3.8,3.8 "/>
<rect x="8.7" y="43.1" fill="#A0A1A2" width="32.7" height="3"/>
<path fill="#B8D432" d="M25.5,3.9c0,0.4-0.3,0.7-0.7,0.7c-0.4,0-0.7-0.3-0.7-0.7c0-0.4,0.3-0.7,0.7-0.7C25.2,3.2,25.5,3.6,25.5,3.9"
	/>
<g>
	<path fill="#B8D432" d="M45.2,26.2c0,3.4-2.8,6.2-6.2,6.2c-3.4,0-6.2-2.8-6.2-6.2c0-3.4,2.8-6.2,6.2-6.2
		C42.4,20,45.2,22.8,45.2,26.2"/>
	<polygon fill="#B8D432" points="43.5,34.4 39,40.7 34.5,34.4 28,34.4 28,50 50,50 50,34.4 	"/>
	<path opacity="0.2" fill="#FFFFFF" d="M32.8,26.2c0,3.4,2.7,6.1,6,6.2l1.5-12.1C39.9,20.1,39.5,20,39,20
		C35.6,20,32.8,22.8,32.8,26.2"/>
	<polygon opacity="0.2" fill="#FFFFFF" points="34.5,34.4 28,34.4 28,50 36.6,50 38,39.3 	"/>
</g>
</svg>
