<?xml version="1.0" encoding="UTF-8" standalone="no"?>
<!-- Generator: Adobe Illustrator 19.2.1, SVG Export Plug-In . SVG Version: 6.00 Build 0)  -->

<svg
   xmlns:dc="http://purl.org/dc/elements/1.1/"
   xmlns:cc="http://creativecommons.org/ns#"
   xmlns:rdf="http://www.w3.org/1999/02/22-rdf-syntax-ns#"
   xmlns:svg="http://www.w3.org/2000/svg"
   xmlns="http://www.w3.org/2000/svg"
   xmlns:sodipodi="http://sodipodi.sourceforge.net/DTD/sodipodi-0.dtd"
   xmlns:inkscape="http://www.inkscape.org/namespaces/inkscape"
   version="1.1"
   id="Layer_1"
   x="0px"
   y="0px"
   width="49.999664"
   height="50"
   viewBox="0 0 49.999664 50"
   enable-background="new 0 0 50 50"
   xml:space="preserve"
   sodipodi:docname="WebAppWordPress.svg"
   inkscape:version="0.92.3 (2405546, 2018-03-11)"><metadata
   id="metadata1019"><rdf:RDF><cc:Work
       rdf:about=""><dc:format>image/svg+xml</dc:format><dc:type
         rdf:resource="http://purl.org/dc/dcmitype/StillImage" /><dc:title></dc:title></cc:Work></rdf:RDF></metadata><defs
   id="defs1017" /><sodipodi:namedview
   pagecolor="#ffffff"
   bordercolor="#666666"
   borderopacity="1"
   objecttolerance="10"
   gridtolerance="10"
   guidetolerance="10"
   inkscape:pageopacity="0"
   inkscape:pageshadow="2"
   inkscape:window-width="1920"
   inkscape:window-height="1017"
   id="namedview1015"
   showgrid="false"
   fit-margin-top="0"
   fit-margin-left="0"
   fit-margin-right="0"
   fit-margin-bottom="0"
   inkscape:zoom="12.020815"
   inkscape:cx="15.667676"
   inkscape:cy="22.587815"
   inkscape:window-x="1912"
   inkscape:window-y="-8"
   inkscape:window-maximized="1"
   inkscape:current-layer="Layer_1" />
<g
   id="g996"
   transform="translate(-3.3601031e-4)">
	<path
   d="m 31.39,35.018 c -3.538,2.705 -7.706,4.023 -11.845,4.023 -5.873,0 -11.68,-2.637 -15.518,-7.656 C -2.53,22.824 -0.912,10.581 7.664,4.02 11.201,1.299 15.374,0 19.508,0 25.381,0 31.19,2.637 35.026,7.661 41.585,16.219 39.95,28.465 31.39,35.018"
   id="path992"
   inkscape:connector-curvature="0"
   style="fill:#59b4d9" />
	<path
   d="m 27.803,22.944 c 1.418,1.849 4.05,2.184 5.889,0.784 0.096,-0.073 0.17,-0.162 0.258,-0.241 1.881,1.325 3.188,2.2 3.924,2.701 0.218,-0.565 0.369,-1.107 0.523,-1.673 -0.778,-0.579 -1.83,-1.389 -3.35,-2.621 0.499,-1.312 0.341,-2.843 -0.57,-4.038 C 33.174,16.169 30.864,15.74 29.06,16.781 27.072,14.997 24.887,12.953 22.583,10.664 29.741,6.815 34.826,7.378 34.826,7.378 33.977,6.296 33.026,5.347 32.01,4.491 28.992,4.025 24.303,4.077 18.945,6.927 L 18.943,6.925 H 18.942 C 17.157,5.054 15.34,3.051 13.489,0.9 c -0.886,0.283 -1.751,0.634 -2.587,1.052 1.366,2.235 3.204,4.49 5.275,6.689 v 0 c 0.004,0.005 0.009,0.009 0.013,0.013 -1.727,1.207 -3.65,2.822 -5.423,4.698 -0.226,0.241 -0.444,0.484 -0.658,0.727 C 9.049,13.857 7.935,13.922 6.894,14.299 5.126,10.484 5.268,7.419 5.548,5.839 4.78,6.645 4.063,7.49 3.446,8.392 c -0.462,1.886 -0.593,4.606 0.769,7.884 -1.577,2.063 -1.651,4.99 -0.004,7.148 0.137,0.179 0.284,0.345 0.437,0.504 -0.719,2.45 -1.041,4.813 -1.14,6.842 0.185,0.251 0.185,0.455 0.369,0.7 0.936,1.201 2.113,2.213 3.249,3.13 -0.141,-2.148 0.011,-5.315 1.339,-8.881 0.916,0.07 1.848,-0.075 2.72,-0.442 0.5,0.44 1.023,0.884 1.581,1.336 1.916,1.517 3.827,2.697 5.689,3.626 -0.097,0.947 0.141,1.932 0.756,2.747 1.316,1.699 3.753,2.016 5.454,0.718 0.354,-0.271 0.633,-0.598 0.865,-0.95 3.037,0.676 5.691,0.796 7.658,0.796 0.301,0 1.7,-1.902 2.501,-3.082 -1.198,0.251 -4.751,0.739 -9.606,-0.656 -0.117,-0.545 -0.341,-1.075 -0.701,-1.546 -1.233,-1.617 -3.488,-1.967 -5.169,-0.885 -1.688,-0.915 -3.455,-2.063 -5.278,-3.507 -0.368,-0.291 -0.721,-0.582 -1.061,-0.873 1.114,-1.755 1.232,-4.004 0.248,-5.896 0.223,-0.223 0.443,-0.448 0.68,-0.669 1.805,-1.686 3.503,-3.036 5.091,-4.119 -0.064,-0.059 -0.122,-0.122 -0.184,-0.182 0.063,0.059 0.123,0.119 0.187,0.177 -0.001,0 -0.001,0.001 -0.002,0.001 2.437,2.254 5.022,4.39 7.469,6.299 -0.647,1.372 -0.545,3.044 0.44,4.332 z"
   id="path994"
   inkscape:connector-curvature="0"
   style="fill:#ffffff" />
</g>
<circle
   cx="34.937664"
   cy="34.938"
   r="15.062"
   id="circle998"
   style="fill:#ffffff" />
<g
   id="g1012"
   transform="translate(-3.3601031e-4)">
	<g
   id="g1010">
		<path
   d="m 22.975,34.938 c 0,4.735 2.752,8.828 6.743,10.767 L 24.011,30.069 c -0.664,1.488 -1.036,3.134 -1.036,4.869 z"
   id="path1000"
   inkscape:connector-curvature="0"
   style="fill:#464342" />
		<path
   d="m 43.014,34.334 c 0,-1.479 -0.531,-2.503 -0.986,-3.299 -0.606,-0.986 -1.175,-1.82 -1.175,-2.806 0,-1.1 0.834,-2.123 2.009,-2.123 0.053,0 0.103,0.006 0.155,0.01 -2.128,-1.95 -4.964,-3.141 -8.079,-3.141 -4.18,0 -7.857,2.145 -9.996,5.392 0.281,0.009 0.545,0.015 0.77,0.015 1.251,0 3.188,-0.152 3.188,-0.152 0.645,-0.038 0.721,0.91 0.077,0.986 0,0 -0.648,0.076 -1.369,0.114 l 4.356,12.959 2.618,-7.852 -1.864,-5.107 c -0.645,-0.038 -1.255,-0.114 -1.255,-0.114 -0.645,-0.038 -0.569,-1.024 0.076,-0.986 0,0 1.975,0.152 3.151,0.152 1.251,0 3.189,-0.152 3.189,-0.152 0.645,-0.038 0.721,0.91 0.076,0.986 0,0 -0.649,0.076 -1.369,0.114 l 4.324,12.86 1.194,-3.987 c 0.517,-1.657 0.91,-2.845 0.91,-3.869 z"
   id="path1002"
   inkscape:connector-curvature="0"
   style="fill:#464342" />
		<path
   d="m 35.148,35.984 -3.59,10.43 c 1.072,0.315 2.206,0.487 3.38,0.487 1.393,0 2.729,-0.241 3.973,-0.678 -0.032,-0.051 -0.061,-0.106 -0.086,-0.165 z"
   id="path1004"
   inkscape:connector-curvature="0"
   style="fill:#464342" />
		<path
   d="m 45.436,29.198 c 0.051,0.381 0.08,0.79 0.08,1.23 0,1.214 -0.227,2.578 -0.91,4.285 l -3.654,10.565 c 3.557,-2.074 5.949,-5.927 5.949,-10.341 0,-2.079 -0.531,-4.035 -1.465,-5.739 z"
   id="path1006"
   inkscape:connector-curvature="0"
   style="fill:#464342" />
		<path
   d="m 34.938,20.992 c -7.69,0 -13.946,6.256 -13.946,13.946 0,7.69 6.256,13.946 13.946,13.946 7.69,0 13.946,-6.256 13.946,-13.946 0,-7.69 -6.256,-13.946 -13.946,-13.946 z m 0,27.253 c -7.337,0 -13.306,-5.97 -13.306,-13.307 0,-7.337 5.969,-13.306 13.306,-13.306 7.337,0 13.307,5.969 13.307,13.306 0,7.337 -5.97,13.307 -13.307,13.307 z"
   id="path1008"
   inkscape:connector-curvature="0"
   style="fill:#464342" />
	</g>
</g>
</svg>