<?xml version="1.0" encoding="UTF-8" standalone="no"?>
<!-- Generator: Adobe Illustrator 19.2.1, SVG Export Plug-In . SVG Version: 6.00 Build 0)  -->

<svg
   xmlns:dc="http://purl.org/dc/elements/1.1/"
   xmlns:cc="http://creativecommons.org/ns#"
   xmlns:rdf="http://www.w3.org/1999/02/22-rdf-syntax-ns#"
   xmlns:svg="http://www.w3.org/2000/svg"
   xmlns="http://www.w3.org/2000/svg"
   xmlns:sodipodi="http://sodipodi.sourceforge.net/DTD/sodipodi-0.dtd"
   xmlns:inkscape="http://www.inkscape.org/namespaces/inkscape"
   version="1.1"
   id="Layer_1"
   x="0px"
   y="0px"
   width="49.999664"
   height="50"
   viewBox="0 0 49.999664 50"
   enable-background="new 0 0 50 50"
   xml:space="preserve"
   sodipodi:docname="WebAppUmbraco.svg"
   inkscape:version="0.92.3 (2405546, 2018-03-11)"><metadata
   id="metadata914"><rdf:RDF><cc:Work
       rdf:about=""><dc:format>image/svg+xml</dc:format><dc:type
         rdf:resource="http://purl.org/dc/dcmitype/StillImage" /><dc:title></dc:title></cc:Work></rdf:RDF></metadata><defs
   id="defs912">
	
	
</defs><sodipodi:namedview
   pagecolor="#ffffff"
   bordercolor="#666666"
   borderopacity="1"
   objecttolerance="10"
   gridtolerance="10"
   guidetolerance="10"
   inkscape:pageopacity="0"
   inkscape:pageshadow="2"
   inkscape:window-width="1920"
   inkscape:window-height="1017"
   id="namedview910"
   showgrid="false"
   fit-margin-top="0"
   fit-margin-left="0"
   fit-margin-right="0"
   fit-margin-bottom="0"
   inkscape:zoom="17"
   inkscape:cx="24.999664"
   inkscape:cy="25"
   inkscape:window-x="1912"
   inkscape:window-y="-8"
   inkscape:window-maximized="1"
   inkscape:current-layer="Layer_1" />
<path
   style="fill:#59b4d9"
   inkscape:connector-curvature="0"
   id="path899"
   d="m 31.389664,35.018 c -3.538,2.705 -7.706,4.023 -11.845,4.023 -5.873,0 -11.68,-2.637 -15.518,-7.656 -6.557,-8.561 -4.93900001,-20.804 3.637,-27.365 3.537,-2.721 7.71,-4.02 11.844,-4.02 5.873,0 11.682,2.637 15.518,7.661 6.559,8.558 4.924,20.804 -3.636,27.357" /><path
   style="fill:#ffffff"
   inkscape:connector-curvature="0"
   id="path901"
   d="m 27.802664,22.944 c 1.418,1.849 4.05,2.184 5.889,0.784 0.096,-0.073 0.17,-0.162 0.258,-0.241 1.881,1.325 3.188,2.2 3.924,2.701 0.218,-0.565 0.369,-1.107 0.523,-1.673 -0.778,-0.579 -1.83,-1.389 -3.35,-2.621 0.499,-1.312 0.341,-2.843 -0.57,-4.038 -1.303,-1.687 -3.613,-2.116 -5.417,-1.075 -1.988,-1.784 -4.173,-3.828 -6.477,-6.117 7.158,-3.849 12.243,-3.286 12.243,-3.286 -0.849,-1.082 -1.8,-2.031 -2.816,-2.887 -3.018,-0.466 -7.707,-0.414 -13.065,2.436 l -0.002,-0.002 h -0.001 c -1.785,-1.871 -3.602,-3.874 -5.453,-6.025 -0.886,0.283 -1.751,0.634 -2.587,1.052 1.366,2.235 3.204,4.49 5.275,6.689 v 0 c 0.004,0.005 0.009,0.009 0.013,0.013 -1.727,1.207 -3.65,2.822 -5.423,4.698 -0.226,0.241 -0.444,0.484 -0.658,0.727 -1.06,-0.222 -2.174,-0.157 -3.215,0.22 -1.768,-3.815 -1.626,-6.88 -1.346,-8.46 -0.768,0.806 -1.485,1.651 -2.102,2.553 -0.462,1.886 -0.593,4.606 0.769,7.884 -1.577,2.063 -1.651,4.99 -0.004,7.148 0.137,0.179 0.284,0.345 0.437,0.504 -0.719,2.45 -1.041,4.813 -1.14,6.842 0.185,0.251 0.185,0.455 0.369,0.7 0.936,1.201 2.113,2.213 3.249,3.13 -0.141,-2.148 0.011,-5.315 1.339,-8.881 0.916,0.07 1.848,-0.075 2.72,-0.442 0.5,0.44 1.023,0.884 1.581,1.336 1.916,1.517 3.827,2.697 5.689,3.626 -0.097,0.947 0.141,1.932 0.756,2.747 1.316,1.699 3.753,2.016 5.454,0.718 0.354,-0.271 0.633,-0.598 0.865,-0.95 3.037,0.676 5.691,0.796 7.658,0.796 0.301,0 1.7,-1.902 2.501,-3.082 -1.198,0.251 -4.751,0.739 -9.606,-0.656 -0.117,-0.545 -0.341,-1.075 -0.701,-1.546 -1.233,-1.617 -3.488,-1.967 -5.169,-0.885 -1.688,-0.915 -3.455,-2.063 -5.278,-3.507 -0.368,-0.291 -0.721,-0.582 -1.061,-0.873 1.114,-1.755 1.232,-4.004 0.248,-5.896 0.223,-0.223 0.443,-0.448 0.68,-0.669 1.805,-1.686 3.503,-3.036 5.091,-4.119 -0.064,-0.059 -0.122,-0.122 -0.184,-0.182 0.063,0.059 0.123,0.119 0.187,0.177 -0.001,0 -0.001,0.001 -0.002,0.001 2.437,2.254 5.022,4.39 7.469,6.299 -0.647,1.372 -0.545,3.044 0.44,4.332 z" />
<circle
   cx="34.937664"
   cy="34.938"
   r="15.062"
   id="circle905"
   style="fill:#ffffff" />
<path
   d="m 20.991664,34.955 c 0,-7.712 6.244,-13.963 13.946,-13.963 7.702,0 13.946,6.251 13.946,13.963 0,7.712 -6.244,13.963 -13.946,13.963 -7.702,10e-4 -13.946,-6.251 -13.946,-13.963 z m 13.663,4.776 c -1.371,10e-4 -2.447,-0.094 -3.222,-0.29 -0.852,-0.216 -1.439,-0.688 -1.762,-1.416 -0.323,-0.728 -0.476,-1.849 -0.46,-3.361 0.007,-0.815 0.056,-1.605 0.148,-2.37 0.091,-0.765 0.183,-1.396 0.274,-1.895 l 0.096,-0.495 c 0.002,-0.015 0.003,-0.03 0.003,-0.045 0,-0.14 -0.102,-0.256 -0.235,-0.279 l -1.802,-0.279 c -0.015,-0.003 -0.03,-0.004 -0.045,-0.004 -0.134,0 -0.246,0.093 -0.276,0.218 -0.03,0.116 -0.049,0.201 -0.103,0.476 -0.104,0.529 -0.198,1.045 -0.303,1.789 -0.105,0.744 -0.173,1.567 -0.203,2.468 0,0 -0.044,0.201 0,1.727 0.044,1.526 0.306,2.746 0.787,3.658 0.481,0.912 1.297,1.569 2.447,1.969 1.151,0.4 2.752,0.596 4.805,0.588 h 0.267 c 2.053,0.009 3.654,-0.188 4.805,-0.588 1.151,-0.4 1.966,-1.057 2.447,-1.969 0.481,-0.912 0.743,-2.131 0.787,-3.658 0.044,-1.527 0,-1.727 0,-1.727 -0.031,-0.901 -0.098,-1.724 -0.203,-2.468 -0.105,-0.745 -0.199,-1.26 -0.303,-1.789 -0.054,-0.275 -0.073,-0.36 -0.102,-0.476 -0.03,-0.125 -0.142,-0.218 -0.276,-0.218 -0.015,0 -0.03,10e-4 -0.045,0.004 l -1.802,0.279 c -0.134,0.023 -0.235,0.139 -0.235,0.279 0,0.015 10e-4,0.03 0.004,0.045 l 0.096,0.495 c 0.091,0.498 0.182,1.13 0.274,1.895 0.091,0.764 0.141,1.554 0.148,2.37 0.016,1.512 -0.137,2.633 -0.46,3.361 -0.322,0.728 -0.91,1.2 -1.762,1.416 -0.774,0.197 -1.851,0.292 -3.221,0.29 z"
   id="path907"
   inkscape:connector-curvature="0"
   style="clip-rule:evenodd;fill:#ff6e00;fill-rule:evenodd" />
</svg>