<?xml version="1.0" encoding="utf-8"?>
<svg version="1.1" id="Layer_1" xmlns="http://www.w3.org/2000/svg" xmlns:xlink="http://www.w3.org/1999/xlink" x="0px" y="0px"
	 height="50px" width="50px" viewBox="0 0 180 180" enable-background="new 0 0 180 180" xml:space="preserve">
<path fill="#59B4D9" d="M118.8,132.5c-13.3,10.1-29.2,15.1-44.6,15.1c-22.3,0-44.3-10.1-58.7-28.8C-9.7,86.4-3.6,40,28.8,15.1
	C42.5,5,58,0,73.8,0c22.3,0,44.3,10.1,58.7,28.8C157.3,61.2,150.8,107.6,118.8,132.5"/>
<path fill="#FFFFFF" d="M132.5,82.8c1.8-5,1.4-10.8-2.2-15.1c-5-6.5-13.7-7.9-20.5-4c-7.6-6.8-15.8-14.4-24.5-23
	c26.3-14.4,45-13,46.1-13c-3.2-4-6.8-7.6-10.8-10.8c-11.5-1.8-29.2-1.4-49.3,9.4l0,0l0,0c-6.8-6.8-13.7-14.4-20.5-22.7
	c-3.2,1.1-6.5,2.5-9.7,4c5,8.3,11.9,16.9,19.8,25.2l0,0l0,0C54,37.4,47.2,43.2,40.3,50.4c-0.7,1.1-1.8,1.8-2.5,2.9
	c-4-0.7-8.3-0.7-12.2,0.7c-6.5-14.4-6.1-25.6-5-31.7c-2.5,3.2-5,6.5-7.6,9.7c-1.8,7.2-2.2,17.3,2.9,29.5c-6.1,7.9-6.1,18.7,0,27
	c0.4,0.7,1.1,1.4,1.8,1.8c-2.5,9-4,18-4.3,25.6c0.7,1.1,1.1,1.8,1.8,2.9c3.6,4.7,7.6,8.6,11.9,12.2c-0.4-8.3,0-20.2,5-33.5
	c3.6,0.4,6.8-0.4,10.4-1.8c1.8,1.8,4,3.2,6.1,5c7.2,5.8,14.4,10.1,21.6,13.7c-0.4,3.6,0.4,7.2,2.9,10.4c5,6.5,14,7.6,20.5,2.9
	c1.4-1.1,2.5-2.2,3.2-3.6c11.2,2.5,21.2,2.9,28.4,2.9c3.2-3.2,6.5-6.8,9-10.4l0,0c0.4-0.4,0.4-0.7,0.7-1.1c-4.7,1.1-18,2.9-36.4-2.5
	c-0.4-2.2-1.4-4-2.5-5.8c-4.7-6.1-13.3-7.6-19.4-3.2c-6.5-3.6-13-7.9-19.8-13.3c-1.4-1.1-2.9-2.2-4-3.2c4.3-6.5,4.7-15.1,1.1-22.3
	c0.7-0.7,1.8-1.8,2.5-2.5C63,56.9,70.2,51.1,76,47.2C85.3,55.8,95,63.7,104,70.9c-2.5,5-2.2,11.5,1.8,16.2
	c5.4,6.8,15.5,8.3,22.3,2.9c0.4-0.4,0.7-0.7,1.1-1.1c6.5,4.7,11.9,8.3,14.8,10.1c0.7-2.2,1.4-4.3,1.8-6.5
	C142.2,90.4,137.9,87.1,132.5,82.8z"/>
<g>
	<path fill="#7A7A7A" d="M161.6,93.2l-1.4,0.7L149,99.7l-7.6-3.2l-4.7-13.3H126l-0.7,1.4l-4,11.9l-7.6,3.2l-12.6-6.1l-7.6,7.9
		l0.7,1.4l5.8,11.2l-3.2,7.6l-13.3,4.7v11.2l1.4,0.4l11.9,4l3.2,7.6L94,162l7.9,7.9l1.4-0.7l11.2-5.8l7.6,3.2l4.7,13.3h11.2l0.4-1.4
		l4-11.9l7.6-3.2l13,6.1l7.9-7.9l-7.2-12.6l3.2-7.6l13.3-4.7V126l-1.4-0.7l-11.9-4l-3.2-7.6l5.4-11.5L161.6,93.2z M131.8,147.2
		c-8.6,0-15.5-6.8-15.5-15.5c0-8.6,6.8-15.5,15.5-15.5s15.5,6.8,15.5,15.5C147.2,140.4,140.4,147.2,131.8,147.2z"/>
</g>
<g>
	<path fill="none" d="M116.3,131.8c0,6.1,4,11.5,9.4,14l11.9-28.4c-1.8-0.7-3.6-1.1-5.8-1.1C123.1,116.3,116.3,123.1,116.3,131.8z"
		/>
	<path opacity="0.25" fill="#FFFFFF" enable-background="new    " d="M116.3,131.8c0-8.6,6.8-15.5,15.5-15.5c2.2,0,4,0.4,5.8,1.1
		l7.9-19.1l-3.6-1.4l-5-13.7H126l-0.7,1.4l-4,11.9l-7.6,3.2l-12.6-6.1l-7.6,7.9l0.7,1.4l5.8,11.2l-3.2,7.6l-13.3,4.7v11.2l1.4,0.4
		l11.9,4l3.2,7.6L94,162l7.9,7.9l1.4-0.7l11.2-5.8l3.2,1.4l7.9-19.1C120.2,143.3,116.3,137.9,116.3,131.8z"/>
</g>
<g>
	<path fill="#7A7A7A" d="M72.6,128.7l-0.9,0.4l-6.6,3.4l-4.5-1.9l-2.8-7.9h-6.4l-0.4,0.9l-2.3,7l-4.5,1.9l-7.4-3.6l-4.5,4.7l0.4,0.9
		l3.4,6.6l-1.9,4.5l-7.9,2.8v6.6l0.9,0.2l7,2.3l1.9,4.5l-3.6,7.4l4.7,4.7l0.9-0.4l6.6-3.4l4.5,1.9l2.8,7.9h6.6l0.2-0.9l2.3-7
		l4.5-1.9l7.7,3.6l4.7-4.7l-4.3-7.4l1.9-4.5l7.9-2.8v-6.4l-0.9-0.4l-7-2.3l-1.9-4.5l3.2-6.8L72.6,128.7z M54.9,160.6
		c-5.1,0-9.1-4-9.1-9.1c0-5.1,4-9.1,9.1-9.1s9.1,4,9.1,9.1C64,156.6,60,160.6,54.9,160.6z"/>
</g>
<g>
	<path fill="none" d="M45.8,151.5c0,3.6,2.3,6.8,5.5,8.3l7-16.8c-1.1-0.4-2.1-0.6-3.4-0.6C49.8,142.3,45.8,146.4,45.8,151.5z"/>
	<path opacity="0.25" fill="#FFFFFF" enable-background="new    " d="M45.8,151.5c0-5.1,4-9.1,9.1-9.1c1.3,0,2.3,0.2,3.4,0.6
		l4.7-11.3l-2.1-0.9l-3-8.1h-6.4l-0.4,0.9l-2.3,7l-4.5,1.9l-7.4-3.6l-4.5,4.7l0.4,0.9l3.4,6.6l-1.9,4.5l-7.9,2.8v6.6l0.9,0.2l7,2.3
		l1.9,4.5l-3.6,7.4l4.7,4.7l0.9-0.4l6.6-3.4l1.9,0.9l4.7-11.3C48.1,158.3,45.8,155.1,45.8,151.5z"/>
</g>
</svg>
