<?xml version="1.0" encoding="UTF-8" standalone="no"?>
<!-- Generator: Adobe Illustrator 17.0.1, SVG Export Plug-In . SVG Version: 6.00 Build 0)  -->

<svg
   xmlns:dc="http://purl.org/dc/elements/1.1/"
   xmlns:cc="http://creativecommons.org/ns#"
   xmlns:rdf="http://www.w3.org/1999/02/22-rdf-syntax-ns#"
   xmlns:svg="http://www.w3.org/2000/svg"
   xmlns="http://www.w3.org/2000/svg"
   xmlns:sodipodi="http://sodipodi.sourceforge.net/DTD/sodipodi-0.dtd"
   xmlns:inkscape="http://www.inkscape.org/namespaces/inkscape"
   version="1.1"
   id="Layer_1"
   x="0px"
   y="0px"
   width="50"
   height="41.611"
   viewBox="0 0 50 41.611"
   enable-background="new 0 0 50 50"
   xml:space="preserve"
   sodipodi:docname="WebEnvironment.svg"
   inkscape:version="0.92.3 (2405546, 2018-03-11)"><metadata
   id="metadata2807"><rdf:RDF><cc:Work
       rdf:about=""><dc:format>image/svg+xml</dc:format><dc:type
         rdf:resource="http://purl.org/dc/dcmitype/StillImage" /><dc:title></dc:title></cc:Work></rdf:RDF></metadata><defs
   id="defs2805" /><sodipodi:namedview
   pagecolor="#ffffff"
   bordercolor="#666666"
   borderopacity="1"
   objecttolerance="10"
   gridtolerance="10"
   guidetolerance="10"
   inkscape:pageopacity="0"
   inkscape:pageshadow="2"
   inkscape:window-width="1920"
   inkscape:window-height="1017"
   id="namedview2803"
   showgrid="false"
   fit-margin-top="0"
   fit-margin-left="0"
   fit-margin-right="0"
   fit-margin-bottom="0"
   inkscape:zoom="17"
   inkscape:cx="25"
   inkscape:cy="21"
   inkscape:window-x="1912"
   inkscape:window-y="-8"
   inkscape:window-maximized="1"
   inkscape:current-layer="Layer_1" />
<polygon
   points="6,32.012 44,32.012 50,43.012 0,43.012 "
   id="polygon2792"
   style="fill:#b8d432"
   transform="translate(0,-4.389)" />
<path
   d="m 35.387,30.374 c -3.069,2.347 -6.684,3.489 -10.274,3.489 -5.094,0 -10.131,-2.287 -13.46,-6.64 C 5.966,19.797 7.37,9.177 14.809,3.487 17.876,1.126 21.496,0 25.082,0 c 5.094,0 10.132,2.287 13.46,6.645 5.688,7.423 4.27,18.045 -3.155,23.729"
   id="path2794"
   inkscape:connector-curvature="0"
   style="fill:#59b4d9" />
<path
   d="m 32.276,19.9 c 1.23,1.604 3.513,1.894 5.108,0.68 0.083,-0.063 0.148,-0.141 0.224,-0.209 1.632,1.149 2.901,2.001 3.54,2.436 0.189,-0.49 0.315,-0.954 0.449,-1.445 C 40.922,20.86 39.879,20.059 38.56,18.99 38.993,17.852 38.856,16.525 38.066,15.487 36.936,14.024 34.933,13.652 33.368,14.554 31.643,13.007 29.749,11.234 27.751,9.248 33.959,5.909 38.37,6.398 38.37,6.398 37.634,5.459 36.808,4.637 35.927,3.894 33.309,3.49 29.242,3.535 24.595,6.007 L 24.593,6.005 h -0.001 c -1.549,-1.621 -3.125,-3.358 -4.73,-5.224 -0.768,0.246 -1.519,0.55 -2.244,0.912 1.185,1.939 2.779,3.894 4.575,5.802 v 0 c 0.007,0.007 0.014,0.014 0.021,0.021 -1.491,1.046 -3.188,2.452 -4.713,4.065 -0.196,0.209 -0.385,0.42 -0.571,0.631 -0.919,-0.192 -1.886,-0.136 -2.789,0.191 -1.534,-3.309 -1.411,-5.967 -1.168,-7.337 -0.666,0.698 -1.288,1.431 -1.824,2.213 -0.4,1.637 -0.514,3.996 0.667,6.839 -1.368,1.79 -1.432,4.328 -0.004,6.2 0.119,0.155 0.246,0.299 0.379,0.437 -0.624,2.125 -0.903,4.175 -0.989,5.935 0.161,0.218 0.161,0.394 0.32,0.607 0.812,1.042 1.839,2.027 2.824,2.822 -0.122,-1.862 0.003,-4.717 1.155,-7.81 0.795,0.06 1.603,-0.065 2.359,-0.383 0.434,0.382 0.887,0.767 1.372,1.159 1.661,1.315 3.319,2.339 4.935,3.145 -0.084,0.822 0.122,1.676 0.656,2.383 1.141,1.474 3.255,1.749 4.73,0.622 0.307,-0.235 0.549,-0.519 0.75,-0.824 2.635,0.587 4.936,0.69 6.643,0.69 0.261,0 1.475,-1.65 2.17,-2.673 -1.039,0.218 -4.121,0.641 -8.332,-0.569 -0.102,-0.472 -0.296,-0.932 -0.608,-1.341 -1.07,-1.402 -3.026,-1.705 -4.483,-0.767 -1.464,-0.794 -2.997,-1.789 -4.578,-3.041 -0.319,-0.252 -0.625,-0.505 -0.92,-0.757 0.966,-1.522 1.069,-3.473 0.216,-5.114 0.194,-0.194 0.384,-0.388 0.59,-0.581 1.565,-1.462 3.038,-2.633 4.416,-3.573 -0.042,-0.038 -0.078,-0.114 -0.118,-0.153 0.041,0.038 0.079,0.08 0.12,0.08 h -0.001 c 2.114,2 4.356,3.843 6.479,5.498 -0.563,1.189 -0.475,2.674 0.379,3.79 z"
   id="path2796"
   inkscape:connector-curvature="0"
   style="fill:#ffffff" />
<rect
   y="38.611"
   width="50"
   height="3"
   id="rect2798"
   x="0"
   style="fill:#7a7a7a" />
<rect
   y="38.611"
   width="50"
   height="3"
   id="rect2800"
   x="0"
   style="opacity:0.5;fill:#dd5900" />
</svg>