<?xml version="1.0" encoding="utf-8"?>
<!-- Generator: Adobe Illustrator 17.0.1, SVG Export Plug-In . SVG Version: 6.00 Build 0)  -->
<!DOCTYPE svg PUBLIC "-//W3C//DTD SVG 1.1//EN" "http://www.w3.org/Graphics/SVG/1.1/DTD/svg11.dtd">
<svg version="1.1" id="Layer_1" xmlns="http://www.w3.org/2000/svg" xmlns:xlink="http://www.w3.org/1999/xlink" x="0px" y="0px"
	 width="50px" height="50px" viewBox="0 0 50 50" enable-background="new 0 0 50 50" xml:space="preserve">
<path fill="#3E3E3E" d="M29.364,47.462c0,1.402-1.136,2.538-2.538,2.538H2.538C1.136,50,0,48.864,0,47.462V2.538
	C0,1.136,1.136,0,2.538,0h24.288c1.402,0,2.538,1.136,2.538,2.538V47.462z"/>
<path fill="#1E1E1E" d="M4.316,27.024c0-1.762,1.429-3.191,3.191-3.191h14.614c1.762,0,3.191,1.429,3.191,3.191l0,0
	c0,1.762-1.429,3.191-3.191,3.191H7.507C5.745,30.215,4.316,28.787,4.316,27.024L4.316,27.024z"/>
<circle fill="#B8D432" cx="7.643" cy="27.024" r="2.142"/>
<path fill="#1E1E1E" d="M4.316,17.545c0-1.762,1.429-3.191,3.191-3.191h14.614c1.762,0,3.191,1.429,3.191,3.191l0,0
	c0,1.762-1.429,3.191-3.191,3.191H7.507C5.745,20.736,4.316,19.307,4.316,17.545L4.316,17.545z"/>
<circle fill="#B8D432" cx="7.643" cy="17.545" r="2.142"/>
<path fill="#1E1E1E" d="M4.316,8.065c0-1.762,1.429-3.191,3.191-3.191h14.614c1.762,0,3.191,1.429,3.191,3.191l0,0
	c0,1.762-1.429,3.191-3.191,3.191H7.507C5.745,11.257,4.316,9.828,4.316,8.065L4.316,8.065z"/>
<circle fill="#B8D432" cx="7.643" cy="8.065" r="2.142"/>
<path fill="#59B4D9" d="M49.949,45.373c0-2.555-2.051-4.626-4.585-4.626c-0.191,0-0.379,0.015-0.559,0.04
	c0.28-1.039,0.434-2.132,0.434-3.261c0-6.81-5.475-12.331-12.227-12.331c-5.395,0-9.969,3.523-11.594,8.413
	c-0.856-0.301-1.772-0.471-2.73-0.471c-4.619,0-8.357,3.775-8.357,8.43c0,4.658,3.738,8.433,8.357,8.433
	c0,0,0.008-0.003,0.012-0.003V50h27.036l-0.005-0.023C48.09,49.791,49.949,47.804,49.949,45.373"/>
<path opacity="0.2" fill="#FFFFFF" d="M23.128,50c-1.099-1.092-1.918-2.496-2.29-4.123c-1.036-4.538,1.768-9.051,6.271-10.079
	c0.934-0.213,1.864-0.252,2.766-0.149c0.409-4.24,2.995-8.011,6.848-9.872c-1.171-0.376-2.417-0.583-3.712-0.583
	c-5.395,0-9.969,3.523-11.594,8.413c-0.856-0.301-1.771-0.471-2.73-0.471c-4.619,0-8.357,3.775-8.357,8.43
	c0,4.658,3.738,8.433,8.357,8.433c0,0,0.008-0.003,0.012-0.003V50H23.128z"/>
</svg>
