<?xml version="1.0" encoding="UTF-8" standalone="no"?>
<svg
   xmlns:dc="http://purl.org/dc/elements/1.1/"
   xmlns:cc="http://creativecommons.org/ns#"
   xmlns:rdf="http://www.w3.org/1999/02/22-rdf-syntax-ns#"
   xmlns:svg="http://www.w3.org/2000/svg"
   xmlns="http://www.w3.org/2000/svg"
   xmlns:sodipodi="http://sodipodi.sourceforge.net/DTD/sodipodi-0.dtd"
   xmlns:inkscape="http://www.inkscape.org/namespaces/inkscape"
   width="255.0695"
   height="237.46112"
   viewBox="0 0 255.0695 237.46112"
   version="1.1"
   preserveAspectRatio="xMidYMid"
   id="svg2"
   inkscape:version="0.91 r13725"
   sodipodi:docname="webhooks color.svg">
  <metadata
     id="metadata16">
    <rdf:RDF>
      <cc:Work
         rdf:about="">
        <dc:format>image/svg+xml</dc:format>
        <dc:type
           rdf:resource="http://purl.org/dc/dcmitype/StillImage" />
        <dc:title></dc:title>
      </cc:Work>
    </rdf:RDF>
  </metadata>
  <defs
     id="defs14" />
  <sodipodi:namedview
     pagecolor="#ffffff"
     bordercolor="#666666"
     borderopacity="1"
     objecttolerance="10"
     gridtolerance="10"
     guidetolerance="10"
     inkscape:pageopacity="0"
     inkscape:pageshadow="2"
     inkscape:window-width="1920"
     inkscape:window-height="1018"
     id="namedview12"
     showgrid="false"
     fit-margin-top="0"
     fit-margin-left="0"
     fit-margin-right="0"
     fit-margin-bottom="0"
     inkscape:zoom="3.3596365"
     inkscape:cx="127.99886"
     inkscape:cy="118.93292"
     inkscape:window-x="-8"
     inkscape:window-y="-8"
     inkscape:window-maximized="1"
     inkscape:current-layer="svg2" />
  <g
     id="g4"
     transform="translate(-0.00114474,-0.97179992)">
    <path
       d="M 119.54043,100.50274 C 108.93012,118.33881 98.76463,135.61145 88.387602,152.75362 85.72267,157.15431 84.404042,160.73853 86.53322,166.33331 92.410702,181.78715 84.11936,196.82584 68.535038,200.90824 53.838368,204.75935 39.519295,195.09995 36.603289,179.36538 34.019411,165.43775 44.827415,151.78491 60.182411,149.60828 61.469407,149.42443 62.782104,149.40268 64.944891,149.24057 72.469175,136.62366 80.177316,123.70031 88.302593,110.07317 73.611854,95.465466 64.86779,78.388544 66.803227,57.229213 68.171279,42.271585 74.052715,29.346265 84.803386,18.751772 105.39335,-1.535722 136.80516,-4.8214183 161.04854,10.751042 184.3331,25.708671 194.99678,54.845007 185.90675,79.782296 179.05265,77.92396 172.15111,76.049808 164.56356,73.9918 167.41828,60.127427 165.3069,47.676575 155.95591,37.010912 149.77793,29.969005 141.85035,26.278033 132.83544,24.917889 114.76411,22.187717 97.020957,33.798363 91.756331,51.535588 85.780001,71.666903 94.824562,88.1112 119.54043,100.50274 L 119.54043,100.50274 Z"
       id="path6"
       inkscape:connector-curvature="0"
       style="fill:#c73a63" />
    <path
       d="M 149.84119,79.410629 C 157.31605,92.596907 164.90558,105.98286 172.42788,119.24624 210.44865,107.48337 239.11447,128.53001 249.39858,151.06332 261.81978,178.28201 253.32876,210.52019 228.93316,227.31243 203.89307,244.55146 172.22624,241.6058 150.04087,219.46195 155.69495,214.72912 161.37672,209.97455 167.44794,204.89576 189.36049,219.08831 208.52507,218.4201 222.75321,201.61402 234.88577,187.27715 234.62283,165.90036 222.13837,151.86399 207.73034,135.66681 188.43132,135.17257 165.10327,150.72131 155.42609,133.55345 145.58086,116.522 136.2101,99.229585 133.05093,93.401527 129.56161,90.020937 122.44062,88.787318 110.54727,86.725356 102.86879,76.512415 102.40815,65.06981 101.95543,53.753729 108.62172,43.524973 119.04224,39.539436 129.36391,35.59146 141.4767,38.778309 148.41976,47.554004 154.09362,54.724413 155.8966,62.794336 152.9114,71.637248 152.08108,74.102509 151.00562,76.488692 149.84119,79.410629 L 149.84119,79.410629 Z"
       id="path8"
       inkscape:connector-curvature="0"
       style="fill:#4b4b4b" />
    <path
       d="M 167.70692,187.20993 121.9365,187.20993 C 117.54964,205.25359 108.0741,219.82176 91.746446,229.08576 79.054406,236.28582 65.37389,238.72736 50.813629,236.37676 24.006143,232.05316 2.0856857,207.9205 0.15617931,180.7453 -2.028354,149.96216 19.130976,122.59915 47.334192,116.4528 49.28149,123.52436 51.248559,130.66314 53.195858,137.71691 27.319517,150.919 18.363919,167.55309 25.605498,188.35261 31.981173,206.65722 50.090064,216.69026 69.752841,212.8095 89.832755,208.84769 99.956733,192.16023 98.721137,165.37844 117.75722,165.37844 136.80912,165.18074 155.84718,165.47531 163.28052,165.59195 169.01962,164.82094 174.62033,158.26734 183.84084,147.48306 200.811,148.45572 210.74124,158.64098 220.88894,169.04964 220.40261,185.79839 209.6638,195.76817 199.30259,205.38802 182.93341,204.87401 173.24041,194.50885 171.24764,192.37176 169.67794,189.83533 167.70692,187.20993 L 167.70692,187.20993 Z"
       id="path10"
       inkscape:connector-curvature="0"
       style="fill:#4a4a4a" />
  </g>
</svg>
