<?xml version="1.0" encoding="UTF-8" standalone="no"?>
<!-- Generator: Adobe Illustrator 17.1.0, SVG Export Plug-In . SVG Version: 6.00 Build 0)  -->

<svg
   xmlns:dc="http://purl.org/dc/elements/1.1/"
   xmlns:cc="http://creativecommons.org/ns#"
   xmlns:rdf="http://www.w3.org/1999/02/22-rdf-syntax-ns#"
   xmlns:svg="http://www.w3.org/2000/svg"
   xmlns="http://www.w3.org/2000/svg"
   xmlns:sodipodi="http://sodipodi.sourceforge.net/DTD/sodipodi-0.dtd"
   xmlns:inkscape="http://www.inkscape.org/namespaces/inkscape"
   version="1.1"
   id="Layer_1"
   x="0px"
   y="0px"
   height="45.705414"
   width="50.14003"
   viewBox="0 0 50.14003 45.705414"
   enable-background="new 0 0 50 50"
   xml:space="preserve"
   sodipodi:docname="WebNetwork.svg"
   inkscape:version="0.92.3 (2405546, 2018-03-11)"><metadata
   id="metadata3059"><rdf:RDF><cc:Work
       rdf:about=""><dc:format>image/svg+xml</dc:format><dc:type
         rdf:resource="http://purl.org/dc/dcmitype/StillImage" /><dc:title></dc:title></cc:Work></rdf:RDF></metadata><defs
   id="defs3057" /><sodipodi:namedview
   pagecolor="#ffffff"
   bordercolor="#666666"
   borderopacity="1"
   objecttolerance="10"
   gridtolerance="10"
   guidetolerance="10"
   inkscape:pageopacity="0"
   inkscape:pageshadow="2"
   inkscape:window-width="1920"
   inkscape:window-height="1017"
   id="namedview3055"
   showgrid="false"
   fit-margin-top="0"
   fit-margin-left="0"
   fit-margin-right="0"
   fit-margin-bottom="0"
   inkscape:zoom="17"
   inkscape:cx="25.040029"
   inkscape:cy="22.705413"
   inkscape:window-x="1912"
   inkscape:window-y="-8"
   inkscape:window-maximized="1"
   inkscape:current-layer="Layer_1" />
<path
   d="m 33.140029,37 c -3.7,2.9 -8.1,4.2 -12.5,4.2 -6.2,0 -12.3000001,-2.8 -16.4000001,-8.1 -6.9,-9 -5.2,-22 3.8,-28.9 C 11.840029,1.4 16.240029,0 20.640029,0 c 6.2,0 12.3,2.8 16.4,8.1 6.9,9 5.2,22 -3.9,28.9"
   id="path3046"
   inkscape:connector-curvature="0"
   style="fill:#59b4d9" />
<path
   d="m 29.440029,24.2 c 1.5,2 4.3,2.3 6.2,0.8 0.1,-0.1 0.2,-0.2 0.3,-0.3 2,1.4 3.5,2.4 4.3,3 0.2,-0.6 0.4,-1.2 0.5,-1.8 -0.8,-0.6 -2.1,-1.6 -3.7,-2.9 0.5,-1.4 0.4,-3 -0.6,-4.3 -1.4,-1.8 -3.8,-2.2 -5.7,-1.1 -2.1,-1.9 -4.4,-4 -6.8,-6.5 7.6,-4.1 12.9,-3.5 12.9,-3.5 -0.9,-1.1 -1.9,-2.1 -3,-3 -3.2,-0.4 -8.1,-0.3 -13.8,2.7 v 0 0 c -1.9,-2 -3.8,-4.1 -5.8,-6.4 -0.9,0.3 -1.8,0.7 -2.7,1.1 1.4,2.3 3.4,4.7 5.5,7 -1.8,1.3 -3.8,3 -5.7,5 -0.2,0.3 -0.5,0.5 -0.7,0.8 -1.1000001,-0.2 -2.3000001,-0.2 -3.4000001,0.2 -1.9,-4 -1.7,-7.3 -1.4,-8.9 -0.8,0.9 -1.5,1.8 -2.2,2.8 -0.5,2 -0.6,4.9 0.8,8.3 -1.7,2.2 -1.7,5.3 0,7.5 0.1,0.2 0.3,0.4 0.5,0.5 -0.8,2.6 -1.1,5.1 -1.2,7.2 0.2,0.3 0.2,0.5 0.4,0.7 1,1.3 2.2,2.5 3.4,3.4 -0.1,-2.3 0,-5.7 1.4,-9.5 1,0.1 2.0000001,-0.1 2.9000001,-0.5 0.5,0.5 1.1,0.9 1.7,1.4 2,1.6 4,2.8 6,3.8 -0.1,1 0.1,2 0.8,2.9 1.4,1.8 4,2.1 5.8,0.8 0.4,-0.3 0.7,-0.6 0.9,-1 3.2,0.7 6,0.8 8.1,0.8 0.3,0 1.8,-2 2.6,-3.3 -1.3,0.3 -5,0.8 -10.1,-0.7 -0.1,-0.6 -0.4,-1.1 -0.7,-1.6 -1.3,-1.7 -3.7,-2.1 -5.5,-0.9 -1.8,-1 -3.6,-2.2 -5.6,-3.7 -0.4,-0.3 -0.8,-0.6 -1.1,-0.9 1.2,-1.9 1.3,-4.2 0.3,-6.2 0.2,-0.2 0.5,-0.5 0.7,-0.7 1.9,-1.8 3.7,-3.2 5.4,-4.3 -0.1,-0.1 -0.1,-0.1 -0.2,-0.2 0.1,0.1 0.1,0.1 0.2,0.2 v 0 c 2.6,2.4 5.3,4.6 7.9,6.7 -0.8,1.5 -0.7,3.3 0.4,4.6 z"
   id="path3048"
   inkscape:connector-curvature="0"
   style="fill:#ffffff" />
<path
   d="m 45.040029,43 v -3.1 c 0,-1.5 -1.3,-2.8 -2.8,-2.8 h -3.7 l -3.5,-3.5 v -5.4 h -3.8 v 6 c 0,0.5 0.3,1 0.5,1.4 l 4.5,4.4 v 2.9 c 0,1.5 1.3,2.8 2.8,2.8 h 3.2 c 1.5,0.1 2.8,-1.2 2.8,-2.7 m -6.1,0.3 c -0.1,0 -0.3,-0.1 -0.3,-0.3 v -3.1 c 0,-0.1 0.1,-0.3 0.3,-0.3 h 3.2 c 0.1,0 0.3,0.1 0.3,0.3 V 43 c 0,0.1 -0.1,0.3 -0.3,0.3 z"
   id="path3050"
   inkscape:connector-curvature="0"
   style="fill:#804998" />
<path
   d="m 28.740029,28.2 h 0.3 v 0 h 12 v 0 h 0.3 c 0.1,1.4 1.4,2.5 2.8,2.5 h 3.2 c 1.5,0 2.8,-1.3 2.8,-2.8 v -3.1 c 0,-1.5 -1.3,-2.8 -2.8,-2.8 h -3.2 c -1.5,0 -2.6,1.1 -2.8,2.5 h -12.6 c -0.1,-1.4 -1.4,-2.5 -2.8,-2.5 h -3.2 c -1.5,0 -2.8,1.3 -2.8,2.8 v 3.1 c 0,1.5 1.3,2.8 2.8,2.8 h 3.2 c 1.5,0 2.7,-1.1 2.8,-2.5 m 15.4,-3.8 h 3.2 c 0.1,0 0.3,0.1 0.3,0.3 v 3.1 c 0,0.1 -0.1,0.3 -0.3,0.3 h -3.2 c -0.1,0 -0.3,-0.1 -0.3,-0.3 v -3.1 c 0,-0.2 0.2,-0.3 0.3,-0.3 m -21.6,3.8 c -0.1,0 -0.3,-0.1 -0.3,-0.3 v -3.1 c 0,-0.1 0.1,-0.3 0.3,-0.3 h 3.2 c 0.1,0 0.3,0.1 0.3,0.3 v 3.1 c 0,0.1 -0.1,0.3 -0.3,0.3 z"
   id="path3052"
   inkscape:connector-curvature="0"
   style="fill:#68217a" />
</svg>