<?xml version="1.0" encoding="utf-8"?>
<!-- Generator: Adobe Illustrator 17.1.0, SVG Export Plug-In . SVG Version: 6.00 Build 0)  -->
<!DOCTYPE svg PUBLIC "-//W3C//DTD SVG 1.1//EN" "http://www.w3.org/Graphics/SVG/1.1/DTD/svg11.dtd">
<svg version="1.1" id="Layer_1" xmlns="http://www.w3.org/2000/svg" xmlns:xlink="http://www.w3.org/1999/xlink" x="0px" y="0px"
	 viewBox="0 0 50 50" enable-background="new 0 0 50 50" xml:space="preserve">
<path fill="#59B4D9" d="M34.9,38.9c-3.9,3-8.6,4.5-13.2,4.5c-6.5,0-13-2.9-17.2-8.5c-7.3-9.5-5.5-23.1,4-30.4
	c3.9-3,8.6-4.5,13.2-4.5c6.5,0,13,2.9,17.2,8.5C46.2,18,44.4,31.6,34.9,38.9"/>
<path fill="#59B4D9" d="M34.9,38.9c-3.9,3-8.6,4.5-13.2,4.5c-6.5,0-13-2.9-17.2-8.5c-7.3-9.5-5.5-23.1,4-30.4
	c3.9-3,8.6-4.5,13.2-4.5c6.5,0,13,2.9,17.2,8.5C46.2,18,44.4,31.6,34.9,38.9"/>
<path fill="#FFFFFF" d="M30.9,25.5c1.6,2.1,4.5,2.4,6.5,0.9c0.1-0.1,0.2-0.2,0.3-0.3c2.1,1.5,3.7,2.6,4.5,3.1
	c0.2-0.6,0.4-1.2,0.6-1.9c-0.9-0.6-2.2-1.7-3.9-3c0.6-1.5,0.4-3.2-0.6-4.5c-1.4-1.9-4-2.4-6-1.2c-2.2-2-4.6-4.3-7.2-6.8
	c8-4.3,13.6-3.7,13.6-3.7c-0.9-1.2-2-2.3-3.1-3.2C32.2,4.5,27,4.5,21.1,7.7l0,0l0,0c-2-2.1-4-4.3-6.1-6.7c-1,0.3-1.9,0.7-2.9,1.2
	c1.5,2.5,3.6,5,5.9,7.4h0c0.1,0.1,0.2,0.2,0.3,0.3c-0.1-0.1-0.2-0.2-0.3-0.3c-2,1.4-4,3.1-6,5.2c-0.3,0.3-0.5,0.5-0.7,0.8
	c-1.2-0.2-2.4-0.2-3.6,0.2c-2-4.2-1.8-7.6-1.5-9.4C5.3,7.4,4.5,8.3,3.8,9.3c-0.5,2.1-0.7,5.1,0.9,8.8c-1.8,2.3-1.8,5.5,0,7.9
	c0.2,0.2,0.3,0.4,0.5,0.6c-0.8,2.7-1.2,5.4-1.3,7.6c0.2,0.3,0.2,0.5,0.4,0.8c1,1.3,2.4,2.6,3.6,3.6c-0.2-2.4,0-6,1.5-10
	c1,0.1,2.1-0.1,3-0.5c0.6,0.5,1.1,1,1.8,1.5c2.1,1.7,4.3,3,6.3,4c-0.1,1.1,0.2,2.1,0.8,3.1c1.5,1.9,4.2,2.2,6.1,0.8
	c0.4-0.3,0.7-0.7,1-1.1c3.4,0.8,6.3,0.9,8.5,0.9c0.3,0,1.9-2.1,2.8-3.4c-1.3,0.3-5.3,0.8-10.7-0.7c-0.1-0.6-0.4-1.2-0.8-1.7
	c-1.4-1.8-3.9-2.2-5.7-1c-1.9-1-3.8-2.3-5.9-3.9c-0.4-0.3-0.8-0.6-1.2-1c1.2-2,1.4-4.5,0.3-6.6c0.2-0.2,0.5-0.5,0.8-0.7
	c1.9-1.8,4-3.4,5.7-4.5c2.7,2.5,5.6,4.9,8.3,7C29.7,22.2,29.8,24.1,30.9,25.5z"/>
<path fill="#7A7A7A" d="M50,38.4v-3l-0.4-0.1l-3.2-1l-0.8-2l1.6-3.4l-2.1-2.1l-0.4,0.2l-3,1.5l-2-0.8l-1.3-3.6h-3l-0.1,0.4l-1,3.2
	l-2,0.8l-3.4-1.6l-2.1,2.1l0.2,0.4l1.5,3l-0.8,2L24,35.6v3l0.4,0.1l3.2,1l0.8,2l-1.6,3.4l2.1,2.1l0.4-0.2l3-1.5l2,0.8l1.3,3.6h3
	l0.1-0.4l1-3.2l2-0.8l3.4,1.6l2.1-2.1l-0.2-0.4l-1.5-3l0.8-2L50,38.4z M37,41.7c-2.6,0-4.7-2.1-4.7-4.7c0-2.6,2.1-4.7,4.7-4.7
	c2.6,0,4.7,2.1,4.7,4.7C41.7,39.6,39.6,41.7,37,41.7z"/>
</svg>
