<?xml version="1.0" encoding="utf-8"?>
<!-- Generator: Adobe Illustrator 17.1.0, SVG Export Plug-In . SVG Version: 6.00 Build 0)  -->
<!DOCTYPE svg PUBLIC "-//W3C//DTD SVG 1.1//EN" "http://www.w3.org/Graphics/SVG/1.1/DTD/svg11.dtd">
<svg version="1.1" id="Layer_1" xmlns="http://www.w3.org/2000/svg" xmlns:xlink="http://www.w3.org/1999/xlink" x="0px" y="0px"
	 viewBox="0 0 50 50" enable-background="new 0 0 50 50" xml:space="preserve">
<path fill="#7A7A7A" d="M35.3,39.3c-4,3-8.7,4.5-13.3,4.5c-6.6,0-13.1-3-17.4-8.6C-2.8,25.6-1,11.9,8.6,4.5c4-3.1,8.7-4.5,13.3-4.5
	C28.5,0,35,3,39.3,8.6C46.7,18.2,44.9,32,35.3,39.3"/>
<g opacity="0.5">
	<path fill="#E5E5E5" d="M29.3,33.5c-0.1-0.6-0.4-1.2-0.8-1.7c-1.4-1.8-3.9-2.2-5.8-1c-1.9-1-3.9-2.3-5.9-3.9
		c-0.4-0.3-0.8-0.7-1.2-1c1.3-2,1.4-4.5,0.3-6.6c0.3-0.3,0.5-0.5,0.8-0.8c2-1.9,3.9-3.4,5.7-4.6c-1.5-1.4-2.9-2.7-4.2-4.1
		c-2,1.4-4,3.1-6.1,5.3c-0.3,0.3-0.5,0.5-0.7,0.8c-1.2-0.2-2.4-0.2-3.6,0.2c-2-4.3-1.8-7.7-1.5-9.5C5.4,7.5,4.6,8.4,3.9,9.4
		c-0.5,2.1-0.7,5.2,0.9,8.9c-1.8,2.3-1.9,5.6,0,8c0.2,0.2,0.3,0.4,0.5,0.6c-0.8,2.8-1.2,5.4-1.3,7.7c0.2,0.3,0.2,0.5,0.4,0.8
		C5.4,36.7,6.7,38,8,39c-0.2-2.4,0-6.1,1.5-10.1c1,0.1,2.1-0.1,3.1-0.5c0.6,0.5,1.1,1,1.8,1.5c2.2,1.7,4.3,3,6.4,4.1
		c-0.1,1.1,0.2,2.2,0.8,3.1c1.5,1.9,4.2,2.3,6.1,0.8c0.4-0.3,0.7-0.7,1-1.1c3.4,0.8,6.4,0.9,8.6,0.9c0.3,0,1.9-2.1,2.8-3.5
		C38.7,34.5,34.8,35.1,29.3,33.5z"/>
	<path fill="#E5E5E5" d="M39.4,24.6c0.6-1.5,0.4-3.2-0.6-4.5c-1.5-1.9-4.1-2.4-6.1-1.2c-2.2-2-4.7-4.3-7.3-6.9
		c8-4.3,13.8-3.7,13.8-3.7c-1-1.2-2-2.3-3.2-3.2c-3.4-0.5-8.7-0.5-14.7,2.7l0,0l0,0c-2-2.1-4-4.3-6.1-6.8c-1,0.3-2,0.7-2.9,1.2
		c1.5,2.5,3.6,5,5.9,7.5h0c1.3,1.4,2.7,2.8,4.2,4.1c0,0,0,0,0,0c2.7,2.5,5.6,4.9,8.4,7.1c-0.7,1.5-0.6,3.4,0.5,4.9
		c1.6,2.1,4.5,2.5,6.6,0.9c0.1-0.1,0.2-0.2,0.3-0.3c2.1,1.5,3.8,2.6,4.6,3.2c0.2-0.6,0.4-1.2,0.6-1.9C42.4,27,41.1,26,39.4,24.6z"/>
</g>
<path opacity="0.3" fill="#1E1E1E" d="M40.6,43.9c-3.2,2.4-6.9,3.6-10.6,3.6c-5.3,0-10.5-2.4-13.9-6.9c-5.9-7.7-4.4-18.7,3.3-24.6
	c3.2-2.4,6.9-3.6,10.6-3.6c5.3,0,10.5,2.4,13.9,6.9C49.8,27,48.3,38,40.6,43.9"/>
<path fill="#59B4D9" d="M43.1,46.4c-3.2,2.4-6.9,3.6-10.6,3.6c-5.3,0-10.5-2.4-13.9-6.9c-5.9-7.7-4.4-18.7,3.3-24.6
	c3.2-2.4,6.9-3.6,10.6-3.6c5.3,0,10.5,2.4,13.9,6.9C52.3,29.5,50.8,40.5,43.1,46.4"/>
<g>
	<path fill="#FFFFFF" d="M38.3,41.7c-0.1-0.5-0.3-1-0.6-1.4c-1.1-1.5-3.1-1.8-4.6-0.8c-1.5-0.8-3.1-1.9-4.7-3.2
		c-0.3-0.3-0.6-0.5-1-0.8c1-1.6,1.1-3.6,0.2-5.3c0.2-0.2,0.4-0.4,0.6-0.6c1.6-1.5,3.1-2.7,4.6-3.7c-1.2-1.1-2.3-2.2-3.3-3.3
		c-1.6,1.1-3.2,2.5-4.9,4.2c-0.2,0.2-0.4,0.4-0.6,0.7c-1-0.2-2-0.1-2.9,0.2c-1.6-3.4-1.5-6.2-1.2-7.6c-0.7,0.7-1.3,1.5-1.9,2.3
		c-0.4,1.7-0.5,4.1,0.7,7.1c-1.4,1.9-1.5,4.5,0,6.4c0.1,0.2,0.3,0.3,0.4,0.5c-0.6,2.2-0.9,4.3-1,6.1c0.2,0.2,0.2,0.4,0.3,0.6
		c0.8,1.1,1.9,2.1,2.9,2.9c-0.1-1.9,0-4.9,1.2-8.1c0.8,0.1,1.7-0.1,2.4-0.4c0.4,0.4,0.9,0.8,1.4,1.2c1.7,1.4,3.4,2.4,5.1,3.3
		c-0.1,0.9,0.1,1.7,0.7,2.5c1.2,1.5,3.4,1.8,4.9,0.6c0.3-0.2,0.6-0.5,0.8-0.9c2.7,0.6,5.1,0.7,6.9,0.7c0.3,0,1.5-1.7,2.2-2.8
		C45.9,42.5,42.7,43,38.3,41.7z"/>
	<path fill="#FFFFFF" d="M46.4,34.6c0.4-1.2,0.3-2.6-0.5-3.6c-1.2-1.5-3.2-1.9-4.9-1c-1.8-1.6-3.7-3.4-5.8-5.5c6.4-3.5,11-3,11-3
		c-0.8-1-1.6-1.8-2.5-2.6c-2.7-0.4-6.9-0.4-11.7,2.2l0,0l0,0c-1.6-1.7-3.2-3.5-4.9-5.4c-0.8,0.3-1.6,0.6-2.3,0.9c1.2,2,2.9,4,4.7,6
		h0c1,1.1,2.2,2.2,3.3,3.3c0,0,0,0,0,0c2.2,2,4.5,3.9,6.7,5.7c-0.6,1.2-0.5,2.7,0.4,3.9c1.3,1.7,3.6,2,5.3,0.7
		c0.1-0.1,0.2-0.1,0.2-0.2c1.7,1.2,3,2.1,3.7,2.5c0.2-0.5,0.3-1,0.5-1.5C48.9,36.5,47.8,35.7,46.4,34.6z"/>
</g>
</svg>
