<?xml version="1.0" encoding="UTF-8" standalone="no"?>
<!-- Generator: Adobe Illustrator 17.0.1, SVG Export Plug-In . SVG Version: 6.00 Build 0)  -->

<svg
   xmlns:dc="http://purl.org/dc/elements/1.1/"
   xmlns:cc="http://creativecommons.org/ns#"
   xmlns:rdf="http://www.w3.org/1999/02/22-rdf-syntax-ns#"
   xmlns:svg="http://www.w3.org/2000/svg"
   xmlns="http://www.w3.org/2000/svg"
   xmlns:sodipodi="http://sodipodi.sourceforge.net/DTD/sodipodi-0.dtd"
   xmlns:inkscape="http://www.inkscape.org/namespaces/inkscape"
   version="1.1"
   id="Layer_1"
   x="0px"
   y="0px"
   width="47.351002"
   height="50"
   viewBox="0 0 47.351002 50"
   enable-background="new 0 0 50 50"
   xml:space="preserve"
   sodipodi:docname="WebSlots.svg"
   inkscape:version="0.92.3 (2405546, 2018-03-11)"><metadata
   id="metadata3581"><rdf:RDF><cc:Work
       rdf:about=""><dc:format>image/svg+xml</dc:format><dc:type
         rdf:resource="http://purl.org/dc/dcmitype/StillImage" /><dc:title></dc:title></cc:Work></rdf:RDF></metadata><defs
   id="defs3579" /><sodipodi:namedview
   pagecolor="#ffffff"
   bordercolor="#666666"
   borderopacity="1"
   objecttolerance="10"
   gridtolerance="10"
   guidetolerance="10"
   inkscape:pageopacity="0"
   inkscape:pageshadow="2"
   inkscape:window-width="1920"
   inkscape:window-height="1017"
   id="namedview3577"
   showgrid="false"
   fit-margin-top="0"
   fit-margin-left="0"
   fit-margin-right="0"
   fit-margin-bottom="0"
   inkscape:zoom="12.020815"
   inkscape:cx="32.372485"
   inkscape:cy="22.34416"
   inkscape:window-x="1912"
   inkscape:window-y="-8"
   inkscape:window-maximized="1"
   inkscape:current-layer="Layer_1" />
<path
   d="M 41.418,50 H 5.93 C 2.66,50 0,47.34 0,44.07 v -9.863 c 0,-0.864 0.699,-1.563 1.563,-1.563 0.864,0 1.563,0.699 1.563,1.563 v 9.863 c 0,1.546 1.259,2.805 2.805,2.805 H 41.42 c 1.546,0 2.805,-1.259 2.805,-2.805 v -9.863 c 0,-0.864 0.699,-1.563 1.563,-1.563 0.864,0 1.563,0.699 1.563,1.563 V 44.07 C 47.348,47.34 44.688,50 41.418,50 Z"
   id="path3562"
   inkscape:connector-curvature="0"
   style="fill:#a0a1a2" />
<rect
   x="5.6799998"
   y="16.691"
   width="9.8699999"
   height="27.614"
   id="rect3564"
   style="fill:#59b4d9" />
<rect
   x="18.739"
   y="16.691"
   width="9.8699999"
   height="27.614"
   id="rect3566"
   style="fill:#59b4d9" />
<rect
   x="31.799"
   y="16.691"
   width="9.8690004"
   height="27.614"
   id="rect3568"
   style="fill:#b8d432" />
<g
   id="g3572"
   transform="translate(-1.326)">
	<path
   d="M 16.908,11.426 C 16.908,5.125 22.035,0 28.336,0 34.637,0 39.89,4.784 39.89,11.084 c 0,0.864 -0.699,1.563 -1.563,1.563 -0.864,0 -1.563,-0.699 -1.563,-1.563 0,-4.578 -3.852,-7.959 -8.429,-7.959 -4.577,0 -8.302,3.723 -8.302,8.301 z"
   id="path3570"
   inkscape:connector-curvature="0"
   style="fill:#b8d432" />
</g>
<polygon
   points="32.033,8.782 44.365,8.782 38.199,14.948 "
   id="polygon3574"
   style="fill:#b8d432"
   transform="translate(-1.326)" />
</svg>