<?xml version="1.0" encoding="utf-8"?>
<!-- Generator: Adobe Illustrator 17.0.1, SVG Export Plug-In . SVG Version: 6.00 Build 0)  -->
<!DOCTYPE svg PUBLIC "-//W3C//DTD SVG 1.1//EN" "http://www.w3.org/Graphics/SVG/1.1/DTD/svg11.dtd">
<svg version="1.1" id="Layer_1" xmlns="http://www.w3.org/2000/svg" xmlns:xlink="http://www.w3.org/1999/xlink" x="0px" y="0px"
	 width="50px" height="50px" viewBox="0 0 50 50" enable-background="new 0 0 50 50" xml:space="preserve">
<path fill="#59B4D9" d="M29.833,31.322c-1.443,1.104-3.144,1.642-4.832,1.642c-2.396,0-4.765-1.076-6.331-3.123
	c-2.676-3.494-2.014-8.488,1.484-11.165c1.443-1.11,3.145-1.64,4.832-1.64c2.396,0,4.765,1.076,6.33,3.125
	C33.992,23.653,33.324,28.649,29.833,31.322"/>
<path fill="#59B4D9" d="M29.833,31.322c-1.443,1.104-3.144,1.642-4.832,1.642c-2.396,0-4.765-1.076-6.331-3.123
	c-2.676-3.494-2.014-8.488,1.484-11.165c1.443-1.11,3.145-1.64,4.832-1.64c2.396,0,4.765,1.076,6.33,3.125
	C33.992,23.653,33.324,28.649,29.833,31.322"/>
<path fill="#FFFFFF" d="M28.37,26.396c0.578,0.754,1.651,0.891,2.401,0.321c0.04-0.03,0.07-0.067,0.106-0.1
	c0.768,0.541,1.365,0.941,1.665,1.146c0.088-0.231,0.148-0.449,0.211-0.68c-0.315-0.235-0.813-0.618-1.428-1.117
	c0.203-0.535,0.138-1.159-0.234-1.646c-0.531-0.688-1.47-0.863-2.206-0.44c-0.814-0.73-1.7-1.555-2.644-2.494
	c2.92-1.57,4.993-1.34,4.993-1.34c-0.345-0.442-0.734-0.828-1.148-1.178c-1.231-0.189-3.145-0.169-5.33,0.994l0,0c0,0,0,0,0,0
	c-0.729-0.762-1.47-1.58-2.226-2.457c-0.361,0.116-0.713,0.258-1.055,0.429c0.557,0.912,1.307,1.831,2.152,2.729
	c0.022-0.016,0.044-0.028,0.066-0.044c-0.003,0.002-0.007,0.005-0.01,0.008c-0.018,0.013-0.036,0.023-0.054,0.036
	c0.001,0.001,0.001,0.001,0.002,0.002c-0.697,0.493-1.503,1.171-2.21,1.919c-0.095,0.101-0.177,0.204-0.267,0.306
	c-0.431-0.091-0.879-0.063-1.303,0.088c-0.724-1.558-0.674-2.813-0.559-3.459c-0.314,0.329-0.607,0.673-0.858,1.04
	c-0.189,0.772-0.241,1.885,0.317,3.225c-0.641,0.842-0.676,2.03-0.004,2.909c0.058,0.075,0.126,0.136,0.191,0.203
	c-0.293,0.999-0.439,1.966-0.479,2.793c0.075,0.103,0.075,0.185,0.15,0.284c0.382,0.491,0.864,0.955,1.329,1.329
	c-0.058-0.877,0.005-2.223,0.55-3.68c0.371,0.027,0.746-0.031,1.099-0.179c0.206,0.181,0.418,0.364,0.648,0.55
	c0.782,0.619,1.561,1.097,2.322,1.476c-0.04,0.388,0.056,0.791,0.307,1.125c0.537,0.693,1.531,0.822,2.226,0.292
	c0.147-0.113,0.263-0.25,0.359-0.396c1.232,0.273,2.318,0.333,3.117,0.333c0.123,0,0.694-0.776,1.022-1.257
	c-0.489,0.102-1.941,0.295-3.92-0.272c-0.048-0.22-0.139-0.435-0.285-0.625c-0.503-0.659-1.422-0.802-2.106-0.363
	c-0.689-0.374-1.411-0.84-2.155-1.43c-0.155-0.123-0.289-0.245-0.432-0.367c0.446-0.711,0.496-1.615,0.102-2.382
	c0.094-0.095,0.174-0.191,0.275-0.285c0.737-0.688,1.429-1.24,2.079-1.681c0,0,0,0-0.001-0.001c0.994,0.92,2.049,1.791,3.047,2.569
	C27.927,25.189,27.968,25.871,28.37,26.396z"/>
<path fill="#FFFFFF" d="M23.755,20.477c0.142-0.098,0.284-0.196,0.425-0.283C24.039,20.281,23.897,20.379,23.755,20.477
	C23.755,20.477,23.755,20.477,23.755,20.477z"/>
<polygon fill="#FFFFFF" points="25.144,22.06 25.131,22.046 25.145,22.06 "/>
<path fill="#A0A1A2" d="M41.386,50c-6.829,0-16.33-5.585-26.069-15.323C1.768,21.125-3.448,8.134,2.338,2.348
	C3.875,0.811,6.039,0,8.599,0c6.829,0,16.331,5.585,26.069,15.325c6.637,6.638,11.379,13.177,13.715,18.916
	c2.365,5.811,2.104,10.572-0.736,13.413C46.111,49.189,43.946,50,41.386,50 M8.599,3.078c-1.75,0-3.124,0.486-4.083,1.445
	C0.791,8.249,4.052,19.056,17.495,32.498c9.031,9.032,17.962,14.424,23.892,14.424c1.75,0,3.123-0.486,4.082-1.446
	c1.908-1.908,1.932-5.486,0.063-10.074C43.35,30.04,38.84,23.85,32.49,17.502C23.459,8.471,14.528,3.078,8.599,3.078"/>
<path fill="#0F0F0F" d="M8.599,50c-2.56,0-4.724-0.811-6.261-2.346c-2.84-2.841-3.101-7.602-0.735-13.413
	c2.336-5.739,7.078-12.278,13.715-18.916C25.056,5.585,34.558,0,41.387,0c2.56,0,4.724,0.811,6.26,2.347
	c5.786,5.787,0.57,18.778-12.979,32.33C24.929,44.415,15.427,50,8.599,50 M41.387,3.078c-5.93,0-14.861,5.393-23.893,14.424
	C11.146,23.85,6.634,30.04,4.453,35.402c-1.869,4.588-1.845,8.166,0.063,10.074c0.959,0.96,2.332,1.446,4.083,1.446
	c5.93,0,14.86-5.392,23.892-14.424C45.933,19.056,49.194,8.249,45.468,4.522C44.509,3.564,43.137,3.078,41.387,3.078"/>
</svg>
