<?xml version="1.0" encoding="UTF-8" standalone="no"?>
<!-- Generator: Adobe Illustrator 17.0.1, SVG Export Plug-In . SVG Version: 6.00 Build 0)  -->

<svg
   xmlns:dc="http://purl.org/dc/elements/1.1/"
   xmlns:cc="http://creativecommons.org/ns#"
   xmlns:rdf="http://www.w3.org/1999/02/22-rdf-syntax-ns#"
   xmlns:svg="http://www.w3.org/2000/svg"
   xmlns="http://www.w3.org/2000/svg"
   xmlns:sodipodi="http://sodipodi.sourceforge.net/DTD/sodipodi-0.dtd"
   xmlns:inkscape="http://www.inkscape.org/namespaces/inkscape"
   version="1.1"
   id="Layer_1"
   x="0px"
   y="0px"
   width="50.00024"
   height="46"
   viewBox="0 0 50.00024 46"
   enable-background="new 0 0 50 50"
   xml:space="preserve"
   sodipodi:docname="WebTest.svg"
   inkscape:version="0.92.3 (2405546, 2018-03-11)"><metadata
   id="metadata3731"><rdf:RDF><cc:Work
       rdf:about=""><dc:format>image/svg+xml</dc:format><dc:type
         rdf:resource="http://purl.org/dc/dcmitype/StillImage" /><dc:title></dc:title></cc:Work></rdf:RDF></metadata><defs
   id="defs3729" /><sodipodi:namedview
   pagecolor="#ffffff"
   bordercolor="#666666"
   borderopacity="1"
   objecttolerance="10"
   gridtolerance="10"
   guidetolerance="10"
   inkscape:pageopacity="0"
   inkscape:pageshadow="2"
   inkscape:window-width="1920"
   inkscape:window-height="1017"
   id="namedview3727"
   showgrid="false"
   fit-margin-top="0"
   fit-margin-left="0"
   fit-margin-right="0"
   fit-margin-bottom="0"
   inkscape:zoom="17"
   inkscape:cx="25.000078"
   inkscape:cy="23"
   inkscape:window-x="1912"
   inkscape:window-y="-8"
   inkscape:window-maximized="1"
   inkscape:current-layer="Layer_1" />
<path
   d="m 33.143078,36.974 c -3.735,2.856 -8.137,4.248 -12.507,4.248 -6.201,0 -12.3330003,-2.784 -16.3850003,-8.084 -6.923,-9.039 -5.21400004,-21.967 3.842,-28.893 C 11.827078,1.371 16.233078,0 20.598078,0 c 6.201,0 12.334,2.784 16.385,8.089 6.924,9.036 5.199,21.966 -3.84,28.885"
   id="path3710"
   inkscape:connector-curvature="0"
   style="fill:#59b4d9" />
<path
   d="m 33.143078,36.974 c -3.735,2.856 -8.137,4.248 -12.507,4.248 -6.201,0 -12.3330003,-2.784 -16.3850003,-8.084 -6.923,-9.039 -5.21400004,-21.967 3.842,-28.893 C 11.827078,1.371 16.233078,0 20.598078,0 c 6.201,0 12.334,2.784 16.385,8.089 6.924,9.036 5.199,21.966 -3.84,28.885"
   id="path3712"
   inkscape:connector-curvature="0"
   style="fill:#59b4d9" />
<path
   d="m 29.356078,24.225 c 1.497,1.953 4.276,2.305 6.218,0.828 0.101,-0.077 0.18,-0.171 0.272,-0.255 1.986,1.399 3.532,2.436 4.309,2.965 0.23,-0.596 0.383,-1.161 0.547,-1.759 -0.821,-0.611 -2.092,-1.586 -3.698,-2.887 0.527,-1.385 0.361,-3.001 -0.602,-4.264 -1.376,-1.781 -3.814,-2.234 -5.719,-1.136 -2.1,-1.884 -4.406,-4.042 -6.838,-6.459 7.557,-4.064 12.927,-3.469 12.927,-3.469 -0.896,-1.143 -1.901,-2.144 -2.973,-3.049 -3.187,-0.492 -8.138,-0.437 -13.795,2.572 l -0.002,-0.003 h -0.001 c -1.885,-1.973 -3.804,-4.088 -5.758,-6.359 -0.935,0.299 -1.849,0.67 -2.731,1.111 1.442,2.36 3.383,4.741 5.57,7.063 v 0 c 0,0 0,0 0,0 -1.822,1.275 -3.841,2.994 -5.713,4.974 -0.239,0.255 -0.469,0.511 -0.695,0.768 -1.1180003,-0.234 -2.2940003,-0.166 -3.3930003,0.232 -1.868,-4.028 -1.718,-7.263 -1.423,-8.932 -0.811,0.849 -1.568,1.742 -2.22,2.694 -0.487,1.992 -0.626,4.864 0.812,8.325 -1.665,2.179 -1.743,5.269 -0.004,7.548 0.145,0.189 0.3,0.364 0.461,0.532 -0.76,2.587 -1.099,5.082 -1.204,7.225 0.195,0.266 0.195,0.48 0.389,0.739 0.989,1.268 2.238,2.467 3.438,3.435 -0.149,-2.267 0.003,-5.742 1.406,-9.507 0.967,0.073 1.9510003,-0.079 2.8720003,-0.467 0.528,0.465 1.08,0.934 1.67,1.411 2.022,1.601 4.041,2.847 6.007,3.829 -0.102,1.001 0.149,2.04 0.798,2.901 1.39,1.794 3.962,2.129 5.758,0.758 0.374,-0.286 0.669,-0.632 0.913,-1.003 3.207,0.714 6.009,0.84 8.086,0.84 0.318,0 1.795,-2.009 2.641,-3.254 -1.265,0.265 -5.016,0.78 -10.143,-0.693 -0.124,-0.575 -0.36,-1.134 -0.741,-1.633 -1.302,-1.707 -3.683,-2.076 -5.457,-0.934 -1.782,-0.967 -3.648,-2.178 -5.572,-3.702 -0.388,-0.307 -0.761,-0.615 -1.12,-0.922 1.176,-1.853 1.301,-4.228 0.262,-6.225 0.236,-0.236 0.468,-0.473 0.719,-0.707 1.906,-1.78 3.698,-3.205 5.376,-4.349 -0.066,-0.062 -0.126,-0.127 -0.192,-0.189 0.066,0.061 0.128,0.123 0.194,0.184 0,0 -0.001,10e-4 -0.002,10e-4 2.573,2.38 5.302,4.635 7.887,6.65 -0.683,1.448 -0.576,3.213 0.464,4.572 z"
   id="path3714"
   inkscape:connector-curvature="0"
   style="fill:#ffffff" />
<path
   d="m 49.625078,43.229 -8.023,-13.897 v -5.625 h 0.145 c 0.96,0 1.738,-0.778 1.738,-1.738 0,-0.96 -0.778,-1.738 -1.738,-1.738 h -8.754 c -0.96,0 -1.738,0.778 -1.738,1.738 0,0.96 0.778,1.738 1.738,1.738 h 0.145 v 5.625 l -8.023,13.897 c -0.88,1.524 -0.16,2.771 1.6,2.771 h 21.311 c 1.759,0 2.478,-1.247 1.599,-2.771 z"
   id="path3716"
   inkscape:connector-curvature="0"
   style="fill:#a0a1a2" />
<path
   d="m 43.016078,37.247 h -3.767 c 0.104,0.214 0.165,0.454 0.165,0.708 0,0.894 -0.725,1.619 -1.619,1.619 -0.894,0 -1.619,-0.725 -1.619,-1.619 0,-0.254 0.06,-0.494 0.165,-0.708 h -4.619 l -3.31,5.734 h 17.915 z"
   id="path3718"
   inkscape:connector-curvature="0"
   style="fill:#b8d432" />
<path
   d="m 37.795078,39.574 c 0.894,0 1.619,-0.725 1.619,-1.619 0,-0.254 -0.06,-0.494 -0.165,-0.708 h -2.908 c -0.104,0.214 -0.165,0.454 -0.165,0.708 0,0.895 0.725,1.619 1.619,1.619 z"
   id="path3720"
   inkscape:connector-curvature="0"
   style="fill:#7fba00" />
<circle
   cx="39.804077"
   cy="40.824001"
   r="0.79400003"
   id="circle3722"
   style="fill:#7fba00" />
<path
   d="m 25.114078,43.229 8.023,-13.897 v -5.625 h -0.145 c -0.96,0 -1.738,-0.778 -1.738,-1.738 0,-0.96 0.778,-1.738 1.738,-1.738 h 3.772 v 9.056 L 32.536078,46 h -5.822 c -1.76,0 -2.48,-1.247 -1.6,-2.771 z"
   id="path3724"
   inkscape:connector-curvature="0"
   style="opacity:0.25;fill:#ffffff" />
</svg>