<?xml version="1.0" encoding="utf-8"?>
<!-- Generator: Adobe Illustrator 17.1.0, SVG Export Plug-In . SVG Version: 6.00 Build 0)  -->
<!DOCTYPE svg PUBLIC "-//W3C//DTD SVG 1.1//EN" "http://www.w3.org/Graphics/SVG/1.1/DTD/svg11.dtd">
<svg version="1.1" id="Layer_1" xmlns="http://www.w3.org/2000/svg" xmlns:xlink="http://www.w3.org/1999/xlink" x="0px" y="0px"
	 height="50px" width="50px" viewBox="0 0 50 50" enable-background="new 0 0 50 50" xml:space="preserve">
<polyline fill="none" stroke="#59B4D9" stroke-width="4.75" stroke-linejoin="round" stroke-miterlimit="10" points="6.4,39.8 
	6.4,25 43.6,25 43.6,39.8 "/>
<rect x="22.6" y="14" fill="#59B4D9" width="4.8" height="24.5"/>
<path fill="#59B4D9" d="M28.7,0h-7.3c-2.1,0-3.8,1.7-3.8,3.8v6.7c0,2.1,1.7,3.8,3.8,3.8h7.3c2.1,0,3.8-1.7,3.8-3.8V3.8
	C32.5,1.7,30.8,0,28.7,0z M29.1,10.2c0,0.4-0.3,0.7-0.7,0.7h-6.8c-0.4,0-0.7-0.3-0.7-0.7V4.1c0-0.4,0.3-0.7,0.7-0.7h6.8
	c0.4,0,0.7,0.3,0.7,0.7V10.2z"/>
<path fill="#0072C6" d="M28.7,0h-7.3c-2.1,0-3.8,1.7-3.8,3.8v6.7c0,2.1,1.7,3.8,3.8,3.8h7.3c2.1,0,3.8-1.7,3.8-3.8V3.8
	C32.5,1.7,30.8,0,28.7,0z M29.1,10.2c0,0.4-0.3,0.7-0.7,0.7h-6.8c-0.4,0-0.7-0.3-0.7-0.7V4.1c0-0.4,0.3-0.7,0.7-0.7h6.8
	c0.4,0,0.7,0.3,0.7,0.7V10.2z"/>
<path fill="#0072C6" d="M27.3,37.7h-4.6c-2.1,0-3.8,1.7-3.8,3.8v4.6c0,2.1,1.7,3.8,3.8,3.8h4.6c2.1,0,3.8-1.7,3.8-3.8v-4.6
	C31.1,39.4,29.4,37.7,27.3,37.7z M27.7,45.9c0,0.4-0.3,0.7-0.7,0.7H23c-0.4,0-0.7-0.3-0.7-0.7v-4.1c0-0.4,0.3-0.7,0.7-0.7H27
	c0.4,0,0.7,0.3,0.7,0.7V45.9z"/>
<path fill="#0072C6" d="M0,41.6v4.6C0,48.3,1.7,50,3.8,50h4.6c2.1,0,3.8-1.7,3.8-3.8v-4.6c0-2.1-1.7-3.8-3.8-3.8H3.8
	C1.7,37.7,0,39.4,0,41.6z M3.4,41.8c0-0.4,0.3-0.7,0.7-0.7h4.1c0.4,0,0.7,0.3,0.7,0.7v4.1c0,0.4-0.3,0.7-0.7,0.7H4.1
	c-0.4,0-0.7-0.3-0.7-0.7V41.8z"/>
<path fill="#0072C6" d="M46.2,37.7h-4.6c-2.1,0-3.8,1.7-3.8,3.8v4.6c0,2.1,1.7,3.8,3.8,3.8h4.6c2.1,0,3.8-1.7,3.8-3.8v-4.6
	C50,39.4,48.3,37.7,46.2,37.7z M46.6,45.9c0,0.4-0.3,0.7-0.7,0.7h-4.1c-0.4,0-0.7-0.3-0.7-0.7v-4.1c0-0.4,0.3-0.7,0.7-0.7h4.1
	c0.4,0,0.7,0.3,0.7,0.7V45.9z"/>
</svg>
