<?xml version="1.0" encoding="utf-8"?>
<!-- Generator: Adobe Illustrator 17.0.1, SVG Export Plug-In . SVG Version: 6.00 Build 0)  -->
<!DOCTYPE svg PUBLIC "-//W3C//DTD SVG 1.1//EN" "http://www.w3.org/Graphics/SVG/1.1/DTD/svg11.dtd">
<svg version="1.1" id="Layer_1" xmlns="http://www.w3.org/2000/svg" xmlns:xlink="http://www.w3.org/1999/xlink" x="0px" y="0px"
	 width="16px" height="16px" viewBox="-0.5 0.5 16 16" enable-background="new -0.5 0.5 16 16" xml:space="preserve">
<path fill="#FFFFFF" d="M13.478,4.879l-1.865-0.496l-0.496-1.865l1.905-1.905c-1.128-0.304-2.377-0.016-3.257,0.864
	C8.877,2.366,8.588,3.623,8.901,4.759L3.763,9.897C2.626,9.585,1.37,9.873,0.481,10.761c-0.88,0.88-1.168,2.129-0.864,3.257
	l1.905-1.905l1.865,0.496l0.496,1.865l-1.905,1.905c1.128,0.304,2.377,0.016,3.257-0.864c0.928-0.928,1.2-2.257,0.824-3.425
	l5.034-5.034c1.168,0.376,2.497,0.104,3.425-0.824c0.88-0.88,1.168-2.129,0.864-3.257L13.478,4.879z"/>
</svg>
