<?xml version="1.0" encoding="UTF-8" standalone="no"?>
<!-- Generator: Adobe Illustrator 17.1.0, SVG Export Plug-In . SVG Version: 6.00 Build 0)  -->

<svg
   xmlns:dc="http://purl.org/dc/elements/1.1/"
   xmlns:cc="http://creativecommons.org/ns#"
   xmlns:rdf="http://www.w3.org/1999/02/22-rdf-syntax-ns#"
   xmlns:svg="http://www.w3.org/2000/svg"
   xmlns="http://www.w3.org/2000/svg"
   xmlns:sodipodi="http://sodipodi.sourceforge.net/DTD/sodipodi-0.dtd"
   xmlns:inkscape="http://www.inkscape.org/namespaces/inkscape"
   version="1.1"
   id="Layer_1"
   x="0px"
   y="0px"
   width="50.027298"
   height="35"
   viewBox="0 0 50.027298 35"
   enable-background="new 0 0 50 50"
   xml:space="preserve"
   sodipodi:docname="XboxController.svg"
   inkscape:version="0.92.3 (2405546, 2018-03-11)"><metadata
   id="metadata4013"><rdf:RDF><cc:Work
       rdf:about=""><dc:format>image/svg+xml</dc:format><dc:type
         rdf:resource="http://purl.org/dc/dcmitype/StillImage" /><dc:title></dc:title></cc:Work></rdf:RDF></metadata><defs
   id="defs4011" /><sodipodi:namedview
   pagecolor="#ffffff"
   bordercolor="#666666"
   borderopacity="1"
   objecttolerance="10"
   gridtolerance="10"
   guidetolerance="10"
   inkscape:pageopacity="0"
   inkscape:pageshadow="2"
   inkscape:window-width="1920"
   inkscape:window-height="1017"
   id="namedview4009"
   showgrid="false"
   fit-margin-top="0"
   fit-margin-left="0"
   fit-margin-right="0"
   fit-margin-bottom="0"
   inkscape:zoom="17"
   inkscape:cx="25.056545"
   inkscape:cy="17.6"
   inkscape:window-x="1912"
   inkscape:window-y="-8"
   inkscape:window-maximized="1"
   inkscape:current-layer="Layer_1" />
<path
   d="m 36.056545,0 c 0,0 -0.5,0 -0.8,0.3 -0.3,0.3 -2,1.7 -3.3,2.3 -0.7,0.3 -1.2,0.7 -1.5,0.7 -0.7,0.1 -2.4,0.3 -5.4,0.3 -3,0 -4.7,-0.2 -5.3,-0.3 -0.3,-0.2 -0.8,-0.3 -1.5,-0.7 -1.2,-0.7 -3,-2.2 -3.3,-2.3 -0.3,-0.3 -0.8,-0.3 -0.8,-0.3 -1.3,0.2 -2.5,0.3 -3.7,0.7 -2.0000003,0.7 -3.5000003,1.7 -3.5000003,1.7 0,0 -4,9.1 -5,13.3 -1.30000001,6 -2.70000001,11.8 -1.50000001,16 0.3,1.5 1.20000001,3.3 3.80000001,3.3 v 0 c 2.3,0 7.6000003,-5.2 10.3000003,-7.5 2.3,-2 4.7,-2.3 10.5,-2.3 5.8,0 8.2,0.2 10.5,2.2 2.5,2.3 8,7.3 10.1,7.5 h 0.2 c 2.8,0 3.5,-1.8 3.8,-3.2 1,-4.2 -0.2,-10 -1.5,-16 -1,-4.2 -5,-13.3 -5,-13.3 0,0 -1.5,-1 -3.5,-1.7 -1.1,-0.4 -2.3,-0.6 -3.6,-0.7 z"
   id="path3994"
   inkscape:connector-curvature="0"
   style="fill:#3e3e3e" />
<path
   d="m 14.156545,8.7 c -2.8,0 -5.0000003,2.2 -5.0000003,5 0,2.8 2.2000003,5 5.0000003,5 2.8,0 5,-2.2 5,-5 0,-2.8 -2.3,-5 -5,-5 z m 0,7.9 c -1.6,0 -2.9,-1.3 -2.9,-2.9 0,-1.6 1.3,-2.9 2.9,-2.9 1.6,0 2.9,1.3 2.9,2.9 0,1.5 -1.4,2.9 -2.9,2.9 z"
   id="path3996"
   inkscape:connector-curvature="0"
   style="fill:#a0a1a2" />
<circle
   cx="32.156544"
   cy="13.199999"
   r="2.0999999"
   id="circle3998"
   style="fill:#0072c6" />
<circle
   cx="40.856544"
   cy="13.199999"
   r="2.0999999"
   id="circle4000"
   style="fill:#ba141a" />
<circle
   cx="36.456547"
   cy="8.7999992"
   r="2.0999999"
   id="circle4002"
   style="fill:#fcd116" />
<circle
   cx="36.456547"
   cy="17.6"
   r="2.0999999"
   id="circle4004"
   style="fill:#7fba00" />
<path
   d="m 14.156545,17.3 c -2,0 -3.7,-1.7 -3.7,-3.7 0,-2 1.7,-3.7 3.7,-3.7 2,0 3.7,1.7 3.7,3.7 0,2 -1.7,3.7 -3.7,3.7 z"
   id="path4006"
   inkscape:connector-curvature="0"
   style="fill:#3e3e3e" />
</svg>