<svg xmlns="http://www.w3.org/2000/svg" xmlns:xlink="http://www.w3.org/1999/xlink" viewBox="0 0 53 36"><defs><style>.cls-1{fill:#fff;}.cls-2{fill:url(#New_Gradient_Swatch_6);}.cls-3{fill:#8c9aa6;}.cls-4{fill:url(#New_Gradient_Swatch_6-2);}.cls-5{fill:url(#New_Gradient_Swatch_6-3);}.cls-6{fill:url(#New_Gradient_Swatch_6-4);}.cls-7{fill:url(#New_Gradient_Swatch_6-5);}.cls-8{fill:url(#New_Gradient_Swatch_6-6);}</style><linearGradient id="New_Gradient_Swatch_6" x1="34.21" y1="17.85" x2="18.79" y2="-8.85" gradientUnits="userSpaceOnUse"><stop offset="0" stop-color="#00ad69"/><stop offset="1" stop-color="#7ccc6c"/></linearGradient><linearGradient id="New_Gradient_Swatch_6-2" x1="34.21" y1="25.85" x2="18.79" y2="-0.85" xlink:href="#New_Gradient_Swatch_6"/><linearGradient id="New_Gradient_Swatch_6-3" x1="34.21" y1="33.85" x2="18.79" y2="7.15" xlink:href="#New_Gradient_Swatch_6"/><linearGradient id="New_Gradient_Swatch_6-4" x1="6" y1="30" x2="47" y2="30" xlink:href="#New_Gradient_Swatch_6"/><linearGradient id="New_Gradient_Swatch_6-5" x1="10.09" y1="27.79" x2="-4.09" y2="3.21" xlink:href="#New_Gradient_Swatch_6"/><linearGradient id="New_Gradient_Swatch_6-6" x1="57.09" y1="27.79" x2="42.91" y2="3.21" xlink:href="#New_Gradient_Swatch_6"/></defs><title>cumulus-networks-chassis-cumulus-linux</title><g id="Layer_2" data-name="Layer 2"><g id="Text"><rect class="cls-1" x="2" width="49" height="9" rx="2" ry="2"/><path class="cls-2" d="M49,2V7H4V2H49m0-2H4A2,2,0,0,0,2,2V7A2,2,0,0,0,4,9H49a2,2,0,0,0,2-2V2a2,2,0,0,0-2-2Z"/><path class="cls-3" d="M49,1a1,1,0,0,1,1,1V7a1,1,0,0,1-1,1H4A1,1,0,0,1,3,7V2A1,1,0,0,1,4,1H49m0-1H4A2,2,0,0,0,2,2V7A2,2,0,0,0,4,9H49a2,2,0,0,0,2-2V2a2,2,0,0,0-2-2Z"/><rect class="cls-3" x="37" y="4" width="1" height="1"/><rect class="cls-3" x="39" y="4" width="1" height="1"/><rect class="cls-3" x="41" y="4" width="1" height="1"/><rect class="cls-3" x="43" y="4" width="1" height="1"/><rect class="cls-3" x="45" y="4" width="1" height="1"/><rect class="cls-3" x="25" y="4" width="1" height="1"/><rect class="cls-3" x="27" y="4" width="1" height="1"/><rect class="cls-3" x="29" y="4" width="1" height="1"/><rect class="cls-3" x="31" y="4" width="1" height="1"/><rect class="cls-3" x="33" y="4" width="1" height="1"/><rect class="cls-3" x="35" y="4" width="1" height="1"/><rect class="cls-3" x="13" y="4" width="1" height="1"/><rect class="cls-3" x="15" y="4" width="1" height="1"/><rect class="cls-3" x="17" y="4" width="1" height="1"/><rect class="cls-3" x="19" y="4" width="1" height="1"/><rect class="cls-3" x="21" y="4" width="1" height="1"/><rect class="cls-3" x="23" y="4" width="1" height="1"/><rect class="cls-3" x="7" y="4" width="1" height="1"/><rect class="cls-3" x="9" y="4" width="1" height="1"/><rect class="cls-3" x="11" y="4" width="1" height="1"/><rect class="cls-1" x="2" y="8" width="49" height="9" rx="2" ry="2"/><path class="cls-4" d="M49,10v5H4V10H49m0-2H4a2,2,0,0,0-2,2v5a2,2,0,0,0,2,2H49a2,2,0,0,0,2-2V10a2,2,0,0,0-2-2Z"/><path class="cls-3" d="M49,9a1,1,0,0,1,1,1v5a1,1,0,0,1-1,1H4a1,1,0,0,1-1-1V10A1,1,0,0,1,4,9H49m0-1H4a2,2,0,0,0-2,2v5a2,2,0,0,0,2,2H49a2,2,0,0,0,2-2V10a2,2,0,0,0-2-2Z"/><rect class="cls-3" x="37" y="12" width="1" height="1"/><rect class="cls-3" x="39" y="12" width="1" height="1"/><rect class="cls-3" x="41" y="12" width="1" height="1"/><rect class="cls-3" x="43" y="12" width="1" height="1"/><rect class="cls-3" x="45" y="12" width="1" height="1"/><rect class="cls-3" x="25" y="12" width="1" height="1"/><rect class="cls-3" x="27" y="12" width="1" height="1"/><rect class="cls-3" x="29" y="12" width="1" height="1"/><rect class="cls-3" x="31" y="12" width="1" height="1"/><rect class="cls-3" x="33" y="12" width="1" height="1"/><rect class="cls-3" x="35" y="12" width="1" height="1"/><rect class="cls-3" x="13" y="12" width="1" height="1"/><rect class="cls-3" x="15" y="12" width="1" height="1"/><rect class="cls-3" x="17" y="12" width="1" height="1"/><rect class="cls-3" x="19" y="12" width="1" height="1"/><rect class="cls-3" x="21" y="12" width="1" height="1"/><rect class="cls-3" x="23" y="12" width="1" height="1"/><rect class="cls-3" x="7" y="12" width="1" height="1"/><rect class="cls-3" x="9" y="12" width="1" height="1"/><rect class="cls-3" x="11" y="12" width="1" height="1"/><rect class="cls-1" x="2" y="16" width="49" height="9" rx="2" ry="2"/><path class="cls-5" d="M49,18v5H4V18H49m0-2H4a2,2,0,0,0-2,2v5a2,2,0,0,0,2,2H49a2,2,0,0,0,2-2V18a2,2,0,0,0-2-2Z"/><path class="cls-3" d="M49,17a1,1,0,0,1,1,1v5a1,1,0,0,1-1,1H4a1,1,0,0,1-1-1V18a1,1,0,0,1,1-1H49m0-1H4a2,2,0,0,0-2,2v5a2,2,0,0,0,2,2H49a2,2,0,0,0,2-2V18a2,2,0,0,0-2-2Z"/><rect class="cls-3" x="37" y="20" width="1" height="1"/><rect class="cls-3" x="39" y="20" width="1" height="1"/><rect class="cls-3" x="41" y="20" width="1" height="1"/><rect class="cls-3" x="43" y="20" width="1" height="1"/><rect class="cls-3" x="45" y="20" width="1" height="1"/><rect class="cls-3" x="25" y="20" width="1" height="1"/><rect class="cls-3" x="27" y="20" width="1" height="1"/><rect class="cls-3" x="29" y="20" width="1" height="1"/><rect class="cls-3" x="31" y="20" width="1" height="1"/><rect class="cls-3" x="33" y="20" width="1" height="1"/><rect class="cls-3" x="35" y="20" width="1" height="1"/><rect class="cls-3" x="13" y="20" width="1" height="1"/><rect class="cls-3" x="15" y="20" width="1" height="1"/><rect class="cls-3" x="17" y="20" width="1" height="1"/><rect class="cls-3" x="19" y="20" width="1" height="1"/><rect class="cls-3" x="21" y="20" width="1" height="1"/><rect class="cls-3" x="23" y="20" width="1" height="1"/><rect class="cls-3" x="7" y="20" width="1" height="1"/><rect class="cls-3" x="9" y="20" width="1" height="1"/><rect class="cls-3" x="11" y="20" width="1" height="1"/><rect class="cls-1" x="6" y="24" width="41" height="12" rx="2" ry="2"/><path class="cls-6" d="M45,26v8H8V26H45m0-2H8a2,2,0,0,0-2,2v8a2,2,0,0,0,2,2H45a2,2,0,0,0,2-2V26a2,2,0,0,0-2-2Z"/><path class="cls-3" d="M45,25a1,1,0,0,1,1,1v8a1,1,0,0,1-1,1H8a1,1,0,0,1-1-1V26a1,1,0,0,1,1-1H45m0-1H8a2,2,0,0,0-2,2v8a2,2,0,0,0,2,2H45a2,2,0,0,0,2-2V26a2,2,0,0,0-2-2Z"/><rect class="cls-3" x="11" y="28" width="1" height="4"/><rect class="cls-3" x="14" y="28" width="1" height="4"/><rect class="cls-3" x="17" y="28" width="1" height="4"/><rect class="cls-3" x="20" y="28" width="1" height="4"/><rect class="cls-3" x="23" y="28" width="1" height="4"/><rect class="cls-3" x="26" y="28" width="1" height="4"/><rect class="cls-3" x="29" y="28" width="1" height="4"/><rect class="cls-3" x="32" y="28" width="1" height="4"/><rect class="cls-3" x="35" y="28" width="1" height="4"/><rect class="cls-3" x="38" y="28" width="1" height="4"/><rect class="cls-3" x="41" y="28" width="1" height="4"/><rect class="cls-1" width="6" height="31" rx="2" ry="2"/><path class="cls-7" d="M4,2V29H2V2H4M4,0H2A2,2,0,0,0,0,2V29a2,2,0,0,0,2,2H4a2,2,0,0,0,2-2V2A2,2,0,0,0,4,0Z"/><path class="cls-3" d="M4,1A1,1,0,0,1,5,2V29a1,1,0,0,1-1,1H2a1,1,0,0,1-1-1V2A1,1,0,0,1,2,1H4M4,0H2A2,2,0,0,0,0,2V29a2,2,0,0,0,2,2H4a2,2,0,0,0,2-2V2A2,2,0,0,0,4,0Z"/><rect class="cls-1" x="47" width="6" height="31" rx="2" ry="2"/><path class="cls-8" d="M51,2V29H49V2h2m0-2H49a2,2,0,0,0-2,2V29a2,2,0,0,0,2,2h2a2,2,0,0,0,2-2V2a2,2,0,0,0-2-2Z"/><path class="cls-3" d="M51,1a1,1,0,0,1,1,1V29a1,1,0,0,1-1,1H49a1,1,0,0,1-1-1V2a1,1,0,0,1,1-1h2m0-1H49a2,2,0,0,0-2,2V29a2,2,0,0,0,2,2h2a2,2,0,0,0,2-2V2a2,2,0,0,0-2-2Z"/></g></g></svg>