<svg xmlns="http://www.w3.org/2000/svg" xmlns:xlink="http://www.w3.org/1999/xlink" viewBox="0 0 48 48"><defs><style>.cls-1{fill:none;}.cls-2{fill:url(#linear-gradient);}.cls-3{clip-path:url(#clip-path);}.cls-4{fill:#fff;}</style><linearGradient id="linear-gradient" x1="3.43" y1="36.85" x2="43.49" y2="11.82" gradientUnits="userSpaceOnUse"><stop offset="0" stop-color="#7ccc6c"/><stop offset="1" stop-color="#009271"/></linearGradient><clipPath id="clip-path"><rect class="cls-1" x="9.76" y="11.52" width="25" height="25"/></clipPath></defs><title>Asset 51</title><g id="Layer_2" data-name="Layer 2"><g id="Text"><circle class="cls-2" cx="24" cy="24" r="24"/><g id="Rocket_Turtle_White" data-name="Rocket Turtle – White"><g class="cls-3"><g class="cls-3"><path class="cls-4" d="M26.66,29.7l-1.36.14c-.29,0-.43.29-.5.58l-.22,1h0c-.07.36.29.36.57.43l1.44-.43c.57,0,.71-1,.71-1.29a.54.54,0,0,0-.64-.43"/><polygon class="cls-4" points="9.76 36.52 20.71 26.47 19.5 25.46 9.76 36.52"/><path class="cls-4" d="M33.25,20.5l-1.07.15a.58.58,0,0,0-.65.5l-.07,1.44a.13.13,0,0,0,0,.06.51.51,0,0,0,.51.51l.79.21a.57.57,0,0,0,.64-.5L33.75,21v0a.49.49,0,0,0-.5-.48"/><path class="cls-4" d="M34.76,15.9a4.37,4.37,0,1,0-7,3.53,1.46,1.46,0,0,0-.5.28l-.86-.79h0a.54.54,0,0,0-.78,0L20.14,23.8l-.07.08a.45.45,0,0,0,.07.64l1.29,1.23c.21.21.64.14.93-.22s1.15-1.44,2.15-2.51a26,26,0,0,1,2.43-2.38c.15-.07.22-.14.08.08a27,27,0,0,0-2.94,4.17c-.36.71-1.93,3.73-1.22,4.31h0c.08.07.22.15.57.07a6.88,6.88,0,0,0,1.79-.43A9.87,9.87,0,0,0,27.94,27c.94-.87,2.65-2.73,2.94-4.46a3.65,3.65,0,0,0-.54-2.3,4.45,4.45,0,0,0,4.42-4.38M27,15.9v-.11a3.25,3.25,0,0,1,3.3-3.19,3.31,3.31,0,0,1,0,6.61,3,3,0,0,1-.59-.07v-.58a3.11,3.11,0,0,0,1.65-1.08c.79-.79.79-2.51-.36-2.87-.93-.29-2,.65-2.29,1.44a2.69,2.69,0,0,0,.15,2.51v.29a3.34,3.34,0,0,1-1.86-3"/></g></g></g></g></g></svg>