<?xml version="1.0" encoding="UTF-8" standalone="no"?>
<!-- Created with Inkscape (http://www.inkscape.org/) -->

<svg
   xmlns:dc="http://purl.org/dc/elements/1.1/"
   xmlns:cc="http://creativecommons.org/ns#"
   xmlns:rdf="http://www.w3.org/1999/02/22-rdf-syntax-ns#"
   xmlns:svg="http://www.w3.org/2000/svg"
   xmlns="http://www.w3.org/2000/svg"
   xmlns:sodipodi="http://sodipodi.sourceforge.net/DTD/sodipodi-0.dtd"
   xmlns:inkscape="http://www.inkscape.org/namespaces/inkscape"
   width="362.33026mm"
   height="128.97183mm"
   viewBox="0 0 362.33026 128.97183"
   version="1.1"
   id="svg1070"
   inkscape:version="0.92.3 (2405546, 2018-03-11)"
   sodipodi:docname="internet.svg">
  <defs
     id="defs1064" />
  <sodipodi:namedview
     id="base"
     pagecolor="#ffffff"
     bordercolor="#666666"
     borderopacity="1.0"
     inkscape:pageopacity="0.0"
     inkscape:pageshadow="2"
     inkscape:zoom="0.49497475"
     inkscape:cx="853.93521"
     inkscape:cy="555.38504"
     inkscape:document-units="mm"
     inkscape:current-layer="layer1"
     showgrid="false"
     inkscape:window-width="1920"
     inkscape:window-height="1017"
     inkscape:window-x="-8"
     inkscape:window-y="-8"
     inkscape:window-maximized="1"
     fit-margin-top="0"
     fit-margin-left="0"
     fit-margin-right="0"
     fit-margin-bottom="0" />
  <metadata
     id="metadata1067">
    <rdf:RDF>
      <cc:Work
         rdf:about="">
        <dc:format>image/svg+xml</dc:format>
        <dc:type
           rdf:resource="http://purl.org/dc/dcmitype/StillImage" />
        <dc:title></dc:title>
      </cc:Work>
    </rdf:RDF>
  </metadata>
  <g
     inkscape:label="Layer 1"
     inkscape:groupmode="layer"
     id="layer1"
     transform="translate(71.724447,-84.910605)">
    <path
       style="opacity:1;fill:#ffffff;fill-opacity:1;stroke:#cbd4e0;stroke-width:8;stroke-linecap:butt;stroke-linejoin:miter;stroke-miterlimit:4;stroke-dasharray:none;stroke-opacity:1"
       d="m -27.393776,169.46742 c -7.345095,2.79475 -13.304715,2.37517 -20.502427,0.55156 -11.502812,-3.74962 -19.130773,-11.28725 -19.826385,-20.22925 0.129173,-10.79902 10.606765,-18.34427 21.20859,-21.6095 6.895075,-1.81173 12.556572,-0.77033 19.276785,1.09005 5.039801,-16.52852 20.7477989,-26.96136 42.734237,-29.883053 14.993191,-1.133914 29.305856,3.916923 39.466087,12.805333 11.841747,-13.14097 28.167017,-26.060408 64.299839,-22.789275 18.773,0.869987 34.61564,10.495513 44.74154,22.950585 11.88653,-9.60549 28.74222,-16.973808 52.48137,-10.48409 15.35011,6.22819 24.42689,11.22422 30.0491,27.21428 17.64764,-6.03365 39.43849,5.16411 40.0655,18.80432 0.4354,18.50395 -25.12087,27.37155 -39.971,21.54464 -6.74034,18.08673 -19.06957,25.049 -39.40402,29.67113 -14.16079,2.00078 -30.75403,-1.94248 -43.37277,-12.5677 -13.15748,15.86652 -31.68058,24.55224 -59.17619,23.21589 C 81.411282,208.8169 67.545336,200.55796 55.230381,186.65386 42.389303,196.7878 29.031461,201.03467 10.894492,198.70128 -3.8638177,196.3493 -21.215981,188.57593 -27.393776,169.46742 Z"
       id="path1083"
       inkscape:connector-curvature="0"
       sodipodi:nodetypes="ccccccccccccccccccc" />
  </g>
</svg>
