<svg xmlns="http://www.w3.org/2000/svg" viewBox="0 0 150 34.8"><defs><style>.cls-1{fill:#36424a;}.cls-2{fill:none;}</style></defs><title>cumulus-networks-logo-limed-spruce</title><g id="Layer_2" data-name="Layer 2"><g id="Layer_1-2" data-name="Layer 1"><path id="Union_116" data-name="Union 116" class="cls-1" d="M90.8,15.7V5.91h3V15.5c0,3.2,1.6,4.79,4.3,4.79s4.29-1.5,4.29-4.7V5.9h3v9.6c0,5-2.9,7.6-7.29,7.6S90.8,20.6,90.8,15.7Zm-33,0V5.91h3V15.5c0,3.2,1.6,4.79,4.3,4.79s4.3-1.5,4.3-4.7V5.9h3v9.6c0,5-2.9,7.6-7.3,7.6s-7.3-2.5-7.3-7.4Zm-39.69,0V5.91h3V15.5c0,3.2,1.6,4.79,4.3,4.79s4.3-1.5,4.3-4.7V5.9h3v9.6c0,5-2.9,7.6-7.3,7.6s-7.31-2.5-7.31-7.4ZM0,14.4A8.6,8.6,0,0,1,8.4,5.6h.3a9,9,0,0,1,6.7,2.7l-1.9,2.1a6.33,6.33,0,0,0-4.7-2,6,6,0,0,0-5.6,6.4,5.94,5.94,0,0,0,5.5,5.6,6.41,6.41,0,0,0,4.8-2.2l1.9,1.9a8.57,8.57,0,0,1-6.9,3A8.5,8.5,0,0,1,0,14.61H0Zm108.19,6,1.7-2.2a8,8,0,0,0,5.3,2.2c1.8,0,3-.8,3-2.2,0-1.2-.7-1.8-3.8-2.6-3.6-.8-5.6-1.9-5.6-5,0-2.9,2.5-4.9,5.7-4.9a9.07,9.07,0,0,1,6.1,2.1L119,10.1a7,7,0,0,0-4.6-1.7c-1.7,0-2.8.9-2.8,2,0,1.3.8,1.8,4,2.7,3.6.8,5.4,2.2,5.4,4.9,0,3.2-2.5,5-6,5A9.69,9.69,0,0,1,108.19,20.4ZM36.9,22.9V5.9h3.3l5.1,8,5.1-8h3.2V22.8h-3V10.7l-5.3,8h-.1l-5.3-7.9V22.9Zm39.79-.11V5.9h3V20.1h8.9v2.7Z"/><g id="Group_2475" data-name="Group 2475"><ellipse id="Ellipse_672" data-name="Ellipse 672" class="cls-2" cx="143.8" cy="6.1" rx="6.2" ry="6.1"/></g><path class="cls-1" d="M138.69,25.3l-1.9.2c-.4,0-.6.4-.7.8l-.3,1.4h0c-.1.5.4.5.8.6l2-.6c.8,0,1-1.4,1-1.8A.78.78,0,0,0,138.69,25.3Z"/><polygon class="cls-1" points="115.09 34.8 130.39 20.8 128.69 19.4 115.09 34.8"/><path class="cls-1" d="M147.89,12.5l-1.5.2a.82.82,0,0,0-.9.7l-.1,2v.09a.7.7,0,0,0,.7.71l1.1.3a.8.8,0,0,0,.9-.7l.5-2.6v0A.68.68,0,0,0,147.89,12.5Z"/><path class="cls-1" d="M150,6.1A6.1,6.1,0,1,0,140.29,11a2.2,2.2,0,0,0-.7.39l-1.2-1.1h0a.78.78,0,0,0-1.1,0l-7.7,6.8-.1.1a.65.65,0,0,0,.1.9l1.8,1.7c.3.3.9.2,1.3-.3.2-.3,1.6-2,3-3.5a35.32,35.32,0,0,1,3.4-3.3c.2-.1.31-.2.1.1a39.71,39.71,0,0,0-4.1,5.8c-.5,1-2.7,5.2-1.7,6h0c.1.1.3.2.8.1a10.36,10.36,0,0,0,2.5-.6,14.06,14.06,0,0,0,3.8-2.5c1.3-1.2,3.7-3.8,4.1-6.2a5.13,5.13,0,0,0-.76-3.2A6.21,6.21,0,0,0,150,6.1Zm-10.8,0V6a4.52,4.52,0,0,1,4.6-4.45,4.6,4.6,0,0,1,0,9.2,4.27,4.27,0,0,1-.81-.09V9.8a4.44,4.44,0,0,0,2.3-1.5c1.1-1.1,1.1-3.5-.5-4-1.3-.4-2.8.9-3.2,2-.5,1.4-.4,2.9.2,3.5v.4A4.63,4.63,0,0,1,139.2,6.1Z"/></g></g></svg>