<?xml version="1.0" encoding="UTF-8" standalone="no"?>
<svg
   xmlns:dc="http://purl.org/dc/elements/1.1/"
   xmlns:cc="http://creativecommons.org/ns#"
   xmlns:rdf="http://www.w3.org/1999/02/22-rdf-syntax-ns#"
   xmlns:svg="http://www.w3.org/2000/svg"
   xmlns="http://www.w3.org/2000/svg"
   xmlns:sodipodi="http://sodipodi.sourceforge.net/DTD/sodipodi-0.dtd"
   xmlns:inkscape="http://www.inkscape.org/namespaces/inkscape"
   viewBox="0 0 48 57"
   version="1.1"
   id="svg931"
   sodipodi:docname="rack_bare_metal.svg"
   inkscape:version="0.92.3 (2405546, 2018-03-11)">
  <metadata
     id="metadata935">
    <rdf:RDF>
      <cc:Work
         rdf:about="">
        <dc:format>image/svg+xml</dc:format>
        <dc:type
           rdf:resource="http://purl.org/dc/dcmitype/StillImage" />
        <dc:title>cumulus-networks-rack-cumulus-linux</dc:title>
      </cc:Work>
    </rdf:RDF>
  </metadata>
  <sodipodi:namedview
     pagecolor="#ffffff"
     bordercolor="#666666"
     borderopacity="1"
     objecttolerance="10"
     gridtolerance="10"
     guidetolerance="10"
     inkscape:pageopacity="0"
     inkscape:pageshadow="2"
     inkscape:window-width="1920"
     inkscape:window-height="1017"
     id="namedview933"
     showgrid="false"
     inkscape:zoom="5.3777332"
     inkscape:cx="-41.263739"
     inkscape:cy="42.3294"
     inkscape:window-x="-8"
     inkscape:window-y="-8"
     inkscape:window-maximized="1"
     inkscape:current-layer="svg931" />
  <defs
     id="defs883">
    <style
       id="style876">.cls-1{fill:#fff;}.cls-2{fill:#8c9aa6;}.cls-3{fill:url(#New_Gradient_Swatch_6);}</style>
    <linearGradient
       id="New_Gradient_Swatch_6"
       x1="32.23"
       y1="20.26"
       x2="15.77"
       y2="-8.26"
       gradientUnits="userSpaceOnUse">
      <stop
         offset="0"
         stop-color="#00ad69"
         id="stop878" />
      <stop
         offset="1"
         stop-color="#7ccc6c"
         id="stop880" />
    </linearGradient>
  </defs>
  <title
     id="title885">cumulus-networks-rack-cumulus-linux</title>
  <rect
     class="cls-1"
     x="0.5"
     y="11.5"
     width="47"
     height="9"
     rx="1.5"
     ry="1.5"
     id="rect887"
     style="fill:#ffffff" />
  <path
     class="cls-2"
     d="m 46,12 a 1,1 0 0 1 1,1 v 6 a 1,1 0 0 1 -1,1 H 2 A 1,1 0 0 1 1,19 v -6 a 1,1 0 0 1 1,-1 h 44 m 0,-1 H 2 a 2,2 0 0 0 -2,2 v 6 a 2,2 0 0 0 2,2 h 44 a 2,2 0 0 0 2,-2 v -6 a 2,2 0 0 0 -2,-2 z"
     id="path889"
     inkscape:connector-curvature="0"
     style="fill:#8c9aa6" />
  <rect
     class="cls-2"
     x="32"
     y="15"
     width="10"
     height="2"
     id="rect891"
     style="fill:#8c9aa6" />
  <rect
     class="cls-1"
     x="0.5"
     y="20.5"
     width="47"
     height="9"
     rx="1.5"
     ry="1.5"
     id="rect893"
     style="fill:#ffffff" />
  <path
     class="cls-2"
     d="m 46,21 a 1,1 0 0 1 1,1 v 6 a 1,1 0 0 1 -1,1 H 2 A 1,1 0 0 1 1,28 v -6 a 1,1 0 0 1 1,-1 h 44 m 0,-1 H 2 a 2,2 0 0 0 -2,2 v 6 a 2,2 0 0 0 2,2 h 44 a 2,2 0 0 0 2,-2 v -6 a 2,2 0 0 0 -2,-2 z"
     id="path895"
     inkscape:connector-curvature="0"
     style="fill:#8c9aa6" />
  <rect
     class="cls-2"
     x="32"
     y="24"
     width="10"
     height="2"
     id="rect897"
     style="fill:#8c9aa6" />
  <rect
     class="cls-1"
     x="0.5"
     y="29.5"
     width="47"
     height="9"
     rx="1.5"
     ry="1.5"
     id="rect899"
     style="fill:#ffffff" />
  <path
     class="cls-2"
     d="m 46,30 a 1,1 0 0 1 1,1 v 6 a 1,1 0 0 1 -1,1 H 2 A 1,1 0 0 1 1,37 v -6 a 1,1 0 0 1 1,-1 h 44 m 0,-1 H 2 a 2,2 0 0 0 -2,2 v 6 a 2,2 0 0 0 2,2 h 44 a 2,2 0 0 0 2,-2 v -6 a 2,2 0 0 0 -2,-2 z"
     id="path901"
     inkscape:connector-curvature="0"
     style="fill:#8c9aa6" />
  <rect
     class="cls-2"
     x="32"
     y="33"
     width="10"
     height="2"
     id="rect903"
     style="fill:#8c9aa6" />
  <rect
     class="cls-1"
     x="0.5"
     y="38.5"
     width="47"
     height="9"
     rx="1.5"
     ry="1.5"
     id="rect905"
     style="fill:#ffffff" />
  <path
     class="cls-2"
     d="m 46,39 a 1,1 0 0 1 1,1 v 6 a 1,1 0 0 1 -1,1 H 2 A 1,1 0 0 1 1,46 v -6 a 1,1 0 0 1 1,-1 h 44 m 0,-1 H 2 a 2,2 0 0 0 -2,2 v 6 a 2,2 0 0 0 2,2 h 44 a 2,2 0 0 0 2,-2 v -6 a 2,2 0 0 0 -2,-2 z"
     id="path907"
     inkscape:connector-curvature="0"
     style="fill:#8c9aa6" />
  <rect
     class="cls-2"
     x="32"
     y="42"
     width="10"
     height="2"
     id="rect909"
     style="fill:#8c9aa6" />
  <rect
     class="cls-1"
     x="0.5"
     y="47.5"
     width="47"
     height="9"
     rx="1.5"
     ry="1.5"
     id="rect911"
     style="fill:#ffffff" />
  <path
     class="cls-2"
     d="m 46,48 a 1,1 0 0 1 1,1 v 6 a 1,1 0 0 1 -1,1 H 2 A 1,1 0 0 1 1,55 v -6 a 1,1 0 0 1 1,-1 h 44 m 0,-1 H 2 a 2,2 0 0 0 -2,2 v 6 a 2,2 0 0 0 2,2 h 44 a 2,2 0 0 0 2,-2 v -6 a 2,2 0 0 0 -2,-2 z"
     id="path913"
     inkscape:connector-curvature="0"
     style="fill:#8c9aa6" />
  <rect
     class="cls-2"
     x="32"
     y="51"
     width="10"
     height="2"
     id="rect915"
     style="fill:#8c9aa6" />
  <rect
     class="cls-1"
     width="48"
     height="12"
     rx="2"
     ry="2"
     id="rect917"
     x="0"
     y="0"
     style="fill:#ffffff" />
  <path
     class="cls-3"
     d="M 45,3 V 9 H 3 V 3 H 45 M 46,0 H 2 A 2,2 0 0 0 0,2 v 8 a 2,2 0 0 0 2,2 h 44 a 2,2 0 0 0 2,-2 V 2 A 2,2 0 0 0 46,0 Z"
     id="path919"
     style="fill:#cbd4e0;fill-opacity:1"
     inkscape:connector-curvature="0" />
  <path
     class="cls-2"
     d="m 46,1 a 1,1 0 0 1 1,1 v 8 a 1,1 0 0 1 -1,1 H 2 A 1,1 0 0 1 1,10 V 2 A 1,1 0 0 1 2,1 H 46 M 46,0 H 2 A 2,2 0 0 0 0,2 v 8 a 2,2 0 0 0 2,2 h 44 a 2,2 0 0 0 2,-2 V 2 A 2,2 0 0 0 46,0 Z"
     id="path921"
     inkscape:connector-curvature="0"
     style="fill:#8c9aa6" />
  <rect
     class="cls-2"
     x="40"
     y="5"
     width="2"
     height="2"
     id="rect923"
     style="fill:#8c9aa6" />
  <rect
     class="cls-2"
     x="35"
     y="5"
     width="2"
     height="2"
     id="rect925"
     style="fill:#8c9aa6" />
  <rect
     class="cls-2"
     x="30"
     y="5"
     width="2"
     height="2"
     id="rect927"
     style="fill:#8c9aa6" />
</svg>
