<svg xmlns="http://www.w3.org/2000/svg" xmlns:xlink="http://www.w3.org/1999/xlink" viewBox="0 0 48 57"><defs><style>.cls-1{fill:#fff;}.cls-2{fill:#8c9aa6;}.cls-3{fill:url(#New_Gradient_Swatch_2);}</style><linearGradient id="New_Gradient_Swatch_2" x1="32.23" y1="20.26" x2="15.77" y2="-8.26" gradientUnits="userSpaceOnUse"><stop offset="0" stop-color="#78cdd1"/><stop offset="1" stop-color="#1effbd"/></linearGradient></defs><title>cumulus-networks-rack-out-of-band</title><g id="Layer_2" data-name="Layer 2"><g id="Text"><rect class="cls-1" x="0.5" y="11.5" width="47" height="9" rx="1.5" ry="1.5"/><path class="cls-2" d="M46,12a1,1,0,0,1,1,1v6a1,1,0,0,1-1,1H2a1,1,0,0,1-1-1V13a1,1,0,0,1,1-1H46m0-1H2a2,2,0,0,0-2,2v6a2,2,0,0,0,2,2H46a2,2,0,0,0,2-2V13a2,2,0,0,0-2-2Z"/><rect class="cls-2" x="32" y="15" width="10" height="2"/><rect class="cls-1" x="0.5" y="20.5" width="47" height="9" rx="1.5" ry="1.5"/><path class="cls-2" d="M46,21a1,1,0,0,1,1,1v6a1,1,0,0,1-1,1H2a1,1,0,0,1-1-1V22a1,1,0,0,1,1-1H46m0-1H2a2,2,0,0,0-2,2v6a2,2,0,0,0,2,2H46a2,2,0,0,0,2-2V22a2,2,0,0,0-2-2Z"/><rect class="cls-2" x="32" y="24" width="10" height="2"/><rect class="cls-1" x="0.5" y="29.5" width="47" height="9" rx="1.5" ry="1.5"/><path class="cls-2" d="M46,30a1,1,0,0,1,1,1v6a1,1,0,0,1-1,1H2a1,1,0,0,1-1-1V31a1,1,0,0,1,1-1H46m0-1H2a2,2,0,0,0-2,2v6a2,2,0,0,0,2,2H46a2,2,0,0,0,2-2V31a2,2,0,0,0-2-2Z"/><rect class="cls-2" x="32" y="33" width="10" height="2"/><rect class="cls-1" x="0.5" y="38.5" width="47" height="9" rx="1.5" ry="1.5"/><path class="cls-2" d="M46,39a1,1,0,0,1,1,1v6a1,1,0,0,1-1,1H2a1,1,0,0,1-1-1V40a1,1,0,0,1,1-1H46m0-1H2a2,2,0,0,0-2,2v6a2,2,0,0,0,2,2H46a2,2,0,0,0,2-2V40a2,2,0,0,0-2-2Z"/><rect class="cls-2" x="32" y="42" width="10" height="2"/><rect class="cls-1" x="0.5" y="47.5" width="47" height="9" rx="1.5" ry="1.5"/><path class="cls-2" d="M46,48a1,1,0,0,1,1,1v6a1,1,0,0,1-1,1H2a1,1,0,0,1-1-1V49a1,1,0,0,1,1-1H46m0-1H2a2,2,0,0,0-2,2v6a2,2,0,0,0,2,2H46a2,2,0,0,0,2-2V49a2,2,0,0,0-2-2Z"/><rect class="cls-2" x="32" y="51" width="10" height="2"/><rect class="cls-1" width="48" height="12" rx="2" ry="2"/><path class="cls-3" d="M45,3V9H3V3H45m1-3H2A2,2,0,0,0,0,2v8a2,2,0,0,0,2,2H46a2,2,0,0,0,2-2V2a2,2,0,0,0-2-2Z"/><path class="cls-2" d="M46,1a1,1,0,0,1,1,1v8a1,1,0,0,1-1,1H2a1,1,0,0,1-1-1V2A1,1,0,0,1,2,1H46m0-1H2A2,2,0,0,0,0,2v8a2,2,0,0,0,2,2H46a2,2,0,0,0,2-2V2a2,2,0,0,0-2-2Z"/><rect class="cls-2" x="40" y="5" width="2" height="2"/><rect class="cls-2" x="35" y="5" width="2" height="2"/><rect class="cls-2" x="30" y="5" width="2" height="2"/></g></g></svg>