<?xml version="1.0" encoding="utf-8"?>
<svg version="1.1" id="Layer_1" xmlns="http://www.w3.org/2000/svg" xmlns:xlink="http://www.w3.org/1999/xlink" x="0px" y="0px"
	 viewBox="0 0 146.541 190.512" style="enable-background:new 0 0 146.541 190.512;" xml:space="preserve">
<style type="text/css">
	.st0{fill:#E7EBF0;}
	.st1{fill:none;stroke:#B8C6D3;stroke-width:2;stroke-linecap:round;stroke-linejoin:round;}
	.st2{fill:none;stroke:#626366;stroke-width:2.7;stroke-linecap:round;stroke-linejoin:round;}
	.st3{fill:#416895;}
	.st4{fill:#7D91B4;}
	.st5{fill:#607BA4;}
	.st6{fill:none;stroke:#DFE0DF;stroke-width:0.675;stroke-linecap:round;stroke-linejoin:round;}
	.st7{fill:#FEFEFE;}
	.st8{fill:#898B8E;}
	.st9{fill:#BBBDBF;}
	.st10{fill:#B3B5B7;}
</style>
<title>icon-datacenter-small</title>
<desc>Created with Sketch.</desc>
<g id="Page-1">
	<g id="Desktop" transform="translate(-527.000000, -566.000000)">
		<g id="icon-datacenter-small" transform="translate(528.000000, 567.000000)">
			<path id="Fill-1" class="st0" d="M0.027,36.401c0-5.571,3.368-7.072,3.368-7.072L57.972,0l81.42,46.041
				c-0.048-0.028,5.051,3.705,4.883,12.552c-0.026,1.409,0.256,94.284,0.256,94.284s0.167,4.418-0.915,5.687
				c-0.592,0.695-3.137,2.226-3.137,2.226l-52.302,26.795c0,0-3.703,2.271-7.447-0.295c-3.45-2.366-69.125-39.377-69.125-39.377
				s-11.794-3.772-11.603-23.206C0.168,107.623,0.027,56.059,0.027,36.401"/>
			<path id="Stroke-3" class="st1" d="M0.027,36.401c0-5.571,3.368-7.072,3.368-7.072L57.972,0l81.42,46.041
				c-0.048-0.028,5.051,3.705,4.883,12.552c-0.026,1.409,0.256,94.284,0.256,94.284s0.167,4.418-0.915,5.687
				c-0.592,0.695-3.137,2.226-3.137,2.226l-52.302,26.795c0,0-3.703,2.271-7.447-0.295c-3.45-2.366-69.125-39.377-69.125-39.377
				s-11.794-3.772-11.603-23.206C0.168,107.623,0.027,56.059,0.027,36.401z"/>
			<polygon id="Stroke-5" class="st2" points="88.779,165.32 126.831,145.121 126.838,155.998 88.786,176.195 			"/>
			<polygon id="Stroke-7" class="st2" points="18.236,122.933 56.288,102.734 126.831,145.12 88.779,165.32 			"/>
			<polygon id="Stroke-9" class="st2" points="88.779,165.32 88.786,176.195 18.243,133.808 18.236,122.933 			"/>
			<polygon id="Fill-11" class="st3" points="88.779,165.32 126.831,145.123 126.838,155.998 88.786,176.197 			"/>
			<polygon id="Fill-13" class="st4" points="18.236,122.933 56.288,102.736 126.831,145.122 88.779,165.32 			"/>
			<polygon id="Fill-15" class="st5" points="88.779,165.32 88.786,176.197 18.243,133.808 18.236,122.933 			"/>
			<polyline id="Stroke-17" class="st6" points="18.577,122.939 88.765,165.113 88.765,175.906 			"/>
			<polygon id="Fill-19" class="st7" points="26.809,136.773 21.371,133.505 21.371,131.937 26.809,135.205 			"/>
			<polygon id="Fill-21" class="st7" points="66.143,161.254 54.023,153.971 54.023,151.113 66.143,158.397 			"/>
			<polygon id="Fill-23" class="st7" points="52.357,152.74 40.237,145.457 40.237,142.601 52.357,149.883 			"/>
			<polygon id="Fill-25" class="st7" points="83.253,171.273 81.278,170.087 81.278,167.783 83.253,168.968 			"/>
			<polygon id="Stroke-27" class="st2" points="89.053,147.957 127.105,127.758 127.112,138.635 89.06,158.832 			"/>
			<polygon id="Stroke-29" class="st2" points="18.51,105.57 56.562,85.371 127.105,127.757 89.053,147.957 			"/>
			<polygon id="Stroke-31" class="st2" points="89.053,147.957 89.06,158.832 18.517,116.446 18.51,105.57 			"/>
			<polygon id="Fill-33" class="st3" points="89.053,147.957 127.105,127.76 127.112,138.635 89.06,158.834 			"/>
			<polygon id="Fill-35" class="st4" points="18.51,105.57 56.562,85.373 127.105,127.759 89.053,147.957 			"/>
			<polygon id="Fill-37" class="st5" points="89.053,147.957 89.06,158.834 18.517,116.446 18.51,105.57 			"/>
			<polyline id="Stroke-39" class="st6" points="18.851,105.576 89.039,147.75 89.039,158.543 			"/>
			<polygon id="Fill-41" class="st7" points="27.083,119.41 21.645,116.142 21.645,114.574 27.083,117.842 			"/>
			<polygon id="Fill-43" class="st7" points="66.417,143.89 54.297,136.607 54.297,133.75 66.417,141.033 			"/>
			<polygon id="Fill-45" class="st7" points="52.631,135.377 40.511,128.095 40.511,125.238 52.631,132.52 			"/>
			<polygon id="Fill-47" class="st7" points="83.526,153.91 81.551,152.724 81.551,150.42 83.526,151.605 			"/>
			<polygon id="Stroke-49" class="st2" points="89.119,130.85 127.171,110.651 127.178,121.527 89.126,141.725 			"/>
			<polygon id="Stroke-51" class="st2" points="18.576,88.462 56.628,68.264 127.171,110.65 89.119,130.851 			"/>
			<polygon id="Stroke-53" class="st2" points="89.119,130.85 89.126,141.725 18.583,99.338 18.576,88.462 			"/>
			<polygon id="Fill-55" class="st3" points="89.119,130.85 127.171,110.653 127.178,121.528 89.126,141.726 			"/>
			<polygon id="Fill-57" class="st4" points="18.576,88.464 56.628,68.265 127.171,110.652 89.119,130.851 			"/>
			<polygon id="Fill-59" class="st5" points="89.119,130.85 89.126,141.726 18.583,99.338 18.576,88.463 			"/>
			<polyline id="Stroke-61" class="st6" points="18.917,88.468 89.105,130.642 89.105,141.436 			"/>
			<polygon id="Fill-63" class="st7" points="27.149,102.303 21.711,99.034 21.711,97.467 27.149,100.735 			"/>
			<polygon id="Fill-65" class="st7" points="66.483,126.783 54.363,119.501 54.363,116.643 66.483,123.927 			"/>
			<polygon id="Fill-67" class="st7" points="52.697,118.269 40.577,110.987 40.577,108.131 52.697,115.413 			"/>
			<polygon id="Fill-69" class="st7" points="83.593,136.802 81.618,135.617 81.618,133.312 83.593,134.498 			"/>
			<polygon id="Stroke-71" class="st2" points="88.848,114.758 126.9,94.559 126.907,105.435 88.855,125.633 			"/>
			<polygon id="Stroke-73" class="st2" points="18.305,72.371 56.357,52.173 126.9,94.559 88.848,114.759 			"/>
			<polygon id="Stroke-75" class="st2" points="88.848,114.758 88.855,125.633 18.312,83.247 18.305,72.37 			"/>
			<polygon id="Fill-77" class="st3" points="88.848,114.758 126.9,94.561 126.907,105.436 88.855,125.634 			"/>
			<polygon id="Fill-79" class="st4" points="18.305,72.372 56.357,52.174 126.9,94.561 88.848,114.759 			"/>
			<polygon id="Fill-81" class="st5" points="88.848,114.758 88.855,125.634 18.312,83.247 18.305,72.371 			"/>
			<polyline id="Stroke-83" class="st6" points="18.645,72.377 88.833,114.551 88.833,125.345 			"/>
			<polygon id="Fill-85" class="st7" points="26.878,86.211 21.44,82.943 21.44,81.375 26.878,84.644 			"/>
			<polygon id="Fill-87" class="st7" points="66.212,110.691 54.092,103.409 54.092,100.551 66.212,107.835 			"/>
			<polygon id="Fill-89" class="st7" points="52.426,102.177 40.306,94.895 40.306,92.039 52.426,99.321 			"/>
			<polygon id="Fill-91" class="st7" points="83.321,120.711 81.346,119.526 81.346,117.221 83.321,118.407 			"/>
			<polygon id="Stroke-93" class="st2" points="88.754,97.032 126.806,76.833 126.813,87.709 88.761,107.907 			"/>
			<polygon id="Stroke-95" class="st2" points="18.211,54.644 56.263,34.446 126.806,76.832 88.754,97.032 			"/>
			<polygon id="Stroke-97" class="st2" points="88.754,97.032 88.761,107.907 18.218,65.52 18.211,54.644 			"/>
			<polygon id="Fill-99" class="st8" points="88.754,97.032 126.806,76.835 126.813,87.71 88.761,107.908 			"/>
			<polygon id="Fill-101" class="st9" points="18.211,54.645 56.263,34.447 126.806,76.834 88.754,97.032 			"/>
			<polygon id="Fill-103" class="st10" points="88.754,97.032 88.761,107.908 18.218,65.52 18.211,54.645 			"/>
			<polyline id="Stroke-105" class="st6" points="18.552,54.65 88.74,96.824 88.74,107.618 			"/>
			<polygon id="Fill-107" class="st7" points="26.784,68.485 21.346,65.216 21.346,63.649 26.784,66.917 			"/>
			<polygon id="Fill-109" class="st7" points="66.162,88.647 54.041,81.364 54.041,78.507 66.162,85.792 			"/>
			<polygon id="Fill-111" class="st7" points="66.118,92.965 53.998,85.682 53.998,82.825 66.118,90.108 			"/>
			<polyline id="Fill-113" class="st7" points="40.254,72.85 40.254,69.993 52.374,77.275 52.374,80.133 			"/>
			<polygon id="Fill-115" class="st7" points="52.332,84.451 40.212,77.169 40.212,74.313 52.332,81.595 			"/>
			<polygon id="Fill-117" class="st7" points="83.227,102.984 81.252,101.799 81.252,99.494 83.227,100.68 			"/>
			<polygon id="Stroke-119" class="st2" points="89.027,79.668 127.079,59.469 127.086,70.346 89.034,90.544 			"/>
			<polygon id="Stroke-121" class="st2" points="18.484,37.281 56.536,17.083 127.079,59.468 89.027,79.668 			"/>
			<polygon id="Stroke-123" class="st2" points="89.027,79.668 89.034,90.544 18.491,48.158 18.484,37.281 			"/>
			<polygon id="Fill-125" class="st8" points="89.027,79.668 127.079,59.471 127.086,70.347 89.034,90.545 			"/>
			<polygon id="Fill-127" class="st9" points="18.484,37.282 56.536,17.084 127.079,59.47 89.027,79.668 			"/>
			<polygon id="Fill-129" class="st10" points="89.027,79.668 89.034,90.545 18.491,48.158 18.484,37.282 			"/>
			<polyline id="Stroke-131" class="st6" points="18.825,37.287 89.013,79.461 89.013,90.255 			"/>
			<polygon id="Fill-133" class="st7" points="27.058,51.121 21.62,47.853 21.62,46.285 27.058,49.554 			"/>
			<polygon id="Fill-135" class="st7" points="66.435,71.285 54.314,64.001 54.314,61.144 66.435,68.428 			"/>
			<polygon id="Fill-137" class="st7" points="66.392,75.601 54.272,68.318 54.272,65.462 66.392,72.745 			"/>
			<polygon id="Fill-139" class="st7" points="52.647,62.77 40.527,55.488 40.527,52.629 52.647,59.912 			"/>
			<polygon id="Fill-141" class="st7" points="52.605,67.087 40.485,59.806 40.485,56.949 52.605,64.231 			"/>
			<polygon id="Fill-143" class="st7" points="83.501,85.621 81.526,84.436 81.526,82.131 83.501,83.316 			"/>
		</g>
	</g>
</g>
</svg>
