<?xml version="1.0" encoding="utf-8"?>
<svg version="1.1" id="Layer_1" xmlns="http://www.w3.org/2000/svg" xmlns:xlink="http://www.w3.org/1999/xlink" x="0px" y="0px"
	 viewBox="0 0 128.082 131.636" style="enable-background:new 0 0 128.082 131.636;" xml:space="preserve">
<style type="text/css">
	.st0{fill:none;stroke:#626366;stroke-width:3.106;stroke-linejoin:round;}
	.st1{fill:#416895;}
	.st2{fill:#7D91B4;}
	.st3{fill:#607BA4;}
	.st4{fill:none;stroke:#DFE0DF;stroke-width:1.027;stroke-linecap:round;stroke-linejoin:round;}
	.st5{fill:none;stroke:#DFE0DF;stroke-width:1.026;stroke-linecap:round;stroke-linejoin:round;}
	.st6{fill:#DFE0DF;}
	.st7{fill:none;stroke:#FEFEFE;stroke-width:0.434;stroke-linejoin:round;}
</style>
<title>icon-blueSwitch-large-generic</title>
<desc>Created with Sketch.</desc>
<polygon id="Stroke-1" class="st0" points="82.71,73.552 126.486,50.32 126.529,106.845 82.748,130.083 "/>
<polygon id="Stroke-3" class="st0" points="1.553,24.789 45.33,1.553 126.487,50.319 82.71,73.552 "/>
<polygon id="Stroke-5" class="st0" points="82.71,73.552 82.748,130.083 1.59,81.32 1.553,24.789 "/>
<polygon id="Fill-8" class="st1" points="82.71,73.552 126.486,50.32 126.529,106.845 82.748,130.083 "/>
<polygon id="Fill-9" class="st2" points="1.553,24.789 45.33,1.553 126.487,50.319 82.71,73.552 "/>
<polygon id="Fill-10" class="st3" points="82.71,73.552 82.748,130.083 1.59,81.32 1.553,24.789 "/>
<path id="Stroke-11" class="st4" d="M1.573,25.199l81.156,49.172"/>
<path id="Stroke-13" class="st5" d="M82.729,74.457v55.215"/>
<path id="Fill-15" class="st6" d="M21.977,48.092c0,0.367-0.256,0.509-0.568,0.315l-15.197-9.41
	c-0.312-0.193-0.567-0.651-0.566-1.018l0.01-6.973c0.001-0.367,0.256-0.509,0.568-0.315l15.192,9.408
	c0.313,0.193,0.567,0.651,0.567,1.018L21.977,48.092z"/>
<path id="Stroke-17" class="st7" d="M21.977,48.092c0,0.367-0.256,0.509-0.568,0.315l-15.197-9.41
	c-0.312-0.193-0.567-0.651-0.566-1.018l0.01-6.973c0.001-0.367,0.256-0.509,0.568-0.315l15.192,9.408
	c0.313,0.193,0.567,0.651,0.567,1.018L21.977,48.092z"/>
<path id="Fill-19" class="st6" d="M21.966,58.653c-0.001,0.367-0.256,0.509-0.568,0.315L6.204,49.555
	c-0.312-0.193-0.567-0.651-0.566-1.018l0.006-6.973c0.001-0.367,0.256-0.509,0.568-0.315l15.195,9.411
	c0.313,0.193,0.568,0.651,0.567,1.018L21.966,58.653z"/>
<path id="Stroke-21" class="st7" d="M21.966,58.653c-0.001,0.367-0.256,0.509-0.568,0.315L6.204,49.555
	c-0.312-0.193-0.567-0.651-0.566-1.018l0.006-6.973c0.001-0.367,0.256-0.509,0.568-0.315l15.195,9.411
	c0.313,0.193,0.568,0.651,0.567,1.018L21.966,58.653z"/>
<path id="Fill-23" class="st6" d="M21.956,69.215c-0.001,0.367-0.256,0.509-0.568,0.315L6.193,60.116
	c-0.312-0.193-0.566-0.651-0.566-1.018l0.006-6.976c0-0.367,0.256-0.509,0.568-0.315l15.194,9.413
	c0.313,0.193,0.568,0.651,0.567,1.018L21.956,69.215z"/>
<path id="Stroke-25" class="st7" d="M21.956,69.215c-0.001,0.367-0.256,0.509-0.568,0.315L6.193,60.116
	c-0.312-0.193-0.566-0.651-0.566-1.018l0.006-6.976c0-0.367,0.256-0.509,0.568-0.315l15.194,9.413
	c0.313,0.193,0.568,0.651,0.567,1.018L21.956,69.215z"/>
<path id="Fill-27" class="st6" d="M21.945,79.772c-0.001,0.367-0.256,0.509-0.568,0.315L6.181,70.676
	c-0.312-0.193-0.567-0.651-0.566-1.018l0.01-6.975c0.001-0.367,0.256-0.509,0.568-0.315l15.193,9.412
	c0.313,0.193,0.568,0.651,0.567,1.018L21.945,79.772z"/>
<path id="Stroke-29" class="st7" d="M21.945,79.772c-0.001,0.367-0.256,0.509-0.568,0.315L6.181,70.676
	c-0.312-0.193-0.567-0.651-0.566-1.018l0.01-6.975c0.001-0.367,0.256-0.509,0.568-0.315l15.193,9.412
	c0.313,0.193,0.568,0.651,0.567,1.018L21.945,79.772z"/>
<path id="Fill-31" class="st6" d="M21.934,90.332c0,0.367-0.255,0.509-0.567,0.315L6.173,81.235
	c-0.312-0.193-0.567-0.651-0.566-1.018l0.006-6.975c0.001-0.367,0.256-0.509,0.568-0.315l15.192,9.412
	c0.313,0.193,0.568,0.651,0.567,1.018L21.934,90.332z"/>
<path id="Stroke-33" class="st7" d="M21.934,90.332c0,0.367-0.255,0.509-0.567,0.315L6.173,81.235
	c-0.312-0.193-0.567-0.651-0.566-1.018l0.006-6.975c0.001-0.367,0.256-0.509,0.568-0.315l15.192,9.412
	c0.313,0.193,0.568,0.651,0.567,1.018L21.934,90.332z"/>
<path id="Fill-35" class="st6" d="M40.025,59.27c-0.001,0.367-0.256,0.509-0.568,0.315l-15.194-9.409
	c-0.312-0.193-0.567-0.651-0.567-1.018l0.006-6.975c0.001-0.367,0.256-0.509,0.568-0.315l15.197,9.412
	c0.313,0.193,0.567,0.651,0.567,1.018L40.025,59.27z"/>
<path id="Stroke-37" class="st7" d="M40.025,59.27c-0.001,0.367-0.256,0.509-0.568,0.315l-15.194-9.409
	c-0.312-0.193-0.567-0.651-0.567-1.018l0.006-6.975c0.001-0.367,0.256-0.509,0.568-0.315l15.197,9.412
	c0.313,0.193,0.567,0.651,0.567,1.018L40.025,59.27z"/>
<path id="Fill-39" class="st6" d="M40.016,69.83c0,0.367-0.255,0.509-0.567,0.315l-15.196-9.41
	c-0.312-0.193-0.567-0.651-0.566-1.018l0.006-6.974c0.001-0.367,0.256-0.509,0.568-0.315l15.193,9.409
	c0.313,0.193,0.568,0.651,0.568,1.018L40.016,69.83z"/>
<path id="Stroke-41" class="st7" d="M40.016,69.83c0,0.367-0.255,0.509-0.567,0.315l-15.196-9.41
	c-0.312-0.193-0.567-0.651-0.566-1.018l0.006-6.974c0.001-0.367,0.256-0.509,0.568-0.315l15.193,9.409
	c0.313,0.193,0.568,0.651,0.568,1.018L40.016,69.83z"/>
<path id="Fill-43" class="st6" d="M40.005,80.392c-0.001,0.367-0.256,0.509-0.568,0.315l-15.198-9.413
	c-0.312-0.193-0.567-0.651-0.566-1.018l0.009-6.975c0-0.367,0.256-0.509,0.568-0.315l15.195,9.411
	c0.313,0.193,0.568,0.651,0.567,1.018L40.005,80.392z"/>
<path id="Stroke-45" class="st7" d="M40.005,80.392c-0.001,0.367-0.256,0.509-0.568,0.315l-15.198-9.413
	c-0.312-0.193-0.567-0.651-0.566-1.018l0.009-6.975c0-0.367,0.256-0.509,0.568-0.315l15.195,9.411
	c0.313,0.193,0.568,0.651,0.567,1.018L40.005,80.392z"/>
<path id="Fill-47" class="st6" d="M39.993,90.951c-0.001,0.367-0.256,0.509-0.568,0.315L24.23,81.852
	c-0.312-0.193-0.567-0.651-0.566-1.018l0.006-6.973c0-0.367,0.255-0.509,0.567-0.315l15.197,9.411
	c0.313,0.193,0.568,0.651,0.567,1.018L39.993,90.951z"/>
<path id="Stroke-49" class="st7" d="M39.993,90.951c-0.001,0.367-0.256,0.509-0.568,0.315L24.23,81.852
	c-0.312-0.193-0.567-0.651-0.566-1.018l0.006-6.973c0-0.367,0.255-0.509,0.567-0.315l15.197,9.411
	c0.313,0.193,0.568,0.651,0.567,1.018L39.993,90.951z"/>
<path id="Fill-51" class="st6" d="M39.985,101.51c-0.001,0.367-0.256,0.509-0.568,0.315L24.22,92.412
	c-0.312-0.193-0.567-0.651-0.566-1.018l0.007-6.974c0.001-0.367,0.256-0.509,0.568-0.315l15.194,9.413
	c0.313,0.193,0.568,0.651,0.568,1.018L39.985,101.51z"/>
<path id="Stroke-53" class="st7" d="M39.985,101.51c-0.001,0.367-0.256,0.509-0.568,0.315L24.22,92.412
	c-0.312-0.193-0.567-0.651-0.566-1.018l0.007-6.974c0.001-0.367,0.256-0.509,0.568-0.315l15.194,9.413
	c0.313,0.193,0.568,0.651,0.568,1.018L39.985,101.51z"/>
<path id="Fill-55" class="st6" d="M58.073,70.452c0,0.367-0.255,0.509-0.567,0.315l-15.198-9.413
	c-0.312-0.193-0.567-0.651-0.566-1.018l0.006-6.975c0.001-0.367,0.256-0.509,0.568-0.315l15.196,9.414
	c0.313,0.193,0.568,0.651,0.567,1.018L58.073,70.452z"/>
<path id="Stroke-57" class="st7" d="M58.073,70.452c0,0.367-0.255,0.509-0.567,0.315l-15.198-9.413
	c-0.312-0.193-0.567-0.651-0.566-1.018l0.006-6.975c0.001-0.367,0.256-0.509,0.568-0.315l15.196,9.414
	c0.313,0.193,0.568,0.651,0.567,1.018L58.073,70.452z"/>
<path id="Fill-59" class="st6" d="M58.062,81.01c-0.001,0.367-0.256,0.509-0.568,0.315l-15.197-9.411
	c-0.312-0.193-0.566-0.651-0.566-1.018l0.009-6.975c0.001-0.367,0.256-0.509,0.568-0.315l15.197,9.411
	c0.313,0.193,0.568,0.651,0.567,1.018L58.062,81.01z"/>
<path id="Stroke-61" class="st7" d="M58.062,81.01c-0.001,0.367-0.256,0.509-0.568,0.315l-15.197-9.411
	c-0.312-0.193-0.566-0.651-0.566-1.018l0.009-6.975c0.001-0.367,0.256-0.509,0.568-0.315l15.197,9.411
	c0.313,0.193,0.568,0.651,0.567,1.018L58.062,81.01z"/>
<path id="Fill-63" class="st6" d="M58.052,91.57c-0.001,0.367-0.256,0.509-0.568,0.315l-15.196-9.41
	c-0.312-0.193-0.567-0.651-0.566-1.018l0.006-6.978c0.001-0.367,0.256-0.509,0.568-0.315l15.197,9.414
	c0.313,0.193,0.568,0.651,0.567,1.018L58.052,91.57z"/>
<path id="Stroke-65" class="st7" d="M58.052,91.57c-0.001,0.367-0.256,0.509-0.568,0.315l-15.196-9.41
	c-0.312-0.193-0.567-0.651-0.566-1.018l0.006-6.978c0.001-0.367,0.256-0.509,0.568-0.315l15.197,9.414
	c0.313,0.193,0.568,0.651,0.567,1.018L58.052,91.57z"/>
<path id="Fill-67" class="st6" d="M58.041,102.128c-0.001,0.367-0.256,0.509-0.568,0.315l-15.196-9.409
	c-0.312-0.193-0.567-0.651-0.566-1.018l0.006-6.974c0-0.367,0.255-0.509,0.567-0.315l15.195,9.408
	c0.313,0.193,0.568,0.651,0.568,1.018L58.041,102.128z"/>
<path id="Stroke-69" class="st7" d="M58.041,102.128c-0.001,0.367-0.256,0.509-0.568,0.315l-15.196-9.409
	c-0.312-0.193-0.567-0.651-0.566-1.018l0.006-6.974c0-0.367,0.255-0.509,0.567-0.315l15.195,9.408
	c0.313,0.193,0.568,0.651,0.568,1.018L58.041,102.128z"/>
<path id="Fill-71" class="st6" d="M58.032,112.686c0,0.367-0.255,0.509-0.567,0.315l-15.198-9.412
	c-0.312-0.193-0.567-0.651-0.566-1.018l0.008-6.971c0.001-0.367,0.256-0.509,0.568-0.315l15.194,9.409
	c0.313,0.193,0.568,0.651,0.567,1.018L58.032,112.686z"/>
<path id="Stroke-73" class="st7" d="M58.032,112.686c0,0.367-0.255,0.509-0.567,0.315l-15.198-9.412
	c-0.312-0.193-0.567-0.651-0.566-1.018l0.008-6.971c0.001-0.367,0.256-0.509,0.568-0.315l15.194,9.409
	c0.313,0.193,0.568,0.651,0.567,1.018L58.032,112.686z"/>
<path id="Fill-75" class="st6" d="M76.121,81.629c-0.001,0.367-0.256,0.509-0.568,0.315l-15.194-9.412
	c-0.312-0.193-0.566-0.651-0.566-1.018l0.006-6.974c0-0.367,0.256-0.509,0.568-0.315l15.194,9.412
	c0.313,0.193,0.568,0.651,0.567,1.018L76.121,81.629z"/>
<path id="Stroke-77" class="st7" d="M76.121,81.629c-0.001,0.367-0.256,0.509-0.568,0.315l-15.194-9.412
	c-0.312-0.193-0.566-0.651-0.566-1.018l0.006-6.974c0-0.367,0.256-0.509,0.568-0.315l15.194,9.412
	c0.313,0.193,0.568,0.651,0.567,1.018L76.121,81.629z"/>
<path id="Fill-79" class="st6" d="M76.113,92.187c-0.001,0.367-0.256,0.509-0.568,0.315l-15.197-9.411
	c-0.312-0.193-0.566-0.651-0.566-1.018l0.009-6.975c0.001-0.367,0.256-0.509,0.568-0.315l15.194,9.412
	c0.313,0.193,0.568,0.651,0.567,1.018L76.113,92.187z"/>
<path id="Stroke-81" class="st7" d="M76.113,92.187c-0.001,0.367-0.256,0.509-0.568,0.315l-15.197-9.411
	c-0.312-0.193-0.566-0.651-0.566-1.018l0.009-6.975c0.001-0.367,0.256-0.509,0.568-0.315l15.194,9.412
	c0.313,0.193,0.568,0.651,0.567,1.018L76.113,92.187z"/>
<path id="Fill-83" class="st6" d="M76.103,102.75c-0.001,0.367-0.256,0.509-0.568,0.315L60.34,93.652
	c-0.312-0.193-0.567-0.651-0.566-1.018l0.006-6.976c0-0.367,0.255-0.509,0.567-0.315l15.195,9.412
	c0.313,0.193,0.568,0.651,0.567,1.018L76.103,102.75z"/>
<path id="Stroke-85" class="st7" d="M76.103,102.75c-0.001,0.367-0.256,0.509-0.568,0.315L60.34,93.652
	c-0.312-0.193-0.567-0.651-0.566-1.018l0.006-6.976c0-0.367,0.255-0.509,0.567-0.315l15.195,9.412
	c0.313,0.193,0.568,0.651,0.567,1.018L76.103,102.75z"/>
<path id="Fill-87" class="st6" d="M76.092,113.307c0,0.367-0.255,0.509-0.567,0.315l-15.198-9.411
	c-0.312-0.193-0.567-0.651-0.566-1.018l0.006-6.974c0.001-0.367,0.256-0.509,0.568-0.315l15.196,9.414
	c0.313,0.193,0.568,0.651,0.567,1.018L76.092,113.307z"/>
<path id="Stroke-89" class="st7" d="M76.092,113.307c0,0.367-0.255,0.509-0.567,0.315l-15.198-9.411
	c-0.312-0.193-0.567-0.651-0.566-1.018l0.006-6.974c0.001-0.367,0.256-0.509,0.568-0.315l15.196,9.414
	c0.313,0.193,0.568,0.651,0.567,1.018L76.092,113.307z"/>
<path id="Fill-91" class="st6" d="M76.079,123.868c-0.001,0.367-0.256,0.509-0.568,0.315l-15.192-9.411
	c-0.312-0.193-0.567-0.651-0.567-1.018l0.006-6.977c0.001-0.367,0.256-0.509,0.568-0.315l15.195,9.412
	c0.313,0.193,0.567,0.651,0.567,1.018L76.079,123.868z"/>
<path id="Stroke-93" class="st7" d="M76.079,123.868c-0.001,0.367-0.256,0.509-0.568,0.315l-15.192-9.411
	c-0.312-0.193-0.567-0.651-0.567-1.018l0.006-6.977c0.001-0.367,0.256-0.509,0.568-0.315l15.195,9.412
	c0.313,0.193,0.567,0.651,0.567,1.018L76.079,123.868z"/>
</svg>
