<?xml version="1.0" encoding="utf-8"?>
<!-- Generator: Adobe Illustrator 21.1.0, SVG Export Plug-In . SVG Version: 6.00 Build 0)  -->
<svg version="1.1" id="Layer_1" xmlns="http://www.w3.org/2000/svg" xmlns:xlink="http://www.w3.org/1999/xlink" x="0px" y="0px"
	 viewBox="0 0 59.9 59.8" style="enable-background:new 0 0 59.9 59.8;" xml:space="preserve">
<style type="text/css">
	.st0{fill:#734198;}
	.st1{fill:#FFFFFF;}
</style>
<title>INDIVIDUAL ICONS</title>
<ellipse class="st0" cx="30" cy="29.9" rx="30" ry="29.9"/>
<ellipse class="st1" cx="29.7" cy="11.6" rx="6.9" ry="2.9"/>
<path class="st1" d="M36.9,12.6c-0.4,1.5-3.4,2.8-7.2,2.8s-6.8-1.2-7.2-2.8l0,0v11.5l0,0c0,1.7,3.2,3,7.2,3s7.2-1.4,7.2-3L36.9,12.6
	L36.9,12.6z"/>
<ellipse class="st1" cx="18.7" cy="30.9" rx="6.9" ry="2.9"/>
<path class="st1" d="M25.9,31.9c-0.4,1.5-3.5,2.8-7.2,2.8s-6.8-1.2-7.2-2.8l0,0v11.5l0,0c0,1.7,3.2,3,7.2,3s7.2-1.4,7.2-3L25.9,31.9
	L25.9,31.9z"/>
<ellipse class="st1" cx="41.2" cy="30.9" rx="6.9" ry="2.9"/>
<path class="st1" d="M48.4,31.9c-0.4,1.5-3.4,2.8-7.2,2.8s-6.8-1.2-7.2-2.8l0,0v11.5l0,0c0,1.7,3.2,3,7.2,3c4,0,7.2-1.4,7.2-3
	L48.4,31.9L48.4,31.9z"/>
<rect x="26.8" y="37.4" class="st1" width="6.3" height="3.5"/>
<path class="st1" d="M21.8,23.9l-3.3,3.3H19c1.3,0,2.5,0.1,3.7,0.5l0.9-0.9c-1.2-0.5-1.9-1.3-1.9-2l0,0L21.8,23.9z"/>
<path class="st1" d="M40.7,27.1h0.4l-3.5-3.4v1c0,0.8-0.6,1.4-1.7,2l0.9,0.9C38.1,27.3,39.4,27.1,40.7,27.1z"/>
</svg>
