<?xml version="1.0" encoding="utf-8"?>
<!-- Generator: Adobe Illustrator 21.1.0, SVG Export Plug-In . SVG Version: 6.00 Build 0)  -->
<svg version="1.1" id="Layer_1" xmlns="http://www.w3.org/2000/svg" xmlns:xlink="http://www.w3.org/1999/xlink" x="0px" y="0px"
	 viewBox="0 0 60 59.9" style="enable-background:new 0 0 60 59.9;" xml:space="preserve">
<style type="text/css">
	.st0{fill:#C5972C;}
	.st1{fill:#FFFFFF;}
</style>
<title>INDIVIDUAL ICONS</title>
<ellipse class="st0" cx="30" cy="30" rx="30" ry="30"/>
<path class="st1" d="M43.6,21.6h-11v27.6h18.4V28.9L43.6,21.6z M50,48.3H33.5V22.5h9.2v7.3H50V48.3z"/>
<rect x="36.2" y="32.6" class="st1" width="11" height="0.9"/>
<rect x="36.2" y="34.5" class="st1" width="11" height="0.9"/>
<rect x="36.2" y="36.3" class="st1" width="5.5" height="0.9"/>
<path class="st1" d="M27.6,33.4l-14.8-0.1c-2,0-3.6,1.6-3.7,3.6v3.7l22.2,0.2v-3.7C31.3,35.1,29.6,33.4,27.6,33.4
	C27.6,33.4,27.6,33.4,27.6,33.4z"/>
<path class="st1" d="M20.1,29.6c-5.2,0-9.4-4.2-9.4-9.4c0-5.2,4.2-9.4,9.4-9.4c5.2,0,9.4,4.2,9.4,9.4C29.5,25.4,25.3,29.6,20.1,29.6
	z M20.1,11.9c-4.5,0-8.2,3.7-8.2,8.2s3.7,8.2,8.2,8.2c4.5,0,8.2-3.7,8.2-8.2C28.3,15.6,24.7,11.9,20.1,11.9z"/>
</svg>
