<svg id="uuid-2ba7a526-ae66-4531-a1f7-f500a097bdf7"
	xmlns="http://www.w3.org/2000/svg" width="18" height="18" viewBox="0 0 18 18">
	<defs>
		<linearGradient id="uuid-eb21db25-799f-4924-8d98-178ac6601233" x1="12.694" y1="0" x2="12.694" y2="18" gradientTransform="matrix(1, 0, 0, 1, 0, 0)" gradientUnits="userSpaceOnUse">
			<stop offset="0" stop-color="#5ea0ef" />
			<stop offset=".18" stop-color="#559cec" />
			<stop offset=".47" stop-color="#3c91e5" />
			<stop offset=".84" stop-color="#1380da" />
			<stop offset="1" stop-color="#0078d4" />
		</linearGradient>
		<linearGradient id="uuid-7c1fe4bd-48f3-4981-924f-8f02a4e0aea7" x1="3.004" y1="18" x2="3.004" y2="11.59" gradientTransform="matrix(1, 0, 0, 1, 0, 0)" gradientUnits="userSpaceOnUse">
			<stop offset="0" stop-color="#0078d4" />
			<stop offset="1" stop-color="#5ea0ef" />
		</linearGradient>
		<linearGradient id="uuid-9e236b81-4fad-4a92-8c61-b74221909c42" x1="7.702" y1="18" x2="7.702" y2="8.65" gradientTransform="matrix(1, 0, 0, 1, 0, 0)" gradientUnits="userSpaceOnUse">
			<stop offset="0" stop-color="#32bedd" />
			<stop offset="1" stop-color="#50e6ff" />
		</linearGradient>
	</defs>
	<g>
		<path d="M17.399,0H7.999c-.334,0-.606,.266-.612,.599V7.927c1.997,.21,3.606,1.714,3.949,3.677,1.517,.452,2.597,1.818,2.645,3.443v.05c-.044,1.201-.648,2.248-1.556,2.902h4.973c.332,0,.601-.268,.601-.599V.599C18,.268,17.731,0,17.399,0Z" fill="url(#uuid-eb21db25-799f-4924-8d98-178ac6601233)" />
		<g>
			<path d="M12.813,12.452h.744c.083,0,.15-.067,.15-.15v-2.202c0-.083-.067-.15-.15-.15h-1.728c-.083,0-.15,.067-.15,.15v1.627c.424,.173,.808,.419,1.134,.725Z" fill="#fff" />
			<rect x="8.643" y="1.871" width="2.028" height="2.523" rx=".15" ry=".15" fill="#fff" />
			<rect x="11.68" y="1.871" width="2.028" height="2.523" rx=".15" ry=".15" fill="#fff" />
			<path d="M11.83,8.433h1.728c.083,0,.15-.067,.15-.15v-2.245c0-.083-.067-.15-.15-.15h-1.728c-.008,0-.015,0-.023,.002-.082,.012-.139,.088-.127,.169v2.223c0,.083,.067,.15,.15,.15Z" fill="#fff" />
			<rect x="14.727" y="1.871" width="2.028" height="2.523" rx=".15" ry=".15" fill="#fff" />
			<path d="M16.605,5.89h-1.728c-.008,0-.015,0-.023,.002-.082,.012-.139,.088-.127,.169v2.223c0,.083,.067,.15,.15,.15h1.728c.083,0,.15-.067,.15-.15v-2.245c0-.083-.067-.15-.15-.15Z" fill="#fff" />
			<path d="M9.033,8.433h1.487c.083,0,.15-.067,.15-.15v-2.245c0-.083-.067-.15-.15-.15h-1.728c-.008,0-.015,0-.023,.002-.082,.012-.139,.088-.127,.169v2.188c.134,.056,.264,.117,.39,.185Z" fill="#fff" />
			<rect x="14.727" y="9.951" width="2.028" height="2.501" rx=".15" ry=".15" fill="#fff" />
		</g>
	</g>
	<g>
		<path d="M6,14.164c-.085-.769-.78-1.324-1.552-1.24s-1.329,.776-1.244,1.546c.085,.769,.779,1.324,1.552,1.24,.772-.084,1.329-.776,1.244-1.546Zm-3.346,3.099c-1.026-.451-1.74-1.42-1.862-2.529-.101-.915,.205-1.825,.84-2.495,.146-.155,.139-.398-.016-.544-.155-.146-.4-.139-.546,.016C.279,12.545-.102,13.678,.024,14.818c.152,1.381,1.041,2.588,2.319,3.149,.051,.022,.104,.033,.156,.033,.148,0,.29-.086,.354-.23,.086-.195-.002-.422-.198-.507Zm.609-1.326c-.504-.296-.829-.798-.893-1.376-.044-.402,.043-.796,.251-1.141,.11-.182,.051-.419-.132-.528-.183-.11-.42-.051-.53,.131-.297,.491-.42,1.052-.357,1.622,.089,.81,.563,1.54,1.268,1.955,.062,.036,.129,.053,.196,.053,.132,0,.261-.068,.333-.189,.108-.183,.047-.419-.136-.527Z" fill="url(#uuid-7c1fe4bd-48f3-4981-924f-8f02a4e0aea7)" />
		<path d="M10.65,12.223c-.089-2.043-1.81-3.635-3.861-3.572-1.633-.029-3.106,.972-3.675,2.497-.331,.04-.647,.125-.942,.247,.14,.175,.22,.389,.227,.617,.002,.08-.004,.16-.02,.237,.159,.014,.314,.063,.451,.146,.179,.107,.318,.261,.406,.444,.309-.271,.701-.453,1.14-.501,.075-.008,.152-.012,.228-.012,1.056,0,1.939,.789,2.055,1.836,.125,1.129-.697,2.149-1.831,2.273-.075,.008-.152,.012-.228,.012-.167,0-.33-.02-.486-.057-.008,.167-.057,.331-.145,.479-.116,.196-.292,.346-.497,.432,.086,.218,.1,.464,.025,.699,.074,.002,.149,.002,.224,0,.111,0,.223-.005,.328-.014h6.037c.054-.001,.107-.009,.159-.024,1.612-.011,2.928-1.285,2.987-2.89-.043-1.451-1.137-2.657-2.581-2.848Z" fill="url(#uuid-9e236b81-4fad-4a92-8c61-b74221909c42)" />
	</g>
</svg>