<svg id="uuid-cce2d261-4e38-4caf-9626-b61f2fe960d7"
	xmlns="http://www.w3.org/2000/svg" width="18" height="18" viewBox="0 0 18 18">
	<defs>
		<linearGradient id="uuid-20de7a1f-3c61-4db6-81a6-f8a857b16ef2" x1="5.776" y1="17.93" x2="5.776" y2="2.226" gradientTransform="matrix(1, 0, 0, 1, 0, 0)" gradientUnits="userSpaceOnUse">
			<stop offset="0" stop-color="#7b7b7b" />
			<stop offset="1" stop-color="#fff" />
		</linearGradient>
	</defs>
	<g>
		<path d="M13.5,9h0c2.484,0,4.5,2.016,4.5,4.5h0c0,2.484-2.016,4.5-4.5,4.5h-4.5v-4.5c0-2.484,2.016-4.5,4.5-4.5Z" fill="#32bedd" />
		<path d="M8.578,14.564H4.233l2.357-7.852h.28l1.782,5.937c.109-.623,.335-1.206,.655-1.726l-1.369-4.562-1.209-4.136-1.209,4.136L2.944,14.95c-.023,.058-.053,.155-.088,.289-.035,.134-.082,.283-.14,.447-.058,.164-.114,.336-.167,.517-.053,.181-.102,.353-.149,.517-.047,.164-.085,.304-.114,.421-.029,.117-.044,.193-.044,.228,0,.152,.055,.283,.167,.394,.111,.111,.242,.167,.394,.167,.134,0,.248-.038,.342-.114,.093-.076,.158-.172,.193-.289l.552-1.84h4.687v-1.122Z" fill="url(#uuid-20de7a1f-3c61-4db6-81a6-f8a857b16ef2)" />
		<path d="M2.401,8.036c-.076-.111-.152-.213-.228-.307-.076-.093-.149-.196-.219-.307-.275-.444-.482-.917-.622-1.42-.14-.502-.21-1.014-.21-1.534,.006-.526,.076-1.037,.21-1.534,.134-.497,.339-.964,.613-1.402,.064-.111,.134-.216,.21-.315l.228-.298c.053-.058,.088-.114,.105-.167,.018-.053,.026-.117,.026-.193,0-.152-.056-.283-.167-.394-.111-.111-.242-.167-.394-.167-.093,.006-.175,.026-.245,.061-.07,.035-.134,.085-.193,.149-.251,.275-.467,.581-.648,.92-.181,.339-.339,.698-.473,1.078-.134,.38-.234,.762-.298,1.148s-.096,.757-.096,1.113c.006,.38,.041,.759,.105,1.139,.064,.38,.164,.759,.298,1.139s.295,.739,.482,1.078c.187,.339,.406,.648,.657,.929,.117,.134,.26,.202,.429,.202,.152,0,.283-.056,.394-.167,.111-.111,.167-.242,.167-.394-.006-.076-.018-.14-.035-.193-.018-.053-.05-.108-.096-.167ZM13.364,3.348c-.058-.38-.155-.759-.289-1.139-.134-.38-.295-.739-.482-1.078-.187-.339-.403-.646-.648-.92-.123-.134-.269-.202-.438-.202-.152,.006-.283,.061-.394,.166-.111,.105-.167,.234-.167,.386,.006,.076,.018,.14,.035,.193,.018,.053,.05,.108,.096,.167l.228,.298c.076,.099,.146,.204,.21,.315,.28,.444,.488,.914,.622,1.411,.134,.497,.202,1.005,.202,1.525s-.07,1.031-.21,1.534c-.14,.502-.348,.976-.622,1.42-.07,.117-.143,.222-.219,.315-.076,.093-.152,.193-.228,.298-.053,.058-.088,.114-.105,.167-.018,.053-.026,.117-.026,.193,0,.152,.056,.283,.167,.394s.242,.167,.394,.167c.169,0,.315-.067,.438-.202,.263-.263,.485-.57,.666-.92,.181-.351,.339-.713,.473-1.087,.134-.374,.234-.757,.298-1.148s.096-.768,.096-1.13c-.006-.368-.038-.742-.096-1.122ZM4.32,1.323c-.111-.111-.242-.167-.394-.167s-.286,.058-.403,.175c-.21,.204-.394,.429-.552,.675-.158,.245-.292,.502-.403,.771s-.193,.546-.245,.833c-.053,.286-.079,.573-.079,.859,.006,.444,.076,.894,.21,1.35,.134,.456,.333,.862,.596,1.218,.058,.076,.126,.134,.202,.175,.076,.041,.161,.061,.254,.061,.152,0,.283-.056,.394-.167s.167-.242,.167-.394c0-.117-.032-.225-.096-.324-.193-.315-.342-.622-.447-.92-.105-.298-.158-.631-.158-.999,0-.479,.082-.906,.245-1.279,.164-.374,.403-.733,.719-1.078,.058-.064,.099-.126,.123-.184s.035-.129,.035-.21c0-.152-.056-.283-.167-.394Zm6.572,1.446c-.216-.549-.535-1.028-.955-1.437-.058-.058-.12-.102-.184-.131s-.137-.044-.219-.044c-.152,0-.283,.056-.394,.167-.111,.111-.166,.242-.166,.394s.053,.283,.158,.394c.315,.345,.555,.707,.719,1.087,.164,.38,.245,.803,.245,1.271,0,.514-.108,.996-.324,1.446-.041,.064-.079,.129-.114,.193-.035,.064-.076,.129-.123,.193-.047,.064-.082,.131-.105,.202s-.035,.14-.035,.21c.006,.164,.061,.298,.167,.403s.237,.158,.394,.158c.111-.006,.207-.038,.289-.096s.158-.134,.228-.228c.07-.093,.131-.19,.184-.289,.053-.099,.096-.19,.131-.272,.286-.619,.429-1.259,.429-1.919,0-.584-.108-1.151-.324-1.7Zm-4.163-.548c-1.239,0-2.243,1.004-2.243,2.243s1.004,2.243,2.243,2.243,2.243-1.004,2.243-2.243-1.004-2.243-2.243-2.243Z" fill="#0078d4" />
	</g>
	<g>
		<g>
			<path d="M10.287,13.941c.108-.006,.19-.098,.183-.206-.033-.509,.061-1.033,.297-1.525,.735-1.529,2.57-2.173,4.099-1.438,.285,.137,.547,.317,.777,.534l-.073,.069-.43,.418c-.005,.019,.006,.039,.025,.044h.009l1.312,.071c.02,0,.036-.015,.036-.035h0l-.038-1.297c0-.02-.015-.036-.035-.037h-.009l-.466,.45-.031,.029c-1.391-1.322-3.591-1.267-4.913,.124-.693,.729-1.007,1.681-.949,2.612,.007,.108,.098,.191,.206,.185h0Z" fill="#fff" />
			<path d="M16.713,13.059c-.108,.006-.19,.098-.183,.206,.033,.509-.061,1.033-.297,1.525-.735,1.529-2.57,2.173-4.099,1.438-.285-.137-.547-.317-.777-.534l.073-.069,.43-.418c.005-.019-.006-.039-.025-.044h-.009l-1.312-.071c-.02,0-.036,.015-.036,.035h0l.038,1.297c0,.02,.015,.036,.035,.037h.009l.466-.45,.031-.029c1.391,1.322,3.591,1.267,4.913-.124,.693-.729,1.007-1.681,.949-2.612-.007-.108-.098-.191-.206-.185h0Z" fill="#fff" />
		</g>
		<path d="M15.511,13.717v-.458l-.064-.024-.492-.161-.129-.313,.249-.531-.322-.322-.064,.032-.458,.232-.313-.129-.202-.555h-.458l-.024,.064-.161,.492-.313,.129-.524-.25-.322,.322,.032,.064,.234,.458-.129,.313-.564,.202v.458l.064,.024,.492,.161,.129,.313-.25,.532,.322,.322,.064-.032,.458-.233,.313,.129,.202,.555h.458l.024-.064,.161-.492,.313-.129,.531,.249,.322-.322-.032-.064-.232-.458,.129-.313,.555-.202Zm-2.011,.665c-.487,0-.883-.395-.883-.883s.395-.883,.883-.883,.883,.395,.883,.883h0c0,.487-.394,.882-.881,.883h-.001Z" fill="#fff" />
	</g>
</svg>