<?xml version="1.0" encoding="UTF-8" standalone="no"?>
<svg
   id="uuid-51db2d18-095e-4c3c-89f2-ac87c816e895"
   width="17.997999"
   height="12.000095"
   viewBox="0 0 17.997999 12.000095"
   version="1.1"
   xmlns="http://www.w3.org/2000/svg"
   xmlns:svg="http://www.w3.org/2000/svg">
  <defs
     id="defs23">
    <linearGradient
       id="uuid-b9a4d73a-03da-44a3-b900-6ce48b6efa39"
       x1="5.0279999"
       y1="778.41101"
       x2="5.0279999"
       y2="770.30402"
       gradientTransform="matrix(1,0,0,-1,3.999,782.51509)"
       gradientUnits="userSpaceOnUse">
      <stop
         offset="0"
         stop-color="#a67af4"
         id="stop2" />
      <stop
         offset=".999"
         stop-color="#773adc"
         id="stop4" />
    </linearGradient>
    <linearGradient
       id="uuid-772b9a91-68cd-461c-a29a-cf08fd2fa5b8"
       x1="14.568"
       y1="6.4759998"
       x2="14.568"
       y2="13.674"
       gradientUnits="userSpaceOnUse"
       gradientTransform="translate(-0.001,-3.0009061)">
      <stop
         offset="0"
         stop-color="#5ea0ef"
         id="stop7" />
      <stop
         offset=".178"
         stop-color="#559cec"
         id="stop9" />
      <stop
         offset=".472"
         stop-color="#3c91e5"
         id="stop11" />
      <stop
         offset=".844"
         stop-color="#1380da"
         id="stop13" />
      <stop
         offset="1"
         stop-color="#0078d4"
         id="stop15" />
    </linearGradient>
    <linearGradient
       id="uuid-723f3b42-187c-4e7c-b3f6-9f1532b6ca95"
       x1="5.9530001"
       y1="3"
       x2="5.9530001"
       y2="13.768"
       gradientUnits="userSpaceOnUse"
       gradientTransform="translate(-0.001,-3.0009061)">
      <stop
         offset="0"
         stop-color="#50e6ff"
         id="stop18" />
      <stop
         offset="1"
         stop-color="#32bedd"
         id="stop20" />
    </linearGradient>
  </defs>
  <path
     d="m 9.03,4.1040939 v 0 c -2.143,-0.002 -3.882,1.764 -3.884,3.945 -0.002,2.1800001 1.735,3.9490001 3.878,3.9510001 2.143,0.002 3.882,-1.764 3.884,-3.9450001 v -0.003 c 0,-2.18 -1.737,-3.947 -3.88,-3.948 z"
     fill="url(#uuid-b9a4d73a-03da-44a3-b900-6ce48b6efa39)"
     id="path25"
     style="fill:url(#uuid-b9a4d73a-03da-44a3-b900-6ce48b6efa39)" />
  <path
     d="m 10.748,9.9610939 c -0.044,0 -0.085,-0.008 -0.122,-0.025 -0.037,-0.017 -0.071,-0.039 -0.1,-0.067 -0.029,-0.028 -0.051,-0.061 -0.066,-0.099 -0.015,-0.038 -0.023,-0.08 -0.024,-0.127 v -3.183 c 0,-0.045 0.008,-0.086 0.024,-0.124 0.016,-0.038 0.038,-0.071 0.066,-0.099 0.028,-0.028 0.061,-0.051 0.1,-0.07 0.039,-0.019 0.08,-0.027 0.122,-0.025 h 0.313 c 0.042,0 0.082,0.008 0.12,0.025 0.038,0.017 0.071,0.039 0.1,0.067 0.029,0.028 0.052,0.062 0.068,0.102 0.016,0.04 0.024,0.081 0.024,0.124 v 3.183 c 0,0.045 -0.008,0.086 -0.024,0.124 -0.016,0.038 -0.038,0.071 -0.066,0.099 -0.028,0.028 -0.061,0.051 -0.1,0.07 -0.039,0.019 -0.08,0.027 -0.122,0.025 z m -1.252,0 c -0.044,0 -0.085,-0.008 -0.122,-0.025 -0.037,-0.017 -0.071,-0.039 -0.1,-0.067 -0.029,-0.028 -0.051,-0.061 -0.066,-0.099 -0.015,-0.038 -0.023,-0.08 -0.024,-0.127 v -2.228 c 0,-0.045 0.008,-0.086 0.024,-0.124 0.016,-0.038 0.038,-0.071 0.066,-0.099 0.028,-0.028 0.061,-0.051 0.1,-0.07 0.039,-0.019 0.08,-0.027 0.122,-0.025 h 0.313 c 0.042,0 0.082,0.008 0.12,0.025 0.038,0.017 0.071,0.039 0.1,0.067 0.029,0.028 0.052,0.062 0.068,0.102 0.016,0.04 0.024,0.081 0.024,0.124 v 2.228 c 0,0.045 -0.008,0.086 -0.024,0.124 -0.016,0.038 -0.038,0.071 -0.066,0.099 -0.028,0.028 -0.061,0.051 -0.1,0.07 -0.039,0.019 -0.08,0.027 -0.122,0.025 z m -1.252,0 c -0.044,0 -0.085,-0.008 -0.122,-0.025 -0.037,-0.017 -0.071,-0.039 -0.1,-0.067 -0.029,-0.028 -0.051,-0.061 -0.066,-0.099 -0.015,-0.038 -0.023,-0.08 -0.024,-0.127 v -1.273 c 0,-0.045 0.008,-0.086 0.024,-0.124 0.016,-0.038 0.038,-0.071 0.066,-0.099 0.028,-0.028 0.061,-0.051 0.1,-0.07 0.039,-0.019 0.08,-0.027 0.122,-0.025 h 0.313 c 0.042,0 0.082,0.008 0.12,0.025 0.038,0.017 0.071,0.039 0.1,0.067 0.029,0.028 0.052,0.062 0.068,0.102 0.016,0.04 0.024,0.081 0.024,0.124 v 1.273 c 0,0.045 -0.008,0.086 -0.024,0.124 -0.016,0.038 -0.038,0.071 -0.066,0.099 -0.028,0.028 -0.061,0.051 -0.1,0.07 -0.039,0.019 -0.08,0.027 -0.122,0.025 z m -1.252,0 c -0.044,0 -0.085,-0.008 -0.122,-0.025 -0.037,-0.017 -0.071,-0.039 -0.1,-0.067 -0.029,-0.028 -0.051,-0.061 -0.066,-0.099 -0.015,-0.038 -0.023,-0.08 -0.024,-0.127 v -0.318 c 0,-0.045 0.008,-0.086 0.024,-0.124 0.016,-0.038 0.038,-0.071 0.066,-0.099 0.028,-0.028 0.061,-0.051 0.1,-0.07 0.039,-0.019 0.08,-0.027 0.122,-0.025 h 0.313 c 0.042,0 0.082,0.008 0.12,0.025 0.038,0.017 0.071,0.039 0.1,0.067 0.029,0.028 0.052,0.062 0.068,0.102 0.016,0.04 0.024,0.081 0.024,0.124 v 0.318 c 0,0.045 -0.008,0.086 -0.024,0.124 -0.016,0.038 -0.038,0.071 -0.066,0.099 -0.028,0.028 -0.061,0.051 -0.1,0.07 -0.039,0.019 -0.08,0.027 -0.122,0.025 z"
     fill="#ffffff"
     id="path27" />
  <path
     d="m 16.05,6.2310939 c -0.067,-1.575 -1.367,-2.803 -2.916,-2.754 -0.754,-0.014 -1.463,0.271 -1.998,0.762 1.308,0.752 2.194,2.18 2.194,3.816 0,0.981 -0.321,1.887 -0.86,2.6180001 h 3.153 c 0.041,0 0.081,-0.007 0.12,-0.018 1.217,-0.009 2.211,-0.9910001 2.255,-2.2280001 -0.033,-1.119 -0.858,-2.049 -1.949,-2.196 z"
     fill="url(#uuid-772b9a91-68cd-461c-a29a-cf08fd2fa5b8)"
     id="path29"
     style="fill:url(#uuid-772b9a91-68cd-461c-a29a-cf08fd2fa5b8)" />
  <path
     d="M 9.027,3.6750939 H 9.03 c 0.612,0 1.195,0.133 1.723,0.369 0.201,-0.203 0.428,-0.377 0.673,-0.521 l 0.017,-0.01 c 0.038,-0.022 0.076,-0.043 0.115,-0.064 0.026,-0.014 0.052,-0.027 0.078,-0.04 0.031,-0.016 0.063,-0.031 0.095,-0.046 0.057,-0.026 0.114,-0.051 0.173,-0.074 h 10e-4 c -0.46,-1.941 -2.206,-3.35100002 -4.24,-3.28700002 -1.842,-0.034 -3.503,1.11900002 -4.144,2.87500002 -1.966,0.242 -3.462,1.909 -3.521,3.922 0.088,2.275 1.969,4.0490001 4.206,3.9660001 0.125,0 0.251,-0.006 0.37,-0.016 H 5.641 C 5.048,9.9810939 4.725,9.0400939 4.726,8.0490939 c 0.002,-2.411 1.932,-4.373 4.303,-4.373 z"
     fill="url(#uuid-723f3b42-187c-4e7c-b3f6-9f1532b6ca95)"
     id="path31"
     style="fill:url(#uuid-723f3b42-187c-4e7c-b3f6-9f1532b6ca95)" />
</svg>
