<svg id="uuid-95f9835a-4757-4a90-82a8-1d7152c29812"
	xmlns="http://www.w3.org/2000/svg" width="18" height="18" viewBox="0 0 18 18">
	<defs>
		<linearGradient id="uuid-99278daf-6050-4daf-894c-cb3d8a37102a" x1="8.4" y1="767.514" x2="8.4" y2="774.133" gradientTransform="translate(4 785.516) scale(1 -1)" gradientUnits="userSpaceOnUse">
			<stop offset="0" stop-color="#32bedd" />
			<stop offset="1" stop-color="#50e6ff" />
		</linearGradient>
		<linearGradient id="uuid-74f01b67-52e0-4bd2-ae49-affc58358342" x1="12.399" y1="11.383" x2="12.399" y2="8.997" gradientTransform="matrix(1, 0, 0, 1, 0, 0)" gradientUnits="userSpaceOnUse">
			<stop offset="0" stop-color="#34bddc" />
			<stop offset="1" stop-color="#34bddc" />
		</linearGradient>
		<linearGradient id="uuid-2dad1048-3696-439f-846a-29929f73f171" x1="295.425" y1="979.782" x2="295.405" y2="977.327" gradientTransform="translate(-293 -973)" gradientUnits="userSpaceOnUse">
			<stop offset="0" stop-color="#d2d2d2" />
			<stop offset="1" stop-color="#fff" />
		</linearGradient>
	</defs>
	<g id="uuid-c696fa8d-d1ff-455b-b4dd-a79c1e051635">
		<g>
			<path d="M6.799,11.383h11.201v6.245c0,.207-.168,.374-.374,.374H7.174c-.207,0-.374-.168-.374-.374v-6.245h0Z" fill="url(#uuid-99278daf-6050-4daf-894c-cb3d8a37102a)" />
			<path d="M17.624,8.997H7.174c-.207,0-.374,.168-.374,.374v2.012h11.199v-2.012c0-.207-.168-.374-.374-.374Z" fill="url(#uuid-74f01b67-52e0-4bd2-ae49-affc58358342)" />
			<path d="M9.005,14.344l.229-.228h0l1.799,1.805c.04,.04,.04,.106,0,.146l-.229,.228c-.04,.04-.106,.04-.146,0l-1.654-1.659c-.081-.081-.08-.212,0-.293h0Z" fill="#f2f2f2" />
			<path d="M9.23,14.866l-.228-.229c-.081-.081-.08-.212,0-.293h0l1.687-1.683c.04-.04,.106-.04,.146,0l.228,.229c.04,.04,.04,.106,0,.146l-1.834,1.829h0Z" fill="#f2f2f2" />
			<path d="M13.865,16.297l-.229-.228c-.04-.04-.041-.106,0-.146l1.802-1.807h0l.229,.228c.081,.081,.081,.212,0,.293h0l-1.656,1.661c-.04,.04-.106,.041-.146,0h0Z" fill="#f2f2f2" />
			<path d="M13.601,12.892l.228-.229c.04-.04,.106-.041,.146,0l1.687,1.683c.081,.081,.081,.212,0,.293h0l-.228,.229h0l-1.833-1.827c-.041-.04-.043-.105-.003-.146h.001Z" fill="#f2f2f2" />
			<rect x="9.852" y="14.166" width="5.03" height=".531" rx=".074" ry=".074" transform="translate(-5.148 21.81) rotate(-72.248)" fill="#f2f2f2" />
		</g>
	</g>
	<g>
		<path d="M6.048,9.475c0-.678,.505-1.229,1.126-1.229h2.433c1.226-1.805,1.242-4.253-.119-6.099C7.757-.202,4.451-.702,2.103,1.029l-.057,.038C-.26,2.854-.68,6.173,1.108,8.478c1.209,1.559,3.118,2.255,4.94,1.99v-.993Z" fill="#2a80c2" />
		<path d="M3.847,4.141c1.494-1.421,3.474-2.217,5.536-2.224-.271-.335-.583-.636-.928-.895-1.003,.062-1.988,.293-2.914,.683-.952,.409-1.814,1.005-2.533,1.752,.346,.131,.64,.371,.839,.683Z" fill="#fff" isolation="isolate" opacity=".6" />
		<path d="M1.231,6.266c-.215,.528-.389,1.072-.52,1.627,.115,.199,.244,.39,.387,.571,.107,.141,.221,.275,.342,.404,.15-.74,.375-1.462,.671-2.156-.331-.059-.637-.215-.88-.447Z" fill="#fff" isolation="isolate" opacity=".6" />
		<path d="M1.84,3.445c-.219-.588-.363-1.202-.428-1.827-.261,.274-.49,.576-.683,.901,.07,.503,.188,.998,.354,1.478,.195-.253,.457-.445,.758-.553Z" fill="#f3f3f3" isolation="isolate" opacity=".55" />
		<circle cx="2.411" cy="5.042" r="1.696" fill="url(#uuid-2dad1048-3696-439f-846a-29929f73f171)" />
		<path d="M4.886,8.143c0-.298,.122-.582,.336-.789-.573-.314-1.102-.702-1.573-1.156-.246,.266-.571,.447-.928,.516,.281,.287,.582,.553,.901,.796,.398,.299,.824,.558,1.273,.773-.006-.046-.01-.093-.01-.139Z" fill="#f3f3f3" isolation="isolate" opacity=".55" />
		<path d="M7.344,5.197c.056-.242,.189-.459,.38-.618-1.024-.744-1.954-1.609-2.772-2.575-.476-.559-.893-1.167-1.242-1.813-.232,.07-.458,.157-.677,.261,.374,.704,.822,1.366,1.336,1.975,.873,1.043,1.873,1.974,2.976,2.771Z" fill="#f3f3f3" isolation="isolate" opacity=".7" />
		<circle cx="8.5" cy="5.408" r="1.174" fill="#f2f2f2" />
		<path d="M10.47,6.198l-.218-.106h0l-.186-.099h-.037l-.162-.131h-.043l-.193-.124c-.067,.229-.206,.43-.397,.572,.077,.049,.155,.093,.236,.137l.049,.031,.217,.118h0l.535,.28h0c.075-.226,.135-.456,.18-.69l.018,.012Z" fill="#f3f3f3" isolation="isolate" opacity=".55" />
		<path d="M7.084,8.25c.003-.035,.005-.071,.005-.108,0-.611-.495-1.106-1.106-1.106s-1.106,.495-1.106,1.106,.495,1.106,1.106,1.106c.029,0,.057-.002,.085-.004,.094-.536,.507-.949,1.015-.994Z" fill="#f2f2f2" />
		<circle cx="2.411" cy="5.042" r="1.696" fill="#f2f2f2" />
		<g>
			<path d="M9.577,8.245h.044l.01-.013c-.055,.006-.11,.008-.165,.013h.111Z" fill="#f3f3f3" isolation="isolate" opacity=".55" />
			<path d="M7.174,8.245h1.018c-.373-.03-.744-.085-1.108-.171,.003,.023,.003,.046,0,.069,0,.036-.001,.072-.005,.108,.031-.003,.063-.005,.095-.005Z" fill="#f3f3f3" isolation="isolate" opacity=".55" />
		</g>
	</g>
</svg>