<?xml version="1.0" encoding="utf-8"?>
<svg version="1.1"
	 id="Layer_1" inkscape:version="0.92.3 (2405546, 2018-03-11)" sodipodi:docname="Industrial_Ethernet_IE200_POE3.svg" xmlns:cc="http://creativecommons.org/ns#" xmlns:dc="http://purl.org/dc/elements/1.1/" xmlns:inkscape="http://www.inkscape.org/namespaces/inkscape" xmlns:rdf="http://www.w3.org/1999/02/22-rdf-syntax-ns#" xmlns:sodipodi="http://sodipodi.sourceforge.net/DTD/sodipodi-0.dtd" xmlns:svg="http://www.w3.org/2000/svg"
	 xmlns="http://www.w3.org/2000/svg" xmlns:xlink="http://www.w3.org/1999/xlink" x="0px" y="0px" viewBox="0 0 66.553 93.887"
	 style="enable-background:new 0 0 66.553 93.887;" xml:space="preserve">
<style type="text/css">
	.st0{fill:none;stroke:#626366;stroke-width:2.835;stroke-linejoin:round;}
	.st1{fill:#DFE0DF;}
	.st2{fill:#BBBDBF;}
	.st3{fill:#D7D8D9;}
	.st4{fill:#A9ABAE;}
	.st5{fill:#6C6E70;}
	.st6{fill:#231F20;}
	.st7{fill:#FEFEFE;}
	.st8{fill:none;stroke:#939597;stroke-width:0.525;stroke-linecap:round;stroke-linejoin:round;}
	.st9{fill:#9A9C9F;}
	.st10{fill:#A5A7AA;}
	.st11{fill:none;stroke:#EFEEEE;stroke-width:0.525;stroke-linecap:round;stroke-linejoin:round;}
</style>
<sodipodi:namedview  bordercolor="#666666" borderopacity="1" gridtolerance="10" guidetolerance="10" id="namedview999" inkscape:current-layer="Layer_1" inkscape:cx="4.1291317" inkscape:cy="52.58662" inkscape:pageopacity="0" inkscape:pageshadow="2" inkscape:window-height="1017" inkscape:window-maximized="1" inkscape:window-width="1920" inkscape:window-x="-8" inkscape:window-y="-8" inkscape:zoom="8" objecttolerance="10" pagecolor="#ffffff" showgrid="false">
	</sodipodi:namedview>
<title  id="title4">icon-IE200-poe</title>
<desc  id="desc6">Created with Sketch.</desc>
<path id="Stroke-35" inkscape:connector-curvature="0" class="st0" d="M64.831,73.201l-3.645,1.935
	c0.188-0.1,0.305-0.331,0.305-0.666l3.645-1.935C65.136,72.87,65.018,73.103,64.831,73.201z"/>
<polygon id="Stroke-85" class="st0" points="34.498,3.49 38.143,1.553 64.13,17.17 60.485,19.104 "/>
<polygon id="Stroke-87" class="st0" points="65.136,72.536 61.491,74.47 61.453,20.859 65.099,18.924 "/>
<path id="Stroke-204" class="st0" d="M60.486,19.104c0.529,0.318,0.968,1.109,0.969,1.756l0.037,53.611
	c0,0.647-0.438,0.904-0.967,0.585L34.537,59.442c-0.536-0.322-0.974-1.106-0.974-1.752L33.526,4.078
	c-0.001-0.647,0.437-0.912,0.973-0.589L60.486,19.104z"/>
<path id="Stroke-206" inkscape:connector-curvature="0" class="st0" d="M60.486,19.104c0.426,0.377,0.312,0.252,0.53,0.514
	c0.27,0.322,0.429,1.07,0.429,1.07s3.621-1.832,3.645-1.935c0.046-0.206-0.198-0.727-0.391-1.017
	c-0.24-0.361-0.568-0.566-0.568-0.566L60.486,19.104z"/>
<path id="Stroke-208" inkscape:connector-curvature="0" class="st0" d="M33.9,3.378c0,0,0.147-0.062,0.307-0.011l0.159,0.052
	l0.209,0.115l3.663-1.924L37.972,1.47L37.81,1.424l-0.14-0.007c0.14,0.007-0.125,0.025-0.125,0.025L33.9,3.378z"/>
<path id="Stroke-245" inkscape:connector-curvature="0" class="st0" d="M58.581,76.76l-3.645,1.935
	c0.188-0.1,0.305-0.331,0.305-0.666l3.645-1.935C58.886,76.429,58.768,76.661,58.581,76.76z"/>
<polygon id="Stroke-295" class="st0" points="28.248,7.047 31.893,5.111 57.88,20.729 54.235,22.661 "/>
<polygon id="Stroke-297" class="st0" points="58.886,76.094 55.241,78.028 55.203,24.417 58.848,22.482 "/>
<path id="Stroke-414" class="st0" d="M54.236,22.661c0.529,0.318,0.968,1.109,0.969,1.756l0.037,53.611
	c0,0.647-0.438,0.904-0.967,0.585L28.288,63c-0.536-0.322-0.974-1.106-0.974-1.752L27.276,7.635
	c-0.001-0.647,0.437-0.912,0.973-0.589L54.236,22.661z"/>
<path id="Stroke-416" inkscape:connector-curvature="0" class="st0" d="M54.236,22.661c0.426,0.377,0.312,0.252,0.53,0.514
	c0.27,0.322,0.429,1.07,0.429,1.07s3.621-1.832,3.645-1.935c0.046-0.206-0.198-0.727-0.391-1.017
	c-0.24-0.361-0.568-0.566-0.568-0.566L54.236,22.661z"/>
<path id="Stroke-418" inkscape:connector-curvature="0" class="st0" d="M27.65,6.938c0,0,0.147-0.062,0.307-0.011l0.159,0.052
	l0.209,0.115l3.663-1.924l-0.266-0.141L31.56,4.984l-0.14-0.007c0.14,0.007-0.125,0.025-0.125,0.025L27.65,6.938z"/>
<path id="Stroke-455" inkscape:connector-curvature="0" class="st0" d="M52.193,80.307l-3.645,1.935
	c0.188-0.1,0.305-0.331,0.305-0.666l3.645-1.935C52.498,79.976,52.38,80.207,52.193,80.307z"/>
<polygon id="Stroke-505" class="st0" points="21.86,10.594 25.505,8.658 51.492,24.274 47.847,26.208 "/>
<polygon id="Stroke-507" class="st0" points="52.498,79.641 48.853,81.575 48.816,27.965 52.46,26.028 "/>
<path id="Stroke-624" class="st0" d="M47.847,26.208c0.529,0.318,0.968,1.109,0.969,1.756l0.037,53.611
	c0,0.647-0.438,0.904-0.967,0.585L21.899,66.546c-0.536-0.322-0.974-1.106-0.974-1.752l-0.038-53.611
	c-0.001-0.647,0.437-0.912,0.973-0.589L47.847,26.208z"/>
<path id="Stroke-626" inkscape:connector-curvature="0" class="st0" d="M47.847,26.208c0.426,0.377,0.312,0.252,0.53,0.514
	c0.27,0.322,0.429,1.07,0.429,1.07s3.621-1.832,3.645-1.935c0.046-0.206-0.198-0.727-0.391-1.017
	c-0.24-0.361-0.568-0.566-0.568-0.566L47.847,26.208z"/>
<path id="Stroke-628" inkscape:connector-curvature="0" class="st0" d="M21.261,10.483c0,0,0.147-0.062,0.307-0.011l0.159,0.052
	l0.209,0.115l3.663-1.924l-0.266-0.141L25.171,8.53l-0.14-0.007c0.14,0.007-0.125,0.025-0.125,0.025L21.261,10.483z"/>
<path id="Stroke-665" inkscape:connector-curvature="0" class="st0" d="M45.943,83.866l-3.645,1.935
	c0.188-0.1,0.305-0.331,0.305-0.666l3.645-1.935C46.248,83.534,46.13,83.766,45.943,83.866z"/>
<polygon id="Stroke-715" class="st0" points="15.61,14.153 19.255,12.217 45.242,27.833 41.597,29.767 "/>
<polygon id="Stroke-717" class="st0" points="46.248,83.2 42.603,85.134 42.566,31.524 46.21,29.587 "/>
<path id="Stroke-834" class="st0" d="M41.597,29.767c0.529,0.318,0.968,1.109,0.969,1.756l0.037,53.611
	c0,0.647-0.438,0.904-0.967,0.585L15.649,70.104c-0.536-0.322-0.974-1.106-0.974-1.752l-0.038-53.611
	c-0.001-0.647,0.437-0.912,0.973-0.589L41.597,29.767z"/>
<path id="Stroke-836" inkscape:connector-curvature="0" class="st0" d="M41.597,29.767c0.426,0.377,0.312,0.252,0.53,0.514
	c0.27,0.322,0.429,1.07,0.429,1.07s3.621-1.832,3.645-1.935c0.046-0.206-0.198-0.727-0.391-1.017
	c-0.24-0.361-0.568-0.566-0.568-0.566L41.597,29.767z"/>
<path id="Stroke-838" inkscape:connector-curvature="0" class="st0" d="M15.011,14.042c0,0,0.147-0.062,0.307-0.011l0.159,0.052
	l0.209,0.115l3.663-1.924l-0.266-0.141L18.92,12.09l-0.14-0.007c0.14,0.007-0.125,0.025-0.125,0.025L15.011,14.042z"/>
<path id="Stroke-875" inkscape:connector-curvature="0" class="st0" d="M38.973,86.92l-3.645,1.935
	c0.188-0.1,0.305-0.331,0.305-0.666l3.645-1.935C39.278,86.589,39.16,86.82,38.973,86.92z"/>
<polygon id="Stroke-925" class="st0" points="8.641,17.208 12.286,15.271 38.272,30.889 34.627,32.82 "/>
<polygon id="Stroke-927" class="st0" points="39.278,86.254 35.633,88.189 35.597,34.576 39.242,32.642 "/>
<path id="Stroke-1044" class="st0" d="M34.627,32.822c0.529,0.318,0.968,1.109,0.969,1.756l0.037,53.611
	c0,0.647-0.438,0.904-0.967,0.585L8.68,73.161c-0.536-0.322-0.974-1.106-0.974-1.752L7.668,17.798
	c-0.001-0.647,0.437-0.912,0.973-0.589L34.627,32.822z"/>
<path id="Stroke-1046" inkscape:connector-curvature="0" class="st0" d="M34.627,32.822c0.426,0.377,0.312,0.252,0.53,0.514
	c0.27,0.322,0.429,1.07,0.429,1.07s3.621-1.832,3.645-1.935c0.046-0.206-0.198-0.727-0.391-1.017
	c-0.24-0.361-0.568-0.566-0.568-0.566L34.627,32.822z"/>
<path id="Stroke-1048" inkscape:connector-curvature="0" class="st0" d="M8.042,17.097c0,0,0.147-0.062,0.307-0.011l0.159,0.052
	l0.209,0.115l3.663-1.924l-0.266-0.141l-0.162-0.044l-0.14-0.007c0.14,0.007-0.125,0.025-0.125,0.025L8.042,17.097z"/>
<path id="Stroke-1085" inkscape:connector-curvature="0" class="st0" d="M32.723,90.479l-3.645,1.935
	c0.188-0.1,0.305-0.331,0.305-0.666l3.645-1.935C33.028,90.148,32.91,90.38,32.723,90.479z"/>
<polygon id="Stroke-1135" class="st0" points="2.391,20.767 6.036,18.831 32.022,34.447 28.378,36.381 "/>
<polygon id="Stroke-1137" class="st0" points="29.347,38.137 32.992,36.201 33.028,89.814 29.384,91.747 "/>
<path id="Stroke-1254" class="st0" d="M28.378,36.381c0.529,0.318,0.968,1.109,0.969,1.756l0.037,53.611
	c0,0.647-0.438,0.904-0.967,0.585L2.43,76.718c-0.536-0.322-0.974-1.106-0.974-1.752l-0.038-53.61
	c-0.001-0.647,0.437-0.912,0.973-0.589L28.378,36.381z"/>
<path id="Stroke-1256" inkscape:connector-curvature="0" class="st0" d="M28.378,36.381c0.426,0.377,0.312,0.252,0.53,0.514
	c0.27,0.322,0.429,1.07,0.429,1.07s3.621-1.832,3.645-1.935c0.046-0.206-0.198-0.727-0.391-1.017
	c-0.24-0.361-0.568-0.566-0.568-0.566L28.378,36.381z"/>
<path id="Stroke-1258" inkscape:connector-curvature="0" class="st0" d="M1.792,20.656c0,0,0.147-0.062,0.307-0.011l0.159,0.052
	l0.209,0.115l3.663-1.924l-0.266-0.141l-0.162-0.044l-0.14-0.007c0.14,0.007-0.125,0.025-0.125,0.025L1.792,20.656z"/>
<path id="Stroke-1295" inkscape:connector-curvature="0" class="st0" d="M24.296,89.777l-1.457,0.774
	c0.189-0.1,0.308-0.334,0.308-0.67l1.458-0.774C24.605,89.444,24.485,89.676,24.296,89.777z"/>
<path id="Stroke-1343" inkscape:connector-curvature="0" class="st0" d="M5.685,24.944l1.458-0.774
	c0.175-0.092,0.408-0.073,0.665,0.082L6.35,25.026C6.093,24.872,5.86,24.852,5.685,24.944z"/>
<polygon id="Stroke-1345" class="st0" points="6.35,25.026 7.808,24.253 23.593,33.736 22.135,34.51 "/>
<polygon id="Stroke-1347" class="st0" points="23.109,36.269 24.567,35.494 24.605,89.107 23.147,89.882 "/>
<path id="Stroke-1456" inkscape:connector-curvature="0" class="st0" d="M22.135,34.51l1.458-0.774
	c0.535,0.322,0.974,1.113,0.974,1.758l-1.458,0.774C23.109,35.623,22.671,34.833,22.135,34.51z"/>
<path id="Stroke-1458" class="st0" d="M22.135,34.51c0.536,0.322,0.974,1.112,0.974,1.758l0.038,53.613
	c0,0.646-0.437,0.91-0.973,0.588L6.39,80.986c-0.537-0.323-0.975-1.114-0.975-1.759L5.377,25.615c0-0.645,0.437-0.911,0.973-0.588
	L22.135,34.51z"/>
<polygon id="Stroke-1460" class="st0" points="18.607,46.299 15.212,44.236 15.212,39.41 18.607,41.47 "/>
<polygon id="Stroke-1462" class="st0" points="18.607,52.425 15.212,50.367 15.212,45.536 18.607,47.597 "/>
<polygon id="Stroke-1464" class="st0" points="18.607,58.556 15.212,56.493 15.212,51.667 18.607,53.728 "/>
<polygon id="Stroke-1466" class="st0" points="18.607,64.684 15.212,62.625 15.212,57.795 18.607,59.855 "/>
<polygon id="Stroke-1468" class="st0" points="13.31,65.93 9.917,63.868 9.917,59.042 13.31,61.102 "/>
<polygon id="Stroke-1470" class="st0" points="18.607,75.596 15.212,73.536 15.212,68.707 18.607,70.767 "/>
<polygon id="Stroke-1472" class="st0" points="18.607,81.725 15.212,79.665 15.212,74.836 18.607,76.898 "/>
<polygon id="Fill-1555" class="st1" points="34.498,3.49 38.143,1.553 64.13,17.17 60.485,19.104 "/>
<polygon id="Fill-1557" class="st2" points="65.136,72.536 61.491,74.47 61.453,20.859 65.099,18.924 "/>
<path id="Fill-1672" inkscape:connector-curvature="0" class="st3" d="M60.486,19.104c0.529,0.318,0.968,1.109,0.969,1.756
	l0.037,53.611c0,0.647-0.438,0.904-0.967,0.585L34.537,59.442c-0.536-0.322-0.974-1.106-0.974-1.752L33.526,4.078
	c-0.001-0.647,0.437-0.912,0.973-0.589L60.486,19.104z"/>
<polygon id="Fill-1759" class="st1" points="28.248,7.047 31.893,5.111 57.88,20.729 54.235,22.661 "/>
<polygon id="Fill-1761" class="st2" points="58.886,76.094 55.241,78.028 55.203,24.417 58.848,22.482 "/>
<path id="Fill-1876" inkscape:connector-curvature="0" class="st3" d="M54.236,22.661c0.529,0.318,0.968,1.109,0.969,1.756
	l0.037,53.611c0,0.647-0.438,0.904-0.967,0.585L28.288,63c-0.536-0.322-0.974-1.106-0.974-1.752L27.276,7.635
	c-0.001-0.647,0.437-0.912,0.973-0.589L54.236,22.661z"/>
<polygon id="Fill-1963" class="st1" points="21.86,10.594 25.505,8.658 51.492,24.274 47.847,26.208 "/>
<polygon id="Fill-1965" class="st2" points="52.498,79.641 48.853,81.575 48.816,27.965 52.46,26.028 "/>
<path id="Fill-2080" inkscape:connector-curvature="0" class="st3" d="M47.847,26.208c0.529,0.318,0.968,1.109,0.969,1.756
	l0.037,53.611c0,0.647-0.438,0.904-0.967,0.585L21.899,66.546c-0.536-0.322-0.974-1.106-0.974-1.752l-0.038-53.611
	c-0.001-0.647,0.437-0.912,0.973-0.589L47.847,26.208z"/>
<polygon id="Fill-2167" class="st1" points="15.61,14.153 19.255,12.217 45.242,27.833 41.597,29.767 "/>
<polygon id="Fill-2169" class="st2" points="46.248,83.2 42.603,85.134 42.566,31.524 46.21,29.587 "/>
<path id="Fill-2284" inkscape:connector-curvature="0" class="st3" d="M41.597,29.767c0.529,0.318,0.968,1.109,0.969,1.756
	l0.037,53.611c0,0.647-0.438,0.904-0.967,0.585L15.649,70.104c-0.536-0.322-0.974-1.106-0.974-1.752l-0.038-53.611
	c-0.001-0.647,0.437-0.912,0.973-0.589L41.597,29.767z"/>
<polygon id="Fill-2371" class="st1" points="8.641,17.208 12.286,15.271 38.272,30.889 34.627,32.82 "/>
<polygon id="Fill-2373" class="st2" points="39.278,86.254 35.633,88.189 35.597,34.576 39.242,32.642 "/>
<path id="Fill-2488" inkscape:connector-curvature="0" class="st3" d="M34.627,32.822c0.529,0.318,0.968,1.109,0.969,1.756
	l0.037,53.611c0,0.647-0.438,0.904-0.967,0.585L8.68,73.161c-0.536-0.322-0.974-1.106-0.974-1.752L7.668,17.798
	c-0.001-0.647,0.437-0.912,0.973-0.589L34.627,32.822z"/>
<polygon id="Fill-2575" class="st1" points="2.391,20.767 6.036,18.831 32.022,34.447 28.378,36.381 "/>
<polygon id="Fill-2577" class="st2" points="33.028,89.814 29.384,91.747 29.347,38.137 32.992,36.201 "/>
<path id="Fill-2692" inkscape:connector-curvature="0" class="st3" d="M28.378,36.381c0.529,0.318,0.968,1.109,0.969,1.756
	l0.037,53.611c0,0.647-0.438,0.904-0.967,0.585L2.43,76.718c-0.536-0.322-0.974-1.106-0.974-1.752l-0.038-53.61
	c-0.001-0.647,0.437-0.912,0.973-0.589L28.378,36.381z"/>
<polygon id="Fill-2779" class="st4" points="6.35,25.026 7.808,24.253 23.593,33.736 22.135,34.51 "/>
<polygon id="Fill-2781" class="st5" points="23.109,36.269 24.567,35.494 24.605,89.107 23.147,89.882 "/>
<path id="Fill-2890" inkscape:connector-curvature="0" class="st6" d="M22.135,34.51c0.536,0.322,0.974,1.112,0.974,1.758
	l0.038,53.613c0,0.646-0.437,0.91-0.973,0.588L6.39,80.986c-0.537-0.323-0.975-1.114-0.975-1.759L5.377,25.615
	c0-0.645,0.437-0.911,0.973-0.588L22.135,34.51z"/>
<polygon id="Fill-2892" class="st7" points="18.607,50.299 15.212,48.236 15.212,43.41 18.607,45.47 "/>
<polygon id="Fill-2894" class="st7" points="18.607,56.425 15.212,54.367 15.212,49.536 18.607,51.597 "/>
<polygon id="Fill-2896" class="st7" points="18.607,62.556 15.212,60.493 15.212,55.667 18.607,57.728 "/>
<polygon id="Fill-2898" class="st7" points="18.607,68.684 15.212,66.624 15.212,61.795 18.607,63.855 "/>
<polygon id="Fill-2900" class="st7" points="13.31,69.93 9.917,67.868 9.917,63.042 13.31,65.101 "/>
<polygon id="Fill-2902" class="st7" points="18.607,79.596 15.212,77.536 15.212,72.707 18.607,74.767 "/>
<polygon id="Fill-2904" class="st7" points="18.607,85.725 15.212,83.665 15.212,78.836 18.607,80.898 "/>
<path id="Stroke-2906" class="st8" d="M33.564,3.787c0.012-0.813,1.759,0.185,1.759,0.185l25.071,15.065
	c0,0,0.299,0.273,0.803,0.799c0.504,0.525,0.558,1.648,0.558,1.648l0.081,51.05c0,0-0.062,1.603-0.356,2.102
	s-0.956,0.418-0.956,0.418"/>
<path id="Stroke-2908" class="st8" d="M27.122,7.366c0.012-0.813,1.759,0.185,1.759,0.185l25.071,15.064
	c0,0,0.299,0.273,0.803,0.799c0.504,0.525,0.558,1.648,0.558,1.648l0.081,51.05c0,0-0.062,1.603-0.356,2.102
	s-0.956,0.418-0.956,0.418"/>
<path id="Stroke-2910" class="st8" d="M20.887,10.958c0.012-0.813,1.759,0.185,1.759,0.185l25.071,15.065
	c0,0,0.299,0.273,0.803,0.799c0.504,0.525,0.558,1.648,0.558,1.648l0.081,51.05c0,0-0.062,1.603-0.356,2.102
	s-0.956,0.418-0.956,0.418"/>
<path id="Stroke-2912" class="st8" d="M14.637,14.517c0.012-0.813,1.759,0.185,1.759,0.185l25.071,15.065
	c0,0,0.299,0.273,0.803,0.799c0.504,0.525,0.558,1.648,0.558,1.648l0.081,51.05c0,0-0.062,1.603-0.356,2.102
	s-0.956,0.418-0.956,0.418"/>
<path id="Stroke-2914" class="st8" d="M7.724,17.49c0.012-0.813,1.759,0.185,1.759,0.185l25.071,15.065c0,0,0.299,0.273,0.803,0.799
	c0.504,0.525,0.558,1.648,0.558,1.648l0.081,51.05c0,0-0.062,1.603-0.356,2.102s-0.956,0.418-0.956,0.418"/>
<polygon id="Fill-2920" class="st7" points="14.066,43.534 10.243,47.144 13.044,47.762 10.252,50.013 12.195,50.442 7.248,54.43 
	10.045,50.853 7.606,50.317 9.945,48.429 7.162,47.815 13.806,43.708 "/>
<path id="Fill-2922" class="st7" d="M9.35,33.243l0.566,0.32c0.505,0.287,0.851,0.092,0.851-0.748c0-0.803-0.248-1.403-0.886-1.764
	l-0.531-0.3V33.243z M8.074,28.81l2.234,1.266c1.294,0.731,1.735,2.211,1.735,3.44c0,1.7-0.805,2.012-2.01,1.33L9.35,34.461v3.274
	l-1.276-0.724V28.81z"/>
<path id="Fill-2924" class="st7" d="M14.143,39.527c0.496,0.282,0.656-0.26,0.656-1.798c0-1.539-0.16-2.262-0.656-2.543
	c-0.603-0.342-0.655,0.536-0.655,1.799C13.488,38.249,13.54,39.186,14.143,39.527 M14.143,34.104
	c1.472,0.798,1.878,2.165,1.878,4.314c0,2.114-0.477,2.979-1.878,2.188c-1.47-0.798-1.879-2.167-1.879-4.314
	C12.264,34.18,12.742,33.313,14.143,34.104"/>
<polygon id="Fill-2926" class="st7" points="20.248,35.701 20.248,37.055 17.989,35.778 17.989,37.707 20.115,38.91 20.115,40.265 
	17.989,39.062 17.989,41.267 20.338,42.597 20.338,43.951 16.713,41.901 16.713,33.7 "/>
<path id="Stroke-1085-1" inkscape:connector-curvature="0" class="st9" d="M32.723,90.479l-3.645,1.935
	c0.188-0.1,0.305-0.331,0.305-0.666l3.645-1.935C33.028,90.148,32.91,90.38,32.723,90.479z"/>
<path id="Stroke-875-9" inkscape:connector-curvature="0" class="st9" d="M38.973,86.92l-3.645,1.935
	c0.188-0.1,0.305-0.331,0.305-0.666l3.645-1.935C39.278,86.589,39.16,86.82,38.973,86.92z"/>
<path id="Stroke-665-4" inkscape:connector-curvature="0" class="st9" d="M45.943,83.866l-3.645,1.935
	c0.188-0.1,0.305-0.331,0.305-0.666l3.645-1.935C46.248,83.534,46.13,83.766,45.943,83.866z"/>
<path id="Stroke-455-2" inkscape:connector-curvature="0" class="st9" d="M52.193,80.307l-3.645,1.935
	c0.188-0.1,0.305-0.331,0.305-0.666l3.645-1.935C52.498,79.976,52.38,80.207,52.193,80.307z"/>
<path id="Stroke-245-6" inkscape:connector-curvature="0" class="st9" d="M58.581,76.76l-3.645,1.935
	c0.188-0.1,0.305-0.331,0.305-0.666l3.645-1.935C58.886,76.429,58.768,76.661,58.581,76.76z"/>
<path id="Stroke-35-9" inkscape:connector-curvature="0" class="st9" d="M64.831,73.201l-3.645,1.935
	c0.188-0.1,0.305-0.331,0.305-0.666l3.645-1.935C65.136,72.87,65.018,73.103,64.831,73.201z"/>
<path id="Stroke-1256-4" inkscape:connector-curvature="0" class="st9" d="M28.378,36.381c0.426,0.377,0.312,0.252,0.53,0.514
	c0.27,0.322,0.429,1.07,0.429,1.07s3.621-1.832,3.645-1.935c0.046-0.206-0.198-0.727-0.391-1.017
	c-0.24-0.361-0.568-0.566-0.568-0.566L28.378,36.381z"/>
<path id="Stroke-1046-7" inkscape:connector-curvature="0" class="st9" d="M34.627,32.822c0.426,0.377,0.312,0.252,0.53,0.514
	c0.27,0.322,0.429,1.07,0.429,1.07s3.621-1.832,3.645-1.935c0.046-0.206-0.198-0.727-0.391-1.017
	c-0.24-0.361-0.568-0.566-0.568-0.566L34.627,32.822z"/>
<path id="Stroke-836-9" inkscape:connector-curvature="0" class="st9" d="M41.597,29.767c0.426,0.377,0.312,0.252,0.53,0.514
	c0.27,0.322,0.429,1.07,0.429,1.07s3.621-1.832,3.645-1.935c0.046-0.206-0.198-0.727-0.391-1.017
	c-0.24-0.361-0.568-0.566-0.568-0.566L41.597,29.767z"/>
<path id="Stroke-626-4" inkscape:connector-curvature="0" class="st9" d="M47.847,26.208c0.426,0.377,0.312,0.252,0.53,0.514
	c0.27,0.322,0.429,1.07,0.429,1.07s3.621-1.832,3.645-1.935c0.046-0.206-0.198-0.727-0.391-1.017
	c-0.24-0.361-0.568-0.566-0.568-0.566L47.847,26.208z"/>
<path id="Stroke-416-5" inkscape:connector-curvature="0" class="st9" d="M54.236,22.661c0.426,0.377,0.312,0.252,0.53,0.514
	c0.27,0.322,0.429,1.07,0.429,1.07s3.621-1.832,3.645-1.935c0.046-0.206-0.198-0.727-0.391-1.017
	c-0.24-0.361-0.568-0.566-0.568-0.566L54.236,22.661z"/>
<path id="Stroke-206-7" inkscape:connector-curvature="0" class="st9" d="M60.486,19.104c0.426,0.377,0.312,0.252,0.53,0.514
	c0.27,0.322,0.429,1.07,0.429,1.07s3.621-1.832,3.645-1.935c0.046-0.206-0.198-0.727-0.391-1.017
	c-0.24-0.361-0.568-0.566-0.568-0.566L60.486,19.104z"/>
<path id="Stroke-1258-3" inkscape:connector-curvature="0" class="st9" d="M1.527,20.674c0,0,0.147-0.062,0.307-0.011l0.159,0.052
	l0.209,0.115l3.663-1.924l-0.266-0.141L5.437,18.72l-0.14-0.007c0.14,0.007-0.125,0.025-0.125,0.025L1.527,20.674z"/>
<path id="Stroke-1048-2" inkscape:connector-curvature="0" class="st9" d="M7.966,17.052c0,0,0.147-0.062,0.307-0.011l0.159,0.052
	l0.209,0.115l3.663-1.924l-0.266-0.141l-0.162-0.044l-0.14-0.007c0.14,0.007-0.125,0.025-0.125,0.025L7.966,17.052z"/>
<path id="Stroke-838-4" inkscape:connector-curvature="0" class="st9" d="M14.935,13.997c0,0,0.147-0.062,0.307-0.011l0.159,0.052
	l0.209,0.115l3.663-1.924l-0.266-0.141l-0.162-0.044l-0.14-0.007c0.14,0.007-0.125,0.025-0.125,0.025L14.935,13.997z"/>
<path id="Stroke-628-5" inkscape:connector-curvature="0" class="st9" d="M21.386,10.458c0,0,0.147-0.062,0.307-0.011l0.159,0.052
	l0.209,0.115l3.663-1.924L25.458,8.55l-0.162-0.044l-0.14-0.007c0.14,0.007-0.125,0.025-0.125,0.025L21.386,10.458z"/>
<path id="Stroke-418-3" inkscape:connector-curvature="0" class="st9" d="M27.573,6.891c0,0,0.147-0.062,0.307-0.011l0.159,0.052
	l0.209,0.115l3.663-1.924l-0.266-0.141l-0.162-0.044l-0.14-0.007c0.14,0.007-0.125,0.025-0.125,0.025L27.573,6.891z"/>
<path id="Stroke-208-9" inkscape:connector-curvature="0" class="st9" d="M33.9,3.378c0,0,0.147-0.062,0.307-0.011l0.159,0.052
	l0.209,0.115l3.663-1.924L37.972,1.47L37.81,1.424l-0.14-0.007c0.14,0.007-0.125,0.025-0.125,0.025L33.9,3.378z"/>
<path id="Stroke-1343-4" inkscape:connector-curvature="0" class="st10" d="M5.685,24.944l1.458-0.774
	c0.175-0.092,0.408-0.073,0.665,0.082L6.35,25.026C6.093,24.872,5.86,24.852,5.685,24.944z"/>
<path id="Stroke-1456-1" inkscape:connector-curvature="0" class="st10" d="M22.135,34.51l1.458-0.774
	c0.535,0.322,0.974,1.113,0.974,1.758l-1.458,0.774C23.109,35.623,22.671,34.833,22.135,34.51z"/>
<path id="Stroke-2916" class="st8" d="M1.265,21.073c0.012-0.813,1.759,0.185,1.759,0.185l25.071,15.065
	c0,0,0.299,0.273,0.803,0.799c0.504,0.525,0.558,1.648,0.558,1.648l0.081,51.05c0,0-0.062,1.603-0.356,2.102
	s-0.956,0.418-0.956,0.418"/>
<path id="Stroke-1295-4" inkscape:connector-curvature="0" class="st10" d="M24.296,89.777l-1.457,0.774
	c0.189-0.1,0.308-0.334,0.308-0.67l1.458-0.774C24.605,89.444,24.485,89.676,24.296,89.777z"/>
<path id="Stroke-2918" class="st11" d="M5.377,25.615c0.011-0.736,0.973-0.176,0.973-0.176l15.348,9.223c0,0,0.27,0.247,0.727,0.723
	c0.456,0.475,0.505,1.492,0.505,1.492l0.093,52.034c0,0,0.082,1.189-0.184,1.641c-0.267,0.451-0.98-0.271-0.98-0.271"/>
</svg>
