<?xml version="1.0" encoding="utf-8"?>
<svg version="1.1" id="Layer_1" xmlns="http://www.w3.org/2000/svg" xmlns:xlink="http://www.w3.org/1999/xlink" x="0px" y="0px"
	 viewBox="0 0 143.37 123.733" style="enable-background:new 0 0 143.37 123.733;" xml:space="preserve">
<style type="text/css">
	.st0{fill:#FEFEFE;}
	.st1{font-family:'ArialMT';}
	.st2{font-size:2.3392px;}
	.st3{fill:none;stroke:#FEFEFE;stroke-width:0.722;stroke-linecap:round;}
	.st4{fill:none;stroke:#626366;stroke-width:2.999;stroke-linejoin:round;}
	.st5{fill:#898B8E;}
	.st6{fill:#BBBDBF;}
	.st7{fill:#B3B5B7;}
	.st8{fill:#636466;}
	.st9{fill:none;stroke:#636466;stroke-width:0.25;stroke-linecap:round;stroke-linejoin:round;}
	.st10{fill:none;stroke:#DFE0DF;stroke-width:0.75;stroke-linecap:round;stroke-linejoin:round;}
	.st11{fill:#B22216;}
	.st12{fill:#231F20;}
</style>
<title>icon-SBx8106</title>
<desc>Created with Sketch.</desc>
<text transform="matrix(1 0 0 1 27.7125 23.4241)" class="st0 st1 st2">SBx8106</text>
<path id="Stroke-2" class="st3" d="M4.128,36.102v40.2"/>
<g id="Group-9" transform="translate(0.000000, 0.733000)">
	<polygon id="Stroke-3" class="st4" points="79.88,80.752 141.841,47.863 141.87,88.609 79.91,121.5 	"/>
	<polygon id="Stroke-5" class="st4" points="1.5,33.658 63.46,0.767 141.841,47.865 79.88,80.753 	"/>
	<polygon id="Stroke-7" class="st4" points="79.88,80.752 79.91,121.5 1.528,74.402 1.5,33.657 	"/>
</g>
<polygon id="Fill-10" class="st5" points="79.88,81.485 141.841,48.597 141.87,89.342 79.91,122.233 "/>
<polygon id="Fill-11" class="st6" points="1.5,34.39 63.46,1.5 141.841,48.597 79.88,81.486 "/>
<polygon id="Fill-12" class="st7" points="79.88,81.485 79.91,122.233 1.528,75.135 1.5,34.389 "/>
<path id="Stroke-13" class="st3" d="M75.555,78.794v40.439"/>
<path id="Stroke-14" class="st3" d="M38.808,70.186V97.66"/>
<polygon id="Fill-15" class="st0" points="75.297,102.327 4.083,59.424 4.083,58.484 75.297,101.387 "/>
<polygon id="Fill-16" class="st0" points="75.323,112.038 4.111,69.134 4.111,68.194 75.323,111.098 "/>
<polygon id="Fill-17" class="st0" points="75.069,92.484 3.857,49.581 3.857,48.64 75.069,91.544 "/>
<polygon id="Fill-18" class="st8" points="21.59,58.596 4.983,48.562 4.983,37.561 21.662,47.523 "/>
<polygon id="Stroke-19" class="st9" points="21.59,58.596 4.983,48.562 4.983,37.561 21.662,47.523 "/>
<polygon id="Fill-20" class="st0" points="20.514,63.542 5.326,54.376 5.326,52.123 20.513,61.198 "/>
<polygon id="Fill-21" class="st0" points="37.09,73.316 21.902,64.151 21.902,61.897 37.089,70.972 "/>
<polygon id="Fill-22" class="st0" points="37.146,76.73 21.958,67.565 21.958,65.311 37.145,74.386 "/>
<polygon id="Fill-23" class="st0" points="56.424,85.103 41.236,75.938 41.236,73.684 56.423,82.759 "/>
<polygon id="Fill-24" class="st0" points="56.481,88.518 41.292,79.353 41.292,77.099 56.479,86.174 "/>
<polygon id="Fill-25" class="st0" points="73,94.879 57.813,85.714 57.813,83.46 72.999,92.535 "/>
<polygon id="Fill-26" class="st0" points="73.055,98.293 57.868,89.128 57.868,86.874 73.054,95.949 "/>
<polygon id="Fill-27" class="st0" points="20.469,73.436 5.281,64.271 5.281,62.018 20.468,71.092 "/>
<polygon id="Fill-28" class="st0" points="20.527,76.851 5.337,67.686 5.337,65.432 20.524,74.507 "/>
<polygon id="Fill-29" class="st0" points="37.044,83.212 21.858,74.047 21.858,71.793 37.043,80.868 "/>
<polygon id="Fill-30" class="st0" points="56.381,94.999 41.191,85.834 41.191,83.58 56.377,92.655 "/>
<polygon id="Fill-31" class="st0" points="56.437,98.413 41.248,89.248 41.248,86.994 56.435,96.069 "/>
<polygon id="Fill-32" class="st0" points="72.955,104.774 57.768,95.609 57.768,93.355 72.954,102.43 "/>
<polygon id="Fill-33" class="st0" points="73.01,108.188 57.823,99.023 57.823,96.769 73.009,105.844 "/>
<polygon id="Fill-34" class="st0" points="20.788,82.56 5.599,73.396 5.599,71.141 20.785,80.215 "/>
<polygon id="Fill-35" class="st0" points="20.844,85.974 5.655,76.809 5.655,74.555 20.841,83.63 "/>
<polygon id="Fill-36" class="st0" points="37.362,92.335 22.174,83.17 22.174,80.916 37.361,89.991 "/>
<polygon id="Fill-37" class="st0" points="37.418,95.749 22.231,86.584 22.231,84.33 37.417,93.405 "/>
<polygon id="Fill-38" class="st0" points="56.698,104.122 41.508,94.957 41.508,92.703 56.695,101.778 "/>
<polygon id="Fill-39" class="st0" points="56.754,107.536 41.564,98.371 41.564,96.117 56.751,105.192 "/>
<polygon id="Fill-40" class="st0" points="73.328,117.311 58.14,108.146 58.14,105.892 73.327,114.967 "/>
<polygon id="Fill-41" class="st8" points="74.556,90.535 57.949,80.501 57.949,69.5 74.628,79.463 "/>
<polygon id="Stroke-42" class="st9" points="74.556,90.535 57.949,80.501 57.949,69.5 74.628,79.463 "/>
<polygon id="Fill-43" class="st8" points="39.169,69.259 22.561,59.227 22.561,48.224 39.243,58.188 "/>
<polygon id="Stroke-44" class="st9" points="39.169,69.259 22.561,59.227 22.561,48.224 39.243,58.188 "/>
<polygon id="Fill-45" class="st8" points="56.827,79.681 40.22,69.646 40.22,58.646 56.9,68.609 "/>
<polygon id="Stroke-46" class="st9" points="56.827,79.681 40.22,69.646 40.22,58.646 56.9,68.609 "/>
<polyline id="Stroke-47" class="st10" points="2.177,34.597 80.163,81.456 80.163,121.708 "/>
<polygon id="Fill-48" class="st0" points="73.066,113.94 68.807,111.382 68.807,109.382 73.066,111.94 "/>
<polygon id="Fill-49" class="st0" points="9.547,60.5 5.286,57.943 5.286,55.943 9.547,58.501 "/>
<polygon id="Fill-50" class="st0" points="30.538,83.084 26.28,80.526 26.28,78.526 30.538,81.085 "/>
<g id="Group-83" transform="translate(35.000000, 13.733000)">
	<path id="Fill-51" class="st11" d="M15.274,5.447c-0.759-1.238-1.352-1.896-2.191-2.403c-0.882-0.533-1.783-0.686-2.302-0.398
		c-1.575,0.873,3.886,3.656,0.246,5.674C9.023,9.432,6.269,9.116,4.071,7.788c-1.721-1.038-2.1-1.817-2.548-2.707l2.248-1.246
		c0.424,1.406,0.939,2.126,2.024,2.78c0.94,0.567,1.798,0.678,2.41,0.339c1.713-0.95-3.933-3.631-0.186-5.708
		c1.805-1.001,4.472-0.773,6.757,0.607c1.1,0.663,1.852,1.402,2.531,2.466L15.274,5.447z"/>
	<polygon id="Fill-53" class="st11" points="11.878,12.501 10.894,11.906 15.076,6.105 17.215,7.397 14.733,10.398 20.108,9.144 
		21.379,9.911 18.969,12.956 24.257,11.648 26.398,12.939 16.216,15.119 15.219,14.517 17.393,11.385 	"/>
	<path id="Fill-55" class="st11" d="M31.503,13.366c-0.673,0.373-1.745,0.364-2.381-0.021c-0.637-0.383-0.606-1.002,0.067-1.375
		c0.672-0.374,1.743-0.365,2.379,0.019C32.205,12.375,32.176,12.993,31.503,13.366z M22.058,18.486l-2.097-1.265l7.05-3.91
		l2.097,1.266L22.058,18.486z"/>
	<path id="Fill-57" class="st11" d="M33.752,19.134l-2.43-1.467l-2.905,1.612c-0.688,0.381-0.756,0.854-0.105,1.247
		c0.434,0.262,0.946,0.447,1.815,0.618l-1.605,0.889c-1.059-0.266-1.731-0.53-2.381-0.922c-1.389-0.838-1.916-1.936,0.056-3.03
		l3.029-1.679l-0.954-0.576l0.428-0.237l6.095-0.146l0.26,0.156l-2.219,1.229l2.43,1.466L33.752,19.134z"/>
	<path id="Fill-59" class="st11" d="M35.095,25.965c-1.16-0.328-2.021-0.671-2.73-1.099c-2.343-1.414-2.424-3.128-0.222-4.348
		c2.157-1.197,5.263-1.092,7.46,0.234c0.679,0.41,1.363,1.036,1.783,1.608l-1.652,0.916c-0.243-0.501-0.711-0.979-1.232-1.293
		c-1.258-0.759-2.864-0.808-4.102-0.121c-1.254,0.696-1.284,1.633-0.084,2.358c0.506,0.306,1.076,0.508,2.369,0.863L35.095,25.965z"
		/>
	<path id="Fill-61" class="st11" d="M44.008,24.775l0.029,0.018c1.418-0.083,2.463,0.123,3.289,0.621
		c1.215,0.733,1.664,1.907-0.248,2.967l-4.496,2.493l-2.096-1.266l4.022-2.229c1.055-0.585,1.109-1.119,0.459-1.511
		c-0.492-0.297-1.232-0.372-2.474-0.254l-4.496,2.493l-2.096-1.267l10.429-5.782l2.098,1.267L44.008,24.775z"/>
	<path id="Fill-63" class="st12" d="M50.652,29.263l1.056,0.638c1.996,1.204,3.53,1.157,4.769,0.469
		c1.591-0.88,0.894-1.868-0.638-2.793l-1.027-0.621L50.652,29.263z M45.727,31.992l2.039,1.232c2.039,1.23,3.737,0.909,4.685,0.384
		c1.025-0.569,1.621-1.501-0.765-2.942l-1.707-1.03L45.727,31.992z M56.771,27.361c2.662,1.606,1.799,2.803,0.591,3.473
		c-1.04,0.577-2.206,0.705-3.741,0.434c1.168,1.094,1.031,2.074-0.362,2.846c-1.712,0.949-4.069,0.749-6.079-0.464l-2.891-1.746
		l10.429-5.783L56.771,27.361z"/>
	<polygon id="Fill-65" class="st12" points="52.393,36.796 51.699,36.376 62.127,30.594 62.824,31.014 	"/>
	<path id="Fill-67" class="st12" d="M60.764,37.792c-1.614-1.063-3.798-1.478-4.991-0.816c-0.643,0.356-0.582,0.959,0.156,1.404
		c0.621,0.375,1.373,0.546,2.694,0.599L60.764,37.792z M59.622,40.486l-0.207-0.018c-1.171-0.106-1.552-0.211-1.828-0.377
		c-0.318-0.193-0.236-0.338,0.394-0.755c-1.32-0.106-2.201-0.337-2.895-0.755c-0.984-0.594-0.969-1.489-0.007-2.023
		c1.79-0.993,4.312-0.196,6.297,0.896l0.871-0.483c0.918-0.509,0.931-1.068-0.038-1.653c-0.694-0.419-1.474-0.589-2.852-0.713
		l0.749-0.416c1.315,0.193,2.122,0.432,2.831,0.86c0.81,0.489,1.672,1.417,0.234,2.214l-4.282,2.374
		c-0.274,0.153-0.308,0.22-0.192,0.291c0.159,0.095,0.9,0.171,1.537,0.219L59.622,40.486z"/>
	<path id="Fill-69" class="st12" d="M70.154,40.981c-0.235-0.691-0.573-1.09-1.253-1.5c-1.504-0.908-3.736-0.909-5.373-0.002
		c-1.666,0.924-1.748,2.31-0.186,3.252c0.65,0.393,1.237,0.57,2.376,0.709L70.154,40.981z M65.204,44.528L64.51,44.11l0.536-0.296
		c-1.2-0.139-1.859-0.343-2.596-0.788c-1.852-1.117-1.723-2.847,0.296-3.966c2.049-1.136,4.952-1.137,6.846,0.006
		c0.665,0.402,0.99,0.758,1.373,1.467l3.975-2.205l0.693,0.419L65.204,44.528z"/>
	<path id="Fill-71" class="st12" d="M75.665,45.883c1.1-0.895,1.064-1.678-0.051-2.35c-1.068-0.646-2.657-0.736-4.157-0.19
		L75.665,45.883z M70.773,43.622c-1.961,0.854-1.991,2.394-0.515,3.284c0.867,0.524,1.882,0.783,3.44,0.89l-0.826,0.457
		c-1.394-0.114-2.479-0.433-3.42-1.001c-1.88-1.134-1.71-2.803,0.416-3.981c2.019-1.119,4.744-1.174,6.465-0.135
		c1.389,0.838,1.853,2.305-0.44,3.576L70.773,43.622z"/>
	<polygon id="Fill-73" class="st12" points="5.47,26.18 4.575,25.639 11.057,25.479 11.442,21.833 12.338,22.372 12.038,25.486 
		17.429,25.447 18.325,25.988 11.996,26.045 11.458,29.794 10.562,29.253 11.029,26.045 	"/>
	<path id="Fill-75" class="st12" d="M24.485,28.59c1.116-0.619,1.165-1.617,0.109-2.255c-1.041-0.628-2.767-0.625-3.899,0.002
		c-1.147,0.636-1.21,1.625-0.14,2.272C21.639,29.263,23.308,29.242,24.485,28.59 M15.521,28.986
		c-1.209,0.67-1.321,1.771-0.121,2.496c1.215,0.733,3.032,0.697,4.348-0.033c1.193-0.661,1.215-1.746,0.045-2.453
		C18.634,28.299,16.729,28.319,15.521,28.986 M19.941,25.899c1.515-0.839,3.984-0.818,5.387,0.029
		c1.447,0.873,1.379,2.283-0.136,3.123c-0.978,0.542-2.194,0.73-3.63,0.555c0.358,0.94-0.007,1.695-1.123,2.314
		c-1.683,0.933-4.212,0.911-5.773-0.031c-1.591-0.96-1.535-2.432,0.087-3.33c1.116-0.619,2.54-0.823,4.12-0.577
		C18.631,27.128,18.978,26.434,19.941,25.899"/>
	<polygon id="Fill-77" class="st12" points="21.1,35.615 20.361,35.168 30.792,29.385 31.531,29.833 	"/>
	<path id="Fill-79" class="st12" d="M36.71,33.65c-1.417-0.855-4.326-0.397-7.033,1.103c-2.738,1.518-3.65,3.145-2.233,4.001
		c1.606,0.968,4.647,0.254,7.094-1.102C36.786,36.404,38.374,34.653,36.71,33.65 M26.768,39.195
		c-1.866-1.126-1.117-3.066,1.989-4.786c2.263-1.255,4.135-1.808,6.038-1.792c0.894,0.008,1.94,0.197,2.649,0.625
		c0.694,0.419,0.995,0.971,0.969,1.523c-0.057,1.17-1.303,2.313-3.215,3.372C31.834,40.004,28.461,40.216,26.768,39.195"/>
	<path id="Fill-81" class="st12" d="M34.671,43.115c1.2,0.725,3.014,0.774,4.206,0.113c1.255-0.695,1.292-1.788,0.092-2.512
		c-0.796-0.481-1.751-0.721-3.192-0.793C33.465,40.953,33.282,42.277,34.671,43.115z M45.667,38.844
		c-3.434-0.39-6.779-0.161-8.857,0.658c1.258,0.122,2.241,0.414,2.994,0.868c1.576,0.951,1.538,2.345-0.083,3.244
		c-1.713,0.949-4.109,0.921-5.742-0.065c-1.837-1.109-1.571-2.614,0.662-3.851c2.89-1.603,6.771-1.828,11.142-1.421L45.667,38.844z"
		/>
</g>
</svg>
