<?xml version="1.0" encoding="utf-8"?>
<svg version="1.1" id="Layer_1" xmlns="http://www.w3.org/2000/svg" xmlns:xlink="http://www.w3.org/1999/xlink" x="0px" y="0px"
	 viewBox="0 0 123.668 84.623" style="enable-background:new 0 0 123.668 84.623;" xml:space="preserve">
<style type="text/css">
	.st0{fill:none;stroke:#626366;stroke-width:3;stroke-linecap:round;stroke-linejoin:round;}
	.st1{fill:#898B8E;}
	.st2{fill:#231F20;}
	.st3{fill:#B3B5B7;}
	.st4{fill:none;stroke:#DFE0DF;stroke-width:0.75;stroke-linecap:round;stroke-linejoin:round;}
	.st5{fill:#FEFEFE;}
</style>
<title>icon-switch-24port-poeL2</title>
<desc>Created with Sketch.</desc>
<polygon id="Stroke-1" class="st0" points="79.881,71.039 122.16,48.596 122.168,60.682 79.889,83.123 "/>
<polygon id="Stroke-3" class="st0" points="1.5,23.943 43.779,1.5 122.16,48.595 79.881,71.039 "/>
<polygon id="Stroke-5" class="st0" points="79.881,71.039 79.889,83.123 1.508,36.027 1.5,23.943 "/>
<polygon id="Fill-8" class="st1" points="79.881,71.039 122.16,48.598 122.168,60.682 79.889,83.125 "/>
<polygon id="Fill-9" class="st2" points="1.5,23.943 43.779,1.502 122.16,48.597 79.881,71.039 "/>
<polygon id="Fill-10" class="st3" points="79.881,71.039 79.889,83.125 1.508,36.027 1.5,23.943 "/>
<polyline id="Stroke-11" class="st4" points="1.879,23.949 79.865,70.808 79.865,82.803 "/>
<polygon id="Fill-12" class="st5" points="11.026,39.32 4.983,35.689 4.983,33.947 11.026,37.578 "/>
<polygon id="Fill-13" class="st5" points="75.744,74.048 62.277,65.956 62.277,62.782 75.744,70.874 "/>
<polygon id="Fill-14" class="st5" points="75.693,78.845 62.23,70.755 62.23,67.579 75.693,75.669 "/>
<polygon id="Fill-15" class="st5" points="57.58,63.125 44.111,55.031 44.111,51.857 57.58,59.951 "/>
<polygon id="Fill-16" class="st5" points="57.531,67.921 44.064,59.83 44.064,56.655 57.531,64.747 "/>
<polygon id="Fill-17" class="st5" points="39.459,52.263 25.992,44.171 25.992,40.995 39.459,49.087 "/>
<polygon id="Fill-18" class="st5" points="39.412,57.06 25.945,48.97 25.945,45.796 39.412,53.886 "/>
<polygon id="Fill-19" class="st5" points="19.195,26.61 37.058,26.757 31.649,18.654 43.785,19.7 40.031,14.084 61.542,15.936 
	46.272,18.125 50.984,25.182 40.813,24.304 46.191,32.356 20.243,26.797 "/>
<polygon id="Fill-20" class="st5" points="38.957,38.552 50.561,32.692 51.607,33.319 41.374,38.487 45.276,40.819 43.907,41.51 "/>
<path id="Fill-21" class="st5" d="M51.335,40.695l2.686,1.605l2.387-2.116c0.724-0.644,1.337-1.161,1.844-1.552
	c-0.846,0.315-1.727,0.604-2.644,0.864L51.335,40.695z M44.285,41.736l14.645-4.042l1.129,0.674l-8.36,7.798l-1.194-0.714
	l2.59-2.327l-3.314-1.979l-4.383,1.255L44.285,41.736z"/>
<path id="Fill-23" class="st5" d="M53.946,47.509l4.915-2.482l3.635-5.202l1.275,0.762l-1.936,2.699
	c-0.367,0.503-0.752,0.994-1.159,1.473c0.845-0.165,1.817-0.337,2.916-0.519l4.945-0.806l1.221,0.73l-9.848,1.489l-4.915,2.482
	L53.946,47.509z"/>
<polygon id="Fill-25" class="st5" points="59.117,50.599 70.721,44.739 76.449,48.162 75.08,48.853 70.4,46.057 66.846,47.852 
	71.228,50.471 69.867,51.159 65.484,48.54 61.535,50.535 66.398,53.44 65.029,54.132 "/>
<path id="Fill-27" class="st5" d="M74.024,52.359l2.254,1.347c0.479,0.286,0.927,0.473,1.342,0.561
	c0.414,0.088,0.852,0.094,1.312,0.016c0.459-0.076,0.876-0.21,1.25-0.399c0.549-0.277,0.865-0.587,0.947-0.927
	c0.081-0.342-0.17-0.687-0.758-1.039l-2.508-1.498L74.024,52.359z M66.494,55.006l11.602-5.859l3.514,2.098
	c0.705,0.422,1.138,0.795,1.297,1.121c0.159,0.324,0.085,0.685-0.223,1.083s-0.781,0.759-1.42,1.081
	c-0.822,0.415-1.698,0.658-2.627,0.725c-0.928,0.067-1.85-0.087-2.762-0.464c0.082,0.264,0.1,0.487,0.054,0.67
	c-0.106,0.39-0.33,0.824-0.675,1.299l-1.779,2.418l-1.318-0.788l1.365-1.845c0.391-0.535,0.672-0.955,0.843-1.26
	c0.171-0.304,0.252-0.542,0.243-0.71c-0.01-0.168-0.065-0.315-0.17-0.441c-0.081-0.09-0.258-0.215-0.527-0.377l-1.217-0.727
	l-5.152,2.602L66.494,55.006z"/>
<path id="Fill-29" class="st5" d="M83.631,63.737l-1.369,0.691L77.027,61.3c0.334-0.178,0.702-0.322,1.102-0.432
	c0.655-0.185,1.383-0.317,2.183-0.397c0.8-0.081,1.81-0.123,3.03-0.127c1.894-0.007,3.297-0.074,4.203-0.198
	c0.907-0.124,1.629-0.323,2.167-0.595c0.565-0.285,0.903-0.607,1.016-0.968c0.112-0.36-0.053-0.673-0.496-0.938
	c-0.468-0.279-1.049-0.399-1.742-0.36c-0.693,0.04-1.405,0.243-2.136,0.608l-0.849-0.673c1.159-0.511,2.251-0.777,3.27-0.799
	c1.018-0.022,1.905,0.191,2.657,0.642c0.761,0.454,1.053,0.97,0.88,1.546c-0.174,0.576-0.719,1.095-1.632,1.556
	c-0.464,0.235-0.985,0.426-1.564,0.575c-0.578,0.149-1.266,0.259-2.061,0.33c-0.797,0.071-1.979,0.116-3.543,0.136
	c-1.301,0.013-2.162,0.035-2.584,0.065c-0.422,0.03-0.817,0.078-1.182,0.144L83.631,63.737z"/>
</svg>
