<?xml version="1.0" encoding="utf-8"?>
<svg version="1.1" id="Layer_1" xmlns="http://www.w3.org/2000/svg" xmlns:xlink="http://www.w3.org/1999/xlink" x="0px" y="0px"
	 viewBox="0 0 130.229 87.986" style="enable-background:new 0 0 130.229 87.986;" xml:space="preserve">
<style type="text/css">
	.st0{fill:none;stroke:#626366;stroke-width:3;stroke-linecap:round;stroke-linejoin:round;}
	.st1{fill:#898B8E;}
	.st2{fill:#231F20;}
	.st3{fill:#B3B5B7;}
	.st4{fill:none;stroke:#DFE0DF;stroke-width:0.75;stroke-linecap:round;stroke-linejoin:round;}
	.st5{fill:#FEFEFE;}
</style>
<title>icon-switch-48port-poeL3</title>
<desc>Created with Sketch.</desc>
<polygon id="Stroke-1" class="st0" points="1.5,27.426 50.34,1.5 128.721,48.597 79.881,74.521 "/>
<polygon id="Stroke-3" class="st0" points="79.881,74.521 79.889,86.486 1.508,39.39 1.5,27.427 "/>
<polygon id="Stroke-5" class="st0" points="79.881,74.521 128.721,48.597 128.729,60.562 79.889,86.486 "/>
<polygon id="Fill-8" class="st1" points="79.881,74.523 128.721,48.597 128.729,60.564 79.889,86.488 "/>
<polygon id="Fill-9" class="st2" points="1.5,27.426 50.34,1.502 128.721,48.597 79.881,74.523 "/>
<polygon id="Fill-10" class="st3" points="79.881,74.523 79.889,86.488 1.508,39.392 1.5,27.426 "/>
<polyline id="Stroke-11" class="st4" points="1.893,27.33 79.881,74.189 79.881,86.181 "/>
<polygon id="Fill-12" class="st5" points="52.918,63.634 37.596,54.427 37.596,51.253 52.918,60.46 "/>
<polygon id="Fill-13" class="st5" points="52.861,68.427 37.543,59.224 37.543,56.049 52.861,65.254 "/>
<polygon id="Fill-14" class="st5" points="70.156,73.992 54.834,64.785 54.834,61.611 70.156,70.818 "/>
<polygon id="Fill-15" class="st5" points="70.1,78.785 54.782,69.582 54.782,66.406 70.1,75.611 "/>
<polygon id="Fill-16" class="st5" points="18.444,42.91 3.122,33.703 3.122,30.53 18.444,39.734 "/>
<polygon id="Fill-17" class="st5" points="18.387,47.701 3.069,38.498 3.069,35.322 18.387,44.527 "/>
<polygon id="Fill-18" class="st5" points="35.682,53.265 20.36,44.06 20.36,40.886 35.682,50.091 "/>
<polygon id="Fill-19" class="st5" points="35.625,58.058 20.305,48.853 20.305,45.679 35.625,54.884 "/>
<polygon id="Fill-20" class="st5" points="74.387,76.752 72.375,75.543 72.375,72.912 74.387,74.123 "/>
<polygon id="Fill-21" class="st5" points="74.379,80.746 72.365,79.537 72.365,76.908 74.379,78.117 "/>
<polygon id="Fill-22" class="st5" points="77.445,82.621 75.431,81.41 75.431,78.783 77.445,79.992 "/>
<polygon id="Fill-23" class="st5" points="20.192,26.952 38.055,27.099 32.645,18.996 44.783,20.042 41.028,14.426 62.539,16.278 
	47.269,18.467 51.981,25.524 41.809,24.646 47.188,32.698 21.239,27.139 "/>
<polygon id="Fill-24" class="st5" points="38.953,40.894 50.557,35.034 51.603,35.661 41.37,40.829 45.272,43.161 43.903,43.852 "/>
<path id="Fill-25" class="st5" d="M51.331,43.038l2.686,1.605l2.387-2.116c0.724-0.644,1.337-1.161,1.844-1.552
	c-0.846,0.315-1.727,0.604-2.644,0.864L51.331,43.038z M44.281,44.079l14.645-4.042l1.129,0.674l-8.36,7.798l-1.194-0.714
	l2.59-2.327l-3.314-1.979l-4.383,1.255L44.281,44.079z"/>
<path id="Fill-27" class="st5" d="M53.943,49.851l4.915-2.482l3.635-5.202l1.275,0.762l-1.936,2.699
	c-0.367,0.503-0.752,0.994-1.159,1.473c0.845-0.165,1.817-0.337,2.916-0.519l4.945-0.806l1.221,0.73l-9.849,1.489l-4.915,2.482
	L53.943,49.851z"/>
<polygon id="Fill-29" class="st5" points="59.113,52.941 70.717,47.081 76.445,50.504 75.076,51.195 70.396,48.399 66.842,50.194 
	71.224,52.813 69.863,53.501 65.48,50.882 61.531,52.877 66.394,55.782 65.025,56.474 "/>
<path id="Fill-31" class="st5" d="M74.02,54.701l2.254,1.347c0.479,0.286,0.927,0.473,1.342,0.561
	c0.414,0.088,0.852,0.094,1.312,0.016c0.459-0.076,0.876-0.21,1.25-0.399c0.549-0.277,0.865-0.587,0.947-0.927
	c0.081-0.342-0.17-0.687-0.758-1.039l-2.508-1.498L74.02,54.701z M66.49,57.348l11.602-5.859l3.514,2.098
	c0.705,0.422,1.138,0.795,1.297,1.121c0.159,0.324,0.085,0.685-0.223,1.083c-0.308,0.398-0.781,0.759-1.42,1.081
	c-0.822,0.415-1.698,0.658-2.627,0.725c-0.928,0.067-1.85-0.087-2.762-0.464c0.082,0.264,0.1,0.487,0.054,0.67
	c-0.106,0.39-0.33,0.824-0.675,1.299l-1.779,2.418l-1.318-0.788l1.365-1.845c0.391-0.535,0.672-0.955,0.843-1.26
	c0.171-0.304,0.252-0.542,0.243-0.71c-0.01-0.168-0.065-0.315-0.17-0.441c-0.081-0.09-0.258-0.215-0.527-0.377l-1.217-0.727
	l-5.152,2.602L66.49,57.348z"/>
<path id="Fill-33" class="st5" d="M80.214,62.172l1.164,0.486c-0.696,0.473-1.088,0.881-1.176,1.222
	c-0.088,0.34,0.062,0.625,0.447,0.855c0.457,0.273,1.075,0.387,1.855,0.341c0.779-0.046,1.512-0.242,2.198-0.589
	c0.654-0.33,1.048-0.69,1.181-1.079s-0.025-0.717-0.477-0.987c-0.183-0.11-0.464-0.22-0.843-0.33l1.359-0.567
	c0.054,0.044,0.101,0.078,0.141,0.102c0.414,0.248,0.944,0.39,1.592,0.429c0.648,0.037,1.302-0.11,1.962-0.443
	c0.523-0.264,0.834-0.555,0.936-0.872c0.101-0.318-0.038-0.59-0.42-0.818c-0.378-0.226-0.867-0.327-1.468-0.301
	c-0.6,0.025-1.285,0.192-2.054,0.501l-0.72-0.71c1.074-0.411,2.086-0.623,3.032-0.636c0.945-0.014,1.732,0.167,2.359,0.541
	c0.433,0.259,0.696,0.565,0.787,0.92c0.093,0.354,0,0.708-0.277,1.06c-0.277,0.352-0.679,0.662-1.207,0.928
	c-0.501,0.253-1.05,0.429-1.644,0.527c-0.595,0.099-1.195,0.101-1.798,0.008c0.31,0.36,0.345,0.744,0.106,1.15
	c-0.239,0.407-0.733,0.8-1.482,1.179c-1.013,0.511-2.125,0.793-3.333,0.848c-1.209,0.054-2.199-0.149-2.97-0.61
	c-0.695-0.415-0.97-0.913-0.822-1.494C78.789,63.252,79.315,62.699,80.214,62.172"/>
</svg>
