<?xml version="1.0" encoding="utf-8"?>
<svg version="1.1" id="Layer_1" xmlns="http://www.w3.org/2000/svg" xmlns:xlink="http://www.w3.org/1999/xlink" x="0px" y="0px"
	 viewBox="0 0 123.668 84.623" style="enable-background:new 0 0 123.668 84.623;" xml:space="preserve">
<style type="text/css">
	.st0{fill:none;stroke:#626366;stroke-width:3;stroke-linecap:round;stroke-linejoin:round;}
	.st1{fill:#898B8E;}
	.st2{fill:#BBBDBF;}
	.st3{fill:#B3B5B7;}
	.st4{fill:none;stroke:#DFE0DF;stroke-width:0.75;stroke-linecap:round;stroke-linejoin:round;}
	.st5{fill:#FEFEFE;}
	.st6{fill:#010202;}
</style>
<title>icon-switch-24port-L2</title>
<desc>Created with Sketch.</desc>
<polygon id="Stroke-1" class="st0" points="79.881,71.039 122.16,48.596 122.168,60.681 79.889,83.123 "/>
<polygon id="Stroke-3" class="st0" points="1.5,23.942 43.779,1.5 122.16,48.595 79.881,71.039 "/>
<polygon id="Stroke-5" class="st0" points="79.881,71.039 79.889,83.123 1.508,36.027 1.5,23.942 "/>
<polygon id="Fill-8" class="st1" points="79.881,71.039 122.16,48.598 122.168,60.682 79.889,83.124 "/>
<polygon id="Fill-9" class="st2" points="1.5,23.943 43.779,1.501 122.16,48.597 79.881,71.039 "/>
<polygon id="Fill-10" class="st3" points="79.881,71.039 79.889,83.124 1.508,36.027 1.5,23.943 "/>
<polyline id="Stroke-11" class="st4" points="1.878,23.949 79.865,70.808 79.865,82.802 "/>
<polygon id="Fill-12" class="st5" points="11.026,39.32 4.983,35.689 4.983,33.947 11.026,37.578 "/>
<polygon id="Fill-13" class="st5" points="75.744,74.048 62.277,65.956 62.277,62.781 75.744,70.874 "/>
<polygon id="Fill-14" class="st5" points="75.693,78.845 62.23,70.755 62.23,67.579 75.693,75.669 "/>
<polygon id="Fill-15" class="st5" points="57.58,63.124 44.111,55.031 44.111,51.857 57.58,59.95 "/>
<polygon id="Fill-16" class="st5" points="57.531,67.921 44.064,59.828 44.064,56.654 57.531,64.747 "/>
<polygon id="Fill-17" class="st5" points="39.459,52.263 25.992,44.171 25.992,40.995 39.459,49.087 "/>
<polygon id="Fill-18" class="st5" points="39.412,57.06 25.945,48.969 25.945,45.795 39.412,53.886 "/>
<polygon id="Fill-19" class="st6" points="27.688,23.389 44.94,14.677 46.499,15.608 31.282,23.292 37.084,26.759 35.047,27.786 "/>
<path id="Fill-20" class="st6" d="M48.438,28.873c-0.839-0.155-1.894-0.491-3.162-1.007c-0.721-0.293-1.282-0.472-1.686-0.54
	c-0.404-0.068-0.822-0.065-1.258,0.007c-0.437,0.072-0.839,0.201-1.207,0.388c-0.566,0.285-0.89,0.61-0.974,0.974
	c-0.085,0.365,0.152,0.715,0.715,1.051c0.557,0.333,1.232,0.539,2.022,0.618c0.791,0.079,1.598,0.023,2.422-0.169
	c0.634-0.148,1.418-0.458,2.352-0.929L48.438,28.873z M43.828,31.334c-1.202,0.017-2.189-0.054-2.959-0.211s-1.44-0.406-2.007-0.745
	c-0.938-0.561-1.321-1.16-1.154-1.799c0.166-0.641,0.771-1.224,1.814-1.751c0.612-0.309,1.268-0.534,1.963-0.676
	c0.696-0.141,1.351-0.198,1.966-0.169c0.613,0.031,1.191,0.12,1.734,0.272c0.394,0.114,0.929,0.316,1.603,0.607
	c1.372,0.595,2.475,0.987,3.31,1.173c0.295-0.143,0.481-0.235,0.56-0.274c0.863-0.437,1.335-0.825,1.415-1.166
	c0.109-0.463-0.2-0.911-0.929-1.347c-0.681-0.407-1.358-0.618-2.03-0.636c-0.674-0.017-1.531,0.151-2.573,0.506l-1.132-0.987
	c1.015-0.37,1.943-0.606,2.782-0.705c0.841-0.1,1.685-0.057,2.536,0.127c0.853,0.184,1.645,0.496,2.379,0.934
	c0.728,0.436,1.194,0.852,1.398,1.251c0.205,0.4,0.224,0.759,0.058,1.079s-0.497,0.653-0.991,0.996
	c-0.314,0.211-0.941,0.555-1.882,1.031l-2.824,1.425c-1.97,0.996-3.185,1.643-3.645,1.943c-0.46,0.3-0.839,0.625-1.136,0.975
	l-1.509-0.902C42.865,31.975,43.282,31.657,43.828,31.334z"/>
<path id="Fill-22" class="st6" d="M40.991,36.645l1.827-1.101c0.192,0.253,0.404,0.45,0.641,0.59
	c0.32,0.193,0.657,0.307,1.006,0.343c0.35,0.035,0.727,0.019,1.132-0.05c0.304-0.053,0.977-0.23,2.019-0.533
	c0.146-0.043,0.36-0.104,0.647-0.185l9.284-8.257l1.558,0.931l-5.462,4.716c-0.687,0.601-1.446,1.212-2.276,1.832
	c1.14-0.391,2.286-0.753,3.443-1.083l9.108-2.59l1.446,0.866l-15.956,4.478c-1.721,0.485-2.936,0.801-3.647,0.947
	c-0.956,0.2-1.762,0.282-2.419,0.247c-0.659-0.034-1.217-0.188-1.678-0.463C41.387,37.166,41.161,36.937,40.991,36.645"/>
<path id="Fill-24" class="st6" d="M62.637,36.06l4.766,2.847c0.986-0.57,1.593-1.076,1.819-1.522
	c0.354-0.686,0.166-1.249-0.568-1.687c-0.664-0.398-1.548-0.567-2.653-0.509C64.898,35.248,63.777,35.539,62.637,36.06
	 M63.961,40.626l1.225,1.031c-1.515,0.505-2.944,0.745-4.287,0.72c-1.344-0.024-2.512-0.333-3.502-0.924
	c-1.248-0.746-1.674-1.622-1.28-2.626c0.394-1.006,1.608-2.022,3.64-3.048c2.103-1.062,4.105-1.665,6.004-1.81
	c1.9-0.144,3.44,0.135,4.618,0.84c1.141,0.681,1.504,1.525,1.09,2.531c-0.415,1.007-1.653,2.032-3.717,3.074
	c-0.125,0.063-0.317,0.156-0.573,0.28l-6.363-3.803c-1.32,0.726-2.105,1.416-2.359,2.068c-0.253,0.654-0.022,1.193,0.69,1.619
	c0.53,0.317,1.185,0.484,1.969,0.503C61.9,41.098,62.848,40.947,63.961,40.626"/>
<path id="Fill-26" class="st6" d="M63.231,44.628l12.498-6.312l1.301,0.778l-1.895,0.957c1.219-0.249,2.11-0.361,2.674-0.335
	c0.564,0.025,1.014,0.139,1.352,0.34c0.488,0.291,0.756,0.702,0.804,1.232l-2.464,0.695c-0.047-0.365-0.248-0.654-0.602-0.866
	c-0.315-0.188-0.738-0.287-1.27-0.298c-0.529-0.009-1.095,0.08-1.697,0.264c-0.913,0.285-1.816,0.653-2.711,1.105l-6.543,3.304
	L63.231,44.628z"/>
<path id="Fill-28" class="st6" d="M82.531,53.916l-2.035,1.028l-7.785-4.652c0.498-0.264,1.046-0.478,1.639-0.642
	c0.975-0.274,2.058-0.47,3.247-0.59c1.19-0.12,2.692-0.182,4.504-0.188c2.819-0.013,4.902-0.11,6.25-0.295
	c1.348-0.184,2.422-0.479,3.223-0.884c0.839-0.423,1.343-0.903,1.51-1.439c0.166-0.536-0.08-1.001-0.739-1.395
	c-0.697-0.416-1.559-0.594-2.589-0.535c-1.03,0.06-2.089,0.361-3.176,0.904l-1.264-1c1.727-0.76,3.347-1.157,4.863-1.189
	c1.515-0.033,2.832,0.285,3.952,0.954c1.129,0.675,1.565,1.442,1.306,2.299c-0.259,0.856-1.067,1.628-2.425,2.313
	c-0.69,0.349-1.465,0.634-2.325,0.856c-0.858,0.222-1.881,0.385-3.066,0.49c-1.185,0.105-2.94,0.172-5.266,0.2
	c-1.934,0.021-3.216,0.053-3.842,0.099c-0.628,0.045-1.212,0.116-1.758,0.215L82.531,53.916z"/>
</svg>
