<?xml version="1.0" encoding="utf-8"?>
<svg version="1.1" id="Layer_1" xmlns="http://www.w3.org/2000/svg" xmlns:xlink="http://www.w3.org/1999/xlink" x="0px" y="0px"
	 viewBox="0 0 130.229 87.986" style="enable-background:new 0 0 130.229 87.986;" xml:space="preserve">
<style type="text/css">
	.st0{fill:none;stroke:#626366;stroke-width:3;stroke-linecap:round;stroke-linejoin:round;}
	.st1{fill:#898B8E;}
	.st2{fill:#BBBDBF;}
	.st3{fill:#B3B5B7;}
	.st4{fill:#FEFEFE;}
	.st5{fill:none;stroke:#DFE0DF;stroke-width:0.75;stroke-linecap:round;stroke-linejoin:round;}
	.st6{fill:#010202;}
</style>
<title>icon-switch-52port-L3</title>
<desc>Created with Sketch.</desc>
<polygon id="Stroke-1" class="st0" points="1.5,27.426 50.34,1.5 128.721,48.598 79.881,74.522 "/>
<polygon id="Stroke-3" class="st0" points="79.881,74.521 79.889,86.486 1.508,39.39 1.5,27.425 "/>
<polygon id="Stroke-5" class="st0" points="79.881,74.521 128.721,48.597 128.729,60.562 79.889,86.486 "/>
<polygon id="Fill-8" class="st1" points="79.881,74.524 128.721,48.599 128.729,60.565 79.889,86.489 "/>
<polygon id="Fill-9" class="st2" points="1.5,27.427 50.34,1.502 128.721,48.599 79.881,74.524 "/>
<polygon id="Fill-10" class="st3" points="79.881,74.524 79.889,86.489 1.508,39.393 1.5,27.427 "/>
<polygon id="Fill-11" class="st4" points="31.507,50.685 18.038,42.592 18.038,39.418 31.507,47.511 "/>
<polygon id="Fill-12" class="st4" points="31.458,55.482 17.991,47.39 17.991,44.216 31.458,52.308 "/>
<polygon id="Fill-13" class="st4" points="69.677,73.208 59.335,66.994 59.335,65.957 69.677,72.172 "/>
<polygon id="Fill-14" class="st4" points="16.682,41.716 3.215,33.624 3.215,30.448 16.682,38.54 "/>
<polygon id="Fill-15" class="st4" points="16.635,46.515 3.168,38.423 3.168,35.249 16.635,43.341 "/>
<polygon id="Fill-16" class="st4" points="55.649,65.146 48.159,60.646 48.159,57.481 55.649,61.981 "/>
<polygon id="Fill-17" class="st4" points="55.649,70.021 48.159,65.521 48.159,62.356 55.649,66.856 "/>
<polygon id="Fill-18" class="st4" points="46.682,59.716 33.215,51.624 33.215,48.448 46.682,56.54 "/>
<polygon id="Fill-19" class="st4" points="46.635,64.515 33.168,56.423 33.168,53.249 46.635,61.341 "/>
<polyline id="Stroke-20" class="st5" points="1.893,27.33 79.881,74.189 79.881,86.184 "/>
<polygon id="Fill-21" class="st4" points="77.867,78.823 72.619,75.672 72.619,72.252 77.867,75.398 "/>
<polygon id="Fill-22" class="st4" points="61.342,73.217 57.525,70.925 57.525,68.505 61.342,70.793 "/>
<polygon id="Fill-23" class="st4" points="67.122,76.676 63.305,74.384 63.305,71.964 67.122,74.252 "/>
<polygon id="Fill-24" class="st6" points="31.226,24.313 48.478,15.601 50.037,16.532 34.82,24.216 40.622,27.683 38.585,28.71 "/>
<path id="Fill-25" class="st6" d="M51.976,29.796c-0.839-0.155-1.894-0.491-3.162-1.007c-0.721-0.293-1.282-0.472-1.686-0.54
	c-0.404-0.068-0.822-0.065-1.258,0.007c-0.437,0.072-0.839,0.201-1.207,0.388c-0.566,0.285-0.89,0.61-0.974,0.974
	c-0.085,0.365,0.152,0.715,0.715,1.051c0.557,0.333,1.232,0.539,2.022,0.618c0.791,0.079,1.598,0.023,2.422-0.169
	c0.634-0.148,1.418-0.458,2.352-0.929L51.976,29.796z M47.366,32.257c-1.202,0.017-2.189-0.054-2.959-0.211
	c-0.77-0.157-1.44-0.406-2.007-0.745c-0.938-0.561-1.321-1.16-1.154-1.799c0.166-0.641,0.771-1.224,1.814-1.751
	c0.612-0.309,1.268-0.534,1.963-0.676c0.696-0.141,1.351-0.198,1.966-0.169c0.613,0.031,1.191,0.12,1.734,0.272
	c0.394,0.114,0.929,0.316,1.603,0.607c1.372,0.595,2.475,0.987,3.31,1.173c0.295-0.143,0.481-0.235,0.56-0.274
	c0.863-0.437,1.335-0.825,1.415-1.166c0.109-0.463-0.2-0.911-0.929-1.347c-0.681-0.407-1.358-0.618-2.03-0.636
	c-0.674-0.017-1.531,0.151-2.573,0.506l-1.132-0.987c1.015-0.37,1.943-0.606,2.782-0.705c0.841-0.1,1.685-0.057,2.536,0.127
	c0.853,0.184,1.645,0.496,2.379,0.934c0.728,0.436,1.194,0.852,1.398,1.251c0.205,0.4,0.224,0.759,0.058,1.079
	c-0.166,0.32-0.497,0.653-0.991,0.996c-0.314,0.211-0.941,0.555-1.882,1.031l-2.824,1.425c-1.97,0.996-3.185,1.643-3.645,1.943
	c-0.46,0.3-0.839,0.625-1.136,0.975l-1.509-0.902C46.403,32.898,46.82,32.58,47.366,32.257z"/>
<path id="Fill-27" class="st6" d="M44.53,37.568l1.827-1.101c0.192,0.253,0.404,0.45,0.641,0.59c0.32,0.193,0.657,0.307,1.006,0.343
	c0.35,0.035,0.727,0.019,1.132-0.05c0.304-0.053,0.977-0.23,2.019-0.533c0.146-0.043,0.36-0.104,0.647-0.185l9.284-8.257
	l1.558,0.931l-5.462,4.716c-0.687,0.601-1.446,1.212-2.276,1.832c1.14-0.391,2.286-0.753,3.443-1.083l9.108-2.59l1.446,0.866
	l-15.956,4.478c-1.721,0.485-2.937,0.801-3.647,0.947c-0.956,0.2-1.762,0.282-2.419,0.247c-0.659-0.034-1.217-0.188-1.678-0.463
	C44.925,38.089,44.7,37.86,44.53,37.568"/>
<path id="Fill-29" class="st6" d="M66.175,36.983l4.766,2.847c0.986-0.57,1.593-1.076,1.819-1.522
	c0.354-0.686,0.166-1.249-0.568-1.687c-0.664-0.398-1.548-0.567-2.653-0.509C68.436,36.171,67.315,36.462,66.175,36.983
	 M67.499,41.549l1.225,1.031c-1.515,0.505-2.944,0.745-4.287,0.72c-1.344-0.024-2.512-0.333-3.502-0.924
	c-1.248-0.746-1.674-1.622-1.28-2.626c0.394-1.006,1.608-2.022,3.64-3.048c2.103-1.062,4.105-1.665,6.004-1.81
	c1.9-0.144,3.44,0.135,4.618,0.84c1.141,0.681,1.504,1.525,1.09,2.531c-0.415,1.007-1.653,2.032-3.717,3.074
	c-0.125,0.063-0.317,0.156-0.573,0.28l-6.363-3.803c-1.32,0.726-2.105,1.416-2.359,2.068c-0.253,0.654-0.022,1.193,0.69,1.619
	c0.53,0.317,1.185,0.484,1.969,0.503C65.438,42.021,66.386,41.87,67.499,41.549"/>
<path id="Fill-31" class="st6" d="M66.769,45.551l12.498-6.312l1.301,0.778l-1.895,0.957c1.219-0.249,2.11-0.361,2.674-0.335
	c0.564,0.025,1.014,0.139,1.352,0.34c0.488,0.291,0.756,0.702,0.804,1.232l-2.464,0.695c-0.047-0.365-0.248-0.654-0.602-0.866
	c-0.315-0.188-0.738-0.287-1.27-0.298c-0.529-0.009-1.095,0.08-1.697,0.264c-0.913,0.285-1.816,0.653-2.711,1.105l-6.543,3.304
	L66.769,45.551z"/>
<path id="Fill-33" class="st6" d="M80.996,49.03l1.728,0.722c-1.035,0.705-1.617,1.31-1.748,1.816
	c-0.129,0.506,0.092,0.931,0.666,1.273c0.679,0.406,1.599,0.576,2.758,0.507c1.159-0.069,2.248-0.361,3.268-0.876
	c0.973-0.491,1.559-1.025,1.757-1.604c0.197-0.577-0.039-1.067-0.707-1.467c-0.274-0.163-0.694-0.327-1.256-0.491l2.019-0.843
	c0.08,0.066,0.151,0.116,0.209,0.151c0.616,0.369,1.407,0.581,2.369,0.637c0.963,0.057,1.937-0.162,2.917-0.657
	c0.777-0.393,1.241-0.825,1.392-1.297c0.15-0.472-0.059-0.877-0.625-1.217c-0.562-0.336-1.291-0.485-2.184-0.448
	c-0.892,0.038-1.91,0.286-3.052,0.745l-1.07-1.054c1.597-0.611,3.099-0.927,4.506-0.947c1.407-0.019,2.577,0.249,3.509,0.805
	c0.643,0.385,1.032,0.841,1.169,1.367c0.138,0.528,0,1.054-0.412,1.577c-0.411,0.525-1.009,0.985-1.793,1.38
	c-0.745,0.377-1.562,0.638-2.446,0.783c-0.886,0.147-1.777,0.151-2.672,0.013c0.459,0.534,0.513,1.104,0.157,1.71
	c-0.355,0.604-1.091,1.188-2.205,1.751c-1.506,0.761-3.158,1.181-4.955,1.262c-1.797,0.081-3.269-0.221-4.416-0.907
	c-1.033-0.617-1.441-1.358-1.221-2.221C78.878,50.636,79.656,49.813,80.996,49.03"/>
</svg>
