<?xml version="1.0" encoding="utf-8"?>
<svg version="1.1" id="Layer_1" xmlns="http://www.w3.org/2000/svg" xmlns:xlink="http://www.w3.org/1999/xlink" x="0px" y="0px"
	 viewBox="0 0 130.229 87.986" style="enable-background:new 0 0 130.229 87.986;" xml:space="preserve">
<style type="text/css">
	.st0{fill:none;stroke:#626366;stroke-width:3;stroke-linecap:round;stroke-linejoin:round;}
	.st1{fill:#898B8E;}
	.st2{fill:#231F20;}
	.st3{fill:#B3B5B7;}
	.st4{fill:none;stroke:#DFE0DF;stroke-width:0.75;stroke-linecap:round;stroke-linejoin:round;}
	.st5{fill:#FEFEFE;}
</style>
<title>icon-switch-48port-poeL2</title>
<desc>Created with Sketch.</desc>
<g>
	<polygon id="Stroke-1" class="st0" points="1.5,27.426 50.34,1.5 128.721,48.597 79.881,74.521 	"/>
	<polygon id="Stroke-3" class="st0" points="79.881,74.521 79.889,86.486 1.508,39.39 1.5,27.427 	"/>
	<polygon id="Stroke-5" class="st0" points="79.881,74.521 128.721,48.597 128.729,60.562 79.889,86.486 	"/>
	<polygon id="Fill-8" class="st1" points="79.881,74.523 128.721,48.597 128.729,60.564 79.889,86.488 	"/>
	<polygon id="Fill-9" class="st2" points="1.5,27.426 50.34,1.502 128.721,48.597 79.881,74.523 	"/>
	<polygon id="Fill-10" class="st3" points="79.881,74.523 79.889,86.488 1.508,39.392 1.5,27.426 	"/>
	<polyline id="Stroke-11" class="st4" points="1.893,27.33 79.881,74.189 79.881,86.181 	"/>
	<polygon id="Fill-12" class="st5" points="52.918,63.634 37.596,54.427 37.596,51.253 52.918,60.46 	"/>
	<polygon id="Fill-13" class="st5" points="52.861,68.427 37.543,59.224 37.543,56.049 52.861,65.254 	"/>
	<polygon id="Fill-14" class="st5" points="70.156,73.992 54.834,64.785 54.834,61.611 70.156,70.818 	"/>
	<polygon id="Fill-15" class="st5" points="70.1,78.785 54.782,69.582 54.782,66.406 70.1,75.611 	"/>
	<polygon id="Fill-16" class="st5" points="18.444,42.91 3.122,33.703 3.122,30.53 18.444,39.734 	"/>
	<polygon id="Fill-17" class="st5" points="18.387,47.701 3.069,38.498 3.069,35.322 18.387,44.527 	"/>
	<polygon id="Fill-18" class="st5" points="35.682,53.265 20.36,44.06 20.36,40.886 35.682,50.091 	"/>
	<polygon id="Fill-19" class="st5" points="35.625,58.058 20.305,48.853 20.305,45.679 35.625,54.884 	"/>
	<polygon id="Fill-20" class="st5" points="74.387,76.752 72.375,75.543 72.375,72.912 74.387,74.123 	"/>
	<polygon id="Fill-21" class="st5" points="74.379,80.746 72.365,79.537 72.365,76.908 74.379,78.117 	"/>
	<polygon id="Fill-22" class="st5" points="77.445,82.621 75.431,81.41 75.431,78.783 77.445,79.992 	"/>
	<polygon id="Fill-23" class="st5" points="20.192,26.952 38.055,27.099 32.645,18.996 44.783,20.042 41.028,14.426 62.539,16.278 
		47.269,18.467 51.981,25.524 41.809,24.646 47.188,32.698 21.239,27.139 	"/>
	<polygon id="Fill-24" class="st5" points="38.953,40.894 50.557,35.034 51.603,35.661 41.37,40.829 45.272,43.161 43.903,43.852 	
		"/>
	<path id="Fill-25" class="st5" d="M51.331,43.038l2.686,1.605l2.387-2.116c0.724-0.644,1.337-1.161,1.844-1.552
		c-0.846,0.315-1.727,0.604-2.644,0.864L51.331,43.038z M44.281,44.079l14.645-4.042l1.129,0.674l-8.36,7.798l-1.194-0.714
		l2.59-2.327l-3.314-1.979l-4.383,1.255L44.281,44.079z"/>
	<path id="Fill-27" class="st5" d="M53.943,49.851l4.915-2.482l3.635-5.202l1.275,0.762l-1.936,2.699
		c-0.367,0.503-0.752,0.994-1.159,1.473c0.845-0.165,1.817-0.337,2.916-0.519l4.945-0.806l1.221,0.73l-9.849,1.489l-4.915,2.482
		L53.943,49.851z"/>
	<polygon id="Fill-29" class="st5" points="59.114,52.941 70.718,47.081 76.445,50.504 75.076,51.195 70.396,48.399 66.843,50.194 
		71.225,52.813 69.864,53.501 65.481,50.882 61.531,52.877 66.395,55.782 65.025,56.474 	"/>
	<path id="Fill-31" class="st5" d="M74.02,54.701l2.254,1.347c0.479,0.286,0.927,0.473,1.342,0.561
		c0.414,0.088,0.852,0.094,1.312,0.016c0.459-0.076,0.876-0.21,1.25-0.399c0.549-0.277,0.865-0.587,0.947-0.927
		c0.081-0.342-0.17-0.687-0.758-1.039l-2.508-1.498L74.02,54.701z M66.49,57.348l11.602-5.859l3.514,2.098
		c0.705,0.422,1.138,0.795,1.297,1.121c0.159,0.324,0.085,0.685-0.223,1.083c-0.308,0.398-0.781,0.759-1.42,1.081
		c-0.822,0.415-1.698,0.658-2.627,0.725c-0.928,0.067-1.85-0.087-2.762-0.464c0.082,0.264,0.1,0.487,0.054,0.67
		c-0.106,0.39-0.33,0.824-0.675,1.299l-1.779,2.418l-1.318-0.788l1.365-1.845c0.391-0.535,0.672-0.955,0.843-1.26
		c0.171-0.304,0.252-0.542,0.243-0.71c-0.01-0.168-0.065-0.315-0.17-0.441c-0.081-0.09-0.258-0.215-0.527-0.377l-1.217-0.727
		l-5.152,2.602L66.49,57.348z"/>
	<path id="Fill-33" class="st5" d="M83.627,66.079l-1.369,0.691l-5.235-3.128c0.334-0.178,0.702-0.322,1.102-0.432
		c0.655-0.185,1.383-0.317,2.183-0.397c0.8-0.081,1.81-0.123,3.03-0.127c1.894-0.007,3.297-0.074,4.203-0.198
		c0.907-0.124,1.629-0.323,2.167-0.595c0.565-0.285,0.903-0.607,1.016-0.968c0.112-0.36-0.053-0.673-0.496-0.938
		c-0.468-0.279-1.049-0.399-1.742-0.36c-0.693,0.04-1.405,0.243-2.136,0.608l-0.849-0.673c1.159-0.511,2.251-0.777,3.27-0.799
		c1.018-0.022,1.905,0.191,2.657,0.642c0.761,0.454,1.053,0.97,0.88,1.546c-0.174,0.576-0.719,1.095-1.632,1.556
		c-0.464,0.235-0.985,0.426-1.564,0.575c-0.578,0.149-1.266,0.259-2.061,0.33c-0.797,0.071-1.979,0.116-3.543,0.136
		c-1.301,0.013-2.162,0.035-2.584,0.065c-0.422,0.03-0.817,0.078-1.182,0.144L83.627,66.079z"/>
</g>
</svg>
