<?xml version="1.0" encoding="utf-8"?>
<svg version="1.1" id="Layer_1" xmlns="http://www.w3.org/2000/svg" xmlns:xlink="http://www.w3.org/1999/xlink" x="0px" y="0px"
	 viewBox="0 0 130.229 87.986" style="enable-background:new 0 0 130.229 87.986;" xml:space="preserve">
<style type="text/css">
	.st0{fill:none;stroke:#626366;stroke-width:3;stroke-linecap:round;stroke-linejoin:round;}
	.st1{fill:#898B8E;}
	.st2{fill:#BBBDBF;}
	.st3{fill:#B3B5B7;}
	.st4{fill:none;stroke:#DFE0DF;stroke-width:0.75;stroke-linecap:round;stroke-linejoin:round;}
	.st5{fill:#FEFEFE;}
	.st6{fill:#010202;}
</style>
<title>icon-switch-48port-L3</title>
<desc>Created with Sketch.</desc>
<g>
	<polygon id="Stroke-1" class="st0" points="1.5,27.425 50.34,1.5 128.721,48.597 79.881,74.522 	"/>
	<polygon id="Stroke-3" class="st0" points="79.881,74.521 79.889,86.486 1.508,39.39 1.5,27.424 	"/>
	<polygon id="Stroke-5" class="st0" points="79.881,74.521 128.721,48.596 128.729,60.561 79.889,86.486 	"/>
	<polygon id="Fill-8" class="st1" points="79.881,74.523 128.721,48.599 128.729,60.564 79.889,86.488 	"/>
	<polygon id="Fill-9" class="st2" points="1.5,27.427 50.34,1.501 128.721,48.599 79.881,74.523 	"/>
	<polygon id="Fill-10" class="st3" points="79.881,74.523 79.889,86.488 1.508,39.392 1.5,27.427 	"/>
	<polyline id="Stroke-11" class="st4" points="1.893,27.329 79.881,74.189 79.881,86.183 	"/>
	<polygon id="Fill-12" class="st5" points="71.541,74.896 52.48,63.444 52.48,60.27 71.541,71.722 	"/>
	<polygon id="Fill-13" class="st5" points="71.471,79.681 52.414,68.232 52.414,65.057 71.471,76.507 	"/>
	<polygon id="Fill-14" class="st5" points="28.858,49.239 9.799,37.788 9.799,34.612 28.858,46.064 	"/>
	<polygon id="Fill-15" class="st5" points="28.787,54.024 9.732,42.575 9.732,39.4 28.787,50.849 	"/>
	<polygon id="Fill-16" class="st5" points="50.227,62.077 31.168,50.626 31.168,47.452 50.227,58.903 	"/>
	<polygon id="Fill-17" class="st5" points="50.156,66.862 31.099,55.411 31.099,52.237 50.156,63.687 	"/>
	<polygon id="Fill-18" class="st6" points="29.845,24.176 47.097,15.464 48.656,16.395 33.439,24.079 39.241,27.546 37.204,28.573 	
		"/>
	<path id="Fill-19" class="st6" d="M50.595,29.659c-0.839-0.155-1.894-0.491-3.162-1.007c-0.721-0.293-1.282-0.472-1.686-0.54
		c-0.404-0.068-0.822-0.065-1.258,0.007c-0.437,0.072-0.839,0.201-1.207,0.388c-0.566,0.285-0.89,0.61-0.974,0.974
		c-0.085,0.365,0.152,0.715,0.715,1.051c0.557,0.333,1.232,0.539,2.022,0.618c0.791,0.079,1.598,0.023,2.422-0.169
		c0.634-0.148,1.418-0.458,2.352-0.929L50.595,29.659z M45.985,32.12c-1.202,0.017-2.189-0.054-2.959-0.211s-1.44-0.406-2.007-0.745
		c-0.938-0.561-1.321-1.16-1.154-1.799c0.166-0.641,0.771-1.224,1.814-1.751c0.612-0.309,1.268-0.534,1.963-0.676
		c0.696-0.141,1.351-0.198,1.966-0.169c0.613,0.031,1.191,0.12,1.734,0.272c0.394,0.114,0.929,0.316,1.603,0.607
		c1.372,0.595,2.475,0.987,3.31,1.173c0.295-0.143,0.481-0.235,0.56-0.274c0.863-0.437,1.335-0.825,1.415-1.166
		c0.109-0.463-0.2-0.911-0.929-1.347c-0.681-0.407-1.358-0.618-2.03-0.636c-0.674-0.017-1.531,0.151-2.573,0.506l-1.132-0.987
		c1.015-0.37,1.943-0.606,2.782-0.705c0.841-0.1,1.685-0.057,2.536,0.127c0.853,0.184,1.645,0.496,2.379,0.934
		c0.728,0.436,1.194,0.852,1.398,1.251c0.205,0.4,0.224,0.759,0.058,1.079c-0.166,0.32-0.497,0.653-0.991,0.996
		c-0.314,0.211-0.941,0.555-1.882,1.031l-2.824,1.425c-1.97,0.996-3.185,1.643-3.645,1.943c-0.46,0.3-0.839,0.625-1.136,0.975
		l-1.509-0.902C45.022,32.761,45.439,32.443,45.985,32.12z"/>
	<path id="Fill-21" class="st6" d="M43.149,37.432l1.827-1.101c0.192,0.253,0.404,0.45,0.641,0.59
		c0.32,0.193,0.657,0.307,1.006,0.343c0.35,0.035,0.727,0.019,1.132-0.05c0.304-0.053,0.977-0.23,2.019-0.533
		c0.146-0.043,0.36-0.104,0.647-0.185l9.284-8.257l1.558,0.931l-5.462,4.716c-0.687,0.601-1.446,1.212-2.276,1.832
		c1.14-0.391,2.286-0.753,3.443-1.083l9.108-2.59l1.446,0.866l-15.956,4.478c-1.721,0.485-2.936,0.801-3.647,0.947
		c-0.956,0.2-1.762,0.282-2.419,0.247c-0.659-0.034-1.217-0.188-1.678-0.463C43.545,37.953,43.319,37.724,43.149,37.432"/>
	<path id="Fill-23" class="st6" d="M64.794,36.847l4.766,2.847c0.986-0.57,1.593-1.076,1.819-1.522
		c0.354-0.686,0.166-1.249-0.568-1.687c-0.664-0.398-1.548-0.567-2.653-0.509C67.055,36.035,65.934,36.326,64.794,36.847
		 M66.118,41.413l1.225,1.031c-1.515,0.505-2.944,0.745-4.287,0.72c-1.344-0.024-2.512-0.333-3.502-0.924
		c-1.248-0.746-1.674-1.622-1.28-2.626c0.394-1.006,1.608-2.022,3.64-3.048c2.103-1.062,4.105-1.665,6.004-1.81
		c1.9-0.144,3.44,0.135,4.618,0.84c1.141,0.681,1.504,1.525,1.09,2.531c-0.415,1.007-1.653,2.032-3.717,3.074
		c-0.125,0.063-0.317,0.156-0.573,0.28l-6.363-3.803c-1.32,0.726-2.105,1.416-2.359,2.068c-0.253,0.654-0.022,1.193,0.69,1.619
		c0.53,0.317,1.185,0.484,1.969,0.503C64.057,41.885,65.005,41.734,66.118,41.413"/>
	<path id="Fill-25" class="st6" d="M65.388,45.414l12.498-6.312l1.301,0.778l-1.895,0.957c1.219-0.249,2.11-0.361,2.674-0.335
		c0.564,0.025,1.014,0.139,1.352,0.34c0.488,0.291,0.756,0.702,0.804,1.232l-2.464,0.695c-0.047-0.365-0.248-0.654-0.602-0.866
		c-0.315-0.188-0.738-0.287-1.27-0.298c-0.529-0.009-1.095,0.08-1.697,0.264c-0.913,0.285-1.816,0.653-2.711,1.105l-6.543,3.304
		L65.388,45.414z"/>
	<path id="Fill-27" class="st6" d="M79.615,48.894l1.728,0.722c-1.035,0.705-1.617,1.31-1.748,1.816
		c-0.129,0.506,0.092,0.931,0.666,1.273c0.679,0.406,1.599,0.576,2.758,0.507c1.159-0.069,2.248-0.361,3.268-0.876
		c0.973-0.491,1.559-1.025,1.757-1.604c0.197-0.577-0.039-1.067-0.707-1.467c-0.274-0.163-0.694-0.327-1.256-0.491l2.019-0.843
		c0.08,0.066,0.151,0.116,0.209,0.151c0.616,0.369,1.407,0.581,2.369,0.637c0.963,0.057,1.937-0.162,2.917-0.657
		c0.777-0.393,1.241-0.825,1.392-1.297c0.15-0.472-0.059-0.877-0.625-1.217c-0.562-0.336-1.291-0.485-2.184-0.448
		c-0.892,0.038-1.91,0.286-3.052,0.745l-1.07-1.054c1.597-0.611,3.099-0.927,4.506-0.947c1.407-0.019,2.577,0.249,3.509,0.805
		c0.643,0.385,1.032,0.841,1.169,1.367c0.138,0.528,0,1.054-0.412,1.577c-0.411,0.525-1.009,0.985-1.793,1.38
		c-0.745,0.377-1.562,0.638-2.446,0.783c-0.886,0.147-1.777,0.151-2.672,0.013c0.459,0.534,0.513,1.104,0.157,1.71
		c-0.355,0.604-1.091,1.188-2.205,1.751c-1.506,0.761-3.158,1.181-4.955,1.262c-1.797,0.081-3.269-0.221-4.416-0.907
		c-1.033-0.617-1.441-1.358-1.221-2.221C77.497,50.5,78.275,49.677,79.615,48.894"/>
</g>
</svg>
