<?xml version="1.0" encoding="utf-8"?>
<svg version="1.1" id="Layer_1" xmlns="http://www.w3.org/2000/svg" xmlns:xlink="http://www.w3.org/1999/xlink" x="0px" y="0px"
	 viewBox="0 0 149.215 107.9" style="enable-background:new 0 0 149.215 107.9;" xml:space="preserve">
<style type="text/css">
	.st0{fill:none;stroke:#58585B;stroke-width:1.226;stroke-linejoin:round;}
	.st1{fill:#231F20;}
	.st2{fill:#626366;}
	.st3{fill:#404042;}
	.st4{fill:none;stroke:#DFDFDE;stroke-width:0.285;stroke-linecap:round;}
	.st5{fill:#E5E6E7;}
	.st6{fill:#6C6E70;}
	.st7{fill:#58585B;}
	.st8{fill:#FEFEFE;}
</style>
<title>icon-etherGRID</title>
<desc>Created with Sketch.</desc>
<g id="Page-1">
	<g id="Desktop" transform="translate(-932.000000, -870.000000)">
		<g id="icon-etherGRID" transform="translate(932.000000, 869.000000)">
			<g id="Group-7" transform="translate(0.000000, 0.901000)">
				<polygon id="Stroke-1" class="st0" points="96.738,85.99 148.589,58.469 148.602,79.865 96.753,107.386 				"/>
				<polygon id="Stroke-3" class="st0" points="0.613,28.233 52.463,0.712 148.589,58.468 96.738,85.99 				"/>
				<polygon id="Stroke-5" class="st0" points="96.738,85.99 96.753,107.386 0.629,49.63 0.613,28.233 				"/>
			</g>
			<polygon id="Fill-8" class="st1" points="97.021,86.891 97.035,108.287 148.885,80.767 148.87,59.369 			"/>
			<polygon id="Fill-9" class="st2" points="0.896,29.134 97.021,86.891 148.87,59.37 52.746,1.613 			"/>
			<polygon id="Fill-10" class="st3" points="0.91,50.531 97.035,108.287 97.021,86.891 0.896,29.134 			"/>
			<path id="Stroke-11" class="st4" d="M0.756,28.907l96.124,58.236"/>
			<path id="Stroke-12" class="st4" d="M96.881,87.25v20.173"/>
			<polygon id="Fill-13" class="st5" points="46.221,67.402 38.794,62.953 38.794,57.118 46.221,61.568 			"/>
			<polygon id="Fill-14" class="st5" points="21.974,52.701 14.695,48.339 14.695,42.505 21.974,46.867 			"/>
			<g id="Group-65" transform="translate(3.000000, 14.901000)">
				<path id="Fill-15" class="st5" d="M71.769,71.064c0,0.161-0.113,0.226-0.253,0.143l-5.524-3.311
					c-0.139-0.083-0.252-0.283-0.252-0.445v-6.88c0-0.162,0.113-0.226,0.252-0.143l5.524,3.311c0.14,0.083,0.253,0.283,0.253,0.445
					V71.064z"/>
				<path id="Fill-17" class="st5" d="M80.666,76.395c0,0.162-0.113,0.226-0.252,0.143l-5.525-3.311
					c-0.139-0.083-0.252-0.283-0.252-0.445v-6.88c0-0.161,0.113-0.226,0.252-0.143l5.525,3.311c0.139,0.083,0.252,0.283,0.252,0.445
					V76.395z"/>
				<path id="Fill-19" class="st5" d="M89.784,75.937c0,1.456-1.116,1.968-2.491,1.144c-1.376-0.826-2.492-2.674-2.492-4.129
					c0-1.456,1.116-1.968,2.492-1.144C88.668,72.633,89.784,74.482,89.784,75.937"/>
				<path id="Fill-21" class="st6" d="M88.964,75.446c0,0.978-0.748,1.32-1.671,0.768c-0.924-0.554-1.672-1.794-1.672-2.771
					s0.748-1.32,1.672-0.768C88.216,73.229,88.964,74.469,88.964,75.446"/>
				<path id="Fill-23" class="st5" d="M7.017,25.641c0,1.456-1.115,1.968-2.491,1.144c-1.376-0.826-2.491-2.674-2.491-4.129
					c0-1.456,1.115-1.968,2.491-1.144C5.902,22.337,7.017,24.186,7.017,25.641"/>
				<path id="Fill-25" class="st5" d="M7.017,25.641c0,1.456-1.115,1.968-2.491,1.144c-1.376-0.826-2.491-2.674-2.491-4.129
					c0-1.456,1.115-1.968,2.491-1.144C5.902,22.337,7.017,24.186,7.017,25.641"/>
				<path id="Fill-27" class="st5" d="M7.017,25.641c0,1.456-1.115,1.968-2.491,1.144c-1.376-0.826-2.491-2.674-2.491-4.129
					c0-1.456,1.115-1.968,2.491-1.144C5.902,22.337,7.017,24.186,7.017,25.641"/>
				<path id="Fill-29" class="st7" d="M6.198,25.15c0,0.978-0.749,1.32-1.672,0.768c-0.924-0.554-1.672-1.794-1.672-2.771
					c0-0.977,0.748-1.32,1.672-0.768C5.449,22.933,6.198,24.173,6.198,25.15"/>
				<path id="Fill-31" class="st5" d="M2.94,35.277c0,0.728-0.558,0.983-1.245,0.571c-0.689-0.412-1.246-1.337-1.246-2.064
					c0-0.728,0.557-0.984,1.246-0.571C2.382,33.625,2.94,34.548,2.94,35.277"/>
				<path id="Fill-33" class="st5" d="M34.181,54.599c0,0.728-0.558,0.983-1.245,0.571c-0.689-0.412-1.246-1.337-1.246-2.064
					c0-0.728,0.557-0.984,1.246-0.571C33.623,52.947,34.181,53.87,34.181,54.599"/>
				<path id="Fill-35" class="st5" d="M53.206,66.205c0,0.728-0.558,0.983-1.245,0.571c-0.689-0.412-1.246-1.336-1.246-2.064
					c0-0.728,0.557-0.984,1.246-0.571C52.648,64.553,53.206,65.477,53.206,66.205"/>
				<path id="Fill-37" class="st5" d="M90.417,88.006c0,0.728-0.558,0.983-1.246,0.571c-0.688-0.412-1.245-1.337-1.245-2.064
					c0-0.729,0.557-0.984,1.245-0.571C89.859,86.354,90.417,87.277,90.417,88.006"/>
				<polygon id="Fill-39" class="st8" points="51.331,54.47 49.336,53.273 49.336,50.947 51.331,52.145 				"/>
				<polygon id="Fill-41" class="st8" points="51.284,57.977 49.292,56.781 49.292,54.456 51.284,55.651 				"/>
				<polygon id="Fill-43" class="st8" points="47.571,52.213 45.575,51.014 45.575,48.69 47.571,49.887 				"/>
				<polygon id="Fill-45" class="st8" points="47.525,55.717 45.534,54.521 45.534,52.197 47.525,53.391 				"/>
				<polygon id="Fill-47" class="st8" points="48.853,4.718 43.448,1.455 38.555,4.168 43.826,7.349 43.038,7.786 37.767,4.606 
					32.802,7.358 38.343,10.701 37.554,11.139 31.116,7.253 43.339,0.477 49.642,4.281 				"/>
				<path id="Fill-49" class="st8" d="M48.447,8.395l2.134,1.288l-0.699,0.388l-2.134-1.288l-4.785,2.652
					c-1.38,0.766-1.866,1.054-0.747,1.729c0.458,0.276,0.783,0.389,1.782,0.62l-0.824,0.457c-0.243-0.042-0.585-0.147-0.962-0.271
					c-0.361-0.134-0.754-0.288-1.026-0.452c-0.847-0.512-1.26-1.342-0.041-2.018l5.789-3.209l-2.05-1.237l0.699-0.388l2.051,1.238
					l1.917-1.064l1.311-0.079l0.255,0.154L48.447,8.395z"/>
				<path id="Fill-51" class="st8" d="M51.186,11.667l0.035,0.021c1.841-0.197,2.966-0.015,4.067,0.649
					c1.627,0.982,1.7,2.334-0.452,3.526l-4.928,2.733l-0.813-0.491l4.589-2.543c1.738-0.964,2.167-1.91,0.71-2.789
					c-1.118-0.674-2.369-0.766-4.211-0.549l-5.646,3.13l-0.814-0.492l12.224-6.776l0.813,0.491L51.186,11.667z"/>
				<path id="Fill-53" class="st8" d="M62.119,20.155c1.289-1.048,1.246-1.967-0.059-2.754c-1.253-0.757-3.114-0.863-4.872-0.222
					L62.119,20.155z M56.388,17.506c-2.299,0.999-2.333,2.804-0.605,3.847c1.017,0.614,2.205,0.916,4.029,1.042l-0.967,0.536
					c-1.633-0.134-2.906-0.508-4.007-1.172c-2.202-1.33-2.002-3.285,0.488-4.666c2.366-1.312,5.562-1.375,7.577-0.159
					c1.627,0.982,2.171,2.7-0.517,4.192L56.388,17.506z"/>
				<path id="Fill-55" class="st8" d="M70.596,23.612c-0.03-0.827-0.188-1.172-0.611-1.428c-0.746-0.45-2.435-0.514-4.752-0.191
					l-5.055,2.803l-0.812-0.492l8.047-4.461l0.813,0.491l-2.115,1.173l0.034,0.02c2.404-0.293,4.089-0.168,4.936,0.344
					c0.526,0.317,0.748,0.742,0.795,1.58L70.596,23.612z"/>
				<path id="Fill-57" class="st8" d="M85.199,29.811c-0.721-1.307-1.768-2.375-3.191-3.234c-3.135-1.892-6.279-1.424-8.089-0.42
					c-2.169,1.202-1.993,2.967,0.396,4.41c0.711,0.43,1.139,0.604,2.345,0.918l1.434-0.795l-1.678-1.013l2.24-1.242l4.558,2.751
					l-5,2.772c-1.815,0.005-4.648-0.896-6.512-2.021c-4.033-2.434-4.298-5.604-0.642-7.63c3.729-2.066,9.138-1.769,13.256,0.716
					c1.728,1.043,2.993,2.284,3.553,3.308L85.199,29.811z"/>
				<path id="Fill-59" class="st8" d="M89.096,33.906l1.524,0.921c0.797,0.48,1.935,0.753,2.975,0.177
					c0.914-0.507,0.82-1.104-0.264-1.758l-1.457-0.88L89.096,33.906z M96.402,32.506c2.372,1.431,2.093,3.214,0.265,4.227
					c-1.344,0.745-3.008,0.903-4.975,0.463c0.559,1.064-0.59,2.113-2.549,5.082l-3.169-1.912c1.381-2.197,3.27-3.775,1.712-4.716
					l-0.83-0.502l-4.965,2.753l-2.881-1.738l12.224-6.777L96.402,32.506z"/>
				<polygon id="Fill-61" class="st8" points="93.209,44.732 90.329,42.994 102.553,36.217 105.433,37.956 				"/>
				<path id="Fill-63" class="st8" d="M100.716,46.67l1.881,1.136c2.896,1.748,5.841,1.118,7.634,0.124
					c2.096-1.162,2.802-2.791,0.075-4.438l-1.847-1.115L100.716,46.67z M112.92,42.476c4.219,2.546,3.61,5.395,0.258,7.253
					c-3.513,1.948-8.195,2.11-12.804-0.671l-4.778-2.884l12.224-6.776L112.92,42.476z"/>
			</g>
		</g>
	</g>
</g>
</svg>
