<?xml version="1.0" encoding="utf-8"?>
<svg version="1.1" id="Layer_1" xmlns="http://www.w3.org/2000/svg" xmlns:xlink="http://www.w3.org/1999/xlink" x="0px" y="0px"
	 viewBox="0 0 84.724 66.274" style="enable-background:new 0 0 84.724 66.274;" xml:space="preserve">
<style type="text/css">
	.st0{fill:none;stroke:#626366;stroke-width:3;stroke-linecap:round;stroke-linejoin:round;}
	.st1{fill:#A6A8AB;}
	.st2{fill:#808184;}
	.st3{fill:#90989E;}
	.st4{fill:#8C9499;}
	.st5{fill:#8E969C;}
	.st6{fill:#B3B5B7;}
	.st7{fill:#939BA0;}
	.st8{fill:#231F20;}
	.st9{fill:#B1B7BC;}
	.st10{fill:#C8CDD0;}
	.st11{fill:#939597;}
	.st12{fill:#6C6E70;}
	.st13{fill:#898B8E;}
	.st14{fill:none;stroke:#BABCBC;stroke-width:0.75;stroke-linecap:round;stroke-linejoin:round;}
	.st15{fill:none;stroke:#DFE0DF;stroke-width:0.75;stroke-linecap:round;stroke-linejoin:round;}
	.st16{fill:#FEFEFE;}
	.st17{fill:none;stroke:#636466;stroke-width:3;}
	.st18{fill:none;stroke:#636466;stroke-width:2;}
	.st19{fill:#BBBDBF;}
	.st20{fill:#D0D2D3;}
	.st21{fill:#626466;}
	.st22{fill:#E5E6E7;}
	.st23{fill:#999B9D;}
	.st24{fill:#E1E2E3;}
</style>
<title>icon-POE-camera</title>
<desc>Created with Sketch.</desc>
<g id="Page-1">
	<g id="Desktop" transform="translate(-59.000000, -214.000000)">
		<g id="icon-POE-camera" transform="translate(60.000000, 215.000000)">
			<g id="Group-10" transform="translate(60.000000, 0.274200)">
				<g id="Group-3">
					<g id="Clip-2">
					</g>
					<path id="Stroke-1" class="st0" d="M0.808,0.93c0.691-0.368,1.365-0.586,1.994-0.669"/>
				</g>
				<g id="Group-6">
					<g id="Clip-5">
					</g>
					<path id="Stroke-4" class="st0" d="M2.802,0.261c0.572-0.073,1.109-0.032,1.594,0.111l14.386,8.521"/>
				</g>
				<g id="Group-9">
					<g id="Clip-8">
					</g>
					<path id="Stroke-7" class="st0" d="M18.783,8.893L4.396,0.372C4.656,0.45,4.9,0.556,5.129,0.692l14.386,8.52
						C19.287,9.076,19.043,8.97,18.783,8.893"/>
				</g>
			</g>
			<g id="Group-21" transform="translate(7.000000, 0.274200)">
				<path id="Stroke-11" class="st0" d="M53.808,0.93c1.654-0.88,3.191-0.908,4.32-0.238l14.387,8.52
					c-1.129-0.67-2.666-0.642-4.32,0.238"/>
				<path id="Stroke-13" class="st0" d="M17.105,63.036l-14.386-8.52c-0.353-0.21-0.668-0.488-0.931-0.83l14.385,8.52
					C16.439,62.548,16.753,62.825,17.105,63.036"/>
				<path id="Stroke-15" class="st0" d="M16.174,62.206l-14.386-8.52c-0.277-0.358-0.5-0.787-0.658-1.281l14.386,8.52
					C15.676,61.419,15.899,61.848,16.174,62.206"/>
				<path id="Stroke-17" class="st0" d="M1.13,52.405c-0.137-0.422-0.225-0.891-0.26-1.404"/>
				<path id="Stroke-19" class="st0" d="M0.87,51.001c0-0.021-0.002-0.044-0.002-0.066"/>
			</g>
			<path id="Stroke-22" class="st0" d="M7.868,51.209L7.022,36.424"/>
			<path id="Stroke-23" class="st0" d="M12.456,26.914L60.809,1.205"/>
			<g id="Group-43" transform="translate(7.000000, 26.274200)">
				<g id="Group-27">
					<g id="Clip-26">
					</g>
					<path id="Stroke-25" class="st0" d="M0.022,10.15c-0.021-0.41-0.01-0.83,0.033-1.252"/>
				</g>
				<g id="Group-30">
					<g id="Clip-29">
					</g>
					<path id="Stroke-28" class="st0" d="M0.055,8.898c0.033-0.324,0.086-0.651,0.156-0.979"/>
				</g>
				<g id="Group-33">
					<g id="Clip-32">
					</g>
					<path id="Stroke-31" class="st0" d="M0.212,7.919c0.096-0.445,0.223-0.892,0.383-1.332"/>
				</g>
				<g id="Group-36">
					<g id="Clip-35">
					</g>
					<path id="Stroke-34" class="st0" d="M0.594,6.587C1,5.443,1.606,4.337,2.352,3.36"/>
				</g>
				<g id="Group-39">
					<g id="Clip-38">
					</g>
					<path id="Stroke-37" class="st0" d="M2.352,3.361c0.709-0.926,1.545-1.734,2.461-2.338"/>
				</g>
				<g id="Group-42">
					<g id="Clip-41">
					</g>
					<path id="Stroke-40" class="st0" d="M4.813,1.023C5.022,0.885,5.237,0.755,5.456,0.64"/>
				</g>
			</g>
			<g id="Group-48" transform="translate(7.000000, 8.274200)">
				<path id="Stroke-44" class="st0" d="M0.022,28.15c-0.201-3.551,2.23-7.807,5.434-9.51"/>
				<path id="Stroke-46" class="st0" d="M68.195,1.45c3.201-1.703,5.971-0.211,6.174,3.339l0.844,14.785
					c0.201,3.55-2.237,7.809-5.442,9.513L21.422,54.796c-3.206,1.704-5.965,0.208-6.168-3.342"/>
			</g>
			<g id="Group-58" transform="translate(60.000000, 0.274200)">
				<g id="Group-51">
					<g id="Clip-50">
					</g>
					<path id="Fill-49" class="st1" d="M15.195,9.448L0.808,0.929C1.5,0.561,2.174,0.342,2.802,0.261l14.387,8.52
						C16.56,8.862,15.886,9.081,15.195,9.448"/>
				</g>
				<g id="Group-54">
					<g id="Clip-53">
					</g>
					<path id="Fill-52" class="st2" d="M17.189,8.782L2.802,0.261c0.573-0.073,1.11-0.033,1.594,0.111l14.387,8.52
						C18.298,8.748,17.761,8.707,17.189,8.782"/>
				</g>
				<g id="Group-57">
					<g id="Clip-56">
					</g>
					<path id="Fill-55" class="st3" d="M18.783,8.892L4.396,0.371c0.26,0.078,0.504,0.184,0.733,0.32l14.386,8.52
						C19.287,9.075,19.043,8.968,18.783,8.892"/>
				</g>
			</g>
			<g id="Group-71" transform="translate(7.000000, 50.274200)">
				<g id="Group-61">
					<g id="Clip-60">
					</g>
					<path id="Fill-59" class="st4" d="M17.105,13.034L2.719,4.514c-0.353-0.21-0.668-0.487-0.931-0.829l14.385,8.519
						C16.439,12.547,16.753,12.824,17.105,13.034"/>
				</g>
				<g id="Group-64">
					<g id="Clip-63">
					</g>
					<path id="Fill-62" class="st5" d="M16.174,12.204L1.788,3.685c-0.277-0.358-0.5-0.788-0.658-1.28l14.386,8.52
						C15.676,11.419,15.899,11.847,16.174,12.204"/>
				</g>
				<g id="Group-67">
					<g id="Clip-66">
					</g>
					<path id="Fill-65" class="st6" d="M15.515,10.925L1.129,2.405C0.993,1.984,0.905,1.515,0.869,1l14.388,8.521
						C15.292,10.034,15.38,10.505,15.515,10.925"/>
				</g>
				<g id="Group-70">
					<g id="Clip-69">
					</g>
					<path id="Fill-68" class="st7" d="M15.258,9.521L0.87,1c0-0.02-0.002-0.043-0.002-0.065l14.386,8.52
						C15.256,9.476,15.258,9.5,15.258,9.521"/>
				</g>
			</g>
			<polygon id="Fill-72" class="st6" points="22.254,59.728 7.868,51.208 7.023,36.422 21.41,44.942 			"/>
			<polygon id="Fill-73" class="st8" points="26.844,35.433 12.456,26.913 60.809,1.204 75.196,9.723 			"/>
			<g id="Group-92" transform="translate(7.000000, 26.274200)">
				<g id="Group-76">
					<g id="Clip-75">
					</g>
					<path id="Fill-74" class="st6" d="M14.41,18.668l-14.388-8.52c-0.021-0.41-0.009-0.83,0.034-1.252l14.387,8.519
						C14.398,17.839,14.387,18.259,14.41,18.668"/>
				</g>
				<g id="Group-79">
					<g id="Clip-78">
					</g>
					<path id="Fill-77" class="st9" d="M14.443,17.415L0.055,8.895c0.034-0.324,0.086-0.65,0.157-0.976l14.387,8.517
						C14.529,16.765,14.474,17.091,14.443,17.415"/>
				</g>
				<g id="Group-82">
					<g id="Clip-81">
					</g>
					<path id="Fill-80" class="st1" d="M14.599,16.437L0.211,7.919c0.096-0.445,0.223-0.892,0.383-1.333l14.388,8.52
						C14.824,15.546,14.693,15.994,14.599,16.437"/>
				</g>
				<g id="Group-85">
					<g id="Clip-84">
					</g>
					<path id="Fill-83" class="st10" d="M14.982,15.106L0.594,6.586C1.001,5.443,1.606,4.335,2.352,3.36l14.388,8.52
						C15.992,12.855,15.388,13.962,14.982,15.106"/>
				</g>
				<g id="Group-88">
					<g id="Clip-87">
					</g>
					<path id="Fill-86" class="st11" d="M16.74,11.88L2.352,3.359c0.709-0.926,1.545-1.734,2.461-2.336l14.386,8.519
						C18.285,10.146,17.447,10.952,16.74,11.88"/>
				</g>
				<g id="Group-91">
					<g id="Clip-90">
					</g>
					<path id="Fill-89" class="st12" d="M19.199,9.542L4.813,1.022c0.209-0.138,0.424-0.268,0.643-0.383l14.388,8.519
						C19.625,9.273,19.41,9.403,19.199,9.542"/>
				</g>
			</g>
			<g id="Group-244" transform="translate(0.000000, 8.274200)">
				<path id="Fill-93" class="st13" d="M75.195,1.448c3.201-1.703,5.971-0.211,6.174,3.339l0.844,14.785
					c0.201,3.552-2.237,7.81-5.442,9.515L28.422,54.794c-3.206,1.705-5.965,0.209-6.168-3.34L21.41,36.668
					c-0.201-3.55,2.23-7.808,5.433-9.51L75.195,1.448z"/>
				<path id="Stroke-95" class="st14" d="M25.263,55.632c-1.51-0.248-2.623-1.422-2.934-3.305"/>
				<path id="Stroke-97" class="st14" d="M78.738,1.06c0.689,0.195,1.277,0.596,1.725,1.182"/>
				<path id="Stroke-99" class="st15" d="M22.33,52.327c-0.035-0.221-0.061-0.451-0.076-0.691L21.41,36.85
					c-0.201-3.55,2.231-7.807,5.434-9.51L75.195,1.63c1.301-0.691,2.53-0.857,3.543-0.571"/>
				<path id="Fill-101" class="st16" d="M36.476,35.153l-3.037,1.639v-2.389c0-0.694-0.031-1.112-0.097-1.248
					c-0.065-0.138-0.209-0.146-0.429-0.026c-0.251,0.134-0.41,0.325-0.476,0.57c-0.069,0.247-0.102,0.718-0.102,1.414v6.385
					c0,0.667,0.033,1.084,0.102,1.252c0.066,0.167,0.219,0.188,0.454,0.06c0.226-0.121,0.374-0.303,0.443-0.546
					c0.07-0.241,0.105-0.739,0.105-1.494v-1.727l3.037-1.64v0.536c0,1.423-0.086,2.478-0.257,3.165
					c-0.17,0.688-0.547,1.413-1.132,2.175c-0.585,0.764-1.304,1.377-2.16,1.838c-0.888,0.48-1.624,0.688-2.2,0.619
					c-0.577-0.068-0.96-0.386-1.147-0.956c-0.189-0.567-0.281-1.527-0.281-2.875v-4.016c0-0.99,0.029-1.749,0.086-2.276
					c0.058-0.525,0.23-1.094,0.516-1.708c0.286-0.614,0.682-1.188,1.189-1.725c0.508-0.536,1.091-0.983,1.749-1.339
					c0.896-0.482,1.634-0.678,2.215-0.585c0.583,0.093,0.965,0.394,1.148,0.903c0.183,0.508,0.274,1.406,0.274,2.688
					C36.476,33.847,36.476,35.153,36.476,35.153z"/>
				<path id="Fill-103" class="st16" d="M41.206,35.452c-0.154-1.475-0.309-3.316-0.463-5.523c-0.308,2.799-0.504,4.828-0.583,6.087
					L41.206,35.452z M42.815,25.744l1.736,12.808l-3.103,1.676l-0.162-2.382l-1.087,0.586l-0.183,2.569l-3.139,1.695l1.549-14.582
					L42.815,25.744z"/>
				<path id="Fill-105" class="st16" d="M54.438,19.471v13.745l-2.655,1.434l-0.003-9.279l-1.058,9.851l-1.883,1.017l-1.115-8.467
					l-0.002,9.071l-2.655,1.432V24.529l3.93-2.121c0.117,0.763,0.237,1.672,0.36,2.728l0.431,3.262l0.699-6.795L54.438,19.471z"/>
				<polygon id="Fill-107" class="st16" points="55.657,18.811 60.721,16.078 60.721,18.829 58.694,19.923 58.694,22.53 
					60.593,21.506 60.593,24.121 58.694,25.145 58.694,28.167 60.923,26.964 60.923,29.715 55.657,32.558 				"/>
				<path id="Fill-109" class="st16" d="M64.834,16.211v3.057c0.341-0.185,0.58-0.369,0.719-0.554
					c0.135-0.185,0.205-0.579,0.205-1.185v-0.755c0-0.436-0.068-0.687-0.199-0.751C65.426,15.959,65.185,16.022,64.834,16.211z
					 M61.797,15.498l2.149-1.16c1.433-0.773,2.404-1.232,2.911-1.376s0.921-0.034,1.24,0.327c0.32,0.363,0.48,1.13,0.48,2.301
					c0,1.07-0.112,1.851-0.338,2.341c-0.227,0.489-0.671,0.948-1.335,1.382c0.601-0.15,1.005-0.133,1.211,0.05
					c0.207,0.183,0.337,0.385,0.387,0.602c0.05,0.22,0.075,0.884,0.075,1.993v3.627l-2.819,1.522v-4.568
					c0-0.736-0.05-1.166-0.149-1.287c-0.099-0.124-0.357-0.07-0.775,0.155v6.198l-3.037,1.639V15.498z"/>
				<path id="Fill-111" class="st16" d="M73.393,18.076c-0.153-1.475-0.308-3.315-0.462-5.524c-0.309,2.8-0.505,4.829-0.583,6.088
					L73.393,18.076z M75.002,8.368l1.738,12.809l-3.104,1.675l-0.163-2.382l-1.087,0.586l-0.181,2.569l-3.14,1.694l1.549-14.581
					L75.002,8.368z"/>
				<path id="Stroke-113" class="st17" d="M14.286,49.795c-1.088,0.569-2.018,1.038-2.269,1.164
					c-0.376,0.188-1.722,0.815-2.985,0.302C1.923,48.377-0.247,39.256,0.716,36.37c0.234-0.702,0.63-1.779,1.341-2.448
					c0.405-0.382,2.79-1.642,4.563-2.547"/>
				<path id="Stroke-115" class="st18" d="M2.022,33.972c0.406-0.382,2.791-1.642,4.563-2.547c1.041-0.531,1.869-0.94,1.965-0.979
					c0.65-0.264,1.761-0.566,3.668,0.071c1.072,0.358,3.556,2.08,5.065,4.629c1.322,2.233,2.816,4.863,2.549,9.256
					c-0.123,1.989-1.074,2.75-1.201,2.9c-0.324,0.38-2.571,1.599-4.379,2.543c-1.088,0.569-2.017,1.038-2.269,1.164
					c-0.375,0.188-1.723,0.815-2.984,0.302c-7.11-2.884-9.28-12.005-8.318-14.891C0.916,35.718,1.311,34.641,2.022,33.972z"/>
				<g id="Group-235" transform="translate(0.000000, 30.000000)">
					<g id="Clip-166">
					</g>
					<path id="Fill-165" class="st1" d="M2.652,3.572l5.832-3.095C9.065,0.169,9.742,0.04,10.487,0.11L4.655,3.205
						C3.91,3.135,3.233,3.264,2.652,3.572"/>
					<g id="Clip-169">
					</g>
					<path id="Fill-168" class="st19" d="M4.655,3.205l5.832-3.095c0.451,0.041,0.928,0.156,1.423,0.346L6.078,3.551
						C5.583,3.361,5.106,3.247,4.655,3.205"/>
					<g id="Clip-172">
					</g>
					<path id="Fill-171" class="st20" d="M6.078,3.551l5.832-3.095c0.388,0.149,0.788,0.346,1.196,0.591L7.274,4.142
						C6.866,3.897,6.467,3.7,6.078,3.551"/>
					<path id="Fill-175" class="st21" d="M7.275,5.197c3.253,1.955,5.898,6.729,5.901,10.651s-2.637,5.52-5.891,3.566
						c-3.253-1.955-5.899-6.729-5.902-10.651C1.38,4.841,4.021,3.242,7.275,5.197"/>
					<g id="Clip-206">
					</g>
					<path id="Fill-205" class="st20" d="M7.274,4.143l5.832-3.095c0.059,0.035,0.117,0.072,0.176,0.108L7.45,4.251
						C7.391,4.215,7.333,4.179,7.274,4.143"/>
					<g id="Clip-209">
					</g>
					<path id="Fill-208" class="st22" d="M7.45,4.251l5.832-3.095c0.499,0.315,0.984,0.687,1.45,1.106L8.9,5.357
						C8.434,4.938,7.949,4.566,7.45,4.251"/>
					<g id="Clip-212">
					</g>
					<path id="Fill-211" class="st16" d="M8.9,5.358l5.832-3.095c0.484,0.435,0.948,0.921,1.386,1.447l-5.832,3.095
						C9.848,6.279,9.384,5.793,8.9,5.358"/>
					<g id="Clip-215">
					</g>
					<path id="Fill-214" class="st16" d="M10.286,6.804l5.832-3.095c1.111,1.335,2.051,2.924,2.713,4.578l-5.832,3.096
						C12.337,9.728,11.397,8.139,10.286,6.804"/>
					<g id="Clip-218">
					</g>
					<path id="Fill-217" class="st16" d="M12.999,11.383l5.832-3.095C19.049,8.83,19.236,9.38,19.39,9.93l-5.832,3.095
						C13.404,12.475,13.217,11.925,12.999,11.383"/>
					<g id="Clip-221">
					</g>
					<path id="Fill-220" class="st22" d="M13.557,13.025l5.832-3.095c0.17,0.604,0.299,1.209,0.382,1.806l-5.832,3.095
						C13.856,14.234,13.727,13.629,13.557,13.025"/>
					<g id="Clip-224">
					</g>
					<path id="Fill-223" class="st20" d="M13.939,14.831l5.832-3.095c0.073,0.523,0.112,1.039,0.112,1.543
						c0,0.057,0,0.115-0.001,0.172l-5.832,3.095c0.001-0.057,0.001-0.114,0.001-0.172C14.051,15.87,14.012,15.354,13.939,14.831"/>
					<g id="Clip-227">
					</g>
					<path id="Fill-226" class="st19" d="M14.051,16.546l5.832-3.095c-0.011,0.608-0.077,1.165-0.194,1.668l-5.832,3.095
						C13.974,17.711,14.04,17.154,14.051,16.546"/>
					<g id="Clip-230">
					</g>
					<path id="Fill-229" class="st1" d="M13.856,18.215l5.832-3.095c-0.317,1.362-1.005,2.327-1.942,2.824l-5.832,3.096
						C12.851,20.542,13.539,19.577,13.856,18.215"/>
					<path id="Fill-233" class="st23" d="M7.285,19.414c3.254,1.955,5.895,0.356,5.892-3.566S10.528,7.152,7.275,5.197
						C4.021,3.243,1.381,4.841,1.384,8.763C1.387,12.685,4.032,17.459,7.285,19.414 M7.274,4.143
						c3.734,2.243,6.775,7.729,6.778,12.231c0.003,4.501-3.032,6.338-6.766,4.095c-3.733-2.243-6.768-7.727-6.772-12.228
						C0.512,3.74,3.541,1.899,7.274,4.143"/>
				</g>
				<path id="Fill-236" class="st24" d="M10.73,40.974c1.321,2.831,1.007,5.773-0.704,6.571c-1.71,0.8-4.168-0.847-5.489-3.679
					c-1.322-2.83-1.007-5.773,0.704-6.572S9.409,38.142,10.73,40.974"/>
				<path id="Fill-238" class="st16" d="M34.964,13.057l0.785-0.401c0.698-0.357,0.576-0.977-0.711-1.784
					c-1.234-0.773-2.284-1.04-3.167-0.589l-0.735,0.375L34.964,13.057z M27.501,10.388l3.088-1.578
					c1.79-0.915,4.291-0.044,6.179,1.139c2.611,1.636,2.677,2.946,1.009,3.797l-0.943,0.482l5.027,3.15l-1.765,0.902L27.501,10.388z
					"/>
				<path id="Fill-240" class="st16" d="M47.631,12.585c1.042-0.532-0.073-1.427-3.461-3.55c-3.368-2.11-4.846-2.841-5.889-2.309
					c-1.041,0.533,0.094,1.439,3.462,3.549C45.131,12.398,46.589,13.117,47.631,12.585 M36.412,5.555
					c2.648-1.352,5.696,0.18,9.525,2.579c3.827,2.398,6.211,4.271,3.564,5.623c-2.646,1.352-5.694-0.182-9.523-2.58
					C36.151,8.778,33.765,6.907,36.412,5.555"/>
				<polygon id="Fill-242" class="st16" points="45.572,1.156 47.653,2.461 44.53,4.057 47.492,5.914 50.433,4.411 52.515,5.716 
					49.575,7.218 52.961,9.341 56.209,7.682 58.29,8.986 53.276,11.546 40.683,3.654 				"/>
			</g>
		</g>
	</g>
</g>
</svg>
