<?xml version="1.0" encoding="utf-8"?>
<svg version="1.1" id="Layer_1" xmlns="http://www.w3.org/2000/svg" xmlns:xlink="http://www.w3.org/1999/xlink" x="0px" y="0px"
	 viewBox="0 0 61.643 58.61" style="enable-background:new 0 0 61.643 58.61;" xml:space="preserve">
<style type="text/css">
	.st0{fill:none;stroke:#626366;stroke-width:2.481;stroke-linejoin:round;}
	.st1{fill:#898B8E;}
	.st2{fill:#E5E6E7;}
	.st3{fill:#58585B;}
	.st4{fill:#FEFEFE;}
	.st5{fill:#B3B5B7;}
	.st6{fill:#808184;}
	.st7{fill:none;stroke:#58585B;stroke-width:1.24;stroke-linecap:round;stroke-linejoin:round;}
	.st8{fill:none;stroke:#F0F0F1;stroke-width:1.24;stroke-linecap:round;stroke-linejoin:round;}
</style>
<title>icon-surveillance-camera</title>
<desc>Created with Sketch.</desc>
<path id="Stroke-1" class="st0" d="M58.006,34.331c0,12.087-12.851,23.038-27.737,23.038S3.638,46.495,3.638,32.765
	c0-3.022,0.343-6.343,1.751-8.11c4.331-5.437,50.221-7.372,52.256,1.658C58.069,28.2,58.006,32.275,58.006,34.331z"/>
<path id="Stroke-3" class="st0" d="M60.403,30c0,0-5.621-8.109-28.967-8.293C6.77,21.512,1.24,30,1.24,30V10.372
	c0,0,7.096-8.754,29.581-9.123c20.563-0.337,29.58,9.123,29.58,9.123L60.403,30L60.403,30z"/>
<path id="Fill-5" class="st1" d="M58.006,34.331c0,12.087-12.851,23.038-27.737,23.038S3.638,46.495,3.638,32.765
	c0-3.022,0.343-6.343,1.751-8.11c4.331-5.437,50.221-7.372,52.256,1.658C58.069,28.2,58.006,32.275,58.006,34.331"/>
<path id="Fill-7" class="st2" d="M18.566,44.468c1.03,0.958-4.513,3.334-4.867,3.075c-8.737-6.386-7.865-15.071-7.204-15.976
	c1.751-2.396,6.082-3.87,6.082-3.87C12.462,34.055,16.302,42.363,18.566,44.468"/>
<path id="Fill-9" class="st2" d="M49.824,27.731c-0.511-1.311,5.715,3.036,5.8,3.466c1.557,7.885-5.654,15.435-6.727,15.758
	c-2.842,0.855-5.741-2.602-5.253-2.856C46.979,42.363,50.66,29.879,49.824,27.731"/>
<path id="Fill-11" class="st2" d="M30.736,55.263c-7.667,0-8.916-5.052-8.776-9.025c0.121-3.427,1.619-9.848,8.785-10.117
	c5.04-0.19,8.736,3.426,8.772,9.979C39.542,50.575,37.6,55.263,30.736,55.263"/>
<path id="Fill-13" class="st3" d="M37.457,46.772c0,3.155-3.012,5.713-6.728,5.713c-3.714,0-6.726-2.558-6.726-5.713
	c0-3.155,3.012-5.713,6.726-5.713C34.444,41.059,37.457,43.617,37.457,46.772"/>
<path id="Fill-15" class="st4" d="M34.416,48.087c0,2.086-1.691,3.778-3.778,3.778s-3.779-1.692-3.779-3.778
	c0-2.087,1.692-3.778,3.779-3.778S34.416,46,34.416,48.087"/>
<path id="Fill-17" class="st5" d="M60.403,30c0,0-5.621-8.109-28.967-8.293C6.77,21.512,1.24,30,1.24,30V10.372
	c0,0,7.096-8.754,29.581-9.123c20.563-0.337,29.58,9.123,29.58,9.123L60.403,30L60.403,30z"/>
<path id="Fill-19" class="st6" d="M11.804,4.221v19.785C3.543,26.462,1.24,29.997,1.24,29.997V10.374
	C1.24,10.374,4.069,6.888,11.804,4.221"/>
<path id="Fill-21" class="st6" d="M60.403,10.377v19.624c0,0-2.108-3.046-9.117-5.446V4.783
	C57.519,7.351,60.403,10.377,60.403,10.377"/>
<path id="Stroke-23" class="st7" d="M59.485,29.101c-2.253-2.115-9.617-7.25-28.142-7.397c-19.612-0.155-27.126,5.181-29.38,7.373"
	/>
<path id="Stroke-25" class="st8" d="M57.327,29.101c-2.252-2.115-9.874-6.206-26.402-6.207c-15.923-0.001-25.034,4.21-27.288,6.402"
	/>
</svg>
