<?xml version="1.0" encoding="utf-8"?>
<!-- Generator: Adobe Illustrator 21.1.0, SVG Export Plug-In . SVG Version: 6.00 Build 0)  -->
<svg version="1.1" id="Layer_1" xmlns="http://www.w3.org/2000/svg" xmlns:xlink="http://www.w3.org/1999/xlink" x="0px" y="0px"
	 viewBox="0 0 59.3 59.3" style="enable-background:new 0 0 59.3 59.3;" xml:space="preserve">
<style type="text/css">
	.st0{fill:#00AF9D;}
	.st1{fill:#FFFFFF;}
	.st2{fill:#00B09C;stroke:#05B09C;stroke-width:6;stroke-miterlimit:10;}
	.st3{fill:#FFFFFF;stroke:#FFFFFF;stroke-miterlimit:10;}
</style>
<title>INDIVIDUAL ICONS</title>
<ellipse transform="matrix(0.7071 -0.7071 0.7071 0.7071 -12.2773 29.64)" class="st0" cx="29.6" cy="29.6" rx="29.6" ry="29.6"/>
<rect x="18.9" y="39.8" class="st1" width="22.4" height="1.3"/>
<path class="st1" d="M41.1,19.4c-0.4-6.3-5.9-11-12.2-10.6c-5.3,0.4-9.7,4.4-10.5,9.7l-1.3-0.2c1-6.2,6.3-10.8,12.6-10.8
	c6.6,0,12.2,5.1,12.7,11.8L41.1,19.4z"/>
<path class="st1" d="M18.9,41.2C12.4,41.3,7,36.3,6.8,29.8c-0.2-6.5,4.9-11.9,11.4-12.1c0.2,0,0.5,0,0.7,0c2.9,0,5.6,1.1,7.8,2.9
	l-0.9,1c-1.9-1.7-4.4-2.6-6.9-2.6c-5.7,0-10.4,4.7-10.4,10.4c0,5.7,4.7,10.4,10.4,10.4h0.2v1.3l0,0C19,41.2,19,41.2,18.9,41.2z"/>
<path class="st1" d="M40.9,41.2L40.9,41.2v-1.3l0,0c5.5-0.1,9.8-4.6,9.7-10.1c-0.1-5.2-4.3-9.5-9.5-9.7v-1.3
	c6.2,0.1,11.2,5.2,11.1,11.4S47,41.2,40.9,41.2L40.9,41.2z"/>
<path class="st2" d="M43.9,38.9c0-0.8-0.2-1.7-0.5-2.4l1.7-2.1l-2.2-2.8l-2.6,1.3c-0.6-0.4-1.3-0.6-2-0.8l-1-2.7l-3.5,0.6l-0.1,2.7
	c-0.7,0.4-1.4,0.9-1.9,1.5L29.2,34l-1.3,3.3l2.2,1.5c0,0.8,0.2,1.7,0.5,2.4l-1.7,2.1l2.2,2.8l2.6-1.3c0.6,0.4,1.3,0.6,2,0.8l1,2.7
	l3.5-0.6l0.1-2.7c0.7-0.4,1.4-0.9,1.9-1.5l2.6,0.4l1.3-3.3L43.9,38.9z M44.4,43l-2.1-0.3H42L41.8,43c-0.5,0.6-1.1,1-1.8,1.4
	l-0.3,0.2v0.3l-0.1,2.3L37,47.6l-0.8-2.3L36,45l-0.3-0.1c-0.7-0.1-1.3-0.4-1.9-0.7L33.6,44l-0.3,0.2l-2.1,1.1l-1.6-2l1.4-1.8
	l0.2-0.3L31,41c-0.3-0.7-0.4-1.5-0.4-2.2v-0.3l-0.2-0.1l-1.8-1.2l0.9-2.5l2.1,0.3h0.3l0.2-0.2c0.5-0.6,1.1-1,1.8-1.4l0.3-0.2v-0.3
	l0.1-2.3l2.6-0.5l0.9,2.2l0.1,0.3l0.3,0.1c0.7,0.1,1.3,0.4,1.9,0.7l0.3,0.2l0.3-0.2l2.1-1.1l1.6,2L43,36.1l-0.2,0.3l0.1,0.3
	c0.3,0.7,0.4,1.5,0.4,2.2v0.4l0.3,0.2l1.8,1.2L44.4,43z"/>
<path class="st2" d="M33.5,37.6c-0.7,1.9,0.2,4,2,4.7c1.9,0.7,4-0.2,4.7-2c0.7-1.9-0.2-4-2-4.7c0,0,0,0-0.1,0
	C36.3,34.8,34.3,35.7,33.5,37.6z M38.1,39.3c-0.2,0.6-0.9,1-1.5,0.7c-0.6-0.2-1-0.9-0.7-1.5c0.2-0.6,0.9-1,1.5-0.7c0,0,0,0,0,0
	C38,38,38.3,38.7,38.1,39.3z"/>
<path class="st3" d="M43,38.9c0-0.7-0.1-1.4-0.4-2.1l1.5-1.8l-2-2.5l-2.3,1.2c-0.6-0.3-1.2-0.5-1.8-0.7l-0.9-2.4L34,31.2L34,33.6
	c-0.6,0.3-1.2,0.8-1.7,1.3L30,34.6l-1,2.9l1.9,1.3c0,0.7,0.1,1.4,0.4,2.1l-1.5,1.8l2,2.5L34,44c0.6,0.3,1.2,0.5,1.8,0.7l0.9,2.4
	l3.1-0.6l0.1-2.4c0.6-0.3,1.2-0.8,1.7-1.3l2.3,0.3l1.1-2.9L43,38.9z M43.5,42.5l-1.8-0.2h-0.3l-0.2,0.2c-0.4,0.5-1,0.9-1.5,1.2
	l-0.3,0.1v0.3l-0.1,2L37,46.5l-0.8-2l-0.1-0.3l-0.3-0.1c-0.6-0.1-1.1-0.3-1.6-0.6L34,43.4l-0.3,0.1l-1.9,1l-1.4-1.8l1.2-1.5l0.2-0.2
	l-0.1-0.3c-0.2-0.6-0.4-1.3-0.4-1.9v-0.3l-0.2-0.2l-1.6-1l0.8-2.1l1.9,0.3h0.3l0.2-0.2c0.4-0.5,1-0.9,1.5-1.2l0.3-0.1v-0.2l0.1-2
	l2.3-0.4l0.8,2l0.1,0.3l0.3,0.1c0.6,0.1,1.1,0.3,1.6,0.6l0.3,0.1l0.3-0.1l1.9-1l1.4,1.8l-1.2,1.5L42,36.7l0.1,0.3
	c0.2,0.6,0.4,1.3,0.4,1.9v0.3l0.2,0.2l1.6,1L43.5,42.5z"/>
<path class="st1" d="M34,37.7c-0.7,1.6,0.1,3.5,1.8,4.1s3.5-0.1,4.1-1.8c0.7-1.6-0.1-3.5-1.8-4.1c0,0,0,0-0.1,0
	C36.4,35.3,34.6,36.1,34,37.7z M38,39.2c-0.2,0.6-0.8,0.8-1.4,0.6s-0.8-0.8-0.6-1.4s0.8-0.8,1.4-0.6c0,0,0,0,0,0
	c0.5,0.2,0.8,0.7,0.7,1.2C38,39.1,38,39.2,38,39.2z"/>
<circle class="st1" cx="28.6" cy="31.2" r="2.2"/>
<circle class="st1" cx="34.8" cy="25.8" r="2.9"/>
</svg>
