<?xml version="1.0" encoding="utf-8"?>
<!-- Generator: Adobe Illustrator 21.1.0, SVG Export Plug-In . SVG Version: 6.00 Build 0)  -->
<svg version="1.1" id="Layer_1" xmlns="http://www.w3.org/2000/svg" xmlns:xlink="http://www.w3.org/1999/xlink" x="0px" y="0px"
	 viewBox="0 0 60.3 60.3" style="enable-background:new 0 0 60.3 60.3;" xml:space="preserve">
<style type="text/css">
	.st0{fill:#00B19D;}
	.st1{fill:#FFFFFF;}
</style>
<title>INDIVIDUAL ICONS</title>
<circle class="st0" cx="30.1" cy="30.1" r="30.1"/>
<path class="st1" d="M48,24.9c0.1-0.3,0.3-0.6,0.3-0.9l2.5-0.7l-0.3-3.2l-2.5-0.4c-0.3-0.7-0.7-1.3-1.2-1.9l0.5-2.3l-2.9-1.4
	L43,15.9c-0.8-0.1-1.5,0-2.2,0.2L39,14.4l-2.7,1.7l1,2.4c-0.4,0.5-0.7,1.1-0.9,1.8L33.9,21l0.3,3.2l2.5,0.4c0.3,0.7,0.7,1.3,1.2,1.9
	l-0.5,2.3l2.9,1.4l1.5-1.9c0.8,0.1,1.5,0,2.2-0.2l1.8,1.7l2.7-1.7l-1-2.4C47.7,25.4,47.8,25.1,48,24.9z M47.8,27.9l-2,1.3l-1.5-1.4
	l-0.2-0.2l-0.3,0.1c-0.7,0.2-1.3,0.2-2,0.2h-0.3L41.3,28l-1.2,1.5l-2.2-1l0.4-1.9l0.1-0.3l-0.2-0.2c-0.5-0.5-0.9-1.1-1.1-1.8L37,24
	h-0.3l-2-0.3l-0.2-2.3l2.1-0.6l0.3-0.1l0.1-0.3c0.2-0.6,0.4-1.1,0.8-1.6l0.2-0.2l-0.2-0.3l-0.8-2l2-1.3l1.5,1.4l0.2,0.2l0.3-0.1
	c0.7-0.2,1.3-0.2,2-0.2h0.3l0.2-0.2l1.2-1.5l2.2,1l-0.4,1.9V18l0.2,0.2c0.5,0.5,0.9,1.1,1.1,1.7l0.1,0.3h0.3l2,0.3l0.3,2.4l-2.1,0.6
	l-0.3,0.1l-0.1,0.3c-0.2,0.6-0.4,1.1-0.8,1.6l-0.2,0.2l0.1,0.3L47.8,27.9z"/>
<path class="st1" d="M43.8,19.2c-1.6-0.8-3.6-0.1-4.3,1.5c-0.8,1.6-0.1,3.6,1.5,4.3c1.6,0.8,3.5,0.1,4.3-1.5
	C46.1,21.9,45.4,20,43.8,19.2C43.8,19.2,43.8,19.2,43.8,19.2z M41.9,23.1c-0.5-0.3-0.8-0.9-0.5-1.4c0.3-0.5,0.9-0.8,1.4-0.5
	c0.5,0.3,0.8,0.9,0.5,1.4C43.1,23.1,42.4,23.4,41.9,23.1C41.9,23.1,41.9,23.1,41.9,23.1z"/>
<ellipse class="st1" cx="30" cy="47.3" rx="1.8" ry="1.8"/>
<rect x="27.6" y="11" class="st1" width="4.8" height="0.9"/>
<path class="st1" d="M36.7,28.7l0.6-2.3c-0.5-0.5-0.9-1.2-1.2-1.9l-2.5-0.4L33.3,21l2.5-0.7c0.2-0.6,0.5-1.2,0.9-1.8l-1-2.4l2.7-1.7
	l0.8,0.7v-1.6H20.9v30.4h18.3v-14L36.7,28.7z"/>
<path class="st1" d="M41.1,29.8v16.9c0,2-1.7,3.7-3.7,3.7l0,0H22.7c-2,0-3.7-1.7-3.7-3.7l0,0V13.5c0-2,1.7-3.7,3.7-3.7l0,0h14.7
	c2,0,3.7,1.7,3.7,3.7l0,0v1.9h1.3v-1.9c0-2.8-2.2-5-5-5H22.7c-2.8,0-5,2.2-5,5v33.3c0,2.8,2.2,5,5,5h14.6c2.8,0,5-2.2,5-5V29.8H41.1
	z"/>
</svg>
