<?xml version="1.0" encoding="utf-8"?>
<!-- Generator: Adobe Illustrator 21.1.0, SVG Export Plug-In . SVG Version: 6.00 Build 0)  -->
<svg version="1.1" id="Layer_1" xmlns="http://www.w3.org/2000/svg" xmlns:xlink="http://www.w3.org/1999/xlink" x="0px" y="0px"
	 viewBox="0 0 59.3 59.3" style="enable-background:new 0 0 59.3 59.3;" xml:space="preserve">
<style type="text/css">
	.st0{fill:#00B09C;}
	.st1{fill:#FFFFFF;}
</style>
<title>INDIVIDUAL ICONS</title>
<circle class="st0" cx="29.6" cy="29.6" r="29.6"/>
<path class="st1" d="M43.5,29.6c0-0.7-0.1-1.5-0.2-2.2l4.4-3.9L44,17.4l-5.3,1.7c-1.3-1.1-2.7-2-4.3-2.6l-1.2-5.1H26l-1.2,5.1
	c-1.6,0.6-3,1.4-4.3,2.5l-5.3-1.7l-3.8,6.2l4.4,3.9c-0.3,1.4-0.3,2.9,0,4.4l-4.4,3.9l3.8,6.2l5.3-1.7c1.3,1.1,2.7,2,4.3,2.5l1.2,5.1
	h7.3l1.2-5.1c1.6-0.6,3-1.4,4.3-2.5l5.3,1.7l3.8-6.2l-4.4-3.9C43.5,31.1,43.5,30.4,43.5,29.6z M44.7,36.2L43,39l-3.5-1.1l-1.3-0.4
	l-1,0.9c-1.1,0.9-2.3,1.6-3.6,2.1l-1.2,0.5l-0.3,1.3l-0.7,3.2H28l-0.7-3.2L27,40.9l-1.2-0.5c-1.3-0.5-2.6-1.2-3.6-2.1l-1-0.9
	l-1.3,0.4L16.3,39l-1.7-2.8l2.9-2.5l1-0.9l-0.2-1.3c-0.2-1.2-0.2-2.4,0-3.6l0.2-1.3l-1-0.9l-2.9-2.5l1.7-2.8l3.5,1.1l1.3,0.4l1-0.9
	c1.1-0.9,2.3-1.6,3.6-2.1l1.2-0.5l0.3-1.3l0.7-3.2h3.4l0.7,3.2l0.3,1.3l1.2,0.5c1.3,0.5,2.5,1.2,3.6,2.1l1,0.9l1.3-0.4l3.5-1.1
	l1.7,2.8l-2.9,2.5l-1,0.9l0.2,1.3c0.2,1.2,0.2,2.4,0,3.6l-0.2,1.3l1,0.9L44.7,36.2z"/>
<path class="st1" d="M29.6,22.4c-4,0-7.3,3.3-7.3,7.3s3.3,7.3,7.3,7.3s7.3-3.3,7.3-7.3S33.6,22.4,29.6,22.4L29.6,22.4z M29.6,32.1
	c-1.3,0-2.4-1.1-2.4-2.4s1.1-2.4,2.4-2.4s2.4,1.1,2.4,2.4v0C32.1,31,31,32.1,29.6,32.1z"/>
</svg>
