<?xml version="1.0" encoding="utf-8"?>
<!-- Generator: Adobe Illustrator 21.1.0, SVG Export Plug-In . SVG Version: 6.00 Build 0)  -->
<svg version="1.1" id="Layer_1" xmlns="http://www.w3.org/2000/svg" xmlns:xlink="http://www.w3.org/1999/xlink" x="0px" y="0px"
	 viewBox="0 0 59.9 59.9" style="enable-background:new 0 0 59.9 59.9;" xml:space="preserve">
<style type="text/css">
	.st0{fill:#01AF9C;}
	.st1{fill:#FFFFFF;}
</style>
<title>INDIVIDUAL ICONS</title>
<circle id="devops_monitoring_metrics" class="st0" cx="29.9" cy="29.9" r="29.9"/>
<polygon class="st1" points="13.4,41.7 13.4,16.9 12.2,16.9 12.2,41.7 12.2,42.9 13.4,42.9 47.7,42.9 47.7,41.7 "/>
<rect x="15.7" y="29.9" class="st1" width="8.3" height="9.5"/>
<path class="st1" d="M34.6,20.5h-8.3v18.9h8.3V20.5z M33.4,38.1h-5.9V21.6h5.9L33.4,38.1z"/>
<rect x="37" y="26.4" class="st1" width="8.3" height="1.2"/>
<rect x="37" y="28.7" class="st1" width="8.3" height="1.2"/>
<rect x="37" y="31" class="st1" width="8.3" height="1.2"/>
<rect x="37" y="33.4" class="st1" width="8.3" height="1.2"/>
<rect x="37" y="35.8" class="st1" width="8.3" height="1.2"/>
<rect x="37" y="38.1" class="st1" width="8.3" height="1.2"/>
</svg>
