<?xml version="1.0" encoding="utf-8"?>
<!-- Generator: Adobe Illustrator 21.1.0, SVG Export Plug-In . SVG Version: 6.00 Build 0)  -->
<svg version="1.1" id="Layer_1" xmlns="http://www.w3.org/2000/svg" xmlns:xlink="http://www.w3.org/1999/xlink" x="0px" y="0px"
	 viewBox="0 0 59.3 59.3" style="enable-background:new 0 0 59.3 59.3;" xml:space="preserve">
<style type="text/css">
	.st0{fill:#00B09C;}
	.st1{fill:#FFFFFF;}
</style>
<title>INDIVIDUAL ICONS</title>
<circle class="st0" cx="29.6" cy="29.6" r="29.6"/>
<path class="st1" d="M20.2,48.6v-2.1h5.5v-3.8h8c0,0.2,0,0.4,0,0.7c0,0.8,0,1.6,0,2.5c0,0.5,0,0.5,0.5,0.5h4.4h0.3v2.2L20.2,48.6z"
	/>
<path class="st1" d="M29.6,14.6h8.9c2.3,0,4.5,0,6.8-0.1c1-0.1,2,0.3,2.7,0.9c0.7,0.6,1.1,1.4,1.1,2.4c0,1.1,0,2.2,0,3.3
	c0,5,0,10,0,15c0,1.6-0.5,3.1-1.5,4.3c-0.4,0.6-1,0.9-1.6,1.1c-0.2,0-0.4,0-0.5,0c-10.4,0-20.9,0-31.3,0c-0.4,0-0.7-0.1-1-0.3
	c-1.6-0.8-2.7-2.5-2.6-4.3c0-2.7,0-5.3-0.1-8s-0.1-5.4-0.1-8.1c0-0.9,0-1.9,0-2.8c0-1.5,1.1-2.8,2.6-3.1c0.5-0.1,0.9-0.1,1.4-0.1
	h7.7L29.6,14.6L29.6,14.6z M29.5,16.3L29.5,16.3h-1.3l-12,0.1c-0.9,0-1.8,0-2.7,0c-0.8,0-1.5,0.6-1.5,1.4c0,0.2-0.1,0.4-0.1,0.6
	c0,0.9,0,1.8,0,2.6c0,3.1,0.1,6.1,0.1,9.2c0,2.2,0,4.5,0.1,6.7c0,0.6,0.2,1.3,0.6,1.8c0.3,0.5,0.9,0.9,1.5,0.9h30.9
	c0.4,0,0.7-0.1,0.9-0.4c0.7-0.8,1.1-1.8,1.1-2.8c0-5,0-10,0-15c0-1.1,0-2.2,0-3.3c0.1-0.9-0.5-1.6-1.4-1.7c0,0,0,0-0.1,0
	c-0.5-0.1-1-0.1-1.5-0.1c-2,0-4,0-6,0L29.5,16.3z"/>
<path class="st1" d="M23.7,37.1c-3.5,0-6.4-2.8-6.4-6.3c0-3.5,2.8-6.4,6.3-6.4c2.5,0,4.8,1.4,5.9,3.8l-0.7,0.3
	c-1.3-2.8-4.7-4-7.5-2.7c-2.8,1.3-4,4.7-2.7,7.5c0.9,2,2.9,3.2,5.1,3.2h0.1L23.7,37.1L23.7,37.1L23.7,37.1z"/>
<rect x="23.7" y="36.4" class="st1" width="9.2" height="0.7"/>
<path class="st1" d="M35.7,25.3c-0.2-3.2-2.9-5.7-6.2-5.8c-3.1,0-5.6,2.2-6.1,5.3l-0.7-0.1c0.5-3.4,3.4-5.9,6.8-5.9
	c3.6,0,6.6,2.8,6.9,6.5H35.7z"/>
<path class="st1" d="M35.5,37.8c-3.1,0-5.7-2.2-6.2-5.3l0.7-0.1c0.6,3,3.5,5,6.6,4.4c3-0.6,5-3.5,4.4-6.6c-0.5-2.6-2.7-4.5-5.4-4.5
	V25c3.5,0,6.4,2.9,6.3,6.5S39,37.8,35.5,37.8L35.5,37.8z"/>
</svg>
