<?xml version="1.0" encoding="utf-8"?>
<!-- Generator: Adobe Illustrator 21.1.0, SVG Export Plug-In . SVG Version: 6.00 Build 0)  -->
<svg version="1.1" id="Layer_1" xmlns="http://www.w3.org/2000/svg" xmlns:xlink="http://www.w3.org/1999/xlink" x="0px" y="0px"
	 viewBox="0 0 60.1 60.1" style="enable-background:new 0 0 60.1 60.1;" xml:space="preserve">
<style type="text/css">
	.st0{fill:#D81F2E;}
	.st1{fill:#FFFFFF;}
</style>
<title>INDIVIDUAL ICONS</title>
<ellipse transform="matrix(0.7071 -0.7071 0.7071 0.7071 -12.4554 30.07)" class="st0" cx="30.1" cy="30.1" rx="30.1" ry="30.1"/>
<ellipse class="st1" cx="30.4" cy="19.8" rx="10.1" ry="4.3"/>
<path class="st1" d="M37.4,38.4c0-1.4,0.5-2.7,1.4-3.8v-1.9c0-1.5,0.8-2.8,2-3.6v-7.8l0,0c-0.5,2.2-5,4-10.4,4s-9.9-1.8-10.4-4h0
	v16.7l0,0c0,2.5,4.7,4.4,10.5,4.4c2.6,0.1,5.2-0.4,7.6-1.4C37.7,40.2,37.4,39.3,37.4,38.4z"/>
<path class="st1" d="M43.6,28.8c2.2,0,3.9,1.8,3.9,3.9v2.1l0.1,0.1c2,2.2,1.8,5.6-0.4,7.6c-2.2,2-5.6,1.8-7.6-0.4
	c-1.8-2-1.8-5.1,0-7.1l0.1-0.1v-2.1C39.7,30.6,41.5,28.8,43.6,28.8 M40.4,34.1l0.5-0.3c1.7-1,3.7-1,5.3,0l0.5,0.3v-1.4
	c0-1.8-1.4-3.2-3.2-3.2s-3.2,1.4-3.2,3.2V34.1 M42.5,39.1l-1.4-1.4l-0.2-0.2l-0.2,0.2l-1,1l-0.3,0.2l0.2,0.2l2.6,2.6l0.2,0.2
	l0.2-0.2l4.8-4.8l0.2-0.2l-0.2-0.2l-1-1l-0.2-0.2L46,35.6L42.5,39.1 M43.6,28.5c-2.3,0.1-4.2,1.9-4.2,4.3v1.9c-2.1,2.4-1.9,6,0.5,8
	c2.4,2.1,6,1.9,8-0.5c1.9-2.2,1.9-5.4,0-7.5v-1.9C47.9,30.4,46,28.5,43.6,28.5L43.6,28.5z M40.7,33.5v-0.8c0-1.6,1.3-2.9,2.9-2.9
	c1.6,0,2.8,1.3,2.8,2.9v0.8C44.6,32.5,42.5,32.5,40.7,33.5z M42.5,39.5l3.8-3.8l1,1l-4.8,4.8l-2.6-2.6l1-1L42.5,39.5L42.5,39.5z"/>
</svg>
