<?xml version="1.0" encoding="utf-8"?>
<!-- Generator: Adobe Illustrator 21.1.0, SVG Export Plug-In . SVG Version: 6.00 Build 0)  -->
<svg version="1.1" id="Layer_1" xmlns="http://www.w3.org/2000/svg" xmlns:xlink="http://www.w3.org/1999/xlink" x="0px" y="0px"
	 viewBox="0 0 59.6 59.3" style="enable-background:new 0 0 59.6 59.3;" xml:space="preserve">
<style type="text/css">
	.st0{fill:#E02133;}
	.st1{fill:#FFFFFF;}
	.st2{fill:#E52134;}
</style>
<title>INDIVIDUAL ICONS</title>
<ellipse class="st0" cx="29.8" cy="29.7" rx="29.8" ry="29.7"/>
<rect x="17.7" y="19.2" class="st1" width="12" height="6.3"/>
<rect x="18.8" y="20.2" class="st2" width="9.8" height="4.2"/>
<rect x="31.2" y="19.2" class="st1" width="12" height="6.3"/>
<rect x="32.3" y="20.2" class="st2" width="9.8" height="4.2"/>
<rect x="24" y="26.6" class="st1" width="12" height="6.3"/>
<rect x="25.1" y="27.6" class="st2" width="9.8" height="4.2"/>
<rect x="37" y="26.7" class="st1" width="12" height="6.3"/>
<rect x="38.1" y="27.7" class="st2" width="9.8" height="4.2"/>
<rect x="31.1" y="33.7" class="st1" width="12" height="6.3"/>
<rect x="32.2" y="34.8" class="st2" width="9.8" height="4.2"/>
<rect x="17.9" y="33.9" class="st1" width="12" height="6.3"/>
<rect x="19" y="34.9" class="st2" width="9.8" height="4.2"/>
<rect x="10.6" y="26.6" class="st1" width="12" height="6.3"/>
<rect x="11.7" y="27.6" class="st2" width="9.8" height="4.2"/>
</svg>
