<?xml version="1.0" encoding="utf-8"?>
<!-- Generator: Adobe Illustrator 21.1.0, SVG Export Plug-In . SVG Version: 6.00 Build 0)  -->
<svg version="1.1" id="Layer_1" xmlns="http://www.w3.org/2000/svg" xmlns:xlink="http://www.w3.org/1999/xlink" x="0px" y="0px"
	 viewBox="0 0 59.8 59.8" style="enable-background:new 0 0 59.8 59.8;" xml:space="preserve">
<style type="text/css">
	.st0{fill:#E02533;}
	.st1{fill:#FFFFFF;}
</style>
<title>INDIVIDUAL ICONS</title>
<circle class="st0" cx="29.9" cy="29.9" r="29.9"/>
<path class="st1" d="M13.3,45.2V14.7c0-0.4,0.4-0.6,0.7-0.6c0.3,0,0.5,0.3,0.6,0.6v28.9l10.1-3V18c0-0.4,0.4-0.6,0.7-0.6
	c0.3,0,0.5,0.3,0.6,0.6v23.4L13.3,45.2z"/>
<path class="st1" d="M16.5,44c-0.2,0-0.4-0.2-0.4-0.4c0,0,0,0,0,0V15.8c0-0.2,0.3-0.4,0.5-0.4c0.2,0,0.3,0.2,0.4,0.4v27.8
	C17,43.8,16.8,44,16.5,44z"/>
<path class="st1" d="M19.5,43.1c-0.2,0-0.4-0.2-0.4-0.4c0,0,0,0,0,0V16.5c0-0.2,0.3-0.4,0.5-0.4c0.2,0,0.3,0.2,0.4,0.4v26.2
	C20,42.9,19.8,43.1,19.5,43.1z"/>
<path class="st1" d="M22.4,42.1c-0.2,0-0.4-0.2-0.4-0.4c0,0,0,0,0,0V17.2c0-0.2,0.3-0.4,0.5-0.4c0.2,0,0.3,0.2,0.4,0.4v24.6
	C22.8,42,22.6,42.2,22.4,42.1z"/>
<polygon class="st1" points="25.1,21.5 13.7,18.4 14,17.7 25.3,20.8 "/>
<rect x="11.9" y="14.1" class="st1" width="2.6" height="31.7"/>
<path class="st1" d="M46.6,45.2L34,41.5V18.1c0-0.4,0.4-0.6,0.7-0.6c0.3,0,0.5,0.3,0.6,0.6v22.6l10.1,3v-29c0-0.4,0.4-0.6,0.7-0.6
	c0.3,0,0.5,0.3,0.6,0.6L46.6,45.2L46.6,45.2z"/>
<path class="st1" d="M43.3,44c-0.2,0-0.4-0.2-0.4-0.4c0,0,0,0,0,0V15.8c0-0.2,0.3-0.4,0.5-0.4c0.2,0,0.3,0.2,0.4,0.4v27.8
	C43.7,43.8,43.5,44,43.3,44C43.3,44,43.3,44,43.3,44z"/>
<path class="st1" d="M40.3,43.1c-0.2,0-0.4-0.2-0.4-0.4c0,0,0,0,0,0V16.5c0-0.2,0.3-0.4,0.5-0.4c0.2,0,0.3,0.2,0.4,0.4v26.3
	C40.6,43,40.5,43.1,40.3,43.1z"/>
<path class="st1" d="M37.4,42.1c-0.2,0-0.4-0.2-0.4-0.4c0,0,0,0,0,0V17.2c0-0.2,0.3-0.4,0.5-0.4c0.2,0,0.3,0.2,0.4,0.4v24.6
	C37.8,42,37.6,42.1,37.4,42.1z"/>
<polygon class="st1" points="34.7,21.5 34.5,20.8 45.8,17.7 46.1,18.4 "/>
<rect x="45.3" y="14" class="st1" width="2.6" height="31.7"/>
</svg>
