<?xml version="1.0" encoding="utf-8"?>
<!-- Generator: Adobe Illustrator 21.1.0, SVG Export Plug-In . SVG Version: 6.00 Build 0)  -->
<svg version="1.1" id="Layer_1" xmlns="http://www.w3.org/2000/svg" xmlns:xlink="http://www.w3.org/1999/xlink" x="0px" y="0px"
	 viewBox="0 0 59.8 59.8" style="enable-background:new 0 0 59.8 59.8;" xml:space="preserve">
<style type="text/css">
	.st0{fill:#E22133;}
	.st1{fill:#FFFFFF;stroke:#FFFFFF;stroke-width:1.2;stroke-miterlimit:10;}
	.st2{fill:#DF2233;}
	.st3{fill:none;stroke:#FFFFFF;stroke-width:0.8;stroke-miterlimit:10;}
</style>
<title>INDIVIDUAL ICONS</title>
<circle class="st0" cx="29.9" cy="29.9" r="29.9"/>
<path class="st1" d="M22.6,9.1h14.5c2.4,0,4.3,1.9,4.3,4.3v32.8c0,2.4-1.9,4.3-4.3,4.3H22.6c-2.4,0-4.4-1.9-4.4-4.3V13.5
	C18.3,11.1,20.2,9.1,22.6,9.1z"/>
<path class="st2" d="M25.8,14.1H34c2.4,0,4.3,1.9,4.3,4.4V40c0,2.4-1.9,4.3-4.3,4.3h-8.2c-2.4,0-4.4-1.9-4.4-4.3V18.5
	C21.4,16.1,23.4,14.1,25.8,14.1z"/>
<path class="st3" d="M22.9,26c-0.1-0.8,0-1.5,0.2-2.3c0.2-0.8,0.6-1.5,1.1-2.1c1-1.4,2.6-2.4,4.3-2.7c0.6-0.1,1.3-0.2,1.9-0.1
	c0.7,0.1,1.4,0.2,2,0.5c0.7,0.3,1.4,0.7,2,1.3c0.5,0.4,0.9,0.9,1.3,1.5c0.3,0.5,0.6,1.1,0.8,1.6c0.1,0.3,0.2,0.7,0.2,1.1
	c0.1,1.7,0.1,4.4,0.1,4.9"/>
<path class="st3" d="M22.7,27.5c0.6,0.1,1.2-0.2,1.5-0.7c0.2-0.3,0.3-0.6,0.3-1c0.1-0.6,0.1-0.8,0.2-1.3c0.1-0.4,0.2-0.8,0.4-1.2
	c0.4-0.8,1-1.5,1.8-2c1.2-0.9,2.8-1.2,4.2-0.8c0.6,0.1,1.1,0.4,1.6,0.7c0.5,0.3,0.9,0.7,1.3,1.2c0.4,0.4,0.7,0.8,0.9,1.3
	c0.1,0.2,0.1,0.5,0.2,0.8c0.1,1.5,0.1,3,0.1,4.4c-0.1,0.3,0,0.6,0.1,0.9c0.1,0.3,0.4,0.5,0.6,0.6c0.3,0.2,0.7,0.4,1.2,0.4"/>
<path class="st3" d="M22.6,29.2c0.3,0.1,0.7,0.1,1,0c0.4-0.1,0.8-0.3,1.2-0.5c0.4-0.2,0.8-0.6,1-1c0.2-0.6,0.4-1.2,0.4-1.8
	c0-0.5,0.1-1,0.3-1.5c0.2-0.4,0.4-0.7,0.7-1c0.3-0.3,0.6-0.5,0.9-0.7c0.7-0.4,1.5-0.5,2.3-0.4c0.3,0,0.7,0.1,1,0.3
	c0.3,0.2,0.6,0.4,0.9,0.6c0.3,0.3,0.6,0.6,0.8,0.9c0.2,0.3,0.3,0.6,0.4,1c0,0.2,0,0.4,0,0.6c0,1.4,0.1,2.8,0,4.2
	c0,0.2,0,0.5,0.1,0.7c0.2,0.4,0.5,0.7,0.8,1c0.3,0.2,0.6,0.4,0.9,0.6c0.5,0.3,1.1,0.4,1.8,0.4"/>
<path class="st3" d="M22.7,30.9c0.3,0.1,0.6,0.1,0.9,0c0.4-0.1,0.9-0.2,1.3-0.4c0.3-0.2,0.6-0.4,0.9-0.6c0.5-0.4,0.9-0.8,1.3-1.3
	c0.3-0.3,0.5-0.7,0.6-1.1c0.1-0.4,0.2-0.7,0.2-1.1c0-0.3,0.1-0.7,0.2-1c0-0.2,0.1-0.5,0.3-0.7c0.1-0.2,0.3-0.4,0.5-0.5
	c0.2-0.2,0.5-0.3,0.8-0.4c0.2,0,0.4,0,0.7,0.1c0.2,0.1,0.4,0.2,0.6,0.3c0.2,0.2,0.4,0.4,0.5,0.6c0.2,0.5,0.2,0.9,0.1,1.4
	c0,0.6-0.1,1.3-0.3,1.9c-0.3,0.8-0.6,1.5-1.1,2.2c-0.9,1.2-2,2.2-3.3,2.8c-1.3,0.6-2.6,1-4.1,1.1"/>
<path class="st3" d="M23,32.6c0.6,0,1.1-0.1,1.7-0.2c1-0.3,2-0.8,2.8-1.6c0.5-0.5,1-1,1.4-1.6c0.3-0.4,0.5-0.8,0.7-1.3
	c0.3-0.8,0.4-1.6,0.3-2.5"/>
<path class="st3" d="M30.2,32.5H31"/>
<path class="st3" d="M31.9,30.8c0.1,0.3,0.2,0.6,0.3,0.8c0.2,0.4,0.5,0.8,0.9,1.1c0.4,0.4,0.8,0.7,1.3,1c0.4,0.2,0.7,0.4,1.2,0.5
	c0.5,0.1,1,0.2,1.6,0.1"/>
<path class="st3" d="M35.9,36.2c-0.3-0.1-0.6-0.2-1.1-0.4c-0.4-0.1-0.8-0.3-1.1-0.5c-0.6-0.3-0.7-0.4-1.2-0.6
	c-0.4-0.2-0.9-0.4-1.4-0.5c-0.5-0.1-1.1-0.1-1.6,0c-0.4,0.1-0.7,0.2-1.1,0.4c-1.1,0.5-1.1,0.7-1.8,0.9c-0.5,0.2-1.1,0.4-1.7,0.4
	C24.6,36,24.1,36,23.7,36"/>
<path class="st3" d="M25.1,37.6c0.3,0,0.7-0.1,1-0.1c0.3-0.1,0.7-0.2,1-0.4c0.4-0.2,0.4-0.2,0.8-0.5s0.6-0.3,0.8-0.4
	c0.3-0.1,0.6-0.3,0.9-0.3c0.2,0,0.4,0,0.7,0c0.3,0,0.5,0,0.8,0.1c0.3,0.1,0.6,0.2,0.8,0.4c0.3,0.2,0.3,0.2,0.6,0.4
	c0.1,0.1,0.5,0.3,0.8,0.4c0.4,0.2,0.9,0.3,1.4,0.4"/>
<path class="st3" d="M26.9,39.1c0.3-0.1,0.7-0.2,1-0.3c0.4-0.1,0.7-0.3,1-0.5c0.4-0.3,0.4-0.3,0.6-0.4c0.3-0.1,0.6-0.1,0.9-0.1
	c0.3,0,0.6,0.1,0.8,0.2c0.2,0.1,0.4,0.2,0.7,0.4c0.4,0.2,0.4,0.3,0.7,0.5c0.2,0.1,0.4,0.2,0.5,0.2"/>
<path class="st3" d="M29.9,39.6h1"/>
<ellipse class="st2" cx="29.7" cy="47.4" rx="1.8" ry="1.8"/>
<rect x="27.4" y="10.6" class="st2" width="4.8" height="0.9"/>
</svg>
