<?xml version="1.0" encoding="utf-8"?>
<!-- Generator: Adobe Illustrator 21.1.0, SVG Export Plug-In . SVG Version: 6.00 Build 0)  -->
<svg version="1.1" id="Layer_1" xmlns="http://www.w3.org/2000/svg" xmlns:xlink="http://www.w3.org/1999/xlink" x="0px" y="0px"
	 viewBox="0 0 59.6 59.6" style="enable-background:new 0 0 59.6 59.6;" xml:space="preserve">
<style type="text/css">
	.st0{fill:#D81F2E;}
	.st1{fill:none;stroke:#FFFFFF;stroke-miterlimit:10;}
</style>
<title>INDIVIDUAL ICONS</title>
<ellipse transform="matrix(0.7071 -0.7071 0.7071 0.7071 -12.3518 29.82)" class="st0" cx="29.8" cy="29.8" rx="29.8" ry="29.8"/>
<circle class="st1" cx="13.8" cy="30.9" r="2.3"/>
<circle class="st1" cx="25.3" cy="22.7" r="2.3"/>
<circle class="st1" cx="29.1" cy="30.2" r="2.3"/>
<circle class="st1" cx="35.6" cy="31.6" r="2.3"/>
<circle class="st1" cx="37.4" cy="39.6" r="2.3"/>
<circle class="st1" cx="45.9" cy="28.6" r="2.3"/>
<line class="st1" x1="15.7" y1="29.6" x2="23.2" y2="23.7"/>
<line class="st1" x1="27.1" y1="24.4" x2="28.4" y2="27.9"/>
<line class="st1" x1="31.4" y1="30.9" x2="33.3" y2="30.9"/>
<line class="st1" x1="35.1" y1="33.8" x2="36.1" y2="38.1"/>
<line class="st1" x1="39" y1="38" x2="44.2" y2="30.2"/>
<line class="st1" x1="21.5" y1="20.4" x2="20.1" y2="19"/>
<line class="st1" x1="20" y1="23.7" x2="18.1" y2="23.7"/>
<line class="st1" x1="25.4" y1="19.1" x2="25.4" y2="17.2"/>
<line class="st1" x1="28.2" y1="20.3" x2="29.7" y2="19.1"/>
<line class="st1" x1="31.7" y1="23.7" x2="29.7" y2="23.7"/>
</svg>
