<?xml version="1.0" encoding="utf-8"?>
<!-- Generator: Adobe Illustrator 21.1.0, SVG Export Plug-In . SVG Version: 6.00 Build 0)  -->
<svg version="1.1" id="Layer_1" xmlns="http://www.w3.org/2000/svg" xmlns:xlink="http://www.w3.org/1999/xlink" x="0px" y="0px"
	 viewBox="0 0 58.4 58.4" style="enable-background:new 0 0 58.4 58.4;" xml:space="preserve">
<style type="text/css">
	.st0{fill:#DF2633;}
	.st1{fill:#FFFFFF;}
</style>
<title>INDIVIDUAL ICONS</title>
<circle class="st0" cx="29.2" cy="29.2" r="29.2"/>
<path class="st1" d="M44,38.5v-5.2v-1.7c0-1.5,0.4-3.2-0.7-4.5c-0.2-0.5-0.7-1-1.2-1.2c-1.4-1.1-3-1-4.6-0.8h-1.7h-5.2h-1.8h-5.2
	h-1.7c-6.3-0.3-7.9,1.3-7.5,7.6V34v5.5v1.8c-0.2,1.6-0.2,3.1,1.3,4.2c0.3,0.5,0.8,0.9,1.4,1c1.6,0.8,3.2,0.5,4.9,0.4h1.7h5.2h1.7
	h5.2h1.7c0.8,0,1.5,0.1,2.3,0c2.4,0,4.3-1.8,4.4-4.2c0-0.1,0-0.2,0-0.3c0-0.7,0-1.4,0-2.1L44,38.5z M30.4,40.8
	c0.2-0.7,0.3-1.3,0.3-2h0.1h-0.1C30.7,39.5,30.6,40.2,30.4,40.8z"/>
<path class="st1" d="M21.1,23.5c0.4,0,0.8,0,1.2,0c0.8,0.1,1.3-0.2,1.2-1.1c0-1.4,0.2-2.7,0.7-4c0.6-1.1,1.6-2.1,2.8-2.6l0,0
	c1.4-0.3,2.9-0.3,4.3,0l0,0l1.6,1l0,0c0.6,0.7,1.1,1.5,1.5,2.4c0.3,1.1,0.5,2.2,0.5,3.4c0,0.8,0.3,1,1,1c0.6,0,1.1,0,1.7,0
	c0.9,0.1,1.2-0.3,1.2-1.2c0-1.8-0.4-3.7-1.1-5.3c-0.4-1.5-1.4-2.7-2.7-3.6l0,0c-0.1-0.3-0.4-0.5-0.7-0.5c-1.2-0.9-2.7-1.4-4.2-1.4
	c0,0.2-0.1,0.4-0.2,0.6c0.1-0.2,0.2-0.4,0.2-0.6h-1.7c-4.7,0.1-7.9,3.4-8.6,8.6v1.7C19.4,23.1,19.7,23.7,21.1,23.5z M32.2,15.1
	l0.3-0.2L32.2,15.1z M33,14.4L33,14.4z M29.9,12.2c-0.1,0.2-0.2,0.3-0.4,0.5C29.6,12.5,29.7,12.4,29.9,12.2L29.9,12.2z M28,14.1
	c-0.3,0.3-0.6,0.6-0.9,1C27.4,14.7,27.6,14.4,28,14.1L28,14.1z"/>
</svg>
