<?xml version="1.0" encoding="UTF-8" standalone="no"?>
<svg
   xmlns:dc="http://purl.org/dc/elements/1.1/"
   xmlns:cc="http://creativecommons.org/ns#"
   xmlns:rdf="http://www.w3.org/1999/02/22-rdf-syntax-ns#"
   xmlns:svg="http://www.w3.org/2000/svg"
   xmlns="http://www.w3.org/2000/svg"
   xmlns:sodipodi="http://sodipodi.sourceforge.net/DTD/sodipodi-0.dtd"
   xmlns:inkscape="http://www.inkscape.org/namespaces/inkscape"
   contentScriptType="text/ecmascript"
   zoomAndPan="magnify"
   contentStyleType="text/css"
   id="Ebene_1"
   sodipodi:docname="draw-search.svg"
   style="enable-background:new 0 0 161.6 217.4;"
   version="1.1"
   xml:space="preserve"
   preserveAspectRatio="xMidYMid meet"
   inkscape:version="1.0beta1 (32d4812, 2019-09-19)"
   viewBox="0 0 161.6 217.4"
   x="0px"
   y="0px">
    <metadata
   id="metadata43">   
        <rdf:RDF>     
            <cc:Work
   rdf:about="">       
                <dc:format>image/svg+xml</dc:format>

        
                <dc:type
   rdf:resource="http://purl.org/dc/dcmitype/StillImage" />

        
                <dc:title />

      </cc:Work>

    </rdf:RDF>

  </metadata>

  
    <defs
   id="defs41">     </defs>

  
    <sodipodi:namedview
   objecttolerance="10"
   bordercolor="#666666"
   inkscape:window-height="907"
   inkscape:zoom="1.979899"
   gridtolerance="10"
   id="namedview39"
   inkscape:current-layer="Ebene_1"
   inkscape:window-y="23"
   inkscape:cy="99.37044"
   inkscape:window-x="0"
   inkscape:cx="75.627191"
   showgrid="false"
   guidetolerance="10"
   inkscape:document-rotation="0"
   inkscape:pageopacity="0"
   inkscape:pageshadow="2"
   inkscape:window-width="1600"
   inkscape:window-maximized="0"
   borderopacity="1"
   pagecolor="#ffffff" />

   
    <style
   type="text/css"
   id="style10">  .st0{fill:#F08705;}  .st1{fill:#DF6C0C;}  .st2{fill:#FFFFFF;}  .st3{fill:#333333;} </style>

   
    <path
   inkscape:export-ydpi="85.540001"
   inkscape:export-xdpi="85.540001"
   d="m 161.6,154.7 c 0,3.9 -3.2,6.9 -6.9,6.9 H 6.9 C 3,161.6 0,158.4 0,154.7 V 6.9 C 0,3 3.2,0 6.9,0 h 147.8 c          3.9,0 6.9,3.2 6.9,6.9 z"
   id="path12"
   inkscape:connector-curvature="0"
   style="opacity:1;stop-opacity:1"
   class="st0" />

  
    <g
   inkscape:export-ydpi="85.540001"
   inkscape:export-xdpi="85.540001"
   style="opacity:1;stop-opacity:1"
   id="g16"
   transform="matrix(0.9635324,0,0,0.94557365,5.8931643,8.7952939)">   
        <path
   id="path14"
   d="m 161.6,154.7 c 0,3.9 -3.2,6.9 -6.9,6.9 l -49.21076,0.3777 -73.122742,-72.528914 5.914923,-52.340383 51.338377,-6.602109 71.131782,68.631693 z"
   inkscape:connector-curvature="0"
   class="st1"
   sodipodi:nodetypes="cscccccc" />

    </g>

  
    <path
   inkscape:export-ydpi="85.540001"
   inkscape:export-xdpi="85.540001"
   d="M 90.214051,72.140274 H 83.831894 L 77.074317,60.876706 c 1.501684,-0.294472 2.627947,-1.619598          2.627947,-3.165578 v -8.502889 c 0,-1.803643 -1.464142,-3.239196 -3.303704,-3.239196 H 65.135932 c -1.839563,0          -3.303705,1.435553 -3.303705,3.239196 v 8.502889 c 0,1.582789 1.126263,2.871106 2.590405,3.165578 l          -6.757577,11.300377 h -6.382156 c -1.839562,0 -3.303704,1.435553 -3.303704,3.239196 v 8.50289 c 0,1.803643          1.464142,3.239196 3.303704,3.239196 h 11.262628 c 1.839563,0 3.303704,-1.435553 3.303704,-3.239196 v -8.50289 c          0,-1.803643 -1.464141,-3.239196 -3.303704,-3.239196 h -1.088721 l 6.682493,-11.189949 h 5.218351 l          6.720035,11.189949 h -1.126263 c -1.839563,0 -3.303704,1.435553 -3.303704,3.239196 v 8.50289 c 0,1.803643          1.464141,3.239196 3.303704,3.239196 h 11.262629 c 1.83956,0 3.3037,-1.435553 3.3037,-3.239196 v -8.50289 c          0,-1.803643 -1.46414,-3.276005 -3.3037,-3.276005 z"
   id="path18"
   inkscape:connector-curvature="0"
   style="opacity:1;stroke-width:0.371738;stop-opacity:1"
   class="st2" />

      
    <path
   inkscape:export-ydpi="85.540001"
   inkscape:export-xdpi="85.540001"
   d="M 138.37202,115.60142 110.97493,96.346455 c -2.8415,-2.118522 -5.77649,-2.982891 -8.08132,-2.727428          5.60106,-7.232032 8.63993,-16.326035 7.93359,-25.998099 C 109.24718,46.049246 89.633636,29.784878          67.023942,31.294495 44.414248,32.803 27.365222,51.515109 28.945247,73.084589 30.527579,94.657363          50.138805,110.92063 72.7485,109.41213 c 10.140315,-0.67387 19.154181,-4.81402 25.88054,-11.113419          0.05771,2.212109 1.360736,4.863569 3.95526,7.254059 l 23.79962,23.20571 c 4.06374,3.73714 10.23957,3.66557          13.7297,-0.16296 3.49129,-3.83183 2.70647,-9.67758 -1.7416,-12.9941 M 72.002922,99.197207 C 55.309373,100.30932          40.82832,88.297401 39.66148,72.373271 38.495794,56.44585 51.08405,42.630324 67.776444,41.517116          84.468839,40.401695 98.951046,52.413608 100.11904,68.33994 101.28473,84.266271 88.696471,98.08289          72.002922,99.197207"
   id="path20"
   inkscape:connector-curvature="0"
   style="opacity:1;stroke-width:0.419065;stop-opacity:1"
   class="st2" />

  </svg>
