<svg id="uuid-97c4abbf-9c46-49e9-aa6b-378ef94b6223" xmlns="http://www.w3.org/2000/svg" width="18" height="18" viewBox="0 0 18 18"><defs><linearGradient id="uuid-66cf2b6f-2078-489b-94e9-92705e708a17" x1="7.001" y1="791.516" x2="7.001" y2="777.516" gradientTransform="translate(0 791.516) scale(1 -1)" gradientUnits="userSpaceOnUse"><stop offset=".225" stop-color="#5ea0ef" /><stop offset=".846" stop-color="#0078d4" /></linearGradient><radialGradient id="uuid-0b335d7b-50b8-49ea-8fa0-217ea6354331" cx="-575.314" cy="906.333" r="1" gradientTransform="translate(2829.138 4454.883) scale(4.892 -4.902)" gradientUnits="userSpaceOnUse"><stop offset="0" stop-color="#86d633" /><stop offset=".8" stop-color="#5e9624" /></radialGradient><linearGradient id="uuid-daf28c98-1032-4f26-9270-1a5ae5c122e3" x1="14.514" y1="781.213" x2="14.553" y2="776.295" gradientTransform="translate(0 791.516) scale(1 -1)" gradientUnits="userSpaceOnUse"><stop offset="0" stop-color="#f2f2f2" /><stop offset="1" stop-color="#fff" stop-opacity="0" /></linearGradient><linearGradient id="uuid-58f67108-00e6-4d92-925a-d2d77f0c9695" x1="2.473" y1="784.494" x2="4.473" y2="781.994" gradientTransform="translate(0 791.516) scale(1 -1)" gradientUnits="userSpaceOnUse"><stop offset="0" stop-color="#5ea0ef" /><stop offset=".372" stop-color="#9fc6f5" /><stop offset=".8" stop-color="#e4effc" /><stop offset="1" stop-color="#fff" /></linearGradient><linearGradient id="uuid-fd8a4601-ac22-44fb-a1be-3e748e9fb45a" x1="9.152" y1="781.864" x2="11.652" y2="784.364" gradientTransform="translate(0 791.516) scale(1 -1)" gradientUnits="userSpaceOnUse"><stop offset="0" stop-color="#fff" /><stop offset="1" stop-color="#5ea0ef" /></linearGradient></defs><path d="m11.483,13.992c-.425-.595-.864-1.211-.957-2.064-.019-.161-.028-.328-.025-.495.019-2.007,1.553-3.651,3.5-3.885V1c0-.552-.448-1-1-1H1C.448,0,0,.448,0,1v12c0,.552.448,1,1,1h10.489s-.004-.006-.006-.008Z" fill="url(#uuid-66cf2b6f-2078-489b-94e9-92705e708a17)" /><path d="m11,11.439c-.002.145.006.29.022.434.159,1.462,1.542,2.135,1.938,3.982.029.129.142.222.274.224h2.531c.131-.005.243-.097.274-.224.391-1.847,1.766-2.525,1.937-3.982.219-1.907-1.146-3.631-3.049-3.85-.131-.015-.263-.023-.395-.023h-.071c-1.9.002-3.443,1.536-3.461,3.439Z" fill="url(#uuid-0b335d7b-50b8-49ea-8fa0-217ea6354331)" /><path d="m15.951,9.948c-.453.015-.808.395-.794.849v.457h-1.242v-.457c.01-.459-.353-.839-.811-.849h-.02c-.47.032-.825.439-.793.91.029.426.368.766.793.795h.374v3.539c0,.117.095.213.212.213s.212-.095.212-.213v-3.538h1.271v3.538c.008.117.109.206.226.198.106-.007.19-.092.197-.198v-3.538h.374c.453-.014.809-.394.795-.849.019-.454-.333-.836-.786-.855h-.009v-.002Zm-2.493,1.303h-.325c-.25.031-.478-.147-.51-.398-.032-.251.147-.479.397-.51.25-.03.403.148.433.398.002.019.002.038,0,.057l.004.454h.001Zm2.52,0h-.4v-.477c-.037-.22.11-.428.33-.466.22-.038.427.11.465.33.002.012.004.025.005.037.003.033.003.065,0,.098.025.236-.144.449-.379.477h-.021Z" fill="url(#uuid-daf28c98-1032-4f26-9270-1a5ae5c122e3)" /><path d="m15.228,17.934l.476-.513v-1.372h-2.376v1.372l.476.513c.029.034.068.057.111.066h1.174c.053-.002.103-.026.139-.066Z" fill="#bababa" /><path d="m1.947,6.868l.347-.346,2.731,2.739c.061.061.061.161,0,.222l-.347.346c-.061.061-.161.061-.222,0l-2.51-2.517c-.122-.123-.122-.322,0-.444h.001Z" fill="url(#uuid-58f67108-00e6-4d92-925a-d2d77f0c9695)" /><path d="m2.288,7.659l-.346-.347c-.122-.123-.122-.322,0-.444l2.561-2.554c.061-.061.161-.061.222,0l.346.347c.061.061.061.161,0,.222l-2.784,2.776h.001Z" fill="#f2f2f2" /><path d="m9.323,9.831l-.347-.346c-.061-.061-.062-.161,0-.222l2.735-2.742.347.346c.123.122.123.321,0,.444l-2.514,2.521c-.061.061-.161.062-.222,0h.001Z" fill="url(#uuid-fd8a4601-ac22-44fb-a1be-3e748e9fb45a)" /><path d="m8.923,4.663l.346-.347c.061-.061.161-.062.222,0l2.561,2.554c.123.122.123.321,0,.444l-.346.347-2.781-2.774c-.063-.06-.065-.159-.005-.222l.002-.002h.001Z" fill="#f2f2f2" /><path d="m7.795,3.348l-2.259,7.057c-.019.059.014.122.073.141l.554.177c.059.019.122-.014.141-.073l2.259-7.057c.019-.059-.014-.122-.073-.141l-.554-.177c-.059-.019-.122.014-.141.073Z" fill="#f2f2f2" /></svg>