<svg
	xmlns="http://www.w3.org/2000/svg" width="17.75" height="16.642">
	<defs>
		<linearGradient id="A" x1="8.952" y1="11.891" x2="8.709" y2="-.008" gradientUnits="userSpaceOnUse">
			<stop offset="0" stop-color="#2889e0"/>
			<stop offset="1" stop-color="#50e6ff"/>
		</linearGradient>
		<linearGradient id="B" x1="13.871" y1="15.898" x2="8.332" y2="6.184" gradientUnits="userSpaceOnUse">
			<stop offset="0" stop-color="#704cb3"/>
			<stop offset="1" stop-color="#c398e9"/>
		</linearGradient>
	</defs>
	<path d="M17.725 9.032c-.545 1.979-1.868 2.634-3.293 3.239a1.825 1.825 0 0 1-.694.119H7.589c-1.159 0-2.923-.019-3.747-.028a1.946 1.946 0 0 1-.875-.2 5 5 0 0 1-2.939-4.01c-.082-.73-.259-3.707 4.086-4.853A5.33 5.33 0 0 1 9.182.002a5.045 5.045 0 0 1 5.068 4.73c1.448.29 3.765 1.72 3.475 4.3z" fill="url(#A)"/>
	<path d="M16.639 11.188a5.454 5.454 0 1 1-5.454-5.454 5.454 5.454 0 0 1 5.454 5.454z" fill="#fff"/>
	<path d="M11.185 15.922a4.736 4.736 0 1 0-4.736-4.736 4.736 4.736 0 0 0 4.736 4.736zm0 .717a5.454 5.454 0 1 0-5.453-5.453 5.453 5.453 0 0 0 5.453 5.453z" fill-rule="evenodd" fill="url(#B)"/>
	<g fill="#417be9">
		<path d="M13.207 10.222a1.127 1.127 0 0 0-1.124 1.129 2.39 2.39 0 1 1-4.082-1.693 2.371 2.371 0 0 1 1.405-.689v.57a1.835 1.835 0 1 0 2.114 1.812 1.687 1.687 0 0 1 3.368-.141h-.565a1.127 1.127 0 0 0-1.116-.988z"/>
		<path d="M11.851 12.383A2.391 2.391 0 1 1 9.406 8.97v.57a1.835 1.835 0 1 0 2.114 1.812 1.7 1.7 0 0 1 .338-1.017 1.686 1.686 0 0 1 3.017.787c0 .031.007.062.01.093h-.565a1.124 1.124 0 0 0-2.24.141 2.4 2.4 0 0 1-.232 1.031zM9.468 8.9a.1.1 0 0 1 .031.07v.57a.092.092 0 0 1-.078.091 1.743 1.743 0 0 0 .272 3.463 1.7 1.7 0 0 0 .809-.2 1.742 1.742 0 0 0 .926-1.541 1.779 1.779 0 0 1 3.552-.149.091.091 0 0 1-.084.1h-.573a.092.092 0 0 1-.092-.081 1.032 1.032 0 0 0-2.056.13 2.482 2.482 0 1 1-4.24-1.759 2.474 2.474 0 0 1 1.46-.715.094.094 0 0 1 .073.023z" fill-rule="evenodd"/>
	</g>
	<g fill="#1453c8">
		<path d="M13.192 13.092a1.667 1.667 0 0 1-.777-.192l.287-.516a1.111 1.111 0 0 0 .49.114 1.153 1.153 0 0 0 1.11-.89h.586a1.739 1.739 0 0 1-1.696 1.484z"/>
		<path d="M12.326 12.922a.092.092 0 0 1 .008-.071l.287-.515a.093.093 0 0 1 .122-.039 1.018 1.018 0 0 0 .45.105 1.063 1.063 0 0 0 1.02-.82.092.092 0 0 1 .09-.071h.585a.093.093 0 0 1 .093.093.077.077 0 0 1 0 .015 1.83 1.83 0 0 1-1.786 1.561 1.75 1.75 0 0 1-.821-.2.1.1 0 0 1-.048-.058zm2.549-1.221a1.733 1.733 0 0 1-1.677 1.391 1.674 1.674 0 0 1-.778-.192l.287-.516a1.113 1.113 0 0 0 .491.114 1.155 1.155 0 0 0 1.11-.89h.585q-.013.047-.018.093z" fill-rule="evenodd"/>
	</g>
	<g fill="#88aef1">
		<path d="M11.175 10.289a1.891 1.891 0 0 0-.356-.359 1.927 1.927 0 0 0-1.044-.393V8.97a2.533 2.533 0 0 1 1.157.35 2.478 2.478 0 0 1 .656.566z"/>
		<path d="M11.164 10.381a.092.092 0 0 1-.066-.036 1.738 1.738 0 0 0-.339-.341 1.818 1.818 0 0 0-.989-.374.094.094 0 0 1-.086-.093V8.97a.093.093 0 0 1 .091-.093h.006a2.623 2.623 0 0 1 1.2.364 2.56 2.56 0 0 1 .681.587.091.091 0 0 1-.008.125l-.418.4a.094.094 0 0 1-.072.025zm-.05-.165l.058.073.418-.4a2.5 2.5 0 0 0-1.815-.919v.567a1.911 1.911 0 0 1 1.337.679z" fill-rule="evenodd"/>
	</g>
</svg>