<svg
	xmlns="http://www.w3.org/2000/svg" width="16.099" height="16.804">
	<defs>
		<linearGradient id="A" x1="5.186" y1=".065" x2="5.324" y2="12.802" gradientUnits="userSpaceOnUse">
			<stop offset="0" stop-color="#5ea0ef"/>
			<stop offset="1" stop-color="#0078d4"/>
		</linearGradient>
		<linearGradient id="B" x1="12.309" y1="4.763" x2="12.309" y2="16.805" gradientUnits="userSpaceOnUse">
			<stop offset=".001" stop-color="#ffbd02"/>
			<stop offset="1" stop-color="#ffd400"/>
		</linearGradient>
	</defs>
	<path d="M10.629 11.8L8.642 9.825l-.053-.052a1.778 1.778 0 0 1 .052-2.511l.73-.732-.565-.822a.48.48 0 0 1-.084-.272V1.408a.239.239 0 0 1 .239-.239h.224A.479.479 0 0 0 9.664.69V.474A.478.478 0 0 0 9.185 0H3.877a.479.479 0 0 0-.479.479V.69a.48.48 0 0 0 .479.479h.224a.24.24 0 0 1 .24.239v4.018a.485.485 0 0 1-.084.271l-4.172 6.08c-.218.318.01.934.4.934h10.144z" fill="url(#A)"/>
	<path d="M15.681 9.523a1.356 1.356 0 0 0 .042-1.917l-.042-.042-2.413-2.386a1.355 1.355 0 0 0-1.918-.035l-.035.035-2.378 2.386a1.354 1.354 0 0 0-.042 1.916l.042.043 2 1.986a.365.365 0 0 1 .113.271v3.694a.474.474 0 0 0 .135.332l.9.9a.305.305 0 0 0 .431.017l.016-.017.874-.874.516-.515a.191.191 0 0 0 0-.258l-.373-.373a.2.2 0 0 1 0-.277l.373-.373a.191.191 0 0 0 0-.258l-.373-.373a.2.2 0 0 1 0-.277l.373-.373a.184.184 0 0 0 0-.251l-.516-.522v-.19zm-3.389-2.2a.787.787 0 0 1-.014-1.573h.014a.787.787 0 0 1 0 1.573z" fill="url(#B)"/>
	<g fill="#faa21d">
		<path d="M11.675 15.528h0a.17.17 0 0 0 .285-.128v-2.983a.182.182 0 0 0-.081-.149h0a.17.17 0 0 0-.258.149V15.4a.166.166 0 0 0 .054.128z"/>
		<rect x="10.387" y="8.357" width="3.911" height=".461" rx=".21"/>
		<rect x="10.387" y="9.109" width="3.911" height=".461" rx=".21"/>
	</g>
	<path d="M8.688 9.782l-.053-.053a1.7 1.7 0 0 1-.022-2.338l-.7-1.011a.783.783 0 0 1-.137-.442V3.951a.368.368 0 0 0-.368-.368h-1.8a.369.369 0 0 0-.369.368v1.861a1.163 1.163 0 0 1-.2.656l-3.169 4.62a.276.276 0 0 0 .227.432h8.337z" fill="#fff"/>
</svg>