<svg id="Layer_1" data-name="Layer 1" xmlns="http://www.w3.org/2000/svg" viewBox="0 0 480.62 85.39"><defs><style>.cls-1{fill:#ed1944;}.cls-2{fill:#4e4540;}</style></defs><title>OpenStack_Logo_Horizontal</title><path class="cls-1" d="M234.37,262.07h-71a8.13,8.13,0,0,0-8.11,8.11v19.1h19.7v-3.12a4.4,4.4,0,0,1,4.39-4.39h39.07a4.39,4.39,0,0,1,4.38,4.39v3.12h19.71v-19.1A8.13,8.13,0,0,0,234.37,262.07Z" transform="translate(-155.23 -262.07)"/><path class="cls-1" d="M222.77,323.37a4.39,4.39,0,0,1-4.38,4.39H179.32a4.4,4.4,0,0,1-4.39-4.39v-3.12h-19.7v19.1a8.13,8.13,0,0,0,8.11,8.11h71a8.13,8.13,0,0,0,8.11-8.11v-19.1H222.77Z" transform="translate(-155.23 -262.07)"/><rect class="cls-1" y="32.84" width="19.7" height="19.7"/><rect class="cls-1" x="67.55" y="32.84" width="19.7" height="19.7"/><path class="cls-2" d="M635.85,321.32a5.55,5.55,0,1,0-5.54,5.54A5.55,5.55,0,0,0,635.85,321.32Zm-5.54,4.18a4.19,4.19,0,1,1,4.18-4.18A4.18,4.18,0,0,1,630.31,325.5Z" transform="translate(-155.23 -262.07)"/><path class="cls-2" d="M632.39,320.31v0a1.75,1.75,0,0,0-.46-1.26,2,2,0,0,0-1.48-.52h-2v5.43h1.13v-1.78h.7l1,1.78h1.29l-1.15-2A1.66,1.66,0,0,0,632.39,320.31Zm-1.14,0a.78.78,0,0,1-.88.82h-.83v-1.64h.8c.58,0,.91.27.91.81Z" transform="translate(-155.23 -262.07)"/><path class="cls-2" d="M302.94,305.14v-.75c0-13.11-8.6-22.63-20.3-22.63s-20.46,9.68-20.46,22.71v.76c0,13.11,8.6,22.55,20.3,22.55S302.94,318.17,302.94,305.14ZM271.62,305v-.51c0-8.27,4.26-14.36,10.86-14.36,6.43,0,11,6.18,11,14.45v.5c0,8.27-4.26,14.45-10.86,14.45C276.21,319.51,271.62,313.24,271.62,305Z" transform="translate(-155.23 -262.07)"/><path class="cls-2" d="M347.87,305.31v-1.17c0-14.95-8.35-22.38-17.21-22.38-6.34,0-10.19,3.67-12.94,7.93v-7.1h-9.44v56.88h9.44V320.18c2.67,3.92,6.51,7.51,12.94,7.51C339.6,327.69,347.87,320.18,347.87,305.31Zm-30.32-.17v-.83c0-8.69,4.84-14.2,10.52-14.2s10.28,5.43,10.28,14.28v.75c0,8.86-4.51,14.2-10.28,14.2S317.55,313.83,317.55,305.14Z" transform="translate(-155.23 -262.07)"/><path class="cls-2" d="M388.76,320.93l-4.92-5.85c-2.93,2.84-6,4.68-10.19,4.68-5.77,0-10.36-4-11.2-11.44h27.73c.09-1.34.09-2.68.09-3.26,0-13.28-6.35-23.3-18.38-23.3-10.86,0-18.87,9.52-18.87,22.8v.67c0,13.86,8.85,22.55,20.21,22.55A20.34,20.34,0,0,0,388.76,320.93Zm-16.87-31.24c5.51,0,8.69,5.1,9.19,12.11H362.37C363,294.28,366.71,289.69,371.89,289.69Z" transform="translate(-155.23 -262.07)"/><path class="cls-2" d="M418,281.76c-6,0-9.6,3.42-12.11,7.35v-6.52h-9.44v44.27h9.44V300.05c0-6.1,3.42-9.77,8.35-9.77s7.94,3.42,7.94,9.6v27h9.43V297.21C431.59,287.77,426.5,281.76,418,281.76Z" transform="translate(-155.23 -262.07)"/><path class="cls-2" d="M469.64,314.25v-.09c0-6.93-5.18-10.1-12-13.19-5.18-2.34-8.68-3.85-8.68-6.77V294c0-2.42,2.08-4.34,5.59-4.34s7.18,1.67,10.52,3.93l4-6.94a25.29,25.29,0,0,0-14.36-4.76c-8.27,0-14.62,5-14.62,12.95V295c0,7.26,5.51,10.27,12.11,13.11,5.26,2.25,8.69,3.67,8.69,6.85v.08c0,2.76-2.26,4.85-6.18,4.85s-8.19-1.93-12.2-5.18l-4.42,6.76a26.11,26.11,0,0,0,16.45,6.18C463,327.69,469.64,322.93,469.64,314.25Z" transform="translate(-155.23 -262.07)"/><path class="cls-2" d="M498.86,325.61v-7.77a10.71,10.71,0,0,1-5.09,1.25c-3,0-4.76-1.42-4.76-4.84V290.69H499v-8.1H489V270.65h-9.44v11.94h-4.85l1.56,8.1h3.29v25.48c0,8.6,4.93,11.36,11.44,11.36A16.12,16.12,0,0,0,498.86,325.61Z" transform="translate(-155.23 -262.07)"/><path class="cls-2" d="M535,286.6c-2.84-2.92-7.27-4.51-13-4.51a31.47,31.47,0,0,0-14.62,3.51l2.67,7.52a25.14,25.14,0,0,1,10.69-2.68c6,0,9.52,3.09,9.52,9v1.84a30.13,30.13,0,0,0-10.19-1.75c-9.35,0-15.7,4.67-15.7,14.19v.42c0,8.61,6.18,13.53,13.53,13.53a14.07,14.07,0,0,0,12.28-6.26v5.43h9.27V299.38C539.45,293.87,538,289.52,535,286.6ZM530.35,312c0,5-4.18,8.69-9.61,8.6-4.09-.08-7.18-2.59-7.18-7v-.17c0-4.68,3.17-7.43,8.6-7.43a21.47,21.47,0,0,1,8.19,1.58Z" transform="translate(-155.23 -262.07)"/><path class="cls-2" d="M579.57,321.09l-5.09-6.26c-2.59,2.59-5.18,4.51-9,4.51-6.44,0-11-5.76-11-14.36v-.42c0-8.36,4.51-14.28,10.7-14.28,4,0,6.59,2,8.93,4.42l5.26-6.93a18.66,18.66,0,0,0-14.19-6c-11.61,0-20.22,9.52-20.22,22.71v.84c0,13.2,8.36,22.47,19.88,22.47A18.51,18.51,0,0,0,579.57,321.09Z" transform="translate(-155.23 -262.07)"/><polygon class="cls-2" points="453.23 41.81 446.6 48.93 455.49 64.79 466.43 64.79 453.23 41.81"/><polygon class="cls-2" points="454.82 20.52 439.7 39.98 439.7 4.48 430.27 4.48 430.27 64.79 439.7 64.79 439.7 52.01 466.01 20.52 454.82 20.52"/></svg>