<svg xmlns="http://www.w3.org/2000/svg" width="55" height="55" style="" viewBox="0 0 55 55">  
<g class="currentLayer" style=""><title>Layer 1</title>
    <circle class="frame" r="25" style="fill:white;fill-opacity=0.0;stroke-width:3;stroke:black" cy="27.395854949951172" cx="28.040435791015625" id="svg_2"/><g class="node" fill="white" id="svg_1">
    <circle class="frame" r="12.625" style="fill:white;fill-opacity=0.0;stroke-width:3;stroke:black" cy="27.50000006039729" cx="19.665435659599986" id="svg_2"/>
    <path class="svgpath" d="m26.10634902169861,28.154480053827136 l-5.18043463041612,0 l0,5.18043402441612 l1.2604799996146188,-1.2604787876146188 l3.8229946308311464,3.822993418831147 l2.6594734191868854,-2.6594746311868844 l-3.822994024831147,-3.822993418831147 zm-12.881828593461472,-2.5209593932292353 l5.180433963816119,0 l0,-5.180434812216119 l-1.2604799996146188,1.2604799996146188 L13.321480428207495,17.890571356545262 L10.66200640302061,20.55004584835215 L14.485000427851757,24.373040054983296 zm-1.8837940254240446,4.404754024653278 l0,5.18043402441612 l5.180433963816119,0 L15.260680427614595,33.95822931605269 L19.083674391845747,30.12138334322578 L16.43805170865462,27.475760054034655 L12.601206402427717,31.298755290865806 zM27.990143047122658,23.74972590797386 l0,-5.1804343092361185 l-5.18043463041612,0 l1.2604799996146188,1.2604799208346191 l-3.822994024831147,3.8229943884311473 l2.6594746311868844,2.6594747523868847 l3.822994024831147,-3.8229948126311477 z" fill="black" id="svg_3"/>
  </g><path fill="#000000" stroke="none" stroke-dashoffset="" fill-rule="nonzero" marker-start="" marker-mid="" marker-end="" id="svg_6" d="M47.59966876160743,25.819707029849646 C46.945454341062,22.235388191863994 43.815066059706005,19.51734904210092 40.043630809064865,19.51734904210092 L40.043630809064865,22.28944404440929 C42.758204840075216,22.293602186912953 44.953704081903425,24.490487476241892 44.95994129565895,27.20575453100429 C44.953704081903425,29.920328562014415 42.758204840075216,32.11582780384269 40.043630809064865,32.12137199384652 L40.043630809064865,34.89485304365664 C43.815066059706005,34.89208094865384 46.945454341062,32.174041798890514 47.59966876160743,28.591109008407063 L50.849950151813744,28.591109008407063 L50.849950151813744,25.819707029849646 L47.59966876160743,25.819707029849646 zM44.352852490153964,27.20575453100429 C44.352852490153964,24.825217947771055 42.42347436854701,22.895839826164217 40.04293778531479,22.895839826164217 C38.148903874987326,22.895839826164217 36.54316784490032,24.119719769684146 35.96518603691924,25.819014006097817 L31.22906172547536,25.819014006097817 L31.22906172547536,28.591802032158014 L35.96518603691924,28.591802032158014 C36.54247482114939,30.291096268572208 38.14821085123725,31.515669235842303 40.04293778531479,31.515669235842303 C42.42347436854701,31.515669235842303 44.352852490153964,29.585598090484503 44.352852490153964,27.20575453100429 z" style="color: rgb(0, 0, 0);" class="" fill-opacity="1"/></g></svg>