<svg xmlns="http://www.w3.org/2000/svg" version="1.0" width="55" height="55" preserveAspectRatio="xMidYMid meet" style="background-color: #FFFFFF;" viewBox="0 0 55 55">
<g class="currentLayer" style=""><title>Layer 1</title><circle class="frame" r="25" style="fill:white;fill-opacity=0.0;stroke-width:3;stroke:black" cy="27.395854949951172" cx="28.040435791015625" id="svg_2"/><g transform="translate(0,300) scale(0.10000000149011612,-0.10000000149011612) " fill="black" stroke="none" id="svg_1" class="selected">
<path d="M120.5738579881403,2859.3283620439174 c-1.2407686540451988,-0.9305764905339008 -2.1713451445790994,-63.899585683327665 -2.1713451445790994,-139.58647358008471 l0,-137.41512843550564 l37.22305962135592,0 l37.22305962135592,0 l0,139.58647358008471 l0,139.58647358008471 l-35.05171447677682,0 c-19.54210630121186,0 -36.29248313082203,-0.9305764905339008 -37.22305962135592,-2.1713451445790994 z" id="svg_3"/>
<path d="M251.78514315341982,2722.2234257719224 l0,-139.8966657435961 l35.672098803799436,0 l35.672098803799436,0 l0,46.52882452669491 l0,46.52882452669491 l33.50075365922034,0 c31.32940851464124,0 64.51997001035028,5.893651106714691 68.86266029950843,12.407686540451971 c0.9305764905339008,1.2407686540451988 4.652882452669492,3.7223059621355947 8.375188414805088,5.5834589432033885 c10.546533559384182,5.893651106714691 25.43575740792654,34.74152231326553 28.227486879528247,55.21420510501131 c6.2038432702259865,48.38997750776272 -7.754804087782489,81.58053900347174 -43.116710728070615,100.50226097766102 l-19.85229846472317,10.856725722895476 l-73.51554275217796,0.9305764905339008 l-73.82573491568924,1.2407686540451988 l0,-139.8966657435961 zm127.48897920314405,71.65438977111015 c7.134419760759885,-7.754804087782489 8.995572741827683,-13.028070867474579 8.995572741827683,-23.884796590370055 c0,-28.537679043039542 -11.78730221342938,-38.77402043891242 -44.97786370913841,-38.77402043891242 l-20.162490628234462,0 l0,37.533251784867225 l0,37.533251784867225 l23.574604426858755,-1.2407686540451988 c22.023643609302262,-0.9305764905339008 24.19498875388136,-1.8611529810677978 32.57017716868643,-11.166917886406777 z" id="svg_4"/>
</g></g></svg>