<svg xmlns="http://www.w3.org/2000/svg" version="1.0" width="55" height="55" preserveAspectRatio="xMidYMid meet" style="background-color: #FFFFFF;"  viewBox="0 0 55 55">
<g class="currentLayer" style=""><title>Layer 1</title>
    <circle class="frame" r="25" style="fill:white;fill-opacity=0.0;stroke-width:3;stroke:black" cy="27.395854949951172" cx="28.040435791015625" id="svg_10"/><g transform="translate(0,300) scale(0.10000000149011612,-0.10000000149011612) " fill="black" stroke="none" id="svg_1" class="">
<path d="M73.43005481851496,2793.68121656637 c-0.7376603460893751,-0.572850248168003 -1.2909056056564006,-39.335717040869156 -1.2909056056564006,-85.92753722519961 l0,-84.59088664614097 l22.129810382681107,0 l22.129810382681107,0 l0,85.92753722519961 l0,85.92753722519961 l-20.838904777024716,0 c-11.618150450907581,0 -21.576565123114086,-0.572850248168003 -22.129810382681107,-1.3366505790586638 z" id="svg_3"/>
<path d="M151.43763641746582,2709.28128000295 l0,-86.11848730792234 l21.2077349500694,0 l21.2077349500694,0 l0,28.642512408399885 l0,28.642512408399885 l19.91682934441301,0 c18.625923738756608,0 38.35833799664728,3.6280515717306523 40.940149207960054,7.638003308906633 c0.5532452595670327,0.7638003308906686 2.7662262978351415,2.2914009926719934 4.9792073361032525,3.4371014890079876 c6.270112941759652,3.6280515717306523 15.122037094832088,21.386409264938575 16.781772873533182,33.98911472463453 c3.6883017304468533,29.788212904735886 -4.610377163058569,50.21987175606112 -25.633697026605624,61.86782680214374 l-11.802565537429933,6.683252895293302 l-43.70637550579518,0.572850248168003 l-43.890790592317536,0.7638003308906686 l0,-86.11848730792234 zm75.79460056068281,44.10946910893581 c4.241546990013879,-4.773752068066649 5.3480375091479395,-8.01990347435197 5.3480375091479395,-14.70315636964527 c0,-17.567407610485258 -7.00777328784902,-23.868760340333232 -26.740187545739683,-23.868760340333232 l-11.986980623952274,0 l0,23.104960009442575 l0,23.104960009442575 l14.015546575698037,-0.7638003308906686 c13.093471143086331,-0.572850248168003 14.384376748742728,-1.1457004963359974 19.36358408484597,-6.8742029780159735 z" id="svg_4"/>
</g><path fill="black" stroke-dashoffset="" fill-rule="nonzero" marker-start="" marker-mid="" marker-end="" id="svg_2" d="M45.965529815408615,26.841936375753523 C45.21500190113627,22.72993386238995 41.62375763337492,19.61174479483166 37.29709141571743,19.61174479483166 L37.29709141571743,22.79194782140821 C40.411305229492584,22.796718125948065 42.930026026541015,25.317029024510102 42.93718148335102,28.432037889041855 C42.930026026541015,31.54625170281691 40.411305229492584,34.064972499865696 37.29709141571743,34.07133290591881 L37.29709141571743,37.253126034008694 C41.62375763337492,37.24994583098206 45.21500190113627,34.13175676342374 45.965529815408615,30.021344351573497 L49.69431786406975,30.021344351573497 L49.69431786406975,26.841936375753523 L45.965529815408615,26.841936375753523 zM42.24071702053075,28.432037889041855 C42.24071702053075,25.70103853996914 40.02729571403312,23.487617233471852 37.29629636496075,23.487617233471852 C35.123422647052195,23.487617233471852 33.281290043907795,24.891676869705492 32.61821771286654,26.841141324996947 L27.184840841960398,26.841141324996947 L27.184840841960398,30.022139402330172 L32.61821771286654,30.022139402330172 C33.280494993151095,31.971603857621673 35.122627596295686,33.37645854461187 37.29629636496075,33.37645854461187 C40.02729571403312,33.37645854461187 42.24071702053075,31.16224218735782 42.24071702053075,28.432037889041855 z" style="color: rgb(0, 0, 0);" class=""/></g></svg>