<svg id="Layer_1" data-name="Layer 1" xmlns="http://www.w3.org/2000/svg" viewBox="0 0 469.32 226.47"><defs><style>.cls-1{fill:#4e4540;}.cls-2{opacity:0.98;}.cls-3{fill:#ed1944;}</style></defs><title>OpenStack_Logo_Vertical</title><path class="cls-1" d="M631.58,390.79a7,7,0,1,0-7,7A7,7,0,0,0,631.58,390.79Zm-7,5.25a5.25,5.25,0,1,1,5.25-5.25A5.26,5.26,0,0,1,624.62,396Z" transform="translate(-162.25 -187.13)"/><path class="cls-1" d="M627.23,389.53v0a2.17,2.17,0,0,0-.58-1.58,2.53,2.53,0,0,0-1.85-.65h-2.56v6.82h1.41v-2.24h.89l1.25,2.24h1.62L626,391.55A2.07,2.07,0,0,0,627.23,389.53Zm-1.43,0a1,1,0,0,1-1.11,1h-1v-2h1c.73,0,1.14.34,1.14,1Z" transform="translate(-162.25 -187.13)"/><path class="cls-1" d="M213.46,370.47v-.94c0-16.48-10.81-28.44-25.5-28.44s-25.71,12.18-25.71,28.55v.94c0,16.47,10.81,28.33,25.5,28.33S213.46,386.84,213.46,370.47Zm-39.35-.21v-.62c0-10.39,5.35-18.05,13.64-18.05,8.08,0,13.85,7.76,13.85,18.15v.63c0,10.39-5.35,18.15-13.64,18.15C179.88,388.52,174.11,380.65,174.11,370.26Z" transform="translate(-162.25 -187.13)"/><path class="cls-1" d="M269.9,370.68v-1.46c0-18.79-10.49-28.13-21.61-28.13-8,0-12.8,4.62-16.27,10v-8.92H220.17V413.6H232V389.36c3.36,4.93,8.19,9.44,16.27,9.44C259.52,398.8,269.9,389.36,269.9,370.68Zm-38.09-.21v-1.05c0-10.91,6.09-17.83,13.23-17.83s12.9,6.82,12.9,17.94v.94c0,11.13-5.66,17.84-12.9,17.84S231.81,381.39,231.81,370.47Z" transform="translate(-162.25 -187.13)"/><path class="cls-1" d="M321.28,390.31,315.09,383c-3.67,3.57-7.55,5.88-12.8,5.88-7.24,0-13-5-14.06-14.38h34.84c.1-1.68.1-3.36.1-4.09,0-16.68-8-29.28-23.08-29.28-13.65,0-23.72,12-23.72,28.65v.84c0,17.42,11.12,28.33,25.4,28.33A25.56,25.56,0,0,0,321.28,390.31Zm-21.19-39.25c6.92,0,10.91,6.4,11.54,15.22H288.12C289,356.83,293.58,351.06,300.09,351.06Z" transform="translate(-162.25 -187.13)"/><path class="cls-1" d="M358,341.09c-7.56,0-12.07,4.31-15.22,9.24v-8.19H330.92v55.62h11.85V364.07c0-7.66,4.31-12.27,10.5-12.27s10,4.3,10,12.06v33.9h11.86V360.51C375.09,348.65,368.69,341.09,358,341.09Z" transform="translate(-162.25 -187.13)"/><path class="cls-1" d="M422.89,381.91v-.1c0-8.71-6.51-12.7-15.11-16.58-6.51-2.94-10.92-4.83-10.92-8.5v-.21c0-3,2.63-5.46,7-5.46s9,2.1,13.22,4.93l5-8.71a31.81,31.81,0,0,0-18-6c-10.38,0-18.36,6.3-18.36,16.27v.21c0,9.13,6.93,12.9,15.22,16.47,6.61,2.83,10.91,4.62,10.91,8.61v.1c0,3.46-2.83,6.09-7.77,6.09s-10.28-2.42-15.32-6.51l-5.56,8.5a32.82,32.82,0,0,0,20.67,7.76C414.6,398.8,422.89,392.82,422.89,381.91Z" transform="translate(-162.25 -187.13)"/><path class="cls-1" d="M459.6,396.18v-9.76a13.42,13.42,0,0,1-6.4,1.58c-3.78,0-6-1.79-6-6.09V352.32h12.49V342.14H447.22v-15H435.36v15h-6.08l1.94,10.18h4.14v32c0,10.81,6.19,14.28,14.38,14.28A20.16,20.16,0,0,0,459.6,396.18Z" transform="translate(-162.25 -187.13)"/><path class="cls-1" d="M505,347.18c-3.57-3.67-9.13-5.67-16.37-5.67a39.57,39.57,0,0,0-18.36,4.41l3.36,9.44A31.75,31.75,0,0,1,487.09,352c7.55,0,12,3.88,12,11.33v2.31a37.79,37.79,0,0,0-12.8-2.21c-11.75,0-19.73,5.88-19.73,17.84v.53c0,10.8,7.77,17,17,17,7.24,0,12.17-3.14,15.43-7.86v6.82h11.64V363.23C510.59,356.31,508.7,350.85,505,347.18Zm-5.87,31.9c0,6.29-5.25,10.91-12.07,10.81-5.14-.11-9-3.26-9-8.82v-.21c0-5.87,4-9.34,10.8-9.34a26.68,26.68,0,0,1,10.29,2Z" transform="translate(-162.25 -187.13)"/><path class="cls-1" d="M561,390.52l-6.4-7.87c-3.26,3.25-6.51,5.66-11.34,5.66-8.08,0-13.74-7.24-13.74-18.05v-.52c0-10.49,5.66-17.94,13.43-17.94,5,0,8.29,2.52,11.23,5.56l6.61-8.71c-4.62-4.62-9.87-7.56-17.84-7.56-14.59,0-25.39,12-25.39,28.55v1c0,16.58,10.49,28.23,25,28.23C551,398.91,556.59,395.45,561,390.52Z" transform="translate(-162.25 -187.13)"/><polygon class="cls-1" points="435.03 181.76 426.71 190.71 437.87 210.63 451.62 210.63 435.03 181.76"/><polygon class="cls-1" points="437.03 155.02 418.04 179.47 418.04 134.87 406.19 134.87 406.19 210.63 418.04 210.63 418.04 194.57 451.1 155.02 437.03 155.02"/><g class="cls-2"><path class="cls-3" d="M436.46,187.13H341.83a10.83,10.83,0,0,0-10.8,10.8v25.45h26.25v-4.16a5.83,5.83,0,0,1,5.84-5.84h52.05a5.83,5.83,0,0,1,5.84,5.84v4.16h26.25V197.93A10.83,10.83,0,0,0,436.46,187.13Z" transform="translate(-162.25 -187.13)"/><path class="cls-3" d="M421,268.8a5.84,5.84,0,0,1-5.84,5.84H363.12a5.84,5.84,0,0,1-5.84-5.84v-4.16H331v25.45a10.83,10.83,0,0,0,10.8,10.8h94.63a10.83,10.83,0,0,0,10.8-10.8V264.64H421Z" transform="translate(-162.25 -187.13)"/><rect class="cls-3" x="168.77" y="43.76" width="26.25" height="26.25"/><rect class="cls-3" x="258.76" y="43.76" width="26.25" height="26.25"/></g></svg>