<?xml version="1.0" standalone="no"?>
<!DOCTYPE svg PUBLIC "-//W3C//DTD SVG 20010904//EN"
 "http://www.w3.org/TR/2001/REC-SVG-20010904/DTD/svg10.dtd">
<svg version="1.0" xmlns="http://www.w3.org/2000/svg"
 width="300.000000pt" height="300.000000pt" viewBox="0 0 300.000000 300.000000"
 preserveAspectRatio="xMidYMid meet" style="background-color: #FFFFFF;">
<g transform="translate(0.000000,300.000000) scale(0.100000,-0.100000)"
fill="#808080" stroke="none">
<path d="M1375 2904 c-102 -11 -229 -37 -320 -65 -98 -30 -259 -108 -319 -155
-17 -13 -68 -49 -113 -81 -89 -63 -209 -194 -295 -321 -112 -167 -190 -371
-217 -566 -14 -99 -14 -322 0 -423 18 -132 74 -335 98 -353 4 -3 20 -36 35
-74 16 -37 48 -93 71 -125 23 -31 46 -64 51 -74 14 -25 118 -142 184 -206 65
-63 248 -185 352 -234 203 -97 363 -131 608 -130 289 0 476 54 750 216 85 51
129 86 237 193 73 73 133 138 133 145 0 8 18 34 40 59 24 28 65 101 109 195
55 120 75 178 101 290 53 234 52 382 -6 638 -33 148 -156 422 -201 450 -7 4
-13 13 -13 18 0 18 -91 131 -162 201 -137 135 -328 259 -492 319 -165 61 -467
101 -631 83z m445 -119 c117 -29 268 -93 368 -157 37 -24 79 -49 94 -57 15 -8
79 -65 142 -127 107 -106 176 -196 227 -296 12 -24 25 -45 30 -48 23 -15 111
-289 129 -400 14 -91 12 -331 -4 -420 -21 -116 -101 -354 -125 -369 -5 -4 -25
-38 -44 -77 -20 -39 -62 -105 -95 -145 -56 -72 -238 -248 -279 -272 -170 -99
-312 -161 -453 -199 -119 -31 -133 -33 -305 -32 -196 0 -257 10 -439 73 -120
42 -295 135 -361 192 -11 10 -47 40 -80 67 -33 27 -80 75 -105 107 -25 31 -63
79 -86 106 -63 75 -169 296 -196 409 -13 52 -26 97 -29 100 -10 8 -29 177 -29
260 0 92 17 245 30 268 5 9 19 55 31 102 39 153 89 254 221 440 18 25 70 84
117 131 74 73 115 105 256 197 48 31 230 113 296 133 127 38 221 49 409 44
146 -3 192 -8 280 -30z"/>
<path d="M1350 2268 c0 -1 10 -28 22 -58 17 -43 22 -75 22 -145 -1 -154 -36
-196 -133 -161 -47 17 -83 21 -94 10 -3 -3 3 -20 14 -37 35 -59 23 -120 -37
-187 -33 -36 -38 -50 -42 -101 -2 -32 -1 -79 2 -104 l7 -45 60 0 c58 0 97 -12
111 -33 13 -20 38 14 38 52 1 48 30 111 83 174 67 81 68 83 76 134 l7 48 22
-35 c29 -46 28 -105 -3 -175 -26 -59 -24 -85 10 -118 40 -41 105 0 105 66 0
47 12 47 47 1 20 -27 27 -48 27 -75 l-1 -39 108 0 109 0 0 28 c0 30 -25 80
-78 158 -44 65 -47 85 -27 145 22 70 29 138 16 171 -10 27 -83 88 -105 88 -7
0 -11 -22 -12 -55 0 -38 -6 -61 -19 -75 -37 -41 -103 -12 -91 39 4 14 9 56 13
93 5 56 2 74 -16 111 -22 45 -69 89 -113 106 -25 9 -128 25 -128 19z"/>
<path d="M740 1360 c-18 -18 -20 -33 -20 -130 0 -159 -17 -150 274 -150 200 0
237 2 250 16 13 12 16 39 16 127 0 168 19 157 -266 157 -221 0 -235 -1 -254
-20z"/>
<path d="M1341 1354 c-18 -23 -21 -41 -21 -121 0 -89 9 -129 34 -145 6 -4 212
-8 458 -8 l447 0 15 22 c12 17 16 49 16 130 0 163 49 148 -484 148 l-445 0
-20 -26z"/>
<path d="M746 999 c-25 -20 -26 -24 -26 -130 0 -164 -49 -149 483 -149 367 0
447 2 463 14 16 12 19 29 22 125 4 107 3 111 -22 136 l-25 25 -434 0 c-424 0
-435 0 -461 -21z"/>
<path d="M1772 1004 c-21 -14 -22 -23 -22 -134 0 -94 3 -122 16 -134 13 -14
50 -16 250 -16 291 0 274 -9 274 149 0 157 11 151 -274 151 -184 0 -225 -3
-244 -16z"/>
</g>
</svg>
