<svg xmlns="http://www.w3.org/2000/svg" xmlns:xlink="http://www.w3.org/1999/xlink" version="1.1" width="55" height="55" viewBox="0 0 55 55">
<rect id="backgroundrect" width="100%" height="100%" x="0" y="0" fill="none" stroke="none" class="" style=""/><g class="currentLayer" style=""><title>Layer 1</title><path d="M42.1771287043557,41.60010476176677 v-20.074996256989024 q0,-0.2398666832176999 -0.17528684499111694,-0.4151538747998659 t-0.41515305392632923,-0.17528719158216585 h-20.07495656319317 q-0.2398662089352129,0 -0.41515305392632923,0.17528719158216585 t-0.17528684499111694,0.4151538747998659 v20.074996256989024 q0,0.2398666832176999 0.17528684499111694,0.4151538747998659 t0.41515305392632923,0.17528719158216585 h20.07495656319317 q0.2398662089352129,0 0.41515305392632923,-0.17528719158216585 t0.17528684499111694,-0.4151538747998659 zm2.3617595956697843,-20.074996256989024 v20.074996256989024 q0,1.2177846994129382 -0.8672086015349999,2.084995015661544 t-2.084990893052231,0.8672103162486069 h-20.07495656319317 q-1.2177822915172334,0 -2.084990893052231,-0.8672103162486069 t-0.8672086015349999,-2.084995015661544 v-20.074996256989024 q0,-1.2177846994129382 0.8672086015349999,-2.084995015661544 t2.084990893052231,-0.8672103162486069 h20.07495656319317 q1.2177822915172334,0 2.084990893052231,0.8672103162486069 t0.8672086015349999,2.084995015661544 zm-7.085278787009353,-7.085292796584362 v2.952205331910151 h-2.3617595956697843 v-2.952205331910151 q0,-0.2398666832176999 -0.17528684499111694,-0.4151538747998659 t-0.41515305392632923,-0.17528719158216585 h-20.07495656319317 q-0.2398662089352129,0 -0.41515305392632923,0.17528719158216585 t-0.17528684499111694,0.4151538747998659 v20.074996256989024 q0,0.2398666832176999 0.17528684499111694,0.4151538747998659 t0.41515305392632923,0.17528719158216585 h2.9521994945872314 v2.3617642655281212 h-2.9521994945872314 q-1.2177822915172334,0 -2.084990893052231,-0.8672103162486069 t-0.8672086015349999,-2.084995015661544 v-20.074996256989024 q0,-1.2177846994129382 0.8672086015349999,-2.084995015661544 t2.084990893052231,-0.8672103162486069 h20.07495656319317 q1.2177822915172334,0 2.084990893052231,0.8672103162486069 t0.8672086015349999,2.084995015661544 z" id="svg_1" class="" stroke="#000000" stroke-opacity="1" fill="#000000" fill-opacity="1"/></g><g><title>Layer 2</title>
<g><text x="25" y="40" style="fill: #000000; stroke: #000; font-size: 20px;font-family:Helvetica;" id="svg_1" class="">P</text></g>
<g id="svg_3">
<circle class="frame" r="25" style="fill:none;fill-opacity=0.0;stroke-width:3;stroke:black" cy="27.75" cx="27.5" id="svg_2"/>
</g></g></svg>
