<svg xmlns="http://www.w3.org/2000/svg" xmlns:xlink="http://www.w3.org/1999/xlink" version="1.1" width="55" height="55" style="" viewBox="0 0 55 55">
<g>	
    <circle class="frame" r="25" style="fill:white;fill-opacity=0.0;stroke-width:3;stroke:black" cy="27.75" cx="27.5" id="svg_2"/>
</g>
<g class="currentLayer" style=""><title>Layer 1</title><g id="XMLID_6_" class="">
	<g id="svg_1">
		<path fill="black" d="M43.403476802699856,34.474550791091815 v7.6316274177135615 h-31.467183045899105 V34.53511926266097 c0,0 0,0 0,-0.06056847156915534 H43.403476802699856 C43.403476802699856,34.53511926266097 43.403476802699856,34.474550791091815 43.403476802699856,34.474550791091815 z" id="svg_2"/>
		<polygon fill="#0F8140" points="39.061005026102066,28.78111457824707 43.40347710251808,34.47454833984375 11.936293989419937,34.47454833984375 16.341699987649918,28.78111457824707 " id="svg_3"/>
		<polyline fill="none" stroke="#FFFFFF" stroke-linecap="round" stroke-linejoin="round" stroke-miterlimit="10" points="43.40347710251808,34.47454833984375 39.061005026102066,28.78111457824707 16.341699987649918,28.78111457824707 11.936293989419937,34.47454833984375 " id="svg_4"/>
		<path fill="none" stroke="#FFFFFF" stroke-linecap="round" stroke-linejoin="round" stroke-miterlimit="10" d="M11.936293756800751,34.474550791091815 C11.936293756800751,34.53511926266097 11.936293756800751,34.53511926266097 11.936293756800751,34.474550791091815 l0,7.6316274177135615 h31.467183045899105 V34.474550791091815 c0,0 0,0 0,0 H11.936293756800751 z" id="svg_5"/>
		<line fill="none" stroke="#FFFFFF" stroke-miterlimit="10" x1="17.2857148746036" y1="36.6550157675814" x2="38.05405568489701" y2="36.6550157675814" id="svg_6"/>
		<line fill="none" stroke="#FFFFFF" stroke-miterlimit="10" x1="17.2857148746036" y1="38.47206991465606" x2="38.05405568489701" y2="38.47206991465606" id="svg_7"/>
		<line fill="none" stroke="#FFFFFF" stroke-miterlimit="10" x1="17.2857148746036" y1="40.28912406173072" x2="38.05405568489701" y2="40.28912406173072" id="svg_8"/>
	</g>
	<g id="svg_9">
		<path fill="black" d="M43.403476802699856,26.90349184494741 V34.53511926266097 H24.837838805619384 v-1.6959172039363466 h1.2586873218359642 V28.478272105745447 v-1.5747802607980361 H43.403476802699856 C43.403476802699856,26.964060316516566 43.403476802699856,26.90349184494741 43.403476802699856,26.90349184494741 zM39.942086667650955,30.71930555380419 c0,-0.7268216588298634 -0.5664092948261844,-1.2719379029522604 -1.2586873218359642,-1.2719379029522604 c-0.6922780270097815,0 -1.2586873218359642,0.5451162441223969 -1.2586873218359642,1.2719379029522604 c0,0.6662531872607079 0.5664092948261844,1.2719379029522604 1.2586873218359642,1.2719379029522604 C39.375677372824775,31.99124345675645 39.942086667650955,31.385558741064898 39.942086667650955,30.71930555380419 z" id="svg_10"/>
		<polygon fill="#0F8140" points="39.061005026102066,21.21005630493164 43.40347710251808,26.90349578857422 26.096525579690933,26.90349578857422 11.936293989419937,26.90349578857422 16.341699987649918,21.21005630493164 " id="svg_11"/>
		<path fill="#FFFFFF" d="M38.68339934581499,29.44736765085193 c0.6922780270097815,0 1.2586873218359642,0.5451162441223969 1.2586873218359642,1.2719379029522604 c0,0.6662531872607079 -0.5664092948261844,1.2719379029522604 -1.2586873218359642,1.2719379029522604 c-0.6922780270097815,0 -1.2586873218359642,-0.5451162441223969 -1.2586873218359642,-1.2719379029522604 C37.424712023979026,29.992483894974328 37.991121318805206,29.44736765085193 38.68339934581499,29.44736765085193 z" id="svg_12"/>
		<rect x="24.837838805619384" y="28.478272105745447" fill="black" width="1.2586873218359642" height="4.421498540073523" id="svg_13"/>
		<path fill="black" d="M26.09652612745535,26.90349184494741 V28.478272105745447 h-1.2586873218359642 v4.421498424548332 V34.53511926266097 H11.936293756800751 V26.964060316516566 c0,0 0,0 0,-0.06056847156915534 H26.09652612745535 zM22.949807822865438,32.89977053029378 V28.478272105745447 h-1.2586873218359642 v4.421498424548332 H22.949807822865438 zM19.803089518275527,32.89977053029378 V28.478272105745447 h-1.2586873218359642 v4.421498424548332 H19.803089518275527 zM16.656371213685617,32.89977053029378 V28.478272105745447 h-1.2586873218359642 v4.421498424548332 H16.656371213685617 z" id="svg_14"/>
		<rect x="21.691120501029474" y="28.478272105745447" fill="black" width="1.2586873218359642" height="4.421498540073523" id="svg_15"/>
		<rect x="18.544402196439563" y="28.478272105745447" fill="black" width="1.2586873218359642" height="4.421498540073523" id="svg_16"/>
		<rect x="15.397683891849653" y="28.478272105745447" fill="black" width="1.2586873218359642" height="4.421498540073523" id="svg_17"/>
	</g>
	<g id="svg_18">
		<polyline fill="none" stroke="#FFFFFF" stroke-linecap="round" stroke-linejoin="round" stroke-miterlimit="10" points="43.40347710251808,26.90349578857422 39.061005026102066,21.21005630493164 16.341699987649918,21.21005630493164 11.936293989419937,26.90349578857422 " id="svg_19"/>
		<path fill="none" stroke="#FFFFFF" stroke-linecap="round" stroke-linejoin="round" stroke-miterlimit="10" d="M24.837838805619384,34.53511926266097 h18.565637997080472 V26.90349184494741 c0,0 0,0 0,0 H26.09652612745535 H11.936293756800751 c0,0 0,0.06056847156915534 0,0.06056847156915534 V34.53511926266097 H24.837838805619384 z" id="svg_20"/>
		
			<rect x="15.397683891849653" y="28.478272105745447" fill="none" stroke="#FFFFFF" stroke-linecap="round" stroke-linejoin="round" stroke-miterlimit="10" width="1.2586873218359642" height="4.421498540073523" id="svg_21"/>
		
			<rect x="18.544402196439563" y="28.478272105745447" fill="none" stroke="#FFFFFF" stroke-linecap="round" stroke-linejoin="round" stroke-miterlimit="10" width="1.2586873218359642" height="4.421498540073523" id="svg_22"/>
		
			<rect x="21.691120501029474" y="28.478272105745447" fill="none" stroke="#FFFFFF" stroke-linecap="round" stroke-linejoin="round" stroke-miterlimit="10" width="1.2586873218359642" height="4.421498540073523" id="svg_23"/>
		
			<rect x="24.837838805619384" y="28.478272105745447" fill="none" stroke="#FFFFFF" stroke-linecap="round" stroke-linejoin="round" stroke-miterlimit="10" width="1.2586873218359642" height="4.421498540073523" id="svg_24"/>
	</g>
	<g id="svg_25">
		<path fill="black" d="M43.403476802699856,19.39300137037216 v7.5710589461444044 h-31.467183045899105 V19.453569841941317 c0,0 0,0 0,-0.06056847156915534 H43.403476802699856 C43.403476802699856,19.39300137037216 43.403476802699856,19.39300137037216 43.403476802699856,19.39300137037216 zM34.9073373803071,23.32995202236725 c0,-0.6662531872607079 -0.5664092948261844,-1.2113694313831047 -1.2586873218359642,-1.2113694313831047 c-0.6922780270097815,0 -1.2586873218359642,0.5451162441223969 -1.2586873218359642,1.2113694313831047 c0,0.6662531872607079 0.5664092948261844,1.2113694313831047 1.2586873218359642,1.2113694313831047 C34.34092808548091,24.54132145375036 34.9073373803071,23.99620520962796 34.9073373803071,23.32995202236725 zM29.24324443204526,23.32995202236725 c0,-0.6662531872607079 -0.5664092948261844,-1.2113694313831047 -1.2586873218359642,-1.2113694313831047 c-0.6922780270097815,0 -1.2586873218359642,0.5451162441223969 -1.2586873218359642,1.2113694313831047 c0,0.6662531872607079 0.5664092948261844,1.2113694313831047 1.2586873218359642,1.2113694313831047 C28.676835137219076,24.54132145375036 29.24324443204526,23.99620520962796 29.24324443204526,23.32995202236725 zM23.57915148378342,23.32995202236725 c0,-0.6662531872607079 -0.5664092948261844,-1.2113694313831047 -1.2586873218359642,-1.2113694313831047 c-0.6922780270097815,0 -1.2586873218359642,0.5451162441223969 -1.2586873218359642,1.2113694313831047 c0,0.6662531872607079 0.5664092948261844,1.2113694313831047 1.2586873218359642,1.2113694313831047 C23.012742188957237,24.54132145375036 23.57915148378342,23.99620520962796 23.57915148378342,23.32995202236725 z" id="svg_26"/>
		<polygon fill="#000" points="38.99807396531105,13.638996124267578 43.40347710251808,19.393001556396484 11.936293989419937,19.393001556396484 16.341699987649918,13.638996124267578 " id="svg_27"/>
		<path fill="#FFFFFF" d="M33.648650058471134,22.118582590984147 c0.6922780270097815,0 1.2586873218359642,0.5451162441223969 1.2586873218359642,1.2113694313831047 c0,0.6662531872607079 -0.5664092948261844,1.2113694313831047 -1.2586873218359642,1.2113694313831047 c-0.6922780270097815,0 -1.2586873218359642,-0.5451162441223969 -1.2586873218359642,-1.2113694313831047 C32.38996273663517,22.663698835106544 32.956372031461356,22.118582590984147 33.648650058471134,22.118582590984147 z" id="svg_28"/>
		<path fill="#FFFFFF" d="M27.98455711020929,22.118582590984147 c0.6922780270097815,0 1.2586873218359642,0.5451162441223969 1.2586873218359642,1.2113694313831047 c0,0.6662531872607079 -0.5664092948261844,1.2113694313831047 -1.2586873218359642,1.2113694313831047 c-0.6922780270097815,0 -1.2586873218359642,-0.5451162441223969 -1.2586873218359642,-1.2113694313831047 C26.72586978837333,22.663698835106544 27.292279083199514,22.118582590984147 27.98455711020929,22.118582590984147 z" id="svg_29"/>
		<path fill="#FFFFFF" d="M22.320464161947456,22.118582590984147 c0.6922780270097815,0 1.2586873218359642,0.5451162441223969 1.2586873218359642,1.2113694313831047 c0,0.6662531872607079 -0.5664092948261844,1.2113694313831047 -1.2586873218359642,1.2113694313831047 c-0.6922780270097815,0 -1.2586873218359642,-0.5451162441223969 -1.2586873218359642,-1.2113694313831047 C21.06177684011149,22.663698835106544 21.628186134937675,22.118582590984147 22.320464161947456,22.118582590984147 z" id="svg_30"/>
	</g>
	<g id="svg_31">
		<polyline fill="none" stroke="#FFFFFF" stroke-linecap="round" stroke-linejoin="round" stroke-miterlimit="10" points="43.40347710251808,19.393001556396484 38.99807396531105,13.638996124267578 16.341699987649918,13.638996124267578 11.936293989419937,19.393001556396484 " id="svg_32"/>
		<path fill="none" stroke="#FFFFFF" stroke-linecap="round" stroke-linejoin="round" stroke-miterlimit="10" d="M11.936293756800751,19.39300137037216 C11.936293756800751,19.39300137037216 11.936293756800751,19.453569841941317 11.936293756800751,19.39300137037216 l0,7.5710589461444044 h31.467183045899105 V19.39300137037216 c0,0 0,0 0,0 H11.936293756800751 z" id="svg_33"/>
	</g>
</g></g></svg>