<?xml version="1.0" encoding="utf-8"?>
<!-- Generator: Adobe Illustrator 15.0.0, SVG Export Plug-In  -->
<!DOCTYPE svg PUBLIC "-//W3C//DTD SVG 1.1//EN" "http://www.w3.org/Graphics/SVG/1.1/DTD/svg11.dtd" [
	<!ENTITY ns_flows "http://ns.adobe.com/Flows/1.0/">
]>
<svg version="1.1"
	 xmlns="http://www.w3.org/2000/svg" xmlns:xlink="http://www.w3.org/1999/xlink" xmlns:a="http://ns.adobe.com/AdobeSVGViewerExtensions/3.0/"
	 x="0px" y="0px" width="92px" height="92px" viewBox="-3.1 -2.67 92 92" enable-background="new -3.1 -2.67 92 92"
	 xml:space="preserve">
<defs>
</defs>
<g id="XMLID_2_">
	<g>
		<path fill="#FFFFFF" d="M43.33,1.5c23.11,0,41.839,18.73,41.839,41.83c0,23.1-18.729,41.83-41.839,41.83
			c-23.1,0-41.83-18.73-41.83-41.83C1.5,20.23,20.23,1.5,43.33,1.5z"/>
	</g>
	<g>
		<path fill="none" stroke="#808080" stroke-width="3" stroke-miterlimit="10" d="M85.169,43.33c0,23.1-18.729,41.83-41.839,41.83
			c-23.1,0-41.83-18.73-41.83-41.83C1.5,20.23,20.23,1.5,43.33,1.5C66.44,1.5,85.169,20.23,85.169,43.33z"/>
	</g>
</g>
<g id="XMLID_1_">
	<g>
		<path fill="#808080" d="M63.49,52.5v3.99c0,3.75-8.8,6.78-19.67,6.78s-19.67-3.03-19.67-6.78V52.5c0.01,0.01,0.01,0.01,0.02,0.021
			c0.31,3.649,8.98,6.579,19.65,6.579s19.34-2.93,19.65-6.579C63.48,52.51,63.48,52.51,63.49,52.5z"/>
		<path fill="#FFFFFF" d="M63.49,48.33v3.98c0,0.069,0,0.14-0.02,0.21c-2.69,3.239-11.07,5.09-19.65,5.09s-16.96-1.851-19.65-5.09
			c-0.02-0.07-0.02-0.141-0.02-0.21v-3.98c0.04,0.05,0.09,0.11,0.14,0.16c1.27,3.16,9.53,5.63,19.53,5.63
			c9.92,0,18.13-2.43,19.48-5.58C63.37,48.47,63.43,48.4,63.49,48.33z"/>
		<path fill="#FFFFFF" d="M63.49,30.42l-0.03,4.21c-2.72,3-11.119,4.66-19.64,4.66c-8.55,0-16.98-1.67-19.67-4.69v-4.18
			c0.04,0.05,0.09,0.09,0.14,0.14c1.12,2.94,9.43,5.23,19.53,5.23c10.1,0,18.41-2.29,19.53-5.23C63.4,30.51,63.45,30.47,63.49,30.42
			z"/>
		<path fill="#808080" d="M63.49,34.6l-0.03,4.54c-0.029,0.13-0.069,0.26-0.119,0.39c-2.83,3.04-11.091,4.74-19.521,4.74
			c-8.5,0-16.82-1.73-19.59-4.81c-0.03-0.09-0.06-0.19-0.08-0.28v-4.17c0.68,3.2,9.22,5.77,19.67,5.77
			c10.45,0,18.99-2.57,19.64-5.82v-0.33C63.47,34.62,63.48,34.61,63.49,34.6z"/>
		<path fill="#FFFFFF" d="M63.49,39.37l-0.02,4.2c-2.71,3.13-11.09,4.88-19.65,4.88c-8.58,0-16.98-1.76-19.67-4.9v-4.18
			c0.03,0.03,0.05,0.06,0.08,0.09c1.1,3.07,9.44,5.5,19.59,5.5c10.03,0,18.29-2.37,19.521-5.43C63.4,39.48,63.44,39.42,63.49,39.37z
			"/>
		<path fill="#808080" d="M63.49,43.55l-0.02,4.4c-0.03,0.2-0.09,0.39-0.17,0.59c-2.86,3.12-11.07,4.9-19.48,4.9
			c-8.46,0-16.71-1.801-19.53-4.95c-0.07-0.17-0.11-0.34-0.14-0.51V43.8c0.54,3.4,9.14,6.14,19.67,6.14
			c10.53,0,19.13-2.74,19.65-6.17v-0.2C63.48,43.56,63.48,43.56,63.49,43.55z"/>
		<path fill="#808080" d="M63.47,43.57v0.2c-0.521,3.43-9.12,6.17-19.65,6.17c-10.53,0-19.13-2.74-19.67-6.14v-0.25
			c2.69,3.14,11.09,4.9,19.67,4.9C52.38,48.45,60.76,46.7,63.47,43.57z"/>
		<path fill="#808080" d="M63.459,34.63v0.33c-0.649,3.25-9.189,5.82-19.64,5.82c-10.45,0-18.99-2.57-19.67-5.77V34.6
			c2.69,3.02,11.12,4.69,19.67,4.69C52.34,39.29,60.74,37.63,63.459,34.63z"/>
		<path fill="#636464" d="M63.49,29.87c0,0.23-0.04,0.46-0.14,0.69c-2.811,2.93-11.11,4.55-19.53,4.55s-16.72-1.62-19.53-4.55
			c-0.1-0.23-0.14-0.46-0.14-0.69c0-3.27,8.8-5.92,19.67-5.92S63.49,26.6,63.49,29.87z"/>
		<path fill="#636464" d="M63.35,30.56c-1.12,2.94-9.431,5.23-19.53,5.23c-10.1,0-18.41-2.29-19.53-5.23
			c2.81,2.93,11.11,4.55,19.53,4.55S60.54,33.49,63.35,30.56z"/>
		<path fill="#808080" d="M63.47,52.521C63.16,56.17,54.49,59.1,43.82,59.1s-19.34-2.93-19.65-6.579
			c2.69,3.239,11.07,5.09,19.65,5.09S60.78,55.76,63.47,52.521z"/>
		<path fill="#808080" d="M63.3,48.54c-1.351,3.15-9.561,5.58-19.48,5.58c-10,0-18.26-2.47-19.53-5.63
			c2.82,3.149,11.07,4.95,19.53,4.95C52.23,53.44,60.44,51.66,63.3,48.54z"/>
		<path fill="#808080" d="M63.34,39.53c-1.23,3.06-9.49,5.43-19.521,5.43c-10.15,0-18.49-2.43-19.59-5.5
			c2.77,3.08,11.09,4.81,19.59,4.81C52.25,44.27,60.51,42.57,63.34,39.53z"/>
	</g>
	<g>
		<path fill="none" stroke="#FFFFFF" stroke-linecap="square" stroke-linejoin="round" stroke-miterlimit="10" d="M63.35,30.56
			c0.05-0.05,0.1-0.09,0.14-0.14l-0.03,4.21"/>
		<path fill="none" stroke="#FFFFFF" stroke-linecap="square" stroke-linejoin="round" stroke-miterlimit="10" d="M24.15,34.6v-4.18
			c0.04,0.05,0.09,0.09,0.14,0.14"/>
		<path fill="none" stroke="#FFFFFF" stroke-linecap="square" stroke-linejoin="round" stroke-miterlimit="10" d="M63.3,48.54
			c0.069-0.07,0.13-0.14,0.189-0.21v3.98c0,0.069,0,0.14-0.02,0.21"/>
		<path fill="none" stroke="#FFFFFF" stroke-linecap="square" stroke-linejoin="round" stroke-miterlimit="10" d="M24.17,52.521
			c-0.02-0.07-0.02-0.141-0.02-0.21v-3.98c0.04,0.05,0.09,0.11,0.14,0.16"/>
		<path fill="none" stroke="#FFFFFF" stroke-linecap="square" stroke-linejoin="round" stroke-miterlimit="10" d="M24.15,43.55
			v-4.18c0.03,0.03,0.05,0.06,0.08,0.09"/>
		<path fill="none" stroke="#FFFFFF" stroke-linecap="square" stroke-linejoin="round" stroke-miterlimit="10" d="M63.34,39.53
			c0.06-0.05,0.1-0.11,0.149-0.16l-0.02,4.2"/>
		<path fill="none" stroke="#FFFFFF" stroke-linecap="square" stroke-linejoin="round" stroke-miterlimit="10" d="M24.23,39.46
			c-0.03-0.09-0.06-0.19-0.08-0.28v-4.17V34.6c2.69,3.02,11.12,4.69,19.67,4.69c8.521,0,16.92-1.66,19.64-4.66
			c0.011-0.01,0.021-0.02,0.03-0.03l-0.03,4.54c-0.029,0.13-0.069,0.26-0.119,0.39c-1.23,3.06-9.49,5.43-19.521,5.43
			C33.67,44.96,25.33,42.53,24.23,39.46z"/>
		<path fill="none" stroke="#FFFFFF" stroke-linecap="square" stroke-linejoin="round" stroke-miterlimit="10" d="M63.47,52.521
			c0.01-0.011,0.01-0.011,0.02-0.021v3.99c0,3.75-8.8,6.78-19.67,6.78s-19.67-3.03-19.67-6.78V52.5c0.01,0.01,0.01,0.01,0.02,0.021
			c2.69,3.239,11.07,5.09,19.65,5.09S60.78,55.76,63.47,52.521z"/>
		<path fill="none" stroke="#FFFFFF" stroke-linecap="square" stroke-linejoin="round" stroke-miterlimit="10" d="M63.47,43.57
			c0.01-0.01,0.01-0.01,0.02-0.02l-0.02,4.4c-0.03,0.2-0.09,0.39-0.17,0.59c-1.351,3.15-9.561,5.58-19.48,5.58
			c-10,0-18.26-2.47-19.53-5.63c-0.07-0.17-0.11-0.34-0.14-0.51V43.8v-0.25c2.69,3.14,11.09,4.9,19.67,4.9
			C52.38,48.45,60.76,46.7,63.47,43.57z"/>
		<path fill="none" stroke="#FFFFFF" stroke-linecap="square" stroke-linejoin="round" stroke-miterlimit="10" d="M24.29,30.56
			c-0.1-0.23-0.14-0.46-0.14-0.69c0-3.27,8.8-5.92,19.67-5.92s19.67,2.65,19.67,5.92c0,0.23-0.04,0.46-0.14,0.69
			c-1.12,2.94-9.431,5.23-19.53,5.23C33.72,35.79,25.41,33.5,24.29,30.56z"/>
	</g>
</g>
</svg>
