<?xml version="1.0" encoding="utf-8"?>
<!-- Generator: Adobe Illustrator 15.0.0, SVG Export Plug-In  -->
<!DOCTYPE svg PUBLIC "-//W3C//DTD SVG 1.1//EN" "http://www.w3.org/Graphics/SVG/1.1/DTD/svg11.dtd" [
	<!ENTITY ns_flows "http://ns.adobe.com/Flows/1.0/">
]>
<svg version="1.1"
	 xmlns="http://www.w3.org/2000/svg" xmlns:xlink="http://www.w3.org/1999/xlink" xmlns:a="http://ns.adobe.com/AdobeSVGViewerExtensions/3.0/"
	 x="0px" y="0px" width="92px" height="92px" viewBox="-3.1 -2.7 92 92" enable-background="new -3.1 -2.7 92 92"
	 xml:space="preserve">
<defs>
</defs>
<g id="XMLID_3_">
	<g>
		<path fill="#FFFFFF" d="M43.3,1.5c23.1,0,41.8,18.7,41.8,41.8c0,23.1-18.7,41.8-41.8,41.8c-23.1,0-41.8-18.7-41.8-41.8
			C1.5,20.2,20.2,1.5,43.3,1.5z"/>
	</g>
	<g>
		<path fill="none" stroke="#808080" stroke-width="3" stroke-miterlimit="10" d="M85.2,43.3c0,23.1-18.7,41.8-41.8,41.8
			c-23.1,0-41.8-18.7-41.8-41.8c0-23.1,18.7-41.8,41.8-41.8C66.4,1.5,85.2,20.2,85.2,43.3z"/>
	</g>
</g>
<g id="XMLID_1_">
	<g>
		<path fill="#808080" d="M68.6,42.4V55H39v-2.8h2V45v-2.6H68.6C68.5,42.5,68.6,42.4,68.6,42.4z M63,48.7c0-1.2-0.9-2.1-2-2.1
			c-1.1,0-2,0.9-2,2.1c0,1.1,0.9,2.1,2,2.1C62.2,50.8,63,49.8,63,48.7z"/>
		<polygon fill="#636464" points="61.6,33 68.5,42.4 41,42.4 18.5,42.4 25.5,33 		"/>
		<path fill="#FFFFFF" d="M61,46.6c1.1,0,2,0.9,2,2.1c0,1.1-0.9,2.1-2,2.1c-1.1,0-2-0.9-2-2.1C59,47.5,59.9,46.6,61,46.6z"/>
		<rect x="39" y="45" fill="#808080" width="2" height="7.3"/>
		<path fill="#808080" d="M41,42.4V45h-2v7.3V55H18.5V42.5c0,0,0,0,0-0.1H41z M36,52.2V45h-2v7.3H36z M31,52.2V45h-2v7.3H31z
			 M26,52.2V45h-2v7.3H26z"/>
		<rect x="34" y="45" fill="#808080" width="2" height="7.3"/>
		<rect x="29" y="45" fill="#808080" width="2" height="7.3"/>
		<rect x="24" y="45" fill="#808080" width="2" height="7.3"/>
	</g>
	<g>
		<polyline fill="none" stroke="#FFFFFF" stroke-linecap="round" stroke-linejoin="round" stroke-miterlimit="10" points="
			68.5,42.4 61.6,33 25.5,33 18.5,42.4 		"/>
		<path fill="none" stroke="#FFFFFF" stroke-linecap="round" stroke-linejoin="round" stroke-miterlimit="10" d="M39,55h29.5V42.4
			c0,0,0,0,0,0H41H18.5c0,0,0,0.1,0,0.1V55H39z"/>
		
			<rect x="24" y="45" fill="none" stroke="#FFFFFF" stroke-linecap="round" stroke-linejoin="round" stroke-miterlimit="10" width="2" height="7.3"/>
		
			<rect x="29" y="45" fill="none" stroke="#FFFFFF" stroke-linecap="round" stroke-linejoin="round" stroke-miterlimit="10" width="2" height="7.3"/>
		
			<rect x="34" y="45" fill="none" stroke="#FFFFFF" stroke-linecap="round" stroke-linejoin="round" stroke-miterlimit="10" width="2" height="7.3"/>
		
			<rect x="39" y="45" fill="none" stroke="#FFFFFF" stroke-linecap="round" stroke-linejoin="round" stroke-miterlimit="10" width="2" height="7.3"/>
	</g>
</g>
</svg>
