<svg xmlns="http://www.w3.org/2000/svg" version="1.0" width="55" height="55" preserveAspectRatio="xMidYMid meet" style="background-color: #FFFFFF;" viewBox="0 0 55 55"><rect id="backgroundrect" width="100%" height="100%" x="0" y="0" fill="none" stroke="none" style="" class=""/>

<g class="currentLayer" style=""><title>Layer 1</title>
    <circle class="frame" r="25" style="fill:white;fill-opacity=0.0;stroke-width:3;stroke:black" cy="27.3958540558815" cx="28.04043483734131" id="svg_2"/><g transform="translate(0,300) scale(0.10000000149011612,-0.10000000149011612) " fill="black" stroke="none" id="svg_1" class="selected">
<path d="M223.32122369794797,2816.5921987893007 l0,-53.56060743981431 l25.902260974992174,-0.658532058686242 l25.682750288763422,-0.658532058686242 l0.658532058686242,-14.268194604868569 c0.658532058686242,-11.634066370123602 0,-14.707215977326063 -3.2926602934312097,-16.902322839613532 c-2.8536389209737134,-2.4146175485162207 -19.536451074358492,-2.8536389209737134 -73.09705851417282,-2.8536389209737134 c-37.975348717573254,0 -70.46293027942785,0 -71.99950508302908,0 c-1.9755961760587248,0 -2.6341282347449666,-2.4146175485162207 -2.1951068622874725,-7.0243419593199095 l0.658532058686242,-7.243852645548658 l21.951068622874722,-1.0975534311437363 l21.951068622874722,-1.0975534311437363 l0.658532058686242,-11.853577056352348 c1.3170641173724835,-22.170579309103466 1.536574803601231,-21.951068622874722 -25.46323960253467,-22.60960068156097 l-23.487643426475948,-0.658532058686242 l-0.658532058686242,-49.60941508769687 c-0.43902137245749445,-40.38996626608948 0,-50.048436460154356 2.6341282347449666,-52.24354332244183 c1.9755961760587248,-1.7560854898299787 19.31694038812975,-2.4146175485162207 59.70690665421924,-1.9755961760587248 l56.85326773324554,0.658532058686242 l0,51.58501126375559 l0,51.58501126375559 l-26.341282347449674,1.0975534311437363 l-26.341282347449674,1.0975534311437363 l0,16.46330146715604 l0,16.46330146715604 l95.04812713704753,0.658532058686242 l95.04812713704753,0.43902137245749445 l-0.658532058686242,-16.902322839613532 l-0.658532058686242,-17.12183352584228 l-24.58519685761969,-0.658532058686242 l-24.804707543848433,-0.658532058686242 l0,-52.463054008670575 l0,-52.68256469489935 l59.267885281761735,0 l59.267885281761735,0 l0,52.68256469489935 l0,52.463054008670575 l-25.682750288763422,0.658532058686242 l-25.902260974992174,0.658532058686242 l0,16.46330146715604 l0,16.46330146715604 l23.707154112704696,0.658532058686242 l23.707154112704696,0.658532058686242 l-0.658532058686242,7.682874018006153 l-0.658532058686242,7.682874018006153 l-72.65803714171533,-0.21951068622874753 c-60.58494939913422,0 -73.09705851417282,0.43902137245749445 -75.29216537646029,3.073149607202461 c-1.536574803601231,1.9755961760587248 -2.4146175485162207,8.56091676292114 -1.9755961760587248,17.12183352584228 l0.658532058686242,13.82917323241107 l24.14617548516219,1.0975534311437363 l24.14617548516219,1.0975534311437363 l0.658532058686242,53.341096753585575 l0.43902137245749445,53.121586067356816 l-58.17033185061799,0 l-58.17033185061799,0 l0,-53.78011812604306 z" id="svg_2"/>
</g></g></svg>