<svg xmlns="http://www.w3.org/2000/svg" xmlns:xlink="http://www.w3.org/1999/xlink" version="1.1" width="55" height="55" viewBox="0 0 55 55">
<g class="currentLayer" style=""><title>Layer 1</title>
    <circle class="frame" r="25" style="fill:white;fill-opacity=0.0;stroke-width:3;stroke:black" cy="27.3958540558815" cx="28.04043483734131" id="svg_2"/><g class="node" fill="white" id="svg_1"><path d="M27.305444472687217,18.975306803566905 q0,-1.6543800613246882 -1.1593895469763411,-2.811122600202909 t-2.811122600202909,-1.1593895469763411 t-2.811122600202909,1.1593895469763411 t-1.1593895469763411,2.811122600202909 q0,0.8682186561831968 0.39175719852168606,1.7152612475814366 q-0.8470425913982402,-0.39175719852168606 -1.7152612475814366,-0.39175719852168606 q-1.6543800613246882,0 -2.811122600202909,1.1593895469763411 t-1.1593895469763411,2.811122600202909 t1.1593895469763411,2.811122600202909 t2.811122600202909,1.1593895469763411 t2.811122600202909,-1.1593895469763411 t1.1593895469763411,-2.811122600202909 q0,-0.8682186561831968 -0.39175719852168606,-1.7152612475814366 q0.8470425913982402,0.39175719852168606 1.7152612475814366,0.39175719852168606 q1.6543800613246882,0 2.811122600202909,-1.1593895469763411 t1.1593895469763411,-2.811122600202909 zM44.90275430898565,33.53385134322416 q0,0.3520520770498939 -1.0138041015797687,1.3658561786296628 t-1.3658561786296628,1.0138041015797687 q-0.1852905668683651,0 -0.5902828058806483,-0.33087601226493785 t-0.7543973079640578,-0.6829280893148314 t-0.7967494375339704,-0.8258665266132843 t-0.5055785467408246,-0.5373426439182586 l-1.9852560735896254,1.9852560735896254 l4.550206920667421,4.550206920667421 q0.5796947734881712,0.5796947734881712 0.5796947734881712,1.4055613001014549 q0,0.8682186561831968 -0.8073374699264473,1.6755561261096437 t-1.6755561261096437,0.8073374699264473 q-0.8258665266132843,0 -1.4055613001014549,-0.5796947734881712 l-13.875616450342417,-13.875616450342417 q-3.639636134914312,2.707889284376248 -7.5492670958368135,2.707889284376248 q-3.3696413089061235,0 -5.4898947954998425,-2.12025348659372 t-2.12025348659372,-5.4898947954998425 q0,-3.3087601226493746 1.964080008804669,-6.4719347999021775 t5.127254686057471,-5.127254686057471 t6.4719347999021775,-1.964080008804669 q3.3696413089061235,0 5.4898947954998425,2.12025348659372 t2.12025348659372,5.4898947954998425 q0,3.9096309609225015 -2.707889284376248,7.5492670958368135 l7.340153456085373,7.340153456085373 l1.9852560735896254,-1.9852560735896254 q-0.060881186256748536,-0.060881186256748536 -0.5373426439182586,-0.5055785467408246 t-0.8258665266132843,-0.7967494375339704 t-0.6829280893148314,-0.7543973079640578 t-0.33087601226493785,-0.5902828058806483 q0,-0.3520520770498939 1.0138041015797687,-1.3658561786296628 t1.3658561786296628,-1.0138041015797687 q0.26999482600818914,0 0.47646145766151027,0.20646663165332121 q0.12440938061161652,0.12440938061161652 0.9502759072249006,0.9211588181455868 t1.6967321908946,1.6437920289322097 t1.7893774743287831,1.7787894419363046 t1.5087946159281156,1.6120279317547759 t0.5902828058806483,0.8470425913982402 z" fill="black" id="svg_1" class=""/></g></g></svg>