<svg xmlns="http://www.w3.org/2000/svg" version="1.0" width="55" height="55" preserveAspectRatio="xMidYMid meet" style="background-color: rgb(255, 255, 255);" viewBox="0 0 55 55">
<g class="currentLayer" style=""><title>Layer 1</title>
    <circle class="frame" r="25" style="fill:white;fill-opacity=0.0;stroke-width:3;stroke:black" cy="27.3958540558815" cx="28.04043483734131" id="svg_2"/><g transform="translate(0,300) scale(0.10000000149011612,-0.10000000149011612) " fill="black" stroke="none" id="svg_1" class="selected">
<path d="M110.58195260053398,2752.2318255179475 l0,-122.76817621513807 l62.58769767830567,0 l62.58769767830567,0 l0,-31.293848839152837 l0,-31.293848839152837 l45.73716368799261,0 l45.73716368799261,0 l0,31.293848839152837 l0,31.293848839152837 l61.384088107569035,0 l61.384088107569035,0 l0,122.76817621513807 l0,122.76817621513807 l-169.70894947386734,0 l-169.70894947386734,0 l0,-122.76817621513807 zm62.58769767830567,62.58769767830567 l0,-31.293848839152837 l-15.646924419576418,0 l-15.646924419576418,0 l0,31.293848839152837 l0,31.293848839152837 l15.646924419576418,0 l15.646924419576418,0 l0,-31.293848839152837 zm62.58769767830567,0 l0,-31.293848839152837 l-15.646924419576418,0 l-15.646924419576418,0 l0,31.293848839152837 l0,31.293848839152837 l15.646924419576418,0 l15.646924419576418,0 l0,-31.293848839152837 zm60.18047853683238,0 l0,-31.293848839152837 l-15.646924419576418,0 l-15.646924419576418,0 l0,29.60879544012153 c0,16.369090162018406 0.7221657424419891,30.57168309671085 1.6850533990313066,31.293848839152837 c0.7221657424419891,0.9628876565893185 7.943823166861874,1.6850533990313066 15.646924419576418,1.6850533990313066 l13.961871020545113,0 l0,-31.293848839152837 zm62.58769767830567,0 l0,-31.293848839152837 l-15.646924419576418,0 l-15.646924419576418,0 l0,31.293848839152837 l0,31.293848839152837 l15.646924419576418,0 l15.646924419576418,0 l0,-31.293848839152837 zm62.10625385001103,-0.48144382829465915 l0.7221657424419891,-30.81240501085818 l-15.887646333723747,0 l-15.646924419576418,0 l0,31.293848839152837 l0,31.534570753300166 l15.165480591281757,-0.7221657424419891 l14.924758677134431,-0.7221657424419891 l0.7221657424419891,-30.57168309671085 z" id="svg_2"/>
</g></g></svg>