<?xml version="1.0" standalone="no"?>
<!DOCTYPE svg PUBLIC "-//W3C//DTD SVG 20010904//EN"
 "http://www.w3.org/TR/2001/REC-SVG-20010904/DTD/svg10.dtd">
<svg version="1.0" xmlns="http://www.w3.org/2000/svg"
 width="300.000000pt" height="300.000000pt" viewBox="0 0 300.000000 300.000000"
 preserveAspectRatio="xMidYMid meet" style="background-color: #FFFFFF;">
<g transform="translate(0.000000,300.000000) scale(0.100000,-0.100000)"
fill="#808080" stroke="none">
<path d="M1375 2904 c-102 -11 -229 -37 -320 -65 -98 -30 -259 -108 -319 -155
-17 -13 -68 -49 -113 -81 -89 -63 -209 -194 -295 -321 -112 -167 -190 -371
-217 -566 -14 -99 -14 -322 0 -423 18 -132 74 -335 98 -353 4 -3 20 -36 35
-74 16 -37 48 -93 71 -125 23 -31 46 -64 51 -74 14 -25 118 -142 184 -206 65
-63 248 -185 352 -234 203 -97 363 -131 608 -130 289 0 476 54 750 216 85 51
129 86 237 193 73 73 133 138 133 145 0 8 18 34 40 59 24 28 65 101 109 195
55 120 75 178 101 290 53 234 52 382 -6 638 -33 148 -156 422 -201 450 -7 4
-13 13 -13 18 0 18 -91 131 -162 201 -137 135 -328 259 -492 319 -165 61 -467
101 -631 83z m445 -119 c117 -29 268 -93 368 -157 37 -24 79 -49 94 -57 15 -8
79 -65 142 -127 107 -106 176 -196 227 -296 12 -24 25 -45 30 -48 23 -15 111
-289 129 -400 14 -91 12 -331 -4 -420 -21 -116 -101 -354 -125 -369 -5 -4 -25
-38 -44 -77 -20 -39 -62 -105 -95 -145 -56 -72 -238 -248 -279 -272 -170 -99
-312 -161 -453 -199 -119 -31 -133 -33 -305 -32 -196 0 -257 10 -439 73 -120
42 -295 135 -361 192 -11 10 -47 40 -80 67 -33 27 -80 75 -105 107 -25 31 -63
79 -86 106 -63 75 -169 296 -196 409 -13 52 -26 97 -29 100 -10 8 -29 177 -29
260 0 92 17 245 30 268 5 9 19 55 31 102 39 153 89 254 221 440 18 25 70 84
117 131 74 73 115 105 256 197 48 31 230 113 296 133 127 38 221 49 409 44
146 -3 192 -8 280 -30z"/>
<path d="M800 2260 c-47 -47 -8 -110 67 -110 48 0 43 9 62 -117 17 -116 64
-234 131 -333 37 -54 136 -155 175 -178 l20 -12 -20 -12 c-65 -38 -164 -152
-217 -248 -49 -91 -98 -246 -98 -317 0 -51 -9 -63 -47 -63 -81 0 -122 -61 -73
-110 20 -20 33 -20 694 -20 l675 0 20 26 c27 34 26 50 -4 79 -18 19 -35 25
-70 25 l-45 0 0 40 c0 62 -47 226 -91 315 -44 92 -125 194 -193 244 -25 19
-46 37 -45 40 0 3 27 28 60 54 63 51 136 141 174 217 42 83 90 249 98 335 2
28 5 30 49 33 37 2 52 9 68 29 25 32 25 44 -1 77 l-20 26 -675 0 c-661 0 -674
0 -694 -20z m1180 -122 c0 -7 -7 -46 -15 -86 -48 -228 -164 -399 -322 -473
-111 -52 -111 -87 -1 -138 127 -59 233 -188 288 -351 21 -62 50 -181 50 -207
0 -10 -104 -13 -485 -13 l-485 0 0 28 c0 31 25 142 41 187 65 175 172 306 294
359 67 28 70 32 70 66 0 19 -6 36 -15 41 -8 4 -40 19 -71 34 -102 47 -201 164
-259 305 -29 71 -60 191 -60 234 l0 26 485 0 c381 0 485 -3 485 -12z"/>
<path d="M1160 1925 c-17 -21 40 -124 107 -190 165 -164 372 -133 514 76 45
67 58 107 38 120 -8 5 -156 9 -330 9 -265 0 -319 -2 -329 -15z"/>
<path d="M1395 1111 c-84 -22 -168 -103 -151 -147 8 -20 478 -21 495 -1 19 24
-38 100 -95 127 -53 25 -190 37 -249 21z"/>
</g>
</svg>
