<?xml version="1.0" standalone="no"?>
<!DOCTYPE svg PUBLIC "-//W3C//DTD SVG 20010904//EN"
 "http://www.w3.org/TR/2001/REC-SVG-20010904/DTD/svg10.dtd">
<svg version="1.0" xmlns="http://www.w3.org/2000/svg"
 width="300.000000pt" height="300.000000pt" viewBox="0 0 300.000000 300.000000"
 preserveAspectRatio="xMidYMid meet" style="background-color: #FFFFFF;">
<g transform="translate(0.000000,300.000000) scale(0.100000,-0.100000)"
fill="#808080" stroke="none">
<path d="M1375 2904 c-102 -11 -229 -37 -320 -65 -98 -30 -259 -108 -319 -155
-17 -13 -68 -49 -113 -81 -89 -63 -209 -194 -295 -321 -112 -167 -190 -371
-217 -566 -14 -99 -14 -322 0 -423 18 -132 74 -335 98 -353 4 -3 20 -36 35
-74 16 -37 48 -93 71 -125 23 -31 46 -64 51 -74 14 -25 118 -142 184 -206 65
-63 248 -185 352 -234 203 -97 363 -131 608 -130 289 0 476 54 750 216 85 51
129 86 237 193 73 73 133 138 133 145 0 8 18 34 40 59 24 28 65 101 109 195
55 120 75 178 101 290 53 234 52 382 -6 638 -33 148 -156 422 -201 450 -7 4
-13 13 -13 18 0 18 -91 131 -162 201 -137 135 -328 259 -492 319 -165 61 -467
101 -631 83z m445 -119 c117 -29 268 -93 368 -157 37 -24 79 -49 94 -57 15 -8
79 -65 142 -127 107 -106 176 -196 227 -296 12 -24 25 -45 30 -48 23 -15 111
-289 129 -400 14 -91 12 -331 -4 -420 -21 -116 -101 -354 -125 -369 -5 -4 -25
-38 -44 -77 -20 -39 -62 -105 -95 -145 -56 -72 -238 -248 -279 -272 -170 -99
-312 -161 -453 -199 -119 -31 -133 -33 -305 -32 -196 0 -257 10 -439 73 -120
42 -295 135 -361 192 -11 10 -47 40 -80 67 -33 27 -80 75 -105 107 -25 31 -63
79 -86 106 -63 75 -169 296 -196 409 -13 52 -26 97 -29 100 -10 8 -29 177 -29
260 0 92 17 245 30 268 5 9 19 55 31 102 39 153 89 254 221 440 18 25 70 84
117 131 74 73 115 105 256 197 48 31 230 113 296 133 127 38 221 49 409 44
146 -3 192 -8 280 -30z"/>
<path d="M525 1803 c4 -10 53 -139 110 -288 57 -148 108 -282 114 -297 l11
-28 103 0 104 0 16 48 c8 26 43 121 77 212 87 235 130 354 130 363 0 4 -42 7
-94 7 -82 0 -95 -2 -100 -17 -16 -60 -129 -429 -131 -431 -3 -4 -18 42 -95
286 l-51 162 -101 0 c-91 0 -100 -2 -93 -17z"/>
<path d="M1260 1506 l0 -316 95 0 95 0 0 119 0 118 103 5 c110 5 143 16 190
65 61 65 63 195 3 261 -46 52 -67 56 -283 60 l-203 4 0 -316z m324 162 c21
-29 20 -61 -1 -87 -14 -16 -31 -22 -73 -24 l-55 -2 -3 68 -3 67 60 0 c51 0 62
-3 75 -22z"/>
<path d="M1900 1505 l0 -315 90 0 90 0 2 171 3 171 115 -171 115 -171 93 0 92
0 0 315 0 315 -95 0 -95 0 -2 -169 -3 -168 -113 168 -113 169 -89 0 -90 0 0
-315z"/>
</g>
</svg>
