<svg xmlns="http://www.w3.org/2000/svg" xmlns:xlink="http://www.w3.org/1999/xlink" version="1.1" width="55" height="55" viewBox="0 0 55 55">
    <g class="currentLayer" style=""><title>Layer 1</title>
        <circle class="frame" r="25" style="fill:white;fill-opacity=0.0;stroke-width:3;stroke:black" cy="27.3958540558815" cx="28.04043483734131" id="svg_2"/>
        <path d="M31.029811177767293,27.291117481099366 q0,-0.45134685728422436 -0.32391597190292043,-0.7826310037637806 t-0.7703947439853246,-0.3290607629461346 h-4.377242863552971 q-0.444290150650626,0 -0.7703947439853246,0.3290607629461346 t-0.32391597190292043,0.7826310037637806 t0.32391597190292043,0.7826310037637806 t0.7703947439853246,0.3290607629461346 h4.377242863552971 q0.444290150650626,0 0.7703947439853246,-0.3290607629461346 t0.32391597190292043,-0.7826310037637806 zM40.87860762076148,23.95604218096963 v16.6753765006487 q0,0.45134685728422436 -0.32391597190292043,0.7826310037637806 t-0.7703947439853246,0.3290607629461346 h-24.07483574954134 q-0.444290150650626,0 -0.7703947439853246,-0.3290607629461346 t-0.32391597190292043,-0.7826310037637806 v-16.6753765006487 q0,-0.45134685728422436 0.32391597190292043,-0.7826310037637806 t0.7703947439853246,-0.3290607629461346 h24.07483574954134 q0.444290150650626,0 0.7703947439853246,0.3290607629461346 t0.32391597190292043,0.7826310037637806 zM41.972918336649734,16.174199814000243 v4.446767066839653 q0,0.45134685728422436 -0.32391597190292043,0.7826310037637806 t-0.7703947439853246,0.3290607629461346 h-26.263457181317825 q-0.444290150650626,0 -0.7703947439853246,-0.3290607629461346 t-0.32391597190292043,-0.7826310037637806 v-4.446767066839653 q0,-0.45134685728422436 0.32391597190292043,-0.7826310037637806 t0.7703947439853246,-0.3290607629461346 h26.263457181317825 q0.444290150650626,0 0.7703947439853246,0.3290607629461346 t0.32391597190292043,0.7826310037637806 z" id="svg_1" class="" fill="black"/>
    </g>
</svg>
