<svg xmlns="http://www.w3.org/2000/svg" xmlns:xlink="http://www.w3.org/1999/xlink" version="1.1" width="55" height="55" viewBox="0 0 55 55"><rect id="backgroundrect" width="100%" height="100%" x="0" y="0" fill="none" stroke="none" style="" class=""/>
<circle class="frame" r="25" style="fill:white;fill-opacity=0.0;stroke-width:3;stroke:black" cy="27.3958540558815" cx="28.04043483734131" id="svg_2"/>
<g class="currentLayer" style=""><title>Layer 1</title><g class="node" fill="white" id="svg_1"><path d="M47.5756655666661,34.19188708743292 q0,3.3245298351616377 -2.3528677335805814,5.677397568742217 t-5.677397568742217,2.3528677335805814 h-22.75241835658125 q-3.8679111206188117,0 -6.619615364214754,-2.7490274884951695 t-2.7490274884951695,-6.619615364214754 q0,-2.759734508898266 1.4855990809297182,-5.051036875161037 t3.9107392022312,-3.418216263688735 q-0.04282808161238836,-0.5862093670695647 -0.04282808161238836,-0.8993897138601541 q0,-4.432706446882184 3.137156978107439,-7.569863424989619 t7.569863424989619,-3.137156978107439 q3.3031157943554414,0 5.990577915532804,1.8416075093326956 t3.921446222634298,4.8101289160913545 q1.4641850401235232,-1.2955494687747455 3.4717513657042214,-1.2955494687747455 q2.2163532234410908,0 3.7849317124948096,1.5685784890537202 t1.5685784890537202,3.7849317124948096 q0,1.5685784890537202 -0.856561632247765,2.885541998634658 q2.6981691415804585,0.6263606935811787 4.454120487688376,2.8132696109137534 t1.7559513461079193,5.008208793548648 z" fill="black" id="svg_1" class=""/></g></g></svg>