<svg xmlns="http://www.w3.org/2000/svg" xmlns:xlink="http://www.w3.org/1999/xlink" version="1.1" width="55" height="55" viewBox="0 0 55 55">
<g class="currentLayer" style=""><title>Layer 1</title><circle class="frame" r="25" style="fill:white;fill-opacity=0.0;stroke-width:3;stroke:black" cy="27.3958540558815" cx="28.04043483734131" id="svg_2"/><g class="node" fill="white" id="svg_1">
    <path d="M40.35555338859558,29.97221535245624 v-12.855555176734924 q0,-0.20173332738876346 -0.14635555124282842,-0.3480888786315922 t-0.3480888786315922,-0.14635555124282842 h-24.72222149372101 q-0.20173332738876346,0 -0.3480888786315922,0.14635555124282842 t-0.14635555124282842,0.3480888786315922 v12.855555176734924 q0,0.20173332738876346 0.14635555124282842,0.3480888786315922 t0.3480888786315922,0.14635555124282842 h24.72222149372101 q0.20173332738876346,0 0.3480888786315922,-0.14635555124282842 t0.14635555124282842,-0.3480888786315922 zM42.33333110809326,17.116660175721314 v16.811110615730286 q0,1.0205333032608033 -0.7258444230556493,1.7463777263164526 t-1.7463777263164526,0.7258444230556493 h-8.405555307865143 q0,0.5715777609348296 0.24722221493721017,1.1965555202960971 t0.4944444298744205,1.0976666343212131 t0.24722221493721017,0.6724444246292124 q0,0.4014888770580295 -0.29271110248565685,0.6961777572631848 t-0.6961777572631848,0.29271110248565685 h-7.911110877990723 q-0.4014888770580295,0 -0.6961777572631848,-0.29271110248565685 t-0.29271110248565685,-0.6961777572631848 q0,-0.21557777142524726 0.24722221493721017,-0.6803555355072026 t0.4944444298744205,-1.0818444125652313 t0.24722221493721017,-1.2044666311740881 h-8.405555307865143 q-1.0205333032608033,0 -1.7463777263164526,-0.7258444230556493 t-0.7258444230556493,-1.7463777263164526 v-16.811110615730286 q0,-1.0205333032608033 0.7258444230556493,-1.7463777263164526 t1.7463777263164526,-0.7258444230556493 h24.72222149372101 q1.0205333032608033,0 1.7463777263164526,0.7258444230556493 t0.7258444230556493,1.7463777263164526 z" id="svg_3" class="" fill="black"/></g></g></svg>