<svg xmlns="http://www.w3.org/2000/svg" xmlns:xlink="http://www.w3.org/1999/xlink" version="1.1" width="55" height="55" viewBox="0 0 55 55">
<g class="currentLayer" style=""><title>Layer 1</title><g class="node" fill="white" id="svg_1">
    <circle class="frame" r="25" style="fill:white;fill-opacity=0.0;stroke-width:3;stroke:black" cy="27.75" cx="27.5" id="svg_2"/><path d="M33.23607537862444,34.39959655112339 q0,0.7896362499413491 -0.5631514340667026,1.3497270783881261 t-1.3497270783881261,0.5631514340667026 t-1.3497270783881261,-0.5631514340667026 t-0.5631514340667026,-1.3497270783881261 t0.5631514340667026,-1.3497270783881261 t1.3497270783881261,-0.5631514340667026 t1.3497270783881261,0.5631514340667026 t0.5631514340667026,1.3497270783881261 zM39.35728661847989,34.39959655112339 q0,0.7896362499413491 -0.5631514340667026,1.3497270783881261 t-1.3497270783881261,0.5631514340667026 t-1.3497270783881261,-0.5631514340667026 t-0.5631514340667026,-1.3497270783881261 t0.5631514340667026,-1.3497270783881261 t1.3497270783881261,-0.5631514340667026 t1.3497270783881261,0.5631514340667026 t0.5631514340667026,1.3497270783881261 zM42.03531653591664,38.225353576033044 v-7.651514049819305 q0,-0.31218177323263163 -0.2264848158746529,-0.5386665891072748 t-0.5386665891072748,-0.2264848158746529 h-29.07575338931336 q-0.31218177323263163,0 -0.5386665891072748,0.2264848158746529 t-0.2264848158746529,0.5386665891072748 v7.651514049819305 q0,0.31218177323263163 0.2264848158746529,0.5386665891072748 t0.5386665891072748,0.2264848158746529 h29.07575338931336 q0.31218177323263163,0 0.5386665891072748,-0.2264848158746529 t0.2264848158746529,-0.5386665891072748 zM12.625957134031161,26.74808250130409 h28.21572321011367 l-3.7553630956513158,-11.5262407646478 q-0.09487877421776016,-0.31218177323263163 -0.3825757024909692,-0.5141817441478544 t-0.6213029408453246,-0.20199997091523159 h-18.697239732138456 q-0.33360601257212297,0 -0.6213029408453246,0.20199997091523159 t-0.3825757024909692,0.5141817441478544 zM45.09592215584436,30.573839526213742 v7.651514049819305 q0,1.579272499882705 -1.1232422625134744,2.702514762396179 t-2.702514762396179,1.1232422625134744 h-29.07575338931336 q-1.579272499882705,0 -2.702514762396179,-1.1232422625134744 t-1.1232422625134744,-2.702514762396179 v-7.651514049819305 q0,-0.5968180958859055 0.3825757024909692,-1.7935148932776452 l4.710272049068765,-14.488907004737836 q0.4070605474503873,-1.2670907266500777 1.505817965004439,-2.05672697659143 t2.4148178341229727,-0.7896362499413491 h18.697239732138456 q1.3160604165689207,0 2.4148178341229727,0.7896362499413491 t1.505817965004439,2.05672697659143 l4.710272049068765,14.488907004737836 q0.3825757024909692,1.1966967973917395 0.3825757024909692,1.7935148932776452 z" fill="black" id="svg_1" class=""/></g></g></svg>