<svg xmlns="http://www.w3.org/2000/svg" xmlns:xlink="http://www.w3.org/1999/xlink" version="1.1" width="55" height="55" style="" viewBox="0 0 55 55">
<g class="currentLayer" style=""><title>Layer 1</title>
    <circle class="frame" r="25" style="fill:white;fill-opacity=0.0;stroke-width:3;stroke:black" cy="27.645854949951172" cx="27.5" id="svg_2"/><g class="node" fill="white" id="svg_1" transform="">
   <path d="M32.18807814999661,44.56914342980922 q0,0.27388073737926877 -0.40593257733391835,0.4681449813343348 t-0.9729144924144437,0.19532579720071977 t-0.9729144924144437,-0.19532579720071977 t-0.40593257733391835,-0.4681449813343348 t0.40593257733391835,-0.4681449813343348 t0.9729144924144437,-0.19532579720071977 t0.9729144924144437,0.19532579720071977 t0.40593257733391835,0.4681449813343348 zM36.60038877319135,44.56914342980922 q0,0.27388073737926877 -0.40593257733391835,0.4681449813343348 t-0.9729144924144437,0.19532579720071977 t-0.9729144924144437,-0.19532579720071977 t-0.40593257733391835,-0.4681449813343348 t0.40593257733391835,-0.4681449813343348 t0.9729144924144437,-0.19532579720071977 t0.9729144924144437,0.19532579720071977 t0.40593257733391835,0.4681449813343348 zM38.53077467083902,45.89608498687931 v-2.653883114140184 q0,-0.10827843105692074 -0.16325549305820744,-0.18683337123547283 t-0.3882833348411376,-0.0785549401785512 h-20.958475460174917 q-0.22502784178293542,0 -0.3882833348411376,0.0785549401785512 t-0.16325549305820744,0.18683337123547283 v2.653883114140184 q0,0.10827843105692074 0.16325549305820744,0.18683337123547283 t0.3882833348411376,0.0785549401785512 h20.958475460174917 q0.22502784178293542,0 0.3882833348411376,-0.0785549401785512 t0.16325549305820744,-0.18683337123547283 zM17.331828281699995,41.91526031566905 h20.338545817616062 l-2.7069525673299615,-3.997809523140771 q-0.06839081465952046,-0.10827843105692074 -0.2757694139496791,-0.17834094527022626 t-0.4478495282542696,-0.07006251421330364 h-13.477402798548274 q-0.24047092896411687,0 -0.4478495282542696,0.07006251421330364 t-0.2757694139496791,0.17834094527022626 zM40.73692998243639,43.24220187273914 v2.653883114140184 q0,0.5477614747585365 -0.8096589993562312,0.9373515159143153 t-1.94803514014047,0.3895900411557822 h-20.958475460174917 q-1.138376140784246,0 -1.94803514014047,-0.3895900411557822 t-0.8096589993562312,-0.9373515159143153 v-2.653883114140184 q0,-0.2070028829029366 0.2757694139496791,-0.6220702019544596 l3.395273024548337,-5.02539306493585 q0.2934186564424537,-0.43948304370161734 1.0854284133058962,-0.7133637810808805 t1.7406565408503172,-0.27388073737926877 h13.477402798548274 q0.9486467839868651,0 1.7406565408503172,0.27388073737926877 t1.0854284133058962,0.7133637810808805 l3.395273024548337,5.02539306493585 q0.2757694139496791,0.4150673190515296 0.2757694139496791,0.6220702019544596 z" fill="black" id="svg_1" class=""/> </g><g class="node" fill="white" id="svg_1"><path d="M37.61987919638645,19.07562919453141 v-9.337139095420175 q0,-0.1465212596512092 -0.11521094216509647,-0.2528209970452253 t-0.2740152137980669,-0.10629973739401449 h-19.461307798158124 q-0.15880427163297095,0 -0.2740152137980669,0.10629973739401449 t-0.11521094216509647,0.2528209970452253 v9.337139095420175 q0,0.1465212596512092 0.11521094216509647,0.2528209970452253 t0.2740152137980669,0.10629973739401449 h19.461307798158124 q0.15880427163297095,0 0.2740152137980669,-0.10629973739401449 t0.11521094216509647,-0.2528209970452253 zM39.1767838202391,9.738490099111235 v12.210104970934077 q0,0.7412251958825876 -0.5713839969539244,1.2684144340393892 t-1.374746782861892,0.5271892381568036 h-6.616844651373762 q0,0.4151435690117598 0.1946130779815817,0.8690721773429565 t0.3892261559631644,0.7972480304551094 t0.1946130779815817,0.4884041988373659 q0,0.2916060363646628 -0.23042188433019267,0.5056419940904496 t-0.5480304275961346,0.21259947478802924 h-6.227618495410598 q-0.3160516386420888,0 -0.5480304275961346,-0.21259947478802924 t-0.23042188433019267,-0.5056419940904496 q0,-0.15657664021550788 0.1946130779815817,-0.49415013058839313 t0.3892261559631644,-0.7857561669530522 t0.1946130779815817,-0.8748181090939836 h-6.616844651373762 q-0.8033627859079627,0 -1.374746782861892,-0.5271892381568036 t-0.5713839969539244,-1.2684144340393892 v-12.210104970934077 q0,-0.7412251958825876 0.5713839969539244,-1.2684144340393892 t1.374746782861892,-0.5271892381568036 h19.461307798158124 q0.8033627859079627,0 1.374746782861892,0.5271892381568036 t0.5713839969539244,1.2684144340393892 z" id="svg_1" class="" fill="black"/></g>
   <path fill="white" stroke-dashoffset="" fill-rule="nonzero" marker-start="" marker-mid="" marker-end="" id="svg_12" d="M28.399563437973487,24.178364837760764 L28.46053905232038,24.117594034111615 L28.521514666667276,24.178364837760764 L28.491026857440794,24.178364837760764 L28.491026857440794,24.239428059185588 L28.43005124719997,24.239428059185588 L28.43005124719997,24.178364837760764 L28.399563437973487,24.178364837760764 z" style="color: rgb(0, 0, 0);" class=""/><path fill="white" stroke="#000000" stroke-dashoffset="" fill-rule="nonzero" marker-start="" marker-mid="" marker-end="" id="svg_8" d="M21.229060740433376,33.012646093486005 L24.865166938269425,29.37652218221755 L24.865166938269425,31.19457930350348 L30.134835949187533,31.19457930350348 L30.134835949187533,29.37652218221755 L33.770940465511224,33.012646093486005 L30.134835949187533,36.648750667361654 L30.134835949187533,34.830698170234854 L24.865166938269425,34.830698170234854 L24.865166938269425,36.648750667361654 L21.229060740433376,33.012646093486005 z" style="color: rgb(0, 0, 0);" class="" transform="rotate(-89.53512573242188 27.499999999999996,33.01263427734375) "/></g></svg>