<?xml version="1.0" standalone="no"?>
<!DOCTYPE svg PUBLIC "-//W3C//DTD SVG 20010904//EN"
 "http://www.w3.org/TR/2001/REC-SVG-20010904/DTD/svg10.dtd">
<svg version="1.0" xmlns="http://www.w3.org/2000/svg"
 width="300.000000pt" height="300.000000pt" viewBox="0 0 300.000000 300.000000"
 preserveAspectRatio="xMidYMid meet" style="background-color: #FFFFFF;">
<g transform="translate(0.000000,300.000000) scale(0.100000,-0.100000)"
fill="#808080" stroke="none">
<path d="M1375 2904 c-102 -11 -229 -37 -320 -65 -98 -30 -259 -108 -319 -155
-17 -13 -68 -49 -113 -81 -89 -63 -209 -194 -295 -321 -112 -167 -190 -371
-217 -566 -14 -99 -14 -322 0 -423 18 -132 74 -335 98 -353 4 -3 20 -36 35
-74 16 -37 48 -93 71 -125 23 -31 46 -64 51 -74 14 -25 118 -142 184 -206 65
-63 248 -185 352 -234 203 -97 363 -131 608 -130 289 0 476 54 750 216 85 51
129 86 237 193 73 73 133 138 133 145 0 8 18 34 40 59 24 28 65 101 109 195
55 120 75 178 101 290 53 234 52 382 -6 638 -33 148 -156 422 -201 450 -7 4
-13 13 -13 18 0 18 -91 131 -162 201 -137 135 -328 259 -492 319 -165 61 -467
101 -631 83z m445 -119 c117 -29 268 -93 368 -157 37 -24 79 -49 94 -57 15 -8
79 -65 142 -127 107 -106 176 -196 227 -296 12 -24 25 -45 30 -48 23 -15 111
-289 129 -400 14 -91 12 -331 -4 -420 -21 -116 -101 -354 -125 -369 -5 -4 -25
-38 -44 -77 -20 -39 -62 -105 -95 -145 -56 -72 -238 -248 -279 -272 -170 -99
-312 -161 -453 -199 -119 -31 -133 -33 -305 -32 -196 0 -257 10 -439 73 -120
42 -295 135 -361 192 -11 10 -47 40 -80 67 -33 27 -80 75 -105 107 -25 31 -63
79 -86 106 -63 75 -169 296 -196 409 -13 52 -26 97 -29 100 -10 8 -29 177 -29
260 0 92 17 245 30 268 5 9 19 55 31 102 39 153 89 254 221 440 18 25 70 84
117 131 74 73 115 105 256 197 48 31 230 113 296 133 127 38 221 49 409 44
146 -3 192 -8 280 -30z"/>
<path d="M1023 2210 c-22 -9 -23 -14 -23 -144 l0 -135 43 18 42 18 3 76 3 77
479 0 480 0 0 -419 0 -419 -24 -29 c-30 -36 -97 -53 -206 -53 -55 0 -83 -4
-93 -14 -10 -10 -16 -49 -19 -133 -5 -122 -14 -155 -52 -185 -19 -16 -50 -18
-293 -18 l-273 0 0 84 c0 83 0 84 -27 94 -16 5 -36 13 -46 17 -16 7 -17 -2
-15 -136 l3 -144 325 -3 c179 -1 339 0 356 3 49 9 112 63 274 237 113 122 153
172 165 206 13 39 15 118 15 519 l0 473 -26 10 c-32 13 -1060 12 -1091 0z"/>
<path d="M1063 1870 c-24 -10 -43 -22 -43 -25 0 -3 7 -35 16 -71 15 -59 15
-67 1 -81 -13 -14 -22 -13 -82 2 -56 14 -70 14 -80 3 -19 -20 -44 -93 -37
-105 4 -5 33 -26 65 -46 31 -20 57 -44 57 -52 0 -9 -21 -29 -47 -45 -94 -57
-89 -49 -68 -108 10 -28 24 -53 31 -56 7 -3 40 2 75 10 35 8 69 12 77 9 14 -5
14 -9 -3 -125 l-7 -45 51 -23 c28 -13 56 -20 62 -17 6 4 26 32 46 62 45 70 65
69 111 -9 19 -32 40 -58 47 -58 7 0 35 9 60 20 l48 20 -7 43 c-3 23 -9 57 -12
76 -10 53 11 63 90 41 35 -10 68 -15 73 -11 13 8 43 78 43 100 0 9 -25 32 -55
51 -82 52 -83 69 -6 112 72 41 75 46 49 107 -21 52 -22 53 -57 47 -100 -16
-129 -18 -136 -7 -4 7 1 41 10 76 10 35 15 70 12 78 -7 18 -91 51 -110 44 -8
-3 -29 -31 -47 -62 -42 -73 -61 -71 -108 8 -39 64 -51 68 -119 37z m228 -265
c120 -63 73 -245 -64 -245 -44 0 -53 4 -88 39 -35 35 -39 44 -39 89 0 40 5 57
27 82 43 51 106 65 164 35z"/>
</g>
</svg>
