<svg xmlns="http://www.w3.org/2000/svg" xmlns:xlink="http://www.w3.org/1999/xlink" version="1.1" width="55" height="55" viewBox="0 0 55 55">
<g class="currentLayer" style=""><title>Layer 1</title><g class="node" fill="white" id="svg_1">
    <circle class="frame" r="25" style="fill:white;fill-opacity=0.0;stroke-width:3;stroke:black" cy="27.3958540558815" cx="28.04043483734131" id="svg_2"/><path d="M36.9512633250924,30.318185320308032 v-13.181812766387628 h-9.22726893647134 v23.41880856076426 q2.4518171745480988,-1.2970903762125432 4.386907288653803,-2.8209079320069526 q4.840361647817538,-3.791089351613082 4.840361647817538,-7.413451499816403 zM40.90580715500869,14.500010000642881 v15.818175319665153 q0,1.7716356358024976 -0.6907269889587117,3.5116349209656628 t-1.7083629345238371,3.08981691244126 t-2.4307262741218785,2.6258171030644153 t-2.6047262026381954,2.1222718553884077 t-2.4913626128472623,1.5949993447329036 t-1.8428174247409914,1.020272308118403 t-0.8752723676881394,0.4112725583112947 q-0.24781808000808778,0.12390904000404387 -0.5351815983153382,0.12390904000404387 t-0.5351815983153382,-0.12390904000404387 q-0.32954531915969126,-0.14499994043026437 -0.8752723676881394,-0.4112725583112947 t-1.8428174247409914,-1.020272308118403 t-2.4913626128472623,-1.5949993447329036 t-2.6047262026381954,-2.1222718553884077 t-2.4307262741218785,-2.6258171030644153 t-1.7083629345238371,-3.08981691244126 t-0.6907269889587117,-3.5116349209656628 v-15.818175319665153 q0,-0.5351815983153382 0.3901816578850741,-0.9279996187536893 t0.9279996187536893,-0.3901816578850741 h23.72726297949773 q0.5351815983153382,0 0.9279996187536893,0.3901816578850741 t0.3901816578850741,0.9279996187536893 z" fill="black" id="svg_1" class="selected"/></g></g></svg>