<svg xmlns="http://www.w3.org/2000/svg" width="55" height="55" viewBox="0 0 55 55">
<g class="currentLayer" style=""><title>Layer 1</title>
    <circle class="frame" r="25" style="fill:white;fill-opacity=0.0;stroke-width:3;stroke:black" cy="27.3958540558815" cx="28.04043483734131" id="svg_2"/><g class="node" fill="white" id="svg_1">
    <path class="svgpath" d="m40.79472054415106,28.69185410737991 l-10.258286807627679,0 l0,10.25828560762763 l2.496000099182129,-2.495997699182033 l7.570286700816155,7.57028430081606 l5.266284209263325,-5.26628660926342 l-7.570285500816106,-7.57028430081606 zm-25.508572493619564,-4.9919989983642115 l10.258285487627624,0 l0,-10.258287167627692 l-2.496000099182129,2.496000099182129 L15.478148058160897,8.367281615753996 L10.211862648897522,13.633567949017404 L17.782148149713635,21.203853809833532 zm-3.7302853482282163,8.722285546592474 l0,10.25828560762763 l10.258285487627624,0 L19.318148210748788,40.18442736405373 L26.88843359156489,32.58671226214767 L21.649576583391422,27.347854053974146 L14.051862801485413,34.91814195479037 zM44.52500589237928,19.969568320787435 l0,-10.258286171627653 l-10.258286807627679,0 l2.496000099182129,2.4959999431821225 l-7.570285500816106,7.570286220816136 l5.26628660926342,5.26628684926343 l7.570285500816106,-7.5702870608161685 z" fill="black" id="svg_3"/>
  </g></g></svg>