<svg id="uuid-b7b69daf-209a-45b8-a51a-058a43023046" xmlns="http://www.w3.org/2000/svg" width="18" height="18" viewBox="0 0 18 18"><defs><linearGradient id="uuid-84bbb701-e710-439a-8d5c-2912a87323e7" x1="5.73" y1="11.363" x2="17.988" y2="11.363" gradientUnits="userSpaceOnUse"><stop offset="0" stop-color="#c74634" /><stop offset=".5" stop-color="#db897d" /><stop offset="1" stop-color="#c74634" /></linearGradient><linearGradient id="uuid-3c2be0c3-c558-4b11-8dcd-01fe8a231c8b" x1="5.599" y1="8.084" x2="5.599" y2="0" gradientUnits="userSpaceOnUse"><stop offset="0" stop-color="#32bedd" /><stop offset="1" stop-color="#50e6ff" /></linearGradient></defs><path d="m11.859,14.979c-3.385,0-6.129-.595-6.129-1.329v3.094c0,.734,2.744,1.329,6.129,1.329s6.129-.595,6.129-1.329v-3.094c0,.734-2.744,1.329-6.129,1.329Zm5.157.63c-.463.16-.943.286-1.425.375-.575.105-1.163.159-1.749.159h0c-.141,0-.256-.114-.256-.255,0-.141.114-.255.256-.255.555,0,1.112-.051,1.657-.151.457-.084.911-.203,1.35-.355.134-.046.279.024.326.158.046.133-.024.279-.158.325Zm-5.157-4.609c-3.385,0-6.129-.595-6.129-1.329v3.258c0,.734,2.744,1.328,6.129,1.328s6.129-.595,6.129-1.329v-3.258c0,.734-2.744,1.329-6.129,1.329Zm5.157.738c-.464.16-.943.286-1.425.375-.575.105-1.164.159-1.749.159h0c-.141,0-.256-.114-.256-.255,0-.141.114-.255.256-.255.555,0,1.112-.051,1.657-.151.457-.084.911-.203,1.35-.355.134-.046.279.024.326.158s-.024.279-.158.325Zm-5.157-7.085c-3.385,0-6.129.588-6.129,1.561v2.737c0,.734,2.744,1.328,6.129,1.328s6.129-.595,6.129-1.329v-2.637c0-1.073-2.744-1.661-6.129-1.661Zm5.157,3.325c-.464.16-.943.286-1.425.375-.575.105-1.163.159-1.749.159h0c-.141,0-.256-.114-.256-.255,0-.141.114-.255.256-.255.555,0,1.112-.051,1.657-.151.456-.084.911-.203,1.35-.355.134-.046.279.024.326.158.046.133-.024.279-.158.325Zm-5.157-.905c-3.049,0-5.52-.555-5.52-.884,0-.404,2.471-1.028,5.52-1.028s5.52.649,5.52,1.028c0,.344-2.471.884-5.52.884Z" fill="url(#uuid-84bbb701-e710-439a-8d5c-2912a87323e7)" /><path d="m5.73,6.188v-.047c0-.907,2.388-1.479,5.457-1.552-.353-.792-1.092-1.379-1.996-1.499C9.114,1.323,7.632-.053,5.865.002c-1.406-.025-2.675.84-3.165,2.158C1.199,2.341.056,3.593.012,5.104c.067,1.708,1.503,3.039,3.211,2.978.095,0,.192-.004.282-.012h2.224v-1.882Z" fill="url(#uuid-3c2be0c3-c558-4b11-8dcd-01fe8a231c8b)" /><rect y="0" width="18" height="18" fill="none" /></svg>