<?xml version="1.0" encoding="UTF-8" standalone="no"?>
<svg
   id="uuid-e7bc5e23-ed39-478a-a802-bf63579b10d1"
   width="16.9585"
   height="18"
   viewBox="0 0 16.9585 18"
   version="1.1"
   xmlns="http://www.w3.org/2000/svg"
   xmlns:svg="http://www.w3.org/2000/svg">
  <defs
     id="defs5">
    <clipPath
       id="uuid-ddf5421c-520a-4624-b78e-a1cac6da627a">
      <rect
         width="18"
         height="18"
         fill="none"
         id="rect2"
         x="0"
         y="0" />
    </clipPath>
  </defs>
  <g
     clip-path="url(#uuid-ddf5421c-520a-4624-b78e-a1cac6da627a)"
     id="g33"
     transform="translate(-0.52075)">
    <g
       id="g31">
      <path
         d="M 7.167,7.943 C 6.977,8.27 6.628,8.471 6.25,8.471 H 2.276 C 2.089,8.471 1.916,8.372 1.823,8.21 L 0.593,6.089 C 0.498,5.925 0.498,5.723 0.593,5.56 L 1.821,3.442 C 1.916,3.278 2.091,3.177 2.281,3.177 h 2.437 c 0.189,0 0.364,0.101 0.46,0.265 l 0.614,1.059 1.376,2.381 c 0.19,0.329 0.19,0.734 0,1.062 H 7.167 Z"
         fill="#86d633"
         id="path7" />
      <path
         d="M 11.902,2.91 11.297,3.971 9.921,6.351 C 9.731,6.68 9.38,6.883 8.999,6.883 8.618,6.883 8.268,6.68 8.077,6.351 L 6.701,3.971 6.097,2.912 C 6.003,2.747 6.003,2.545 6.097,2.381 L 7.312,0.272 C 7.409,0.104 7.588,0 7.782,0 h 2.444 c 0.189,0 0.363,0.101 0.458,0.265 l 1.218,2.118 c 0.094,0.163 0.094,0.363 0,0.527 z"
         fill="#ffd400"
         id="path9" />
      <path
         d="m 7.167,10.057 c 0.19,0.328 0.191,0.733 0,1.062 L 5.791,13.5 5.177,14.559 c -0.095,0.164 -0.27,0.265 -0.46,0.265 H 2.28 c -0.189,0 -0.365,-0.101 -0.46,-0.265 L 0.592,12.441 c -0.095,-0.164 -0.095,-0.366 0,-0.529 L 1.822,9.791 C 1.916,9.629 2.088,9.53 2.275,9.53 h 3.974 c 0.378,0 0.727,0.201 0.917,0.528 v 0 z"
         fill="#5ea0ef"
         id="path11" />
      <path
         d="m 17.407,6.088 -1.228,2.118 c -0.095,0.164 -0.27,0.265 -0.46,0.265 h -3.97 c -0.378,0 -0.727,-0.201 -0.917,-0.528 -0.19,-0.328 -0.191,-0.733 0,-1.062 L 12.208,4.5 12.822,3.441 c 0.095,-0.164 0.27,-0.265 0.46,-0.265 h 2.437 c 0.189,0 0.365,0.101 0.46,0.265 l 1.228,2.118 c 0.095,0.164 0.095,0.366 0,0.529 z"
         fill="#faa21d"
         id="path13" />
      <path
         d="m 17.407,12.441 -1.23,2.121 c -0.094,0.162 -0.266,0.261 -0.453,0.261 h -2.446 c -0.187,0 -0.359,-0.099 -0.453,-0.261 L 12.209,13.5 10.833,11.119 c -0.19,-0.329 -0.19,-0.734 0,-1.062 0.19,-0.327 0.539,-0.528 0.917,-0.528 h 3.97 c 0.189,0 0.365,0.101 0.46,0.265 l 1.228,2.118 c 0.095,0.164 0.095,0.366 0,0.529 v 0 z"
         fill="#f04049"
         id="path15" />
      <path
         d="m 11.901,15.618 -1.218,2.118 c -0.094,0.164 -0.269,0.265 -0.458,0.265 H 7.781 c -0.194,0 -0.373,-0.104 -0.47,-0.272 l -1.213,-2.11 c -0.094,-0.163 -0.094,-0.364 0,-0.528 L 6.703,14.03 8.079,11.65 c 0.19,-0.329 0.541,-0.532 0.922,-0.532 0.381,0 0.731,0.203 0.922,0.532 l 1.376,2.38 0.605,1.061 c 0.093,0.164 0.093,0.364 0,0.528 h -0.003 z"
         fill="#a67af4"
         id="path17" />
      <path
         d="M 6.251,9.529 H 4.765 v 1.426 c 0,0.303 0.161,0.582 0.423,0.733 l 1.238,0.715 0.743,-1.284 c 0.19,-0.329 0.19,-0.734 0,-1.062 C 6.979,9.73 6.629,9.529 6.251,9.529 Z"
         fill="#b7d2f9"
         id="path19" />
      <path
         d="m 9,11.118 c -0.38,0 -0.731,0.203 -0.922,0.532 l -0.741,1.281 1.239,0.715 c 0.262,0.151 0.585,0.151 0.847,0 L 10.662,12.931 9.921,11.65 C 9.731,11.321 9.38,11.118 8.999,11.118 Z"
         fill="#d2bff9"
         id="path21" />
      <path
         d="m 11.749,8.471 h 1.486 V 7.044 c 0,-0.303 -0.162,-0.582 -0.424,-0.733 L 11.574,5.597 10.831,6.882 c -0.19,0.329 -0.19,0.734 0,1.062 0.19,0.327 0.539,0.528 0.917,0.528 v 0 z"
         fill="#f7cc88"
         id="path23" />
      <path
         d="m 13.235,9.529 h -1.486 c -0.378,0 -0.727,0.201 -0.917,0.528 -0.19,0.328 -0.191,0.733 0,1.062 l 0.743,1.285 1.237,-0.714 c 0.262,-0.151 0.423,-0.431 0.424,-0.734 V 9.529 Z"
         fill="#f6a9af"
         id="path25" />
      <path
         d="M 8.576,4.354 7.337,5.069 8.078,6.35 C 8.268,6.679 8.619,6.882 9,6.882 9.381,6.882 9.731,6.679 9.922,6.35 L 10.663,5.069 9.424,4.354 C 9.162,4.203 8.838,4.203 8.576,4.354 Z"
         fill="#fbe981"
         id="path27" />
      <path
         d="M 6.425,5.596 5.188,6.31 C 4.926,6.461 4.764,6.741 4.764,7.044 V 8.471 H 6.25 c 0.378,0 0.727,-0.201 0.917,-0.528 0.19,-0.328 0.191,-0.733 0,-1.062 L 6.424,5.596 v 0 z"
         fill="#c4ea8b"
         id="path29" />
    </g>
  </g>
</svg>
