<?xml version="1.0" encoding="utf-8"?>
<!-- Generator: Adobe Illustrator 21.1.0, SVG Export Plug-In . SVG Version: 6.00 Build 0)  -->
<svg version="1.1" id="Layer_1" xmlns="http://www.w3.org/2000/svg" xmlns:xlink="http://www.w3.org/1999/xlink" x="0px" y="0px"
	 viewBox="0 0 60.3 60.2" style="enable-background:new 0 0 60.3 60.2;" xml:space="preserve">
<style type="text/css">
	.st0{opacity:0;}
	.st1{opacity:0.38;fill:#FFFFFF;enable-background:new    ;}
	.st2{fill:#ECC01B;}
	.st3{fill:#FFFFFF;}
</style>
<title>INDIVIDUAL ICONS</title>
<g class="st0">
	<ellipse class="st1" cx="26.7" cy="21.2" rx="8" ry="7.9"/>
	<ellipse class="st1" cx="26.7" cy="21.2" rx="5.5" ry="5.5"/>
</g>
<ellipse class="st2" cx="30.2" cy="30.1" rx="30.2" ry="30.1"/>
<rect x="18.7" y="20.3" class="st3" width="2.5" height="1.4"/>
<rect x="32.1" y="20.5" class="st3" width="2.4" height="1.4"/>
<rect x="26" y="13.3" class="st3" width="1.4" height="2.5"/>
<polygon class="st3" points="31.2,18 30.2,17 31.9,15.3 32.9,16.3 "/>
<polygon class="st3" points="22.3,17.9 20.5,16.1 21.5,15.1 23.3,16.8 "/>
<path class="st3" d="M47.2,24.6c-1.3,0-2.3,1-2.3,2.3c0,0.8,0.4,1.5,1,1.9l0,0l-4.5,9.9c-0.3-0.1-0.5-0.1-0.8-0.1
	c-0.5,0-1.1,0.1-1.5,0.4l0,0l-0.8-4.9c0.9-0.3,1.5-1.2,1.5-2.2c0-1.3-1.1-2.4-2.4-2.5c-0.6,0.1-1.3,0.3-1.8,0.6l0,0l-2.3-0.4
	c-0.1-1.2-1.1-2-2.3-2c-0.1,0-0.3,0-0.4,0l-1.8-5.9l0,0c0.1-0.2,0.2-0.5,0.2-0.8c0-1.3-1-2.3-2.3-2.3c0,0,0,0,0,0
	c-1.3,0-2.3,1.1-2.3,2.4c0,0,0,0,0,0.1l-9.4,8c-0.9-0.9-2.3-1-3.3-0.1c-0.9,0.9-1,2.3-0.1,3.3s2.3,1,3.3,0.1
	c0.5-0.4,0.8-1.1,0.8-1.7c0-0.2-0.1-0.4-0.2-0.6l9.1-7.8l0,0c0.4,0.8,1.2,1.2,2.1,1.2c0.5,0,1-0.2,1.4-0.5V23l1.7,5.2l0,0
	c-0.6,0-0.9,1.2-0.9,1.9c0,1.3,1,2.4,2.3,2.4c0.9,0,1.7-0.6,1.9-1.5l1.7,0.5l0,0v0.6c0.1,1.3,1.3,2.4,2.6,2.3c0.2,0,0.4,0,0.6,0
	c-0.1,0-0.3,0-0.4,0h-0.1l1.2,5.7c-0.1,0.3-0.2,0.6-0.2,0.8c0,1.3,1.1,2.3,2.3,2.3c1.2,0,2.2-1,2.2-2.2c0,0,0-0.1,0-0.1
	c0.1-0.7-0.3-1.4-0.9-1.7l0,0l4.7-10l0,0h0.4c1.3,0,2.4-1,2.4-2.3C49.5,25.7,48.5,24.6,47.2,24.6C47.2,24.6,47.2,24.6,47.2,24.6z
	 M13.2,32.1c-0.7,0-1.3-0.6-1.2-1.3c0-0.7,0.6-1.3,1.3-1.2c0.7,0,1.2,0.6,1.2,1.3C14.5,31.5,13.9,32.1,13.2,32.1
	C13.2,32.1,13.2,32.1,13.2,32.1L13.2,32.1z M15.2,29.7L15.2,29.7z M24.4,21.8L24.4,21.8L24.4,21.8z M26.6,22.5
	c-0.7,0-1.3-0.6-1.2-1.3c0-0.7,0.6-1.3,1.3-1.2c0.7,0,1.2,0.6,1.2,1.3C28,21.9,27.4,22.5,26.6,22.5C26.7,22.5,26.6,22.5,26.6,22.5
	L26.6,22.5z M28.4,22.7L28.4,22.7L28.4,22.7z M30.1,28L30.1,28z M31.1,31.5c-0.7,0-1.3-0.6-1.3-1.3s0.6-1.3,1.3-1.3
	c0.7,0,1.3,0.6,1.3,1.3C32.4,30.9,31.8,31.5,31.1,31.5L31.1,31.5z M33.4,30.6c0-0.1,0.1-0.3,0.1-0.4C33.5,30.3,33.5,30.5,33.4,30.6
	L33.4,30.6z M35.5,31L35.5,31z M36.3,32.1c0-0.7,0.6-1.3,1.3-1.3c0.7,0,1.3,0.6,1.3,1.3s-0.6,1.3-1.3,1.3c0,0,0,0-0.1,0
	C36.8,33.3,36.3,32.8,36.3,32.1z M39,39.6L39,39.6L39,39.6z M40.8,42.3c-0.7,0-1.3-0.6-1.3-1.3s0.6-1.3,1.3-1.3
	c0.7,0,1.3,0.6,1.3,1.3C42.1,41.7,41.5,42.3,40.8,42.3C40.8,42.3,40.8,42.3,40.8,42.3L40.8,42.3z M41.9,39L41.9,39z M46.3,29.2
	L46.3,29.2z M47.2,28.3c-0.7,0-1.3-0.6-1.2-1.3c0-0.7,0.6-1.3,1.3-1.2c0.7,0,1.2,0.6,1.2,1.2C48.5,27.7,47.9,28.3,47.2,28.3
	C47.2,28.3,47.2,28.3,47.2,28.3L47.2,28.3z"/>
<ellipse class="st3" cx="26.7" cy="21.2" rx="1.8" ry="1.8"/>
</svg>
