<?xml version="1.0" encoding="utf-8"?>
<!-- Generator: Adobe Illustrator 21.1.0, SVG Export Plug-In . SVG Version: 6.00 Build 0)  -->
<svg version="1.1" id="Layer_1" xmlns="http://www.w3.org/2000/svg" xmlns:xlink="http://www.w3.org/1999/xlink" x="0px" y="0px"
	 viewBox="0 0 59.2 59.2" style="enable-background:new 0 0 59.2 59.2;" xml:space="preserve">
<style type="text/css">
	.st0{fill:#ECC01B;}
	.st1{fill:#FFFFFF;}
	.st2{fill:none;stroke:#FFFFFF;stroke-linecap:round;stroke-linejoin:round;}
</style>
<title>INDIVIDUAL ICONS</title>
<circle class="st0" cx="29.6" cy="29.6" r="29.6"/>
<path class="st1" d="M24.9,31.3c0.1-0.3,0.2-0.7,0.3-1l2.5-1l-0.6-3.4l-2.5-0.1c-0.4-0.7-0.8-1.3-1.4-1.9l0.3-2.5l-3.1-1.3l-1.3,2.1
	c-0.8,0-1.5,0.2-2.2,0.5l-2-1.6l-2.6,2.2l1.2,2.5c-0.2,0.3-0.3,0.7-0.4,1c-0.1,0.3-0.2,0.7-0.3,1l-2.5,1l0.6,3.4l2.5,0.1
	c0.4,0.7,0.8,1.3,1.4,1.8l-0.3,2.5l3.1,1.2l1.3-2.1c0.8,0,1.5-0.2,2.2-0.5l2,1.7l2.6-2.2l-1.3-2.5C24.6,32,24.8,31.6,24.9,31.3z
	 M25,34.6l-1.9,1.6l-1.6-1.4l-0.2-0.2L21,34.7c-0.6,0.3-1.3,0.4-2,0.4h-0.3l-0.2,0.3l-1.1,1.8l-2.3-0.9l0.3-2V34l-0.2-0.2
	c-0.5-0.5-1-1.1-1.3-1.7l-0.1-0.3h-0.3l-2.1-0.1L11,29.2l2.1-0.9l0.3-0.1l0.1-0.3c0.1-0.3,0.1-0.6,0.3-0.9c0.1-0.3,0.2-0.6,0.4-0.9
	l0.1-0.3l-0.1-0.3l-1-2l1.9-1.6l1.6,1.4l0.2,0.2l0.3-0.1c0.6-0.3,1.3-0.4,2-0.4h0.3l0.2-0.3l1.1-1.7l2.3,0.9l-0.3,2v0.3l0.2,0.2
	c0.5,0.5,1,1.1,1.3,1.7l0.2,0.3h0.3l2.1,0.1l0.4,2.5L25,29.7l-0.3,0.1l-0.1,0.3c-0.1,0.3-0.1,0.6-0.3,0.9c-0.1,0.3-0.2,0.6-0.4,0.9
	l-0.2,0.3l0.1,0.3L25,34.6z"/>
<path class="st1" d="M20.3,25.7c-1.7-0.6-3.6,0.3-4.2,2c0,0,0,0.1,0,0.1c-0.7,1.8,0.2,3.7,1.9,4.5c1.7,0.6,3.6-0.3,4.2-2.1
	c0,0,0-0.1,0-0.1C22.7,28.4,21.9,26.5,20.3,25.7z M18.6,30.2c-0.6-0.2-0.9-0.9-0.6-1.5c0.2-0.6,0.8-0.9,1.4-0.7c0,0,0,0,0.1,0
	c0.6,0.2,0.9,0.9,0.6,1.5C19.9,30,19.3,30.4,18.6,30.2C18.7,30.2,18.7,30.2,18.6,30.2z"/>
<path class="st1" d="M39.1,20.1c0.1-0.3,0.2-0.6,0.2-0.8l2-0.9l-0.5-2.8l-2.1-0.1c-0.3-0.6-0.7-1.1-1.2-1.5l0.3-2.1l-2.5-1l-1.1,1.8
	c-0.6,0-1.3,0.1-1.8,0.4l-1.6-1.4l-2.1,1.8l1,2.1c-0.1,0.3-0.3,0.5-0.3,0.8c-0.1,0.3-0.1,0.6-0.2,0.9l-2,0.9l0.5,2.8l2.1,0.1
	c0.3,0.6,0.7,1.1,1.2,1.5l-0.3,2.1l2.5,1l1.1-1.8c0.6,0,1.3-0.1,1.8-0.4l1.6,1.4l2.1-1.8l-1-2C39,20.6,39.1,20.4,39.1,20.1z
	 M39.3,22.8l-1.5,1.3L36.4,23l-0.2-0.2l-0.2,0.1c-0.5,0.2-1.1,0.3-1.7,0.3H34l-0.1,0.2L33,24.9l-1.9-0.7l0.2-1.7v-0.3l-0.2-0.2
	c-0.4-0.4-0.8-0.9-1.1-1.4L30,20.4h-0.2l-1.7,0l-0.4-2l1.7-0.7l0.2-0.1l0-0.3c0-0.3,0.1-0.5,0.2-0.8c0.1-0.2,0.2-0.5,0.3-0.7
	l0.1-0.2l0-0.2l-0.8-1.7l1.5-1.3l1.3,1.1l0.2,0.2l0.2-0.1c0.5-0.2,1.1-0.3,1.7-0.3h0.2l0.1-0.2l0.9-1.4l1.9,0.7l-0.2,1.6v0.3
	l0.2,0.2c0.4,0.4,0.8,0.9,1.1,1.4l0.1,0.2h0.3l1.7,0l0.4,2l-1.7,0.7L39,18.9l0,0.3c0,0.3-0.1,0.5-0.2,0.8c-0.1,0.2-0.2,0.5-0.3,0.7
	l-0.1,0.2l0.1,0.2L39.3,22.8z"/>
<path class="st1" d="M35.3,15.5c-1.4-0.5-3,0.2-3.5,1.6c0,0,0,0,0,0.1c-0.6,1.5,0.1,3.1,1.6,3.7c1.4,0.5,3-0.2,3.5-1.6
	c0,0,0,0,0-0.1C37.4,17.7,36.7,16.1,35.3,15.5z M34,19.1c-0.5-0.2-0.7-0.8-0.5-1.2c0.1-0.5,0.7-0.7,1.1-0.6c0,0,0,0,0,0
	c0.5,0.2,0.7,0.8,0.5,1.2C35,19,34.5,19.3,34,19.1C34,19.1,34,19.1,34,19.1L34,19.1z"/>
<path class="st1" d="M45.1,39.6c0.2-0.5,0.3-0.9,0.4-1.4l3.3-1.4L48,32.3l-3.3-0.1c-0.5-0.9-1.1-1.8-1.9-2.5l0.4-3.3l-4.1-1.6
	l-1.8,2.8c-1,0-2,0.2-3,0.6L31.8,26L28.3,29l1.7,3.3c-0.2,0.4-0.4,0.8-0.6,1.3c-0.2,0.4-0.3,0.9-0.4,1.4l-3.3,1.4l0.8,4.5l3.3,0.1
	c0.5,0.9,1.1,1.8,1.9,2.5l-0.4,3.3l4.1,1.6l1.8-2.8c1,0,2-0.2,3-0.6l2.6,2.2l3.4-2.9l-1.7-3.3C44.7,40.5,44.9,40,45.1,39.6z
	 M45.3,43.9L42.8,46l-2.2-1.8L40.3,44l-0.4,0.2c-0.9,0.4-1.8,0.5-2.7,0.5h-0.4L36.5,45l-1.4,2.3l-3-1.2l0.4-2.7l0-0.4l-0.3-0.3
	c-0.7-0.6-1.3-1.4-1.7-2.3l-0.2-0.3h-0.4l-2.8-0.1l-0.6-3.3l2.7-1.1l0.4-0.2l0.1-0.4c0.1-0.4,0.2-0.8,0.3-1.2
	c0.1-0.4,0.3-0.8,0.5-1.2l0.2-0.4l-0.2-0.4l-1.4-2.7l2.5-2.1l2.2,1.8l0.3,0.3l0.4-0.2c0.9-0.4,1.8-0.5,2.7-0.5h0.4l0.2-0.4l1.4-2.3
	l3,1.2L42,29.7l0,0.4l0.3,0.3c0.7,0.6,1.3,1.4,1.7,2.3l0.2,0.4h0.4l2.8,0.1l0.6,3.3l-2.7,1.1l-0.4,0.2l-0.1,0.4
	c-0.1,0.4-0.2,0.8-0.3,1.2c-0.1,0.4-0.3,0.8-0.5,1.2l-0.2,0.4l0.2,0.4L45.3,43.9z"/>
<path class="st1" d="M38.8,32.2c-2.3-0.8-4.8,0.4-5.6,2.7c0,0.1,0,0.1-0.1,0.2c-0.9,2.4,0.2,5,2.5,6c2.3,0.8,4.8-0.4,5.6-2.7
	c0-0.1,0-0.1,0.1-0.2C42.3,35.8,41.1,33.2,38.8,32.2z M36.8,38c-0.8-0.3-1.1-1.2-0.8-2c0.2-0.8,1.1-1.2,1.8-1c0,0,0,0,0.1,0
	c0.8,0.3,1.1,1.2,0.8,2C38.4,37.8,37.6,38.3,36.8,38C36.8,38,36.8,38,36.8,38z"/>
<path class="st2" d="M10,45.5c2.8,3,6.2,5.5,10,7.2c13,5.5,27.9-0.6,33.4-13.5c0.1-0.3,0.3-0.7,0.4-1c3.3-9,1.4-19-4.8-26.2
	C42.6,4.9,33,1.9,23.7,4.1c-8.8,2.3-15.8,9-18.5,17.7c-0.4,1.1-0.6,2.2-0.8,3.4"/>
<path class="st1" d="M11.1,51.6c0.2,0,0.3-0.2,0.3-0.5l-1.3-5.6l5.6,1.2c0.2,0.1,0.4,0,0.5-0.2s0-0.4-0.2-0.5c0,0-0.1,0-0.1,0
	l-6.2-1.3c-0.2,0-0.4,0.1-0.4,0.3c0,0.1,0,0.1,0,0.2l1.4,6.2C10.7,51.5,10.9,51.7,11.1,51.6L11.1,51.6z"/>
</svg>
