<?xml version="1.0" encoding="utf-8"?>
<!-- Generator: Adobe Illustrator 21.1.0, SVG Export Plug-In . SVG Version: 6.00 Build 0)  -->
<svg version="1.1" id="Layer_1" xmlns="http://www.w3.org/2000/svg" xmlns:xlink="http://www.w3.org/1999/xlink" x="0px" y="0px"
	 viewBox="0 0 59.2 59.2" style="enable-background:new 0 0 59.2 59.2;" xml:space="preserve">
<style type="text/css">
	.st0{fill:#E8BD1F;}
	.st1{fill:#FFFFFF;}
</style>
<title>INDIVIDUAL ICONS</title>
<circle class="st0" cx="29.6" cy="29.6" r="29.6"/>
<path class="st1" d="M20.1,46.6v-2.1h5.5v-3.8h8c0,0.2,0,0.4,0,0.7c0,0.8,0,1.7,0,2.5c0,0.5,0,0.5,0.5,0.5h4.4h0.3v2.2L20.1,46.6z"
	/>
<path class="st1" d="M29.5,12.6h8.8c2.3,0,4.5,0,6.8-0.1c1-0.1,2,0.3,2.7,0.9c0.7,0.6,1.1,1.4,1.1,2.3c0,1.1,0,2.2,0,3.2
	c0,5,0,10,0,15c0,1.5-0.5,3-1.5,4.3c-0.4,0.6-1,0.9-1.6,1.1c-0.2,0-0.4,0-0.5,0c-10.4,0-20.8,0-31.3,0c-0.4,0-0.7-0.1-1-0.3
	c-1.6-0.8-2.7-2.5-2.6-4.3c0-2.7,0-5.3-0.1-8s-0.1-5.4-0.1-8.1c0-0.9,0-1.9,0-2.8c0-1.5,1.1-2.8,2.6-3.1c0.5-0.1,0.9-0.1,1.4-0.1
	h7.7L29.5,12.6L29.5,12.6z M29.5,14.3L29.5,14.3l-1.3,0.1l-12,0.1c-0.9,0-1.8,0-2.7,0c-0.8,0-1.5,0.6-1.5,1.4c0,0.2-0.1,0.4-0.1,0.6
	c0,0.9,0,1.8,0,2.6c0,3.1,0.1,6.1,0.1,9.2c0,2.2,0,4.5,0.1,6.7c0,0.6,0.2,1.3,0.6,1.8c0.3,0.5,0.9,0.9,1.5,0.9h30.9
	c0.4,0,0.7-0.1,0.9-0.4c0.7-0.8,1.1-1.8,1.2-2.9c0-5,0-10,0-15c0-1.1,0-2.2,0-3.2c0.1-0.8-0.5-1.6-1.3-1.7c0,0-0.1,0-0.1,0
	c-0.5-0.1-1-0.1-1.5-0.1c-2,0-4,0-6,0L29.5,14.3z"/>
<path class="st1" d="M23.6,30.8h-6.8c-0.9,0-1.7,0.7-1.7,1.7v1.7l10.2,0v-1.7C25.3,31.5,24.5,30.8,23.6,30.8z"/>
<path class="st1" d="M20.1,29c-2.4,0-4.3-2-4.3-4.3s2-4.3,4.3-4.3c2.4,0,4.3,1.9,4.3,4.3C24.5,27.1,22.5,29,20.1,29z M20.1,20.9
	c-2.1,0-3.8,1.7-3.8,3.8s1.7,3.8,3.8,3.8c2.1,0,3.8-1.7,3.8-3.8C23.9,22.6,22.2,20.9,20.1,20.9z"/>
<path class="st1" d="M41.2,30.8h-6.8c-0.9,0-1.7,0.7-1.7,1.7v1.7l10.2,0v-1.7C42.8,31.5,42.1,30.8,41.2,30.8z"/>
<path class="st1" d="M37.7,29c-2.4,0-4.3-2-4.3-4.3s2-4.3,4.3-4.3c2.4,0,4.3,1.9,4.3,4.3C42.1,27.1,40.1,29,37.7,29z M37.7,20.9
	c-2.1,0-3.8,1.7-3.8,3.8s1.7,3.8,3.8,3.8c2.1,0,3.8-1.7,3.8-3.8C41.5,22.6,39.8,20.9,37.7,20.9z"/>
</svg>
