<?xml version="1.0" encoding="utf-8"?>
<!-- Generator: Adobe Illustrator 21.1.0, SVG Export Plug-In . SVG Version: 6.00 Build 0)  -->
<svg version="1.1" id="Layer_1" xmlns="http://www.w3.org/2000/svg" xmlns:xlink="http://www.w3.org/1999/xlink" x="0px" y="0px"
	 viewBox="0 0 60.2 60.2" style="enable-background:new 0 0 60.2 60.2;" xml:space="preserve">
<style type="text/css">
	.st0{fill:#ECC01B;}
	.st1{fill:#FFFFFF;}
</style>
<title>INDIVIDUAL ICONS</title>
<circle class="st0" cx="30.1" cy="30.1" r="30.1"/>
<path class="st1" d="M23.6,29.6c0-0.4,0-0.8-0.1-1.1l2.3-2l-1.9-3.2l-2.7,0.9c-0.7-0.6-1.4-1-2.2-1.3l-0.6-2.6h-3.8l-0.6,2.6
	c-0.8,0.3-1.5,0.8-2.2,1.3L9,23.3l-1.9,3.2l2.3,2c-0.1,0.7-0.1,1.5,0,2.3l-2.3,2L9,35.9l2.7-0.9c0.7,0.6,1.4,1,2.2,1.3l0.6,2.6h3.8
	l0.6-2.6c0.8-0.3,1.6-0.7,2.2-1.3l2.7,0.9l1.9-3.2l-2.3-2C23.5,30.4,23.6,30,23.6,29.6z M25,32.9l-1.4,2.3l-2.3-0.7L21,34.3
	l-0.3,0.2c-0.6,0.5-1.3,0.9-2,1.2l-0.3,0.1l-0.1,0.3l-0.6,2.2H15l-0.5-2.2l-0.1-0.3l-0.3-0.1c-0.7-0.3-1.4-0.7-2-1.2l-0.3-0.2
	l-0.3,0.1l-2.3,0.8l-1.4-2.3l1.9-1.7L10,31l0-0.3c-0.1-0.7-0.1-1.4,0-2.1l0-0.3L9.8,28l-1.9-1.6l1.4-2.3l2.3,0.7l0.3,0.1l0.3-0.2
	c0.6-0.5,1.3-0.9,2-1.2l0.3-0.1l0.1-0.3l0.5-2.1h2.7l0.5,2.1l0.1,0.3l0.3,0.1c0.7,0.3,1.4,0.7,2,1.2l0.3,0.2l0.3-0.1l2.3-0.7
	l1.4,2.3L23,28l-0.3,0.2l0,0.3c0.1,0.7,0.1,1.4,0,2.1l0,0.3l0.3,0.2L25,32.9z"/>
<path class="st1" d="M16.4,25.9c-2.1,0-3.8,1.7-3.8,3.8s1.7,3.8,3.8,3.8s3.7-1.7,3.8-3.8S18.5,25.9,16.4,25.9L16.4,25.9z M16.4,30.9
	c-0.7,0-1.3-0.6-1.3-1.3c0-0.7,0.6-1.3,1.3-1.3s1.3,0.6,1.3,1.3C17.7,30.3,17.1,30.9,16.4,30.9z"/>
<path class="st1" d="M48.5,35.1c0.3-0.4,0.5-0.8,0.7-1.3l3.8-0.6l0.1-4.8l-3.5-0.9c-0.3-1.1-0.8-2.1-1.5-3l1.2-3.3l-4-2.6l-2.5,2.5
	c-1.1-0.2-2.2-0.3-3.3-0.1l-2.3-2.8l-4.3,2l1.1,3.7c-0.7,0.7-1.2,1.5-1.6,2.4l-3.8,0.6l-0.1,4.8l3.5,0.9c0.3,1.1,0.8,2.1,1.5,3
	l-1.2,3.3l4,2.6l2.5-2.4c1.1,0.2,2.2,0.3,3.3,0.1l2.3,2.8l4.3-2.1l-1.1-3.8C47.9,35.8,48.2,35.5,48.5,35.1z M47.8,39.5l-3.1,1.5
	l-1.9-2.4l-0.3-0.3L42,38.4c-1,0.1-2,0.1-3-0.1l-0.5-0.1l-0.3,0.3l-2,2l-3-1.9l1-2.7l0.2-0.4L34,35.2c-0.6-0.8-1.1-1.7-1.4-2.7
	L32.5,32l-0.4-0.1l-2.9-0.8l0.1-3.5l3.2-0.5l0.4-0.1l0.2-0.4c0.3-0.8,0.8-1.6,1.4-2.2l0.3-0.3l-0.1-0.4l-0.9-3.1l3.1-1.5l1.9,2.4
	l0.3,0.4l0.5-0.1c1-0.1,2-0.1,3,0.1L43,22l0.3-0.3l2-2l3,1.9l-1,2.7l-0.2,0.4l0.3,0.4c0.6,0.8,1.1,1.7,1.4,2.7l0.1,0.4l0.4,0.1
	l2.9,0.8l-0.1,3.5L49,33L48.5,33l-0.2,0.4c-0.3,0.8-0.8,1.6-1.4,2.2L46.6,36l0.1,0.4L47.8,39.5z"/>
<path class="st1" d="M43.3,26.1c-2.2-1.5-5.2-0.8-6.7,1.4c-1.5,2.2-0.8,5.2,1.4,6.7c2.2,1.5,5.2,0.8,6.7-1.4c0,0,0,0,0,0
	C46.2,30.5,45.6,27.5,43.3,26.1z M39.9,31.4c-0.7-0.5-1-1.5-0.5-2.2c0.5-0.7,1.5-1,2.2-0.5c0.7,0.5,1,1.5,0.5,2.2c0,0,0,0,0,0
	C41.6,31.7,40.6,31.9,39.9,31.4z"/>
</svg>
