<?xml version="1.0" encoding="utf-8"?>
<!-- Generator: Adobe Illustrator 21.1.0, SVG Export Plug-In . SVG Version: 6.00 Build 0)  -->
<svg version="1.1" id="Layer_1" xmlns="http://www.w3.org/2000/svg" xmlns:xlink="http://www.w3.org/1999/xlink" x="0px" y="0px"
	 viewBox="0 0 65 64.9" style="enable-background:new 0 0 65 64.9;" xml:space="preserve">
<style type="text/css">
	.st0{fill:#EABE1B;}
	.st1{fill:#FFFFFF;}
</style>
<title>INDIVIDUAL ICONS 3</title>
<ellipse transform="matrix(1 -3.316120e-03 3.316120e-03 1 -0.1074 0.108)" class="st0" cx="32.5" cy="32.5" rx="32.5" ry="32.5"/>
<path class="st1" d="M27.7,14.2c0.2,0.3,0.5,0.6,0.5,0.9c0,1.5,1,1.8,2.3,1.9c1,0.2,2.1,0.4,3.1,0.8c0.8,0.2,1.5,0.2,2-0.7
	s1.2-1,2-0.3s1.5,1.1,2.3,1.6c0.6,0.2,0.9,0.9,0.6,1.5c-0.1,0.2-0.2,0.3-0.3,0.4c-0.7,0.8-0.5,1.4,0,2.1c0.7,1,1.4,2.1,2,3.2
	c0.4,0.7,0.8,1.2,1.7,0.9c1.2-0.3,1.7,0.3,1.8,1.4c0.1,0.8,0.2,1.6,0.4,2.4c0.2,0.9-0.1,1.3-1.1,1.4c-5,0.4-8.8,3.6-9.8,8.3
	c-0.2,1.6-0.2,3.1,0,4.7c0,0.6,0.1,1-0.5,1.2c-0.7,0.2-1,0.9-0.8,1.6c0,0,0,0.1,0,0.1c0.3,1.1-0.3,1.7-1.3,1.8
	c-0.8,0.1-1.6,0.2-2.4,0.4c-1,0.3-1.7-0.1-1.8-1.2s-0.6-1.3-1.5-1.5c-1.2-0.2-2.5-0.5-3.7-0.8c-0.9-0.3-1.5-0.3-2,0.7
	s-1.1,0.9-1.9,0.4s-1.6-1.1-2.4-1.7s-1-1.2-0.3-1.8c0.8-0.9,0.5-1.5-0.1-2.3c-0.7-1-1.4-2-1.9-3.1c-0.4-0.7-0.9-1.1-1.7-0.9
	c-1.1,0.3-1.7-0.2-1.8-1.3c-0.1-0.8-0.2-1.6-0.4-2.4c-0.3-1,0.1-1.7,1.2-1.8s1.3-0.7,1.4-1.6c0.2-1.2,0.5-2.4,0.8-3.6
	c0.3-0.9,0.3-1.5-0.6-2.1c-0.6-0.2-0.9-0.9-0.6-1.5c0.1-0.2,0.2-0.3,0.3-0.4c0.6-0.8,1.1-1.6,1.7-2.4c0.3-0.6,1-0.8,1.5-0.5
	c0.1,0.1,0.3,0.2,0.4,0.3c0.8,0.7,1.4,0.5,2.1-0.1c1-0.7,2-1.4,3.1-1.9c0.8-0.4,1.3-0.9,1-1.9s0.2-1.5,1.2-1.7s1.8-0.4,2.7-0.5
	L27.7,14.2z M36.3,32c0-4.4-3.7-8-8.1-7.9c-4.4,0-8,3.7-7.9,8.1c0,4.4,3.6,7.9,8,7.9c4.4,0,8-3.5,8-7.8C36.3,32.2,36.3,32.1,36.3,32
	z"/>
<path class="st1" d="M44.4,51.1c-0.4-0.1-0.7-0.3-1.1-0.4c-4.6-1.3-7.2-6.1-5.9-10.7s6.1-7.2,10.7-5.9c2.8,0.8,4.9,2.9,5.8,5.7
	l0.4,1.3v2.7c-0.5,2.8-2.4,5.2-4.9,6.5c-0.8,0.3-1.6,0.6-2.3,0.9L44.4,51.1z M42.9,47l7.8-4.5L42.9,38L42.9,47z"/>
<path class="st1" d="M47.1,51.1c0.8-0.3,1.6-0.5,2.3-0.9c2.6-1.3,4.4-3.6,4.9-6.5v7.3L47.1,51.1z"/>
</svg>
