<?xml version="1.0" encoding="utf-8"?>
<!-- Generator: Adobe Illustrator 21.1.0, SVG Export Plug-In . SVG Version: 6.00 Build 0)  -->
<svg version="1.1" id="Layer_1" xmlns="http://www.w3.org/2000/svg" xmlns:xlink="http://www.w3.org/1999/xlink" x="0px" y="0px"
	 viewBox="0 0 59.6 59.6" style="enable-background:new 0 0 59.6 59.6;" xml:space="preserve">
<style type="text/css">
	.st0{fill:#EABE1D;}
	.st1{fill:#FFFFFF;}
</style>
<title>INDIVIDUAL ICONS</title>
<circle class="st0" cx="29.8" cy="29.8" r="29.8"/>
<path class="st1" d="M34.8,19.1h-2.6c0,1.8-0.4,3.7-1.1,5.4l-8.1-3.9c0.8-2.7-0.7-5.6-3.5-6.4c-1.4-0.4-2.8-0.2-4,0.5l-1.9-1.9
	l-1.8,1.8l1.9,1.9c-1.4,2.4-0.6,5.6,1.8,7c1.2,0.7,2.7,0.9,4,0.5l11.1,22.9l1.2-0.6l-6.1-12.5c3.1-1.6,5.6-4.1,7.2-7.2l12.6,6.1
	l0.6-1.2l-12.5-6.1C34.4,23.5,34.8,21.3,34.8,19.1z M17.2,18.2c0.5-0.5,1.3-0.5,1.8,0c0.5,0.5,0.5,1.3,0,1.8c-0.5,0.5-1.3,0.5-1.8,0
	c0,0,0,0,0,0C16.8,19.5,16.8,18.7,17.2,18.2z M24.7,31.5l-3.9-8.1c0.8-0.4,1.4-1.1,1.8-1.8l8.1,3.9C29.3,28.1,27.2,30.2,24.7,31.5
	L24.7,31.5z"/>
</svg>
