<?xml version="1.0" encoding="utf-8"?>
<!-- Generator: Adobe Illustrator 21.1.0, SVG Export Plug-In . SVG Version: 6.00 Build 0)  -->
<svg version="1.1" id="Layer_1" xmlns="http://www.w3.org/2000/svg" xmlns:xlink="http://www.w3.org/1999/xlink" x="0px" y="0px"
	 viewBox="0 0 59.2 59.2" style="enable-background:new 0 0 59.2 59.2;" xml:space="preserve">
<style type="text/css">
	.st0{fill:#E8BD1F;}
	.st1{fill:#FFFFFF;}
</style>
<title>INDIVIDUAL ICONS</title>
<circle class="st0" cx="29.6" cy="29.6" r="29.6"/>
<path class="st1" d="M44,33.4h-5.4V31h5.3c0.4,0,0.7-0.3,0.8-0.7c0,0,0,0,0,0v-1c0-0.4-0.3-0.7-0.7-0.8c0,0,0,0,0,0h-5.3v-2.6h5.3
	c0.4,0,0.7-0.3,0.8-0.7c0,0,0,0,0,0v-1c0-0.4-0.3-0.7-0.7-0.8c0,0,0,0,0,0h-5.3v-3.1h-2.7v-5.6c0-0.4-0.3-0.7-0.7-0.8c0,0,0,0,0,0
	h-0.9c-0.4,0-0.7,0.3-0.8,0.7c0,0,0,0,0,0v5.6h-2.7v-5.5c0-0.4-0.3-0.7-0.7-0.8c0,0,0,0,0,0h-1c-0.4,0-0.7,0.3-0.8,0.7c0,0,0,0,0,0
	v5.5h-2.6v-5.5c0-0.4-0.3-0.7-0.7-0.8c0,0,0,0,0,0h-1c-0.4,0-0.7,0.3-0.8,0.7c0,0,0,0,0,0v5.5h-2.9v3h-5.2c-0.4,0-0.7,0.3-0.8,0.7
	c0,0,0,0,0,0v1c0,0.4,0.3,0.7,0.7,0.8c0,0,0,0,0,0h5.2v2.8h-5.3c-0.4,0-0.7,0.3-0.8,0.7c0,0,0,0,0,0v0.9c0,0.4,0.3,0.7,0.7,0.8
	c0,0,0,0,0,0h5.3v2.6h-5.3c-0.4,0-0.7,0.3-0.8,0.7c0,0,0,0,0,0v1c0,0.4,0.3,0.7,0.7,0.8c0,0,0,0,0,0h5.3V39h2.9v5.6l0.6,0.7H25
	c0.4,0,0.7-0.3,0.8-0.7c0,0,0,0,0,0V39h2.5v5.5c0,0.4,0.3,0.7,0.7,0.8c0,0,0,0,0,0h1c0.4,0,0.7-0.3,0.8-0.7c0,0,0,0,0,0V39h2.7v5.5
	c0,0.4,0.3,0.7,0.7,0.7c0,0,0,0,0.1,0h1c0.4,0,0.7-0.3,0.8-0.7c0,0,0,0,0,0V39h2.8v-3.1h5.4c0.4,0,0.7-0.3,0.8-0.7c0,0,0,0,0,0v-1
	C44.9,33.6,44.5,33.3,44,33.4C44,33.4,44,33.4,44,33.4z M29.5,33.5c-2,0-3.7-1.6-3.7-3.7s1.6-3.7,3.7-3.7s3.7,1.6,3.7,3.7l0,0
	C33.1,31.8,31.5,33.4,29.5,33.5C29.5,33.5,29.5,33.5,29.5,33.5L29.5,33.5z"/>
</svg>
