<?xml version="1.0" encoding="utf-8"?>
<!-- Generator: Adobe Illustrator 21.1.0, SVG Export Plug-In . SVG Version: 6.00 Build 0)  -->
<svg version="1.1" id="Layer_1" xmlns="http://www.w3.org/2000/svg" xmlns:xlink="http://www.w3.org/1999/xlink" x="0px" y="0px"
	 viewBox="0 0 60.1 60.1" style="enable-background:new 0 0 60.1 60.1;" xml:space="preserve">
<style type="text/css">
	.st0{fill:#E8BD1F;}
	.st1{fill:#FFFFFF;}
</style>
<title>INDIVIDUAL ICONS</title>
<circle class="st0" cx="30" cy="30" r="30"/>
<path class="st1" d="M38.8,22.5h-2.6c0,1.9-0.4,3.7-1.1,5.4l-8.2-4c0.8-2.7-0.8-5.6-3.5-6.4c-1.4-0.4-2.8-0.2-4.1,0.5l-1.9-1.9
	l-1.8,1.8l1.9,1.9c-1.4,2.5-0.6,5.6,1.8,7.1c1.2,0.7,2.7,0.9,4.1,0.5l11.2,23.1l1.1-0.6l-6.1-12.7c3.1-1.6,5.6-4.1,7.2-7.2l12.7,6.1
	l0.6-1.1l-12.7-6.2C38.3,26.9,38.8,24.7,38.8,22.5z M21.1,21.6c0.5-0.5,1.3-0.5,1.8,0c0.5,0.5,0.5,1.3,0,1.8s-1.3,0.5-1.8,0
	c0,0,0,0,0,0C20.6,22.9,20.6,22.1,21.1,21.6L21.1,21.6z M28.5,35l-3.9-8.1c0.7-0.4,1.4-1.1,1.8-1.8l8.1,3.9
	C33.2,31.6,31.1,33.7,28.5,35L28.5,35z"/>
</svg>
