<?xml version="1.0" encoding="utf-8"?>
<!-- Generator: Adobe Illustrator 21.1.0, SVG Export Plug-In . SVG Version: 6.00 Build 0)  -->
<svg version="1.1" id="Layer_1" xmlns="http://www.w3.org/2000/svg" xmlns:xlink="http://www.w3.org/1999/xlink" x="0px" y="0px"
	 viewBox="0 0 58.2 58.2" style="enable-background:new 0 0 58.2 58.2;" xml:space="preserve">
<style type="text/css">
	.st0{fill:#EABE1D;}
	.st1{fill:#FFFFFF;}
</style>
<title>INDIVIDUAL ICONS</title>
<ellipse transform="matrix(0.7071 -0.7071 0.7071 0.7071 -12.0495 29.09)" class="st0" cx="29.1" cy="29.1" rx="29.1" ry="29.1"/>
<path class="st1" d="M22.4,28.3c0-0.4,0-0.7-0.1-1.1l2.3-2L22.7,22L20,22.9c-0.7-0.6-1.4-1-2.2-1.3l-0.6-2.6h-3.7l-0.6,2.6
	c-0.8,0.3-1.6,0.7-2.2,1.3L7.9,22l-1.9,3.2l2.3,2c-0.1,0.7-0.1,1.5,0,2.2l-2.3,2l1.9,3.2l2.7-0.9c0.7,0.6,1.4,1,2.2,1.3l0.6,2.6h3.7
	l0.6-2.6c0.8-0.3,1.6-0.7,2.2-1.3l2.7,0.9l1.9-3.2l-2.3-2C22.4,29,22.4,28.6,22.4,28.3z M23.8,31.5l-1.4,2.3l-2.2-0.7L19.8,33
	l-0.3,0.2c-0.6,0.5-1.3,0.9-2,1.2l-0.3,0.1l-0.1,0.3L16.7,37h-2.8l-0.5-2.1l-0.1-0.3L13,34.4c-0.7-0.3-1.4-0.7-2-1.2L10.7,33
	l-0.3,0.1l-2.2,0.7l-1.4-2.3l1.9-1.6l0.3-0.2l-0.1-0.3c-0.1-0.7-0.1-1.3,0-2L8.9,27l-0.3-0.2L6.7,25l1.4-2.3l2.2,0.7l0.3,0.1
	l0.3-0.2c0.6-0.5,1.3-0.9,2-1.2l0.3-0.1l0.1-0.3l0.5-2.1h2.7l0.5,2.1l0.1,0.3l0.3,0.2c0.7,0.3,1.4,0.7,2,1.2l0.3,0.2l0.3-0.1
	l2.2-0.7l1.4,2.3l-1.8,1.6l-0.3,0.2l0,0.3c0.1,0.7,0.1,1.3,0,2l0,0.3l0.3,0.2L23.8,31.5z"/>
<path class="st1" d="M15.3,24.5c-2.1,0-3.7,1.7-3.7,3.7s1.7,3.7,3.7,3.7s3.7-1.7,3.7-3.7l0,0C19,26.2,17.3,24.5,15.3,24.5z
	 M15.3,29.5c-0.7,0-1.2-0.5-1.2-1.2s0.5-1.2,1.2-1.2c0.7,0,1.2,0.5,1.2,1.2C16.5,29,15.9,29.5,15.3,29.5L15.3,29.5z"/>
<path class="st1" d="M40.1,17.5c0-0.4,0-0.7-0.1-1.1l2.3-2l-1.9-3.2l-2.7,0.9c-0.7-0.6-1.4-1-2.2-1.3l-0.6-2.6H31l-0.6,2.6
	c-0.8,0.3-1.6,0.7-2.2,1.3l-2.7-0.9l-1.9,3.2l2.3,2c-0.1,0.7-0.1,1.5,0,2.2l-2.3,2l1.9,3.2l2.7-0.9c0.7,0.6,1.4,1,2.2,1.3l0.6,2.6
	h3.7l0.6-2.6c0.8-0.3,1.6-0.7,2.2-1.3l2.7,0.9l1.9-3.2l-2.3-2C40,18.2,40.1,17.9,40.1,17.5z M41.4,20.8L40,23.1l-2.2-0.7l-0.3-0.1
	l-0.3,0.2c-0.6,0.5-1.3,0.9-2,1.2l-0.3,0.1l-0.1,0.3l-0.5,2.1h-2.8L31,24l-0.1-0.3l-0.3-0.1c-0.7-0.3-1.4-0.7-2-1.2l-0.2-0.2
	L28,22.3L25.8,23l-1.4-2.3l1.9-1.6l0.2-0.2v-0.3c-0.1-0.7-0.1-1.3,0-2v-0.4L26.2,16l-1.9-1.7l1.4-2.3l2.2,0.7l0.3,0.1l0.3-0.2
	c0.6-0.5,1.3-0.9,2-1.2l0.3-0.1l0.1-0.3l0.5-2.1h2.7l0.5,2.1l0.1,0.3l0.3,0.1c0.7,0.3,1.4,0.7,2,1.2l0.3,0.2l0.3-0.1L40,12l1.4,2.3
	l-1.9,1.6l-0.3,0.2l0,0.3c0.1,0.7,0.1,1.3,0,2l0,0.3l0.3,0.2L41.4,20.8z"/>
<path class="st1" d="M32.9,13.8c-2.1,0-3.7,1.7-3.7,3.7s1.7,3.7,3.7,3.7c2.1,0,3.7-1.7,3.7-3.7l0,0C36.6,15.5,35,13.8,32.9,13.8z
	 M32.9,18.8c-0.7,0-1.2-0.6-1.2-1.2s0.6-1.2,1.2-1.2c0.7,0,1.2,0.6,1.2,1.2C34.1,18.2,33.6,18.8,32.9,18.8L32.9,18.8z"/>
<path class="st1" d="M42.7,42.7c0.2-0.4,0.4-0.9,0.5-1.3l3.7-1l-0.4-4.7l-3.6-0.5c-0.4-1-1-2-1.8-2.8l0.8-3.4l-4.3-2.1l-2.2,2.7
	c-1.1-0.1-2.2,0-3.3,0.3l-2.7-2.6l-4,2.6l1.5,3.6c-0.6,0.8-1,1.7-1.3,2.6l-3.7,1l0.4,4.7l3.6,0.5c0.4,1,1,2,1.8,2.8L27,48.3l4.3,2.1
	l2.2-2.7c1.1,0.1,2.2,0,3.3-0.3l2.7,2.6l4-2.6L42,43.9C42.3,43.5,42.5,43.1,42.7,42.7z M42.5,47.2L39.6,49l-2.2-2.1l-0.3-0.3
	l-0.4,0.1c-1,0.3-2,0.3-3,0.2h-0.4l-0.3,0.3l-1.8,2.2L28,47.9l0.6-2.7l0.1-0.4l-0.3-0.3c-0.7-0.7-1.3-1.6-1.7-2.6l-0.2-0.4l-0.5-0.1
	l-3-0.4l-0.3-3.4l3.1-0.8l0.4-0.1l0.1-0.4c0.2-0.8,0.6-1.6,1.2-2.4l0.3-0.4l-0.2-0.4l-1.2-3l2.9-1.9l2.2,2.1l0.3,0.3l0.4-0.1
	c1-0.3,2-0.3,3-0.2h0.4l0.3-0.3l1.8-2.2l3.2,1.6L40.3,32l-0.1,0.4l0.3,0.3c0.7,0.8,1.3,1.6,1.7,2.6l0.2,0.4l0.5,0.1l3,0.4l0.3,3.4
	L43,40.6l-0.4,0.1l-0.1,0.4c-0.2,0.8-0.6,1.6-1.2,2.4l-0.3,0.4l0.2,0.4L42.5,47.2z"/>
<path class="st1" d="M36.6,34.3c-2.4-1.2-5.2-0.2-6.4,2.2c-1.2,2.4-0.2,5.2,2.2,6.4c2.4,1.2,5.2,0.2,6.4-2.2
	C40,38.4,39,35.5,36.6,34.3C36.6,34.3,36.6,34.3,36.6,34.3z M33.8,40.1c-0.8-0.4-1.1-1.3-0.7-2.1c0.4-0.8,1.3-1.1,2.1-0.7
	c0.8,0.4,1.1,1.3,0.7,2.1C35.5,40.1,34.6,40.5,33.8,40.1C33.8,40.1,33.8,40.1,33.8,40.1z"/>
</svg>
