<?xml version="1.0" encoding="utf-8"?>
<!-- Generator: Adobe Illustrator 21.1.0, SVG Export Plug-In . SVG Version: 6.00 Build 0)  -->
<svg version="1.1" id="Layer_1" xmlns="http://www.w3.org/2000/svg" xmlns:xlink="http://www.w3.org/1999/xlink" x="0px" y="0px"
	 viewBox="0 0 60.4 60.2" style="enable-background:new 0 0 60.4 60.2;" xml:space="preserve">
<style type="text/css">
	.st0{fill:#ECC01B;}
	.st1{fill:#FFFFFF;}
</style>
<title>INDIVIDUAL ICONS</title>
<ellipse id="data_capitecbank_saasapp" class="st0" cx="30.2" cy="30.1" rx="30.2" ry="30.1"/>
<path class="st1" d="M42.5,21.3c-0.6-5.7-5.6-9.8-11.3-9.2c-4.6,0.5-8.4,4-9.1,8.6c-0.4-0.1-0.9-0.1-1.4-0.1c-5,0-9.1,4.1-9.1,9.1
	c0,5,4.1,9.1,9.1,9.1h6.7v-2.5h-6.7c-3.7,0-6.7-3-6.7-6.6s3-6.7,6.6-6.7c0,0,0,0,0,0c0.3,0,0.7,0,1,0.1l2.4,0.3l0.4-2.4
	c0.7-4.3,4.7-7.2,9.1-6.6c3.5,0.6,6.2,3.4,6.6,7l0.1,1.5l1.3,0.6c3.4,1.4,5,5.4,3.6,8.8c-1,2.5-3.5,4.1-6.1,4.1h-4.4V39H39
	c5,0,9.1-4,9.1-9c0,0,0-0.1,0-0.1C48.1,26.2,45.9,22.8,42.5,21.3z"/>
<polyline class="st1" points="27.3,31.3 33.9,31.3 33.9,43 37.2,43 30.8,54.4 24.6,42.9 27.7,42.9 27.7,31.3 "/>
</svg>
