<?xml version="1.0" encoding="utf-8"?>
<!-- Generator: Adobe Illustrator 21.1.0, SVG Export Plug-In . SVG Version: 6.00 Build 0)  -->
<svg version="1.1" id="Layer_1" xmlns="http://www.w3.org/2000/svg" xmlns:xlink="http://www.w3.org/1999/xlink" x="0px" y="0px"
	 viewBox="0 0 64.5 64.2" style="enable-background:new 0 0 64.5 64.2;" xml:space="preserve">
<style type="text/css">
	.st0{fill:#E9BC1D;}
	.st1{fill:#FFFFFF;}
</style>
<title>INDIVIDUAL ICONS 3</title>
<ellipse class="st0" cx="32.3" cy="32.1" rx="32.3" ry="32.1"/>
<path class="st1" d="M33.1,48.7l-0.8-0.1c-1-0.2-1.9-0.5-2.8-0.9L21,43.4c-0.4-0.2-0.8-0.4-1.2-0.6c-0.5-0.2-1.1-0.2-1.6,0.1
	c-0.7,0.4-1.4,0.9-2.1,1.3l-1.1,0.7c-0.4,0.4-1.1,0.3-1.4-0.1c-0.1-0.1-0.1-0.2-0.2-0.3c-0.7-1.4-1.3-2.8-1.9-4.2
	c-1.1-2.4-2.2-4.7-3.3-7.1c-0.3-0.5-0.1-1.2,0.4-1.4c0,0,0.1,0,0.1-0.1l1.2-0.5c1.8-0.8,3.6-1.6,5.5-2.4c0.9-0.4,1.9-0.8,2.9-1
	c1.2-0.3,2.5-0.4,3.8-0.3c0.7,0,1.3,0.1,2,0.3c1,0.2,1.9,0.7,2.6,1.4c0.7,0.7,1.4,1.4,2,2.1l0.6,0.7c0.4,0.5,1,0.9,1.7,1
	c1.4,0.4,2.9,0.6,4.4,0.8c0.7,0.1,1.5,0.1,2.2,0.1c0.8,0,1.6,0.2,2.3,0.5c1.2,0.6,1.7,2.1,1.1,3.3c-0.2,0.3-0.4,0.6-0.6,0.8
	c-0.5,0.4-1.2,0.6-1.8,0.7c-0.4,0-0.8,0.1-1.2,0.1c-1.7,0-3.3,0-5,0c-1.3,0-2.7-0.1-4-0.4c-1-0.2-2-0.4-2.9-0.6
	c-0.6-0.1-1.1,0.2-1.3,0.8s0.2,1.1,0.8,1.3c1,0.2,2.1,0.5,3.1,0.7c1.6,0.3,3.3,0.4,5,0.4c1.5,0,2.9,0,4.4,0c1.1,0,2.1-0.2,3.1-0.6
	c1.2-0.5,2.1-1.5,2.5-2.7c0-0.1,0.1-0.2,0.2-0.2c3.3-2.1,6.5-4.3,9.8-6.4c0.7-0.5,1.5-0.7,2.3-0.7c1,0,1.8,0.9,1.9,1.9
	c0,0.9-0.3,1.7-0.9,2.4c-0.6,0.8-1.4,1.4-2.3,1.9c-4.4,2.9-8.9,5.8-13.3,8.7c-1.3,0.8-2.6,1.6-3.9,2.4C36,48.3,35,48.6,34,48.7h-0.1
	L33.1,48.7z"/>
<path class="st1" d="M32.2,13.2h0.3c0.3,0,0.6,0.2,0.6,0.5c0,0,0,0,0,0c0.1,0.5,0.2,1.1,0.3,1.6c0,0,0,0.1,0.1,0.1l0.7,0.3
	c0,0,0.1,0,0.1,0l1.3-0.9c0.2-0.2,0.6-0.2,0.8,0.1l1.2,1.2c0.2,0.2,0.3,0.6,0.1,0.8l-1,1.3c0,0,0,0.1,0,0.1c0.1,0.2,0.2,0.5,0.3,0.7
	c0,0,0.1,0.1,0.1,0.1l1.6,0.3c0.3,0,0.5,0.3,0.5,0.6c0,0.6,0,1.2,0,1.7c0,0.3-0.2,0.6-0.6,0.6l-1.6,0.3c-0.1,0-0.1,0-0.1,0.1
	c-0.1,0.2-0.2,0.5-0.3,0.7c0,0,0,0.1,0,0.1l1,1.3c0.2,0.2,0.2,0.6-0.1,0.8c0,0,0,0,0,0l-1.2,1.2c-0.2,0.2-0.6,0.3-0.8,0.1l-1.3-1
	c0,0-0.1,0-0.2,0l-0.7,0.3c-0.1,0-0.1,0.1-0.1,0.1c-0.1,0.5-0.2,1.1-0.3,1.6c0,0.3-0.3,0.5-0.6,0.5h-1.7c-0.3,0-0.6-0.2-0.6-0.5
	l-0.3-1.6c0-0.1,0-0.1-0.1-0.1l-0.7-0.3c0,0-0.1,0-0.2,0l-1.3,0.9C27.4,27,27,27,26.8,26.8c0,0,0,0,0,0l-1.2-1.2
	c-0.3-0.2-0.3-0.6-0.1-0.8c0,0,0,0,0,0l0.9-1.3c0-0.1,0-0.1,0-0.2c-0.1-0.2-0.2-0.5-0.3-0.7c0,0-0.1-0.1-0.1-0.1l-1.6-0.3
	c-0.3,0-0.6-0.3-0.5-0.6c0-0.6,0-1.1,0-1.7c0-0.3,0.2-0.6,0.5-0.6l1.6-0.3c0,0,0.1,0,0.1-0.1l0.3-0.7c0,0,0-0.1,0-0.1l-0.9-1.3
	c-0.2-0.2-0.2-0.6,0.1-0.8l1.2-1.2c0.2-0.2,0.6-0.3,0.8-0.1l1.3,0.9c0,0,0.1,0,0.2,0l0.7-0.3c0,0,0.1,0,0.1-0.1
	c0.1-0.5,0.2-1,0.3-1.5c0-0.3,0.2-0.5,0.5-0.6L32.2,13.2z M33.9,20.9c0-1.3-1-2.4-2.3-2.4c-1.3,0-2.4,1-2.4,2.3c0,1.3,1,2.4,2.3,2.4
	c0,0,0,0,0,0C32.9,23.2,33.9,22.2,33.9,20.9C33.9,20.9,33.9,20.9,33.9,20.9z"/>
<path class="st1" d="M41.5,32.9l1.2-0.8c1.5-0.9,2.9-1.8,4.4-2.7c1-0.6,2.2-0.8,3.2-0.4c0.4,0.1,0.8,0.4,1.1,0.7l-8.3,5.5
	C42.9,34.3,42.3,33.5,41.5,32.9z"/>
<path class="st1" d="M34.4,31.4l1.2-0.7c1.2-0.7,2.4-1.5,3.6-2.2c1.2-0.8,2.6-1.1,4-1.1c0.7,0,1.4,0.2,2,0.6l0.1,0.1l-5.4,3.3
	l-0.6,0.4c0,0-0.1,0-0.1,0c-0.7-0.1-1.3-0.2-2-0.2c-0.8,0-1.7-0.1-2.5-0.2L34.4,31.4z"/>
</svg>
