<?xml version="1.0" encoding="utf-8"?>
<!-- Generator: Adobe Illustrator 21.1.0, SVG Export Plug-In . SVG Version: 6.00 Build 0)  -->
<svg version="1.1" id="Layer_1" xmlns="http://www.w3.org/2000/svg" xmlns:xlink="http://www.w3.org/1999/xlink" x="0px" y="0px"
	 viewBox="0 0 60.3 60.2" style="enable-background:new 0 0 60.3 60.2;" xml:space="preserve">
<style type="text/css">
	.st0{fill:#ECC01B;}
	.st1{fill:#FFFFFF;}
</style>
<title>INDIVIDUAL ICONS</title>
<ellipse class="st0" cx="30.1" cy="30.1" rx="30.1" ry="30.1"/>
<path class="st1" d="M42.2,19.6c-2.7,0-5.4,1.1-7.3,3h-2.1c-0.8-1.4-2.7-1.9-4.1-1.1c-0.4,0.3-0.8,0.6-1.1,1.1h-2.1
	c-4.1-4.1-10.8-4-14.9,0.2s-4,10.8,0.2,14.9s10.8,4,14.9-0.2c1.9-2,3-4.6,3-7.4h3c0,5.8,4.7,10.5,10.5,10.5s10.5-4.7,10.5-10.5
	C52.7,24.3,48,19.6,42.2,19.6z M18.2,37.6c-4.1,0-7.5-3.4-7.5-7.5s3.4-7.5,7.5-7.5s7.5,3.4,7.5,7.5v0C25.7,34.2,22.3,37.6,18.2,37.6
	C18.1,37.6,18.1,37.6,18.2,37.6L18.2,37.6z M42.2,37.6c-4.1,0-7.5-3.4-7.5-7.5s3.4-7.5,7.5-7.5s7.5,3.4,7.5,7.5v0
	C49.7,34.2,46.3,37.6,42.2,37.6C42.2,37.6,42.2,37.6,42.2,37.6L42.2,37.6z"/>
</svg>
