<?xml version="1.0" encoding="UTF-8" standalone="no"?>
<!-- Generator: Adobe Illustrator 17.1.0, SVG Export Plug-In . SVG Version: 6.00 Build 0)  -->

<svg
   xmlns:dc="http://purl.org/dc/elements/1.1/"
   xmlns:cc="http://creativecommons.org/ns#"
   xmlns:rdf="http://www.w3.org/1999/02/22-rdf-syntax-ns#"
   xmlns:svg="http://www.w3.org/2000/svg"
   xmlns="http://www.w3.org/2000/svg"
   xmlns:sodipodi="http://sodipodi.sourceforge.net/DTD/sodipodi-0.dtd"
   xmlns:inkscape="http://www.inkscape.org/namespaces/inkscape"
   version="1.1"
   id="Layer_1"
   x="0px"
   y="0px"
   viewBox="0 0 50.029896 49.986137"
   enable-background="new 0 0 50 50"
   xml:space="preserve"
   inkscape:version="0.91 r13725"
   sodipodi:docname="App_Service_Logic_App.svg"
   width="50.029896"
   height="49.986137"><metadata
     id="metadata21"><rdf:RDF><cc:Work
         rdf:about=""><dc:format>image/svg+xml</dc:format><dc:type
           rdf:resource="http://purl.org/dc/dcmitype/StillImage" /><dc:title></dc:title></cc:Work></rdf:RDF></metadata><defs
     id="defs19" /><sodipodi:namedview
     pagecolor="#ffffff"
     bordercolor="#666666"
     borderopacity="1"
     objecttolerance="10"
     gridtolerance="10"
     guidetolerance="10"
     inkscape:pageopacity="0"
     inkscape:pageshadow="2"
     inkscape:window-width="1920"
     inkscape:window-height="1018"
     id="namedview17"
     showgrid="false"
     fit-margin-top="0"
     fit-margin-left="0"
     fit-margin-right="0"
     fit-margin-bottom="0"
     inkscape:zoom="11.355472"
     inkscape:cx="38.239116"
     inkscape:cy="17.878386"
     inkscape:window-x="-8"
     inkscape:window-y="-8"
     inkscape:window-maximized="1"
     inkscape:current-layer="Layer_1" /><polygon
     points="18.5,34.8 18.5,17.3 1,17.3 1,29.7 6.1,34.8 "
     id="polygon3"
     style="fill:#3999c6"
     transform="translate(0,-0.01386178)" /><polygon
     points="15.3,31.6 32.8,31.6 32.8,49.1 20.5,49.1 15.3,44 "
     id="polygon5"
     style="fill:#3999c6"
     transform="translate(0,-0.01386178)" /><rect
     x="-20.301416"
     y="25.087427"
     transform="matrix(0.70710678,-0.70710678,0.70710678,0.70710678,0,0)"
     width="34.999664"
     height="20.399803"
     id="rect7"
     style="fill:#e5e5e5" /><polygon
     points="3.4,32.1 17.9,46.6 8.9,50 0,41.1 "
     id="polygon9"
     style="fill:#59b4d9"
     transform="translate(0,-0.01386178)" /><path
     d="M 28.2,7.3861382 C 37.1,-1.5138618 49.9,0.18613822 49.9,0.18613822 49.9,0.18613822 51.6,12.886138 42.7,21.886138 L 28.2,7.3861382 Z"
     id="path11"
     inkscape:connector-curvature="0"
     style="fill:#59b4d9" /><circle
     cx="27.200001"
     cy="22.786137"
     r="3.9000001"
     id="circle13"
     style="fill:#0072c6" /><path
     d="M 49.5,0.08613822 C 47.3,-0.11386178 36.2,-0.61386178 28.2,7.3861382 L 18.3,17.286138 1,17.286138 1,29.686138 3.5,32.186138 0,41.086138 4.2,45.286138 49.5,0.08613822 Z"
     id="path15"
     inkscape:connector-curvature="0"
     style="opacity:0.15;fill:#ffffff" /></svg>