<?xml version="1.0" encoding="UTF-8" standalone="no"?>
<!-- Generator: Adobe Illustrator 17.1.0, SVG Export Plug-In . SVG Version: 6.00 Build 0)  -->

<svg
   xmlns:dc="http://purl.org/dc/elements/1.1/"
   xmlns:cc="http://creativecommons.org/ns#"
   xmlns:rdf="http://www.w3.org/1999/02/22-rdf-syntax-ns#"
   xmlns:svg="http://www.w3.org/2000/svg"
   xmlns="http://www.w3.org/2000/svg"
   xmlns:sodipodi="http://sodipodi.sourceforge.net/DTD/sodipodi-0.dtd"
   xmlns:inkscape="http://www.inkscape.org/namespaces/inkscape"
   version="1.1"
   id="Layer_1"
   x="0px"
   y="0px"
   height="50"
   width="50.099998"
   viewBox="0 0 50.099998 50"
   enable-background="new 0 0 50 50"
   xml:space="preserve"
   inkscape:version="0.91 r13725"
   sodipodi:docname="Application_Gateway_v1.svg"><metadata
     id="metadata19"><rdf:RDF><cc:Work
         rdf:about=""><dc:format>image/svg+xml</dc:format><dc:type
           rdf:resource="http://purl.org/dc/dcmitype/StillImage" /><dc:title></dc:title></cc:Work></rdf:RDF></metadata><defs
     id="defs17" /><sodipodi:namedview
     pagecolor="#ffffff"
     bordercolor="#666666"
     borderopacity="1"
     objecttolerance="10"
     gridtolerance="10"
     guidetolerance="10"
     inkscape:pageopacity="0"
     inkscape:pageshadow="2"
     inkscape:window-width="1920"
     inkscape:window-height="1018"
     id="namedview15"
     showgrid="false"
     fit-margin-top="0"
     fit-margin-left="0"
     fit-margin-right="0"
     fit-margin-bottom="0"
     inkscape:zoom="16.059062"
     inkscape:cx="25"
     inkscape:cy="25"
     inkscape:window-x="-8"
     inkscape:window-y="-8"
     inkscape:window-maximized="1"
     inkscape:current-layer="Layer_1" /><path
     d="M 25,50 C 23.8,50 22.6,49.5 21.7,48.6 L 1.4,28.3 C 0.5,27.4 0,26.2 0,25 0,23.8 0.5,22.6 1.4,21.7 L 21.7,1.4 C 22.6,0.5 23.8,0 25,0 26.2,0 27.4,0.5 28.3,1.4 L 48.7,21.8 C 49.6,22.7 50.1,23.8 50.1,25.1 50.1,26.3 49.6,27.5 48.7,28.4 L 28.3,48.6 C 27.4,49.5 26.2,50 25,50"
     id="path3"
     inkscape:connector-curvature="0"
     style="fill:#3999c6" /><path
     d="M 28.3,1.4 C 27.4,0.5 26.2,0 25,0 23.8,0 22.6,0.5 21.7,1.4 L 1.4,21.7 C 0.5,22.6 0,23.8 0,25 0,26.2 0.5,27.4 1.4,28.3 L 12.9,39.8 34.6,7.7 28.3,1.4 Z"
     id="path5"
     inkscape:connector-curvature="0"
     style="opacity:0.15;fill:#ffffff" /><polygon
     points="23.1,20.6 27,20.6 27,11 31.6,11 25,4.4 18.4,11 23.1,11 "
     id="polygon7"
     style="fill:#ffffff" /><polygon
     points="26.9,29.6 23,29.6 23,39 18.4,39 25,45.6 31.6,39 26.9,39 "
     id="polygon9"
     style="fill:#ffffff" /><polygon
     points="43.6,27 43.6,23 34.7,23 34.7,18.4 28.1,25 34.7,31.6 34.7,27 "
     id="polygon11"
     style="fill:#ffffff" /><polygon
     points="6.4,23 6.4,27 15.4,27 15.4,31.6 22,25 15.4,18.4 15.4,23 "
     id="polygon13"
     style="fill:#ffffff" /></svg>