<?xml version="1.0" encoding="UTF-8" standalone="no"?>
<!-- Generator: Adobe Illustrator 17.1.0, SVG Export Plug-In . SVG Version: 6.00 Build 0)  -->

<svg
   xmlns:dc="http://purl.org/dc/elements/1.1/"
   xmlns:cc="http://creativecommons.org/ns#"
   xmlns:rdf="http://www.w3.org/1999/02/22-rdf-syntax-ns#"
   xmlns:svg="http://www.w3.org/2000/svg"
   xmlns="http://www.w3.org/2000/svg"
   xmlns:sodipodi="http://sodipodi.sourceforge.net/DTD/sodipodi-0.dtd"
   xmlns:inkscape="http://www.inkscape.org/namespaces/inkscape"
   version="1.1"
   id="Layer_1"
   x="0px"
   y="0px"
   width="50"
   height="33.799999"
   viewBox="0 0 50 33.799999"
   enable-background="new 0 0 50 50"
   xml:space="preserve"
   inkscape:version="0.91 r13725"
   sodipodi:docname="Content_Delivery_Network.svg"><metadata
     id="metadata31"><rdf:RDF><cc:Work
         rdf:about=""><dc:format>image/svg+xml</dc:format><dc:type
           rdf:resource="http://purl.org/dc/dcmitype/StillImage" /><dc:title></dc:title></cc:Work></rdf:RDF></metadata><defs
     id="defs29" /><sodipodi:namedview
     pagecolor="#ffffff"
     bordercolor="#666666"
     borderopacity="1"
     objecttolerance="10"
     gridtolerance="10"
     guidetolerance="10"
     inkscape:pageopacity="0"
     inkscape:pageshadow="2"
     inkscape:window-width="1920"
     inkscape:window-height="1018"
     id="namedview27"
     showgrid="false"
     fit-margin-top="0"
     fit-margin-left="0"
     fit-margin-right="0"
     fit-margin-bottom="0"
     inkscape:zoom="16.059062"
     inkscape:cx="25"
     inkscape:cy="16.900001"
     inkscape:window-x="-8"
     inkscape:window-y="-8"
     inkscape:window-maximized="1"
     inkscape:current-layer="Layer_1" /><path
     d="M 44,14.1 C 44,13.7 44.1,13.2 44.1,12.8 44.1,5.7 38.3,0 31.1,0 26.9,0 23,2 20.6,5.3 19.1,4.3 17.3,3.8 15.4,3.8 10,3.8 5.6,8.2 5.6,13.5 L 5.6,14.3 C 2,16.2 0,19.3 0,23.1 0,29.1 4.9,33.8 11.2,33.8 L 38.8,33.8 C 45.1,33.8 50,29.1 50,23.1 50,19.1 47.8,15.9 44,14.1 Z"
     id="path3"
     inkscape:connector-curvature="0"
     style="fill:#59b4d9" /><g
     id="g5"
     transform="translate(0,-8.1)"><path
       d="M 32.3,17.3 C 32.3,17.3 32.3,17.3 32.3,17.3 32.3,17.3 32.3,17.3 32.3,17.3 Z"
       id="path7"
       inkscape:connector-curvature="0"
       style="fill:#fcd116" /><path
       d="M 32.4,17 C 32.4,17.1 32.3,17.1 32.3,17.2 32.3,17.1 32.3,17.1 32.4,17 L 36.7,9.4 C 36.7,9.4 36.7,9.4 36.7,9.4 L 32.4,17 Z"
       id="path9"
       inkscape:connector-curvature="0"
       style="fill:#fcd116" /><path
       d="M 22.7,23.1 27.6,23.1 C 27.8,23.1 27.9,23.1 27.9,23.2 28,23.3 28,23.5 28,23.7 L 23,35.9 C 22.9,36.2 23,36.3 23.2,36 L 23.9,35.2 35.7,17.5 38.9,17.5 C 38.9,17.5 38.9,17.5 38.9,17.5 L 33.7,17.5 32.7,17.5 C 32.7,17.5 32.6,17.5 32.6,17.5 L 29.7,17.5 34.4,8.5 C 33.4,8.2 32.3,8.1 31.2,8.1 29.6,8.1 28.1,8.4 26.7,8.9 L 22.4,22.6 C 22.2,22.9 22.4,23.1 22.7,23.1 Z"
       id="path11"
       inkscape:connector-curvature="0"
       style="fill:#fcd116" /><path
       d="M 39.1,18 23.9,35.2 23.8,35.4 39.1,18 C 39.4,17.7 39.3,17.5 38.9,17.5 L 38.9,17.5 C 39.2,17.5 39.3,17.7 39.1,18 Z"
       id="path13"
       inkscape:connector-curvature="0"
       style="fill:#59b4d9" /><path
       d="M 39.1,18 23.9,35.2 23.8,35.4 39.1,18 C 39.4,17.7 39.3,17.5 38.9,17.5 L 38.9,17.5 C 39.2,17.5 39.3,17.7 39.1,18 Z"
       id="path15"
       inkscape:connector-curvature="0"
       style="opacity:0.3;fill:#ff8c00" /><path
       d="M 23.9,35.2 39.1,18 C 39.3,17.7 39.2,17.5 38.9,17.5 L 35.7,17.5 23.9,35.2 Z"
       id="path17"
       inkscape:connector-curvature="0"
       style="fill:#fcd116" /><path
       d="M 23.9,35.2 39.1,18 C 39.3,17.7 39.2,17.5 38.9,17.5 L 35.7,17.5 23.9,35.2 Z"
       id="path19"
       inkscape:connector-curvature="0"
       style="opacity:0.3;fill:#ff8c00" /><path
       d="M 32.6,17.5 32.6,17.5 C 32.5,17.5 32.4,17.4 32.4,17.3 32.3,17.4 32.4,17.5 32.6,17.5 Z"
       id="path21"
       inkscape:connector-curvature="0"
       style="fill:#ff8c00" /><path
       d="M 32.3,17.3 C 32.3,17.3 32.3,17.2 32.3,17.2 32.3,17.2 32.3,17.3 32.3,17.3 Z"
       id="path23"
       inkscape:connector-curvature="0"
       style="fill:#ff8c00" /><path
       d="M 32.4,17 36.7,9.4 C 36,9.1 35.2,8.8 34.4,8.6 L 29.7,17.6 32.6,17.6 C 32.5,17.6 32.4,17.5 32.4,17.4 32.4,17.4 32.4,17.4 32.4,17.4 32.4,17.4 32.4,17.3 32.4,17.3 32.3,17.1 32.3,17 32.4,17 Z"
       id="path25"
       inkscape:connector-curvature="0"
       style="fill:#ff8c00" /></g></svg>