<?xml version="1.0" encoding="UTF-8" standalone="no"?>
<!-- Generator: Adobe Illustrator 19.1.0, SVG Export Plug-In . SVG Version: 6.00 Build 0)  -->

<svg
   xmlns:dc="http://purl.org/dc/elements/1.1/"
   xmlns:cc="http://creativecommons.org/ns#"
   xmlns:rdf="http://www.w3.org/1999/02/22-rdf-syntax-ns#"
   xmlns:svg="http://www.w3.org/2000/svg"
   xmlns="http://www.w3.org/2000/svg"
   xmlns:sodipodi="http://sodipodi.sourceforge.net/DTD/sodipodi-0.dtd"
   xmlns:inkscape="http://www.inkscape.org/namespaces/inkscape"
   version="1.1"
   id="Layer_1"
   x="0px"
   y="0px"
   width="37.799999"
   height="50"
   viewBox="0 0 37.799999 50"
   enable-background="new 0 0 50 50"
   xml:space="preserve"
   inkscape:version="0.91 r13725"
   sodipodi:docname="Data_Lake.svg"><metadata
     id="metadata31"><rdf:RDF><cc:Work
         rdf:about=""><dc:format>image/svg+xml</dc:format><dc:type
           rdf:resource="http://purl.org/dc/dcmitype/StillImage" /><dc:title></dc:title></cc:Work></rdf:RDF></metadata><defs
     id="defs29" /><sodipodi:namedview
     pagecolor="#ffffff"
     bordercolor="#666666"
     borderopacity="1"
     objecttolerance="10"
     gridtolerance="10"
     guidetolerance="10"
     inkscape:pageopacity="0"
     inkscape:pageshadow="2"
     inkscape:window-width="1920"
     inkscape:window-height="1018"
     id="namedview27"
     showgrid="false"
     fit-margin-top="0"
     fit-margin-left="0"
     fit-margin-right="0"
     fit-margin-bottom="0"
     inkscape:zoom="16.059062"
     inkscape:cx="18.9"
     inkscape:cy="25"
     inkscape:window-x="-8"
     inkscape:window-y="-8"
     inkscape:window-maximized="1"
     inkscape:current-layer="Layer_1" /><g
     id="g3"
     transform="translate(-6.1,0)"><path
       d="M 6.1,6.8 6.1,43.1 C 6.1,46.9 14.5,49.9 25,49.9 L 25,6.8 6.1,6.8 Z"
       id="path5"
       inkscape:connector-curvature="0"
       style="fill:#3e3e3e" /><path
       d="M 24.7,50 25,50 C 35.4,50 43.9,46.9 43.9,43.2 L 43.9,6.8 24.7,6.8 24.7,50 Z"
       id="path7"
       inkscape:connector-curvature="0"
       style="fill:#a0a1a2" /><path
       d="M 43.9,6.8 C 43.9,10.6 35.5,13.6 25,13.6 14.5,13.6 6.1,10.6 6.1,6.8 6.1,3.1 14.6,0 25,0 35.4,0 43.9,3.1 43.9,6.8"
       id="path9"
       inkscape:connector-curvature="0"
       style="fill:#ffffff" /><path
       d="M 40,6.4 C 40,8.9 33.3,10.9 25,10.9 16.7,10.9 10,8.9 10,6.4 10,3.9 16.7,1.9 25,1.9 33.3,1.9 40,3.9 40,6.4"
       id="path11"
       inkscape:connector-curvature="0"
       style="fill:#7fba00" /><path
       d="M 36.9,9.2 C 38.9,8.4 40,7.5 40,6.4 40,3.9 33.3,1.9 25,1.9 16.7,1.9 10,3.9 10,6.4 10,7.4 11.2,8.4 13.1,9.2 15.8,8.1 20.1,7.4 25,7.4 29.8,7.4 34.1,8.1 36.9,9.2"
       id="path13"
       inkscape:connector-curvature="0"
       style="fill:#b8d432" /></g><g
     id="g15"
     transform="translate(-6.1,0)"><path
       d="M 24.7,50 24.7,32 C 21.9,32 19.5,30.5 18.1,28.3 16.7,30.5 14.4,32 11.6,32 9.4,32 7.5,31.1 6.1,29.6 L 6.1,43.2 C 6.1,46.9 14.4,49.9 24.7,50 Z"
       id="path17"
       inkscape:connector-curvature="0"
       style="fill:#3999c6" /><path
       d="M 25,50 25,50 25,50 C 25,50 25,50 25,50 Z"
       id="path19"
       inkscape:connector-curvature="0"
       style="fill:#3999c6" /><path
       d="M 24.7,50 25,50 C 24.9,50 24.8,50 24.7,50 L 24.7,50 Z"
       id="path21"
       inkscape:connector-curvature="0"
       style="fill:#59b4d9" /><path
       d="M 38.1,32 C 35.3,32 32.8,30.5 31.4,28.3 30.1,30.5 27.7,31.9 24.9,32 L 24.9,50 24.9,50 C 35.3,50 43.8,46.9 43.8,43.2 L 43.8,29.5 C 42.4,31 40.4,32 38.1,32 Z"
       id="path23"
       inkscape:connector-curvature="0"
       style="fill:#59b4d9" /><path
       d="M 24.8,32 C 24.8,32 24.8,32 24.8,32 L 24.7,50 C 24.8,50 24.8,50 24.9,50 L 24.9,50 24.9,32 C 24.9,32 24.9,32 24.8,32 Z"
       id="path25"
       inkscape:connector-curvature="0"
       style="fill:#59b4d9" /></g></svg>