<?xml version="1.0" encoding="UTF-8" standalone="no"?>
<!-- Generator: Adobe Illustrator 19.1.0, SVG Export Plug-In . SVG Version: 6.00 Build 0)  -->

<svg
   xmlns:dc="http://purl.org/dc/elements/1.1/"
   xmlns:cc="http://creativecommons.org/ns#"
   xmlns:rdf="http://www.w3.org/1999/02/22-rdf-syntax-ns#"
   xmlns:svg="http://www.w3.org/2000/svg"
   xmlns="http://www.w3.org/2000/svg"
   xmlns:sodipodi="http://sodipodi.sourceforge.net/DTD/sodipodi-0.dtd"
   xmlns:inkscape="http://www.inkscape.org/namespaces/inkscape"
   version="1.1"
   id="Layer_1"
   x="0px"
   y="0px"
   width="50"
   height="50.000015"
   viewBox="-162 256 50 50.000015"
   enable-background="new -162 256 50 50"
   xml:space="preserve"
   inkscape:version="0.91 r13725"
   sodipodi:docname="Data_Lake_Analytics.svg"><metadata
     id="metadata67"><rdf:RDF><cc:Work
         rdf:about=""><dc:format>image/svg+xml</dc:format><dc:type
           rdf:resource="http://purl.org/dc/dcmitype/StillImage" /><dc:title></dc:title></cc:Work></rdf:RDF></metadata><defs
     id="defs65" /><sodipodi:namedview
     pagecolor="#ffffff"
     bordercolor="#666666"
     borderopacity="1"
     objecttolerance="10"
     gridtolerance="10"
     guidetolerance="10"
     inkscape:pageopacity="0"
     inkscape:pageshadow="2"
     inkscape:window-width="1920"
     inkscape:window-height="1018"
     id="namedview63"
     showgrid="false"
     fit-margin-top="0"
     fit-margin-left="0"
     fit-margin-right="0"
     fit-margin-bottom="0"
     inkscape:zoom="16.059062"
     inkscape:cx="25"
     inkscape:cy="25.000014"
     inkscape:window-x="-8"
     inkscape:window-y="-8"
     inkscape:window-maximized="1"
     inkscape:current-layer="Layer_1" /><g
     id="g3"><path
       d="M -162,262.8 -162,299.1 C -162,302.9 -153.6,305.9 -143.1,305.9 L -143.1,262.8 -162,262.8 Z"
       id="path5"
       inkscape:connector-curvature="0"
       style="fill:#3e3e3e" /><path
       d="M -143.4,306 -143.1,306 C -132.7,306 -124.2,302.9 -124.2,299.2 L -124.2,262.8 -143.4,262.8 -143.4,306 Z"
       id="path7"
       inkscape:connector-curvature="0"
       style="fill:#a0a1a2" /><path
       d="M -124.2,262.8 C -124.2,266.6 -132.6,269.6 -143.1,269.6 -153.6,269.6 -162,266.6 -162,262.8 -162,259.1 -153.5,256 -143.1,256 -132.7,256 -124.2,259.1 -124.2,262.8"
       id="path9"
       inkscape:connector-curvature="0"
       style="fill:#ffffff" /><path
       d="M -128.1,262.4 C -128.1,264.9 -134.8,266.9 -143.1,266.9 -151.4,266.9 -158.1,264.9 -158.1,262.4 -158.1,259.9 -151.4,257.9 -143.1,257.9 -134.8,257.9 -128.1,259.9 -128.1,262.4"
       id="path11"
       inkscape:connector-curvature="0"
       style="fill:#7fba00" /><path
       d="M -131.2,265.2 C -129.2,264.4 -128.1,263.5 -128.1,262.4 -128.1,259.9 -134.8,257.9 -143.1,257.9 -151.4,257.9 -158.1,259.9 -158.1,262.4 -158.1,263.4 -156.9,264.4 -155,265.2 -152.3,264.1 -148,263.4 -143.1,263.4 -138.3,263.4 -134,264.1 -131.2,265.2"
       id="path13"
       inkscape:connector-curvature="0"
       style="fill:#b8d432" /></g><g
     id="g15"><path
       d="M -143.4,306 -143.4,288 C -146.2,288 -148.6,286.5 -150,284.3 -151.4,286.5 -153.7,288 -156.5,288 -158.7,288 -160.6,287.1 -162,285.6 L -162,299.2 C -162,302.9 -153.7,305.9 -143.4,306 Z"
       id="path17"
       inkscape:connector-curvature="0"
       style="fill:#3999c6" /><path
       d="M -143.1,306 -143.1,306 -143.1,306 -143.1,306 Z"
       id="path19"
       inkscape:connector-curvature="0"
       style="fill:#3999c6" /><path
       d="M -143.4,306 -143.1,306 C -143.2,306 -143.3,306 -143.4,306 L -143.4,306 Z"
       id="path21"
       inkscape:connector-curvature="0"
       style="fill:#59b4d9" /><path
       d="M -130,288 C -132.8,288 -135.3,286.5 -136.7,284.3 -138,286.5 -140.4,287.9 -143.2,288 L -143.2,306 -143.2,306 C -132.8,306 -124.3,302.9 -124.3,299.2 L -124.3,285.5 C -125.7,287 -127.7,288 -130,288 Z"
       id="path23"
       inkscape:connector-curvature="0"
       style="fill:#59b4d9" /><path
       d="M -143.3,288 -143.3,288 -143.4,306 C -143.3,306 -143.3,306 -143.2,306 L -143.2,306 -143.2,288 C -143.2,288 -143.2,288 -143.3,288 Z"
       id="path25"
       inkscape:connector-curvature="0"
       style="fill:#59b4d9" /></g><g
     id="g27"><rect
       x="-139.084"
       y="291.93301"
       width="4.8899999"
       height="14.067"
       id="rect29"
       style="fill:#68217a" /></g><g
     id="g31"><rect
       x="-131.806"
       y="288.625"
       width="4.8899999"
       height="17.375"
       id="rect33"
       style="fill:#68217a" /></g><g
     id="g35"><rect
       x="-124.537"
       y="294.19199"
       width="4.9060001"
       height="11.808"
       id="rect37"
       style="fill:#68217a" /></g><g
     id="g39"><rect
       x="-117.251"
       y="289.97"
       width="4.8899999"
       height="16.030001"
       id="rect41"
       style="fill:#68217a" /></g><g
     id="g43"><polygon
       points="-138.111,287.473 -127.679,279.808 -122.307,287.628 -113.925,280.308 -113.396,280.915 -113.864,281.323 -113.576,281.653 -122.541,289.483 -127.977,281.569 -137.374,288.474 "
       id="polygon45"
       style="fill:#68217a" /></g><g
     id="g47"><circle
       cx="-137.96899"
       cy="288.04999"
       r="1.864"
       id="circle49"
       style="fill:#804998" /></g><g
     id="g51"><circle
       cx="-127.864"
       cy="280.88"
       r="1.864"
       id="circle53"
       style="fill:#804998" /></g><g
     id="g55"><circle
       cx="-122.552"
       cy="288.556"
       r="1.864"
       id="circle57"
       style="fill:#804998" /></g><g
     id="g59"><circle
       cx="-113.864"
       cy="281.14099"
       r="1.864"
       id="circle61"
       style="fill:#804998" /></g></svg>