<?xml version="1.0" standalone="no"?>
<svg contentScriptType="text/ecmascript" width="63.7" xmlns:xlink="http://www.w3.org/1999/xlink" baseProfile="full"
    zoomAndPan="magnify" contentStyleType="text/css" height="73.6" viewBox="0 0 63.7 73.6" preserveAspectRatio="none meet"
    xmlns="http://www.w3.org/2000/svg" version="1.0">
    <defs>
        <style>.cls-1{fill:#253858;}.cls-2{fill:#2684ff;}.cls-3{fill:url(#linear-gradient);}.cls-4{fill:url(#linear-gradient-2);}</style>
        <linearGradient x1="16.06" y1="10.61" x2="16.06" gradientUnits="userSpaceOnUse" y2="53.94" id="linear-gradient">
            <stop offset="0" stop-color="#0052cc"/>
            <stop offset="1" stop-color="#2684ff"/>
        </linearGradient>
        <linearGradient x1="15.91" y1="10.61" x2="15.91" xlink:href="#linear-gradient"
            y2="53.94" id="linear-gradient-2"/>
    </defs>
    <title>Bamboo-blue</title>
    <path class="cls-2" d=
        "M61.56,41.81H46.27a2,2,0,0,0-2,1.7A12.57,12.57,0,0,1,31.81,54.34l4.14,18.91A31.81,31.81,0,0,0,63.56,43.95,2,2,0,0,0,61.56,41.81Z"/>
    <path class="cls-2" d="M35.1,41.33l22-18.91a2,2,0,0,0,0-3L35.1.48A2,2,0,0,0,31.81,2V39.81A2,2,0,0,0,35.1,41.33Z"/>
    <path class="cls-3" d="M.3,45.94A31.81,31.81,0,0,0,31.81,73.55V54.34A12.56,12.56,0,0,1,19.25,41.81Z"/>
    <path class="cls-4" d="M0,41.51v.3H19.25A12.56,12.56,0,0,1,31.81,29.28L27.68,10.37A31.79,31.79,0,0,0,0,41.51"/>
</svg>