<?xml version="1.0" standalone="no"?>
<svg contentScriptType="text/ecmascript" width="63.4" xmlns:xlink="http://www.w3.org/1999/xlink" baseProfile="full"
    zoomAndPan="magnify" contentStyleType="text/css" height="57.4" viewBox="-0.2 3.3 63.2 60.7" preserveAspectRatio="none meet"
    xmlns="http://www.w3.org/2000/svg" version="1.0">
    <defs>
        <style>.cls-1{fill:#253858;}.cls-2{fill:url(#linear-gradient);}.cls-3{fill:url(#linear-gradient-2);}</style>
        <linearGradient x1="59.68" y1="67.65" x2="20.35" gradientUnits="userSpaceOnUse" y2="45.05" id="linear-gradient">
            <stop offset="0.18" stop-color="#0052cc"/>
            <stop offset="1" stop-color="#2684ff"/>
        </linearGradient>
        <linearGradient gradientTransform="translate(282.83 -1616.71) rotate(180)" x1="279.76" y1="-1616.34" x2="240.42"
            xlink:href="#linear-gradient"
            y2="-1638.95" id="linear-gradient-2"/>
    </defs>
    <title>Confluence-blue</title>
    <path class="cls-2" d=
        "M2.23,49.53c-.65,1.06-1.38,2.29-2,3.27a2,2,0,0,0,.67,2.72l13,8a2,2,0,0,0,2.77-.68c.52-.87,1.19-2,1.92-3.21,5.15-8.5,10.33-7.46,19.67-3l12.89,6.13a2,2,0,0,0,2.69-1l6.19-14a2,2,0,0,0-1-2.62c-2.72-1.28-8.13-3.83-13-6.18C28.51,30.45,13.62,31,2.23,49.53Z"/>
    <path class="cls-3" d=
        "M60.52,17.76c.65-1.06,1.38-2.29,2-3.27a2,2,0,0,0-.67-2.72l-13-8A2,2,0,0,0,46,4.43c-.52.87-1.19,2-1.92,3.21-5.15,8.5-10.33,7.46-19.67,3L11.56,4.54a2,2,0,0,0-2.69,1l-6.19,14a2,2,0,0,0,1,2.62c2.72,1.28,8.13,3.83,13,6.18C34.24,36.84,49.13,36.27,60.52,17.76Z"/>
</svg>