<?xml version="1.0" standalone="no"?>
<svg contentScriptType="text/ecmascript" width="66.1" xmlns:xlink="http://www.w3.org/1999/xlink" baseProfile="full"
    zoomAndPan="magnify" contentStyleType="text/css" height="64.5" viewBox="0 0.8 66.1 65.3" preserveAspectRatio="none meet"
    xmlns="http://www.w3.org/2000/svg" version="1.0">
    <defs>
        <style>.cls-1{fill:#253858;}.cls-2{fill:#2684ff;}.cls-3{fill:url(#linear-gradient);}</style>
        <linearGradient x1="49.708" y1="23.487" x2="55.422" gradientUnits="userSpaceOnUse" y2="61.623" id="linear-gradient">
            <stop offset="0" stop-color="#2684ff"/>
            <stop offset="1" stop-color="#0052cc"/>
        </linearGradient>
    </defs>
    <title>Crowd-blue</title>
    <path class="cls-2" d=
        "M64.63,12.611,33,.97,1.37,12.611A2.092,2.092,0,0,0,0,14.651L.662,32.589C1.148,47.421,8.6,58.453,20.288,65.656a2.1,2.1,0,0,0,3.041-.963l6.815-16.075a1.038,1.038,0,0,0-.656-1.4,12.186,12.186,0,1,1,7.026,0,1.038,1.038,0,0,0-.656,1.4l6.815,16.075a2.1,2.1,0,0,0,3.041.963c11.688-7.2,19.14-18.235,19.625-33.066L66,14.651A2.092,2.092,0,0,0,64.63,12.611Z"/>
    <path class="cls-3" d=
        "M33,23.374a12.179,12.179,0,0,1,3.513,23.843,1.038,1.038,0,0,0-.656,1.4l6.815,16.075a2.1,2.1,0,0,0,3.041.963c11.688-7.2,19.14-18.235,19.625-33.066L66,14.651a2.092,2.092,0,0,0-1.368-2.04L33,.97Z"/>
</svg>