<?xml version="1.0" standalone="no"?>
<svg contentScriptType="text/ecmascript" width="70.9" xmlns:xlink="http://www.w3.org/1999/xlink" baseProfile="full"
    zoomAndPan="magnify" contentStyleType="text/css" height="59.2" viewBox="-0.1 2.6 70.8 61.8" preserveAspectRatio="none meet"
    xmlns="http://www.w3.org/2000/svg" version="1.0">
    <defs>
        <style>.cls-1{fill:#253858;}.cls-2{fill:#2684ff;}.cls-3{fill:url(#New_Gradient_Swatch_1);}</style>
        <linearGradient x1="0.07" y1="33.68" x2="45.5" gradientUnits="userSpaceOnUse" y2="47.33" id="New_Gradient_Swatch_1">
            <stop offset="0.18" stop-color="#0052cc"/>
            <stop offset="1" stop-color="#2684ff"/>
        </linearGradient>
    </defs>
    <title>Fisheye-blue</title>
    <path class="cls-2" d=
        "M33.12,2.71c-11.19,0-20,8-20,18,0,7.64,5.24,13.2,11.44,13.2A10.76,10.76,0,0,0,35.63,23.15a7.24,7.24,0,0,0-.29-2.06A39.06,39.06,0,0,1,48.5,32.31C45.05,38.46,39.65,45,31.62,45h0A12.68,12.68,0,0,1,19.24,34.17a2,2,0,0,0-2-1.72H2a2,2,0,0,0-2,2.16A31.39,31.39,0,0,0,31.5,64.22h0c19,0,30.26-13.66,38.85-31.31a2,2,0,0,0,0-1.77C67.88,26.2,54.2,2.71,33.12,2.71Z"/>
    <path class="cls-3" d=
        "M70.52,32.31h-22C45.05,38.46,39.65,45,31.62,45h0A12.68,12.68,0,0,1,19.24,34.17a2,2,0,0,0-2-1.72H2a2,2,0,0,0-2,2.16A31.39,31.39,0,0,0,31.5,64.22h0c19,0,30.26-13.66,38.85-31.31A2,2,0,0,0,70.52,32.31Z"/>
</svg>