<?xml version="1.0" encoding="utf-8"?>
<!-- Generator: Adobe Illustrator 21.1.0, SVG Export Plug-In . SVG Version: 6.00 Build 0)  -->
<svg version="1.1" id="Layer_1" xmlns="http://www.w3.org/2000/svg" xmlns:xlink="http://www.w3.org/1999/xlink" x="0px" y="0px"
	 viewBox="0 0 59.8 59.5" style="enable-background:new 0 0 59.8 59.5;" xml:space="preserve">
<style type="text/css">
	.st0{fill:#8DC541;}
	.st1{fill:none;stroke:#FFFFFF;stroke-width:1.18;stroke-miterlimit:10;}
	.st2{fill:#FFFFFF;}
</style>
<title>INDIVIDUAL ICONS</title>
<ellipse class="st0" cx="29.9" cy="29.8" rx="29.9" ry="29.8"/>
<path class="st1" d="M46.5,36.5L36.7,47v-6.6h-1.5c-3.1,0-6.2-0.9-8.8-2.6c0-0.1,0-0.2,0-0.3c0-2.3-0.9-4.6-2.5-6.2
	c-1.1-1.1-2.5-1.9-4-2.3c-0.5-1.5-0.7-3.1-0.7-4.7c0-4.3,1.7-8.4,4.7-11.4c6.1-6.2,16.2-6.3,22.4-0.1c0,0,0.1,0.1,0.1,0.1
	c3,3,4.7,7.1,4.7,11.4C51.2,28.9,49.6,33.2,46.5,36.5z"/>
<ellipse class="st2" cx="27.4" cy="18.1" rx="1.8" ry="1.8"/>
<ellipse class="st2" cx="31.6" cy="18.1" rx="1.8" ry="1.8"/>
<ellipse class="st2" cx="36.1" cy="18.1" rx="1.8" ry="1.8"/>
<ellipse class="st2" cx="40.7" cy="18.1" rx="1.8" ry="1.8"/>
<path class="st1" d="M11,44.8l5.1,5.6v-3.5h0.8c1.9-0.6,3.7-1.4,5.4-2.4c0.2-0.2,0.4-0.3,0.6-0.5c0.5-0.5,0.9-1.1,1.3-1.7
	c0.3-0.6,0.6-1.1,0.8-1.7c0.1-0.3,0.2-0.6,0.2-0.9c0.1-0.4,0.1-0.8,0.1-1.3c0-2.3-0.9-4.4-2.5-6c-3.1-3.3-8.3-3.4-11.6-0.2
	c-0.1,0.1-0.1,0.1-0.2,0.2c-1.6,1.6-2.5,3.8-2.4,6C8.5,40.8,9.4,43,11,44.8z"/>
<ellipse class="st2" cx="21" cy="35" rx="0.9" ry="0.9"/>
<ellipse class="st2" cx="18.8" cy="35" rx="0.9" ry="0.9"/>
<ellipse class="st2" cx="16.4" cy="35" rx="0.9" ry="0.9"/>
<ellipse class="st2" cx="14.1" cy="35" rx="0.9" ry="0.9"/>
</svg>
