<?xml version="1.0" encoding="utf-8"?>
<!-- Generator: Adobe Illustrator 21.1.0, SVG Export Plug-In . SVG Version: 6.00 Build 0)  -->
<svg version="1.1" id="Layer_1" xmlns="http://www.w3.org/2000/svg" xmlns:xlink="http://www.w3.org/1999/xlink" x="0px" y="0px"
	 viewBox="0 0 59.5 59.5" style="enable-background:new 0 0 59.5 59.5;" xml:space="preserve">
<style type="text/css">
	.st0{fill:#8CC441;}
	.st1{fill:#FFFFFF;}
</style>
<title>INDIVIDUAL ICONS</title>
<circle class="st0" cx="29.8" cy="29.8" r="29.8"/>
<path class="st1" d="M29.8,12.4c-9.6,0-17.3,7.8-17.3,17.4s7.8,17.3,17.4,17.3c9.6,0,17.3-7.8,17.3-17.3
	C47.1,20.2,39.3,12.4,29.8,12.4z M45.6,29.8c0,1.3-0.2,2.7-0.5,4c-1.9-3.4-4.5-6.3-7.5-8.7c0.2-0.3,0.3-0.6,0.3-0.9
	c0-0.7-0.4-1.3-1-1.5c0.4-2.1,1-4.1,1.8-6C43,19.6,45.6,24.5,45.6,29.8z M37.8,36.3c-0.1-0.7-0.6-1.3-1.3-1.5
	c-0.5-3-0.6-6.1-0.2-9.2c0.1,0,0.3,0,0.4-0.1c3.3,2.5,6,5.8,8,9.4c-0.3,0.9-0.8,1.9-1.3,2.7C41.6,36.9,39.7,36.4,37.8,36.3z
	 M13.9,29.8c0-0.2,0-0.5,0-0.7c0.5,0.1,1.3,0.2,2.4,0.4c0,0.2,0.1,0.3,0.2,0.5c-0.7,0.8-1.5,1.5-2.4,2.1
	C14,31.3,13.9,30.5,13.9,29.8z M17,20.4c1.7-0.2,3.3-0.3,5-0.1c0.1,0.2,0.3,0.4,0.5,0.6c-1,2.4-2.4,4.7-4,6.8
	c-0.2-0.1-0.4-0.1-0.6-0.1c-0.6,0-1.2,0.4-1.4,0.9c-1.1-0.2-1.9-0.4-2.4-0.4C14.3,25.2,15.4,22.6,17,20.4z M19.3,28.3
	c1.7-2.2,3.1-4.7,4.2-7.2c0.4,0,0.8-0.2,1.1-0.6c0.7,0.1,1.5,0.3,2.3,0.4c2.7,0.6,5.3,1.7,7.7,3.2c0,0.5,0.3,0.9,0.7,1.2
	c-0.4,3.2-0.3,6.4,0.2,9.6c-0.5,0.3-0.9,0.8-0.9,1.4c-0.6,0.1-1.2,0.2-1.8,0.3c-0.3-0.3-0.7-0.5-1.2-0.6h-0.3
	c-2.1-2.4-4.8-4.3-7.7-5.5c-1.3-0.6-2.7-1.1-4.1-1.5V29C19.5,28.8,19.4,28.5,19.3,28.3z M33.2,37.7c0.6-0.1,1.1-0.2,1.7-0.3
	c0.3,0.4,0.7,0.6,1.2,0.6c0.5,1.8,1.1,3.5,1.9,5.1c-0.9,0.6-2,1.1-3,1.5c-0.3-2.1-1-4.2-2.1-6c0.1-0.2,0.2-0.5,0.2-0.8V37.7z
	 M37.8,16.1c-0.9,2.1-1.5,4.2-2,6.4c-0.4,0.1-0.7,0.3-0.9,0.6c-3-1.8-6.4-3-9.9-3.6v0c0-0.4-0.2-0.8-0.5-1.1
	c0.4-1.2,0.8-2.5,1.1-3.9C29.7,13.3,34.1,13.9,37.8,16.1z M24.5,14.8c-0.3,1.1-0.6,2.1-0.9,3.1h-0.2c-0.8,0-1.5,0.6-1.6,1.4
	c-1.3-0.1-2.6-0.1-3.9,0C19.7,17.3,21.9,15.7,24.5,14.8z M14.3,33.2c1.1-0.8,2.1-1.6,3-2.6c0.2,0.1,0.4,0.1,0.6,0.1
	c0.5,0,0.9-0.2,1.2-0.6c3.6,1.1,8.1,3,11.3,6.6C30.2,37,30,37.3,30,37.7c-0.7,0.3-1.4,0.6-2,0.9c-2.4,1.2-4.7,2.8-6.6,4.6
	C17.8,40.9,15.3,37.3,14.3,33.2z M22.3,43.7c2.4-2.1,5.1-3.8,8-5c0.3,0.5,0.8,0.8,1.4,0.8c0.2,0,0.4,0,0.6-0.1
	c1,1.7,1.6,3.7,1.9,5.7c-1.4,0.4-2.9,0.6-4.4,0.6C27.1,45.6,24.6,44.9,22.3,43.7L22.3,43.7z M39,42.6c-0.8-1.6-1.4-3.2-1.8-4.8
	c0.2-0.1,0.3-0.3,0.4-0.4c1.8,0.1,3.6,0.5,5.3,1.3C41.8,40.2,40.5,41.5,39,42.6L39,42.6z"/>
</svg>
