<?xml version="1.0" encoding="utf-8"?>
<!-- Generator: Adobe Illustrator 21.1.0, SVG Export Plug-In . SVG Version: 6.00 Build 0)  -->
<svg version="1.1" id="Layer_1" xmlns="http://www.w3.org/2000/svg" xmlns:xlink="http://www.w3.org/1999/xlink" x="0px" y="0px"
	 viewBox="0 0 59.8 59.5" style="enable-background:new 0 0 59.8 59.5;" xml:space="preserve">
<style type="text/css">
	.st0{fill:#89C540;}
	.st1{fill:#FFFFFF;}
	.st2{fill:none;stroke:#FFFFFF;stroke-width:0.26;stroke-miterlimit:10;}
</style>
<title>INDIVIDUAL ICONS</title>
<ellipse class="st0" cx="29.9" cy="29.8" rx="29.9" ry="29.8"/>
<path class="st1" d="M9.3,13.3v32.9h41.2V13.3H9.3z M47.7,43.5H12v-22h35.7V43.5z"/>
<rect x="12.1" y="21.5" class="st2" width="35.7" height="22"/>
<line class="st2" x1="12.1" y1="39.8" x2="47.7" y2="39.8"/>
<line class="st2" x1="12.1" y1="36.2" x2="47.7" y2="36.2"/>
<line class="st2" x1="12.1" y1="32.5" x2="47.7" y2="32.5"/>
<line class="st2" x1="12.1" y1="28.8" x2="47.7" y2="28.8"/>
<line class="st2" x1="12.1" y1="25.2" x2="47.7" y2="25.2"/>
<line class="st2" x1="41.8" y1="21.5" x2="41.8" y2="43.5"/>
<line class="st2" x1="35.8" y1="21.5" x2="35.8" y2="43.5"/>
<line class="st2" x1="29.9" y1="21.5" x2="29.9" y2="43.5"/>
<line class="st2" x1="23.9" y1="21.5" x2="23.9" y2="43.5"/>
<line class="st2" x1="18" y1="21.5" x2="18" y2="43.5"/>
</svg>
