<?xml version="1.0" encoding="utf-8"?>
<!-- Generator: Adobe Illustrator 21.1.0, SVG Export Plug-In . SVG Version: 6.00 Build 0)  -->
<svg version="1.1" id="Layer_1" xmlns="http://www.w3.org/2000/svg" xmlns:xlink="http://www.w3.org/1999/xlink" x="0px" y="0px"
	 viewBox="0 0 65 65" style="enable-background:new 0 0 65 65;" xml:space="preserve">
<style type="text/css">
	.st0{fill:#8CC340;}
	.st1{fill:#FFFFFF;}
	.st2{fill:none;stroke:#FFFFFF;stroke-width:2.5;stroke-miterlimit:10;}
</style>
<title>INDIVIDUAL ICONS 3</title>
<ellipse transform="matrix(0.7071 -0.7071 0.7071 0.7071 -13.4619 32.5)" class="st0" cx="32.5" cy="32.5" rx="32.5" ry="32.5"/>
<path class="st1" d="M30.8,45.1V29.5H11.2v15.6h7.9v1.8h-3v0.7h9.9v-0.7h-3v-1.8H30.8z M12.7,31.1h16.5v12H12.7V31.1z"/>
<path class="st1" d="M53.3,45.1V29.5H33.7v15.6h7.8v1.8h-3v0.7h9.9v-0.7h-3v-1.8H53.3z M35.2,31.1h16.6v12H35.2L35.2,31.1z"/>
<path class="st1" d="M42.3,25.6V10H22.7v15.6h7.9v1.8h-3v0.7h9.9v-0.7h-3v-1.8H42.3z M24.2,11.6h16.6v12H24.2V11.6z"/>
<ellipse class="st2" cx="32.5" cy="32.5" rx="26.7" ry="27.1"/>
</svg>
