<?xml version="1.0" encoding="utf-8"?>
<!-- Generator: Adobe Illustrator 21.1.0, SVG Export Plug-In . SVG Version: 6.00 Build 0)  -->
<svg version="1.1" id="Layer_1" xmlns="http://www.w3.org/2000/svg" xmlns:xlink="http://www.w3.org/1999/xlink" x="0px" y="0px"
	 viewBox="0 0 60.5 60.5" style="enable-background:new 0 0 60.5 60.5;" xml:space="preserve">
<style type="text/css">
	.st0{fill:#8DC63F;}
	.st1{fill:#FFFFFF;}
</style>
<title>INDIVIDUAL ICONS</title>
<circle class="st0" cx="30.3" cy="30.3" r="30.3"/>
<path class="st1" d="M37.3,17.9l-0.1,1.4l5.6,0.4l-9.7,7.9c-0.5-0.8-1.3-1.5-2.3-1.8l0.2-13.9l3.8,4.2l1-0.9L30.4,9l-5.7,6l1,1
	l3.9-4.1l-0.2,13.8c-1.1,0.1-2.1,0.6-2.7,1.5l-9-7.8l5.6-0.3v-1.4L15,18l0.9,8.2l1.4-0.2l-0.6-5.6l9.3,8c-0.6,1.8,0.2,3.7,1.8,4.6
	v11.3c-1.8,1.2-2.4,3.6-1.2,5.4c1.2,1.8,3.6,2.4,5.4,1.2c1.8-1.2,2.4-3.6,1.2-5.4c-0.3-0.5-0.7-0.9-1.2-1.2V32.9
	c1.4-0.9,2.1-2.5,1.8-4.1l9.9-7.9l-0.7,5.6l1.4,0.2l1.2-8.2L37.3,17.9z M29.8,49.9c-1.3,0-2.3-1-2.3-2.3s1-2.3,2.3-2.3
	c1.3,0,2.3,1,2.3,2.3C32,48.9,31.1,49.8,29.8,49.9L29.8,49.9z"/>
</svg>
