<?xml version="1.0" encoding="utf-8"?>
<!-- Generator: Adobe Illustrator 21.1.0, SVG Export Plug-In . SVG Version: 6.00 Build 0)  -->
<svg version="1.1" id="Layer_1" xmlns="http://www.w3.org/2000/svg" xmlns:xlink="http://www.w3.org/1999/xlink" x="0px" y="0px"
	 viewBox="0 0 60.5 60.5" style="enable-background:new 0 0 60.5 60.5;" xml:space="preserve">
<style type="text/css">
	.st0{fill:#8CC441;}
	.st1{fill:#FFFFFF;}
</style>
<title>INDIVIDUAL ICONS</title>
<circle class="st0" cx="30.3" cy="30.3" r="30.3"/>
<path class="st1" d="M47.6,44.5H12.9V16h34.7V44.5z M14.2,43.2h32.1v-26H14.2V43.2z"/>
<rect x="13.6" y="24.9" class="st1" width="33.4" height="1.3"/>
<rect x="13.6" y="34.4" class="st1" width="33.4" height="1.3"/>
<circle class="st1" cx="43.3" cy="20.9" r="1.5"/>
<circle class="st1" cx="39.6" cy="20.9" r="1.5"/>
<circle class="st1" cx="35.6" cy="20.9" r="1.5"/>
<circle class="st1" cx="43.5" cy="30.3" r="1.5"/>
<circle class="st1" cx="39.7" cy="30.3" r="1.5"/>
<circle class="st1" cx="35.7" cy="30.3" r="1.5"/>
<circle class="st1" cx="43.5" cy="39.5" r="1.5"/>
<circle class="st1" cx="39.8" cy="39.5" r="1.5"/>
<circle class="st1" cx="35.8" cy="39.5" r="1.5"/>
<rect x="16.5" y="19.9" class="st1" width="2" height="2"/>
<rect x="16.5" y="29.3" class="st1" width="2" height="2"/>
<rect x="16.5" y="38.5" class="st1" width="2" height="2"/>
</svg>
