<?xml version="1.0" encoding="utf-8"?>
<!-- Generator: Adobe Illustrator 21.1.0, SVG Export Plug-In . SVG Version: 6.00 Build 0)  -->
<svg version="1.1" id="Layer_1" xmlns="http://www.w3.org/2000/svg" xmlns:xlink="http://www.w3.org/1999/xlink" x="0px" y="0px"
	 viewBox="0 0 58.8 58.7" style="enable-background:new 0 0 58.8 58.7;" xml:space="preserve">
<style type="text/css">
	.st0{fill:#8DC63F;}
	.st1{fill:#FFFFFF;}
</style>
<title>INDIVIDUAL ICONS</title>
<g id="Layer_2">
	<ellipse class="st0" cx="29.4" cy="29.4" rx="29.4" ry="29.4"/>
</g>
<polygon class="st1" points="13.2,41.3 13.2,17 12,17 12,41.3 12,42.4 13.2,42.4 46.7,42.4 46.7,41.3 "/>
<rect x="15.5" y="29.7" class="st1" width="8.1" height="9.3"/>
<path class="st1" d="M34,20.5h-8.1v18.5H34V20.5z M32.8,37.8h-5.8V21.6h5.8V37.8z"/>
<rect x="36.3" y="26.2" class="st1" width="8.1" height="1.2"/>
<rect x="36.3" y="28.5" class="st1" width="8.1" height="1.2"/>
<rect x="36.3" y="30.9" class="st1" width="8.1" height="1.2"/>
<rect x="36.3" y="33.2" class="st1" width="8.1" height="1.2"/>
<rect x="36.3" y="35.5" class="st1" width="8.1" height="1.2"/>
<rect x="36.3" y="37.8" class="st1" width="8.1" height="1.2"/>
</svg>
