<?xml version="1.0" encoding="utf-8"?>
<!-- Generator: Adobe Illustrator 21.1.0, SVG Export Plug-In . SVG Version: 6.00 Build 0)  -->
<svg version="1.1" id="Layer_1" xmlns="http://www.w3.org/2000/svg" xmlns:xlink="http://www.w3.org/1999/xlink" x="0px" y="0px"
	 viewBox="0 0 59.6 59.5" style="enable-background:new 0 0 59.6 59.5;" xml:space="preserve">
<style type="text/css">
	.st0{fill:#8DC63F;}
	.st1{fill:#FFFFFF;}
</style>
<title>INDIVIDUAL ICONS</title>
<ellipse class="st0" cx="29.8" cy="29.8" rx="29.8" ry="29.8"/>
<path class="st1" d="M29.8,33.8c-1,1.1-2.1,2.1-3,3.1c-0.1,0.1-0.1,0.5,0,0.7c1.5,5,0.1,9.4-4.2,12.3c-2.8,1.9-6.5,2.2-9.6,0.8
	c-5.3-2.2-7.8-8.3-5.5-13.6c0.6-1.4,1.4-2.6,2.5-3.6c1.9-1.8,4.5-2.8,7.1-2.7c1.8,0,3.7,0.5,5.2,1.4c1.1,0.9,2.2,1.9,3.2,3
	c0.2,0.2,0.3,0.4,0.4,0.6c1-1,2.1-1.9,3.1-2.9c0.1-0.2,0.2-0.5,0.2-0.7c0-1.2,0-2.3,0-3.4c-1.4-0.4-2.7-0.8-4-1.4
	c-2.8-1.3-4.9-3.8-5.5-6.8c-1.3-5.6,2.1-11.1,7.6-12.5s11.1,2.1,12.5,7.6S37.7,27,32.1,28.3c-0.4,0.1-0.9,0.2-1.3,0.2
	c-0.3,0.1-0.5,0.3-0.5,0.5c-0.1,1.1-0.1,2.2,0,3.3c0.1,0.3,0.2,0.6,0.5,0.8c0.8,1,1.7,1.9,2.6,2.8c1-1.1,1.9-2,2.8-2.8
	c1.9-1.7,4.5-2.5,7.1-2.3c4.5,0.2,8.4,3.4,9.5,7.8c1.2,5.6-2.4,11.1-8,12.3s-11.1-2.4-12.3-8c0-0.2-0.1-0.4-0.1-0.5
	c-0.2-1.6,0-3.3,0.6-4.8c0.2-0.3,0.1-0.8-0.2-1C31.7,35.8,30.8,34.8,29.8,33.8z M35.9,25.1c2.9-2.4,3.9-6.4,2.7-9.9
	c-1.3-3.8-5-6.4-9.1-6.2c-4,0.2-7.4,2.9-8.5,6.8c-0.9,3.3,0.3,7.6,2.5,9.1c0.3-1.1,0.4-2.5,1.1-3.4s1.9-1.4,2.9-2
	c-1.6-1.9-1.7-3.9-0.3-5.3c1.4-1.5,3.7-1.5,5.2-0.1c0.6,0.6,1,1.3,1.1,2.1c0.2,1.4-0.4,2.7-1.5,3.6C35,20.2,36.2,22,35.9,25.1
	L35.9,25.1z M14.9,42.6c-1.9-2.2-2-4.2-0.4-5.7c1.4-1.3,3.5-1.4,5-0.1c1.7,1.4,1.6,3.3-0.2,5.9c3,0.4,4.2,2.3,3.9,5.3
	c2.8-2.2,3.9-6.6,2.5-10.1c-1.7-4.8-7.1-7.3-11.9-5.5c-3.1,1.1-5.4,3.8-5.9,7.1c-0.6,3,0.8,7.3,3,8.5C10.5,44.9,11.8,43,14.9,42.6
	L14.9,42.6z M40.5,42.8c-1.8-2.2-2-4.2-0.5-5.7c1.3-1.4,3.5-1.5,5-0.3c1.7,1.4,1.7,3.3-0.1,5.9c1.2,0.3,2.5,0.6,3.1,1.8
	c0.4,1.1,0.8,2.2,1,3.4c2.5-1.9,3.6-6.2,2.3-9.7c-1.7-4.8-7-7.3-11.8-5.6c-2.9,1-5,3.4-5.8,6.3c-0.9,3.4,0.4,7.6,2.8,9.1
	C36.2,45.1,37.4,43.2,40.5,42.8L40.5,42.8z M47.7,47.6c0-2.2-0.6-3.2-2.5-3.6c-1.8-0.4-3.6-0.4-5.3,0.1c-1.2,0.2-2.2,1.2-2.2,2.4
	c-0.1,0.6-0.1,1.2,0,1.8c0,0.4,0.3,0.8,0.6,1c2.4,1.4,5.3,1.6,7.9,0.5C47.6,49.3,47.6,49.2,47.7,47.6L47.7,47.6z M17,43.5
	c-0.9,0.1-1.8,0.2-2.6,0.3c-1.5,0.1-2.6,1.5-2.4,3c0,0,0,0.1,0,0.1c-0.1,0.5-0.1,0.9,0,1.4c0.1,0.4,0.3,0.7,0.6,0.9
	c2.1,1.2,4.7,1.5,7.1,0.8c2.3-0.7,2.6-1.1,2.3-3.6c0-1.2-0.9-2.3-2.1-2.5C18.9,43.7,17.9,43.6,17,43.5z M29.8,20.7v0.1
	c-0.5,0-1,0-1.4,0c-2.6,0.1-3.6,1.1-3.6,3.7c0,0.3,0,0.6,0,0.8c0,0.4,0.2,0.8,0.6,1c2.1,1.1,4.6,1.4,6.9,0.7c2.4-0.7,2.6-1,2.4-3.5
	c0-1.3-1-2.5-2.3-2.6C31.6,20.8,30.7,20.8,29.8,20.7z M16.9,37c-1.4,0-2.5,1.1-2.5,2.5c0,1.4,1.1,2.6,2.6,2.6c1.4,0,2.5-1.1,2.5-2.6
	C19.5,38.1,18.4,37,16.9,37C17,37,17,37,16.9,37z M42.6,37.1c-1.4,0-2.6,1.1-2.6,2.5c0,0,0,0,0,0.1c0.1,1.4,1.3,2.5,2.7,2.4
	C44,42,45,41,45.1,39.7C45.1,38.3,44,37.1,42.6,37.1z M32.3,16.6c0-1.4-1.1-2.5-2.6-2.5c-1.4,0-2.5,1.1-2.5,2.5s1.1,2.5,2.5,2.5
	C31.2,19.2,32.3,18,32.3,16.6z"/>
</svg>
