<?xml version="1.0" encoding="utf-8"?>
<!-- Generator: Adobe Illustrator 21.1.0, SVG Export Plug-In . SVG Version: 6.00 Build 0)  -->
<svg version="1.1" id="Layer_1" xmlns="http://www.w3.org/2000/svg" xmlns:xlink="http://www.w3.org/1999/xlink" x="0px" y="0px"
	 viewBox="0 0 59.9 59.9" style="enable-background:new 0 0 59.9 59.9;" xml:space="preserve">
<style type="text/css">
	.st0{fill:#325C80;}
	.st1{fill:#FFFFFF;}
</style>
<title>INDIVIDUAL ICONS</title>
<circle class="st0" cx="29.9" cy="29.9" r="29.9"/>
<rect x="10.8" y="13.8" class="st1" width="8.4" height="6.7"/>
<rect x="12.1" y="15" class="st1" width="5.9" height="4.4"/>
<rect x="30.8" y="13.8" class="st1" width="8.4" height="6.7"/>
<rect x="32.1" y="15" class="st1" width="5.9" height="4.4"/>
<rect x="40.5" y="13.8" class="st1" width="8.4" height="6.7"/>
<rect x="41.8" y="15" class="st1" width="5.9" height="4.4"/>
<rect x="40.5" y="22.5" class="st1" width="8.4" height="6.7"/>
<rect x="41.8" y="23.7" class="st1" width="5.9" height="4.4"/>
<rect x="30.6" y="30.9" class="st1" width="8.4" height="6.7"/>
<rect x="31.8" y="32" class="st1" width="5.9" height="4.4"/>
<rect x="20.8" y="22.5" class="st1" width="8.4" height="6.7"/>
<rect x="22.1" y="23.7" class="st1" width="5.9" height="4.4"/>
<rect x="10.9" y="30.9" class="st1" width="8.4" height="6.7"/>
<rect x="12.2" y="32" class="st1" width="5.9" height="4.4"/>
<rect x="20.7" y="30.6" class="st1" width="8.4" height="6.7"/>
<rect x="22" y="31.8" class="st1" width="5.9" height="4.4"/>
<rect x="10.8" y="39" class="st1" width="8.4" height="6.7"/>
<rect x="12.1" y="40.2" class="st1" width="5.9" height="4.4"/>
<rect x="20.7" y="39.4" class="st1" width="8.4" height="6.7"/>
<rect x="21.9" y="40.5" class="st1" width="5.9" height="4.4"/>
<rect x="40.7" y="39.2" class="st1" width="8.4" height="6.7"/>
<rect x="41.9" y="40.3" class="st1" width="5.9" height="4.4"/>
</svg>
