<?xml version="1.0" encoding="utf-8"?>
<!-- Generator: Adobe Illustrator 21.1.0, SVG Export Plug-In . SVG Version: 6.00 Build 0)  -->
<svg version="1.1" id="Layer_1" xmlns="http://www.w3.org/2000/svg" xmlns:xlink="http://www.w3.org/1999/xlink" x="0px" y="0px"
	 viewBox="0 0 59.2 59.2" style="enable-background:new 0 0 59.2 59.2;" xml:space="preserve">
<style type="text/css">
	.st0{fill:#335D80;}
	.st1{fill:#FFFFFF;}
	.st2{fill:none;stroke:#FFFFFF;stroke-width:0.51;stroke-miterlimit:10;}
</style>
<title>INDIVIDUAL ICONS</title>
<circle class="st0" cx="29.6" cy="29.6" r="29.6"/>
<path class="st1" d="M26.3,20.1v-3.6l-14.2-0.1V20v3.6l-0.1,19l35.6,0.3l0.1-19v-3.6L26.3,20.1z M46.3,41.6l-33.2-0.2l0.2-17.8
	l33.2,0.2L46.3,41.6z"/>
<path class="st1" d="M33.1,35.8h-5.7c-0.8,0-1.4,0.6-1.4,1.4c0,0,0,0,0,0v1.4l8.5,0.1v-1.5C34.5,36.5,33.8,35.8,33.1,35.8
	C33.1,35.8,33.1,35.8,33.1,35.8z"/>
<circle class="st2" cx="30.2" cy="30.8" r="3.4"/>
</svg>
