<?xml version="1.0" encoding="UTF-8"?>
<svg width="135px" height="34px" viewBox="0 0 135 34" version="1.1" xmlns="http://www.w3.org/2000/svg" xmlns:xlink="http://www.w3.org/1999/xlink">
    <!-- Generator: sketchtool 51.2 (57519) - http://www.bohemiancoding.com/sketch -->
    <title>D706F39B-D375-4352-9E8B-36646B15271B</title>
    <desc>Created with sketchtool.</desc>
    <defs></defs>
    <g id="Artboards" stroke="none" stroke-width="1" fill="none" fill-rule="evenodd">
        <g id="V5-START-grid-veiw" transform="translate(-247.000000, -114.000000)">
            <g id="draw.io-logo" transform="translate(247.000000, 114.000000)">
                <rect id="Rectangle-path" fill="#F08705" fill-rule="nonzero" x="0" y="0" width="33.8855422" height="34" rx="1.35"></rect>
                <path d="M17.9852259,8.704952 L21.6393072,4.833848 L33.8855422,17.114648 L33.8855422,32.64 C33.8855422,33.3911073 33.2786992,34 32.5301205,34 L11.2738554,34 L4.75753012,27.43392 L17.9852259,8.704952 Z" id="Shape" fill="#DF6C0C"></path>
                <rect id="Rectangle-path" fill="#FFFFFF" fill-rule="nonzero" transform="translate(21.009028, 15.979998) rotate(-30.000000) translate(-21.009028, -15.979998) " x="19.9924614" y="10.879998" width="2.03313253" height="10.2"></rect>
                <rect id="Rectangle-path" fill="#FFFFFF" fill-rule="nonzero" transform="translate(12.876504, 15.979944) rotate(-60.000000) translate(-12.876504, -15.979944) " x="7.79367266" y="14.9599438" width="10.1656627" height="2.04"></rect>
                <rect id="Rectangle-path" fill="#FFFFFF" fill-rule="nonzero" x="11.8599398" y="4.42" width="10.1656627" height="8.5" rx="1.35"></rect>
                <rect id="Rectangle-path" fill="#FFFFFF" fill-rule="nonzero" x="19.314759" y="19.38" width="10.1656627" height="8.5" rx="1.35"></rect>
                <rect id="Rectangle-path" fill="#FFFFFF" fill-rule="nonzero" x="4.40512048" y="19.38" width="10.1656627" height="8.5" rx="1.35"></rect>
                <path d="M56.5888554,27.39652 C56.5920153,27.490544 56.567806,27.5834551 56.5191867,27.663896 C56.4593416,27.7459796 56.3766891,27.8085214 56.2815813,27.843688 C56.1360346,27.8999484 55.982961,27.9341866 55.8273795,27.94528 C55.6361747,27.964864 55.4008735,27.9747467 55.1214759,27.974928 C54.87883,27.9772479 54.6362209,27.9673528 54.3945633,27.94528 C54.2389253,27.9333745 54.085789,27.8991631 53.9398193,27.843688 C53.8407805,27.8086165 53.7535622,27.7463161 53.6881175,27.663896 C53.6349618,27.5851755 53.6080981,27.4915494 53.6114006,27.39652 L53.6114006,25.966344 C53.0324939,26.6265527 52.3503905,27.1878587 51.5918223,27.628264 C50.8760116,28.0260201 50.0693335,28.2299527 49.2511446,28.22 C48.3006325,28.22 47.4968223,28.030008 46.8397139,27.650024 C46.1881058,27.2742997 45.6366886,26.7460757 45.2324548,26.110368 C44.7980866,25.4178521 44.4926789,24.6519383 44.3310994,23.849912 C44.1409287,22.9546415 44.0470929,22.0414737 44.0512048,21.126104 C44.038911,20.0847565 44.158513,19.0460603 44.4071386,18.03496 C44.6097801,17.1976577 44.9628068,16.4044207 45.4489157,15.694128 C45.8868498,15.0652864 46.4721838,14.5541506 47.1533584,14.205744 C47.8837976,13.8475674 48.6887868,13.6691956 49.5016265,13.685408 C50.1615437,13.6762773 50.8138308,13.8278018 51.4026054,14.127 C52.0308483,14.4653853 52.6017273,14.9014515 53.0940361,15.419 L53.0940361,8.441384 C53.0928597,8.34880129 53.1198079,8.25805395 53.1712952,8.181216 C53.2429209,8.08941247 53.3403886,8.02132417 53.4510542,7.985784 C53.6249401,7.92384592 53.8055166,7.88276055 53.9890211,7.863384 C54.5559144,7.80607489 55.1271127,7.80607489 55.694006,7.863384 C55.87532,7.88213466 56.0536381,7.92324479 56.2249247,7.985784 C56.3341836,8.02413303 56.4309208,8.09171103 56.5046837,8.181216 C56.5599892,8.25652747 56.5893889,8.34784087 56.5884488,8.441384 L56.5884488,27.39652 L56.5888554,27.39652 Z M53.0951205,18.785952 C52.6816736,18.2227998 52.1951125,17.7175808 51.6483434,17.283696 C51.2369014,16.9545075 50.7282787,16.7715119 50.2021084,16.76336 C49.7808356,16.7526457 49.3670578,16.8764649 49.0204518,17.11696 C48.6820609,17.3625678 48.4086042,17.687417 48.2238705,18.063248 C48.0156979,18.4816788 47.8652219,18.926579 47.7765813,19.385712 C47.678063,19.8778928 47.6290221,20.3787519 47.6301958,20.88076 C47.6291058,21.4080867 47.6709924,21.9346198 47.7554367,22.455096 C47.8271731,22.9275255 47.96612,23.3871777 48.1680271,23.819992 C48.3406181,24.1973454 48.6019255,24.5270198 48.929503,24.780696 C49.2789377,25.032226 49.7020449,25.159539 50.131762,25.142456 C50.3712633,25.1431476 50.6094133,25.1064418 50.8376657,25.033656 C51.0869806,24.9516418 51.3225717,24.8324398 51.5365211,24.680056 C51.8025131,24.4915026 52.048462,24.2759863 52.2704819,24.036912 C52.5215964,23.771712 52.7962952,23.446808 53.0945783,23.0622 L53.0945783,18.785952 L53.0951205,18.785952 Z" id="Shape" fill="#333333"></path>
                <path d="M69.126506,15.913088 C69.126506,16.25132 69.1156627,16.529032 69.0956024,16.744728 C69.083957,16.9164812 69.05466,17.086568 69.0081777,17.25228 C68.9837528,17.3511195 68.9294472,17.4399551 68.8527108,17.5066 C68.7809919,17.5556557 68.6954671,17.5803033 68.6087349,17.576912 C68.517939,17.5752048 68.4280266,17.5586683 68.3425301,17.527952 C68.2431777,17.494768 68.1328464,17.459952 68.0100452,17.421736 C67.887244,17.38352 67.7512952,17.349248 67.6034187,17.316608 C67.4430874,17.282034 67.2794539,17.2652505 67.1154669,17.26656 C66.9027911,17.2676607 66.6921969,17.3086672 66.4945482,17.387464 C66.2637131,17.4805165 66.0472864,17.6061309 65.8518072,17.760512 C65.597476,17.9613762 65.3645073,18.1880676 65.1566114,18.436976 C64.8772266,18.7689077 64.6179645,19.1173778 64.3802259,19.480504 L64.3802259,27.31696 C64.3814746,27.4071414 64.3502381,27.4947443 64.292259,27.563664 C64.2087692,27.6485017 64.1039472,27.709079 63.9889157,27.738968 C63.8033348,27.7941624 63.6125598,27.8299396 63.4196386,27.845728 C63.1831175,27.86912 62.8820783,27.88 62.5181476,27.88 C62.1542169,27.88 61.8531777,27.86912 61.6166566,27.845728 C61.4234509,27.8300742 61.2323924,27.794295 61.0465663,27.738968 C60.9318324,27.7091204 60.8273502,27.6485228 60.7443072,27.563664 C60.6857367,27.4950075 60.6540392,27.4073274 60.6551205,27.31696 L60.6551205,14.74444 C60.6531519,14.6562969 60.6793726,14.5698385 60.7299398,14.497736 C60.7989759,14.4135782 60.8914801,14.3520161 60.9956024,14.320936 C61.1561952,14.2671982 61.3223498,14.2319296 61.4908735,14.215808 C61.7438564,14.1900077 61.9980764,14.1783844 62.2523494,14.180992 C62.5138396,14.1783434 62.7752799,14.1899659 63.035512,14.215808 C63.1997628,14.229509 63.3614999,14.2648556 63.5165512,14.320936 C63.6126727,14.3559716 63.6971593,14.4171958 63.7605271,14.497736 C63.8102674,14.5701841 63.8360607,14.6564837 63.834262,14.74444 L63.834262,16.30844 C64.1308189,15.8974418 64.4569935,15.5088011 64.8101657,15.14564 C65.0751678,14.8742171 65.3675154,14.6311082 65.6825151,14.420216 C65.9363128,14.2512802 66.2159147,14.1250871 66.5102711,14.046624 C66.7803858,13.9767885 67.0581416,13.9411066 67.3370783,13.940408 C67.4655723,13.940408 67.6038253,13.948024 67.7518373,13.961624 C67.9057162,13.9771448 68.058649,14.0009794 68.2099699,14.033024 C68.3502502,14.0609588 68.4884287,14.0986307 68.623509,14.145768 C68.7170116,14.1741083 68.8046613,14.2191177 68.882259,14.27864 C68.9326823,14.3208882 68.9730631,14.3739044 69.0004518,14.433816 C69.0305069,14.5090562 69.0528951,14.5871556 69.0672741,14.66692 C69.0922905,14.8134977 69.1071454,14.9616398 69.1117319,15.11028 C69.1204066,15.308568 69.1260994,15.5754 69.1260994,15.913632" id="Shape" fill="#333333"></path>
                <path d="M81.8609639,27.765352 C81.7282595,27.8557227 81.5753526,27.9117849 81.4158434,27.928552 C81.118212,27.9680093 80.8180375,27.9848758 80.5178765,27.979008 C80.2085954,27.9859711 79.8992379,27.9691029 79.5925301,27.928552 C79.4432185,27.9138453 79.3010412,27.8572913 79.182244,27.765352 C79.0997395,27.682932 79.0560316,27.569214 79.0620181,27.452552 L79.0620181,26.446152 C78.5601088,26.9920927 77.9576677,27.4354397 77.2879066,27.751752 C76.5940365,28.0700379 75.8384662,28.2300044 75.0755873,28.220136 C74.4510256,28.2265376 73.8291025,28.1379481 73.230994,27.957384 C72.6982121,27.7978292 72.2029341,27.5321936 71.7747289,27.176336 C71.3623852,26.8276669 71.0359899,26.3880398 70.8210542,25.891816 C70.5843288,25.325702 70.4688796,24.715971 70.4821988,24.102192 C70.4659358,23.4355708 70.6139935,22.7752361 70.9132229,22.179832 C71.213152,21.6223973 71.6573852,21.1564606 72.1991114,20.83112 C72.8561983,20.4439709 73.5768087,20.1774576 74.3271235,20.044088 C75.3010552,19.8618454 76.2904779,19.7760706 77.2811295,19.788 L78.5111747,19.788 L78.5111747,19.02232 C78.5165612,18.67081 78.4759586,18.3201103 78.3904066,17.9792 C78.3218336,17.7017372 78.1857541,17.4456679 77.9943524,17.23392 C77.7925601,17.0244636 77.5387251,16.8728219 77.2590361,16.79464 C76.888737,16.6915252 76.5053589,16.6435041 76.1211596,16.652112 C75.5845386,16.6447484 75.0494731,16.7117488 74.5311145,16.851216 C74.1087716,16.9677855 73.6953019,17.1145885 73.2938855,17.290496 C72.935512,17.4517013 72.6361898,17.5984907 72.3959187,17.730864 C72.2189346,17.8429987 72.0178075,17.9110757 71.8092922,17.929424 C71.7087515,17.9305557 71.6111687,17.8953111 71.5344127,17.830144 C71.4458342,17.7534271 71.3776852,17.6557893 71.3361145,17.54604 C71.2778552,17.4001642 71.2377042,17.2476506 71.2165663,17.091936 C71.1860873,16.894516 71.1716723,16.6949345 71.1734639,16.495168 C71.167009,16.2612552 71.190699,16.0274857 71.2439458,15.799664 C71.2932598,15.6258083 71.3856857,15.46733 71.5125904,15.339032 C71.7181949,15.1520173 71.9519485,14.9987609 72.2052108,14.884928 C72.5792197,14.7009091 72.9669063,14.546311 73.3647741,14.422528 C73.8389519,14.2725728 74.3230323,14.1561883 74.8134488,14.074232 C76.1954403,13.8514024 77.6076783,13.9045056 78.9691717,14.230496 C79.6072112,14.3911274 80.1997443,14.6972138 80.7007229,15.124968 C81.1642798,15.5440088 81.5061831,16.0811063 81.6901807,16.679312 C81.911467,17.4099881 82.0166718,18.1710768 82.0019277,18.9346 L82.0019277,27.452008 C82.0082876,27.5731984 81.955754,27.6899738 81.8609639,27.765352 Z M78.5110392,22.03132 L77.1546687,22.03132 C76.6615132,22.0241608 76.1688846,22.0666238 75.6841717,22.158072 C75.333222,22.2224665 74.9975316,22.3527207 74.6947139,22.542 C74.4568245,22.6936675 74.2640221,22.9068048 74.1365512,23.159032 C74.0146583,23.4184861 73.9540806,23.7026642 73.9595331,23.989448 C73.9595331,24.5197573 74.1267018,24.936008 74.4610392,25.2382 C74.7953765,25.540392 75.2596536,25.69176 75.8538705,25.692304 C76.3397559,25.695911 76.8170213,25.5635227 77.2320633,25.310008 C77.7117403,25.0019031 78.143059,24.6239005 78.5118524,24.188416 L78.5118524,22.03132 L78.5110392,22.03132 Z" id="Shape" fill="#333333"></path>
                <path d="M104.706325,14.81244 C104.703961,14.9394866 104.68939,15.0660083 104.662816,15.190248 C104.63381,15.338896 104.581491,15.553504 104.503961,15.833528 L101.070542,27.123568 C101.03218,27.2625042 100.968634,27.3931597 100.883087,27.508992 C100.788731,27.6173055 100.666119,27.6970461 100.529051,27.73924 C100.308678,27.8059445 100.080585,27.8435702 99.8505271,27.851168 C99.557756,27.870072 99.1747139,27.879864 98.7035693,27.879864 C98.2324247,27.879864 97.8472139,27.868576 97.5494277,27.84532 C97.3122124,27.8323742 97.0772439,27.7923125 96.8490813,27.725912 C96.7065961,27.6864424 96.578697,27.6060877 96.4810843,27.494712 C96.3981357,27.3845822 96.339083,27.2582487 96.3077259,27.12384 L94.1443373,19.542112 L94.114247,19.415632 L94.0857831,19.542112 L92.0941265,27.12384 C92.065262,27.2621685 92.0089315,27.3932485 91.928494,27.509264 C91.8322351,27.62203 91.7037755,27.7024044 91.560497,27.739512 C91.3301206,27.8049515 91.0927745,27.8425273 90.853509,27.85144 C90.5553163,27.8703893 90.1706024,27.8799547 89.6993675,27.880136 C89.2181024,27.880136 88.8307681,27.8686213 88.5373645,27.845592 C88.3027802,27.8321783 88.0704681,27.7921198 87.8448795,27.726184 C87.7024806,27.6868678 87.5747148,27.6064784 87.4774247,27.494984 C87.394113,27.3850041 87.3348565,27.2586297 87.3035241,27.124112 L83.8989759,15.834072 C83.8284359,15.626465 83.7729004,15.4140267 83.7328012,15.198408 C83.7109851,15.071054 83.6990667,14.9421913 83.6971536,14.812984 C83.6956314,14.7248158 83.7234896,14.6386614 83.7763102,14.568184 C83.8532618,14.4839191 83.954044,14.425267 84.0651506,14.400088 C84.2494275,14.3512263 84.4380739,14.3207952 84.6283283,14.30924 C84.8636295,14.291424 85.1596536,14.28204 85.5154518,14.28204 C85.9002108,14.28204 86.212997,14.2911067 86.4538102,14.30924 C86.6446212,14.3191293 86.833539,14.3521451 87.0164458,14.407568 C87.128431,14.4379255 87.2273551,14.5044003 87.2979669,14.596744 C87.3545386,14.6842809 87.3957944,14.7808696 87.4199548,14.882344 L89.974247,24.045752 L90.003253,24.213848 L90.0328012,24.045752 L92.4275602,14.882344 C92.452764,14.7784241 92.4997059,14.6810707 92.5652711,14.596744 C92.6395893,14.5085267 92.7369338,14.4428303 92.8463855,14.407024 C93.0171148,14.351876 93.1941646,14.3188327 93.373238,14.308696 C93.5990512,14.29088 93.8906024,14.281496 94.2458584,14.281496 C94.6011145,14.281496 94.8903614,14.292784 95.1117018,14.31604 C95.2899748,14.3310695 95.4662948,14.3640106 95.638012,14.414368 C95.7444196,14.4410361 95.8402644,14.499458 95.9128916,14.58192 C95.9672684,14.6555337 96.0085399,14.7380334 96.0348795,14.825768 L98.6032681,24.0584 L98.6467771,24.212488 L98.6757831,24.044392 L101.129096,14.880984 C101.145104,14.7781163 101.18463,14.680364 101.244578,14.595384 C101.319671,14.504321 101.420602,14.4383401 101.533961,14.406208 C101.711709,14.3516825 101.895316,14.3186723 102.080873,14.30788 C102.311295,14.290064 102.605015,14.28068 102.961898,14.28068 C103.31878,14.28068 103.608569,14.289928 103.834925,14.30788 C104.015676,14.3191786 104.19473,14.3496307 104.369096,14.398728 C104.473542,14.4248374 104.566949,14.4837297 104.635708,14.566824 C104.683776,14.639713 104.708812,14.725456 104.707545,14.812848" id="Shape" fill="#333333"></path>
                <path d="M110.466867,25.974912 C110.466867,26.8614507 110.306205,27.4572667 109.98488,27.76236 C109.663554,28.0674533 109.087771,28.22 108.25753,28.22 C107.426205,28.22 106.852771,28.0700373 106.537229,27.770112 C106.221687,27.4701867 106.063193,26.900528 106.061747,26.061136 C106.061747,25.165168 106.22259,24.564184 106.544277,24.258184 C106.866325,23.9536347 107.447214,23.8009067 108.286943,23.8 C109.107605,23.8 109.676069,23.9505067 109.992334,24.25152 C110.308599,24.5525333 110.466732,25.1269973 110.466732,25.974912" id="Shape" fill="#333333"></path>
                <path d="M118.260542,10.34688 C118.260542,11.0672267 118.115512,11.5644427 117.825452,11.838528 C117.536295,12.1141547 116.999006,12.2517867 116.213584,12.251424 C115.418404,12.251424 114.883102,12.1187333 114.607681,11.853352 C114.332259,11.5879707 114.194458,11.1093867 114.194277,10.4176 C114.194277,9.69779733 114.336596,9.19836 114.621235,8.919288 C114.905873,8.640216 115.445783,8.50045333 116.240964,8.5 C117.026024,8.5 117.559157,8.63486667 117.840361,8.9046 C118.121566,9.17433333 118.261627,9.65509333 118.260542,10.34688 Z M117.994473,27.312336 C117.995761,27.4024735 117.966087,27.4903087 117.910437,27.56108 C117.832677,27.6455358 117.733124,27.7067312 117.622816,27.73788 C117.447401,27.7933812 117.26646,27.8294546 117.083223,27.845456 C116.514149,27.8915733 115.942296,27.8915733 115.373223,27.845456 C115.189793,27.8295634 115.00866,27.7934881 114.833087,27.73788 C114.722869,27.7068842 114.623451,27.6456568 114.546009,27.56108 C114.489976,27.490485 114.460084,27.4025732 114.461431,27.312336 L114.461431,14.666104 C114.460341,14.5759077 114.490204,14.48808 114.546009,14.41736 C114.62426,14.3320869 114.723152,14.2685597 114.833087,14.232944 C115.007988,14.172165 115.189189,14.131468 115.373223,14.111632 C115.941874,14.0559915 116.514572,14.0559915 117.083223,14.111632 C117.267061,14.1315854 117.448069,14.1722799 117.622816,14.232944 C117.732968,14.2684303 117.832067,14.3319701 117.910437,14.41736 C117.966305,14.488012 117.996007,14.5759278 117.994473,14.666104 L117.994473,27.312336 Z" id="Shape" fill="#F08705"></path>
                <path d="M134.864458,20.952704 C134.875887,21.9529957 134.732446,22.9490023 134.439262,23.905128 C134.178006,24.7550505 133.738027,25.5388271 133.149036,26.203528 C132.550847,26.8627451 131.808145,27.3734417 130.979548,27.695312 C130.006088,28.0633481 128.971528,28.2414349 127.931476,28.22 C126.933203,28.2408605 125.939271,28.0822301 124.996717,27.751616 C124.209133,27.4680093 123.49978,27.0010919 122.926852,26.389168 C122.359245,25.7580901 121.942387,25.0055552 121.707922,24.188688 C121.429269,23.2200667 121.295252,22.2153505 121.310241,21.207296 C121.299246,20.204369 121.4451,19.2059179 121.742485,18.248344 C122.006045,17.3975016 122.448419,16.6132771 123.039759,15.948584 C123.637995,15.2952074 124.377513,14.7880922 125.201521,14.466184 C126.067093,14.1156667 127.080813,13.9403173 128.242681,13.940136 C129.245176,13.9190265 130.243522,14.0755592 131.191807,14.402536 C131.978634,14.680187 132.686578,15.1452348 133.254895,15.757776 C133.818476,16.39078 134.233019,17.142815 134.467861,17.958256 C134.746049,18.931416 134.879686,19.9404199 134.864458,20.952704 M131.192214,21.094144 C131.196179,20.5159566 131.146263,19.9386634 131.043117,19.3698 C130.959557,18.8863892 130.789318,18.4221904 130.540663,17.999736 C130.31108,17.6191335 129.985485,17.3060428 129.596747,17.092072 C129.138408,16.8593652 128.628747,16.747066 128.115407,16.765672 C127.636402,16.7550911 127.161343,16.8546947 126.726642,17.056848 C126.331336,17.2492069 125.993625,17.5428348 125.74762,17.908072 C125.476854,18.3192038 125.282557,18.7761527 125.174142,19.256784 C125.039416,19.8454234 124.975032,20.4480666 124.982349,21.051984 C124.977971,21.6304847 125.030088,22.2080244 125.137952,22.776328 C125.225804,23.2583909 125.396166,23.7215549 125.641491,24.145304 C125.866656,24.5278102 126.192992,24.8402797 126.584322,25.048072 C127.04215,25.2743974 127.54851,25.384027 128.058614,25.367264 C128.542455,25.3787166 129.022511,25.279125 129.462154,25.076088 C129.855741,24.8848125 130.192811,24.5938548 130.44009,24.231936 C130.71158,23.8245776 130.903943,23.3694316 131.007063,22.890432 C131.137047,22.3007537 131.198991,21.6980287 131.191672,21.094144" id="Shape" fill="#F08705"></path>
            </g>
        </g>
    </g>
</svg>