<?xml version="1.0" encoding="utf-8"?>
<svg version="1.1" id="Ebene_1" xmlns="http://www.w3.org/2000/svg" xmlns:xlink="http://www.w3.org/1999/xlink" x="0px" y="0px"
	 viewBox="0 0 250 250" style="enable-background:new 0 0 250 250;" xml:space="preserve">
<style type="text/css">
	.st0{fill:#1F1F1F;}
	.st1{fill:#000000;}
	.st2{fill:#FFFFFF;}
</style>
<path class="st0" d="M237.5,227.9c0,5.3-4.3,9.6-9.5,9.6c0,0,0,0,0,0H22.1c-5.3,0-9.6-4.3-9.6-9.5c0,0,0,0,0,0V22.1
	c0-5.3,4.3-9.6,9.5-9.6c0,0,0,0,0,0h205.9c5.3,0,9.6,4.3,9.6,9.5c0,0,0,0,0,0V227.9z"/>
<path class="st1" d="M237.5,227.9c0,5.3-4.3,9.6-9.5,9.6c0,0,0,0,0,0H89.6L44.8,192l27.9-45.5l82.7-102.7l82.1,84.5V227.9z"/>
<path class="st2" d="M197.1,138.3h-23.7l-25-42.7c5.7-1.2,9.8-6.2,9.7-12V51.5c0-6.8-5.4-12.3-12.2-12.3c0,0-0.1,0-0.1,0h-41.7
	c-6.8,0-12.3,5.4-12.3,12.2c0,0,0,0.1,0,0.1v32.1c0,5.8,4,10.8,9.7,12l-25,42.7H52.9c-6.8,0-12.3,5.4-12.3,12.2c0,0,0,0.1,0,0.1
	v32.1c0,6.8,5.4,12.3,12.2,12.3c0,0,0.1,0,0.1,0h41.7c6.8,0,12.3-5.4,12.3-12.2c0,0,0-0.1,0-0.1v-32.1c0-6.8-5.4-12.3-12.2-12.3
	c0,0-0.1,0-0.1,0h-4l24.8-42.4h19.3l24.9,42.4h-4.1c-6.8,0-12.3,5.4-12.3,12.2c0,0,0,0.1,0,0.1v32.1c0,6.8,5.4,12.3,12.2,12.3
	c0,0,0.1,0,0.1,0h41.7c6.8,0,12.3-5.4,12.3-12.2c0,0,0-0.1,0-0.1v-32.1c0-6.8-5.4-12.3-12.2-12.3
	C197.2,138.3,197.2,138.3,197.1,138.3z"/>
</svg>
