<?xml version="1.0" encoding="utf-8"?>
<!-- Generator: Adobe Illustrator 21.1.0, SVG Export Plug-In . SVG Version: 6.00 Build 0)  -->
<svg version="1.1" id="Layer_1" xmlns="http://www.w3.org/2000/svg" xmlns:xlink="http://www.w3.org/1999/xlink" x="0px" y="0px"
	 viewBox="0 0 59.6 59.6" style="enable-background:new 0 0 59.6 59.6;" xml:space="preserve">
<style type="text/css">
	.st0{fill:#C2952D;}
	.st1{fill:#FFFFFF;}
</style>
<title>INDIVIDUAL ICONS</title>
<circle class="st0" cx="29.8" cy="29.8" r="29.8"/>
<path class="st1" d="M37.2,51.2H22.7c-2.7,0-4.9-2.2-5-5V13.4c0-2.7,2.2-4.9,5-4.9h14.5c2.7,0,4.9,2.2,5,4.9v32.9
	C42.2,49,40,51.2,37.2,51.2C37.3,51.2,37.2,51.2,37.2,51.2z M22.7,9.7c-2,0-3.7,1.6-3.7,3.7v32.9c0,2,1.6,3.7,3.7,3.7h14.5
	c2,0,3.7-1.6,3.7-3.6c0,0,0,0,0,0V13.4c0-2-1.6-3.7-3.7-3.7H22.7z"/>
<rect x="20.9" y="13.4" class="st1" width="18.1" height="30.1"/>
<ellipse class="st1" cx="30" cy="46.8" rx="1.8" ry="1.8"/>
<rect x="27.6" y="10.9" class="st1" width="4.8" height="0.8"/>
</svg>
