<?xml version="1.0" encoding="utf-8"?>
<!-- Generator: Adobe Illustrator 21.1.0, SVG Export Plug-In . SVG Version: 6.00 Build 0)  -->
<svg version="1.1" id="Layer_1" xmlns="http://www.w3.org/2000/svg" xmlns:xlink="http://www.w3.org/1999/xlink" x="0px" y="0px"
	 viewBox="0 0 59.6 59.6" style="enable-background:new 0 0 59.6 59.6;" xml:space="preserve">
<style type="text/css">
	.st0{fill:#C3952D;}
	.st1{fill:#FFFFFF;}
</style>
<title>INDIVIDUAL ICONS</title>
<circle class="st0" cx="29.8" cy="29.8" r="29.8"/>
<path class="st1" d="M13.8,48.6c-0.7-0.7-1.5-1.4-2.2-2.2C2.4,36.4,3,20.8,13,11.6c0.1-0.1,0.3-0.3,0.4-0.4c0.2-0.2,0.3-0.2,0.6,0
	c0.7,0.7,1.4,1.4,2.1,2.1c0.2,0.2,0.2,0.3,0,0.4c-3.2,2.8-5.6,6.4-6.6,10.5c-0.7,2.5-0.9,5.1-0.6,7.6c0.5,4.8,2.7,9.3,6.1,12.7
	c0.4,0.4,0.8,0.8,1.3,1.2c0.2,0.2,0.2,0.3,0,0.5c-0.7,0.7-1.4,1.4-2.1,2.1c-0.1,0.1-0.2,0.1-0.2,0.3L13.8,48.6z"/>
<path class="st1" d="M45.6,48.6c-0.6-0.7-1.3-1.4-2-2c-0.1-0.1-0.2-0.2-0.3-0.3c-0.2-0.2-0.2-0.3,0-0.5c2-1.7,3.7-3.7,4.9-6
	c1.3-2.4,2.2-5.1,2.5-7.8c0.7-6.4-1.6-12.8-6.2-17.3c-0.3-0.4-0.7-0.7-1.1-1c-0.1-0.1-0.2-0.2,0-0.3c0.8-0.8,1.5-1.5,2.3-2.3
	c0.2-0.2,0.3-0.1,0.4,0c2.3,2,4.2,4.4,5.6,7.1c1.3,2.5,2.2,5.3,2.6,8.1c0.1,0.6,0.2,1.2,0.2,1.9c0,0.1,0,0.1,0.1,0.2v2.8
	c-0.1,0-0.1,0.1-0.1,0.2c-0.1,1-0.2,2-0.4,3c-0.8,4.5-2.9,8.7-6,12.1c-0.7,0.8-1.5,1.5-2.3,2.2L45.6,48.6z"/>
<path class="st1" d="M22.7,19.9c-5.4,3.9-6.6,11.5-2.6,16.9c0.8,1.1,1.7,2,2.8,2.8c0,0.1,0,0.1-0.1,0.1c-0.8,0.8-1.5,1.5-2.3,2.3
	c-0.1,0.2-0.2,0.2-0.4,0c-6.8-5.4-8-15.3-2.7-22.1c0.3-0.4,0.6-0.7,0.9-1c0.5-0.5,1-1,1.6-1.5c0.1-0.1,0.2-0.1,0.4,0L22.7,19.9z"/>
<path class="st1" d="M45.6,29.7c0,4.8-2.2,9.3-6,12.3c-0.2,0.1-0.3,0.2-0.5,0c-0.7-0.7-1.5-1.5-2.2-2.2c-0.2-0.2-0.2-0.3,0-0.4
	c5.4-3.9,6.6-11.5,2.6-16.9c-0.3-0.3-0.5-0.7-0.8-1c-0.5-0.6-1.1-1.1-1.7-1.5c-0.2-0.1-0.2-0.2,0-0.4c0.7-0.7,1.5-1.5,2.2-2.2
	c0.2-0.2,0.3-0.2,0.5,0c3.1,2.5,5.1,6.1,5.7,10C45.5,28.2,45.5,29,45.6,29.7z"/>
<path class="st1" d="M34.4,29.8c0,2.6-2.1,4.7-4.7,4.7c0,0,0,0,0,0c-2.6,0-4.6-2.2-4.6-4.7c0-2.6,2.2-4.6,4.7-4.6
	C32.4,25.2,34.4,27.2,34.4,29.8z"/>
</svg>
