<?xml version="1.0" encoding="utf-8"?>
<!-- Generator: Adobe Illustrator 21.1.0, SVG Export Plug-In . SVG Version: 6.00 Build 0)  -->
<svg version="1.1" id="Layer_1" xmlns="http://www.w3.org/2000/svg" xmlns:xlink="http://www.w3.org/1999/xlink" x="0px" y="0px"
	 viewBox="0 0 58.6 58.4" style="enable-background:new 0 0 58.6 58.4;" xml:space="preserve">
<style type="text/css">
	.st0{fill:#C2952D;}
	.st1{fill:#FFFFFF;}
</style>
<title>INDIVIDUAL ICONS</title>
<ellipse class="st0" cx="29.3" cy="29.2" rx="29.3" ry="29.2"/>
<path class="st1" d="M38.2,38.3l-17.6-0.1c-2.4,0-4.4,1.9-4.4,4.4V47l26.5,0.2v-4.4C42.6,40.3,40.6,38.3,38.2,38.3
	C38.2,38.3,38.2,38.3,38.2,38.3z"/>
<path class="st1" d="M29.3,33.7c-6.2,0-11.2-5.1-11.2-11.2c0-6.2,5.1-11.2,11.2-11.2c6.2,0,11.2,5,11.2,11.2
	C40.5,28.7,35.5,33.7,29.3,33.7z M29.3,12.7c-5.4,0-9.8,4.4-9.8,9.8c0,5.4,4.4,9.8,9.8,9.8c5.4,0,9.8-4.4,9.8-9.8
	C39.1,17.1,34.7,12.7,29.3,12.7L29.3,12.7z"/>
</svg>
