<?xml version="1.0" encoding="utf-8"?>
<svg version="1.1" id="Layer_1" xmlns="http://www.w3.org/2000/svg" xmlns:xlink="http://www.w3.org/1999/xlink" x="0px" y="0px"
	 viewBox="0 0 69.511 70.936" style="enable-background:new 0 0 69.511 70.936;" xml:space="preserve">
<style type="text/css">
	.st0{fill:none;stroke:#626366;stroke-width:3;stroke-linecap:round;stroke-linejoin:round;}
	.st1{fill:#898B8E;}
	.st2{fill:#BBBDBF;}
	.st3{fill:#B3B5B7;}
	.st4{fill:none;stroke:#E1E2E3;stroke-linecap:round;stroke-linejoin:round;}
	.st5{fill:#FEFEFE;}
	.st6{fill:none;stroke:#626366;stroke-width:1.184;}
	.st7{fill:#C4CACE;}
	.st8{fill:none;stroke:#636466;}
	.st9{fill:none;stroke:#626366;stroke-linecap:round;stroke-linejoin:round;}
	.st10{fill:#231F20;}
	.st11{fill:#626366;}
</style>
<title>icon-laptop</title>
<desc>Created with Sketch.</desc>
<g id="Page-1">
	<g id="Desktop" transform="translate(-611.000000, -68.000000)">
		<g id="icon-laptop" transform="translate(612.000000, 68.000000)">
			<g id="Group-15" transform="translate(0.000000, 0.935500)">
				<polygon id="Stroke-1" class="st0" points="29.79,64.631 55.303,51.088 55.306,54.957 29.792,68.5 				"/>
				<polygon id="Stroke-3" class="st0" points="0.5,47.031 26.014,33.49 55.303,51.088 29.79,64.632 				"/>
				<polygon id="Stroke-5" class="st0" points="29.79,64.631 29.792,68.5 0.503,50.902 0.5,47.031 				"/>
				<polyline id="Stroke-7" class="st0" points="0.5,47.031 29.79,64.632 29.792,68.5 				"/>
				<polygon id="Stroke-9" class="st0" points="63.491,19.565 67.011,18.973 58.817,51.477 55.299,52.071 				"/>
				<polygon id="Stroke-11" class="st0" points="34.34,1.156 37.859,0.564 67.011,18.972 63.491,19.565 				"/>
				<polygon id="Stroke-13" class="st0" points="63.491,19.565 55.299,52.071 26.146,33.663 34.34,1.157 				"/>
			</g>
			<polygon id="Fill-16" class="st1" points="29.79,65.567 55.303,52.024 55.306,55.893 29.792,69.436 			"/>
			<polygon id="Fill-17" class="st2" points="0.5,47.967 26.014,34.426 55.303,52.024 29.79,65.567 			"/>
			<polygon id="Fill-18" class="st3" points="29.79,65.567 29.792,69.436 0.503,51.838 0.5,47.967 			"/>
			<polyline id="Stroke-19" class="st4" points="0.896,48.205 29.79,65.566 29.792,69.031 			"/>
			<polygon id="Fill-21" class="st1" points="63.491,20.5 67.011,19.908 58.817,52.412 55.299,53.006 			"/>
			<polygon id="Fill-22" class="st1" points="34.34,2.092 37.859,1.5 67.011,19.908 63.491,20.5 			"/>
			<polygon id="Fill-23" class="st3" points="63.491,20.5 55.299,53.006 26.146,34.598 34.34,2.092 			"/>
			<polygon id="Fill-24" class="st5" points="60.592,21.37 53.487,49.562 28.202,33.595 35.308,5.402 			"/>
			<polygon id="Stroke-25" class="st6" points="60.592,21.37 53.487,49.562 28.202,33.595 35.308,5.402 			"/>
			<path id="Fill-26" class="st7" d="M57.864,22.196c-0.92-0.539-18.42-10.778-20.068-9c-1.255,1.315-5.354,12.692-5.57,13.292
				l4.453-17.529L57.864,22.196z"/>
			<polygon id="Fill-28" class="st5" points="15.049,53.301 19.314,51.035 25.888,54.987 21.622,57.25 			"/>
			<polygon id="Stroke-29" class="st8" points="15.049,53.301 19.314,51.035 25.888,54.987 21.622,57.25 			"/>
			<path id="Stroke-30" class="st9" d="M55.467,53.248L25.731,34.271"/>
			<polygon id="Fill-31" class="st10" points="15.342,43.446 16.799,42.673 16.799,42.954 15.342,43.727 			"/>
			<polygon id="Fill-32" class="st5" points="14.084,42.69 15.543,41.917 16.799,42.672 15.342,43.446 			"/>
			<polygon id="Fill-33" class="st11" points="15.342,43.446 15.342,43.727 14.084,42.973 14.084,42.69 			"/>
			<polygon id="Fill-34" class="st10" points="17.201,44.563 18.66,43.79 18.66,44.073 17.201,44.846 			"/>
			<polygon id="Fill-35" class="st5" points="15.945,43.807 17.402,43.034 18.66,43.789 17.201,44.563 			"/>
			<polygon id="Fill-36" class="st11" points="17.201,44.563 17.201,44.846 15.945,44.09 15.945,43.807 			"/>
			<polygon id="Fill-37" class="st10" points="19.154,45.737 20.611,44.964 20.613,45.245 19.154,46.02 			"/>
			<polygon id="Fill-38" class="st5" points="17.898,44.981 19.355,44.208 20.611,44.963 19.154,45.737 			"/>
			<polygon id="Fill-39" class="st11" points="19.154,45.737 19.154,46.02 17.898,45.264 17.898,44.981 			"/>
			<polygon id="Fill-40" class="st10" points="21.021,46.858 22.478,46.085 22.48,46.368 21.021,47.141 			"/>
			<polygon id="Fill-41" class="st5" points="19.766,46.104 21.223,45.329 22.479,46.084 21.022,46.858 			"/>
			<polygon id="Fill-42" class="st11" points="21.021,46.858 21.021,47.141 19.765,46.385 19.765,46.104 			"/>
			<polygon id="Fill-43" class="st10" points="22.949,48.016 24.408,47.243 24.408,47.526 22.949,48.299 			"/>
			<polygon id="Fill-44" class="st5" points="21.693,47.262 23.15,46.489 24.408,47.242 22.949,48.016 			"/>
			<polygon id="Fill-45" class="st11" points="22.949,48.016 22.949,48.299 21.693,47.543 21.693,47.262 			"/>
			<polygon id="Fill-46" class="st10" points="24.816,49.139 26.275,48.366 26.275,48.647 24.816,49.42 			"/>
			<polygon id="Fill-47" class="st5" points="23.553,48.379 25.012,47.606 26.276,48.365 24.817,49.139 			"/>
			<polygon id="Fill-48" class="st11" points="24.816,49.139 24.816,49.42 23.552,48.662 23.552,48.379 			"/>
			<polygon id="Fill-49" class="st10" points="26.77,50.313 28.227,49.538 28.229,49.821 26.77,50.594 			"/>
			<polygon id="Fill-50" class="st5" points="25.512,49.557 26.971,48.784 28.227,49.537 26.77,50.313 			"/>
			<polygon id="Fill-51" class="st11" points="26.77,50.313 26.77,50.594 25.514,49.84 25.512,49.557 			"/>
			<polygon id="Fill-52" class="st10" points="28.631,51.43 30.088,50.657 30.088,50.938 28.631,51.713 			"/>
			<polygon id="Fill-53" class="st5" points="27.373,50.674 28.83,49.901 30.088,50.656 28.631,51.43 			"/>
			<polygon id="Fill-54" class="st11" points="28.631,51.43 28.631,51.713 27.373,50.957 27.373,50.674 			"/>
			<polygon id="Fill-55" class="st10" points="30.461,52.529 31.918,51.757 31.918,52.037 30.461,52.813 			"/>
			<polygon id="Fill-56" class="st5" points="29.203,51.774 30.662,51.001 31.918,51.756 30.461,52.53 			"/>
			<polygon id="Fill-57" class="st11" points="30.461,52.529 30.461,52.813 29.203,52.056 29.203,51.773 			"/>
			<polygon id="Fill-58" class="st10" points="32.32,53.647 33.779,52.874 33.779,53.157 32.32,53.93 			"/>
			<polygon id="Fill-59" class="st5" points="31.064,52.893 32.521,52.12 33.779,52.873 32.32,53.647 			"/>
			<polygon id="Fill-60" class="st11" points="32.32,53.647 32.32,53.93 31.064,53.174 31.064,52.893 			"/>
			<polygon id="Fill-61" class="st10" points="34.273,54.821 35.732,54.048 35.732,54.331 34.273,55.104 			"/>
			<polygon id="Fill-62" class="st5" points="33.018,54.067 34.475,53.292 35.733,54.047 34.274,54.821 			"/>
			<polygon id="Fill-63" class="st11" points="34.273,54.821 34.273,55.104 33.017,54.348 33.017,54.067 			"/>
			<polygon id="Fill-64" class="st10" points="36.141,55.944 37.6,55.169 37.6,55.452 36.141,56.225 			"/>
			<polygon id="Fill-65" class="st5" points="34.885,55.188 36.342,54.415 37.6,55.168 36.141,55.944 			"/>
			<polygon id="Fill-66" class="st11" points="36.141,55.944 36.141,56.225 34.885,55.471 34.885,55.188 			"/>
			<polygon id="Fill-67" class="st10" points="38.068,57.102 39.527,56.329 39.527,56.61 38.068,57.383 			"/>
			<polygon id="Fill-68" class="st5" points="36.813,56.346 38.27,55.573 39.528,56.328 38.069,57.102 			"/>
			<polygon id="Fill-69" class="st11" points="38.068,57.102 38.068,57.383 36.812,56.629 36.812,56.346 			"/>
			<polygon id="Fill-70" class="st10" points="39.893,58.197 41.35,57.424 41.352,57.705 39.893,58.478 			"/>
			<polygon id="Fill-71" class="st5" points="38.635,57.442 40.094,56.669 41.35,57.424 39.893,58.198 			"/>
			<polygon id="Fill-72" class="st11" points="39.893,58.197 39.893,58.478 38.637,57.724 38.635,57.441 			"/>
			<polygon id="Fill-73" class="st10" points="17.342,42.321 18.799,41.548 18.799,41.829 17.342,42.602 			"/>
			<polygon id="Fill-74" class="st5" points="16.084,41.565 17.543,40.792 18.799,41.547 17.342,42.321 			"/>
			<polygon id="Fill-75" class="st11" points="17.342,42.321 17.342,42.602 16.084,41.848 16.084,41.565 			"/>
			<polygon id="Fill-76" class="st10" points="19.201,43.438 20.66,42.665 20.66,42.948 19.201,43.721 			"/>
			<polygon id="Fill-77" class="st5" points="17.945,42.682 19.402,41.909 20.66,42.664 19.201,43.438 			"/>
			<polygon id="Fill-78" class="st11" points="19.201,43.438 19.201,43.721 17.945,42.965 17.945,42.682 			"/>
			<polygon id="Fill-79" class="st10" points="21.154,44.612 22.611,43.839 22.613,44.12 21.154,44.895 			"/>
			<polygon id="Fill-80" class="st5" points="19.898,43.856 21.355,43.083 22.611,43.838 21.154,44.612 			"/>
			<polygon id="Fill-81" class="st11" points="21.154,44.612 21.154,44.895 19.898,44.139 19.898,43.856 			"/>
			<polygon id="Fill-82" class="st10" points="23.021,45.733 24.478,44.96 24.48,45.243 23.021,46.016 			"/>
			<polygon id="Fill-83" class="st5" points="21.766,44.979 23.223,44.204 24.479,44.959 23.022,45.733 			"/>
			<polygon id="Fill-84" class="st11" points="23.021,45.733 23.021,46.016 21.765,45.26 21.765,44.979 			"/>
			<polygon id="Fill-85" class="st10" points="24.949,46.891 26.408,46.118 26.408,46.401 24.949,47.174 			"/>
			<polygon id="Fill-86" class="st5" points="23.693,46.137 25.15,45.364 26.408,46.117 24.949,46.891 			"/>
			<polygon id="Fill-87" class="st11" points="24.949,46.891 24.949,47.174 23.693,46.418 23.693,46.137 			"/>
			<polygon id="Fill-88" class="st10" points="26.816,48.014 28.275,47.241 28.275,47.522 26.816,48.295 			"/>
			<polygon id="Fill-89" class="st5" points="25.553,47.254 27.012,46.481 28.276,47.24 26.817,48.014 			"/>
			<polygon id="Fill-90" class="st11" points="26.816,48.014 26.816,48.295 25.552,47.537 25.552,47.254 			"/>
			<polygon id="Fill-91" class="st10" points="28.77,49.188 30.227,48.413 30.229,48.696 28.77,49.469 			"/>
			<polygon id="Fill-92" class="st5" points="27.512,48.432 28.971,47.659 30.227,48.412 28.77,49.188 			"/>
			<polygon id="Fill-93" class="st11" points="28.77,49.188 28.77,49.469 27.514,48.715 27.512,48.432 			"/>
			<polygon id="Fill-94" class="st10" points="30.631,50.305 32.088,49.532 32.088,49.813 30.631,50.588 			"/>
			<polygon id="Fill-95" class="st5" points="29.373,49.549 30.83,48.776 32.088,49.531 30.631,50.305 			"/>
			<polygon id="Fill-96" class="st11" points="30.631,50.305 30.631,50.588 29.373,49.832 29.373,49.549 			"/>
			<polygon id="Fill-97" class="st10" points="32.461,51.404 33.918,50.632 33.918,50.912 32.461,51.688 			"/>
			<polygon id="Fill-98" class="st5" points="31.203,50.649 32.662,49.876 33.918,50.631 32.461,51.405 			"/>
			<polygon id="Fill-99" class="st11" points="32.461,51.404 32.461,51.688 31.203,50.931 31.203,50.648 			"/>
			<polygon id="Fill-100" class="st10" points="34.32,52.522 35.779,51.749 35.779,52.032 34.32,52.805 			"/>
			<polygon id="Fill-101" class="st5" points="33.064,51.768 34.521,50.995 35.779,51.748 34.32,52.522 			"/>
			<polygon id="Fill-102" class="st11" points="34.32,52.522 34.32,52.805 33.064,52.049 33.064,51.768 			"/>
			<polygon id="Fill-103" class="st10" points="36.273,53.696 37.732,52.923 37.732,53.206 36.273,53.979 			"/>
			<polygon id="Fill-104" class="st5" points="35.018,52.942 36.475,52.167 37.733,52.922 36.274,53.696 			"/>
			<polygon id="Fill-105" class="st11" points="36.273,53.696 36.273,53.979 35.017,53.223 35.017,52.942 			"/>
			<polygon id="Fill-106" class="st10" points="38.141,54.819 39.6,54.044 39.6,54.327 38.141,55.1 			"/>
			<polygon id="Fill-107" class="st5" points="36.885,54.063 38.342,53.29 39.6,54.043 38.141,54.819 			"/>
			<polygon id="Fill-108" class="st11" points="38.141,54.819 38.141,55.1 36.885,54.346 36.885,54.063 			"/>
			<polygon id="Fill-109" class="st10" points="40.068,55.977 41.527,55.204 41.527,55.485 40.068,56.258 			"/>
			<polygon id="Fill-110" class="st5" points="38.813,55.221 40.27,54.448 41.528,55.203 40.069,55.977 			"/>
			<polygon id="Fill-111" class="st11" points="40.068,55.977 40.068,56.258 38.812,55.504 38.812,55.221 			"/>
			<polygon id="Fill-112" class="st10" points="41.893,57.072 43.35,56.299 43.352,56.58 41.893,57.353 			"/>
			<polygon id="Fill-113" class="st5" points="40.635,56.317 42.094,55.544 43.35,56.299 41.893,57.073 			"/>
			<polygon id="Fill-114" class="st11" points="41.893,57.072 41.893,57.353 40.637,56.599 40.635,56.316 			"/>
			<polygon id="Fill-115" class="st10" points="19.467,41.196 20.924,40.423 20.924,40.704 19.467,41.477 			"/>
			<polygon id="Fill-116" class="st5" points="18.209,40.44 19.668,39.667 20.924,40.422 19.467,41.196 			"/>
			<polygon id="Fill-117" class="st11" points="19.467,41.196 19.467,41.477 18.209,40.723 18.209,40.44 			"/>
			<polygon id="Fill-118" class="st10" points="21.326,42.313 22.785,41.54 22.785,41.823 21.326,42.596 			"/>
			<polygon id="Fill-119" class="st5" points="20.07,41.557 21.527,40.784 22.785,41.539 21.326,42.313 			"/>
			<polygon id="Fill-120" class="st11" points="21.326,42.313 21.326,42.596 20.07,41.84 20.07,41.557 			"/>
			<polygon id="Fill-121" class="st10" points="23.279,43.487 24.736,42.714 24.738,42.995 23.279,43.77 			"/>
			<polygon id="Fill-122" class="st5" points="22.023,42.731 23.48,41.958 24.736,42.713 23.279,43.487 			"/>
			<polygon id="Fill-123" class="st11" points="23.279,43.487 23.279,43.77 22.023,43.014 22.023,42.731 			"/>
			<polygon id="Fill-124" class="st10" points="25.146,44.608 26.603,43.835 26.605,44.118 25.146,44.891 			"/>
			<polygon id="Fill-125" class="st5" points="23.891,43.854 25.348,43.079 26.604,43.834 25.147,44.608 			"/>
			<polygon id="Fill-126" class="st11" points="25.146,44.608 25.146,44.891 23.89,44.135 23.89,43.854 			"/>
			<polygon id="Fill-127" class="st10" points="27.074,45.766 28.533,44.993 28.533,45.276 27.074,46.049 			"/>
			<polygon id="Fill-128" class="st5" points="25.818,45.012 27.275,44.239 28.533,44.992 27.074,45.766 			"/>
			<polygon id="Fill-129" class="st11" points="27.074,45.766 27.074,46.049 25.818,45.293 25.818,45.012 			"/>
			<polygon id="Fill-130" class="st10" points="28.941,46.889 30.4,46.116 30.4,46.397 28.941,47.17 			"/>
			<polygon id="Fill-131" class="st5" points="27.678,46.129 29.137,45.356 30.401,46.115 28.942,46.889 			"/>
			<polygon id="Fill-132" class="st11" points="28.941,46.889 28.941,47.17 27.677,46.412 27.677,46.129 			"/>
			<polygon id="Fill-133" class="st10" points="30.895,48.063 32.352,47.288 32.354,47.571 30.895,48.344 			"/>
			<polygon id="Fill-134" class="st5" points="29.637,47.307 31.096,46.534 32.352,47.287 30.895,48.063 			"/>
			<polygon id="Fill-135" class="st11" points="30.895,48.063 30.895,48.344 29.639,47.59 29.637,47.307 			"/>
			<polygon id="Fill-136" class="st10" points="32.756,49.18 34.213,48.407 34.213,48.688 32.756,49.463 			"/>
			<polygon id="Fill-137" class="st5" points="31.498,48.424 32.955,47.651 34.213,48.406 32.756,49.18 			"/>
			<polygon id="Fill-138" class="st11" points="32.756,49.18 32.756,49.463 31.498,48.707 31.498,48.424 			"/>
			<polygon id="Fill-139" class="st10" points="34.586,50.279 36.043,49.507 36.043,49.787 34.586,50.563 			"/>
			<polygon id="Fill-140" class="st5" points="33.328,49.524 34.787,48.751 36.043,49.506 34.586,50.28 			"/>
			<polygon id="Fill-141" class="st11" points="34.586,50.279 34.586,50.563 33.328,49.806 33.328,49.523 			"/>
			<polygon id="Fill-142" class="st10" points="36.445,51.397 37.904,50.624 37.904,50.907 36.445,51.68 			"/>
			<polygon id="Fill-143" class="st5" points="35.189,50.643 36.646,49.87 37.904,50.623 36.445,51.397 			"/>
			<polygon id="Fill-144" class="st11" points="36.445,51.397 36.445,51.68 35.189,50.924 35.189,50.643 			"/>
			<polygon id="Fill-145" class="st10" points="38.398,52.571 39.857,51.798 39.857,52.081 38.398,52.854 			"/>
			<polygon id="Fill-146" class="st5" points="37.143,51.817 38.6,51.042 39.858,51.797 38.399,52.571 			"/>
			<polygon id="Fill-147" class="st11" points="38.398,52.571 38.398,52.854 37.142,52.098 37.142,51.817 			"/>
			<polygon id="Fill-148" class="st10" points="40.266,53.694 41.725,52.919 41.725,53.202 40.266,53.975 			"/>
			<polygon id="Fill-149" class="st5" points="39.01,52.938 40.467,52.165 41.725,52.918 40.266,53.694 			"/>
			<polygon id="Fill-150" class="st11" points="40.266,53.694 40.266,53.975 39.01,53.221 39.01,52.938 			"/>
			<polygon id="Fill-151" class="st10" points="42.193,54.852 43.652,54.079 43.652,54.36 42.193,55.133 			"/>
			<polygon id="Fill-152" class="st5" points="40.938,54.096 42.395,53.323 43.653,54.078 42.194,54.852 			"/>
			<polygon id="Fill-153" class="st11" points="42.193,54.852 42.193,55.133 40.937,54.379 40.937,54.096 			"/>
			<polygon id="Fill-154" class="st10" points="44.018,55.947 45.475,55.174 45.477,55.455 44.018,56.228 			"/>
			<polygon id="Fill-155" class="st5" points="42.76,55.192 44.219,54.419 45.475,55.174 44.018,55.948 			"/>
			<polygon id="Fill-156" class="st11" points="44.018,55.947 44.018,56.228 42.762,55.474 42.76,55.191 			"/>
			<polygon id="Fill-157" class="st10" points="13.949,45.121 15.408,44.348 15.408,44.623 13.949,45.396 			"/>
			<polygon id="Fill-158" class="st5" points="12.691,44.367 14.15,43.592 15.408,44.347 13.949,45.121 			"/>
			<polygon id="Fill-159" class="st11" points="13.949,45.121 13.949,45.396 12.693,44.641 12.691,44.367 			"/>
			<polygon id="Fill-160" class="st10" points="15.719,46.184 17.176,45.411 17.176,45.686 15.719,46.459 			"/>
			<polygon id="Fill-161" class="st5" points="14.461,45.43 15.92,44.657 17.176,45.41 15.719,46.184 			"/>
			<polygon id="Fill-162" class="st11" points="15.719,46.184 15.719,46.459 14.461,45.704 14.461,45.43 			"/>
			<polygon id="Fill-163" class="st10" points="17.578,47.303 19.037,46.53 19.037,46.803 17.578,47.576 			"/>
			<polygon id="Fill-164" class="st5" points="16.322,46.547 17.779,45.774 19.037,46.529 17.578,47.303 			"/>
			<polygon id="Fill-165" class="st11" points="17.578,47.303 17.578,47.576 16.322,46.823 16.322,46.547 			"/>
			<polygon id="Fill-166" class="st10" points="33.137,56.621 34.596,55.848 34.596,56.123 33.137,56.896 			"/>
			<polygon id="Fill-167" class="st5" points="31.879,55.867 33.338,55.092 34.596,55.847 33.137,56.621 			"/>
			<polygon id="Fill-168" class="st11" points="33.137,56.621 33.137,56.896 31.881,56.141 31.879,55.867 			"/>
			<polygon id="Fill-169" class="st10" points="34.906,57.684 36.363,56.911 36.363,57.186 34.906,57.959 			"/>
			<polygon id="Fill-170" class="st5" points="33.648,56.93 35.107,56.157 36.363,56.91 34.906,57.684 			"/>
			<polygon id="Fill-171" class="st11" points="34.906,57.684 34.906,57.959 33.648,57.204 33.648,56.93 			"/>
			<polygon id="Fill-172" class="st10" points="36.766,58.803 38.225,58.03 38.225,58.303 36.766,59.076 			"/>
			<polygon id="Fill-173" class="st5" points="35.51,58.047 36.967,57.274 38.225,58.029 36.766,58.803 			"/>
			<polygon id="Fill-174" class="st11" points="36.766,58.803 36.766,59.076 35.51,58.323 35.51,58.047 			"/>
			<polygon id="Fill-175" class="st10" points="31.15,55.469 32.609,54.696 32.609,54.969 31.15,55.744 			"/>
			<polygon id="Fill-176" class="st5" points="18.256,47.721 19.715,46.948 32.61,54.696 31.151,55.469 			"/>
			<polygon id="Fill-177" class="st11" points="31.15,55.469 31.15,55.744 18.255,47.996 18.255,47.721 			"/>
			<polygon id="Fill-178" class="st10" points="21.678,39.936 23.135,39.163 23.135,39.446 21.678,40.219 			"/>
			<polygon id="Fill-179" class="st5" points="20.42,39.182 21.879,38.409 23.135,39.162 21.678,39.936 			"/>
			<polygon id="Fill-180" class="st11" points="21.678,39.936 21.678,40.219 20.42,39.463 20.42,39.182 			"/>
			<polygon id="Fill-181" class="st10" points="23.537,41.055 24.996,40.282 24.996,40.563 23.537,41.336 			"/>
			<polygon id="Fill-182" class="st5" points="22.281,40.299 23.738,39.526 24.996,40.281 23.537,41.055 			"/>
			<polygon id="Fill-183" class="st11" points="23.537,41.055 23.537,41.336 22.281,40.582 22.281,40.299 			"/>
			<polygon id="Fill-184" class="st10" points="25.49,42.229 26.947,41.454 26.949,41.737 25.49,42.51 			"/>
			<polygon id="Fill-185" class="st5" points="24.234,41.473 25.691,40.7 26.947,41.453 25.49,42.229 			"/>
			<polygon id="Fill-186" class="st11" points="25.49,42.229 25.49,42.51 24.234,41.756 24.234,41.473 			"/>
			<polygon id="Fill-187" class="st10" points="27.358,43.35 28.814,42.577 28.816,42.858 27.358,43.633 			"/>
			<polygon id="Fill-188" class="st5" points="26.102,42.594 27.559,41.821 28.815,42.576 27.358,43.35 			"/>
			<polygon id="Fill-189" class="st11" points="27.358,43.35 27.358,43.633 26.101,42.877 26.101,42.594 			"/>
			<polygon id="Fill-190" class="st10" points="29.285,44.508 30.744,43.735 30.744,44.018 29.285,44.791 			"/>
			<polygon id="Fill-191" class="st5" points="28.029,43.754 29.486,42.979 30.744,43.734 29.285,44.508 			"/>
			<polygon id="Fill-192" class="st11" points="29.285,44.508 29.285,44.791 28.029,44.035 28.029,43.754 			"/>
			<polygon id="Fill-193" class="st10" points="31.152,45.631 32.611,44.856 32.611,45.139 31.152,45.912 			"/>
			<polygon id="Fill-194" class="st5" points="29.889,44.871 31.348,44.098 32.612,44.855 31.153,45.631 			"/>
			<polygon id="Fill-195" class="st11" points="31.152,45.631 31.152,45.912 29.888,45.154 29.888,44.871 			"/>
			<polygon id="Fill-196" class="st10" points="33.105,46.803 34.563,46.03 34.564,46.313 33.105,47.086 			"/>
			<polygon id="Fill-197" class="st5" points="31.848,46.049 33.307,45.274 34.563,46.029 33.106,46.803 			"/>
			<polygon id="Fill-198" class="st11" points="33.105,46.803 33.105,47.086 31.849,46.33 31.847,46.049 			"/>
			<polygon id="Fill-199" class="st10" points="34.967,47.922 36.424,47.147 36.424,47.43 34.967,48.203 			"/>
			<polygon id="Fill-200" class="st5" points="33.709,47.166 35.166,46.393 36.424,47.146 34.967,47.922 			"/>
			<polygon id="Fill-201" class="st11" points="34.967,47.922 34.967,48.203 33.709,47.449 33.709,47.166 			"/>
			<polygon id="Fill-202" class="st10" points="36.797,49.022 38.254,48.249 38.254,48.53 36.797,49.303 			"/>
			<polygon id="Fill-203" class="st5" points="35.539,48.266 36.998,47.493 38.254,48.248 36.797,49.022 			"/>
			<polygon id="Fill-204" class="st11" points="36.797,49.022 36.797,49.303 35.539,48.549 35.539,48.266 			"/>
			<polygon id="Fill-205" class="st10" points="38.656,50.139 40.115,49.366 40.115,49.649 38.656,50.422 			"/>
			<polygon id="Fill-206" class="st5" points="37.4,49.385 38.857,48.61 40.115,49.365 38.656,50.139 			"/>
			<polygon id="Fill-207" class="st11" points="38.656,50.139 38.656,50.422 37.4,49.666 37.4,49.385 			"/>
			<polygon id="Fill-208" class="st10" points="40.609,51.313 42.068,50.54 42.068,50.821 40.609,51.596 			"/>
			<polygon id="Fill-209" class="st5" points="39.354,50.557 40.811,49.784 42.069,50.539 40.61,51.313 			"/>
			<polygon id="Fill-210" class="st11" points="40.609,51.313 40.609,51.596 39.353,50.84 39.353,50.557 			"/>
			<polygon id="Fill-211" class="st10" points="42.477,52.434 43.936,51.661 43.936,51.944 42.477,52.717 			"/>
			<polygon id="Fill-212" class="st5" points="41.221,51.68 42.678,50.905 43.936,51.66 42.477,52.434 			"/>
			<polygon id="Fill-213" class="st11" points="42.477,52.434 42.477,52.717 41.221,51.961 41.221,51.68 			"/>
			<polygon id="Fill-214" class="st10" points="44.404,53.592 45.863,52.819 45.863,53.102 44.404,53.875 			"/>
			<polygon id="Fill-215" class="st5" points="43.148,52.838 44.605,52.065 45.863,52.818 44.404,53.592 			"/>
			<polygon id="Fill-216" class="st11" points="44.404,53.592 44.404,53.875 43.148,53.119 43.148,52.838 			"/>
			<polygon id="Fill-217" class="st10" points="46.229,54.69 47.686,53.915 47.688,54.198 46.229,54.971 			"/>
			<polygon id="Fill-218" class="st5" points="44.971,53.934 46.43,53.161 47.686,53.914 46.229,54.69 			"/>
			<polygon id="Fill-219" class="st11" points="46.229,54.69 46.229,54.971 44.973,54.215 44.971,53.934 			"/>
		</g>
	</g>
</g>
</svg>
