<?xml version="1.0" encoding="utf-8"?>
<svg version="1.1" id="Layer_1" xmlns="http://www.w3.org/2000/svg" xmlns:xlink="http://www.w3.org/1999/xlink" x="0px" y="0px"
	 viewBox="0 0 33.3 72.4" style="enable-background:new 0 0 33.3 72.4;" xml:space="preserve">
<style type="text/css">
	.st0{fill:none;stroke:#231F20;stroke-width:3;stroke-linecap:round;stroke-linejoin:round;}
	.st1{fill:#606163;}
	.st2{fill:#808184;}
	.st3{fill:#231F20;}
	.st4{fill:#6D6E70;}
	.st5{fill:#C6C8C7;}
	.st6{fill:#A6A8AB;}
	.st7{fill:#C4CACE;}
	.st8{fill:#404042;}
</style>
<title>icon-iPhone</title>
<desc>Created with Sketch.</desc>
<path id="Stroke-11" class="st0" d="M2.9,4.7c12.1-6.4-7,3.4,5.1-3c0.8-0.4,1.8-0.3,3,0.4l-5.1,3C4.7,4.4,3.6,4.3,2.9,4.7z"/>
<path id="Stroke-20" class="st0" d="M30.5,67.71c-5.1,3,0,0-5.1,3c0.8-0.4,1.4-1.5,1.4-3l5.1-3C31.8,66.21,31.3,67.21,30.5,67.71z"
	/>
<polygon id="Stroke-22" class="st0" points="5.9,5.11 11,2.11 27.4,11.81 22.3,14.81 "/>
<polygon id="Stroke-24" class="st0" points="26.7,22.61 31.8,19.61 31.8,64.71 26.7,67.71 "/>
<path id="Stroke-58_1_" class="st0" d="M27.4,11.81c2.4,1.4,4.3,5,4.4,7.9l-5.1,3c0-2.9-2-6.4-4.4-7.9"/>
<path id="Stroke-60" class="st0" d="M22.3,14.81c2.4,1.4,4.4,5,4.4,7.9v45c0,2.9-1.9,4.1-4.3,2.6l-16.5-9.7c-2.4-1.4-4.4-5-4.4-7.9
	v-45c0-2.9,1.9-4.1,4.4-2.6L22.3,14.81z"/>
<path class="st1" d="M10.46,1.433L10.5,1.41c-0.5-0.2-0.9-0.3-1.3-0.3c-0.4-0.1-0.9,0-1.2,0.2l-5.1,3c0.4-0.2,0.8-0.2,1.2-0.2
	c0.4,0,0.8,0.1,1.2,0.3c0.2,0.1,0.4,0.2,0.6,0.3l5.1-3C10.815,1.617,10.709,1.525,10.46,1.433z"/>
<polygon id="Fill-80" class="st2" points="5.9,4.7 11,1.7 27.5,11.4 22.4,14.4 "/>
<polygon id="Fill-81" class="st3" points="26.7,22.2 31.8,19.2 31.9,64.3 26.7,67.3 "/>
<path class="st3" d="M31.8,18.31c-0.1-0.4-0.2-0.9-0.3-1.3l-0.031,0.018c-0.09-0.253-0.18-0.449-0.269-0.718c0-0.2-0.1-0.4-0.2-0.6
	c-0.1-0.3-0.2-0.5-0.3-0.7c-0.2-0.4-0.4-0.8-0.7-1.2c-0.2-0.2-0.3-0.4-0.5-0.6c-0.2-0.2-0.3-0.4-0.5-0.6s-0.5-0.5-0.8-0.7
	c-0.2-0.2-0.5-0.4-0.7-0.5l-5.1,3c0.2,0.1,0.4,0.3,0.7,0.5c0.3,0.2,0.5,0.5,0.8,0.7c0.2,0.2,0.3,0.4,0.5,0.6
	c0.2,0.2,0.3,0.4,0.5,0.6c0.2,0.4,0.5,0.8,0.7,1.2c0.1,0.2,0.2,0.4,0.3,0.7c0.1,0.2,0.2,0.4,0.2,0.6c0.1,0.2,0.2,0.5,0.3,0.8
	l0.019-0.011c0.089,0.436,0.179,0.802,0.268,1.16L26.6,21.31c0.1,0.3,0.1,0.6,0.1,0.9l5.1-3c0-0.282-0.083-0.563-0.094-0.845
	L31.8,18.31z"/>
<path id="Fill-113" class="st4" d="M22.4,14.41c2.4,1.4,4.4,5,4.4,7.9v45c0,2.9-1.9,4.1-4.3,2.6l-16.6-9.7c-2.4-1.4-4.4-5-4.4-7.9
	v-45c0-2.9,1.9-4.1,4.4-2.6L22.4,14.41z"/>
<path id="Fill-115" class="st5" d="M26.7,67.41v-45c0-2.7-1.8-5.9-4-7.2L6.2,5.51c-2.2-1.3-4-0.2-4,2.4v45c0,2.7,1.8,5.9,4,7.2
	l16.5,9.7C24.9,71.11,26.7,70.11,26.7,67.41z M22.6,14.31c2.6,1.6,4.7,5.4,4.7,8.5v45c0,3.1-2.1,4.4-4.7,2.8l-16.4-9.6
	c-2.6-1.6-4.7-5.4-4.7-8.5v-45c0-3.1,2.1-4.4,4.7-2.8L22.6,14.31z"/>
<polygon id="Fill-121" class="st6" points="24.1,60.91 4.8,49.11 4.8,11.81 24.1,23.61 "/>
<path id="Fill-123" class="st7" d="M10.9,18.01l11.4,6.8l0.1,9.2c0,0,0.9-5.5-4-9.6C12.1,19.11,10.9,18.01,10.9,18.01"/>
<path id="Fill-125" class="st8" d="M16,62.11c0,1.3-1,1.7-2.3,0.9c-1.2-0.7-2.3-2.4-2.3-3.6c0-1.3,1-1.6,2.3-0.9S16,60.81,16,62.11"
	/>
<polygon id="Fill-127" class="st8" points="16.3,15.91 11.2,12.91 11.2,11.71 16.3,14.71 "/>
</svg>
