<?xml version="1.0" encoding="utf-8"?>
<svg version="1.1" id="Layer_1" xmlns="http://www.w3.org/2000/svg" xmlns:xlink="http://www.w3.org/1999/xlink" x="0px" y="0px"
	 viewBox="0 0 58 79.6" style="enable-background:new 0 0 58 79.6;" xml:space="preserve">
<style type="text/css">
	.st0{fill:none;stroke:#626366;stroke-width:3;stroke-linecap:round;stroke-linejoin:round;}
	.st1{fill:#898B8E;}
	.st2{fill:#BBBDBF;}
	.st3{fill:#B3B5B7;}
	.st4{fill:none;stroke:#DFE0DF;stroke-width:0.75;stroke-linecap:round;stroke-linejoin:round;}
	.st5{fill:#FEFEFE;}
	.st6{fill:#C4CACE;}
	.st7{fill:none;stroke:#636466;stroke-width:2;stroke-linecap:round;}
	.st8{fill:none;stroke:#636466;stroke-width:3;stroke-linecap:round;}
</style>
<title>icon-PDA</title>
<desc>Created with Sketch.</desc>
<g id="Page-1">
	<g id="Desktop" transform="translate(-1224.000000, -76.000000)">
		<g id="icon-PDA" transform="translate(1225.000000, 76.000000)">
			<g id="Group-7" transform="translate(15.000000, 0.603500)">
				<polygon id="Stroke-1" class="st0" points="36.8,24.9 40.5,22.9 40.5,75.6 36.8,77.5 				"/>
				<polygon id="Stroke-3" class="st0" points="0.1,2.8 3.8,0.9 40.5,22.9 36.8,24.9 				"/>
				<polygon id="Stroke-5" class="st0" points="36.8,24.9 36.8,77.5 0.2,55.5 0.1,2.8 				"/>
			</g>
			<polygon id="Fill-8" class="st1" points="51.8,25.5 55.5,23.5 55.5,76.2 51.8,78.1 			"/>
			<polygon id="Fill-9" class="st2" points="15.1,3.4 18.8,1.5 55.5,23.5 51.8,25.5 			"/>
			<polygon id="Fill-10" class="st3" points="51.8,25.5 51.8,78.1 15.2,56.1 15.1,3.4 			"/>
			<polyline id="Stroke-11" class="st4" points="15.4,3.6 52,25.6 52,77.8 			"/>
			<polygon id="Fill-12" class="st5" points="48.4,69.5 18,52 17.9,9.1 48.4,26.8 			"/>
			<polygon id="Fill-13" class="st5" points="41.1,69.8 28.6,62.2 28.6,60.4 41.1,67.9 			"/>
			<g id="Group-24" transform="translate(0.000000, 16.603500)">
				<path id="Fill-14" class="st5" d="M45.2,54.8c0,0.6-0.5,0.7-1,0.4c-0.6-0.3-1-1.1-1-1.6c0-0.6,0.5-0.7,1-0.4
					C44.8,53.5,45.2,54.2,45.2,54.8"/>
				<path id="Fill-16" class="st5" d="M48.2,56.6c0,0.6-0.5,0.7-1,0.4c-0.6-0.3-1-1.1-1-1.6c0-0.6,0.5-0.7,1-0.4
					C47.8,55.3,48.2,56,48.2,56.6"/>
				<path id="Fill-18" class="st6" d="M28,0.8l18.5,11.1l0.1,10.4c0,0-0.3-7.4-5.8-12.1C33.8,4.3,28,0.8,28,0.8"/>
				<path id="Stroke-20" class="st7" d="M0.6,1.8l24.1,13.9"/>
				<path id="Stroke-22" class="st8" d="M0.5,1.8l9.3,5.9"/>
			</g>
		</g>
	</g>
</g>
</svg>
