<?xml version="1.0" encoding="utf-8"?>
<svg version="1.1" id="Layer_1" xmlns="http://www.w3.org/2000/svg" xmlns:xlink="http://www.w3.org/1999/xlink" x="0px" y="0px"
	 viewBox="0 0 52.193 74.645" style="enable-background:new 0 0 52.193 74.645;" xml:space="preserve">
<style type="text/css">
	.st0{fill:none;stroke:#626366;stroke-width:3;stroke-linecap:round;stroke-linejoin:round;}
	.st1{fill:#898B8E;}
	.st2{fill:#BBBDBF;}
	.st3{fill:#B3B5B7;}
	.st4{fill:#FEFEFE;}
	.st5{fill:#C4CACE;}
	.st6{fill:none;stroke:#E1E2E3;stroke-linecap:round;stroke-linejoin:round;}
	.st7{fill:none;stroke:#626366;stroke-width:1.24;stroke-linecap:round;stroke-linejoin:round;}
	.st8{fill:#A6A8AB;}
	.st9{fill:#808184;}
	.st10{fill:#90989E;}
	.st11{fill:#8C9499;}
	.st12{fill:#8E969C;}
	.st13{fill:#939BA0;}
	.st14{fill:#636466;}
	.st15{fill:#B1B7BC;}
	.st16{fill:#C8CDD0;}
	.st17{fill:#939597;}
	.st18{fill:#6C6E70;}
	.st19{fill:none;stroke:#BABCBC;stroke-width:0.31;stroke-linecap:round;stroke-linejoin:round;}
	.st20{fill:none;stroke:#DFE0DF;stroke-width:0.31;stroke-linecap:round;stroke-linejoin:round;}
	.st21{fill:none;stroke:#636466;stroke-width:1.24;}
	.st22{fill:none;stroke:#636466;stroke-width:0.827;}
	.st23{fill:#D0D2D3;}
	.st24{fill:#E5E6E7;}
	.st25{fill:#626466;}
	.st26{fill:#7A7C7F;}
	.st27{fill:#999B9D;}
	.st28{fill:#E1E2E3;}
</style>
<title>icon-video-conference</title>
<desc>Created with Sketch.</desc>
<g id="Page-1">
	<g id="Desktop" transform="translate(-1325.000000, -81.000000)">
		<g id="icon-video-conference" transform="translate(1326.000000, 80.000000)">
			<g id="Group-7" transform="translate(0.000000, 2.644900)">
				<polygon id="Stroke-1" class="st0" points="45.391,29.671 49.663,27.403 49.693,69.232 45.42,71.5 				"/>
				<polygon id="Stroke-3" class="st0" points="0.5,2.698 4.772,0.429 49.663,27.403 45.391,29.671 				"/>
				<polygon id="Stroke-5" class="st0" points="45.391,29.671 45.42,71.5 0.531,44.527 0.5,2.698 				"/>
			</g>
			<polygon id="Fill-8" class="st1" points="45.39,32.316 49.662,30.048 49.692,71.877 45.419,74.145 			"/>
			<polygon id="Fill-9" class="st2" points="0.5,5.343 4.772,3.074 49.662,30.048 45.39,32.316 			"/>
			<polygon id="Fill-10" class="st3" points="45.39,32.316 45.419,74.145 0.53,47.172 0.5,5.343 			"/>
			<polygon id="Fill-11" class="st4" points="41.328,62.069 4.627,40.017 4.627,13.649 41.328,35.701 			"/>
			<g id="Group-22" transform="translate(0.000000, 4.644900)">
				<path id="Fill-12" class="st5" d="M26.447,23.828l13.578,8.157l0.076,7.592c0,0-0.242-5.445-4.277-8.856
					C30.671,26.366,26.447,23.828,26.447,23.828"/>
				<polygon id="Fill-14" class="st4" points="35.575,58.784 26.388,53.264 26.388,51.91 35.575,57.43 				"/>
				<path id="Fill-16" class="st4" d="M38.57,59.971c0,0.408-0.332,0.54-0.741,0.294c-0.408-0.245-0.741-0.777-0.741-1.185
					c0-0.409,0.333-0.541,0.741-0.296C38.238,59.03,38.57,59.561,38.57,59.971"/>
				<path id="Fill-18" class="st4" d="M40.762,61.289c0,0.408-0.332,0.54-0.741,0.294c-0.408-0.245-0.74-0.776-0.74-1.184
					c0-0.41,0.332-0.542,0.74-0.297C40.43,60.348,40.762,60.879,40.762,61.289"/>
				<polyline id="Stroke-20" class="st6" points="0.878,0.839 45.374,27.574 45.403,69.146 				"/>
			</g>
			<g id="Group-32" transform="translate(27.000000, 0.644900)">
				<g id="Group-25">
					<g id="Clip-24">
					</g>
					<path id="Stroke-23" class="st7" d="M0.187,1.266C0.473,1.114,0.75,1.024,1.01,0.99"/>
				</g>
				<g id="Group-28">
					<g id="Clip-27">
					</g>
					<path id="Stroke-26" class="st7" d="M1.01,0.99c0.237-0.03,0.459-0.013,0.659,0.046l5.946,3.521"/>
				</g>
				<g id="Group-31">
					<g id="Clip-30">
					</g>
					<path id="Stroke-29" class="st7" d="M7.616,4.557L1.67,1.036c0.107,0.032,0.209,0.076,0.303,0.132l5.946,3.521
						C7.825,4.633,7.723,4.589,7.616,4.557"/>
				</g>
			</g>
			<g id="Group-47" transform="translate(17.000000, 0.644900)">
				<path id="Stroke-33" class="st7" d="M10.187,1.266c0.684-0.364,1.319-0.375,1.786-0.098l5.945,3.521
					c-0.466-0.277-1.101-0.265-1.786,0.098"/>
				<path id="Stroke-35" class="st7" d="M7.827,19.994l-5.945-3.521c-0.147-0.087-0.276-0.202-0.385-0.343l5.945,3.521
					C7.552,19.792,7.682,19.907,7.827,19.994"/>
				<path id="Stroke-37" class="st7" d="M7.442,19.651L1.497,16.13c-0.116-0.148-0.207-0.325-0.272-0.53l5.946,3.522
					C7.236,19.326,7.329,19.503,7.442,19.651"/>
				<path id="Stroke-39" class="st7" d="M1.225,15.6c-0.057-0.174-0.094-0.368-0.107-0.58"/>
				<path id="Stroke-41" class="st7" d="M1.118,15.02c0-0.009-0.002-0.019-0.002-0.027"/>
				<path id="Stroke-43" class="st7" d="M1.116,14.993l-0.35-6.111"/>
				<path id="Stroke-45" class="st7" d="M3.012,4.952l7.175-3.686"/>
			</g>
			<g id="Group-66" transform="translate(17.000000, 4.644900)">
				<g id="Group-50">
					<g id="Clip-49">
					</g>
					<path id="Stroke-48" class="st7" d="M0.766,4.882C0.757,4.713,0.763,4.539,0.781,4.364"/>
				</g>
				<g id="Group-53">
					<g id="Clip-52">
					</g>
					<path id="Stroke-51" class="st7" d="M0.781,4.364C0.795,4.23,0.816,4.095,0.844,3.96"/>
				</g>
				<g id="Group-56">
					<g id="Clip-55">
					</g>
					<path id="Stroke-54" class="st7" d="M0.844,3.96c0.041-0.184,0.093-0.368,0.159-0.55"/>
				</g>
				<g id="Group-59">
					<g id="Clip-58">
					</g>
					<path id="Stroke-57" class="st7" d="M1.003,3.41C1.17,2.937,1.421,2.48,1.729,2.077"/>
				</g>
				<g id="Group-62">
					<g id="Clip-61">
					</g>
					<path id="Stroke-60" class="st7" d="M1.729,2.076c0.294-0.383,0.64-0.717,1.018-0.966"/>
				</g>
				<g id="Group-65">
					<g id="Clip-64">
					</g>
					<path id="Stroke-63" class="st7" d="M2.747,1.11c0.086-0.057,0.176-0.111,0.266-0.158"/>
				</g>
			</g>
			<g id="Group-71" transform="translate(17.000000, 4.644900)">
				<path id="Stroke-67" class="st7" d="M0.766,4.882c-0.082-1.467,0.922-3.227,2.246-3.93"/>
				<path id="Stroke-69" class="st7" d="M16.132,0.787c1.323-0.704,2.468-0.087,2.552,1.38l0.349,6.111
					c0.082,1.467-0.924,3.227-2.25,3.931l-7.172,3.685c-1.326,0.705-2.465,0.086-2.549-1.381"/>
			</g>
			<g id="Group-81" transform="translate(27.000000, 0.644900)">
				<g id="Group-74">
					<g id="Clip-73">
					</g>
					<path id="Fill-72" class="st8" d="M6.132,4.787L0.187,1.266C0.473,1.114,0.75,1.023,1.01,0.99l5.946,3.521
						C6.696,4.544,6.418,4.635,6.132,4.787"/>
				</g>
				<g id="Group-77">
					<g id="Clip-76">
					</g>
					<path id="Fill-75" class="st9" d="M6.957,4.511L1.01,0.99c0.237-0.031,0.459-0.014,0.659,0.045l5.946,3.521
						C7.416,4.497,7.194,4.48,6.957,4.511"/>
				</g>
				<g id="Group-80">
					<g id="Clip-79">
					</g>
					<path id="Fill-78" class="st10" d="M7.616,4.557L1.67,1.036c0.107,0.032,0.209,0.076,0.303,0.132l5.946,3.521
						C7.825,4.633,7.723,4.589,7.616,4.557"/>
				</g>
			</g>
			<g id="Group-94" transform="translate(18.000000, 14.644900)">
				<g id="Group-84">
					<g id="Clip-83">
					</g>
					<path id="Fill-82" class="st11" d="M6.827,5.993L0.882,2.472C0.735,2.385,0.606,2.271,0.497,2.129L6.442,5.65
						C6.552,5.792,6.682,5.907,6.827,5.993"/>
				</g>
				<g id="Group-87">
					<g id="Clip-86">
					</g>
					<path id="Fill-85" class="st12" d="M6.442,5.65L0.497,2.129C0.381,1.982,0.29,1.804,0.225,1.6l5.946,3.522
						C6.236,5.326,6.329,5.503,6.442,5.65"/>
				</g>
				<g id="Group-90">
					<g id="Clip-89">
					</g>
					<path id="Fill-88" class="st3" d="M6.17,5.122L0.225,1.601C0.168,1.426,0.131,1.233,0.117,1.02l5.946,3.521
						C6.077,4.753,6.113,4.948,6.17,5.122"/>
				</g>
				<g id="Group-93">
					<g id="Clip-92">
					</g>
					<path id="Fill-91" class="st13" d="M6.063,4.541L0.118,1.02c0-0.009-0.002-0.019-0.002-0.027l5.946,3.52
						C6.063,4.522,6.063,4.532,6.063,4.541"/>
				</g>
			</g>
			<g id="Group-99" transform="translate(17.000000, 1.644900)">
				<polygon id="Fill-95" class="st3" points="7.062,17.513 1.116,13.992 0.766,7.881 6.713,11.403 				"/>
				<polygon id="Fill-97" class="st14" points="8.958,7.472 3.012,3.951 10.187,0.265 16.132,3.787 				"/>
			</g>
			<g id="Group-118" transform="translate(17.000000, 4.644900)">
				<g id="Group-102">
					<g id="Clip-101">
					</g>
					<path id="Fill-100" class="st3" d="M6.713,8.403L0.766,4.882C0.757,4.712,0.763,4.539,0.78,4.364l5.947,3.521
						C6.708,8.06,6.703,8.234,6.713,8.403"/>
				</g>
				<g id="Group-105">
					<g id="Clip-104">
					</g>
					<path id="Fill-103" class="st15" d="M6.727,7.885L0.781,4.364C0.794,4.23,0.816,4.095,0.844,3.96l5.947,3.52
						C6.762,7.616,6.74,7.751,6.727,7.885"/>
				</g>
				<g id="Group-108">
					<g id="Clip-107">
					</g>
					<path id="Fill-106" class="st8" d="M6.791,7.48L0.844,3.96c0.041-0.184,0.093-0.369,0.159-0.551L6.949,6.93
						C6.884,7.112,6.83,7.297,6.791,7.48"/>
				</g>
				<g id="Group-111">
					<g id="Clip-110">
					</g>
					<path id="Fill-109" class="st16" d="M6.95,6.93L1.004,3.409c0.167-0.473,0.418-0.931,0.725-1.333l5.948,3.521
						C7.368,6,7.118,6.458,6.95,6.93"/>
				</g>
				<g id="Group-114">
					<g id="Clip-113">
					</g>
					<path id="Fill-112" class="st17" d="M7.676,5.597L1.729,2.076C2.023,1.693,2.368,1.359,2.746,1.11l5.947,3.521
						C8.314,4.881,7.968,5.214,7.676,5.597"/>
				</g>
				<g id="Group-117">
					<g id="Clip-116">
					</g>
					<path id="Fill-115" class="st18" d="M8.693,4.631L2.747,1.11c0.086-0.058,0.175-0.111,0.265-0.159l5.947,3.521
						C8.869,4.52,8.78,4.573,8.693,4.631"/>
				</g>
			</g>
			<g id="Group-131" transform="translate(15.000000, 4.644900)">
				<path id="Fill-119" class="st1" d="M18.132,0.787c1.323-0.704,2.468-0.088,2.552,1.379l0.349,6.111
					c0.082,1.468-0.924,3.228-2.25,3.932l-7.172,3.685c-1.326,0.705-2.465,0.086-2.549-1.381l-0.349-6.11
					c-0.084-1.468,0.921-3.227,2.245-3.931L18.132,0.787z"/>
				<path id="Stroke-121" class="st19" d="M10.305,16.24c-0.623-0.103-1.083-0.587-1.212-1.366"/>
				<path id="Stroke-123" class="st19" d="M19.597,0.626c0.285,0.081,0.528,0.247,0.713,0.488"/>
				<path id="Stroke-125" class="st20" d="M9.093,14.875c-0.015-0.091-0.024-0.187-0.031-0.286l-0.349-6.11
					c-0.084-1.468,0.921-3.227,2.245-3.931l7.174-3.685c0.538-0.286,1.046-0.355,1.465-0.237"/>
				<path id="Stroke-127" class="st21" d="M5.769,13.828c-0.45,0.235-0.834,0.429-0.937,0.481c-0.156,0.078-0.712,0.336-1.234,0.125
					C0.659,13.242-0.238,9.473,0.161,8.28C0.257,7.989,0.42,7.544,0.714,7.268C0.881,7.11,1.868,6.589,2.6,6.215"/>
				<path id="Stroke-129" class="st22" d="M0.7,7.288C0.869,7.13,1.854,6.61,2.587,6.235C3.016,6.016,3.359,5.847,3.399,5.83
					c0.268-0.108,0.728-0.233,1.516,0.03c0.442,0.148,1.47,0.86,2.093,1.913c0.546,0.923,1.164,2.01,1.053,3.826
					c-0.05,0.822-0.443,1.136-0.496,1.198c-0.134,0.158-1.062,0.661-1.81,1.052c-0.45,0.235-0.834,0.428-0.938,0.481
					c-0.155,0.077-0.712,0.336-1.233,0.125C0.645,13.262-0.251,9.493,0.146,8.3C0.243,8.01,0.407,7.565,0.7,7.288z"/>
			</g>
			<g id="Group-141" transform="translate(17.000000, 16.644900)">
				<g id="Group-134">
					<g id="Clip-133">
					</g>
					<path id="Fill-132" class="st23" d="M0.873,1.676l2.41-1.279C3.43,0.485,3.574,0.556,3.713,0.61l-2.41,1.279
						C1.164,1.835,1.02,1.764,0.873,1.676"/>
				</g>
				<g id="Group-137">
					<g id="Clip-136">
					</g>
					<path id="Fill-135" class="st2" d="M1.303,1.889l2.41-1.279c0.179,0.068,0.351,0.109,0.514,0.124l-2.41,1.28
						C1.654,1.998,1.482,1.957,1.303,1.889"/>
				</g>
				<g id="Group-140">
					<g id="Clip-139">
					</g>
					<path id="Fill-138" class="st8" d="M1.817,2.013l2.41-1.279c0.269,0.025,0.514-0.021,0.724-0.133L2.541,1.88
						C2.331,1.992,2.086,2.038,1.817,2.013"/>
				</g>
			</g>
			<g id="Group-169" transform="translate(15.000000, 10.644900)">
				<g id="Group-144">
					<g id="Clip-143">
					</g>
					<path id="Fill-142" class="st8" d="M1.203,1.589l2.41-1.279C3.276,0.489,3.026,0.838,2.912,1.329l-2.41,1.279
						C0.617,2.117,0.865,1.769,1.203,1.589"/>
				</g>
				<g id="Group-147">
					<g id="Clip-146">
					</g>
					<path id="Fill-145" class="st2" d="M0.502,2.608l2.41-1.279C2.87,1.509,2.846,1.71,2.843,1.928L0.432,3.207
						C0.436,2.989,0.46,2.789,0.502,2.608"/>
				</g>
				<g id="Group-150">
					<g id="Clip-149">
					</g>
					<path id="Fill-148" class="st23" d="M0.432,3.207l2.411-1.279c-0.001,0.02-0.001,0.041-0.001,0.061
						c0,0.181,0.014,0.366,0.04,0.554l-2.41,1.279c-0.026-0.187-0.04-0.373-0.04-0.553L0.432,3.207"/>
				</g>
				<g id="Group-153">
					<g id="Clip-152">
					</g>
					<path id="Fill-151" class="st24" d="M0.472,3.822l2.41-1.279c0.03,0.215,0.077,0.432,0.138,0.65L0.61,4.472
						C0.548,4.255,0.502,4.037,0.472,3.822"/>
				</g>
				<g id="Group-156">
					<g id="Clip-155">
					</g>
					<path id="Fill-154" class="st4" d="M0.61,4.473l2.41-1.279C3.076,3.392,3.143,3.59,3.221,3.786l-2.41,1.279
						C0.733,4.869,0.666,4.671,0.61,4.473"/>
				</g>
				<g id="Group-159">
					<g id="Clip-158">
					</g>
					<path id="Fill-157" class="st4" d="M0.811,5.065l2.41-1.279C3.461,4.383,3.8,4.958,4.202,5.44L1.791,6.719
						C1.39,6.237,1.05,5.663,0.811,5.065"/>
				</g>
				<g id="Group-162">
					<g id="Clip-161">
					</g>
					<path id="Fill-160" class="st4" d="M1.791,6.719l2.41-1.279C4.358,5.629,4.525,5.804,4.7,5.961L2.29,7.24
						C2.115,7.083,1.948,6.908,1.791,6.719"/>
				</g>
				<g id="Group-165">
					<g id="Clip-164">
					</g>
					<path id="Fill-163" class="st24" d="M2.29,7.24L4.7,5.961c0.167,0.15,0.342,0.284,0.521,0.397l-2.41,1.279
						C2.632,7.524,2.457,7.39,2.29,7.24"/>
				</g>
				<g id="Group-168">
					<g id="Clip-167">
					</g>
					<path id="Fill-166" class="st23" d="M2.811,7.637l2.41-1.279c0.021,0.013,0.042,0.026,0.063,0.039L2.873,7.676
						C2.852,7.663,2.832,7.65,2.811,7.637"/>
				</g>
			</g>
			<g id="Group-179" transform="translate(16.000000, 10.644900)">
				<g id="Group-172">
					<g id="Clip-171">
					</g>
					<path id="Fill-170" class="st25" d="M0.203,1.589l2.41-1.279c0.21-0.112,0.455-0.158,0.725-0.133l-2.41,1.279
						C0.658,1.431,0.413,1.478,0.203,1.589"/>
				</g>
				<g id="Group-175">
					<g id="Clip-174">
					</g>
					<path id="Fill-173" class="st25" d="M0.928,1.456l2.41-1.279C3.5,0.192,3.672,0.233,3.85,0.302L1.44,1.581
						C1.262,1.512,1.09,1.471,0.928,1.456"/>
				</g>
				<g id="Group-178">
					<g id="Clip-177">
					</g>
					<path id="Fill-176" class="st25" d="M1.44,1.581l2.41-1.279c0.14,0.053,0.283,0.124,0.43,0.212L1.87,1.793
						C1.723,1.705,1.58,1.635,1.44,1.581"/>
				</g>
			</g>
			<g id="Group-189" transform="translate(19.000000, 14.644900)">
				<g id="Group-182">
					<g id="Clip-181">
					</g>
					<path id="Fill-180" class="st25" d="M1.272,1.647l2.41-1.279c0.027,0.188,0.04,0.373,0.04,0.553c0,0.021,0,0.042-0.001,0.062
						l-2.41,1.279c0.001-0.02,0.001-0.04,0.001-0.061C1.312,2.02,1.297,1.835,1.272,1.647"/>
				</g>
				<g id="Group-185">
					<g id="Clip-184">
					</g>
					<path id="Fill-183" class="st25" d="M1.311,2.262l2.41-1.279c-0.003,0.218-0.027,0.419-0.069,0.6l-2.41,1.279
						C1.284,2.681,1.307,2.481,1.311,2.262"/>
				</g>
				<g id="Group-188">
					<g id="Clip-187">
					</g>
					<path id="Fill-186" class="st25" d="M1.242,2.861l2.41-1.279C3.538,2.073,3.29,2.421,2.951,2.601L0.541,3.88
						C0.88,3.7,1.128,3.352,1.242,2.861"/>
				</g>
			</g>
			<g id="Group-199" transform="translate(15.000000, 9.644900)">
				<g id="Group-192">
					<g id="Clip-191">
					</g>
					<path id="Fill-190" class="st8" d="M0.958,2.128l2.41-1.279c0.241-0.128,0.522-0.181,0.83-0.153l-2.41,1.28
						C1.479,1.947,1.198,2,0.958,2.128"/>
				</g>
				<g id="Group-195">
					<g id="Clip-194">
					</g>
					<path id="Fill-193" class="st2" d="M1.788,1.976l2.41-1.279C4.386,0.714,4.582,0.761,4.786,0.84l-2.41,1.279
						C2.172,2.04,1.975,1.993,1.788,1.976"/>
				</g>
				<g id="Group-198">
					<g id="Clip-197">
					</g>
					<path id="Fill-196" class="st23" d="M2.376,2.119l2.41-1.279c0.16,0.061,0.325,0.142,0.493,0.243l-2.41,1.28
						C2.7,2.262,2.536,2.181,2.376,2.119"/>
				</g>
			</g>
			<path id="Fill-200" class="st25" d="M17.87,12.438c1.344,0.807,2.441,2.788,2.442,4.407c0.001,1.62-1.094,2.283-2.438,1.476
				c-1.342-0.806-2.441-2.788-2.442-4.407C15.432,12.294,16.527,11.631,17.87,12.438"/>
			<g id="Group-223" transform="translate(17.000000, 10.644900)">
				<g id="Group-204">
					<g id="Clip-203">
					</g>
					<path id="Fill-202" class="st25" d="M0.87,1.793l2.41-1.279C3.302,0.526,3.322,0.54,3.344,0.553L0.932,1.832
						C0.912,1.818,0.891,1.806,0.87,1.793"/>
				</g>
				<g id="Group-207">
					<g id="Clip-206">
					</g>
					<path id="Fill-205" class="st25" d="M0.932,1.832l2.411-1.279C3.522,0.665,3.696,0.799,3.864,0.95L1.453,2.229
						C1.286,2.079,1.112,1.945,0.932,1.832"/>
				</g>
				<g id="Group-210">
					<g id="Clip-209">
					</g>
					<path id="Fill-208" class="st25" d="M1.453,2.23l2.41-1.279c0.175,0.156,0.342,0.332,0.499,0.521l-2.41,1.279
						C1.795,2.562,1.628,2.387,1.453,2.23"/>
				</g>
				<g id="Group-213">
					<g id="Clip-212">
					</g>
					<path id="Fill-211" class="st26" d="M1.953,2.751l2.41-1.279c0.402,0.482,0.741,1.056,0.981,1.654L2.933,4.405
						C2.694,3.808,2.354,3.233,1.953,2.751"/>
				</g>
				<g id="Group-216">
					<g id="Clip-215">
					</g>
					<path id="Fill-214" class="st25" d="M2.933,4.404l2.41-1.279c0.078,0.196,0.146,0.394,0.201,0.592l-2.41,1.279
						C3.079,4.798,3.011,4.6,2.933,4.404"/>
				</g>
				<g id="Group-219">
					<g id="Clip-218">
					</g>
					<path id="Fill-217" class="st25" d="M3.134,4.997l2.41-1.279c0.062,0.217,0.108,0.435,0.138,0.65l-2.41,1.279
						C3.241,5.433,3.195,5.215,3.134,4.997"/>
				</g>
				<g id="Group-222">
					<g id="Clip-221">
					</g>
					<path id="Fill-220" class="st25" d="M3.272,5.647l2.41-1.279c0.027,0.188,0.04,0.373,0.04,0.553c0,0.021,0,0.042-0.001,0.062
						l-2.41,1.279c0.001-0.02,0.001-0.04,0.001-0.061C3.312,6.02,3.297,5.835,3.272,5.647"/>
				</g>
			</g>
			<g id="Group-251" transform="translate(17.000000, 10.644900)">
				<g id="Group-226">
					<g id="Clip-225">
					</g>
					<path id="Fill-224" class="st23" d="M0.87,1.362l2.41-1.279c0.024,0.014,0.048,0.029,0.072,0.044l-2.41,1.279
						C0.918,1.391,0.893,1.377,0.87,1.362"/>
				</g>
				<g id="Group-229">
					<g id="Clip-228">
					</g>
					<path id="Fill-227" class="st24" d="M0.942,1.407l2.41-1.279c0.205,0.13,0.405,0.283,0.598,0.456L1.54,1.863
						C1.347,1.69,1.147,1.537,0.942,1.407"/>
				</g>
				<g id="Group-232">
					<g id="Clip-231">
					</g>
					<path id="Fill-230" class="st4" d="M1.539,1.863l2.41-1.279c0.199,0.179,0.392,0.38,0.572,0.597L2.112,2.46
						C1.93,2.243,1.738,2.043,1.539,1.863"/>
				</g>
				<g id="Group-235">
					<g id="Clip-234">
					</g>
					<path id="Fill-233" class="st4" d="M2.112,2.46l2.41-1.279c0.46,0.553,0.849,1.211,1.123,1.896l-2.41,1.279
						C2.961,3.671,2.572,3.013,2.112,2.46"/>
				</g>
				<g id="Group-238">
					<g id="Clip-237">
					</g>
					<path id="Fill-236" class="st4" d="M3.235,4.356l2.41-1.279c0.09,0.224,0.168,0.451,0.232,0.679L3.465,5.035
						C3.402,4.808,3.325,4.581,3.235,4.356"/>
				</g>
				<g id="Group-241">
					<g id="Clip-240">
					</g>
					<path id="Fill-239" class="st24" d="M3.465,5.035l2.411-1.279c0.069,0.249,0.123,0.499,0.157,0.745L3.623,5.78
						C3.588,5.534,3.535,5.285,3.465,5.035"/>
				</g>
				<g id="Group-244">
					<g id="Clip-243">
					</g>
					<path id="Fill-242" class="st23" d="M3.623,5.78l2.41-1.279C6.064,4.716,6.08,4.928,6.08,5.135v0.071l-2.411,1.28
						C3.67,6.462,3.67,6.439,3.67,6.415C3.669,6.208,3.654,5.995,3.623,5.78"/>
				</g>
				<g id="Group-247">
					<g id="Clip-246">
					</g>
					<path id="Fill-245" class="st2" d="M3.668,6.486l2.411-1.279c-0.005,0.25-0.032,0.48-0.08,0.687L3.588,7.173
						C3.637,6.966,3.664,6.736,3.668,6.486"/>
				</g>
				<g id="Group-250">
					<g id="Clip-249">
					</g>
					<path id="Fill-248" class="st8" d="M3.588,7.174l2.411-1.279C5.867,6.457,5.583,6.857,5.195,7.062l-2.41,1.279
						C3.173,8.136,3.457,7.736,3.588,7.174"/>
				</g>
			</g>
			<g id="Group-256" transform="translate(15.000000, 10.644900)">
				<path id="Fill-252" class="st27" d="M2.873,7.676C4.218,8.484,5.313,7.82,5.312,6.2c0-1.619-1.098-3.6-2.442-4.407
					C1.526,0.987,0.431,1.65,0.433,3.269C0.433,4.888,1.531,6.87,2.873,7.676 M2.869,1.363c1.54,0.925,2.799,3.195,2.8,5.052
					S4.415,9.032,2.873,8.107c-1.54-0.926-2.798-3.196-2.799-5.053C0.072,1.197,1.328,0.437,2.869,1.363"/>
				<path id="Fill-254" class="st28" d="M4.299,4.182c0.546,1.17,0.416,2.386-0.291,2.716S2.285,6.547,1.739,5.377
					s-0.416-2.386,0.29-2.716C2.737,2.331,3.753,3.012,4.299,4.182"/>
			</g>
		</g>
	</g>
</g>
</svg>
