<?xml version="1.0" encoding="utf-8"?>
<svg version="1.1" id="Layer_1" xmlns="http://www.w3.org/2000/svg" xmlns:xlink="http://www.w3.org/1999/xlink" x="0px" y="0px"
	 viewBox="0 0 49.922 75.201" style="enable-background:new 0 0 49.922 75.201;" xml:space="preserve">
<style type="text/css">
	.st0{fill:none;stroke:#626366;stroke-width:3;stroke-linecap:round;stroke-linejoin:round;}
	.st1{filter:url(#Adobe_OpacityMaskFilter);}
	.st2{fill:#FFFFFF;}
	.st3{mask:url(#mask-2_1_);fill:none;stroke:#626366;stroke-width:3;stroke-linecap:round;stroke-linejoin:round;}
	.st4{filter:url(#Adobe_OpacityMaskFilter_1_);}
	.st5{mask:url(#mask-4_1_);fill:none;stroke:#626366;stroke-width:3;stroke-linecap:round;stroke-linejoin:round;}
	.st6{filter:url(#Adobe_OpacityMaskFilter_2_);}
	.st7{mask:url(#mask-6_1_);fill:none;stroke:#626366;stroke-width:3;stroke-linecap:round;stroke-linejoin:round;}
	.st8{filter:url(#Adobe_OpacityMaskFilter_3_);}
	.st9{mask:url(#mask-8_1_);fill:none;stroke:#626366;stroke-width:3;stroke-linecap:round;stroke-linejoin:round;}
	.st10{filter:url(#Adobe_OpacityMaskFilter_4_);}
	.st11{mask:url(#mask-10_1_);fill:none;stroke:#626366;stroke-width:3;stroke-linecap:round;stroke-linejoin:round;}
	.st12{filter:url(#Adobe_OpacityMaskFilter_5_);}
	.st13{mask:url(#mask-12_1_);fill:none;stroke:#626366;stroke-width:3;stroke-linecap:round;stroke-linejoin:round;}
	.st14{filter:url(#Adobe_OpacityMaskFilter_6_);}
	.st15{mask:url(#mask-14_1_);fill:none;stroke:#626366;stroke-width:3;stroke-linecap:round;stroke-linejoin:round;}
	.st16{filter:url(#Adobe_OpacityMaskFilter_7_);}
	.st17{mask:url(#mask-16_1_);fill:none;stroke:#626366;stroke-width:3;stroke-linecap:round;stroke-linejoin:round;}
	.st18{filter:url(#Adobe_OpacityMaskFilter_8_);}
	.st19{mask:url(#mask-18_1_);fill:none;stroke:#626366;stroke-width:3;stroke-linecap:round;stroke-linejoin:round;}
	.st20{filter:url(#Adobe_OpacityMaskFilter_9_);}
	.st21{mask:url(#mask-20_1_);fill:none;stroke:#626366;stroke-width:3;stroke-linecap:round;stroke-linejoin:round;}
	.st22{filter:url(#Adobe_OpacityMaskFilter_10_);}
	.st23{mask:url(#mask-22_1_);fill:#8E969C;}
	.st24{fill:#A4A6A9;}
	.st25{filter:url(#Adobe_OpacityMaskFilter_11_);}
	.st26{mask:url(#mask-24_1_);fill:#8E969C;}
	.st27{filter:url(#Adobe_OpacityMaskFilter_12_);}
	.st28{mask:url(#mask-26_1_);fill:#90989E;}
	.st29{filter:url(#Adobe_OpacityMaskFilter_13_);}
	.st30{mask:url(#mask-28_1_);fill:#A4A6A9;}
	.st31{fill:#898B8E;}
	.st32{filter:url(#Adobe_OpacityMaskFilter_14_);}
	.st33{mask:url(#mask-30_1_);fill:#A4A6A9;}
	.st34{filter:url(#Adobe_OpacityMaskFilter_15_);}
	.st35{mask:url(#mask-32_1_);fill:#C6C7C9;}
	.st36{filter:url(#Adobe_OpacityMaskFilter_16_);}
	.st37{mask:url(#mask-34_1_);fill:#BBBDBF;}
	.st38{filter:url(#Adobe_OpacityMaskFilter_17_);}
	.st39{mask:url(#mask-36_1_);fill:#9EA0A3;}
	.st40{filter:url(#Adobe_OpacityMaskFilter_18_);}
	.st41{mask:url(#mask-38_1_);fill:#898B8E;}
	.st42{filter:url(#Adobe_OpacityMaskFilter_19_);}
	.st43{mask:url(#mask-40_1_);fill:#898B8E;}
	.st44{fill:none;stroke:#DFE0DF;stroke-width:0.75;stroke-linecap:round;stroke-linejoin:round;}
	.st45{fill:#939BA0;}
	.st46{fill:#B3B5B7;}
	.st47{fill:none;stroke:#626366;stroke-width:1.25;}
	.st48{fill:#CACCCD;}
	.st49{fill:#DDDEDF;}
	.st50{fill:#FEFEFE;}
</style>
<title>icon-VOIP-IP-phone</title>
<desc>Created with Sketch.</desc>
<g id="Page-1">
	<g id="Desktop" transform="translate(-365.000000, -71.000000)">
		<g id="icon-VOIP-IP-phone" transform="translate(366.000000, 72.000000)">
			<g id="Group-5" transform="translate(13.000000, 0.201100)">
				<path id="Stroke-1" class="st0" d="M18.461,14.916c0,0.688-0.559,1.247-1.246,1.247c-0.69,0-1.248-0.559-1.248-1.247V1.546
					c0-0.69,0.558-1.247,1.248-1.247c0.687,0,1.246,0.557,1.246,1.247V14.916z"/>
				<path id="Stroke-3" class="st0" d="M7.086,0.864c0,0-1.437-0.75-3.875,0.5C0.774,2.614,0.92,3.823,0.752,4.115
					C0.529,4.507,0.586,5.739,0.586,5.739v35.125c0,0-0.125,0.563,0,1.25c0.125,0.688,1,1.625,1,1.625l12.625,7.5
					c0,0,1.188,0.813,2,0.75c0.813-0.062,1.375,0.125,3.125-1s2.125-3,2.125-3V11.364c0,0,0-1.375-0.375-1.875s-1-1-1-1L7.086,0.864
					z"/>
			</g>
			<g id="Group-8" transform="translate(0.000000, 45.201100)">
				<g id="Clip-7">
				</g>
				<defs>
					<filter id="Adobe_OpacityMaskFilter" filterUnits="userSpaceOnUse" x="-0.997" y="-1.171" width="17.579" height="10.744">
						<feColorMatrix  type="matrix" values="1 0 0 0 0  0 1 0 0 0  0 0 1 0 0  0 0 0 1 0"/>
					</filter>
				</defs>
				<mask maskUnits="userSpaceOnUse" x="-0.997" y="-1.171" width="17.579" height="10.744" id="mask-2_1_">
					<g class="st1">
						<polyline id="path-1_1_" class="st2" points="0.503,8.069 0.503,8.073 15.082,0.335 15.082,0.33 						"/>
					</g>
				</mask>
				<polyline id="Stroke-6" class="st3" points="0.503,8.068 15.082,0.329 15.082,0.335 0.503,8.073 0.503,8.068 				"/>
			</g>
			<polygon id="Stroke-9" class="st0" points="15.082,45.536 0.503,53.274 0.503,53.269 15.082,45.53 			"/>
			<g id="Group-20" transform="translate(2.000000, 36.201100)">
				<g id="Group-13">
					<g id="Clip-12">
					</g>
					<defs>
						<filter id="Adobe_OpacityMaskFilter_1_" filterUnits="userSpaceOnUse" x="-1.328" y="-1.349" width="17.872" height="10.865">
							<feColorMatrix  type="matrix" values="1 0 0 0 0  0 1 0 0 0  0 0 1 0 0  0 0 0 1 0"/>
						</filter>
					</defs>
					<mask maskUnits="userSpaceOnUse" x="-1.328" y="-1.349" width="17.872" height="10.865" id="mask-4_1_">
						<g class="st4">
							<path id="path-3_1_" class="st2" d="M14.752,0.277L0.173,8.016c1.121-0.596,2.413,0.115,2.53,0.18l14.58-7.74
								c-0.083-0.045-0.757-0.415-1.541-0.415C15.42,0.041,15.078,0.103,14.752,0.277"/>
						</g>
					</mask>
					<path id="Stroke-11" class="st5" d="M0.172,8.016l14.579-7.739c0.097-0.051,0.194-0.093,0.293-0.126L0.465,7.89
						C0.366,7.922,0.269,7.964,0.172,8.016"/>
				</g>
				<g id="Group-16">
					<g id="Clip-15">
					</g>
					<defs>
						<filter id="Adobe_OpacityMaskFilter_2_" filterUnits="userSpaceOnUse" x="-1.035" y="-1.459" width="18.63" height="10.849">
							<feColorMatrix  type="matrix" values="1 0 0 0 0  0 1 0 0 0  0 0 1 0 0  0 0 0 1 0"/>
						</filter>
					</defs>
					<mask maskUnits="userSpaceOnUse" x="-1.035" y="-1.459" width="18.63" height="10.849" id="mask-6_1_">
						<g class="st6">
							<path id="path-5_1_" class="st2" d="M14.752,0.277L0.173,8.016c1.121-0.596,2.413,0.115,2.53,0.18l14.58-7.74
								c-0.083-0.045-0.757-0.415-1.541-0.415C15.42,0.041,15.078,0.103,14.752,0.277"/>
						</g>
					</mask>
					<path id="Stroke-14" class="st7" d="M0.465,7.89l14.579-7.739c0.359-0.121,0.724-0.129,1.051-0.086L1.517,7.804
						C1.189,7.76,0.823,7.769,0.465,7.89"/>
				</g>
				<g id="Group-19">
					<g id="Clip-18">
					</g>
					<defs>
						<filter id="Adobe_OpacityMaskFilter_3_" filterUnits="userSpaceOnUse" x="0.017" y="-1.435" width="18.766" height="11.131">
							<feColorMatrix  type="matrix" values="1 0 0 0 0  0 1 0 0 0  0 0 1 0 0  0 0 0 1 0"/>
						</filter>
					</defs>
					<mask maskUnits="userSpaceOnUse" x="0.017" y="-1.435" width="18.766" height="11.131" id="mask-8_1_">
						<g class="st8">
							<path id="path-7_1_" class="st2" d="M14.752,0.277L0.173,8.016c1.121-0.596,2.413,0.115,2.53,0.18l14.58-7.74
								c-0.083-0.045-0.757-0.415-1.541-0.415C15.42,0.041,15.078,0.103,14.752,0.277"/>
						</g>
					</mask>
					<path id="Stroke-17" class="st9" d="M1.517,7.804l14.578-7.739c0.625,0.083,1.117,0.353,1.188,0.391l-14.58,7.74
						C2.632,8.157,2.141,7.886,1.517,7.804"/>
				</g>
			</g>
			<g id="Group-25" transform="translate(2.000000, 36.201100)">
				<path id="Stroke-21" class="st0" d="M0.172,8.016l14.579-7.739c1.121-0.595,2.413,0.115,2.531,0.179l-14.58,7.74
					C2.585,8.131,1.293,7.42,0.172,8.016z"/>
				<polygon id="Stroke-23" class="st0" points="2.703,8.195 17.283,0.456 41.686,15.12 27.107,22.858 				"/>
			</g>
			<g id="Group-44" transform="translate(29.000000, 51.201100)">
				<g id="Group-28">
					<g id="Clip-27">
					</g>
					<defs>
						<filter id="Adobe_OpacityMaskFilter_4_" filterUnits="userSpaceOnUse" x="-1.393" y="-1.38" width="19.389" height="12.618">
							<feColorMatrix  type="matrix" values="1 0 0 0 0  0 1 0 0 0  0 0 1 0 0  0 0 0 1 0"/>
						</filter>
					</defs>
					<mask maskUnits="userSpaceOnUse" x="-1.393" y="-1.38" width="19.389" height="12.618" id="mask-10_1_">
						<g class="st10">
							<path id="path-9_1_" class="st2" d="M0.108,7.858c0.186,0.126,3.727,2.515,3.732,8.584c0.001,1.938,0.003,4.902,0.003,5.058
								l14.579-7.739c0-0.156-0.002-3.119-0.004-5.057c-0.004-6.07-3.545-8.459-3.731-8.584"/>
						</g>
					</mask>
					<path id="Stroke-26" class="st11" d="M0.107,7.858L14.686,0.12c0.089,0.059,0.942,0.634,1.81,1.879L1.917,9.738
						C1.048,8.494,0.196,7.919,0.107,7.858"/>
				</g>
				<g id="Group-31">
					<g id="Clip-30">
					</g>
					<defs>
						<filter id="Adobe_OpacityMaskFilter_5_" filterUnits="userSpaceOnUse" x="0.417" y="0.499" width="18.044" height="11.474">
							<feColorMatrix  type="matrix" values="1 0 0 0 0  0 1 0 0 0  0 0 1 0 0  0 0 0 1 0"/>
						</filter>
					</defs>
					<mask maskUnits="userSpaceOnUse" x="0.417" y="0.499" width="18.044" height="11.474" id="mask-12_1_">
						<g class="st12">
							<path id="path-11_1_" class="st2" d="M0.108,7.858c0.186,0.126,3.727,2.515,3.732,8.584c0.001,1.938,0.003,4.902,0.003,5.058
								l14.579-7.739c0-0.156-0.002-3.119-0.004-5.057c-0.004-6.07-3.545-8.459-3.731-8.584"/>
						</g>
					</mask>
					<path id="Stroke-29" class="st13" d="M1.917,9.738l14.579-7.739c0.156,0.223,0.313,0.468,0.465,0.735l-14.58,7.739
						C2.229,10.206,2.072,9.962,1.917,9.738"/>
				</g>
				<g id="Group-34">
					<g id="Clip-33">
					</g>
					<defs>
						<filter id="Adobe_OpacityMaskFilter_6_" filterUnits="userSpaceOnUse" x="0.88" y="1.235" width="18.041" height="11.655">
							<feColorMatrix  type="matrix" values="1 0 0 0 0  0 1 0 0 0  0 0 1 0 0  0 0 0 1 0"/>
						</filter>
					</defs>
					<mask maskUnits="userSpaceOnUse" x="0.88" y="1.235" width="18.041" height="11.655" id="mask-14_1_">
						<g class="st14">
							<path id="path-13_1_" class="st2" d="M0.108,7.858c0.186,0.126,3.727,2.515,3.732,8.584c0.001,1.938,0.003,4.902,0.003,5.058
								l14.579-7.739c0-0.156-0.002-3.119-0.004-5.057c-0.004-6.07-3.545-8.459-3.731-8.584"/>
						</g>
					</mask>
					<path id="Stroke-32" class="st15" d="M2.38,10.474l14.58-7.739c0.159,0.28,0.315,0.586,0.461,0.916L2.842,11.39
						C2.696,11.059,2.54,10.754,2.38,10.474"/>
				</g>
				<g id="Group-37">
					<g id="Clip-36">
					</g>
					<defs>
						<filter id="Adobe_OpacityMaskFilter_7_" filterUnits="userSpaceOnUse" x="1.342" y="2.151" width="17.981" height="11.798">
							<feColorMatrix  type="matrix" values="1 0 0 0 0  0 1 0 0 0  0 0 1 0 0  0 0 0 1 0"/>
						</filter>
					</defs>
					<mask maskUnits="userSpaceOnUse" x="1.342" y="2.151" width="17.981" height="11.798" id="mask-16_1_">
						<g class="st16">
							<path id="path-15_1_" class="st2" d="M0.108,7.858c0.186,0.126,3.727,2.515,3.732,8.584c0.001,1.938,0.003,4.902,0.003,5.058
								l14.579-7.739c0-0.156-0.002-3.119-0.004-5.057c-0.004-6.07-3.545-8.459-3.731-8.584"/>
						</g>
					</mask>
					<path id="Stroke-35" class="st17" d="M2.842,11.39l14.579-7.739c0.145,0.327,0.281,0.68,0.402,1.059L3.245,12.449
						C3.123,12.07,2.988,11.717,2.842,11.39"/>
				</g>
				<g id="Group-40">
					<g id="Clip-39">
					</g>
					<defs>
						<filter id="Adobe_OpacityMaskFilter_8_" filterUnits="userSpaceOnUse" x="1.746" y="3.21" width="18" height="12.51">
							<feColorMatrix  type="matrix" values="1 0 0 0 0  0 1 0 0 0  0 0 1 0 0  0 0 0 1 0"/>
						</filter>
					</defs>
					<mask maskUnits="userSpaceOnUse" x="1.746" y="3.21" width="18" height="12.51" id="mask-18_1_">
						<g class="st18">
							<path id="path-17_1_" class="st2" d="M0.108,7.858c0.186,0.126,3.727,2.515,3.732,8.584c0.001,1.938,0.003,4.902,0.003,5.058
								l14.579-7.739c0-0.156-0.002-3.119-0.004-5.057c-0.004-6.07-3.545-8.459-3.731-8.584"/>
						</g>
					</mask>
					<path id="Stroke-38" class="st19" d="M3.246,12.448L17.824,4.71c0.174,0.537,0.318,1.127,0.422,1.771L3.668,14.22
						C3.564,13.575,3.419,12.985,3.246,12.448"/>
				</g>
				<g id="Group-43">
					<g id="Clip-42">
					</g>
					<defs>
						<filter id="Adobe_OpacityMaskFilter_9_" filterUnits="userSpaceOnUse" x="2.168" y="4.982" width="17.754" height="18.018">
							<feColorMatrix  type="matrix" values="1 0 0 0 0  0 1 0 0 0  0 0 1 0 0  0 0 0 1 0"/>
						</filter>
					</defs>
					<mask maskUnits="userSpaceOnUse" x="2.168" y="4.982" width="17.754" height="18.018" id="mask-20_1_">
						<g class="st20">
							<path id="path-19_1_" class="st2" d="M0.108,7.858c0.186,0.126,3.727,2.515,3.732,8.584c0.001,1.938,0.003,4.902,0.003,5.058
								l14.579-7.739c0-0.156-0.002-3.119-0.004-5.057c-0.004-6.07-3.545-8.459-3.731-8.584"/>
						</g>
					</mask>
					<path id="Stroke-41" class="st21" d="M3.668,14.221l14.578-7.739c0.11,0.678,0.172,1.418,0.172,2.221
						c0.002,1.939,0.004,4.902,0.004,5.058L3.843,21.5c0-0.156-0.002-3.12-0.003-5.058C3.839,15.638,3.775,14.899,3.668,14.221"/>
				</g>
			</g>
			<g id="Group-51" transform="translate(0.000000, 43.201100)">
				<path id="Stroke-45" class="st0" d="M29.107,15.858L43.686,8.12c0.187,0.125,3.728,2.513,3.732,8.583
					c0.001,1.938,0.003,4.901,0.003,5.057L32.842,29.5c0-0.157-0.002-3.121-0.003-5.059C32.835,18.373,29.294,15.984,29.107,15.858z
					"/>
				<path id="Stroke-47" class="st0" d="M29.107,15.858c0.187,0.126,3.728,2.515,3.732,8.583c0.001,1.938,0.003,4.902,0.003,5.059
					L0.503,10.068c0,0.067,0-0.437-0.003-4.175C0.495-1.119,4.493,1.079,4.703,1.195L29.107,15.858z"/>
				<path id="Stroke-49" class="st0" d="M1.496,1.587c1.198-1.497,3.065-0.47,3.207-0.392l24.404,14.663
					c0.187,0.126,3.728,2.515,3.733,8.583c0.001,1.939,0.003,4.903,0.003,5.059"/>
			</g>
			<g id="Group-54" transform="translate(0.000000, 45.201100)">
				<g id="Clip-53">
				</g>
				<defs>
					<filter id="Adobe_OpacityMaskFilter_10_" filterUnits="userSpaceOnUse" x="0.504" y="0.327" width="14.578" height="7.744">
						<feColorMatrix  type="matrix" values="1 0 0 0 0  0 1 0 0 0  0 0 1 0 0  0 0 0 1 0"/>
					</filter>
				</defs>
				<mask maskUnits="userSpaceOnUse" x="0.504" y="0.327" width="14.578" height="7.744" id="mask-22_1_">
					<g class="st22">
						<polygon id="path-21_1_" class="st2" points="0.504,8.065 0.504,8.071 15.082,0.332 15.082,0.327 						"/>
					</g>
				</mask>
				<polygon id="Fill-52" class="st23" points="0.504,8.065 15.082,0.327 15.082,0.332 0.504,8.071 				"/>
			</g>
			<path id="Fill-55" class="st24" d="M2.173,44.214l14.578-7.739c1.121-0.595,2.414,0.115,2.531,0.179l-14.58,7.74
				C4.585,44.329,3.293,43.618,2.173,44.214"/>
			<g id="Group-66" transform="translate(2.000000, 36.201100)">
				<g id="Group-59">
					<g id="Clip-58">
					</g>
					<defs>
						<filter id="Adobe_OpacityMaskFilter_11_" filterUnits="userSpaceOnUse" x="0.173" y="0.148" width="14.871" height="7.865">
							<feColorMatrix  type="matrix" values="1 0 0 0 0  0 1 0 0 0  0 0 1 0 0  0 0 0 1 0"/>
						</filter>
					</defs>
					<mask maskUnits="userSpaceOnUse" x="0.173" y="0.148" width="14.871" height="7.865" id="mask-24_1_">
						<g class="st25">
							<path id="path-23_1_" class="st2" d="M14.752,0.274L0.173,8.013c1.121-0.596,2.413,0.115,2.53,0.18l14.58-7.74
								c-0.083-0.045-0.756-0.415-1.541-0.415C15.42,0.038,15.078,0.1,14.752,0.274"/>
						</g>
					</mask>
					<path id="Fill-57" class="st26" d="M0.173,8.013l14.578-7.739c0.098-0.051,0.195-0.093,0.293-0.126L0.466,7.887
						C0.366,7.92,0.269,7.961,0.173,8.013"/>
				</g>
				<g id="Group-62">
					<g id="Clip-61">
					</g>
					<defs>
						<filter id="Adobe_OpacityMaskFilter_12_" filterUnits="userSpaceOnUse" x="0.466" y="0.038" width="15.63" height="7.849">
							<feColorMatrix  type="matrix" values="1 0 0 0 0  0 1 0 0 0  0 0 1 0 0  0 0 0 1 0"/>
						</filter>
					</defs>
					<mask maskUnits="userSpaceOnUse" x="0.466" y="0.038" width="15.63" height="7.849" id="mask-26_1_">
						<g class="st27">
							<path id="path-25_1_" class="st2" d="M14.752,0.274L0.173,8.013c1.121-0.596,2.413,0.115,2.53,0.18l14.58-7.74
								c-0.083-0.045-0.756-0.415-1.541-0.415C15.42,0.038,15.078,0.1,14.752,0.274"/>
						</g>
					</mask>
					<path id="Fill-60" class="st28" d="M0.466,7.887l14.578-7.739c0.36-0.121,0.724-0.129,1.052-0.086L1.517,7.801
						C1.189,7.757,0.824,7.766,0.466,7.887"/>
				</g>
				<g id="Group-65">
					<g id="Clip-64">
					</g>
					<defs>
						<filter id="Adobe_OpacityMaskFilter_13_" filterUnits="userSpaceOnUse" x="1.517" y="0.062" width="15.766" height="8.131">
							<feColorMatrix  type="matrix" values="1 0 0 0 0  0 1 0 0 0  0 0 1 0 0  0 0 0 1 0"/>
						</filter>
					</defs>
					<mask maskUnits="userSpaceOnUse" x="1.517" y="0.062" width="15.766" height="8.131" id="mask-28_1_">
						<g class="st29">
							<path id="path-27_1_" class="st2" d="M14.752,0.274L0.173,8.013c1.121-0.596,2.413,0.115,2.53,0.18l14.58-7.74
								c-0.083-0.045-0.756-0.415-1.541-0.415C15.42,0.038,15.078,0.1,14.752,0.274"/>
						</g>
					</mask>
					<path id="Fill-63" class="st30" d="M1.517,7.801l14.579-7.739c0.624,0.083,1.116,0.353,1.187,0.391l-14.58,7.74
						C2.632,8.154,2.141,7.883,1.517,7.801"/>
				</g>
			</g>
			<polygon id="Fill-67" class="st31" points="4.703,44.393 19.283,36.654 43.686,51.318 29.107,59.056 			"/>
			<g id="Group-87" transform="translate(29.000000, 51.201100)">
				<g id="Group-71">
					<g id="Clip-70">
					</g>
					<defs>
						<filter id="Adobe_OpacityMaskFilter_14_" filterUnits="userSpaceOnUse" x="0.107" y="0.117" width="16.392" height="9.623">
							<feColorMatrix  type="matrix" values="1 0 0 0 0  0 1 0 0 0  0 0 1 0 0  0 0 0 1 0"/>
						</filter>
					</defs>
					<mask maskUnits="userSpaceOnUse" x="0.107" y="0.117" width="16.392" height="9.623" id="mask-30_1_">
						<g class="st32">
							<path id="path-29_1_" class="st2" d="M0.108,7.856c0.186,0.126,3.734,2.525,3.737,8.587c0.002,1.938,0.005,4.902,0.005,5.058
								l14.578-7.739c0-0.156-0.003-3.12-0.004-5.058c-0.004-6.061-3.551-8.461-3.737-8.587"/>
						</g>
					</mask>
					<path id="Fill-69" class="st33" d="M0.107,7.855l14.579-7.738c0.089,0.059,0.943,0.637,1.813,1.884L1.919,9.74
						C1.05,8.493,0.197,7.916,0.107,7.855"/>
				</g>
				<g id="Group-74">
					<g id="Clip-73">
					</g>
					<defs>
						<filter id="Adobe_OpacityMaskFilter_15_" filterUnits="userSpaceOnUse" x="1.92" y="2.001" width="15.045" height="8.476">
							<feColorMatrix  type="matrix" values="1 0 0 0 0  0 1 0 0 0  0 0 1 0 0  0 0 0 1 0"/>
						</filter>
					</defs>
					<mask maskUnits="userSpaceOnUse" x="1.92" y="2.001" width="15.045" height="8.476" id="mask-32_1_">
						<g class="st34">
							<path id="path-31_1_" class="st2" d="M0.108,7.856c0.186,0.126,3.734,2.525,3.737,8.587c0.002,1.938,0.005,4.902,0.005,5.058
								l14.578-7.739c0-0.156-0.003-3.12-0.004-5.058c-0.004-6.061-3.551-8.461-3.737-8.587"/>
						</g>
					</mask>
					<path id="Fill-72" class="st35" d="M1.92,9.74l14.579-7.739c0.157,0.224,0.314,0.469,0.466,0.738L2.387,10.477
						C2.233,10.21,2.076,9.964,1.92,9.74"/>
				</g>
				<g id="Group-77">
					<g id="Clip-76">
					</g>
					<defs>
						<filter id="Adobe_OpacityMaskFilter_16_" filterUnits="userSpaceOnUse" x="2.386" y="2.739" width="15.043" height="8.659">
							<feColorMatrix  type="matrix" values="1 0 0 0 0  0 1 0 0 0  0 0 1 0 0  0 0 0 1 0"/>
						</filter>
					</defs>
					<mask maskUnits="userSpaceOnUse" x="2.386" y="2.739" width="15.043" height="8.659" id="mask-34_1_">
						<g class="st36">
							<path id="path-33_1_" class="st2" d="M0.108,7.856c0.186,0.126,3.734,2.525,3.737,8.587c0.002,1.938,0.005,4.902,0.005,5.058
								l14.578-7.739c0-0.156-0.003-3.12-0.004-5.058c-0.004-6.061-3.551-8.461-3.737-8.587"/>
						</g>
					</mask>
					<path id="Fill-75" class="st37" d="M2.386,10.477l14.578-7.738c0.161,0.281,0.318,0.588,0.465,0.92l-14.58,7.739
						C2.702,11.065,2.546,10.758,2.386,10.477"/>
				</g>
				<g id="Group-80">
					<g id="Clip-79">
					</g>
					<defs>
						<filter id="Adobe_OpacityMaskFilter_17_" filterUnits="userSpaceOnUse" x="2.849" y="3.659" width="14.982" height="8.797">
							<feColorMatrix  type="matrix" values="1 0 0 0 0  0 1 0 0 0  0 0 1 0 0  0 0 0 1 0"/>
						</filter>
					</defs>
					<mask maskUnits="userSpaceOnUse" x="2.849" y="3.659" width="14.982" height="8.797" id="mask-36_1_">
						<g class="st38">
							<path id="path-35_1_" class="st2" d="M0.108,7.856c0.186,0.126,3.734,2.525,3.737,8.587c0.002,1.938,0.005,4.902,0.005,5.058
								l14.578-7.739c0-0.156-0.003-3.12-0.004-5.058c-0.004-6.061-3.551-8.461-3.737-8.587"/>
						</g>
					</mask>
					<path id="Fill-78" class="st39" d="M2.849,11.398l14.58-7.739c0.145,0.327,0.28,0.679,0.402,1.058L3.252,12.456
						C3.13,12.078,2.995,11.725,2.849,11.398"/>
				</g>
				<g id="Group-83">
					<g id="Clip-82">
					</g>
					<defs>
						<filter id="Adobe_OpacityMaskFilter_18_" filterUnits="userSpaceOnUse" x="3.253" y="4.718" width="15.001" height="9.509">
							<feColorMatrix  type="matrix" values="1 0 0 0 0  0 1 0 0 0  0 0 1 0 0  0 0 0 1 0"/>
						</filter>
					</defs>
					<mask maskUnits="userSpaceOnUse" x="3.253" y="4.718" width="15.001" height="9.509" id="mask-38_1_">
						<g class="st40">
							<path id="path-37_1_" class="st2" d="M0.108,7.856c0.186,0.126,3.734,2.525,3.737,8.587c0.002,1.938,0.005,4.902,0.005,5.058
								l14.578-7.739c0-0.156-0.003-3.12-0.004-5.058c-0.004-6.061-3.551-8.461-3.737-8.587"/>
						</g>
					</mask>
					<path id="Fill-81" class="st41" d="M3.253,12.456l14.579-7.738c0.173,0.537,0.318,1.127,0.422,1.771l-14.58,7.738
						C3.57,13.583,3.426,12.993,3.253,12.456"/>
				</g>
				<g id="Group-86">
					<g id="Clip-85">
					</g>
					<defs>
						<filter id="Adobe_OpacityMaskFilter_19_" filterUnits="userSpaceOnUse" x="3.673" y="6.489" width="14.754" height="15.011">
							<feColorMatrix  type="matrix" values="1 0 0 0 0  0 1 0 0 0  0 0 1 0 0  0 0 0 1 0"/>
						</filter>
					</defs>
					<mask maskUnits="userSpaceOnUse" x="3.673" y="6.489" width="14.754" height="15.011" id="mask-40_1_">
						<g class="st42">
							<path id="path-39_1_" class="st2" d="M0.108,7.856c0.186,0.126,3.734,2.525,3.737,8.587c0.002,1.938,0.005,4.902,0.005,5.058
								l14.578-7.739c0-0.156-0.003-3.12-0.004-5.058c-0.004-6.061-3.551-8.461-3.737-8.587"/>
						</g>
					</mask>
					<path id="Fill-84" class="st43" d="M3.673,14.227l14.58-7.738c0.108,0.676,0.17,1.413,0.171,2.215
						c0.001,1.937,0.003,4.901,0.003,5.057L3.849,21.5c0-0.156-0.002-3.12-0.004-5.058C3.845,15.641,3.782,14.904,3.673,14.227"/>
				</g>
			</g>
			<g id="Group-146" transform="translate(0.000000, 0.201100)">
				<path id="Fill-88" class="st31" d="M29.107,58.855c0.187,0.126,3.734,2.525,3.738,8.587c0.002,1.938,0.004,4.902,0.004,5.059
					L0.503,53.065c0,0.068,0-0.437-0.003-4.175c-0.004-7.012,3.993-4.814,4.203-4.698L29.107,58.855z"/>
				<path id="Stroke-90" class="st44" d="M1.996,44.587c1.198-1.497,3.065-0.47,3.207-0.392l24.404,14.663
					c0.187,0.126,3.728,2.515,3.733,8.583c0.001,1.939,0.003,4.903,0.003,5.059"/>
				<path id="Fill-92" class="st45" d="M31.545,14.916c0,0.688-0.559,1.247-1.246,1.247c-0.69,0-1.248-0.559-1.248-1.247V1.546
					c0-0.69,0.558-1.247,1.248-1.247c0.687,0,1.246,0.557,1.246,1.247V14.916z"/>
				<path id="Fill-94" class="st46" d="M20.211,0.864c0,0-1.437-0.75-3.875,0.5c-2.437,1.25-2.291,2.459-2.459,2.751
					c-0.223,0.392-0.166,1.624-0.166,1.624v38.807c0,0-0.125,0.562,0,1.25c0.125,0.687,1,1.625,1,1.625l12.625,7.5
					c0,0,1.188,0.812,2,0.75c0.813-0.063,1.375,0.125,3.125-1c1.75-1.125,2.125-3,2.125-3V11.364c0,0,0-1.375-0.375-1.875s-1-1-1-1
					L20.211,0.864z"/>
				<path id="Stroke-96" class="st47" d="M13.065,35.864v8.15c0,0-0.134,0.6,0,1.334c0.134,0.735,1.067,1.734,1.067,1.734
					l13.471,8.004c0,0,1.268,0.866,2.135,0.799c0.866-0.067,1.466,0.134,3.334-1.067c1.867-1.2,2.267-3.201,2.267-3.201v-6.722"/>
				<path id="Fill-98" class="st48" d="M33.086,10.864c0.236,0.682-0.361,1.507-1.332,1.843c-0.973,0.336-1.951,0.055-2.187-0.626
					c-0.236-0.682,0.361-1.507,1.333-1.843C31.871,9.902,32.85,10.182,33.086,10.864"/>
				<path id="Fill-100" class="st49" d="M32.457,10.979c0.136,0.392-0.172,0.854-0.687,1.031c-0.516,0.179-1.044,0.006-1.18-0.385
					c-0.135-0.393,0.173-0.854,0.688-1.033C31.793,10.414,32.321,10.586,32.457,10.979"/>
				<path id="Fill-102" class="st50" d="M19.721,25.407c0,0.27-0.173,0.382-0.388,0.253l-2.841-1.707
					c-0.211-0.127-0.387-0.449-0.387-0.719v-2.235c0-0.266,0.176-0.377,0.387-0.25l2.841,1.707c0.215,0.129,0.388,0.45,0.388,0.716
					V25.407z"/>
				<path id="Fill-104" class="st50" d="M24.619,28.351c0,0.27-0.176,0.38-0.389,0.252l-2.839-1.706
					c-0.213-0.128-0.388-0.449-0.388-0.719v-2.235c0-0.266,0.175-0.378,0.388-0.25l2.839,1.706c0.213,0.128,0.389,0.451,0.389,0.717
					V28.351z"/>
				<path id="Fill-106" class="st50" d="M29.49,31.277c0,0.27-0.174,0.381-0.389,0.251l-2.84-1.706
					c-0.212-0.128-0.387-0.448-0.387-0.718v-2.235c0-0.266,0.175-0.379,0.387-0.251l2.84,1.706c0.215,0.13,0.389,0.452,0.389,0.718
					V31.277z"/>
				<path id="Fill-108" class="st50" d="M19.721,30.12c0,0.269-0.173,0.382-0.388,0.253l-2.841-1.707
					c-0.211-0.127-0.387-0.45-0.387-0.719v-2.235c0-0.267,0.176-0.377,0.387-0.25l2.841,1.707c0.215,0.129,0.388,0.449,0.388,0.716
					V30.12z"/>
				<path id="Fill-110" class="st50" d="M24.619,33.063c0,0.269-0.176,0.38-0.389,0.252l-2.839-1.706
					c-0.213-0.128-0.388-0.45-0.388-0.719v-2.235c0-0.267,0.175-0.378,0.388-0.25l2.839,1.706c0.213,0.128,0.389,0.45,0.389,0.717
					V33.063z"/>
				<path id="Fill-112" class="st50" d="M29.49,35.99c0,0.269-0.174,0.381-0.389,0.251l-2.84-1.706
					c-0.212-0.128-0.387-0.449-0.387-0.718v-2.235c0-0.267,0.175-0.379,0.387-0.251l2.84,1.706c0.215,0.13,0.389,0.451,0.389,0.718
					V35.99z"/>
				<path id="Fill-114" class="st50" d="M19.721,34.816c0,0.269-0.173,0.382-0.388,0.253l-2.841-1.707
					c-0.211-0.127-0.387-0.45-0.387-0.719v-2.234c0-0.268,0.176-0.377,0.387-0.25l2.841,1.707c0.215,0.129,0.388,0.448,0.388,0.716
					V34.816z"/>
				<path id="Fill-116" class="st50" d="M24.619,37.76c0,0.269-0.176,0.38-0.389,0.252l-2.839-1.706
					c-0.213-0.128-0.388-0.45-0.388-0.719v-2.234c0-0.268,0.175-0.378,0.388-0.25l2.839,1.706c0.213,0.128,0.389,0.449,0.389,0.717
					V37.76z"/>
				<path id="Fill-118" class="st50" d="M29.49,40.686c0,0.269-0.174,0.381-0.389,0.251l-2.84-1.706
					c-0.212-0.128-0.387-0.449-0.387-0.718v-2.234c0-0.268,0.175-0.379,0.387-0.251l2.84,1.706c0.215,0.13,0.389,0.45,0.389,0.718
					V40.686z"/>
				<path id="Fill-120" class="st50" d="M19.721,39.628c0,0.268-0.173,0.381-0.388,0.252l-2.841-1.707
					c-0.211-0.127-0.387-0.45-0.387-0.718V35.22c0-0.269,0.176-0.38,0.387-0.253l2.841,1.707c0.215,0.129,0.388,0.45,0.388,0.719
					V39.628z"/>
				<path id="Fill-122" class="st50" d="M24.619,42.571c0,0.268-0.176,0.379-0.389,0.251l-2.839-1.706
					c-0.213-0.128-0.388-0.45-0.388-0.718v-2.235c0-0.269,0.175-0.381,0.388-0.253l2.839,1.706c0.213,0.128,0.389,0.451,0.389,0.72
					V42.571z"/>
				<path id="Fill-124" class="st50" d="M29.49,45.498c0,0.268-0.174,0.38-0.389,0.25l-2.84-1.706
					c-0.212-0.128-0.387-0.449-0.387-0.717V41.09c0-0.269,0.175-0.382,0.387-0.254l2.84,1.706c0.215,0.13,0.389,0.452,0.389,0.721
					V45.498z"/>
				<path id="Fill-126" class="st50" d="M29.144,24.476c0,0.908-0.623,1.27-1.394,0.807l-10.194-6.125
					c-0.769-0.463-1.392-1.574-1.392-2.482V9.082c0-0.908,0.623-1.27,1.392-0.807l10.194,6.125c0.771,0.463,1.394,1.574,1.394,2.482
					V24.476z"/>
				<polygon id="Fill-128" class="st50" points="26.097,47.291 18.251,42.576 18.251,42.074 26.097,46.789 				"/>
				<polygon id="Fill-130" class="st50" points="26.097,48.316 18.251,43.601 18.251,43.098 26.097,47.813 				"/>
				<polygon id="Fill-132" class="st50" points="26.097,49.359 18.251,44.644 18.251,44.141 26.097,48.856 				"/>
				<path id="Stroke-134" class="st44" d="M31.886,48.957V11.934"/>
				<path id="Stroke-136" class="st44" d="M30.553,6.623V2.198"/>
				<polygon id="Fill-138" class="st50" points="5.121,45.389 7.561,46.856 8.715,55.208 8.742,55.222 9.908,48.267 12.35,49.733 
					10.151,58.318 7.25,56.576 				"/>
				<path id="Fill-140" class="st50" d="M15.429,55.26c-0.648-0.39-0.838,0.15-0.838,1.968c0,1.831,0.19,2.593,0.838,2.983
					c0.68,0.408,0.815-0.132,0.815-1.977C16.244,56.377,16.109,55.669,15.429,55.26 M12.394,55.934c0-2.247,0.486-3.675,3.023-2.15
					c2.686,1.614,3.027,3.495,3.027,5.743c0,2.246-0.492,3.671-3.027,2.149C12.73,60.061,12.394,58.183,12.394,55.934"/>
				<polygon id="Fill-142" class="st50" points="19.361,53.946 21.638,55.314 21.638,65.219 19.361,63.85 				"/>
				<path id="Fill-144" class="st50" d="M25.185,61.761l0.623,0.376c0.908,0.546,1.129,0.093,1.129-0.572
					c0-0.762-0.246-1.493-1.168-2.048l-0.584-0.35V61.761z M22.904,56.076l3.529,2.121c2.398,1.439,2.863,3.495,2.863,4.731
					c0,1.773-0.828,2.525-3.107,1.156l-1.004-0.603v3.87l-2.281-1.37V56.076z"/>
			</g>
		</g>
	</g>
</g>
</svg>
