<?xml version="1.0" encoding="UTF-8" standalone="no"?>
<svg
   id="uuid-173514f7-d6a5-4df7-83a0-8833f8861386"
   width="17.999992"
   height="16.068001"
   viewBox="0 0 17.999992 16.068001"
   version="1.1"
   xmlns="http://www.w3.org/2000/svg"
   xmlns:svg="http://www.w3.org/2000/svg">
  <defs
     id="defs27">
    <linearGradient
       id="uuid-f61a6413-da35-4353-bed6-78a7884009fa"
       x1="7.697"
       y1="779.14099"
       x2="14.082"
       y2="786.60303"
       gradientTransform="matrix(1,0,0,-1,0,791.516)"
       gradientUnits="userSpaceOnUse">
      <stop
         offset="0"
         stop-color="#225086"
         id="stop2" />
      <stop
         offset="1"
         stop-color="#0055c5"
         id="stop4" />
    </linearGradient>
    <linearGradient
       id="uuid-cb1c2182-b5f9-4289-b12e-61332c9846d1"
       x1="9.0010004"
       y1="775.92798"
       x2="9.0010004"
       y2="794.81702"
       gradientTransform="matrix(1,0,0,-1,0,791.516)"
       gradientUnits="userSpaceOnUse">
      <stop
         offset="0"
         stop-color="#44dbf9"
         id="stop7" />
      <stop
         offset="1"
         stop-color="#cbf8ff"
         id="stop9" />
    </linearGradient>
    <linearGradient
       id="uuid-ccdab7a0-f665-4cee-84d6-22b22e7e84f8"
       x1="6.3639998"
       y1="778.13599"
       x2="6.3639998"
       y2="794.38397"
       gradientTransform="matrix(1,0,0,-1,0,791.516)"
       gradientUnits="userSpaceOnUse">
      <stop
         offset="0"
         stop-color="#6df"
         id="stop12" />
      <stop
         offset="1"
         stop-color="#0294e4"
         id="stop14" />
    </linearGradient>
    <linearGradient
       id="uuid-1020a2ff-bef7-42c0-a2f4-b199d71e5873"
       x1="13.5"
       y1="774.69299"
       x2="13.5"
       y2="790.75403"
       gradientTransform="matrix(1,0,0,-1,0,791.516)"
       gradientUnits="userSpaceOnUse">
      <stop
         offset="0"
         stop-color="#041642"
         id="stop17" />
      <stop
         offset="1"
         stop-color="#041642"
         stop-opacity=".25"
         id="stop19" />
    </linearGradient>
    <linearGradient
       id="uuid-4620e84d-7910-4a6f-93b2-695acb750ffb"
       x1="13.5"
       y1="17.034"
       x2="13.5"
       y2="8.507"
       gradientUnits="userSpaceOnUse">
      <stop
         offset=".001"
         stop-color="#e62323"
         id="stop22" />
      <stop
         offset="1"
         stop-color="#f04049"
         id="stop24" />
    </linearGradient>
  </defs>
  <g
     id="g39"
     transform="translate(-3.6435589e-6,-0.966)">
    <path
       d="m 17.647,9.933 -7.5,-8.46 C 9.548,0.797 8.453,0.797 7.853,1.473 l -7.5,8.46 c -0.579,0.654 -0.428,1.641 0.323,2.111 l 7.499,4.688 c 0.5,0.313 1.148,0.313 1.648,0 l 7.499,-4.688 c 0.751,-0.469 0.902,-1.457 0.323,-2.111 v 0 z"
       fill="url(#uuid-f61a6413-da35-4353-bed6-78a7884009fa)"
       stroke-width="0"
       id="path29"
       style="fill:url(#uuid-f61a6413-da35-4353-bed6-78a7884009fa)" />
    <polygon
       points="9.001,12.893 9.001,12.893 13.365,10.165 13.366,10.165 13.365,10.165 9.001,5.241 4.636,10.165 4.688,10.197 "
       fill="url(#uuid-cb1c2182-b5f9-4289-b12e-61332c9846d1)"
       stroke-width="0"
       id="polygon31"
       style="fill:url(#uuid-cb1c2182-b5f9-4289-b12e-61332c9846d1)" />
    <g
       id="g37">
      <path
         d="M 10.148,1.473 C 9.549,0.797 8.454,0.797 7.854,1.473 l -7.5,8.46 c -0.579,0.654 -0.428,1.641 0.323,2.111 0,0 2.776,1.735 3.126,1.954 0.388,0.242 1.033,0.511 1.715,0.511 0.621,0 1.197,-0.18 1.676,-0.487 0,0 0,0 0.002,-10e-4 L 9,12.893 4.636,10.165 9.11,5.118 c 0.55,-0.627 1.377,-1.026 2.302,-1.026 0.472,0 0.917,0.107 1.314,0.292 L 10.147,1.475 V 1.473 Z"
         fill="url(#uuid-ccdab7a0-f665-4cee-84d6-22b22e7e84f8)"
         stroke-width="0"
         id="path33"
         style="fill:url(#uuid-ccdab7a0-f665-4cee-84d6-22b22e7e84f8)" />
      <path
         d="m 9.001,16.967 c 0.287,0 0.574,-0.078 0.824,-0.234 l 7.499,-4.688 c 0.751,-0.469 0.902,-1.457 0.323,-2.111 L 10.148,1.473 C 9.848,1.135 9.425,0.966 9.001,0.966 Z"
         fill="url(#uuid-1020a2ff-bef7-42c0-a2f4-b199d71e5873)"
         fill-opacity="0.5"
         isolation="isolate"
         opacity="0.5"
         stroke-width="0"
         id="path35"
         style="fill:url(#uuid-1020a2ff-bef7-42c0-a2f4-b199d71e5873)" />
    </g>
  </g>
  <g
     id="g45"
     transform="translate(-3.6435589e-6,-0.966)">
    <path
       d="m 13.52,17.034 v 0 c 4.376,-3.137 4.476,-4.926 4.476,-5.485 0,-0.799 -0.08,-2.877 -2.168,-2.997 C 14.796,8.468 13.839,9.093 13.5,10.071 13.182,9.086 12.235,8.444 11.202,8.512 9.114,8.662 9.004,10.75 9.004,11.549 c 0,0.56 0.13,2.348 4.466,5.455"
       fill="url(#uuid-4620e84d-7910-4a6f-93b2-695acb750ffb)"
       stroke-width="0"
       id="path41"
       style="fill:url(#uuid-4620e84d-7910-4a6f-93b2-695acb750ffb)" />
    <path
       d="m 17.996,11.229 h -1.998 c -0.057,0.001 -0.11,0.031 -0.14,0.08 l -0.629,1.069 c -0.021,0.039 -0.07,0.053 -0.109,0.031 -0.013,-0.007 -0.024,-0.018 -0.031,-0.031 L 14.14,10.66 c -0.031,-0.083 -0.123,-0.125 -0.205,-0.094 -0.044,0.016 -0.078,0.051 -0.094,0.094 l -0.839,2.598 C 12.987,13.299 12.941,13.32 12.899,13.305 12.877,13.297 12.86,13.28 12.852,13.258 L 12.093,11.51 c -0.037,-0.08 -0.132,-0.115 -0.212,-0.077 -0.034,0.016 -0.061,0.043 -0.077,0.077 l -0.999,1.818 c -0.028,0.057 -0.086,0.092 -0.15,0.09 H 9.696 c 0.147,0.225 0.308,0.442 0.48,0.649 h 0.829 c 0.059,-0.004 0.112,-0.038 0.14,-0.09 l 0.709,-1.319 0.999,2.188 c 0.031,0.083 0.123,0.125 0.205,0.094 0.044,-0.016 0.078,-0.051 0.094,-0.094 L 14.151,11.919 15,13.578 c 0.043,0.077 0.14,0.105 0.217,0.062 0.026,-0.015 0.048,-0.036 0.062,-0.062 l 0.999,-1.619 c 0.03,-0.048 0.083,-0.078 0.14,-0.08 h 1.579"
       fill="#ffffff"
       stroke-width="0"
       id="path43" />
  </g>
</svg>
