<?xml version="1.0" encoding="UTF-8" standalone="no"?>
<svg
   id="uuid-77cc03fe-cfc2-446b-95f3-9fef5e772b33"
   width="17.999992"
   height="16.082092"
   viewBox="0 0 17.999992 16.082092"
   version="1.1"
   xmlns="http://www.w3.org/2000/svg"
   xmlns:svg="http://www.w3.org/2000/svg">
  <defs
     id="defs22">
    <linearGradient
       id="uuid-9d0070d1-e6c3-4bd4-b769-bd580face6b5"
       x1="7.697"
       y1="779.14801"
       x2="14.082"
       y2="786.60999"
       gradientTransform="matrix(1,0,0,-1,0,791.516)"
       gradientUnits="userSpaceOnUse">
      <stop
         offset="0"
         stop-color="#225086"
         id="stop2" />
      <stop
         offset="1"
         stop-color="#0055c5"
         id="stop4" />
    </linearGradient>
    <linearGradient
       id="uuid-fb07e9fb-fda1-4a99-a975-89a57f51488c"
       x1="9.0010004"
       y1="775.935"
       x2="9.0010004"
       y2="794.82397"
       gradientTransform="matrix(1,0,0,-1,0,791.516)"
       gradientUnits="userSpaceOnUse">
      <stop
         offset="0"
         stop-color="#44dbf9"
         id="stop7" />
      <stop
         offset="1"
         stop-color="#cbf8ff"
         id="stop9" />
    </linearGradient>
    <linearGradient
       id="uuid-0c7ec16c-4a4b-408a-abd1-068f8547eaaa"
       x1="6.3639998"
       y1="778.14301"
       x2="6.3639998"
       y2="794.39099"
       gradientTransform="matrix(1,0,0,-1,0,791.516)"
       gradientUnits="userSpaceOnUse">
      <stop
         offset="0"
         stop-color="#6df"
         id="stop12" />
      <stop
         offset="1"
         stop-color="#0294e4"
         id="stop14" />
    </linearGradient>
    <linearGradient
       id="uuid-7312c86b-36d7-451e-ab4d-b3e40d80aa42"
       x1="13.5"
       y1="774.70001"
       x2="13.5"
       y2="790.76099"
       gradientTransform="matrix(1,0,0,-1,0,791.516)"
       gradientUnits="userSpaceOnUse">
      <stop
         offset="0"
         stop-color="#041642"
         id="stop17" />
      <stop
         offset="1"
         stop-color="#041642"
         stop-opacity=".25"
         id="stop19" />
    </linearGradient>
  </defs>
  <g
     id="g34"
     transform="translate(-3.6435589e-6,-0.959)">
    <path
       d="m 17.647,9.926 -7.5,-8.46 C 9.548,0.79 8.453,0.79 7.853,1.466 l -7.5,8.46 c -0.579,0.654 -0.428,1.641 0.323,2.111 l 7.499,4.688 c 0.5,0.313 1.148,0.313 1.648,0 l 7.499,-4.688 c 0.751,-0.469 0.902,-1.457 0.323,-2.111 v 0 z"
       fill="url(#uuid-9d0070d1-e6c3-4bd4-b769-bd580face6b5)"
       stroke-width="0"
       id="path24"
       style="fill:url(#uuid-9d0070d1-e6c3-4bd4-b769-bd580face6b5)" />
    <polygon
       points="9.001,12.886 9.001,12.886 13.365,10.158 13.366,10.158 13.365,10.158 9.001,5.234 4.636,10.158 4.688,10.19 "
       fill="url(#uuid-fb07e9fb-fda1-4a99-a975-89a57f51488c)"
       stroke-width="0"
       id="polygon26"
       style="fill:url(#uuid-fb07e9fb-fda1-4a99-a975-89a57f51488c)" />
    <g
       id="g32">
      <path
         d="M 10.148,1.466 C 9.549,0.79 8.454,0.79 7.854,1.466 l -7.5,8.46 c -0.579,0.654 -0.428,1.641 0.323,2.111 0,0 2.776,1.735 3.126,1.954 0.388,0.242 1.033,0.511 1.715,0.511 0.621,0 1.197,-0.18 1.676,-0.487 0,0 0,0 0.002,-0.001 L 9,12.886 4.636,10.158 9.11,5.111 c 0.55,-0.627 1.377,-1.026 2.302,-1.026 0.472,0 0.917,0.107 1.314,0.292 L 10.147,1.468 V 1.466 Z"
         fill="url(#uuid-0c7ec16c-4a4b-408a-abd1-068f8547eaaa)"
         stroke-width="0"
         id="path28"
         style="fill:url(#uuid-0c7ec16c-4a4b-408a-abd1-068f8547eaaa)" />
      <path
         d="m 9.001,16.96 c 0.287,0 0.574,-0.078 0.824,-0.234 l 7.499,-4.688 c 0.751,-0.469 0.902,-1.457 0.323,-2.111 L 10.148,1.466 C 9.848,1.128 9.425,0.959 9.001,0.959 Z"
         fill="url(#uuid-7312c86b-36d7-451e-ab4d-b3e40d80aa42)"
         fill-opacity="0.5"
         isolation="isolate"
         opacity="0.5"
         stroke-width="0"
         id="path30"
         style="fill:url(#uuid-7312c86b-36d7-451e-ab4d-b3e40d80aa42)" />
    </g>
  </g>
  <g
     id="g48"
     transform="translate(-3.6435589e-6,-0.959)">
    <path
       d="m 17.556,15.66 c 0.243,0 0.44,-0.197 0.44,-0.44 v 0 c 0,-1.362 -1.09,-2.475 -2.452,-2.502 -1.531,0 -2.322,0.951 -2.472,2.502 -0.024,0.242 0.149,0.459 0.39,0.49 h 4.093 v -0.05 z"
       fill="#773adc"
       stroke-width="0"
       id="path36" />
    <path
       d="m 15.544,13.038 c -0.266,0.002 -0.528,-0.074 -0.751,-0.22 l 0.741,1.932 0.731,-1.922 c -0.216,0.135 -0.466,0.208 -0.721,0.21 z"
       fill="#ffffff"
       isolation="isolate"
       opacity="0.8"
       stroke-width="0"
       id="path38" />
    <circle
       cx="15.544"
       cy="11.657"
       r="1.381"
       fill="#773adc"
       stroke-width="0"
       id="circle40" />
    <path
       d="m 14.784,17.041 c 0.359,0.006 0.655,-0.281 0.661,-0.64 0,-0.007 0,-0.013 0,-0.02 v -0.08 c -0.26,-2.052 -1.431,-3.733 -3.673,-3.733 -2.242,0 -3.453,1.421 -3.673,3.743 -0.041,0.357 0.216,0.679 0.573,0.72 0.002,0 0.005,0 0.008,0 h 6.115 l -0.01,0.01 z"
       fill="#a67af4"
       stroke-width="0"
       id="path42" />
    <path
       d="M 11.801,13.058 C 11.406,13.06 11.02,12.945 10.69,12.728 l 1.101,2.932 1.101,-2.872 c -0.33,0.192 -0.709,0.286 -1.091,0.27 z"
       fill="#ffffff"
       isolation="isolate"
       opacity="0.8"
       stroke-width="0"
       id="path44" />
    <circle
       cx="11.791"
       cy="10.997"
       r="2.062"
       fill="#a67af4"
       stroke-width="0"
       id="circle46" />
  </g>
</svg>
