<svg id="uuid-0d2a5dcb-e33e-48bb-80fb-ae31f3395fb5"
	xmlns="http://www.w3.org/2000/svg" width="18" height="18" viewBox="0 0 18 18">
	<defs>
		<linearGradient id="uuid-0242f6ea-4914-423e-ae37-e44a3169af4c" x1="0" y1="7.566" x2="10.155" y2="7.566" gradientUnits="userSpaceOnUse">
			<stop offset=".446" stop-color="#44dbf9" />
			<stop offset=".543" stop-color="#43d7f6" />
			<stop offset=".622" stop-color="#40cded" />
			<stop offset=".696" stop-color="#3cbcdf" />
			<stop offset=".767" stop-color="#36a4cb" />
			<stop offset=".834" stop-color="#2e84b1" />
			<stop offset=".899" stop-color="#255f92" />
			<stop offset=".922" stop-color="#225086" />
		</linearGradient>
		<linearGradient id="uuid-80ece4ca-e52d-45a5-b81e-c1c94dad76b5" x1="7.568" y1="15.133" x2="7.568" y2="0" gradientUnits="userSpaceOnUse">
			<stop offset="0" stop-color="#225086" />
			<stop offset="1" stop-color="#0055c5" />
		</linearGradient>
		<linearGradient id="uuid-339537d3-19de-471f-bf44-72ec6d0d5dbb" x1="11.352" y1="15.133" x2="11.352" y2="0" gradientUnits="userSpaceOnUse">
			<stop offset="0" stop-color="#225086" />
			<stop offset=".508" stop-color="#0294e4" />
			<stop offset="1" stop-color="#6df" />
		</linearGradient>
		<linearGradient id="uuid-bf5f8d51-59ea-4145-9ffd-7416fc5621ea" x1="-550.536" y1="1007.526" x2="-550.536" y2="1013.879" gradientTransform="translate(564 1025.516) scale(1 -1)" gradientUnits="userSpaceOnUse">
			<stop offset="0" stop-color="#275b98" />
			<stop offset="1" stop-color="#3a88ef" />
		</linearGradient>
	</defs>
	<g>
		<path d="m8.954,13.124c.395-.427.883-.747,1.428-.938.272-.424.63-.79,1.052-1.074.621-.418,1.346-.639,2.097-.639h.031c.028,0,.055,0,.083,0,.295,0,.584.038.865.106.402-.923.626-1.941.626-3.012C15.136,3.388,11.748,0,7.568,0S0,3.388,0,7.566s3.388,7.566,7.568,7.566c.16,0,.318-.006.475-.016.083-.741.4-1.44.911-1.993Z" fill="url(#uuid-0242f6ea-4914-423e-ae37-e44a3169af4c)" stroke-width="0" />
		<path d="m8.954,13.124c.395-.427.883-.747,1.428-.938.112-.174.241-.335.38-.487.074-.235.144-.476.205-.728h.694c.568-.326,1.209-.498,1.87-.498h.031c.028,0,.055,0,.083,0,.295,0,.584.038.865.106.402-.923.626-1.941.626-3.012C15.136,3.388,11.748,0,7.568,0S0,3.388,0,7.566s3.388,7.566,7.568,7.566c.16,0,.318-.006.475-.016.083-.741.4-1.44.911-1.993Zm1.082-3.288h-4.936c-.116-.704-.181-1.468-.181-2.27,0-.522.028-1.029.079-1.513h5.141c.051.484.079.991.079,1.513,0,.802-.065,1.566-.181,2.27Zm3.965-2.27c0,.799-.146,1.564-.412,2.27h-2.401c.108-.718.165-1.481.165-2.27,0-.517-.025-1.024-.072-1.514h2.541c.117.485.179.992.179,1.514Zm-3.852-5.893c1.455.638,2.629,1.799,3.283,3.245h-2.306c-.225-1.259-.61-2.363-1.116-3.205l-.081-.132.22.092Zm-2.669-.535l.088-.004.096.005c.955.095,1.876,1.607,2.304,3.779h-4.799c.43-2.177,1.355-3.692,2.312-3.78Zm-2.29.449l.017-.007c-.547.857-.961,2.011-1.198,3.337H1.704c.685-1.513,1.938-2.714,3.487-3.33ZM1.135,7.566c0-.517.061-1.019.176-1.5l.004-.013h2.541c-.047.49-.072.996-.072,1.514,0,.789.057,1.551.165,2.269H1.547c-.266-.706-.412-1.47-.412-2.269Zm.974,3.404h2.06s.077.299.077.299c.24.885.566,1.661.961,2.281-1.288-.508-2.373-1.42-3.098-2.58Zm3.235,0h4.448c-.493,1.826-1.351,3.027-2.224,3.027s-1.73-1.201-2.224-3.027Z" fill="url(#uuid-80ece4ca-e52d-45a5-b81e-c1c94dad76b5)" stroke-width="0" />
		<path d="m8.043,15.116c.083-.741.4-1.44.911-1.993.395-.427.883-.747,1.428-.938.272-.424.63-.79,1.052-1.074.621-.418,1.346-.639,2.097-.639h.031c.028,0,.055,0,.083,0,.292,0,.578.038.857.104.407-.924.635-1.942.635-3.01C15.136,3.388,11.748,0,7.568,0c.581,1.7,1.258,4.318,1.258,7.566s-.676,5.867-1.258,7.566c.16,0,.318-.006.475-.016Z" fill="url(#uuid-339537d3-19de-471f-bf44-72ec6d0d5dbb)" stroke-width="0" />
	</g>
	<path d="m18,15.773v-.015s0-.015,0-.015c-.016-.538-.226-1.053-.59-1.451-.282-.308-.643-.532-1.04-.649-.104-.586-.399-1.126-.844-1.533-.531-.486-1.232-.747-1.954-.728-.58-.008-1.149.161-1.629.484-.409.275-.737.651-.952,1.09-.524.117-1.002.389-1.368.785-.427.462-.673,1.06-.692,1.687v.016s0,.016,0,.016c.028.701.337,1.362.856,1.837.517.473,1.202.725,1.905.702.072,0,.144-.003.212-.009h3.713c.049-.001.097-.006.144-.015.575-.017,1.124-.245,1.539-.643.427-.41.679-.968.701-1.559Z" fill="url(#uuid-bf5f8d51-59ea-4145-9ffd-7416fc5621ea)" stroke-width="0" />
</svg>