<svg id="uuid-bde268e9-50ba-4333-a3f6-c623048b3cce"
	xmlns="http://www.w3.org/2000/svg" width="18" height="18" viewBox="0 0 18 18">
	<defs>
		<linearGradient id="uuid-8bbfc3fb-26a4-4d6b-b792-55fa1eddcc87" x1="0" y1="7.502" x2="10.071" y2="7.502" gradientUnits="userSpaceOnUse">
			<stop offset=".446" stop-color="#44dbf9" />
			<stop offset=".543" stop-color="#43d7f6" />
			<stop offset=".622" stop-color="#40cded" />
			<stop offset=".696" stop-color="#3cbcdf" />
			<stop offset=".767" stop-color="#36a4cb" />
			<stop offset=".834" stop-color="#2e84b1" />
			<stop offset=".899" stop-color="#255f92" />
			<stop offset=".922" stop-color="#225086" />
		</linearGradient>
		<linearGradient id="uuid-04c60a22-61ab-4edb-92ed-057ef7c7cab8" x1="7.506" y1="15.003" x2="7.506" y2="0" gradientUnits="userSpaceOnUse">
			<stop offset="0" stop-color="#225086" />
			<stop offset="1" stop-color="#0055c5" />
		</linearGradient>
		<linearGradient id="uuid-c1b30db9-c90e-476e-b8ef-7b35b575c510" x1="11.259" y1="15.003" x2="11.259" y2="0" gradientUnits="userSpaceOnUse">
			<stop offset="0" stop-color="#225086" />
			<stop offset=".508" stop-color="#0294e4" />
			<stop offset="1" stop-color="#6df" />
		</linearGradient>
		<linearGradient id="uuid-6415574e-68fa-4de0-bf3b-63f212a0a34b" x1="16.681" y1="19.035" x2="12.227" y2="11.203" gradientUnits="userSpaceOnUse">
			<stop offset="0" stop-color="#5e9624" />
			<stop offset="1" stop-color="#86d633" />
		</linearGradient>
	</defs>
	<g>
		<path d="m9.509,12.868c0-1.168.824-2.146,1.922-2.385.182-1.368,1.356-2.426,2.774-2.426.269,0,.529.038.775.11.02-.219.032-.44.032-.665C15.012,3.359,11.651,0,7.506,0S0,3.359,0,7.502s3.36,7.502,7.506,7.502c.694,0,1.365-.096,2.003-.272v-1.863Z" fill="url(#uuid-8bbfc3fb-26a4-4d6b-b792-55fa1eddcc87)" stroke-width="0" />
		<path d="m9.509,12.868c0-1.168.824-2.146,1.922-2.385.034-.256.103-.502.202-.731h-.537c.107-.712.163-1.468.163-2.25,0-.513-.024-1.015-.071-1.501h2.52c.116.481.178.983.178,1.501,0,.195-.01.388-.028.579.114-.014.229-.024.346-.024.269,0,.529.038.775.11.02-.219.032-.44.032-.665C15.012,3.359,11.651,0,7.506,0S0,3.359,0,7.502s3.36,7.502,7.506,7.502c.694,0,1.365-.096,2.003-.272v-1.863Zm.445-3.117h-4.896c-.115-.698-.18-1.456-.18-2.25,0-.518.027-1.02.079-1.501h5.099c.051.48.079.983.079,1.501,0,.795-.065,1.552-.18,2.25Zm.112-8.093c1.443.633,2.607,1.784,3.256,3.217h-2.288c-.223-1.248-.605-2.343-1.107-3.178l-.08-.131.219.091Zm-2.647-.53l.087-.004.095.005c.947.094,1.86,1.594,2.285,3.746h-4.76c.426-2.159,1.343-3.66,2.293-3.747Zm-2.271.446l.017-.007c-.542.849-.953,1.994-1.188,3.308H1.69c.679-1.5,1.922-2.691,3.458-3.302ZM1.126,7.502c0-.512.06-1.01.175-1.488l.004-.013h2.52c-.047.486-.071.988-.071,1.501,0,.782.057,1.538.163,2.25H1.534c-.264-.699-.409-1.458-.409-2.25Zm.966,3.375h2.043s.076.296.076.296c.238.877.561,1.647.953,2.262-1.278-.504-2.353-1.408-3.073-2.558Zm3.208,0h4.411c-.489,1.811-1.34,3.002-2.206,3.002s-1.716-1.191-2.206-3.002Z" fill="url(#uuid-04c60a22-61ab-4edb-92ed-057ef7c7cab8)" stroke-width="0" />
		<path d="m9.509,14.726v-1.858c0-1.168.824-2.146,1.922-2.385.182-1.368,1.356-2.426,2.774-2.426.269,0,.528.038.775.109.02-.219.032-.44.032-.664C15.012,3.359,11.651,0,7.506,0c.576,1.685,1.247,4.281,1.247,7.502s-.671,5.816-1.247,7.502c.693,0,1.364-.097,2.003-.277Z" fill="url(#uuid-c1b30db9-c90e-476e-b8ef-7b35b575c510)" stroke-width="0" />
	</g>
	<path d="m16.102,10.888v.474h.356c.851,0,1.542.69,1.542,1.541v3.556c0,.851-.69,1.541-1.542,1.541h-4.507c-.852,0-1.542-.69-1.542-1.541v-3.556c0-.851.69-1.541,1.542-1.541h.356v-.474c0-1.047.85-1.897,1.898-1.897s1.898.849,1.898,1.897Zm-3.084,0v.474h2.372v-.474c0-.655-.531-1.185-1.186-1.185s-1.186.531-1.186,1.185Zm1.186,4.504c.393,0,.712-.318.712-.711s-.319-.711-.712-.711-.712.318-.712.711.319.711.712.711Z" fill="url(#uuid-6415574e-68fa-4de0-bf3b-63f212a0a34b)" stroke-width="0" />
</svg>