<svg id="uuid-26c86e8c-6afd-469c-8eba-c099edd8fa6b"
	xmlns="http://www.w3.org/2000/svg" width="18" height="18" viewBox="0 0 18 18">
	<defs>
		<linearGradient id="uuid-a95f546c-1bab-45e3-a992-32e1ccdf3207" x1="-85" y1="777.516" x2="-85" y2="795.516" gradientTransform="translate(94 795.516) scale(1 -1)" gradientUnits="userSpaceOnUse">
			<stop offset="0" stop-color="#773adc" />
			<stop offset=".82" stop-color="#a67af4" />
		</linearGradient>
		<linearGradient id="uuid-d4ff18b4-5d19-4aff-aed3-936108a6fc93" x1="7.996" y1="779.969" x2="12.911" y2="785.714" gradientTransform="translate(0 791.516) scale(1 -1)" gradientUnits="userSpaceOnUse">
			<stop offset="0" stop-color="#225086" />
			<stop offset="1" stop-color="#0055c5" />
		</linearGradient>
		<linearGradient id="uuid-fd3c4ed0-a5ff-43c4-b07e-a43aa771cccb" x1="9" y1="777.497" x2="9" y2="792.036" gradientTransform="translate(0 791.516) scale(1 -1)" gradientUnits="userSpaceOnUse">
			<stop offset="0" stop-color="#44dbf9" />
			<stop offset="1" stop-color="#cbf8ff" />
		</linearGradient>
		<linearGradient id="uuid-1b86b618-fe52-4a1e-ba50-a1aad60142c3" x1="6.97" y1="779.196" x2="6.97" y2="791.703" gradientTransform="translate(0 791.516) scale(1 -1)" gradientUnits="userSpaceOnUse">
			<stop offset="0" stop-color="#6df" />
			<stop offset="1" stop-color="#0294e4" />
		</linearGradient>
		<linearGradient id="uuid-b51ef80d-2cfc-478a-a38f-46c743bfb91d" x1="12.463" y1="776.546" x2="12.463" y2="788.909" gradientTransform="translate(0 791.516) scale(1 -1)" gradientUnits="userSpaceOnUse">
			<stop offset="0" stop-color="#041642" />
			<stop offset="1" stop-color="#041642" stop-opacity=".25" />
		</linearGradient>
	</defs>
	<circle cx="9" cy="9" r="9" fill="url(#uuid-a95f546c-1bab-45e3-a992-32e1ccdf3207)" stroke-width="0" />
	<g>
		<path d="m15.655,9.667l-5.773-6.512c-.461-.52-1.304-.52-1.766,0l-5.773,6.512c-.446.503-.329,1.263.249,1.625l5.773,3.609c.385.241.884.241,1.269,0l5.773-3.609c.578-.361.694-1.122.249-1.625h0Z" fill="url(#uuid-d4ff18b4-5d19-4aff-aed3-936108a6fc93)" stroke-width="0" />
		<polygon points="5.64 9.845 5.68 9.87 9 11.945 9 11.945 12.359 9.845 12.36 9.845 12.359 9.845 9 6.055 5.64 9.845" fill="url(#uuid-fd3c4ed0-a5ff-43c4-b07e-a43aa771cccb)" stroke-width="0" />
		<g>
			<path d="m9.883,3.154c-.461-.52-1.304-.52-1.766,0l-5.773,6.512c-.446.503-.329,1.263.249,1.625,0,0,2.137,1.336,2.406,1.504.299.186.795.393,1.32.393.478,0,.921-.139,1.29-.375,0,0,0,0,.002,0l1.389-.868-3.359-2.1,3.444-3.885c.423-.483,1.06-.79,1.772-.79.363,0,.706.082,1.012.225l-1.985-2.239v-.002Z" fill="url(#uuid-1b86b618-fe52-4a1e-ba50-a1aad60142c3)" stroke-width="0" />
			<path d="m9,15.081c.221,0,.442-.06.634-.18l5.773-3.609c.578-.361.694-1.122.249-1.625l-5.773-6.512c-.231-.26-.557-.39-.883-.39v12.317Z" fill="url(#uuid-b51ef80d-2cfc-478a-a38f-46c743bfb91d)" fill-opacity=".5" isolation="isolate" opacity=".5" stroke-width="0" />
		</g>
	</g>
</svg>