<svg id="uuid-a4e43ecc-aab2-4cd1-b96a-e78d592bf90f"
	xmlns="http://www.w3.org/2000/svg" width="18" height="18" viewBox="0 0 18 18">
	<defs>
		<linearGradient id="uuid-f86ec683-0476-4385-a089-b5dcad587aad" x1="7.697" y1="779.107" x2="14.082" y2="786.57" gradientTransform="translate(0 791.516) scale(1 -1)" gradientUnits="userSpaceOnUse">
			<stop offset="0" stop-color="#225086" />
			<stop offset="1" stop-color="#0055c5" />
		</linearGradient>
		<linearGradient id="uuid-e422b264-2789-4744-82bd-0e3fd46a156e" x1="6.364" y1="778.103" x2="6.364" y2="794.351" gradientTransform="translate(0 791.516) scale(1 -1)" gradientUnits="userSpaceOnUse">
			<stop offset="0" stop-color="#6df" />
			<stop offset="1" stop-color="#0294e4" />
		</linearGradient>
		<linearGradient id="uuid-d74a81cd-bed3-408d-982d-4138865ce227" x1="9.001" y1="775.895" x2="9.001" y2="794.784" gradientTransform="translate(0 791.516) scale(1 -1)" gradientUnits="userSpaceOnUse">
			<stop offset="0" stop-color="#44dbf9" />
			<stop offset="1" stop-color="#cbf8ff" />
		</linearGradient>
		<linearGradient id="uuid-30674763-cae5-42ba-a84b-66be33b27883" x1="13.5" y1="774.66" x2="13.5" y2="790.721" gradientTransform="translate(0 791.516) scale(1 -1)" gradientUnits="userSpaceOnUse">
			<stop offset="0" stop-color="#041642" />
			<stop offset="1" stop-color="#041642" stop-opacity=".25" />
		</linearGradient>
	</defs>
	<g>
		<path d="m17.647,9.967L10.147,1.506c-.599-.676-1.694-.676-2.294,0L.353,9.967c-.579.654-.428,1.641.323,2.111l7.499,4.688c.5.313,1.148.313,1.648,0l7.499-4.688c.751-.469.902-1.457.323-2.111h0Z" fill="url(#uuid-f86ec683-0476-4385-a089-b5dcad587aad)" stroke-width="0" />
		<path d="m10.148,1.506c-.599-.676-1.694-.676-2.294,0L.354,9.967c-.579.654-.428,1.641.323,2.111,0,0,2.776,1.735,3.126,1.954.388.242,1.033.511,1.715.511.621,0,1.197-.18,1.676-.487,0,0,0,0,.002-.001l1.804-1.128-4.364-2.728,4.474-5.047c.55-.627,1.377-1.026,2.302-1.026.472,0,.917.107,1.314.292l-2.579-2.909v-.002Z" fill="url(#uuid-e422b264-2789-4744-82bd-0e3fd46a156e)" stroke-width="0" />
		<polygon points="4.636 10.199 4.688 10.231 9.001 12.927 9.001 12.927 13.365 10.199 13.366 10.199 13.365 10.199 9.001 5.274 4.636 10.199" fill="url(#uuid-d74a81cd-bed3-408d-982d-4138865ce227)" stroke-width="0" />
		<path d="m9.001,17c.287,0,.574-.078.824-.234l7.499-4.688c.751-.469.902-1.457.323-2.111L10.148,1.506c-.3-.338-.723-.507-1.147-.507v16.001Z" fill="url(#uuid-30674763-cae5-42ba-a84b-66be33b27883)" fill-opacity=".5" isolation="isolate" opacity=".5" stroke-width="0" />
	</g>
	<g>
		<polygon points="12.925 8.752 8.37 15.131 12.925 16.985 17.48 15.131 12.925 8.752" fill="#773adc" stroke-width="0" />
		<polygon points="12.925 8.752 8.37 15.131 12.925 16.985 12.925 8.752" fill="#f9f9f9" isolation="isolate" opacity=".5" stroke-width="0" />
	</g>
</svg>