<?xml version="1.0" encoding="UTF-8" standalone="no"?>
<svg
   id="uuid-31871bb0-5517-4aee-b2ba-5a3848ba6160"
   width="18.001997"
   height="16.427004"
   viewBox="0 0 18.001997 16.427004"
   version="1.1"
   xmlns="http://www.w3.org/2000/svg"
   xmlns:svg="http://www.w3.org/2000/svg">
  <defs
     id="defs20">
    <linearGradient
       id="uuid-10d303dc-dbc6-4fd6-9b51-4d2c7ef1af93"
       x1="10.901"
       y1="4.3850002"
       x2="10.901"
       y2="18.783001"
       gradientUnits="userSpaceOnUse">
      <stop
         offset=".085"
         stop-color="#ef7100"
         id="stop2" />
      <stop
         offset=".999"
         stop-color="#f78d1e"
         id="stop4" />
    </linearGradient>
    <linearGradient
       id="uuid-6bbe745f-b495-46ca-a7f6-6d49d57ee029"
       x1="-79.452003"
       y1="778.65698"
       x2="-79.452003"
       y2="786.37799"
       gradientTransform="matrix(1,0,0,-1,93.999996,794.729)"
       gradientUnits="userSpaceOnUse">
      <stop
         offset="0"
         stop-color="#0078d4"
         id="stop7" />
      <stop
         offset=".06"
         stop-color="#0a7cd7"
         id="stop9" />
      <stop
         offset=".34"
         stop-color="#2e8ce1"
         id="stop11" />
      <stop
         offset=".59"
         stop-color="#4897e9"
         id="stop13" />
      <stop
         offset=".82"
         stop-color="#589eed"
         id="stop15" />
      <stop
         offset="1"
         stop-color="#5ea0ef"
         id="stop17" />
    </linearGradient>
  </defs>
  <g
     id="g30"
     transform="translate(-3.6435589e-6,-0.78699559)">
    <polygon
       points="9,12.713 9.001,12.713 9.001,12.713 9.001,5.062 9,5.061 4.636,9.985 4.688,10.017 "
       fill="#ffb34d"
       isolation="isolate"
       opacity="0.9"
       stroke-width="0"
       id="polygon22" />
    <path
       d="M 10.146,1.294 C 9.847,0.956 9.424,0.787 9.001,0.787 v 0 C 8.577,0.786 8.154,0.955 7.854,1.293 H 7.853 l -7.5,8.46 c -0.579,0.654 -0.428,1.642 0.323,2.111 0,0 2.776,1.735 3.126,1.954 0.388,0.242 1.033,0.511 1.715,0.511 0.621,0 1.198,-0.18 1.676,-0.487 0,0 0,0 0.002,0 L 9,12.714 4.636,9.986 9.001,5.062 9.11,4.939 c 0.55,-0.627 1.377,-1.026 2.302,-1.026 0.472,0 0.916,0.107 1.313,0.291 L 10.146,1.295 Z"
       fill="#faa21d"
       stroke-width="0"
       id="path24" />
    <polygon
       points="13.365,9.985 9.001,5.062 9.001,12.712 13.365,9.985 "
       fill="#f78d1e"
       stroke-width="0"
       id="polygon26" />
    <path
       d="M 17.647,9.753 12.726,4.202 C 12.329,4.017 11.884,3.911 11.413,3.911 10.488,3.911 9.661,4.31 9.111,4.937 L 9.002,5.06 13.366,9.984 9.1,12.65 9.001,12.712 v 0.003 C 9.001,12.715 9,12.713 9,12.713 l -1.805,1.128 c 0,0 -0.002,0 -0.002,0 -0.478,0.307 -1.055,0.487 -1.676,0.487 -0.682,0 -1.327,-0.269 -1.715,-0.511 l 4.374,2.734 c 0.25,0.156 0.538,0.234 0.824,0.234 v 0 c 0,0 10e-4,0 10e-4,0 0.287,0 0.573,-0.078 0.823,-0.234 l 1.73,-1.081 v 0 c 0,0 5.77,-3.607 5.77,-3.607 v 0 c 0.751,-0.468 0.902,-1.456 0.323,-2.11 z"
       fill="url(#uuid-10d303dc-dbc6-4fd6-9b51-4d2c7ef1af93)"
       stroke-width="0"
       id="path28"
       style="fill:url(#uuid-10d303dc-dbc6-4fd6-9b51-4d2c7ef1af93)" />
  </g>
  <path
     d="m 17.999996,11.934004 c 0,2.265 -2.739,4.088 -3.338,4.46 -0.068,0.044 -0.156,0.044 -0.224,0 -0.599,-0.367 -3.338,-2.19 -3.338,-4.46 V 9.2090044 c 0,-0.119 0.093,-0.215 0.21,-0.218 2.134,-0.055 1.642,-0.991 3.241,-0.991 1.599,0 1.106,0.937 3.241,0.991 0.117,0.003 0.21,0.1 0.21,0.218 v 2.7249996 z"
     fill="#0078d4"
     stroke-width="0"
     id="path32" />
  <path
     d="m 17.716996,11.954004 c 0,2.081 -2.515,3.751 -3.065,4.088 -0.063,0.039 -0.142,0.039 -0.205,0 -0.551,-0.337 -3.065,-2.007 -3.065,-4.088 V 9.4760044 c -0.019,-0.111 0.054,-0.216 0.163,-0.235 0.011,-0.002 0.021,-0.003 0.032,-0.003 1.959,-0.035 1.511,-0.887 2.973,-0.887 1.462,0 1.014,0.852 2.973,0.887 0.107,0.003 0.192,0.09 0.195,0.198 v 2.5169996 z"
     fill="url(#uuid-6bbe745f-b495-46ca-a7f6-6d49d57ee029)"
     stroke-width="0"
     id="path34"
     style="fill:url(#uuid-6bbe745f-b495-46ca-a7f6-6d49d57ee029)" />
</svg>
