<?xml version="1.0" encoding="UTF-8" standalone="no"?>
<svg
   id="uuid-0bbb5b12-3243-469f-a125-16e9fd0c10bb"
   width="18.000999"
   height="16.314894"
   viewBox="0 0 18.000999 16.314894"
   version="1.1"
   xmlns="http://www.w3.org/2000/svg"
   xmlns:svg="http://www.w3.org/2000/svg">
  <defs
     id="defs20">
    <linearGradient
       id="uuid-0af6b584-dd4c-4308-9282-d2a7c9e792b7"
       x1="8.9849997"
       y1="13.416"
       x2="8.9849997"
       y2="0.83700001"
       gradientUnits="userSpaceOnUse">
      <stop
         offset=".089"
         stop-color="#225086"
         id="stop2" />
      <stop
         offset=".458"
         stop-color="#0055c5"
         id="stop4" />
    </linearGradient>
    <linearGradient
       id="uuid-7632880e-fcbf-4182-861a-db42fad415fd"
       x1="15.2"
       y1="17.152"
       x2="15.2"
       y2="8.1140003"
       gradientUnits="userSpaceOnUse"
       gradientTransform="translate(0,-0.837)">
      <stop
         offset="0"
         stop-color="#0294e4"
         id="stop7" />
      <stop
         offset=".192"
         stop-color="#23aced"
         id="stop9" />
      <stop
         offset=".398"
         stop-color="#40c1f4"
         id="stop11" />
      <stop
         offset=".603"
         stop-color="#55d0fa"
         id="stop13" />
      <stop
         offset=".805"
         stop-color="#61d9fd"
         id="stop15" />
      <stop
         offset="1"
         stop-color="#6df"
         id="stop17" />
    </linearGradient>
  </defs>
  <g
     id="g36"
     transform="translate(0,-0.837)">
    <path
       d="m 11.95,10.924 c 0,-1.797 1.458,-3.26 3.25,-3.26 1.17,0 2.197,0.623 2.77,1.556 V 1.437 c 0,-0.331 -0.268,-0.6 -0.6,-0.6 H 0.6 C 0.269,0.837 0,1.105 0,1.437 v 11.379 c 0,0.331 0.268,0.6 0.6,0.6 H 13.109 C 12.379,12.799 11.95,11.887 11.95,10.924 Z"
       fill="url(#uuid-0af6b584-dd4c-4308-9282-d2a7c9e792b7)"
       id="path22"
       style="fill:url(#uuid-0af6b584-dd4c-4308-9282-d2a7c9e792b7)" />
    <g
       id="g30">
      <path
         d="m 6.616,10.125 c 0.259,0.009 0.477,-0.193 0.486,-0.452 0,-0.005 0,-0.009 0,-0.014 C 7.104,9.64 7.104,9.621 7.102,9.601 6.909,8.069 6.039,6.83 4.379,6.83 c -1.66,0 -2.568,1.054 -2.748,2.759 -0.026,0.269 0.17,0.508 0.438,0.535 h 4.546 z"
         fill="#66ddff"
         id="path24" />
      <path
         d="M 4.398,7.194 C 4.11,7.191 3.829,7.106 3.587,6.95 l 0.811,2.145 0.82,-2.13 C 4.971,7.116 4.687,7.195 4.398,7.194 Z"
         fill="#f2f2f2"
         id="path26" />
      <circle
         cx="4.388"
         cy="5.6609998"
         r="1.533"
         fill="#66ddff"
         id="circle28" />
    </g>
    <rect
       x="7.8280001"
       y="4.1279998"
       width="7.631"
       height="1.483"
       rx="0.741"
       ry="0.741"
       fill="#66ddff"
       id="rect32" />
    <path
       d="M 13.267,7.823 H 8.57 c -0.409,0 -0.741,0.332 -0.741,0.741 0,0.409 0.332,0.741 0.741,0.741 h 3.211 c 0.284,-0.592 0.712,-1.144 1.486,-1.483 z"
       fill="#66ddff"
       id="path34" />
  </g>
  <path
     d="m 18,10.087 c 0,-1.552 -1.254,-2.81 -2.8,-2.81 -1.546,0 -2.8,1.258 -2.8,2.81 0,0.948 0.469,1.784 1.185,2.293 l -0.18,3.598 c -0.009,0.171 0.123,0.316 0.293,0.325 0.088,0.004 0.174,-0.029 0.236,-0.092 l 1.217,-0.771 1.208,0.782 c 0.12,0.122 0.316,0.124 0.438,0.005 0.063,-0.061 0.096,-0.146 0.093,-0.234 l -0.139,-3.566 c 0.753,-0.504 1.25,-1.363 1.25,-2.339 z"
     fill="url(#uuid-7632880e-fcbf-4182-861a-db42fad415fd)"
     id="path38"
     style="fill:url(#uuid-7632880e-fcbf-4182-861a-db42fad415fd)" />
  <g
     id="uuid-a7e8402a-60cf-4e4a-910f-8d3e78ed18c9"
     transform="translate(0,-0.837)">
    <path
       d="m 14.652,12.251 c -0.089,0 -0.174,-0.035 -0.237,-0.098 l -0.971,-0.971 c -0.125,-0.136 -0.116,-0.347 0.019,-0.472 0.128,-0.118 0.325,-0.118 0.453,0 l 0.735,0.737 1.8,-1.801 c 0.136,-0.125 0.347,-0.116 0.472,0.019 0.118,0.128 0.118,0.325 0,0.453 l -2.036,2.036 c -0.063,0.062 -0.148,0.097 -0.236,0.096 z"
       fill="#ffffff"
       id="path40" />
  </g>
</svg>
