<svg
	xmlns="http://www.w3.org/2000/svg" width="15.624" height="17">
	<path d="M15.624 12.526a.7.7 0 0 1-.7.709H10.09a.7.7 0 0 1-.709-.7V4.581a.7.7 0 0 1 .7-.709h4.81a.7.7 0 0 1 .71.694v7.96z" fill="#59b4d9"/>
	<path d="M10.516 5.29h1.7v1.987h-1.7zm2.27 0h1.7v1.987h-1.7zm-2.27 3.122h1.7V10.4h-1.7zm2.27 0h1.7V10.4h-1.7z" fill="#fff"/>
	<path d="M6.239 12.526a.7.7 0 0 1-.7.709H.71a.7.7 0 0 1-.71-.694v-7.96a.7.7 0 0 1 .7-.709h4.801a.7.7 0 0 1 .71.694v.015" fill="#0072c6"/>
	<path d="M1.131 5.29h1.7v1.987h-1.7zm2.27 0h1.7v1.987h-1.7zm-2.27 3.122h1.7V10.4h-1.7zm2.27 0h1.7V10.4h-1.7z" fill="#59b4d9"/>
	<path d="M7.953 17a3.519 3.519 0 0 0 3.493-3.185h-1.047a2.456 2.456 0 0 1-2.428 2.154 2.36 2.36 0 0 1-1.895-.941L7.229 13.8H4.31v3.11l1.054-1.122A3.368 3.368 0 0 0 7.953 17zM7.799 1.031a2.355 2.355 0 0 1 1.893.943L8.54 3.2h2.924V.089L10.41 1.21A3.372 3.372 0 0 0 7.816 0a3.517 3.517 0 0 0-3.493 3.2h1.045a2.456 2.456 0 0 1 2.431-2.169z" fill="#ff8c00"/>
</svg>