<svg
	xmlns="http://www.w3.org/2000/svg" width="17.953" height="15.032">
	<defs>
		<linearGradient id="A" x1="6.826" y1="5.742" x2="6.826" y2="17.078" gradientUnits="userSpaceOnUse">
			<stop offset=".225" stop-color="#32d4f5"/>
			<stop offset=".473" stop-color="#31d1f3"/>
			<stop offset=".888" stop-color="#22a5cb"/>
			<stop offset=".999" stop-color="#198ab3"/>
		</linearGradient>
		<linearGradient id="B" x1="6.539" y1="-.335" x2="7.367" y2="9.958" gradientUnits="userSpaceOnUse">
			<stop offset=".225" stop-color="#32d4f5"/>
			<stop offset=".473" stop-color="#31d1f3"/>
			<stop offset=".888" stop-color="#22a5cb"/>
			<stop offset=".999" stop-color="#198ab3"/>
		</linearGradient>
	</defs>
	<path d="M17.953 7.716V6.304l-.2-.074-1.511-.5-.4-.966.768-1.634-.991-.991-.2.1-1.412.718-.966-.4-.619-1.709h-1.405l-.074.2-.5 1.511-.966.4-1.601-.767-.991.991.1.2.718 1.412-.4.966-1.734.619v1.41l.2.074 1.511.5.4.966-.774 1.631.99.99.2-.1 1.412-.718.966.4.619 1.709h1.412l.075-.2.495-1.511.966-.4 1.635.768.991-.991-.1-.2-.718-1.412.4-.966zM11.76 9.765a2.718 2.718 0 1 1 2.716-2.718 2.715 2.715 0 0 1-2.716 2.718z" fill="#0078d4"/>
	<path d="M12.435 15.032a1.215 1.215 0 0 0 1.218-1.21 1.413 1.413 0 0 0-.008-.146c-.478-3.816-2.655-6.923-6.808-6.923-4.226 0-6.406 2.631-6.831 6.933a1.22 1.22 0 0 0 1.089 1.339 1 1 0 0 0 .122.007z" fill="url(#A)"/>
	<path d="M6.902 7.657a3.808 3.808 0 0 1-2.073-.61l2.052 5.361 2.038-5.325a3.81 3.81 0 0 1-2.017.574z" fill="#fff" opacity=".8"/>
	<circle cx="6.874" cy="3.829" r="3.829" fill="url(#B)"/>
</svg>