<svg id="uuid-cea35c77-8f51-421a-91b0-c5260a0f11ae"
	xmlns="http://www.w3.org/2000/svg" width="18" height="18" viewBox="0 0 18 18">
	<defs>
		<linearGradient id="uuid-aa3eaf3c-c484-4422-aa03-2270f64bf66c" x1="1.58" y1="785.952" x2="3.231" y2="767.08" gradientTransform="translate(4 785.516) scale(1 -1)" gradientUnits="userSpaceOnUse">
			<stop offset="0" stop-color="#5e9eee" />
			<stop offset="1" stop-color="#0078d2" />
		</linearGradient>
		<linearGradient id="uuid-f96dba38-3e47-41ba-89cb-c517b32046c1" x1="-25.483" y1="767.733" x2="-25.125" y2="763.642" gradientTransform="translate(31.6 773.32) scale(1 -1)" gradientUnits="userSpaceOnUse">
			<stop offset=".183" stop-color="#9cebff" />
			<stop offset="1" stop-color="#50e6ff" />
		</linearGradient>
		<linearGradient id="uuid-88fb2c82-c650-40f3-b2f7-25911e2a3ad9" x1="-25.327" y1="770.911" x2="-25.013" y2="767.322" gradientTransform="translate(31.6 773.32) scale(1 -1)" gradientUnits="userSpaceOnUse">
			<stop offset=".183" stop-color="#9cebff" />
			<stop offset="1" stop-color="#50e6ff" />
		</linearGradient>
	</defs>
	<g id="uuid-310e4389-c31d-4916-9aa7-c1a5170d437d">
		<g>
			<rect x="0" width="12.811" height="18" rx=".619" ry=".619" fill="url(#uuid-aa3eaf3c-c484-4422-aa03-2270f64bf66c)" />
			<rect x="2.722" y="13.484" width="7.366" height="1.313" rx=".324" ry=".324" fill="#8ec1fa" />
			<rect x="2.722" y="10.938" width="7.366" height="1.313" rx=".324" ry=".324" fill="#8ec1fa" />
			<path d="M9.048,9.448c.304,.011,.56-.227,.571-.531v-.016c.002-.023,.002-.045,0-.068-.227-1.8-1.249-3.256-3.199-3.256s-3.017,1.239-3.228,3.242c-.031,.316,.199,.597,.515,.629h5.341Z" fill="url(#uuid-f96dba38-3e47-41ba-89cb-c517b32046c1)" />
			<path d="M6.442,6.005c-.338-.004-.669-.103-.953-.287l.953,2.52,.964-2.502c-.29,.177-.624,.27-.964,.269Z" fill="#f2f2f2" />
			<circle cx="6.43" cy="4.204" r="1.801" fill="url(#uuid-88fb2c82-c650-40f3-b2f7-25911e2a3ad9)" />
		</g>
	</g>
	<g>
		<circle cx="14.105" cy="9" r="3.895" fill="#86d633" />
		<g>
			<path d="M13.706,10.305l-.358,.358c-.061,.061-.16,.061-.221,0h0l-1.421-1.421c-.061-.061-.061-.16,0-.221h0l.247-.247c.061-.061,.16-.061,.221,0h0l1.532,1.532h0Z" fill="#fff" />
			<path d="M13.134,10.666l-.358-.358h0l3.269-3.269c.061-.061,.16-.061,.221,0h0l.247,.247c.061,.061,.061,.16,0,.221h0l-3.159,3.159c-.061,.061-.16,.061-.221,0h0Z" fill="#f0f0f0" />
		</g>
	</g>
</svg>