<svg
	xmlns="http://www.w3.org/2000/svg" width="17.009" height="17">
	<path d="M9.812 3.491a3.522 3.522 0 0 1-3.491 3.553h0a3.522 3.522 0 0 1-3.553-3.491h0A3.522 3.522 0 0 1 6.259 0h.031a3.506 3.506 0 0 1 3.522 3.49h0" fill="#59b4d9"/>
	<path d="M16.889 15.853L15.1 12.842l-1.787-3.1a.628.628 0 0 0-1.129 0L10.4 12.654l-1.787 3.2a.66.66 0 0 0 .564 1.035h7.15a.659.659 0 0 0 .564-1.035zm-4.045-4.234h.471l-.189 2.728h-.752l-.094-2.728zm-.094 4.139a.565.565 0 1 1 .565-.564.564.564 0 0 1-.565.564z" fill="#ff8c00"/>
	<path d="M7.968 16.911a1.368 1.368 0 0 1-.176-.705A1.472 1.472 0 0 1 8 15.5l1.783-3.19.007-.013.007-.012L11.58 9.37a1.394 1.394 0 0 1 1-.681V8.18H8.865L6.29 11.757 3.715 8.18H0V17h8.026l-.058-.089z" fill="#59b4d9"/>
</svg>