<svg
	xmlns="http://www.w3.org/2000/svg" width="17.008" height="17.066">
	<path d="M8.514 7.605L5.681 4.921h2.256L11.754 8.5l-3.76 3.579H5.681L8.515 9.4H.507C.217 9.4 0 9.066 0 8.775v-.74c0-.291.217-.431.507-.431z" fill="#57a300"/>
	<path d="M1.583 4.524A1.4 1.4 0 0 0 3.568 4.5l.032-.037a5.678 5.678 0 0 1 8.028.085l.071.072a5.649 5.649 0 0 1 1.581 4.351 1.436 1.436 0 0 1 .64.579v.006.005l1.437 2.5a8.505 8.505 0 0 0-1.714-9.581A8.608 8.608 0 0 0 7.6 0a8.52 8.52 0 0 0-6.047 2.479l-.029.03a1.4 1.4 0 0 0 .029 1.985zm6.209 11.859a1.458 1.458 0 0 1 .205-.707l.888-1.589a5.662 5.662 0 0 1-5.318-1.582l-.03-.03a1.4 1.4 0 0 0-1.985.03l-.03.029a1.405 1.405 0 0 0 .03 1.986A8.61 8.61 0 0 0 7.6 17l.324-.006a1.358 1.358 0 0 1-.132-.611z" fill="#0072c6"/>
	<path d="M16.889 16.03L15.1 13.019l-1.788-3.1a.627.627 0 0 0-1.128 0L10.4 12.831l-1.787 3.2a.66.66 0 0 0 .564 1.035h7.15a.66.66 0 0 0 .564-1.035zm-4.045-4.23h.471l-.189 2.729h-.752L12.28 11.8zm-.094 4.139a.565.565 0 1 1 .565-.564.563.563 0 0 1-.565.564z" fill="#ff8c00"/>
</svg>