<svg
	xmlns="http://www.w3.org/2000/svg" width="15.484" height="17.001">
	<path d="M13.891 1.772H1.593A1.608 1.608 0 0 0 .256 4.251a21.829 21.829 0 0 1 1.4 3.123 2.019 2.019 0 0 0 1.852 1.127h8.467a2.02 2.02 0 0 0 1.849-1.127 21.829 21.829 0 0 1 1.4-3.123 1.608 1.608 0 0 0-1.333-2.479zm.434 1.919a22.611 22.611 0 0 0-1.5 3.322.7.7 0 0 1-.671.426H3.331a.7.7 0 0 1-.674-.432 22.575 22.575 0 0 0-1.5-3.316.584.584 0 0 1-.018-.6.489.489 0 0 1 .452-.261h12.3a.489.489 0 0 1 .452.261.584.584 0 0 1-.018.6z" fill="#ff8c00"/>
	<path d="M13.891 1.772H8.45v1.062h5.441a.487.487 0 0 1 .451.261.583.583 0 0 1-.017.6 22.611 22.611 0 0 0-1.5 3.322.7.7 0 0 1-.672.426h-3.7v1.058h3.525a2.02 2.02 0 0 0 1.849-1.127 21.829 21.829 0 0 1 1.4-3.123 1.608 1.608 0 0 0-1.336-2.479z" fill="#dd5900" opacity=".6"/>
	<path d="M6.325 9.918h2.834v3.9H6.325z" fill="#fcd116"/>
	<path d="M7.742 9.918h1.417v3.9H7.742z" fill="#dd5900" opacity=".4"/>
	<path d="M12.321 16.559l-.656-2.29c-.21-.489-.39-.81-.956-.81H4.775c-.566 0-.746.321-.956.81l-.656 2.29a.325.325 0 0 0 .321.442H12a.325.325 0 0 0 .321-.442z" fill="#ff8c00"/>
	<g fill="#dd5900">
		<path d="M12.321 16.559l-.656-2.29c-.21-.489-.39-.81-.956-.81H7.742v3.542H12a.325.325 0 0 0 .321-.442z" opacity=".6"/>
		<path d="M6.325 10.943a2.772 2.772 0 0 0 2.834 0V9.918H6.325z" opacity=".4"/>
	</g>
	<path d="M12.153.001H3.304c-.61 0-.577.7-.433.866S4.052 2.33 4.052 6.986a3.677 3.677 0 0 0 7.353 0c0-4.656 1-5.938 1.182-6.119a.53.53 0 0 0-.434-.866z" fill="#fcd116"/>
	<path d="M7.742 10.625a3.693 3.693 0 0 0 3.663-3.639c0-4.656 1-5.938 1.182-6.119a.53.53 0 0 0-.434-.866H7.742z" fill="#dd5900" opacity=".3"/>
</svg>