<svg
	xmlns="http://www.w3.org/2000/svg" width="13.856" height="17.001">
	<defs>
		<linearGradient id="A" x1="2.754" y1="1.041" x2="12.211" y2="12.966" gradientUnits="userSpaceOnUse">
			<stop offset="0" stop-color="#59b8ff"/>
			<stop offset="1" stop-color="#508dfa"/>
		</linearGradient>
		<linearGradient id="B" x1="14.506" y1="15.538" x2="1.27" y2="-.149" gradientUnits="userSpaceOnUse">
			<stop offset="0" stop-color="#648efa"/>
			<stop offset="1" stop-color="#79cfff"/>
		</linearGradient>
	</defs>
	<path d="M13.856 7.936c0 4.572-5.5 8.253-6.7 9a.431.431 0 0 1-.456 0c-1.2-.746-6.7-4.427-6.7-9v-5.5A.435.435 0 0 1 .43 2c4.28-.114 3.294-2 6.5-2s2.221 1.889 6.5 2a.435.435 0 0 1 .425.436v5.5z" fill="url(#A)"/>
	<path d="M13.282 7.987c0 4.192-5.046 7.568-6.143 8.253a.394.394 0 0 1-.418 0c-1.1-.685-6.143-4.063-6.143-8.253V2.942a.4.4 0 0 1 .39-.4C4.893 2.436 3.989.706 6.93.706s2.037 1.73 5.962 1.836a.4.4 0 0 1 .39.4z" fill="url(#B)"/>
	<path d="M6.049 5.98V4.219a.378.378 0 0 0-.378-.378H3.656a.378.378 0 0 0-.378.378h0v1.908a.378.378 0 0 0 .378.378h1.867a.274.274 0 0 1 .274.273v2.549a.2.2 0 0 1-.072.16.318.318 0 0 1-.2.063H3.656a.378.378 0 0 0-.378.378v2.035a.378.378 0 0 0 .378.378h2.015a.378.378 0 0 0 .378-.378v-1.887a.273.273 0 0 1 .274-.273H9.03a.378.378 0 0 0 .378-.378V6.778a.273.273 0 0 1 .274-.273h1.027a.378.378 0 0 0 .378-.378v-1.1a.378.378 0 0 0-.378-.378H9.53a.377.377 0 0 0-.377.378v.953a.274.274 0 0 1-.274.273H6.323a.274.274 0 0 1-.274-.273z" fill="#fff"/>
	<path d="M5.671 12.467H3.656a.5.5 0 0 1-.5-.5v-2.04a.5.5 0 0 1 .5-.5h1.867a.187.187 0 0 0 .123-.035.072.072 0 0 0 .025-.062V6.778a.147.147 0 0 0-.148-.147H3.656a.5.5 0 0 1-.5-.5V4.218a.5.5 0 0 1 .5-.5h2.016a.5.5 0 0 1 .5.5V5.98a.147.147 0 0 0 .147.147H8.88a.148.148 0 0 0 .15-.147v-.958a.5.5 0 0 1 .5-.5h1.175a.5.5 0 0 1 .5.5v1.1a.505.505 0 0 1-.5.5H9.681a.147.147 0 0 0-.148.147v2.656a.5.5 0 0 1-.5.5H6.322a.147.147 0 0 0-.147.147v1.887a.5.5 0 0 1-.504.508zM3.656 9.676a.252.252 0 0 0-.252.251v2.036a.252.252 0 0 0 .252.252h2.015a.252.252 0 0 0 .252-.252v-1.887a.4.4 0 0 1 .4-.4H9.03a.251.251 0 0 0 .251-.252V6.778a.4.4 0 0 1 .4-.4h1.027a.252.252 0 0 0 .251-.252v-1.1a.252.252 0 0 0-.251-.251H9.53a.252.252 0 0 0-.252.251v.954a.4.4 0 0 1-.4.4H6.322a.4.4 0 0 1-.4-.4V4.219a.241.241 0 0 0-.073-.178.246.246 0 0 0-.178-.074H3.656a.252.252 0 0 0-.252.251v1.909a.252.252 0 0 0 .252.252h1.867a.4.4 0 0 1 .4.4v2.548a.325.325 0 0 1-.116.256.448.448 0 0 1-.284.093z" fill="#5191fb"/>
</svg>