<?xml version="1.0" encoding="utf-8"?>
<!-- Generator: Adobe Illustrator 21.1.0, SVG Export Plug-In . SVG Version: 6.00 Build 0)  -->
<svg version="1.1" id="Layer_1" xmlns="http://www.w3.org/2000/svg" xmlns:xlink="http://www.w3.org/1999/xlink" x="0px" y="0px"
	 viewBox="0 0 59.7 59.7" style="enable-background:new 0 0 59.7 59.7;" xml:space="preserve">
<style type="text/css">
	.st0{fill:#A8226E;}
	.st1{fill:#FFFFFF;}
	.st2{fill:#2D3F4A;}
</style>
<title>INDIVIDUAL ICONS</title>
<circle class="st0" cx="29.8" cy="29.8" r="29.8"/>
<path class="st1" d="M22.8,41.9v-8.2l-7.5-4l-7.5,4v8.3l7.5,4L22.8,41.9z M11.3,39.8v-4.1l4-2.1l4,2.1v4l-4,2.1L11.3,39.8L11.3,39.8
	z"/>
<path class="st1" d="M51.9,26v-8.3l-7.5-4l-7.5,4V26l7.5,4L51.9,26z M40.4,19.9l4-2.1l4,2.1v4.1l-4,2.1l-4-2.1V19.9z"/>
<polygon class="st1" points="40.4,24 40.4,35.6 29.8,41.4 19.3,35.6 19.3,24 29.8,18.3 "/>
<polygon class="st2" points="29.4,29.2 21,25.4 21,34.6 29.4,39.2 "/>
<polygon class="st2" points="29.8,28.5 38,24.7 29.8,20.2 21.6,24.7 "/>
<polygon class="st2" points="38.6,34.6 38.6,25.4 30.3,29.2 30.3,39.1 38.6,34.6 "/>
<polygon class="st0" points="21,25.4 29.4,29.2 29.4,39.2 21,34.6 "/>
<polygon class="st0" points="30.3,29.2 38.6,25.4 38.6,34.6 30.3,39.2 "/>
<polygon class="st0" points="21.6,24.7 29.8,20.3 38,24.7 29.8,28.5 "/>
</svg>
