<?xml version="1.0" encoding="utf-8"?>
<!-- Generator: Adobe Illustrator 21.1.0, SVG Export Plug-In . SVG Version: 6.00 Build 0)  -->
<svg version="1.1" id="Layer_1" xmlns="http://www.w3.org/2000/svg" xmlns:xlink="http://www.w3.org/1999/xlink" x="0px" y="0px"
	 viewBox="0 0 64 65.5" style="enable-background:new 0 0 64 65.5;" xml:space="preserve">
<style type="text/css">
	.st0{fill:#C5972C;}
	.st1{fill:#FFFFFF;}
</style>
<title>INDIVIDUAL ICONS 3</title>
<ellipse class="st0" cx="32" cy="32.8" rx="32" ry="32.8"/>
<path class="st1" d="M42,39.8l-19.9-0.2c-2.8,0-5,2.2-5,5v5.1l29.8,0.2v-5.1C47,42.1,44.7,39.8,42,39.8z"/>
<path class="st1" d="M32,34.5c-7.1,0.2-13.1-5.5-13.2-12.7S24.3,8.8,31.5,8.6c7.1-0.2,13.1,5.5,13.2,12.7c0,0.1,0,0.2,0,0.3
	C44.7,28.7,39.1,34.4,32,34.5z M32,10.3c-6.3-0.1-11.4,4.8-11.6,11.1s4.8,11.4,11.1,11.6s11.4-4.8,11.6-11.1c0-0.1,0-0.1,0-0.2
	C43.2,15.4,38.2,10.3,32,10.3C32,10.3,32,10.3,32,10.3L32,10.3z"/>
</svg>
