<?xml version="1.0" encoding="UTF-8" standalone="no"?>
<!-- Generator: Adobe Illustrator 23.0.1, SVG Export Plug-In . SVG Version: 6.00 Build 0)  -->

<svg
   xmlns:dc="http://purl.org/dc/elements/1.1/"
   xmlns:cc="http://creativecommons.org/ns#"
   xmlns:rdf="http://www.w3.org/1999/02/22-rdf-syntax-ns#"
   xmlns:svg="http://www.w3.org/2000/svg"
   xmlns="http://www.w3.org/2000/svg"
   xmlns:sodipodi="http://sodipodi.sourceforge.net/DTD/sodipodi-0.dtd"
   xmlns:inkscape="http://www.inkscape.org/namespaces/inkscape"
   version="1.1"
   id="Layer_1"
   x="0px"
   y="0px"
   viewBox="0 0 54.799999 54.799999"
   enable-background="new 0 0 60.2 61"
   xml:space="preserve"
   sodipodi:docname="Communication.svg"
   width="54.799999"
   height="54.799999"
   inkscape:version="0.92.3 (2405546, 2018-03-11)"><metadata
   id="metadata2002"><rdf:RDF><cc:Work
       rdf:about=""><dc:format>image/svg+xml</dc:format><dc:type
         rdf:resource="http://purl.org/dc/dcmitype/StillImage" /><dc:title></dc:title></cc:Work></rdf:RDF></metadata><defs
   id="defs2000" /><sodipodi:namedview
   pagecolor="#ffffff"
   bordercolor="#666666"
   borderopacity="1"
   objecttolerance="10"
   gridtolerance="10"
   guidetolerance="10"
   inkscape:pageopacity="0"
   inkscape:pageshadow="2"
   inkscape:window-width="1920"
   inkscape:window-height="1017"
   id="namedview1998"
   showgrid="false"
   fit-margin-top="0"
   fit-margin-left="0"
   fit-margin-right="0"
   fit-margin-bottom="0"
   inkscape:zoom="10.942767"
   inkscape:cx="29.259616"
   inkscape:cy="27.539827"
   inkscape:window-x="-8"
   inkscape:window-y="-8"
   inkscape:window-maximized="1"
   inkscape:current-layer="Layer_1" />
<g
   id="g1995"
   transform="translate(-2.8999996,-2.3999996)">
	<circle
   cx="30.299999"
   cy="29.799999"
   r="27.4"
   id="circle1985"
   style="fill:#90c740" />
	<g
   id="g1993">
		<path
   d="m 31.1,17.7 c -1.1,-1.1 -2.2,-2.2 -3.3,-3.5 -0.3,-0.3 -0.3,-0.5 0,-0.8 1.1,-1.1 2.2,-2.2 3.5,-3.5 -0.2,1.4 0.3,1.7 1.7,2 6.9,1.6 11.8,7.2 12.4,14.5 0.6,6.9 -3.3,13.4 -9.9,16.1 -1.7,0.8 -3.5,1.3 -5.4,1.3 -6.1,0 -12.3,0 -18.4,0 0,-0.2 0,-0.2 0,-0.3 0.5,-0.8 1.7,-1.1 1.6,-2 -0.2,-0.8 -1.1,-1.3 -1.9,-2 1.4,0 2.7,0 3.9,0 4.6,0 9.3,0 13.9,0 5.8,0 10.5,-3.8 11.6,-9.6 C 42,24.6 39,19.3 34,16.9 c -0.5,-0.2 -0.9,-0.3 -1.3,-0.5 -1.1,-0.5 -1.6,-0.2 -1.3,1.1 -0.1,0 -0.3,0.2 -0.3,0.2 z"
   id="path1987"
   inkscape:connector-curvature="0"
   style="fill:#ffffff" />
		<path
   d="m 27.2,11.7 c -0.3,0.9 -1.7,1.3 -1.4,2.2 0.3,0.8 1.1,1.3 1.9,2 -4.9,1.3 -8.3,3.9 -9.4,9 -1.1,4.9 0.5,9 4.6,12.4 -2,0 -3.9,0 -5.8,0 -0.5,0 -0.6,-0.5 -0.9,-0.8 -3.5,-5.2 -3.5,-12.4 0,-17.6 2.5,-4 6.1,-6.4 11,-7.2 z"
   id="path1989"
   inkscape:connector-curvature="0"
   style="fill:#ffffff" />
		<path
   d="m 47.5,37.8 c 0.9,1.1 2,2 3,3.1 0.3,0.3 0.6,0.5 0.2,0.9 -1.1,1.1 -2.2,2.2 -3.5,3.5 0.2,-1.6 -0.6,-1.6 -1.7,-1.6 -2.5,0 -5,0 -7.7,0 0.5,-0.8 1.4,-0.9 2,-1.6 0.5,-0.5 1.1,-0.8 1.6,-1.3 1.1,-1.4 2.5,-1.9 4.3,-1.7 1.1,0.2 1.7,-0.2 1.4,-1.4 0.2,0.1 0.4,0.1 0.4,0.1 z"
   id="path1991"
   inkscape:connector-curvature="0"
   style="fill:#ffffff" />
	</g>
</g>
</svg>