<?xml version="1.0" encoding="UTF-8" standalone="no"?>
<!-- Generator: Adobe Illustrator 23.0.1, SVG Export Plug-In . SVG Version: 6.00 Build 0)  -->

<svg
   xmlns:dc="http://purl.org/dc/elements/1.1/"
   xmlns:cc="http://creativecommons.org/ns#"
   xmlns:rdf="http://www.w3.org/1999/02/22-rdf-syntax-ns#"
   xmlns:svg="http://www.w3.org/2000/svg"
   xmlns="http://www.w3.org/2000/svg"
   xmlns:sodipodi="http://sodipodi.sourceforge.net/DTD/sodipodi-0.dtd"
   xmlns:inkscape="http://www.inkscape.org/namespaces/inkscape"
   version="1.1"
   id="Layer_1"
   x="0px"
   y="0px"
   viewBox="0 0 54.599999 54.599999"
   enable-background="new 0 0 60.8 62.3"
   xml:space="preserve"
   sodipodi:docname="Consensus.svg"
   width="54.599998"
   height="54.599998"
   inkscape:version="0.92.3 (2405546, 2018-03-11)"><metadata
   id="metadata2627"><rdf:RDF><cc:Work
       rdf:about=""><dc:format>image/svg+xml</dc:format><dc:type
         rdf:resource="http://purl.org/dc/dcmitype/StillImage" /><dc:title></dc:title></cc:Work></rdf:RDF></metadata><defs
   id="defs2625" /><sodipodi:namedview
   pagecolor="#ffffff"
   bordercolor="#666666"
   borderopacity="1"
   objecttolerance="10"
   gridtolerance="10"
   guidetolerance="10"
   inkscape:pageopacity="0"
   inkscape:pageshadow="2"
   inkscape:window-width="1920"
   inkscape:window-height="1017"
   id="namedview2623"
   showgrid="false"
   fit-margin-top="0"
   fit-margin-left="0"
   fit-margin-right="0"
   fit-margin-bottom="0"
   inkscape:zoom="10.714427"
   inkscape:cx="30.971756"
   inkscape:cy="25.491974"
   inkscape:window-x="-8"
   inkscape:window-y="-8"
   inkscape:window-maximized="1"
   inkscape:current-layer="Layer_1" />
<g
   id="g2620"
   transform="translate(-3.1000004,-3.4000015)">
	<circle
   cx="30.4"
   cy="30.700001"
   r="27.299999"
   id="circle2588"
   style="fill:#90c740" />
	<g
   id="g2618">
		<polyline
   stroke-miterlimit="10"
   points="22.9,29.5 29,35 38.7,26.4   "
   id="polyline2590"
   style="fill:none;stroke:#ffffff;stroke-width:1.3053;stroke-miterlimit:10" />
		<g
   id="g2608">
			<g
   id="g2598">
				<g
   id="g2596">
					<path
   d="m 26.8,49.2 h -8.6 c -1.3,0 -2.2,0.9 -2.2,2.2 v 2.2 l 12.9,0.2 V 51.6 C 29,50.2 28,49.2 26.8,49.2 Z"
   id="path2592"
   inkscape:connector-curvature="0"
   style="fill:#ffffff" />
					<path
   d="m 22.4,47 c -3,0 -5.5,-2.5 -5.5,-5.5 0,-3 2.5,-5.5 5.5,-5.5 3,0 5.5,2.5 5.5,5.5 0,3 -2.4,5.5 -5.5,5.5 z m 0,-10.3 c -2.7,0 -4.9,2.2 -4.9,4.9 0,2.7 2.2,4.9 4.9,4.9 2.7,0 4.9,-2.2 4.9,-4.9 -0.1,-2.7 -2.2,-4.9 -4.9,-4.9 z"
   id="path2594"
   inkscape:connector-curvature="0"
   style="fill:#ffffff" />
				</g>
			</g>
			<g
   id="g2606">
				<g
   id="g2604">
					<path
   d="m 43.4,49.2 h -8.6 c -1.3,0 -2.2,0.9 -2.2,2.2 v 2.2 l 12.9,0.2 v -2.2 c 0.1,-1.4 -0.8,-2.4 -2.1,-2.4 z"
   id="path2600"
   inkscape:connector-curvature="0"
   style="fill:#ffffff" />
					<path
   d="m 39,47 c -3,0 -5.5,-2.5 -5.5,-5.5 0,-3 2.5,-5.5 5.5,-5.5 3,0 5.5,2.5 5.5,5.5 0,3 -2.4,5.5 -5.5,5.5 z m 0,-10.3 c -2.7,0 -4.9,2.2 -4.9,4.9 0,2.7 2.2,4.9 4.9,4.9 2.7,0 4.9,-2.2 4.9,-4.9 0,-2.7 -2.2,-4.9 -4.9,-4.9 z"
   id="path2602"
   inkscape:connector-curvature="0"
   style="fill:#ffffff" />
				</g>
			</g>
		</g>
		<g
   id="g2616">
			<g
   id="g2614">
				<path
   d="m 35.1,19.9 h -8.6 c -1.3,0 -2.2,0.9 -2.2,2.2 v 2.2 l 12.9,0.2 v -2.2 c 0.1,-1.4 -0.9,-2.4 -2.1,-2.4 z"
   id="path2610"
   inkscape:connector-curvature="0"
   style="fill:#ffffff" />
				<path
   d="m 30.7,17.7 c -3,0 -5.5,-2.5 -5.5,-5.5 0,-3 2.5,-5.5 5.5,-5.5 3,0 5.5,2.5 5.5,5.5 0,3 -2.4,5.5 -5.5,5.5 z m 0,-10.3 c -2.7,0 -4.9,2.2 -4.9,4.9 0,2.7 2.2,4.9 4.9,4.9 2.7,0 4.9,-2.2 4.9,-4.9 0,-2.7 -2.2,-4.9 -4.9,-4.9 z"
   id="path2612"
   inkscape:connector-curvature="0"
   style="fill:#ffffff" />
			</g>
		</g>
	</g>
</g>
</svg>