<?xml version="1.0" encoding="utf-8"?>
<!-- Generator: Adobe Illustrator 21.1.0, SVG Export Plug-In . SVG Version: 6.00 Build 0)  -->
<svg version="1.1" id="Layer_1" xmlns="http://www.w3.org/2000/svg" xmlns:xlink="http://www.w3.org/1999/xlink" x="0px" y="0px"
	 viewBox="0 0 65.8 65.5" style="enable-background:new 0 0 65.8 65.5;" xml:space="preserve">
<style type="text/css">
	.st0{fill:#E42433;}
	.st1{fill:#FFFFFF;}
</style>
<title>INDIVIDUAL ICONS 3</title>
<ellipse class="st0" cx="32.9" cy="32.8" rx="32.9" ry="32.8"/>
<path class="st1" d="M43.6,10.6c0.7,0.2,1.4,0.6,1.9,1.1c0.5,0.6,0.7,1.3,0.7,2c0,6,0,12,0,18c0,9,0,0.1,0,0c-0.3-0.5-0.7-1-1.1-1.5
	c-0.2-0.2-0.5-0.4-0.8-0.5c-0.3-0.1-0.4-0.3-0.4-0.5c0-2.5,0-5,0-7.6s0-5.1,0-7.6c0-0.9-0.3-1.1-1.1-1.1H20.1
	c-0.9,0-1.2,0.3-1.2,1.2c0,10,0,20,0,30.1c0,0.9,0.3,1.2,1.2,1.2h6.1c0.4,0,0.7,0.1,1,0.3c0.3,0.2,0.7,0.4,1,0.5
	c-0.5,0.5-1,1-1.4,1.4c-0.1,0.1-0.2,0.1-0.3,0.1c-2.3,0-4.5,0-6.8,0c-1.5,0-2.8-1.1-3-2.6c0-0.1,0-0.2-0.1-0.2V13.5
	c0.2-0.5,0.4-1.1,0.7-1.6c0.5-0.7,1.2-1.1,2-1.3L43.6,10.6z"/>
<path class="st1" d="M43,49.1c-0.5-0.1-1.2-0.2-1.8-0.3c-0.5-0.1-0.9,0.1-1.3,0.4c-0.4,0.4-0.8,0.8-1.2,1.3
	c-0.4,0.6-1.2,0.6-1.8,0.2c-0.1-0.1-0.2-0.1-0.2-0.2c-0.4-0.4-0.8-0.8-1.2-1.3c-0.3-0.4-0.8-0.5-1.3-0.4c-0.5,0.1-1.1,0.2-1.6,0.3
	c-0.7,0.2-1.4-0.2-1.7-0.9c0-0.1-0.1-0.3-0.1-0.4c-0.1-0.5-0.2-1.1-0.3-1.6c-0.1-0.4-0.3-0.8-0.7-1l-1.5-0.8c-0.7-0.2-1.1-1-0.8-1.6
	c0-0.1,0.1-0.2,0.2-0.4c0.2-0.5,0.5-1,0.7-1.4c0.3-0.5,0.3-1,0-1.5c-0.3-0.5-0.5-0.9-0.7-1.4c-0.4-0.6-0.3-1.4,0.3-1.8
	c0.1-0.1,0.2-0.1,0.4-0.2l1.4-0.7c0.5-0.2,0.8-0.6,0.8-1.1c0.1-0.6,0.2-1.2,0.3-1.8c0.1-0.7,0.7-1.2,1.4-1.1c0,0,0.1,0,0.1,0
	l1.7,0.3c0.5,0.1,1-0.1,1.4-0.4c0.4-0.4,0.8-0.8,1.2-1.2c0.4-0.5,1.2-0.6,1.8-0.2c0.1,0.1,0.1,0.1,0.2,0.2c0.4,0.4,0.8,0.8,1.2,1.2
	c0.3,0.4,0.9,0.6,1.4,0.4l1.7-0.3c0.7-0.2,1.4,0.3,1.5,1c0,0,0,0.1,0,0.1c0.1,0.6,0.2,1.2,0.3,1.8c0,0.5,0.4,0.9,0.8,1.1l1.6,0.8
	c0.6,0.3,1,1,0.7,1.6c0,0.1-0.1,0.1-0.1,0.2c-0.3,0.5-0.5,1-0.8,1.5c-0.3,0.4-0.3,1,0,1.4c0.3,0.5,0.5,1,0.8,1.5
	c0.4,0.6,0.2,1.4-0.4,1.7c-0.1,0-0.1,0.1-0.2,0.1c-0.5,0.3-1,0.5-1.6,0.8c-0.5,0.2-0.8,0.6-0.8,1.1c-0.1,0.6-0.2,1.2-0.3,1.8
	C44.4,48.7,43.8,49.2,43,49.1C43,49.1,43,49.1,43,49.1z M37.7,47.6c4.2,0,7.6-3.4,7.6-7.6c0-4.2-3.4-7.6-7.6-7.6s-7.6,3.4-7.6,7.6
	c0,0,0,0,0,0C30.1,44.2,33.5,47.6,37.7,47.6z"/>
<path class="st1" d="M31.4,18.1h8.1c0.2,0,0.5,0,0.7,0.1c0.5,0.2,0.7,0.7,0.7,1.2c-0.1,0.5-0.6,0.9-1.2,0.9H23.1
	c-0.6,0-1.1-0.5-1.1-1.1c0,0,0,0,0,0c0-0.6,0.5-1.1,1-1.1c0,0,0,0,0.1,0C23.1,18.1,31.4,18.1,31.4,18.1z"/>
<path class="st1" d="M31.4,25.8h-8.1c-0.6,0.1-1.2-0.2-1.3-0.8s0.2-1.2,0.8-1.3c0.1,0,0.2,0,0.3,0h16.4c0.2,0,0.4,0,0.6,0.1
	c0.6,0.2,0.9,0.8,0.7,1.3c-0.1,0.5-0.6,0.8-1.1,0.8L31.4,25.8z"/>
<path class="st1" d="M45.5,46.9l1.9,1.8c0.5,0.5,1.1,1,1.6,1.6c0.2,0.2,0.3,0.5,0.3,0.8c0,0.3-0.3,0.5-0.7,0.5
	c-0.6,0.1-1.2,0.2-1.8,0.3c-0.2,0-0.4,0.2-0.4,0.4c-0.1,0.6-0.2,1.2-0.3,1.8s-0.7,0.9-1.2,0.4c-1.5-1.5-3-3-4.5-4.5c0,0,0,0,0-0.1
	c0.2-0.4,0.6-0.5,1-0.4c0.5,0.1,1.1,0.2,1.6,0.3c1.1,0.2,2.2-0.6,2.4-1.7c0,0,0,0,0,0C45.4,47.8,45.4,47.4,45.5,46.9z"/>
<path class="st1" d="M29.9,47c0.1,0.4,0.1,0.8,0.2,1.1c0.2,1.1,1.2,1.9,2.4,1.7c0,0,0,0,0,0c0.5-0.1,1-0.2,1.6-0.3
	c0.4-0.1,0.8,0,1,0.4c-0.1,0.1-0.2,0.2-0.2,0.3l-4.2,4.2c-0.2,0.3-0.5,0.5-0.9,0.3s-0.5-0.4-0.5-0.8c-0.1-0.6-0.2-1.1-0.3-1.7
	c0-0.2-0.2-0.3-0.3-0.3c-0.6-0.1-1.3-0.2-1.9-0.3c-0.4,0-0.6-0.4-0.6-0.7c0-0.2,0.1-0.3,0.2-0.4C27.5,49.3,28.7,48.2,29.9,47
	C29.8,47,29.8,47,29.9,47z"/>
</svg>
