<?xml version="1.0" encoding="utf-8"?>
<!-- Generator: Adobe Illustrator 21.1.0, SVG Export Plug-In . SVG Version: 6.00 Build 0)  -->
<svg version="1.1" id="Layer_1" xmlns="http://www.w3.org/2000/svg" xmlns:xlink="http://www.w3.org/1999/xlink" x="0px" y="0px"
	 viewBox="0 0 65.4 65.4" style="enable-background:new 0 0 65.4 65.4;" xml:space="preserve">
<style type="text/css">
	.st0{fill:none;stroke:#4277BA;stroke-width:4;stroke-miterlimit:10;}
	.st1{fill:none;stroke:#4277BA;stroke-width:5;stroke-miterlimit:10;}
</style>
<title>INDIVIDUAL ICONS 3</title>
<polygon class="st0" points="13,41.2 16.7,38.5 10.7,35.6 17.8,34.2 12.8,30.5 20.4,30 18.8,25.3 26.2,28.4 28.5,23.3 31.5,26.2 
	37.6,21.3 37.3,27.6 43.5,24.8 40.7,28.6 50.1,28.7 41.9,31.8 44,33.9 40.8,35 45.2,38.7 37.5,37.3 38,40.5 33.1,39.1 32,42.3 
	28.8,40.7 26.5,43.3 24.4,41.5 19.7,45.3 19.5,41.6 "/>
<circle class="st1" cx="32.7" cy="32.7" r="30.2"/>
</svg>
