<?xml version="1.0" encoding="UTF-8" standalone="no"?>
<!-- Generator: Adobe Illustrator 23.0.1, SVG Export Plug-In . SVG Version: 6.00 Build 0)  -->

<svg
   xmlns:dc="http://purl.org/dc/elements/1.1/"
   xmlns:cc="http://creativecommons.org/ns#"
   xmlns:rdf="http://www.w3.org/1999/02/22-rdf-syntax-ns#"
   xmlns:svg="http://www.w3.org/2000/svg"
   xmlns="http://www.w3.org/2000/svg"
   xmlns:sodipodi="http://sodipodi.sourceforge.net/DTD/sodipodi-0.dtd"
   xmlns:inkscape="http://www.inkscape.org/namespaces/inkscape"
   version="1.1"
   id="Layer_1"
   x="0px"
   y="0px"
   viewBox="0 0 55.000001 55.000001"
   enable-background="new 0 0 60.8 62.3"
   xml:space="preserve"
   sodipodi:docname="Event Listner.svg"
   width="55"
   height="55"
   inkscape:version="0.92.3 (2405546, 2018-03-11)"><metadata
   id="metadata3373"><rdf:RDF><cc:Work
       rdf:about=""><dc:format>image/svg+xml</dc:format><dc:type
         rdf:resource="http://purl.org/dc/dcmitype/StillImage" /><dc:title></dc:title></cc:Work></rdf:RDF></metadata><defs
   id="defs3371" /><sodipodi:namedview
   pagecolor="#ffffff"
   bordercolor="#666666"
   borderopacity="1"
   objecttolerance="10"
   gridtolerance="10"
   guidetolerance="10"
   inkscape:pageopacity="0"
   inkscape:pageshadow="2"
   inkscape:window-width="1920"
   inkscape:window-height="1017"
   id="namedview3369"
   showgrid="false"
   fit-margin-top="0"
   fit-margin-left="0"
   fit-margin-right="0"
   fit-margin-bottom="0"
   inkscape:zoom="3.788122"
   inkscape:cx="28.5"
   inkscape:cy="27.050001"
   inkscape:window-x="-8"
   inkscape:window-y="-8"
   inkscape:window-maximized="1"
   inkscape:current-layer="Layer_1" />
<g
   id="g3366"
   transform="translate(-1.8999996,-3.2000008)">
	<g
   id="blockchain-event-listener_2_">
		<circle
   cx="29.4"
   cy="30.700001"
   id="ellipse3355"
   r="27.5"
   style="fill:#90c740" />
	</g>
	<g
   id="g3364">
		<path
   d="m 47.8,41.7 c -0.1,0.5 -0.2,0.9 -0.3,1.4 -0.5,1.9 -1.5,3.4 -3.1,4.5 -0.4,0.3 -0.8,0.5 -1.2,0.8 0,-4.9 0,-9.7 0,-14.6 0.7,0.3 1.3,0.8 1.9,1.3 1.1,-4.5 -0.1,-10.9 -5,-15.3 -5.3,-4.7 -12.5,-5.2 -18,-2.5 -6.9,3.4 -10.2,10.9 -8.7,17.8 0.6,-0.4 1.3,-0.9 2,-1.3 0,4.9 0,9.8 0,14.7 -0.4,-0.2 -0.7,-0.4 -1,-0.6 -1.5,-1.1 -2.6,-2.5 -3.2,-4.2 -0.6,-1.7 -0.6,-3.4 0.1,-5.1 0.2,-0.4 0.4,-0.8 0.5,-1.3 0,-0.1 0.1,-0.3 0,-0.4 -0.2,-0.9 -0.5,-1.7 -0.7,-2.6 -0.4,-2.1 -0.5,-4.1 -0.2,-6.2 0.4,-3 1.5,-5.7 3.3,-8.1 1.8,-2.5 4,-4.4 6.7,-5.8 2.2,-1.1 4.6,-1.8 7,-1.9 0.1,0 0.2,0 0.3,-0.1 0.7,0 1.3,0 2,0 0.1,0 0.2,0 0.3,0.1 1.4,0.1 2.7,0.3 4,0.7 2.6,0.8 4.9,2.1 7,3.9 1.5,1.3 2.8,2.9 3.8,4.7 1.1,2 1.9,4.2 2.2,6.4 0.1,0.6 0.1,1.1 0.2,1.7 0,0.7 0,1.3 0,2 0,0.1 0,0.1 0,0.2 -0.1,1.7 -0.5,3.4 -1,5 0,0.1 0,0.2 0,0.3 0.5,0.9 0.8,1.8 0.9,2.8 0,0.2 0.1,0.3 0.1,0.5 0.1,0.3 0.1,0.8 0.1,1.2 z"
   id="path3358"
   inkscape:connector-curvature="0"
   style="fill:#ffffff" />
		<path
   d="m 20,33 c 0,5.4 0,10.8 0,16.2 -0.7,0 -1.4,-0.1 -2.1,-0.1 -0.1,0 -0.1,-0.1 -0.1,-0.2 0,-0.1 0,-0.1 0,-0.2 0,-5.1 0,-10.2 0,-15.3 0,-0.3 0.1,-0.4 0.4,-0.4 0.6,0 1.2,0 1.8,0 z"
   id="path3360"
   inkscape:connector-curvature="0"
   style="fill:#ffffff" />
		<path
   d="m 38.6,49.1 c 0,-5.4 0,-10.7 0,-16.2 0.7,0 1.4,0.1 2.1,0.1 0.1,0 0.1,0.1 0.2,0.2 0,0.1 0,0.1 0,0.2 0,5.1 0,10.2 0,15.3 0,0.3 -0.1,0.4 -0.4,0.4 -0.6,0 -1.2,0 -1.9,0 z"
   id="path3362"
   inkscape:connector-curvature="0"
   style="fill:#ffffff" />
	</g>
</g>
</svg>