<?xml version="1.0" encoding="utf-8"?>
<!-- Generator: Adobe Illustrator 21.1.0, SVG Export Plug-In . SVG Version: 6.00 Build 0)  -->
<svg version="1.1" id="Layer_1" xmlns="http://www.w3.org/2000/svg" xmlns:xlink="http://www.w3.org/1999/xlink" x="0px" y="0px"
	 viewBox="0 0 65 65" style="enable-background:new 0 0 65 65;" xml:space="preserve">
<style type="text/css">
	.st0{fill:#8CC340;}
	.st1{fill:#FFFFFF;}
</style>
<title>INDIVIDUAL ICONS 3</title>
<ellipse transform="matrix(0.7071 -0.7071 0.7071 0.7071 -13.4619 32.5)" class="st0" cx="32.5" cy="32.5" rx="32.5" ry="32.5"/>
<path class="st1" d="M32.2,7.5h0.6c0.2,0.1,0.5,0.2,0.7,0.3l1.8,1l6.7,3.8c0.6,0.3,0.9,0.9,0.9,1.5c0,0.6,0,1.2,0,1.8
	c0,0.1,0.1,0.3,0.2,0.3c2.8,1.6,5.6,3.2,8.4,4.8c0.6,0.3,1,0.9,1,1.6c0,3.3,0,6.6,0,9.8c0,0.1,0.1,0.2,0.2,0.3
	c0.5,0.3,0.9,0.5,1.4,0.8c0.6,0.3,1,0.9,0.9,1.6c0,3.2,0,6.5,0,9.7c0,0.7-0.3,1.3-0.9,1.6l-8.6,4.9c-0.5,0.3-1.1,0.3-1.6,0
	c-0.5-0.3-1.1-0.6-1.6-0.9c-0.1-0.1-0.3-0.1-0.4,0l-5.3,3l-3.4,2h-1.2l-0.3-0.2l-8.3-4.8c-0.1-0.1-0.2-0.1-0.3,0l-1.6,0.9
	c-0.5,0.3-1.1,0.3-1.6,0l-8.7-5c-0.5-0.3-0.8-0.8-0.8-1.4c0-3.3,0-6.7,0-10c0-0.5,0.3-1,0.8-1.3c0.5-0.3,1-0.6,1.5-0.8
	c0.1-0.1,0.2-0.2,0.2-0.4c0-3.3,0-6.6,0-9.8c0-0.1,0-0.3,0-0.4c0.1-0.5,0.4-1,0.9-1.2l8.5-4.8c0.2-0.1,0.2-0.2,0.2-0.4
	c0-0.6,0-1.1,0-1.7c0-0.7,0.4-1.4,1-1.6c2-1.1,4-2.3,6-3.4C30.1,8.6,31.2,8.1,32.2,7.5z M15.7,31l0.2-0.1l3.7-2.1
	c0.5-0.3,1.2-0.3,1.7,0l8.6,4.9c0.6,0.3,0.9,0.9,0.9,1.5c0,3.3,0,6.5,0,9.8c0,0.6-0.3,1.2-0.9,1.5l-3.5,2l-0.2,0.1l0.1,0.1l6.1,3.5
	c0.1,0.1,0.2,0.1,0.3,0l6-3.4l0.2-0.1l-0.2-0.1c-1.2-0.7-2.3-1.3-3.5-2c-0.6-0.3-0.9-0.9-0.9-1.6c0-3.2,0-6.5,0-9.7
	c0-0.7,0.3-1.3,0.9-1.6c2.8-1.6,5.6-3.2,8.5-4.8c0.6-0.4,1.3-0.4,1.9,0c1.2,0.7,2.4,1.4,3.6,2.1l0.2,0.1v-0.2c0-2.4,0-4.7,0-7.1
	c0-0.1-0.1-0.3-0.2-0.3L43,19.9l-0.2-0.1c0,0.1,0,0.2,0,0.2c0,1.3,0,2.6,0,3.9c0,0.6-0.3,1.2-0.9,1.5l-8.5,4.9
	c-0.5,0.3-1.2,0.3-1.8,0l-8.5-4.9c-0.6-0.3-0.9-0.9-0.9-1.5c0-1.3,0-2.6,0-4v-0.2h-0.1l-6.2,3.5c-0.1,0.1-0.2,0.2-0.1,0.3
	c0,2.4,0,4.8,0,7.2V31z M25.3,16.7v0.2c0,2,0,4,0,6.1c0,0.1,0.1,0.3,0.2,0.3l5.3,3l0.2,0.1c0-0.1,0-0.1,0-0.1c0-2.1,0-4.1,0-6.2
	c0-0.1-0.1-0.2-0.2-0.3l-4.4-2.5L25.3,16.7z M37.3,37.8V38c0,2,0,4,0,6.1c0,0.1,0.1,0.3,0.2,0.3l5.3,3l0.2,0.1c0-0.1,0-0.1,0-0.1
	c0-2.1,0-4.1,0-6.2c0-0.1-0.1-0.2-0.2-0.3l-4.4-2.5L37.3,37.8z M13.3,37.8C13.3,37.8,13.3,37.9,13.3,37.8c0,2.2,0,4.3,0,6.4
	c0,0.1,0.1,0.2,0.1,0.2l5.4,3.1l0.2,0.1v-0.2c0-2,0-4,0-6c0-0.1-0.1-0.3-0.2-0.3l-5.3-3L13.3,37.8z M34.1,26.4l0.2-0.1l5.3-3
	c0.1-0.1,0.2-0.2,0.2-0.3c0-2,0-4,0-6.1c0-0.1,0-0.1,0-0.2l-0.2,0.1l-5.3,3c-0.1,0.1-0.2,0.2-0.2,0.3c0,2,0,4,0,6.1L34.1,26.4z
	 M27.7,37.8l-0.2,0.1l-5.3,3c-0.1,0.1-0.2,0.2-0.2,0.3c0,2,0,4,0,6.1c0,0.1,0,0.1,0,0.2l0.2-0.1l5.4-3.1c0.1-0.1,0.2-0.2,0.2-0.3
	c0-2,0-4,0-6.1V37.8z M46.1,47.5l0.2-0.1l5.3-3c0.1-0.1,0.2-0.2,0.2-0.3c0-2,0-4,0-6.1c0-0.1,0-0.1,0-0.2l-0.2,0.1l-5.3,3
	c-0.1,0.1-0.2,0.2-0.2,0.3c0,2,0,4,0,6.1L46.1,47.5z M14.9,35.1L14.9,35.1l5.5,3.2c0.1,0,0.2,0,0.3,0l5.3-3l0.2-0.1L26.1,35
	l-5.4-3.1c-0.1-0.1-0.2-0.1-0.3,0l-4.7,2.7L14.9,35.1z M26.9,14L26.9,14l5.5,3.2c0.1,0.1,0.2,0.1,0.3,0l5.3-3l0.2-0.1L38,14
	l-5.4-3.1c-0.1-0.1-0.2-0.1-0.3,0L28.7,13L26.9,14z M50.2,35.1L50.2,35.1l-5.5-3.2c-0.1-0.1-0.2-0.1-0.3,0L39,35l-0.1,0.1l0.1,0.1
	l5.4,3.1c0.1,0.1,0.2,0.1,0.3,0l3.8-2.2L50.2,35.1z"/>
</svg>
