<?xml version="1.0" encoding="utf-8"?>
<!-- Generator: Adobe Illustrator 21.1.0, SVG Export Plug-In . SVG Version: 6.00 Build 0)  -->
<svg version="1.1" id="Layer_1" xmlns="http://www.w3.org/2000/svg" xmlns:xlink="http://www.w3.org/1999/xlink" x="0px" y="0px"
	 viewBox="0 0 66.1 65.9" style="enable-background:new 0 0 66.1 65.9;" xml:space="preserve">
<style type="text/css">
	.st0{fill:#FFFFFF;stroke:#787778;stroke-width:2;stroke-miterlimit:10;}
	.st1{fill:#FFFFFF;}
</style>
<title>INDIVIDUAL ICONS 3</title>
<ellipse class="st0" cx="33" cy="33" rx="32" ry="32"/>
<path class="st1" d="M12,12h42.2v42.3H12V12z M44,48.6c0.1-0.2,0.1-0.3,0.2-0.5c2.4-5.1,4.7-10.3,7.1-15.4c0.1-0.3,0.4-0.4,0.6-0.4
	c1,0.1,1.9-0.6,1.9-1.6c0-0.5-0.1-0.9-0.4-1.3c-0.4-0.6-1.2-0.9-1.9-0.6c-0.2,0.1-0.5,0-0.6-0.2L40.7,14.2L31.9,15
	c-2.8,0.3-5.7,0.5-8.5,0.8c-0.4,0-0.6,0-0.7-0.4c-0.3-0.7-1-1.1-1.8-1c-0.8,0.1-1.4,0.7-1.6,1.5c-0.1,0.7,0.2,1.5,0.8,1.9l-7.5,16.3
	L23,48.9l-0.2,0.3c-0.4,0.6-0.4,1.4,0,2c0.5,0.8,1.7,1,2.5,0.5c0.4-0.3,0.7-0.7,0.7-1.1c0.1-0.4,0.3-0.4,0.6-0.4l5.1-0.5L44,48.6z"
	/>
<path d="M44,48.6l-12.1,1.2l-5.1,0.5c-0.3,0-0.6,0-0.6,0.4c-0.2,1-1.1,1.6-2.1,1.4c-0.5-0.1-0.9-0.4-1.1-0.7c-0.4-0.6-0.4-1.4,0-2
	l0.2-0.3L12.7,34.2l7.5-16.3c-0.6-0.4-1-1.2-0.8-1.9c0.1-0.8,0.8-1.4,1.6-1.5c0.8-0.1,1.5,0.3,1.8,1c0.2,0.4,0.3,0.4,0.7,0.4
	c2.8-0.3,5.7-0.5,8.5-0.8l8.8-0.8l10.1,14.3c0.1,0.2,0.4,0.3,0.6,0.2c0.9-0.3,1.9,0.2,2.2,1.2c0.1,0.4,0.1,0.9-0.1,1.3
	c-0.3,0.7-1,1.1-1.8,1c-0.3-0.1-0.6,0.1-0.6,0.4c-2.3,5.1-4.7,10.3-7.1,15.4C44.1,48.2,44,48.4,44,48.6z M39,34.1l0-0.2
	c-0.4-1.9-0.7-3.8-1.1-5.6c-0.1-0.2-0.2-0.4-0.4-0.5c-2-0.7-3.9-1.4-5.9-2.1c-0.2-0.1-0.4,0-0.6,0.1c-1.4,1.2-2.9,2.5-4.3,3.7
	c-0.1,0.2-0.2,0.4-0.2,0.6c0.4,2,0.8,4,1.2,6c0.1,0.2,0.2,0.4,0.4,0.5c1.8,0.7,3.7,1.3,5.5,1.9c0.2,0.1,0.4,0,0.6-0.1
	c1.6-1.3,3.1-2.6,4.6-4C38.9,34.3,39,34.2,39,34.1z M20.9,27.2h-0.1l-7.6,7l8.7,4.9c-0.1-0.4-0.1-0.7-0.2-1
	c-0.1-0.6-0.2-1.2-0.3-1.8c0-0.1-0.2-0.2-0.3-0.2c-0.9-0.1-1.6-0.8-1.7-1.7c0-0.8,0.5-1.6,1.3-1.9c0.2-0.1,0.3-0.3,0.3-0.5
	c0-0.7,0-1.3,0-1.9C20.9,29.1,20.9,28.1,20.9,27.2z M34,44.8l9.6,3.4L43.9,38l-2,1.8c0.5,1.2,0.4,2-0.4,2.5c-0.8,0.6-2,0.5-2.6-0.3
	c0,0,0,0,0,0L34,44.8z M13.8,34.8L13.8,34.8l0,0.3c3.1,4.4,6.2,8.8,9.3,13.2c0.1,0.1,0.2,0.2,0.4,0.3c0.1-0.2,0.1-0.3,0.1-0.5
	c-0.5-2.5-1-5-1.4-7.5c0-0.8-0.5-1.5-1.3-1.8c-0.4-0.2-0.7-0.4-1-0.6L13.8,34.8z M42.7,48.3c-0.1-0.1-0.1-0.1-0.1-0.1l-8.8-3.1
	c-0.2-0.1-0.3-0.1-0.5,0c-2.4,1.3-4.7,2.7-7.1,4.1c-0.1,0.1-0.1,0.3-0.2,0.4c0.1,0.1,0.3,0.2,0.4,0.2c0.4,0,0.8-0.1,1.2-0.1
	l12.2-1.1L42.7,48.3z M32.3,19.2v0.1c0.7,0.2,1.5,0.5,2.2,0.6c0.2,0,0.4-0.1,0.5-0.2c0.5-0.7,1.4-0.9,2.2-0.5c0.8,0.4,1.2,1.2,1,2.1
	c-0.1,0.2,0,0.5,0.2,0.6c1.3,0.8,2.6,1.6,3.8,2.4c0.1,0.1,0.2,0.1,0.4,0.2l-2.2-9.7L32.3,19.2z M13.5,33.2c0.1,0,0.2-0.1,0.3-0.2
	c2.3-2.1,4.6-4.2,6.8-6.3c0.2-0.2,0.3-0.5,0.3-0.7c0-2.5,0-5,0-7.5c0-0.1,0-0.2,0-0.3c0-0.1-0.1-0.2-0.2-0.3c0,0-0.2,0.1-0.3,0.2
	c-0.1,0.1-0.1,0.2-0.1,0.3l-6.5,14.2C13.7,32.8,13.6,33,13.5,33.2z M44,47.2L44,47.2c0.1-0.1,0.2-0.2,0.2-0.3
	c2.2-4.8,4.4-9.7,6.7-14.5c0-0.2,0-0.3,0-0.5c-0.2,0-0.3,0.1-0.5,0.2c-1.7,1.5-3.3,3-5,4.4c-0.9,0.6-1.3,1.7-1.3,2.7
	C44.2,41.9,44.1,44.5,44,47.2L44,47.2z M41.2,15.5c0,0.1,0,0.2,0,0.3c0.7,2.9,1.3,5.8,2,8.6c0.1,0.2,0.2,0.4,0.5,0.6
	c2.2,1.4,4.4,2.7,6.6,4.1c0.1,0.1,0.2,0.1,0.3,0.2c0.1,0,0.3,0,0.3,0c0-0.1,0-0.2,0-0.3c0-0.1-0.1-0.2-0.2-0.3l-9-12.7
	C41.4,15.8,41.3,15.7,41.2,15.5z M39.6,14.7c-0.1,0-0.3,0-0.4,0l-3.7,0.3L25.9,16c-0.9,0.1-1.8,0.2-2.7,0.3c-0.1,0-0.2,0.1-0.3,0.2
	c0.1,0.1,0.2,0.1,0.3,0.2c0.1,0,0.2,0.1,0.3,0.1c2.6,0.8,5.2,1.5,7.8,2.3c0.3,0.1,0.6,0,0.9-0.1c2.3-1.3,4.7-2.6,7-3.8
	C39.2,15,39.3,14.8,39.6,14.7z M28.5,42.8c0-0.1,0-0.2,0-0.3c-0.4-1.9-0.7-3.8-1.1-5.7c-0.1-0.2-0.2-0.4-0.4-0.5
	c-1.3-0.5-2.6-0.9-3.9-1.3c-0.7-0.2-0.7,0.8-1.3,0.9c-0.1,0-0.1,0.2-0.1,0.3s0,0.1,0,0.1c0.2,0.9,0.3,1.8,0.5,2.7
	c0.1,0.2,0.2,0.4,0.4,0.5c0.7,0.4,1.5,0.8,2.2,1.3L28.5,42.8z M29.2,43.1c1.4,0.5,2.8,1,4.2,1.5c0.2,0,0.4,0,0.5-0.2
	c1.3-0.8,2.6-1.5,3.9-2.2c0.6-0.3,1-0.6,0.8-1.4c-0.1-0.3-0.1-0.4-0.4-0.5c-1.2-0.4-2.5-0.9-3.7-1.3c-0.2,0-0.5,0-0.7,0.2
	c-1.3,1.1-2.5,2.2-3.8,3.2L29.2,43.1z M24.8,23.4c-1.1,1-2.2,2-3.2,2.9c-0.2,0.2-0.3,0.5-0.3,0.8c0,1.3,0,2.7,0,4
	c0,0.7-0.1,1.3,0.8,1.5l0,0c0.2,0.2,0.4,0.2,0.6,0c1-0.9,2-1.8,3-2.7c0.1-0.1,0.2-0.3,0.2-0.5C25.6,27.5,25.2,25.5,24.8,23.4
	L24.8,23.4z M38,22c-0.2,0.2-0.5,0.3-0.7,0.5C37,22.6,37,22.7,37,23c0.3,1.4,0.5,2.8,0.8,4.2c0.1,0.2,0.2,0.4,0.4,0.5
	c1,0.4,2,0.7,3,1.1l2.5,0.9c0-0.1,0-0.1,0-0.2c-0.3-1.4-0.6-2.8-1-4.2c0-0.1-0.1-0.2-0.2-0.3L38,22z M34.7,20.4
	c-0.8-0.2-1.7-0.5-2.5-0.7c-0.3-0.1-0.6,0-0.8,0.1c-1.8,1-3.6,2-5.4,3c-0.1,0.1-0.3,0.2-0.5,0.3c0.2,0.1,0.4,0.2,0.5,0.2
	c1.4,0.5,2.8,1,4.2,1.5c0.7,0.4,1.6,0.2,2.1-0.4c0.9-0.9,1.9-1.6,2.7-2.4L34.7,20.4z M44,30.4c-1.5,1.3-2.9,2.5-4.3,3.7
	c-0.3,0.2-0.4,0.6-0.3,0.9c0.2,1.1,0.4,2.2,0.6,3.3c0.1,0.5,0.2,0.9,0.8,0.8c0.2,0,0.3,0.1,0.5,0.2c0.3,0.2,0.4,0.1,0.6-0.1
	c0.5-0.5,1.1-1,1.7-1.5c0.2-0.2,0.3-0.4,0.3-0.6c0.1-1.8,0.1-3.5,0.1-5.3C44,31.4,44,31,44,30.4L44,30.4z M22.4,39.8
	c0,0.1,0,0.2,0,0.3c0.5,2.6,1,5.3,1.5,7.9c0.1,0.7,0.6,0.4,1,0.6s0.4-0.1,0.5-0.3l2.9-4.6c0.1-0.1,0.1-0.2,0.2-0.4L22.4,39.8z
	 M31.2,19.4c-0.1,0-0.1-0.1-0.2-0.1L23.1,17c-0.5-0.2-0.5,0.4-0.8,0.6c-0.1,0-0.1,0.4,0,0.5c0.8,1.5,1.7,3,2.5,4.5
	c0.1,0.1,0.1,0.2,0.2,0.3L31.2,19.4z M44.3,37c0.1-0.1,0.3-0.2,0.4-0.3c1.8-1.6,3.6-3.2,5.4-4.8c0.5-0.4,0.2-0.7,0.1-1
	c-0.1-0.2-0.3-0.3-0.5-0.3c-1.2-0.1-2.4-0.2-3.6-0.2l-1.8-0.1L44.3,37z M27.7,36.5l1.2,6.2l4.8-4.1L27.7,36.5z M37.7,27.5
	c-0.2-1.6-0.6-3.1-0.9-4.6c0-0.1-0.1-0.2-0.2-0.2c-0.5-0.1-1-0.3-1.5-0.4l-3.5,3.1L37.7,27.5z M26.4,29.5l4.7-4l-5.9-2.1L26.4,29.5z
	 M39.2,34l4.7-4L38,27.9L39.2,34z M26.1,30c-1.2,1-2.3,2-3.4,2.9c-0.1,0.1-0.1,0.2,0,0.3c0.1,0.5,0.2,1,0.4,1.5l4.3,1.5L26.1,30z
	 M38.6,40.2L40,39l-0.8-4.4l-4.8,4.1L38.6,40.2z M21.3,26l0.1,0.1c1-1,2.1-1.9,3.1-2.9c0.1-0.1,0-0.4,0-0.5
	c-0.8-1.4-1.6-2.9-2.4-4.3c-0.1-0.2-0.2-0.5-0.5-0.4c-0.2,0.1-0.3,0.4-0.3,0.6c0,2,0,4,0,6C21.3,25,21.3,25.5,21.3,26z M33.1,44.8
	c-1.3-0.5-2.6-0.9-3.8-1.3c-0.3-0.1-0.5,0-0.7,0.3c-1,1.5-2,3.1-2.9,4.6c-0.1,0.2-0.1,0.4-0.1,0.6c0.2,0,0.4-0.1,0.6-0.1
	c2-1.1,4-2.3,6-3.4L33.1,44.8z M43.3,25.3c0.3,1.4,0.6,2.6,0.9,3.9c0,0.4,0.3,0.6,0.7,0.6c0,0,0,0,0,0c1.6,0.1,3.2,0.2,4.8,0.3
	c0.2,0,0.4-0.2,0.5-0.2c-0.1-0.2-0.2-0.4-0.3-0.5c-2-1.3-4.1-2.6-6.2-3.8L43.3,25.3z"/>
<path class="st1" d="M39,34.1c-0.1,0.1-0.1,0.2-0.2,0.3c-1.5,1.3-3.1,2.7-4.6,4c-0.2,0.1-0.4,0.1-0.6,0.1c-1.9-0.6-3.7-1.3-5.5-1.9
	c-0.2-0.1-0.3-0.3-0.4-0.5c-0.4-2-0.8-4-1.2-6c0-0.2,0-0.4,0.2-0.6c1.4-1.3,2.9-2.5,4.3-3.7c0.2-0.1,0.4-0.2,0.6-0.1
	c2,0.7,3.9,1.4,5.9,2.1c0.2,0.1,0.4,0.2,0.4,0.5c0.4,1.9,0.7,3.7,1.1,5.6L39,34.1z"/>
<path class="st1" d="M20.9,27.2c0,0.9,0,1.9,0,2.8c0,0.7,0,1.3,0,1.9c0,0.2-0.1,0.4-0.3,0.5c-0.8,0.3-1.3,1-1.3,1.9
	c0.1,0.9,0.8,1.6,1.7,1.7c0.1,0,0.3,0.1,0.3,0.2c0.1,0.6,0.2,1.2,0.3,1.8c0,0.3,0.1,0.6,0.2,1l-8.7-4.9l7.6-7L20.9,27.2z"/>
<path class="st1" d="M34,44.8l4.8-2.8c0.6,0.8,1.8,1,2.6,0.4c0,0,0,0,0,0c0.8-0.5,0.9-1.4,0.4-2.5l2-1.8l-0.2,10.1L34,44.8z"/>
<path class="st1" d="M13.8,34.8l6.1,3.5c0.3,0.2,0.7,0.4,1,0.6c0.7,0.3,1.2,0.9,1.3,1.7c0.4,2.5,0.9,5,1.4,7.5c0,0.2,0,0.3-0.1,0.5
	c-0.1-0.1-0.3-0.2-0.4-0.3c-3.1-4.4-6.2-8.8-9.3-13.2L13.8,34.8L13.8,34.8z"/>
<path class="st1" d="M42.7,48.3l-2.9,0.3l-12.2,1.1c-0.4,0-0.8,0.1-1.2,0.1c-0.1,0-0.3-0.1-0.4-0.2c0.1-0.1,0.1-0.3,0.2-0.4
	c2.4-1.4,4.7-2.7,7.1-4.1c0.2-0.1,0.3-0.1,0.5,0l8.8,3.1C42.6,48.2,42.6,48.2,42.7,48.3z"/>
<path class="st1" d="M32.3,19.2l8.2-4.5l2.2,9.7c-0.1,0-0.3-0.1-0.4-0.2c-1.3-0.8-2.5-1.6-3.8-2.4c-0.2-0.1-0.3-0.4-0.2-0.6
	c0,0,0,0,0,0c0.2-0.9-0.2-1.7-1-2.1c-0.8-0.4-1.7-0.1-2.2,0.5c-0.1,0.2-0.3,0.2-0.5,0.2C33.8,19.8,33,19.5,32.3,19.2L32.3,19.2z"/>
<path class="st1" d="M13.5,33.2c0.1-0.3,0.2-0.4,0.2-0.5l6.5-14.2c0-0.1,0.1-0.2,0.1-0.3c0.1-0.1,0.2-0.2,0.3-0.2
	c0.1,0.1,0.2,0.2,0.2,0.3c0,0.1,0,0.2,0,0.3c0,2.5,0,5,0,7.5c0,0.3-0.1,0.5-0.3,0.7c-2.3,2.1-4.6,4.2-6.8,6.3
	C13.7,33.1,13.6,33.2,13.5,33.2z"/>
<path class="st1" d="M44,47.2c0-2.6,0.2-5.3,0.1-7.9c-0.1-1.1,0.4-2.1,1.3-2.7c1.7-1.4,3.4-3,5-4.4c0.1-0.1,0.3-0.2,0.5-0.2
	c0,0.2,0,0.3,0,0.5c-2.2,4.8-4.4,9.7-6.7,14.5c0,0.1-0.1,0.2-0.1,0.3L44,47.2z"/>
<path class="st1" d="M41.2,15.5c0.2,0.2,0.3,0.4,0.4,0.5l9,12.7c0.1,0.1,0.1,0.2,0.2,0.3c0,0.1,0,0.2,0,0.3c0,0-0.2,0-0.3,0
	c-0.1,0-0.2-0.1-0.3-0.2c-2.2-1.4-4.4-2.7-6.5-4.1c-0.2-0.1-0.4-0.3-0.5-0.6c-0.7-2.9-1.3-5.8-2-8.6C41.1,15.7,41.1,15.6,41.2,15.5z
	"/>
<path class="st1" d="M39.6,14.7c-0.2,0.1-0.3,0.2-0.5,0.3c-2.3,1.3-4.7,2.6-7,3.8c-0.3,0.1-0.6,0.2-0.9,0.1
	c-2.6-0.7-5.2-1.5-7.8-2.3c-0.1,0-0.2,0-0.3-0.1c-0.1-0.1-0.2-0.1-0.3-0.2c0.1-0.1,0.2-0.2,0.3-0.2c0.9-0.1,1.8-0.2,2.7-0.3l9.6-0.9
	l3.7-0.3C39.3,14.7,39.4,14.7,39.6,14.7z"/>
<path class="st1" d="M28.5,42.8l-3.7-2.1c-0.7-0.4-1.5-0.8-2.2-1.3c-0.2-0.1-0.3-0.3-0.4-0.5c-0.2-0.9-0.3-1.8-0.5-2.7
	c0,0,0-0.1,0-0.1s0.1-0.3,0.1-0.3c0.6-0.1,0.6-1.1,1.3-0.9c1.3,0.4,2.6,0.9,3.9,1.3c0.2,0.1,0.3,0.3,0.4,0.5
	c0.4,1.9,0.8,3.8,1.1,5.7C28.5,42.6,28.5,42.7,28.5,42.8z"/>
<path class="st1" d="M29.2,43.1l0.8-0.7c1.3-1.1,2.5-2.2,3.8-3.2c0.2-0.2,0.4-0.2,0.7-0.2c1.3,0.4,2.5,0.9,3.7,1.3
	c0.3,0.1,0.3,0.3,0.4,0.5c0.2,0.8-0.2,1.1-0.8,1.4c-1.3,0.7-2.6,1.5-3.9,2.2c-0.2,0.1-0.3,0.2-0.5,0.2C32,44.1,30.7,43.6,29.2,43.1z
	"/>
<path class="st1" d="M24.8,23.4c0.4,2.1,0.8,4.1,1.2,6c0,0.2-0.1,0.4-0.2,0.5c-1,0.9-2,1.8-3,2.7c-0.2,0.2-0.4,0.2-0.6,0l0,0
	c-0.9-0.2-0.8-0.8-0.8-1.5c0-1.3,0-2.7,0-4c0-0.3,0.1-0.6,0.3-0.8C22.7,25.4,23.7,24.5,24.8,23.4z"/>
<path class="st1" d="M38,22l4.6,2.9c0.1,0.1,0.2,0.2,0.2,0.3c0.3,1.4,0.7,2.8,1,4.2c0,0.1,0,0.1,0,0.2l-2.5-0.9c-1-0.4-2-0.7-3-1.1
	c-0.2-0.1-0.4-0.3-0.4-0.5c-0.3-1.4-0.5-2.8-0.8-4.2c0-0.3,0-0.4,0.3-0.5C37.6,22.3,37.8,22.1,38,22z"/>
<path class="st1" d="M34.7,20.4l0.4,1.6c-0.9,0.8-1.9,1.5-2.7,2.4c-0.5,0.6-1.4,0.8-2.1,0.4c-1.4-0.6-2.8-1-4.2-1.5
	c-0.2-0.1-0.3-0.1-0.5-0.2c0.2-0.1,0.3-0.2,0.5-0.3c1.8-1,3.6-2,5.4-3c0.3-0.1,0.5-0.2,0.8-0.1C33,19.8,33.9,20.2,34.7,20.4z"/>
<path class="st1" d="M44,30.4c0,0.5,0,1,0,1.4c0,1.8-0.1,3.5-0.1,5.3c0,0.2-0.1,0.5-0.3,0.6c-0.5,0.5-1.1,1-1.7,1.5
	c-0.2,0.2-0.4,0.3-0.6,0.1c-0.1-0.1-0.3-0.2-0.5-0.2c-0.6,0.1-0.7-0.3-0.8-0.8c-0.2-1.1-0.4-2.2-0.6-3.3c-0.1-0.4,0-0.7,0.3-0.9
	C41.1,32.9,42.5,31.7,44,30.4z"/>
<path class="st1" d="M22.4,39.8l6.1,3.4c-0.1,0.2-0.1,0.3-0.2,0.4l-2.9,4.6c-0.1,0.2-0.2,0.5-0.5,0.3s-0.8,0.1-1-0.6
	c-0.5-2.6-1-5.3-1.5-7.9C22.4,39.9,22.4,39.8,22.4,39.8z"/>
<path class="st1" d="M31.2,19.4l-6.1,3.4c-0.1-0.1-0.1-0.2-0.2-0.3c-0.8-1.5-1.7-3-2.5-4.5c-0.1-0.1-0.1-0.4,0-0.5
	c0.3-0.2,0.2-0.7,0.8-0.6l7.8,2.3C31,19.3,31.1,19.4,31.2,19.4z"/>
<path class="st1" d="M44.4,37v-6.8l1.8,0.1c1.2,0.1,2.4,0.1,3.6,0.2c0.2,0,0.4,0.1,0.5,0.3c0.1,0.3,0.4,0.6-0.1,1
	c-1.8,1.6-3.6,3.2-5.4,4.8C44.6,36.8,44.5,36.9,44.4,37z"/>
<path class="st1" d="M27.8,36.6l6,2.1l-4.8,4.1L27.8,36.6z"/>
<path class="st1" d="M37.8,27.5l-6.2-2.2l3.5-3.1c0.6,0.2,1,0.3,1.5,0.4c0.1,0,0.2,0.1,0.2,0.2C37.2,24.3,37.5,25.8,37.8,27.5z"/>
<path class="st1" d="M26.4,29.5l-1.2-6.2l5.9,2.1L26.4,29.5z"/>
<path class="st1" d="M39.2,34.1L38,28l5.8,2.1L39.2,34.1z"/>
<path class="st1" d="M26.1,30l1.2,6.3L23,34.7c-0.2-0.6-0.3-1.1-0.4-1.5c0-0.1,0-0.2,0-0.3C23.8,31.9,24.9,31,26.1,30z"/>
<path class="st1" d="M38.6,40.2l-4.2-1.5l4.8-4.1L40,39L38.6,40.2z"/>
<path class="st1" d="M21.3,26c0-0.5,0-0.9,0-1.4c0-2,0-4,0-6c0-0.2,0.1-0.4,0.3-0.6c0.3-0.2,0.4,0.2,0.5,0.4
	c0.8,1.4,1.6,2.9,2.4,4.3c0.1,0.1,0.1,0.4,0,0.5C23.5,24.2,22.4,25.1,21.3,26L21.3,26z"/>
<path class="st1" d="M33.1,44.8l-1,0.6c-2,1.2-4,2.3-6,3.4C26,48.9,25.8,49,25.6,49c0-0.2,0-0.4,0.1-0.6c1-1.5,2-3.1,2.9-4.6
	c0.2-0.3,0.3-0.4,0.7-0.3C30.5,44,31.8,44.4,33.1,44.8z"/>
<path class="st1" d="M43.3,25.3l0.5,0.3c2,1.3,4.1,2.5,6.1,3.8c0.2,0.1,0.2,0.3,0.3,0.5c-0.2,0.1-0.4,0.2-0.5,0.2
	c-1.6-0.1-3.2-0.2-4.8-0.3c-0.4,0-0.7-0.2-0.7-0.6c0,0,0,0,0,0C44,28,43.7,26.7,43.3,25.3z"/>
</svg>
