<?xml version="1.0" encoding="UTF-8" standalone="no"?>
<!-- Generator: Adobe Illustrator 23.0.1, SVG Export Plug-In . SVG Version: 6.00 Build 0)  -->

<svg
   xmlns:dc="http://purl.org/dc/elements/1.1/"
   xmlns:cc="http://creativecommons.org/ns#"
   xmlns:rdf="http://www.w3.org/1999/02/22-rdf-syntax-ns#"
   xmlns:svg="http://www.w3.org/2000/svg"
   xmlns="http://www.w3.org/2000/svg"
   xmlns:sodipodi="http://sodipodi.sourceforge.net/DTD/sodipodi-0.dtd"
   xmlns:inkscape="http://www.inkscape.org/namespaces/inkscape"
   version="1.1"
   id="Layer_1"
   x="0px"
   y="0px"
   viewBox="0 0 55.000001 55.000001"
   enable-background="new 0 0 60.8 62.3"
   xml:space="preserve"
   sodipodi:docname="Identity &amp; Access Manager.svg"
   width="55"
   height="55"
   inkscape:version="0.92.3 (2405546, 2018-03-11)"><metadata
   id="metadata4111"><rdf:RDF><cc:Work
       rdf:about=""><dc:format>image/svg+xml</dc:format><dc:type
         rdf:resource="http://purl.org/dc/dcmitype/StillImage" /><dc:title></dc:title></cc:Work></rdf:RDF></metadata><defs
   id="defs4109" /><sodipodi:namedview
   pagecolor="#ffffff"
   bordercolor="#666666"
   borderopacity="1"
   objecttolerance="10"
   gridtolerance="10"
   guidetolerance="10"
   inkscape:pageopacity="0"
   inkscape:pageshadow="2"
   inkscape:window-width="1920"
   inkscape:window-height="1017"
   id="namedview4107"
   showgrid="false"
   fit-margin-top="0"
   fit-margin-left="0"
   fit-margin-right="0"
   fit-margin-bottom="0"
   inkscape:zoom="10.714427"
   inkscape:cx="7.0186389"
   inkscape:cy="24.773843"
   inkscape:window-x="-8"
   inkscape:window-y="-8"
   inkscape:window-maximized="1"
   inkscape:current-layer="Layer_1" />
<g
   id="blockchain-identity-access-management_2_"
   transform="translate(-4,-3.2000008)">
	<circle
   cx="31.5"
   cy="30.700001"
   r="27.5"
   id="circle4079"
   style="clip-rule:evenodd;fill:#d91f2f;fill-rule:evenodd" />
	<g
   id="g4103">
		<path
   stroke-miterlimit="10"
   d="m 19.2,25 c -0.1,-0.9 -0.1,-2.3 0.4,-4 0.5,-1.9 1.4,-3.1 1.9,-3.8 0.5,-0.7 1.6,-2.2 3.7,-3.4 1.7,-0.9 3.2,-1.2 3.9,-1.4 1.5,-0.3 2.7,-0.2 3.4,-0.2 1.8,0.2 3.2,0.7 3.5,0.8 0.4,0.2 2,0.8 3.6,2.2 1.3,1.2 2,2.3 2.2,2.6 0.9,1.4 1.2,2.7 1.3,2.9 0.2,0.8 0.3,1.4 0.3,1.9 0.2,2.9 0.2,7.8 0.2,8.6"
   id="path4081"
   inkscape:connector-curvature="0"
   style="fill:none;stroke:#ffffff;stroke-width:1.3197;stroke-miterlimit:10" />
		<path
   stroke-miterlimit="10"
   d="m 18.8,27.7 c 0.3,0 0.9,0.1 1.6,-0.3 0.7,-0.3 1.1,-0.9 1.2,-1.1 0.1,-0.1 0.3,-0.5 0.6,-1.8 0.2,-1.1 0.1,-1.4 0.3,-2.2 0,-0.2 0.2,-1.2 0.6,-2.1 0.9,-1.8 2.4,-2.9 3.2,-3.4 0.6,-0.4 1.3,-0.9 2.5,-1.2 0.4,-0.1 2.5,-0.7 5,-0.1 0.4,0.1 1.5,0.4 2.8,1.2 1.1,0.7 1.8,1.5 2.3,2.1 0.6,0.7 1.1,1.3 1.5,2.3 0.2,0.6 0.3,1 0.3,1.4 0.2,1.4 0.2,4.9 0.2,7.8 0,0.3 -0.2,1 0.2,1.6 0.3,0.6 0.7,0.9 1.1,1.1 0.7,0.5 1.5,0.7 2,0.8"
   id="path4083"
   inkscape:connector-curvature="0"
   style="fill:none;stroke:#ffffff;stroke-width:1.3197;stroke-miterlimit:10" />
		<path
   stroke-miterlimit="10"
   d="m 18.8,30.7 c 0.4,0 1,0.1 1.8,-0.1 1,-0.2 1.7,-0.7 2.1,-0.9 0.5,-0.3 1.2,-0.8 1.8,-1.7 0.4,-0.6 0.5,-1.5 0.7,-3.2 0.2,-1.7 0.2,-2 0.5,-2.7 0.1,-0.2 0.4,-1 1.2,-1.8 0.6,-0.7 1.3,-1.1 1.6,-1.2 0.8,-0.5 1.6,-0.6 1.8,-0.7 1,-0.2 1.8,-0.1 2.2,0 0.5,0.1 1.1,0.2 1.8,0.5 0.7,0.3 1.1,0.7 1.5,1.1 0.4,0.4 0.9,0.8 1.3,1.6 0.4,0.8 0.6,1.5 0.6,1.8 0.1,0.5 0.1,0.9 0.1,1.1 -0.1,2.5 0.2,5 0.1,7.5 0,0.2 0,0.7 0.2,1.2 0.2,0.6 0.9,1.3 1.5,1.8 0.6,0.6 1.3,0.9 1.5,1 0.5,0.3 1.6,0.6 3.1,0.7"
   id="path4085"
   inkscape:connector-curvature="0"
   style="fill:none;stroke:#ffffff;stroke-width:1.3197;stroke-miterlimit:10" />
		<path
   stroke-miterlimit="10"
   d="m 18.8,33.7 c 0.4,0.1 0.9,0.2 1.6,0.1 0.9,-0.1 1.6,-0.4 2.2,-0.8 0.3,-0.1 0.9,-0.5 1.6,-1 0.4,-0.3 1.4,-1.1 2.3,-2.4 0.6,-0.8 0.8,-1.2 1.1,-1.9 0.1,-0.1 0.2,-0.7 0.3,-1.9 0.1,-0.7 0.2,-1.2 0.4,-1.8 0.2,-0.8 0.3,-1 0.4,-1.2 0.3,-0.4 0.6,-0.6 1,-0.9 0.5,-0.3 0.9,-0.6 1.5,-0.7 0.5,-0.1 0.9,0.1 1.1,0.1 0.1,0 0.6,0.2 1,0.6 0.1,0.1 0.6,0.5 0.9,1.1 0.3,0.7 0.3,1.3 0.1,2.5 -0.2,1.6 -0.3,2.4 -0.6,3.4 -0.2,0.5 -0.7,2.2 -1.9,3.9 -2.1,3 -4.8,4.4 -5.8,4.9 -2.9,1.5 -5.6,1.8 -7.2,1.9"
   id="path4087"
   inkscape:connector-curvature="0"
   style="fill:none;stroke:#ffffff;stroke-width:1.3197;stroke-miterlimit:10" />
		<path
   stroke-miterlimit="10"
   d="m 19.3,36.7 c 0.7,0 1.8,0 3,-0.4 2.6,-0.7 4.3,-2.2 4.9,-2.8 1.2,-1.1 1.9,-2.2 2.4,-2.9 0.5,-0.7 0.9,-1.4 1.3,-2.3 0.3,-0.8 0.8,-2.3 0.6,-4.4"
   id="path4089"
   inkscape:connector-curvature="0"
   style="fill:none;stroke:#ffffff;stroke-width:1.3197;stroke-miterlimit:10" />
		<path
   stroke-miterlimit="10"
   d="m 32,36.5 c 0.5,0 1,0 1.5,0"
   id="path4091"
   inkscape:connector-curvature="0"
   style="fill:none;stroke:#ffffff;stroke-width:1.3197;stroke-miterlimit:10" />
		<path
   stroke-miterlimit="10"
   d="m 35,33.6 c 0.1,0.4 0.3,0.9 0.6,1.5 0.5,0.9 1,1.4 1.6,1.9 1,0.9 1.9,1.5 2.3,1.7 0.5,0.3 1.1,0.6 2,0.9 1.1,0.3 2.1,0.3 2.8,0.2"
   id="path4093"
   inkscape:connector-curvature="0"
   style="fill:none;stroke:#ffffff;stroke-width:1.3197;stroke-miterlimit:10" />
		<path
   stroke-miterlimit="10"
   d="m 42.1,43 c -0.5,-0.1 -1.1,-0.4 -1.9,-0.7 -0.9,-0.3 -1.4,-0.5 -2,-0.9 -1,-0.6 -1.3,-0.7 -2.1,-1.1 -0.7,-0.4 -1.7,-0.7 -2.4,-0.9 -0.9,-0.2 -1.4,-0.3 -2.8,0 -0.5,0.1 -0.9,0.3 -1.9,0.7 -1.9,0.9 -2,1.2 -3.2,1.6 -1.2,0.5 -2.3,0.7 -3,0.8 -0.9,0.1 -1.6,0.2 -2.2,0.2"
   id="path4095"
   inkscape:connector-curvature="0"
   style="fill:none;stroke:#ffffff;stroke-width:1.3197;stroke-miterlimit:10" />
		<path
   stroke-miterlimit="10"
   d="m 23.1,45.6 c 0.8,0 1.4,-0.1 1.8,-0.2 0.7,-0.2 1.3,-0.5 1.7,-0.7 0.6,-0.3 0.6,-0.4 1.5,-0.8 0.6,-0.3 1,-0.5 1.4,-0.7 0.7,-0.3 1.1,-0.5 1.6,-0.6 0.4,-0.1 0.6,0 1.2,0 0.5,0 0.9,0.1 1.4,0.2 0.4,0.1 0.8,0.3 1.5,0.7 0.5,0.3 0.6,0.3 1.1,0.6 0.2,0.1 0.9,0.5 1.5,0.8 0.5,0.2 1.4,0.5 2.5,0.7"
   id="path4097"
   inkscape:connector-curvature="0"
   style="fill:none;stroke:#ffffff;stroke-width:1.3197;stroke-miterlimit:10" />
		<path
   stroke-miterlimit="10"
   d="m 26.3,48.1 c 0.7,-0.2 1.3,-0.4 1.7,-0.6 0.5,-0.2 1.1,-0.5 1.8,-1 0.7,-0.4 0.7,-0.6 1.1,-0.7 0.7,-0.3 1.3,-0.2 1.6,-0.1 0.7,0.1 1.1,0.3 1.4,0.4 0.3,0.2 0.6,0.3 1.2,0.7 0.6,0.4 0.8,0.5 1.2,0.8 0.4,0.2 0.7,0.3 0.9,0.4"
   id="path4099"
   inkscape:connector-curvature="0"
   style="fill:none;stroke:#ffffff;stroke-width:1.3197;stroke-miterlimit:10" />
		<path
   stroke-miterlimit="10"
   d="m 31.5,49.1 c 0.6,0 1.1,0 1.7,0"
   id="path4101"
   inkscape:connector-curvature="0"
   style="fill:none;stroke:#ffffff;stroke-width:1.3197;stroke-miterlimit:10" />
	</g>
</g>
</svg>