<?xml version="1.0" encoding="UTF-8" standalone="no"?>
<!-- Generator: Adobe Illustrator 23.0.1, SVG Export Plug-In . SVG Version: 6.00 Build 0)  -->

<svg
   xmlns:dc="http://purl.org/dc/elements/1.1/"
   xmlns:cc="http://creativecommons.org/ns#"
   xmlns:rdf="http://www.w3.org/1999/02/22-rdf-syntax-ns#"
   xmlns:svg="http://www.w3.org/2000/svg"
   xmlns="http://www.w3.org/2000/svg"
   xmlns:xlink="http://www.w3.org/1999/xlink"
   xmlns:sodipodi="http://sodipodi.sourceforge.net/DTD/sodipodi-0.dtd"
   xmlns:inkscape="http://www.inkscape.org/namespaces/inkscape"
   version="1.1"
   id="Layer_1"
   x="0px"
   y="0px"
   viewBox="0 0 22.599999 22.600001"
   enable-background="new 0 0 1028.3 703.3"
   xml:space="preserve"
   sodipodi:docname="key_management.svg"
   inkscape:version="0.92.3 (2405546, 2018-03-11)"
   width="22.6"
   height="22.6"><metadata
   id="metadata2176"><rdf:RDF><cc:Work
       rdf:about=""><dc:format>image/svg+xml</dc:format><dc:type
         rdf:resource="http://purl.org/dc/dcmitype/StillImage" /><dc:title></dc:title></cc:Work></rdf:RDF></metadata><defs
   id="defs2174" /><sodipodi:namedview
   pagecolor="#ffffff"
   bordercolor="#666666"
   borderopacity="1"
   objecttolerance="10"
   gridtolerance="10"
   guidetolerance="10"
   inkscape:pageopacity="0"
   inkscape:pageshadow="2"
   inkscape:window-width="1920"
   inkscape:window-height="1017"
   id="namedview2172"
   showgrid="false"
   inkscape:zoom="13.378847"
   inkscape:cx="31.497311"
   inkscape:cy="7.9674474"
   inkscape:window-x="-8"
   inkscape:window-y="-8"
   inkscape:window-maximized="1"
   inkscape:current-layer="Layer_1"
   fit-margin-top="0"
   fit-margin-left="0"
   fit-margin-right="0"
   fit-margin-bottom="0" />




















































































































<circle
   cx="11.3"
   cy="11.3"
   r="11.3"
   id="circle1936"
   style="clip-rule:evenodd;fill:#d91f2f;fill-rule:evenodd" /><g
   id="g1944"
   transform="translate(-879.79998,-220.09998)">
	<path
   d="m 895.9,225.1 c -1.6,-1.5 -3.9,-1.6 -5.2,-0.2 -1.2,1.4 -1.1,3.7 0.6,5.2 1.7,1.5 3.9,1.6 5.2,0.2 1.2,-1.4 0.9,-3.7 -0.6,-5.2 z m -1.1,3.9 c -0.5,0.4 -1.5,0.2 -2.2,-0.5 -0.7,-0.8 -0.8,-1.8 -0.3,-2.2 0.5,-0.4 1.5,-0.2 2.2,0.5 0.6,0.7 0.8,1.7 0.3,2.2 z"
   id="path1938"
   inkscape:connector-curvature="0"
   style="fill:#ffffff" />
	
		<line
   stroke-miterlimit="10"
   x1="891.20001"
   y1="229.2"
   x2="885"
   y2="235.2"
   id="line1940"
   style="fill:none;stroke:#ffffff;stroke-width:1.87440002;stroke-linecap:square;stroke-miterlimit:10" />
	<polygon
   points="885.1,236.8 886.9,238.7 887.5,238 886.7,237.1 887.5,236.5 888.3,237.3 889,236.6 887.3,234.8 "
   id="polygon1942"
   style="fill:#ffffff" />
</g><path
   id="SVGID_x5F_4_x5F__8_"
   d="m 15.20002,18.40002 c -4.2,1.8 -9,-0.2 -10.9,-4.5 -1.9,-4.3 0,-9.2 4.2,-11 4.2,-1.8 9,0.2 10.9,4.5 1.8,4.3 0,9.2 -4.2,11 z"
   inkscape:connector-curvature="0"
   style="fill:none" /><text
   id="text1951"><textPath
   xlink:href="#SVGID_x5F_4_x5F__8_"
   startOffset="67.122298%"
   id="textPath1949"> <tspan
   style="font-size:3px;font-family:MyriadPro-Bold;fill:#ffffff"
   font-size="3px"
   id="tspan1947">KEY MGMT</tspan></textPath></text>















</svg>