<?xml version="1.0" encoding="UTF-8" standalone="no"?>
<!-- Generator: Adobe Illustrator 23.0.1, SVG Export Plug-In . SVG Version: 6.00 Build 0)  -->

<svg
   xmlns:dc="http://purl.org/dc/elements/1.1/"
   xmlns:cc="http://creativecommons.org/ns#"
   xmlns:rdf="http://www.w3.org/1999/02/22-rdf-syntax-ns#"
   xmlns:svg="http://www.w3.org/2000/svg"
   xmlns="http://www.w3.org/2000/svg"
   xmlns:sodipodi="http://sodipodi.sourceforge.net/DTD/sodipodi-0.dtd"
   xmlns:inkscape="http://www.inkscape.org/namespaces/inkscape"
   version="1.1"
   id="Layer_1"
   x="0px"
   y="0px"
   viewBox="0 0 55.000001 55.000001"
   enable-background="new 0 0 60.8 62.3"
   xml:space="preserve"
   sodipodi:docname="ledger.svg"
   width="55"
   height="55"
   inkscape:version="0.92.3 (2405546, 2018-03-11)"><metadata
   id="metadata10834"><rdf:RDF><cc:Work
       rdf:about=""><dc:format>image/svg+xml</dc:format><dc:type
         rdf:resource="http://purl.org/dc/dcmitype/StillImage" /><dc:title></dc:title></cc:Work></rdf:RDF></metadata><defs
   id="defs10832" /><sodipodi:namedview
   pagecolor="#ffffff"
   bordercolor="#666666"
   borderopacity="1"
   objecttolerance="10"
   gridtolerance="10"
   guidetolerance="10"
   inkscape:pageopacity="0"
   inkscape:pageshadow="2"
   inkscape:window-width="1920"
   inkscape:window-height="1017"
   id="namedview10830"
   showgrid="false"
   fit-margin-top="0"
   fit-margin-left="0"
   fit-margin-right="0"
   fit-margin-bottom="0"
   inkscape:zoom="13.916533"
   inkscape:cx="27.5"
   inkscape:cy="28.050001"
   inkscape:window-x="-8"
   inkscape:window-y="-8"
   inkscape:window-maximized="1"
   inkscape:current-layer="Layer_1" />
<g
   id="g10827"
   transform="translate(-2.8999996,-4.2000008)">
	<circle
   cx="30.4"
   cy="31.700001"
   r="27.5"
   id="circle10805"
   style="fill:#335e80" />
	<g
   id="g10825">
		<path
   d="M 23,43 V 34.8 L 15.6,30.9 8.2,34.8 V 43 l 7.4,3.9 z M 11.4,41 v -4.1 l 3.9,-2.1 3.9,2.1 V 41 l -3.8,2 z"
   id="path10807"
   inkscape:connector-curvature="0"
   style="fill:#ffffff" />
		<path
   d="M 51.8,27.3 V 19.1 L 44.4,15.2 37,19.1 v 8.2 l 7.4,3.9 z m -11.3,-6.2 3.9,-2.1 3.9,2.1 v 4.1 l -3.9,2.1 -3.9,-2.1 z"
   id="path10809"
   inkscape:connector-curvature="0"
   style="fill:#ffffff" />
		<polygon
   points="29.9,42.6 19.3,36.9 19.3,25.4 29.9,19.5 40.5,25.4 40.5,36.9 "
   id="polygon10811"
   style="fill:#ffffff" />
		<polygon
   points="21.2,35.8 29.4,40.4 29.4,30.4 21.2,26.6 "
   id="polygon10813"
   style="fill:#2d3f4a" />
		<polygon
   points="29.9,21.6 21.7,26 29.9,29.8 38.1,26 "
   id="polygon10815"
   style="fill:#2d3f4a" />
		<polygon
   points="30.4,30.4 30.4,40.4 38.7,35.8 38.7,26.6 "
   id="polygon10817"
   style="fill:#2d3f4a" />
		<polygon
   points="29.4,40.4 21.2,35.8 21.2,26.6 29.4,30.4 "
   id="polygon10819"
   style="fill:#335e80" />
		<polygon
   points="38.7,35.8 30.4,40.4 30.4,30.4 38.7,26.6 "
   id="polygon10821"
   style="fill:#335e80" />
		<polygon
   points="38.1,26 29.9,29.8 21.7,26 29.9,21.6 "
   id="polygon10823"
   style="fill:#335e80" />
	</g>
</g>
</svg>