<?xml version="1.0" encoding="UTF-8" standalone="no"?>
<!-- Generator: Adobe Illustrator 23.0.1, SVG Export Plug-In . SVG Version: 6.00 Build 0)  -->

<svg
   xmlns:dc="http://purl.org/dc/elements/1.1/"
   xmlns:cc="http://creativecommons.org/ns#"
   xmlns:rdf="http://www.w3.org/1999/02/22-rdf-syntax-ns#"
   xmlns:svg="http://www.w3.org/2000/svg"
   xmlns="http://www.w3.org/2000/svg"
   xmlns:sodipodi="http://sodipodi.sourceforge.net/DTD/sodipodi-0.dtd"
   xmlns:inkscape="http://www.inkscape.org/namespaces/inkscape"
   version="1.1"
   id="Layer_1"
   x="0px"
   y="0px"
   viewBox="0 0 54.400002 54.400002"
   enable-background="new 0 0 60.8 62.3"
   xml:space="preserve"
   sodipodi:docname="Membership.svg"
   width="54.400002"
   height="54.400002"
   inkscape:version="0.92.3 (2405546, 2018-03-11)"><metadata
   id="metadata4726"><rdf:RDF><cc:Work
       rdf:about=""><dc:format>image/svg+xml</dc:format><dc:type
         rdf:resource="http://purl.org/dc/dcmitype/StillImage" /><dc:title></dc:title></cc:Work></rdf:RDF></metadata><defs
   id="defs4724">
	
	

		
		
		
	
			
		
			
		
				
				
			</defs><sodipodi:namedview
   pagecolor="#ffffff"
   bordercolor="#666666"
   borderopacity="1"
   objecttolerance="10"
   gridtolerance="10"
   guidetolerance="10"
   inkscape:pageopacity="0"
   inkscape:pageshadow="2"
   inkscape:window-width="1920"
   inkscape:window-height="1017"
   id="namedview4722"
   showgrid="false"
   fit-margin-top="0"
   fit-margin-left="0"
   fit-margin-right="0"
   fit-margin-bottom="0"
   inkscape:zoom="10.714427"
   inkscape:cx="40.881345"
   inkscape:cy="11.191358"
   inkscape:window-x="-8"
   inkscape:window-y="-8"
   inkscape:window-maximized="1"
   inkscape:current-layer="Layer_1" />
<circle
   style="fill:#d91f2f"
   id="circle4701"
   r="27.200001"
   cy="27.200001"
   cx="27.200001" /><path
   d="m 31.900001,32 -16.1,-0.2 c -2.2,0 -4.1,1.7 -4.1,3.9 v 4.1 l 24.1,0.2 v -4.1 c 0.2,-2 -1.7,-3.9 -3.9,-3.9 z"
   id="path4703"
   inkscape:connector-curvature="0"
   style="fill:#ffffff" /><path
   d="m 23.900001,27.8 c -5.6,0 -10.2,-4.5 -10.2,-10.2 0,-5.7 4.5,-10.1999996 10.2,-10.1999996 5.7,0 10.2,4.4999996 10.2,10.1999996 0,5.7 -4.6,10.2 -10.2,10.2 z m 0,-19.0999996 c -5,0 -8.9,4.0999996 -8.9,8.8999996 0,4.8 4.1,8.9 8.9,8.9 5,0 8.9,-4.1 8.9,-8.9 0,-4.8 -4,-8.8999996 -8.9,-8.8999996 z"
   id="path4705"
   inkscape:connector-curvature="0"
   style="fill:#ffffff" /><circle
   cx="40"
   cy="36.800003"
   r="9.1000004"
   id="circle4711"
   style="fill:#e12834" /><path
   style="fill:#ffffff"
   inkscape:connector-curvature="0"
   id="path4713"
   d="m 43.17,30.1 c 0,-2.7 -2.269999,-5 -4.969999,-5 -2.7,0 -5,2.3 -5,5 v 2.2 c -1.1,1.1 -1.7,2.7 -1.7,4.4 0,3.6 3,6.6 6.6,6.6 3.6,0 6.6,-3 6.6,-6.6 0,-1.7 -0.430001,-3.1 -1.530001,-4.4 z m -8.169999,0 c 0,-1.7 1.6,-3.3 3.3,-3.3 1.7,0 3.3,1.6 3.3,3.3 v 1 c -0.9,-0.6 -2,-0.9 -3.3,-0.9 -1.3,0 -2.3,0.3 -3.3,0.9 z m 2.1,10.3 -3.1,-3.1 1.1,-1.1 1.9,1.9 4.4,-4.4 1.1,1.1 z"
   sodipodi:nodetypes="csscsssccssscscsccccccc" />
</svg>