<?xml version="1.0" encoding="UTF-8" standalone="no"?>
<!-- Generator: Adobe Illustrator 23.0.1, SVG Export Plug-In . SVG Version: 6.00 Build 0)  -->

<svg
   xmlns:dc="http://purl.org/dc/elements/1.1/"
   xmlns:cc="http://creativecommons.org/ns#"
   xmlns:rdf="http://www.w3.org/1999/02/22-rdf-syntax-ns#"
   xmlns:svg="http://www.w3.org/2000/svg"
   xmlns="http://www.w3.org/2000/svg"
   xmlns:sodipodi="http://sodipodi.sourceforge.net/DTD/sodipodi-0.dtd"
   xmlns:inkscape="http://www.inkscape.org/namespaces/inkscape"
   version="1.1"
   id="Layer_1"
   x="0px"
   y="0px"
   viewBox="0 0 55.000001 55.000001"
   enable-background="new 0 0 60.8 62.3"
   xml:space="preserve"
   sodipodi:docname="Message Bus.svg"
   width="55"
   height="55"
   inkscape:version="0.92.3 (2405546, 2018-03-11)"><metadata
   id="metadata5424"><rdf:RDF><cc:Work
       rdf:about=""><dc:format>image/svg+xml</dc:format><dc:type
         rdf:resource="http://purl.org/dc/dcmitype/StillImage" /><dc:title></dc:title></cc:Work></rdf:RDF></metadata><defs
   id="defs5422" /><sodipodi:namedview
   pagecolor="#ffffff"
   bordercolor="#666666"
   borderopacity="1"
   objecttolerance="10"
   gridtolerance="10"
   guidetolerance="10"
   inkscape:pageopacity="0"
   inkscape:pageshadow="2"
   inkscape:window-width="1920"
   inkscape:window-height="1017"
   id="namedview5420"
   showgrid="false"
   fit-margin-top="0"
   fit-margin-left="0"
   fit-margin-right="0"
   fit-margin-bottom="0"
   inkscape:zoom="5.3572136"
   inkscape:cx="32.313438"
   inkscape:cy="25.526304"
   inkscape:window-x="-8"
   inkscape:window-y="-8"
   inkscape:window-maximized="1"
   inkscape:current-layer="Layer_1" />
<g
   id="g5417"
   transform="translate(-3.1000004,-3.2999992)">
	<g
   id="g5403">
		<circle
   cx="30.6"
   cy="30.799999"
   r="27.5"
   id="circle5401"
   style="fill:#90c740" />
	</g>
	<g
   id="g5415">
		<path
   d="m 9.9,27.1 c 2.4,1.5 4.7,3 7.3,4.6 -2.6,1.6 -4.9,3.1 -7.3,4.6 0,-3 0,-6.1 0,-9.2 z"
   id="path5405"
   inkscape:connector-curvature="0"
   style="fill:#ffffff" />
		<path
   d="m 27.7,16.2 c 2,0 3.9,0 5.9,0 0,10.1 0,20.1 0,30.2 -1.9,0 -3.9,0 -5.9,0 0,-10.1 0,-20.1 0,-30.2 z"
   id="path5407"
   inkscape:connector-curvature="0"
   style="fill:#ffffff" />
		<path
   d="m 19.4,16.2 c 2,0 3.9,0 5.8,0 0,10.1 0,20.1 0,30.1 -1.9,0 -3.8,0 -5.8,0 0,-10 0,-20 0,-30.1 z"
   id="path5409"
   inkscape:connector-curvature="0"
   style="fill:#ffffff" />
		<path
   d="m 36.1,46.4 c 0,-10.1 0,-20.1 0,-30.1 1.9,0 3.9,0 5.9,0 0,10 0,20.1 0,30.1 -2,0 -3.9,0 -5.9,0 z"
   id="path5411"
   inkscape:connector-curvature="0"
   style="fill:#ffffff" />
		<path
   d="m 44.4,36.3 c 0,-3.1 0,-6 0,-9.2 2.4,1.6 4.7,3 7.1,4.6 -2.4,1.6 -4.6,3.1 -7.1,4.6 z"
   id="path5413"
   inkscape:connector-curvature="0"
   style="fill:#ffffff" />
	</g>
</g>
</svg>