<?xml version="1.0" encoding="UTF-8" standalone="no"?>
<!-- Generator: Adobe Illustrator 23.0.1, SVG Export Plug-In . SVG Version: 6.00 Build 0)  -->

<svg
   xmlns:dc="http://purl.org/dc/elements/1.1/"
   xmlns:cc="http://creativecommons.org/ns#"
   xmlns:rdf="http://www.w3.org/1999/02/22-rdf-syntax-ns#"
   xmlns:svg="http://www.w3.org/2000/svg"
   xmlns="http://www.w3.org/2000/svg"
   xmlns:sodipodi="http://sodipodi.sourceforge.net/DTD/sodipodi-0.dtd"
   xmlns:inkscape="http://www.inkscape.org/namespaces/inkscape"
   version="1.1"
   id="Layer_1"
   x="0px"
   y="0px"
   viewBox="0 0 55.000001 55.000001"
   enable-background="new 0 0 60.8 62.3"
   xml:space="preserve"
   sodipodi:docname="Node.svg"
   width="55"
   height="55"
   inkscape:version="0.92.3 (2405546, 2018-03-11)"><metadata
   id="metadata6074"><rdf:RDF><cc:Work
       rdf:about=""><dc:format>image/svg+xml</dc:format><dc:type
         rdf:resource="http://purl.org/dc/dcmitype/StillImage" /><dc:title></dc:title></cc:Work></rdf:RDF></metadata><defs
   id="defs6072" /><sodipodi:namedview
   pagecolor="#ffffff"
   bordercolor="#666666"
   borderopacity="1"
   objecttolerance="10"
   gridtolerance="10"
   guidetolerance="10"
   inkscape:pageopacity="0"
   inkscape:pageshadow="2"
   inkscape:window-width="1920"
   inkscape:window-height="1017"
   id="namedview6070"
   showgrid="false"
   fit-margin-top="0"
   fit-margin-left="0"
   fit-margin-right="0"
   fit-margin-bottom="0"
   inkscape:zoom="10.714427"
   inkscape:cx="17.644835"
   inkscape:cy="22.874386"
   inkscape:window-x="-8"
   inkscape:window-y="-8"
   inkscape:window-maximized="1"
   inkscape:current-layer="Layer_1" />
<g
   id="g6067"
   transform="translate(-3,-4.2000008)">
	<circle
   cx="30.5"
   cy="31.700001"
   r="27.5"
   id="circle6029"
   style="clip-rule:evenodd;fill:#a9236e;fill-rule:evenodd" />
	<g
   id="g6065">
		<g
   id="g6043">
			<path
   d="m 35,11.7 c 0.3,0.1 0.6,0.2 0.8,0.5 0.2,0.2 0.3,0.5 0.3,0.8 0,2.5 0,5.1 0,7.6 v 0 C 36,20.4 35.8,20.2 35.6,20 c -0.1,-0.1 -0.2,-0.2 -0.3,-0.2 -0.1,0 -0.2,-0.1 -0.2,-0.2 0,-1.1 0,-2.1 0,-3.2 0,-1.1 0,-2.1 0,-3.2 0,-0.4 -0.1,-0.5 -0.5,-0.5 -3.2,0 -6.4,0 -9.6,0 -0.4,0 -0.5,0.1 -0.5,0.5 0,4.3 0,8.5 0,12.8 0,0.4 0.1,0.5 0.5,0.5 0.9,0 1.7,0 2.6,0 0.2,0 0.3,0 0.4,0.1 0.1,0.1 0.3,0.1 0.4,0.2 -0.2,0.2 -0.4,0.4 -0.6,0.6 h -0.1 c -1,0 -1.9,0 -2.9,0 -0.6,0 -1.2,-0.5 -1.3,-1.1 v -0.1 c 0,-4.4 0,-8.9 0,-13.3 0.1,-0.2 0.2,-0.5 0.3,-0.7 0.2,-0.3 0.5,-0.4 0.9,-0.5 3.5,0 6.9,0 10.3,0 z"
   id="path6031"
   inkscape:connector-curvature="0"
   style="fill:#ffffff" />
			<path
   d="m 34.8,28 c -0.2,0 -0.5,-0.1 -0.8,-0.1 -0.2,0 -0.4,0 -0.5,0.2 -0.2,0.2 -0.3,0.4 -0.5,0.5 -0.3,0.3 -0.6,0.3 -0.8,0 C 32,28.4 31.8,28.2 31.7,28.1 31.6,28 31.4,27.9 31.2,27.9 31,27.9 30.7,28 30.5,28 c -0.4,0.1 -0.7,-0.1 -0.7,-0.5 0,-0.2 -0.1,-0.5 -0.1,-0.7 0,-0.2 -0.1,-0.3 -0.3,-0.4 -0.2,-0.1 -0.4,-0.2 -0.7,-0.3 -0.4,-0.2 -0.5,-0.5 -0.3,-0.8 0.1,-0.2 0.2,-0.4 0.3,-0.6 0.1,-0.2 0.1,-0.4 0,-0.6 -0.1,-0.2 -0.2,-0.4 -0.3,-0.6 -0.2,-0.4 -0.1,-0.7 0.3,-0.9 0.2,-0.1 0.4,-0.2 0.6,-0.3 0.2,-0.1 0.3,-0.3 0.3,-0.5 0,-0.2 0.1,-0.5 0.1,-0.7 0.1,-0.3 0.3,-0.5 0.7,-0.5 0.2,0 0.5,0.1 0.7,0.1 0.2,0 0.4,0 0.6,-0.2 0.2,-0.2 0.3,-0.4 0.5,-0.5 0.3,-0.3 0.6,-0.3 0.8,0 0.2,0.2 0.3,0.3 0.5,0.5 0.2,0.2 0.4,0.2 0.6,0.2 0.2,0 0.5,-0.1 0.7,-0.1 0.3,-0.1 0.6,0.1 0.7,0.5 0,0.2 0.1,0.5 0.1,0.7 0,0.2 0.1,0.4 0.3,0.5 0.2,0.1 0.4,0.2 0.7,0.3 0.3,0.2 0.4,0.4 0.3,0.8 -0.1,0.2 -0.2,0.4 -0.3,0.6 -0.1,0.2 -0.1,0.4 0,0.6 0.1,0.2 0.2,0.4 0.3,0.6 0.2,0.3 0.1,0.6 -0.3,0.8 -0.2,0.1 -0.4,0.2 -0.7,0.3 -0.2,0.1 -0.3,0.3 -0.3,0.5 0,0.2 -0.1,0.5 -0.1,0.7 -0.1,0.3 -0.4,0.5 -0.7,0.5 z m -2.3,-0.6 c 1.8,0 3.2,-1.4 3.2,-3.2 0,-1.8 -1.4,-3.2 -3.2,-3.2 -1.8,0 -3.2,1.4 -3.2,3.2 0,1.7 1.4,3.2 3.2,3.2 z"
   id="path6033"
   inkscape:connector-curvature="0"
   style="fill:#ffffff" />
			<path
   d="m 29.8,14.9 c 1.1,0 2.3,0 3.4,0 0.1,0 0.2,0 0.3,0 0.2,0.1 0.3,0.3 0.3,0.5 0,0.2 -0.2,0.4 -0.5,0.4 -2.2,0 -4.4,0 -6.6,0 -0.1,0 -0.2,0 -0.3,0 -0.3,0 -0.5,-0.2 -0.5,-0.5 0,-0.3 0.2,-0.5 0.5,-0.5 1.1,0 2.3,0.1 3.4,0.1 z"
   id="path6035"
   inkscape:connector-curvature="0"
   style="fill:#ffffff" />
			<path
   d="m 29.9,18.1 c -1.2,0 -2.3,0 -3.5,0 -0.3,0 -0.5,-0.2 -0.5,-0.4 0,-0.2 0.2,-0.4 0.4,-0.5 h 0.1 c 2.3,0 4.5,0 6.8,0 0.1,0 0.2,0 0.3,0 0.2,0.1 0.3,0.3 0.3,0.5 0,0.2 -0.2,0.4 -0.5,0.4 -1.1,0 -2.3,0 -3.4,0 z"
   id="path6037"
   inkscape:connector-curvature="0"
   style="fill:#ffffff" />
			<path
   d="m 35.8,27.1 c 0.3,0.3 0.5,0.5 0.8,0.8 0.2,0.2 0.5,0.4 0.7,0.7 0.1,0.1 0.1,0.2 0.1,0.3 0,0.1 -0.1,0.2 -0.3,0.2 -0.3,0 -0.5,0.1 -0.8,0.1 -0.1,0 -0.1,0.1 -0.2,0.2 0,0.3 -0.1,0.5 -0.1,0.8 -0.1,0.3 -0.3,0.4 -0.5,0.2 -0.6,-0.6 -1.3,-1.3 -1.9,-1.9 v 0 c 0.1,-0.2 0.2,-0.2 0.4,-0.2 0.2,0 0.5,0.1 0.7,0.1 0.5,0.1 0.9,-0.2 1,-0.7 0.1,-0.2 0.1,-0.4 0.1,-0.6 z"
   id="path6039"
   inkscape:connector-curvature="0"
   style="fill:#ffffff" />
			<path
   d="m 29.2,27.1 c 0,0.2 0,0.3 0.1,0.5 0.1,0.5 0.5,0.8 1,0.7 0.2,0 0.4,-0.1 0.7,-0.1 0.2,0 0.3,0 0.4,0.2 l -0.1,0.1 c -0.6,0.6 -1.2,1.2 -1.8,1.8 -0.1,0.1 -0.2,0.2 -0.4,0.1 -0.2,-0.1 -0.2,-0.2 -0.2,-0.3 0,-0.2 -0.1,-0.5 -0.1,-0.7 0,-0.1 -0.1,-0.1 -0.1,-0.1 -0.3,0 -0.5,-0.1 -0.8,-0.1 -0.3,-0.1 -0.3,-0.3 -0.2,-0.5 0.5,-0.6 1,-1.1 1.5,-1.6 z"
   id="path6041"
   inkscape:connector-curvature="0"
   style="fill:#ffffff" />
		</g>
		<g
   id="g6063">
			<path
   d="m 26,49.5 v -5.3 l -4.7,-2.5 -4.7,2.5 v 5.2 l 4.7,2.5 z m -7.2,-1.4 v -2.6 l 2.5,-1.3 2.5,1.3 v 2.6 l -2.5,1.3 z"
   id="path6045"
   inkscape:connector-curvature="0"
   style="fill:#ffffff" />
			<path
   d="M 44.4,39.5 V 34.2 L 39.7,31.7 35,34.2 v 5.2 l 4.7,2.5 z m -7.2,-3.9 2.5,-1.3 2.5,1.3 v 2.6 l -2.5,1.3 -2.5,-1.3 z"
   id="path6047"
   inkscape:connector-curvature="0"
   style="fill:#ffffff" />
			<polygon
   points="30.5,49.2 23.8,45.5 23.8,38.2 30.5,34.6 37.2,38.2 37.2,45.5 "
   id="polygon6049"
   style="fill:#ffffff" />
			<polygon
   points="24.9,44.9 30.2,47.7 30.2,41.5 24.9,39.1 "
   id="polygon6051"
   style="fill:#2d3f4a" />
			<polygon
   points="30.5,35.8 25.3,38.6 30.5,41 35.7,38.6 "
   id="polygon6053"
   style="fill:#2d3f4a" />
			<polygon
   points="30.8,41.5 30.8,47.7 36,44.8 36,44.9 36,39.1 "
   id="polygon6055"
   style="fill:#2d3f4a" />
			<polygon
   points="30.2,47.7 24.9,44.9 24.9,39.1 30.2,41.5 "
   id="polygon6057"
   style="fill:#a9236e" />
			<polygon
   points="36,44.9 30.8,47.7 30.8,41.5 36,39.1 "
   id="polygon6059"
   style="fill:#a9236e" />
			<polygon
   points="35.7,38.6 30.5,41 25.3,38.6 30.5,35.8 "
   id="polygon6061"
   style="fill:#a9236e" />
		</g>
	</g>
</g>
</svg>