<?xml version="1.0" encoding="utf-8"?>
<!-- Generator: Adobe Illustrator 21.1.0, SVG Export Plug-In . SVG Version: 6.00 Build 0)  -->
<svg version="1.1" id="Layer_1" xmlns="http://www.w3.org/2000/svg" xmlns:xlink="http://www.w3.org/1999/xlink" x="0px" y="0px"
	 viewBox="0 0 65 65" style="enable-background:new 0 0 65 65;" xml:space="preserve">
<style type="text/css">
	.st0{fill:#9BCA52;}
	.st1{fill:none;stroke:#FFFFFF;stroke-width:0.75;stroke-miterlimit:10;}
	.st2{fill:#FFFFFF;}
</style>
<title>INDIVIDUAL ICONS 3</title>
<ellipse transform="matrix(0.7071 -0.7071 0.7071 0.7071 -13.4619 32.5)" class="st0" cx="32.5" cy="32.5" rx="32.5" ry="32.5"/>
<path class="st1" d="M25.7,44.2c0-0.6,0-1.2,0-1.8s0.5-0.9,1-0.5l5.5,3.7c0.5,0.3,0.5,0.7,0,1l-5.5,3.7c-0.5,0.3-0.9,0.1-1-0.5
	s0-1.2,0-1.8h-0.5h-7.3c-1,0.1-2-0.6-2.1-1.6c0-0.2,0-0.3,0-0.5c0-3.6,0-7.2,0-10.7c0-0.8,0.3-1,1-1h1.6c0.7,0,1,0.3,1,1
	c0,2.9,0,5.7,0,8.6c0,0.2,0,0.4,0,0.6L25.7,44.2z"/>
<path class="st2" d="M51.2,49.8c0.2-0.4,0.3-0.8,0.5-1.2l3.2-0.9l-0.4-4.1l-3.1-0.4c-0.4-0.9-0.9-1.7-1.6-2.4l0.7-2.9l-3.7-1.8
	L45,38.5c-0.9-0.1-1.9,0-2.8,0.2l-2.3-2.2l-3.5,2.2l1.3,3.1c-0.5,0.7-0.9,1.4-1.1,2.2l-3.2,0.9l0.4,4.1l3.1,0.5
	c0.4,0.9,0.9,1.7,1.6,2.4l-0.7,2.9l3.7,1.7l1.9-2.3c0.9,0.1,1.9,0,2.8-0.2l2.3,2.2l3.5-2.2l-1.3-3C50.8,50.5,51.1,50.2,51.2,49.8z
	 M51,53.7l-2.5,1.6l-1.8-1.8l-0.3-0.3L46,53.3c-0.8,0.2-1.7,0.3-2.6,0.2l-0.4,0l-0.2,0.3l-1.5,1.9l-2.7-1.3l0.5-2.4l0.1-0.4L39,51.3
	c-0.6-0.6-1.1-1.4-1.4-2.2l-0.2-0.4l-0.4,0l-2.6-0.4l-0.3-3l2.7-0.7l0.4-0.1l0.1-0.4c0.2-0.7,0.6-1.4,1-2l0.2-0.3l-0.2-0.3L37.3,39
	l2.5-1.5l1.9,1.8l0.3,0.3l0.4-0.1c0.8-0.2,1.7-0.3,2.6-0.2h0.4l0.2-0.3l1.5-1.9l2.7,1.3l-0.5,2.4l-0.1,0.4l0.3,0.3
	c0.6,0.6,1.1,1.4,1.4,2.2l0.2,0.4l0.4,0l2.6,0.4l0.3,3L51.5,48l-0.4,0.1L51,48.4c-0.2,0.7-0.6,1.4-1,2l-0.2,0.3l0.2,0.3L51,53.7z"/>
<path class="st2" d="M46,42.6c-2-1-4.5-0.2-5.5,1.9S40.4,49,42.4,50c2,1,4.5,0.2,5.5-1.9C48.9,46.1,48.1,43.7,46,42.6
	C46,42.7,46,42.7,46,42.6z M43.6,47.6c-0.7-0.3-1-1.2-0.6-1.8c0.3-0.7,1.2-1,1.8-0.6c0.7,0.3,1,1.1,0.6,1.8
	C45.1,47.6,44.3,47.9,43.6,47.6C43.6,47.6,43.6,47.6,43.6,47.6L43.6,47.6z"/>
<path class="st2" d="M23.9,24.2c0-0.3,0-0.7-0.1-1l2-1.7l-1.7-2.7l-2.3,0.8c-0.6-0.5-1.2-0.8-2-1.1l-0.5-2.3h-3.2l-0.5,2.3
	c-0.7,0.3-1.3,0.6-1.9,1.1l-2.3-0.8l-1.7,2.7l2,1.7c-0.1,0.6-0.1,1.3,0,1.9l-2,1.7l1.7,2.7l2.3-0.8c0.6,0.5,1.2,0.9,1.9,1.1l0.5,2.3
	h3.2l0.5-2.3c0.7-0.3,1.3-0.6,1.9-1.1l2.3,0.8l1.7-2.7l-2-1.7C23.9,24.9,23.9,24.5,23.9,24.2z M25.1,27l-1.2,2L22,28.3l-0.3-0.1
	l-0.2,0.2c-0.5,0.4-1.1,0.8-1.7,1l-0.3,0.1l-0.1,0.3L19,31.7h-2.4l-0.4-1.8l-0.1-0.3l-0.3-0.1c-0.6-0.2-1.2-0.6-1.7-1l-0.2-0.2
	l-0.3,0.1L11.7,29l-1.2-2l1.6-1.4l0.2-0.2v-0.3c-0.1-0.6-0.1-1.2,0-1.8V23l-0.2-0.2l-1.6-1.4l1.2-2l1.9,0.6l0.3,0.1l0.2-0.2
	c0.5-0.4,1.1-0.8,1.7-1l0.3-0.1l0.1-0.3l0.4-1.8H19l0.4,1.8l0.1,0.3l0.3,0.1c0.6,0.2,1.2,0.6,1.7,1l0.2,0.2L22,20l1.9-0.6l1.2,2
	l-1.6,1.4L23.3,23v0.3c0.1,0.6,0.1,1.2,0,1.8v0.3l0.2,0.2L25.1,27z"/>
<path class="st2" d="M17.8,21c-1.8,0-3.2,1.4-3.2,3.2c0,1.8,1.4,3.2,3.2,3.2S21,26,21,24.2S19.6,21,17.8,21L17.8,21z M17.8,25.2
	c-0.6,0-1.1-0.5-1.1-1.1s0.5-1.1,1.1-1.1c0.6,0,1.1,0.5,1.1,1.1l0,0C18.9,24.8,18.4,25.2,17.8,25.2z"/>
</svg>
