<?xml version="1.0" encoding="UTF-8" standalone="no"?>
<!-- Generator: Adobe Illustrator 23.0.1, SVG Export Plug-In . SVG Version: 6.00 Build 0)  -->

<svg
   xmlns:dc="http://purl.org/dc/elements/1.1/"
   xmlns:cc="http://creativecommons.org/ns#"
   xmlns:rdf="http://www.w3.org/1999/02/22-rdf-syntax-ns#"
   xmlns:svg="http://www.w3.org/2000/svg"
   xmlns="http://www.w3.org/2000/svg"
   xmlns:sodipodi="http://sodipodi.sourceforge.net/DTD/sodipodi-0.dtd"
   xmlns:inkscape="http://www.inkscape.org/namespaces/inkscape"
   version="1.1"
   id="Layer_1"
   x="0px"
   y="0px"
   viewBox="0 0 55.000001 55.000001"
   enable-background="new 0 0 60.8 62.3"
   xml:space="preserve"
   sodipodi:docname="Smart Contract.svg"
   width="55"
   height="55"
   inkscape:version="0.92.3 (2405546, 2018-03-11)"><metadata
   id="metadata6761"><rdf:RDF><cc:Work
       rdf:about=""><dc:format>image/svg+xml</dc:format><dc:type
         rdf:resource="http://purl.org/dc/dcmitype/StillImage" /><dc:title></dc:title></cc:Work></rdf:RDF></metadata><defs
   id="defs6759" /><sodipodi:namedview
   pagecolor="#ffffff"
   bordercolor="#666666"
   borderopacity="1"
   objecttolerance="10"
   gridtolerance="10"
   guidetolerance="10"
   inkscape:pageopacity="0"
   inkscape:pageshadow="2"
   inkscape:window-width="1920"
   inkscape:window-height="1017"
   id="namedview6757"
   showgrid="false"
   fit-margin-top="0"
   fit-margin-left="0"
   fit-margin-right="0"
   fit-margin-bottom="0"
   inkscape:zoom="7.5762441"
   inkscape:cx="33.298506"
   inkscape:cy="25.772606"
   inkscape:window-x="-8"
   inkscape:window-y="-8"
   inkscape:window-maximized="1"
   inkscape:current-layer="Layer_1" />
<g
   id="g6754"
   transform="translate(-4.7000008,-2.8999996)">
	<circle
   cx="32.200001"
   cy="30.4"
   r="27.5"
   id="circle6738"
   style="fill:#eec11b" />
	<g
   id="g6752">
		<path
   d="m 43.9,10.5 c 0.6,0.2 1.3,0.5 1.7,0.9 0.5,0.5 0.6,1.1 0.6,1.7 0,5.2 0,10.6 0,15.8 v 0 c -0.3,-0.5 -0.6,-0.8 -0.9,-1.3 -0.2,-0.2 -0.5,-0.3 -0.8,-0.5 -0.3,-0.2 -0.3,-0.2 -0.3,-0.5 0,-2.2 0,-4.4 0,-6.6 0,-2.2 0,-4.4 0,-6.6 0,-0.8 -0.3,-0.9 -0.9,-0.9 -6.6,0 -13.3,0 -20.1,0 -0.8,0 -1.1,0.3 -1.1,0.9 0,8.8 0,17.7 0,26.5 0,0.8 0.3,0.9 0.9,0.9 1.7,0 3.6,0 5.4,0 0.3,0 0.6,0 0.9,0.3 0.3,0.2 0.6,0.3 0.9,0.5 -0.5,0.5 -0.8,0.8 -1.3,1.3 0,0 -0.2,0 -0.3,0 -2.1,0 -4,0 -6,0 -1.4,0 -2.4,-0.9 -2.7,-2.4 v -0.2 c 0,-9.2 0,-18.5 0,-27.7 0.2,-0.5 0.3,-0.9 0.6,-1.4 0.3,-0.6 1.1,-0.9 1.7,-1.1 7.3,0.4 14.6,0.4 21.7,0.4 z"
   id="path6740"
   inkscape:connector-curvature="0"
   style="fill:#ffffff" />
		<path
   d="m 43.4,44.5 c -0.5,0 -1.1,-0.2 -1.6,-0.3 -0.5,-0.2 -0.8,0 -1.1,0.3 -0.3,0.3 -0.8,0.8 -1.1,1.1 -0.6,0.6 -1.1,0.6 -1.7,0 -0.3,-0.3 -0.8,-0.8 -1.1,-1.1 -0.3,-0.3 -0.6,-0.5 -1.1,-0.3 -0.5,0.2 -0.9,0.2 -1.4,0.3 -0.9,0.2 -1.4,-0.2 -1.6,-1.1 0,-0.5 -0.2,-0.9 -0.2,-1.4 0,-0.5 -0.3,-0.8 -0.6,-0.9 -0.5,-0.2 -0.9,-0.5 -1.4,-0.6 -0.8,-0.5 -0.9,-0.9 -0.6,-1.7 0.2,-0.5 0.5,-0.8 0.6,-1.3 0.3,-0.5 0.2,-0.8 0,-1.3 -0.2,-0.5 -0.5,-0.8 -0.6,-1.3 -0.5,-0.8 -0.3,-1.4 0.6,-1.7 0.5,-0.2 0.8,-0.5 1.3,-0.6 0.5,-0.2 0.6,-0.5 0.8,-0.9 0,-0.5 0.2,-1.1 0.2,-1.6 0.2,-0.6 0.6,-1.1 1.4,-0.9 0.5,0.2 0.9,0.2 1.4,0.3 0.5,0 0.9,0 1.3,-0.3 0.3,-0.3 0.6,-0.8 1.1,-1.1 0.5,-0.5 1.1,-0.5 1.7,0 0.3,0.3 0.8,0.8 1.1,1.1 0.3,0.3 0.8,0.5 1.3,0.3 0.5,-0.2 0.9,-0.2 1.4,-0.3 0.6,-0.2 1.3,0.3 1.4,0.9 0.2,0.5 0.2,0.9 0.2,1.6 0,0.5 0.3,0.8 0.8,0.9 0.5,0.2 0.9,0.5 1.4,0.6 0.6,0.3 0.8,0.9 0.5,1.6 -0.2,0.5 -0.5,0.9 -0.6,1.4 -0.2,0.5 -0.2,0.8 0,1.3 0.3,0.5 0.5,0.9 0.6,1.4 0.3,0.6 0.2,1.3 -0.5,1.6 -0.5,0.3 -0.9,0.5 -1.4,0.6 -0.5,0.2 -0.6,0.5 -0.6,0.9 0,0.5 -0.2,1.1 -0.2,1.6 -0.6,0.4 -1.1,0.9 -1.7,0.9 z m -4.7,-1.4 c 3.6,0 6.8,-3 6.8,-6.6 0,-3.6 -3,-6.8 -6.6,-6.8 -3.8,0 -6.8,3 -6.8,6.6 -0.2,3.8 2.8,6.8 6.6,6.8 z"
   id="path6742"
   inkscape:connector-curvature="0"
   style="fill:#ffffff" />
		<path
   d="m 33.1,17 c 2.4,0 4.7,0 7.1,0 0.2,0 0.5,0 0.6,0.2 0.5,0.2 0.6,0.6 0.6,1.1 -0.2,0.5 -0.5,0.8 -1.1,0.8 -4.6,0 -9.2,0 -13.9,0 -0.2,0 -0.5,0 -0.6,0 -0.6,0 -0.9,-0.5 -0.9,-0.9 0,-0.5 0.5,-0.9 0.9,-0.9 C 28.2,17 30.6,17 33.1,17 Z"
   id="path6744"
   inkscape:connector-curvature="0"
   style="fill:#ffffff" />
		<path
   d="m 33.1,23.8 c -2.4,0 -4.7,0 -7.3,0 -0.6,0 -1.1,-0.3 -1.1,-0.9 0,-0.5 0.3,-0.9 0.9,-0.9 0.2,0 0.2,0 0.3,0 4.7,0 9.5,0 14.2,0 0.2,0 0.3,0 0.5,0 0.5,0.2 0.8,0.6 0.6,1.1 0,0.5 -0.5,0.8 -0.9,0.8 -2.3,-0.1 -4.8,-0.1 -7.2,-0.1 z"
   id="path6746"
   inkscape:connector-curvature="0"
   style="fill:#ffffff" />
		<path
   d="m 45.6,42.6 c 0.6,0.6 1.1,1.1 1.6,1.6 0.5,0.5 0.9,0.9 1.4,1.4 0.2,0.2 0.3,0.5 0.2,0.6 0,0.3 -0.3,0.5 -0.6,0.5 -0.5,0.2 -1.1,0.2 -1.6,0.3 -0.2,0 -0.3,0.2 -0.3,0.3 0,0.5 -0.2,1.1 -0.3,1.6 -0.2,0.6 -0.6,0.8 -1.1,0.3 -1.3,-1.3 -2.7,-2.7 -4,-4 v 0 c 0.2,-0.3 0.5,-0.5 0.8,-0.3 0.5,0.2 0.9,0.2 1.4,0.2 0.9,0.2 1.9,-0.5 2.1,-1.6 0.2,-0.1 0.2,-0.6 0.4,-0.9 z"
   id="path6748"
   inkscape:connector-curvature="0"
   style="fill:#ffffff" />
		<path
   d="m 31.7,42.6 c 0,0.3 0.2,0.6 0.2,0.9 0.2,1.1 1.1,1.7 2.2,1.6 0.5,0 0.9,-0.2 1.4,-0.2 0.3,0 0.6,0 0.9,0.3 l -0.2,0.2 c -1.3,1.3 -2.5,2.5 -3.6,3.6 -0.2,0.2 -0.5,0.5 -0.8,0.3 C 31.5,49.1 31.3,49 31.3,48.7 31.1,48.2 31.1,47.8 31,47.3 31,47.1 30.8,47 30.7,47 30.1,46.8 29.6,46.8 29,46.7 c -0.5,-0.2 -0.8,-0.6 -0.3,-0.9 0.9,-1.1 1.9,-2.1 3,-3.2 z"
   id="path6750"
   inkscape:connector-curvature="0"
   style="fill:#ffffff" />
	</g>
</g>
</svg>