<?xml version="1.0" encoding="utf-8"?>
<!-- Generator: Adobe Illustrator 21.1.0, SVG Export Plug-In . SVG Version: 6.00 Build 0)  -->
<svg version="1.1" id="Layer_1" xmlns="http://www.w3.org/2000/svg" xmlns:xlink="http://www.w3.org/1999/xlink" x="0px" y="0px"
	 viewBox="0 0 64.2 64.2" style="enable-background:new 0 0 64.2 64.2;" xml:space="preserve">
<style type="text/css">
	.st0{fill:#A8226E;}
	.st1{fill:#FFFFFF;}
</style>
<title>INDIVIDUAL ICONS 3</title>
<circle class="st0" cx="32.1" cy="32.1" r="32.1"/>
<path class="st1" d="M33.1,51.6h-1c-0.2,0.1-0.3,0.2-0.5,0h-1.6c-0.2,0.1-0.3,0.2-0.5,0h-1.6c-0.2,0.1-0.3,0.2-0.5,0h-1.6
	c-0.2,0.1-0.3,0.2-0.5,0h-1.6c-0.2,0.1-0.3,0.2-0.5,0h-1.6c-0.2,0.1-0.3,0.2-0.5,0h-1.5c-0.2,0.1-0.3,0.2-0.5,0c-0.5,0-1,0-1.4-0.1
	c-0.3,0.1-0.3-0.1-0.5-0.2l-0.3-0.2l-0.5-0.4c-0.1,0-0.2-0.1-0.2-0.2l-0.3-0.4l-0.2-0.4c-0.1-0.2-0.3-0.3-0.2-0.5
	c0-0.1,0-0.2-0.1-0.3v-1.1c-0.2-0.2-0.1-0.3,0-0.5v-1.6c-0.2-0.2-0.1-0.3,0-0.5v-1.6c-0.2-0.2-0.1-0.3,0-0.5v-1.6
	c-0.2-0.2-0.1-0.3,0-0.5v-1.6c-0.2-0.2-0.1-0.3,0-0.5v-1.5c-0.2-0.2-0.1-0.3,0-0.5v-1.6c-0.2-0.2-0.1-0.3,0-0.5v-1.6
	c-0.2-0.2-0.1-0.3,0-0.5v-1.6c-0.2-0.2-0.1-0.3,0-0.5V29c-0.2-0.2-0.1-0.3,0-0.5v-1.6c-0.2-0.2-0.1-0.3,0-0.5v-1.6
	c-0.2-0.2-0.1-0.3,0-0.5v-1.6c-0.2-0.2-0.1-0.3,0-0.5v-1.6c-0.2-0.2-0.1-0.4,0-0.5v-1.6c-0.2-0.2-0.1-0.4,0-0.5v-1.6
	c-0.2-0.2-0.1-0.4,0-0.5c0-0.5,0-1.1,0-1.6c-0.1-0.2,0-0.4,0.2-0.5l6.7-6.7c0.1-0.1,0.3-0.3,0.5-0.2C23.1,7,23.6,7,24.1,7
	c0.2-0.1,0.3-0.2,0.5,0h1.6c0.2-0.1,0.3-0.2,0.5,0h1.6c0.2-0.1,0.3-0.2,0.5,0h1.6c0.2-0.1,0.3-0.2,0.5,0h1.6c0.2-0.1,0.3-0.2,0.5,0
	h1.6c0.2-0.1,0.3-0.2,0.5,0h1.5c0.2-0.1,0.3-0.2,0.5,0h1.6c0.2-0.1,0.3-0.2,0.5,0h1.6c0.2-0.1,0.3-0.2,0.5,0h1.6
	c0.2-0.1,0.3-0.2,0.5,0h1.6c0.2-0.2,0.4,0,0.6,0.1l0.8,0.3c0.2,0.1,0.4,0,0.4,0.3l0.7,0.8c0.1,0.1,0.2,0.1,0.2,0.3L48,10
	c0.2,0.2,0.1,0.4,0,0.5v1.6c0.2,0.2,0.1,0.4,0,0.5v1.6c0.2,0.2,0.1,0.4,0,0.5v1.6c0.2,0.2,0.1,0.4,0,0.5v1.6c0.2,0.2,0.1,0.4,0,0.5
	v1.6c0.2,0.2,0.1,0.4,0,0.5v1.6c0.2,0.2,0.1,0.3,0,0.5v1.6c0.2,0.2,0.1,0.3,0,0.5v1.6c0.2,0.2,0.1,0.3,0,0.5v1.6
	c0.2,0.2,0.1,0.3,0,0.5v1.6c0.2,0.2,0.1,0.3,0,0.5V33c0.2,0.2,0.1,0.3,0,0.5V35c0.2,0.2,0.1,0.3,0,0.5v1.6c0.2,0.2,0.1,0.3,0,0.5
	v0.3v0.5c-0.2,0-0.2-0.2-0.4-0.3c-0.2,0-0.3-0.1-0.5-0.2c-0.3-0.2-0.8-0.2-1-0.7c0-0.2,0-0.4-0.1-0.5c0-0.5,0-1,0-1.5
	c0.1-0.2,0.1-0.4,0-0.6c0-0.5,0-1,0-1.5c0.1-0.2,0.1-0.4,0-0.6c0-0.5,0-1,0-1.5c0.1-0.2,0.1-0.4,0-0.6c0-0.5,0-1,0-1.5
	c0.1-0.2,0.1-0.4,0-0.6c0-0.5,0-1,0-1.5c0.1-0.2,0.1-0.4,0-0.6c0-0.5,0-1,0-1.5c0.1-0.2,0.1-0.4,0-0.6c0-0.5,0-1,0-1.5
	c0.1-0.2,0.1-0.4,0-0.6c0-0.5,0-1,0-1.5c0.1-0.2,0.1-0.4,0-0.6c0-0.5,0-1,0-1.5c0.1-0.2,0.1-0.4,0-0.6c0-0.5,0-1,0-1.5
	c0.1-0.2,0.1-0.4,0-0.6c0-0.5,0-1,0-1.5c0.1-0.2,0.1-0.4,0-0.6c0-0.5,0-1,0-1.5c0.1-0.2,0.1-0.4,0-0.5c0-0.5,0.1-0.9,0-1.4
	c0-0.2-0.1-0.4-0.2-0.6c-0.1-0.2-0.3-0.4-0.5-0.6C45.3,9,45.1,9.1,45,9c-0.5,0-0.9,0-1.3,0c-0.2-0.1-0.4-0.1-0.5,0c-0.5,0-1,0-1.5,0
	c-0.2-0.1-0.4-0.1-0.6,0c-0.5,0-1,0-1.5,0c-0.2-0.1-0.4-0.1-0.6,0c-0.5,0-1,0-1.5,0c-0.2-0.1-0.4-0.1-0.6,0c-0.5,0-1,0-1.5,0
	c-0.2-0.1-0.4-0.1-0.6,0c-0.5,0-1,0-1.5,0c-0.2-0.1-0.4-0.1-0.6,0c-0.5,0-1,0-1.5,0c-0.2-0.1-0.4-0.1-0.6,0c-0.5,0-1,0-1.5,0
	c-0.2-0.1-0.4-0.1-0.6,0c-0.5,0-1,0-1.5,0c-0.2,0-0.4-0.1-0.6,0c-0.5,0-1,0-1.5,0c-0.2,0-0.3-0.1-0.5,0h0c-1.5,0-1.6,0-1.5,1.5
	c-0.1,0.2-0.1,0.3,0,0.5c0,0.6-0.1,1.2-0.4,1.8c-0.4,0.7-0.9,1.2-1.6,1.6c-0.6,0.2-1.2,0.4-1.8,0.4c-0.2,0-0.3-0.1-0.5,0
	c-0.4-0.1-0.7-0.1-1.1,0c-0.2,0-0.4,0.2-0.4,0.4c-0.1,0.4-0.1,0.7,0,1.1c-0.1,0.2,0,0.4,0,0.5c-0.1,0.5-0.1,1.1-0.1,1.6
	c-0.1,0.2-0.1,0.4,0,0.6c0,0.5,0,1,0,1.5c-0.1,0.2-0.1,0.4,0,0.6c0,0.5,0,1,0,1.5c-0.1,0.2-0.1,0.4,0,0.6c0,0.5,0,1,0,1.5
	c-0.1,0.2-0.1,0.4,0,0.6c0,0.5,0,1,0,1.5c-0.1,0.2-0.1,0.4,0,0.6c0,0.5,0,1,0,1.5c-0.1,0.2-0.1,0.4,0,0.6c0,0.5,0,1,0,1.5
	c-0.1,0.2-0.1,0.4,0,0.6c0,0.5,0,1,0,1.5c-0.1,0.2-0.1,0.4,0,0.6c0,0.5,0,1,0,1.5c-0.1,0.2-0.1,0.4,0,0.6c0,0.5,0,1,0,1.5
	c-0.1,0.2-0.1,0.4,0,0.6c0,0.5,0,1,0,1.5c-0.1,0.2-0.1,0.4,0,0.6c0,0.5,0,1,0,1.5c-0.1,0.2-0.1,0.4,0,0.6c0,0.5,0,1,0,1.5
	c-0.1,0.2-0.1,0.4,0,0.6c0,0.5,0,1,0,1.5c-0.1,0.2-0.1,0.4,0,0.6c0,0.5,0,1,0,1.5c0,0.2-0.1,0.3,0,0.5c0,0.4,0,0.7,0.2,1.1
	c0.1,0.2,0.3,0.3,0.4,0.4c0.3,0.1,0.7,0.2,1.1,0.2c0.2,0.1,0.3,0.1,0.5,0c0.5,0,1,0,1.5,0c0.2,0.1,0.4,0.1,0.6,0c0.5,0,1,0,1.5,0
	c0.2,0.1,0.4,0.1,0.6,0c0.5,0,1,0,1.5,0c0.2,0.1,0.4,0.1,0.6,0c0.5,0,1,0,1.5,0c0.2,0.1,0.4,0.1,0.6,0c0.5,0,1,0,1.5,0
	c0.2,0,0.4,0.1,0.6,0c0.5,0,1,0,1.5,0c0.2,0,0.4,0.1,0.6,0c0.5,0,1,0,1.5,0c0.2,0,0.4,0.1,0.5,0.1c0.4,0.1,1-0.1,1.3,0.3
	c0.1,0.1,0.2,0.3,0.3,0.5c0.1,0.3,0.1,0.7-0.1,1c0,0.1-0.1,0.2-0.2,0.2c0,0,0,0,0,0h-1c-0.2,0.1-0.3,0.2-0.5,0L33.1,51.6z"/>
<path class="st1" d="M47.5,55.4l0.1,0.3c0,0.1,0,0.3,0.1,0.4c0.2,0.1,0.2,0.3,0.1,0.4s0.2,0.4,0.1,0.7l-0.5-0.2
	c-0.2,0-0.4-0.1-0.4-0.3l-0.8-0.5c-0.2-0.1-0.4,0-0.5-0.3c-0.2-0.2-0.5-0.2-0.7-0.1c0,0-0.1,0.1-0.1,0.1c-0.5,0.4-1,0.8-1.4,1.2
	c-0.2-0.1-0.2-0.2-0.2-0.3c-0.3-0.1-0.1-0.4-0.2-0.6L43,55.5c-0.1-0.2-0.3-0.3-0.2-0.5c-0.1-0.4-0.2-0.8-0.3-1.2
	c-0.1-0.1-0.1-0.3,0.1-0.4c0,0,0,0,0,0c0.5-0.4,0.8-1,1.4-1.3c0.5-0.1,1-0.1,1.5,0c0.2,0,0.4,0.3,0.6,0.3l0.6-0.1l0.1,0.2
	c0,0.1,0,0.3,0.1,0.4c0.3,0.2,0.1,0.5,0.2,0.7l0.2,0.9c0.2,0.1,0.2,0.3,0.2,0.6C47.4,55.2,47.4,55.3,47.5,55.4z"/>
<path class="st1" d="M48.6,46.1c0,0.1,0,0.2,0.1,0.3l0.2,0.3c0.3,0.1,0.2,0.4,0.3,0.5c0.1,0.7-0.3,1-0.9,1.3c-0.9,0.2-1.5,1.1-1.5,2
	c0,0,0,0.1,0,0.1c0.3,0.8-0.3,1.1-0.9,1.4c-0.5,0-0.9-0.1-1.3-0.1c-0.3-0.2-0.6,0.1-0.9,0.1s-0.7,0.4-0.9,0.7
	c-0.3,0.5-1,0.7-1.5,0.4c-0.2-0.1-0.3-0.3-0.5-0.5c-0.2-0.2-0.4-0.4-0.7-0.6c-0.1-0.1-0.3-0.1-0.5-0.2c-0.5,0-1.1,0-1.6,0.2
	c-0.2-0.1-0.4-0.1-0.5-0.3l-0.3-0.2L36.9,51c-0.2-0.1-0.2-0.4-0.1-0.5v-0.2c-0.3-0.2-0.3-0.6-0.5-0.9c-0.1-0.1-0.2-0.3-0.3-0.4
	c-0.3-0.2-0.7-0.3-1-0.5c-0.1-0.1-0.3-0.2-0.4-0.3c-0.4-0.3-0.4-0.7-0.4-1.1c0.2-0.4,0.5-0.8,0.5-1.3c0.2-0.4,0.2-0.8,0.1-1.3
	c-0.1-0.2-0.2-0.4-0.4-0.6c-0.2-0.3-0.3-0.7-0.3-1.1c0.2-0.4,0.6-0.8,1-1c0.6-0.1,1.1-0.6,1.3-1.2c0.1-0.3,0.1-0.5,0-0.8
	c0-0.6,0.4-1.2,1-1.4c0.3-0.1,0.6,0.2,0.8,0.1c0.7,0.3,1.6,0,2.1-0.6c0.2-0.3,0.5-0.5,0.7-0.7c0.2,0,0.4-0.1,0.7-0.1
	c0.4,0,0.8,0.3,1,0.6c0.1,0.1,0.2,0.3,0.3,0.4c0.3,0.2,0.6,0.3,1,0.4c0.3,0.1,0.5,0,0.8,0c0.4-0.2,0.8-0.2,1.2-0.1
	c0.2,0.1,0.3,0.2,0.3,0.4l0.3,0.5l0.1,0.7c0.2,0.1,0,0.3,0.1,0.5c0.1,0.3,0.3,0.6,0.5,0.8c0.1,0.1,0.4,0,0.4,0.3l0.4,0.2l0.3,0.1
	l0.3,0.2c0.3,0,0.2,0.3,0.3,0.5c0,0.4-0.1,0.7-0.3,1c-0.2,0.3-0.4,0.6-0.4,0.9c0.2,0.2,0,0.3,0,0.5C48.4,45.7,48.5,45.9,48.6,46.1z"
	/>
<path class="st1" d="M36.2,55.2c0.2-0.5,0.3-1.1,0.4-1.6c-0.1-0.4,0.1-0.8,0.3-1.1l0.1-0.2c0.2-0.1,0.4-0.1,0.5-0.1
	c0.2,0.1,0.5,0,0.7-0.1c0.3-0.1,0.7-0.2,1-0.2c0.1,0.1,0.3,0.1,0.5,0.2c0.4,0.1,0.7,0.4,0.8,0.7c0.1,0.1,0.2,0.3,0.4,0.4
	c0.4,0.2,0.5,0.5,0.3,0.9c-0.1,0.2-0.1,0.3-0.1,0.5c-0.1,0.2-0.3,0.5-0.4,0.7c-0.2,0.5-0.3,1-0.5,1.5s-0.2,0.6-0.6,0.2
	c-0.1-0.1-0.2-0.1-0.3-0.2c-0.2-0.1-0.4-0.1-0.4-0.3c-0.3-0.2-0.5-0.6-1-0.6c-0.3,0.3-0.7,0.5-1,0.8s-0.4,0.1-0.6,0.2l-0.8,0.4
	c-0.1-0.4,0.2-0.8,0.2-1.1c-0.2-0.3,0.1-0.5,0.2-0.7L36.2,55.2z"/>
<path class="st1" d="M40.9,29.6v0.5c-0.1,0.3-0.3,0.5-0.6,0.6c-0.2,0.1-0.3,0.2-0.5,0.2c-0.5,0-1,0-1.5,0.1c-0.2,0-0.4-0.1-0.6,0
	c-0.5,0-1,0-1.5,0c-0.2,0-0.4-0.1-0.6,0c-0.5,0-1,0-1.5,0c-0.2-0.1-0.4-0.1-0.6,0c-0.5,0-1,0-1.5,0c-0.2-0.1-0.4-0.1-0.6,0
	c-0.5,0-1,0-1.5,0c-0.2-0.1-0.4-0.1-0.6,0c-0.2,0-0.4,0-0.7,0c-0.3,0-0.6,0.1-0.9-0.2h-4.1h-0.5c-0.3-0.2-0.5-0.5-0.5-0.9
	c0.1-0.4,0.4-0.7,0.8-0.8c0.5-0.2,1-0.3,1.5-0.3c0.2,0,0.4,0.1,0.6,0c0.5,0,1,0,1.5,0c0.2,0,0.4,0.1,0.6,0c0.5,0,1,0,1.5,0
	c0.2,0.1,0.4,0.1,0.6,0c0.5,0,1,0,1.5,0c0.2,0,0.4,0.1,0.6,0c0.5,0,1,0,1.5,0c0.2,0.1,0.4,0.1,0.6,0c0.5,0,1,0,1.5,0
	c0.2,0.1,0.4,0.1,0.6,0c0.5,0,1,0,1.5,0c0.2,0.1,0.4,0.1,0.5,0.3h2.1C40.4,29.1,40.8,29.3,40.9,29.6z"/>
<path class="st1" d="M35.3,16.6h0.5c0.5,0,1,0,1.5,0.1l0.2,0.2c0.3,0.9,0,1.3-0.9,1.4h-0.4c-0.2,0.1-0.4,0.2-0.5,0.2
	c-0.5,0-1,0-1.5,0.1c-0.2,0-0.4-0.1-0.6,0c-0.5,0-1,0-1.5,0c-0.2,0-0.4-0.1-0.6,0c-0.5,0-1,0-1.5,0c-0.2,0-0.4-0.1-0.6,0
	c-0.5,0-1,0-1.5,0c-0.2,0-0.4-0.1-0.6-0.1c-0.2,0-0.4,0-0.6,0c-0.3,0-0.5-0.1-0.5-0.4L26,17.7c0-0.8,0.3-1,1-1.1L35.3,16.6
	L35.3,16.6z"/>
<path class="st1" d="M40.9,21.3v0.5c-0.1,0.3-0.3,0.5-0.6,0.6c-0.2,0.1-0.3,0.2-0.5,0.2c-0.5,0-1,0-1.5,0.1c-0.2,0-0.4-0.1-0.6,0
	c-0.5,0-1,0-1.5,0c-0.2,0-0.4-0.1-0.6,0c-0.5,0-1,0-1.5,0c-0.2-0.1-0.4-0.1-0.6,0c-0.5,0-1,0-1.5,0c-0.2-0.1-0.4-0.1-0.6,0
	c-0.5,0-1,0-1.5,0c-0.2-0.1-0.4-0.1-0.6,0c-0.5,0-1,0-1.5,0c-0.2-0.1-0.4-0.1-0.6,0c-0.2,0-0.4,0-0.7,0c-0.3,0-0.6,0.1-0.9-0.2h-2.1
	h-0.5c-0.3-0.2-0.5-0.5-0.5-0.9c0.1-0.4,0.4-0.7,0.8-0.8c0.5-0.2,1-0.3,1.5-0.3c0.2,0,0.4,0.1,0.6,0c0.5,0,1,0,1.5,0
	c0.2,0,0.4,0.1,0.6,0c0.5,0,1,0,1.5,0c0.2,0.1,0.4,0.1,0.6,0c0.5,0,1,0,1.5,0c0.2,0.1,0.4,0.1,0.6,0c0.5,0,1,0,1.5,0
	c0.2,0.1,0.4,0.1,0.5,0.3H40C40.4,20.8,40.8,21,40.9,21.3z"/>
<path class="st1" d="M40.9,25.5V26c-0.1,0.3-0.3,0.5-0.6,0.6c-0.2,0.1-0.3,0.2-0.5,0.2c-0.5,0-1,0-1.5,0.1c-0.2,0-0.4-0.1-0.6,0
	c-0.5,0-1,0-1.5,0c-0.2,0-0.4-0.1-0.6,0c-0.5,0-1,0-1.5,0c-0.2-0.1-0.4-0.1-0.6,0c-0.5,0-1,0-1.5,0c-0.2-0.1-0.4-0.1-0.6,0
	c-0.5,0-1,0-1.5,0c-0.2-0.1-0.4-0.1-0.6,0c-0.5,0-1,0-1.5,0c-0.2-0.1-0.4-0.1-0.6,0c-0.2,0-0.4,0-0.7,0c-0.3,0-0.6,0.1-0.9-0.2h-2.1
	h-0.5c-0.3-0.2-0.5-0.5-0.5-0.9c0.1-0.4,0.4-0.7,0.8-0.8c0.5-0.2,1-0.3,1.5-0.3c0.2,0,0.4,0.1,0.6,0c0.5,0,1,0,1.5,0
	c0.2,0,0.4,0.1,0.6,0c0.5,0,1,0,1.5,0c0.2,0.1,0.4,0.1,0.6,0c0.5,0,1,0,1.5,0c0.2,0,0.4,0.1,0.6,0c0.5,0,1,0,1.5,0
	c0.2,0.1,0.4,0.1,0.6,0c0.5,0,1,0,1.5,0c0.2,0.1,0.4,0.1,0.6,0c0.5,0,1,0,1.5,0c0.2,0.1,0.4,0.1,0.5,0.3h2.1
	C40.4,25,40.8,25.1,40.9,25.5z"/>
<path class="st1" d="M39.9,48c-0.1-0.2-0.1-0.3-0.1-0.5c0.2-0.5,0.2-1.1,0-1.6c0-0.1-0.1-0.2-0.2-0.3l-0.8-0.8
	c-0.1-0.3,0.1-0.4,0.3-0.5c0.2,0,0.4-0.1,0.7-0.1c0.5,0,1-0.3,1.3-0.8c0.1-0.2,0.2-0.4,0.3-0.5s0.1-0.4,0.4-0.5s0.3,0.3,0.5,0.4
	l0.3,0.5c0.1,0.3,0.4,0.6,0.8,0.7c0.1,0.1,0.3,0.1,0.4,0.1c0.3,0.2,0.8,0,1.1,0.3c0,0.4-0.3,0.5-0.5,0.7s-0.6,0.5-0.6,0.9
	c-0.1,0.5-0.1,1,0.1,1.5c0,0.3-0.2,0.5-0.5,0.4l-0.9-0.5c-0.2-0.1-0.5-0.2-0.7-0.1c-0.4,0-0.7,0.2-1,0.4S40.2,48.2,39.9,48z"/>
</svg>
