<?xml version="1.0" encoding="UTF-8" standalone="no"?>
<!-- Generator: Adobe Illustrator 23.0.1, SVG Export Plug-In . SVG Version: 6.00 Build 0)  -->

<svg
   xmlns:dc="http://purl.org/dc/elements/1.1/"
   xmlns:cc="http://creativecommons.org/ns#"
   xmlns:rdf="http://www.w3.org/1999/02/22-rdf-syntax-ns#"
   xmlns:svg="http://www.w3.org/2000/svg"
   xmlns="http://www.w3.org/2000/svg"
   xmlns:sodipodi="http://sodipodi.sourceforge.net/DTD/sodipodi-0.dtd"
   xmlns:inkscape="http://www.inkscape.org/namespaces/inkscape"
   version="1.1"
   id="Layer_1"
   x="0px"
   y="0px"
   viewBox="0 0 55.000001 55.000001"
   enable-background="new 0 0 60.8 62.3"
   xml:space="preserve"
   sodipodi:docname="Transaction Manager.svg"
   width="55"
   height="55"
   inkscape:version="0.92.3 (2405546, 2018-03-11)"><metadata
   id="metadata7884"><rdf:RDF><cc:Work
       rdf:about=""><dc:format>image/svg+xml</dc:format><dc:type
         rdf:resource="http://purl.org/dc/dcmitype/StillImage" /><dc:title></dc:title></cc:Work></rdf:RDF></metadata><defs
   id="defs7882" /><sodipodi:namedview
   pagecolor="#ffffff"
   bordercolor="#666666"
   borderopacity="1"
   objecttolerance="10"
   gridtolerance="10"
   guidetolerance="10"
   inkscape:pageopacity="0"
   inkscape:pageshadow="2"
   inkscape:window-width="1920"
   inkscape:window-height="1017"
   id="namedview7880"
   showgrid="false"
   fit-margin-top="0"
   fit-margin-left="0"
   fit-margin-right="0"
   fit-margin-bottom="0"
   inkscape:zoom="10.714427"
   inkscape:cx="24.1623"
   inkscape:cy="24.175399"
   inkscape:window-x="-8"
   inkscape:window-y="-8"
   inkscape:window-maximized="1"
   inkscape:current-layer="Layer_1" />
<g
   id="g7877"
   transform="translate(-2.8999996,-3.7999992)">
	<g
   id="blockchain-transaction-manager_2_">
		<circle
   cx="30.4"
   cy="31.299999"
   id="ellipse7864"
   r="27.5"
   style="fill:#05b09d" />
	</g>
	<g
   id="g7875">
		<path
   d="m 10.7,26.3 c 0.9,0 1.9,0 2.8,0 0.3,0 0.4,-0.1 0.5,-0.4 0.9,-2.8 2.4,-5.2 4.6,-7.2 2.4,-2.3 5.3,-3.8 8.6,-4.4 3.2,-0.6 6.4,-0.3 9.5,0.8 0.3,0.1 0.4,0.2 0.4,0.5 0,1.1 0,2.1 0,3.2 -4.7,-2.3 -9.3,-2.2 -13.8,0.4 -3,1.8 -5,4.7 -5.8,7 1,0 2,0 3.2,0 -1.7,2.2 -3.3,4.4 -4.9,6.6 -0.2,-0.3 -0.4,-0.5 -0.6,-0.8 -1.4,-1.9 -2.8,-3.7 -4.2,-5.6 -0.2,0 -0.3,0 -0.3,-0.1 z"
   id="path7867"
   inkscape:connector-curvature="0"
   style="fill:#ffffff" />
		<path
   d="m 10.7,47 c 0.1,-0.3 0.1,-0.6 0.3,-0.9 0.7,-1.9 2.1,-3 4.2,-3.4 -1,-0.3 -1.8,-0.7 -2.3,-1.6 -0.5,-0.9 -0.6,-1.8 -0.3,-2.8 0.4,-1.3 1.8,-2.2 3.3,-2.2 1.5,0.1 2.7,1.1 3,2.6 0.2,0.9 0,1.8 -0.5,2.6 -0.5,0.8 -1.3,1.2 -2.2,1.4 2.8,0.5 4.6,2.7 4.4,4.9 -0.1,0 -0.1,0 -0.2,0 -3.1,0 -6.2,0 -9.3,0 -0.1,0 -0.2,0 -0.3,0 -0.1,-0.2 -0.1,-0.4 -0.1,-0.6 z"
   id="path7869"
   inkscape:connector-curvature="0"
   style="fill:#ffffff" />
		<path
   d="m 50.2,37.8 c -1.2,0 -2.2,0 -3.3,0 -0.4,0 -0.6,0.1 -0.7,0.5 -2.3,5 -6.1,8.2 -11.4,9.7 -3.6,1 -7.1,0.7 -10.6,-0.6 -0.1,0 -0.3,-0.2 -0.3,-0.3 0,-1.1 0,-2.3 0,-3.5 4.3,2.1 8.6,2.2 12.8,0.1 2.6,-1.3 4.6,-3.3 6,-5.9 -0.8,0 -1.6,0 -2.4,0 1.7,-2.2 3.3,-4.4 5,-6.6 1.6,2.2 3.2,4.3 4.9,6.6 z"
   id="path7871"
   inkscape:connector-curvature="0"
   style="fill:#ffffff" />
		<path
   d="m 44.8,21.3 c -2.1,-0.5 -2.9,-2.1 -2.8,-3.5 0.1,-1.9 1.6,-3.1 3.2,-3.1 1.6,0 3,1.2 3.3,2.7 0.3,1.7 -0.6,3.4 -2.7,3.9 2.7,0.6 4.2,2.2 4.4,4.9 -3.3,0 -6.6,0 -9.9,0 0,-1.3 0.4,-2.4 1.3,-3.3 0.8,-0.9 1.8,-1.4 3.2,-1.6 z"
   id="path7873"
   inkscape:connector-curvature="0"
   style="fill:#ffffff" />
	</g>
</g>
</svg>