<?xml version="1.0" encoding="UTF-8" standalone="no"?>
<!-- Generator: Adobe Illustrator 23.0.1, SVG Export Plug-In . SVG Version: 6.00 Build 0)  -->

<svg
   xmlns:dc="http://purl.org/dc/elements/1.1/"
   xmlns:cc="http://creativecommons.org/ns#"
   xmlns:rdf="http://www.w3.org/1999/02/22-rdf-syntax-ns#"
   xmlns:svg="http://www.w3.org/2000/svg"
   xmlns="http://www.w3.org/2000/svg"
   xmlns:sodipodi="http://sodipodi.sourceforge.net/DTD/sodipodi-0.dtd"
   xmlns:inkscape="http://www.inkscape.org/namespaces/inkscape"
   version="1.1"
   id="Layer_1"
   x="0px"
   y="0px"
   viewBox="0 0 55.000001 55.000001"
   enable-background="new 0 0 60.8 62.3"
   xml:space="preserve"
   sodipodi:docname="Wallet.svg"
   width="55"
   height="55"
   inkscape:version="0.92.3 (2405546, 2018-03-11)"><metadata
   id="metadata8471"><rdf:RDF><cc:Work
       rdf:about=""><dc:format>image/svg+xml</dc:format><dc:type
         rdf:resource="http://purl.org/dc/dcmitype/StillImage" /><dc:title></dc:title></cc:Work></rdf:RDF></metadata><defs
   id="defs8469" /><sodipodi:namedview
   pagecolor="#ffffff"
   bordercolor="#666666"
   borderopacity="1"
   objecttolerance="10"
   gridtolerance="10"
   guidetolerance="10"
   inkscape:pageopacity="0"
   inkscape:pageshadow="2"
   inkscape:window-width="1920"
   inkscape:window-height="1017"
   id="namedview8467"
   showgrid="false"
   fit-margin-top="0"
   fit-margin-left="0"
   fit-margin-right="0"
   fit-margin-bottom="0"
   inkscape:zoom="10.714427"
   inkscape:cx="28.839005"
   inkscape:cy="20.839816"
   inkscape:window-x="-8"
   inkscape:window-y="-8"
   inkscape:window-maximized="1"
   inkscape:current-layer="Layer_1" />
<g
   id="g8464"
   transform="translate(-2.8999996,-3)">
	
		<circle
   id="blockchain-wallet-external_2_"
   cx="30.4"
   cy="30.5"
   r="27.5"
   style="clip-rule:evenodd;fill:#d91f2f;fill-rule:evenodd" />
	<g
   id="g8462">
		<path
   d="m 49.1,34.5 c 0,1.4 0,2.8 0,4.1 0,2.7 -2.2,4.9 -4.9,4.9 -6.2,0 -12.4,0 -18.6,0 -0.3,0 -0.5,0.1 -0.7,0.4 -2,2.8 -4.6,4.2 -8.1,3.9 C 13.2,47.5 10,44.5 9.2,41 c -0.8,-4.2 1.5,-8.3 5.5,-9.8 0.4,-0.1 0.5,-0.3 0.5,-0.7 0,-3.2 0,-6.4 0,-9.6 0,-2 1,-3.5 2.8,-4.5 0.5,-0.3 0.9,-0.5 1.2,-0.9 0.2,-0.3 0.6,-0.5 1,-0.6 2.2,-0.3 4.4,-0.5 6.6,-0.8 2.1,-0.2 4.2,-0.5 6.3,-0.7 2.1,-0.2 4.3,-0.5 6.4,-0.7 1,-0.1 2,-0.2 3,-0.3 1.2,-0.2 2,0.4 2.2,1.6 0.1,0.5 0.1,0.9 0.1,1.4 0,0.4 0.1,0.6 0.6,0.7 2,0.6 3.3,2 3.7,4.1 0.1,0.5 0,0.9 0,1.4 0,1.1 0,2.3 0,3.4 0.1,0 0.3,0 0.4,0 1.3,0 2.1,0.9 2.2,2.2 0,1.7 0,3.3 0,5 0,1.5 -0.8,2.3 -2.3,2.4 -0.1,-0.1 -0.1,-0.1 -0.3,-0.1 z m -26.8,-9 c 0,0.1 0,0.3 0,0.4 0,1.8 0,3.7 0,5.5 0,0.4 0.1,0.7 0.5,1 2.2,1.7 3.5,4 3.5,6.9 0,0.9 -0.2,1.8 -0.2,2.7 0.1,0 0.3,0 0.4,0 2.1,0 4.1,0 6.2,0 3.8,0 7.7,0 11.5,0 1.9,0 3.2,-1.3 3.2,-3.2 0,-1.2 0,-2.5 0,-3.7 0,-0.1 0,-0.3 0,-0.5 -0.2,0 -0.4,0 -0.6,0 -1.9,0 -3.8,0 -5.8,0 -3,0 -5.2,-2.8 -4.9,-5.4 0.3,-2.3 2.3,-4.1 4.6,-4.1 2.1,0 4.1,0 6.2,0 0.2,0 0.3,0 0.5,0 0,-1.6 0,-3 0,-4.5 -0.1,-1.2 -0.6,-2.2 -1.8,-2.6 -0.5,-0.2 -1,-0.2 -1.5,-0.2 -8,0 -15.9,0 -23.9,0 -2,0 -3.2,1.2 -3.2,3.2 0,3.1 0,6.2 0,9.3 0,0.2 0,0.3 0,0.4 1.2,0.2 2.4,0.3 3.5,0.5 0,-1.8 0,-3.7 0,-5.6 0.7,-0.1 1.2,-0.1 1.8,-0.1 z m -4.6,20.7 c 3.9,0 6.9,-2.9 6.9,-6.9 0,-4.5 -3.8,-6.9 -6.8,-6.9 -3.8,0 -6.9,2.8 -6.9,6.8 -0.1,3.9 2.9,7 6.8,7 z M 49.9,26.7 c -0.1,0 -0.2,0 -0.3,0 -2.9,0 -5.8,0 -8.7,0 -0.2,0 -0.4,0 -0.6,0.1 -1.7,0.3 -2.7,1.6 -2.5,3.4 0.2,1.7 1.5,2.6 3,2.6 2.9,0 5.7,0 8.6,0 0.1,0 0.3,0 0.4,0 0.1,-2.1 0.1,-4.1 0.1,-6.1 z M 43,14 c -5.1,0.6 -10.2,1.1 -15.3,1.7 v 0 c 5.1,0 10.3,0 15.5,0 C 43.1,15.1 43.1,14.6 43,14 Z"
   id="path8452"
   inkscape:connector-curvature="0"
   style="fill:#ffffff" />
		<path
   d="m 17.7,44.4 c -0.7,0 -1.4,0 -2.1,0 -1.2,0 -2.2,-1 -2.2,-2.2 0,-1 0,-1.9 0,-2.9 0,-0.9 0.4,-1.5 1.1,-2 0.2,-0.1 0.3,-0.2 0.3,-0.5 0.2,-2.2 2.6,-3.4 4.4,-2.2 0.8,0.5 1.1,1.3 1.2,2.2 0,0.2 0.1,0.3 0.3,0.4 0.8,0.5 1.2,1.1 1.2,2.1 0,0.9 0,1.9 0,2.8 0,1.2 -0.9,2.2 -2.2,2.2 -0.6,0.1 -1.3,0.1 -2,0.1 z m 0,-5.5 c -0.7,0 -1.4,0 -2.2,0 -0.3,0 -0.4,0.1 -0.4,0.4 0,1 0,2 0,3 0,0.3 0.1,0.4 0.4,0.4 1.4,0 2.9,0 4.3,0 0.3,0 0.4,-0.1 0.4,-0.4 0,-1 0,-2 0,-3 0,-0.3 -0.1,-0.4 -0.4,-0.4 -0.7,0 -1.4,0 -2.1,0 z m 1,-1.8 c 0,-0.8 -0.4,-1.2 -1.2,-1.1 -0.6,0 -0.9,0.5 -0.8,1.1 0.7,0 1.3,0 2,0 z"
   id="path8454"
   inkscape:connector-curvature="0"
   style="fill:#ffffff" />
		<path
   d="m 43.1,29.7 c 0,1.1 -1,2.1 -2.1,2.1 -1,0 -2.1,-1 -2.1,-2.1 0,-1.1 1,-2.1 2.1,-2.1 1,0 2.1,1 2.1,2.1 z m -1.7,0.1 c 0,-0.1 0,-0.2 0,-0.2 -0.2,-0.1 -0.3,-0.2 -0.5,-0.2 -0.3,-0.1 -0.4,0.1 -0.4,0.4 0,0.3 0.1,0.4 0.4,0.4 0.2,-0.2 0.4,-0.3 0.5,-0.4 z"
   id="path8456"
   inkscape:connector-curvature="0"
   style="fill:#ffffff" />
		<path
   d="m 16.9,41.8 c -0.1,-0.3 -0.2,-0.6 -0.3,-0.9 -0.1,-0.5 0.1,-0.8 0.4,-1.1 0.3,-0.3 0.7,-0.4 1.1,-0.2 0.7,0.4 0.9,0.9 0.5,1.6 -0.1,0.2 -0.1,0.4 -0.2,0.6 -0.4,0 -1,0 -1.5,0 z m 1.5,-1.2 c -0.3,-0.2 -0.5,-0.5 -0.7,-0.5 -0.2,0 -0.5,0.3 -0.5,0.5 0,0.1 0.3,0.5 0.5,0.5 0.2,0 0.4,-0.3 0.7,-0.5 z"
   id="path8458"
   inkscape:connector-curvature="0"
   style="fill:#ffffff" />
		<path
   d="m 19.8,24.5 c 0.1,2.2 0.2,4.3 0.4,6.5 0.3,0 0.8,0.1 1.3,0.4 0.6,0.3 0.9,0.7 1.1,0.9 0.5,-2.6 1,-5.2 1.4,-7.7 h -4.2 z"
   id="path8460"
   inkscape:connector-curvature="0"
   style="fill:#d91f2f" />
	</g>
</g>
</svg>