<svg
	xmlns="http://www.w3.org/2000/svg" width="18" height="16.919">
	<defs>
		<linearGradient id="A" x1="10.044" y1=".601" x2="10.044" y2="16.92" gradientUnits="userSpaceOnUse">
			<stop offset="0" stop-color="#5ea0ef"/>
			<stop offset="1" stop-color="#0078d4"/>
		</linearGradient>
	</defs>
	<path d="M17.76 15.434l-2.928-2.929a7.281 7.281 0 1 0-1.3 1.193l2.981 2.981a.824.824 0 0 0 1.164 0l.08-.081a.822.822 0 0 0 .003-1.164z" fill="url(#A)"/>
	<circle cx="9.318" cy="7.833" r="5.665" fill="#fff"/>
	<path d="M12.149 8.311l-1.63 3.78-1.641-4.87-1.455 2.772-1.689-2.856H3.201a5.712 5.712 0 0 1 .222-.944h2.851l1.1 1.858 1.693-3.232 1.56 4.627.883-2.367h1.042l1.259 2.288h.935a5.836 5.836 0 0 1-.3.947h-1.196z" fill="#50e6ff"/>
	<path d="M13.509 6.453h-2.176a4.159 4.159 0 0 0-.788-2.026 4.222 4.222 0 0 0-2.593-1.608V.603a.604.604 0 0 0-1.207 0v2.17a4.146 4.146 0 0 0-3.729 3.679H.603a.604.604 0 0 0 0 1.207h2.456a4.126 4.126 0 0 0 .755 1.8 4.222 4.222 0 0 0 2.759 1.633v2.236a.604.604 0 1 0 1.207 0v-2.236a4.164 4.164 0 0 0 3.526-3.436h2.2a.604.604 0 0 0 0-1.207zM9.032 9.425a3.1 3.1 0 1 1 .627-4.339 3.082 3.082 0 0 1-.627 4.339z" fill="#faa21d"/>
</svg>