<svg
	xmlns="http://www.w3.org/2000/svg"
	xmlns:xlink="http://www.w3.org/1999/xlink" width="17" height="16.518">
	<g fill="#52a646">
		<use xlink:href="#B"/>
		<use xlink:href="#C"/>
		<use xlink:href="#D"/>
		<use xlink:href="#E"/>
		<use xlink:href="#F"/>
		<use xlink:href="#G"/>
	</g>
	<g fill="#473a4b">
		<use xlink:href="#H"/>
		<use xlink:href="#I"/>
	</g>
	<g fill="#52a646">
		<use xlink:href="#B"/>
		<use xlink:href="#C"/>
		<use xlink:href="#D"/>
		<use xlink:href="#E"/>
		<use xlink:href="#F"/>
		<use xlink:href="#G"/>
	</g>
	<g fill="#473a4b">
		<use xlink:href="#H"/>
		<use xlink:href="#I"/>
	</g>
	<defs >
		<path id="B" d="M3.545 2.984a.1.1 0 0 0 .094-.095v-.561a.1.1 0 0 1 .094-.1h2.252a.1.1 0 0 0 .094-.1v-.1a.1.1 0 0 0-.094-.095H4.95a.1.1 0 0 1-.094-.094v-.28a.1.1 0 0 1 .094-.1h1.543a.1.1 0 0 1 .094.1v1.053a.1.1 0 0 1-.094.1H5.458a.1.1 0 0 0-.094.095v.843a.1.1 0 0 0 .094.095h1.436a.1.1 0 0 1 .094.1v.283a.1.1 0 0 1-.094.1H4.551a.1.1 0 0 1-.094-.1v-.291a.1.1 0 0 1 .094-.095h.211a.094.094 0 0 0 .093-.1v-.838a.1.1 0 0 0-.093-.1h-.52a.1.1 0 0 0-.094.1v.559a.094.094 0 0 1-.094.093H2.518a.093.093 0 0 1-.093-.093v-.285a.1.1 0 0 1 .093-.1zm6.064.633a.1.1 0 0 0 .094.095h2.152a.1.1 0 0 0 .094-.095v-.1a.1.1 0 0 0-.094-.095h-.62a.094.094 0 0 1-.094-.094v-.282a.094.094 0 0 1 .094-.094h1.127a.094.094 0 0 1 .094.094v1.042a.1.1 0 0 1-.094.095h-1.028a.1.1 0 0 0-.094.095v.089a.1.1 0 0 0 .094.095h1.835a.1.1 0 0 1 .094.095v1.328a.1.1 0 0 0 .094.095h.827a.1.1 0 0 1 .094.094v.275a.1.1 0 0 1-.094.1H12.86a.1.1 0 0 1-.093-.1V5.027a.1.1 0 0 0-.094-.095h-1.845a.1.1 0 0 1-.094-.095V4.28a.1.1 0 0 0-.094-.095h-.119a.1.1 0 0 0-.094.095v.558a.094.094 0 0 1-.093.095h-.317a.094.094 0 0 1-.093-.095V4.28a.1.1 0 0 0-.094-.095h-.619a.1.1 0 0 1-.094-.095v-.569a.1.1 0 0 0-.094-.1H8.9a.1.1 0 0 0-.094.1v.569a.1.1 0 0 1-.093.095h-.924A.1.1 0 0 1 7.7 4.09v-.285a.094.094 0 0 1 .094-.094h.422a.1.1 0 0 0 .084-.095v-.57a.094.094 0 0 1 .1-.089h1.113a.094.094 0 0 1 .094.094zM8.376 5.742a.1.1 0 0 0-.094.095v.191a.093.093 0 0 1-.093.093H7.051a.094.094 0 0 1-.094-.093v-.284a.1.1 0 0 1 .094-.095h.633a.1.1 0 0 0 .093-.1v-.19a.1.1 0 0 1 .094-.093H8.8a.1.1 0 0 1 .094.093v.284a.1.1 0 0 1-.094.095z"/>
		<path id="C" d="M4.293 1.2a.093.093 0 0 0-.093.094v.57a.1.1 0 0 1-.094.095h-.323a.1.1 0 0 1-.094-.095V.83a.1.1 0 0 1 .094-.092h1.746a.1.1 0 0 1 .094.095v.275a.1.1 0 0 1-.094.095zM8.645.664a.1.1 0 0 0 .094.095h.632a.1.1 0 0 1 .094.095v.275a.1.1 0 0 1-.094.094H8.24a.1.1 0 0 1-.094-.094V.567a.1.1 0 0 0-.093-.095H6.717a.1.1 0 0 0-.094.095v.1a.1.1 0 0 0 .094.1h.62a.1.1 0 0 1 .094.095v.559a.093.093 0 0 0 .093.093h2.039a.1.1 0 0 1 .094.1v1.031a.1.1 0 0 1-.094.1h-.316a.1.1 0 0 1-.094-.1v-.569a.1.1 0 0 0-.094-.095H7.016a.1.1 0 0 1-.094-.1v-.564a.094.094 0 0 0-.093-.095h-.621a.094.094 0 0 1-.094-.094V.095A.1.1 0 0 1 6.208 0h2.343a.1.1 0 0 1 .094.095zm4.213 2.135a.1.1 0 0 0-.094-.095h-2.152a.1.1 0 0 0-.094.095v.563a.094.094 0 0 1-.094.094h-.316a.094.094 0 0 1-.094-.094V2.326a.094.094 0 0 1 .094-.094h1.036a.094.094 0 0 0 .094-.094v-.1a.094.094 0 0 0-.094-.094h-.827a.1.1 0 0 1-.094-.1V1.57a.094.094 0 0 1 .094-.094h1.327a.094.094 0 0 1 .094.094v.569a.1.1 0 0 0 .094.094h1.435a.1.1 0 0 1 .094.1v.654a.1.1 0 0 1-.094.094h-.316a.1.1 0 0 1-.094-.094zm.809 1.141a.1.1 0 0 0-.094-.095h-.619a.094.094 0 0 1-.094-.094v-.283a.1.1 0 0 1 .094-.1h1.127a.1.1 0 0 1 .094.1v1.413a.094.094 0 0 1-.094.093h-.316a.094.094 0 0 1-.094-.093zm2.171 2.648a.1.1 0 0 0-.093-.1h-.633a.094.094 0 0 1-.094-.094v-.556a.1.1 0 0 0-.094-.1h-1.232a.1.1 0 0 1-.094-.094v-.278a.1.1 0 0 1 .094-.095h1.747a.1.1 0 0 1 .094.095v.569a.1.1 0 0 0 .093.095h.619a.094.094 0 0 1 .094.093v1.034a.094.094 0 0 1-.094.1h-.316a.094.094 0 0 1-.094-.094z"/>
		<path id="D" d="M14.828 7.424a.1.1 0 0 0-.093.1V7.9a.1.1 0 0 1-.094.1h-.316a.1.1 0 0 1-.094-.1v-.843a.1.1 0 0 1 .094-.095h1.136a.1.1 0 0 1 .094.095v.284a.1.1 0 0 1-.094.095zM8.132 2.687a.1.1 0 0 0-.094.095v.562a.094.094 0 0 1-.094.094H6.208a.1.1 0 0 1-.094-.094v-.287a.1.1 0 0 1 .094-.1h1.235a.1.1 0 0 0 .094-.095V2.78a.1.1 0 0 0-.094-.1h-.219a.1.1 0 0 1-.094-.095v-.276a.1.1 0 0 1 .094-.1h1.127a.1.1 0 0 1 .094.1v.283a.1.1 0 0 1-.094.1zm4.707 5.335a.1.1 0 0 0-.093.095v.569a.1.1 0 0 1-.094.095h-.317a.1.1 0 0 1-.093-.095V7.657a.1.1 0 0 1 .093-.095h1.028a.1.1 0 0 0 .094-.094v-.1a.1.1 0 0 0-.094-.094h-1.639a.094.094 0 0 1-.094-.094V5.857a.1.1 0 0 0-.094-.095h-.11a.1.1 0 0 0-.094.095v1.607a.1.1 0 0 1-.094.094H10.1a.094.094 0 0 1-.094-.094V6.236a.1.1 0 0 0-.091-.093H9.3a.093.093 0 0 1-.1-.093v-.949a.094.094 0 0 0-.094-.094H7.051a.1.1 0 0 1-.094-.095v-.284a.1.1 0 0 1 .094-.1H9.6a.1.1 0 0 1 .094.1v.948a.1.1 0 0 0 .094.095h.632a.1.1 0 0 1 .094.1v1.171a.094.094 0 0 0 .094.094h.12a.094.094 0 0 0 .094-.094V5.386a.094.094 0 0 1 .093-.094h1.535a.094.094 0 0 1 .094.094v.283a.1.1 0 0 1-.094.095h-.216a.1.1 0 0 0-.094.1v.843a.1.1 0 0 0 .094.095h1.644a.094.094 0 0 1 .093.094v1.029a.1.1 0 0 1-.093.1zm1.755 1a.1.1 0 0 0-.093.1v1.135a.1.1 0 0 1-.094.1h-.316a.1.1 0 0 1-.091-.1V9.121a.094.094 0 0 0-.1-.094h-.63a.1.1 0 0 1-.093-.095v-.286a.1.1 0 0 1 .093-.095h1.844a.094.094 0 0 0 .094-.094v-.562a.094.094 0 0 1 .094-.094h.316a.094.094 0 0 1 .094.094V8.93a.094.094 0 0 1-.094.094z"/>
		<path id="E" d="M15.47 9.769a.094.094 0 0 0-.093.094v.094a.1.1 0 0 0 .093.095h1.436a.1.1 0 0 1 .094.094v1.042a.1.1 0 0 1-.094.1h-.927a.1.1 0 0 1-.094-.1v-.282a.1.1 0 0 1 .094-.1h.421a.1.1 0 0 0 .094-.094v-.1a.1.1 0 0 0-.094-.095h-.927a.1.1 0 0 0-.094.095v.569a.1.1 0 0 1-.094.1h-.633a.094.094 0 0 0-.093.094v.1a.1.1 0 0 0 .093.1H16.5a.1.1 0 0 1 .094.1v.275a.1.1 0 0 1-.094.095h-2.345a.1.1 0 0 1-.094-.095v-.562a.1.1 0 0 0-.094-.094h-.632a.1.1 0 0 1-.094-.1v-.569a.1.1 0 0 0-.094-.1h-1.141a.1.1 0 0 1-.094-.1V9.391a.094.094 0 0 1 .094-.094h1.243a.1.1 0 0 1 .094.094v.284a.1.1 0 0 1-.094.1h-.73a.1.1 0 0 0-.094.1v.082a.1.1 0 0 0 .094.095h1.138a.094.094 0 0 1 .094.094v.57a.094.094 0 0 0 .094.094h.928a.094.094 0 0 0 .093-.094v-1.32a.094.094 0 0 1 .094-.094H16a.094.094 0 0 0 .094-.094v-.57a.1.1 0 0 1 .094-.095h.312a.1.1 0 0 1 .094.095V9.68a.1.1 0 0 1-.094.1zM1.437 4.267a.1.1 0 0 0-.094.1v.09a.094.094 0 0 0 .094.094h1.036a.1.1 0 0 1 .094.1v.556a.1.1 0 0 0 .094.095h.927a.1.1 0 0 0 .094-.095V3.89a.1.1 0 0 1 .093-.095h.316a.094.094 0 0 1 .094.094v.562a.094.094 0 0 0 .094.094h1.442a.1.1 0 0 1 .094.095v1.042a.1.1 0 0 1-.094.095h-.728a.1.1 0 0 1-.093-.095v-.284a.1.1 0 0 1 .093-.095h.22a.1.1 0 0 0 .094-.1v-.1a.094.094 0 0 0-.094-.094h-.928a.094.094 0 0 0-.094.094v.57a.1.1 0 0 1-.094.095H2.662a.094.094 0 0 0-.094.094v.377a.1.1 0 0 1-.094.095h-.316a.1.1 0 0 1-.094-.095V5.111a.094.094 0 0 0-.094-.094H.937a.1.1 0 0 1-.094-.095V3.89a.1.1 0 0 1 .094-.094H3.28a.094.094 0 0 1 .094.094v.283a.1.1 0 0 1-.094.095zm5.185 2.06a.1.1 0 0 0 .094.095h.619a.094.094 0 0 1 .093.095V6.8a.1.1 0 0 1-.093.095H6.208a.1.1 0 0 1-.094-.095V4.628a.1.1 0 0 1 .094-.1h.316a.1.1 0 0 1 .094.1z"/>
		<path id="F" d="M1.441 5.742a.1.1 0 0 0-.094.095v.941a.1.1 0 0 1-.094.095H.937a.1.1 0 0 1-.094-.095V5.364a.1.1 0 0 1 .094-.093h.719a.094.094 0 0 1 .094.093v.284a.1.1 0 0 1-.094.095z"/>
		<path id="G" d="M.508 7.045a.1.1 0 0 0 .094.095h.932a.1.1 0 0 0 .094-.095v-.188a.1.1 0 0 1 .093-.1h1.432a.094.094 0 0 0 .094-.094v-.56a.094.094 0 0 1 .094-.094h2.352a.094.094 0 0 1 .094.094v.942a.1.1 0 0 0 .094.095h.632a.1.1 0 0 1 .094.094v.284a.1.1 0 0 1-.094.1H5.374a.1.1 0 0 1-.094-.1v-.192a.1.1 0 0 0-.094-.1h-.619a.094.094 0 0 1-.094-.093v-.276a.1.1 0 0 1 .094-.1h.618a.094.094 0 0 0 .094-.094v-.1a.1.1 0 0 0-.094-.094H3.853a.1.1 0 0 0-.094.094v1.325a.1.1 0 0 1-.094.1h-.623a.094.094 0 0 0-.094.094v.57a.1.1 0 0 1-.093.095H1.409a.094.094 0 0 0-.093.1v.191a.094.094 0 0 1-.094.094H.906a.094.094 0 0 1-.094-.094V7.984a.1.1 0 0 1 .094-.1h.316a.1.1 0 0 1 .094.1v.191a.1.1 0 0 0 .093.094h.936a.1.1 0 0 0 .094-.094v-.562a.1.1 0 0 1 .094-.1h.62a.1.1 0 0 0 .094-.095v-.1a.1.1 0 0 0-.094-.1h-.928a.1.1 0 0 0-.094.1v.199a.1.1 0 0 1-.093.1H.094a.1.1 0 0 1-.094-.1V6.103a.094.094 0 0 1 .094-.094H.41a.094.094 0 0 1 .09.094zM9.6 6.43v.378a.1.1 0 0 1-.1.093H8.1a.094.094 0 0 1-.094-.093V6.43"/>
		<path id="H" d="M13.4 11.602c0-.041-.975-.156-1.59-.35a5.678 5.678 0 0 1-.99-.4c-.149-.078-.05-.242.007-.3.211-.226.732-.6.7-.65a8.842 8.842 0 0 0-1.036.659.292.292 0 0 1-.241.031c-1.1-.341-2.512-.747-2.512-1.335s.887-.7 2.151-.685a4.866 4.866 0 0 0 1.538-.388c.021-.009.014-.045-.009-.038a4.365 4.365 0 0 1-1.678.242c-.94-.115-1.11-.185-1.423-.1-.048.014-.077-.036-.054-.082a1.794 1.794 0 0 1 1.067-.778c.019-.007 0-.032-.015-.029a2.9 2.9 0 0 0-1.47.553.037.037 0 0 1-.052-.005.032.032 0 0 1-.008-.02c-.039-.422-.593-.618-.755-.651-.016 0-.032.013-.018.022.226.138.654.552.4.948-.661 1.041-1.9 1.242-2.125 2.152-.2.783 1.729 2.023 1.729 2.748 0 1.1-2.214 1.751-2.214 1.751a.088.088 0 0 0 .037.168H11.8a.111.111 0 0 0 .12-.1.108.108 0 0 0-.007-.047c-.527-1.875-4.217-3.122-4.978-3.8-.19-.171-.341-.359-.234-.593.361-.783 3.928.756 5.358 1.009a7.352 7.352 0 0 0 1.332.072"/>
		<path id="I" d="M5.807 9.249c-.316-.326-1.027-.936-1.25-1.127a.015.015 0 1 0-.023.019l.492.869a.048.048 0 0 1-.043.073l-1.381-.051a.018.018 0 1 0 0 .036 8.88 8.88 0 0 1 1.836.527.1.1 0 0 0 .1-.012l.262-.185a.1.1 0 0 0 .024-.134l-.012-.007m6.208 7.261a1.025 1.025 0 0 0 .949-.982.127.127 0 0 0-.111-.141H3.92a.126.126 0 0 0-.125.128v.013a1.028 1.028 0 0 0 .948.982z"/>
	</defs>
</svg>