<svg
	xmlns="http://www.w3.org/2000/svg" width="17.946" height="18">
	<defs>
		<linearGradient id="A" x1="8.738" y1="15.265" x2="8.738" y2="2.901" gradientUnits="userSpaceOnUse">
			<stop offset="0" stop-color="#5ea0ef"/>
			<stop offset="1" stop-color="#0078d4"/>
		</linearGradient>
	</defs>
	<path d="M.563 4.891A.563.563 0 0 1 0 4.328V.563A.563.563 0 0 1 .563 0h3.525a.563.563 0 0 1 0 1.126H1.126v3.2a.563.563 0 0 1-.563.565zm17.383-.563V.563A.564.564 0 0 0 17.383 0h-3.525a.563.563 0 1 0 0 1.126h2.962v3.2a.563.563 0 0 0 1.126 0zM4.651 17.437a.563.563 0 0 0-.563-.563H1.126v-3.2a.563.563 0 0 0-1.126 0v3.765A.563.563 0 0 0 .563 18h3.525a.563.563 0 0 0 .563-.563zm13.295 0v-3.765a.563.563 0 0 0-1.126 0v3.2h-2.962a.563.563 0 0 0 0 1.126h3.525a.564.564 0 0 0 .563-.561z" fill="#50e6ff"/>
	<circle cx="8.738" cy="8.946" r="7.154" fill="#0078d4"/>
	<circle cx="8.738" cy="9.083" r="6.182" fill="url(#A)"/>
	<circle cx="8.738" cy="8.98" r="5.047" fill="#5ea0ef"/>
	<circle cx="8.738" cy="9.014" r="3.355" fill="#005ba1"/>
	<g fill="#fff">
		<circle cx="7.634" cy="7.778" r="1.008"/>
		<circle cx="8.738" cy="9.048" r=".447"/>
	</g>
</svg>