<svg id="uuid-54c9be04-bbab-4c24-a3df-11bd0e28ca85"
	xmlns="http://www.w3.org/2000/svg" width="18" height="18" viewBox="0 0 18 18">
	<defs>
		<linearGradient id="uuid-80fd62f5-d182-4403-8456-6923e7e033bb" x1="7.997" y1="14.863" x2="7.997" y2="2.057" gradientUnits="userSpaceOnUse">
			<stop offset="0" stop-color="#0078d4" />
			<stop offset=".82" stop-color="#5ea0ef" />
		</linearGradient>
		<linearGradient id="uuid-f6289940-e1be-4e56-904f-ba5a1586dc17" x1="-558.124" y1="1021.188" x2="-558.124" y2="1019.083" gradientTransform="translate(564 1025.516) scale(1 -1)" gradientUnits="userSpaceOnUse">
			<stop offset="0" stop-color="#fff" stop-opacity=".7" />
			<stop offset="1" stop-color="#fff" stop-opacity=".6" />
		</linearGradient>
	</defs>
	<path d="m.362,3.138C.162,3.138,0,2.976,0,2.777h0V.361C0,.162.162,0,.362,0h2.266c.2,0,.362.162.362.361,0,.199-.162.361-.362.361H.724v2.053c0,.199-.161.362-.361.362,0,0,0,0-.001,0Zm17.638-.361V.361C18,.162,17.838,0,17.638,0h-2.266c-.2,0-.362.162-.362.361s.162.361.362.361h1.904v2.053c0,.199.162.361.362.361.2,0,.361-.162.362-.361h0ZM2.99,17.639c0-.199-.162-.361-.362-.361H.724v-2.053c0-.199-.162-.361-.362-.361-.2,0-.362.162-.362.361v2.415c0,.199.163.36.362.36h2.266c.2,0,.362-.162.362-.361Zm15.01.001v-2.415c0-.199-.162-.361-.362-.361-.2,0-.361.162-.362.361v2.053h-1.904c-.2,0-.362.162-.362.362,0,.199.162.361.362.361h2.266c.199,0,.361-.161.362-.36Z" fill="#76bc2d" />
	<g>
		<path d="m13.864,8.047c0,3.822-4.627,6.907-5.632,7.544-.12.066-.265.066-.386,0-1.073-.687-5.716-3.772-5.716-7.544V3.386c0-.197.155-.36.352-.369,3.604-.101,2.783-1.676,5.482-1.676s1.861,1.576,5.465,1.676c.197.009.352.171.352.369l.084,4.66Z" fill="#0078d4" />
		<path d="m8.04,14.863c-4.683-3.064-5.194-5.781-5.194-6.816V3.719c1.873-.106,2.625-.637,3.236-1.068.489-.345.843-.594,1.881-.594s1.387.249,1.872.593c.607.431,1.355.962,3.235,1.069l.078,4.34c0,.817-.372,3.733-5.109,6.804Z" fill="url(#uuid-80fd62f5-d182-4403-8456-6923e7e033bb)" />
	</g>
	<g>
		<rect x="8.155" y="4.328" width="3.721" height=".691" rx=".141" ry=".141" fill="#fff" opacity=".7" />
		<rect x="8.155" y="5.742" width="3.721" height=".691" rx=".141" ry=".141" fill="#fff" opacity=".6" />
		<rect x="4.117" y="9.983" width="4.472" height=".691" rx=".141" ry=".141" fill="#fff" opacity=".3" />
		<rect x="4.117" y="8.57" width="7.76" height=".691" rx=".141" ry=".141" fill="#fff" opacity=".4" />
		<rect x="4.117" y="7.156" width="7.076" height=".691" rx=".14" ry=".14" fill="#fff" opacity=".5" />
		<g id="uuid-69ff294d-4d54-4881-9832-ea140e19e0d2">
			<path d="m4.235,4.328h3.282c.065,0,.118.046.118.102v1.901c0,.057-.053.102-.118.102h-3.282c-.065,0-.118-.046-.118-.102v-1.901c0-.057.053-.102.118-.102Z" fill="url(#uuid-f6289940-e1be-4e56-904f-ba5a1586dc17)" />
		</g>
	</g>
	<g>
		<circle cx="12.449" cy="13.203" r="3.442" fill="#76bc2d" />
		<g>
			<path d="m12.096,14.356l-.316.316c-.054.054-.141.054-.195,0h0l-1.256-1.256c-.054-.054-.054-.141,0-.195h0l.219-.219c.054-.054.141-.054.195,0h0l1.353,1.353h0Z" fill="#fff" />
			<path d="m11.591,14.676l-.316-.316h0l2.888-2.888c.054-.054.141-.054.195,0h0l.219.219c.054.054.054.141,0,.195h0l-2.791,2.791c-.054.054-.141.054-.195,0h0Z" fill="#f0f0f0" />
		</g>
	</g>
</svg>