<svg
	xmlns="http://www.w3.org/2000/svg" width="18" height="16.63">
	<defs>
		<linearGradient id="A" x1="9" y1="12" x2="9" y2="0" gradientUnits="userSpaceOnUse">
			<stop offset="0" stop-color="#0078d4"/>
			<stop offset=".817" stop-color="#5ea0ef"/>
		</linearGradient>
		<linearGradient id="B" x1="9.003" y1="16.635" x2="9.003" y2="12" gradientUnits="userSpaceOnUse">
			<stop offset=".149" stop-color="#ccc"/>
			<stop offset="1" stop-color="#707070"/>
		</linearGradient>
	</defs>
	<rect width="18" height="12" rx=".601" fill="url(#A)"/>
	<path d="M12.61 15.63c-1.78-.279-1.85-1.563-1.845-3.63h-3.53c0 2.067-.065 3.351-1.845 3.63a1.046 1.046 0 0 0-.887 1h9a1.052 1.052 0 0 0-.893-1z" fill="url(#B)"/>
	<path d="M5.354 10.26H1.782a.3.3 0 0 1-.3-.3V2.039a.3.3 0 0 1 .3-.3h3.572a.3.3 0 0 1 .3.3V9.96a.3.3 0 0 1-.3.3zm5.732-.3V2.039a.3.3 0 0 0-.3-.3H7.214a.3.3 0 0 0-.3.3V9.96a.3.3 0 0 0 .3.3h3.572a.3.3 0 0 0 .3-.3z" fill="#fff" opacity=".3"/>
	<rect x="12.346" y="1.739" width="4.173" height="8.521" rx=".3" fill="#faa21d"/>
	<path d="M14.8 7.255h-.73a.165.165 0 0 1-.171-.152l-.078-3.326a.163.163 0 0 1 .171-.159h.887a.164.164 0 0 1 .171.159l-.079 3.326a.165.165 0 0 1-.171.152zm-.365.411a.583.583 0 1 0 .583.583.583.583 0 0 0-.586-.579zM10.37 5.155a.094.094 0 0 0-.133 0l-1.7 1.7-.647-.646a.094.094 0 0 0-.133 0l-.15.15a.094.094 0 0 0 0 .133l.86.86h0a.1.1 0 0 0 .134 0l1.919-1.919a.094.094 0 0 0 0-.133zm-5.5 0a.094.094 0 0 0-.133 0l-1.7 1.7L2.4 6.2a.1.1 0 0 0-.134 0l-.15.15a.1.1 0 0 0 0 .133l.86.86h.005a.094.094 0 0 0 .133 0l1.908-1.91a.094.094 0 0 0 0-.133zm11.346 5.3h-3.57a.489.489 0 0 1-.488-.488V2.039a.489.489 0 0 1 .488-.488h3.572a.489.489 0 0 1 .488.488V9.96a.489.489 0 0 1-.488.488zm-3.57-8.529a.114.114 0 0 0-.113.113V9.96a.114.114 0 0 0 .113.113h3.572a.114.114 0 0 0 .113-.113V2.039a.114.114 0 0 0-.113-.113z" fill="#fff"/>
</svg>