<svg
	xmlns="http://www.w3.org/2000/svg" width="16.772" height="18.001">
	<defs>
		<linearGradient id="A" x1="7.207" y1="17.653" x2="7.207" gradientUnits="userSpaceOnUse" y2="0">
			<stop offset="0" stop-color="#0078d4"/>
			<stop offset=".817" stop-color="#5ea0ef"/>
		</linearGradient>
	</defs>
	<path d="M8.209.132H.696a.594.594 0 0 0-.593.594v16.2a.594.594 0 0 0 .593.594h13.021a.594.594 0 0 0 .593-.594V6.205a.594.594 0 0 0-.593-.594H9.395a.594.594 0 0 1-.593-.594V.726a.593.593 0 0 0-.593-.594z" fill="#83b9f9"/>
	<path d="M7.935.89v4.07a1.494 1.494 0 0 0 1.491 1.493h4.1v10.31H.885V.89h7.05M8.222 0H.6a.6.6 0 0 0-.6.6v16.45a.6.6 0 0 0 .6.6h13.213a.6.6 0 0 0 .6-.6V6.165a.6.6 0 0 0-.6-.6H9.426a.6.6 0 0 1-.6-.6V.6a.6.6 0 0 0-.6-.6z" fill="url(#A)"/>
	<path d="M14.185 5.683L8.617.132v4.523a1.022 1.022 0 0 0 1.015 1.028z" fill="#0078d4"/>
	<g fill="#fff">
		<rect x="2.071" y="8.329" width="9.713" height="1.36" rx=".567"/>
		<rect x="2.071" y="11.083" width="9.713" height="1.36" rx=".567" opacity=".8"/>
		<rect x="2.071" y="13.838" width="9.713" height="1.36" rx=".567" opacity=".6"/>
	</g>
	<g fill="#50e6ff">
		<path d="M12.095 17.787c-2.076 0-3.783-1.6-4.685-4.4a45.578 45.578 0 0 0-1.973-4.269l6.818.063c2.112 0 3.749 2.524 3.749 4.7a3.914 3.914 0 0 1-3.909 3.906z"/>
		<path d="M5.785 9.335l6.469.059c1.992 0 3.536 2.41 3.536 4.483a3.7 3.7 0 0 1-3.7 3.7c-1.977 0-3.611-1.55-4.483-4.253a41.272 41.272 0 0 0-1.822-3.989m-.7-.435l2.121 4.55C8.085 16.174 9.818 18 12.095 18a4.123 4.123 0 0 0 4.123-4.123c0-2.277-1.685-4.91-3.963-4.91-1.033 0-7.17-.067-7.17-.067z"/>
	</g>
	<circle cx="12.255" cy="13.484" r="4.516" fill="#fff"/>
	<path d="M12.255 9.446a4.038 4.038 0 1 1-4.037 4.038 4.042 4.042 0 0 1 4.037-4.038m0-.479a4.517 4.517 0 1 0 4.517 4.517 4.516 4.516 0 0 0-4.517-4.517zm-.546 3.933h-1.458v-1.46h1.458zm2.551-1.458h-1.458V12.9h1.458zM11.709 14h-1.458v1.458h1.458zm2.551 0h-1.458v1.458h1.458z" fill="#50e6ff"/>
</svg>