<svg width="17.74" height="17.75" viewBox="0.12 0.12 17.74 17.75" id="uuid-74cfe8aa-9053-427e-ac76-26dcf3a0b458" xmlns="http://www.w3.org/2000/svg"><defs><linearGradient id="uuid-d7c74b0a-29ac-498a-8d55-434cf9f620c4" x1="-616.51" y1="-206.38" x2="-599.99" y2="-222.89" gradientTransform="translate(617.13 -205.76) scale(1 -1)" gradientUnits="userSpaceOnUse"><stop offset="0" stop-color="#9189f7" /><stop offset="1" stop-color="#4135e9" /></linearGradient></defs><path d="M12.71.12h-7.42C2.44.12.12,2.44.12,5.29v7.42c0,2.85,2.31,5.16,5.16,5.16h7.42c2.85,0,5.16-2.31,5.16-5.16v-7.42C17.88,2.44,15.56.12,12.71.12Z" fill="url(#uuid-d7c74b0a-29ac-498a-8d55-434cf9f620c4)" /><path d="M13.84,6.52h-1.1c-.07,0-.13.01-.2.02-.13-.39-.38-1.17-.47-1.44-.16-.5-.52-1.32-1.12-1.36h0s-2.15-.01-2.15-.01c-.77,0-1.29.86-1.7,1.71-.51,1.06-2.93,7.49-3.02,7.74-.12.34-.11.61.03.8.14.19.38.29.72.29h3.58c1.66,0,2.4-1.33,2.4-2.65v-1.23c.05.17.09.27.1.33h0s0,0,0,.01c0,0,0,.02,0,.02,0,.01.02.01.02.03.08.15.2.25.34.25h1.21c.65,0,1.93-.56,1.93-1.85v-2.03c0-.37-.24-.62-.6-.62ZM10.27,11.62c0,.35-.09,2.1-1.85,2.1h-3.58c-.19,0-.26-.04-.27-.06,0,0-.04-.06.04-.3.09-.25,2.49-6.64,3-7.68.46-.95.84-1.39,1.2-1.39h1.69c-.12.44-.22,1.23-.22,2.64,0,.09,0,.16,0,.18v4.51h0ZM10.83,7.11c0-.17,0-.33,0-.49,0-.06,0-.11,0-.17,0-.11,0-.22.01-.32,0-.05,0-.09,0-.14,0-.12.01-.24.02-.35,0-.02,0-.04,0-.06.04-.52.09-.92.15-1.15,0-.03.01-.06.02-.08.13.12.33.44.5.94.08.25.33,1,.46,1.4-.06.03-.11.07-.16.11-.04.02-.08.05-.11.07-.07.05-.14.1-.2.16-.03.03-.05.06-.08.09-.09.1-.16.2-.23.31-.03.06-.07.12-.09.19-.02.05-.04.1-.05.15-.04.12-.06.24-.06.36v1c-.07-.24-.14-.47-.19-.64v-1.37ZM13.89,9.17c0,.99-1.07,1.3-1.37,1.3h-.94v-2.36c0-.12.03-.24.09-.35,0-.02.02-.03.03-.04.05-.1.12-.2.21-.28.01-.01.03-.03.05-.04.09-.08.19-.15.31-.2.02,0,.04-.02.06-.03.13-.05.28-.09.44-.09h1.1l.05.07v2.03h0Z" fill="#fff" /></svg>