<svg width="17.52" height="17.5" viewBox="0.24 0.25 17.52 17.5" id="uuid-403bd155-3674-4331-811e-bc99bc1585ab" xmlns="http://www.w3.org/2000/svg" xviewBox="0 0 18 18"><defs><linearGradient id="uuid-cd7de8e5-801b-4aa1-9771-54a87a7d28dc" x1=".31" y1="270.35" x2="9.77" y2="260.89" gradientTransform="translate(0 280) scale(1 -1)" gradientUnits="userSpaceOnUse"><stop offset="0" stop-color="#2c08ac" /><stop offset=".3" stop-color="#4f42fd" /><stop offset=".6" stop-color="#7274ff" /></linearGradient><linearGradient id="uuid-506ba656-423a-47b7-a786-b6c9f396ca47" x1="9.65" y1="262.31" x2="19.11" y2="271.77" gradientTransform="translate(0 280) scale(1 -1)" gradientUnits="userSpaceOnUse"><stop offset="0" stop-color="#2c08ac" /><stop offset=".3" stop-color="#4f42fd" /><stop offset=".6" stop-color="#7274ff" /></linearGradient><linearGradient id="uuid-ed60e327-6f41-4021-b31c-3d5d0d55f857" x1="8.23" y1="281.11" x2="17.69" y2="271.65" gradientTransform="translate(0 280) scale(1 -1)" gradientUnits="userSpaceOnUse"><stop offset=".4" stop-color="#7274ff" /><stop offset=".7" stop-color="#4f42fd" /><stop offset="1" stop-color="#2c08ac" /></linearGradient><linearGradient id="uuid-43bc94fd-fa91-4698-b187-dd282ff8c104" x1="-1.11" y1="270.24" x2="8.35" y2="279.69" gradientTransform="translate(0 280) scale(1 -1)" gradientUnits="userSpaceOnUse"><stop offset=".4" stop-color="#7274ff" /><stop offset=".7" stop-color="#4f42fd" /><stop offset="1" stop-color="#2c08ac" /></linearGradient><linearGradient id="uuid-efe6a2a0-32eb-42c0-b9e8-07a824b60b49" x1="5.61" y1="269.76" x2="12.89" y2="273.91" gradientTransform="translate(0 280) scale(1 -1)" gradientUnits="userSpaceOnUse"><stop offset="0" stop-color="#2c08ac" /><stop offset=".3" stop-color="#4f42fd" /><stop offset=".6" stop-color="#7274ff" /></linearGradient><linearGradient id="uuid-8e6e1201-c7c7-4e7e-8bc5-0a2546947f69" x1="5.31" y1="268.19" x2="12.59" y2="272.34" gradientTransform="translate(0 280) scale(1 -1)" gradientUnits="userSpaceOnUse"><stop offset=".4" stop-color="#7274ff" /><stop offset=".7" stop-color="#4f42fd" /><stop offset="1" stop-color="#2c08ac" /></linearGradient></defs><path d="M11.13,17.75h-4.26c-.73,0-1.45-.27-2.01-.83l-3.78-3.78c-.57-.57-.83-1.29-.83-2.02,0-.45.09-.89.26-1.3.16-.38.39-.74.68-1.04l.28-.28c-.28.28-.28.73,0,1l7.24,7.24c.32.32.7.57,1.11.74.41.17.86.26,1.31.26Z" fill="url(#uuid-cd7de8e5-801b-4aa1-9771-54a87a7d28dc)" /><path d="M17.75,11.12c0,.73-.27,1.46-.83,2.02l-3.78,3.78c-.53.53-1.26.83-2.01.83-.46,0-.9-.09-1.31-.26-.41-.17-.79-.42-1.11-.74l-.21-.21c.28.28.73.28,1,0l7.24-7.24c.64-.64,1.01-1.52,1.01-2.43v4.25Z" fill="url(#uuid-506ba656-423a-47b7-a786-b6c9f396ca47)" /><path d="M17.75,6.87c0,.91-.36,1.78-1.01,2.43l-.21.21c.28-.28.28-.73,0-1L9.3,1.26c-.32-.32-.7-.57-1.11-.74-.41-.17-.86-.26-1.31-.26h4.26c.75,0,1.48.3,2.01.83l3.78,3.77c.53.53.83,1.26.83,2.01Z" fill="url(#uuid-ed60e327-6f41-4021-b31c-3d5d0d55f857)" /><path d="M9.48,1.44c-.28-.25-.71-.24-.98.03L1.46,8.5l-.28.28c-.29.31-.52.66-.68,1.04-.17.41-.26.85-.26,1.3v-4.25c0-.75.3-1.48.83-2.01l3.78-3.78c.56-.56,1.28-.83,2.01-.83.46,0,.9.09,1.31.26.41.17.79.42,1.11.74l.18.18Z" fill="url(#uuid-43bc94fd-fa91-4698-b187-dd282ff8c104)" /><path d="M13.02,6.58v4.35c0-.45-.09-.9-.26-1.31s-.42-.79-.74-1.11l-2.51-2.51c-.28-.28-.73-.28-1.01,0l-2.51,2.51c-.28.28-.28.73,0,1-.32-.32-.57-.7-.74-1.11-.17-.41-.26-.86-.26-1.31v-.5c0-.38.15-.74.42-1.01l.17-.17c.27-.27.63-.42,1.01-.42h4.85c.26,0,.51.07.73.2.1.06.19.13.27.21l.17.17c.27.27.42.63.42,1.01Z" fill="url(#uuid-efe6a2a0-32eb-42c0-b9e8-07a824b60b49)" /><path d="M13.02,10.93v.5c0,.38-.15.74-.42,1.01l-.17.17c-.08.08-.18.15-.27.21-.02.01-.04.02-.06.03-.04.02-.08.04-.13.06-.17.07-.36.11-.54.11h-4.85c-.38,0-.74-.15-1.01-.42l-.17-.17c-.27-.27-.42-.63-.42-1.01v-4.35c0,.45.09.9.26,1.31.17.41.42.79.74,1.11l1.62,1.62.9.9c.28.28.73.28,1.01,0l2.51-2.51c.28-.28.28-.73,0-1,.32.32.57.7.74,1.11s.26.86.26,1.31Z" fill="url(#uuid-8e6e1201-c7c7-4e7e-8bc5-0a2546947f69)" /></svg>