<svg width="17.1" height="17.51" viewBox="0.45 0.25 17.1 17.51" id="uuid-453a1280-dbe0-438a-a377-ccc98f5c08c7" xmlns="http://www.w3.org/2000/svg"><defs><linearGradient id="uuid-ccd2318f-d847-485d-b027-4499c6f8434d" x1="14.65" y1="277.89" x2=".54" y2="277.89" gradientTransform="translate(0 280) scale(1 -1)" gradientUnits="userSpaceOnUse"><stop offset="0" stop-color="#2c08ac" /><stop offset=".8" stop-color="#4f42fd" /></linearGradient><linearGradient id="uuid-4513d86a-b972-4ac6-98cc-b9064f2f55d7" x1="10.92" y1="274.56" x2="20.76" y2="262.65" gradientTransform="translate(0 280) scale(1 -1)" gradientUnits="userSpaceOnUse"><stop offset=".3" stop-color="#7274ff" /><stop offset="1" stop-color="#4f42fd" /></linearGradient><linearGradient id="uuid-177afd2f-fa0c-4623-a15c-3a479d55ed99" x1="10.86" y1="273.77" x2=".46" y2="273.77" gradientTransform="translate(0 280) scale(1 -1)" gradientUnits="userSpaceOnUse"><stop offset="0" stop-color="#2c08ac" /><stop offset=".8" stop-color="#4f42fd" /></linearGradient><linearGradient id="uuid-56d4651e-2e74-406a-a358-164e5936b4f3" x1="8.44" y1="272.53" x2="15.44" y2="261.53" gradientTransform="translate(0 280) scale(1 -1)" gradientUnits="userSpaceOnUse"><stop offset=".3" stop-color="#7274ff" /><stop offset="1" stop-color="#4f42fd" /></linearGradient><linearGradient id="uuid-e0854ccf-59db-4968-a968-4c204d8ba6ef" x1="7.14" y1="270.05" x2=".46" y2="270.05" gradientTransform="translate(0 280) scale(1 -1)" gradientUnits="userSpaceOnUse"><stop offset="0" stop-color="#2c08ac" /><stop offset=".8" stop-color="#4f42fd" /></linearGradient><linearGradient id="uuid-425f7018-6f95-4125-88ae-af88d03b654a" x1="6.1" y1="270.09" x2="10.15" y2="261.04" gradientTransform="translate(0 280) scale(1 -1)" gradientUnits="userSpaceOnUse"><stop offset=".3" stop-color="#7274ff" /><stop offset="1" stop-color="#4f42fd" /></linearGradient></defs><path d="M11.5.25H.79c-.14,0-.25.11-.25.25v2.48c0,.14.11.25.25.25h13.13c.41,0,.74.33.74.74v-.31c0-1.76-1.31-3.41-3.15-3.41Z" fill="url(#uuid-ccd2318f-d847-485d-b027-4499c6f8434d)" /><path d="M13.52,1.53c.67.67,1.05,1.58,1.05,2.54v13.43c0,.14.11.25.25.25h2.48c.14,0,.25-.11.25-.25V6.79c0-.79-.31-1.54-.87-2.1l-3.15-3.15Z" fill="url(#uuid-4513d86a-b972-4ac6-98cc-b9064f2f55d7)" /><path d="M7.71,4.38H.7c-.14,0-.25.11-.25.25v2.48c0,.14.11.25.25.25h9.41c.41,0,.74.33.74.74v-.31c0-1.76-1.31-3.41-3.15-3.41Z" fill="url(#uuid-177afd2f-fa0c-4623-a15c-3a479d55ed99)" /><path d="M9.81,5.25c.67.67,1.05,1.58,1.05,2.54v9.72c0,.14.11.25.25.25h2.48c.14,0,.25-.11.25-.25v-7c0-.79-.31-1.54-.87-2.1l-3.15-3.15Z" fill="url(#uuid-56d4651e-2e74-406a-a358-164e5936b4f3)" /><path d="M3.99,8.09H.7c-.14,0-.25.11-.25.25v2.48c0,.14.11.25.25.25h5.7c.41,0,.74.33.74.74v-.31c0-1.76-1.31-3.41-3.15-3.41Z" fill="url(#uuid-e0854ccf-59db-4968-a968-4c204d8ba6ef)" /><path d="M6.09,8.96c.67.67,1.05,1.58,1.05,2.54v6c0,.14.11.25.25.25h2.48c.14,0,.25-.11.25-.25v-3.29c0-.79-.31-1.54-.87-2.1l-3.15-3.15Z" fill="url(#uuid-425f7018-6f95-4125-88ae-af88d03b654a)" /></svg>