<svg
	xmlns="http://www.w3.org/2000/svg" width="18" height="17.001">
	<defs>
		<linearGradient id="A" x1="8.355" y1="7.306" x2="15.035" y2="7.306" gradientUnits="userSpaceOnUse">
			<stop offset="0" stop-color="#ccc"/>
			<stop offset="1" stop-color="#f0f0f0"/>
		</linearGradient>
		<linearGradient id="B" x1="14.131" y1="9.263" x2="14.131" y2="17.001" gradientUnits="userSpaceOnUse">
			<stop offset="0" stop-color="#42e8ca"/>
			<stop offset="1" stop-color="#3cd4c2"/>
		</linearGradient>
	</defs>
	<path d="M9.7 13.132a4.419 4.419 0 0 1 7.006-3.591V2.467a.669.669 0 0 0-.7-.64H.7a.67.67 0 0 0-.7.64v11.514a.67.67 0 0 0 .7.64h9.267a4.4 4.4 0 0 1-.267-1.489z" fill="#5ea0ef"/>
	<path d="M9.7 13.132a4.419 4.419 0 0 1 7.006-3.591V2.467a.638.638 0 0 0-.636-.64H8.327v12.794h1.64a4.4 4.4 0 0 1-.267-1.489z" fill="#0078d4"/>
	<path d="M7.019 0h-5.01a.335.335 0 0 0-.334.336v12.748a.336.336 0 0 0 .334.336h5.01a1.219 1.219 0 0 1 1.336 1.192V1.343A1.339 1.339 0 0 0 7.019 0z" fill="#f2f2f2"/>
	<path d="M9.7 13.132A4.424 4.424 0 0 1 15.035 8.8V.335A.334.334 0 0 0 14.7 0H9.691a1.339 1.339 0 0 0-1.336 1.343v13.269a1.219 1.219 0 0 1 1.336-1.192h.028l-.019-.288z" fill="url(#A)"/>
	<circle cx="14.131" cy="13.132" r="3.869" fill="url(#B)"/>
	<path d="M6.991 3.247v.366a.148.148 0 0 1-.148.148H3.187a.147.147 0 0 1-.147-.148v-.366a.147.147 0 0 1 .147-.147h3.656a.148.148 0 0 1 .148.147zm-.148 1.838H3.187a.147.147 0 0 0-.147.148V5.6a.147.147 0 0 0 .147.148h3.656a.148.148 0 0 0 .148-.148v-.367a.148.148 0 0 0-.148-.148zm0-3.972H3.187a.147.147 0 0 0-.147.148v.366a.147.147 0 0 0 .147.148h3.656a.148.148 0 0 0 .148-.148v-.366a.148.148 0 0 0-.148-.148zm0 5.958H3.187a.148.148 0 0 0-.147.148v.366a.147.147 0 0 0 .147.148h3.656a.148.148 0 0 0 .148-.148v-.366a.148.148 0 0 0-.148-.148zm0 1.986H3.187a.148.148 0 0 0-.147.148v.366a.147.147 0 0 0 .147.148h3.656a.148.148 0 0 0 .148-.148v-.366a.148.148 0 0 0-.148-.148zm-1.975 1.986H3.187a.148.148 0 0 0-.147.149v.365a.147.147 0 0 0 .147.148h1.681a.147.147 0 0 0 .147-.148v-.365a.148.148 0 0 0-.147-.149z" fill="#b3b3b3"/>
	<path d="M16.752 13.2a3.353 3.353 0 0 1-.066.667 3.531 3.531 0 0 1-.192.636 3.069 3.069 0 0 1-.313.584 3.9 3.9 0 0 1-.319.406.149.149 0 0 1-.216 0l-.029-.029a.151.151 0 0 1 0-.209 3.02 3.02 0 0 0 .283-.355 2.967 2.967 0 0 0 .282-.527 3.036 3.036 0 0 0 .173-.571 3.138 3.138 0 0 0 0-1.2 2.972 2.972 0 0 0-.173-.569 3.066 3.066 0 0 0-.282-.526 2.9 2.9 0 0 0-.281-.362.151.151 0 0 1 0-.209l.03-.031a.15.15 0 0 1 .215 0 3.462 3.462 0 0 1 .319.407 3.285 3.285 0 0 1 .311.585 3.7 3.7 0 0 1 .194.635 3.112 3.112 0 0 1 .064.668zm-1.119-.911a2.416 2.416 0 0 0-.41-.66.148.148 0 0 0-.215 0l-.03.03a.148.148 0 0 0-.01.2 2.011 2.011 0 0 1 .352.563 2.032 2.032 0 0 1-.352 2.126.148.148 0 0 0 .01.2l.03.029a.148.148 0 0 0 .215 0 2.41 2.41 0 0 0 .41-.659 2.386 2.386 0 0 0 0-1.823zm-1.178.285a1.043 1.043 0 0 1 .136.236 1.036 1.036 0 0 1 0 .784 1.019 1.019 0 0 1-.135.233.148.148 0 0 0 .013.2l.029.028a.15.15 0 0 0 .223-.011 1.256 1.256 0 0 0 .186-.318 1.351 1.351 0 0 0 .1-.521 1.394 1.394 0 0 0-.1-.521 1.352 1.352 0 0 0-.184-.316.151.151 0 0 0-.224-.012l-.029.029a.147.147 0 0 0-.015.189zm-1.9-.394H12.2a.3.3 0 0 0-.3.3v1.443a.3.3 0 0 0 .3.3h.356a.3.3 0 0 1 .211.087l.892.89a.149.149 0 0 0 .105.044h0a.178.178 0 0 0 .178-.178v-3.727a.181.181 0 0 0-.18-.18h0a.15.15 0 0 0-.106.044l-.889.889a.3.3 0 0 1-.214.088z" fill="#fff"/>
</svg>