<svg
	xmlns="http://www.w3.org/2000/svg" width="18" height="18">
	<defs>
		<linearGradient id="A" x1="9" y1=".877" x2="9" y2="17.123" gradientUnits="userSpaceOnUse">
			<stop offset="0" stop-color="#5ea0ef"/>
			<stop offset="1" stop-color="#0078d4"/>
		</linearGradient>
	</defs>
	<rect width="18" height="18" rx="9" fill="#0078d4"/>
	<rect x=".877" y=".877" width="16.245" height="16.245" rx="8.122" fill="url(#A)"/>
	<path d="M6.412 14.327a2.036 2.036 0 0 1-1.236-.3 1.393 1.393 0 0 1-.357-1.1v-2.856c0-.467-.192-.714-.576-.714v-.714q.576 0 .576-.741V5.1a1.461 1.461 0 0 1 .357-1.126 1.859 1.859 0 0 1 1.236-.3v.714c-.412 0-.632.22-.632.686v2.745c0 .632-.192 1.016-.6 1.181a1.144 1.144 0 0 1 .6 1.181V12.9a.945.945 0 0 0 .138.549.6.6 0 0 0 .466.165l.028.714zm4.726-10.654a2.036 2.036 0 0 1 1.236.3 1.393 1.393 0 0 1 .357 1.1v2.856c0 .467.192.714.576.714v.714q-.576 0-.576.741v2.774A1.458 1.458 0 0 1 12.374 14a1.848 1.848 0 0 1-1.236.33v-.714c.412 0 .632-.22.632-.686v-2.749c0-.632.192-1.016.6-1.181a1.144 1.144 0 0 1-.6-1.181V5.1a.945.945 0 0 0-.138-.549.6.6 0 0 0-.466-.165z" fill="#fff"/>
</svg>