<svg
	xmlns="http://www.w3.org/2000/svg" width="18.001" height="14.645">
	<defs>
		<linearGradient id="A" x1="9.722" y1="5.955" x2="8.607" y2="-.369" gradientUnits="userSpaceOnUse">
			<stop offset="0" stop-color="#0078d4"/>
			<stop offset="1" stop-color="#005ba1"/>
		</linearGradient>
		<linearGradient id="B" x1="12.89" y1="11.459" x2="-.603" y2="3.669" gradientUnits="userSpaceOnUse">
			<stop offset=".301" stop-color="#0078d4"/>
			<stop offset="1" stop-color="#5ea0ef"/>
		</linearGradient>
		<linearGradient id="C" x1="14.286" y1="5.252" x2="14.286" y2="10.877" gradientUnits="userSpaceOnUse">
			<stop offset=".225" stop-color="#32bedd"/>
			<stop offset="1" stop-color="#198ab3"/>
		</linearGradient>
		<linearGradient id="D" x1="10.364" y1="3.99" x2="10.364" y2="11.143" gradientUnits="userSpaceOnUse">
			<stop offset=".225" stop-color="#50e6ff"/>
			<stop offset="1" stop-color="#32bedd"/>
		</linearGradient>
	</defs>
	<path d="M7.144 2.142a5.005 5.005 0 0 1 4.736 3.4l2.135-.347A7.142 7.142 0 0 0 4.426.537l.307 2.227a4.962 4.962 0 0 1 2.411-.622z" fill="url(#A)"/>
	<path d="M11.852 5.481a4.942 4.942 0 0 1 .286 1.656A5 5 0 1 1 3.19 4.081l.511-.672a.127.127 0 0 1 .126.012l.076.054 1.145.82a.13.13 0 0 0 .2-.127L4.687.757a.292.292 0 0 0-.335-.24l-3.407.564a.13.13 0 0 0-.054.234l1.145.82h0A7.139 7.139 0 1 0 13.884 4.79z" fill="url(#B)"/>
	<path d="M17.335 13.631a.661.661 0 0 0 .664-.659.546.546 0 0 0 0-.08c-.259-2.079-1.446-3.772-3.708-3.772-2.3 0-3.491 1.434-3.722 3.778a.665.665 0 0 0 .593.73h.067z" fill="#32bedd"/>
	<circle cx="14.286" cy="7.528" r="2.086" fill="url(#C)"/>
	<path d="M14.243 14.645a.841.841 0 0 0 .844-.838.855.855 0 0 0-.006-.1c-.331-2.644-1.839-4.8-4.717-4.8-2.928 0-4.438 1.823-4.732 4.8a.845.845 0 0 0 .754.928.794.794 0 0 0 .085 0z" fill="#50e6ff"/>
	<circle cx="10.364" cy="6.884" r="2.653" fill="url(#D)"/>
</svg>