<svg width="17.49" height="17.48" viewBox="0.26 0.24 17.49 17.48" id="uuid-f7d488ef-a1cb-49ee-b549-4fd26733b6f2" xmlns="http://www.w3.org/2000/svg"><defs><linearGradient id="uuid-9de3f102-0400-4c49-9aed-5eb98d11df04" x1="6.776" y1="17.763" x2="11.691" y2=".784" gradientUnits="userSpaceOnUse"><stop offset=".003" stop-color="#0078d4" /><stop offset="1" stop-color="#49c5b1" /></linearGradient><linearGradient id="uuid-92d221c6-b50f-4438-87bf-e6ddf659c578" x1="8.255" y1="11.469" x2=".622" y2="16.014" gradientUnits="userSpaceOnUse"><stop offset="0" stop-color="#49c5b1" /><stop offset=".198" stop-color="#43beb3" /><stop offset=".469" stop-color="#32adbb" /><stop offset=".781" stop-color="#1790c8" /><stop offset="1" stop-color="#0078d4" /></linearGradient><linearGradient id="uuid-5a699e1e-2af6-41e5-a977-2741c096e9dc" x1="17.917" y1="2.371" x2="10.078" y2="7.039" gradientUnits="userSpaceOnUse"><stop offset="0" stop-color="#0078d4" /><stop offset=".219" stop-color="#1790c8" /><stop offset=".531" stop-color="#32adbb" /><stop offset=".802" stop-color="#43beb3" /><stop offset="1" stop-color="#49c5b1" /></linearGradient></defs><path d="M3.145,10.961c-.302-1.108-.302-2.4,0-3.508h2.4c-.051.467-.077.953-.086,1.447.372-.219.835-.337,1.276-.261.015-.407.041-.807.086-1.187h2.998c.187-.602.613-1.072,1.151-1.315h-3.923c.167-.734.39-1.384.65-1.923,1.12-2.122,1.989-2.124,3.109,0,.242.503.45,1.104.613,1.776.435-.088.904-.018,1.299.187.015-.014.027-.026.042-.039h-.005c-.239-1.176-.612-2.206-1.078-3.009.914.393,1.715,1.006,2.354,1.769.304-.318.574-.624.858-.972C9.079-2.627-1.1,4.184,2.312,12.419c.686-.583,1.34-1.097,1.815-1.458h-.982ZM6.827,3.129c-.466.803-.839,1.833-1.078,3.009h-2.102c.687-1.349,1.812-2.42,3.18-3.009ZM16.059,5.709c-.607.666-1.214,1.279-1.691,1.745h.991c.302,1.108.302,2.4,0,3.508h-2.4c.038-.348.061-.706.076-1.07-.362.278-.82.448-1.294.425-.016.218-.033.435-.058.644h-3.124c-.032.477-.252.974-.579,1.315h3.476c-.167.734-.39,1.384-.65,1.923-1.12,2.122-1.989,2.124-3.109,0-.195-.405-.369-.871-.514-1.389-.408.157-.881.171-1.3.027.236.94.554,1.776.944,2.447-.984-.424-1.839-1.1-2.5-1.947-.342.257-.611.483-.978.839,5.805,7.144,16.56.054,12.71-8.469ZM11.677,15.285c.466-.803.839-1.833,1.078-3.009h2.102c-.687,1.349-1.812,2.42-3.18,3.009Z" fill="url(#uuid-9de3f102-0400-4c49-9aed-5eb98d11df04)" fill-rule="evenodd" /><path d="M5.056,10.191c-.105.276-.129.564-.086.837-1.086.868-4.299,2.997-4.704,5.014-.161,2.581,3.707,1.571,4.801.924-.267-.217-.519-.448-.756-.694-6.162,2.101-1.59-2.828,1.068-4.39.733.833,2.158.55,2.537-.518.709-1.965-2.083-3.109-2.859-1.173ZM7.069,11.017c-.306.791-1.466.315-1.168-.479.299-.799,1.48-.29,1.168.479Z" fill="url(#uuid-92d221c6-b50f-4438-87bf-e6ddf659c578)" /><path d="M15.952.255c-1.038.015-2.536.796-3.072,1.144.289.184.565.384.828.599.693-.36,2.75-1.428,3.15-.314-.141.969-.738,1.541-1.334,2.382-.827,1.045-1.442,1.652-2.75,2.864-2.009-1.515-3.731,1.943-1.376,2.77,1.114.345,2.22-.828,1.876-1.971,1.107-1.149,4.425-3.892,4.474-6.181-.085-.887-1.007-1.365-1.795-1.293ZM11.633,8.788c-.792-.225-.469-1.476.325-1.259.792.225.469,1.476-.325,1.259Z" fill="url(#uuid-5a699e1e-2af6-41e5-a977-2741c096e9dc)" /></svg>