<svg
	xmlns="http://www.w3.org/2000/svg" width="17.618" height="18">
	<defs>
		<linearGradient id="A" x1="11.937" y1="18.862" x2="11.937" y2="2.992" gradientUnits="userSpaceOnUse">
			<stop offset="0" stop-color="#32bedd"/>
			<stop offset="1" stop-color="#50e6ff"/>
		</linearGradient>
		<linearGradient id="B" x1="5.681" y1="-.862" x2="5.681" y2="15.008" gradientUnits="userSpaceOnUse">
			<stop offset="0" stop-color="#5ea0ef"/>
			<stop offset="1" stop-color="#0078d4"/>
		</linearGradient>
	</defs>
	<path d="M6.915 7.019h10.044a.659.659 0 0 1 .659.658v7.981a.66.66 0 0 1-.659.658h-4.11a.109.109 0 0 0-.067.023l-2.108 1.615a.219.219 0 0 1-.353-.174v-1.354a.11.11 0 0 0-.109-.11h-3.3a.659.659 0 0 1-.658-.658V7.677a.66.66 0 0 1 .661-.658z" fill="url(#A)"/>
	<path d="M11.361.659v7.98a.659.659 0 0 1-.658.658H7.409a.11.11 0 0 0-.109.11v1.355a.22.22 0 0 1-.353.174L4.836 9.32a.109.109 0 0 0-.067-.02H.659A.66.66 0 0 1 0 8.642V.659A.659.659 0 0 1 .659 0h10.044a.66.66 0 0 1 .658.659z" fill="url(#B)"/>
	<path d="M4.974 6.052a1.72 1.72 0 0 1-.065-.281 1.916 1.916 0 0 1-.031-.342 1.072 1.072 0 0 1 .106-.478 2 2 0 0 1 .264-.4 4.415 4.415 0 0 1 .341-.359l.342-.337a1.879 1.879 0 0 0 .264-.346.782.782 0 0 0 .106-.4.707.707 0 0 0-.078-.339.7.7 0 0 0-.214-.239.977.977 0 0 0-.311-.145 1.414 1.414 0 0 0-.374-.047 1.742 1.742 0 0 0-1.228.574v-1A2.868 2.868 0 0 1 5.562 1.5a2.331 2.331 0 0 1 .661.091 1.652 1.652 0 0 1 .545.268 1.266 1.266 0 0 1 .367.441 1.337 1.337 0 0 1 .134.613 1.479 1.479 0 0 1-.112.593 2.192 2.192 0 0 1-.283.477 2.665 2.665 0 0 1-.365.387l-.367.337a1.915 1.915 0 0 0-.283.35.748.748 0 0 0-.113.4 1.106 1.106 0 0 0 .048.337 2.109 2.109 0 0 0 .095.256zm.493 1.828a.637.637 0 0 1-.437-.169.526.526 0 0 1-.182-.406.517.517 0 0 1 .182-.405.632.632 0 0 1 .869 0 .516.516 0 0 1 .181.406.525.525 0 0 1-.181.406.632.632 0 0 1-.432.168z" fill="#fff"/>
</svg>