<svg id="uuid-c8428abc-3509-4c34-adee-7b57048cdd85"
	xmlns="http://www.w3.org/2000/svg" width="18" height="18" viewBox="0 0 18 18">
	<defs>
		<linearGradient id="uuid-69c76b18-c2ab-4009-a24c-7c4b7c6c436a" x1="9" y1="15.049" x2="9" y2="-2.891" gradientTransform="matrix(1, 0, 0, 1, 0, 0)" gradientUnits="userSpaceOnUse">
			<stop offset=".18" stop-color="#5ea0ef" />
			<stop offset="1" stop-color="#0078d4" />
		</linearGradient>
		<linearGradient id="uuid-a736986b-1abc-4814-a887-68495e3de9fa" x1="-197.682" y1="1125.664" x2="-197.682" y2="1134.411" gradientTransform="translate(242.021 1176.241) scale(1.156 -1.029)" gradientUnits="userSpaceOnUse">
			<stop offset="0" stop-color="#fea11b" />
			<stop offset=".284" stop-color="#fea51a" />
			<stop offset=".547" stop-color="#feb018" />
			<stop offset=".8" stop-color="#ffc314" />
			<stop offset="1" stop-color="#ffd70f" />
		</linearGradient>
	</defs>
	<g>
		<path d="M14.49,5.001C14.408,2.176,12.065-.055,9.24,.001c-2.241-.023-4.249,1.379-5,3.49C1.831,3.801,.02,5.842,0,8.271c.098,2.718,2.35,4.86,5.07,4.82h5.454l2.208-4.369,.007-.013,.007-.013c.153-.275,.443-.446,.757-.446h2.402c.453,0,.829,.354,.857,.806l.002,.027v.027c-.002,.184-.066,.366-.172,.502l-1.938,2.555h1.274c.145,0,.281,.039,.401,.104,1.002-.746,1.658-1.928,1.671-3.269-.036-2.011-1.52-3.702-3.51-4Z" fill="url(#uuid-69c76b18-c2ab-4009-a24c-7c4b7c6c436a)" />
		<path d="M12.33,4.271c-.875-1.452-2.762-1.92-4.214-1.044-.698,.421-1.201,1.103-1.396,1.894-.178,.771-.06,1.581,.33,2.27l-2.34,2.37c-.309,.308-.311,.808-.003,1.117l.003,.003c.148,.149,.35,.232,.56,.23,.21,.004,.413-.079,.56-.23l2.33-2.36c.253,.147,.526,.258,.81,.33,1.654,.397,3.317-.622,3.714-2.276,.188-.785,.061-1.612-.354-2.304Zm-.54,2.1c-.234,.965-1.097,1.646-2.09,1.65-.172,.001-.344-.022-.51-.07-.253-.057-.491-.166-.7-.32-.22-.15-.41-.34-.56-.56-.343-.507-.455-1.135-.31-1.73,.223-.97,1.085-1.657,2.08-1.66,.175,0,.349,.02,.52,.06,.554,.147,1.029,.506,1.32,1,.299,.488,.389,1.075,.25,1.63Z" fill="#f2f2f2" />
		<ellipse cx="9.69" cy="5.861" rx="2.15" ry="2.16" fill="#83b9f9" />
	</g>
	<path d="M13.101,14.007h-2.025c-.059,.002-.109-.043-.113-.102,0-.015,.003-.029,.01-.042l2.428-4.803c.021-.038,.062-.061,.105-.06h2.395c.059-.002,.109,.043,.113,.102,0,.02-.007,.04-.02,.056l-2.851,3.758h2.78c.059-.002,.109,.043,.113,.102,0,.026-.011,.051-.029,.069l-4.62,4.806c-.043,.026-.352,.282-.201-.107h0l1.915-3.779Z" fill="url(#uuid-a736986b-1abc-4814-a887-68495e3de9fa)" />
</svg>