<svg
	xmlns="http://www.w3.org/2000/svg" width="18" height="18">
	<defs>
		<linearGradient id="A" x1="5.681" y1="-.862" x2="5.681" y2="15.008" gradientUnits="userSpaceOnUse">
			<stop offset="0" stop-color="#5ea0ef"/>
			<stop offset="1" stop-color="#0078d4"/>
		</linearGradient>
	</defs>
	<path d="M7.3 7.019h10.041a.659.659 0 0 1 .659.658v7.981a.66.66 0 0 1-.659.658h-4.11a.109.109 0 0 0-.067.023l-2.108 1.615a.219.219 0 0 1-.353-.174v-1.354a.11.11 0 0 0-.109-.11H7.3a.659.659 0 0 1-.658-.658V7.677a.66.66 0 0 1 .658-.658z" fill="#50e6ff"/>
	<path d="M11.361.659v7.98a.659.659 0 0 1-.661.661H7.4a.11.11 0 0 0-.109.11v1.355a.22.22 0 0 1-.353.174L4.836 9.32a.109.109 0 0 0-.067-.02H.659A.66.66 0 0 1 0 8.639V.659A.659.659 0 0 1 .659 0H10.7a.66.66 0 0 1 .661.659z" fill="url(#A)"/>
	<path d="M8.1 4.26a3.48 3.48 0 0 1-.07.7 3.688 3.688 0 0 1-.2.667 3.249 3.249 0 0 1-.329.615 4.03 4.03 0 0 1-.336.426.156.156 0 0 1-.226 0l-.031-.03a.159.159 0 0 1 0-.22 3.261 3.261 0 0 0 .3-.378 3.164 3.164 0 0 0 .477-1.153 3.242 3.242 0 0 0 0-1.262 3.13 3.13 0 0 0-.181-.6 3.311 3.311 0 0 0-.3-.553 3.107 3.107 0 0 0-.3-.38.16.16 0 0 1 0-.22l.032-.031a.156.156 0 0 1 .225 0 3.555 3.555 0 0 1 .336.428 3.453 3.453 0 0 1 .326.615 3.76 3.76 0 0 1 .2.667 3.3 3.3 0 0 1 .077.709zM6.924 3.3a2.516 2.516 0 0 0-.431-.693.155.155 0 0 0-.226 0l-.031.031a.154.154 0 0 0-.01.211 2.142 2.142 0 0 1 0 2.825.155.155 0 0 0 .01.212l.031.031a.155.155 0 0 0 .226 0 2.546 2.546 0 0 0 .431-.693 2.51 2.51 0 0 0 0-1.916zm-1.238.3a1.134 1.134 0 0 1 .143.248 1.088 1.088 0 0 1 0 .824 1.011 1.011 0 0 1-.142.245.156.156 0 0 0 .014.205l.03.03a.159.159 0 0 0 .235-.012 1.421 1.421 0 0 0 .2-.334 1.444 1.444 0 0 0 .106-.547 1.486 1.486 0 0 0-.109-.547 1.359 1.359 0 0 0-.193-.332.158.158 0 0 0-.236-.013L5.7 3.4a.153.153 0 0 0-.014.2zm-2-.413h-.372A.314.314 0 0 0 3 3.5v1.518a.315.315 0 0 0 .314.314h.374a.314.314 0 0 1 .222.092l.937.935a.161.161 0 0 0 .111.046h0a.187.187 0 0 0 .187-.187V2.3a.189.189 0 0 0-.189-.189h0a.162.162 0 0 0-.112.046L3.91 3.1a.315.315 0 0 1-.222.088zm11.525 7.745a.831.831 0 1 1-.83.83.83.83 0 0 1 .83-.83zm-3.48.837a.831.831 0 1 0 .831-.83.831.831 0 0 0-.831.83zm-2.649 0a.831.831 0 1 0 .831-.83.831.831 0 0 0-.831.83z" fill="#fff"/>
</svg>