<?xml version="1.0" encoding="UTF-8" standalone="no"?>
<svg
   width="95.330734"
   height="95.418922"
   viewBox="0 0 95.330734 95.418922"
   fill="none"
   version="1.1"
   id="svg69"
   xmlns="http://www.w3.org/2000/svg"
   xmlns:svg="http://www.w3.org/2000/svg">
  <defs
     id="defs42">
    <filter
       id="filter0_f"
       x="-0.010695289"
       y="-0.014530182"
       width="1.0213906"
       height="1.0290604">
      <feFlood
         flood-opacity="0"
         result="BackgroundImageFix"
         id="feFlood2" />
      <feBlend
         mode="normal"
         in="SourceGraphic"
         in2="BackgroundImageFix"
         result="shape"
         id="feBlend4" />
      <feGaussianBlur
         stdDeviation="0.4"
         result="effect1_foregroundBlur"
         id="feGaussianBlur6" />
    </filter>
    <filter
       id="filter1_f"
       x="-0.10695288"
       y="-0.14530192"
       width="1.2139058"
       height="1.2906038">
      <feFlood
         flood-opacity="0"
         result="BackgroundImageFix"
         id="feFlood9" />
      <feBlend
         mode="normal"
         in="SourceGraphic"
         in2="BackgroundImageFix"
         result="shape"
         id="feBlend11" />
      <feGaussianBlur
         stdDeviation="4"
         result="effect1_foregroundBlur"
         id="feGaussianBlur13" />
    </filter>
    <linearGradient
       id="paint0_linear"
       x1="17.3997"
       y1="2.1008301"
       x2="43.079899"
       y2="94.014297"
       gradientUnits="userSpaceOnUse">
      <stop
         stop-color="#A391E8"
         id="stop16" />
      <stop
         offset="1"
         stop-color="#685CD0"
         id="stop18" />
    </linearGradient>
    <linearGradient
       id="paint1_linear"
       x1="94"
       y1="86.000504"
       x2="76.5"
       y2="35.500599"
       gradientUnits="userSpaceOnUse">
      <stop
         stop-color="#38389F"
         id="stop21" />
      <stop
         offset="1"
         stop-color="#4B44C0"
         id="stop23" />
    </linearGradient>
    <linearGradient
       id="paint2_linear"
       x1="35.210201"
       y1="-12.4822"
       x2="60.075901"
       y2="60.295502"
       gradientUnits="userSpaceOnUse">
      <stop
         stop-color="#DBCEF8"
         id="stop26" />
      <stop
         offset="1"
         stop-color="#C0AFF1"
         id="stop28" />
    </linearGradient>
    <linearGradient
       id="paint3_linear"
       x1="21.991199"
       y1="-3.25494"
       x2="48.765999"
       y2="92.369102"
       gradientUnits="userSpaceOnUse">
      <stop
         stop-color="#C0AFF1"
         id="stop31" />
      <stop
         offset="1"
         stop-color="#8675DD"
         id="stop33" />
    </linearGradient>
    <clipPath
       id="clip0">
      <rect
         width="96"
         height="96"
         fill="#ffffff"
         id="rect36"
         x="0"
         y="0" />
    </clipPath>
    <clipPath
       id="clip1">
      <rect
         width="96"
         height="96"
         fill="#ffffff"
         id="rect39"
         x="0"
         y="0" />
    </clipPath>
  </defs>
  <g
     clip-path="url(#clip0)"
     id="g67"
     transform="translate(-0.3352875,-0.29095514)">
    <g
       clip-path="url(#clip1)"
       id="g65">
      <mask
         id="mask0"
         maskUnits="userSpaceOnUse"
         x="0"
         y="0"
         width="96"
         height="96">
        <path
           d="m 51.0015,1.29095 c -1.7778,-1.3333287 -4.2223,-1.3333276 -6,1e-5 L 2.33529,33.2906 c -2.66667,2 -2.66667,6 0,8 l 21.18551,15.8891 -8.9472,6.7105 c -2.6667,2 -2.6667,6 0,8 l 30.4263,22.8197 c 1.7777,1.3333 4.2222,1.3333 6,0 L 93.666,62.7103 c 2.6667,-2 2.6667,-6 0,-8 L 72.4805,38.8211 81.4278,32.1107 c 2.6666,-2 2.6666,-6 0,-8 z"
           fill="#ffffff"
           id="path44" />
      </mask>
      <g
         mask="url(#mask0)"
         id="g63">
        <path
           d="M 9.24023,67.8902 60.2397,29.6406 98.9994,58.7103 47.9999,96.9599 Z"
           fill="url(#paint0_linear)"
           id="path47"
           style="fill:url(#paint0_linear)" />
        <path
           d="M 23.5195,57.1803 60.2392,29.6406 98.9988,58.7103 65.2792,84 c -1.7778,1.3333 -4.2223,1.3334 -6,0 z"
           fill="url(#paint1_linear)"
           id="path49"
           style="fill:url(#paint1_linear)" />
        <g
           filter="url(#filter0_f)"
           id="g53">
          <path
             d="M -2.99805,37.6906 48.0015,-0.559021 86.7611,28.5107 38.7616,64.5103 c -1.7778,1.3334 -4.2222,1.3334 -6,0 z"
             fill="#000000"
             fill-opacity="0.24"
             id="path51" />
        </g>
        <g
           filter="url(#filter1_f)"
           id="g57">
          <path
             d="M -2.99805,39.2906 48.0015,1.04095 86.7611,30.1107 38.7616,66.1103 c -1.7778,1.3333 -4.2222,1.3333 -6,0 z"
             fill="#000000"
             fill-opacity="0.32"
             id="path55" />
        </g>
        <path
           d="M -2.99805,37.2906 48.0015,-0.959045 86.7611,28.1107 38.7616,64.1103 c -1.7778,1.3333 -4.2222,1.3333 -6,0 z"
           fill="url(#paint2_linear)"
           id="path59"
           style="fill:url(#paint2_linear)" />
        <path
           d="M -2.99805,37.2897 30.7216,11.9999 c 1.7778,-1.3333 4.2222,-1.3333 6,0 L 72.4812,38.8197 38.7616,64.1094 c -1.7778,1.3333 -4.2222,1.3333 -6,0 z"
           fill="url(#paint3_linear)"
           id="path61"
           style="fill:url(#paint3_linear)" />
      </g>
    </g>
  </g>
</svg>
