<?xml version="1.0" encoding="utf-8"?>
<svg version="1.1" id="Layer_1" xmlns="http://www.w3.org/2000/svg" xmlns:xlink="http://www.w3.org/1999/xlink" x="0px" y="0px"
	 viewBox="0 0 75.713 61.359" style="enable-background:new 0 0 75.713 61.359;" xml:space="preserve">
<style type="text/css">
	.st0{fill:none;stroke:#626366;stroke-width:3;stroke-linecap:round;stroke-linejoin:round;}
	.st1{fill:#231F20;}
	.st2{fill:none;stroke:#DFE0DF;stroke-width:0.525;stroke-linecap:round;stroke-linejoin:round;}
	.st3{fill:#B3B5B7;}
	.st4{fill:#FEFEFE;}
	.st5{fill:#898B8E;}
</style>
<title>icon-media-converter-poe</title>
<desc>Created with Sketch.</desc>
<g id="Page-1">
	<g id="Desktop" transform="translate(-1520.000000, -726.000000)">
		<g id="icon-media-converter-poe" transform="translate(1521.000000, 727.000000)">
			<g id="Group-7" transform="translate(0.000000, 0.359400)">
				<polygon id="Stroke-1" class="st0" points="39.02,41.586 73.208,23.439 73.213,40.354 39.024,58.5 				"/>
				<polygon id="Stroke-3" class="st0" points="39.02,41.586 39.024,58.5 0.5,35.399 0.5,18.528 				"/>
				<polygon id="Stroke-5" class="st0" points="0.5,18.529 34.581,0.141 73.208,23.439 39.021,41.587 				"/>
			</g>
			<polygon id="Fill-8" class="st1" points="0.821,18.64 34.901,0.252 73.528,23.551 39.341,41.698 			"/>
			<polyline id="Stroke-9" class="st2" points="0.698,18.879 39.02,41.713 39.02,58.648 			"/>
			<polygon id="Fill-10" class="st3" points="39.02,41.946 39.024,58.861 0.5,35.759 0.5,18.888 			"/>
			<polygon id="Fill-11" class="st4" points="23.914,47.768 17.358,43.821 17.372,37.253 23.893,41.186 			"/>
			<polygon id="Fill-12" class="st4" points="34.741,54.23 28.182,50.284 28.196,43.716 34.718,47.649 			"/>
			<polygon id="Fill-13" class="st5" points="39.02,41.946 73.208,23.8 73.213,40.715 39.024,58.861 			"/>
			<polygon id="Fill-14" class="st4" points="34.15,3.357 32.946,17.316 40.145,13.219 38.52,23.449 43.51,20.607 40.633,38.733 
				39.704,25.653 33.435,29.22 34.796,20.648 27.642,24.72 33.936,3.054 			"/>
		</g>
	</g>
</g>
</svg>
