<?xml version="1.0" encoding="utf-8"?>
<svg version="1.1" id="Layer_1" xmlns="http://www.w3.org/2000/svg" xmlns:xlink="http://www.w3.org/1999/xlink" x="0px" y="0px"
	 viewBox="0 0 75.713 61.36" style="enable-background:new 0 0 75.713 61.36;" xml:space="preserve">
<style type="text/css">
	.st0{fill:none;stroke:#626366;stroke-width:3;stroke-linecap:round;stroke-linejoin:round;}
	.st1{fill:#BBBDBF;}
	.st2{fill:none;stroke:#DFE0DF;stroke-width:0.525;stroke-linecap:round;stroke-linejoin:round;}
	.st3{fill:#B3B5B7;}
	.st4{fill:#FEFEFE;}
	.st5{fill:#898B8E;}
</style>
<polygon id="Stroke-1" class="st0" points="40.025,42.946 74.213,24.799 74.213,41.714 40.025,59.86 "/>
<polygon id="Stroke-3" class="st0" points="40.02,42.946 40.025,59.86 1.5,36.759 1.5,19.888 "/>
<polygon id="Stroke-5" class="st0" points="1.5,19.888 35.581,1.5 74.208,24.798 40.021,42.946 "/>
<polygon id="Fill-8" class="st1" points="1.5,19.888 35.581,1.5 74.208,24.799 40.021,42.946 "/>
<polyline id="Stroke-9" class="st2" points="1.699,19.879 40.02,42.713 40.02,59.648 "/>
<polygon id="Fill-10" class="st3" points="40.02,42.946 40.025,59.861 1.5,36.759 1.5,19.888 "/>
<polygon id="Fill-11" class="st4" points="24.916,48.768 18.358,44.821 18.372,38.253 24.893,42.186 "/>
<polygon id="Fill-12" class="st4" points="35.741,55.23 29.183,51.284 29.197,44.716 35.719,48.649 "/>
<polygon id="Fill-13" class="st5" points="40.02,42.946 74.208,24.8 74.213,41.715 40.025,59.861 "/>
</svg>
