<?xml version="1.0" encoding="utf-8"?>
<svg version="1.1" id="Layer_1" xmlns="http://www.w3.org/2000/svg" xmlns:xlink="http://www.w3.org/1999/xlink" x="0px" y="0px"
	 viewBox="0 0 117.96 90.752" style="enable-background:new 0 0 117.96 90.752;" xml:space="preserve">
<style type="text/css">
	.st0{fill:none;stroke:#626366;stroke-width:2.717;stroke-linecap:round;stroke-linejoin:round;}
	.st1{fill:#898B8E;}
	.st2{fill:#BBBDBF;}
	.st3{fill:#B3B5B7;}
	.st4{fill:none;stroke:#DFE0DF;stroke-width:0.679;stroke-linecap:round;stroke-linejoin:round;}
	.st5{fill:#FEFEFE;}
</style>
<title>icon-media-converter-MCR12</title>
<desc>Created with Sketch.</desc>
<g id="Page-1">
	<g id="Desktop" transform="translate(-1204.000000, -676.000000)">
		<g id="icon-media-converter-MCR12" transform="translate(1205.000000, 676.000000)">
			<g id="Group-7" transform="translate(0.000000, 0.752600)">
				<polygon id="Stroke-1" class="st0" points="0.359,24.092 44.597,0.606 115.592,43.272 71.354,66.753 				"/>
				<polygon id="Stroke-3" class="st0" points="71.355,66.753 71.364,88.641 0.366,45.98 0.359,24.092 				"/>
				<polygon id="Stroke-5" class="st0" points="71.355,66.753 115.593,43.272 115.602,65.158 71.364,88.641 				"/>
			</g>
			<polygon id="Fill-8" class="st1" points="71.355,67.506 115.593,44.025 115.602,65.911 71.364,89.394 			"/>
			<polygon id="Fill-9" class="st2" points="0.359,24.844 44.597,1.363 115.592,44.025 71.354,67.506 			"/>
			<polygon id="Fill-10" class="st3" points="71.355,67.506 71.364,89.394 0.366,46.733 0.359,24.845 			"/>
			<polyline id="Stroke-11" class="st4" points="0.714,24.758 71.355,67.204 71.355,89.117 			"/>
			<polygon id="Fill-12" class="st5" points="41.022,69.075 37.289,66.901 37.289,49.455 41.022,51.653 			"/>
			<polygon id="Fill-13" class="st5" points="49.259,74.213 45.527,72.039 45.527,54.593 49.259,56.791 			"/>
			<polygon id="Fill-14" class="st5" points="57.554,78.956 53.821,76.782 53.821,59.336 57.554,61.534 			"/>
			<polygon id="Fill-15" class="st5" points="66.175,84.345 62.442,82.171 62.442,64.725 66.175,66.924 			"/>
			<polygon id="Fill-16" class="st5" points="8.805,49.968 5.072,47.795 5.072,30.348 8.805,32.546 			"/>
			<polygon id="Fill-17" class="st5" points="16.602,54.647 12.869,52.474 12.869,35.028 16.602,37.225 			"/>
			<polygon id="Fill-18" class="st5" points="24.632,59.26 20.899,57.086 20.899,39.641 24.632,41.838 			"/>
			<polygon id="Fill-19" class="st5" points="32.781,64.174 29.048,62.001 29.048,44.555 32.781,46.752 			"/>
		</g>
	</g>
</g>
</svg>
