<svg
	xmlns="http://www.w3.org/2000/svg" width="18" height="12.729">
	<defs>
		<linearGradient id="A" x1="9" y1="-1.907" x2="9" y2="14.755" gradientUnits="userSpaceOnUse">
			<stop offset="0" stop-color="#6cc6b9"/>
			<stop offset=".46" stop-color="#6ac4b7"/>
			<stop offset=".64" stop-color="#62bdb0"/>
			<stop offset=".77" stop-color="#56b1a4"/>
			<stop offset="1" stop-color="#258277"/>
		</linearGradient>
	</defs>
	<path d="M.549 0h16.912A.518.518 0 0 1 18 .489v11.75a.518.518 0 0 1-.539.489H.549A.528.528 0 0 1 0 12.239V.509A.529.529 0 0 1 .548 0z" fill="url(#A)"/>
	<g fill="#fff">
		<rect x="12.459" y="1.57" width="1.532" height="9.349" rx=".147" opacity=".9"/>
		<rect x="1.628" y="8.993" width="8.572" height="1.937" rx=".159" opacity=".6"/>
		<rect x="14.808" y="5.395" width="1.532" height="5.524" rx=".113" opacity=".9"/>
		<path d="M4.734 3.631L2.412 6.642l.544.427 1.842-2.376 2.338 2.386L9.72 2.483l-.603-.347-2.13 3.79z"/>
		<ellipse cx="4.761" cy="4.159" rx=".876" ry=".881"/>
		<ellipse cx="7.136" cy="6.343" rx=".876" ry=".881"/>
		<ellipse cx="9.341" cy="2.419" rx=".876" ry=".881"/>
		<ellipse cx="2.775" cy="6.727" rx=".876" ry=".881"/>
	</g>
</svg>