<svg id="uuid-431a759c-a29d-4678-89ee-5b1b2666f890"
	xmlns="http://www.w3.org/2000/svg" width="18" height="18" viewBox="0 0 18 18">
	<defs>
		<linearGradient id="uuid-10478e68-1009-47b7-9e5e-1dad26a11858" x1="9" y1="18" x2="9" y2="0" gradientUnits="userSpaceOnUse">
			<stop offset="0" stop-color="#198ab3" />
			<stop offset="1" stop-color="#32bedd" />
		</linearGradient>
		<linearGradient id="uuid-7623d8a9-ce5d-405d-98e0-ff8e832bdf61" x1="7.203" y1="11.089" x2="7.203" y2="3.888" gradientUnits="userSpaceOnUse">
			<stop offset="0" stop-color="#6f4bb2" />
			<stop offset="1" stop-color="#c69aeb" />
		</linearGradient>
	</defs>
	<path d="m11.844,12.791c-.316-.081-.641-.073-.947.015l-1.295-2.124c-.04-.065-.124-.087-.19-.049l-.536.309c-.068.039-.091.128-.05.195l1.296,2.127c-.667.668-.737,1.797.01,2.551.12.121.259.223.41.302.276.143.568.213.857.213.463,0,.916-.18,1.273-.527.125-.121.23-.263.31-.417.302-.579.28-1.233-.037-1.769-.245-.413-.636-.707-1.102-.826Zm.424,1.965c-.06.232-.207.428-.414.55-.207.122-.449.156-.682.097-.278-.071-.503-.267-.614-.541-.141-.349-.041-.762.245-1.007.171-.147.379-.222.592-.222.075,0,.151.009.225.029.233.06.428.206.551.413h0c.122.207.157.448.097.681Zm3.555-9.443c-1.012,0-1.863.695-2.106,1.631h-2.54c-.078,0-.141.063-.141.141v.806c0,.078.063.141.141.141h2.54c.243.937,1.093,1.631,2.106,1.631,1.201,0,2.177-.976,2.177-2.175s-.977-2.175-2.177-2.175Zm1.068,2.388c-.082.428-.427.772-.854.854-.766.146-1.428-.515-1.282-1.28.082-.428.426-.772.854-.854.766-.147,1.429.515,1.283,1.28ZM2.978,2.953c.121.03.244.045.366.045.144,0,.286-.022.423-.063l.884,1.447c.04.065.124.087.19.049l.406-.234c.068-.039.091-.128.05-.195l-.887-1.453c.468-.475.577-1.224.218-1.821-.206-.343-.534-.585-.923-.682-.445-.111-.909-.016-1.28.267-.547.417-.737,1.18-.45,1.805.195.424.559.725,1.004.835Zm-.083-2.056c.133-.097.288-.148.445-.148.061,0,.122.008.183.023.232.058.42.219.514.446.13.315.02.691-.258.889-.182.13-.405.172-.619.118-.232-.058-.42-.219-.514-.446-.129-.312-.023-.683.249-.883Zm2.717,10.093l-.828-.477c-.067-.039-.154-.016-.192.052l-1.473,2.577c-1.227-.327-2.587.325-3.009,1.668-.091.289-.125.595-.1.897.071.849.537,1.569,1.253,1.973.377.212.793.321,1.214.321.374,0,.752-.086,1.109-.259.289-.14.549-.34.758-.583.56-.652.743-1.497.522-2.293-.12-.432-.352-.813-.668-1.116l1.468-2.567c.038-.067.015-.153-.052-.192Zm-2.055,5.145l-.213.234c-.161.177-.367.315-.601.366-.298.065-.605.02-.873-.131-.288-.162-.495-.427-.584-.745-.089-.318-.048-.652.115-.939.227-.402.648-.628,1.08-.628.206,0,.415.051.606.16.288.162.495.427.584.745.089.318.048.652-.115.939Z" fill="url(#uuid-10478e68-1009-47b7-9e5e-1dad26a11858)" />
	<path d="m9.921,5.287l-2.172-1.253c-.339-.195-.757-.195-1.096,0l-2.172,1.253c-.339.196-.548.557-.548.948v2.505c0,.391.209.753.548.949l2.174,1.253c.339.195.757.195,1.096,0l2.174-1.253c.339-.196.548-.557.548-.949v-2.505c-.001-.392-.212-.754-.552-.948Z" fill="url(#uuid-7623d8a9-ce5d-405d-98e0-ff8e832bdf61)" />
</svg>