<svg width="36" height="36" viewBox="0 0 36 36" fill="none"
	xmlns="http://www.w3.org/2000/svg">
	<g clip-path="url(#clip0_9175_348498)">
		<path d="M6.13595 16.304C6.13595 22.338 11.044 27.248 17.08 27.248C22.032 27.248 26.06 23.22 26.06 18.268C26.06 17.9 26.342 17.592 26.708 17.558C27.074 17.524 27.406 17.778 27.474 18.14C27.566 18.644 27.614 19.164 27.614 19.696C27.614 25.842 22.614 30.844 16.466 30.844C8.62795 30.844 2.24995 24.466 2.24995 16.628C2.24995 16.006 1.74595 15.504 1.12595 15.504C0.505954 15.504 0.00195373 16.006 0.00195373 16.628C-4.6381e-05 25.706 7.38795 33.094 16.466 33.094C23.854 33.094 29.864 27.084 29.864 19.696C29.864 13.66 24.956 8.752 18.92 8.752C13.968 8.752 9.93995 12.78 9.93995 17.732C9.93995 18.1 9.65795 18.408 9.29195 18.442C8.92595 18.476 8.59395 18.222 8.52595 17.86C8.43395 17.356 8.38595 16.836 8.38595 16.304C8.38595 10.158 13.386 5.158 19.534 5.158C27.372 5.158 33.75 11.534 33.75 19.374C33.75 19.996 34.254 20.498 34.874 20.498C35.494 20.498 35.998 19.994 35.998 19.374C35.998 10.296 28.61 2.908 19.532 2.908C12.144 2.908 6.13395 8.918 6.13395 16.304L6.13595 16.304Z" fill="url(#paint0_linear_9175_348498)" />
		<path d="M30 31.5L30 34.5C30 35.3284 30.6716 36 31.5 36L34.5 36C35.3284 36 36 35.3284 36 34.5L36 31.5C36 30.6716 35.3284 30 34.5 30L31.5 30C30.6716 30 30 30.6716 30 31.5Z" fill="#32BEDD" />
		<path d="M2 5L2 7C2 7.55228 2.44772 8 3 8L5 8C5.55228 8 6 7.55228 6 7L6 5C6 4.44772 5.55228 4 5 4L3 4C2.44772 4 2 4.44772 2 5Z" fill="#32BEDD" />
		<path d="M32 1L32 3C32 3.55228 32.4477 4 33 4L35 4C35.5523 4 36 3.55228 36 3L36 1C36 0.447715 35.5523 4.23606e-08 35 3.57746e-08L33 1.19249e-08C32.4477 5.33895e-09 32 0.447715 32 1Z" fill="#32BEDD" />
		<path d="M14 21L14 23C14 23.5523 14.4477 24 15 24L17 24C17.5523 24 18 23.5523 18 23L18 21C18 20.4477 17.5523 20 17 20L15 20C14.4477 20 14 20.4477 14 21Z" fill="#50E6FF" />
		<path d="M18 13L18 15C18 15.5523 18.4477 16 19 16L21 16C21.5523 16 22 15.5523 22 15L22 13C22 12.4477 21.5523 12 21 12L19 12C18.4477 12 18 12.4477 18 13Z" fill="#50E6FF" />
	</g>
	<defs>
		<linearGradient id="paint0_linear_9175_348498" x1="18" y1="2" x2="18" y2="38" gradientUnits="userSpaceOnUse">
			<stop stop-color="#5EA0EF" />
			<stop offset="1" stop-color="#0078D4" />
		</linearGradient>
		<clipPath id="clip0_9175_348498">
			<rect width="36" height="36" fill="white" transform="translate(0 36) rotate(-90)" />
		</clipPath>
	</defs>
</svg>