<svg
	xmlns="http://www.w3.org/2000/svg" width="16.968" height="17.028">
	<defs>
		<radialGradient id="A" cx="9" cy="9" r="8.5" gradientUnits="userSpaceOnUse" gradientTransform="translate(-0.49691233,-0.53159893)">
			<stop offset=".18" stop-color="#5ea0ef"/>
			<stop offset="1" stop-color="#0078d4"/>
		</radialGradient>
	</defs>
	<path d="M13.713 15.188a8.503 8.503 0 0 1-10.42-13.44l.09-.06a8.5 8.5 0 0 1 10.33 13.5" fill="url(#A)"/>
	<path d="M3.633 6.518a.28.28 0 0 0 .2.48h6.12a1.55 1.55 0 0 1 1.15.47 1.61 1.61 0 0 1 .43.92 1.43 1.43 0 0 1-.36 1.15 1.41 1.41 0 0 1-1.12.54h-2.11a.08.08 0 0 0-.09.06l-.54 1.33-.37.89a.08.08 0 0 0 0 .09l1.56 1.5 2.59 2.59.46.49 2.14-1.19-.47-.37-1.43-1.44-1.55-1.56h-.07 0l.52-.07a3.84 3.84 0 0 0 2.81-2.28 3.85 3.85 0 0 0 0-3.08 3.93 3.93 0 0 0-.73-1.12 3.67 3.67 0 0 0-1.24-.89 4 4 0 0 0-1.66-.34h-3v-1.17a.14.14 0 0 0-.19-.05z" fill="#f2f2f2"/>
</svg>