<?xml version="1.0" encoding="utf-8"?>
<!-- Generator: Adobe Illustrator 21.1.0, SVG Export Plug-In . SVG Version: 6.00 Build 0)  -->
<svg version="1.1" id="Layer_1" xmlns="http://www.w3.org/2000/svg" xmlns:xlink="http://www.w3.org/1999/xlink" x="0px" y="0px"
	 viewBox="0 0 59.8 59.8" style="enable-background:new 0 0 59.8 59.8;" xml:space="preserve">
<style type="text/css">
	.st0{fill:#E02333;}
	.st1{fill:#FFFFFF;}
	.st2{fill:#2D3F4A;}
</style>
<title>INDIVIDUAL ICONS</title>
<circle class="st0" cx="29.9" cy="29.9" r="29.9"/>
<path class="st1" d="M23.9,38.9v-7.1l-6.4-3.5l-6.4,3.5v7.1l6.4,3.5L23.9,38.9z M14.1,37.1v-3.5l3.4-1.8l3.4,1.8v3.5l-3.4,1.8
	L14.1,37.1L14.1,37.1z"/>
<path class="st1" d="M48.7,25.4v-7.1l-6.4-3.5l-6.4,3.5v7.1l6.4,3.5L48.7,25.4z M38.9,20.1l3.4-1.8l3.4,1.8v3.5l-3.4,1.8l-3.4-1.8
	V20.1z"/>
<polygon class="st1" points="38.9,23.6 38.9,33.6 29.9,38.5 20.8,33.6 20.8,23.6 29.9,18.7 "/>
<polygon class="st2" points="29.5,28.1 22.4,24.9 22.4,32.7 29.5,36.6 "/>
<polygon class="st2" points="29.9,27.4 36.9,24.3 29.9,20.4 22.9,24.3 "/>
<polygon class="st2" points="37.4,32.7 37.4,24.9 30.3,28.1 30.3,36.6 37.4,32.7 "/>
<polygon class="st0" points="22.4,24.9 29.5,28.1 29.5,36.6 22.4,32.7 "/>
<polygon class="st0" points="30.3,28.1 37.4,24.9 37.4,32.7 30.3,36.6 "/>
<polygon class="st0" points="22.9,24.3 29.9,20.4 36.9,24.3 29.9,27.5 "/>
</svg>
