<?xml version="1.0" encoding="utf-8"?>
<!-- Generator: Adobe Illustrator 21.1.0, SVG Export Plug-In . SVG Version: 6.00 Build 0)  -->
<svg version="1.1" id="Layer_1" xmlns="http://www.w3.org/2000/svg" xmlns:xlink="http://www.w3.org/1999/xlink" x="0px" y="0px"
	 viewBox="0 0 59.5 59.5" style="enable-background:new 0 0 59.5 59.5;" xml:space="preserve">
<style type="text/css">
	.st0{fill:#D81F2E;}
	.st1{fill:#FFFFFF;}
	.st2{fill:none;stroke:#FFFFFF;stroke-width:0.8;stroke-miterlimit:10;}
</style>
<title>INDIVIDUAL ICONS</title>
<ellipse transform="matrix(0.7071 -0.7071 0.7071 0.7071 -12.3229 29.75)" class="st0" cx="29.8" cy="29.8" rx="29.8" ry="29.8"/>
<path class="st1" d="M25.5,42.8L16,42.7c-1.3,0-2.4,1.1-2.4,2.4v2.4l14.3,0.1v-2.4C27.9,43.8,26.9,42.8,25.5,42.8
	C25.5,42.8,25.5,42.8,25.5,42.8z"/>
<path class="st1" d="M20.7,40.3c-3.4,0-6.1-2.7-6.1-6.1s2.7-6.1,6.1-6.1c3.3,0,6.1,2.7,6.1,6.1C26.8,37.6,24.1,40.3,20.7,40.3z
	 M20.7,28.9c-2.9,0-5.3,2.4-5.3,5.3c0,2.9,2.4,5.3,5.3,5.3c2.9,0,5.3-2.4,5.3-5.3C26,31.3,23.6,28.9,20.7,28.9L20.7,28.9z"/>
<path class="st1" d="M44.9,42.8l-9.5-0.1c-1.3,0-2.4,1-2.4,2.4c0,0,0,0,0,0v2.4l14.3,0.1v-2.4C47.2,43.8,46.2,42.8,44.9,42.8
	C44.9,42.8,44.9,42.8,44.9,42.8z"/>
<path class="st1" d="M40.1,40.3c-3.4,0-6.1-2.7-6.1-6.1s2.7-6.1,6.1-6.1c3.3,0,6.1,2.7,6.1,6.1C46.1,37.6,43.4,40.3,40.1,40.3z
	 M40.1,28.9c-2.9,0-5.3,2.4-5.3,5.3c0,2.9,2.4,5.3,5.3,5.3c2.9,0,5.3-2.4,5.3-5.3C45.4,31.3,43,28.9,40.1,28.9L40.1,28.9z"/>
<path class="st2" d="M23.4,14.1c-0.1-0.7,0-1.5,0.2-2.2c0.2-0.8,0.6-1.5,1.1-2.1c1-1.4,2.5-2.4,4.2-2.6c0.6-0.1,1.3-0.1,1.9-0.1
	c0.7,0,1.4,0.2,2,0.4c0.7,0.3,1.4,0.7,2,1.2c0.5,0.4,0.9,0.9,1.2,1.4c0.3,0.5,0.6,1,0.7,1.6c0.1,0.3,0.2,0.7,0.2,1
	c0.1,1.6,0.1,4.3,0.1,4.8"/>
<path class="st2" d="M23.2,15.6c0.6,0.1,1.2-0.2,1.5-0.8c0.2-0.3,0.3-0.6,0.3-1c0.1-0.6,0.1-0.8,0.2-1.2c0.1-0.4,0.2-0.8,0.4-1.1
	c0.4-0.8,1-1.5,1.8-1.9c1.2-0.9,2.7-1.1,4.1-0.7c0.5,0.1,1.1,0.4,1.5,0.7c0.5,0.3,0.9,0.7,1.3,1.1c0.4,0.4,0.6,0.8,0.8,1.3
	c0.1,0.2,0.1,0.5,0.2,0.8c0.1,1.4,0.1,2.9,0.1,4.4c-0.1,0.3,0,0.6,0.1,0.9c0.1,0.3,0.3,0.5,0.6,0.6c0.3,0.2,0.7,0.4,1.1,0.4"/>
<path class="st2" d="M23.2,17.3c0.3,0.1,0.7,0.1,1,0c0.4-0.1,0.8-0.3,1.2-0.5c0.4-0.2,0.7-0.5,1-0.9c0.2-0.6,0.4-1.2,0.4-1.8
	c0-0.5,0.1-1,0.2-1.6c0.2-0.4,0.4-0.7,0.7-1c0.2-0.3,0.5-0.5,0.9-0.7c0.7-0.4,1.5-0.5,2.3-0.3c0.3,0,0.7,0.1,1,0.3
	c0.3,0.2,0.6,0.4,0.8,0.6c0.3,0.3,0.5,0.6,0.7,0.9c0.2,0.3,0.3,0.6,0.3,1c0,0.2,0,0.4,0,0.6c0,1.4,0.1,2.8,0,4.1
	c0,0.2,0,0.5,0.1,0.7c0.2,0.4,0.5,0.7,0.8,1c0.3,0.2,0.5,0.4,0.8,0.6c0.5,0.2,1.1,0.4,1.7,0.4"/>
<path class="st2" d="M23.2,19c0.3,0,0.6,0,0.9,0c0.4-0.1,0.9-0.2,1.3-0.4c0.3-0.2,0.6-0.4,0.9-0.6c0.5-0.4,0.9-0.8,1.3-1.3
	c0.3-0.3,0.5-0.6,0.6-1c0.1-0.3,0.2-0.7,0.2-1.1c0-0.3,0.1-0.7,0.2-1c0-0.2,0.1-0.4,0.3-0.6c0.1-0.2,0.3-0.4,0.5-0.5
	c0.2-0.2,0.5-0.3,0.8-0.4c0.2,0,0.4,0,0.6,0.1c0.2,0.1,0.4,0.2,0.6,0.3c0.2,0.2,0.4,0.4,0.5,0.6c0.2,0.4,0.2,0.9,0.1,1.4
	c0,0.6-0.2,1.3-0.3,1.9c-0.2,0.8-0.6,1.5-1.1,2.2c-0.8,1.2-2,2.1-3.2,2.7c-1.2,0.6-2.6,1-4,1"/>
<path class="st2" d="M23.5,20.7c0.6,0,1.1-0.1,1.7-0.2c1-0.3,2-0.8,2.7-1.5c0.5-0.5,1-1,1.3-1.6c0.3-0.4,0.5-0.8,0.7-1.3
	c0.3-0.8,0.4-1.6,0.3-2.4"/>
<path class="st2" d="M30.5,20.5h0.8"/>
<path class="st2" d="M32.2,18.9c0.1,0.3,0.2,0.6,0.3,0.8c0.2,0.4,0.5,0.8,0.9,1.1c0.4,0.4,0.8,0.7,1.3,1c0.4,0.2,0.7,0.4,1.1,0.5
	c0.5,0.1,1,0.2,1.5,0.1"/>
<path class="st2" d="M36.1,24.1c-0.3-0.1-0.6-0.2-1.1-0.4c-0.4-0.1-0.7-0.3-1.1-0.5c-0.6-0.3-0.7-0.4-1.2-0.6
	c-0.4-0.2-0.9-0.4-1.3-0.5c-0.5-0.1-1-0.1-1.5,0c-0.3,0.1-0.7,0.2-1,0.4c-1.1,0.5-1.1,0.6-1.8,0.9c-0.5,0.2-1.1,0.3-1.7,0.4
	C25.1,24,24.7,24,24.3,24"/>
<path class="st2" d="M25.6,25.6c0.3,0,0.7-0.1,1-0.1c0.3-0.1,0.7-0.2,1-0.4c0.3-0.2,0.3-0.2,0.8-0.5s0.6-0.3,0.8-0.4
	c0.3-0.1,0.6-0.2,0.9-0.3c0.2,0,0.4,0,0.6,0c0.3,0,0.5,0,0.8,0.1c0.3,0.1,0.6,0.2,0.8,0.4l0.6,0.4c0.1,0.1,0.5,0.3,0.8,0.4
	c0.4,0.2,0.9,0.3,1.4,0.4"/>
<path class="st2" d="M27.3,27c0.3-0.1,0.6-0.2,0.9-0.3c0.4-0.1,0.7-0.3,1-0.5c0.4-0.3,0.4-0.3,0.6-0.4c0.3-0.1,0.6-0.1,0.9-0.1
	c0.3,0,0.5,0.1,0.8,0.2c0.2,0.1,0.4,0.2,0.6,0.4c0.3,0.2,0.4,0.3,0.7,0.4c0.2,0.1,0.3,0.2,0.5,0.2"/>
<path class="st2" d="M30.2,27.5h1"/>
</svg>
