<?xml version="1.0" encoding="utf-8"?>
<!-- Generator: Adobe Illustrator 21.1.0, SVG Export Plug-In . SVG Version: 6.00 Build 0)  -->
<svg version="1.1" id="Layer_1" xmlns="http://www.w3.org/2000/svg" xmlns:xlink="http://www.w3.org/1999/xlink" x="0px" y="0px"
	 viewBox="0 0 60.1 60.1" style="enable-background:new 0 0 60.1 60.1;" xml:space="preserve">
<style type="text/css">
	.st0{fill:#D81F2E;}
	.st1{fill:#FFFFFF;}
	.st2{fill:none;stroke:#FFFFFF;stroke-miterlimit:10;}
	.st3{fill:#D81F2E;stroke:#FFFFFF;stroke-miterlimit:10;}
</style>
<title>INDIVIDUAL ICONS</title>
<ellipse transform="matrix(0.7071 -0.7071 0.7071 0.7071 -12.4554 30.07)" class="st0" cx="30.1" cy="30.1" rx="30.1" ry="30.1"/>
<rect x="47.3" y="13.9" class="st1" width="6.4" height="6.4"/>
<rect x="47.3" y="39.6" class="st1" width="6.4" height="6.4"/>
<rect x="47.3" y="26.9" class="st1" width="6.4" height="6.4"/>
<line class="st2" x1="49.5" y1="30.1" x2="13.9" y2="30.1"/>
<rect x="12" y="21.8" class="st1" width="3.8" height="16.5"/>
<polyline class="st2" points="50.5,17.1 45,17.1 45,42.9 50.5,42.9 "/>
<ellipse transform="matrix(0.7071 -0.7071 0.7071 0.7071 -12.4554 30.07)" class="st3" cx="30.1" cy="30.1" rx="7.5" ry="7.5"/>
<path class="st1" d="M32.8,27.8c0.1-1.5-1.1-2.8-2.6-2.9c-1.5-0.1-2.8,1.1-2.9,2.6c0,0.1,0,0.2,0,0.3V29c-1.3,1.5-1.2,3.8,0.3,5.2
	s3.8,1.2,5.2-0.3c1.2-1.4,1.2-3.5,0-4.8V27.8z M28.2,27.8c0-1,0.8-1.8,1.8-1.8c1,0,1.8,0.8,1.8,1.8c0,0,0,0,0,0v0.5
	c-1.1-0.7-2.5-0.7-3.7,0V27.8z M29.4,33.5l-1.7-1.7l0.7-0.6l1,1l2.4-2.4l0.7,0.6L29.4,33.5z"/>
</svg>
