<?xml version="1.0" encoding="utf-8"?>
<!-- Generator: Adobe Illustrator 21.1.0, SVG Export Plug-In . SVG Version: 6.00 Build 0)  -->
<svg version="1.1" id="Layer_1" xmlns="http://www.w3.org/2000/svg" xmlns:xlink="http://www.w3.org/1999/xlink" x="0px" y="0px"
	 viewBox="0 0 59.8 59.8" style="enable-background:new 0 0 59.8 59.8;" xml:space="preserve">
<style type="text/css">
	.st0{fill:#E02533;}
	.st1{fill:#FFFFFF;}
</style>
<title>INDIVIDUAL ICONS</title>
<circle class="st0" cx="29.9" cy="29.9" r="29.9"/>
<path class="st1" d="M40.3,21.3c0-5.7-4.6-10.3-10.3-10.3c-5.7,0-10.3,4.6-10.3,10.3V26c-5,5.7-4.5,14.4,1.2,19.4s14.4,4.5,19.4-1.2
	c4.6-5.2,4.6-13,0-18.2V21.3z M23,21.3c0.1-3.8,3.1-6.8,6.9-6.9c3.8,0.1,6.8,3.1,6.9,6.9v1.9c-4.3-2.5-9.5-2.5-13.8,0L23,21.3z
	 M27.3,42.6L21,36.3l2.4-2.4l3.9,4l9.1-9.1l2.4,2.4L27.3,42.6z"/>
</svg>
