<?xml version="1.0" encoding="utf-8"?>
<!-- Generator: Adobe Illustrator 21.1.0, SVG Export Plug-In . SVG Version: 6.00 Build 0)  -->
<svg version="1.1" id="Layer_1" xmlns="http://www.w3.org/2000/svg" xmlns:xlink="http://www.w3.org/1999/xlink" x="0px" y="0px"
	 viewBox="0 0 59.7 59.7" style="enable-background:new 0 0 59.7 59.7;" xml:space="preserve">
<style type="text/css">
	.st0{fill:#FFFFFF;}
	.st1{fill:#E02533;}
</style>
<title>INDIVIDUAL ICONS</title>
<rect x="13.9" y="40.7" class="st0" width="36.2" height="3.1"/>
<circle class="st1" cx="29.8" cy="29.8" r="29.8"/>
<rect x="9.9" y="12.3" class="st0" width="39.9" height="31.3"/>
<rect x="13" y="15.4" class="st1" width="33.7" height="24.1"/>
<path class="st0" d="M37.2,26.6c0,1.2,0,2.4,0,3.6c0.1,1.3-0.5,2.6-1.6,3.5c-1.5,1.2-3.2,2.1-5,2.7c-0.5,0.2-1,0.2-1.5,0
	c-1.8-0.6-3.5-1.5-5-2.7c-1.1-0.8-1.7-2.1-1.6-3.5c0-2.5,0-5.1,0-7.6c0-0.3,0.1-0.5,0.4-0.5c2.2-0.8,4.4-1.6,6.6-2.4
	c0.3-0.1,0.6-0.1,0.8,0c2.2,0.8,4.4,1.6,6.6,2.4c0.3,0.1,0.4,0.3,0.4,0.6C37.2,23.9,37.2,25.2,37.2,26.6z M28.9,29.7l-0.3-0.3
	c-0.6-0.6-1.3-1.3-1.9-1.9c-0.3-0.4-0.9-0.4-1.2-0.1c0,0,0,0-0.1,0c-0.3,0.3-0.3,0.9,0,1.2c0,0,0.1,0.1,0.1,0.1l2.6,2.6
	c0.5,0.5,0.9,0.5,1.5,0l4.9-5c0.1-0.1,0.2-0.2,0.2-0.3c0.2-0.3,0.2-0.6,0-0.9c-0.2-0.3-0.5-0.4-0.8-0.4c-0.2,0.1-0.4,0.2-0.6,0.4
	c-1.1,1.1-2.2,2.2-3.3,3.3C29.7,28.8,29.3,29.3,28.9,29.7z"/>
</svg>
