<svg
	xmlns="http://www.w3.org/2000/svg" width="17" height="17">
	<defs>
		<linearGradient id="A" x1="8.5" y1="17" x2="8.5" y2="0" gradientUnits="userSpaceOnUse">
			<stop offset="0" stop-color="#005ba1"/>
			<stop offset=".168" stop-color="#0063ae"/>
			<stop offset=".577" stop-color="#0072ca"/>
			<stop offset=".815" stop-color="#0078d4"/>
		</linearGradient>
	</defs>
	<circle cx="8.5" cy="8.5" r="8.5" fill="url(#A)"/>
	<path d="M8.38 4.19a.753.753 0 0 0-.753.752v3.694a.753.753 0 0 0 .753.752h3.693a.752.752 0 0 0 .752-.752V4.942a.752.752 0 0 0-.752-.752zm.677.978a.451.451 0 0 0-.452.451v2.339a.452.452 0 0 0 .452.452H11.4a.451.451 0 0 0 .451-.452V5.619a.451.451 0 0 0-.451-.451z" fill="#7de2fb" fill-rule="evenodd"/>
	<path d="M4.175 7a.451.451 0 0 1 .451-.451h1.851A.451.451 0 0 1 6.928 7v1.861a.451.451 0 0 1-.451.451H4.626a.451.451 0 0 1-.451-.451zm0 3.508a.451.451 0 0 1 .451-.451h1.851a.451.451 0 0 1 .451.451v1.851a.451.451 0 0 1-.451.451H4.626a.451.451 0 0 1-.451-.451zm3.452-.045a.451.451 0 0 1 .452-.451h1.85a.452.452 0 0 1 .452.451v1.851a.452.452 0 0 1-.452.451h-1.85a.451.451 0 0 1-.452-.451z" fill="#fff"/>
</svg>