<svg
	xmlns="http://www.w3.org/2000/svg"
	xmlns:xlink="http://www.w3.org/1999/xlink" width="15.996" height="16.759">
	<defs>
		<mask id="A" x="1" y=".621" width="16" height="16.759" maskUnits="userSpaceOnUse">
			<path d="M7.02.621h7.231a2.745 2.745 0 0 1 2.477 3.928l.135-.268-2.513 5.026-.022.045-.393.785.393-.786a2.746 2.746 0 0 1-2.456 1.518H7.53l-3.075 6.149a.654.654 0 0 1-1.17 0l-2.148-4.3a1.267 1.267 0 0 1 .006-1.158l2.365-4.73a1.31 1.31 0 0 1 1.171-.723h9.062a2.706 2.706 0 0 0-1.868-.732H5.3a.655.655 0 0 1-.585-.948L6.434.982A.656.656 0 0 1 7.02.621z" fill="#fff"/>
		</mask>
		<linearGradient id="B" x1="3.943" y1="10.368" x2="5.773" y2="17.322" xlink:href="#G">
			<stop offset="0" stop-color="#159455"/>
			<stop offset="1" stop-color="#3fbda9"/>
		</linearGradient>
		<linearGradient id="C" x1="4.98" y1="1.196" x2="15.597" y2="5.916" xlink:href="#G">
			<stop offset="0" stop-color="#23a794"/>
			<stop offset=".568" stop-color="#007a84"/>
			<stop offset="1" stop-color="#005158"/>
		</linearGradient>
		<linearGradient id="D" x1="12.456" y1="8.139" x2="10.534" y2="3.107" xlink:href="#G">
			<stop offset="0" stop-color="#004a8b"/>
			<stop offset=".406" stop-color="#105da8" stop-opacity=".5"/>
			<stop offset="1" stop-color="#2170c6" stop-opacity="0"/>
		</linearGradient>
		<linearGradient id="E" x1="4.151" y1="5.537" x2="13.758" y2="10.295" xlink:href="#G">
			<stop offset="0" stop-color="#7fd9a2"/>
			<stop offset=".196" stop-color="#47bf79"/>
			<stop offset=".714" stop-color="#009280"/>
			<stop offset="1" stop-color="#007a84"/>
		</linearGradient>
		<linearGradient id="F" x1="4.08" y1="5.705" x2="6.276" y2="6.803" xlink:href="#G">
			<stop offset="0" stop-color="#a8e47c" stop-opacity=".86"/>
			<stop offset=".367" stop-color="#87d152" stop-opacity=".2"/>
			<stop offset="1" stop-color="#58be5a" stop-opacity="0"/>
		</linearGradient>
		<linearGradient id="G" gradientUnits="userSpaceOnUse"/>
	</defs>
	<path d="M6.02 0h7.231c.943 0 1.819.484 2.322 1.281s.561 1.797.155 2.647l.135-.268-2.513 5.026-.022.045-.393.785.393-.786c-.465.93-1.416 1.518-2.456 1.518H6.53l-3.075 6.149c-.111.222-.337.362-.585.362s-.474-.14-.585-.362l-2.148-4.3c-.185-.364-.183-.796.006-1.158l2.365-4.73a1.31 1.31 0 0 1 1.171-.723h9.062c-.506-.474-1.175-.736-1.868-.732H4.3c-.227 0-.437-.118-.557-.311s-.13-.434-.028-.637L5.434.361C5.545.14 5.772 0 6.02 0z" fill="#fff"/>
	<g mask="url(#A)" transform="translate(-1 -.621)">
		<path d="M2.283 10.869H7.53l-3.075 6.149a.655.655 0 0 1-1.171 0l-2.147-4.3a1.28 1.28 0 0 1 1.146-1.849z" fill="url(#B)"/>
		<path d="M7.019.621h7.232a2.745 2.745 0 0 1 2.456 3.972l-2.358 4.714-.021.045-.393.785.414-.83a2.744 2.744 0 0 0-2.476-3.928H5.3a.655.655 0 0 1-.585-.948L6.434.982a.656.656 0 0 1 .585-.361z" fill="url(#C)"/>
		<path d="M7.019.621h7.232a2.745 2.745 0 0 1 2.456 3.972l-2.363 4.725-.017.034-.209.419.226-.453a2.745 2.745 0 0 0-2.471-3.939H5.3a.655.655 0 0 1-.585-.948L6.434.982a.656.656 0 0 1 .585-.361z" fill="url(#D)"/>
		<path d="M11.872 10.942H2.3a1.31 1.31 0 0 0-1.171.723l2.379-4.758a1.31 1.31 0 0 1 1.171-.723h9.572A2.744 2.744 0 0 0 16.7 4.67l.159-.316-2.535 5.07a2.746 2.746 0 0 1-2.452 1.518z" fill-opacity=".24"/>
		<path d="M11.872 11.235H2.3a1.31 1.31 0 0 0-1.171.723L3.508 7.2a1.31 1.31 0 0 1 1.171-.723h9.572A2.744 2.744 0 0 0 16.7 4.963l.159-.316-2.535 5.07a2.746 2.746 0 0 1-2.452 1.518z" fill-opacity=".32"/>
		<path d="M11.872 10.869H2.3a1.31 1.31 0 0 0-1.171.723l2.379-4.758a1.31 1.31 0 0 1 1.171-.723h9.572A2.744 2.744 0 0 0 16.7 4.6l.159-.316-2.535 5.07a2.746 2.746 0 0 1-2.452 1.515z" fill="url(#E)"/>
		<path d="M11.867 10.869h-9.56a1.31 1.31 0 0 0-1.171.723l2.379-4.758a1.31 1.31 0 0 1 1.171-.723H14.3a2.666 2.666 0 0 0 2.38-1.464l-2.359 4.706a2.744 2.744 0 0 1-2.454 1.516z" opacity=".7" fill="url(#F)"/>
	</g>
</svg>