<?xml version="1.0" encoding="utf-8"?>
<svg version="1.1" id="Layer_1" xmlns="http://www.w3.org/2000/svg" xmlns:xlink="http://www.w3.org/1999/xlink" x="0px" y="0px"
	 viewBox="0 0 61.115 91.401" style="enable-background:new 0 0 61.115 91.401;" xml:space="preserve">
<style type="text/css">
	.st0{fill:#646567;}
	.st1{fill:none;stroke:#646567;stroke-width:0.262;}
	.st2{fill:none;stroke:#616365;stroke-width:3.139;stroke-linecap:round;stroke-linejoin:round;}
	.st3{fill:#8D8F92;}
	.st4{fill:#58585B;}
	.st5{fill:#6E7072;}
	.st6{fill:#6C6E70;}
	.st7{fill:#B1B3B5;}
	.st8{fill:#E7E8E9;}
	.st9{fill:#FEFEFE;}
</style>
<title>icon-wireless-4600</title>
<desc>Created with Sketch.</desc>
<path id="Fill-1" class="st0" d="M6.958,67.815c-3.139-1.438-6.779-6.371-6.753-10.272c0.026-3.925-0.157-45.975-0.026-47.936
	c0.131-1.962,0.5-3.117,2.069-4.293c1.569-1.177,7.806-4.266,8.85-4.688c1.099-0.445,2.464-1.176,5.995,0.917
	c3.531,2.092,37.046,22.419,38.521,23.262c4.559,2.605,5.176,6.289,5.311,8.966c0.133,2.677,0.032,45.679-0.219,48.69
	c-0.116,1.388-0.517,2.638-2.235,3.752c-1.956,1.269-5.279,2.771-7.413,3.907c-3.958,2.104-5.326,0.733-5.914,0.45
	C42.141,89.119,6.958,67.815,6.958,67.815"/>
<path id="Stroke-3" class="st1" d="M6.958,67.815c-3.139-1.438-6.779-6.371-6.753-10.272c0.026-3.925-0.157-45.975-0.026-47.936
	c0.131-1.962,0.5-3.117,2.069-4.293c1.569-1.177,7.806-4.266,8.85-4.688c1.099-0.445,2.464-1.176,5.995,0.917
	c3.531,2.092,37.046,22.419,38.521,23.262c4.559,2.605,5.176,6.289,5.311,8.966c0.133,2.677,0.032,45.679-0.219,48.69
	c-0.116,1.388-0.517,2.638-2.235,3.752c-1.956,1.269-5.279,2.771-7.413,3.907c-3.958,2.104-5.326,0.733-5.914,0.45
	C42.141,89.119,6.958,67.815,6.958,67.815z"/>
<path id="Stroke-16" class="st2" d="M2.771,6.835c12.71-6.746,9.414-4.938,9.414-4.938c0.833-0.393,2.017-0.134,3.487,0.593
	L6.557,7.463C5.766,7.145,3.85,6.262,2.771,6.835z"/>
<path id="Stroke-25" class="st2" d="M57.773,84.727c-12.711,6.747,3.453-2.073-9.256,4.674c0.883-0.471,1.435-1.56,1.433-3.139
	l9.258-4.673C59.208,83.168,58.656,84.257,57.773,84.727z"/>
<polygon id="Stroke-27" class="st2" points="6.296,7.463 15.733,2.581 54.648,26.428 45.362,30.937 "/>
<polygon id="Stroke-29" class="st2" points="49.917,39.157 59.27,33.73 59.257,81.161 49.95,86.262 "/>
<path id="Stroke-63" class="st2" d="M45.362,30.937l9.933-4.416c2.513,1.51,3.97,4.179,3.974,7.209l-9.352,5.427
	C49.915,36.126,47.878,32.447,45.362,30.937z"/>
<path id="Stroke-65" class="st2" d="M45.362,30.937c2.516,1.51,4.553,5.189,4.555,8.22l0.033,47.105
	c0.004,3.03-2.031,4.262-4.547,2.752L6.337,65.541c-2.52-1.515-4.559-5.194-4.561-8.225L1.743,10.211
	C1.741,7.18,3.776,5.949,6.296,7.463L45.362,30.937z"/>
<path id="Fill-67" class="st3" d="M2.964,6.672c1.6-0.869,1.137-0.897,9.023-4.71c0.83-0.4,2.215-0.199,3.424,0.527L6.346,7.036
	C5.138,6.309,3.778,6.241,2.964,6.672"/>
<path id="Fill-80" class="st4" d="M58.007,84.124c-12.712,6.747-9.44,4.849-9.44,4.849c0.837-0.543,1.434-1.559,1.432-3.139
	l9.258-5.067C59.257,82.345,58.89,83.654,58.007,84.124"/>
<polygon id="Fill-89" class="st5" points="6.345,7.036 15.27,2.395 54.185,25.873 45.411,30.51 "/>
<polygon id="Fill-91" class="st6" points="50.072,38.576 59.269,33.729 59.273,81.674 50.143,85.871 "/>
<path id="Fill-93" class="st3" d="M45.412,30.509l8.773-4.636c2.514,1.51,5.081,4.826,5.084,7.856l-9.303,5
	C49.964,35.698,47.927,32.019,45.412,30.509"/>
<path id="Fill-127" class="st7" d="M45.412,30.509c2.515,1.51,4.552,5.189,4.554,8.22l0.033,47.105
	c0.004,3.03-2.031,4.262-4.547,2.753L6.386,65.113c-2.52-1.514-4.559-5.194-4.561-8.225L1.793,9.783
	C1.791,6.752,3.826,5.521,6.346,7.035L45.412,30.509z"/>
<path id="Fill-160" class="st8" d="M49.941,85.939l-0.034-47.104c-0.009-2.795-1.884-6.183-4.199-7.582L6.641,7.78
	C4.32,6.394,2.452,7.532,2.448,10.317l0.033,47.105c0.008,2.794,1.88,6.18,4.201,7.573l39.067,23.473
	C48.061,89.858,49.935,88.724,49.941,85.939z M45.708,30.391c2.713,1.631,4.912,5.601,4.916,8.873l0.033,47.107
	c0.002,3.262-2.195,4.59-4.908,2.968L6.682,65.866c-2.714-1.639-4.914-5.61-4.916-8.873L1.733,9.887
	c-0.002-3.271,2.194-4.6,4.908-2.969L45.708,30.391z"/>
<path id="Fill-162" class="st9" d="M45.718,31.31c2.315,1.399,4.191,4.787,4.199,7.581l0.035,47.105
	c-0.005,2.785-1.88,3.919-4.193,2.529L6.693,65.052c-2.322-1.394-4.193-4.78-4.202-7.573L2.459,10.374
	C2.463,7.588,4.33,6.45,6.652,7.836L45.718,31.31z"/>
<path id="Fill-164" class="st4" d="M14.253,57.237c0,0.865-0.576,1.232-1.286,0.819c-0.711-0.415-1.287-1.452-1.287-2.318
	c0-0.865,0.576-1.232,1.287-0.817C13.677,55.334,14.253,56.37,14.253,57.237"/>
<path id="Fill-166" class="st4" d="M18.685,59.817c0,0.866-0.576,1.231-1.287,0.818c-0.711-0.413-1.286-1.45-1.286-2.317
	c0-0.865,0.575-1.232,1.286-0.818C18.109,57.913,18.685,58.951,18.685,59.817"/>
<path id="Fill-168" class="st4" d="M23.116,62.397c0,0.864-0.575,1.232-1.286,0.819c-0.711-0.415-1.287-1.452-1.287-2.318
	c0-0.865,0.576-1.232,1.287-0.817C22.541,60.494,23.116,61.53,23.116,62.397"/>
<path id="Fill-170" class="st4" d="M27.549,64.977c0,0.866-0.576,1.231-1.287,0.818c-0.711-0.414-1.286-1.451-1.286-2.317
	c0-0.865,0.575-1.232,1.286-0.819C26.973,63.073,27.549,64.111,27.549,64.977"/>
<path id="Fill-172" class="st4" d="M31.98,67.556c0,0.864-0.577,1.232-1.287,0.819c-0.71-0.414-1.287-1.451-1.287-2.318
	c0-0.865,0.577-1.232,1.287-0.817C31.403,65.653,31.98,66.689,31.98,67.556"/>
<polygon id="Fill-174" class="st6" points="11.868,25.499 12.912,30.377 11.406,29.508 11.2,28.388 10.202,28.814 7.566,27.291 "/>
<polygon id="Fill-176" class="st6" points="12.139,25.649 12.556,27.637 12.926,27.852 12.664,28.125 13.177,30.537 14.721,28.886 
	15.029,29.066 16.097,27.934 "/>
<path id="Fill-178" class="st6" d="M13.781,30.88l1.726-1.86c-0.086,0.558,0.108,1.237,0.48,1.875
	c0.378,0.648,0.888,1.134,1.317,1.091l-0.549,0.608L13.781,30.88z"/>
<path id="Fill-180" class="st6" d="M16.208,28.333l1.332,0.768c-0.186-0.298-0.418-0.545-0.667-0.688
	C16.622,28.269,16.395,28.25,16.208,28.333"/>
<path id="Fill-182" class="st6" d="M16.883,31.504c0.261,0.15,0.501,0.165,0.689,0.069l-1.38-0.798
	C16.383,31.092,16.623,31.354,16.883,31.504"/>
<path id="Fill-184" class="st6" d="M15.945,30.268l1.872,1.081c0.048-0.074,0.088-0.163,0.117-0.262l-2.11-1.218
	C15.854,30.003,15.896,30.138,15.945,30.268"/>
<path id="Fill-186" class="st6" d="M15.757,29.311c0,0.052,0.002,0.104,0.006,0.158l2.232,1.287C17.998,30.707,18,30.657,18,30.605
	c-0.002-0.06-0.004-0.121-0.009-0.183l-2.227-1.284C15.759,29.194,15.757,29.252,15.757,29.311"/>
<path id="Fill-188" class="st6" d="M15.827,28.808l2.099,1.211c-0.034-0.136-0.077-0.272-0.128-0.403l-1.846-1.068
	C15.901,28.621,15.858,28.71,15.827,28.808"/>
<path id="Fill-190" class="st4" d="M20.029,32.798l-0.328-0.191l-0.129-0.074l0.534-1.497l0.009,0.005l0.566,2.133L20.029,32.798z
	 M21.596,35.27c-0.039-0.082-0.064-0.152-0.108-0.297L20.1,30.067l-0.009-0.006l-1.295,3.467c-0.018,0.044-0.043,0.07-0.077,0.079
	l0.485,0.281c-0.013-0.031-0.035-0.073-0.034-0.114c-0.001-0.018,0.015-0.062,0.038-0.122l0.274-0.766l0.242,0.141l0.307,0.177
	l0.785,0.454l0.281,1.085c0.022,0.084,0.04,0.147,0.039,0.166c0.001,0.042-0.02,0.058-0.033,0.075L21.596,35.27z"/>
<path id="Fill-192" class="st4" d="M21.64,35.294c0.067-0.006,0.078-0.145,0.077-0.378l-0.012-3.558
	c-0.001-0.113-0.006-0.218-0.072-0.31l0.372,0.216l0.014,4.006c0.002,0.125,0.033,0.227,0.08,0.289L21.64,35.294z"/>
<path id="Fill-194" class="st4" d="M22.384,35.724c0.069-0.007,0.079-0.146,0.077-0.378l-0.013-3.559c0-0.113-0.004-0.219-0.07-0.31
	l0.373,0.216l0.014,4.007c0,0.125,0.032,0.226,0.078,0.289L22.384,35.724z"/>
<path id="Fill-196" class="st4" d="M23.13,36.154c0.069-0.006,0.078-0.145,0.077-0.379l-0.008-2.232c0-0.114-0.005-0.219-0.07-0.309
	l0.373,0.214l0.009,2.682c0.001,0.126,0.031,0.227,0.079,0.29L23.13,36.154z"/>
<path id="Fill-198" class="st4" d="M23.544,32.745c0,0.15-0.091,0.217-0.194,0.156c-0.105-0.06-0.196-0.232-0.198-0.38
	c-0.001-0.149,0.091-0.217,0.195-0.158C23.45,32.424,23.544,32.596,23.544,32.745"/>
<path id="Fill-200" class="st4" d="M37.835,44.641c0.067-0.008,0.076-0.146,0.075-0.379l-0.008-2.233
	c-0.001-0.114-0.005-0.218-0.07-0.309l0.373,0.214l0.009,2.683c0.001,0.124,0.031,0.224,0.079,0.287L37.835,44.641z"/>
<path id="Fill-202" class="st4" d="M38.247,41.231c0,0.15-0.091,0.215-0.194,0.157c-0.105-0.06-0.197-0.232-0.197-0.38
	c-0.002-0.152,0.089-0.218,0.194-0.158C38.153,40.909,38.245,41.082,38.247,41.231"/>
<path id="Fill-204" class="st4" d="M28.196,38.323l-0.304-0.511l-0.005-1.044c-0.225-0.441-0.378-0.695-0.798-0.94
	c-0.486-0.28-0.818,0.059-0.816,0.698c0.002,0.621,0.4,1.363,0.858,1.627c0.389,0.226,0.601,0.014,0.761-0.013l-0.001-0.504
	l0.304,0.482c0.001,0.143,0.001,0.352,0.049,0.434c-0.091-0.028-0.173-0.004-0.251,0.023c-0.308,0.06-0.483,0.203-0.864-0.018
	c-0.66-0.38-1.164-1.363-1.168-2.253c-0.003-0.901,0.553-1.212,1.186-0.847c0.304,0.174,0.556,0.411,0.723,0.852l0.015-0.002
	l-0.004-1.457c0-0.066-0.018-0.148-0.079-0.242l0.381,0.219L28.196,38.323z"/>
<path id="Fill-206" class="st4" d="M30.575,40.244c0,0.083,0.021,0.167,0.054,0.238l-0.434-0.251
	c0.028-0.035,0.052-0.095,0.052-0.178l-0.013-3.638l-0.49-0.282c-0.093-0.053-0.149-0.06-0.199,0.005l-0.003-0.527l1.709,0.987
	l0.001,0.525c-0.053-0.126-0.11-0.182-0.199-0.234l-0.49-0.282L30.575,40.244z"/>
<path id="Fill-208" class="st4" d="M33.28,42.025c0.069-0.006,0.077-0.146,0.077-0.378l-0.013-3.559
	c0-0.113-0.006-0.216-0.071-0.307l0.373,0.214l0.014,4.006c0,0.125,0.032,0.226,0.08,0.289L33.28,42.025z"/>
<path id="Fill-210" class="st4" d="M37.324,41.944c-0.104-0.179-0.243-0.348-0.387-0.431c-0.186-0.108-0.342-0.108-0.341,0.179
	c0.003,0.669,0.935,0.872,0.939,1.971c0.001,0.519-0.298,0.728-0.67,0.514c-0.161-0.093-0.278-0.191-0.364-0.271
	c-0.088-0.073-0.149-0.144-0.197-0.171c-0.025-0.016-0.064-0.003-0.082,0.022l-0.003-0.001l-0.002-0.717
	c0.141,0.298,0.342,0.556,0.555,0.678c0.226,0.131,0.451,0.171,0.449-0.187c-0.001-0.836-0.933-0.972-0.937-2.019
	c-0.001-0.484,0.263-0.629,0.609-0.428c0.121,0.068,0.259,0.209,0.334,0.251c0.031,0.018,0.075,0.031,0.096,0.006L37.324,41.944z"/>
<path id="Fill-212" class="st4" d="M39.716,43.325c-0.104-0.18-0.243-0.349-0.387-0.431c-0.185-0.107-0.342-0.108-0.34,0.178
	c0.002,0.669,0.933,0.872,0.936,1.971c0.002,0.519-0.296,0.728-0.669,0.514c-0.159-0.093-0.277-0.189-0.364-0.27
	c-0.087-0.074-0.148-0.146-0.194-0.172c-0.028-0.017-0.065-0.001-0.084,0.023l-0.002-0.002l-0.003-0.716
	c0.143,0.298,0.343,0.555,0.555,0.678c0.226,0.13,0.451,0.17,0.45-0.188c-0.003-0.835-0.933-0.974-0.937-2.019
	c-0.002-0.483,0.262-0.628,0.608-0.429c0.121,0.071,0.26,0.21,0.334,0.252c0.031,0.018,0.074,0.031,0.096,0.007L39.716,43.325z"/>
<path id="Fill-214" class="st4" d="M24.406,34.554c-0.34,0.198-0.421,0.674-0.259,1.299l1.333-0.774
	C25.139,34.549,24.737,34.361,24.406,34.554 M25.948,35.336l-1.613,0.939c0.34,0.614,0.808,0.865,1.173,0.654
	c0.099-0.058,0.193-0.123,0.263-0.221l0.001,0.595c-0.025,0.016-0.049,0.032-0.074,0.046c-0.499,0.291-1.23-0.112-1.661-1.065
	c-0.434-0.96-0.338-1.853,0.177-2.148c0.538-0.314,1.271,0.291,1.614,1.044C25.865,35.261,25.909,35.296,25.948,35.336"/>
<path id="Fill-216" class="st4" d="M31.529,38.663c-0.342,0.199-0.423,0.674-0.261,1.299l1.334-0.775
	C32.262,38.66,31.858,38.472,31.529,38.663 M33.071,39.447l-1.615,0.938c0.341,0.614,0.81,0.864,1.174,0.653
	c0.099-0.059,0.191-0.124,0.261-0.22l0.003,0.595c-0.024,0.018-0.048,0.032-0.073,0.045c-0.5,0.29-1.23-0.113-1.661-1.064
	c-0.436-0.96-0.339-1.852,0.174-2.149c0.54-0.313,1.273,0.292,1.616,1.046C32.986,39.371,33.032,39.407,33.071,39.447"/>
<path id="Fill-218" class="st4" d="M34.603,40.438c-0.341,0.199-0.421,0.674-0.26,1.301l1.332-0.777
	C35.335,40.435,34.933,40.247,34.603,40.438 M36.144,41.222L34.53,42.16c0.342,0.613,0.81,0.864,1.175,0.653
	c0.099-0.059,0.192-0.123,0.261-0.22l0.003,0.595c-0.025,0.015-0.051,0.03-0.074,0.045c-0.499,0.29-1.23-0.112-1.661-1.065
	c-0.435-0.959-0.338-1.851,0.175-2.148c0.538-0.313,1.272,0.292,1.616,1.046C36.06,41.146,36.105,41.182,36.144,41.222"/>
<polygon id="Fill-220" class="st6" points="39.784,41.617 39.69,41.563 39.69,41.516 39.918,41.647 39.919,41.695 39.824,41.64 
	39.826,42.018 39.785,41.995 "/>
<path id="Fill-222" class="st6" d="M40.213,42.056c-0.002-0.061-0.005-0.133-0.004-0.187h-0.001
	c-0.012,0.043-0.024,0.09-0.039,0.139l-0.055,0.174l-0.03-0.016l-0.05-0.231c-0.014-0.069-0.027-0.131-0.036-0.186h-0.001
	c-0.001,0.051-0.003,0.12-0.005,0.183l-0.008,0.177l-0.038-0.02l0.02-0.413l0.052,0.03l0.052,0.234
	c0.014,0.061,0.023,0.114,0.032,0.161l0.001,0.002c0.007-0.039,0.019-0.08,0.032-0.125l0.054-0.172l0.051,0.028l0.021,0.435
	l-0.038-0.021L40.213,42.056z"/>
</svg>
