<?xml version="1.0" encoding="UTF-8" standalone="no"?>
<svg
   id="uuid-a3db861f-14ee-4644-b635-1859b256802b"
   width="18"
   height="17.338751"
   viewBox="0 0 18 17.338751"
   version="1.1"
   xmlns="http://www.w3.org/2000/svg"
   xmlns:svg="http://www.w3.org/2000/svg">
  <defs
     id="defs7">
    <linearGradient
       id="uuid-5164aee9-f3c2-40cf-93c1-ac4198b3a6f1"
       x1="10.603"
       y1="2.24"
       x2="10.603"
       y2="17.216"
       gradientUnits="userSpaceOnUse"
       gradientTransform="translate(0,-0.33025)">
      <stop
         offset=".268"
         stop-color="#32bedd"
         id="stop2" />
      <stop
         offset="1"
         stop-color="#198ab3"
         id="stop4" />
    </linearGradient>
  </defs>
  <g
     id="g17"
     transform="translate(0,-0.33025)">
    <path
       d="M 2.334,10.817 V 5.406 c 0,-0.379 0.202,-0.73 0.531,-0.92 L 7.552,1.781 c 0.329,-0.19 0.733,-0.19 1.062,0 L 9.045,2.03 6.482,0.472 C 6.155,0.283 5.752,0.283 5.425,0.472 L 0.528,3.165 C 0.201,3.354 0,3.703 0,4.08 v 5.385 c 0,0.378 0.201,0.727 0.528,0.915 l 2.271,1.311 C 2.51,11.494 2.334,11.168 2.334,10.815 Z"
       fill="#198ab3"
       stroke-width="0"
       id="path9" />
    <path
       d="m 2.865,11.737 1.751,1.011 c 0,0 -0.002,-0.005 -0.003,-0.007 L 2.799,11.693 c 0.022,0.015 0.043,0.031 0.066,0.044 z"
       fill="#32bedd"
       stroke-width="0"
       id="path11" />
    <path
       d="M 10.331,2.772 9.044,2.029 10.285,2.783 C 10.3,2.779 10.316,2.775 10.331,2.772 Z"
       fill="#32bedd"
       stroke-width="0"
       id="path13" />
    <path
       d="M 4.523,6.842 C 4.523,6.346 4.79,5.883 5.22,5.635 L 9.906,2.929 C 10.026,2.86 10.154,2.813 10.285,2.783 L 9.044,2.029 8.613,1.78 C 8.284,1.59 7.88,1.59 7.551,1.78 L 2.865,4.486 c -0.329,0.19 -0.531,0.54 -0.531,0.92 v 5.411 c 0,0.353 0.177,0.679 0.465,0.876 l 1.814,1.048 C 4.555,12.587 4.522,12.423 4.522,12.254 V 6.843 Z"
       fill="#32bedd"
       stroke-width="0"
       id="path15" />
  </g>
  <path
     d="M 15.986,5.30475 11.3,2.59875 c -0.296,-0.171 -0.641,-0.221 -0.968,-0.157 -0.148,0.029 -0.292,0.079 -0.425,0.157 l -4.686,2.706 c -0.43,0.248 -0.697,0.711 -0.697,1.207 v 5.411 c 0,0.172 0.034,0.339 0.094,0.495 0.113,0.295 0.324,0.551 0.609,0.716 l 4.914,2.702 c 0.214,0.124 0.454,0.186 0.695,0.186 0.243,0 0.486,-0.063 0.705,-0.189 l 4.446,-2.702 c 0.43,-0.248 0.697,-0.711 0.697,-1.207 v -5.411 c 0,-0.496 -0.267,-0.959 -0.697,-1.207 z m -10.434,0.575 4.686,-2.706 c 0.113,-0.065 0.239,-0.098 0.365,-0.098 0.126,0 0.252,0.033 0.365,0.098 l 2.827,1.632 1.859,1.073 c 0.007,0.004 0.01,0.013 0.017,0.017 l -5.034,2.87 -5.315,-2.658 c 0.061,-0.09 0.132,-0.174 0.229,-0.229 z m 2.94,8.292 -2.94,-1.617 c -0.225,-0.13 -0.365,-0.372 -0.365,-0.632 v -4.992 l 5.065,2.533 v 5.675 l -1.76,-0.968 z m 7.527,-2.249 c 0,0.26 -0.14,0.502 -0.371,0.636 l -4.446,2.702 c -0.047,0.027 -0.102,0.025 -0.154,0.041 v -5.852 l 4.971,-2.834 z"
     fill="#9cebff"
     stroke-width="0"
     id="path19" />
  <path
     d="m 10.603,7.81475 c -0.754,0 -1.365,0.611 -1.365,1.365 0,0.754 0.611,1.365 1.365,1.365 0.754,0 1.365,-0.611 1.365,-1.365 0,-0.754 -0.611,-1.365 -1.365,-1.365 z m 0,-3.668 c 0.691,0 1.251,-0.56 1.251,-1.251 0,-0.691 -0.56,-1.251 -1.251,-1.251 -0.691,0 -1.251,0.56 -1.251,1.251 0,0.691 0.56,1.251 1.251,1.251 z m -5.748,7.217 c -0.691,0 -1.251,0.56 -1.251,1.251 0,0.691 0.56,1.251 1.251,1.251 0.691,0 1.251,-0.56 1.251,-1.251 0,-0.691 -0.56,-1.251 -1.251,-1.251 z m 11.496,-4.145 c 0.691,0 1.251,-0.56 1.251,-1.251 0,-0.691 -0.56,-1.251 -1.251,-1.251 -0.691,0 -1.251,0.56 -1.251,1.251 0,0.691 0.56,1.251 1.251,1.251 z m 0,4.055 c -0.691,0 -1.251,0.56 -1.251,1.251 0,0.691 0.56,1.251 1.251,1.251 0.691,0 1.251,-0.56 1.251,-1.251 0,-0.691 -0.56,-1.251 -1.251,-1.251 z m -5.748,3.166 c -0.691,0 -1.251,0.56 -1.251,1.251 0,0.691 0.56,1.251 1.251,1.251 0.691,0 1.251,-0.56 1.251,-1.251 0,-0.691 -0.56,-1.251 -1.251,-1.251 z m -5.748,-9.482 c -0.691,0 -1.251,0.56 -1.251,1.251 0,0.691 0.56,1.251 1.251,1.251 0.691,0 1.251,-0.56 1.251,-1.251 0,-0.691 -0.56,-1.251 -1.251,-1.251 z"
     fill="url(#uuid-5164aee9-f3c2-40cf-93c1-ac4198b3a6f1)"
     stroke-width="0"
     id="path21"
     style="fill:url(#uuid-5164aee9-f3c2-40cf-93c1-ac4198b3a6f1)" />
  <path
     d="m 10.603,1.24675 c -0.909,0 -1.649,0.74 -1.649,1.649 0,0.909 0.74,1.649 1.649,1.649 0.909,0 1.649,-0.74 1.649,-1.649 0,-0.909 -0.74,-1.649 -1.649,-1.649 z m 0,2.9 c -0.691,0 -1.251,-0.56 -1.251,-1.251 0,-0.691 0.56,-1.251 1.251,-1.251 0.691,0 1.251,0.56 1.251,1.251 0,0.691 -0.56,1.251 -1.251,1.251 z m -5.748,6.818 c -0.909,0 -1.649,0.74 -1.649,1.649 0,0.909 0.74,1.649 1.649,1.649 0.909,0 1.649,-0.74 1.649,-1.649 0,-0.909 -0.74,-1.649 -1.649,-1.649 z m 0,2.9 c -0.691,0 -1.251,-0.56 -1.251,-1.251 0,-0.691 0.56,-1.251 1.251,-1.251 0.691,0 1.251,0.56 1.251,1.251 0,0.691 -0.56,1.251 -1.251,1.251 z m 11.496,-2.991 c -0.909,0 -1.649,0.74 -1.649,1.649 0,0.909 0.74,1.649 1.649,1.649 0.909,0 1.649,-0.74 1.649,-1.649 0,-0.909 -0.74,-1.649 -1.649,-1.649 z m 0,2.9 c -0.691,0 -1.251,-0.56 -1.251,-1.251 0,-0.691 0.56,-1.251 1.251,-1.251 0.691,0 1.251,0.56 1.251,1.251 0,0.691 -0.56,1.251 -1.251,1.251 z M 4.855,4.55975 c -0.909,0 -1.649,0.74 -1.649,1.649 0,0.909 0.74,1.649 1.649,1.649 0.909,0 1.649,-0.74 1.649,-1.649 0,-0.909 -0.74,-1.649 -1.649,-1.649 z m 0,2.9 c -0.691,0 -1.251,-0.56 -1.251,-1.251 0,-0.691 0.56,-1.251 1.251,-1.251 0.691,0 1.251,0.56 1.251,1.251 0,0.691 -0.56,1.251 -1.251,1.251 z m 5.748,6.581 c -0.909,0 -1.649,0.74 -1.649,1.649 0,0.909 0.74,1.649 1.649,1.649 0.909,0 1.649,-0.74 1.649,-1.649 0,-0.909 -0.74,-1.649 -1.649,-1.649 z m 0,2.9 c -0.691,0 -1.251,-0.56 -1.251,-1.251 0,-0.691 0.56,-1.251 1.251,-1.251 0.691,0 1.251,0.56 1.251,1.251 0,0.691 -0.56,1.251 -1.251,1.251 z m 5.748,-9.324 c 0.909,0 1.649,-0.74 1.649,-1.649 0,-0.909 -0.74,-1.649 -1.649,-1.649 -0.909,0 -1.649,0.74 -1.649,1.649 0,0.909 0.74,1.649 1.649,1.649 z m 0,-2.9 c 0.691,0 1.251,0.56 1.251,1.251 0,0.691 -0.56,1.251 -1.251,1.251 -0.691,0 -1.251,-0.56 -1.251,-1.251 0,-0.691 0.56,-1.251 1.251,-1.251 z"
     fill="#ffffff"
     stroke-width="0"
     id="path23" />
</svg>
