<svg id="uuid-8d5d2334-5088-431f-a8a0-30c877129c16"
	xmlns="http://www.w3.org/2000/svg" width="18" height="18" viewBox="0 0 18 18">
	<defs>
		<linearGradient id="uuid-1296b0d8-000a-4439-be93-cd12e9071fd1" x1="6.072" y1="14.741" x2="6.072" y2=".729" gradientTransform="matrix(1, 0, 0, 1, 0, 0)" gradientUnits="userSpaceOnUse">
			<stop offset="0" stop-color="#0078d4" />
			<stop offset="1" stop-color="#5ea0ef" />
		</linearGradient>
		<linearGradient id="uuid-f146dfa7-77de-49f1-bf46-63534d91932e" x1="9.671" y1="14.658" x2="9.671" y2="11.317" gradientTransform="matrix(1, 0, 0, 1, 0, 0)" gradientUnits="userSpaceOnUse">
			<stop offset="0" stop-color="#32bedd" />
			<stop offset="1" stop-color="#50e6ff" />
		</linearGradient>
		<linearGradient id="uuid-63c6dcba-d533-41c0-a320-5a4c5c0367b5" x1="11.414" y1="18" x2="11.414" y2="12.987" gradientTransform="matrix(1, 0, 0, 1, 0, 0)" gradientUnits="userSpaceOnUse">
			<stop offset="0" stop-color="#50e6ff" />
			<stop offset="1" stop-color="#9cebff" />
		</linearGradient>
	</defs>
	<path d="M4.406,14.658v-1.671c0-1.374,2.649-2.093,5.265-2.093,.852,0,1.707,.077,2.474,.227V5.204c0-.16-.076-.311-.205-.406h-3.823c-.476-.003-.859-.392-.856-.869V.12c-.091-.077-.207-.119-.326-.12H.504C.225,0,0,.227,0,.507V14.399H0c0,.28,.227,.505,.505,.505h3.901v-.245Z" fill="url(#uuid-1296b0d8-000a-4439-be93-cd12e9071fd1)" />
	<path d="M11.953,4.798h-3.835c-.476-.003-.859-.392-.856-.869V.111l4.691,4.688Z" fill="#0078d4" />
	<g>
		<g id="uuid-b6c5292a-312c-49a9-8ae0-9a149525e09b">
			<path d="M9.894,8.509l-.089-.089c-.062-.062-.162-.062-.224,0l-.902,.896-.369-.37c-.062-.062-.162-.062-.224,0l-.093,.094c-.062,.062-.062,.163,0,.225l.574,.576c.061,.062,.161,.063,.223,.002l.002-.002,1.103-1.106c.062-.061,.062-.161,0-.223h0v-.002Z" fill="#c3f1ff" />
			<rect x="2.378" y="8.786" width="4.659" height=".772" rx=".385" ry=".385" fill="#c3f1ff" />
		</g>
		<g id="uuid-5ab77730-6acc-4d91-90db-db7ab05ab0cc">
			<path d="M9.894,5.777l-.089-.089c-.061-.062-.161-.063-.223-.002l-.002,.002-.902,.896-.369-.37c-.062-.062-.162-.062-.224,0l-.093,.094c-.062,.062-.062,.163,0,.225l.574,.576c.061,.062,.161,.063,.223,.002l.002-.002,1.103-1.106c.062-.061,.062-.161,0-.223h0v-.002Z" fill="#c3f1ff" />
			<rect x="2.378" y="6.054" width="4.659" height=".772" rx=".385" ry=".385" fill="#c3f1ff" />
		</g>
	</g>
	<g>
		<path d="M9.671,11.317c-2.675,0-4.844,.748-4.844,1.671,0,.47,.563,.895,1.47,1.199,.872,.292,2.062,.472,3.374,.472,.507,0,.994-.027,1.453-.077,.73-.079,1.385-.216,1.921-.395,.906-.304,1.47-.728,1.47-1.199,0-.923-2.169-1.671-4.844-1.671Zm2.52,1.698h0c-.388,.157-.875,.277-1.407,.347-.359,.047-.733,.071-1.112,.071-.945,0-1.864-.152-2.52-.418-.13-.053-.128-.237,.002-.288,.549-.218,1.411-.417,2.518-.417s1.969,.199,2.518,.417c.13,.052,.132,.236,.002,.288Z" fill="url(#uuid-f146dfa7-77de-49f1-bf46-63534d91932e)" />
		<path d="M13.045,14.186c-.535,.179-1.191,.316-1.921,.395-.459,.05-.947,.077-1.453,.077h4.844v-1.671c0,.47-.563,.895-1.47,1.199Z" fill="#198ab3" />
		<path d="M17.778,14.658H9.671c-1.312,0-2.502-.18-3.374-.472-.906-.304-1.47-.728-1.47-1.199v3.342c0,.47,.563,.895,1.47,1.199,.872,.292,2.062,.472,3.374,.472h8.106c.123,0,.222-.1,.222-.223v-2.896c0-.123-.1-.223-.222-.223Z" fill="url(#uuid-63c6dcba-d533-41c0-a320-5a4c5c0367b5)" />
		<g>
			<path d="M10.922,17.993v-1.064c0-.092-.075-.167-.167-.167s-.167,.075-.167,.167v1.071h.333v-.007Z" fill="#32bedd" />
			<path d="M12.421,17.993v-2.055c0-.092-.075-.167-.167-.167s-.167,.075-.167,.167v2.061h.333v-.007Z" fill="#32bedd" />
			<path d="M15.251,15.772c-.092,0-.167,.075-.167,.167v2.061h.333v-2.061c0-.092-.074-.167-.166-.167Z" fill="#32bedd" />
			<path d="M16.749,16.762c-.092,0-.167,.075-.167,.167v1.071h.333v-1.071c0-.092-.074-.167-.166-.167Z" fill="#32bedd" />
			<path d="M13.919,17.993v-1.064c0-.092-.075-.167-.167-.167s-.167,.075-.167,.167v1.071h.333v-.007Z" fill="#32bedd" />
			<path d="M9.257,15.772c-.092,0-.167,.075-.167,.167v2.049c.11,.005,.221,.008,.333,.01v-2.059c0-.092-.074-.167-.166-.167Z" fill="#32bedd" />
			<path d="M7.759,16.762c-.092,0-.167,.075-.167,.167v.909c.109,.018,.22,.034,.334,.049v-.958c0-.092-.075-.167-.167-.167Z" fill="#32bedd" />
			<path d="M6.297,17.528c.042,.014,.086,.028,.13,.041v-1.631c0-.092-.075-.167-.167-.167s-.167,.075-.167,.167v1.517c.066,.025,.134,.049,.204,.073Z" fill="#32bedd" />
		</g>
	</g>
</svg>