<?xml version="1.0" encoding="utf-8"?>
<svg version="1.1" id="Layer_1" xmlns="http://www.w3.org/2000/svg" xmlns:xlink="http://www.w3.org/1999/xlink" x="0px" y="0px"
	 viewBox="0 0 142.398 288.854" style="enable-background:new 0 0 142.398 288.854;" xml:space="preserve">
<style type="text/css">
	.st0{fill:#E7EBF0;}
	.st1{fill:none;stroke:#B8C6D3;stroke-width:1.941;stroke-linecap:round;stroke-linejoin:round;}
	.st2{fill:none;stroke:#626366;stroke-width:2.676;stroke-linejoin:round;}
	.st3{fill:#898B8E;}
	.st4{fill:#BBBDBF;}
	.st5{fill:#B3B5B7;}
	.st6{fill:none;stroke:#DFE0DF;stroke-width:0.655;stroke-linecap:round;stroke-linejoin:round;}
	.st7{fill:#FEFEFE;}
	.st8{fill:none;stroke:#626366;stroke-width:2.621;stroke-linecap:round;stroke-linejoin:round;}
</style>
<title>icon-datacenter-rack3</title>
<desc>Created with Sketch.</desc>
<path id="Fill-1" class="st0" d="M0.976,32.926c0-1.228,0.06-1.916,0.306-2.581c0.247-0.665,1.627-1.4,1.627-1.4L55.914,0.97
	l82.568,47.6c0,0,2.17,0.975,2.602,2.545c0.492,1.784,0.31,5.347,0.31,5.347l-0.125,196.828c0,0,0.163,4.29-0.888,5.52
	c-0.573,0.678-3.044,2.162-3.044,2.162l-50.77,26.012c0,0-3.595,2.204-7.228-0.288c-3.35-2.297-67.101-38.225-67.101-38.225
	s-11.449-3.66-11.262-22.524C1.136,209.365,0.934,52.008,0.976,32.926"/>
<path id="Stroke-3" class="st1" d="M0.976,32.926c0-1.228,0.06-1.916,0.306-2.581c0.247-0.665,1.627-1.4,1.627-1.4L55.914,0.97
	l82.568,47.6c0,0,2.17,0.975,2.602,2.545c0.492,1.784,0.31,5.347,0.31,5.347l-0.125,196.828c0,0,0.163,4.29-0.888,5.52
	c-0.573,0.678-3.044,2.162-3.044,2.162l-50.77,26.012c0,0-3.595,2.204-7.228-0.288c-3.35-2.297-67.101-38.225-67.101-38.225
	s-11.449-3.66-11.262-22.524C1.136,209.365,0.934,52.008,0.976,32.926z"/>
<polygon id="Stroke-5" class="st2" points="86.917,193.531 124.282,173.423 124.323,251.697 86.956,272.24 "/>
<polygon id="Stroke-7" class="st2" points="17.544,151.275 54.91,131.167 124.282,173.422 86.917,193.531 "/>
<polygon id="Stroke-9" class="st2" points="86.917,193.531 86.956,272.24 17.583,230.531 17.544,151.275 "/>
<polygon id="Fill-11" class="st3" points="86.917,193.531 124.282,173.423 124.323,251.697 86.956,272.24 "/>
<polygon id="Fill-13" class="st4" points="17.544,151.275 54.91,131.167 124.282,173.422 86.917,193.531 "/>
<polygon id="Fill-15" class="st5" points="86.917,193.531 86.956,272.24 17.583,230.531 17.544,151.275 "/>
<polyline id="Stroke-17" class="st6" points="17.544,151.148 86.956,192.773 86.956,272.24 "/>
<polygon id="Fill-19" class="st7" points="24.082,181.463 24.082,167.163 25.449,167.986 25.449,182.286 "/>
<polygon id="Fill-21" class="st7" points="20.526,179.327 20.526,165.027 21.899,165.852 21.899,180.152 "/>
<polygon id="Fill-23" class="st7" points="27.471,183.499 27.471,169.201 28.844,170.025 28.844,184.323 "/>
<polygon id="Fill-25" class="st7" points="30.689,185.43 30.689,171.133 32.059,171.956 32.059,186.256 "/>
<polygon id="Fill-27" class="st7" points="34.021,187.434 34.021,173.137 35.388,173.958 35.388,188.257 "/>
<polygon id="Fill-29" class="st7" points="41.249,191.676 41.249,177.377 42.617,178.199 42.617,192.499 "/>
<polygon id="Fill-31" class="st7" points="37.693,189.54 37.693,175.241 39.066,176.066 39.066,190.366 "/>
<polygon id="Fill-33" class="st7" points="44.638,193.714 44.638,179.413 46.011,180.239 46.011,194.536 "/>
<polygon id="Fill-35" class="st7" points="47.856,195.644 47.856,181.346 49.226,182.169 49.226,196.469 "/>
<polygon id="Fill-37" class="st7" points="51.188,197.648 51.188,183.351 52.556,184.173 52.556,198.469 "/>
<polygon id="Fill-39" class="st7" points="58.063,201.785 58.063,187.484 59.433,188.308 59.433,202.607 "/>
<polygon id="Fill-41" class="st7" points="54.511,199.648 54.511,185.349 55.881,186.174 55.881,200.474 "/>
<polygon id="Fill-43" class="st7" points="61.456,203.822 61.456,189.521 62.826,190.346 62.826,204.645 "/>
<polygon id="Fill-45" class="st7" points="64.671,205.753 64.671,191.456 66.041,192.279 66.041,206.577 "/>
<polygon id="Fill-47" class="st7" points="68.003,207.757 68.003,193.46 69.374,194.282 69.374,208.579 "/>
<polygon id="Fill-49" class="st7" points="75.112,212.277 75.112,197.977 76.482,198.799 76.482,213.1 "/>
<polygon id="Fill-51" class="st7" points="71.558,210.141 71.558,195.84 72.928,196.665 72.928,210.965 "/>
<polygon id="Fill-53" class="st7" points="78.504,214.314 78.504,200.015 79.874,200.84 79.874,215.137 "/>
<polygon id="Fill-55" class="st7" points="81.72,216.245 81.72,201.948 83.09,202.771 83.09,217.071 "/>
<polygon id="Fill-57" class="st7" points="23.953,199.922 23.953,185.622 25.321,186.443 25.321,200.743 "/>
<polygon id="Fill-59" class="st7" points="20.397,197.786 20.397,183.486 21.77,184.311 21.77,198.611 "/>
<polygon id="Fill-61" class="st7" points="27.343,201.958 27.343,187.659 28.716,188.484 28.716,202.782 "/>
<polygon id="Fill-63" class="st7" points="30.56,203.889 30.56,189.592 31.93,190.413 31.93,204.714 "/>
<polygon id="Fill-65" class="st7" points="33.892,205.893 33.892,191.596 35.26,192.418 35.26,206.715 "/>
<polygon id="Fill-67" class="st7" points="41.12,210.135 41.12,195.836 42.488,196.658 42.488,210.958 "/>
<polygon id="Fill-69" class="st7" points="37.565,207.999 37.565,193.7 38.938,194.525 38.938,208.825 "/>
<polygon id="Fill-71" class="st7" points="44.51,212.173 44.51,197.872 45.883,198.698 45.883,212.995 "/>
<polygon id="Fill-73" class="st7" points="47.728,214.103 47.728,199.805 49.098,200.628 49.098,214.928 "/>
<polygon id="Fill-75" class="st7" points="51.06,216.107 51.06,201.809 52.427,202.632 52.427,216.928 "/>
<polygon id="Fill-77" class="st7" points="57.935,220.243 57.935,205.943 59.305,206.766 59.305,221.066 "/>
<polygon id="Fill-79" class="st7" points="54.382,218.107 54.382,203.808 55.753,204.633 55.753,218.933 "/>
<polygon id="Fill-81" class="st7" points="61.327,222.281 61.327,207.98 62.697,208.805 62.697,223.103 "/>
<polygon id="Fill-83" class="st7" points="64.543,224.212 64.543,209.915 65.913,210.736 65.913,225.036 "/>
<polygon id="Fill-85" class="st7" points="67.875,226.215 67.875,211.918 69.245,212.741 69.245,227.038 "/>
<polygon id="Fill-87" class="st7" points="74.983,230.736 74.983,216.436 76.353,217.258 76.353,231.559 "/>
<polygon id="Fill-89" class="st7" points="71.43,228.6 71.43,214.299 72.8,215.124 72.8,229.424 "/>
<polygon id="Fill-91" class="st7" points="78.375,232.773 78.375,218.473 79.745,219.298 79.745,233.596 "/>
<polygon id="Fill-93" class="st7" points="81.591,234.704 81.591,220.407 82.961,221.23 82.961,235.53 "/>
<polygon id="Fill-95" class="st7" points="23.953,218.379 23.953,204.079 25.321,204.904 25.321,219.202 "/>
<polygon id="Fill-97" class="st7" points="20.397,216.245 20.397,201.946 21.77,202.768 21.77,217.068 "/>
<polygon id="Fill-99" class="st7" points="27.343,220.415 27.343,206.118 28.716,206.941 28.716,221.242 "/>
<polygon id="Fill-101" class="st7" points="30.56,222.346 30.56,208.049 31.93,208.872 31.93,223.172 "/>
<polygon id="Fill-103" class="st7" points="33.892,224.35 33.892,210.053 35.26,210.874 35.26,225.173 "/>
<polygon id="Fill-105" class="st7" points="41.12,228.592 41.12,214.293 42.488,215.118 42.488,229.415 "/>
<polygon id="Fill-107" class="st7" points="37.565,226.458 37.565,212.16 38.938,212.982 38.938,227.282 "/>
<polygon id="Fill-109" class="st7" points="44.51,230.63 44.51,216.333 45.883,217.155 45.883,231.454 "/>
<polygon id="Fill-111" class="st7" points="47.728,232.56 47.728,218.262 49.098,219.085 49.098,233.385 "/>
<polygon id="Fill-113" class="st7" points="51.06,234.564 51.06,220.267 52.427,221.089 52.427,235.385 "/>
<polygon id="Fill-115" class="st7" points="57.935,238.701 57.935,224.4 59.305,225.226 59.305,239.523 "/>
<polygon id="Fill-117" class="st7" points="54.382,236.568 54.382,222.268 55.753,223.09 55.753,237.39 "/>
<polygon id="Fill-119" class="st7" points="61.327,240.738 61.327,226.441 62.697,227.262 62.697,241.563 "/>
<polygon id="Fill-121" class="st7" points="64.543,242.669 64.543,228.372 65.913,229.195 65.913,243.493 "/>
<polygon id="Fill-123" class="st7" points="67.875,244.673 67.875,230.376 69.245,231.198 69.245,245.495 "/>
<polygon id="Fill-125" class="st7" points="74.983,249.193 74.983,234.893 76.353,235.719 76.353,250.016 "/>
<polygon id="Fill-127" class="st7" points="71.43,247.06 71.43,232.76 72.8,233.581 72.8,247.882 "/>
<polygon id="Fill-129" class="st7" points="78.375,251.23 78.375,236.933 79.745,237.756 79.745,252.055 "/>
<polygon id="Fill-131" class="st7" points="81.591,253.161 81.591,238.864 82.961,239.687 82.961,253.986 "/>
<polygon id="Fill-133" class="st7" points="82.494,259.3 19.624,221.441 19.624,219.93 82.494,257.792 "/>
<polygon id="Fill-135" class="st7" points="82.494,262.867 19.624,225.008 19.624,223.497 82.494,261.359 "/>
<polygon id="Stroke-137" class="st2" points="87.415,108.543 124.779,88.436 124.819,166.708 87.453,187.253 "/>
<polygon id="Stroke-139" class="st2" points="18.041,66.288 55.407,46.18 124.779,88.435 87.415,108.543 "/>
<polygon id="Stroke-141" class="st2" points="87.415,108.543 87.453,187.253 18.08,145.544 18.041,66.288 "/>
<polygon id="Fill-143" class="st3" points="87.415,108.543 124.779,88.436 124.819,166.708 87.453,187.253 "/>
<polygon id="Fill-145" class="st4" points="18.041,66.288 55.407,46.18 124.779,88.435 87.415,108.543 "/>
<polygon id="Fill-147" class="st5" points="87.415,108.543 87.453,187.253 18.08,145.544 18.041,66.288 "/>
<polyline id="Stroke-149" class="st6" points="18.041,66.16 87.453,107.785 87.453,187.253 "/>
<polygon id="Fill-151" class="st7" points="24.579,96.475 24.579,82.175 25.946,82.997 25.946,97.297 "/>
<polygon id="Fill-153" class="st7" points="21.023,94.34 21.023,80.04 22.395,80.865 22.395,95.165 "/>
<polygon id="Fill-155" class="st7" points="27.968,98.512 27.968,84.213 29.341,85.037 29.341,99.335 "/>
<polygon id="Fill-157" class="st7" points="31.186,100.443 31.186,86.146 32.556,86.968 32.556,101.268 "/>
<polygon id="Fill-159" class="st7" points="34.518,102.447 34.518,88.15 35.885,88.972 35.885,103.269 "/>
<polygon id="Fill-161" class="st7" points="41.746,106.689 41.746,92.389 43.114,93.211 43.114,107.511 "/>
<polygon id="Fill-163" class="st7" points="38.19,104.553 38.19,90.254 39.563,91.078 39.563,105.379 "/>
<polygon id="Fill-165" class="st7" points="45.136,108.726 45.136,94.426 46.509,95.251 46.509,109.548 "/>
<polygon id="Fill-167" class="st7" points="48.353,110.657 48.353,96.36 49.723,97.182 49.723,111.482 "/>
<polygon id="Fill-169" class="st7" points="51.685,112.661 51.685,98.363 53.053,99.186 53.053,113.483 "/>
<polygon id="Fill-171" class="st7" points="58.56,116.798 58.56,102.498 59.93,103.32 59.93,117.62 "/>
<polygon id="Fill-173" class="st7" points="55.008,114.662 55.008,100.362 56.378,101.187 56.378,115.487 "/>
<polygon id="Fill-175" class="st7" points="61.952,118.835 61.952,104.535 63.323,105.36 63.323,119.657 "/>
<polygon id="Fill-177" class="st7" points="65.168,120.765 65.168,106.468 66.538,107.29 66.538,121.59 "/>
<polygon id="Fill-179" class="st7" points="68.5,122.769 68.5,108.471 69.871,109.294 69.871,123.59 "/>
<polygon id="Fill-181" class="st7" points="75.608,127.29 75.608,112.99 76.979,113.813 76.979,128.113 "/>
<polygon id="Fill-183" class="st7" points="72.055,125.154 72.055,110.854 73.425,111.679 73.425,125.979 "/>
<polygon id="Fill-185" class="st7" points="79.001,129.327 79.001,115.027 80.371,115.852 80.371,130.15 "/>
<polygon id="Fill-187" class="st7" points="82.216,131.258 82.216,116.961 83.587,117.784 83.587,132.083 "/>
<polygon id="Fill-189" class="st7" points="24.45,114.934 24.45,100.634 25.817,101.456 25.817,115.756 "/>
<polygon id="Fill-191" class="st7" points="20.894,112.799 20.894,98.499 22.267,99.324 22.267,113.624 "/>
<polygon id="Fill-193" class="st7" points="27.84,116.971 27.84,102.672 29.212,103.496 29.212,117.793 "/>
<polygon id="Fill-195" class="st7" points="31.057,118.902 31.057,104.604 32.427,105.427 32.427,119.727 "/>
<polygon id="Fill-197" class="st7" points="34.389,120.906 34.389,106.608 35.757,107.431 35.757,121.728 "/>
<polygon id="Fill-199" class="st7" points="41.618,125.147 41.618,110.847 42.985,111.67 42.985,125.97 "/>
<polygon id="Fill-201" class="st7" points="38.062,123.011 38.062,108.712 39.434,109.536 39.434,123.837 "/>
<polygon id="Fill-203" class="st7" points="45.007,127.185 45.007,112.885 46.38,113.71 46.38,128.007 "/>
<polygon id="Fill-205" class="st7" points="48.225,129.116 48.225,114.818 49.595,115.641 49.595,129.941 "/>
<polygon id="Fill-207" class="st7" points="51.557,131.118 51.557,116.822 52.924,117.644 52.924,131.941 "/>
<polygon id="Fill-209" class="st7" points="58.432,135.256 58.432,120.956 59.802,121.779 59.802,136.079 "/>
<polygon id="Fill-211" class="st7" points="54.879,133.12 54.879,118.82 56.25,119.645 56.25,133.945 "/>
<polygon id="Fill-213" class="st7" points="61.824,137.294 61.824,122.993 63.194,123.819 63.194,138.116 "/>
<polygon id="Fill-215" class="st7" points="65.04,139.224 65.04,124.926 66.41,125.749 66.41,140.049 "/>
<polygon id="Fill-217" class="st7" points="68.372,141.227 68.372,126.93 69.742,127.753 69.742,142.049 "/>
<polygon id="Fill-219" class="st7" points="75.48,145.749 75.48,131.449 76.85,132.271 76.85,146.571 "/>
<polygon id="Fill-221" class="st7" points="71.928,143.613 71.928,129.313 73.298,130.137 73.298,144.438 "/>
<polygon id="Fill-223" class="st7" points="78.872,147.786 78.872,133.486 80.242,134.311 80.242,148.607 "/>
<polygon id="Fill-225" class="st7" points="82.088,149.717 82.088,135.42 83.458,136.242 83.458,150.542 "/>
<polygon id="Fill-227" class="st7" points="24.45,133.391 24.45,119.09 25.817,119.916 25.817,134.213 "/>
<polygon id="Fill-229" class="st7" points="20.894,131.258 20.894,116.959 22.267,117.781 22.267,132.081 "/>
<polygon id="Fill-231" class="st7" points="27.84,135.428 27.84,121.132 29.212,121.953 29.212,136.254 "/>
<polygon id="Fill-233" class="st7" points="31.057,137.359 31.057,123.062 32.427,123.884 32.427,138.184 "/>
<polygon id="Fill-235" class="st7" points="34.389,139.363 34.389,125.066 35.757,125.888 35.757,140.185 "/>
<polygon id="Fill-237" class="st7" points="41.618,143.605 41.618,129.305 42.985,130.13 42.985,144.426 "/>
<polygon id="Fill-239" class="st7" points="38.062,141.471 38.062,127.172 39.434,127.993 39.434,142.295 "/>
<polygon id="Fill-241" class="st7" points="45.007,145.642 45.007,131.344 46.38,132.167 46.38,146.467 "/>
<polygon id="Fill-243" class="st7" points="48.225,147.573 48.225,133.275 49.595,134.098 49.595,148.398 "/>
<polygon id="Fill-245" class="st7" points="51.557,149.577 51.557,135.279 52.924,136.102 52.924,150.398 "/>
<polygon id="Fill-247" class="st7" points="58.432,153.714 58.432,139.413 59.802,140.239 59.802,154.536 "/>
<polygon id="Fill-249" class="st7" points="54.879,151.579 54.879,137.28 56.25,138.103 56.25,152.402 "/>
<polygon id="Fill-251" class="st7" points="61.824,155.751 61.824,141.454 63.194,142.275 63.194,156.576 "/>
<polygon id="Fill-253" class="st7" points="65.04,157.68 65.04,143.383 66.41,144.206 66.41,158.506 "/>
<polygon id="Fill-255" class="st7" points="68.372,159.685 68.372,145.387 69.742,146.21 69.742,160.507 "/>
<polygon id="Fill-257" class="st7" points="75.48,164.206 75.48,149.906 76.85,150.73 76.85,165.029 "/>
<polygon id="Fill-259" class="st7" points="71.928,162.073 71.928,147.773 73.298,148.594 73.298,162.895 "/>
<polygon id="Fill-261" class="st7" points="78.872,166.243 78.872,151.946 80.242,152.768 80.242,167.068 "/>
<polygon id="Fill-263" class="st7" points="82.088,168.174 82.088,153.877 83.458,154.7 83.458,168.999 "/>
<polygon id="Fill-265" class="st7" points="82.991,174.313 20.121,136.452 20.121,134.941 82.991,172.805 "/>
<polygon id="Fill-267" class="st7" points="82.991,177.881 20.121,140.02 20.121,138.51 82.991,176.372 "/>
<polygon id="Fill-269" class="st7" points="31.182,218.551 27.948,216.614 27.948,214.505 31.182,216.445 "/>
<polygon id="Stroke-271" class="st8" points="86.686,93.25 123.622,73.643 123.629,84.2 86.691,103.808 "/>
<polygon id="Stroke-273" class="st8" points="18.209,52.103 55.147,32.498 123.622,73.642 86.687,93.249 "/>
<polygon id="Stroke-275" class="st8" points="86.686,93.25 86.691,103.808 18.216,62.661 18.208,52.104 "/>
<polygon id="Fill-277" class="st3" points="86.686,93.25 123.622,73.646 123.629,84.2 86.691,103.808 "/>
<polygon id="Fill-279" class="st4" points="18.209,52.104 55.147,32.498 123.622,73.645 86.687,93.25 "/>
<polygon id="Fill-281" class="st5" points="86.686,93.25 86.691,103.808 18.216,62.661 18.208,52.104 "/>
<polyline id="Stroke-283" class="st6" points="18.541,52.11 86.672,93.047 86.672,103.525 "/>
<polygon id="Fill-285" class="st7" points="81.322,99.026 79.404,97.877 79.404,95.639 81.322,96.791 "/>
<polygon id="Stroke-287" class="st8" points="86.951,76.393 123.889,56.785 123.894,67.343 86.958,86.951 "/>
<polygon id="Stroke-289" class="st8" points="18.474,35.249 55.411,15.642 123.889,56.785 86.951,76.394 "/>
<polygon id="Stroke-291" class="st8" points="86.951,76.393 86.958,86.951 18.481,45.806 18.474,35.248 "/>
<polygon id="Fill-293" class="st3" points="86.951,76.393 123.889,56.788 123.894,67.346 86.958,86.954 "/>
<polygon id="Fill-295" class="st4" points="18.474,35.25 55.411,15.642 123.889,56.788 86.951,76.394 "/>
<polygon id="Fill-297" class="st5" points="86.951,76.393 86.958,86.954 18.481,45.806 18.474,35.249 "/>
<polyline id="Stroke-299" class="st6" points="18.805,35.255 86.938,76.193 86.938,86.671 "/>
<polygon id="Fill-301" class="st7" points="81.587,82.173 79.669,81.024 79.669,78.785 81.587,79.937 "/>
<polygon id="Fill-303" class="st7" points="44.387,72.965 32.986,66.116 32.986,63.431 44.387,70.279 "/>
<polygon id="Fill-305" class="st7" points="44.344,77.024 32.944,70.175 32.944,67.492 44.344,74.34 "/>
<polygon id="Fill-307" class="st7" points="54.677,83.195 45.923,77.935 45.923,75.872 54.677,81.132 "/>
<polygon id="Fill-309" class="st7" points="31.836,65.377 20.438,58.528 20.438,55.839 31.836,62.686 "/>
<polygon id="Fill-311" class="st7" points="31.796,69.438 20.398,62.589 20.398,59.901 31.796,66.75 "/>
<polygon id="Fill-313" class="st7" points="59.311,86.009 56.078,84.073 56.078,82.023 59.311,83.959 "/>
<polygon id="Fill-315" class="st7" points="44.098,55.091 32.698,48.243 32.698,45.556 44.098,52.405 "/>
<polygon id="Fill-317" class="st7" points="44.054,59.149 32.653,52.3 32.653,49.616 44.054,56.466 "/>
<polygon id="Fill-319" class="st7" points="54.388,65.322 45.634,60.061 45.634,57.999 54.388,63.258 "/>
<polygon id="Fill-321" class="st7" points="31.548,47.503 20.15,40.653 20.15,37.963 31.548,44.813 "/>
<polygon id="Fill-323" class="st7" points="31.507,51.562 20.109,44.713 20.109,42.027 31.507,48.875 "/>
<polygon id="Fill-325" class="st7" points="59.024,68.135 55.79,66.198 55.79,64.149 59.024,66.084 "/>
</svg>
