<?xml version="1.0" encoding="utf-8"?>
<svg version="1.1" id="Layer_1" xmlns="http://www.w3.org/2000/svg" xmlns:xlink="http://www.w3.org/1999/xlink" x="0px" y="0px"
	 viewBox="0 0 128.816 111.766" style="enable-background:new 0 0 128.816 111.766;" xml:space="preserve">
<style type="text/css">
	.st0{fill:none;stroke:#626366;stroke-width:3.124;stroke-linejoin:round;}
	.st1{fill:#416895;}
	.st2{fill:#7D91B4;}
	.st3{fill:#607BA4;}
	.st4{fill:none;stroke:#DFE0DF;stroke-width:1.033;stroke-linecap:round;stroke-linejoin:round;}
	.st5{fill:none;stroke:#DFE0DF;stroke-width:1.032;stroke-linecap:round;stroke-linejoin:round;}
	.st6{fill:#DFE0DF;}
	.st7{fill:none;stroke:#FEFEFE;stroke-width:0.437;stroke-linejoin:round;}
</style>
<title>icon-blueSwitch-small-generic</title>
<desc>Created with Sketch.</desc>
<polygon id="Stroke-1" class="st0" points="83.194,73.986 127.225,50.611 127.254,86.831 83.22,110.204 "/>
<polygon id="Stroke-3" class="st0" points="1.562,24.934 45.594,1.562 127.225,50.611 83.194,73.986 "/>
<polygon id="Stroke-5" class="st0" points="83.194,73.986 83.22,110.204 1.587,61.154 1.562,24.934 "/>
<polygon id="Fill-8" class="st1" points="83.194,73.986 127.225,50.611 127.254,86.831 83.22,110.204 "/>
<polygon id="Fill-9" class="st2" points="1.562,24.934 45.594,1.562 127.225,50.611 83.194,73.986 "/>
<polygon id="Fill-10" class="st3" points="83.194,73.986 83.22,110.204 1.587,61.154 1.562,24.934 "/>
<path id="Stroke-11" class="st4" d="M1.562,25.055l81.632,49.456"/>
<path id="Stroke-13" class="st5" d="M83.194,74.602v35.48"/>
<path id="Fill-15" class="st6" d="M22.118,49.625c0,0.369-0.257,0.512-0.57,0.317L6.261,40.477c-0.314-0.195-0.571-0.656-0.57-1.025
	l0.01-7.014c0.001-0.369,0.258-0.511,0.571-0.317l15.282,9.465c0.313,0.194,0.57,0.655,0.57,1.024L22.118,49.625z"/>
<path id="Stroke-17" class="st7" d="M22.118,49.625c0,0.369-0.257,0.512-0.57,0.317L6.261,40.477
	c-0.314-0.195-0.571-0.656-0.57-1.025l0.01-7.014c0.001-0.369,0.258-0.511,0.571-0.317l15.282,9.465
	c0.313,0.194,0.57,0.655,0.57,1.024L22.118,49.625z"/>
<path id="Fill-19" class="st6" d="M22.107,60.247c-0.001,0.369-0.258,0.512-0.571,0.317L6.252,51.097
	c-0.314-0.195-0.571-0.656-0.57-1.025l0.007-7.012c0.001-0.37,0.258-0.512,0.571-0.318l15.284,9.466
	c0.313,0.194,0.57,0.655,0.569,1.024L22.107,60.247z"/>
<path id="Stroke-21" class="st7" d="M22.107,60.247c-0.001,0.369-0.258,0.512-0.571,0.317L6.252,51.097
	c-0.314-0.195-0.571-0.656-0.57-1.025l0.007-7.012c0.001-0.37,0.258-0.512,0.571-0.318l15.284,9.466
	c0.313,0.194,0.57,0.655,0.569,1.024L22.107,60.247z"/>
<path id="Fill-23" class="st6" d="M22.096,70.87c0,0.369-0.257,0.512-0.57,0.317L6.242,61.719c-0.313-0.195-0.57-0.656-0.57-1.025
	l0.006-7.016c0-0.37,0.257-0.512,0.57-0.318l15.284,9.468c0.313,0.194,0.57,0.655,0.57,1.024L22.096,70.87z"/>
<path id="Stroke-25" class="st7" d="M22.096,70.87c0,0.369-0.257,0.512-0.57,0.317L6.242,61.719c-0.313-0.195-0.57-0.656-0.57-1.025
	l0.006-7.016c0-0.37,0.257-0.512,0.57-0.318l15.284,9.468c0.313,0.194,0.57,0.655,0.57,1.024L22.096,70.87z"/>
<path id="Fill-27" class="st6" d="M40.272,60.87c-0.001,0.369-0.258,0.512-0.571,0.317l-15.286-9.465
	c-0.314-0.195-0.571-0.656-0.57-1.025l0.008-7.014c0.001-0.37,0.258-0.512,0.571-0.318l15.286,9.467
	c0.313,0.194,0.57,0.655,0.569,1.024L40.272,60.87z"/>
<path id="Stroke-29" class="st7" d="M40.272,60.87c-0.001,0.369-0.258,0.512-0.571,0.317l-15.286-9.465
	c-0.314-0.195-0.571-0.656-0.57-1.025l0.008-7.014c0.001-0.37,0.258-0.512,0.571-0.318l15.286,9.467
	c0.313,0.194,0.57,0.655,0.569,1.024L40.272,60.87z"/>
<path id="Fill-31" class="st6" d="M40.262,71.49c0,0.369-0.257,0.512-0.57,0.317l-15.286-9.465c-0.314-0.195-0.571-0.656-0.57-1.025
	l0.007-7.014c0.001-0.369,0.258-0.511,0.571-0.317l15.284,9.465c0.313,0.194,0.57,0.655,0.57,1.024L40.262,71.49z"/>
<path id="Stroke-33" class="st7" d="M40.262,71.49c0,0.369-0.257,0.512-0.57,0.317l-15.286-9.465
	c-0.314-0.195-0.571-0.656-0.57-1.025l0.007-7.014c0.001-0.369,0.258-0.511,0.571-0.317l15.284,9.465
	c0.313,0.194,0.57,0.655,0.57,1.024L40.262,71.49z"/>
<path id="Fill-35" class="st6" d="M40.252,82.112c-0.001,0.369-0.258,0.512-0.571,0.317l-15.286-9.466
	c-0.314-0.195-0.571-0.656-0.57-1.025l0.007-7.014c0.001-0.37,0.258-0.512,0.571-0.318l15.287,9.465
	c0.313,0.194,0.57,0.655,0.569,1.024L40.252,82.112z"/>
<path id="Stroke-37" class="st7" d="M40.252,82.112c-0.001,0.369-0.258,0.512-0.571,0.317l-15.286-9.466
	c-0.314-0.195-0.571-0.656-0.57-1.025l0.007-7.014c0.001-0.37,0.258-0.512,0.571-0.318l15.287,9.465
	c0.313,0.194,0.57,0.655,0.569,1.024L40.252,82.112z"/>
<path id="Fill-39" class="st6" d="M58.424,72.116c0,0.369-0.257,0.512-0.57,0.317l-15.285-9.468
	c-0.314-0.195-0.571-0.656-0.571-1.025l0.006-7.014c0-0.37,0.257-0.512,0.57-0.318l15.286,9.469c0.313,0.194,0.57,0.655,0.57,1.024
	L58.424,72.116z"/>
<path id="Stroke-41" class="st7" d="M58.424,72.116c0,0.369-0.257,0.512-0.57,0.317l-15.285-9.468
	c-0.314-0.195-0.571-0.656-0.571-1.025l0.006-7.014c0-0.37,0.257-0.512,0.57-0.318l15.286,9.469c0.313,0.194,0.57,0.655,0.57,1.024
	L58.424,72.116z"/>
<path id="Fill-43" class="st6" d="M58.414,82.735c-0.001,0.369-0.258,0.512-0.571,0.317l-15.286-9.466
	c-0.314-0.195-0.57-0.656-0.57-1.025l0.009-7.014c0.001-0.37,0.258-0.512,0.571-0.318l15.285,9.467
	c0.314,0.194,0.571,0.655,0.57,1.024L58.414,82.735z"/>
<path id="Stroke-45" class="st7" d="M58.414,82.735c-0.001,0.369-0.258,0.512-0.571,0.317l-15.286-9.466
	c-0.314-0.195-0.57-0.656-0.57-1.025l0.009-7.014c0.001-0.37,0.258-0.512,0.571-0.318l15.285,9.467
	c0.314,0.194,0.571,0.655,0.57,1.024L58.414,82.735z"/>
<path id="Fill-47" class="st6" d="M58.402,93.357c-0.001,0.369-0.258,0.512-0.571,0.317L42.548,84.21
	c-0.313-0.195-0.57-0.656-0.569-1.025l0.004-7.018c0.001-0.37,0.258-0.512,0.571-0.318l15.288,9.47
	c0.314,0.194,0.571,0.655,0.57,1.024L58.402,93.357z"/>
<path id="Stroke-49" class="st7" d="M58.402,93.357c-0.001,0.369-0.258,0.512-0.571,0.317L42.548,84.21
	c-0.313-0.195-0.57-0.656-0.569-1.025l0.004-7.018c0.001-0.37,0.258-0.512,0.571-0.318l15.288,9.47
	c0.314,0.194,0.571,0.655,0.57,1.024L58.402,93.357z"/>
</svg>
