<?xml version="1.0" encoding="utf-8"?>
<!-- Generator: Adobe Illustrator 21.1.0, SVG Export Plug-In . SVG Version: 6.00 Build 0)  -->
<svg version="1.1" id="Layer_1" xmlns="http://www.w3.org/2000/svg" xmlns:xlink="http://www.w3.org/1999/xlink" x="0px" y="0px"
	 viewBox="0 0 59.8 59.5" style="enable-background:new 0 0 59.8 59.5;" xml:space="preserve">
<style type="text/css">
	.st0{fill:#8DC541;}
	.st1{fill:none;stroke:#FFFFFF;stroke-width:0.75;stroke-miterlimit:10;}
	.st2{fill:#FFFFFF;stroke:#FFFFFF;stroke-width:0.75;stroke-miterlimit:10;}
</style>
<title>INDIVIDUAL ICONS</title>
<ellipse class="st0" cx="29.9" cy="29.8" rx="29.9" ry="29.8"/>
<path class="st1" d="M44.4,52.1c-0.9-0.8-1.8-1.5-2.7-2.4c-1.6-1.5-3.1-3-4.7-4.4c-0.3-0.2-0.6-0.3-0.9-0.4c-3.6-0.6-6.9-2.4-9.5-5
	c-2-2-3.1-4.6-3.3-7.4c-0.3-3.8,1.4-7.5,4.4-9.9c2.8-2.3,6.2-3.7,9.8-4.1c4.9-0.6,9.8,0.7,13.7,3.6c2.7,1.9,4.5,4.8,5,8.1
	c0.1,0.5,0.1,0.9,0.2,1.3V32c-0.1,0.4-0.1,0.8-0.2,1.3c-0.4,2.6-1.6,5.1-3.5,6.9c-2,2-4.6,3.5-7.3,4.3c-0.4,0.1-0.5,0.3-0.4,0.6
	c0.2,1.8,0.5,3.7,0.7,5.6c0.1,0.5-0.2,1.1-0.7,1.3c-0.1,0-0.2,0.1-0.3,0.2L44.4,52.1z"/>
<path class="st1" d="M33.8,31.1c1.2,0,2.1-1,2.1-2.1c0-1.2-1-2.1-2.1-2.1c-1.2,0-2.1,0.9-2.1,2.1c-0.1,1.1,0.8,2,1.9,2.1
	C33.7,31.1,33.7,31.1,33.8,31.1z"/>
<path class="st1" d="M39.9,31.1c1.2,0,2.1-0.9,2.1-2.1s-0.9-2.1-2.1-2.1c-1.2,0-2.1,0.9-2.1,2.1c-0.1,1.1,0.8,2.1,1.9,2.1
	C39.8,31.1,39.9,31.1,39.9,31.1z"/>
<path class="st1" d="M48.2,29c0-1.2-0.9-2.1-2.1-2.1C45,26.9,44,27.8,44,29c0,1.1,0.9,2.1,2,2.1c1.1,0.1,2.1-0.7,2.1-1.8
	C48.2,29.2,48.2,29.1,48.2,29z"/>
<path class="st2" d="M15,24.9c1.2,0,2.1-0.9,2.1-2.1s-0.9-2.1-2.1-2.1s-2.1,0.9-2.1,2.1S13.9,24.9,15,24.9z"/>
<path class="st2" d="M23.3,22.9c0-1.2-0.9-2.1-2.1-2.1s-2.1,0.9-2.1,2.1c0,1.1,0.9,2.1,2,2.1c1.1,0.1,2.1-0.7,2.1-1.8
	C23.3,23,23.3,22.9,23.3,22.9z"/>
<path class="st2" d="M21.6,9.9c1,0.1,1.9,0.2,2.9,0.4c3.9,0.7,7.4,2.7,9.9,5.7c0.2,0.2,0.3,0.4,0.5,0.7c-0.8,0.3-1.6,0.5-2.4,0.7
	c-0.1,0-0.2-0.1-0.2-0.1c-2.6-2.9-6.2-4.6-10.1-4.9C18.2,12,14.2,13,11,15.2c-2.3,1.4-3.9,3.7-4.5,6.3C5.8,24.6,6.8,27.8,9,30
	c2,2.1,4.6,3.6,7.5,4.1c1,0.2,1.3,0.6,1.2,1.7c-0.1,1.1-0.3,2.1-0.4,3.1c0,0.1,0,0.2,0,0.4l4.1-3.9c0.3,0.8,0.6,1.5,0.9,2.2
	c0,0.1,0,0.3-0.1,0.4c-1.9,1.8-3.7,3.6-5.6,5.4c-0.4,0.4-0.9,0.4-1.4,0.2c-0.5-0.2-0.7-0.7-0.6-1.2c0.2-1.8,0.4-3.6,0.7-5.3
	c0.1-0.7,0.1-0.7-0.6-0.9c-3.6-1-6.8-3.3-8.9-6.4c-1-1.5-1.6-3.2-1.8-5c0-0.1-0.1-0.3-0.1-0.4c0-0.5,0-1.1,0-1.6
	c0-0.1,0.1-0.2,0.1-0.3c0.2-2,0.9-3.9,2.1-5.6c2.5-3.4,6.2-5.7,10.4-6.4c0.9-0.2,1.9-0.3,2.9-0.4L21.6,9.9z"/>
</svg>
