<?xml version="1.0" encoding="utf-8"?>
<!-- Generator: Adobe Illustrator 21.1.0, SVG Export Plug-In . SVG Version: 6.00 Build 0)  -->
<svg version="1.1" id="Layer_1" xmlns="http://www.w3.org/2000/svg" xmlns:xlink="http://www.w3.org/1999/xlink" x="0px" y="0px"
	 viewBox="0 0 64.5 64.5" style="enable-background:new 0 0 64.5 64.5;" xml:space="preserve">
<style type="text/css">
	.st0{fill:#7DBD31;}
	.st1{fill:#FFFFFF;}
</style>
<title>IBM Cloud Private Ref Arch</title>
<circle class="st0" cx="32.3" cy="32.3" r="32.3"/>
<path class="st1" d="M9.7,40.1v-1.6c0.4-0.5,0.7-1.2,1.2-1.4c0.9-0.5,1.6-1.3,2-2.2c0.3-0.5,0.6-1,1-1.5c2.5-3.2,5.7-5.8,9.3-7.7
	c0.6-0.3,1-0.8,1.2-1.5c0.2-1.4,1.6-2.3,3-2.1c0.1,0,0.2,0.1,0.4,0.1c0.3,0.1,0.7,0.1,0.9,0c3.3-2.7,7.1-3.9,11.2-4.8
	c0.3-0.1,0.6-0.3,0.8-0.5c0.6-0.7,1.3-1.4,1.9-2.1h1.3c1.2,0.4,2,1.6,2,2.9c0,0.3,0.2,0.6,0.4,0.9c3.5,5.9,5.8,12.4,6.7,19.2
	c0.3,2.2,0,4.7,2,6.4v1.6c-0.2,0.3-0.4,0.5-0.6,0.8c-1.2,1.6-3.8,1.5-4.3-0.3c-0.5-1.4-1.3-1.3-2.3-1.4c-0.8,0-1.5-0.1-2.3-0.1
	c-4.4-0.3-8.7,0.4-12.8,2c-0.4,0.2-0.8,0.5-1.2,0.8c-0.7,0.7-1.2,1.4-1.9,2.1h-1.3c-1.8-0.9-2.1-1.6-1.9-3.5c0-0.3,0-0.6-0.2-0.8
	c-1.9-2.2-4.1-4-7-4.7c-1.9-0.4-3.8-1-5.5,0.8C12.5,42.6,10.9,41.9,9.7,40.1z M31.1,33.6c1,3.5,0.9,7.2-0.4,10.7
	c-0.2,0.4,0,0.8,0.4,0.9c0.2,0.1,0.4,0.1,0.6,0c3.6-1.5,7.4-2.2,11.2-2.1c2.1,0,4.3,0.2,6.4,0.3c0.8,0,1.5-0.2,1-1
	c-1-2.1-2.2-4.2-3.4-6.2c0-0.2-0.5-0.2-0.9-0.2c-0.8-0.1-1.9,0.1-2.3-0.4c-0.8-0.8-1.9-1.2-3-1.2C37.7,34.1,34.5,33.9,31.1,33.6
	L31.1,33.6z M29.7,24.6c6.1-0.8,11,1.4,14.7,6.3c0.5-3.4,0.2-6.9-0.8-10.3c-0.1-0.2-0.3-0.4-0.5-0.5c-0.7-0.4-1.4-0.8-2.1-1.1
	C40.7,19,40.5,19,40.3,19c-3.7,0.8-7.3,1.8-10.3,4.2C29.5,23.6,29.1,24,29.7,24.6L29.7,24.6z M14.8,38.6c3.9-0.4,7.7,0.9,10.5,3.6
	c0.7,0.6,1.3,1.3,2,1.9c0.5,0.4,1.3,0.4,1.7-0.1c0.1-0.1,0.1-0.1,0.1-0.2c1.2-3.2,1.3-6.6,0.3-9.9C24.3,34,18.4,35.9,14.8,38.6
	L14.8,38.6z M31.3,26.3c-0.6,0-1.3,0-1.9,0c-0.7,0.1-1,0.4-0.6,1.1c0.6,1.4,1.2,2.8,1.8,4.1c0.2,0.3,0.4,0.5,0.8,0.6
	c3.6,0.3,7.3,0.5,10.9,0.7c0.8,0,0.9-0.3,0.6-0.9c-0.1-0.3-0.3-0.5-0.5-0.7C39.4,27.7,35.6,26.5,31.3,26.3z M24.7,26.7
	c-4.5,2.5-8.6,5.4-10.9,10.3c4.6-2.8,9.8-4.5,15.2-4.8c-0.7-1.6-1.3-2.9-2-4.3c-0.2-0.2-0.4-0.4-0.6-0.5
	C25.9,27.2,25.4,27,24.7,26.7L24.7,26.7z M45.7,21.2c0.2,2.8,0.3,5.9,0.5,9c0,0.3,0.4,0.6,0.6,0.9c0.4,0.7,1.2,1.5,1.1,2.2
	c-0.1,0.8,0.3,1.7,0.8,2.3c0.3,0.4,0.6,0.8,0.9,1.3c0.3,0.5,0.6,1,0.9,1.5s0.5,0.9,0.7,1.4C50.7,33.2,48.9,26.9,45.7,21.2L45.7,21.2
	z"/>
</svg>
