<?xml version="1.0" encoding="utf-8"?>
<!-- Generator: Adobe Illustrator 21.1.0, SVG Export Plug-In . SVG Version: 6.00 Build 0)  -->
<svg version="1.1" id="Layer_1" xmlns="http://www.w3.org/2000/svg" xmlns:xlink="http://www.w3.org/1999/xlink" x="0px" y="0px"
	 viewBox="0 0 60.5 60.5" style="enable-background:new 0 0 60.5 60.5;" xml:space="preserve">
<style type="text/css">
	.st0{fill:#8CC441;}
	.st1{fill:#FFFFFF;}
</style>
<title>INDIVIDUAL ICONS</title>
<circle class="st0" cx="30.3" cy="30.3" r="30.3"/>
<circle class="st1" cx="29.8" cy="21.5" r="2.5"/>
<rect x="29.1" y="23.4" class="st1" width="1.3" height="23.9"/>
<path class="st1" d="M15,47.7l14.7-26.3l14.7,26.3l-14.7-8.4L15,47.7z M31,38.5l10,5.7l-4.8-8.6L31,38.5z M23.3,35.6l-4.9,8.6
	l10-5.7L23.3,35.6z M23.9,34.4l5.8,3.3l5.8-3.3L29.8,24L23.9,34.4z"/>
<path class="st1" d="M23.4,27.8c-3.2-3.6-3.2-9.1,0-12.7l0.9,0.9c-0.2,0.2-4.6,5,0,11L23.4,27.8z"/>
<path class="st1" d="M19.7,31.3c-8.7-10.5,0-19.6,0-19.7l0.9,0.9c-0.3,0.4-7.9,8.4,0,18L19.7,31.3z M20.7,12.5l-0.5-0.5L20.7,12.5
	L20.7,12.5z"/>
<path class="st1" d="M36.6,28l-1-0.8c4.7-6,0.2-10.8,0-11l0.9-0.9C39.7,18.9,39.8,24.4,36.6,28z"/>
<path class="st1" d="M40.3,31.5l-1-0.8c8-9.6,0.4-17.6,0-18l0.9-0.9C40.3,11.9,49,21,40.3,31.5z"/>
</svg>
