<svg
	xmlns="http://www.w3.org/2000/svg" width="38.437" height="48" viewBox="-0.5 -0.5 38.437 48">
	  <style type="text/css">
		.st0{stop-color:#00ceac;}
		.st1{stop-color:#07838f;}
	  </style>
	<defs>
		<linearGradient id="A" x1="2.986" y1="6.313" x2="38.962" y2="35.687" gradientUnits="userSpaceOnUse">
			<stop class="st0"/>
			<stop offset="1" class="st1"/>
		</linearGradient>
	</defs>
	<path d="M36.437 9.25c1 .437 1.5 1.187 1.5 2.25v28.781a2.43 2.43 0 0 1-.75 1.781c-.437.438-1 .656-1.687.656s-1.281-.219-1.781-.656c-.437-.5-.656-1.093-.656-1.781V13.094L11.594 4.563 7.75 6.438l19.031 7.594c.5.188.875.5 1.125.938.25.375.375.812.375 1.313v28.781c0 .875-.344 1.563-1.031 2.063-.313.25-.75.375-1.313.375-.25 0-.562-.063-.937-.188l-7.219-2.906c-1-.375-1.5-1.094-1.5-2.156 0-.25.062-.563.188-.938.188-.5.469-.875.844-1.125a2.79 2.79 0 0 1 1.406-.375c.188 0 .469.063.844.188l3.938 1.594V17.969L4.281 10.281v10.781c0 .688-.219 1.281-.656 1.781-.437.437-1 .656-1.687.656s-1.281-.219-1.781-.656c-.437-.5-.656-1.094-.656-1.781V6.719c0-1 .344-1.656 1.031-1.969l9.938-4.969c.313-.187.656-.281 1.031-.281.313 0 .563.031.75.094.062.062.125.094.188.094zM17.969 26.594c.5.5.75 1.063.75 1.688s-.25 1.187-.75 1.688l-9.562 9.656c-.437.437-1 .656-1.687.656s-1.25-.219-1.687-.656L.25 34.75c-.5-.5-.75-1.063-.75-1.688s.25-1.187.75-1.687c.437-.438 1-.656 1.688-.656s1.25.219 1.688.656l3.094 3.094 7.875-7.875c.437-.437 1-.656 1.688-.656s1.25.219 1.688.656z" fill="url(#A)"/>
</svg>