<svg
	xmlns="http://www.w3.org/2000/svg" width="35.998" height="45.089" viewBox="-0.5 -0.5 35.998 45.089">
	  <style type="text/css">
		.st0{stop-color:#5b738b;}
		.st1{stop-color:#223548;}
	  </style>
	<defs>
		<linearGradient id="A" x1="17.499" y1="-.5" x2="17.499" y2="44.589" gradientUnits="userSpaceOnUse">
			<stop class="st0"/>
			<stop offset="1" class="st1"/>
		</linearGradient>
	</defs>
	<path d="M9.205 14.592c-.22-.203-.396-.448-.517-.722s-.186-.569-.189-.868c0-.587.234-1.115.706-1.587s.968-.706 1.496-.706c.593 0 1.121.234 1.59.706l3.004 2.911 7.412-7.412c.203-.219.448-.395.721-.517s.568-.186.866-.189c.59 0 1.118.237 1.59.706s.706 1 .706 1.59a2.19 2.19 0 0 1-.189.866c-.121.273-.297.518-.517.721l-9.092 9.004c-.203.22-.449.396-.722.517s-.569.186-.868.189c-.528 0-1.028-.237-1.496-.706l-4.506-4.504zm15.083 7.412c1.471 0 2.205.762 2.205 2.296 0 1.468-.734 2.202-2.202 2.202h-13.59c-1.471 0-2.208-.734-2.208-2.202 0-1.53.734-2.296 2.208-2.296zm0 9.001a2.01 2.01 0 0 1 1.59.706c.206.208.367.457.473.73s.156.564.145.857c0 1.468-.734 2.205-2.208 2.205H10.704c-1.471 0-2.208-.734-2.208-2.205 0-.649.206-1.177.621-1.59a2.01 2.01 0 0 1 1.587-.706h13.587zM30.997-.5A4.33 4.33 0 0 1 34.173.824a4.33 4.33 0 0 1 1.324 3.176v36.088a4.32 4.32 0 0 1-1.324 3.176c-.411.426-.905.763-1.451.991a4.33 4.33 0 0 1-1.725.333H4.001a4.32 4.32 0 0 1-3.176-1.324A4.33 4.33 0 0 1-.5 40.088V4.004A4.32 4.32 0 0 1 .825.827 4.33 4.33 0 0 1 3.998-.497h26.999zm0 4.501H4.001v36.088H31V4.004z" fill="url(#A)"/>
</svg>