<svg
	xmlns="http://www.w3.org/2000/svg" width="45.188" height="45.206" viewBox="-0.5 -0.5 45.188 45.206">
	  <style type="text/css">
		.st0{stop-color:#5b738b;}
		.st1{stop-color:#223548;}
	  </style>
	<defs>
		<linearGradient id="A" x1="22.094" y1="-.5" x2="22.094" y2="44.706" gradientUnits="userSpaceOnUse">
			<stop class="st0"/>
			<stop offset="1" class="st1"/>
		</linearGradient>
	</defs>
	<path fill-rule="evenodd" d="M22.088-.5C13.505-.5 5.492 3.495.039 9.893a2.26 2.26 0 0 0 .256 3.186 2.26 2.26 0 0 0 3.186-.256c4.653-5.461 11.435-8.807 18.607-8.807s13.954 3.346 18.61 8.807a2.26 2.26 0 0 0 3.185.254 2.26 2.26 0 0 0 .254-3.185C38.685 3.495 30.672-.5 22.088-.5zm.508 11.294c-9.978 0-18.099 7.807-18.551 17.61a2.26 2.26 0 0 1-2.363 2.154 2.26 2.26 0 0 1-2.154-2.363C.093 15.972 10.215 6.276 22.597 6.276c8.324 0 14.761 5.105 17.534 8.245 3.942 4.456 5.291 9.32 4.184 13.313-1.135 4.097-4.741 6.731-9.306 6.534-2.821-.119-4.749-1.525-6.073-3.095-.963-1.141-1.722-2.538-2.25-3.518l-.37-.669c-.426-.737-.836-1.316-1.367-1.728-.48-.373-1.172-.7-2.352-.7-2.598 0-4.687 2.101-4.687 4.659 0 4.362 2.146 8.6 5.43 11.339a2.26 2.26 0 0 1 .553.686c.138.263.222.55.248.846a2.26 2.26 0 0 1-.516 1.65 2.26 2.26 0 0 1-1.532.802 2.26 2.26 0 0 1-1.65-.516c-4.23-3.529-7.05-9.007-7.05-14.807 0-5.065 4.122-9.176 9.205-9.176 2.154 0 3.829.644 5.125 1.649 1.24.963 2.002 2.166 2.504 3.035l.006.006.582 1.05c.497.915.94 1.728 1.576 2.482.757.898 1.595 1.44 2.812 1.494 2.55.11 4.207-1.234 4.76-3.227.582-2.101.04-5.438-3.216-9.114-2.318-2.626-7.626-6.72-14.149-6.72zM10.851 29.627c0-6.33 5.181-11.492 11.605-11.492 5.257 0 9.721 3.484 11.133 8.214.085.284.225.549.412.78s.418.421.679.562a2.26 2.26 0 0 0 .843.259c.295.03.594.003.878-.082a2.26 2.26 0 0 0 1.342-1.092 2.26 2.26 0 0 0 .177-1.721c-1.976-6.621-8.188-11.438-15.464-11.438-8.88 0-16.122 7.149-16.122 16.009 0 4.845.983 9.865 3.496 13.971a2.26 2.26 0 0 0 .595.662c.24.179.514.308.805.38a2.26 2.26 0 0 0 1.724-.267 2.26 2.26 0 0 0 1.02-1.416 2.26 2.26 0 0 0-.293-1.72c-1.948-3.179-2.829-7.307-2.829-11.61zm14.089.294a2.26 2.26 0 0 0-.2-.859c-.122-.27-.297-.514-.513-.717s-.471-.361-.749-.466-.573-.153-.87-.144a2.26 2.26 0 0 0-1.576.714 2.26 2.26 0 0 0-.61 1.619c.215 6.647 5.653 11.173 11.915 11.639a2.26 2.26 0 0 0 1.643-.54 2.26 2.26 0 0 0 .78-1.544c.022-.296-.014-.593-.107-.875s-.24-.543-.433-.767a2.26 2.26 0 0 0-1.544-.78c-4.41-.328-7.612-3.363-7.736-7.279z" fill="url(#A)"/>
</svg>