<svg
	xmlns="http://www.w3.org/2000/svg" width="43.221" height="45.139" viewBox="-0.5 -0.5 43.221 45.139">
	  <style type="text/css">
		.st0{stop-color:#5b738b;}
		.st1{stop-color:#223548;}
	  </style>
	<defs>
		<linearGradient id="A" x1="21.11" y1="-.5" x2="21.11" y2="44.639" gradientUnits="userSpaceOnUse">
			<stop class="st0"/>
			<stop offset="1" class="st1"/>
		</linearGradient>
	</defs>
	<path d="M35.531 23.147c0 .649-.206 1.177-.618 1.59-.353.353-.853.528-1.499.528-.577.025-1.142-.163-1.59-.528-.365-.447-.553-1.013-.528-1.59v-4.323c0-1.355.559-2.499 1.677-3.442l1.94-1.499-1.499-3.001-2.558 1.059c-.649.237-1.327.353-2.033.353a4.55 4.55 0 0 1-1.849-.528l-3.62-2.118c-1.115-.762-1.765-1.705-1.94-2.824l-.44-2.736h-3.001l-.618 2.736c-.135.569-.374 1.108-.706 1.59-.294.469-.706.881-1.234 1.234l-3.707 2.118a5.73 5.73 0 0 1-1.852.618 3.36 3.36 0 0 1-1.94-.443l-2.648-1.059-1.499 3.001 1.94 1.499c.59.472 1.031 1 1.327 1.59.291.587.438 1.206.438 1.852v4.323c0 .649-.147 1.265-.44 1.852s-.734 1.118-1.324 1.59l-1.94 1.499 1.499 3.001 2.648-1.059c.248-.116.519-.176.793-.176s.545.06.793.176c.531.175.912.587 1.146 1.234a2.08 2.08 0 0 1 0 1.677c-.175.531-.587.912-1.234 1.146l-2.558 1.059a4.2 4.2 0 0 1-3.267.088c-.488-.197-.929-.495-1.294-.875s-.646-.832-.823-1.328l-1.496-3.001c-.472-1-.593-1.971-.356-2.911a4.32 4.32 0 0 1 1.59-2.473l1.94-1.496v-4.328L1.21 17.325c-.824-.649-1.355-1.44-1.59-2.383a4.47 4.47 0 0 1 .353-3.001l1.499-2.999c.531-.94 1.327-1.646 2.383-2.118a3.74 3.74 0 0 1 3.176 0l2.555 1.059 3.62-2.118.263-2.824c.237-1 .734-1.824 1.502-2.471.762-.649 1.705-.971 2.824-.971h2.999c.94 0 1.824.325 2.648.971s1.352 1.468 1.587 2.471l.44 2.824 3.62 2.118 2.646-1.059a3.98 3.98 0 0 1 3.176-.088c1.059.412 1.852 1.146 2.383 2.205l1.499 3.001c.472 1 .587 1.999.353 2.999-.234.94-.793 1.736-1.677 2.383l-1.94 1.499zm6.44 11.382c1 1.002 1 2.002 0 3.001l-6.44 6.44c-.195.2-.428.358-.686.464a2.04 2.04 0 0 1-.814.154c-.56-.012-1.096-.232-1.502-.618a2.35 2.35 0 0 1-.616-1.587c0-.531.206-1 .616-1.412l4.941-4.941-4.941-4.941c-.881-1-.881-2.002 0-3.001.472-.469.971-.706 1.502-.706.286-.001.569.061.828.184a1.92 1.92 0 0 1 .668.522zm-21.442-6.438c1.002.997 1.002 1.999 0 2.999l-4.941 4.941 4.941 4.941c.472.412.706.881.706 1.412-.003.299-.068.594-.189.866s-.297.518-.517.721c-1 .884-1.999.884-2.999 0l-6.44-6.44c-.472-.472-.706-.971-.706-1.499s.234-1.031.706-1.499l6.438-6.443c1.002-1 2.005-.997 3.001.003zm7.502-.621c.534.122 1.005.437 1.321.884.201.224.347.494.424.785s.084.597.019.892l-2.208 12.881c-.121.535-.434 1.007-.881 1.324-.238.176-.511.298-.8.359s-.589.059-.877-.006a2.23 2.23 0 0 1-1.324-.884 2.06 2.06 0 0 1-.353-1.674l2.118-12.884a2.23 2.23 0 0 1 .884-1.324 2.06 2.06 0 0 1 .801-.357c.289-.06.588-.061.877.005zm-3.62-2.38a2.59 2.59 0 0 1-1.234-1.146c-.294-.59-.325-1.149-.088-1.677.113-.218.173-.46.175-.706.149-.685.113-1.398-.104-2.065s-.608-1.264-1.132-1.73c-.389-.4-.856-.716-1.371-.929s-1.07-.318-1.627-.308c-1.177 0-2.205.412-3.089 1.237-.4.389-.716.857-.928 1.373s-.316 1.07-.306 1.628c0 1.115.381 2.058 1.146 2.824.199.191.35.426.442.685s.122.537.089.811c-.059.531-.325 1.031-.796 1.502s-.968.678-1.496.618a3.08 3.08 0 0 1-1.502-.887A5.77 5.77 0 0 1 11 24.116c-.351-.992-.53-2.037-.528-3.089a9.16 9.16 0 0 1 .618-3.352c.469-1.059 1.087-1.971 1.852-2.736.824-.824 1.734-1.44 2.736-1.852a8.14 8.14 0 0 1 3.352-.706c2.411 0 4.441.853 6.088 2.558 1.649 1.646 2.471 3.676 2.471 6.088a10.09 10.09 0 0 1-.353 2.736 2.52 2.52 0 0 1-1.234 1.237c-.238.143-.507.226-.784.241s-.554-.039-.805-.156z" fill="url(#A)"/>
</svg>