<svg
	xmlns="http://www.w3.org/2000/svg" width="47.907" height="43.207" viewBox="-0.5 -0.5 47.907 43.207">
	  <style type="text/css">
		.st0{stop-color:#5b738b;}
		.st1{stop-color:#223548;}
	  </style>
	<defs>
		<linearGradient id="A" x1="23.454" y1="-.5" x2="23.454" y2="42.707" gradientUnits="userSpaceOnUse">
			<stop class="st0"/>
			<stop offset="1" class="st1"/>
		</linearGradient>
	</defs>
	<path d="M46.468 14.445c.252.252.468.531.657.843a1.97 1.97 0 0 1 .282 1.032v19.125c0 1.314-.627 2.127-1.875 2.439l-24 4.782c-.813.123-1.44-.03-1.875-.471-.253-.253-.473-.536-.657-.843-.173-.318-.269-.671-.282-1.032V21.102c0-1.374.627-2.157 1.875-2.343l24-4.782c.312 0 .627.03.939.093a1.27 1.27 0 0 1 .936.375zm-3.843 4.782L23.5 23.07v14.343l19.125-3.84zM37.843 8.634c.12.65-.014 1.321-.375 1.875-.153.276-.368.513-.629.692s-.559.294-.871.337l-22.032 4.314v17.25c0 .69-.249 1.251-.75 1.689-.222.218-.486.387-.776.499a2.29 2.29 0 0 1-.91.152c-1.56 0-2.343-.78-2.343-2.343V13.977c0-1.314.624-2.124 1.875-2.439l24-4.779c.561-.126 1.125.03 1.686.468.627.375 1.002.843 1.125 1.407zm-9.561-7.125c.123.561 0 1.155-.375 1.779-.153.277-.368.514-.628.693s-.559.295-.872.339L4.282 8.634v17.25c0 1.623-.78 2.436-2.346 2.436-.654.011-1.289-.223-1.779-.657-.438-.435-.657-1.029-.657-1.779V6.759c0-1.314.657-2.127 1.968-2.439L25.375-.462c.313-.06.636-.049.945.032s.595.232.837.439c.624.375.999.873 1.125 1.5z" fill="url(#A)"/>
</svg>