<svg
	xmlns="http://www.w3.org/2000/svg" width="33.971" height="45.176" viewBox="-0.5 -0.5 33.971 45.176">
	  <style type="text/css">
		.st0{stop-color:#00ceac;}
		.st1{stop-color:#07838f;}
	  </style>
	<defs>
		<linearGradient id="A" x1="2.581" y1="5.912" x2="35.955" y2="31.5" gradientUnits="userSpaceOnUse">
			<stop class="st0"/>
			<stop offset="1" class="st1"/>
		</linearGradient>
	</defs>
	<path d="M26.853-.5c1.941 0 3.529.676 4.765 2.029 1.235 1.294 1.853 2.912 1.853 4.853v31.412c0 1.941-.677 3.559-2.029 4.853-1.294 1.353-2.912 2.029-4.853 2.029H6.382a6.72 6.72 0 0 1-4.941-2.029C.147 41.353-.5 39.735-.5 37.794V6.382c0-1.941.647-3.559 1.941-4.853A6.72 6.72 0 0 1 6.382-.5zm2.294 6.882c0-.647-.235-1.176-.706-1.588-.412-.471-.941-.706-1.588-.706H6.647c-.706 0-1.265.235-1.676.706-.412.412-.618.941-.618 1.588v31.412a2.46 2.46 0 0 0 .618 1.676c.412.412.971.618 1.676.618h20.206c.647 0 1.176-.206 1.588-.618a2.29 2.29 0 0 0 .706-1.676z" fill="url(#A)"/>
</svg>