<svg
	xmlns="http://www.w3.org/2000/svg" width="35.029" height="45.088" viewBox="-0.5 -0.5 35.029 45.088">
	  <style type="text/css">
		.st0{stop-color:#00ceac;}
		.st1{stop-color:#07838f;}
	  </style>
	<defs>
		<linearGradient id="A" x1="2.677" y1="5.9" x2="36.252" y2="32.496" gradientUnits="userSpaceOnUse">
			<stop class="st0"/>
			<stop offset="1" class="st1"/>
		</linearGradient>
	</defs>
	<path d="M24.559 37.088c1.647 0 2.471-.824 2.471-2.471 0-.765-.235-1.382-.706-1.853-.412-.471-1-.706-1.765-.706H9.471c-.765 0-1.382.235-1.853.706-.412.471-.618 1.088-.618 1.853 0 1.647.824 2.471 2.471 2.471zm0-7.5c1.647 0 2.471-.824 2.471-2.471 0-.765-.235-1.382-.706-1.853-.412-.471-1-.706-1.765-.706H9.471c-.765 0-1.382.235-1.853.706-.412.471-.618 1.088-.618 1.853 0 1.647.824 2.471 2.471 2.471zm0-7.5c.765 0 1.353-.235 1.765-.706.471-.471.706-1.088.706-1.853 0-1.647-.823-2.471-2.471-2.471H9.471c-1.647 0-2.471.824-2.471 2.471 0 .765.206 1.382.618 1.853.471.471 1.088.706 1.853.706zm0-10.059c1.647 0 2.471-.824 2.471-2.471 0-.765-.235-1.382-.706-1.853-.412-.471-1-.706-1.765-.706s-1.382.235-1.853.706S22 8.794 22 9.559s.235 1.382.706 1.853c.471.412 1.088.618 1.853.618zM27.029-.5c2.118 0 3.882.735 5.294 2.206C33.794 3.118 34.529 4.882 34.529 7v30.088c0 2.118-.735 3.882-2.206 5.294-1.412 1.47-3.176 2.206-5.294 2.206H7c-2.118 0-3.912-.735-5.382-2.206C.206 40.971-.5 39.206-.5 37.088V7c0-2.118.706-3.882 2.118-5.294C3.088.235 4.882-.5 7-.5zM29.5 7c0-1.647-.823-2.471-2.471-2.471H7c-.765 0-1.382.235-1.853.706-.471.412-.706 1-.706 1.765v30.088c0 .765.235 1.382.706 1.853.471.412 1.088.618 1.853.618h20.029c1.647 0 2.471-.824 2.471-2.471z" fill="url(#A)"/>
</svg>