<svg
	xmlns="http://www.w3.org/2000/svg" width="40.941" height="45.088" viewBox="-0.5 -0.5 40.941 45.088">
	  <style type="text/css">
		.st0{stop-color:#00ceac;}
		.st1{stop-color:#07838f;}
	  </style>
	<defs>
		<linearGradient id="A" x1="3.213" y1="5.9" x2="37.602" y2="37.738" gradientUnits="userSpaceOnUse">
			<stop class="st0"/>
			<stop offset="1" class="st1"/>
		</linearGradient>
	</defs>
	<path d="M38.147 4.088c.706.588 1.265 1.235 1.676 1.941.412.647.618 1.441.618 2.382v27.353c0 .882-.235 1.676-.706 2.382s-1 1.353-1.588 1.941c-.529.471-1.206.912-2.03 1.324-.765.412-1.588.794-2.471 1.147-1.823.706-3.912 1.206-6.265 1.5-2.294.353-4.765.529-7.412.529s-5.147-.176-7.5-.529c-2.294-.294-4.353-.794-6.176-1.5l-2.471-.97a8.64 8.64 0 0 1-2.029-1.5C.265 38.853-.5 37.412-.5 35.765V8.412c0-.941.235-1.735.706-2.382.471-.706 1-1.353 1.588-1.941 1.176-1 2.676-1.853 4.5-2.559C8.118.882 10.176.382 12.471.029c2.353-.353 4.853-.529 7.5-.529s5.118.176 7.412.529c2.353.353 4.441.853 6.265 1.5.882.353 1.706.735 2.471 1.147.824.353 1.5.824 2.03 1.412zm-2.206 19.324c-2.765.941-5.382 1.676-7.853 2.206-2.412.529-5.118.794-8.118.794-2.647 0-5.147-.177-7.5-.529-2.294-.353-4.353-.853-6.176-1.5-.941-.294-1.706-.618-2.294-.971v3.177l.176.353c.059.118.235.324.529.618.765.706 1.794 1.294 3.088 1.765 1.353.471 2.765.853 4.235 1.147l4.324.529 3.618.176a50.45 50.45 0 0 0 7.941-.618c2.588-.47 5.029-1.47 7.323-3 .353-.235.559-.441.618-.618.059-.118.088-.235.088-.353zm0-9.088c-2.765.941-5.382 1.676-7.853 2.206-2.412.529-5.118.794-8.118.794-.882 0-2.059-.059-3.529-.176l-4.588-.529-4.5-.882c-1.412-.412-2.529-.882-3.353-1.412V17.5c0 .059.029.147.088.265.118.059.206.147.265.265l.353.353c.765.765 1.794 1.382 3.088 1.853 1.353.471 2.765.853 4.235 1.147l4.324.529 3.618.176c2.706 0 5.353-.235 7.941-.706s5.029-1.471 7.323-3c.353-.235.559-.441.618-.618.059-.118.088-.206.088-.265zM4.706 7.529c-.294.118-.5.324-.618.618-.059.118-.088.206-.088.265s.029.147.088.265c.118.059.206.147.265.265l.353.353c.765.765 1.794 1.382 3.088 1.853 1.353.471 2.765.853 4.235 1.147l4.324.529 3.618.176c2.412 0 4.647-.147 6.706-.441 2.059-.353 3.853-.824 5.382-1.412l3.176-1.853c.353-.235.559-.441.618-.618.059-.118.088-.206.088-.265-.059-.059-.117-.147-.176-.265s-.235-.324-.529-.618c-.765-.765-1.823-1.382-3.176-1.853-1.294-.471-2.676-.824-4.147-1.059-1.471-.294-2.941-.5-4.412-.618l-3.529-.176c-2.706 0-5.353.235-7.941.706S7 6 4.706 7.529zm30.529 29.118c.353-.235.559-.441.618-.618.059-.117.088-.206.088-.265V32.5c-.059.059-.117.088-.176.088s-.088.029-.088.088H35.5l-.176.088c-.059.059-.118.088-.176.088-2.647 1-5.147 1.706-7.5 2.118-2.294.353-4.853.529-7.676.529-.882 0-2.059-.059-3.529-.176l-4.588-.529-4.5-.882C5.941 33.5 4.824 33.029 4 32.5v3.265c0 .059.029.147.088.265.059.176.265.383.618.618.765.765 1.794 1.382 3.088 1.853 1.353.471 2.765.853 4.235 1.147l4.324.529 3.618.088c2.706 0 5.353-.206 7.941-.618 2.588-.471 5.029-1.47 7.323-3z" fill="url(#A)"/>
</svg>