<svg
	xmlns="http://www.w3.org/2000/svg" width="47.909" height="38.345" viewBox="-0.5 -0.5 47.909 38.345">
	  <style type="text/css">
		.st0{stop-color:#5b738b;}
		.st1{stop-color:#223548;}
	  </style>
	<defs>
		<linearGradient id="A" x1="23.454" y1="-.5" x2="23.454" y2="37.845" gradientUnits="userSpaceOnUse">
			<stop class="st0"/>
			<stop offset="1" class="st1"/>
		</linearGradient>
	</defs>
	<path d="M40.283-.499c1.998 0 3.687.69 5.061 2.064s2.064 3.09 2.064 5.154v23.907a7.2 7.2 0 0 1-2.064 5.157c-1.374 1.374-3.06 2.061-5.061 2.061H6.719c-.953.015-1.9-.159-2.785-.513a7.2 7.2 0 0 1-2.372-1.548 7.2 7.2 0 0 1-2.061-5.157V6.719c0-2.061.69-3.78 2.064-5.154A7.2 7.2 0 0 1 6.719-.499zm-36 9.564h38.343V6.719c0-1.623-.78-2.436-2.343-2.436H6.719c-.655-.012-1.291.222-1.782.657-.435.435-.654 1.029-.654 1.779zm38.343 7.218H4.283v14.343c0 .69.219 1.281.654 1.782.491.435 1.127.669 1.782.657h33.564c.687 0 1.248-.219 1.686-.66.434-.49.668-1.125.657-1.779zM11.501 28.187c-.655.013-1.291-.221-1.782-.654-.219-.222-.39-.486-.503-.777s-.165-.601-.154-.912c0-.687.219-1.248.66-1.686.23-.24.506-.43.812-.559s.635-.194.967-.191h14.343c.75 0 1.344.249 1.782.75.219.221.39.485.503.775s.166.6.154.911c0 1.563-.813 2.343-2.439 2.343z" fill="url(#A)"/>
</svg>