<svg
	xmlns="http://www.w3.org/2000/svg" width="45.176" height="42.448" viewBox="-0.5 -0.5 45.176 42.448">
	  <style type="text/css">
		.st0{stop-color:#5b738b;}
		.st1{stop-color:#223548;}
	  </style>
	<defs>
		<linearGradient id="A" x1="22.088" y1="-.5" x2="22.088" y2="41.948" gradientUnits="userSpaceOnUse">
			<stop class="st0"/>
			<stop offset="1" class="st1"/>
		</linearGradient>
	</defs>
	<path d="M43.971 33.655c.472.762.706 1.646.706 2.646 0 1.471-.531 2.795-1.59 3.97-1.056 1.118-2.411 1.677-4.057 1.677H5.147c-1.646 0-3.001-.559-4.06-1.677C.031 39.096-.5 37.774-.5 36.301c0-1 .234-1.88.706-2.646L17.147 2.509c.531-1.002 1.237-1.736 2.118-2.211.849-.522 1.827-.798 2.824-.798s1.974.276 2.824.798c.884.472 1.59 1.206 2.118 2.205zm-24.706-9.357c0 .824.265 1.53.793 2.118.266.264.584.471.933.608s.723.201 1.097.188c.374.014.748-.049 1.097-.186s.667-.342.933-.605c.528-.593.793-1.299.793-2.118V13.009c0-.768-.265-1.412-.793-1.943a2.61 2.61 0 0 0-2.03-.887 2.61 2.61 0 0 0-2.03.884 2.64 2.64 0 0 0-.793 1.94zm2.824 13.146c.94 0 1.736-.322 2.383-.968s.971-1.471.971-2.471c0-.943-.325-1.736-.971-2.383a3.23 3.23 0 0 0-2.383-.971c-.94 0-1.736.325-2.383.971a3.24 3.24 0 0 0-.968 2.383c0 1 .322 1.824.968 2.471s1.44.971 2.383.971z" fill="url(#A)"/>
</svg>