<svg
	xmlns="http://www.w3.org/2000/svg" width="45.089" height="45.09" viewBox="-0.5 -0.5 45.089 45.09">
	  <style type="text/css">
		.st0{stop-color:#5b738b;}
		.st1{stop-color:#223548;}
	  </style>
	<defs>
		<linearGradient id="A" x1="22.044" y1="-.5" x2="22.044" y2="44.59" gradientUnits="userSpaceOnUse">
			<stop class="st0"/>
			<stop offset="1" class="st1"/>
		</linearGradient>
	</defs>
	<path d="M43.883 12.738c.469.587.706 1.175.706 1.765v22.588c0 2.118-.734 3.88-2.205 5.291-1.412 1.471-3.179 2.208-5.297 2.208H6.999c-2.118 0-3.911-.734-5.382-2.205C.206 40.973-.5 39.206-.5 37.088V7.001c0-2.118.706-3.882 2.118-5.294C2.317.991 3.155.426 4.08.047s1.919-.565 2.919-.546h22.588c.649 0 1.237.265 1.765.793zM29.588 29.589H14.589v9.97h14.999zm9.97-14.03L28.619 4.53H14.586v7.502h12.531c1.649 0 2.471.822 2.471 2.471 0 .762-.234 1.384-.706 1.852-.412.469-1 .706-1.765.706H12.028c-.762 0-1.384-.237-1.852-.706-.412-.472-.618-1.09-.618-1.855V4.533H6.999c-1.646 0-2.471.819-2.471 2.468v30.088c0 1.649.824 2.473 2.471 2.473h2.558V27.031c0-1.646.824-2.471 2.473-2.471h20.027c.765 0 1.384.234 1.852.706.472.412.706 1 .706 1.765v12.531h2.473c1.646 0 2.468-.824 2.468-2.473V15.564z" fill="url(#A)"/>
</svg>