<svg
	xmlns="http://www.w3.org/2000/svg" width="28" height="27.89" viewBox="-0.5 -0.5 28 27.89">
	  <style type="text/css">
		.st0{stop-color:#00ceac;}
		.st1{stop-color:#07838f;}
	  </style>
	<defs>
		<linearGradient id="A" x1="3.379" y1="3.625" x2="25.212" y2="24.954" gradientUnits="userSpaceOnUse">
			<stop class="st0"/>
			<stop offset="1" class="st1"/>
		</linearGradient>
	</defs>
	<path d="M-.062 25.033c-.291.293-.438.603-.438.931.002.186.042.369.117.539s.185.322.321.448c.126.137.279.246.448.321s.353.115.539.117c.328 0 .638-.147.931-.438l3.891-3.891c1.133.987 2.411 1.46 3.835 1.425 1.426-.074 2.667-.64 3.726-1.701l1.261-1.259c.293-.293.438-.603.438-.931 0-.366-.146-.694-.438-.987l-7.124-7.122a1.36 1.36 0 0 0-.985-.438c-.365 0-.694.146-.987.438l-1.259 1.259c-1.059 1.061-1.608 2.285-1.645 3.672-.072 1.352.347 2.576 1.261 3.672zm11.29-4.329c-.586.549-1.243.822-1.973.822s-1.389-.273-1.973-.822l-1.096-1.096c-.549-.584-.822-1.241-.822-1.973s.274-1.387.822-1.973l.272-.274L11.5 20.43l-.274.273zm2.63-4.876c.126.136.278.245.447.321a1.36 1.36 0 0 0 .538.117c.33 0 .64-.145.933-.438l2.518-2.521 1.096 1.096c.126.136.279.246.448.321s.353.115.539.117a1.25 1.25 0 0 0 .986-.438l1.261-1.205c1.059-1.059 1.625-2.265 1.699-3.617a5.67 5.67 0 0 0-1.152-3.78l3.891-3.891A1.36 1.36 0 0 0 27.5.924c0-.365-.145-.694-.438-.987S26.458-.5 26.131-.5c-.366 0-.694.147-.987.438l-3.889 3.893c-1.071-.894-2.443-1.346-3.836-1.262-1.426.074-2.665.64-3.726 1.701l-1.261 1.259c-.128.13-.228.284-.294.454s-.097.351-.09.533c-.003.173.03.345.097.505s.165.304.289.425l1.149 1.152-2.52 2.465c-.293.293-.438.621-.438.987a1.36 1.36 0 0 0 .117.538c.075.169.185.322.321.447.126.136.279.246.448.321a1.36 1.36 0 0 0 .539.117c.185-.002.368-.042.538-.117s.322-.185.447-.321l2.465-2.521.877.877-2.518 2.465c-.293.293-.438.621-.438.987a1.36 1.36 0 0 0 .117.538c.075.169.184.322.321.447zm1.534-9.316l.274-.328a2.69 2.69 0 0 1 1.973-.822c.731 0 1.369.274 1.918.822l1.096 1.15c.584.549.877 1.206.877 1.973 0 .731-.293 1.371-.877 1.918l-.273.274-4.987-4.985z" fill="url(#A)"/>
</svg>