<svg
	xmlns="http://www.w3.org/2000/svg" width="24.233" height="28" viewBox="-0.5 -0.5 24.233 28">
	  <style type="text/css">
		.st0{stop-color:#00ceac;}
		.st1{stop-color:#07838f;}
	  </style>
	<defs>
		<linearGradient id="A" x1="1.698" y1="3.474" x2="22.95" y2="22.229" gradientUnits="userSpaceOnUse">
			<stop class="st0"/>
			<stop offset="1" class="st1"/>
		</linearGradient>
	</defs>
	<path fill-rule="evenodd" d="M15.552 11.608l-.931-.438h.002a7.03 7.03 0 0 0 1.48-2.192c.401-.84.603-1.753.603-2.739 0-.95-.184-1.827-.549-2.63a6.45 6.45 0 0 0-1.424-2.137C14.111.852 13.399.377 12.596.049A6.27 6.27 0 0 0 9.966-.5c-.914 0-1.79.182-2.63.547a6.32 6.32 0 0 0-2.192 1.425A7.8 7.8 0 0 0 3.719 3.61c-.365.803-.547 1.68-.547 2.63a6.63 6.63 0 0 0 .601 2.793c.397.833.956 1.578 1.645 2.192-1.753.694-3.177 1.846-4.273 3.452C.049 16.248-.5 18.055-.5 20.101v2.74c-.009.34.108.672.328.931a1.38 1.38 0 0 0 .933.328h9.31c.152.004.304-.023.445-.08s.27-.142.377-.25a1.27 1.27 0 0 0 .384-.929 1.04 1.04 0 0 0-.384-.822c-.219-.256-.493-.384-.822-.384H1.966v-1.534c0-.987.163-1.899.491-2.74.341-.839.843-1.602 1.48-2.246.621-.658 1.334-1.168 2.137-1.534a6.67 6.67 0 0 1 2.684-.547h2.63c.806-.006 1.606.142 2.357.438.766.256 1.369.584 1.808.987a2.58 2.58 0 0 0 .657.491c.198.067.399.122.603.165.293 0 .566-.128.822-.382.182-.182.273-.384.273-.603v-.165c-.008-.347-.145-.679-.384-.931a5.18 5.18 0 0 0-.931-.822 4.31 4.31 0 0 0-1.041-.603zm-2.576-2.302c-.838.842-1.844 1.262-3.012 1.262v-.002c-1.169 0-2.192-.419-3.068-1.259A4.18 4.18 0 0 1 5.635 6.24a4.11 4.11 0 0 1 1.261-3.014c.877-.84 1.899-1.261 3.068-1.261a4.11 4.11 0 0 1 3.012 1.261c.877.84 1.315 1.844 1.315 3.012a4.08 4.08 0 0 1-1.315 3.068zm.151 16.309a.85.85 0 0 1 .213-.57l4.001-4.142c-.095-.314-.142-.637-.142-.967a3.61 3.61 0 0 1 .26-1.364c.174-.43.418-.802.734-1.116a3.14 3.14 0 0 1 1.065-.769c.395-.198.829-.298 1.302-.298a3.09 3.09 0 0 1 1.965.67c.568.43.971.992 1.207 1.686H20.94c-.221 0-.434.074-.639.223-.221.149-.331.339-.331.57v.794c0 .232.11.43.331.595.205.149.418.223.639.223h2.794c-.237.661-.639 1.215-1.207 1.662-.568.43-1.223.645-1.965.645-.458 0-.868-.083-1.231-.248l-3.859 4.067a.72.72 0 0 1-.544.223c-.189 0-.355-.074-.497-.223l-1.089-1.141a.73.73 0 0 1-.213-.521z" fill="url(#A)"/>
</svg>