<svg
	xmlns="http://www.w3.org/2000/svg" width="28" height="25.179" viewBox="-0.5 -0.5 28 25.179">
	  <style type="text/css">
		.st0{stop-color:#00ceac;}
		.st1{stop-color:#07838f;}
	  </style>
	<defs>
		<linearGradient id="A" x1="2.039" y1="3.074" x2="21.149" y2="24.742" gradientUnits="userSpaceOnUse">
			<stop class="st0"/>
			<stop offset="1" class="st1"/>
		</linearGradient>
	</defs>
	<path d="M26.758-.339a1.41 1.41 0 0 0-1.428.07c-.084.056-8.12 5.362-13.23 5.362h-7c-3.136 0-5.6 2.464-5.6 5.6s2.464 5.6 5.6 5.6h.532l3.822 7.63a1.36 1.36 0 0 0 1.022.756h.224a1.41 1.41 0 0 0 .994-.406l2.8-2.8a1.38 1.38 0 0 0 .364-1.33l-.924-3.668c4.998.952 11.312 5.124 11.396 5.18a1.41 1.41 0 0 0 1.428.07c.462-.252.742-.728.742-1.246V.893a1.41 1.41 0 0 0-.742-1.232zm-15.68 21.28l-3.332-6.664a1.38 1.38 0 0 0-1.246-.784H5.1c-1.596 0-2.8-1.204-2.8-2.8s1.204-2.8 2.8-2.8h5.6v7a1.41 1.41 0 0 0 .042.35l1.204 4.83zm13.622-2.94c-2.66-1.554-7.266-3.92-11.2-4.41V7.795c3.934-.49 8.54-2.856 11.2-4.396z" fill="url(#A)"/>
</svg>