<svg
	xmlns="http://www.w3.org/2000/svg" width="28" height="27.836" viewBox="-0.5 -0.5 28 27.836">
	  <style type="text/css">
		.st0{stop-color:#00ceac;}
		.st1{stop-color:#07838f;}
	  </style>
	<defs>
		<linearGradient id="A" x1="2.039" y1="3.451" x2="23.326" y2="25.283" gradientUnits="userSpaceOnUse">
			<stop class="st0"/>
			<stop offset="1" class="st1"/>
		</linearGradient>
	</defs>
	<path d="M21.911 16.212c.767 0 1.479.146 2.137.438a5.6 5.6 0 0 1 3.014 3.014 5.2 5.2 0 0 1 .438 2.137 5.59 5.59 0 0 1-.438 2.192c-.292.657-.694 1.224-1.206 1.698-.512.512-1.114.913-1.808 1.206-.658.292-1.37.438-2.137.438s-1.498-.146-2.192-.438a5.78 5.78 0 0 1-1.753-1.206c-.512-.475-.913-1.041-1.206-1.698a5.59 5.59 0 0 1-.438-2.192v-.712l-7.397-3.616c-1.132 1.023-2.429 1.534-3.89 1.534a5.59 5.59 0 0 1-2.192-.438 5.78 5.78 0 0 1-1.753-1.206c-.475-.511-.858-1.096-1.151-1.753A5.59 5.59 0 0 1-.5 13.418c0-.767.146-1.479.438-2.137.292-.694.676-1.279 1.151-1.753a5.78 5.78 0 0 1 1.753-1.206 5.59 5.59 0 0 1 2.192-.438c.767 0 1.479.128 2.137.384a4.45 4.45 0 0 1 1.753 1.151l7.397-3.671v-.658c0-.767.146-1.479.438-2.137a5.6 5.6 0 0 1 1.206-1.808 5.78 5.78 0 0 1 1.753-1.205A5.59 5.59 0 0 1 21.911-.5c.767 0 1.479.146 2.137.438a5.6 5.6 0 0 1 1.808 1.205 5.6 5.6 0 0 1 1.206 1.808 5.2 5.2 0 0 1 .438 2.137 5.59 5.59 0 0 1-.438 2.192 5.78 5.78 0 0 1-1.206 1.753c-.512.475-1.114.858-1.808 1.151-.658.292-1.37.438-2.137.438-.986 0-1.881-.201-2.685-.603-.767-.438-1.406-1.023-1.918-1.753l-6.849 3.507c.183.621.274 1.169.274 1.644 0 .511-.091 1.078-.274 1.699l6.849 3.452a6.77 6.77 0 0 1 1.973-1.699c.767-.438 1.644-.657 2.63-.657zm0-13.918a2.69 2.69 0 0 0-1.973.822 2.69 2.69 0 0 0-.822 1.973 2.69 2.69 0 0 0 .822 1.973 2.69 2.69 0 0 0 1.973.822 2.69 2.69 0 0 0 1.973-.822 2.69 2.69 0 0 0 .822-1.973 2.69 2.69 0 0 0-.822-1.973 2.69 2.69 0 0 0-1.973-.822zM5.199 16.212a2.69 2.69 0 0 0 1.973-.822 2.69 2.69 0 0 0 .822-1.973 2.69 2.69 0 0 0-.822-1.973 2.69 2.69 0 0 0-1.973-.822 2.69 2.69 0 0 0-1.973.822 2.69 2.69 0 0 0-.822 1.973 2.69 2.69 0 0 0 .822 1.973 2.69 2.69 0 0 0 1.973.822zm16.712 8.383a2.69 2.69 0 0 0 1.973-.822 2.69 2.69 0 0 0 .822-1.973 2.69 2.69 0 0 0-.822-1.973 2.69 2.69 0 0 0-1.973-.822 2.69 2.69 0 0 0-1.973.822 2.69 2.69 0 0 0-.822 1.973 2.69 2.69 0 0 0 .822 1.973 2.69 2.69 0 0 0 1.973.822z" fill="url(#A)"/>
</svg>