<svg
	xmlns="http://www.w3.org/2000/svg" width="30.014" height="29.955" viewBox="-0.5 -0.5 30.014 29.955">
	<defs>
		<linearGradient id="A" x1="2.042" y1="2.402" x2="15.509" y2="14.173" gradientUnits="userSpaceOnUse">
			<stop stop-color="#0195ff"/>
			<stop offset=".991" stop-color="#1147e9"/>
		</linearGradient>
		<linearGradient id="B" x1="5.301" y1="5.876" x2="14.839" y2="22.893" gradientUnits="userSpaceOnUse">
			<stop stop-color="#0195ff"/>
			<stop offset=".991" stop-color="#1147e9"/>
		</linearGradient>
		<linearGradient id="C" x1="13.393" y1="13.319" x2="26.634" y2="26.567" gradientUnits="userSpaceOnUse">
			<stop stop-color="#1348ff"/>
			<stop offset="1" stop-color="#06238d"/>
		</linearGradient>
	</defs>
	<path d="M8.585 18.907H3.556c-1.318 0-2.426-1.042-2.57-2.418l-1.47-13.61-.005-.051C-.642 1.048.686-.5 2.417-.5H15.1A1.36 1.36 0 0 1 16.457.857 1.36 1.36 0 0 1 15.1 2.215H2.417a.33.33 0 0 0-.33.368l1.47 13.61h6.365c-.673.806-1.154 1.757-1.336 2.715z" fill="url(#A)"/>
	<path d="M4.402 7.821l-.111.161a3.72 3.72 0 0 0-.244.443l-.023.05-2.71 6.092a3.32 3.32 0 0 0-.27 1.657 3.76 3.76 0 0 0 .085.516c.366 1.54 1.69 2.716 3.301 2.716h8.08l1.792-1.792c-.107-.913-.071-1.837.106-2.76.348-1.807 1.224-3.375 2.51-4.661.864-.864 1.873-1.552 3.023-2.009 1.083-.443 2.228-.687 3.413-.687a8.98 8.98 0 0 1 3.413.687c.773.307 1.482.719 2.126 1.218l.454-1.379a3.33 3.33 0 0 0 .151-1.354c-.175-1.854-1.628-3.154-3.276-3.212a2.88 2.88 0 0 0-.355-.022h-4.889c-.796 0-1.559.329-2.126.916l-1.935 2.004H7.117l-.179.005a2.91 2.91 0 0 0-1.095.28 3.42 3.42 0 0 0-1.028.663c-.14.131-.281.285-.413.466z" fill="url(#B)"/>
	<path fill-rule="evenodd" d="M12.522 29.406l.041-.008.039-.015a2.12 2.12 0 0 0 .714-.475l.459-.459.49.491c.313.313.687.523 1.118.515s.799-.23 1.115-.546c.309-.31.523-.678.523-1.101s-.213-.791-.523-1.101l-.49-.49.95-.95.49.491c.304.304.675.477 1.101.477l.03-.002c.426-.029.798-.203 1.102-.506.309-.31.523-.678.523-1.101s-.213-.791-.523-1.101l-.49-.491 1.113-1.113c1.131.644 2.338.931 3.61.849l.014-.002c1.404-.136 2.644-.75 3.709-1.816.602-.602 1.053-1.276 1.348-2.023.311-.757.47-1.521.47-2.291s-.147-1.52-.437-2.257c-.295-.749-.747-1.424-1.349-2.027s-1.276-1.053-2.023-1.348c-.757-.311-1.521-.47-2.291-.47s-1.535.159-2.291.47c-.747.295-1.422.747-2.023 1.348-.892.892-1.459 1.929-1.685 3.106-.206 1.07-.128 2.124.23 3.154l-6.502 6.502c-.304.304-.476.675-.476 1.101l.031 1.596c.001.334.076.652.261.918.178.256.431.425.726.524.277.154.582.216.898.152zm8.75-14.82c-.583.583-.866 1.259-.866 2.051s.29 1.475.897 2.082c.583.583 1.259.866 2.05.866s1.467-.282 2.05-.866c.607-.607.897-1.295.897-2.082s-.282-1.467-.866-2.051c-.607-.607-1.294-.897-2.082-.897s-1.475.29-2.082.897z" fill="url(#C)"/>
</svg>