<svg
	xmlns="http://www.w3.org/2000/svg" width="28" height="24.553" viewBox="-0.5 -0.5 28 24.553">
	  <style type="text/css">
		.st0{stop-color:#00ceac;}
		.st1{stop-color:#07838f;}
	  </style>
	<defs>
		<linearGradient id="A" x1="2.039" y1="2.985" x2="20.61" y2="24.578" gradientUnits="userSpaceOnUse">
			<stop class="st0"/>
			<stop offset="1" class="st1"/>
		</linearGradient>
	</defs>
	<path d="M23.289-.5c1.202 0 2.205.402 3.008 1.204S27.5 2.506 27.5 3.71v16.133a4.2 4.2 0 0 1-1.204 3.008c-.802.801-1.802 1.202-3.006 1.202H3.711c-1.202 0-2.205-.401-3.008-1.202a4.2 4.2 0 0 1-1.202-3.008V3.71c0-1.202.402-2.205 1.204-3.008S2.507-.5 3.709-.5zM2.29 5.079h22.42V3.71c0-.947-.473-1.421-1.421-1.421H3.711c-.382-.007-.753.13-1.039.383-.254.254-.381.6-.381 1.038v1.367zm22.42 2.844H2.29v11.921c0 .402.128.73.381.985.287.253.657.389 1.039.381h19.578c.947 0 1.421-.455 1.421-1.367V7.921z" fill="url(#A)"/>
</svg>