<svg
	xmlns="http://www.w3.org/2000/svg" width="18" height="18" viewBox="-0.5 -0.5 18 18">
	<defs>
		<linearGradient id="A" x1="2.951" y1="2.945" x2="13.979" y2="13.977" gradientUnits="userSpaceOnUse">
			<stop stop-color="#0195ff"/>
			<stop offset=".991" stop-color="#1147e9"/>
		</linearGradient>
		<linearGradient id="B" x1="11.538" y1=".529" x2="16.434" y2="5.447" gradientUnits="userSpaceOnUse">
			<stop stop-color="#1348ff"/>
			<stop offset="1" stop-color="#06238d"/>
		</linearGradient>
		<linearGradient id="C" x1="5.449" y1="16.45" x2=".55" y2="11.555" gradientUnits="userSpaceOnUse">
			<stop stop-color="#0bf"/>
			<stop offset="1" stop-color="#008bff"/>
		</linearGradient>
	</defs>
	<path fill-rule="evenodd" d="M10.943 2.581l-1.29 1.29c-.494.494-.707 1.122-.707 1.747s.214 1.253.707 1.747 1.122.707 1.746.707 1.25-.213 1.743-.704l1.29-1.278a2.39 2.39 0 0 0 .423.571l.037.037.039.035a2.54 2.54 0 0 0 1.406.619v5.831a3.05 3.05 0 0 1-.912 2.245c-.608.608-1.345.912-2.21.912H7.374c-.05-.541-.268-1.072-.696-1.5l-.037-.037-.039-.034a2.57 2.57 0 0 0-.51-.349l1.29-1.29c.494-.494.707-1.122.707-1.746s-.214-1.253-.707-1.747-1.122-.707-1.747-.707a2.43 2.43 0 0 0-1.743.704l-1.29 1.278c-.108-.203-.248-.396-.423-.571l-.037-.037-.039-.035c-.435-.381-.958-.59-1.512-.629V3.746c0-.889.304-1.637.912-2.245.631-.608 1.38-.912 2.245-.912h5.908a2.41 2.41 0 0 0 .702 1.571l.037.037.039.035c.159.139.33.256.51.349z" fill="url(#A)"/>
	<path d="M17.254-.219c-.164-.187-.375-.281-.633-.281h-4.5a.91.91 0 0 0-.668.281c-.164.164-.246.375-.246.633s.082.469.246.633a.98.98 0 0 0 .668.246h2.32L10.75 4.984c-.164.164-.246.375-.246.633s.082.469.246.633.375.246.633.246.469-.082.633-.246l3.691-3.656v2.32c0 .258.082.469.246.633a.98.98 0 0 0 .668.246c.258 0 .469-.082.633-.246s.246-.375.246-.633v-4.5c0-.258-.082-.469-.246-.633z" fill="url(#B)"/>
	<path d="M-.254 17.219c.164.187.375.281.633.281h4.5c.258 0 .48-.094.668-.281.164-.164.246-.375.246-.633s-.082-.469-.246-.633a.98.98 0 0 0-.668-.246h-2.32l3.691-3.691c.164-.164.246-.375.246-.633s-.082-.469-.246-.633-.375-.246-.633-.246-.469.082-.633.246l-3.691 3.656v-2.32c0-.258-.082-.469-.246-.633a.98.98 0 0 0-.668-.246c-.258 0-.469.082-.633.246s-.246.375-.246.633v4.5c0 .258.082.469.246.633z" fill="url(#C)"/>
</svg>