<svg
	xmlns="http://www.w3.org/2000/svg" width="29" height="28" viewBox="-0.5 -0.5 29 28">
	  <style type="text/css">
		.st0{stop-color:#00ceac;}
		.st1{stop-color:#07838f;}
	  </style>
	<defs>
		<linearGradient id="A" x1="3.746" y1="3.474" x2="24.972" y2="22.025" gradientUnits="userSpaceOnUse">
			<stop class="st0"/>
			<stop offset="1" class="st1"/>
		</linearGradient>
	</defs>
	<path d="M24.255 14.185c.402 0 .712.128.932.384.256.219.384.53.384.931v10.685c0 .877-.438 1.315-1.315 1.315H2.94c-.913 0-1.37-.438-1.37-1.315v-16c0-.402.128-.712.384-.931.256-.256.584-.384.986-.384h5.205V6.185c0-.365.164-.712.493-1.041l3.616-2.301V.87c0-.402.11-.731.329-.986.256-.256.585-.384.986-.384.913 0 1.37.457 1.37 1.37v1.973l3.288 2.301c.365.219.548.566.548 1.041v8zm-5.479 2.685v2.63h4.164v-2.63zm-2.63 0h-5.37v2.63h5.37zm0-2.685V11.5h-5.37v2.685zm-5.37-5.315h5.37V6.842L13.46 5.144l-2.685 1.699zm-6.521 5.315h3.89V11.5h-3.89zm0 2.685v2.63h3.89v-2.63zm3.89 8v-2.685h-3.89v2.685zm8 0v-2.685h-5.37v2.685zm6.794 0v-2.685h-4.164v2.685z" fill="url(#A)"/>
</svg>