<svg
	xmlns="http://www.w3.org/2000/svg" width="17.633" height="17.633" viewBox="-0.5 -0.5 17.633 17.633">
	<defs>
		<radialGradient id="A" cx="0" cy="0" r="1" gradientUnits="userSpaceOnUse" gradientTransform="matrix(12.282485,12.282485,-11.192536,11.192536,2.2303834,2.152543)">
			<stop stop-color="#1348ff"/>
			<stop offset="1" stop-color="#06238d"/>
		</radialGradient>
		<radialGradient id="B" cx="0" cy="0" r="1" gradientUnits="userSpaceOnUse" gradientTransform="matrix(12.207927,12.344196,-23.32342,23.065949,2.2343674,2.0890001)">
			<stop stop-color="#0195ff"/>
			<stop offset="1" stop-color="#1147e9"/>
		</radialGradient>
	</defs>
	<path fill-rule="evenodd" d="M-.279 8.244h-.002l.157-1.734.02-.232.213-.107 4.792-2.399.223-.112.211.129 1.438.877zm9.472-2.09l-8.991 4.5-.702.353.144-1.631.021-.229.211-.108L7.518 5.13l.214.129zm-1.711 4.629l.687.38.783.436.207.114 7.668-3.834.224-.112.012-.243.039-.937.032-.732zm2.472 1.399l6.392-3.219.67-.339-.034.731-.041.909-.01.242-.221.112-4.983 2.545-.208-.115-.873-.482z" fill="url(#A)"/>
	<path d="M7.754-.495L7.744-.5v.766l-.009.873v.229l7.214 4.583.213.14.226-.111 1.541-.756z" fill="url(#B)"/>
	<path d="M4.181 9.732l-.208-.116-.213.107-1.6.802.691.385 6.211 3.449v-1.883l-.217-.122z" fill="url(#B)"/>
	<path d="M7.702 2.276h-.007v.771l-.009.971v.232l.202.125 4.534 2.832.21.13.224-.109.841-.414.675-.331z" fill="url(#B)"/>
	<path d="M1.548 11.077l-.206-.114-.211.105-1.504.757-.002.003 8.781 4.936.656.368v-1.914l-.22-.12z" fill="url(#B)"/>
</svg>