<svg
	xmlns="http://www.w3.org/2000/svg" width="17.598" height="16.438" viewBox="-0.5 -0.5 17.598 16.438">
	<defs>
		<radialGradient id="A" cx="0" cy="0" r="1" gradientUnits="userSpaceOnUse" gradientTransform="matrix(12.160223,9.2581413,-16.862873,22.148753,2.2581388,4.6553299)">
			<stop stop-color="#0195ff"/>
			<stop offset="1" stop-color="#1147e9"/>
		</radialGradient>
		<radialGradient id="B" cx="0" cy="0" r="1" gradientUnits="userSpaceOnUse" gradientTransform="matrix(6.174139,4.470678,-5.1548154,7.1189531,0.9031021,0.4581061)">
			<stop stop-color="#0bf"/>
			<stop offset="1" stop-color="#008bff"/>
		</radialGradient>
	</defs>
	<path d="M16.866 7.169c.153.387.232.8.232 1.217v1.388c0 .597-.184 1.137-.551 1.619-.344.482-.815.792-1.412.93.115.298.172.62.172.964 0 .758-.253 1.389-.758 1.894s-1.125.758-1.86.758c-.758 0-1.389-.253-1.894-.758s-.758-1.136-.758-1.894c0-.298.057-.597.172-.895H6.422c.046.138.08.275.103.413.046.138.069.298.069.482 0 .758-.264 1.389-.792 1.894-.505.505-1.125.758-1.86.758-.758 0-1.389-.253-1.894-.758s-.758-1.136-.758-1.894c0-.184.011-.356.034-.517l.138-.448a2.45 2.45 0 0 1-1.412-.93 2.72 2.72 0 0 1-.517-1.619V8.031c0-.492.407-.824.861-.824z" fill="url(#A)"/>
	<path fill-rule="evenodd" d="M1.294 1.834C1.46.642 2.457-.5 3.859-.5c1.116 0 1.951.626 2.402 1.557 1.123.106 2.055 1.109 2.055 2.414 0 1.542-1.23 2.482-2.533 2.409H1.577C.949 5.88.415 5.685.04 5.299S-.5 4.398-.5 3.85c0-.59.216-1.149.635-1.534.309-.285.708-.454 1.159-.481z" fill="url(#B)"/>
</svg>