<svg
	xmlns="http://www.w3.org/2000/svg" width="19.926" height="18.086">
	<defs>
		<linearGradient id="A" x1="1.448" y1=".913" x2="7.742" y2="9.571" gradientUnits="userSpaceOnUse">
			<stop stop-color="#0195ff"/>
			<stop offset=".991" stop-color="#1147e9"/>
		</linearGradient>
		<linearGradient id="B" x1="2.835" y1="13.109" x2="18.136" y2="16.263" gradientUnits="userSpaceOnUse">
			<stop stop-color="#0bf"/>
			<stop offset="1" stop-color="#008bff"/>
		</linearGradient>
	</defs>
	<g fill-rule="evenodd">
		<path d="M2.144 2.955C2.389 1.19 3.858-.5 5.925-.5c1.645 0 2.876.927 3.54 2.304 1.655.157 3.03 1.642 3.03 3.573 0 2.283-1.812 3.674-3.733 3.567H2.561c-.926 0-1.712-.289-2.266-.86S-.5 6.75-.5 5.939c0-.873.319-1.701.936-2.271.456-.422 1.043-.673 1.708-.712z" fill="url(#A)"/>
		<path d="M3.562 15.841a.96.96 0 0 1-.953.952.94.94 0 0 1-.945-.945l.017-4.023a.96.96 0 0 1 .953-.953l4.024-.017a.94.94 0 0 1 .945.945.96.96 0 0 1-.953.953l-1.655.007 1.052 1.052c2.581 2.581 7.019 2.465 9.623-.139s2.57-6.855-.011-9.436l-1.651-1.346c-.782-.595-.22-1.371-.22-1.371s.411-.565 1.16-.226c0 0 .711.27 2.058 1.597 3.102 3.054 3.347 8.772 0 12.119s-8.986 3.469-12.305.15L3.57 14.029z" fill="url(#B)"/>
	</g>
</svg>