<svg
	xmlns="http://www.w3.org/2000/svg" width="29.906" height="30" viewBox="-0.5 -0.5 29.906 30">
	<defs>
		<linearGradient id="A" x1="2.139" y1="2.123" x2="14.419" y2="14.453" gradientUnits="userSpaceOnUse">
			<stop stop-color="#0195ff"/>
			<stop offset=".991" stop-color="#1147e9"/>
		</linearGradient>
		<linearGradient id="B" x1="17.548" y1="15.43" x2="28.886" y2="25.074" gradientUnits="userSpaceOnUse">
			<stop stop-color="#0195ff"/>
			<stop offset=".991" stop-color="#1147e9"/>
		</linearGradient>
		<linearGradient id="C" x1="1.852" y1="19.324" x2="9.859" y2="30.045" gradientUnits="userSpaceOnUse">
			<stop stop-color="#1348ff"/>
			<stop offset="1" stop-color="#06238d"/>
		</linearGradient>
	</defs>
	<path d="M12.945 17.039c.253-.067.486-.208.702-.423.313-.313.469-.664.469-1.055s-.156-.742-.469-1.055l-2.695-2.637.938-.937 2.637 2.695c.313.312.664.469 1.055.469s.742-.156 1.055-.469.469-.664.469-1.055-.156-.742-.469-1.055L13.94 8.881l1.23-1.23c.273-.273.41-.605.41-.996 0-.43-.137-.781-.41-1.055l-1.348-1.348c-1.133-1.133-2.461-1.738-3.984-1.816s-2.891.371-4.102 1.348L2.02-.031C1.707-.344 1.355-.5.965-.5c-.352 0-.684.156-.996.469S-.5.633-.5 1.023s.156.742.469 1.055l3.717 3.814a6.06 6.06 0 0 0-1.23 4.043c.078 1.445.684 2.734 1.816 3.867l1.113 1.065a7.25 7.25 0 0 1 2.069-.3c1.541 0 2.967.479 4.211 1.353a8.05 8.05 0 0 1 1.28 1.118z" fill="url(#A)"/>
	<path d="M29.406 27.859c0-.352-.156-.684-.469-.996l-4.16-4.219c.977-1.172 1.426-2.48 1.348-3.926-.039-1.484-.625-2.793-1.758-3.926l-1.348-1.348c-.312-.312-.664-.469-1.055-.469s-.742.156-1.055.469l-5.454 5.454a6.93 6.93 0 0 1 1.215 1.178c.564.677.986 1.438 1.28 2.255.314.872.457 1.779.457 2.694 0 .413-.03.824-.091 1.229l.307.023c1.523.039 2.89-.469 4.102-1.523l4.16 4.16c.313.312.644.469.996.469.391 0 .742-.156 1.055-.469s.469-.664.469-1.055z" fill="url(#B)"/>
	<path d="M2.887 29.5h8.483c.559 0 1.088-.114 1.585-.342s.922-.538 1.274-.932c.373-.414.663-.891.87-1.429a5.06 5.06 0 0 0 .311-1.771 4.92 4.92 0 0 0-.28-1.678 4.43 4.43 0 0 0-.777-1.367 3.88 3.88 0 0 0-1.181-.994 3.62 3.62 0 0 0-1.46-.435c-.414-.911-1.005-1.637-1.771-2.175s-1.595-.808-2.486-.808c-.58 0-1.139.114-1.678.342-.518.228-.984.539-1.398.932a4.85 4.85 0 0 0-1.025 1.429c-.269.539-.456 1.119-.559 1.74-.456 0-.891.104-1.305.311-.394.187-.735.456-1.025.808-.29.331-.528.725-.715 1.181A4.15 4.15 0 0 0-.5 25.74a4.24 4.24 0 0 0 .249 1.46c.186.456.435.86.746 1.212.311.331.673.601 1.088.808.414.186.849.28 1.305.28z" fill="url(#C)"/>
</svg>