<svg
	xmlns="http://www.w3.org/2000/svg" width="28" height="27.946" viewBox="-0.5 -0.5 28 27.946">
	  <style type="text/css">
		.st0{stop-color:#00ceac;}
		.st1{stop-color:#07838f;}
	  </style>
	<defs>
		<linearGradient id="A" x1="2.039" y1="3.466" x2="23.412" y2="25.301" gradientUnits="userSpaceOnUse">
			<stop class="st0"/>
			<stop offset="1" class="st1"/>
		</linearGradient>
	</defs>
	<path d="M27.062 25.094c.292.292.438.602.438.929a1.36 1.36 0 0 1-.437.985 1.36 1.36 0 0 1-.985.438c-.185-.002-.368-.042-.537-.117a1.36 1.36 0 0 1-.447-.32l-5.142-5.142c-1.129.912-2.404 1.33-3.827 1.258s-2.66-.639-3.719-1.696L5.679 14.76c-.49-.517-.895-1.107-1.202-1.75a5.59 5.59 0 0 1-.492-1.969c-.001-.684.09-1.365.273-2.025.219-.656.565-1.256 1.04-1.803l-5.36-5.309A1.36 1.36 0 0 1-.5.921c0-.362.145-.691.438-.983A1.36 1.36 0 0 1 .923-.5c.364 0 .691.145.984.437l5.304 5.304C8.28 4.35 9.649 3.9 11.039 3.983c1.421.074 2.66.639 3.719 1.697l6.727 6.671c.509.546.91 1.148 1.202 1.804.581 1.234.66 2.646.219 3.937-.218.655-.552 1.266-.985 1.804zM7.648 8.742c-.264.255-.473.561-.613.9s-.211.702-.206 1.069c0 .73.273 1.369.819 1.915L10 15.031 15.031 10l-2.352-2.406c-.255-.264-.561-.473-.899-.614s-.703-.211-1.069-.206c-.728 0-1.384.275-1.969.821zm6.727 10.61c.246.26.543.467.872.608s.684.213 1.042.212c.765 0 1.421-.275 1.969-.823l1.148-1.092c.548-.584.821-1.241.821-1.969 0-.767-.273-1.423-.821-1.969L17 11.969 11.969 17z" fill="url(#A)"/>
</svg>