<svg
	xmlns="http://www.w3.org/2000/svg" width="28" height="18.412" viewBox="-0.5 -0.5 28 18.412">
	  <style type="text/css">
		.st0{stop-color:#00ceac;}
		.st1{stop-color:#07838f;}
	  </style>
	<defs>
		<linearGradient id="A" x1="2.039" y1="2.113" x2="14.869" y2="22.008" gradientUnits="userSpaceOnUse">
			<stop class="st0"/>
			<stop offset="1" class="st1"/>
		</linearGradient>
	</defs>
	<path fill-rule="evenodd" d="M5.903 6.047C6.434 2.345 9.619-.5 13.467-.5c2.801 0 5.247 1.506 6.577 3.749h.124c4.049 0 7.331 3.282 7.331 7.331s-3.282 7.331-7.331 7.331h-4.054c-.087 0-.173-.002-.259-.005-.078.003-.155.005-.233.005H5.432c-3.276 0-5.932-2.656-5.932-5.932s2.656-5.932 5.932-5.932zM13.467 2.3c-2.674 0-4.842 2.168-4.842 4.842a4.94 4.94 0 0 0 .006.238 1.4 1.4 0 0 1-1.398 1.467h-1.8c-1.73 0-3.132 1.402-3.132 3.132s1.402 3.132 3.132 3.132h10.19a3.14 3.14 0 0 0 .16-.004 1.39 1.39 0 0 1 .131 0c.067.003.134.004.202.004h4.054a4.53 4.53 0 1 0 0-9.062h-.977a1.4 1.4 0 0 1-1.283-.84C17.161 3.494 15.452 2.3 13.467 2.3z" fill="url(#A)"/>
</svg>