<svg
	xmlns="http://www.w3.org/2000/svg" width="25.266" height="28" viewBox="-0.5 -0.5 25.266 28">
	  <style type="text/css">
		.st0{stop-color:#00ceac;}
		.st1{stop-color:#07838f;}
	  </style>
	<defs>
		<linearGradient id="A" x1="1.791" y1="3.474" x2="23.136" y2="23.112" gradientUnits="userSpaceOnUse">
			<stop class="st0"/>
			<stop offset="1" class="st1"/>
		</linearGradient>
	</defs>
	<path d="M24.164 6.664c.401.255.602.583.602.984 0 .109-.018.201-.055.273v11.156A1.39 1.39 0 0 1 24 20.336l-11.102 6.945c-.255.146-.529.219-.82.219-.328 0-.565-.073-.711-.219L.211 20.336a1.75 1.75 0 0 1-.547-.601c-.109-.255-.164-.474-.164-.656V7.922a1.39 1.39 0 0 1 .711-1.258l5.578-3.5c.292-.109.565-.164.82-.164s.492.055.711.164l11.156 7c.182.073.328.237.438.492.146.219.219.419.219.602v4.867c0 .948-.456 1.422-1.367 1.422-.401 0-.747-.128-1.039-.383-.255-.255-.383-.602-.383-1.039v-4.047L6.609 5.953l-4.156 2.68v9.625l9.734 6.125 9.734-6.125V8.633L11.477 2.07c-.437-.292-.656-.674-.656-1.148 0-.182.073-.456.219-.82.328-.401.747-.602 1.258-.602.292 0 .529.073.711.219zM10.273 17.383c.438.255.656.638.656 1.148 0 .292-.073.565-.219.82-.292.401-.711.602-1.258.602a1.57 1.57 0 0 1-.711-.164l-2.789-1.695c-.437-.292-.656-.656-.656-1.094 0-.292.091-.583.273-.875.328-.401.729-.602 1.203-.602.292 0 .529.073.711.219z" fill="url(#A)"/>
</svg>