<svg
	xmlns="http://www.w3.org/2000/svg" width="28" height="18.648" viewBox="-0.5 -0.5 28 18.648">
	  <style type="text/css">
		.st0{stop-color:#00ceac;}
		.st1{stop-color:#07838f;}
	  </style>
	<defs>
		<linearGradient id="A" x1="2.039" y1="2.147" x2="15.102" y2="22.145" gradientUnits="userSpaceOnUse">
			<stop class="st0"/>
			<stop offset="1" class="st1"/>
		</linearGradient>
	</defs>
	<path d="M26.351 15.851c.766 0 1.149.383 1.149 1.149s-.383 1.148-1.149 1.148H.648c-.328 0-.602-.091-.82-.273C-.391 17.656-.5 17.364-.5 17s.109-.638.328-.82c.219-.219.492-.328.82-.328H2.07c0-.073-.018-.128-.055-.164v-.055c-.109-.328-.164-.656-.164-.984V3c0-.984.328-1.805.984-2.461C3.492-.154 4.331-.5 5.352-.5h16.297c1.021 0 1.859.346 2.516 1.039.656.656.984 1.477.984 2.461v11.648c0 .401-.073.802-.219 1.203zM4.148 14.648h18.703V3c0-.766-.401-1.148-1.203-1.148H5.352c-.802 0-1.203.383-1.203 1.148z" fill="url(#A)"/>
</svg>