<svg
	xmlns="http://www.w3.org/2000/svg" width="28" height="23.343" viewBox="-0.5 -0.5 28 23.343">
	  <style type="text/css">
		.st0{stop-color:#00ceac;}
		.st1{stop-color:#07838f;}
	  </style>
	<defs>
		<linearGradient id="A" x1="2.039" y1="2.813" x2="19.54" y2="24.217" gradientUnits="userSpaceOnUse">
			<stop class="st0"/>
			<stop offset="1" class="st1"/>
		</linearGradient>
	</defs>
	<path d="M13.527 18.186v2.3h1.15c.768 0 1.15.403 1.15 1.206.004.152-.022.304-.079.445s-.141.27-.249.377c-.182.217-.456.328-.822.328H7.664c-.152.004-.303-.023-.444-.08s-.269-.142-.376-.25-.193-.235-.25-.376-.084-.292-.08-.444c0-.366.11-.657.33-.877.107-.108.235-.193.376-.25s.292-.084.444-.08h3.507v-2.3H3.007a3.53 3.53 0 0 1-2.521-.987 3.53 3.53 0 0 1-.985-2.519V3.009c0-.987.33-1.809.987-2.467.327-.336.719-.602 1.152-.782s.899-.268 1.368-.26h18.683A3.25 3.25 0 0 1 24.156.542c.694.658 1.041 1.48 1.041 2.465v2.356c.004.152-.022.304-.079.445s-.141.27-.249.377c-.116.112-.254.198-.404.255s-.311.082-.472.075c-.152.004-.304-.023-.445-.08s-.27-.142-.377-.25-.193-.236-.25-.377-.084-.293-.08-.445V3.009c0-.768-.382-1.152-1.15-1.152H3.007c-.768 0-1.15.384-1.15 1.15v11.672c0 .766.382 1.15 1.15 1.15h11.67c.768 0 1.15.403 1.15 1.206.004.152-.023.303-.079.444s-.141.269-.249.376c-.182.219-.456.33-.822.33zm12.822-9.37c.766 0 1.15.403 1.15 1.206v11.67c.004.152-.023.304-.08.445s-.142.27-.25.377c-.182.217-.456.328-.822.328h-7.013c-.152.004-.303-.023-.444-.08s-.269-.142-.376-.25-.193-.235-.25-.376-.084-.292-.08-.444v-11.67c0-.366.11-.657.33-.877.107-.108.236-.193.377-.25s.293-.084.445-.08zm-5.809 2.356v8.163h4.657v-8.164z" fill="url(#A)"/>
</svg>