<svg
	xmlns="http://www.w3.org/2000/svg" width="13.781" height="17.956" viewBox="-0.5 -0.5 13.781 17.956">
	<defs>
		<linearGradient id="A" x1="1.566" y1="4.091" x2="12.476" y2="13.662" gradientUnits="userSpaceOnUse">
			<stop stop-color="#0195ff"/>
			<stop offset=".991" stop-color="#1147e9"/>
		</linearGradient>
		<linearGradient id="B" x1="3.722" y1=".727" x2="9.536" y2="6.031" gradientUnits="userSpaceOnUse">
			<stop stop-color="#1348ff"/>
			<stop offset="1" stop-color="#06238d"/>
		</linearGradient>
	</defs>
	<path d="M5.406 14.292L4.105 12.78a.9.9 0 0 0-.703-.316.8.8 0 0 0-.668.316c-.211.211-.316.445-.316.703a.8.8 0 0 0 .316.668l2.953 2.988c.211.211.445.316.703.316s.492-.105.703-.316l2.988-2.988a.91.91 0 0 0 .281-.668c0-.234-.094-.469-.281-.703-.211-.211-.445-.316-.703-.316s-.492.105-.703.316l-1.23 1.512V12.85c0-.492.117-.961.352-1.406a2.66 2.66 0 0 1 .949-1.09l2.355-1.582c.68-.469 1.219-1.078 1.617-1.828a5.06 5.06 0 0 0 .562-2.355V2.725c0-.656-.328-.984-.984-.984s-.984.328-.984.984v1.863c0 1.078-.434 1.91-1.301 2.496L7.48 8.807l-.633.527c-.211.188-.375.398-.492.633A3.64 3.64 0 0 0 5.16 8.772L2.77 7.19A3.05 3.05 0 0 1 1.82 6.1c-.234-.422-.352-.891-.352-1.406V2.831c0-.305-.082-.551-.246-.738-.187-.187-.434-.281-.738-.281s-.539.094-.703.281c-.187.188-.281.434-.281.738v1.863a5.06 5.06 0 0 0 .562 2.355c.375.75.914 1.359 1.617 1.828l2.391 1.582c.398.281.715.633.949 1.055.211.445.34.926.387 1.441z" fill="url(#A)"/>
	<path d="M8.283.462c0 .26.085.493.254.687l.01.011c.179.179.409.264.67.264s.49-.085.67-.264a.96.96 0 0 0 .293-.698.87.87 0 0 0-.292-.67.87.87 0 0 0-.67-.292.87.87 0 0 0-.675.298c-.176.179-.259.406-.259.664z" fill="url(#B)"/>
	<path d="M2.856 1.479c-.17-.194-.254-.427-.254-.687s.085-.49.264-.669.409-.264.67-.264.486.083.664.259a.87.87 0 0 1 .298.675.96.96 0 0 1-.293.698c-.179.179-.409.264-.67.264s-.49-.085-.67-.264z" fill="url(#B)"/>
	<path d="M5.703 7.599c-.175-.175-.243-.42-.243-.691v-.969c0-.258.083-.486.259-.664a.87.87 0 0 1 .675-.298c.28 0 .523.095.703.298.176.179.259.406.259.664v.969c0 .273-.072.519-.253.694s-.431.24-.709.24c-.271 0-.516-.068-.691-.243z" fill="url(#B)"/>
	<path d="M8.283 4.928c0 .28.07.532.25.712s.432.25.712.25c.273 0 .519-.072.694-.253s.24-.431.24-.709V2.773c0-.278-.067-.529-.24-.709s-.421-.253-.694-.253c-.28 0-.532.07-.712.25s-.25.432-.25.712z" fill="url(#B)"/>
	<path d="M2.842 5.511c-.173-.18-.24-.431-.24-.709V3.356c0-.271.068-.516.243-.691s.42-.243.691-.243c.258 0 .486.083.664.259a.87.87 0 0 1 .298.675v1.446c0 .28-.095.523-.298.703-.179.176-.406.259-.664.259-.273 0-.519-.072-.694-.253z" fill="url(#B)"/>
	<path d="M7.063 2.376a.87.87 0 0 0-.67-.292.87.87 0 0 0-.675.298c-.176.179-.259.406-.259.664s.085.49.264.67.409.264.67.264.486-.083.664-.259a.87.87 0 0 0 .298-.675.87.87 0 0 0-.292-.67z" fill="url(#B)"/>
</svg>