<svg
	xmlns="http://www.w3.org/2000/svg" width="27.999" height="28" viewBox="-0.5 -0.5 27.999 28">
	  <style type="text/css">
		.st0{stop-color:#00ceac;}
		.st1{stop-color:#07838f;}
	  </style>
	<defs>
		<linearGradient id="A" x1="2.039" y1="3.474" x2="23.454" y2="25.308" gradientUnits="userSpaceOnUse">
			<stop class="st0"/>
			<stop offset="1" class="st1"/>
		</linearGradient>
	</defs>
	<path d="M27.061-.061c.293.293.438.603.438.931v25.204a1.46 1.46 0 0 1-.384.987c-.256.291-.603.438-1.041.438H6.513c-.438 0-.785-.147-1.04-.438a1.46 1.46 0 0 1-.386-.987V9.309c0-.366.147-.694.438-.987l8.384-8.383a1.25 1.25 0 0 1 .987-.438h11.176c.403 0 .731.146.987.438zm-2.357 2.356h-9.259l-.549.547v3.671a2.69 2.69 0 0 1-.821 1.973 2.69 2.69 0 0 1-1.973.822H8.431l-.549.547v14.849h16.821zM10.677 14.897c0-.402.128-.729.384-.985.256-.293.603-.438 1.042-.438h8.383c.403 0 .731.146.987.438.291.256.438.584.438.985s-.147.731-.438.987c-.13.128-.284.228-.454.294s-.351.097-.533.09h-8.383c-.95 0-1.425-.456-1.425-1.371zm9.808 4.219c.403 0 .731.147.987.438.138.113.249.255.325.417a1.19 1.19 0 0 1 .113.516 1.36 1.36 0 0 1-.438.985 1.25 1.25 0 0 1-.987.438h-8.383c-.438 0-.786-.145-1.041-.438a1.46 1.46 0 0 1-.384-.985 1.26 1.26 0 0 1 .384-.931c.256-.293.603-.438 1.041-.438zM8.87-.061c.293.293.438.621.438.987 0 .328-.146.638-.438.929L2.295 8.43v17.644a1.46 1.46 0 0 1-.384.987c-.256.291-.601.438-1.04.438a1.25 1.25 0 0 1-.543-.107c-.171-.076-.322-.189-.444-.331a1.46 1.46 0 0 1-.384-.987V7.883c0-.402.147-.729.438-.985L6.897-.061a1.36 1.36 0 0 1 .987-.438c.365 0 .693.146.985.438z" fill="url(#A)"/>
</svg>