<svg
	xmlns="http://www.w3.org/2000/svg" width="20.015" height="28" viewBox="-0.5 -0.5 20.015 28">
	  <style type="text/css">
		.st0{stop-color:#00ceac;}
		.st1{stop-color:#07838f;}
	  </style>
	<defs>
		<linearGradient id="A" x1="1.315" y1="3.474" x2="21.706" y2="18.336" gradientUnits="userSpaceOnUse">
			<stop class="st0"/>
			<stop offset="1" class="st1"/>
		</linearGradient>
	</defs>
	<path d="M19.17-.116a1.36 1.36 0 0 1 .263.454c.059.17.087.351.08.533v25.203c0 .366-.122.718-.344.987a1.14 1.14 0 0 1-.397.331 1.02 1.02 0 0 1-.486.107H.726a1.02 1.02 0 0 1-.486-.107 1.14 1.14 0 0 1-.397-.331c-.221-.269-.344-.622-.344-.987V9.256c0-.366.115-.677.344-.933L7.349-.116c.241-.247.556-.384.884-.384h10.056a1.13 1.13 0 0 1 .882.384zm-2.158 2.411H8.771l-.538.549v3.615a2.85 2.85 0 0 1-.738 1.973 2.42 2.42 0 0 1-.806.615 2.19 2.19 0 0 1-.958.207H2.49l-.49.601v14.851h15.01V2.293zM4.503 14.898c0-.95.408-1.425 1.228-1.425h7.553c.818 0 1.226.473 1.226 1.425 0 .912-.408 1.368-1.224 1.368H5.729c-.818 0-1.226-.456-1.226-1.368zm8.781 4.162c.361 0 .655.147.884.438.222.269.344.622.344.987s-.123.718-.344.987a1.19 1.19 0 0 1-.406.293c-.152.066-.314.096-.477.089H5.73c-.163.007-.325-.024-.477-.09a1.19 1.19 0 0 1-.406-.294c-.221-.269-.343-.62-.343-.985s.122-.716.343-.985c.109-.142.244-.256.397-.331a1.02 1.02 0 0 1 .486-.107z" fill="url(#A)"/>
</svg>