<svg
	xmlns="http://www.w3.org/2000/svg" width="27.922" height="23.867" viewBox="-0.5 -0.5 27.922 23.867">
	<defs>
		<linearGradient id="A" x1="3.686" y1="16.428" x2="6.761" y2="26.956" gradientUnits="userSpaceOnUse">
			<stop stop-color="#0195ff"/>
			<stop offset=".991" stop-color="#1147e9"/>
		</linearGradient>
		<linearGradient id="B" x1="7.295" y1="2.109" x2="19.706" y2="14.418" gradientUnits="userSpaceOnUse">
			<stop stop-color="#1348ff"/>
			<stop offset="1" stop-color="#06238d"/>
		</linearGradient>
	</defs>
	<g fill-rule="evenodd">
		<path d="M4.541 15.208H3.58a4.08 4.08 0 0 0 0 8.16h19.762a4.08 4.08 0 0 0 0-8.16h-.714a4.03 4.03 0 0 1-2.86 1.186h-1.353a4.03 4.03 0 0 1-2.86-1.186H13.63a4.04 4.04 0 0 1-4.039 3.902H8.58a4.04 4.04 0 0 1-4.039-3.902zm14.65 5.205c.621 0 1.125-.504 1.125-1.125s-.504-1.125-1.125-1.125-1.125.504-1.125 1.125.504 1.125 1.125 1.125zm4.294-1.125c0 .621-.503 1.125-1.125 1.125s-1.125-.504-1.125-1.125.504-1.125 1.125-1.125 1.125.504 1.125 1.125z" fill="url(#A)"/>
		<path d="M12.582-.5c1.196 0 2.166.97 2.166 2.166v1.017a2.16 2.16 0 0 1-.782 1.666l.501 1.988h.072c.209 0 .406.052.579.145l1.757-.892v-.701c0-1.196.97-2.166 2.166-2.166h1.011c1.196 0 2.166.97 2.166 2.166v1.017c0 1.196-.97 2.166-2.166 2.166h-1.011a2.16 2.16 0 0 1-1.575-.679l-1.699.862v.215l.006-.009 1.287.843c.371-.298.843-.477 1.356-.477h1.353c1.196 0 2.166.97 2.166 2.166v1.359c0 1.196-.97 2.166-2.166 2.166h-1.353c-1.196 0-2.166-.97-2.166-2.166v-1.338l-1.16-.76c-.166.083-.353.13-.551.13h-1.001l-2.008 2.697c.146.292.229.621.229.97v1.017c0 1.196-.97 2.166-2.166 2.166H8.581c-1.196 0-2.166-.97-2.166-2.166v-1.017c0-1.196.97-2.166 2.166-2.166h1.012c.156 0 .308.017.455.048l1.75-2.349c-.05-.133-.077-.277-.077-.428v-.318h-1.78c-.285.863-1.098 1.486-2.057 1.486H6.872c-1.196 0-2.166-.97-2.166-2.166V7.141c0-1.196.97-2.166 2.166-2.166h1.012c1.137 0 2.069.875 2.159 1.989h1.836a1.23 1.23 0 0 1 .672-.56l-.392-1.554h-.588c-1.196 0-2.166-.97-2.166-2.166V1.666C9.404.47 10.374-.5 11.57-.5zm.291 2.166a.29.29 0 0 0-.291-.291H11.57a.29.29 0 0 0-.291.291v1.017a.29.29 0 0 0 .291.291h1.012a.29.29 0 0 0 .291-.291zm7.472 3.223a.29.29 0 0 0-.291-.291h-1.011a.29.29 0 0 0-.291.291v1.017a.29.29 0 0 0 .291.291h1.011a.29.29 0 0 0 .291-.291zm-.284 6.105a.29.29 0 0 0-.291-.291h-1.353a.29.29 0 0 0-.291.291v1.359a.29.29 0 0 0 .291.291h1.353a.29.29 0 0 0 .291-.291zM7.884 6.85a.29.29 0 0 1 .291.291v1.017a.29.29 0 0 1-.291.291H6.872a.29.29 0 0 1-.291-.291V7.141a.29.29 0 0 1 .291-.291zm2 7.202a.29.29 0 0 0-.291-.291H8.581a.29.29 0 0 0-.291.291v1.017a.29.29 0 0 0 .291.291h1.012a.29.29 0 0 0 .291-.291z" fill="url(#B)"/>
	</g>
</svg>