<svg
	xmlns="http://www.w3.org/2000/svg" width="28.155" height="28" viewBox="-0.5 -0.5 28.155 28">
	  <style type="text/css">
		.st0{stop-color:#00ceac;}
		.st1{stop-color:#07838f;}
	  </style>
	<defs>
		<linearGradient id="A" x1="2.053" y1="3.474" x2="23.466" y2="25.428" gradientUnits="userSpaceOnUse">
			<stop class="st0"/>
			<stop offset="1" class="st1"/>
		</linearGradient>
	</defs>
	<path d="M8.91 8.439c-.678.181-1.13.553-1.433 1.167l-.209.416v6.962l.176.367a2.17 2.17 0 0 0 1.488 1.222c.474.12 8.817.12 9.291 0a2.17 2.17 0 0 0 1.488-1.222l.176-.367v-6.962l-.209-.416a2.08 2.08 0 0 0-1.455-1.167c-.457-.12-8.872-.115-9.313 0zm7.285 2.125c-.061.044-.694.427-1.411.854l-1.295.778-1.35-.833-1.367-.849c-.011-.011 1.223-.022 2.755-.022l2.667.071zm1.598 5.883c-.039.104-8.392.104-8.431 0-.017-.033-.022-1.024-.017-2.191l.017-2.125 1.598.991c1.829 1.134 2.077 1.238 2.761 1.189.54-.038.694-.115 2.529-1.26l1.543-.959.017 2.142-.017 2.213zM12.503-.484C8.916-.117 6.006 1.22 3.609 3.597 1.383 5.81.033 8.549-.43 11.781c-.094.646-.094 2.805 0 3.451.463 3.232 1.813 5.971 4.039 8.184s4.981 3.555 8.232 4.015c.65.093 2.821.093 3.472 0 3.251-.46 6.006-1.802 8.233-4.015s3.576-4.952 4.039-8.184c.094-.646.094-2.804 0-3.451-.463-3.232-1.813-5.971-4.039-8.184-2.171-2.158-4.871-3.5-7.985-3.977a24.26 24.26 0 0 0-3.058-.104zm2.871 2.92c4.811.789 8.519 4.486 9.346 9.317a12.45 12.45 0 0 1 0 3.506c-.826 4.842-4.507 8.501-9.379 9.323a12.68 12.68 0 0 1-3.527 0c-4.871-.822-8.552-4.481-9.379-9.323-.165-.969-.165-2.536 0-3.506.408-2.394 1.488-4.481 3.18-6.162 1.868-1.862 4.232-2.969 6.943-3.259.656-.071 2.055-.016 2.816.104z" fill="url(#A)"/>
</svg>