<svg
	xmlns="http://www.w3.org/2000/svg" width="28" height="28" viewBox="-0.5 -0.5 28 28">
	  <style type="text/css">
		.st0{stop-color:#00ceac;}
		.st1{stop-color:#07838f;}
	  </style>
	<defs>
		<linearGradient id="A" x1="2.039" y1="3.474" x2="23.454" y2="25.309" gradientUnits="userSpaceOnUse">
			<stop class="st0"/>
			<stop offset="1" class="st1"/>
		</linearGradient>
	</defs>
	<path fill-rule="evenodd" d="M26.996 12.422l-6.65-5.516a1.4 1.4 0 0 0-1.484-.196c-.49.224-.798.728-.798 1.274v2.534L13.71 6.906a1.4 1.4 0 0 0-1.484-.196c-.49.224-.798.728-.798 1.274V12.1H8.586V.9c0-.77-.63-1.4-1.4-1.4H.9C.13-.5-.5.13-.5.9v25.2c0 .77.63 1.4 1.4 1.4h25.2c.77 0 1.4-.63 1.4-1.4V13.5a1.39 1.39 0 0 0-.504-1.078zM5.758 24.7H2.3v-3.5h3.458zm0-6.3H2.3v-3.5h3.458zm0-6.3H2.3V8.824h3.458zm0-6.076H2.3V2.3h3.458zM24.686 24.7H8.558v-3.5h1.848c.77 0 1.4-.63 1.4-1.4s-.63-1.4-1.4-1.4H8.558v-3.5H12.8c.77 0 1.4-.63 1.4-1.4v-2.534l4.354 3.612a1.4 1.4 0 0 0 1.484.196c.49-.224.798-.728.798-1.274v-2.534l3.85 3.192zm-9.366-3.15a1.75 1.75 0 1 0 0-3.5 1.75 1.75 0 1 0 0 3.5zm6.93-1.75a1.75 1.75 0 1 1-3.5 0 1.75 1.75 0 1 1 3.5 0z" fill="url(#A)"/>
</svg>