<svg
	xmlns="http://www.w3.org/2000/svg" width="25.2" height="28" viewBox="-0.5 -0.5 25.2 28">
	  <style type="text/css">
		.st0{stop-color:#00ceac;}
		.st1{stop-color:#07838f;}
	  </style>
	<defs>
		<linearGradient id="A" x1="1.785" y1="3.474" x2="23.126" y2="23.057" gradientUnits="userSpaceOnUse">
			<stop class="st0"/>
			<stop offset="1" class="st1"/>
		</linearGradient>
	</defs>
	<path d="M11.757-.483C11.445-.401.184 4.711.02 4.837a1.79 1.79 0 0 0-.356.471l-.164.323v7.882V21.4l.137.268c.077.148.224.345.339.438.131.115 2.172 1.062 5.959 2.764 6.183 2.781 6.074 2.737 6.577 2.562.399-.137 11.37-5.085 11.595-5.227.23-.148.46-.46.536-.728.082-.274.071-15.665-.006-15.95-.082-.285-.334-.635-.558-.766-.093-.06-2.736-1.264-5.866-2.671-5.16-2.326-5.724-2.567-6.019-2.584-.181-.011-.378-.005-.438.011zm4.224 4.653l3.808 1.773c-.066.066-7.584 3.448-7.677 3.454a349.75 349.75 0 0 1-7.726-3.454c-.033-.027 7.573-3.492 7.693-3.503.027-.005 1.784.772 3.901 1.73zm-9.423 5.846l4.131 1.861v6.005l-.038 6.01c-.016 0-1.904-.843-4.186-1.867l-4.148-1.872v-6.015l.055-5.999c.027.005 1.91.854 4.186 1.877zm15.349 4.122v6.01l-4.115 1.855-4.213 1.878c-.093.022-.098-.274-.088-5.988l.016-6.01 4.158-1.877 4.203-1.877c.022 0 .038 2.704.038 6.01z" fill="url(#A)"/>
</svg>