<svg
	xmlns="http://www.w3.org/2000/svg" width="17.206" height="17.633" viewBox="-0.5 -0.5 17.206 17.633">
	<defs>
		<radialGradient id="A" cx="0" cy="0" r="1" gradientUnits="userSpaceOnUse" gradientTransform="matrix(11.912407,8.9086034,-16.146758,21.591123,2.1681469,1.3684734)">
			<stop stop-color="#0195ff"/>
			<stop offset="1" stop-color="#1147e9"/>
		</radialGradient>
		<radialGradient id="B" cx="0" cy="0" r="1" gradientUnits="userSpaceOnUse" gradientTransform="matrix(5.083532,7.1086987,-6.1299985,4.3836494,9.4458615,8.4626774)">
			<stop stop-color="#1348ff"/>
			<stop offset="1" stop-color="#06238d"/>
		</radialGradient>
	</defs>
	<g fill-rule="evenodd">
		<path d="M8.218 1.263c-2.014 0-3.522 1.953-3.382 3.803a.88.88 0 0 1-1.03.935c-.84-.146-1.45.079-1.853.45-.417.383-.689.996-.689 1.747 0 .742.221 1.288.569 1.645s.906.619 1.789.619H5.71a.88.88 0 1 1 0 1.763H3.621c-1.252 0-2.309-.389-3.052-1.151S-.5 9.29-.5 8.198c0-1.173.43-2.282 1.258-3.045.624-.574 1.431-.912 2.347-.956C3.415 1.806 5.409-.5 8.218-.5c2.214 0 3.874 1.237 4.773 3.084 1.638.013 3.165.971 3.682 2.824a.88.88 0 0 1-1.698.474c-.32-1.146-1.296-1.676-2.413-1.504a.88.88 0 0 1-.96-.564c-.602-1.618-1.794-2.551-3.383-2.551z" fill="url(#A)"/>
		<path d="M9.459 7.851h.425v.465h.464V6.927h-.464v.459h-.425v-.459h-.464v1.389h.464zm1.5.465h.464v-.928h.409v-.461H10.55v.461h.409zm1.851-.195l-.32-.494v.689h-.454V6.927h.484l.298.488.297-.488h.484v1.389h-.462v-.689l-.319.494zm2.109-.265h-.653v-.93h-.464v1.389h1.117zM8.98 16.305L8.316 8.86h7.298l-.665 7.445-2.988.828zm1.2-5.226l.177 1.983h1.606.005.882l-.083.933-.803.217-.802-.216-.052-.574h-.389-.333l.101 1.13 1.475.409.003-.001 1.473-.408.011-.121.169-1.894.018-.193h-.194-1.474-.005-.947l-.066-.737h1.016.002 1.734.002l.014-.162.033-.365.017-.193h-1.801-.002-1.802z" fill="url(#B)"/>
	</g>
</svg>