<svg
	xmlns="http://www.w3.org/2000/svg" width="26.366" height="25.073" viewBox="-0.5 -0.5 26.366 25.073">
	<defs>
		<radialGradient id="A" cx="0" cy="0" r="1" gradientUnits="userSpaceOnUse" gradientTransform="matrix(18.254585,17.553223,-33.142093,34.466329,3.5887182,3.1816)">
			<stop stop-color="#0195ff"/>
			<stop offset="1" stop-color="#1147e9"/>
		</radialGradient>
		<radialGradient id="B" cx="0" cy="0" r="1" gradientUnits="userSpaceOnUse" gradientTransform="matrix(18.366045,17.465437,-15.895534,16.71519,3.5827432,3.271919)">
			<stop stop-color="#1348ff"/>
			<stop offset="1" stop-color="#06238d"/>
		</radialGradient>
	</defs>
	<g fill-rule="evenodd">
		<path d="M12.537-.5c-4.195 0-7.176 3.415-7.672 6.98-1.349.08-2.541.587-3.466 1.439C.147 9.072-.5 10.744-.5 12.508c0 1.639.497 3.189 1.614 4.334.837.859 1.936 1.402 3.218 1.624a6.15 6.15 0 0 1 .4-.695l.015-.023.014-.019a5.73 5.73 0 0 1 .845-.95 4.72 4.72 0 0 1-.195-1.364c0-.616.118-1.217.359-1.787a4.56 4.56 0 0 1 .977-1.46 4.63 4.63 0 0 1 1.479-.997c.57-.241 1.171-.359 1.787-.359.254 0 .505.02.753.061.315-.224.653-.413 1.014-.565.651-.275 1.338-.411 2.046-.411s1.395.136 2.046.411c.633.268 1.195.65 1.672 1.143.494.477.876 1.039 1.143 1.672.275.651.411 1.338.411 2.046a5.22 5.22 0 0 1-.378 1.967c.482.381.911.831 1.283 1.345 3.197-.558 5.863-3.178 5.863-7.106 0-3.903-2.789-6.902-6.147-7.219C18.373 1.372 15.874-.5 12.537-.5z" fill="url(#A)"/>
		<path d="M16.4 17.692c.952.374 1.725.985 2.319 1.835s.892 1.81.892 2.88v1.453c0 .204-.077.374-.229.51a.66.66 0 0 1-.484.204h-1.453a.78.78 0 0 1-.535-.204.69.69 0 0 1-.204-.51.69.69 0 0 1 .204-.51c.153-.153.331-.229.535-.229h.714v-.714a3.56 3.56 0 0 0-.28-1.402 3.38 3.38 0 0 0-.79-1.147 3.38 3.38 0 0 0-1.147-.79c-.425-.187-.892-.28-1.402-.28h-1.427c-.51 0-.985.093-1.427.28-.425.187-.807.45-1.147.79a3.57 3.57 0 0 0-.765 1.147 3.56 3.56 0 0 0-.28 1.402v.714h.714c.204 0 .374.077.51.229a.69.69 0 0 1 .204.51.69.69 0 0 1-.714.714H8.754a.75.75 0 0 1-.51-.204.69.69 0 0 1-.204-.51v-1.033H6.101c-.187 0-.354-.069-.498-.197l-.007-.006a.69.69 0 0 1-.203-.505v-1.12a3.99 3.99 0 0 1 .184-1.228l.001-.003c.135-.392.311-.752.529-1.078l.002-.004a4.08 4.08 0 0 1 .816-.858 3.82 3.82 0 0 1 .828-.521c-.461-.515-.69-1.148-.69-1.891 0-.401.076-.782.229-1.143s.36-.671.624-.935a2.98 2.98 0 0 1 .955-.643c.361-.153.742-.229 1.143-.229s.782.076 1.143.229l.017.007.079-.081a3.66 3.66 0 0 1 1.172-.79 3.56 3.56 0 0 1 1.402-.28 3.56 3.56 0 0 1 1.402.28 3.38 3.38 0 0 1 1.147.79 3.38 3.38 0 0 1 .79 1.147 3.56 3.56 0 0 1 .28 1.402 3.56 3.56 0 0 1-.28 1.402 3.65 3.65 0 0 1-.765 1.121zM8.27 20.878a4.6 4.6 0 0 0-.132.512H6.83v-.392c0-.36.068-.699.204-1.019s.322-.6.556-.834a2.73 2.73 0 0 1 .835-.576c.32-.135.665-.203 1.038-.203h.603l-.114.092c-.391.306-.731.663-1.019 1.07a5.87 5.87 0 0 0-.663 1.351zm5.556-7.876c-.595 0-1.104.212-1.529.637s-.637.935-.637 1.529.212 1.104.637 1.529.935.637 1.529.637 1.104-.212 1.529-.637.637-.935.637-1.529-.212-1.104-.637-1.529-.935-.637-1.529-.637zm-3.619 2.166c0 .615.127 1.165.38 1.65-.176.073-.367.109-.574.109a1.45 1.45 0 0 1-1.067-.445 1.45 1.45 0 0 1-.445-1.067 1.45 1.45 0 0 1 .445-1.067 1.45 1.45 0 0 1 1.067-.445 1.55 1.55 0 0 1 .401.051c-.138.386-.208.791-.208 1.215z" fill="url(#B)"/>
	</g>
</svg>