<svg
	xmlns="http://www.w3.org/2000/svg" width="26.366" height="25.073" viewBox="-0.5 -0.5 26.366 25.073">
	<defs>
		<radialGradient id="A" cx="0" cy="0" r="1" gradientUnits="userSpaceOnUse" gradientTransform="matrix(18.254554,17.553254,-33.142154,34.466271,3.588728,3.181502)">
			<stop stop-color="#0195ff"/>
			<stop offset="1" stop-color="#1147e9"/>
		</radialGradient>
		<radialGradient id="B" cx="0" cy="0" r="1" gradientUnits="userSpaceOnUse" gradientTransform="matrix(18.366045,17.465437,-15.895534,16.71519,3.582753,3.271919)">
			<stop stop-color="#1348ff"/>
			<stop offset="1" stop-color="#06238d"/>
		</radialGradient>
	</defs>
	<path fill-rule="evenodd" d="M4.865 6.48C5.362 2.915 8.342-.5 12.537-.5c3.337 0 5.836 1.872 7.182 4.656 3.358.317 6.147 3.316 6.147 7.219 0 4.189-3.033 6.891-6.509 7.19v-8.79l2.517 2.517c.323.323.846.323 1.169 0s.323-.846 0-1.169l-3.928-3.928c-.323-.323-.846-.323-1.169 0l-3.928 3.928c-.323.323-.323.846 0 1.169s.846.323 1.169 0l2.517-2.517v8.806h-3.333l-.057-.082a6.65 6.65 0 0 0-1.41-1.48l.005-.011.004-.01a5.07 5.07 0 0 0 .4-1.991c0-.689-.132-1.358-.4-1.991a4.89 4.89 0 0 0-1.113-1.627 4.89 4.89 0 0 0-1.627-1.113c-.633-.268-1.301-.4-1.991-.4a5.07 5.07 0 0 0-1.991.4 5.17 5.17 0 0 0-1.652 1.113 5.08 5.08 0 0 0-1.088 1.627c-.268.633-.4 1.301-.4 1.991a5.11 5.11 0 0 0 .402 2.035l-.093.075c-.297.234-.571.49-.822.769-.533-.27-1.011-.617-1.426-1.043C-.003 15.697-.5 14.147-.5 12.508c0-1.764.647-3.437 1.899-4.589.926-.852 2.117-1.359 3.466-1.439z" fill="url(#A)"/>
	<path d="M10.715 17.692c.952.374 1.725.986 2.319 1.835a4.9 4.9 0 0 1 .892 2.88v1.453c0 .204-.077.374-.229.51a.66.66 0 0 1-.484.204H11.76a.78.78 0 0 1-.535-.204.69.69 0 0 1-.204-.51.69.69 0 0 1 .204-.51c.153-.153.331-.229.535-.229h.714v-.714a3.56 3.56 0 0 0-.28-1.402 3.38 3.38 0 0 0-.79-1.147 3.38 3.38 0 0 0-1.147-.79c-.425-.187-.892-.28-1.402-.28H7.427c-.51 0-.985.093-1.427.28-.425.187-.807.45-1.147.79a3.57 3.57 0 0 0-.765 1.147 3.56 3.56 0 0 0-.28 1.402v.714h.714c.204 0 .374.077.51.229a.69.69 0 0 1 .204.51.69.69 0 0 1-.714.714H3.069a.75.75 0 0 1-.51-.204.69.69 0 0 1-.204-.51v-1.453a4.97 4.97 0 0 1 .229-1.529 5.87 5.87 0 0 1 .663-1.351 5.08 5.08 0 0 1 1.019-1.07 4.76 4.76 0 0 1 1.3-.765c-.697-.663-1.045-1.504-1.045-2.523a3.56 3.56 0 0 1 .28-1.402 3.57 3.57 0 0 1 .765-1.147 3.66 3.66 0 0 1 1.172-.79 3.56 3.56 0 0 1 1.402-.28 3.56 3.56 0 0 1 1.402.28 3.38 3.38 0 0 1 1.147.79 3.38 3.38 0 0 1 .79 1.147 3.56 3.56 0 0 1 .28 1.402 3.56 3.56 0 0 1-.28 1.402 3.65 3.65 0 0 1-.765 1.121zm-2.574-4.69c-.595 0-1.104.212-1.529.637s-.637.935-.637 1.529.212 1.104.637 1.529.935.637 1.529.637 1.104-.212 1.529-.637.637-.935.637-1.529-.212-1.104-.637-1.529-.935-.637-1.529-.637z" fill="url(#B)"/>
</svg>