<svg
	xmlns="http://www.w3.org/2000/svg" width="28" height="28" viewBox="-0.5 -0.5 28 28">
	  <style type="text/css">
		.st0{stop-color:#00ceac;}
		.st1{stop-color:#07838f;}
	  </style>
	<defs>
		<linearGradient id="A" x1="2.039" y1="3.474" x2="23.454" y2="25.309" gradientUnits="userSpaceOnUse">
			<stop class="st0"/>
			<stop offset="1" class="st1"/>
		</linearGradient>
	</defs>
	<path d="M15.25 13.173a1.7 1.7 0 0 0-.116-.68c-.085-.216-.213-.413-.376-.578s-.362-.291-.578-.376-.448-.124-.68-.116c-.232-.008-.464.031-.68.116s-.413.213-.578.376-.291.362-.376.578a1.7 1.7 0 0 0-.116.68v7c0 .472.165.892.492 1.258.165.163.362.291.579.375s.448.123.68.115a1.7 1.7 0 0 0 1.258-.49c.327-.366.492-.784.492-1.26v-7zM13.5-.5c1.932 0 3.736.366 5.414 1.094 1.713.73 3.208 1.732 4.483 3.008 1.283 1.287 2.305 2.81 3.008 4.485.73 1.676 1.094 3.482 1.094 5.413a13.82 13.82 0 0 1-1.094 5.469c-.713 1.654-1.734 3.158-3.008 4.431-1.286 1.282-2.809 2.303-4.483 3.006-1.71.736-3.553 1.108-5.414 1.094-1.878.011-3.739-.361-5.469-1.094a14.23 14.23 0 0 1-7.437-7.437A13.82 13.82 0 0 1-.5 13.5c0-1.932.364-3.736 1.094-5.413.73-1.715 1.732-3.209 3.008-4.485S6.378 1.307 8.031.594A13.82 13.82 0 0 1 13.5-.5zm0 9.735a2.01 2.01 0 0 0 1.477-.602 2.01 2.01 0 0 0 .602-1.477c0-.583-.201-1.074-.602-1.475-.184-.21-.411-.377-.666-.491s-.532-.17-.811-.166c-.279-.004-.556.052-.811.166s-.482.281-.666.491c-.401.401-.6.892-.6 1.475s.2 1.076.6 1.477.893.602 1.477.602z" fill="url(#A)"/>
</svg>