<svg
	xmlns="http://www.w3.org/2000/svg" width="29.878" height="29.941" viewBox="-0.5 -0.5 29.878 29.941">
	<defs>
		<linearGradient id="A" x1="2.869" y1="3.977" x2="23.001" y2="19.094" gradientUnits="userSpaceOnUse">
			<stop stop-color="#0195ff"/>
			<stop offset=".991" stop-color="#1147e9"/>
		</linearGradient>
		<linearGradient id="B" x1="2.308" y1="2.528" x2="6.617" y2="6.641" gradientUnits="userSpaceOnUse">
			<stop stop-color="#1348ff"/>
			<stop offset="1" stop-color="#06238d"/>
		</linearGradient>
		<linearGradient id="C" x1="14.463" y1="8.574" x2="26.233" y2="20.853" gradientUnits="userSpaceOnUse">
			<stop stop-color="#0195ff"/>
			<stop offset=".991" stop-color="#1147e9"/>
		</linearGradient>
		<linearGradient id="D" x1="16.948" y1="11.908" x2="21.862" y2="18.281" gradientUnits="userSpaceOnUse">
			<stop stop-color="#1348ff"/>
			<stop offset="1" stop-color="#06238d"/>
		</linearGradient>
	</defs>
	<path fill-rule="evenodd" d="M10.12-.5h8.854a3 3 0 0 1 3 3v2.031a3.01 3.01 0 0 0-1.369 1.505 3 3 0 0 0-2.773-1.854h-1.875a6 6 0 0 0-6 6v1.875c0 .989.479 1.866 1.217 2.413-.738.546-1.217 1.424-1.217 2.413v1.875a6 6 0 0 0 6 6h1.875a3 3 0 0 0 2.773-1.854 3.01 3.01 0 0 0 1.369 1.506v2.031a3 3 0 0 1-3 3H2.5a3 3 0 0 1-3-3v-15.87a1.25 1.25 0 0 1 1.25-1.25h4.387a3.59 3.59 0 0 0 2.635-1.098A3.59 3.59 0 0 0 8.87 5.588V.75A1.25 1.25 0 0 1 10.12-.5zM6.349 14.307a1.5 1.5 0 0 0 0-3H4.371a1.5 1.5 0 0 0 0 3zm1.5 3.389a1.5 1.5 0 0 1-1.5 1.5H4.371a1.5 1.5 0 0 1 0-3h1.978a1.5 1.5 0 0 1 1.5 1.5zm-1.5 6.389a1.5 1.5 0 0 0 1.5-1.5 1.5 1.5 0 0 0-1.5-1.5H4.371a1.5 1.5 0 0 0-1.5 1.5 1.5 1.5 0 0 0 1.5 1.5z" fill="url(#A)"/>
	<path d="M7.3 5.253V1.622L1.442 7.784h3.326c.695 0 1.291-.248 1.787-.745S7.3 5.948 7.3 5.253z" fill="url(#B)"/>
	<path fill-rule="evenodd" d="M18.957 7.183c0-.621-.504-1.125-1.125-1.125h-1.875c-2.278 0-4.125 1.847-4.125 4.125v1.875c0 .621.504 1.125 1.125 1.125s1.125-.504 1.125-1.125v-1.875c0-1.036.839-1.875 1.875-1.875h1.875c.621 0 1.125-.504 1.125-1.125zm0 14.575c0 .621-.504 1.125-1.125 1.125h-1.875c-2.278 0-4.125-1.847-4.125-4.125v-1.875c0-.621.504-1.125 1.125-1.125s1.125.504 1.125 1.125v1.875c0 1.036.839 1.875 1.875 1.875h1.875c.621 0 1.125.504 1.125 1.125zm3.296 0c0 .621.504 1.125 1.125 1.125h1.875c2.278 0 4.125-1.847 4.125-4.125v-1.875c0-.621-.503-1.125-1.125-1.125s-1.125.504-1.125 1.125v1.875c0 1.035-.84 1.875-1.875 1.875h-1.875c-.621 0-1.125.504-1.125 1.125zm0-14.575c0-.621.504-1.125 1.125-1.125h1.875c2.278 0 4.125 1.847 4.125 4.125v1.875c0 .621-.503 1.125-1.125 1.125s-1.125-.504-1.125-1.125v-1.875c0-1.036-.839-1.875-1.875-1.875h-1.875c-.621 0-1.125-.504-1.125-1.125z" fill="url(#C)"/>
	<path d="M22.941 11.225c.247-.256.526-.385.835-.385s.588.128.835.385c.217.224.325.497.325.817s-.108.609-.325.865l-4.687 4.856c-.217.224-.495.337-.835.337s-.619-.112-.835-.337l-2.32-2.404c-.248-.256-.371-.545-.371-.865s.124-.609.371-.865.526-.385.835-.385.572.128.789.385l1.532 1.587z" fill="url(#D)"/>
</svg>