<svg
	xmlns="http://www.w3.org/2000/svg" width="19.919" height="19.961" viewBox="-0.5 -0.5 19.919 19.961">
	<defs>
		<linearGradient id="A" x1="1.746" y1="2.485" x2="15.167" y2="12.563" gradientUnits="userSpaceOnUse">
			<stop stop-color="#0195ff"/>
			<stop offset=".991" stop-color="#1147e9"/>
		</linearGradient>
		<linearGradient id="B" x1="1.372" y1="1.519" x2="4.244" y2="4.261" gradientUnits="userSpaceOnUse">
			<stop stop-color="#1348ff"/>
			<stop offset="1" stop-color="#06238d"/>
		</linearGradient>
		<linearGradient id="C" x1="9.475" y1="5.549" x2="17.322" y2="13.735" gradientUnits="userSpaceOnUse">
			<stop stop-color="#0195ff"/>
			<stop offset=".991" stop-color="#1147e9"/>
		</linearGradient>
		<linearGradient id="D" x1="11.132" y1="7.772" x2="14.408" y2="12.021" gradientUnits="userSpaceOnUse">
			<stop stop-color="#1348ff"/>
			<stop offset="1" stop-color="#06238d"/>
		</linearGradient>
	</defs>
	<path fill-rule="evenodd" d="M6.58-.5h5.903a2 2 0 0 1 2 2v1.354a2.01 2.01 0 0 0-.913 1.004 2 2 0 0 0-1.849-1.236h-1.25a4 4 0 0 0-4 4v1.25c0 .659.319 1.244.811 1.609-.492.364-.811.949-.811 1.609v1.25a4 4 0 0 0 4 4h1.25a2 2 0 0 0 1.849-1.236c.178.431.503.787.913 1.004v1.354a2 2 0 0 1-2 2H1.5a2 2 0 0 1-2-2V6.88c0-.221.088-.433.244-.589s.368-.244.589-.244h2.925c.683 0 1.269-.244 1.757-.732s.732-1.074.732-1.757V.333c0-.221.088-.433.244-.589S6.359-.5 6.58-.5zM4.066 9.371a1 1 0 0 0 0-2H2.747a1 1 0 0 0 0 2zm1 2.259a1 1 0 0 1-1 1H2.747a1 1 0 0 1 0-2h1.318a1 1 0 0 1 1 1zm-1 4.259a1 1 0 0 0 1-1 1 1 0 0 0-1-1H2.747a1 1 0 0 0-1 1 1 1 0 0 0 1 1z" fill="url(#A)"/>
	<path d="M4.7 3.335V.915L.795 5.023h2.217c.463 0 .861-.165 1.191-.496s.496-.728.496-1.191z" fill="url(#B)"/>
	<path fill-rule="evenodd" d="M12.471 4.622a.75.75 0 0 0-.75-.75h-1.25a2.75 2.75 0 0 0-2.75 2.75v1.25a.75.75 0 0 0 1.5 0v-1.25a1.25 1.25 0 0 1 1.25-1.25h1.25a.75.75 0 0 0 .75-.75zm0 9.717a.75.75 0 0 1-.75.75h-1.25a2.75 2.75 0 0 1-2.75-2.75v-1.25a.75.75 0 0 1 1.5 0v1.25a1.25 1.25 0 0 0 1.25 1.25h1.25a.75.75 0 0 1 .75.75zm2.198 0a.75.75 0 0 0 .75.75h1.25a2.75 2.75 0 0 0 2.75-2.75v-1.25a.75.75 0 0 0-.75-.75.75.75 0 0 0-.75.75v1.25a1.25 1.25 0 0 1-1.25 1.25h-1.25a.75.75 0 0 0-.75.75zm0-9.717a.75.75 0 0 1 .75-.75h1.25a2.75 2.75 0 0 1 2.75 2.75v1.25a.75.75 0 0 1-.75.75.75.75 0 0 1-.75-.75v-1.25a1.25 1.25 0 0 0-1.25-1.25h-1.25a.75.75 0 0 1-.75-.75z" fill="url(#C)"/>
	<path d="M15.127 7.316c.165-.171.351-.256.557-.256s.392.085.557.256c.144.15.217.331.217.545a.87.87 0 0 1-.217.577l-3.125 3.237a.74.74 0 0 1-.557.224.74.74 0 0 1-.557-.224l-1.547-1.603a.81.81 0 0 1-.248-.577.81.81 0 0 1 .248-.577c.165-.171.351-.256.557-.256s.382.085.526.256l1.021 1.058z" fill="url(#D)"/>
</svg>