<svg
	xmlns="http://www.w3.org/2000/svg" width="27.947" height="28" viewBox="-0.5 -0.5 27.947 28">
	  <style type="text/css">
		.st0{stop-color:#00ceac;}
		.st1{stop-color:#07838f;}
	  </style>
	<defs>
		<linearGradient id="A" x1="2.034" y1="3.474" x2="23.45" y2="25.269" gradientUnits="userSpaceOnUse">
			<stop class="st0"/>
			<stop offset="1" class="st1"/>
		</linearGradient>
	</defs>
	<path d="M12.189 20.992c.143-.144.313-.257.502-.332s.39-.111.592-.105c.438 0 .767.201.985.602.29.292.438.639.438 1.04s-.147.747-.437 1.04l-2.081 2.023c-.713.718-1.57 1.277-2.515 1.64a6.84 6.84 0 0 1-2.79.602c-.962-.003-1.912-.208-2.79-.602-.875-.364-1.676-.91-2.406-1.64-.709-.699-1.267-1.537-1.64-2.46a7.45 7.45 0 0 1-.548-2.79c0-.948.182-1.878.548-2.789s.91-1.733 1.64-2.461l4.156-4.102c.73-.73 1.55-1.277 2.46-1.641a7.25 7.25 0 0 1 2.844-.6c.948 0 1.878.2 2.79.6.912.366 1.715.912 2.406 1.641a1.42 1.42 0 0 1 .438 1.04c0 .401-.145.747-.437 1.038a1.42 1.42 0 0 1-1.039.438 1.42 1.42 0 0 1-1.038-.437c-.84-.91-1.86-1.365-3.062-1.365s-2.244.455-3.118 1.365l-4.153 4.102c-.91.84-1.365 1.86-1.365 3.063s.455 2.261 1.365 3.173c.84.875 1.86 1.313 3.063 1.313s2.244-.437 3.119-1.312l2.074-2.081zm13.017-19.25c.728.693 1.276 1.495 1.64 2.406a6.84 6.84 0 0 1 .602 2.79c0 .949-.201 1.878-.602 2.79-.364.875-.91 1.677-1.64 2.406l-4.102 4.1c-.767.767-1.605 1.33-2.517 1.698-.904.363-1.868.548-2.842.546a7.45 7.45 0 0 1-2.79-.548c-.901-.383-1.704-.962-2.352-1.696a1.36 1.36 0 0 1-.437-.983c0-.402.145-.747.438-1.04a1.36 1.36 0 0 1 .985-.437 1.42 1.42 0 0 1 1.038.438 3.85 3.85 0 0 0 1.423.985 4.39 4.39 0 0 0 3.336 0c.548-.219 1.04-.548 1.477-.985l4.156-4.156c.875-.838 1.313-1.859 1.313-3.063s-.437-2.259-1.312-3.171c-.84-.875-1.86-1.312-3.062-1.312s-2.261.438-3.173 1.313l-2.075 2.077a1.42 1.42 0 0 1-1.039.438 1.42 1.42 0 0 1-1.04-.437 1.42 1.42 0 0 1-.437-1.04 1.42 1.42 0 0 1 .438-1.038l2.079-2.081c.728-.728 1.549-1.276 2.46-1.64a7.25 7.25 0 0 1 2.842-.6c.948 0 1.878.201 2.79.602.91.364 1.713.91 2.406 1.64z" fill="url(#A)"/>
</svg>