<svg
	xmlns="http://www.w3.org/2000/svg" width="22.41" height="28" viewBox="-0.5 -0.5 22.41 28">
	  <style type="text/css">
		.st0{stop-color:#00ceac;}
		.st1{stop-color:#07838f;}
	  </style>
	<defs>
		<linearGradient id="A" x1="1.532" y1="3.474" x2="22.516" y2="20.598" gradientUnits="userSpaceOnUse">
			<stop class="st0"/>
			<stop offset="1" class="st1"/>
		</linearGradient>
	</defs>
	<path d="M17.691 10.678c1.206 0 2.209.421 3.014 1.261.803.803 1.205 1.788 1.205 2.96v8.381c0 1.206-.401 2.211-1.205 3.016S18.898 27.5 17.691 27.5H3.719c-1.205 0-2.209-.403-3.012-1.206S-.5 24.488-.5 23.281v-8.383c0-1.169.403-2.157 1.206-2.96.803-.842 1.806-1.261 3.012-1.261V6.514c0-.985.182-1.899.549-2.739.365-.877.859-1.625 1.478-2.246S7.097.414 7.937.049 9.691-.5 10.678-.5s1.899.182 2.741.549c.877.365 1.625.859 2.244 1.48s1.115 1.368 1.482 2.244c.365.842.547 1.753.547 2.741zm-11.178 0h8.383V6.514c0-1.205-.402-2.209-1.205-3.012s-1.808-1.208-3.014-1.208c-1.169 0-2.157.403-2.96 1.206S6.514 5.305 6.514 6.512zm12.603 4.22a1.25 1.25 0 0 0-.438-.987c-.13-.128-.284-.228-.454-.294s-.351-.097-.533-.09H3.719c-.949 0-1.424.456-1.424 1.371v8.381c0 .95.473 1.425 1.424 1.425h13.973c.403 0 .731-.128.987-.382.291-.256.438-.603.438-1.041zm-8.439 1.422c.803 0 1.461.274 1.973.822.549.51.822 1.168.822 1.973a2.69 2.69 0 0 1-.822 1.973c-.512.547-1.169.822-1.973.822-.768 0-1.425-.275-1.973-.824a2.69 2.69 0 0 1-.822-1.971c0-.805.275-1.462.822-1.973a2.69 2.69 0 0 1 1.973-.822z" fill="url(#A)"/>
</svg>