<svg
	xmlns="http://www.w3.org/2000/svg" width="28" height="26.63" viewBox="-0.5 -0.5 28 26.63">
	  <style type="text/css">
		.st0{stop-color:#00ceac;}
		.st1{stop-color:#07838f;}
	  </style>
	<defs>
		<linearGradient id="A" x1="2.039" y1="3.28" x2="22.361" y2="25.066" gradientUnits="userSpaceOnUse">
			<stop class="st0"/>
			<stop offset="1" class="st1"/>
		</linearGradient>
	</defs>
	<path d="M20.486 4.76v.658l3.288 2.301 1.48-1.041c.256-.183.529-.274.822-.274.438 0 .785.146 1.041.438s.384.603.384.932c0 .438-.183.785-.548 1.041l-2.356 1.644c-.256.183-.53.274-.822.274s-.584-.091-.877-.274l-2.63-1.863c-.219.475-.603.712-1.151.712-.365 0-.676-.11-.932-.329-.256-.256-.402-.566-.438-.931l-8.658.986 5.479 8.658h5.918a3.93 3.93 0 0 1 2.959 1.26 3.93 3.93 0 0 1 1.26 2.959c0 1.169-.42 2.155-1.26 2.959-.804.84-1.79 1.26-2.959 1.26H3.719a4.11 4.11 0 0 1-3.014-1.26C-.098 24.066-.5 23.08-.5 21.911c0-.913.256-1.717.767-2.411.511-.731 1.187-1.242 2.027-1.534V9.911C1.454 9.436.779 8.779.267 7.938S-.5 6.148-.5 5.089c0-.767.146-1.479.438-2.137a5.6 5.6 0 0 1 1.205-1.808A5.78 5.78 0 0 1 2.897-.062 5.59 5.59 0 0 1 5.089-.5c.804 0 1.534.164 2.192.493.694.292 1.297.694 1.808 1.205l8.658.986c.036-.365.183-.658.438-.877.256-.256.566-.384.932-.384.548 0 .931.237 1.151.712l2.63-1.863c.292-.183.584-.274.877-.274s.566.091.822.274l2.356 1.644c.365.256.548.603.548 1.041 0 .329-.128.639-.384.931-.256.256-.603.384-1.041.384-.365 0-.639-.073-.822-.219l-1.48-1.096zM5.089 2.295a2.69 2.69 0 0 0-1.973.822 2.69 2.69 0 0 0-.822 1.973c0 .804.274 1.479.822 2.027.548.511 1.205.767 1.973.767s1.425-.256 1.973-.767c.548-.548.822-1.224.822-2.027a2.69 2.69 0 0 0-.822-1.973 2.69 2.69 0 0 0-1.973-.822zm-1.37 18.192a1.42 1.42 0 0 0-1.041.438c-.256.256-.384.584-.384.986a1.53 1.53 0 0 0 .384 1.041 1.53 1.53 0 0 0 1.041.384h16.767c.402 0 .731-.128.986-.384a1.42 1.42 0 0 0 .438-1.041 1.25 1.25 0 0 0-.438-.986 1.25 1.25 0 0 0-.986-.438zm7.507-2.795l-4.548-7.233c-.548.183-1.078.274-1.589.274v6.959zm6.466-12.657l-7.068-.822c.037.146.055.292.055.438v.438.493c0 .146-.018.292-.055.438l7.068-.822z" fill="url(#A)"/>
</svg>