<svg
	xmlns="http://www.w3.org/2000/svg" width="17.944" height="17.859" viewBox="-0.5 -0.5 17.944 17.859">
	<defs>
		<linearGradient id="A" x1="2.19" y1="2.171" x2="14.695" y2="14.739" gradientUnits="userSpaceOnUse">
			<stop stop-color="#0195ff"/>
			<stop offset=".991" stop-color="#1147e9"/>
		</linearGradient>
		<linearGradient id="B" x1="9.252" y1="9.16" x2="15.98" y2="15.917" gradientUnits="userSpaceOnUse">
			<stop stop-color="#1348ff"/>
			<stop offset="1" stop-color="#06238d"/>
		</linearGradient>
	</defs>
	<path d="M5.631 2.293c.008-.619.311-1.114.698-1.469.375-.345.862-.594 1.375-.777 1.03-.368 2.384-.547 3.82-.547s2.799.178 3.837.546c.516.183 1.008.432 1.386.776.39.356.698.855.698 1.484v4.848a.91.91 0 0 1-.91.91.91.91 0 0 1-.909-.909v-.429c-.128.04-.96.115-1.606.164-.133.01-.258-.016-.367-.069l-.047-.026a.71.71 0 0 1-.344-.618c0-.42.34-.773.757-.817.643-.068 1.44-.182 1.61-.26V3.469l-.266.101c-1.038.367-2.401.546-3.837.546-1.424 0-2.774-.175-3.804-.537l-.266-.101c.001.461-.372.836-.834.836h-.078a.91.91 0 0 1-.911-.911z" fill="url(#A)"/>
	<path d="M11.147 7.075c-.127-.279-.317-.516-.532-.711-.378-.341-.869-.588-1.386-.769-1.038-.364-2.401-.541-3.837-.541s-2.789.177-3.82.542c-.513.182-1 .429-1.375.77-.387.352-.689.842-.698 1.456l.019 6.5v.001c.001 1.378 1.138 2.122 2.149 2.491 1.069.39 2.428.544 3.724.544.335 0 1.04-.082 1.679-.164a.94.94 0 0 0 .781-1.197c-.125-.423-.53-.692-.967-.633l-1.492.165c-1.191-.001-2.314-.146-3.105-.435-.85-.31-.951-.626-.951-.773L1.335 13.2c.327.099.669.181 1.015.248.745.144 2.383.231 3.562.262a.81.81 0 0 0 .828-.813c.001-.457-.368-.828-.825-.841l-3.223-.229c-.573-.111-1.032-.25-1.368-.398l-.003-1.445.266.1c1.03.358 2.38.532 3.804.532.694 0 1.371-.041 2.002-.125l-.028-.112v-.139c0-.338.096-.729.383-1.054l.374-.489.015-.018c.286-.343.709-.585 1.225-.585.335 0 .654.104.925.3l.048.033.298-.154.014-.207.009-.053c.056-.333.206-.652.464-.911l.027-.026z" fill="url(#A)"/>
	<path fill-rule="evenodd" d="M17.113 12.853a.52.52 0 0 1 .33.511v.06l-.15.631c-.06.26-.22.391-.481.391h-.06l-.961-.15c-.18.38-.471.731-.871 1.051l.36 1.021c.02.04.03.09.03.15 0 .24-.09.401-.27.481l-.571.3c-.08.04-.14.06-.18.06-.18 0-.32-.09-.421-.27l-.571-.991-.33.06h-.33-.3l-.27-.06-.601 1.021c-.1.16-.23.24-.391.24-.1 0-.17-.02-.21-.06l-.571-.27c-.18-.08-.27-.22-.27-.421 0-.08.01-.14.03-.18l.361-1.021a2.89 2.89 0 0 1-.871-1.021l-1.021.15h-.06c-.26 0-.421-.13-.481-.39l-.15-.631v-.06a.52.52 0 0 1 .33-.511l.871-.27v-.12a3.47 3.47 0 0 1 .27-1.382l-.661-.601c-.06-.06-.11-.17-.15-.33 0-.14.04-.25.12-.33l.391-.511c.1-.12.22-.18.361-.18a.44.44 0 0 1 .27.09l.691.481c.421-.34.881-.581 1.382-.721l.06-.871a.54.54 0 0 1 .15-.3.46.46 0 0 1 .33-.15h.631a.4.4 0 0 1 .33.15.37.37 0 0 1 .15.3l.06.841c.501.12.981.34 1.442.661l.691-.481c.1-.06.19-.09.27-.09.16 0 .28.06.36.18l.391.511c.08.08.12.19.12.33a.46.46 0 0 1-.15.33l-.601.601a2.76 2.76 0 0 1 .21.691 3.22 3.22 0 0 1 .09.781v.03zm-5.948 1.172a2 2 0 0 1-.601-1.472 2 2 0 0 1 .601-1.472 2 2 0 0 1 1.472-.601 2 2 0 0 1 1.472.601 2 2 0 0 1 .601 1.472 2 2 0 0 1-.601 1.472 2 2 0 0 1-1.472.601 2 2 0 0 1-1.472-.601z" fill="url(#B)"/>
</svg>