<svg
	xmlns="http://www.w3.org/2000/svg" width="26.084" height="28" viewBox="-0.5 -0.5 26.084 28">
	  <style type="text/css">
		.st0{stop-color:#00ceac;}
		.st1{stop-color:#07838f;}
	  </style>
	<defs>
		<linearGradient id="A" x1="1.865" y1="3.474" x2="23.256" y2="23.792" gradientUnits="userSpaceOnUse">
			<stop class="st0"/>
			<stop offset="1" class="st1"/>
		</linearGradient>
	</defs>
	<path d="M24.104 8.102a4.97 4.97 0 0 1 1.042 1.534c.291.549.438 1.152.438 1.81v11.725c0 1.241-.421 2.265-1.262 3.068-.838.842-1.88 1.261-3.121 1.261H3.827a4.18 4.18 0 0 1-3.068-1.261C-.081 25.436-.5 24.412-.5 23.171V11.444c0-1.387.491-2.502 1.478-3.342L9.638.596A4.5 4.5 0 0 1 12.594-.5 4.09 4.09 0 0 1 15.444.596zm-9.37 7.836H10.35v8.713h4.384zm7.782-4.494c0-.473-.147-.859-.438-1.15l-8.658-7.506c-.621-.473-1.261-.473-1.918 0l-8.655 7.506c-.293.293-.438.677-.438 1.152v11.725c0 .438.128.803.384 1.096a1.53 1.53 0 0 0 1.04.384h3.617v-8.713c0-.803.274-1.48.821-2.027.586-.586 1.28-.877 2.083-.877h4.384a2.66 2.66 0 0 1 2.027.877c.549.547.822 1.224.822 2.027v8.713h3.617c.438 0 .784-.128 1.04-.384.144-.143.257-.314.333-.503s.111-.39.106-.593z" fill="url(#A)"/>
</svg>