<svg
	xmlns="http://www.w3.org/2000/svg" width="17.633" height="17.618" viewBox="-0.5 -0.5 17.633 17.618">
	<defs>
		<radialGradient id="A" cx="0" cy="0" r="1" gradientUnits="userSpaceOnUse" gradientTransform="matrix(12.207911,12.334015,-23.304356,23.06609,2.2343673,2.0869061)">
			<stop stop-color="#0195ff"/>
			<stop offset="1" stop-color="#1147e9"/>
		</radialGradient>
	</defs>
	<path fill-rule="evenodd" d="M16.374.259C15.867-.247 15.235-.5 14.476-.5H2.157C1.398-.5.765-.247.259.259S-.5 1.386-.5 2.122v14.113c0 .368.173.633.518.794a.8.8 0 0 0 .966-.172l3.278-3.278h10.214c.759 0 1.392-.253 1.898-.759s.759-1.127.759-1.863V2.122c0-.736-.253-1.357-.759-1.863zm-2.741 5.707a.23.23 0 0 0-.179-.16L12.2 5.616l-.565-1.195c-.075-.158-.32-.158-.395 0l-.567 1.192-1.253.193c-.084.014-.152.074-.179.16s-.002.177.057.239l.907.913-.223 1.318a.24.24 0 0 0 .086.228c.068.053.157.06.232.019l1.134-.618 1.134.618c.033.016.066.026.101.026a.22.22 0 0 0 .13-.044c.068-.053.101-.142.086-.228l-.223-1.318.907-.913c.062-.06.084-.153.057-.239zm-6.271 0a.23.23 0 0 0-.179-.16l-1.253-.191-.565-1.195c-.075-.158-.32-.158-.395 0l-.567 1.192-1.253.193c-.084.014-.152.074-.179.16s-.002.177.057.239l.907.913-.223 1.318a.24.24 0 0 0 .086.228c.068.053.157.06.232.019l1.134-.618 1.134.618c.033.016.066.026.101.026a.22.22 0 0 0 .13-.044c.068-.053.101-.142.086-.228l-.223-1.318.907-.913c.062-.06.084-.153.057-.239z" fill="url(#A)"/>
</svg>