<svg
	xmlns="http://www.w3.org/2000/svg"
	xmlns:xlink="http://www.w3.org/1999/xlink" width="20" height="13.448" viewBox="-0.5 -0.5 20 13.448">
	<defs>
		<linearGradient id="A" x1="2.498" y1="2.085" x2="10.612" y2="14.793" gradientUnits="userSpaceOnUse">
			<stop stop-color="#0195ff"/>
			<stop offset=".991" stop-color="#1147e9"/>
		</linearGradient>
		<linearGradient id="B" x1="-6.086" y1="2.085" x2="2.028" y2="14.793" gradientUnits="userSpaceOnUse">
			<stop stop-color="#0195ff"/>
			<stop offset=".991" stop-color="#1147e9"/>
		</linearGradient>
		<linearGradient id="C" x1="1.963" y1=".959" x2="8.054" y2="4.722" gradientUnits="userSpaceOnUse">
			<stop stop-color="#0bf"/>
			<stop offset="1" stop-color="#008bff"/>
		</linearGradient>
		<path id="D" d="M9.494 12.946c.785 0 1.422-.648 1.422-1.448s-.636-1.447-1.422-1.447-1.422.648-1.422 1.447.636 1.448 1.422 1.448z"/>
	</defs>
	<path d="M13.514.262c-.355.132-.645.402-.805.751L9.568 7.799c-.079.173-.124.36-.132.55s.021.381.085.56a1.46 1.46 0 0 0 .289.485 1.43 1.43 0 0 0 .449.335c.17.081.354.126.541.135s.374-.021.55-.086a1.42 1.42 0 0 0 .476-.294 1.45 1.45 0 0 0 .329-.457l3.141-6.786c.16-.349.177-.749.048-1.111s-.395-.657-.738-.82-.735-.18-1.091-.048z" fill="url(#A)"/>
	<path d="M6.504 12.11L8.85 7.072c.16-.349.177-.749.048-1.111s-.395-.657-.737-.82-.735-.18-1.091-.049-.645.402-.805.751l-2.346 5.038c-.079.173-.124.36-.132.55s.021.381.085.56.162.344.289.484a1.43 1.43 0 0 0 .449.335c.343.163.735.18 1.091.049s.645-.402.805-.751z" fill="url(#A)"/>
	<path d="M2.343 11.498c0 .8-.636 1.448-1.422 1.448S-.5 12.298-.5 11.498.137 10.051.922 10.051s1.422.648 1.422 1.447z" fill="url(#A)"/>
	<use xlink:href="#D" fill="url(#A)"/>
	<use xlink:href="#D" x="8.584" fill="url(#B)"/>
	<path d="M15.087 12.11l2.18-4.782c.16-.349.177-.748.048-1.11s-.394-.657-.737-.82c-.17-.081-.354-.126-.541-.135s-.374.021-.55.086a1.42 1.42 0 0 0-.476.294 1.45 1.45 0 0 0-.329.457l-2.18 4.782c-.16.349-.177.748-.048 1.11s.394.657.737.82.735.18 1.091.048.645-.402.805-.751z" fill="url(#A)"/>
	<path d="M3.17 2.899a1.41 1.41 0 0 1-.609-.213c-.321-.204-.549-.53-.634-.905a1.48 1.48 0 0 1-.017-.566 1.47 1.47 0 0 1 .197-.53 1.44 1.44 0 0 1 .381-.413c.153-.111.325-.19.508-.233l2.333-.502c.369-.087.756-.021 1.077.183s.549.53.634.905a1.48 1.48 0 0 1 .017.566 1.47 1.47 0 0 1-.15.448L3.782 8.389c-.16.349-.449.619-.805.751s-.747.114-1.09-.048-.608-.458-.738-.82-.112-.761.047-1.111z" fill="url(#C)"/>
</svg>