<svg
	xmlns="http://www.w3.org/2000/svg" width="29.941" height="27.931" viewBox="-0.5 -0.5 29.941 27.931">
	<defs>
		<linearGradient id="A" x1="4.038" y1="8.296" x2="19.177" y2="28.409" gradientUnits="userSpaceOnUse">
			<stop stop-color="#0195ff"/>
			<stop offset=".991" stop-color="#1147e9"/>
		</linearGradient>
		<linearGradient id="B" x1="1.745" y1="1.13" x2="8.972" y2="11.103" gradientUnits="userSpaceOnUse">
			<stop stop-color="#0bf"/>
			<stop offset="1" stop-color="#008bff"/>
		</linearGradient>
	</defs>
	<path d="M29.047 12.511c.261.659.395 1.361.395 2.07v2.362a4.43 4.43 0 0 1-.937 2.754c-.586.82-1.387 1.348-2.402 1.582a4.53 4.53 0 0 1 .293 1.64c0 1.289-.43 2.363-1.289 3.223a4.3 4.3 0 0 1-3.164 1.289c-1.289 0-2.363-.43-3.223-1.289s-1.289-1.934-1.289-3.223c0-.508.098-1.015.293-1.523h-6.445c.078.235.137.469.176.703.078.234.117.508.117.82 0 1.289-.449 2.363-1.348 3.223-.859.859-1.914 1.289-3.164 1.289-1.289 0-2.363-.43-3.223-1.289s-1.289-1.934-1.289-3.223a6.22 6.22 0 0 1 .059-.879l.234-.762c-.977-.235-1.777-.762-2.402-1.582-.586-.82-.879-1.738-.879-2.754v-2.118c0-.825.669-1.494 1.494-1.494s1.494.669 1.494 1.494v2.118c0 .977.508 1.465 1.523 1.465h20.976c1.016 0 1.523-.488 1.523-1.465v-1.523h-7.5c-.43 0-.801-.137-1.113-.41-.273-.273-.41-.645-.41-1.113v-7.5c0-1.23.98-1.465 2.695-1.465h4.805c.313 0 .586.078.82.234.273.117.449.332.527.645zM8.582 22.919c0-.43-.156-.781-.469-1.055-.273-.313-.625-.469-1.055-.469a1.52 1.52 0 0 0-1.113.469c-.273.273-.41.625-.41 1.055s.137.801.41 1.113c.313.274.684.41 1.113.41s.781-.137 1.055-.41a1.52 1.52 0 0 0 .469-1.113zm13.476 1.523c.469 0 .84-.137 1.113-.41.274-.312.41-.683.41-1.113s-.137-.781-.41-1.055c-.273-.313-.644-.469-1.113-.469-.43 0-.781.156-1.055.469-.274.273-.41.625-.41 1.055s.137.801.41 1.113c.273.274.625.41 1.055.41z" fill="url(#A)"/>
	<path fill-rule="evenodd" d="M2.552 3.471C2.835 1.443 4.53-.5 6.917-.5c1.899 0 3.32 1.065 4.086 2.649 1.91.18 3.497 1.887 3.497 4.107 0 2.624-2.092 4.223-4.31 4.099H3.034c-1.069 0-1.977-.332-2.616-.989S-.5 7.833-.5 6.9c0-1.004.368-1.955 1.08-2.611.526-.485 1.204-.773 1.972-.819z" fill="url(#B)"/>
</svg>