<svg
	xmlns="http://www.w3.org/2000/svg"
	xmlns:xlink="http://www.w3.org/1999/xlink" width="20.203" height="17.747" viewBox="-0.5 -0.5 20.203 17.747">
	<defs>
		<linearGradient id="A" x1="7.447" y1="12.411" x2="11.429" y2="16.394" xlink:href="#F">
			<stop stop-color="#0195ff"/>
			<stop offset=".991" stop-color="#1147e9"/>
		</linearGradient>
		<linearGradient id="B" x1="7.524" y1=".35" x2="11.506" y2="4.333" xlink:href="#F">
			<stop stop-color="#0195ff"/>
			<stop offset=".991" stop-color="#1147e9"/>
		</linearGradient>
		<linearGradient id="C" x1=".343" y1="6.403" x2="4.282" y2="10.343" xlink:href="#F">
			<stop stop-color="#0195ff"/>
			<stop offset=".991" stop-color="#1147e9"/>
		</linearGradient>
		<linearGradient id="D" x1="14.921" y1="6.544" x2="18.86" y2="10.484" xlink:href="#F">
			<stop stop-color="#0195ff"/>
			<stop offset=".991" stop-color="#1147e9"/>
		</linearGradient>
		<linearGradient id="E" x1="6.867" y1="7.128" x2="8.879" y2="11.361" xlink:href="#F">
			<stop stop-color="#1348ff"/>
			<stop offset="1" stop-color="#06238d"/>
		</linearGradient>
		<linearGradient id="F" gradientUnits="userSpaceOnUse"/>
	</defs>
	<g fill="none" stroke-width="2">
		<path d="m 9.4379,16.24728 c -1.01796,0 -1.84318,-0.8252 -1.84318,-1.843 0,-1.018 0.82522,-1.8432 1.84318,-1.8432 1.01794,0 1.84316,0.8252 1.84316,1.8432 0,1.0178 -0.82522,1.843 -1.84316,1.843 z" stroke="url(#A)"/>
		<path d="m 9.51504,0.5 c 1.01796,0 1.84316,0.82522 1.84316,1.84318 0,1.01794 -0.8252,1.84316 -1.84316,1.84316 -1.01796,0 -1.84318,-0.82522 -1.84318,-1.84316 C 7.67186,1.32522 8.49708,0.5 9.51504,0.5 Z" stroke="url(#B)"/>
		<path d="m 1.5,6.56152 h 1.625 c 0.55228,0 1,0.44772 1,1 v 1.625 c 0,0.5523 -0.44772,1 -1,1 H 1.5 c -0.5523,0 -1,-0.4477 -1,-1 v -1.625 c 0,-0.55228 0.4477,-1 1,-1 z" stroke="url(#C)"/>
		<path d="m 17.70306,10.32812 h -1.625 c -0.5522,0 -1,-0.4477 -1,-1 v -1.625 c 0,-0.55228 0.4478,-1 1,-1 h 1.625 c 0.5524,0 1,0.44772 1,1 v 1.625 c 0,0.5523 -0.4476,1 -1,1 z" stroke="url(#D)"/>
	</g>
	<path d="M9.382 9.223c.104.472-.195.939-.667 1.042s-.939-.195-1.042-.667c-.152-.691-.255-.864-.333-.943s-.248-.186-.94-.344c-.471-.108-.766-.577-.658-1.048s.577-.766 1.048-.658c.679.155 1.325.343 1.797.822s.648 1.125.796 1.796z" fill="url(#E)"/>
	<path d="M9.82 7.65c-.104-.472.195-.939.667-1.042s.939.195 1.042.667c.152.691.255.864.333.943s.248.186.94.344c.471.108.766.577.658 1.048s-.577.766-1.048.658c-.679-.155-1.325-.343-1.797-.822S9.967 8.321 9.82 7.65z" fill="url(#E)"/>
</svg>