<svg
	xmlns="http://www.w3.org/2000/svg" width="19.998" height="19.512" viewBox="-0.5 -0.5 19.998 19.512">
	<defs>
		<linearGradient id="A" x1="1.823" y1="1.193" x2="9.374" y2="11.533" gradientUnits="userSpaceOnUse">
			<stop stop-color="#0195ff"/>
			<stop offset=".991" stop-color="#1147e9"/>
		</linearGradient>
		<linearGradient id="B" x1="7.861" y1="8.341" x2="16.58" y2="17.9" gradientUnits="userSpaceOnUse">
			<stop stop-color="#1348ff"/>
			<stop offset="1" stop-color="#06238d"/>
		</linearGradient>
	</defs>
	<path d="M7.226-.5C4.74-.5 2.974 1.526 2.679 3.642c-.8.048-1.506.349-2.054.854C-.117 5.179-.5 6.172-.5 7.219c0 .973.295 1.892.956 2.572s1.612 1.031 2.725 1.031h1.345c-.108-.591.069-1.223.53-1.676l2.776-2.729c.738-.726 1.926-.716 2.652.023.487.495.643 1.192.47 1.816l.271.188c.631-.508 1.286-.716 1.531-.787.437-.128.911-.156 1.259-.154.014 0 .029.002.044.003.048.005.097.009.118-.035-.143-.606.019-1.269.488-1.746a1.88 1.88 0 0 1 .334-.27c-.424-1.765-1.852-3.035-3.515-3.192C10.684.611 9.204-.5 7.226-.5z" fill="url(#A)"/>
	<path fill-rule="evenodd" d="M15.651 6.687c.242-.246.638-.25.884-.007l2.776 2.729c.246.242.25.638.008.884s-.638.25-.884.008l-2.776-2.729c-.246-.242-.249-.638-.007-.884zm-5.963.714c.242.246.239.642-.008.884l-2.776 2.729c-.246.242-.642.239-.884-.007s-.239-.642.008-.884l2.776-2.729c.246-.242.642-.239.884.008zm7.998 5.522l.001-.002.002-.005a2.45 2.45 0 0 0 .147-.604c.039-.333.029-.833-.268-1.294-.135-.209-.342-.43-.549-.628a10.31 10.31 0 0 0-.708-.611l-.706-.515c-.193-.127-.398-.261-.623-.324-.255-.071-.583-.101-.878-.102s-.632.025-.903.104c-.404.118-1.825.607-2.003 2.242-.053.487-.035.901-.019 1.283l.009.215a7.29 7.29 0 0 1-.098 1.596c-.028.168.013.34.115.477s.255.226.424.247c.485.06.928.023 1.289-.205.368-.233.528-.587.62-.86l.217-.764c.073-.224.166-.416.317-.586.382-.43.999-.507 1.339-.289l.91.604.43.296c.155.109.352.141.534.088a.63.63 0 0 0 .403-.364z" fill="url(#B)"/>
	<path d="M9.577 11.691c.276-.207.332-.598.126-.874s-.598-.334-.875-.127l-.002.002-.003.002a3.59 3.59 0 0 0-.363.32c-.2.197-.46.487-.689.854-.46.738-.82 1.845-.221 3.088.36.747.975 1.396 1.553 1.978l1.727 1.674a.62.62 0 0 0 .066.059c.63.481 1.418.434 1.942.017a1.43 1.43 0 0 0 .42-.544 1.5 1.5 0 0 0 1.072-.25c.25-.172.448-.421.554-.719.521.163 1.043.114 1.48-.235.552-.442.732-1.133.505-1.796-.199-.58-.669-1.143-1.239-1.654-.257-.23-.652-.209-.883.048s-.209.652.048.883c.516.462.796.851.891 1.129.059.172.042.298-.103.414-.053.043-.111.07-.258.037-.182-.042-.452-.172-.835-.456-.247-.183-.591-.16-.81.056s-.25.559-.071.809c.112.157.114.263.106.313-.018.111-.135.212-.292.183-.074-.013-.198-.065-.336-.242-.202-.261-.573-.32-.846-.134s-.354.552-.186.836c.063.105.118.256.004.347-.072.057-.214.095-.375-.012l-.841-.816-.033-.031-.821-.794c-.544-.548-1.005-1.082-1.321-1.654-.341-.722-.157-1.357.162-1.87a3.27 3.27 0 0 1 .745-.838z" fill="url(#B)"/>
</svg>