<?xml version="1.0" encoding="UTF-8" standalone="no"?>
<svg
   version="1.1"
   width="37.408501"
   height="18.506098"
   viewBox="-0.5 -0.5 37.408501 18.506098"
   id="svg114"
   xmlns="http://www.w3.org/2000/svg"
   xmlns:svg="http://www.w3.org/2000/svg">
  <defs
     id="defs2">
    <defs
       id="defs91">
      <linearGradient
         id="b"
         x1="40.257999"
         y1="0"
         x2="40.257999"
         y2="39.832001"
         gradientUnits="userSpaceOnUse">
        <stop
           offset="0"
           stop-color="#00b8f1"
           id="stop78" />
        <stop
           offset=".016"
           stop-color="#00b5ef"
           id="stop80" />
        <stop
           offset=".308"
           stop-color="#0d90d8"
           id="stop82" />
        <stop
           offset=".578"
           stop-color="#1675c8"
           id="stop84" />
        <stop
           offset=".817"
           stop-color="#1c64be"
           id="stop86" />
        <stop
           offset="1"
           stop-color="#1e5fbb"
           id="stop88" />
      </linearGradient>
    </defs>
  </defs>
  <polyline
     points="0 39.832 40.692 39.832 80.517 0 0 0 0 39.832"
     fill="url(#b)"
     fill-rule="evenodd"
     id="polyline93"
     style="font-family:initial;fill:url(#b)"
     transform="matrix(0.46460376,0,0,0.46460376,-0.5,-0.5)" />
  <path
     d="m 21.699697,2.9794176 -3.681985,-0.00232 V 11.732553 L 14.800796,2.9770945 H 11.611291 L 8.8645534,10.298785 C 8.571853,8.4529145 6.6623316,7.8154781 5.159803,7.3374008 4.167874,7.0186826 3.1150819,6.5503621 3.1248385,6.0323289 c 0.0079,-0.4251125 0.5644936,-0.8200257 1.6674629,-0.7605564 0.741043,0.039027 1.3942759,0.098961 2.6947018,0.7261757 L 8.7660574,3.7701732 C 7.5789948,3.1661883 5.9384789,2.7847486 4.5948448,2.7833548 h -0.0079 c -1.5675731,0 -2.8735743,0.5078119 -3.68337864,1.3445633 C 0.33953899,4.7123896 0.03522353,5.4548264 0.02267923,6.2757812 0.00223666,7.4056976 0.41666322,8.2071391 1.2868661,8.8464338 c 0.7354677,0.5389404 1.6753611,0.8883224 2.5042142,1.145248 1.0225929,0.3163952 1.8565567,0.5919052 1.8468,1.1796292 -0.00743,0.213253 -0.088739,0.412568 -0.2420586,0.574251 C 5.1412189,12.008527 4.7495579,12.107488 4.2087591,12.11678 3.1661883,12.13908 2.3921584,11.976005 1.1600292,11.247971 L 0.02267923,13.50641 c 1.22841237,0.699693 2.68355127,1.109474 4.16842497,1.109474 l 0.1909521,-0.0028 C 5.674584,14.589854 6.7171548,14.221888 7.550654,13.551 7.598508,13.51337 7.641716,13.47387 7.6858536,13.434849 l -0.3693599,0.986354 h 3.3451473 l 0.561241,-1.706955 c 0.587724,0.201174 1.256289,0.311749 1.966203,0.311749 0.690866,0 1.34224,-0.106394 1.919278,-0.295023 l 0.540799,1.689764 h 5.455377 v -3.534229 h 1.189851 c 2.874968,0 4.576811,-1.4653603 4.576811,-3.9193974 0,-2.7341931 -1.652595,-3.9886232 -5.171969,-3.9886232 z M 13.18955,10.470689 c -0.429759,0 -0.83257,-0.07434 -1.179629,-0.20582 l 1.167084,-3.6824493 h 0.0223 l 1.146643,3.6926713 c -0.344736,0.12219 -0.738256,0.195598 -1.155935,0.195598 z M 21.916202,8.3553477 H 21.105004 V 5.3883881 h 0.811198 c 1.081598,0 1.944367,0.3591387 1.944367,1.4639664 0,1.1433899 -0.862769,1.5034578 -1.944367,1.5034578"
     fill="#ffffff"
     fill-rule="evenodd"
     id="path95"
     style="font-family:initial;stroke-width:0.464604" />
</svg>
