<svg
	xmlns="http://www.w3.org/2000/svg" width="30.014" height="29.883" viewBox="-0.5 -0.5 30.014 29.883">
	<defs>
		<linearGradient id="A" x1="2.058" y1="2.402" x2="15.536" y2="14.257" gradientUnits="userSpaceOnUse">
			<stop stop-color="#0195ff"/>
			<stop offset=".991" stop-color="#1147e9"/>
		</linearGradient>
		<linearGradient id="B" x1="5.301" y1="5.876" x2="14.839" y2="22.894" gradientUnits="userSpaceOnUse">
			<stop stop-color="#0195ff"/>
			<stop offset=".991" stop-color="#1147e9"/>
		</linearGradient>
		<linearGradient id="C" x1="14.299" y1="19.682" x2="21.5" y2="31.035" gradientUnits="userSpaceOnUse">
			<stop stop-color="#1348ff"/>
			<stop offset="1" stop-color="#06238d"/>
		</linearGradient>
	</defs>
	<path d="M16.564 14.007h-2.432l-.222.006-1.019-4.364 2.325-1.312z" fill="url(#A)"/>
	<path d="M8.585 18.907H3.556c-1.318 0-2.426-1.042-2.57-2.418l-1.47-13.61-.005-.051C-.642 1.048.686-.5 2.417-.5H15.1A1.36 1.36 0 0 1 16.457.857 1.36 1.36 0 0 1 15.1 2.215H2.417a.33.33 0 0 0-.33.368l1.47 13.61h6.365c-.673.806-1.154 1.757-1.336 2.715z" fill="url(#A)"/>
	<path d="M4.402 7.821l-.111.161a3.72 3.72 0 0 0-.244.443l-.023.05-2.71 6.092a3.32 3.32 0 0 0-.27 1.657 3.76 3.76 0 0 0 .085.516c.366 1.54 1.69 2.716 3.301 2.716h4.262c.665-2.306 2.979-4.447 5.44-4.447h12.703l.226.001 2.286-6.936a3.33 3.33 0 0 0 .151-1.354c-.175-1.854-1.628-3.154-3.276-3.212-.118-.015-.236-.022-.355-.022h-4.889c-.795 0-1.559.329-2.125.916l-1.935 2.004H7.117l-.179.005a2.91 2.91 0 0 0-1.095.28 3.42 3.42 0 0 0-1.028.663c-.14.131-.281.285-.413.467z" fill="url(#B)"/>
	<path fill-rule="evenodd" d="M14.874 18.009c-1.775 0-3.214 1.439-3.214 3.214v4.945c0 1.775 1.439 3.214 3.214 3.214H26.3c1.775 0 3.214-1.439 3.214-3.214v-4.945c0-1.775-1.439-3.214-3.214-3.214zm9.19 8.901a.81.81 0 0 1-.564-.232.8.8 0 0 1 0-1.127l1.852-1.852-1.852-1.857a.8.8 0 0 1 0-1.127.8.8 0 0 1 1.127 0l2.416 2.416a.8.8 0 0 1 .232.564c0 .212-.083.415-.232.564l-2.416 2.416c-.157.157-.361.236-.564.236zm-6.954 0a.81.81 0 0 1-.564-.232l-2.416-2.416a.8.8 0 0 1 0-1.127l2.416-2.416a.8.8 0 0 1 1.127 0 .8.8 0 0 1 0 1.127l-1.857 1.852 1.852 1.852a.8.8 0 0 1 0 1.127.79.79 0 0 1-.559.232zm2.118-.141a.82.82 0 0 0 .323.066.79.79 0 0 0 .725-.473l2.072-4.683c.178-.402-.004-.87-.406-1.049s-.87.004-1.048.406l-2.072 4.683c-.178.402.004.87.406 1.049z" fill="url(#C)"/>
</svg>