<svg
	xmlns="http://www.w3.org/2000/svg" width="19.937" height="19.844" viewBox="-0.5 -0.5 19.937 19.844">
	<defs>
		<linearGradient id="A" x1="1.745" y1="1.738" x2="12.392" y2="12.411" gradientUnits="userSpaceOnUse">
			<stop stop-color="#1348ff"/>
			<stop offset="1" stop-color="#06238d"/>
		</linearGradient>
		<linearGradient id="B" x1="11.833" y1="9.751" x2="19.524" y2="15.852" gradientUnits="userSpaceOnUse">
			<stop stop-color="#0195ff"/>
			<stop offset=".991" stop-color="#1147e9"/>
		</linearGradient>
	</defs>
	<path d="M6.725 9.662c-.495-.206-.935-.524-1.32-.949-.19-.192-.297-.423-.297-.687a.99.99 0 0 1 .302-.72.96.96 0 0 1 .691-.302.99.99 0 0 1 .72.302l.008.008c.186.203.405.354.658.456.261.104.518.155.771.155.275 0 .541-.051.8-.155s.486-.256.694-.463l2.189-2.189a1.9 1.9 0 0 0 .615-1.433c0-.566-.203-1.062-.622-1.498a1.9 1.9 0 0 0-1.433-.615c-.565 0-1.06.203-1.496.62L7.913 3.283a.99.99 0 0 1-.72.302.99.99 0 0 1-.72-.302.99.99 0 0 1-.302-.72.99.99 0 0 1 .302-.72L7.566.751c.405-.405.863-.711 1.374-.916C9.465-.387 9.995-.5 10.528-.5s1.054.113 1.562.335a3.79 3.79 0 0 1 1.344.915 3.79 3.79 0 0 1 .915 1.344c.223.508.335 1.029.335 1.561s-.113 1.055-.336 1.563a4.16 4.16 0 0 1-.915 1.342l-2.157 2.157c-.424.424-.892.74-1.405.946s-1.038.305-1.586.305c-.531 0-1.05-.102-1.558-.305z" fill="url(#A)"/>
	<path d="M2.252 11.969a1.9 1.9 0 0 0 1.433.614c.565 0 1.05-.203 1.466-.618l1.093-1.093c.202-.202.458-.302.749-.302.154 0 .3.036.43.115.119.073.213.176.286.298.182.193.277.428.277.695a.99.99 0 0 1-.302.72l-.002.002-1.092 1.063c-.406.405-.873.711-1.402.915a3.85 3.85 0 0 1-1.56.335c-.533 0-1.055-.113-1.563-.336-.491-.205-.939-.511-1.342-.915s-.712-.865-.917-1.376A4.16 4.16 0 0 1-.5 10.528a4.16 4.16 0 0 1 .305-1.558C.01 8.459.316 8 .722 7.594l.001-.001 2.184-2.155a4.08 4.08 0 0 1 1.374-.916c.525-.222 1.055-.335 1.589-.335s1.054.113 1.562.335a3.79 3.79 0 0 1 1.346.918.99.99 0 0 1 .3.718.99.99 0 0 1-.302.72.99.99 0 0 1-.72.302.99.99 0 0 1-.72-.302l-.007-.007a1.86 1.86 0 0 0-1.43-.64 1.95 1.95 0 0 0-1.462.643l-.005.005-2.192 2.163a1.86 1.86 0 0 0-.64 1.43c0 .563.21 1.057.647 1.494z" fill="url(#A)"/>
	<path fill-rule="evenodd" d="M13.85 11.178c0-.616.499-1.114 1.114-1.114s1.114.499 1.114 1.114v1.451H13.85zm4.229 1.479v-1.479c0-1.72-1.394-3.114-3.114-3.114s-3.114 1.394-3.114 3.114v1.479c-.339.06-.632.219-.877.475-.321.321-.481.714-.481 1.181v3.346c0 .481.16.882.481 1.203s.722.481 1.203.481h5.577c.481 0 .882-.16 1.203-.481s.481-.722.481-1.203v-3.346c0-.467-.16-.86-.481-1.181-.245-.257-.538-.415-.877-.475zm-3.125 2.225c.321 0 .583.109.787.328.219.204.328.467.328.787 0 .306-.109.569-.328.787-.204.219-.467.328-.787.328-.306 0-.569-.109-.787-.328s-.328-.481-.328-.787c0-.321.109-.583.328-.787.219-.219.481-.328.787-.328z" fill="url(#B)"/>
</svg>