<svg
	xmlns="http://www.w3.org/2000/svg" width="18.75" height="16.914" viewBox="-0.5 -0.5 18.75 16.914">
	<defs>
		<linearGradient id="A" x1="1.841" y1="1.191" x2="9.362" y2="11.582" gradientUnits="userSpaceOnUse">
			<stop stop-color="#0195ff"/>
			<stop offset=".991" stop-color="#1147e9"/>
		</linearGradient>
		<linearGradient id="B" x1="10.166" y1="8.792" x2="16.409" y2="15.445" gradientUnits="userSpaceOnUse">
			<stop stop-color="#1348ff"/>
			<stop offset="1" stop-color="#06238d"/>
		</linearGradient>
	</defs>
	<path d="M7.226-.5C4.74-.5 2.974 1.524 2.679 3.636c-.8.048-1.506.348-2.054.853C-.117 5.172-.5 6.163-.5 7.209c0 .971.295 1.89.956 2.569s1.612 1.03 2.725 1.03h4.405c-.047-.207-.073-.422-.073-.642V9.081c0-1.577 1.278-2.855 2.855-2.855h1.079c.809 0 1.54.337 2.06.878a2.85 2.85 0 0 1 1.61-.843c-.125-2.177-1.725-3.822-3.635-4.003C10.684.609 9.204-.5 7.226-.5z" fill="url(#A)"/>
	<g fill-rule="evenodd">
		<path d="M14.246 14.064c0-.769.602-1.398 1.36-1.442v-.853h-.039c-.886 0-1.605-.718-1.605-1.605V9.081c0-.886.718-1.605 1.605-1.605h1.079c.886 0 1.604.718 1.604 1.605v1.084c0 .886-.718 1.605-1.605 1.605h-.039v.851c.791.007 1.43.651 1.43 1.444v.906c0 .797-.647 1.444-1.444 1.444h-.902c-.798 0-1.444-.647-1.444-1.444zm1.25 0c0-.107.087-.194.194-.194h.902c.107 0 .194.087.194.194v.906c0 .107-.087.194-.194.194h-.902c-.107 0-.194-.087-.194-.194zm.071-3.545c-.196 0-.355-.159-.355-.355V9.081c0-.196.159-.355.355-.355h1.079c.196 0 .355.159.355.355v1.084c0 .196-.159.355-.355.355z" fill="url(#B)"/>
		<path d="M9.048 14.064c0-.769.602-1.398 1.36-1.442v-.853h-.039c-.886 0-1.605-.718-1.605-1.605V9.081c0-.886.718-1.605 1.605-1.605h1.079c.886 0 1.605.718 1.605 1.605v1.084c0 .886-.718 1.605-1.605 1.605h-.04v.851c.791.007 1.43.651 1.43 1.444v.906c0 .797-.646 1.444-1.444 1.444h-.902c-.798 0-1.444-.647-1.444-1.444zm1.25 0c0-.107.087-.194.194-.194h.902c.107 0 .194.087.194.194v.906c0 .107-.087.194-.194.194h-.902c-.107 0-.194-.087-.194-.194zm.071-3.545c-.196 0-.355-.159-.355-.355V9.081c0-.196.159-.355.355-.355h1.079c.196 0 .355.159.355.355v1.084c0 .196-.159.355-.355.355z" fill="url(#B)"/>
	</g>
</svg>