<svg
	xmlns="http://www.w3.org/2000/svg" width="15.489" height="17.534" viewBox="-0.5 -0.5 15.489 17.534">
	<defs>
		<radialGradient id="A" cx="0" cy="0" r="1" gradientUnits="userSpaceOnUse" gradientTransform="matrix(10.789369,12.213665,-11.044835,9.7568424,1.8984978,2.1377143)">
			<stop stop-color="#1348ff"/>
			<stop offset="1" stop-color="#06238d"/>
		</radialGradient>
		<radialGradient id="B" cx="0" cy="0" r="1" gradientUnits="userSpaceOnUse" gradientTransform="matrix(10.723863,12.275036,-22.984143,20.079681,1.9019588,2.074498)">
			<stop stop-color="#0195ff"/>
			<stop offset="1" stop-color="#1147e9"/>
		</radialGradient>
	</defs>
	<g fill-rule="evenodd">
		<path d="M2.989 8.627a.52.52 0 0 0 .736 0 .52.52 0 0 0 .152-.368c-.001-.479.093-.953.276-1.395s.453-.843.792-1.181c.693-.663 1.616-1.033 2.576-1.033s1.882.37 2.576 1.033a.52.52 0 0 0 .738 0 .52.52 0 0 0 0-.738c-.893-.851-2.08-1.326-3.313-1.326s-2.42.475-3.313 1.326a4.66 4.66 0 0 0-1.372 3.313.52.52 0 0 0 .152.368zm2.736 3.962a4.66 4.66 0 0 0 1.794.355 4.7 4.7 0 0 0 4.057-2.34.52.52 0 0 0 .061-.399.52.52 0 0 0-.243-.322.52.52 0 0 0-.401-.052.52.52 0 0 0-.317.25c-.16.276-.355.529-.582.753-.694.663-1.616 1.033-2.576 1.033s-1.882-.37-2.576-1.033a.52.52 0 0 0-.738 0 .52.52 0 0 0 0 .738 4.66 4.66 0 0 0 1.519 1.017zm1.794-3.091a1.24 1.24 0 0 1-.875-.363 1.24 1.24 0 0 1-.268-.402c-.062-.15-.094-.311-.094-.474 0-.046.009-.091.026-.133s.043-.08.075-.113.07-.058.113-.075.087-.026.133-.026.091.009.133.026.08.043.113.075.058.07.075.113.026.087.026.133a.54.54 0 0 0 .041.208c.027.066.067.126.117.177a.56.56 0 0 0 .77 0c.077-.076.129-.173.15-.279s.011-.216-.03-.315-.111-.185-.201-.245-.195-.092-.303-.092c-.092 0-.18-.037-.245-.102s-.102-.153-.102-.245.037-.18.102-.245.153-.102.245-.102a1.24 1.24 0 0 1 1.239 1.24 1.24 1.24 0 0 1-.364.877 1.24 1.24 0 0 1-.877.362zM5.908 10.67a2.9 2.9 0 0 0 1.611.489.52.52 0 0 0 .521-.52.52.52 0 0 0-.521-.521 1.86 1.86 0 0 1-1.712-1.149 1.86 1.86 0 0 1 .401-2.023c.354-.338.825-.526 1.314-.526s.96.189 1.314.526a1.84 1.84 0 0 1 .544 1.314.52.52 0 0 0 .521.52.52.52 0 0 0 .521-.52 2.88 2.88 0 0 0-.851-2.051 2.97 2.97 0 0 0-4.1 0 2.9 2.9 0 0 0-.63 3.16 2.9 2.9 0 0 0 1.068 1.302z" fill="url(#A)"/>
		<path d="M8.647 16.647c-.864.515-1.94.515-2.804 0L.834 13.658C.007 13.165-.5 12.272-.5 11.309V5.225c0-.963.507-1.856 1.334-2.349L5.843-.113c.864-.515 1.94-.515 2.804 0l5.009 2.989c.827.494 1.334 1.386 1.334 2.349v6.084c0 .963-.507 1.856-1.334 2.349zm-1.869-1.566a.91.91 0 0 0 .935 0l5.009-2.989a.91.91 0 0 0 .445-.783V5.225a.91.91 0 0 0-.445-.783L7.712 1.453a.91.91 0 0 0-.935 0L1.769 4.442a.91.91 0 0 0-.445.783v6.084a.91.91 0 0 0 .445.783z" fill="url(#B)"/>
	</g>
</svg>