<svg
	xmlns="http://www.w3.org/2000/svg" width="20.05" height="20.019" viewBox="-0.5 -0.5 20.05 20.019">
	<defs>
		<linearGradient id="A" x1="8.365" y1="8.325" x2="17.551" y2="17.55" gradientUnits="userSpaceOnUse">
			<stop stop-color="#1348ff"/>
			<stop offset="1" stop-color="#06238d"/>
		</linearGradient>
		<linearGradient id="B" x1="2.271" y1="1.86" x2="13.186" y2="14.646" gradientUnits="userSpaceOnUse">
			<stop stop-color="#0195ff"/>
			<stop offset=".991" stop-color="#1147e9"/>
		</linearGradient>
	</defs>
	<g fill-rule="evenodd">
		<path d="M10.979 17.331l-.092-.157a7.1 7.1 0 0 1-.67-1.699l-1.475-.25a4.83 4.83 0 0 0 2.237 2.106zm-2.791-4.015l1.752.349-.016-.56.032-.805-1.7-.227a4.84 4.84 0 0 0-.081.884l.013.359zm3.915 2.33a4.8 4.8 0 0 0 .308.669c.19.337.386.578.576.744.189-.166.386-.408.576-.744a4.79 4.79 0 0 0 .313-.681l-1.773.013zm2.164-1.793a17.01 17.01 0 0 1-2.557.019l-.035-.768.028-.682 2.568-.037.031.718-.034.749zm1.499 1.592c-.163.637-.392 1.221-.678 1.728l-.092.157c.964-.444 1.757-1.197 2.251-2.132l-1.481.246zm2.022-2.14l-1.751.33.014-.531-.037-.865 1.699-.2c.057.297.087.604.087.917l-.012.349zm-5.728-2.623l1.845-.029a4.89 4.89 0 0 0-.342-.76c-.19-.337-.386-.578-.576-.744-.19.166-.386.407-.576.744-.131.233-.25.497-.352.788zm3.638-.17l1.343-.153a4.83 4.83 0 0 0-2.324-1.897c.136.181.26.373.372.571a6.96 6.96 0 0 1 .61 1.478zm-6.789-.111l1.353.169a6.99 6.99 0 0 1 .626-1.537 5.21 5.21 0 0 1 .372-.571 4.83 4.83 0 0 0-2.351 1.939zm4.08 9.117c3.624 0 6.562-2.938 6.562-6.563s-2.938-6.562-6.562-6.562-6.563 2.938-6.563 6.562 2.938 6.563 6.563 6.563z" fill="url(#A)"/>
		<path d="M-.387 2.465a3 3 0 0 1 3-2.965h12.369a3 3 0 0 1 3 3v.826a1 1 0 1 1-2 0V2.5a1 1 0 0 0-1-1H2.613a1 1 0 0 0-1 .988l-.019 1.636h5.758a1 1 0 1 1 0 2H1.571L1.5 12.273a1 1 0 0 0 1 1.011h1.33a1 1 0 1 1 0 2H2.5a3 3 0 0 1-3-3.035l.081-7.044-.003-.081a1.01 1.01 0 0 1 .005-.104z" fill="url(#B)"/>
	</g>
</svg>