<svg
	xmlns="http://www.w3.org/2000/svg" width="29.915" height="30.277" viewBox="-0.5 -0.5 29.915 30.277">
	<defs>
		<linearGradient id="A" x1="2.31" y1="3.217" x2="19.044" y2="15.843" gradientUnits="userSpaceOnUse">
			<stop stop-color="#0195ff"/>
			<stop offset=".991" stop-color="#1147e9"/>
		</linearGradient>
		<linearGradient id="B" x1="15.448" y1="13.744" x2="28.489" y2="25.164" gradientUnits="userSpaceOnUse">
			<stop stop-color="#1348ff"/>
			<stop offset="1" stop-color="#06238d"/>
		</linearGradient>
	</defs>
	<g fill-rule="evenodd">
		<path d="M10.94-.5c-4.03 0-7.307 3.255-7.307 7.283a7.25 7.25 0 0 0 2.256 5.263C2.215 13.493-.5 16.488-.5 20.289v2.564a1.5 1.5 0 0 0 1.5 1.5h7.136a1.5 1.5 0 1 0 0-3H2.5v-1.064c0-3.083 3.398-6.19 8.44-6.19.119 0 .235-.014.347-.04 3.869-.18 6.96-3.363 6.96-7.275 0-4.028-3.277-7.283-7.307-7.283zM6.633 6.783c0-2.36 1.923-4.283 4.307-4.283s4.307 1.923 4.307 4.283-1.923 4.283-4.307 4.283-4.307-1.923-4.307-4.283z" fill="url(#A)"/>
		<path d="M20.359 12.088c.112-.716.783-1.206 1.499-1.094 2.57.402 5.097 1.623 7.175 3.713.511.514.509 1.345-.005 1.856s-1.345.509-1.856-.005c-1.682-1.691-3.698-2.655-5.719-2.971-.716-.112-1.206-.783-1.094-1.5z" fill="url(#B)"/>
	</g>
	<path d="M21.51 23.296c0-.725-.587-1.312-1.312-1.312s-1.312.588-1.312 1.313c0 1.031.276 2.129.826 3.018l.183.265c.427.511 1.198.626 1.756.241.593-.41.744-1.221.34-1.816-.316-.498-.48-1.123-.48-1.709z" fill="url(#B)"/>
	<path d="M28.565 22.486c.138-3.379-2.464-6.211-5.492-7.348-3.137-1.178-7.061-.692-9.776 2.841-.442.575-.334 1.399.241 1.84s1.399.334 1.84-.241c1.911-2.487 4.554-2.816 6.772-1.983 2.327.874 3.87 2.879 3.792 4.784-.014.354-.134.534-.225.623-.103.101-.236.152-.363.154s-.218-.041-.28-.103c-.053-.053-.176-.215-.176-.621 0-1.123-.712-2.326-1.746-3.101-1.113-.835-2.687-1.262-4.537-.751l-.027.008-.027.009c-1.772.572-2.902 2.228-3.156 4.162-.256 1.954.344 4.253 2 6.488.432.582 1.254.705 1.836.273s.705-1.253.273-1.836c-1.33-1.795-1.658-3.425-1.507-4.583s.753-1.798 1.335-1.998c1.039-.278 1.766-.023 2.233.328.25.188.436.411.555.619.126.216.137.326.144.52.029.928.349 1.743.938 2.335.609.612 1.412.891 2.192.876 1.598-.031 3.079-1.279 3.161-3.295z" fill="url(#B)"/>
</svg>