<svg
	xmlns="http://www.w3.org/2000/svg" width="27.73" height="27.671" viewBox="-0.5 -0.5 27.73 27.671">
	<defs>
		<linearGradient id="A" x1="16.384" y1="4.493" x2="28.042" y2="12.99" gradientUnits="userSpaceOnUse">
			<stop stop-color="#0bf"/>
			<stop offset="1" stop-color="#008bff"/>
		</linearGradient>
		<linearGradient id="B" x1="4.747" y1="18.706" x2="10.451" y2="29.679" gradientUnits="userSpaceOnUse">
			<stop stop-color="#0195ff"/>
			<stop offset=".991" stop-color="#1147e9"/>
		</linearGradient>
		<linearGradient id="C" x1="1.415" y1="2.091" x2="13.196" y2="10.793" gradientUnits="userSpaceOnUse">
			<stop stop-color="#1348ff"/>
			<stop offset="1" stop-color="#06238d"/>
		</linearGradient>
	</defs>
	<g fill-rule="evenodd">
		<path d="M19.561 10.196c-.137-2.259-1.321-4.51-3.905-5.305a1.53 1.53 0 0 1 .702-2.981c2.456.15 6.238 3.538 7.468 7.75.181.06.36.132.537.215 2.489 1.165 3.562 4.128 2.397 6.617s-4.128 3.562-6.616 2.397-3.562-4.128-2.397-6.617c.413-.882 1.052-1.586 1.815-2.076zm1.88 5.919c.957.448 2.097.035 2.545-.922s.035-2.097-.922-2.545-2.097-.035-2.545.922-.035 2.097.922 2.545z" fill="url(#A)"/>
		<path d="M11.827 22.008c2.014 1.033 4.554 1.159 6.554-.661a1.53 1.53 0 1 1 2.208 2.122c-1.38 2.037-6.221 3.567-10.473 2.482-.144.125-.297.242-.458.352a4.98 4.98 0 0 1-6.915-1.306 4.98 4.98 0 0 1 1.306-6.915c2.27-1.549 5.366-.964 6.915 1.306.549.804.83 1.713.863 2.619zm-6.052-1.396c-.873.596-1.098 1.787-.502 2.66s1.787 1.098 2.66.502 1.098-1.787.502-2.66-1.787-1.098-2.66-.503z" fill="url(#B)"/>
		<path d="M5.344 8.973c-1.846 1.309-3.131 3.504-2.441 6.119a1.53 1.53 0 1 1-2.902.978C-1.169 13.906-.29 8.905 2.636 5.635a5.03 5.03 0 0 1-.101-.569C2.21 2.337 4.158-.139 6.887-.465s5.205 1.623 5.53 4.352-1.623 5.205-4.352 5.53c-.967.115-1.902-.055-2.722-.444zM9.377 4.25c-.125-1.05-1.077-1.799-2.127-1.674S5.451 3.654 5.576 4.703s1.077 1.799 2.127 1.674S9.502 5.3 9.377 4.25z" fill="url(#C)"/>
	</g>
</svg>