<svg
	xmlns="http://www.w3.org/2000/svg" width="20" height="15.001" viewBox="-0.5 -0.5 20 15.001">
	<defs>
		<linearGradient id="A" x1=".239" y1="3.913" x2="5.526" y2="6.947" gradientUnits="userSpaceOnUse">
			<stop stop-color="#1348ff"/>
			<stop offset="1" stop-color="#06238d"/>
		</linearGradient>
		<linearGradient id="B" x1="6.748" y1="1.743" x2="17.251" y2="12.251" gradientUnits="userSpaceOnUse">
			<stop stop-color="#0195ff"/>
			<stop offset=".991" stop-color="#1147e9"/>
		</linearGradient>
	</defs>
	<path d="M3.875 3.875h-2.5c-.166 0-.325-.066-.442-.183S.75 3.416.75 3.25s.066-.325.183-.442.276-.183.442-.183h2.5c.166 0 .325.066.442.183s.183.276.183.442-.066.325-.183.442-.276.183-.442.183z" fill="url(#A)"/>
	<path d="M2.625 7.625h-2.5c-.166 0-.325-.066-.442-.183S-.5 7.166-.5 7s.066-.325.183-.442.276-.183.442-.183h2.5c.166 0 .325.066.442.183s.183.276.183.442-.066.325-.183.442-.276.183-.442.183z" fill="url(#A)"/>
	<path d="M2.604 11.375h1.271c.166 0 .325-.066.442-.183s.183-.276.183-.442-.066-.325-.183-.442-.276-.183-.442-.183H2.604c-.166 0-.325.066-.442.183s-.183.276-.183.442.066.325.183.442.276.183.442.183z" fill="url(#A)"/>
	<path fill-rule="evenodd" d="M5.438 5.126h.82l.353-.845-.586-.586c-.171-.182-.266-.424-.264-.674-.003-.12.02-.239.065-.35s.113-.211.199-.295l1.342-1.351c.084-.086.184-.153.295-.199s.23-.067.35-.065c.124-.004.248.017.364.062a.91.91 0 0 1 .31.201l.585.586.85-.353v-.82c-.005-.124.016-.249.061-.365a.9.9 0 0 1 .512-.512.9.9 0 0 1 .365-.061h1.875a.9.9 0 0 1 .674.264c.088.088.157.193.202.309s.066.24.061.365v.82l.85.353.586-.586a.91.91 0 0 1 .674-.264c.12-.002.238.02.349.065s.211.113.295.199l1.359 1.347a.87.87 0 0 1 .199.295c.045.111.068.23.065.35.002.25-.093.491-.264.674l-.585.586.351.849h.813a.9.9 0 0 1 .674.264c.088.088.157.193.202.309a.9.9 0 0 1 .061.364v1.875c.003.121-.018.242-.062.355s-.11.217-.194.305a.89.89 0 0 1-.674.277h-.82l-.357.845.585.586c.169.178.264.414.264.659s-.094.482-.264.659l-1.347 1.357c-.084.086-.184.153-.295.199s-.23.068-.349.065a.91.91 0 0 1-.674-.264l-.586-.615-.85.375v.821c.002.122-.021.243-.066.356s-.112.216-.198.303a.89.89 0 0 1-.674.278h-1.875a.89.89 0 0 1-.671-.283c-.085-.087-.152-.19-.198-.303s-.068-.234-.066-.356v-.821l-.85-.375-.585.615c-.088.088-.194.156-.31.202s-.24.066-.364.062c-.12.003-.239-.02-.35-.065s-.211-.113-.295-.199L6.023 11.63c-.169-.178-.264-.414-.264-.659s.094-.482.264-.659l.586-.586-.353-.85h-.82c-.126.004-.251-.019-.367-.066s-.221-.12-.307-.211-.153-.19-.198-.304-.068-.234-.066-.356V6.063c-.005-.125.016-.249.061-.365a.9.9 0 0 1 .512-.512.9.9 0 0 1 .365-.061zm4.751 4.271c.075.068.173.105.274.104.073-.001.144-.019.209-.053l4.192-2.031c.063-.035.115-.086.152-.147a.4.4 0 0 0 0-.408c-.037-.062-.089-.113-.152-.147l-4.192-2.161c-.065-.034-.136-.052-.209-.053-.051 0-.102.01-.149.03s-.09.05-.125.087-.069.086-.089.137-.03.106-.028.161v4.194c-.002.053.007.107.027.156s.051.094.09.13z" fill="url(#B)"/>
</svg>