<svg
	xmlns="http://www.w3.org/2000/svg" width="18.75" height="19.275" viewBox="-0.5 -0.5 18.75 19.275">
	<defs>
		<linearGradient id="A" x1="1.749" y1="2.081" x2="13.714" y2="12.485" gradientUnits="userSpaceOnUse">
			<stop stop-color="#0195ff"/>
			<stop offset=".991" stop-color="#1147e9"/>
		</linearGradient>
		<linearGradient id="B" x1="8.106" y1="12.308" x2="12.907" y2="19.876" gradientUnits="userSpaceOnUse">
			<stop stop-color="#1348ff"/>
			<stop offset="1" stop-color="#06238d"/>
		</linearGradient>
	</defs>
	<g fill-rule="evenodd">
		<path d="M.386 1.181C-.106 1.633-.489 2.26-.5 3.047l.024 10.127v.001c.001 1.766 1.445 2.72 2.729 3.193.396.146.824.266 1.271.363.692.15 1.312-.407 1.312-1.115 0-.592-.44-1.082-1.015-1.219-.281-.067-.543-.145-.782-.232-1.079-.398-1.208-.802-1.208-.991l-.001-1.439a12.64 12.64 0 0 0 1.289.318 15.5 15.5 0 0 0 1.049.166c.435.054.81-.296.81-.734 0-.385-.292-.708-.674-.759a12.76 12.76 0 0 1-.75-.122c-.722-.141-1.303-.318-1.729-.507l-.003-1.756c.417.129.855.234 1.297.32 1.201.234 2.563.35 3.908.353s2.704-.107 3.901-.341l1.258-.312v.148c-.001.639.518 1.158 1.157 1.158S14.5 9.151 14.5 8.512V3.063c0-.799-.391-1.433-.886-1.885-.48-.438-1.104-.754-1.76-.986C10.536-.274 8.805-.5 6.982-.5s-3.542.226-4.85.694C1.48.427.862.744.386 1.181zm1.428 3.741l.003 1.852c.427.19 1.01.369 1.738.51 1.035.202 2.251.308 3.479.311s2.437-.099 3.461-.299c.72-.14 1.288-.318 1.698-.507V4.91a7.49 7.49 0 0 1-.338.128c-1.318.467-3.049.693-4.872.693-1.808 0-3.522-.223-4.83-.682a7.54 7.54 0 0 1-.338-.128z" fill="url(#A)"/>
		<path d="M8.49 11.192c-1.183 0-2.143.959-2.143 2.143v3.297c0 1.184.959 2.143 2.143 2.143h7.617c1.183 0 2.143-.959 2.143-2.143v-3.297c0-1.183-.959-2.143-2.143-2.143zm6.127 5.934a.54.54 0 0 1-.376-.155.53.53 0 0 1 0-.752l1.235-1.235-1.235-1.238a.53.53 0 1 1 .751-.751l1.611 1.611a.53.53 0 0 1 0 .752l-1.611 1.611a.53.53 0 0 1-.376.157zm-4.636 0a.54.54 0 0 1-.376-.155l-1.611-1.611a.53.53 0 0 1 0-.751l1.611-1.611a.53.53 0 1 1 .751.751l-1.238 1.235 1.235 1.235a.53.53 0 0 1 0 .752c-.102.102-.238.155-.373.155zm1.412-.094c.072.03.144.044.216.044.204 0 .398-.119.484-.315l1.381-3.122a.53.53 0 1 0-.97-.428l-1.381 3.122a.53.53 0 0 0 .271.699z" fill="url(#B)"/>
	</g>
</svg>