<svg
	xmlns="http://www.w3.org/2000/svg" width="18.104" height="19.956" viewBox="-0.5 -0.5 18.104 19.956">
	<defs>
		<linearGradient id="A" x1="1.898" y1="2.484" x2="15.538" y2="13.424" gradientUnits="userSpaceOnUse">
			<stop stop-color="#0195ff"/>
			<stop offset=".991" stop-color="#1147e9"/>
		</linearGradient>
		<linearGradient id="B" x1="3.029" y1="8.183" x2="7.116" y2="9.953" gradientUnits="userSpaceOnUse">
			<stop stop-color="#0195ff"/>
			<stop offset=".991" stop-color="#1147e9"/>
		</linearGradient>
		<linearGradient id="C" x1="7.978" y1="8.667" x2="15.975" y2="16.606" gradientUnits="userSpaceOnUse">
			<stop stop-color="#1348ff"/>
			<stop offset="1" stop-color="#06238d"/>
		</linearGradient>
	</defs>
	<path d="M5.375-.5a2 2 0 0 0-1.979 1.706c-.012.082-.02.165-.021.25h-1C.787 1.456-.5 2.743-.5 4.331v12.25c0 1.588 1.287 2.875 2.875 2.875h8.115c.483 0 .875-.392.875-.875s-.392-.875-.875-.875H2.375c-.621 0-1.125-.504-1.125-1.125V4.331a1.12 1.12 0 0 1 .14-.545 1.13 1.13 0 0 1 .306-.353 1.12 1.12 0 0 1 .678-.227h1v.227.023a2 2 0 0 0 2 1.977h4.25a2 2 0 0 0 2-1.977v-.023-.227h1a1.12 1.12 0 0 1 .678.227 1.13 1.13 0 0 1 .307.353 1.12 1.12 0 0 1 .14.545v2.038c0 .483.392.875.875.875s.875-.392.875-.875V4.331c0-1.588-1.287-2.875-2.875-2.875h-1a2.02 2.02 0 0 0-.021-.25A2 2 0 0 0 9.625-.5z" fill="url(#A)"/>
	<g fill-rule="evenodd">
		<path d="M5.974 7.963c0-.651-.339-.977-1.016-.977H3.525c-.677 0-1.016.326-1.016.977 0 .677.339 1.016 1.016 1.016h1.433c.677 0 1.016-.339 1.016-1.016zm-1.196 3.75a1.09 1.09 0 0 0 .273-.742c0-.651-.326-.977-.977-.977h-.55c-.677 0-1.016.326-1.016.977a1.09 1.09 0 0 0 .273.742c.182.182.43.273.742.273h.55c.286 0 .521-.091.703-.273zm.413 3a1.09 1.09 0 0 0 .273-.742c0-.651-.326-.977-.977-.977h-.963c-.677 0-1.016.326-1.016.977a1.09 1.09 0 0 0 .273.742c.182.182.43.273.742.273h.963c.286 0 .521-.091.703-.273z" fill="url(#B)"/>
		<path d="M13.559 11.319c0 1.551-1.273 2.833-2.875 2.833s-2.875-1.282-2.875-2.833 1.273-2.833 2.875-2.833 2.875 1.282 2.875 2.833zm-.702 3.761c-.64.364-1.382.571-2.173.571-2.416 0-4.375-1.94-4.375-4.333s1.959-4.333 4.375-4.333 4.375 1.94 4.375 4.333a4.28 4.28 0 0 1-.733 2.402l2.985 2.985a1 1 0 0 1-1.414 1.414z" fill="url(#C)"/>
	</g>
</svg>