<svg
	xmlns="http://www.w3.org/2000/svg" width="20" height="20" viewBox="-0.5 -0.5 20 20">
	<defs>
		<linearGradient id="A" x1="2.32" y1="3.773" x2="12.56" y2="16.617" gradientUnits="userSpaceOnUse">
			<stop stop-color="#0195ff"/>
			<stop offset=".991" stop-color="#1147e9"/>
		</linearGradient>
		<linearGradient id="B" x1="5.738" y1="2.501" x2="18.203" y2="10.121" gradientUnits="userSpaceOnUse">
			<stop stop-color="#0bf"/>
			<stop offset="1" stop-color="#008bff"/>
		</linearGradient>
		<linearGradient id="C" x1="3.273" y1="4.59" x2="11.711" y2="17.027" gradientUnits="userSpaceOnUse">
			<stop stop-color="#1348ff"/>
			<stop offset="1" stop-color="#06238d"/>
		</linearGradient>
	</defs>
	<path d="M3.325 10.395l-.063.039c-.19.088-.374.186-.552.293l-.49.312-.271-.429C1.368 9.655.86 8.664.427 7.642.071 6.776-.198 5.88-.376 4.967-.522 4.16-.539 3.47-.428 2.897s.368-.97.772-1.192c.472-.247 1.052-.234 1.741.039s1.407.762 2.154 1.467a3.62 3.62 0 0 0-1.136-.439c-.302-.065-.619-.02-.886.127-.348.182-.578.507-.689.976a4.97 4.97 0 0 0 .011 1.729 11.48 11.48 0 0 0 .615 2.236 19.39 19.39 0 0 0 1.188 2.558z" fill="url(#A)"/>
	<path d="M3.074 12.229a2.88 2.88 0 0 1 .427-.429 3.32 3.32 0 0 1 .534-.352l.747 1.123.772 1.026-.354.058h.042l-.439.069-.479.048-.626-.722-.626-.8z" fill="url(#A)"/>
	<path d="M8.663 16.526c-.437-.035-.864-.142-1.262-.317a4.31 4.31 0 0 1-1.053-.654l.771-.274v.02l.741.644c.261.211.536.407.823.586z" fill="url(#A)"/>
	<path d="M10.685 5.688c-.3-.172-.623-.307-.961-.4a3.98 3.98 0 0 0-1.085-.146c-.72-.008-1.429.175-2.043.527a4.12 4.12 0 0 0-1.459 1.387 4.29 4.29 0 0 1 1.13-1.211 5.54 5.54 0 0 1 1.494-.821 4.89 4.89 0 0 1 1.667-.293c.556-.003 1.103.132 1.585.391a31.88 31.88 0 0 1 3.69 2.266c1.014.742 1.81 1.435 2.387 2.08s.949 1.233 1.116 1.767.131.989-.107 1.368c-.18.299-.639.517-1.376.654-.718.133-1.919-.25-3.601-1.148a4.09 4.09 0 0 0 1.711.445c.632.019 1.136-.277 1.512-.889.18-.312.173-.703-.021-1.172-.208-.455-.569-.952-1.084-1.494-.59-.608-1.235-1.166-1.928-1.67-.837-.614-1.722-1.169-2.647-1.66z" fill="url(#A)"/>
	<path d="M8.683 12.776h-.02c-1.06-.004-2.076-.401-2.826-1.103S4.664 10.02 4.66 9.027v-.039c-.005-.987.072-1.973.23-2.948a13.78 13.78 0 0 1 .604-2.4c.25-.69.534-1.23.854-1.621s.646-.586.98-.586c.681 0 1.192.26 1.532.781a3.08 3.08 0 0 1 .511 1.657C9.365 2.007 9.118.813 8.63.291 8.136-.237 7.702-.501 7.327-.5c-.459 0-.897.195-1.314.586-.404.404-.759 1.004-1.067 1.8a15.28 15.28 0 0 0-.747 2.968 29.99 29.99 0 0 0-.291 4.178c0 .511.152 1.011.438 1.446a4.23 4.23 0 0 0 1.094 1.191 5.5 5.5 0 0 0 1.533.8c.529.203 1.095.309 1.667.312z" fill="url(#B)"/>
	<path d="M7.578 17.269c-.487.156-.897.143-1.23-.04a2 2 0 0 1-.554-.677c-.14-.264-.213-.555-.213-.85a.89.89 0 0 1 .011-.146 1.05 1.05 0 0 0 .01-.116c-.225.949-.296 1.774-.213 2.477s.362 1.172.835 1.406c.403.222.896.235 1.48.039.598-.183 1.234-.534 1.908-1.054a15.01 15.01 0 0 0 2.075-2c.728-.866 1.39-1.779 1.98-2.732l.23-.332-.657-.3-.555-.298a21.04 21.04 0 0 1-1.77 2.183 13.46 13.46 0 0 1-1.761 1.6c-.563.416-1.088.696-1.575.84z" fill="url(#B)"/>
	<path d="M15.018 11.01l.354-.85h.004l-.385-.476-.406-.44-.616 1.25-.591.995c.183.105.378.19.581.253a2.64 2.64 0 0 0 .641.117h.021l.396-.849z" fill="url(#B)"/>
	<path d="M15.768 5.142v.019c-.024.35-.067.699-.13 1.045l-.218.909a3.96 3.96 0 0 1 .319.253 2.09 2.09 0 0 0 .32.235 3 3 0 0 0 .063-.381 4.45 4.45 0 0 0 .02-.44c0-.285-.031-.57-.093-.849-.06-.273-.155-.538-.282-.791z" fill="url(#B)"/>
	<path fill-rule="evenodd" d="M5.602 15.438v.002-.031zm7.081-2.792l.002-.004-.042-.02zm.692-1.158l.002.001-.065.099zm2.043-4.374h.001l-.023.077z" fill="url(#B)"/>
	<path d="M10.706 12.229h.02a3.85 3.85 0 0 0 1.47-1.357c.367-.574.558-1.231.553-1.9.001-.343-.048-.685-.146-1.016l-.014-.045a4.58 4.58 0 0 1 .18.668 4.6 4.6 0 0 1 0 1.631c-.092.525-.282 1.031-.563 1.494-.271.449-.667.82-1.146 1.074a32.96 32.96 0 0 1-3.983 1.875c-1.181.443-2.217.739-3.106.889s-1.619.153-2.189.01c-.569-.13-.972-.384-1.208-.762-.181-.299-.15-.781.094-1.445.241-.656 1.216-1.444 2.925-2.365-.538.295-.994.705-1.332 1.196s-.314 1.048.062 1.66c.194.313.556.501 1.085.566.542.067 1.188.024 1.939-.127.854-.179 1.691-.424 2.502-.732a23.78 23.78 0 0 0 2.815-1.309z" fill="url(#C)"/>
	<path d="M10.431 2.681a25.7 25.7 0 0 1 3.565.234c.977.14 1.937.369 2.866.684.814.286 1.457.619 1.929 1 .472.39.708.8.709 1.23 0 .495-.306.953-.917 1.377s-1.43.771-2.455 1.045a3.69 3.69 0 0 0 .98-.713c.218-.214.344-.495.354-.791 0-.351-.187-.689-.563-1.015a5.4 5.4 0 0 0-1.585-.86c-.771-.274-1.566-.483-2.376-.625a20.06 20.06 0 0 0-2.94-.312V2.681z" fill="url(#C)"/>
	<path d="M8.642 3.735a2.11 2.11 0 0 0-.062-.507c-.039-.16-.092-.316-.158-.468l-1.103.109-1.032.166.125-.019-.219.459-.197.517-.042.078 1.334-.1 1.334-.039a.2.2 0 0 0 .02-.088z" fill="url(#C)"/>
	<path fill-rule="evenodd" d="M12.59 7.912c-.093-.3-.228-.588-.403-.854a4.68 4.68 0 0 1 .403.854zM8.434 2.759l-.021-.02.009.021z" fill="url(#C)"/>
	<path d="M1.595 5.161l.02-.019a3.81 3.81 0 0 1 .918-.85 4.91 4.91 0 0 1 1.188-.576l-.083.371a1.89 1.89 0 0 0-.042.41l-.063.02c-.342.076-.68.171-1.011.283-.318.107-.628.235-.928.381z" fill="url(#C)"/>
</svg>