<svg
	xmlns="http://www.w3.org/2000/svg" width="20" height="19.547" viewBox="-0.5 -0.5 20 19.547">
	<defs>
		<linearGradient id="A" x1="3.369" y1="3.352" x2="15.641" y2="15.617" gradientUnits="userSpaceOnUse">
			<stop stop-color="#0195ff"/>
			<stop offset=".991" stop-color="#1147e9"/>
		</linearGradient>
		<linearGradient id="B" x1="10.1" y1="9.751" x2="17.758" y2="17.486" gradientUnits="userSpaceOnUse">
			<stop stop-color="#0bf"/>
			<stop offset="1" stop-color="#008bff"/>
		</linearGradient>
		<linearGradient id="C" x1="1.235" y1="1.225" x2="9.439" y2="9.473" gradientUnits="userSpaceOnUse">
			<stop stop-color="#1348ff"/>
			<stop offset="1" stop-color="#06238d"/>
		</linearGradient>
	</defs>
	<g fill-rule="evenodd">
		<path d="M10.667 1.731a1 1 0 0 1 1-1h3.087a3.5 3.5 0 0 1 3.5 3.5V6.89a1 1 0 1 1-2 0V4.231a1.5 1.5 0 0 0-1.5-1.5h-3.087a1 1 0 0 1-1-1zm-8.923 8.837a1 1 0 0 1 1 1v3.19a1.5 1.5 0 0 0 1.5 1.5h3.395a1 1 0 1 1 0 2H4.244a3.5 3.5 0 0 1-3.5-3.5v-3.19a1 1 0 0 1 1-1z" fill="url(#A)"/>
		<path d="M19.187 17.368c.208.208.313.43.313.664a.97.97 0 0 1-.313.703.97.97 0 0 1-.703.313c-.234 0-.456-.104-.664-.313l-2.773-2.773c-.807.703-1.719 1.042-2.734 1.016-1.016-.052-1.901-.456-2.656-1.211l-.898-.899c-.208-.208-.312-.43-.312-.664 0-.26.104-.495.313-.703l5.078-5.078a.97.97 0 0 1 .703-.312c.26 0 .495.104.703.312l.898.898c.755.755 1.146 1.628 1.172 2.617.052.964-.247 1.836-.898 2.617z" fill="url(#B)"/>
	</g>
	<path d="M8.931 10.91c-.208.208-.443.313-.703.313-.234 0-.456-.104-.664-.312L5.767 9.113l-.781.781c-.208.208-.443.313-.703.313a.89.89 0 0 1-.703-.312l-.898-.859C1.926 8.28 1.522 7.421 1.47 6.457a4.04 4.04 0 0 1 .82-2.695L-.187 1.219C-.396 1.01-.5.776-.5.516s.104-.495.313-.703S.242-.5.477-.5c.26 0 .495.104.703.313l2.478 2.543c.807-.651 1.719-.951 2.734-.898s1.901.456 2.656 1.211l.898.898c.182.182.273.417.273.703 0 .26-.091.482-.273.664l-.82.82 1.797 1.758c.208.208.313.443.313.703s-.104.495-.312.703-.443.313-.703.313-.495-.104-.703-.312L7.759 7.121l-.625.625.898.879.898.879c.208.208.313.443.313.703s-.104.495-.312.703z" fill="url(#C)"/>
</svg>