<svg
	xmlns="http://www.w3.org/2000/svg" width="19.784" height="19.256" viewBox="-0.5 -0.5 19.784 19.256">
	<defs>
		<linearGradient id="A" x1="1.454" y1="1.47" x2="4.135" y2="4.162" gradientUnits="userSpaceOnUse">
			<stop stop-color="#1348ff"/>
			<stop offset="1" stop-color="#06238d"/>
		</linearGradient>
		<linearGradient id="B" x1="1.703" y1="2.38" x2="14.709" y2="12.31" gradientUnits="userSpaceOnUse">
			<stop stop-color="#0195ff"/>
			<stop offset=".991" stop-color="#1147e9"/>
		</linearGradient>
		<linearGradient id="C" x1="9.669" y1="9.022" x2="17.657" y2="16.952" gradientUnits="userSpaceOnUse">
			<stop stop-color="#1348ff"/>
			<stop offset="1" stop-color="#06238d"/>
		</linearGradient>
	</defs>
	<path d="M4.718 3.081V.906L.888 4.737h2.175c.454 0 .844-.162 1.169-.487s.487-.714.487-1.169z" fill="url(#A)"/>
	<path d="M12.072-.5H6.445c-.217 0-.425.086-.578.239S5.627.1 5.627.317v2.869a2.35 2.35 0 0 1-.718 1.723 2.35 2.35 0 0 1-1.723.718H.317c-.217 0-.425.086-.578.239s-.239.361-.239.578v10.187c0 1.173.951 2.125 2.124 2.125h10.447c1.026 0 1.883-.728 2.081-1.696a5.62 5.62 0 0 1-1.775.286 5.63 5.63 0 0 1-5.627-5.627 5.63 5.63 0 0 1 5.627-5.627 5.62 5.62 0 0 1 1.819.3V1.624c0-1.173-.951-2.124-2.125-2.124z" fill="url(#B)"/>
	<path d="M14.196 7.737a4.36 4.36 0 0 0-1.819-.394 4.38 4.38 0 0 0-4.377 4.377 4.38 4.38 0 0 0 4.377 4.377c.649 0 1.265-.141 1.819-.394v-2.452c-.436.517-1.089.846-1.819.846a2.38 2.38 0 0 1-2.377-2.377 2.38 2.38 0 0 1 2.377-2.377c.73 0 1.382.329 1.819.846z" fill="url(#B)"/>
	<path fill-rule="evenodd" d="M14.755 11.72a2.38 2.38 0 0 1-2.377 2.377A2.38 2.38 0 0 1 10 11.72a2.38 2.38 0 0 1 2.377-2.377 2.38 2.38 0 0 1 2.377 2.377zm-.152 3.77a4.36 4.36 0 0 1-2.226.607A4.38 4.38 0 0 1 8 11.72a4.38 4.38 0 0 1 4.377-4.377 4.38 4.38 0 0 1 4.377 4.377 4.36 4.36 0 0 1-.707 2.386l2.943 2.944a1 1 0 0 1-1.414 1.414z" fill="url(#C)"/>
</svg>