<svg
	xmlns="http://www.w3.org/2000/svg" width="19.96" height="18.507" viewBox="-0.5 -0.5 19.96 18.507">
	<defs>
		<linearGradient id="A" x1="1.998" y1="1.306" x2="10.033" y2="12.398" gradientUnits="userSpaceOnUse">
			<stop stop-color="#0195ff"/>
			<stop offset=".991" stop-color="#1147e9"/>
		</linearGradient>
		<linearGradient id="B" x1="8.86" y1="10.438" x2="14.725" y2="18.693" gradientUnits="userSpaceOnUse">
			<stop stop-color="#1348ff"/>
			<stop offset="1" stop-color="#06238d"/>
		</linearGradient>
	</defs>
	<path d="M7.741-.5c-2.652 0-4.536 2.161-4.85 4.418-.853.051-1.606.372-2.191.911-.791.729-1.2 1.788-1.2 2.904 0 1.038.314 2.018 1.02 2.743s1.719 1.1 2.907 1.1h2.259v-1.358a2.39 2.39 0 0 1 2.385-2.395c1.036 0 1.947.67 2.266 1.648l.05.154.047-.145a2.38 2.38 0 0 1 2.263-1.656c1.274 0 2.299 1 2.373 2.243.674-.77 1.096-1.806 1.096-3.049 0-2.47-1.763-4.368-3.886-4.569C11.43.685 9.851-.5 7.741-.5z" fill="url(#A)"/>
	<path d="M16.361 16.715c-.293.298-.583.76-.289 1.058s.625.319.918.021l2.25-2.288a.77.77 0 0 0 0-1.079l-2.25-2.288c-.293-.298-.637-.422-.93-.124-.366.286.144.905.437 1.203l.84 1.003-4.625.005v.593c0 .409.329.741.735.741l3.973-.004z" fill="url(#B)"/>
	<path d="M7.021 10.281c0-.635.51-1.149 1.139-1.149a1.14 1.14 0 0 1 1.082.789l.934 2.856.183.662.138.564.147-.555.193-.648.921-2.878a1.13 1.13 0 0 1 1.076-.79c.624 0 1.131.511 1.131 1.14v3.951l-1.253.001.001-2.525.023-.944.028-.467c-.003.003-.034.111-.092.324l-.193.657-.225.745-1.036 3.11c-.105.314-.397.526-.726.526s-.621-.212-.726-.526l-1.036-3.11-.275-.884-.243-.842.009.134.028.523.023.754v3.319a.63.63 0 0 1-.626.631.63.63 0 0 1-.626-.631z" fill="url(#B)"/>
</svg>