<svg
	xmlns="http://www.w3.org/2000/svg" width="29.915" height="29.974" viewBox="-0.5 -0.5 29.915 29.974">
	<defs>
		<linearGradient id="A" x1="2.943" y1="3.005" x2="19.351" y2="19.09" gradientUnits="userSpaceOnUse">
			<stop stop-color="#0195ff"/>
			<stop offset=".991" stop-color="#1147e9"/>
		</linearGradient>
		<linearGradient id="B" x1="15.448" y1="13.441" x2="28.489" y2="24.86" gradientUnits="userSpaceOnUse">
			<stop stop-color="#1348ff"/>
			<stop offset="1" stop-color="#06238d"/>
		</linearGradient>
	</defs>
	<path d="M11.834 22.938h-1.7a2.6 2.6 0 0 1-1.602-.55 2.04 2.04 0 0 1-.826-1.328l-.34-1.511-2.088-1.19-1.457.595c-.324.092-.631.137-.923.137a2.86 2.86 0 0 1-1.311-.32c-.388-.214-.696-.534-.923-.961l-.923-1.694c-.162-.366-.243-.702-.243-1.007 0-.793.34-1.434 1.02-1.923l1.117-.778v-2.38L.471 9.205C-.176 8.747-.5 8.121-.5 7.328c0-.305.081-.641.243-1.007l.923-1.694c.227-.427.534-.748.923-.961a2.86 2.86 0 0 1 1.311-.32c.356 0 .664.061.923.183l1.457.549 2.088-1.19.34-1.511c.129-.549.421-.992.874-1.328.453-.366.971-.549 1.554-.549h1.7c.583 0 1.101.183 1.554.549.453.336.745.778.874 1.328l.291 1.511 2.137 1.19 1.457-.549c.259-.122.566-.183.922-.183a2.58 2.58 0 0 1 1.263.32 2.21 2.21 0 0 1 .971.961l.874 1.694a1.92 1.92 0 0 1 .291 1.053c0 .13-.01.255-.029.376-2.558-.26-4.651.878-5.071 3.815 0 0-.467.027-1.476.449.046-.26.069-.525.069-.796 0-.641-.13-1.236-.389-1.785a4.67 4.67 0 0 0-1.068-1.511c-.453-.427-.987-.763-1.602-1.007S11.64 6.55 10.96 6.55s-1.327.122-1.942.366a5.14 5.14 0 0 0-1.554 1.007 4.67 4.67 0 0 0-1.068 1.511c-.259.549-.388 1.144-.388 1.785a4.44 4.44 0 0 0 .388 1.831 4.83 4.83 0 0 0 1.068 1.465 5.14 5.14 0 0 0 1.554 1.007 5.21 5.21 0 0 0 1.892.366c-.869 1.157-1.047 2.128-.666 3.951.568 1.322 1.055 1.85 2.162 2.493 0 0-.037.197-.055.555-.166.034-.338.051-.516.051z" fill="url(#A)"/>
	<path fill-rule="evenodd" d="M20.359 11.785c.112-.716.783-1.206 1.499-1.094 2.57.402 5.097 1.623 7.175 3.713.511.514.509 1.345-.005 1.856s-1.345.509-1.856-.005c-1.682-1.691-3.698-2.655-5.719-2.971-.716-.112-1.206-.783-1.094-1.5z" fill="url(#B)"/>
	<path d="M21.51 22.993c0-.725-.588-1.312-1.312-1.312s-1.312.588-1.312 1.313c0 1.031.276 2.129.826 3.018l.183.265c.427.51 1.198.626 1.756.241.593-.41.744-1.22.34-1.816-.316-.499-.48-1.123-.48-1.709z" fill="url(#B)"/>
	<path d="M28.565 22.183c.138-3.379-2.464-6.211-5.492-7.348-3.137-1.178-7.061-.692-9.776 2.841-.442.575-.334 1.399.241 1.841s1.399.334 1.84-.241c1.911-2.487 4.554-2.816 6.772-1.983 2.327.874 3.87 2.879 3.792 4.784-.014.354-.134.534-.225.623-.103.101-.236.152-.363.154s-.218-.04-.28-.103c-.053-.053-.176-.214-.176-.621 0-1.123-.712-2.326-1.746-3.101-1.113-.835-2.687-1.262-4.537-.751l-.027.008-.027.009c-1.772.572-2.902 2.227-3.156 4.162-.256 1.954.344 4.253 2 6.488.432.583 1.254.705 1.836.273s.705-1.254.273-1.836c-1.33-1.795-1.659-3.425-1.507-4.583s.753-1.798 1.335-1.998c1.039-.278 1.766-.023 2.233.328a2.07 2.07 0 0 1 .555.619c.126.216.137.326.144.52.029.928.349 1.743.938 2.335.609.612 1.412.891 2.192.876 1.598-.031 3.078-1.279 3.161-3.295z" fill="url(#B)"/>
</svg>