<svg
	xmlns="http://www.w3.org/2000/svg" width="20.002" height="20" viewBox="-0.5 -0.5 20.002 20">
	<defs>
		<linearGradient id="A" x1="2.502" y1="1.566" x2="11.548" y2="14.668" gradientUnits="userSpaceOnUse">
			<stop stop-color="#0195ff"/>
			<stop offset=".991" stop-color="#1147e9"/>
		</linearGradient>
		<linearGradient id="B" x1="7.242" y1="9.386" x2="15.43" y2="16.326" gradientUnits="userSpaceOnUse">
			<stop stop-color="#1348ff"/>
			<stop offset="1" stop-color="#06238d"/>
		</linearGradient>
	</defs>
	<path d="M4.008 5.488C3.792 2.618 6.092-.5 9.378-.5c2.546 0 4.414 1.544 5.306 3.938 2.472-.172 4.818 1.93 4.818 4.95 0 1.92-.912 3.38-2.232 4.196v-2.552c0-.09-.008-.162-.012-.184l-.01-.078-.018-.098-.04-.172-.074-.238-.002-.002-.056-.13c-.424-1.11-1.426-1.834-2.418-2.266-1.092-.476-2.438-.724-3.876-.724s-2.784.246-3.876.72c-1.018.442-2.044 1.192-2.454 2.348-.09.206-.176.488-.176.828v3.278h-.676C.89 13.314-.5 11.662-.5 9.35c0-2.426 1.772-4.338 4.506-3.864z" fill="url(#A)"/>
	<path fill-rule="evenodd" d="M10.766 7.642c2.556 0 4.542.89 4.928 2.122a.78.78 0 0 1 .078.266v6.908c0 1.458-2.152 2.562-5.004 2.562s-5.004-1.102-5.004-2.562v-6.9a.6.6 0 0 1 .072-.272c.392-1.24 2.378-2.122 4.934-2.122zm3.818 2.562c0-.546-1.524-1.376-3.818-1.376s-3.818.83-3.818 1.376 1.524 1.376 3.818 1.376 3.818-.83 3.818-1.376zm.144 3.048a.75.75 0 1 0-1.5 0v3.466a.75.75 0 1 0 1.5 0z" fill="url(#B)"/>
</svg>