<svg
	xmlns="http://www.w3.org/2000/svg" width="18.064" height="17.965" viewBox="-0.5 -0.5 18.064 17.965">
	<defs>
		<linearGradient id="A" x1="1.521" y1="2.187" x2="13.601" y2="11.257" gradientUnits="userSpaceOnUse">
			<stop stop-color="#0195ff"/>
			<stop offset=".991" stop-color="#1147e9"/>
		</linearGradient>
		<linearGradient id="B" x1="9.379" y1="9.486" x2="13.63" y2="15.757" gradientUnits="userSpaceOnUse">
			<stop stop-color="#1348ff"/>
			<stop offset="1" stop-color="#06238d"/>
		</linearGradient>
		<linearGradient id="C" x1="1.293" y1="1.291" x2="3.753" y2="3.761" gradientUnits="userSpaceOnUse">
			<stop stop-color="#1348ff"/>
			<stop offset="1" stop-color="#06238d"/>
		</linearGradient>
	</defs>
	<path fill-rule="evenodd" d="M11.185-.5H5.872a.75.75 0 0 0-.75.75v2.632c0 .615-.22 1.142-.659 1.581s-.966.659-1.581.659H.25a.75.75 0 0 0-.75.75v9.793a1.8 1.8 0 0 0 1.8 1.8h4.677a8.07 8.07 0 0 1-.919-1.093c-.214-.306-.139-.726.166-.94s.726-.139.94.166c.451.644 1.012 1.206 1.656 1.656.082.057.147.13.195.211h3.168a1.8 1.8 0 0 0 1.743-1.348c-.258.047-.523.071-.796.071h-.923c-.52 0-.965-.218-1.297-.55a1.78 1.78 0 0 1-.507-.982l-.724.008c-.47 0-.944-.157-1.317-.53s-.53-.847-.53-1.317a1.87 1.87 0 0 1 .292-1.023 1.87 1.87 0 0 1-.292-1.023c0-.47.157-.944.53-1.317.382-.382.866-.51 1.297-.51h.746a1.79 1.79 0 0 1 .505-.994 1.77 1.77 0 0 1 1.331-.531l.876-.019h.013a4.51 4.51 0 0 1 .854.079V5.202a.68.68 0 0 1-.167-.009c-.38-.067-.771-.102-1.172-.102a6.73 6.73 0 0 0-1.172.102c-.367.065-.717-.18-.782-.547s.18-.717.547-.782a8.08 8.08 0 0 1 1.407-.123c.456 0 .903.038 1.339.111V1.3a1.8 1.8 0 0 0-1.8-1.8zM7.988 5.353c.214.306.139.726-.166.94-.644.451-1.206 1.012-1.656 1.656-.214.306-.634.38-.94.166s-.38-.634-.166-.94c.541-.774 1.215-1.448 1.989-1.989.306-.214.726-.139.94.166zM4.518 9.819c.367.065.612.415.547.782a6.73 6.73 0 0 0 0 2.343c.065.367-.18.717-.547.782s-.717-.18-.782-.547a8.08 8.08 0 0 1 0-2.813c.065-.367.415-.612.782-.547z" fill="url(#A)"/>
	<path d="M8.16 10.249c-.134.134-.201.308-.201.522s.067.388.201.522.308.201.522.201l1.825-.02v.642l-1.825-.02c-.214 0-.388.067-.522.201s-.201.308-.201.522.067.388.201.521.308.201.522.201l1.825-.02v.842c0 .187.067.348.201.481a.69.69 0 0 0 .501.221h.923c.776 0 1.437-.247 1.986-.742s.862-1.117.943-1.866h1.803c.214 0 .388-.067.522-.201.12-.12.181-.287.181-.501s-.067-.388-.201-.522-.308-.201-.522-.201H15.04c-.107-.722-.428-1.324-.963-1.805-.522-.468-1.17-.702-1.946-.702l-.903.02c-.201-.013-.374.053-.521.201-.134.134-.201.308-.201.522v.802H8.661c-.214 0-.381.06-.501.181z" fill="url(#B)"/>
	<path d="M4.288 2.769V.773L.773 4.288h1.996a1.46 1.46 0 0 0 1.072-.447 1.46 1.46 0 0 0 .447-1.072z" fill="url(#C)"/>
</svg>