<svg
	xmlns="http://www.w3.org/2000/svg" width="20" height="20" viewBox="-0.5 -0.5 20 20">
	<defs>
		<linearGradient id="A" x1="2.336" y1="2.491" x2="16.319" y2="15.723" gradientUnits="userSpaceOnUse">
			<stop stop-color="#0195ff"/>
			<stop offset=".991" stop-color="#1147e9"/>
		</linearGradient>
		<linearGradient id="B" x1="13.007" y1="2.134" x2="19.729" y2="7.313" gradientUnits="userSpaceOnUse">
			<stop stop-color="#1348ff"/>
			<stop offset="1" stop-color="#06238d"/>
		</linearGradient>
	</defs>
	<path d="m 6.0274948,1.1969024 c 1.22256,-0.51130001 2.5385,-0.74454001 3.8534,-0.68884001 0.01684,7.2e-4 0.02472,0.0043 0.02938,0.00686 0.0061,0.00336 0.01656,0.01084 0.02818,0.02654 0.02468,0.03332 0.0451,0.09176 0.03288,0.1642 l -1.28798,7.62496001 c -0.1776,1.05136 0.40716,2.0830196 1.4004402,2.4707396 l 7.20364,2.81182 c 0.0684,0.0268 0.108,0.0742 0.124,0.1126 0.0074,0.018 0.0086,0.0308 0.0082,0.0378 -2e-4,0.0054 -0.001,0.0138 -0.0092,0.0288 -0.6276,1.1566 -1.5036,2.166 -2.5704,2.9522 -1.36972,1.0096 -2.99758,1.6102 -4.69482,1.7322 -1.6972202,0.122 -3.3942602,-0.2396 -4.8943002,-1.043 -1.50002,-0.8034 -2.74158,-2.0154 -3.58064,-3.4958 -0.83907999,-1.4804 -1.24127999,-3.16828 -1.15999999,-4.8679396 0.0813,-1.69966 0.64275999,-3.34146 1.61927999,-4.73498 0.97652,-1.3935 2.32808,-2.48164 3.89794,-3.13816 z" stroke="url(#A)" stroke-width="2" fill="none"/>
	<path fill-rule="evenodd" d="M17.935 10.523c.733.283 1.547-.176 1.563-.962l-.024-.898c-.106-1.462-.543-2.882-1.277-4.156s-1.748-2.372-2.967-3.212l-.777-.485c-.686-.385-1.497.08-1.628.855l-.927 5.457a1.25 1.25 0 0 0 .783 1.376z" fill="url(#B)"/>
</svg>