<svg
	xmlns="http://www.w3.org/2000/svg" width="23.756" height="11.399" viewBox="-0.5 -0.5 23.756 11.399">
	<defs>
		<linearGradient id="A" x1="6.808" y1="6.498" x2="8.603" y2="13.242" gradientUnits="userSpaceOnUse">
			<stop stop-color="#1348ff"/>
			<stop offset="1" stop-color="#06238d"/>
		</linearGradient>
		<linearGradient id="B" x1="2.107" y1="1.205" x2="9.424" y2="12.374" gradientUnits="userSpaceOnUse">
			<stop stop-color="#0195ff"/>
			<stop offset=".991" stop-color="#1147e9"/>
		</linearGradient>
	</defs>
	<path d="M8.737 10.899h-.905l-.436-1.311H5.305l-.436 1.311h-.916l1.868-5.16h1.073zm-3.19-2.033h1.611l-.549-1.652-.256-.795c-.015.061-.1.328-.256.802z" fill="url(#A)"/>
	<path d="M9.436 10.899v-5.16h2.025c.584 0 1.029.106 1.337.319s.461.533.461.963c0 .3-.079.554-.238.762s-.385.347-.685.417c.352.046.621.178.809.396s.286.498.286.842c0 .332-.084.608-.253.828s-.391.377-.674.48-.602.154-.956.154zm1.941-3.043c.337 0 .584-.06.74-.179s.234-.3.234-.535-.077-.396-.231-.498-.382-.154-.692-.154h-1.088v1.366zm.099 2.292c.33 0 .586-.059.769-.176s.278-.323.278-.612c0-.264-.094-.455-.282-.575s-.438-.183-.758-.183h-1.143v1.545z" fill="url(#A)"/>
	<path d="M18.587 10.899h-.905l-.436-1.311h-2.091l-.436 1.311h-.916l1.868-5.16h1.073zm-3.19-2.033h1.611l-.549-1.652-.256-.795c-.015.061-.1.328-.256.802z" fill="url(#A)"/>
	<path d="M19.279 10.899v-5.16h2.131c.405 0 .746.067 1.022.201s.482.323.619.568.205.53.205.857c0 .313-.067.596-.201.85s-.337.457-.608.608-.602.223-.993.223h-1.267v1.853zm2.054-2.626c.337 0 .588-.078.754-.234s.253-.381.253-.667c0-.278-.087-.488-.26-.63s-.432-.216-.776-.216h-1.117v1.747z" fill="url(#A)"/>
	<path d="M2.967 5.255A2.12 2.12 0 0 0 .906 7.425a2.15 2.15 0 0 0 2.238 2.058l.464-.026-.559 1.441-.217-.011C1.016 10.791-.452 9.31-.499 7.461-.548 5.553.933 3.96 2.825 3.855a4.03 4.03 0 0 1 .852-1.638C4.874.827 6.815.456 8.436 1.158 9.448.002 10.765-.621 12.35-.48c2.261.2 4.322 1.869 4.541 4.505.036.429-.297.769-.694.805-.468.042-.83-.324-.886-.739-.225-1.682-1.598-2.875-3.1-3.008-1.122-.099-1.998.358-2.725 1.266l-.356.408c-.221.256-.586.266-.832.093-1.088-.762-2.574-.603-3.431.393a2.51 2.51 0 0 0-.597 1.425c-.026.302-.271.581-.615.581l-.688.006z" fill="url(#B)"/>
</svg>