<svg
	xmlns="http://www.w3.org/2000/svg"
	xmlns:xlink="http://www.w3.org/1999/xlink" width="17.522" height="17.495" viewBox="-0.5 -0.5 17.522 17.495">
	<defs>
		<radialGradient id="A" cx="0" cy="0" r="1" gradientTransform="matrix(7.5351183,7.5301224,-9.1388597,9.1449234,4.5936812,4.4848814)" xlink:href="#G">
			<stop stop-color="#0bf"/>
			<stop offset="1" stop-color="#008bff"/>
		</radialGradient>
		<radialGradient id="B" cx="0" cy="0" r="1" gradientTransform="matrix(3.0615825,3.0779343,-5.8158046,5.7849076,0.1857143,6.7128004)" xlink:href="#G">
			<stop stop-color="#0195ff"/>
			<stop offset="1" stop-color="#1147e9"/>
		</radialGradient>
		<radialGradient id="C" cx="0" cy="0" r="1" gradientTransform="matrix(3.0615825,3.0779343,-5.8158046,5.7849076,13.286057,6.7128004)" xlink:href="#G">
			<stop stop-color="#0195ff"/>
			<stop offset="1" stop-color="#1147e9"/>
		</radialGradient>
		<radialGradient id="D" cx="0" cy="0" r="1" gradientTransform="matrix(-3.0957913,3.0439254,-5.750806,-5.8487947,9.8298612,0.1817959)" xlink:href="#G">
			<stop stop-color="#0195ff"/>
			<stop offset="1" stop-color="#1147e9"/>
		</radialGradient>
		<radialGradient id="E" cx="0" cy="0" r="1" gradientTransform="matrix(-3.0957913,3.0439254,-5.750806,-5.8487947,9.8298612,13.280114)" xlink:href="#G">
			<stop stop-color="#0195ff"/>
			<stop offset="1" stop-color="#1147e9"/>
		</radialGradient>
		<radialGradient id="F" cx="0" cy="0" r="1" gradientTransform="matrix(4.6508821,3.6018638,-3.1778672,4.1033994,6.1491432,6.4398204)" xlink:href="#G">
			<stop stop-color="#1348ff"/>
			<stop offset="1" stop-color="#06238d"/>
		</radialGradient>
		<linearGradient id="G" gradientUnits="userSpaceOnUse"/>
	</defs>
	<path d="m 4.5203432,2.871102 c -0.638694,0.4452574 -1.194319,1.0014044 -1.638988,1.6405554 m 10.7597708,0 C 13.196457,3.8725064 12.640832,3.3163594 12.002073,2.871102 M 2.8813552,11.9832 c 0.444669,0.639151 1.000294,1.195297 1.638988,1.640555 m 7.4817948,0 c 0.638694,-0.445258 1.194319,-1.001404 1.638988,-1.640555" stroke="url(#A)" stroke-width="1.543" stroke-linecap="round" fill="none"/>
	<path d="M-.5 8.266c0-1.214.99-2.198 2.211-2.198s2.211.984 2.211 2.198-.99 2.198-2.211 2.198S-.5 9.48-.5 8.266zm2.211-.733c-.407 0-.737.328-.737.733s.33.733.737.733.737-.328.737-.733-.33-.733-.737-.733z" fill="url(#B)"/>
	<path d="M12.6 8.266c0-1.214.99-2.198 2.211-2.198s2.211.984 2.211 2.198-.99 2.198-2.211 2.198S12.6 9.48 12.6 8.266zm2.211-.733c-.407 0-.737.328-.737.733s.33.733.737.733.737-.328.737-.733-.33-.733-.737-.733z" fill="url(#C)"/>
	<path d="M8.268-.5c1.221 0 2.211.984 2.211 2.198s-.99 2.198-2.211 2.198-2.211-.984-2.211-2.198S7.047-.5 8.268-.5zm.737 2.198c0-.404-.33-.733-.737-.733s-.737.328-.737.733.33.733.737.733.737-.328.737-.733z" fill="url(#D)"/>
	<path d="M8.268 12.598c1.221 0 2.211.984 2.211 2.198s-.99 2.198-2.211 2.198-2.211-.984-2.211-2.198.99-2.198 2.211-2.198zm.737 2.198c0-.404-.33-.733-.737-.733s-.737.328-.737.733.33.733.737.733.737-.328.737-.733z" fill="url(#E)"/>
	<path d="M10.371 5.936c.176-.183.375-.274.595-.274s.419.091.595.274c.154.16.231.354.231.582a.93.93 0 0 1-.231.616l-3.338 3.459a.79.79 0 0 1-.595.24.79.79 0 0 1-.595-.24L5.38 8.881c-.176-.183-.264-.388-.264-.616s.088-.434.264-.616.375-.274.595-.274a.71.71 0 0 1 .562.274l1.091 1.13z" fill="url(#F)"/>
</svg>