<svg
	xmlns="http://www.w3.org/2000/svg" width="20.01" height="19.073" viewBox="-0.5 -0.5 20.01 19.073">
	<defs>
		<linearGradient id="A" x1="3.397" y1=".82" x2="8.405" y2="10.622" gradientUnits="userSpaceOnUse">
			<stop stop-color="#0195ff"/>
			<stop offset=".991" stop-color="#1147e9"/>
		</linearGradient>
		<linearGradient id="B" x1="3.895" y1="13.601" x2="6.553" y2="20.808" gradientUnits="userSpaceOnUse">
			<stop stop-color="#0195ff"/>
			<stop offset=".991" stop-color="#1147e9"/>
		</linearGradient>
		<linearGradient id="C" x1="2.458" y1="8.908" x2="6.18" y2="18.439" gradientUnits="userSpaceOnUse">
			<stop stop-color="#1348ff"/>
			<stop offset="1" stop-color="#06238d"/>
		</linearGradient>
	</defs>
	<path fill-rule="evenodd" d="M2.86 5.852l-.115.288a1 1 0 1 1-1.873-.703C2.173 1.97 5.519-.5 9.443-.5s7.27 2.47 8.571 5.937a1 1 0 1 1-1.873.703c-.031-.083-.063-.165-.097-.246a25.93 25.93 0 0 1-2.379.499c.063.258.115.516.157.776a1 1 0 1 1-1.975.315 7.75 7.75 0 0 0-.183-.842c-1.35.117-2.876.146-4.505.001a7.76 7.76 0 0 0-.183.841A1 1 0 1 1 5 7.169c.042-.264.095-.527.16-.789-.754-.132-1.522-.306-2.299-.528zM7.527 1.76c-1.419.394-2.661 1.214-3.579 2.315.637.163 1.268.292 1.888.39.426-.921.991-1.824 1.691-2.705zm7.434 2.341c-.938-1.136-2.219-1.977-3.684-2.364.71.891 1.283 1.804 1.713 2.736.75-.111 1.414-.243 1.971-.372zm-5.55-1.484c.592.694 1.074 1.388 1.452 2.078-.906.055-1.882.065-2.905.002.378-.691.861-1.385 1.453-2.08z" fill="url(#A)"/>
	<path d="M2.273 12.758a1 1 0 0 0-.601 1.498c1.614 2.59 4.491 4.317 7.772 4.317s6.158-1.727 7.772-4.317a1 1 0 0 0-.32-1.378c-.194-.121-.414-.167-.626-.147h-.153l-.682.205a2.24 2.24 0 0 1-1.553-.159 2.21 2.21 0 0 1-.235.319l-2.665 3.014a2.19 2.19 0 0 1-3.106.178 2.21 2.21 0 0 1-.618-2.339 18.97 18.97 0 0 1-2.497-.399 15.37 15.37 0 0 1-2.487-.792z" fill="url(#B)"/>
	<path fill-rule="evenodd" d="M19.182 9.494a1 1 0 0 0-1.345-1.48c-.818.743-2.047 1.475-3.214 1.776a1 1 0 1 0 .499 1.937c1.53-.394 3.042-1.307 4.06-2.232zm-9.543 1.289L8.384 9.654a.96.96 0 0 1-.077-1.345.94.94 0 0 1 1.334-.076l2.992 2.691a.96.96 0 0 1 .077 1.345l-2.665 3.014a.94.94 0 0 1-1.334.076.96.96 0 0 1-.077-1.345l1.09-1.233c-1.612.044-3.215-.11-4.683-.449-2.093-.483-4.015-1.367-5.268-2.696a1 1 0 0 1 1.455-1.372c.881.934 2.379 1.684 4.263 2.119 1.289.298 2.711.436 4.149.399z" fill="url(#C)"/>
</svg>