<svg
	xmlns="http://www.w3.org/2000/svg" width="18.588" height="20" viewBox="-0.5 -0.5 18.588 20">
	<defs>
		<linearGradient id="A" x1="1.798" y1="6.592" x2="12.424" y2="17.328" gradientUnits="userSpaceOnUse">
			<stop stop-color="#0195ff"/>
			<stop offset=".991" stop-color="#1147e9"/>
		</linearGradient>
		<linearGradient id="B" x1="8.779" y1="1.106" x2="16.418" y2="8.784" gradientUnits="userSpaceOnUse">
			<stop stop-color="#1348ff"/>
			<stop offset="1" stop-color="#06238d"/>
		</linearGradient>
	</defs>
	<path d="M5.664 4.322c-2.857.616-4.466 3.079-4.466 6.965v.69c0 2.299-1.445 3.843-1.456 3.854-.241.252-.307.624-.175.953a.89.89 0 0 0 .81.526h4.106a2.74 2.74 0 0 0 2.683 2.19l-.011-.011a2.74 2.74 0 0 0 2.683-2.19h4.106a.89.89 0 0 0 .81-.526c.142-.318.077-.69-.164-.942-.033-.033-1.456-1.599-1.456-3.854v-.69c0-.551-.032-1.073-.096-1.565H10.74l-1.613 1.63-.047.04c-.254.217-.596.42-1.026.494-.392.068-.762.012-1.083-.115-.425-.144-.808-.44-1.039-.883-.189-.328-.269-.682-.269-1.02z" fill="url(#A)"/>
	<path fill-rule="evenodd" d="M8.81-.5c-.47 0-.862.157-1.176.47a1.57 1.57 0 0 0-.47 1.154v8.744c0 .114.029.214.086.299.043.1.121.164.235.192.214.1.42.064.62-.107l2.01-2.031h6.328c.47 0 .862-.157 1.176-.47a1.57 1.57 0 0 0 .47-1.154V1.125a1.57 1.57 0 0 0-.47-1.154c-.314-.314-.706-.47-1.176-.47zm3.243 4.449c-.149-.151-.224-.333-.224-.544V1.571a.65.65 0 0 1 .224-.499.77.77 0 0 1 .573-.227.77.77 0 0 1 .572.227.65.65 0 0 1 .224.499v1.834c0 .212-.075.393-.224.544-.149.136-.34.204-.572.204s-.423-.068-.573-.204zm1.245 2.762c-.183.183-.407.274-.672.274s-.49-.091-.672-.274-.274-.415-.274-.697c0-.266.091-.49.274-.672s.407-.274.672-.274.49.091.672.274.274.407.274.672c0 .282-.091.514-.274.697z" fill="url(#B)"/>
</svg>