<svg
	xmlns="http://www.w3.org/2000/svg" width="17.965" height="17.965" viewBox="-0.5 -0.5 17.965 17.965">
	<defs>
		<linearGradient id="A" x1="2.193" y1="2.187" x2="14.772" y2="14.77" gradientUnits="userSpaceOnUse">
			<stop stop-color="#0195ff"/>
			<stop offset=".991" stop-color="#1147e9"/>
		</linearGradient>
		<linearGradient id="B" x1="8.501" y1="1.77" x2="8.486" y2="11.279" gradientUnits="userSpaceOnUse">
			<stop stop-color="#0bf"/>
			<stop offset="1" stop-color="#008bff"/>
		</linearGradient>
	</defs>
	<path d="M14.793-.5a2.58 2.58 0 0 1 1.898.773c.516.516.773 1.16.773 1.934v8.965a2.7 2.7 0 0 1-.773 1.934 2.58 2.58 0 0 1-1.898.773h-3.621v1.793h1.793c.609 0 .914.293.914.879 0 .609-.305.914-.914.914H4a.98.98 0 0 1-.668-.246c-.164-.164-.246-.387-.246-.668 0-.258.082-.469.246-.633A.98.98 0 0 1 4 15.672h1.793v-1.793H2.207c-.773 0-1.418-.258-1.934-.773A2.7 2.7 0 0 1-.5 11.172V2.207c0-.773.258-1.418.773-1.934S1.434-.5 2.207-.5zm.879 2.707c0-.609-.293-.914-.879-.914H2.207a.98.98 0 0 0-.668.246c-.164.164-.246.387-.246.668v8.965a.98.98 0 0 0 .246.668.98.98 0 0 0 .668.246h12.586c.258 0 .469-.082.633-.246a.98.98 0 0 0 .246-.668z" fill="url(#A)"/>
	<path fill-rule="evenodd" d="M14.933 6.542a.9.9 0 0 1-.902.898l-2.403-.006-1.614 3.397a.9.9 0 0 1-1.677-.136L6.92 5.8l-.417 1.052a.9.9 0 0 1-.839.569l-2.673-.006a.9.9 0 0 1 .004-1.8l2.06.005 1.161-2.93a.9.9 0 0 1 1.701.081l1.488 5.145.841-1.769a.9.9 0 0 1 .815-.514l2.973.007a.9.9 0 0 1 .898.902z" fill="url(#B)"/>
</svg>