<svg
	xmlns="http://www.w3.org/2000/svg" width="18" height="18" viewBox="-0.5 -0.5 18 18">
	<defs>
		<linearGradient id="A" x1="2.198" y1="2.192" x2="14.802" y2="14.8" gradientUnits="userSpaceOnUse">
			<stop stop-color="#0195ff"/>
			<stop offset=".991" stop-color="#1147e9"/>
		</linearGradient>
	</defs>
	<path fill-rule="evenodd" d="M4.462-.5a.92.92 0 0 0-.717.346L-.294 4.884c-.265.331-.276.801-.026 1.144L7.757 17.12a.92.92 0 0 0 1.486 0L17.32 6.029c.25-.343.239-.814-.026-1.144L13.255-.154a.92.92 0 0 0-.717-.346zm9.159 5.898c-1.906-.325-2.516-1.842-2.717-2.791-.022-.094-.142-.088-.158.006-.321 1.931-1.819 2.548-2.755 2.752-.093.022-.087.143.005.16 1.906.325 2.516 1.842 2.717 2.791.022.094.142.088.158-.005.321-1.931 1.819-2.548 2.755-2.752.093-.022.087-.143-.005-.16z" fill="url(#A)"/>
</svg>