<svg
	xmlns="http://www.w3.org/2000/svg" width="20" height="18.75" viewBox="-0.5 -0.5 20 18.75">
	<defs>
		<linearGradient id="A" x1="1.57" y1="3.655" x2="9.134" y2="13.093" gradientUnits="userSpaceOnUse">
			<stop stop-color="#0195ff"/>
			<stop offset=".991" stop-color="#1147e9"/>
		</linearGradient>
		<linearGradient id="B" x1="3.325" y1="2.086" x2="15.354" y2="13.172" gradientUnits="userSpaceOnUse">
			<stop stop-color="#0bf"/>
			<stop offset="1" stop-color="#008bff"/>
		</linearGradient>
		<linearGradient id="C" x1="10.121" y1="8.863" x2="17.824" y2="16.599" gradientUnits="userSpaceOnUse">
			<stop stop-color="#1348ff"/>
			<stop offset="1" stop-color="#06238d"/>
		</linearGradient>
	</defs>
	<path d="M13.306 5.777c-3.543.347-6.312 3.335-6.312 6.969l.007.321c-.084-.012-.17-.019-.257-.019H5.633a2.69 2.69 0 0 0-2.337-1.353H2.39c-.701 0-1.339.268-1.819.706l-.115-.112C-.205 11.61-.5 10.691-.5 9.718c0-1.047.383-2.039 1.125-2.723.548-.505 1.255-.806 2.054-.854C2.974 4.026 4.74 2 7.226 2c1.978 0 3.458 1.111 4.256 2.762a3.81 3.81 0 0 1 1.759.632c.007.132.029.261.064.383z" fill="url(#A)"/>
	<g fill-rule="evenodd">
		<path d="M14.489 3.294c-.794-.004-1.437-.649-1.437-1.444V.944c0-.798.647-1.444 1.444-1.444h.902c.797 0 1.444.647 1.444 1.444v.906c0 .767-.598 1.395-1.353 1.441v2.006a.5.5 0 1 1-1 0zm.007-1.25c-.107 0-.194-.087-.194-.194V.944c0-.107.087-.194.194-.194h.902c.107 0 .194.087.194.194v.906c0 .107-.087.194-.194.194z" fill="url(#B)"/>
		<path d="M4.741 15.3c-.004.794-.649 1.437-1.444 1.437H2.39c-.798 0-1.444-.646-1.444-1.444v-.902c0-.797.647-1.444 1.444-1.444h.906c.767 0 1.394.598 1.441 1.353h2.006a.5.5 0 1 1 0 1zm-1.25-.007c0 .107-.087.194-.194.194H2.39c-.107 0-.194-.087-.194-.194v-.902c0-.107.087-.194.194-.194h.906c.107 0 .194.087.194.194z" fill="url(#B)"/>
		<path d="M13.997 7.244c-3.039 0-5.503 2.464-5.503 5.503s2.464 5.503 5.503 5.503 5.503-2.464 5.503-5.503-2.464-5.503-5.503-5.503zm-1.348 1.733c-.982.351-1.787 1.076-2.244 2.002l1.451.203a7.6 7.6 0 0 1 .424-1.484 4.64 4.64 0 0 1 .369-.722zm-2.655 3.77a4.04 4.04 0 0 1 .039-.563l1.669.239-.023.705.018.521-1.65-.243a4.03 4.03 0 0 1-.054-.659zm.541 2.011a4.02 4.02 0 0 0 1.851 1.654l-.05-.112a7.9 7.9 0 0 1-.447-1.377l-1.354-.165zm2.662.239c.082.289.178.561.285.805.15.345.308.609.451.784.159-.181.338-.46.507-.82.114-.241.218-.509.307-.792l-1.55.024zm2.879-.137c-.129.522-.305 1.012-.505 1.438l-.08.164c.871-.35 1.589-.998 2.031-1.817l-1.446.215zm1.888-1.574l-1.681.289.018-.486-.017-.687 1.674-.235c.028.19.042.383.042.581a4.02 4.02 0 0 1-.036.538zm-2.948.419c-.678.048-1.362.061-2.056.035l-.03-.611.018-.602a18.51 18.51 0 0 0 2.089-.013l.013.576c0 .204-.012.411-.035.616zm1.145-2.547l1.42-.197c-.426-.854-1.149-1.535-2.034-1.906.096.188.179.387.251.592a8.33 8.33 0 0 1 .364 1.511zm-3.051.124c.598.027 1.187.022 1.803-.014-.071-.443-.169-.853-.294-1.204-.143-.403-.306-.69-.468-.866l-.012-.013c-.212.122-.464.409-.703.989a6.19 6.19 0 0 0-.326 1.108z" fill="url(#C)"/>
	</g>
</svg>