<svg
	xmlns="http://www.w3.org/2000/svg" width="20.003" height="19.074" viewBox="-0.5 -0.5 20.003 19.074">
	<defs>
		<linearGradient id="A" x1="8.708" y1="8.556" x2="16.9" y2="17.43" gradientUnits="userSpaceOnUse">
			<stop stop-color="#1348ff"/>
			<stop offset="1" stop-color="#06238d"/>
		</linearGradient>
		<linearGradient id="B" x1="1.998" y1="1.306" x2="10.032" y2="12.398" gradientUnits="userSpaceOnUse">
			<stop stop-color="#0195ff"/>
			<stop offset=".991" stop-color="#1147e9"/>
		</linearGradient>
	</defs>
	<path d="M7.742-.5c-2.652 0-4.536 2.162-4.85 4.418a3.5 3.5 0 0 0-2.192.91c-.792.73-1.2 1.788-1.2 2.904 0 1.038.314 2.018 1.02 2.744s1.72 1.1 2.906 1.1h2.562c.044-.056.094-.112.146-.164L8.206 9.34c.318-.318.72-.496 1.134-.54a1.86 1.86 0 0 1 .486-.84 1.87 1.87 0 0 1 1.522-.538 1.88 1.88 0 0 1 1.874-1.844 1.88 1.88 0 0 1 1.874 1.844 1.88 1.88 0 0 1 1.036.188 5.22 5.22 0 0 0 .034-.594c0-2.47-1.762-4.368-3.886-4.568C11.43.686 9.85-.498 7.74-.498z" fill="url(#B)"/>
	<path d="M15.626 9.73c.244-.244.244-.64 0-.884s-.64-.244-.884 0L13.738 9.85V7.454c0-.346-.28-.624-.624-.624s-.624.28-.624.626v2.396l-1.004-1.004c-.244-.244-.64-.244-.884 0s-.244.64 0 .884l2.072 2.072c.244.244.64.244.884 0l2.072-2.072z" fill="url(#A)"/>
	<path d="M10.6 15.672c-.244.244-.244.64 0 .884s.64.244.884 0l1.004-1.004v2.396c0 .346.28.626.624.626s.626-.28.626-.624v-2.396l1.004 1.004c.244.244.64.244.884 0s.244-.64 0-.884l-2.072-2.072c-.244-.244-.64-.244-.884 0l-2.072 2.072z" fill="url(#A)"/>
	<path d="M9.974 15.25c-.244.244-.64.244-.884 0l-2.072-2.072c-.244-.244-.244-.64 0-.884l2.072-2.072c.244-.244.64-.244.884 0s.244.64 0 .884L8.97 12.11h2.396c.346 0 .626.28.626.624s-.28.626-.624.626H8.97l1.004 1.004c.244.244.244.64 0 .884z" fill="url(#A)"/>
	<path d="M17.246 10.224c-.244-.244-.64-.244-.884 0s-.244.64 0 .884l1.004 1.004H14.97c-.346 0-.624.28-.624.626s.28.626.626.626h2.396l-1.004 1.004c-.244.244-.244.64 0 .884s.64.244.884 0l2.072-2.072c.244-.244.244-.64 0-.884l-2.072-2.072z" fill="url(#A)"/>
</svg>