<svg
	xmlns="http://www.w3.org/2000/svg" width="19.975" height="18.694" viewBox="-0.5 -0.5 19.975 18.694">
	<defs>
		<linearGradient id="A" x1="1.573" y1="1.962" x2="12.929" y2="11.502" gradientUnits="userSpaceOnUse">
			<stop stop-color="#0195ff"/>
			<stop offset=".991" stop-color="#1147e9"/>
		</linearGradient>
		<linearGradient id="B" x1="5.501" y1="13.891" x2="15.842" y2="17.368" gradientUnits="userSpaceOnUse">
			<stop stop-color="#1348ff"/>
			<stop offset="1" stop-color="#06238d"/>
		</linearGradient>
	</defs>
	<path d="M6.65-.466l6.038 1.741h-.002c.427.115.641.399.641.854v1.186l-.33.124c-.699.277-1.321.697-1.865 1.241-.808.808-1.339 1.769-1.55 2.868-.153.794-.135 1.581.049 2.35l-4.653 4.653c-.367.367-.611.85-.63 1.414l-.092-.061c-.494-.33-1.017-.734-1.568-1.212s-1.063-1.035-1.535-1.673-.866-1.353-1.181-2.151S-.5 9.196-.5 8.24V2.129c0-.455.214-.74.641-.854L6.178-.466c.135-.045.292-.045.472 0z" fill="url(#A)"/>
	<path d="M7.093 17.874c-.129.129-.274.225-.434.29-.161.032-.322 0-.483-.096-.37-.113-.555-.378-.555-.797l-.024-1.231a.83.83 0 0 1 .266-.603l5.189-5.189c-.322-.805-.402-1.625-.241-2.462s.563-1.577 1.207-2.22c.435-.434.917-.756 1.448-.965.547-.225 1.094-.338 1.641-.338s1.094.113 1.641.338c.531.209 1.014.531 1.448.965s.756.917.965 1.448.314 1.07.314 1.617-.113 1.094-.338 1.641c-.209.531-.531 1.014-.965 1.448-.772.772-1.657 1.207-2.655 1.303-.998.064-1.939-.185-2.824-.748l-1.303 1.303.627.628c.402.402.402.805 0 1.207a.95.95 0 0 1-.627.29c-.225 0-.426-.088-.603-.265l-.628-.628-1.231 1.231.628.627c.402.402.402.805 0 1.207-.418.418-.829.426-1.231.024l-.628-.628zm6.155-11.078c-.515.515-.772 1.126-.772 1.834s.266 1.327.797 1.858c.515.515 1.126.772 1.834.772s1.319-.257 1.834-.772c.531-.531.796-1.15.796-1.858s-.257-1.319-.772-1.834c-.531-.531-1.151-.796-1.859-.796s-1.327.266-1.858.796z" fill="url(#B)"/>
</svg>