<svg
	xmlns="http://www.w3.org/2000/svg" width="19.933" height="18.147" viewBox="-0.5 -0.5 19.933 18.147"
	xmlns:v="https://vecta.io/nano">
	<defs>
		<linearGradient id="A" x1="1.841" y1="1.193" x2="9.374" y2="11.588" gradientUnits="userSpaceOnUse">
			<stop stop-color="#0195ff"/>
			<stop offset=".991" stop-color="#1147e9"/>
		</linearGradient>
		<linearGradient id="B" x1="9.808" y1="8.271" x2="17.498" y2="16.206" gradientUnits="userSpaceOnUse">
			<stop stop-color="#1348ff"/>
			<stop offset="1" stop-color="#06238d"/>
		</linearGradient>
	</defs>
	<path d="M7.226-.5C4.74-.5 2.974 1.526 2.679 3.642c-.8.048-1.506.349-2.054.854C-.117 5.179-.5 6.172-.5 7.219c0 .973.295 1.892.956 2.572s1.612 1.031 2.725 1.031h3.707v-.746c0-1.488 1.206-2.694 2.694-2.694h.902a2.68 2.68 0 0 1 1.717.618 8.03 8.03 0 0 1 2.343-.795c.125-.354.321-.675.572-.944-.129-2.175-1.727-3.818-3.634-3.998C10.684.611 9.204-.5 7.226-.5z" fill="url(#A)"/>
	<path fill-rule="evenodd" d="M17.989 6.653c.798 0 1.444.647 1.444 1.444v.906c0 .798-.646 1.444-1.444 1.444h-.429c-.012 1.796-.471 2.9-.978 3.584l-.18.224a1.44 1.44 0 0 1 .444 1.042v.906c0 .798-.647 1.444-1.444 1.444h-.902c-.565 0-1.054-.324-1.291-.797-.132-.026-.301-.067-.495-.127-.388-.12-.886-.322-1.373-.649-.963-.646-1.871-1.783-1.794-3.65-.782-.018-1.409-.658-1.409-1.444v-.906c0-.798.647-1.444 1.444-1.444h.902c.664 0 1.224.449 1.392 1.06l.298-.22c.764-.528 1.896-1.042 3.469-1.148v-.225c0-.798.647-1.444 1.444-1.444zm-4.932 9.121v-.478c0-.602.368-1.118.891-1.335a2.54 2.54 0 0 0-.596-1.03c-.38-.397-.951-.735-1.805-.973a1.44 1.44 0 0 1-1.009.465c-.077 1.476.605 2.312 1.342 2.807a4.32 4.32 0 0 0 1.115.525l.062.019zm2.327-1.922h-.439c-.156-.604-.438-1.155-.889-1.626-.513-.535-1.216-.935-2.127-1.207l.039-.045c.159-.178.41-.421.765-.667.623-.431 1.578-.877 2.949-.975.11.469.448.85.891 1.019v.015c0 1.655-.414 2.557-.779 3.049-.145.195-.288.334-.41.436zm2.8-5.756c0-.107-.087-.194-.194-.194h-.902c-.107 0-.194.087-.194.194v.906c0 .107.087.194.194.194h.902c.107 0 .194-.087.194-.194zm-7.699 1.783c.107 0 .194.087.194.194v.906c0 .107-.087.194-.194.194h-.902c-.107 0-.194-.087-.194-.194v-.906c0-.107.087-.194.194-.194zm4.919 5.222c.107 0 .194.087.194.194v.906c0 .107-.087.194-.194.194h-.902c-.107 0-.194-.087-.194-.194v-.906c0-.107.087-.194.194-.194z" fill="url(#B)"/>
</svg>