<svg
	xmlns="http://www.w3.org/2000/svg" width="19.68" height="19.622" viewBox="-0.5 -0.5 19.68 19.622">
	<defs>
		<linearGradient id="A" x1="1.842" y1="1.193" x2="9.374" y2="11.592" gradientUnits="userSpaceOnUse">
			<stop stop-color="#0195ff"/>
			<stop offset=".991" stop-color="#1147e9"/>
		</linearGradient>
		<linearGradient id="B" x1="9.655" y1="9.8" x2="17.332" y2="17.637" gradientUnits="userSpaceOnUse">
			<stop stop-color="#0bf"/>
			<stop offset="1" stop-color="#008bff"/>
		</linearGradient>
		<linearGradient id="C" x1="11.658" y1="11.716" x2="15.47" y2="15.552" gradientUnits="userSpaceOnUse">
			<stop stop-color="#1348ff"/>
			<stop offset="1" stop-color="#06238d"/>
		</linearGradient>
	</defs>
	<path d="M7.226-.5C4.74-.5 2.974 1.526 2.679 3.642c-.8.048-1.506.349-2.054.854C-.117 5.179-.5 6.172-.5 7.219c0 .973.295 1.892.956 2.572s1.612 1.031 2.725 1.031h3.547v-.042c0-2.14 1.735-3.875 3.875-3.875h1.25c.775 0 1.441.471 1.726 1.142.261-.614.841-1.061 1.532-1.132l.014-.369c0-2.316-1.653-4.095-3.643-4.284C10.684.611 9.204-.5 7.226-.5z" fill="url(#A)"/>
	<path d="M11.853 19.122c.345 0 .625-.28.625-.625s-.28-.625-.625-.625h-1.25c-.759 0-1.375-.616-1.375-1.375v-1.25c0-.345-.28-.625-.625-.625s-.625.28-.625.625v1.25c0 1.45 1.175 2.625 2.625 2.625z" fill="url(#B)"/>
	<path d="M15.305 8.155c-.345 0-.625.28-.625.625s.28.625.625.625h1.25c.759 0 1.375.616 1.375 1.375v1.25c0 .345.28.625.625.625s.625-.28.625-.625v-1.25c0-1.45-1.175-2.625-2.625-2.625z" fill="url(#B)"/>
	<path d="M14.68 18.497c0 .345.28.625.625.625h1.25c1.45 0 2.625-1.175 2.625-2.625v-1.25c0-.345-.28-.625-.625-.625s-.625.28-.625.625v1.25c0 .759-.616 1.375-1.375 1.375h-1.25c-.345 0-.625.28-.625.625z" fill="url(#B)"/>
	<path d="M11.853 8.155c.345 0 .625.28.625.625s-.28.625-.625.625h-1.25c-.759 0-1.375.616-1.375 1.375v1.25c0 .345-.28.625-.625.625s-.625-.28-.625-.625v-1.25c0-1.45 1.175-2.625 2.625-2.625z" fill="url(#B)"/>
	<path d="M16.097 11.131c-.242-.242-.61-.286-.896-.108l-2.453 1.392c-.127.076-.242.184-.318.318l-1.468 2.504a.74.74 0 0 0 .102.909c.14.146.331.216.521.216.133 0 .261-.038.381-.108l2.511-1.519a.91.91 0 0 0 .318-.324l1.411-2.377a.73.73 0 0 0-.114-.896zm-2.511 3.14a.65.65 0 0 1-.642-.642c0-.35.286-.674.636-.674s.636.324.636.674-.286.642-.636.642z" fill="url(#C)"/>
</svg>