<svg
	xmlns="http://www.w3.org/2000/svg" width="20" height="17.835" viewBox="-0.5 -0.5 20 17.835">
	<defs>
		<linearGradient id="A" x1="1.584" y1="5.468" x2="11.354" y2="15.206" gradientUnits="userSpaceOnUse">
			<stop stop-color="#0195ff"/>
			<stop offset=".991" stop-color="#1147e9"/>
		</linearGradient>
		<linearGradient id="B" x1="8.028" y1=".524" x2="11.99" y2="8.223" gradientUnits="userSpaceOnUse">
			<stop stop-color="#1348ff"/>
			<stop offset="1" stop-color="#06238d"/>
		</linearGradient>
	</defs>
	<path d="M.786 6.866a8.04 8.04 0 0 1 2.747-2.012l.038-.017c.292-.128.493-.409.493-.728 0-.507-.49-.87-.957-.673l-.172.075A9.51 9.51 0 0 0-.315 5.89c-.129.146-.195.337-.184.532s.1.377.246.506.337.195.532.184.377-.1.506-.246z" fill="url(#A)"/>
	<path d="M1.746 11.334a5.13 5.13 0 0 1 2.26-3.435c.33-.215.497-.628.348-.992-.159-.39-.613-.572-.973-.354l-.417.275a6.6 6.6 0 0 0-2.751 4.99 6.6 6.6 0 0 0 .481 2.881c.078.174.22.312.398.383s.375.07.552-.002.318-.211.395-.386.082-.373.015-.552a5.13 5.13 0 0 1-.308-2.808z" fill="url(#A)"/>
	<path d="M13.398 12.462a6.6 6.6 0 0 0-.878-3.564.85.85 0 0 0-.744-.411h-.16c-.459 0-.714.593-.469.982a5.13 5.13 0 0 1 .787 2.713c.002.093-.014.185-.048.271a.71.71 0 0 1-.148.232c-.064.067-.141.121-.226.158s-.176.058-.269.06-.185-.014-.271-.048-.165-.084-.232-.148-.121-.141-.158-.226-.058-.176-.06-.269a3.72 3.72 0 0 0-1.085-2.632 3.72 3.72 0 0 0-2.628-1.094 3.72 3.72 0 0 0-2.632 1.085A3.72 3.72 0 0 0 3.084 12.2c.007.834.13 1.663.365 2.463.257.866.683 1.777 1.363 2.457.138.138.325.215.52.215s.382-.078.519-.215.215-.325.215-.52-.078-.382-.215-.519c-.444-.444-.775-1.1-.993-1.835a7.48 7.48 0 0 1-.305-2.045 2.25 2.25 0 0 1 2.244-2.256 2.25 2.25 0 0 1 2.256 2.244v.028l-.005.129c-.007.116.013.231.059.338.11.477.377.903.758 1.209s.855.475 1.344.48a2.18 2.18 0 0 0 1.352-.456c.387-.3.661-.721.779-1.196a.73.73 0 0 0 .057-.258z" fill="url(#A)"/>
	<g fill-rule="evenodd">
		<path d="M6.957 11.466c.405 0 .734.329.734.734 0 .826.145 1.209.414 1.641.215.344.11.796-.234 1.011s-.796.11-1.011-.234c-.425-.681-.637-1.337-.637-2.418 0-.405.329-.734.734-.734z" fill="url(#A)"/>
		<path d="M7.038-.5a1 1 0 0 0-1 1v4.957a1 1 0 0 0 1 1H18.5a1 1 0 0 0 1-1V.5a1 1 0 0 0-1-1zm2.244 2.072c.234 0 .424.19.424.424v.247l.214-.123c.203-.117.463-.048.58.155s.048.463-.155.58l-.214.123.214.123c.203.117.273.377.155.58s-.377.273-.58.155l-.214-.123v.247c0 .234-.19.424-.424.424s-.424-.19-.424-.424v-.247l-.214.123c-.203.117-.463.048-.58-.155s-.048-.463.155-.58l.214-.123-.214-.123c-.203-.117-.273-.377-.155-.58s.377-.273.58-.155l.214.123v-.247c0-.234.19-.424.424-.424zm3.912.424c0-.234-.19-.424-.425-.424s-.424.19-.424.424v.247l-.214-.123c-.203-.117-.463-.048-.58.155s-.048.463.155.58l.214.123-.214.123c-.203.117-.273.377-.155.58s.377.273.58.155l.214-.123v.247c0 .234.19.424.424.424s.425-.19.425-.424v-.247l.214.123c.203.117.463.048.58-.155s.048-.463-.155-.58l-.214-.123.214-.123c.203-.117.273-.377.155-.58s-.377-.273-.58-.155l-.214.123zm3.487 0c0-.234-.19-.424-.424-.424s-.424.19-.424.424v.247l-.214-.123c-.203-.117-.463-.048-.58.155s-.048.463.155.58l.213.123-.214.123c-.203.117-.272.377-.155.58s.377.273.58.155l.214-.123v.247c0 .234.19.424.424.424s.424-.19.424-.424v-.247l.214.123c.203.117.463.048.58-.155s.048-.463-.155-.58l-.213-.123.213-.123c.203-.117.273-.377.155-.58s-.377-.273-.58-.155l-.214.123z" fill="url(#B)"/>
	</g>
</svg>