<svg
	xmlns="http://www.w3.org/2000/svg" width="11.48" height="13.384" viewBox="-0.5 -0.5 11.48 13.384">
	<style>
		<![CDATA[.E{color-interpolation-filters:sRGB}.F{flood-opacity:0}]]>
	</style>
	<defs>
		<mask id="A" maskUnits="userSpaceOnUse" x="15" y="14" width="18" height="21" mask-type="alpha">
			<path d="M23.214 25.217c-.364-.022-.649-.353-.65-.716a.72.72 0 0 1 .65-.716l5.089-.359c2.885-.197 4.305-2.423 4.305-4.662 0-2.815-2.152-4.301-5.105-4.301-3.505 0-7.068 1.002-9.004 2.688-2.141 1.865-3.11 4.473-3.11 7.352s.97 5.483 3.111 7.348c1.935 1.686 5.498 2.688 9.004 2.688 2.952 0 5.105-1.486 5.105-4.301 0-2.239-1.42-4.465-4.305-4.662l-5.089-.359z" fill="#000"/>
		</mask>
		<filter id="B" x="14.29" y="4.044" width="39.67" height="37.337" filterUnits="userSpaceOnUse" class="E">
			<feFlood result="C" class="F"/>
			<feColorMatrix in="SourceAlpha" values="0 0 0 0 0 0 0 0 0 0 0 0 0 0 0 0 0 0 127 0" result="D"/>
			<feOffset dx="0.715566" dy="0.143113"/>
			<feGaussianBlur stdDeviation="1.073"/>
			<feComposite in2="D" operator="out"/>
			<feColorMatrix values="0 0 0 0 0 0 0 0 0 0 0 0 0 0 0 0 0 0 0.4 0"/>
			<feBlend in2="C"/>
			<feBlend in="SourceGraphic"/>
		</filter>
		<filter id="C" x="7.823" y="5.081" width="28.436" height="40.19" filterUnits="userSpaceOnUse" class="E">
			<feFlood result="C" class="F"/>
			<feColorMatrix in="SourceAlpha" values="0 0 0 0 0 0 0 0 0 0 0 0 0 0 0 0 0 0 127 0" result="D"/>
			<feOffset dx="0.715566" dy="0.143113"/>
			<feGaussianBlur stdDeviation="1.073"/>
			<feComposite in2="D" operator="out"/>
			<feColorMatrix values="0 0 0 0 0 0 0 0 0 0 0 0 0 0 0 0 0 0 0.4 0"/>
			<feBlend in2="C"/>
			<feBlend in="SourceGraphic"/>
		</filter>
		<filter id="D" x="-3.896" y="11.29" width="39.668" height="37.945" filterUnits="userSpaceOnUse" class="E">
			<feFlood result="C" class="F"/>
			<feColorMatrix in="SourceAlpha" values="0 0 0 0 0 0 0 0 0 0 0 0 0 0 0 0 0 0 127 0" result="D"/>
			<feOffset dx="0.715566" dy="0.143113"/>
			<feGaussianBlur stdDeviation="1.073"/>
			<feComposite in2="D" operator="out"/>
			<feColorMatrix values="0 0 0 0 0 0 0 0 0 0 0 0 0 0 0 0 0 0 0.4 0"/>
			<feBlend in2="C"/>
			<feBlend in="SourceGraphic"/>
		</filter>
		<radialGradient id="E" cx="0" cy="0" r="1" gradientUnits="userSpaceOnUse" gradientTransform="matrix(6.5829435,34.174141,-31.646902,6.096123,32.8445,17.5807)">
			<stop stop-color="#1348ff"/>
			<stop offset="1" stop-color="#06238d"/>
		</radialGradient>
		<radialGradient id="F" cx="0" cy="0" r="1" gradientUnits="userSpaceOnUse" gradientTransform="matrix(45.804471,0.27550194,-0.48893049,81.28873,4.18154,24.8745)">
			<stop stop-color="#0195ff"/>
			<stop offset="1" stop-color="#1147e9"/>
		</radialGradient>
		<radialGradient id="G" cx="0" cy="0" r="1" gradientUnits="userSpaceOnUse" gradientTransform="matrix(35.739569,31.659977,-44.030112,49.703675,0.449404,21.5006)">
			<stop stop-color="#0bf"/>
			<stop offset="1" stop-color="#008bff"/>
		</radialGradient>
	</defs>
	<g mask="url(#A)" transform="matrix(.666667 0 0 .666667 -10.759333 -10.142)" fill="none">
		<g filter="url(#B)">
			<path d="M50.437 14.32c-2.902 2.713-7.184 3.749-7.698 16.026s-15.312 8.477-18.452 7.084c-5.554-2.463-13.61-18.71-4.328-23.798S34.956 4.306 40.51 6.769s12.829 4.838 9.927 7.551z" fill="url(#E)"/>
		</g>
		<g filter="url(#C)">
			<path d="M15.115 7.985c1.795 2.966.892 10.684 11.281 13.331s6.629 14.581 4.875 17.012c-3.102 4.299-16.241 8.154-18.915-.685s-4.612-19.074-1.51-23.372 2.475-9.251 4.269-6.285z" fill="url(#F)"/>
		</g>
		<g filter="url(#D)">
			<path d="M32.9 34.173c.279 6.771-4.984 12.486-11.755 12.765S-2.181 38.69-2.46 31.919 8.406 3.373 14.85 18.573s17.689 6.838 18.05 15.6z" fill="url(#G)"/>
		</g>
	</g>
</svg>