<svg
	xmlns="http://www.w3.org/2000/svg" width="19.868" height="19.804" viewBox="-0.5 -0.5 19.868 19.804">
	<defs>
		<linearGradient id="A" x1="2.478" y1="1.634" x2="11.944" y2="14.819" gradientUnits="userSpaceOnUse">
			<stop stop-color="#0195ff"/>
			<stop offset=".991" stop-color="#1147e9"/>
		</linearGradient>
		<linearGradient id="B" x1="7.145" y1="9.19" x2="15.332" y2="16.13" gradientUnits="userSpaceOnUse">
			<stop stop-color="#1348ff"/>
			<stop offset="1" stop-color="#06238d"/>
		</linearGradient>
	</defs>
	<path fill-rule="evenodd" d="M9.323 1.5c-2.263 0-3.957 2.195-3.801 4.275a1 1 0 0 1-1.169 1.06c-.944-.164-1.628.089-2.08.505-.467.43-.774 1.118-.774 1.962 0 .725.189 1.283.49 1.675.294.383.752.683 1.445.807a1 1 0 0 1-.35 1.969c-1.129-.201-2.051-.737-2.681-1.558C-.22 11.383-.5 10.369-.5 9.301c0-1.323.485-2.573 1.419-3.433.702-.646 1.61-1.028 2.641-1.078C3.911 2.095 6.158-.5 9.323-.5c2.516 0 4.397 1.417 5.405 3.527 2.528.22 4.64 2.472 4.64 5.415 0 .864-.175 1.66-.496 2.364a1 1 0 1 1-1.819-.83c.196-.431.315-.942.315-1.533 0-2.172-1.657-3.536-3.235-3.426a1 1 0 0 1-1.007-.649C12.449 2.548 11.109 1.5 9.323 1.5z" fill="url(#A)"/>
	<path d="M15.597 9.568c-.385-1.233-2.372-2.123-4.927-2.123s-4.542.883-4.933 2.123a.6.6 0 0 0-.071.273v6.902c0 1.459 2.152 2.562 5.004 2.562s5.005-1.103 5.005-2.562V9.835c0-.033-.058-.286-.077-.267zm-1.115 4.939c0 .546-1.524 1.376-3.819 1.376s-3.819-.83-3.819-1.376v-.545c.901.54 2.253.872 3.819.872s2.911-.332 3.819-.872zm-3.813-5.876c2.295 0 3.819.83 3.819 1.376s-1.524 1.376-3.818 1.376-3.819-.83-3.819-1.376 1.524-1.376 3.819-1.376zm0 9.487c-2.295 0-3.819-.83-3.819-1.376v-.545c.901.54 2.253.872 3.819.872s2.911-.332 3.819-.872v.545c0 .546-1.524 1.376-3.818 1.376z" fill="url(#B)"/>
</svg>