<svg
	xmlns="http://www.w3.org/2000/svg" width="17.5" height="19.819" viewBox="-0.5 -0.5 17.5 19.819">
	<defs>
		<linearGradient id="A" x1="2.123" y1="2.464" x2="15.894" y2="14.628" gradientUnits="userSpaceOnUse">
			<stop stop-color="#0195ff"/>
			<stop offset=".991" stop-color="#1147e9"/>
		</linearGradient>
		<linearGradient id="B" x1="4.728" y1="6.39" x2="10.15" y2="13.233" gradientUnits="userSpaceOnUse">
			<stop stop-color="#1348ff"/>
			<stop offset="1" stop-color="#06238d"/>
		</linearGradient>
	</defs>
	<path fill-rule="evenodd" d="M6.677-.066a3.07 3.07 0 0 1 3.145 0l5.681 3.39A3.07 3.07 0 0 1 17 5.959v6.901a3.07 3.07 0 0 1-1.496 2.635l-5.681 3.39a3.07 3.07 0 0 1-3.145 0l-5.681-3.39A3.07 3.07 0 0 1-.5 12.86V5.959A3.07 3.07 0 0 1 .996 3.324zm2.12 1.717a1.07 1.07 0 0 0-1.095 0l-5.681 3.39a1.07 1.07 0 0 0-.521.918v6.901a1.07 1.07 0 0 0 .521.918l5.681 3.39a1.07 1.07 0 0 0 1.095 0l5.681-3.39A1.07 1.07 0 0 0 15 12.86V5.959a1.07 1.07 0 0 0-.521-.918z" fill="url(#A)"/>
	<path d="M4.894 5.22c-.138-.007-.25.106-.25.244v1.364a5.4 5.4 0 0 1 1.972 1.054c.536-.259 1.022-.611 1.436-1.038-.809-.774-1.62-1.548-3.158-1.624z" fill="url(#B)"/>
	<path d="M4.067 10.738c-.284 0-.564.066-.817.194V7.447c0-.142.119-.257.261-.244 1.712.152 2.733 1.036 3.714 1.97l.634.587c-.853.66-1.907 1.006-2.985.979z" fill="url(#B)"/>
	<path d="M4.067 11.344h.799c2.283 0 3.436-1.093 4.55-2.15l.007-.007c.969-.919 1.888-1.791 3.56-1.951.142-.014.262.101.262.243l.004 5.448a.25.25 0 0 1-.25.25H3.51a.25.25 0 0 1-.25-.25v-.776a.82.82 0 0 1 .807-.807z" fill="url(#B)"/>
	<path d="M8.288 9.414l-.691-.634-.534-.497A6.97 6.97 0 0 0 8.634 7.05c.737-.71 1.445-1.38 2.69-1.531.142-.017.264.097.264.241l.004 1.184a7.56 7.56 0 0 0-2.589 1.814l-.716.657z" fill="url(#B)"/>
</svg>