<svg
	xmlns="http://www.w3.org/2000/svg" width="16.127" height="18.89" viewBox="-0.5 -0.5 16.127 18.89">
	<defs>
		<linearGradient id="A" x1="1.842" y1="1.193" x2="9.374" y2="11.592" gradientUnits="userSpaceOnUse">
			<stop stop-color="#0195ff"/>
			<stop offset=".991" stop-color="#1147e9"/>
		</linearGradient>
		<linearGradient id="B" x1="5.185" y1="7.81" x2="13.867" y2="16.422" gradientUnits="userSpaceOnUse">
			<stop stop-color="#1348ff"/>
			<stop offset="1" stop-color="#06238d"/>
		</linearGradient>
	</defs>
	<path d="M7.226-.5C4.74-.5 2.974 1.526 2.679 3.642c-.8.048-1.506.349-2.054.854C-.117 5.179-.5 6.172-.5 7.219c0 .973.295 1.892.956 2.572s1.612 1.031 2.725 1.031h3.585l.03-.065c-.469-.484-.758-1.144-.758-1.873V7.429c0-1.488 1.206-2.694 2.694-2.694h1.45c1.488 0 2.694 1.206 2.694 2.694v1.454a2.68 2.68 0 0 1-.63 1.731c1.619-.525 2.878-1.988 2.878-4.068 0-2.316-1.653-4.095-3.643-4.284C10.684.611 9.204-.5 7.226-.5z" fill="url(#A)"/>
	<path fill-rule="evenodd" d="M10.183 5.985c.798 0 1.444.647 1.444 1.444v1.454c0 .599-.364 1.112-.884 1.331.311.982.71 1.711 1.084 2.25.315.454.6.762.83 1 .189-.091.4-.141.623-.141h.902c.797 0 1.444.646 1.444 1.444v.906c0 .797-.647 1.444-1.444 1.444h-.902c-.798 0-1.444-.647-1.444-1.444v-.906a1.44 1.44 0 0 1 .123-.584c-.245-.254-.6-.639-.954-1.149-.361-.521-.734-1.185-1.047-2.029v3.59c.794.004 1.437.649 1.437 1.444v.906c0 .798-.646 1.444-1.444 1.444h-.902c-.798 0-1.444-.647-1.444-1.444v-.906c0-.767.598-1.394 1.353-1.441v-3.168a8.89 8.89 0 0 1-.878 1.603 9.36 9.36 0 0 1-1.014 1.21 1.44 1.44 0 0 1 .098.523v.906c0 .797-.647 1.444-1.444 1.444h-.902c-.798 0-1.444-.647-1.444-1.444v-.906c0-.798.647-1.444 1.444-1.444h.902c.246 0 .478.061.68.17.235-.242.53-.557.858-1.029.367-.529.758-1.241 1.066-2.196-.598-.176-1.035-.73-1.035-1.385V7.429c0-.798.647-1.444 1.444-1.444zm.194 1.444c0-.107-.087-.194-.194-.194h-1.45c-.107 0-.194.087-.194.194v1.454c0 .107.087.194.194.194h1.45c.107 0 .194-.087.194-.194zm-.232 8.611c0-.107-.087-.194-.194-.194h-.902c-.107 0-.194.087-.194.194v.906c0 .107.087.194.194.194h.902c.107 0 .194-.087.194-.194zm4.038-1.466c.107 0 .194.087.194.194v.906c0 .107-.087.194-.194.194h-.902c-.107 0-.194-.087-.194-.194v-.906c0-.107.087-.194.194-.194zm-8.269.194c0-.107-.087-.194-.194-.194h-.902c-.107 0-.194.087-.194.194v.906c0 .107.087.194.194.194h.902c.107 0 .194-.087.194-.194z" fill="url(#B)"/>
</svg>