<svg
	xmlns="http://www.w3.org/2000/svg" width="18.453" height="17.237" viewBox="-0.5 -0.5 18.453 17.237">
	<defs>
		<linearGradient id="A" x1="1.632" y1="4.279" x2="9.357" y2="13.985" gradientUnits="userSpaceOnUse">
			<stop stop-color="#0195ff"/>
			<stop offset=".991" stop-color="#1147e9"/>
		</linearGradient>
		<linearGradient id="B" x1="12.829" y1="8.824" x2="18.722" y2="12.708" gradientUnits="userSpaceOnUse">
			<stop stop-color="#1348ff"/>
			<stop offset="1" stop-color="#06238d"/>
		</linearGradient>
		<linearGradient id="C" x1="6.913" y1="2.086" x2="18.119" y2="9.671" gradientUnits="userSpaceOnUse">
			<stop stop-color="#0bf"/>
			<stop offset="1" stop-color="#008bff"/>
		</linearGradient>
	</defs>
	<path d="M13.721 6.503c-1.715.525-3.009 2.173-3.009 4.021 0 1.226.589 2.042.946 2.537l.047.065.006.009.094.13a1.74 1.74 0 0 0-.841-.215H9.853c-.465-.809-1.337-1.353-2.337-1.353H6.61c-1.323 0-2.423.954-2.651 2.211h-.778c-1.113 0-2.059-.347-2.725-1.031S-.5 11.277-.5 10.304c0-1.047.383-2.039 1.125-2.723.548-.505 1.255-.806 2.054-.854.294-2.115 2.061-4.142 4.547-4.142 1.978 0 3.458 1.111 4.256 2.762.72.068 1.396.345 1.966.78a1.76 1.76 0 0 0 .273.376z" fill="url(#A)"/>
	<path d="M13.539 14.525c.075.083.175.127.281.127l2.255-.044c.22-.006.396-.198.396-.44 0-.754.321-1.188.689-1.685l.007-.01c.371-.495.787-1.057.787-1.932 0-1.634-1.388-3.065-2.997-3.065s-3.017 1.425-3.017 3.049c0 .854.401 1.411.758 1.905l.019.027.004.005c.374.515.698.961.698 1.751 0 .116.045.231.12.314z" fill="url(#B)"/>
	<path d="M13.764 15.482c-.184.102-.311.295-.318.519v.021c0 .341.276.617.616.617h1.967c.34 0 .616-.276.616-.617l-.003-.059c-.017-.178-.109-.334-.245-.435l-.005-.004c-.102-.075-.228-.119-.363-.119h-1.967c-.101 0-.196.024-.281.068z" fill="url(#B)"/>
	<g fill-rule="evenodd">
		<path d="M14.489 3.294c-.794-.004-1.437-.649-1.437-1.444V.944c0-.798.647-1.444 1.444-1.444h.902c.798 0 1.444.647 1.444 1.444v.906c0 .767-.598 1.395-1.353 1.441v2.006a.5.5 0 1 1-1 0zm.007-1.25c-.107 0-.194-.087-.194-.194V.944c0-.107.087-.194.194-.194h.902c.107 0 .194.087.194.194v.906c0 .107-.087.194-.194.194z" fill="url(#C)"/>
		<path d="M8.96 15.3c-.004.794-.649 1.437-1.444 1.437H6.61c-.798 0-1.444-.647-1.444-1.444v-.902c0-.797.647-1.444 1.444-1.444h.906c.767 0 1.394.598 1.441 1.353h2.006a.5.5 0 0 1 0 1zm-1.25-.007c0 .107-.087.194-.194.194H6.61c-.107 0-.194-.087-.194-.194v-.902c0-.107.087-.194.194-.194h.906c.107 0 .194.087.194.194z" fill="url(#C)"/>
	</g>
</svg>