<svg
	xmlns="http://www.w3.org/2000/svg" width="20" height="20" viewBox="-0.5 -0.5 20 20">
	<defs>
		<linearGradient id="A" x1="2.498" y1="1.666" x2="12.131" y2="14.973" gradientUnits="userSpaceOnUse">
			<stop stop-color="#0195ff"/>
			<stop offset=".991" stop-color="#1147e9"/>
		</linearGradient>
		<radialGradient id="B" cx="0" cy="0" r="1" gradientUnits="userSpaceOnUse" gradientTransform="matrix(8.1328942,8.2355702,-7.5041762,7.4106186,5.5101,5.82692)">
			<stop stop-color="#1348ff"/>
			<stop offset="1" stop-color="#06238d"/>
		</radialGradient>
		<radialGradient id="C" cx="0" cy="0" r="1" gradientUnits="userSpaceOnUse" gradientTransform="matrix(11.667603,3.3087262,-1.5827794,5.581375,3.73824,15.46458)">
			<stop stop-color="#1348ff"/>
			<stop offset="1" stop-color="#06238d"/>
		</radialGradient>
	</defs>
	<path d="M9.401-.5c-3.045 0-5.343 2.125-6.072 4.617-.806.174-1.543.537-2.161 1.079C.057 6.17-.5 7.573-.5 9.011c0 1.307.421 2.623 1.431 3.61.791.773 1.803 1.209 2.91 1.361v-.229c0-.608.222-1.164.589-1.591-1.001-.306-1.728-1.237-1.728-2.338v-.678c0-1.35 1.094-2.444 2.444-2.444h.674l.071.001a2.45 2.45 0 0 1-.057-.529v-.678c0-1.35 1.094-2.444 2.444-2.444h.674c1.35 0 2.444 1.094 2.444 2.444v.566a2.44 2.44 0 0 1 1.863-.862h.674c1.35 0 2.444 1.094 2.444 2.444v.678a2.44 2.44 0 0 1-.784 1.794c.371.428.595.987.595 1.598v.906c0 .335-.067.654-.189.945 1.971-.824 3.501-2.665 3.501-5.287 0-2.925-2.041-5.185-4.572-5.687C13.79.733 11.867-.5 9.401-.5z" fill="url(#A)"/>
	<g fill-rule="evenodd">
		<path d="M8.953 4.048c.798 0 1.444.647 1.444 1.444v.678a1.44 1.44 0 0 1-.521 1.111l.334 1.325h.048c.14 0 .271.035.386.096l1.172-.594v-.468c0-.798.647-1.444 1.444-1.444h.674c.798 0 1.444.647 1.444 1.444v.678c0 .798-.647 1.444-1.444 1.444h-.674a1.44 1.44 0 0 1-1.05-.453l-1.132.575v.143l.004-.006.858.562a1.44 1.44 0 0 1 .904-.318h.902c.798 0 1.444.647 1.444 1.444v.906c0 .798-.646 1.444-1.444 1.444h-.902c-.798 0-1.444-.646-1.444-1.444v-.892l-.774-.507c-.11.055-.235.087-.367.087h-.667l-1.339 1.798a1.44 1.44 0 0 1 .152.647v.678c0 .798-.647 1.444-1.444 1.444h-.674c-.798 0-1.444-.647-1.444-1.444v-.678c0-.797.647-1.444 1.444-1.444h.674a1.45 1.45 0 0 1 .303.032l1.166-1.566c-.033-.089-.051-.185-.051-.285v-.212H7.192c-.19.575-.732.99-1.371.99h-.674c-.798 0-1.444-.647-1.444-1.444v-.678c0-.798.647-1.444 1.444-1.444h.674c.758 0 1.379.584 1.439 1.326h1.224a.82.82 0 0 1 .448-.373L8.67 7.614h-.392c-.798 0-1.444-.647-1.444-1.444v-.678c0-.798.647-1.444 1.444-1.444zm.194 1.444c0-.107-.087-.194-.194-.194h-.674c-.107 0-.194.087-.194.194v.678c0 .107.087.194.194.194h.674c.107 0 .194-.087.194-.194zm4.981 2.148c0-.107-.087-.194-.194-.194h-.674c-.107 0-.194.087-.194.194v.678c0 .107.087.194.194.194h.674c.107 0 .194-.087.194-.194zm-.189 4.07c0-.107-.087-.194-.194-.194h-.902c-.107 0-.194.087-.194.194v.906c0 .107.087.194.194.194h.902c.107 0 .194-.087.194-.194zM5.821 8.948c.107 0 .194.087.194.194v.678c0 .107-.087.194-.194.194h-.674c-.107 0-.194-.087-.194-.194v-.678c0-.107.087-.194.194-.194zm1.334 4.801c0-.107-.087-.194-.194-.194h-.674c-.107 0-.194.087-.194.194v.678c0 .107.087.194.194.194h.674c.107 0 .194-.087.194-.194z" fill="url(#B)"/>
		<path d="M2.02 14.75c.483 0 .875.392.875.875v1c0 .621.504 1.125 1.125 1.125h11c.621 0 1.125-.504 1.125-1.125v-1c0-.483.392-.875.875-.875s.875.392.875.875v1c0 1.588-1.287 2.875-2.875 2.875h-11c-1.588 0-2.875-1.287-2.875-2.875v-1c0-.483.392-.875.875-.875zm12.529 2.23a.75.75 0 1 0 0-1.5.75.75 0 1 0 0 1.5zm-1.547-.75a.75.75 0 1 1-1.5 0 .75.75 0 1 1 1.5 0z" fill="url(#C)"/>
	</g>
</svg>