<svg
	xmlns="http://www.w3.org/2000/svg" width="32" height="32" viewBox="-0.5 -0.5 32 32" style="background-color:rgb(255, 255, 255)">
	<style>
		<![CDATA[.B{color-interpolation-filters:sRGB}.C{flood-opacity:0}]]>
	</style>
	<path fill="#fff" d="M0 0h32v32H0z"/>
	<svg width="32" height="32" viewBox="0 0 17 16" fill="none" x="-.5" y="-.5">
		<g clip-path="url(#I)">
			<circle cx="8.333" cy="8" r="7.532" fill="url(#E)" stroke="#d5dadd" stroke-width=".274"/>
			<g clip-path="url(#J)">
				<mask id="A" maskUnits="userSpaceOnUse" x="2" y="1" width="13" height="13" mask-type="alpha">
					<path d="M6.764 5.273c.328-.574.908-.955 1.571-.955s1.24.382 1.572.957l2.06 3.581a1.44 1.44 0 0 1-.526 1.965 1.43 1.43 0 0 1-1.959-.527l-.492-.858c-.115-.22-.143-.46-.1-.772l.196-1.083c.033-.173-.201-.259-.287-.105l-.569 1.002-1.046 1.816c-.397.685-1.271.925-1.959.527s-.922-1.275-.526-1.965l2.065-3.583z" fill="#000"/>
				</mask>
				<g mask="url(#A)">
					<g filter="url(#B)">
						<path d="M14.007 7.819c-.425 1-2.327.388-1.231 2.891-.655 1.007-1.635 1.697-2.574 1.697-1.661 0-6.269-1.74-4.513-4.04s4.001-4.669 5.662-4.669 3.081 3.121 2.656 4.121z" fill="url(#F)"/>
					</g>
					<g filter="url(#C)">
						<path d="M10.345 7.409c-.512 1.206-2.252.461-1.156 2.964-.655 1.007-1.635 1.697-2.574 1.697-1.661 0-6.269-1.74-4.513-4.04s4.001-4.669 5.662-4.669 3.094 2.842 2.582 4.048z" fill="url(#G)"/>
					</g>
					<g filter="url(#D)">
						<path d="M6.847 12.233c-1.166.648-2.636.229-3.284-.937s-.229-2.636.937-3.284c.713-.928 2.28-1.333 3.312-.288s.544 3.671-.964 4.51z" fill="url(#H)"/>
					</g>
				</g>
			</g>
		</g>
		<defs>
			<filter id="B" x="4.848" y="3.07" width="10.131" height="10.054" filterUnits="userSpaceOnUse" class="B">
				<feFlood result="A" class="C"/>
				<feColorMatrix in="SourceAlpha" values="0 0 0 0 0 0 0 0 0 0 0 0 0 0 0 0 0 0 127 0" result="B"/>
				<feOffset dx="0.224202" dy="0.0448405"/>
				<feGaussianBlur stdDeviation=".336"/>
				<feComposite in2="B" operator="out"/>
				<feColorMatrix values="0 0 0 0 0 0 0 0 0 0 0 0 0 0 0 0 0 0 0.4 0"/>
				<feBlend in2="A"/>
				<feBlend in="SourceGraphic"/>
			</filter>
			<filter id="C" x="1.261" y="2.734" width="10.086" height="10.054" filterUnits="userSpaceOnUse" class="B">
				<feFlood result="A" class="C"/>
				<feColorMatrix in="SourceAlpha" values="0 0 0 0 0 0 0 0 0 0 0 0 0 0 0 0 0 0 127 0" result="B"/>
				<feOffset dx="0.224202" dy="0.0448405"/>
				<feGaussianBlur stdDeviation=".336"/>
				<feComposite in2="B" operator="out"/>
				<feColorMatrix values="0 0 0 0 0 0 0 0 0 0 0 0 0 0 0 0 0 0 0.4 0"/>
				<feBlend in2="A"/>
				<feBlend in="SourceGraphic"/>
			</filter>
			<filter id="D" x="2.81" y="6.477" width="6.445" height="6.778" filterUnits="userSpaceOnUse" class="B">
				<feFlood result="A" class="C"/>
				<feColorMatrix in="SourceAlpha" values="0 0 0 0 0 0 0 0 0 0 0 0 0 0 0 0 0 0 127 0" result="B"/>
				<feOffset dx="0.224202" dy="0.0448405"/>
				<feGaussianBlur stdDeviation=".336"/>
				<feComposite in2="B" operator="out"/>
				<feColorMatrix values="0 0 0 0 0 0 0 0 0 0 0 0 0 0 0 0 0 0 0.4 0"/>
				<feBlend in2="A"/>
				<feBlend in="SourceGraphic"/>
			</filter>
			<linearGradient id="E" x1="2.055" y1="2.508" x2="13.785" y2="14.469" gradientUnits="userSpaceOnUse">
				<stop stop-color="#fff"/>
				<stop offset="1" stop-color="#eaecee"/>
			</linearGradient>
			<radialGradient id="F" cx="0" cy="0" r="1" gradientUnits="userSpaceOnUse" gradientTransform="translate(9.68655 6.97809) rotate(51.0373) scale(9.22888 8.91426)">
				<stop stop-color="#1348ff"/>
				<stop offset="1" stop-color="#06238d"/>
			</radialGradient>
			<radialGradient id="G" cx="0" cy="0" r="1" gradientUnits="userSpaceOnUse" gradientTransform="translate(3.97674 4.0049) rotate(50.0605) scale(13.1516 24.31)">
				<stop stop-color="#0195ff"/>
				<stop offset="1" stop-color="#1147e9"/>
			</radialGradient>
			<radialGradient id="H" cx="0" cy="0" r="1" gradientUnits="userSpaceOnUse" gradientTransform="translate(6.23824 7.37818) rotate(108.445) scale(7.24827 10.0488)">
				<stop stop-color="#0bf"/>
				<stop offset="1" stop-color="#008bff"/>
			</radialGradient>
			<clipPath id="I">
				<path fill="#fff" transform="translate(.333)" d="M0 0h16v16H0z"/>
			</clipPath>
			<clipPath id="J">
				<path fill="#fff" transform="translate(3.499 2.833)" d="M0 0h9.667v9.667H0z"/>
			</clipPath>
		</defs>
	</svg>
</svg>