<svg
	xmlns="http://www.w3.org/2000/svg" width="19.959" height="18.626" viewBox="-0.5 -0.5 19.959 18.626">
	<defs>
		<linearGradient id="A" x1="1.998" y1="1.306" x2="10.032" y2="12.398" gradientUnits="userSpaceOnUse">
			<stop stop-color="#0195ff"/>
			<stop offset=".991" stop-color="#1147e9"/>
		</linearGradient>
		<linearGradient id="B" x1="8.859" y1="10.557" x2="14.725" y2="18.813" gradientUnits="userSpaceOnUse">
			<stop stop-color="#1348ff"/>
			<stop offset="1" stop-color="#06238d"/>
		</linearGradient>
		<linearGradient id="C" x1="14.753" y1="5.415" x2="18.429" y2="9.088" gradientUnits="userSpaceOnUse">
			<stop stop-color="#0bf"/>
			<stop offset="1" stop-color="#008bff"/>
		</linearGradient>
	</defs>
	<path d="M2.891 3.918C3.205 1.661 5.089-.5 7.741-.5c2.11 0 3.689 1.185 4.54 2.947 1.132.107 2.162.697 2.876 1.599a1.87 1.87 0 0 0-.439 1.206v.125h-.125c-1.036 0-1.875.839-1.875 1.875 0 .294.068.572.188.82h-.033A2.41 2.41 0 0 0 10.58 9.75l-.047.147-.051-.156a2.42 2.42 0 0 0-2.296-1.67c-1.345 0-2.417 1.097-2.417 2.427v1.078H3.427c-1.188 0-2.196-.37-2.907-1.1S-.5 8.77-.5 7.733c0-1.116.409-2.175 1.2-2.904.585-.539 1.338-.86 2.191-.911z" fill="url(#A)"/>
	<path d="M15.968 5.617a4.95 4.95 0 0 1 .198 1.398 4.96 4.96 0 0 1-.198 1.412v-.551h-1.375c-.345 0-.625-.28-.625-.625s.28-.625.625-.625h1.375z" fill="url(#A)"/>
	<path d="M16.361 16.834c-.293.298-.582.76-.289 1.058s.625.319.918.021l2.25-2.288a.77.77 0 0 0 0-1.079l-2.25-2.288c-.293-.298-.637-.422-.93-.124-.366.286.144.905.437 1.203l.84 1.003-4.625.005v.593c0 .409.329.741.735.741l3.973-.004z" fill="url(#B)"/>
	<path d="M7.021 10.401c0-.635.51-1.149 1.139-1.149a1.14 1.14 0 0 1 1.082.789l.934 2.856.183.661.138.564.147-.555.193-.648.921-2.878a1.13 1.13 0 0 1 1.076-.79c.624 0 1.131.511 1.131 1.14v3.951l-1.253.001.001-2.525.023-.944.028-.467c-.003.003-.034.111-.092.324l-.193.657-.225.745-1.036 3.11c-.105.314-.397.526-.726.526s-.621-.212-.726-.526l-1.036-3.11-.275-.884-.243-.842.009.134.028.523.023.754v3.319a.63.63 0 0 1-.626.632.63.63 0 0 1-.626-.632z" fill="url(#B)"/>
	<path d="M17.218 5.252c0-.345-.28-.625-.625-.625s-.625.28-.625.625v1.375h-1.375c-.345 0-.625.28-.625.625s.28.625.625.625h1.375v1.375c0 .345.28.625.625.625s.625-.28.625-.625V7.877h1.375c.345 0 .625-.28.625-.625s-.28-.625-.625-.625h-1.375z" fill="url(#C)"/>
</svg>