<svg
	xmlns="http://www.w3.org/2000/svg" width="15.791" height="17.611" viewBox="-0.5 -0.5 15.791 17.611">
	<defs>
		<radialGradient id="A" cx="0" cy="0" r="1" gradientUnits="userSpaceOnUse" gradientTransform="matrix(8.5359222,7.9142909,-14.911731,16.082979,1.411914,7.4657141)">
			<stop stop-color="#0195ff"/>
			<stop offset="1" stop-color="#1147e9"/>
		</radialGradient>
		<radialGradient id="B" cx="0" cy="0" r="1" gradientUnits="userSpaceOnUse" gradientTransform="matrix(5.243923,5.5678692,-5.0646986,4.7700276,4.9146077,0.7024816)">
			<stop stop-color="#1348ff"/>
			<stop offset="1" stop-color="#06238d"/>
		</radialGradient>
		<radialGradient id="C" cx="0" cy="0" r="1" gradientUnits="userSpaceOnUse" gradientTransform="matrix(3.6868768,4.2823818,-5.1395529,4.4248504,10.864192,2.7570121)">
			<stop stop-color="#0bf"/>
			<stop offset="1" stop-color="#008bff"/>
		</radialGradient>
	</defs>
	<g fill-rule="evenodd">
		<path d="M3.174 6.14c.265.363.185.873-.178 1.137a4.56 4.56 0 0 0-1.267 1.411l1.437.178.103-.414a.66.66 0 1 1 1.275.352l-.042.159c.85.039 1.643.032 2.373-.016l-.037-.141a.66.66 0 0 1 1.275-.352l.089.353.643-.113a.66.66 0 1 1 .263 1.296l-.704.124.036.863-.035.797 1.77-.327a4.58 4.58 0 0 0 .027-.5 4.56 4.56 0 0 0-.083-.871c-.086-.441.203-.869.644-.954s.869.203.954.644a6.19 6.19 0 0 1 .113 1.181c0 3.405-2.76 6.165-6.165 6.165S-.5 14.351-.5 10.946c0-2.049 1.001-3.864 2.536-4.984.363-.265.873-.185 1.137.178zm6.597 6.736l-1.607.268c-.166.622-.4 1.182-.682 1.667l-.252.395a4.55 4.55 0 0 0 2.541-2.329zm-2.716-.936a7.5 7.5 0 0 0 .061-.964l-.029-.718a22.66 22.66 0 0 1-2.797.019l-.027.7c0 .345.023.675.064.987.918.07 1.802.06 2.728-.024zm-2.403 1.37a17.39 17.39 0 0 0 2.082-.018c-.113.315-.247.6-.394.853-.205.351-.428.627-.65.835-.222-.208-.445-.484-.65-.835-.145-.248-.276-.527-.388-.835zm-1.673-1.501l-.038-.832.031-.801-1.734-.225c-.072.32-.109.653-.109.995a4.59 4.59 0 0 0 .028.51l1.822.352zm-1.41 1.09l1.656.28a6.76 6.76 0 0 0 .673 1.632l.269.419a4.55 4.55 0 0 1-2.597-2.33z" fill="url(#A)"/>
		<path d="M7.56 5.637l.774.758c.127.125.289.205.481.205.208 0 .381-.094.513-.238.144-.131.238-.305.238-.513a.68.68 0 0 0-.222-.498l-.818-.854.165-.239.339-.491c.347-.502.57-1.038.823-1.585a1.65 1.65 0 0 0 .109-.344h.582a.71.71 0 0 0 .732-.75c0-.433-.299-.732-.732-.732H8.263V.232c0-.203-.067-.397-.228-.539C7.89-.448 7.701-.5 7.513-.5s-.387.048-.536.196-.196.346-.196.536v.124h-2.3a.71.71 0 0 0-.732.732c0 .426.298.75.732.75h3.954l-.651 1.123-.26.389-.004.006-.003.004c-.262-.262-.458-.555-.639-.875-.097-.184-.226-.327-.434-.373-.388-.086-.741.09-.902.452l-.004.008-.003.009c-.071.188-.048.385.018.564l.004.011.005.011a2.63 2.63 0 0 0 .294.485l.005.006.005.006.358.466.015.02.018.018c.09.09.167.179.232.265l.007.009.082.093L4.88 6.249c-.137.137-.219.312-.219.513s.082.375.219.513.312.219.513.219.372-.079.516-.205l.008-.007z" fill="url(#B)"/>
		<path d="M10.084 6.959l1.87-4.664c.081-.156.175-.284.332-.364.118-.06.289-.092.433-.092.128 0 .253.027.364.092.15.078.238.213.28.364l1.87 4.664c.16.366-.023.818-.408.942-.381.16-.784-.055-.945-.418l-.004-.01-.36-.91h-1.714l-.364.919c-.159.357-.554.576-.929.416-.384-.135-.589-.562-.424-.94zm2.575-3.192l-.646 1.594h1.312z" fill="url(#C)"/>
	</g>
</svg>