<svg
	xmlns="http://www.w3.org/2000/svg" width="18.023" height="17.941" viewBox="-0.5 -0.5 18.023 17.941">
	<defs>
		<linearGradient id="A" x1=".544" y1=".958" x2="7.506" y2="7.494" gradientUnits="userSpaceOnUse">
			<stop offset="0" stop-color="#0e9afe"/>
			<stop offset="1" stop-color="#1353ec"/>
		</linearGradient>
		<linearGradient id="B" x1="9.835" y1="7.896" x2="16.077" y2="15.809" gradientUnits="userSpaceOnUse">
			<stop offset="0" stop-color="#1246f8"/>
			<stop offset="1" stop-color="#06238d"/>
		</linearGradient>
	</defs>
	<path d="M1.852-.5A2.41 2.41 0 0 0-.5 1.914v9.654a2.41 2.41 0 0 0 2.414 2.412H6a7.056 7.056 0 0 1-.252-1.83 7.056 7.056 0 0 1 .037-.527H2.674a.85.85 0 1 1 0-1.701h3.449a7.056 7.056 0 0 1 .275-.727H2.674a.85.85 0 1 1 0-1.701h4.832a7.056 7.056 0 0 1 3.268-2.1v-3.48A2.41 2.41 0 0 0 8.359-.5H1.914c-.021 0-.042-.001-.062 0zm5.684 2.342a.866.866 0 1 1 0 1.732.866.866 0 1 1 0-1.732z" fill="url(#A)"/>
	<path d="M12.711 10.656a.4.4 0 1 0 0 .801.61.61 0 1 1 0 1.23.61.61 0 0 1-.615-.615.4.4 0 0 0-.4-.4.4.4 0 0 0-.398.4 1.42 1.42 0 0 0 1.414 1.414 1.42 1.42 0 0 0 1.416-1.414c0-.777-.639-1.416-1.416-1.416zm.043-1.875A3.33 3.33 0 0 0 9.436 12.1a3.33 3.33 0 0 0 3.318 3.318.6.6 0 0 0 .6-.6.6.6 0 0 0-.6-.6 2.11 2.11 0 0 1-2.119-2.119 2.11 2.11 0 0 1 2.119-2.119 2.11 2.11 0 0 1 2.119 2.119.6.6 0 0 0 .6.6.6.6 0 0 0 .6-.6 3.33 3.33 0 0 0-3.318-3.318zm4.047 5.117a.6.6 0 0 0-.381.26c-.605.924-1.196 1.424-2.268 1.895-.38.142-1.133.251-1.947.131-.82-.121-1.705-.453-2.451-1.123a.6.6 0 0 0-.848.045.6.6 0 0 0 .047.848c.95.853 2.066 1.269 3.078 1.418s1.913.05 2.561-.195l.014-.006.014-.006c1.242-.543 2.098-1.269 2.805-2.348a.6.6 0 0 0-.623-.918zm-3.334-7.033c-1.011-.157-1.913-.067-2.564.18l-.016.006-.014.006c-1.82.795-3.504 2.456-3.512 5.035a.6.6 0 1 0 1.201.004c.006-2.067 1.252-3.257 2.775-3.928.376-.14 1.129-.244 1.945-.117s1.707.467 2.455 1.139a.6.6 0 1 0 .803-.893c-.949-.852-2.063-1.275-3.074-1.432z" fill="url(#B)"/>
</svg>