<svg
	xmlns="http://www.w3.org/2000/svg" width="30.001" height="29.403" viewBox="-0.5 -0.5 30.001 29.403">
	<defs>
		<linearGradient id="A" x1="3.448" y1="3.161" x2="20.545" y2="21.559" gradientUnits="userSpaceOnUse">
			<stop stop-color="#0195ff"/>
			<stop offset=".991" stop-color="#1147e9"/>
		</linearGradient>
		<linearGradient id="B" x1="17.232" y1="18.065" x2="26.052" y2="28.1" gradientUnits="userSpaceOnUse">
			<stop stop-color="#1348ff"/>
			<stop offset="1" stop-color="#06238d"/>
		</linearGradient>
		<linearGradient id="C" x1="7.242" y1="5.66" x2="9.932" y2="12.806" gradientUnits="userSpaceOnUse">
			<stop stop-color="#0bf"/>
			<stop offset="1" stop-color="#008bff"/>
		</linearGradient>
	</defs>
	<path fill-rule="evenodd" d="M24.586.792C23.788-.044 23.178-.507 21.967-.5l-18.44.038c-.544 0-1.052.109-1.524.327S1.096.392.697.792c-.363.4-.653.872-.871 1.417A4.66 4.66 0 0 0-.5 3.954v15.668c0 1.236.417 2.271 1.252 3.107s1.868 1.254 3.102 1.254h8.628c-.062-1.378.698-2.796 2.229-3.328.513-.178 1.076-.378 1.469-.771.213-.213.468-.581.764-1.448.783-2.327 3.518-2.852 5.182-1.575a2.99 2.99 0 0 1 1.337-.901l.008-.003c.3-.101.359-.161.461-.461l.003-.008c.34-.994 1.07-1.623 1.903-1.889V3.954c0-1.272-.417-2.326-1.252-3.162zm-1.622 3.162c0-.436 0-1.488-.997-1.488H3.527c-1.143 0-1.143 1.052-1.143 1.488v8.777h5.877c.435 0 .78.145 1.034.436.29.254.435.636.435 1.145 0 .763.272 1.435.816 2.017.58.545 1.288.818 2.122.818.798 0 1.469-.273 2.013-.818.58-.581.871-1.254.871-2.017 0-.509.127-.89.381-1.145.29-.291.653-.436 1.088-.436h5.942z" fill="url(#A)"/>
	<path d="M29.242 19.286c-1.18.399-1.706.926-2.106 2.106a.38.38 0 0 1-.717 0c-.4-1.18-.926-1.706-2.106-2.106-.345-.118-.345-.608 0-.726 1.18-.399 1.706-.926 2.106-2.106a.38.38 0 0 1 .717 0c.399 1.18.926 1.706 2.106 2.106.345.118.345.608 0 .726z" fill="url(#B)"/>
	<path d="M24.604 24.576c-2.16.735-3.122 1.697-3.857 3.858a.7.7 0 0 1-1.316 0c-.735-2.16-1.697-3.122-3.857-3.858-.626-.209-.626-1.107 0-1.325 2.16-.735 3.122-1.697 3.857-3.857a.7.7 0 0 1 1.316 0c.735 2.16 1.697 3.122 3.857 3.857.626.209.626 1.107 0 1.325z" fill="url(#B)"/>
	<path fill-rule="evenodd" d="M19.472 6.67H5.865a.94.94 0 1 1 0-1.884h13.607a.94.94 0 1 1 0 1.884zm0 3.942H5.865a.94.94 0 1 1 0-1.884h13.607a.94.94 0 1 1 0 1.884z" fill="url(#C)"/>
</svg>