<svg
	xmlns="http://www.w3.org/2000/svg"
	xmlns:xlink="http://www.w3.org/1999/xlink" width="15.312" height="19.775" viewBox="-0.5 -0.5 15.312 19.775">
	<defs>
		<linearGradient id="A" x1="1.795" y1="2.593" x2="9.852" y2="12.981" xlink:href="#F">
			<stop stop-color="#0195ff"/>
			<stop offset=".991" stop-color="#1147e9"/>
		</linearGradient>
		<linearGradient id="B" x1="5.231" y1="14.598" x2="9.082" y2="18.45" xlink:href="#F">
			<stop stop-color="#0195ff"/>
			<stop offset=".991" stop-color="#1147e9"/>
		</linearGradient>
		<linearGradient id="C" x1="3.18" y1="-.066" x2="5.207" y2="1.923" xlink:href="#F">
			<stop stop-color="#0bf"/>
			<stop offset="1" stop-color="#008bff"/>
		</linearGradient>
		<linearGradient id="D" x1="6.16" y1="2.829" x2="8.187" y2="4.818" xlink:href="#F">
			<stop stop-color="#0bf"/>
			<stop offset="1" stop-color="#008bff"/>
		</linearGradient>
		<linearGradient id="E" x1="9.14" y1="-.066" x2="11.167" y2="1.923" xlink:href="#F">
			<stop stop-color="#0bf"/>
			<stop offset="1" stop-color="#008bff"/>
		</linearGradient>
		<linearGradient id="F" gradientUnits="userSpaceOnUse"/>
	</defs>
	<path d="M5.984 11.608a3.31 3.31 0 0 0-.391-1.562c-.234-.495-.586-.898-1.055-1.211L1.922 7.077A5.64 5.64 0 0 1 .125 5.046C-.292 4.239-.5 3.366-.5 2.429V1.91C-.5 1.18-.135.816.594.816s1.094.365 1.094 1.094v.519c0 1.198.482 2.122 1.445 2.773l2.812 1.914.703.586c.234.208.417.443.547.703.339-.547.781-.99 1.328-1.328l2.656-1.758a3.39 3.39 0 0 0 1.055-1.211c.26-.469.391-.99.391-1.562v-.519c0-.339.091-.612.273-.82.208-.208.482-.312.82-.312s.599.104.781.313c.208.208.312.482.312.82v.519c0 .937-.208 1.81-.625 2.617-.417.833-1.016 1.51-1.797 2.031L9.734 8.952c-.443.313-.794.703-1.055 1.172-.234.495-.378 1.029-.43 1.602v-.055c-.008.23-.106 1.026-1.094 1.026-1.155 0-1.172-1.088-1.172-1.088z" fill="url(#A)"/>
	<path d="m 9.0311,16.5253 c 0,1.0356 -0.83944,1.875 -1.87494,1.875 -1.0355,0 -1.87494,-0.8394 -1.87494,-1.875 0,-1.0354 0.83944,-1.875 1.87494,-1.875 1.0355,0 1.87494,0.8396 1.87494,1.875 z" stroke="url(#B)" stroke-width="1.75" fill="none"/>
	<path d="M4.177 2.395c.785 0 1.422-.648 1.422-1.447S4.962-.5 4.177-.5 2.755.148 2.755.947s.636 1.447 1.422 1.447z" fill="url(#C)"/>
	<path d="M7.156 5.29c.785 0 1.422-.648 1.422-1.447s-.636-1.447-1.422-1.447-1.422.648-1.422 1.447.636 1.447 1.422 1.447z" fill="url(#D)"/>
	<path d="M10.136 2.395c.785 0 1.422-.648 1.422-1.447S10.922-.5 10.136-.5 8.715.148 8.715.947s.636 1.447 1.422 1.447z" fill="url(#E)"/>
</svg>