<svg
	xmlns="http://www.w3.org/2000/svg" width="18.749" height="18.75" viewBox="-0.5 -0.5 18.749 18.75">
	<defs>
		<linearGradient id="A" x1="2.159" y1="2.304" x2="15.267" y2="14.709" gradientUnits="userSpaceOnUse">
			<stop stop-color="#0195ff"/>
			<stop offset=".991" stop-color="#1147e9"/>
		</linearGradient>
		<linearGradient id="B" x1="12.175" y1="1.997" x2="18.472" y2="6.823" gradientUnits="userSpaceOnUse">
			<stop stop-color="#0bf"/>
			<stop offset="1" stop-color="#008bff"/>
		</linearGradient>
	</defs>
	<path d="m 5.6194366,1.0908078 c 1.146131,-0.47932502 2.379806,-0.69796872 3.612487,-0.64576872 0.01581,6.75e-4 0.02318,0.00403 0.02756,0.00643 0.0057,0.00315 0.01552,0.010162 0.0264,0.024881 0.02316,0.031237 0.0423,0.086025 0.03083,0.1539375 L 8.1092696,7.7785756 c -0.1665,0.98565 0.381694,1.952812 1.312875,2.3162814 l 6.7533754,2.63608 c 0.06413,0.02513 0.10125,0.06956 0.11625,0.105563 0.0069,0.01687 0.0079,0.02887 0.0077,0.03544 -1.87e-4,0.0049 -0.0011,0.01294 -0.0086,0.02681 -0.588375,1.0845 -1.409812,2.030625 -2.40975,2.767875 -1.284187,0.9465 -2.810212,1.509562 -4.4013564,1.623937 -1.591165,0.114378 -3.182102,-0.22481 -4.5883523,-0.97781 C 3.4851426,15.559564 2.3212176,14.423127 1.5345988,13.035439 0.74798012,11.647564 0.37091762,10.065196 0.44711762,8.4717826 0.52333632,6.8783706 1.0497051,5.3392016 1.9651738,4.0327954 2.8806426,2.7264079 4.1477114,1.7062953 5.6194366,1.0908078 Z" stroke="url(#A)" stroke-width="1.875" fill="none"/>
	<path d="M16.782 9.834c.687.265 1.45-.165 1.465-.902l-.022-.842c-.1-1.37-.509-2.702-1.197-3.896s-1.639-2.224-2.782-3.011l-.729-.454c-.643-.361-1.403.075-1.526.802l-.869 5.115a1.17 1.17 0 0 0 .734 1.29z" fill="url(#B)"/>
</svg>