<svg
	xmlns="http://www.w3.org/2000/svg" width="19.236" height="20" viewBox="-0.5 -0.5 19.236 20">
	<defs>
		<linearGradient id="A" x1="2.128" y1="2.112" x2="14.356" y2="14.389" gradientUnits="userSpaceOnUse">
			<stop stop-color="#0195ff"/>
			<stop offset=".991" stop-color="#1147e9"/>
		</linearGradient>
		<linearGradient id="B" x1="11.448" y1="14.047" x2="15.734" y2="19.806" gradientUnits="userSpaceOnUse">
			<stop stop-color="#1348ff"/>
			<stop offset="1" stop-color="#06238d"/>
		</linearGradient>
	</defs>
	<path d="M4.309 2.082a9.59 9.59 0 0 1 3.975-.829h-.002a9.59 9.59 0 0 1 7.199 3.34c.074.089.166.162.269.216s.216.086.331.095.232-.004.342-.04.213-.093.301-.169.16-.168.212-.272.083-.217.091-.332-.007-.232-.044-.342-.096-.211-.173-.298A11.34 11.34 0 0 0 8.295-.5 11.34 11.34 0 0 0-.28 3.318c-.154.174-.233.402-.219.635s.12.449.294.603.402.233.635.219.449-.12.603-.294a9.59 9.59 0 0 1 3.275-2.399z" fill="url(#A)"/>
	<path d="M6.484 4.972a6.12 6.12 0 0 1 3.368-.023c1.284.358 2.415 1.125 3.223 2.185a6.12 6.12 0 0 1 1.252 3.687c.002.111-.017.22-.057.323a.84.84 0 0 1-.446.465.84.84 0 0 1-.644.014.84.84 0 0 1-.277-.177c-.08-.076-.144-.168-.188-.269s-.069-.21-.071-.321c.001-.582-.113-1.159-.335-1.698s-.548-1.028-.959-1.44-.9-.74-1.437-.964-1.114-.339-1.697-.34-1.159.113-1.698.335-1.028.548-1.44.959-.74.9-.964 1.437-.339 1.114-.34 1.697a10.68 10.68 0 0 0 .436 2.937c.307 1.033.815 2.119 1.625 2.929.164.164.387.256.62.256s.455-.092.619-.257.256-.387.256-.62-.093-.455-.257-.619c-.529-.529-.924-1.312-1.184-2.188a8.92 8.92 0 0 1-.364-2.439c-.002-.712.279-1.395.781-1.899s1.183-.789 1.895-.791 1.395.279 1.899.781.789 1.183.791 1.895v.034l-.005.153c-.009.138.015.276.07.403.131.569.449 1.077.904 1.442s1.019.567 1.603.572 1.151-.187 1.613-.544.788-.86.929-1.426c.041-.098.064-.202.068-.308.047-1.175-.169-2.345-.634-3.425a7.87 7.87 0 0 0-5.115-4.472 7.87 7.87 0 0 0-6.691 1.178 7.87 7.87 0 0 0-3.281 5.95 7.87 7.87 0 0 0 .574 3.436c.093.208.263.372.474.457s.447.084.658-.002.38-.251.471-.46.098-.445.018-.658a6.12 6.12 0 0 1 1.093-6.383 6.12 6.12 0 0 1 2.845-1.802z" fill="url(#A)"/>
	<path d="M9.267 10.842c0-.483-.392-.875-.875-.875s-.875.392-.875.875c0 1.289.253 2.071.76 2.884.256.41.796.534 1.206.278s.535-.796.278-1.206c-.321-.515-.494-.971-.494-1.956z" fill="url(#A)"/>
	<path d="M17.678 13.106c-.282 0-.536.113-.762.339l-3.514 3.514-1.397-1.397c-.198-.226-.438-.339-.72-.339s-.536.113-.762.339-.339.48-.339.762.113.536.339.762l2.117 2.117c.198.198.452.296.762.296s.565-.099.762-.296l4.277-4.277c.198-.226.296-.48.296-.762a.98.98 0 0 0-.296-.72c-.226-.226-.48-.339-.762-.339z" fill="url(#B)"/>
</svg>