<svg
	xmlns="http://www.w3.org/2000/svg" width="11.021" height="17.633" viewBox="-0.5 -0.5 11.021 17.633">
	<defs>
		<radialGradient id="A" cx="0" cy="0" r="1" gradientUnits="userSpaceOnUse" gradientTransform="matrix(7.6304319,12.344166,-20.863933,12.896847,1.2091136,2.0889472)">
			<stop stop-color="#0195ff"/>
			<stop offset="1" stop-color="#1147e9"/>
		</radialGradient>
		<radialGradient id="B" cx="0" cy="0" r="1" gradientUnits="userSpaceOnUse" gradientTransform="matrix(4.6112786,5.3498582,-4.8217928,4.1561157,2.7256516,5.0774857)">
			<stop stop-color="#1348ff"/>
			<stop offset="1" stop-color="#06238d"/>
		</radialGradient>
	</defs>
	<path d="M8.317-.5c.289-.002.576.055.842.167s.507.278.707.487c.209.2.375.441.487.707s.169.553.167.842v13.224c.006.292-.049.583-.162.852s-.28.513-.492.715a2.15 2.15 0 0 1-.71.475c-.266.109-.552.164-.839.162H1.705a2.15 2.15 0 0 1-1.55-.637A2.1 2.1 0 0 1-.5 14.928V1.704A2.12 2.12 0 0 1 .155.154 2.12 2.12 0 0 1 1.705-.5zm1.102 2.204H.602v12.122h8.816zM5.011 16.03a.83.83 0 0 0 .586-.224c.081-.077.144-.171.186-.275s.06-.216.055-.328c0-.109-.021-.216-.063-.316s-.102-.191-.179-.268a.83.83 0 0 0-.268-.179c-.1-.042-.208-.063-.316-.063s-.216.021-.316.063-.191.102-.268.179a.83.83 0 0 0-.179.268c-.042.1-.063.208-.063.316a.78.78 0 0 0 .241.603c.158.149.369.229.586.224z" fill="url(#A)"/>
	<path d="M3.286 4.454l1.769 4.735 1.684-4.725c.116-.325.423-.541.767-.541.45 0 .814.365.814.814v6.241c0 .345-.28.625-.625.625s-.625-.28-.625-.625V6.872l-1.59 3.936a.59.59 0 0 1-1.101-.015L2.951 6.957v4.02c0 .345-.28.625-.625.625s-.625-.28-.625-.625V4.741a.82.82 0 0 1 1.585-.286z" fill="url(#B)"/>
</svg>