<svg
	xmlns="http://www.w3.org/2000/svg" width="18.277" height="18.477" viewBox="-0.5 -0.5 18.277 18.477">
	<defs>
		<linearGradient id="A" x1="1.842" y1="1.191" x2="9.362" y2="11.586" gradientUnits="userSpaceOnUse">
			<stop stop-color="#0195ff"/>
			<stop offset=".991" stop-color="#1147e9"/>
		</linearGradient>
		<radialGradient id="B" cx="0" cy="0" r="1" gradientUnits="userSpaceOnUse" gradientTransform="matrix(8.1328942,8.2355702,-7.5041762,7.4106186,7.90902,7.93238)">
			<stop stop-color="#1348ff"/>
			<stop offset="1" stop-color="#06238d"/>
		</radialGradient>
	</defs>
	<path d="M7.226-.5C4.74-.5 2.974 1.524 2.679 3.636c-.8.048-1.506.348-2.054.853C-.117 5.172-.5 6.163-.5 7.209c0 .971.295 1.89.956 2.569s1.612 1.03 2.725 1.03h1.96c.207-1.14 1.205-2.004 2.404-2.004h.674l.071.001c-.038-.17-.057-.347-.057-.529v-.678c0-1.35 1.094-2.444 2.444-2.444h.674c1.35 0 2.444 1.094 2.444 2.444v.566c.323-.379.759-.659 1.256-.786a4.79 4.79 0 0 0 .072-.841c0-2.313-1.653-4.09-3.643-4.278C10.684.609 9.204-.5 7.226-.5z" fill="url(#A)"/>
	<path fill-rule="evenodd" d="M11.352 6.154c.798 0 1.444.647 1.444 1.444v.678a1.44 1.44 0 0 1-.521 1.111l.334 1.325h.048c.14 0 .271.035.386.096l1.171-.594v-.468c0-.798.647-1.444 1.444-1.444h.674c.798 0 1.444.647 1.444 1.444v.678c0 .798-.647 1.444-1.444 1.444h-.674a1.44 1.44 0 0 1-1.05-.453l-1.132.575v.143l.004-.006.858.562a1.44 1.44 0 0 1 .904-.318h.902c.798 0 1.444.647 1.444 1.444v.906c0 .798-.646 1.444-1.444 1.444h-.902c-.798 0-1.444-.647-1.444-1.444v-.892l-.774-.507c-.11.056-.235.087-.367.087h-.667l-1.339 1.798c.098.194.152.414.152.647v.678c0 .797-.647 1.444-1.444 1.444h-.674c-.798 0-1.444-.647-1.444-1.444v-.678c0-.798.647-1.444 1.444-1.444h.674a1.44 1.44 0 0 1 .303.032l1.166-1.566a.82.82 0 0 1-.051-.285v-.212H9.591c-.19.575-.732.99-1.371.99h-.674c-.798 0-1.444-.646-1.444-1.444v-.678c0-.798.647-1.444 1.444-1.444h.674c.758 0 1.379.584 1.439 1.326h1.224a.82.82 0 0 1 .448-.373l-.261-1.036h-.392c-.798 0-1.444-.647-1.444-1.444v-.678c0-.798.647-1.444 1.444-1.444zm.194 1.444c0-.107-.087-.194-.194-.194h-.674c-.107 0-.194.087-.194.194v.678c0 .107.087.194.194.194h.674c.107 0 .194-.087.194-.194zm4.981 2.148c0-.107-.087-.194-.194-.194h-.674c-.107 0-.194.087-.194.194v.678c0 .107.087.194.194.194h.674c.107 0 .194-.087.194-.194zm-.189 4.07c0-.107-.087-.194-.194-.194h-.902c-.107 0-.194.087-.194.194v.906c0 .107.087.194.194.194h.902c.107 0 .194-.087.194-.194zM8.22 11.054c.107 0 .194.087.194.194v.678c0 .107-.087.194-.194.194h-.674c-.107 0-.194-.087-.194-.194v-.678c0-.107.087-.194.194-.194zm1.334 4.801c0-.107-.087-.194-.194-.194h-.674c-.107 0-.194.087-.194.194v.678c0 .107.087.194.194.194h.674c.107 0 .194-.087.194-.194z" fill="url(#B)"/>
</svg>