<svg
	xmlns="http://www.w3.org/2000/svg" width="20" height="18.261" viewBox="-0.5 -0.5 20 18.261">
	<defs>
		<linearGradient id="A" x1="2.17" y1="1.524" x2="11.3" y2="13.542" gradientUnits="userSpaceOnUse">
			<stop stop-color="#0195ff"/>
			<stop offset=".991" stop-color="#1147e9"/>
		</linearGradient>
		<linearGradient id="B" x1="9.794" y1="10.757" x2="15.239" y2="18.342" gradientUnits="userSpaceOnUse">
			<stop stop-color="#1348ff"/>
			<stop offset="1" stop-color="#06238d"/>
		</linearGradient>
	</defs>
	<path fill-rule="evenodd" d="M17.309 2.081A2.58 2.58 0 0 0 14.729-.5H2.081A2.58 2.58 0 0 0-.5 2.081v1.829a2.58 2.58 0 0 1 0 4.947v1.598a2.58 2.58 0 0 0 2.581 2.581h4.828c.216-1.015 1.119-1.773 2.194-1.773h4.158a2.24 2.24 0 0 1 .538-2.308c.874-.872 2.295-.872 3.169 0l.342.341zm-4.54.591c0-.67-.348-1.005-1.045-1.005H5.583c-.697 0-1.045.335-1.045 1.005 0 .697.348 1.045 1.045 1.045h6.141c.697 0 1.045-.348 1.045-1.045zM9.887 6.531a1.12 1.12 0 0 0 .281-.764c0-.67-.335-1.005-1.005-1.005H5.583c-.697 0-1.045.335-1.045 1.005a1.12 1.12 0 0 0 .281.764c.188.188.442.281.764.281h3.581c.295 0 .536-.094.724-.281zm1.351 3.088a1.12 1.12 0 0 0 .281-.764c0-.67-.335-1.005-1.005-1.005H5.583c-.697 0-1.045.335-1.045 1.005a1.12 1.12 0 0 0 .281.764c.188.188.442.281.764.281h4.931c.295 0 .536-.094.724-.281z" fill="url(#A)"/>
	<path d="M8.11 13.502c0 .546.445.99.993.99h7.158l-1.58 1.576a.99.99 0 0 0 0 1.4c.196.195.45.293.704.293a.99.99 0 0 0 .699-.288l3.125-3.117a.99.99 0 0 0 0-1.4l-3.125-3.117c-.386-.385-1.017-.385-1.404 0a.99.99 0 0 0 0 1.4l1.277 1.273H9.103c-.548 0-.993.444-.993.99z" fill="url(#B)"/>
</svg>