<svg
	xmlns="http://www.w3.org/2000/svg" width="30" height="27.391" viewBox="-0.5 -0.5 30 27.391">
	<defs>
		<linearGradient id="A" x1="3.505" y1="2.536" x2="17.2" y2="20.563" gradientUnits="userSpaceOnUse">
			<stop stop-color="#0195ff"/>
			<stop offset=".991" stop-color="#1147e9"/>
		</linearGradient>
		<linearGradient id="B" x1="14.941" y1="16.386" x2="23.109" y2="27.764" gradientUnits="userSpaceOnUse">
			<stop stop-color="#1348ff"/>
			<stop offset="1" stop-color="#06238d"/>
		</linearGradient>
	</defs>
	<path fill-rule="evenodd" d="M26.214 3.371A3.87 3.87 0 0 0 22.343-.5H3.371A3.87 3.87 0 0 0-.5 3.371v2.743c1.598.476 2.763 1.957 2.763 3.71S1.098 13.058-.5 13.534v2.397a3.87 3.87 0 0 0 3.871 3.871h7.243c.323-1.522 1.678-2.66 3.291-2.66h6.237a3.36 3.36 0 0 1 .806-3.462 3.37 3.37 0 0 1 4.754 0l.513.511zm-6.809.886c0-1.005-.523-1.508-1.568-1.508H8.625c-1.045 0-1.568.502-1.568 1.508 0 1.045.523 1.568 1.568 1.568h9.212c1.045 0 1.568-.523 1.568-1.568zm-4.324 5.789c.281-.322.422-.703.422-1.146 0-1.005-.503-1.508-1.508-1.508H8.625c-1.045 0-1.568.503-1.568 1.508 0 .442.141.824.422 1.146.281.281.663.422 1.146.422h5.371c.442 0 .804-.141 1.085-.422zm2.026 4.632c.281-.322.422-.703.422-1.146 0-1.005-.503-1.508-1.508-1.508H8.625c-1.045 0-1.568.503-1.568 1.508 0 .442.141.824.422 1.146.281.281.663.422 1.146.422h7.397c.442 0 .804-.141 1.085-.422z" fill="url(#A)"/>
	<path d="M12.416 20.503a1.49 1.49 0 0 0 1.489 1.485h10.737l-2.37 2.364c-.58.578-.58 1.522 0 2.1a1.49 1.49 0 0 0 1.057.439c.381 0 .763-.146 1.049-.432l4.688-4.676c.58-.578.58-1.522 0-2.1l-4.688-4.676c-.58-.578-1.526-.578-2.106 0s-.58 1.522 0 2.1l1.915 1.91H13.905a1.49 1.49 0 0 0-1.489 1.486z" fill="url(#B)"/>
</svg>