<svg
	xmlns="http://www.w3.org/2000/svg" width="25.867" height="28" viewBox="-0.5 -0.5 25.867 28">
	  <style type="text/css">
		.st0{stop-color:#00ceac;}
		.st1{stop-color:#07838f;}
	  </style>
	<defs>
		<linearGradient id="A" x1="1.846" y1="3.474" x2="23.227" y2="23.613" gradientUnits="userSpaceOnUse">
			<stop class="st0"/>
			<stop offset="1" class="st1"/>
		</linearGradient>
	</defs>
	<path d="M13.39 27.5h-1.915c-.656 0-1.257-.219-1.803-.656a2.46 2.46 0 0 1-.931-1.585l-.383-1.804-2.35-1.423-1.641.71a3.61 3.61 0 0 1-1.04.165c-.509 0-1.003-.128-1.477-.383-.452-.271-.813-.671-1.038-1.148l-1.039-2.023c-.169-.379-.262-.789-.273-1.204a2.75 2.75 0 0 1 1.148-2.296l1.258-.929v-2.845l-1.312-.983C-.136 10.546-.5 9.799-.5 8.852c0-.366.091-.767.273-1.204l1.04-2.023c.255-.511.6-.893 1.038-1.148.474-.255.968-.383 1.477-.383.402 0 .747.074 1.04.219l1.641.656 2.35-1.423.383-1.802A2.68 2.68 0 0 1 9.727.156a2.61 2.61 0 0 1 1.75-.656h1.913a2.61 2.61 0 0 1 1.75.656c.511.403.84.929.985 1.586l.327 1.806 2.406 1.421 1.642-.656c.291-.145.637-.219 1.04-.219a2.77 2.77 0 0 1 1.421.383c.473.255.84.637 1.094 1.148l.985 2.023c.217.366.327.784.327 1.258 0 .91-.383 1.642-1.148 2.188l-1.312.985v2.844l1.313.928c.765.585 1.148 1.332 1.148 2.243 0 .438-.11.858-.329 1.258l-.983 2.023c-.256.511-.619.892-1.094 1.148-.437.256-.91.383-1.423.383-.364 0-.71-.054-1.038-.165l-1.642-.71-2.406 1.423-.327 1.802c-.147.658-.474 1.186-.985 1.587a2.61 2.61 0 0 1-1.75.656zm-7.383-8.258c.474 0 .949.147 1.423.438l2.406 1.423c.73.438 1.148 1.04 1.258 1.804l.382 1.804h1.915l.329-1.804c.182-.802.62-1.404 1.313-1.804l2.352-1.423a3.06 3.06 0 0 1 1.529-.437c.184 0 .346.017.494.054a4.17 4.17 0 0 1 .492.165l1.642.656.983-2.023-1.258-.929c-.765-.584-1.148-1.33-1.148-2.242v-2.845c0-.91.383-1.657 1.148-2.24l1.258-.931-.985-2.023-1.64.71c-.335.111-.686.166-1.04.165-.583 0-1.075-.128-1.477-.383l-2.35-1.477a2.68 2.68 0 0 1-1.312-1.804L13.39 2.29h-1.915l-.382 1.804c-.11.766-.528 1.367-1.258 1.804L7.483 7.375c-.401.255-.893.383-1.475.383-.329 0-.693-.056-1.094-.165l-1.641-.71-.985 2.023 1.313.929c.767.585 1.15 1.33 1.15 2.244v2.844c0 .91-.383 1.657-1.148 2.24l-1.312.931 1.038 2.023 1.641-.656c.29-.145.637-.219 1.04-.219zm6.4-.165a5.57 5.57 0 0 1-2.187-.437c-.653-.289-1.246-.697-1.75-1.202a5.77 5.77 0 0 1-1.204-1.75 5.58 5.58 0 0 1-.437-2.187 5.21 5.21 0 0 1 .438-2.133c.292-.693.693-1.295 1.204-1.804s1.094-.91 1.75-1.204a5.6 5.6 0 0 1 2.188-.437c.765 0 1.495.147 2.188.438s1.295.693 1.804 1.204.91 1.111 1.204 1.804c.291.656.438 1.368.438 2.133a5.6 5.6 0 0 1-.437 2.188c-.29.653-.698 1.246-1.204 1.75-.511.511-1.111.91-1.804 1.204s-1.423.436-2.187.436zm0-8.365c-.767 0-1.423.271-1.969.819-.264.255-.473.561-.614.899s-.211.703-.206 1.069c0 .767.273 1.423.821 1.969s1.202.821 1.969.821c.802 0 1.477-.273 2.023-.821s.821-1.204.821-1.969-.273-1.423-.821-1.969a2.75 2.75 0 0 0-.927-.62c-.348-.141-.721-.208-1.096-.199z" fill="url(#A)"/>
</svg>