<svg
	xmlns="http://www.w3.org/2000/svg" width="28" height="28" viewBox="-0.5 -0.5 28 28">
	  <style type="text/css">
		.st0{stop-color:#00ceac;}
		.st1{stop-color:#07838f;}
	  </style>
	<defs>
		<linearGradient id="A" x1="2.039" y1="3.474" x2="23.454" y2="25.309" gradientUnits="userSpaceOnUse">
			<stop class="st0"/>
			<stop offset="1" class="st1"/>
		</linearGradient>
	</defs>
	<path d="M13.5-.5c1.932 0 3.736.364 5.414 1.094 1.713.73 3.208 1.732 4.483 3.008 1.283 1.286 2.305 2.809 3.008 4.483.73 1.678 1.094 3.482 1.094 5.414a13.82 13.82 0 0 1-1.094 5.469c-.713 1.654-1.734 3.157-3.008 4.429-1.286 1.283-2.809 2.305-4.483 3.008A13.43 13.43 0 0 1 13.5 27.5a13.82 13.82 0 0 1-5.469-1.094c-3.338-1.438-5.999-4.099-7.437-7.437A13.82 13.82 0 0 1-.5 13.5c0-1.932.364-3.736 1.094-5.414.73-1.713 1.732-3.208 3.008-4.483S6.378 1.307 8.031.594A13.82 13.82 0 0 1 13.5-.5zm-7 14a1.7 1.7 0 0 0-.68.116c-.216.085-.413.213-.578.376s-.291.362-.376.578-.124.448-.116.68c0 .438.164.857.492 1.258l3.5 3.5c.402.327.821.492 1.258.492.473 0 .893-.164 1.258-.492l10.5-10.5c.327-.403.492-.821.492-1.258.003-.229-.045-.455-.14-.663s-.234-.393-.408-.541c-.148-.174-.333-.312-.54-.407s-.434-.142-.662-.139c-.437 0-.858.165-1.258.492L10 16.289 7.758 13.99c-.341-.318-.792-.493-1.258-.49z" fill="url(#A)"/>
</svg>