<svg
	xmlns="http://www.w3.org/2000/svg" width="28" height="28" viewBox="-0.5 -0.5 28 28">
	  <style type="text/css">
		.st0{stop-color:#00ceac;}
		.st1{stop-color:#07838f;}
	  </style>
	<defs>
		<linearGradient id="A" x1="2.039" y1="3.474" x2="23.454" y2="25.309" gradientUnits="userSpaceOnUse">
			<stop class="st0"/>
			<stop offset="1" class="st1"/>
		</linearGradient>
	</defs>
	<path d="M21.747 13.2a11.35 11.35 0 0 1 4.164 3.945c1.059 1.68 1.589 3.579 1.589 5.699v3.123c0 1.022-.53 1.534-1.589 1.534H7.282c-.475 0-.859-.146-1.152-.438-.291-.256-.438-.621-.438-1.096v-1.589H1.034c-1.022 0-1.534-.512-1.534-1.534V19.72a7.27 7.27 0 0 1 1.261-4.166c.803-1.209 1.921-2.175 3.233-2.793-.464-.528-.818-1.143-1.042-1.809a6.88 6.88 0 0 1-.33-2.081c0-.877.165-1.68.494-2.411a6.17 6.17 0 0 1 1.315-1.973c.568-.573 1.237-1.037 1.973-1.369a6.06 6.06 0 0 1 2.411-.493c.256 0 .493.018.712.053a2.65 2.65 0 0 1 .712.11A7.41 7.41 0 0 1 12.926.377c1.134-.585 2.394-.886 3.67-.877 1.096 0 2.12.202 3.068.603s1.771.968 2.465 1.699c.694.694 1.243 1.515 1.645 2.465.403.912.603 1.918.603 3.014.003 1.152-.239 2.291-.712 3.342-.422 1.001-1.08 1.885-1.918 2.576zM16.594 2.623c-1.315 0-2.428.456-3.342 1.371-.877.877-1.315 1.973-1.315 3.288s.438 2.428 1.315 3.342c.912.877 2.027 1.315 3.342 1.315s2.411-.438 3.288-1.315a4.54 4.54 0 0 0 1.369-3.342c0-1.315-.456-2.411-1.368-3.288-.877-.914-1.974-1.371-3.289-1.371zM8.651 5.749c-.842 0-1.571.31-2.192.931-.584.584-.877 1.315-.877 2.192a3.09 3.09 0 0 0 .877 2.192 3.09 3.09 0 0 0 2.192.877h1.753a7.98 7.98 0 0 1-1.15-2.137 7.63 7.63 0 0 1-.438-2.52v-.771a4.01 4.01 0 0 1 .163-.766h-.328zM2.623 21.311h3.233c.33-2.521 1.369-4.603 3.123-6.247H7.283c-1.315 0-2.43.456-3.344 1.369-.877.877-1.315 1.974-1.315 3.289zm21.754 1.534a7.4 7.4 0 0 0-.603-3.014c-.383-.921-.942-1.758-1.645-2.465a7.26 7.26 0 0 0-2.465-1.699c-.971-.406-2.015-.611-3.068-.603-1.096 0-2.118.202-3.068.603-.912.403-1.736.968-2.465 1.699a7.67 7.67 0 0 0-1.645 2.465 7.4 7.4 0 0 0-.601 3.014v1.534h15.561z" fill="url(#A)"/>
</svg>