<svg
	xmlns="http://www.w3.org/2000/svg"
	xmlns:xlink="http://www.w3.org/1999/xlink" width="18.989" height="20" viewBox="-0.5 -0.5 18.989 20">
	<defs>
		<mask id="A" maskUnits="userSpaceOnUse" x="3" y="2" width="10" height="11">
			<path d="M7.989 2.8s-.001.416 1.087 1.077c2.112 1.283 2.105 2.46 2.105 2.707 0 1.049-1.092 1.727-1.598 1.178 0 0 .497-.369.497-.936 0 0-.364.24-.555.282 0 0 .248-.439.133-1.209 0 0-.199.389-.837.704 0 0 .248-.555.017-1.085 0 0 .05.663-1.458 1.367S6.336 8.292 6.336 8.292s.3-.32.811-.095c.69.303.411 1.52-.699 1.52-1.08 0-1.79-1.175-1.79-2.093 0-.38.041-1.077.727-1.845.545-.611 1.218-.933 1.362-1.608C6 4.863 4.652 5.315 3.851 6.5c-.72 1.064-.486 2.472-.357 2.905.588 1.964 2.408 3.395 4.563 3.395 2.63 0 4.79-2.105 4.79-4.735 0-3.982-3.785-4.404-4.858-5.265zm-.637 4.874c-.08.019-.157-.015-.285-.054-.12-.036-.162-.03-.162-.03.081-.054.166-.103.253-.145.127-.059.236-.062.286.055.033.077-.027.158-.093.174z" fill="#fff"/>
		</mask>
		<linearGradient id="B" x1="4.776" y1="4.295" x2="11.769" y2="10.937" xlink:href="#K">
			<stop stop-color="#0195ff"/>
			<stop offset=".991" stop-color="#1147e9"/>
		</linearGradient>
		<linearGradient id="C" x1="6.667" y1="5.932" x2="8.61" y2="7.799" xlink:href="#K">
			<stop stop-color="#0bf"/>
			<stop offset="1" stop-color="#008bff"/>
		</linearGradient>
		<linearGradient id="D" x1="6.827" y1="6.24" x2="8.428" y2="8.473" xlink:href="#K">
			<stop stop-color="#0bf"/>
			<stop offset="1" stop-color="#008bff"/>
		</linearGradient>
		<linearGradient id="E" x1="6.897" y1="7.043" x2="7.595" y2="8.825" xlink:href="#K">
			<stop stop-color="#0bf"/>
			<stop offset="1" stop-color="#008bff"/>
		</linearGradient>
		<linearGradient id="F" x1="6.697" y1="6.855" x2="7.796" y2="8.479" xlink:href="#K">
			<stop stop-color="#0bf"/>
			<stop offset="1" stop-color="#008bff"/>
		</linearGradient>
		<linearGradient id="G" x1="6.643" y1="7.408" x2="7.231" y2="8.568" xlink:href="#K">
			<stop stop-color="#0bf"/>
			<stop offset="1" stop-color="#008bff"/>
		</linearGradient>
		<linearGradient id="H" x1="4.756" y1="7.065" x2="9.189" y2="13.351" xlink:href="#K">
			<stop stop-color="#1348ff"/>
			<stop offset="1" stop-color="#06238d"/>
		</linearGradient>
		<linearGradient id="I" x1="7.875" y1="9.6" x2="10.365" y2="13.095" xlink:href="#K">
			<stop stop-color="#0195ff"/>
			<stop offset=".991" stop-color="#1147e9"/>
		</linearGradient>
		<linearGradient id="J" x1="9.295" y1="9.587" x2="11.634" y2="11.095" xlink:href="#K">
			<stop stop-color="#0bf"/>
			<stop offset="1" stop-color="#008bff"/>
		</linearGradient>
		<linearGradient id="K" gradientUnits="userSpaceOnUse"/>
	</defs>
	<g mask="url(#A)" transform="matrix(2 0 0 2 -7.205085 -6.0996)">
		<path d="M7.989 2.8s-.001.416 1.087 1.077c2.112 1.283 2.105 2.46 2.105 2.707 0 1.049-1.092 1.727-1.598 1.178 0 0 .497-.369.497-.936 0 0-.364.24-.555.282 0 0 .248-.439.133-1.209 0 0-.199.389-.837.704 0 0 .248-.555.017-1.085 0 0 .05.663-1.458 1.367S6.336 8.292 6.336 8.292s.3-.32.811-.095c.69.303.411 1.52-.699 1.52-1.08 0-1.79-1.175-1.79-2.093 0-.38.041-1.077.727-1.845.545-.611 1.218-.933 1.362-1.608C6 4.863 4.652 5.315 3.851 6.5c-.72 1.064-.486 2.472-.357 2.905.588 1.964 2.408 3.395 4.563 3.395 2.63 0 4.79-2.105 4.79-4.735 0-3.982-3.785-4.404-4.858-5.265z" fill="url(#B)"/>
		<path opacity=".6" d="M7.715 7.773c.839-.432 1.107-1.173 1.107-1.173s.248-.555.016-1.086c0 0 .05.663-1.46 1.368S6.335 8.292 6.335 8.292a.66.66 0 0 1 .303-.158c.249-.067.64-.134 1.077-.36z" fill="url(#C)"/>
		<path opacity=".4" d="M7.758 8.08c.648 0 1.398-.301 1.769-.974.058-.105.11-.276.135-.436.04-.256.045-.446-.002-.792 0 0-.123.344-.838.723-.26.137-.592.275-1.032.408-1.705.517-1.455 1.283-1.455 1.283.269-.177.27-.211 1.423-.211z" fill="url(#D)"/>
		<path opacity=".2" d="M7.759 8.08c.596 0 1.406.034 1.827-.32.258-.216.494-.502.498-.938 0 0-.353.233-.556.283-.28.069-.786.176-1.248.149C6.712 7.166 6.336 8.29 6.336 8.29c.216-.198.479-.211 1.423-.211z" fill="url(#E)"/>
		<path opacity=".4" d="M7.715 7.774c.839-.432 1.107-1.173 1.107-1.173-.26.137-.592.275-1.032.408-1.705.517-1.455 1.283-1.455 1.283a.66.66 0 0 1 .303-.158c.248-.067.639-.134 1.076-.36z" fill="url(#F)"/>
		<path d="M6.64 8.134c.248-.067.639-.135 1.076-.36.253-.131.482-.305.676-.514a2.09 2.09 0 0 1-.112-.003c-1.568-.089-1.944 1.036-1.944 1.036a.61.61 0 0 1 .24-.14l.064-.018z" fill="url(#G)"/>
		<path opacity=".4" d="M12.847 8.065c0-.794-.151-1.446-.4-1.989.024.072.506 1.58-.701 2.787-.689.689-1.862.928-2.805.174 0 0 .12 1.892-2.121 2.171-1.463.182-2.615-.75-3.115-1.938-.348-.826-.38-1.775.018-2.56-.562 1.033-.35 2.29-.229 2.695.588 1.964 2.408 3.395 4.563 3.395 2.63 0 4.79-2.105 4.79-4.735z" fill="url(#H)"/>
		<path opacity=".6" d="M12.364 10.142c-.248.067-2.195.53-3.423-1.105 0 0 .572 2.217-1.858 3.663a4.77 4.77 0 0 0 .975.1 4.8 4.8 0 0 0 4.306-2.658z" fill="url(#I)"/>
		<path opacity=".7" d="M11.307 11.544c-1.522-.784-2.366-2.507-2.366-2.507.678 1.655.384 2.946.08 3.667.853-.173 1.643-.574 2.286-1.16z" fill="url(#J)"/>
	</g>
</svg>