<svg
	xmlns="http://www.w3.org/2000/svg" width="28" height="28" viewBox="-0.5 -0.5 28 28">
	  <style type="text/css">
		.st0{stop-color:#00ceac;}
		.st1{stop-color:#07838f;}
	  </style>
	<defs>
		<linearGradient id="A" x1="2.039" y1="3.474" x2="23.454" y2="25.309" gradientUnits="userSpaceOnUse">
			<stop class="st0"/>
			<stop offset="1" class="st1"/>
		</linearGradient>
	</defs>
	<path d="M-.5 13.472c0-1.93.371-3.73 1.113-5.4.742-1.707 1.744-3.192 3.006-4.453S6.365 1.356 8.073.613 11.598-.5 13.528-.5s3.73.371 5.4 1.113c1.707.742 3.192 1.744 4.453 3.006s2.264 2.746 3.006 4.453c.742 1.67 1.113 3.47 1.113 5.4s-.371 3.748-1.113 5.455-1.744 3.192-3.006 4.453a14.28 14.28 0 0 1-4.453 3.006c-1.67.742-3.47 1.113-5.4 1.113s-3.748-.371-5.455-1.113a14.28 14.28 0 0 1-4.453-3.006 14.28 14.28 0 0 1-3.006-4.453C-.129 17.22-.5 15.402-.5 13.472zm16.811 4.231a6.65 6.65 0 0 1 3.284.835c1.002.52 1.818 1.243 2.449 2.171a10.14 10.14 0 0 0 1.948-3.284c.482-1.225.724-2.542.724-3.952 0-1.559-.297-3.006-.891-4.342-.594-1.373-1.392-2.561-2.394-3.563s-2.19-1.8-3.563-2.394c-1.336-.594-2.783-.891-4.342-.891s-3.024.297-4.398.891c-1.336.594-2.524 1.392-3.563 2.394A11.35 11.35 0 0 0 3.174 9.13c-.594 1.336-.891 2.783-.891 4.342 0 1.41.223 2.728.668 3.952.482 1.225 1.15 2.319 2.004 3.284.631-.928 1.447-1.651 2.449-2.171a6.65 6.65 0 0 1 3.284-.835zm2.783-7.014a5.68 5.68 0 0 1-.445 2.227 5.87 5.87 0 0 1-1.225 1.781c-.482.482-1.058.872-1.726 1.169s-1.392.445-2.171.445a5.68 5.68 0 0 1-2.227-.445 6.44 6.44 0 0 1-1.781-1.169 6.44 6.44 0 0 1-1.169-1.781 5.68 5.68 0 0 1-.445-2.227c0-.779.148-1.503.445-2.171A6.44 6.44 0 0 1 9.52 6.737a5.87 5.87 0 0 1 1.781-1.225 5.68 5.68 0 0 1 2.227-.445c.779 0 1.503.148 2.171.445s1.243.705 1.726 1.225a5.87 5.87 0 0 1 1.225 1.781c.297.668.445 1.392.445 2.171zm-2.783 0c0-.779-.278-1.429-.835-1.948-.557-.557-1.206-.835-1.948-.835a2.73 2.73 0 0 0-2.004.835c-.557.52-.835 1.169-.835 1.948a2.73 2.73 0 0 0 .835 2.004c.557.52 1.225.779 2.004.779.742 0 1.392-.26 1.948-.779a2.73 2.73 0 0 0 .835-2.004zM7.071 22.657c.891.631 1.874 1.132 2.95 1.503 1.113.371 2.282.557 3.507.557 1.188 0 2.319-.186 3.396-.557 1.113-.371 2.115-.872 3.006-1.503-.371-.668-.891-1.188-1.559-1.559-.631-.408-1.317-.612-2.06-.612h-5.622c-.742 0-1.447.204-2.115.612-.631.371-1.132.891-1.503 1.559z" fill="url(#A)"/>
</svg>