<svg
	xmlns="http://www.w3.org/2000/svg" width="28" height="26.538" viewBox="-0.5 -0.5 28 26.538">
	  <style type="text/css">
		.st0{stop-color:#00ceac;}
		.st1{stop-color:#07838f;}
	  </style>
	<defs>
		<linearGradient id="A" x1="2.039" y1="3.267" x2="22.286" y2="25.048" gradientUnits="userSpaceOnUse">
			<stop class="st0"/>
			<stop offset="1" class="st1"/>
		</linearGradient>
	</defs>
	<path d="M23.291-.499A4.06 4.06 0 0 1 26.273.728c.817.817 1.227 1.792 1.227 2.922v2.806c0 .43-.137.78-.41 1.053-.277.235-.63.359-.993.35-.363.01-.716-.115-.993-.35a1.42 1.42 0 0 1-.314-.484c-.07-.181-.103-.375-.096-.569V3.649c.007-.177-.026-.353-.097-.515a1.17 1.17 0 0 0-.312-.421 1.35 1.35 0 0 0-.993-.408H3.709a1.35 1.35 0 0 0-.993.408 1.17 1.17 0 0 0-.41.935v1.403H9.32c.391 0 .722.137.995.41a1.35 1.35 0 0 1 .307.454c.07.171.104.354.101.539 0 .43-.137.78-.408 1.053-.277.235-.632.36-.995.35H2.306v12.626c0 .391.137.722.41.995.129.132.284.236.454.307s.354.105.539.101h3.507c.391 0 .722.137.995.41.271.234.408.565.408.993.004.185-.031.369-.101.54s-.175.326-.307.455c-.277.235-.632.36-.995.35H3.709c-1.13 0-2.123-.41-2.982-1.227A3.99 3.99 0 0 1-.5 20.484V3.649C-.5 2.52-.09 1.545.727.728 1.586-.092 2.579-.499 3.709-.499zm-5.496 6.955c1.366 0 2.632.273 3.801.819a9.24 9.24 0 0 1 3.04 2.104c.896.896 1.597 1.928 2.104 3.098s.759 2.435.759 3.799c.004 1.305-.254 2.598-.759 3.801-.498 1.157-1.213 2.208-2.104 3.098-.904.901-1.977 1.616-3.157 2.104a9.45 9.45 0 0 1-3.799.759c-1.304.004-2.596-.254-3.799-.759-1.157-.498-2.208-1.213-3.098-2.104a9.92 9.92 0 0 1-2.104-3.098c-.506-1.203-.765-2.496-.761-3.801 0-1.364.254-2.63.761-3.799a9.54 9.54 0 0 1 2.043-3.098 9.92 9.92 0 0 1 3.1-2.104 9.13 9.13 0 0 1 3.797-.819zm5.496 5.612c-.741-.935-1.598-1.616-2.572-2.044.195.31.352.642.468.991l.468 1.053zm-5.612-1.753c-.273.468-.565 1.051-.877 1.753h1.813c-.312-.778-.623-1.364-.935-1.753zm-6.956 5.961v.701l.118.701h2.278a4.26 4.26 0 0 1-.056-.701v-.701-.701c0-.234.019-.468.056-.701h-2.276l-.118.701zm1.403 4.209c.741.935 1.597 1.618 2.572 2.046l-.526-.935-.41-1.111zm1.637-8.417l.41-1.051a8.02 8.02 0 0 1 .526-.993c-.973.428-1.831 1.109-2.572 2.045zm3.917 10.172c.195-.273.352-.546.468-.819l.468-.935h-1.812zm1.755-4.56a2.24 2.24 0 0 0 .116-.701v-.701-.701a2.14 2.14 0 0 0-.118-.701h-3.445a2.21 2.21 0 0 0-.118.701v1.403a2.19 2.19 0 0 0 .118.701h3.449zm1.285 4.852c.973-.43 1.833-1.111 2.572-2.046h-1.637l-.468 1.111a5.23 5.23 0 0 1-.468.935zm3.859-4.852c.037-.234.056-.468.056-.701.077-.465.077-.939 0-1.403 0-.234-.019-.468-.056-.701h-2.282a4.04 4.04 0 0 1 .06.701v1.403c0 .234-.019.468-.058.701z" fill="url(#A)"/>
</svg>