<?xml version="1.0" standalone="no"?>
<svg contentScriptType="text/ecmascript" zoomAndPan="magnify" xmlns:rdf="http://www.w3.org/1999/02/22-rdf-syntax-ns#"
    xmlns:xlink="http://www.w3.org/1999/xlink" xmlns:svg="http://www.w3.org/2000/svg" baseProfile="full"
    contentStyleType="text/css" id="svg903" sodipodi:docname="ACLRules.svg" style=
    "font-size:12px;overflow:visible;color-interpolation-filters:sRGB;fill:none;fill-rule:evenodd;stroke-linecap:square;stroke-miterlimit:3"
    version="1.1" width="1.0416666in" xml:space="preserve" xmlns:sodipodi="http://sodipodi.sourceforge.net/DTD/sodipodi-0.dtd"
    xmlns:dc="http://purl.org/dc/elements/1.1/" xmlns:inkscape="http://www.inkscape.org/namespaces/inkscape" xmlns:cc="http://creativecommons.org/ns#"
    preserveAspectRatio="xMidYMid meet" inkscape:version="0.92.3 (2405546, 2018-03-11)" viewBox="0 0 74.99995 74.999941"
    height="1.0416666in" class="st2" xmlns="http://www.w3.org/2000/svg">     
    <circle fill="#e2002f" r="37.499973" cx="37.499973" cy="37.499973"/>               
    <path fill="#ffffff" d="m 27.682102,43.556497 c -2.793488,0 -5.161955,1.962769 -5.806637,4.570309 h -6.146479 v 
        2.833006 h 6.146479 c 0.645366,2.607012 3.013828,4.570309 5.806637,4.570309 2.79276,0 5.162265,-1.963365 
        5.808101,-4.570309 H 60.885691 V 48.126806 H 33.491668 c -0.645023,-2.60765 -3.016,-4.570309 -5.809566,-4.570309 
        z m 0,4.250973 c 0.983398,0 1.735839,0.750975 1.735839,1.734374 0,0.983398 -0.752441,1.737303 -1.735839,1.737303 
        -0.983399,0 -1.734373,-0.753905 -1.734373,-1.737303 0,-0.983399 0.750974,-1.734374 1.734373,-1.734374 z M 
        49.048297,31.411055 c -2.792808,0 -5.16127,1.962253 -5.806637,4.568844 H 15.728986 v 2.835936 H 43.24166 c 
        0.645673,2.606167 3.014132,4.567379 5.806637,4.567379 2.792456,0 5.161958,-1.96128 5.808101,-4.567379 h 6.029293 
        v -2.835936 h -6.029293 c -0.645837,-2.606522 -3.015342,-4.568844 -5.808101,-4.568844 z m 0,4.252438 c 
        0.983398,0 1.735839,0.750976 1.735839,1.734374 0,0.983398 -0.752441,1.734374 -1.735839,1.734374 -0.983398,0 
        -1.734374,-0.750976 -1.734374,-1.734374 0,-0.983398 0.750976,-1.734374 1.734374,-1.734374 z M 27.682102,19.26415 
        c -2.793488,0 -5.161955,1.96277 -5.806637,4.570309 h -6.146479 v 2.833006 h 6.146479 c 0.645366,2.607013 
        3.013828,4.570309 5.806637,4.570309 2.792759,0 5.162264,-1.963365 5.808101,-4.570309 H 60.885691 V 23.834459 H 
        33.491667 C 32.846645,21.226809 30.475668,19.26415 27.682102,19.26415 Z m 0,4.250974 c 0.983398,0 
        1.735838,0.750975 1.735838,1.734373 0,0.983398 -0.75244,1.737304 -1.735838,1.737304 -0.983399,0 
        -1.734374,-0.753906 -1.734374,-1.737304 0,-0.983398 0.750975,-1.734373 1.734374,-1.734373 z"/></svg>