<?xml version="1.0" encoding="UTF-8" standalone="no"?>
<!-- Created with Inkscape (http://www.inkscape.org/) -->

<svg
   xmlns:dc="http://purl.org/dc/elements/1.1/"
   xmlns:cc="http://creativecommons.org/ns#"
   xmlns:rdf="http://www.w3.org/1999/02/22-rdf-syntax-ns#"
   xmlns:svg="http://www.w3.org/2000/svg"
   xmlns="http://www.w3.org/2000/svg"
   xmlns:sodipodi="http://sodipodi.sourceforge.net/DTD/sodipodi-0.dtd"
   xmlns:inkscape="http://www.inkscape.org/namespaces/inkscape"
   width="196.42876mm"
   height="196.42876mm"
   viewBox="0 0 196.42876 196.42876"
   version="1.1"
   id="svg1355"
   inkscape:version="0.92.3 (2405546, 2018-03-11)"
   sodipodi:docname="Cloud_tag.svg">
  <defs
     id="defs1349" />
  <sodipodi:namedview
     id="base"
     pagecolor="#ffffff"
     bordercolor="#666666"
     borderopacity="1.0"
     inkscape:pageopacity="0.0"
     inkscape:pageshadow="2"
     inkscape:zoom="0.7"
     inkscape:cx="426.48853"
     inkscape:cy="241.25326"
     inkscape:document-units="mm"
     inkscape:current-layer="layer1"
     showgrid="false"
     inkscape:window-width="1920"
     inkscape:window-height="1017"
     inkscape:window-x="-8"
     inkscape:window-y="-8"
     inkscape:window-maximized="1"
     fit-margin-top="0"
     fit-margin-left="0"
     fit-margin-right="0"
     fit-margin-bottom="0" />
  <metadata
     id="metadata1352">
    <rdf:RDF>
      <cc:Work
         rdf:about="">
        <dc:format>image/svg+xml</dc:format>
        <dc:type
           rdf:resource="http://purl.org/dc/dcmitype/StillImage" />
        <dc:title></dc:title>
      </cc:Work>
    </rdf:RDF>
  </metadata>
  <g
     inkscape:label="Layer 1"
     inkscape:groupmode="layer"
     id="layer1"
     transform="translate(-7.5486803,-50.007427)">
    <rect
       style="opacity:1;vector-effect:none;fill:#4c7bb4;fill-opacity:0.9748744;stroke:none;stroke-width:1.28708541;stroke-linecap:round;stroke-linejoin:miter;stroke-miterlimit:3;stroke-dasharray:none;stroke-dashoffset:17.00787544;stroke-opacity:1;paint-order:normal"
       id="rect1368"
       width="196.42876"
       height="196.42876"
       x="7.5486803"
       y="50.007427"
       rx="8.3668938"
       ry="8.3668938" />
    <path
       id="path1382"
       style="color:#000000;font-style:normal;font-variant:normal;font-weight:normal;font-stretch:normal;font-size:medium;line-height:normal;font-family:sans-serif;font-variant-ligatures:normal;font-variant-position:normal;font-variant-caps:normal;font-variant-numeric:normal;font-variant-alternates:normal;font-feature-settings:normal;text-indent:0;text-align:start;text-decoration:none;text-decoration-line:none;text-decoration-style:solid;text-decoration-color:#000000;letter-spacing:normal;word-spacing:normal;text-transform:none;writing-mode:lr-tb;direction:ltr;text-orientation:mixed;dominant-baseline:auto;baseline-shift:baseline;text-anchor:start;white-space:normal;shape-padding:0;clip-rule:nonzero;display:inline;overflow:visible;visibility:visible;opacity:1;isolation:auto;mix-blend-mode:normal;color-interpolation:sRGB;color-interpolation-filters:linearRGB;solid-color:#000000;solid-opacity:1;vector-effect:none;fill:#ffffff;fill-opacity:1;fill-rule:nonzero;stroke:none;stroke-width:5;stroke-linecap:butt;stroke-linejoin:miter;stroke-miterlimit:4;stroke-dasharray:none;stroke-dashoffset:0;stroke-opacity:1;color-rendering:auto;image-rendering:auto;shape-rendering:auto;text-rendering:auto;enable-background:accumulate"
       d="m 182.79688,112.16016 -20.1211,14.38476 2.9082,4.06836 20.11914,-14.38672 z m -32.3125,-33.507816 -11.96485,22.103516 4.39649,2.37891 11.96679,-22.101567 z M 106.29102,66.457031 v 25.707031 h 5 V 66.457031 Z m -38.371098,11.408203 -4.435547,2.306641 12.738281,24.480465 4.435547,-2.30664 z M 35.875,112.25781 33,116.34961 l 20.945312,14.71875 2.875,-4.0918 z m 75.92773,-7.01758 c -9.44965,-0.59116 -18.673152,1.86766 -26.640621,6.25196 l -0.02734,0.0137 -0.02734,0.0156 c -12.65574,7.38395 -20.178625,17.98786 -24.1875,29.48633 -4.008875,11.49848 -4.59347,23.88199 -3.691406,35.23828 l 4.984375,-0.39648 c -0.865486,-10.8958 -0.261435,-22.61579 3.427734,-33.19727 3.687553,-10.57684 10.367783,-20.02509 21.972656,-26.80078 14.504682,-7.96533 32.672322,-9.08879 48.884772,5.1875 l 3.30468,-3.7539 c -8.8741,-7.81432 -18.55034,-11.45376 -28,-12.04493 z m 37.49805,26.54102 c -18.03395,0 -30.34247,12.51793 -35.59375,21.24414 l 4.28516,2.57813 c 4.54814,-7.5578 15.62574,-18.82227 31.30859,-18.82227 8.32818,0 16.40459,4.80201 22.46875,12.59766 6.06416,7.79564 9.99414,18.49733 9.99414,29.69336 0,10.80856 -4.31459,20.84965 -10.33008,28.12695 -6.01548,7.2773 -13.71276,11.61133 -19.86523,11.61133 H 62.933594 c -7.56211,0 -14.401362,-4.69948 -19.408203,-11.00586 -5.006842,-6.30638 -7.953125,-14.20863 -7.953125,-19.09571 0,-14.24036 4.85913,-21.96501 13.734375,-31.98046 l -3.742188,-3.31641 c -9.154682,10.33079 -14.992187,19.8553 -14.992187,35.29687 0,6.71151 3.404791,15.11088 9.037109,22.20508 5.632318,7.0942 13.722728,12.89649 23.324219,12.89649 h 88.634766 c 8.36788,0 17.01685,-5.31809 23.71875,-13.42578 6.7019,-8.1077 11.47656,-19.18336 11.47656,-31.3125 0,-12.35653 -4.27042,-24.05237 -11.04687,-32.76368 -6.77645,-8.7113 -16.18105,-14.52734 -26.41602,-14.52734 z"
       inkscape:connector-curvature="0" />
  </g>
</svg>
