<?xml version="1.0" encoding="UTF-8" standalone="no"?>
<!-- Created with Inkscape (http://www.inkscape.org/) -->

<svg
   xmlns:dc="http://purl.org/dc/elements/1.1/"
   xmlns:cc="http://creativecommons.org/ns#"
   xmlns:rdf="http://www.w3.org/1999/02/22-rdf-syntax-ns#"
   xmlns:svg="http://www.w3.org/2000/svg"
   xmlns="http://www.w3.org/2000/svg"
   xmlns:sodipodi="http://sodipodi.sourceforge.net/DTD/sodipodi-0.dtd"
   xmlns:inkscape="http://www.inkscape.org/namespaces/inkscape"
   width="166.89571mm"
   height="132.54375mm"
   viewBox="0 0 166.89571 132.54375"
   version="1.1"
   id="svg1355"
   inkscape:version="0.92.3 (2405546, 2018-03-11)"
   sodipodi:docname="Enterprise2.svg">
  <defs
     id="defs1349" />
  <sodipodi:namedview
     id="base"
     pagecolor="#ffffff"
     bordercolor="#666666"
     borderopacity="1.0"
     inkscape:pageopacity="0.0"
     inkscape:pageshadow="2"
     inkscape:zoom="0.49497475"
     inkscape:cx="36.243853"
     inkscape:cy="32.893106"
     inkscape:document-units="mm"
     inkscape:current-layer="layer1"
     showgrid="false"
     inkscape:window-width="1920"
     inkscape:window-height="1017"
     inkscape:window-x="-8"
     inkscape:window-y="-8"
     inkscape:window-maximized="1"
     fit-margin-top="0"
     fit-margin-left="0"
     fit-margin-right="0"
     fit-margin-bottom="0" />
  <metadata
     id="metadata1352">
    <rdf:RDF>
      <cc:Work
         rdf:about="">
        <dc:format>image/svg+xml</dc:format>
        <dc:type
           rdf:resource="http://purl.org/dc/dcmitype/StillImage" />
        <dc:title></dc:title>
      </cc:Work>
    </rdf:RDF>
  </metadata>
  <g
     inkscape:label="Layer 1"
     inkscape:groupmode="layer"
     id="layer1"
     transform="translate(-22.369279,-82.421456)">
    <path
       id="path3121-65-4-2-0"
       style="opacity:1;fill:#2c6dad;fill-opacity:1;stroke:none;stroke-width:1.32291663;stroke-linecap:butt;stroke-linejoin:miter;stroke-miterlimit:4;stroke-dasharray:none;stroke-opacity:1"
       d="m 51.242639,145.75006 h 10.69078 V 133.5893 h -10.69078 z m 0,21.2794 h 10.69078 V 154.8687 h -10.69078 z m 0,21.2794 h 10.69078 V 176.1481 h -10.69078 z m -21.70138,-42.55881 h 10.69079 v -12.16076 h -10.69079 z m 0,21.2794 h 10.69079 v -12.16076 h -10.69079 z m 0,21.2794 h 10.69079 v -12.16076 h -10.69079 z m -7.17198,26.65635 v -87.37519 h 47.01246 v 87.37519 h -18.77568 v -19.10978 h -9.52149 V 214.9652 Z M 171.12588,124.47066 h 10.69078 V 112.3099 h -10.69078 z m 0,21.2794 h 10.69078 V 133.5893 h -10.69078 z m 0,21.2794 h 10.69078 V 154.8687 h -10.69078 z m 0,21.2794 h 10.69078 V 176.1481 H 171.12588 Z M 149.4245,124.47065 h 10.69079 V 112.30989 H 149.4245 Z m 0,21.2794 h 10.69079 V 133.58929 H 149.4245 Z m 0,21.2794 h 10.69079 V 154.86869 H 149.4245 Z m 0,21.2794 h 10.69079 V 176.14809 H 149.4245 Z m -7.17198,26.65635 V 105.94118 h 47.01246 V 214.9652 H 170.4893 v -19.10978 h -9.52149 V 214.9652 Z M 121.89418,103.19128 h 10.69078 V 91.030507 h -10.69078 z m 0,21.27938 h 10.69078 V 112.3099 h -10.69078 z m 0,21.27939 h 10.69078 v -12.16076 h -10.69078 z m 0,21.27941 h 10.69078 v -12.16077 h -10.69078 z m 0,21.2794 h 10.69078 V 176.14809 H 121.89418 Z M 100.1928,103.19128 h 10.69078 V 91.030505 H 100.1928 Z m 0,21.27938 h 10.69078 V 112.3099 H 100.1928 Z m 0,21.2794 h 10.69078 V 133.5893 H 100.1928 Z m 0,21.2794 h 10.69078 V 154.8687 H 100.1928 Z m 0,21.2794 h 10.69078 V 176.1481 H 100.1928 Z M 78.491427,103.19127 H 89.182209 V 91.030509 H 78.491427 Z m 0,21.27938 H 89.182209 V 112.30989 H 78.491427 Z m 0,21.2794 H 89.182209 V 133.58929 H 78.491427 Z m 10e-7,21.2794 H 89.18221 V 154.86869 H 78.491428 Z m -10e-7,21.2794 H 89.182209 V 176.14809 H 78.491427 Z M 71.319443,214.9652 V 82.421456 H 140.248 V 214.9652 h -23.72017 v -19.10978 h -8.88671 v 19.10978 h -3.00678 v -19.10978 h -9.521482 v 19.10978 z"
       inkscape:connector-curvature="0" />
  </g>
</svg>
