<svg xmlns="http://www.w3.org/2000/svg" width="742.409" height="742.409" viewBox="0 0 196.429 196.429"><rect width="196.429" height="196.429" rx="8.367" fill="#4c7bb4" paint-order="normal"/><path d="M43.694 95.743h10.69v-12.16h-10.69zm0 21.28h10.69v-12.16h-10.69zm0 21.28h10.69v-12.16h-10.69zm-21.7-42.56h10.69v-12.16h-10.69zm0 21.28h10.69v-12.16h-10.69zm0 21.28h10.69v-12.16h-10.69zm-7.172 26.656V77.583h47.012v87.375H43.057v-19.1h-9.52v19.1zm148.757-90.495h10.69v-12.16h-10.69zm0 21.28h10.69v-12.16h-10.69zm0 21.28h10.69v-12.16h-10.69zm0 21.28h10.69v-12.16h-10.69zm-21.7-63.838h10.69v-12.16h-10.69zm0 21.28h10.69v-12.16h-10.69zm0 21.28h10.69v-12.16h-10.69zm0 21.28h10.69v-12.16h-10.69zm-7.172 26.656V55.934h47.012v109.024H162.94v-19.1h-9.52v19.1zM114.345 53.184h10.69v-12.16h-10.69zm0 21.28h10.69v-12.16h-10.69zm0 21.28h10.69v-12.16h-10.69zm0 21.28h10.69v-12.16h-10.69zm0 21.28h10.69v-12.16h-10.69zm-21.7-85.118h10.69v-12.16h-10.69zm0 21.28h10.69v-12.16h-10.69zm0 21.28h10.69v-12.16h-10.69zm0 21.28h10.69v-12.16h-10.69zm0 21.28h10.69v-12.16h-10.69zm-21.7-85.118h10.69v-12.16h-10.69zm0 21.28h10.69v-12.16h-10.69zm0 21.28h10.69v-12.16h-10.69zm0 21.28h10.69v-12.16h-10.69zm0 21.28h10.69v-12.16h-10.69zm-7.172 26.656V32.414h68.93v132.544h-23.72v-19.1h-8.887v19.1h-3.007v-19.1h-9.52v19.1z" fill="#fff"/></svg>