<?xml version="1.0" encoding="UTF-8" standalone="no"?>
<svg
   xmlns:dc="http://purl.org/dc/elements/1.1/"
   xmlns:cc="http://creativecommons.org/ns#"
   xmlns:rdf="http://www.w3.org/1999/02/22-rdf-syntax-ns#"
   xmlns:svg="http://www.w3.org/2000/svg"
   xmlns="http://www.w3.org/2000/svg"
   xmlns:sodipodi="http://sodipodi.sourceforge.net/DTD/sodipodi-0.dtd"
   xmlns:inkscape="http://www.inkscape.org/namespaces/inkscape"
   contentScriptType="text/ecmascript"
   zoomAndPan="magnify"
   contentStyleType="text/css"
   id="svg903"
   sodipodi:docname="InternetServices2.svg"
   style="font-size:12px;overflow:visible;color-interpolation-filters:sRGB;fill:none;fill-rule:evenodd;stroke-linecap:square;stroke-miterlimit:3"
   version="1.1"
   width="1.0416666in"
   xml:space="preserve"
   preserveAspectRatio="xMidYMid meet"
   inkscape:version="0.92.3 (2405546, 2018-03-11)"
   viewBox="0 0 74.99995 74.999941"
   height="1.0416666in"
   class="st2"><metadata
   id="metadata1210"><rdf:RDF><cc:Work
       rdf:about=""><dc:format>image/svg+xml</dc:format><dc:type
         rdf:resource="http://purl.org/dc/dcmitype/StillImage" /><dc:title></dc:title></cc:Work></rdf:RDF></metadata><defs
   id="defs1208" /><sodipodi:namedview
   pagecolor="#ffffff"
   bordercolor="#666666"
   borderopacity="1"
   objecttolerance="10"
   gridtolerance="10"
   guidetolerance="10"
   inkscape:pageopacity="0"
   inkscape:pageshadow="2"
   inkscape:window-width="1920"
   inkscape:window-height="1017"
   id="namedview1206"
   showgrid="false"
   inkscape:zoom="4.3350002"
   inkscape:cx="28.300253"
   inkscape:cy="52.762648"
   inkscape:window-x="-8"
   inkscape:window-y="-8"
   inkscape:window-maximized="1"
   inkscape:current-layer="svg903" />     
    <circle
   fill="#e2002f"
   r="37.499973"
   cx="37.499973"
   cy="37.499973"
   id="circle1201"
   style="fill:#92c24b;fill-opacity:1;opacity:1" />               
    <path
   style="color:#000000;font-style:normal;font-variant:normal;font-weight:normal;font-stretch:normal;font-size:medium;line-height:normal;font-family:sans-serif;font-variant-ligatures:normal;font-variant-position:normal;font-variant-caps:normal;font-variant-numeric:normal;font-variant-alternates:normal;font-feature-settings:normal;text-indent:0;text-align:start;text-decoration:none;text-decoration-line:none;text-decoration-style:solid;text-decoration-color:#000000;letter-spacing:normal;word-spacing:normal;text-transform:none;writing-mode:lr-tb;direction:ltr;text-orientation:mixed;dominant-baseline:auto;baseline-shift:baseline;text-anchor:start;white-space:normal;shape-padding:0;clip-rule:nonzero;display:inline;overflow:visible;visibility:visible;opacity:1;isolation:auto;mix-blend-mode:normal;color-interpolation:sRGB;color-interpolation-filters:linearRGB;solid-color:#000000;solid-opacity:1;vector-effect:none;fill:#ffffff;fill-opacity:1;fill-rule:nonzero;stroke:none;stroke-width:3.54126549;stroke-linecap:butt;stroke-linejoin:miter;stroke-miterlimit:3;stroke-dasharray:none;stroke-dashoffset:0;stroke-opacity:1;color-rendering:auto;image-rendering:auto;shape-rendering:auto;text-rendering:auto;enable-background:accumulate"
   d="m 32.063668,11.572258 c -8.036826,0 -14.300875,5.950401 -15.664797,12.546758 -7.2786092,1.292187 -12.3046357,7.906265 -12.3046357,14.079736 0,9.403294 7.2685307,15.605673 15.7858577,15.605673 h 0.0028 l 19.036219,-0.07742 c 1.893687,0.94483 3.911847,1.4457 5.851775,1.4457 4.944629,0 8.966468,-1.793852 11.669768,-4.636938 0.404369,-0.42528 0.775527,-0.875167 1.120522,-1.34153 l 0.360369,0.233677 a 5.2315876,5.2315876 0 0 0 -0.449054,2.112946 5.2315876,5.2315876 0 0 0 5.230984,5.230983 5.2315876,5.2315876 0 0 0 5.232391,-5.230983 5.2315876,5.2315876 0 0 0 -5.232391,-5.232392 5.2315876,5.2315876 0 0 0 -3.705045,1.544238 l -0.418085,-0.271684 c 1.27951,-2.314715 1.94543,-4.955593 1.94543,-7.664884 0,-3.608083 -1.262959,-6.672683 -3.177161,-9.037382 l 1.514677,-1.013538 a 5.2315876,5.2315876 0 0 0 3.545977,1.395023 5.2315876,5.2315876 0 0 0 5.23239,-5.230984 5.2315876,5.2315876 0 0 0 -5.23239,-5.232391 5.2315876,5.2315876 0 0 0 -5.230984,5.232391 5.2315876,5.2315876 0 0 0 0.539146,2.307207 l -1.669523,1.1163 C 53.800745,27.328093 50.995142,26.10732 48.178926,25.484477 47.182449,16.707263 39.399437,11.572258 32.063668,11.572258 Z m 0,3.540345 c 6.021289,0 12.516158,4.165431 12.757913,11.785197 l 0.04645,1.497784 1.485115,0.199893 c 2.296199,0.31071 4.722353,1.311184 6.64853,2.895622 l -5.325299,3.562869 a 5.2315876,5.2315876 0 0 0 -3.724753,-1.559723 5.2315876,5.2315876 0 0 0 -5.230984,5.230984 5.2315876,5.2315876 0 0 0 5.230984,5.23239 5.2315876,5.2315876 0 0 0 3.48263,-1.335899 l 7.153891,4.642568 c -0.222599,0.288374 -0.460296,0.565511 -0.712292,0.830539 -2.025259,2.129983 -4.995454,3.536122 -9.104953,3.536122 -4.142573,0 -9.859062,-3.748685 -10.842043,-10.335275 l -3.502338,0.523661 c 0.504638,3.381393 1.959345,6.206462 3.910568,8.384214 l -14.456997,0.06194 c -6.891533,0 -12.2441045,-4.410058 -12.2441045,-12.066735 0,-4.60727 4.8122675,-10.768844 11.3403665,-10.768844 5.853054,0 9.636384,3.748416 11.037713,7.380529 l 3.305261,-1.276777 c -1.787799,-4.633687 -6.452881,-9.139559 -13.209781,-9.599052 1.422564,-4.514524 6.108396,-8.822005 11.95412,-8.822005 z m 22.34148,17.735511 c 1.574949,1.809546 2.580299,4.124515 2.580299,7.068021 0,2.0601 -0.479165,4.023401 -1.37813,5.736346 l -7.003268,-4.542623 a 5.2315876,5.2315876 0 0 0 0.579969,-2.384629 5.2315876,5.2315876 0 0 0 -0.442015,-2.089016 z"
   id="path1309"
   inkscape:connector-curvature="0" /></svg>