<?xml version="1.0" encoding="UTF-8" standalone="no"?>
<!-- Created with Inkscape (http://www.inkscape.org/) -->

<svg
   xmlns:dc="http://purl.org/dc/elements/1.1/"
   xmlns:cc="http://creativecommons.org/ns#"
   xmlns:rdf="http://www.w3.org/1999/02/22-rdf-syntax-ns#"
   xmlns:svg="http://www.w3.org/2000/svg"
   xmlns="http://www.w3.org/2000/svg"
   xmlns:sodipodi="http://sodipodi.sourceforge.net/DTD/sodipodi-0.dtd"
   xmlns:inkscape="http://www.inkscape.org/namespaces/inkscape"
   width="196.42876mm"
   height="196.42876mm"
   viewBox="0 0 196.42876 196.42876"
   version="1.1"
   id="svg1355"
   inkscape:version="0.92.3 (2405546, 2018-03-11)"
   sodipodi:docname="VPC_tag.svg">
  <defs
     id="defs1349" />
  <sodipodi:namedview
     id="base"
     pagecolor="#ffffff"
     bordercolor="#666666"
     borderopacity="1.0"
     inkscape:pageopacity="0.0"
     inkscape:pageshadow="2"
     inkscape:zoom="0.98994949"
     inkscape:cx="336.33391"
     inkscape:cy="360.80692"
     inkscape:document-units="mm"
     inkscape:current-layer="layer1"
     showgrid="false"
     inkscape:window-width="1920"
     inkscape:window-height="1017"
     inkscape:window-x="-8"
     inkscape:window-y="-8"
     inkscape:window-maximized="1"
     fit-margin-top="0"
     fit-margin-left="0"
     fit-margin-right="0"
     fit-margin-bottom="0" />
  <metadata
     id="metadata1352">
    <rdf:RDF>
      <cc:Work
         rdf:about="">
        <dc:format>image/svg+xml</dc:format>
        <dc:type
           rdf:resource="http://purl.org/dc/dcmitype/StillImage" />
        <dc:title></dc:title>
      </cc:Work>
    </rdf:RDF>
  </metadata>
  <g
     inkscape:label="Layer 1"
     inkscape:groupmode="layer"
     id="layer1"
     transform="translate(-7.5486803,-50.007427)">
    <rect
       style="opacity:1;vector-effect:none;fill:#4c7bb4;fill-opacity:0.9748744;stroke:none;stroke-width:1.28708541;stroke-linecap:round;stroke-linejoin:miter;stroke-miterlimit:3;stroke-dasharray:none;stroke-dashoffset:17.00787544;stroke-opacity:1;paint-order:normal"
       id="rect1368"
       width="196.42876"
       height="196.42876"
       x="7.5486803"
       y="50.007427"
       rx="8.3668938"
       ry="8.3668938" />
    <path
       style="color:#000000;font-style:normal;font-variant:normal;font-weight:normal;font-stretch:normal;font-size:medium;line-height:normal;font-family:sans-serif;font-variant-ligatures:normal;font-variant-position:normal;font-variant-caps:normal;font-variant-numeric:normal;font-variant-alternates:normal;font-feature-settings:normal;text-indent:0;text-align:start;text-decoration:none;text-decoration-line:none;text-decoration-style:solid;text-decoration-color:#000000;letter-spacing:normal;word-spacing:normal;text-transform:none;writing-mode:lr-tb;direction:ltr;text-orientation:mixed;dominant-baseline:auto;baseline-shift:baseline;text-anchor:start;white-space:normal;shape-padding:0;clip-rule:nonzero;display:inline;overflow:visible;visibility:visible;opacity:1;isolation:auto;mix-blend-mode:normal;color-interpolation:sRGB;color-interpolation-filters:linearRGB;solid-color:#000000;solid-opacity:1;vector-effect:none;fill:#ffffff;fill-opacity:1;fill-rule:nonzero;stroke:none;stroke-width:18.89763832;stroke-linecap:butt;stroke-linejoin:miter;stroke-miterlimit:4;stroke-dasharray:none;stroke-dashoffset:0;stroke-opacity:1;color-rendering:auto;image-rendering:auto;shape-rendering:auto;text-rendering:auto;enable-background:accumulate"
       d="M 373.19922 62.171875 L 373.19922 159.33203 L 392.09766 159.33203 L 392.09766 62.171875 L 373.19922 62.171875 z M 228.17383 105.28906 L 211.41016 114.00781 L 259.55469 206.53125 L 276.32031 197.81445 L 228.17383 105.28906 z M 540.22852 108.26367 L 495.00781 191.80469 L 511.625 200.79688 L 556.85352 117.26367 L 540.22852 108.26367 z M 384.01172 208.42578 C 351.82105 208.32586 320.63195 217.36572 293.3418 232.38281 L 293.23828 232.43555 L 293.13477 232.49414 C 245.30205 260.40198 216.8704 300.48067 201.71875 343.93945 C 186.5671 387.39828 184.35625 434.20164 187.76562 477.12305 L 206.60547 475.625 C 203.33434 434.44402 205.61723 390.14729 219.56055 350.1543 C 233.49776 310.17884 258.74453 274.46828 302.60547 248.85938 C 357.42631 218.75419 426.09179 214.50917 487.36719 268.4668 L 499.85742 254.27734 C 466.31752 224.74291 429.7465 210.98825 394.03125 208.75391 C 390.68295 208.54444 387.34179 208.43612 384.01172 208.42578 z M 662.35547 234.9082 L 586.30664 289.27539 L 597.29883 304.65234 L 673.33984 250.27734 L 662.35547 234.9082 z M 107.06055 235.27734 L 96.193359 250.74219 L 175.35742 306.37109 L 186.22266 290.90625 L 107.06055 235.27734 z M 390.08594 304.08008 C 348.8476 304.08008 311.29688 334.54915 311.29688 385.9082 L 311.29688 429.58789 L 291.73828 429.58789 L 291.73828 585.09375 L 486.22266 585.09375 L 486.22266 429.58789 L 467.21484 429.58789 L 467.21484 387.15234 C 467.21484 374.45516 464.92361 362.93337 460.86328 352.78516 C 480.87976 338.59 506.14542 327.96484 535.75586 327.96484 C 567.23245 327.96484 597.75807 346.11425 620.67773 375.57812 C 643.59739 405.04196 658.45117 445.48898 658.45117 487.80469 C 658.45117 528.65594 642.14391 566.60657 619.4082 594.11133 C 596.67253 621.61608 567.5796 637.99609 544.32617 637.99609 L 209.32812 637.99609 C 180.74692 637.99609 154.8981 620.23357 135.97461 596.39844 C 117.05111 572.5633 105.91602 542.69742 105.91602 524.22656 C 105.91602 470.40473 124.28194 441.20914 157.82617 403.35547 L 143.68164 390.82031 C 109.08127 429.86582 87.017578 465.86472 87.017578 524.22656 C 87.017578 549.5929 99.886327 581.33767 121.17383 608.15039 C 142.46133 634.96312 173.03903 656.89453 209.32812 656.89453 L 544.32617 656.89453 C 575.9528 656.89453 608.64264 636.79363 633.97266 606.15039 C 659.30267 575.50712 677.34766 533.64711 677.34766 487.80469 C 677.34766 441.10284 661.20748 396.89729 635.5957 363.97266 C 609.98392 331.04806 574.43921 309.06641 535.75586 309.06641 C 502.317 309.06641 474.10183 320.46524 451.67383 335.96094 C 437.17778 315.66525 414.22158 304.08008 390.08594 304.08008 z M 388.42578 329.92773 C 404.86309 329.92773 421.14166 337.92722 431.16992 352.56641 C 418.14214 364.84609 408.08946 377.95834 401.22852 389.35938 L 417.42383 399.10352 C 422.57673 390.54076 429.96334 380.72039 439.35547 371.16406 C 440.52539 376.01987 441.16016 381.2636 441.16016 386.87695 L 441.16016 429.58789 L 336.66016 429.58789 L 336.66016 383.2832 C 336.66016 352.10259 363.34057 329.92773 388.42578 329.92773 z M 445.96875 453.05469 A 8.6600935 8.6600935 0 0 1 451.80078 467.74805 L 377.02539 546.74805 L 328.70898 496.85352 A 8.6647117 8.6647117 0 1 1 341.15625 484.79688 L 376.89062 521.70312 L 439.21875 455.8418 A 8.6600935 8.6600935 0 0 1 445.09766 453.06055 A 8.6600935 8.6600935 0 0 1 445.96875 453.05469 z "
       transform="matrix(0.26458333,0,0,0.26458333,7.5486803,50.007427)"
       id="path1382" />
  </g>
</svg>
