<?xml version="1.0" encoding="UTF-8" standalone="no"?>
<!-- Created with Inkscape (http://www.inkscape.org/) -->

<svg
   xmlns:dc="http://purl.org/dc/elements/1.1/"
   xmlns:cc="http://creativecommons.org/ns#"
   xmlns:rdf="http://www.w3.org/1999/02/22-rdf-syntax-ns#"
   xmlns:svg="http://www.w3.org/2000/svg"
   xmlns="http://www.w3.org/2000/svg"
   xmlns:sodipodi="http://sodipodi.sourceforge.net/DTD/sodipodi-0.dtd"
   xmlns:inkscape="http://www.inkscape.org/namespaces/inkscape"
   width="196.42876mm"
   height="196.42876mm"
   viewBox="0 0 196.42876 196.42876"
   version="1.1"
   id="svg1355"
   inkscape:version="0.92.3 (2405546, 2018-03-11)"
   sodipodi:docname="Zone_tag.svg">
  <defs
     id="defs1349" />
  <sodipodi:namedview
     id="base"
     pagecolor="#ffffff"
     bordercolor="#666666"
     borderopacity="1.0"
     inkscape:pageopacity="0.0"
     inkscape:pageshadow="2"
     inkscape:zoom="0.49497475"
     inkscape:cx="86.359732"
     inkscape:cy="420.30225"
     inkscape:document-units="mm"
     inkscape:current-layer="layer1"
     showgrid="false"
     inkscape:window-width="1920"
     inkscape:window-height="1017"
     inkscape:window-x="-8"
     inkscape:window-y="-8"
     inkscape:window-maximized="1"
     fit-margin-top="0"
     fit-margin-left="0"
     fit-margin-right="0"
     fit-margin-bottom="0" />
  <metadata
     id="metadata1352">
    <rdf:RDF>
      <cc:Work
         rdf:about="">
        <dc:format>image/svg+xml</dc:format>
        <dc:type
           rdf:resource="http://purl.org/dc/dcmitype/StillImage" />
        <dc:title></dc:title>
      </cc:Work>
    </rdf:RDF>
  </metadata>
  <g
     inkscape:label="Layer 1"
     inkscape:groupmode="layer"
     id="layer1"
     transform="translate(-7.5486803,-50.007427)">
    <rect
       style="opacity:1;vector-effect:none;fill:#168733;fill-opacity:1;stroke:none;stroke-width:1.28708541;stroke-linecap:round;stroke-linejoin:miter;stroke-miterlimit:3;stroke-dasharray:none;stroke-dashoffset:17.00787544;stroke-opacity:1;paint-order:normal"
       id="rect1368"
       width="196.42876"
       height="196.42876"
       x="7.5486803"
       y="50.007427"
       rx="8.3668938"
       ry="8.3668938" />
    <path
       style="color:#000000;font-style:normal;font-variant:normal;font-weight:normal;font-stretch:normal;font-size:medium;line-height:normal;font-family:sans-serif;font-variant-ligatures:normal;font-variant-position:normal;font-variant-caps:normal;font-variant-numeric:normal;font-variant-alternates:normal;font-feature-settings:normal;text-indent:0;text-align:start;text-decoration:none;text-decoration-line:none;text-decoration-style:solid;text-decoration-color:#000000;letter-spacing:normal;word-spacing:normal;text-transform:none;writing-mode:lr-tb;direction:ltr;text-orientation:mixed;dominant-baseline:auto;baseline-shift:baseline;text-anchor:start;white-space:normal;shape-padding:0;clip-rule:nonzero;display:inline;overflow:visible;visibility:visible;opacity:1;isolation:auto;mix-blend-mode:normal;color-interpolation:sRGB;color-interpolation-filters:linearRGB;solid-color:#000000;solid-opacity:1;vector-effect:none;fill:#ffffff;fill-opacity:1;fill-rule:nonzero;stroke:none;stroke-width:30.23622131;stroke-linecap:butt;stroke-linejoin:miter;stroke-miterlimit:4;stroke-dasharray:none;stroke-dashoffset:0;stroke-opacity:1;color-rendering:auto;image-rendering:auto;shape-rendering:auto;text-rendering:auto;enable-background:accumulate"
       d="M 226.66797 92.289062 L 226.66797 107.4082 L 226.66797 163.24609 L 93.701172 163.24609 L 93.701172 178.36523 L 93.701172 594.19727 L 226.66797 594.19727 L 226.66797 626.8125 L 492.26172 626.8125 L 492.26172 594.19727 L 624.88672 594.19727 L 624.88672 163.24609 L 492.26172 163.24609 L 492.26172 92.289062 L 226.66797 92.289062 z M 256.9043 122.52539 L 462.02539 122.52539 L 462.02539 596.57617 L 256.9043 596.57617 L 256.9043 122.52539 z M 427.3457 162.02734 L 289.21484 162.67578 L 289.35547 192.91211 L 427.48633 192.25586 L 427.3457 162.02734 z M 123.9375 193.48242 L 226.66797 193.48242 L 226.66797 233.10547 L 156.24805 233.63281 L 156.38867 263.86914 L 226.66797 263.33789 L 226.66797 297.02148 L 156.43359 296.20117 L 156.21094 326.4375 L 226.66797 327.25977 L 226.66797 365.63672 L 156.26367 366.02734 L 156.37305 396.26367 L 226.66797 395.875 L 226.66797 563.96094 L 123.9375 563.96094 L 123.9375 193.48242 z M 492.26172 193.48242 L 594.65039 193.48242 L 594.65039 563.96094 L 492.26172 563.96094 L 492.26172 396.16602 L 560.0957 395.7832 L 559.99414 365.54688 L 492.26172 365.92773 L 492.26172 326.64648 L 559.93359 327.44922 L 560.15625 297.21289 L 492.26172 296.4082 L 492.26172 263.73438 L 560.11133 263.21289 L 559.9707 232.98242 L 492.26172 233.49805 L 492.26172 193.48242 z M 289.40039 225.24414 L 289.17969 255.48047 L 427.30859 256.49219 L 427.5293 226.25586 L 289.40039 225.24414 z M 427.36719 294.58984 L 289.23047 295.07031 L 289.3418 325.30664 L 427.4707 324.82617 L 427.36719 294.58984 z "
       transform="matrix(0.26458333,0,0,0.26458333,7.5486803,50.007427)"
       id="path2189" />
  </g>
</svg>
