<?xml version="1.0" encoding="utf-8"?>
<!-- Generator: Adobe Illustrator 21.1.0, SVG Export Plug-In . SVG Version: 6.00 Build 0)  -->
<svg version="1.1" id="Layer_1" xmlns="http://www.w3.org/2000/svg" xmlns:xlink="http://www.w3.org/1999/xlink" x="0px" y="0px"
	 viewBox="0 0 59.3 59.3" style="enable-background:new 0 0 59.3 59.3;" xml:space="preserve">
<style type="text/css">
	.st0{fill:#325C80;}
	.st1{fill:none;}
	.st2{fill:#FFFFFF;}
	.st3{fill:none;stroke:#FFFFFF;stroke-width:0.47;stroke-miterlimit:10;}
	.st4{fill:none;stroke:#FFFFFF;stroke-width:0.19;stroke-miterlimit:10;}
</style>
<title>INDIVIDUAL ICONS</title>
<circle class="st0" cx="29.7" cy="29.7" r="29.7"/>
<path class="st1" d="M41.4,33.1v-0.9c0-1.9-1.6-3.5-3.5-3.5c-1.9,0-3.5,1.6-3.5,3.5v0.9C36.6,31.9,39.3,31.9,41.4,33.1z"/>
<polygon class="st1" points="36.7,40.5 34.7,38.5 33.4,39.7 36.7,43 42.5,37.1 41.2,35.9 "/>
<ellipse class="st2" cx="24.3" cy="19.8" rx="9.2" ry="3.9"/>
<path class="st2" d="M32.7,34.5v-2.4c0-1.2,0.5-2.4,1.3-3.3v-7.7l0,0c-0.5,2.1-4.6,3.7-9.6,3.7s-9.1-1.6-9.5-3.6l0,0v15.2l0,0
	c0,2.2,4.3,4.1,9.6,4.1c2.3,0,4.5-0.3,6.6-1.1c0-0.1,0-0.2,0-0.3C31,37.4,31.6,35.8,32.7,34.5z"/>
<path class="st3" d="M30.8,39.4c0.1,3.8,3.3,6.8,7.2,6.7c3.8-0.1,6.8-3.3,6.7-7.2c-0.1-1.6-0.7-3.2-1.7-4.4v-2.4
	c0-2.9-2.4-5.2-5.2-5.2c-1.5,0-3,0.7-4,1.9 M34.2,32.2c0-1.9,1.6-3.5,3.5-3.5c1.9,0,3.5,1.6,3.5,3.5v0.9c-2.1-1.2-4.8-1.2-7,0V32.2z
	 M36.4,43l-3.2-3.2l1.2-1.2l2,2l4.6-4.6l1.2,1.2L36.4,43z"/>
<path class="st4" d="M34,28.9c-0.8,0.9-1.2,2.1-1.3,3.3v2.4c-1.1,1.3-1.7,2.9-1.7,4.6c0,0.1,0,0.2,0,0.3"/>
<polygon class="st2" points="34.4,38.5 36.4,40.5 41,35.9 42.2,37.1 36.4,43 33.2,39.7 "/>
</svg>
