<?xml version="1.0" encoding="utf-8"?>
<!-- Generator: Adobe Illustrator 21.1.0, SVG Export Plug-In . SVG Version: 6.00 Build 0)  -->
<svg version="1.1" id="Layer_1" xmlns="http://www.w3.org/2000/svg" xmlns:xlink="http://www.w3.org/1999/xlink" x="0px" y="0px"
	 viewBox="0 0 60.6 60.6" style="enable-background:new 0 0 60.6 60.6;" xml:space="preserve">
<style type="text/css">
	.st0{fill:#325C80;}
	.st1{fill:#FFFFFF;}
</style>
<title>INDIVIDUAL ICONS</title>
<circle class="st0" cx="30.3" cy="30.3" r="30.3"/>
<rect x="9.8" y="13" class="st1" width="41" height="34.7"/>
<rect x="11" y="14.1" class="st0" width="11.9" height="9.3"/>
<rect x="14.2" y="18.3" class="st1" width="5.4" height="1"/>
<rect x="23.7" y="14.1" class="st0" width="12.8" height="9.3"/>
<rect x="27.2" y="18.3" class="st1" width="5.9" height="1"/>
<rect x="38" y="14.1" class="st0" width="11.9" height="9.3"/>
<rect x="41.2" y="18.3" class="st1" width="5.4" height="1"/>
<rect x="38" y="24.5" class="st0" width="11.3" height="11.3"/>
<rect x="41.1" y="29.5" class="st1" width="5.2" height="1.2"/>
<rect x="10.7" y="24.5" class="st0" width="11.9" height="11.3"/>
<rect x="14" y="29.5" class="st1" width="5.4" height="1.2"/>
<rect x="23.7" y="24.5" class="st0" width="12.9" height="11.6"/>
<rect x="27.2" y="29.6" class="st1" width="5.9" height="1.3"/>
<rect x="11" y="37.2" class="st0" width="11.9" height="9.3"/>
<rect x="14.2" y="41.3" class="st1" width="5.4" height="1"/>
<rect x="23.7" y="37.2" class="st0" width="12.9" height="9.3"/>
<rect x="27.2" y="41.3" class="st1" width="5.9" height="1"/>
<rect x="38" y="37.2" class="st0" width="11.3" height="9.3"/>
<rect x="41.1" y="41.3" class="st1" width="5.2" height="1"/>
</svg>
