<?xml version="1.0" encoding="utf-8"?>
<!-- Generator: Adobe Illustrator 21.1.0, SVG Export Plug-In . SVG Version: 6.00 Build 0)  -->
<svg version="1.1" id="Layer_1" xmlns="http://www.w3.org/2000/svg" xmlns:xlink="http://www.w3.org/1999/xlink" x="0px" y="0px"
	 viewBox="0 0 59.9 59" style="enable-background:new 0 0 59.9 59;" xml:space="preserve">
<style type="text/css">
	.st0{fill:#325C80;}
	.st1{fill:none;stroke:#FFFFFF;stroke-width:3;stroke-miterlimit:10;}
	.st2{fill:#FFFFFF;stroke:#FFFFFF;stroke-width:2;stroke-miterlimit:10;}
</style>
<title>INDIVIDUAL ICONS</title>
<ellipse class="st0" cx="29.9" cy="29.5" rx="29.9" ry="29.5"/>
<ellipse class="st1" cx="30.1" cy="29.5" rx="14.4" ry="14.2"/>
<ellipse class="st2" cx="30.1" cy="29.5" rx="4.2" ry="4.1"/>
<ellipse class="st1" cx="29.9" cy="29.5" rx="22.2" ry="21.9"/>
<path class="st0" d="M43.2,36.1l8.9,2.5l-5.5,4.7l-1.3,2.3l-2,1l-4.8,5.9L36.4,43l-2.1-9.4L43.2,36.1z"/>
<polygon class="st0" points="51.9,48.4 48.5,51.7 42.5,45.6 45.9,42.3 "/>
<path class="st2" d="M44,43.7l-1.3,0.1L39.4,48l-1.5-6l-1.5-6.1l6.1,1.8l6.1,1.8l-4.4,3L44,43.7z"/>
<line class="st1" x1="44" y1="43.7" x2="49.6" y2="49.5"/>
</svg>
