<?xml version="1.0" encoding="utf-8"?>
<!-- Generator: Adobe Illustrator 21.1.0, SVG Export Plug-In . SVG Version: 6.00 Build 0)  -->
<svg version="1.1" id="Layer_1" xmlns="http://www.w3.org/2000/svg" xmlns:xlink="http://www.w3.org/1999/xlink" x="0px" y="0px"
	 viewBox="0 0 59.9 59.9" style="enable-background:new 0 0 59.9 59.9;" xml:space="preserve">
<style type="text/css">
	.st0{fill:#325C80;}
	.st1{fill:#FFFFFF;}
</style>
<title>INDIVIDUAL ICONS</title>
<circle class="st0" cx="29.9" cy="29.9" r="29.9"/>
<path class="st1" d="M48.1,39.1c0.1-0.3,0.1-0.6,0.1-0.9l2-1.1l-0.8-2.8l-2.1,0.1c-0.4-0.6-0.8-1-1.3-1.4l0.1-2.1l-2.6-0.7l-0.9,1.9
	c-0.6,0.1-1.3,0.3-1.8,0.6L39,31.5l-2,2l1.2,2C38.1,35.7,38,36,38,36.3c-0.1,0.3-0.1,0.6-0.1,0.9l-2,1.1l0.8,2.8l2.1-0.2
	c0.4,0.6,0.8,1,1.3,1.4L40,44.5l2.6,0.7l0.9-1.9c0.6-0.1,1.3-0.3,1.8-0.6l1.8,1.2l2-2l-1.2-2C48,39.7,48.1,39.4,48.1,39.1z
	 M48.5,41.9l-1.4,1.5l-1.5-1l-0.2-0.2l-0.2,0.1c-0.5,0.3-1.1,0.5-1.7,0.6h-0.3l-0.1,0.2l-0.8,1.5l-1.9-0.5l0-1.7v-0.3L40.3,42
	c-0.5-0.4-0.9-0.8-1.2-1.3L39,40.4h-0.3L37,40.5l-0.6-2l1.6-0.9l0.2-0.1v-0.3c0-0.3,0.1-0.5,0.1-0.8c0.1-0.3,0.1-0.5,0.3-0.8
	l0.1-0.3l-0.1-0.2l-1-1.6l1.4-1.5l1.5,1l0.2,0.2l0.2-0.1c0.5-0.3,1.1-0.4,1.7-0.5h0.3l0.1-0.2l0.7-1.6l1.9,0.5l0,1.7v0.3l0.2,0.2
	c0.5,0.3,0.9,0.8,1.2,1.3l0.1,0.2h0.3l1.7-0.2l0.6,2l-1.6,1L47.8,38v0.3c0,0.3-0.1,0.5-0.1,0.8c-0.1,0.3-0.1,0.5-0.3,0.8l-0.1,0.3
	l0.1,0.2L48.5,41.9z"/>
<path class="st1" d="M43.8,34.9c-1.5-0.4-3,0.5-3.3,2c0,0,0,0.1,0,0.1c-0.4,1.5,0.4,3.1,1.9,3.6c1.5,0.4,3-0.5,3.3-2
	c0,0,0-0.1,0-0.1C46.1,36.9,45.2,35.3,43.8,34.9z M42.8,38.7c-0.5-0.2-0.8-0.7-0.7-1.2c0.1-0.5,0.6-0.8,1.1-0.7c0,0,0,0,0,0
	c0.5,0.2,0.8,0.7,0.7,1.2C43.8,38.4,43.4,38.8,42.8,38.7C42.8,38.7,42.8,38.7,42.8,38.7L42.8,38.7z"/>
<polygon class="st1" points="24.9,18.5 24.9,14.7 9.6,14.7 9.6,18.5 9.6,22.3 9.6,42.8 37.5,42.8 37.5,41.5 10.9,41.5 10.9,22.3 
	46.6,22.3 46.6,33.6 47.9,33.6 47.9,22.3 47.9,18.5 "/>
</svg>
