<?xml version="1.0" encoding="utf-8"?>
<!-- Generator: Adobe Illustrator 21.1.0, SVG Export Plug-In . SVG Version: 6.00 Build 0)  -->
<svg version="1.1" id="Layer_1" xmlns="http://www.w3.org/2000/svg" xmlns:xlink="http://www.w3.org/1999/xlink" x="0px" y="0px"
	 viewBox="0 0 61 60.8" style="enable-background:new 0 0 61 60.8;" xml:space="preserve">
<style type="text/css">
	.st0{fill:#744298;}
	.st1{fill:#FFFFFF;}
	.st2{fill:none;stroke:#FFFFFF;stroke-miterlimit:10;}
</style>
<title>INDIVIDUAL ICONS</title>
<ellipse class="st0" cx="30.5" cy="30.4" rx="30.5" ry="30.4"/>
<path class="st1" d="M38,52.5H22.9c-2.8,0-5.1-2.3-5.1-5.1v-34c0-2.8,2.3-5.1,5.1-5.1H38c2.8,0,5.1,2.3,5.1,5.1v34
	C43.2,50.2,40.9,52.5,38,52.5C38.1,52.5,38,52.5,38,52.5z M23,9.6c-2.1,0-3.8,1.7-3.8,3.8v34c0,2.1,1.7,3.8,3.8,3.8h15
	c2.1,0,3.8-1.7,3.8-3.8v-34c0-2.1-1.7-3.8-3.8-3.8L23,9.6L23,9.6z"/>
<ellipse class="st1" cx="30.5" cy="48" rx="1.8" ry="1.9"/>
<rect x="28" y="10.9" class="st1" width="5" height="0.9"/>
<rect x="21.1" y="13.8" class="st2" width="18.8" height="31.6"/>
<line class="st2" x1="27.3" y1="22.3" x2="27.3" y2="36.9"/>
<line class="st2" x1="30.6" y1="25.5" x2="30.6" y2="36.9"/>
<line class="st2" x1="33.8" y1="28.9" x2="33.8" y2="36.9"/>
</svg>
