<?xml version="1.0" encoding="utf-8"?>
<svg version="1.1" id="Layer_1" xmlns="http://www.w3.org/2000/svg" xmlns:xlink="http://www.w3.org/1999/xlink" x="0px" y="0px"
	 viewBox="0 0 90.458 175.661" style="enable-background:new 0 0 90.458 175.661;" xml:space="preserve">
<style type="text/css">
	.st0{filter:url(#Adobe_OpacityMaskFilter);}
	.st1{fill:#FFFFFF;}
	.st2{mask:url(#mask-6_1_);fill:#1C5A84;}
	.st3{fill:#1F608C;}
	.st4{fill:#FEFEFE;}
	.st5{fill:#D6DEE6;}
	.st6{fill:#6089B1;}
	.st7{fill:#276E9F;}
	.st8{fill:#19557D;}
	.st9{fill:#1C5A84;}
</style>
<title>icon-apartment</title>
<desc>Created with Sketch.</desc>
<defs>
	<filter id="Adobe_OpacityMaskFilter" filterUnits="userSpaceOnUse" x="47.779" y="149.499" width="42.679" height="25.822">
		<feColorMatrix  type="matrix" values="1 0 0 0 0  0 1 0 0 0  0 0 1 0 0  0 0 0 1 0"/>
	</filter>
</defs>
<mask maskUnits="userSpaceOnUse" x="47.779" y="149.499" width="42.679" height="25.822" id="mask-6_1_">
	<g class="st0">
		<path id="path-5_1_" class="st1" d="M49.682,171.143c0.002,2.102-0.731,3.556-1.903,4.178
			c13.593-7.215,27.183-14.43,40.776-21.645c1.171-0.622,1.904-2.075,1.903-4.176"/>
	</g>
</mask>
<path id="Fill-8" class="st2" d="M49.682,171.143l40.776-21.644c0.001,2.102-0.732,3.555-1.903,4.177l-40.776,21.645
	C48.951,174.699,49.683,173.246,49.682,171.143"/>
<path class="st3" d="M49.638,111.872c0-0.016-0.004-0.034-0.004-0.05L49.59,52.764c0-1.179-0.793-2.612-1.772-3.2L1.769,21.895
	C0.791,21.307-0.001,21.787,0,22.966l0.041,59.27c0,0.056,0.006,0.114,0.007,0.17l0.041,58.938c0.003,4.014,2.68,8.874,5.978,10.856
	l37.648,22.621c3.298,1.982,5.97,0.335,5.967-3.678L49.638,111.872z"/>
<path id="Fill-43" class="st4" d="M46.186,130.849l-8.69-5.222v-12.853l8.69,5.221V130.849z M46.186,149.979l-8.69-5.222v-12.851
	l8.69,5.221V149.979z M46.186,168.715l-8.69-5.22v-12.853l8.69,5.222V168.715z M34.545,123.854l-8.692-5.222v-12.854l8.692,5.223
	V123.854z M34.545,142.985l-8.692-5.224V124.91l8.692,5.223V142.985z M14.868,131.161v-12.852l8.695,5.225v12.852L14.868,131.161z
	 M11.862,110.225l-8.693-5.224V92.148l8.693,5.223V110.225z M11.862,129.355l-8.693-5.224V111.28l8.693,5.223V129.355z
	 M11.523,147.888l-8.691-5.223v-12.852l8.691,5.223V147.888z M14.868,99.177l8.695,5.225v12.854l-8.695-5.224V99.177z
	 M15.993,157.799v-19.323l7.284,4.377v19.321L15.993,157.799z M25.258,163.365v-19.323l7.07,4.249v19.323L25.258,163.365z"/>
<path id="Fill-44" class="st5" d="M38.79,114.838l6.667,4.019l-0.015,8.242c0,0-0.406-4.831-3.24-8.531
	C39.602,115.178,38.79,114.838,38.79,114.838"/>
<path id="Fill-46" class="st5" d="M4.371,94.09l6.666,4.018l-0.016,8.241c0,0-0.406-4.83-3.242-8.53
	C5.18,94.428,4.371,94.09,4.371,94.09"/>
<path id="Fill-48" class="st5" d="M38.759,133.827l6.667,4.019l-0.016,8.247c0,0-0.404-4.832-3.239-8.532
	C39.571,134.167,38.759,133.827,38.759,133.827"/>
<path id="Fill-50" class="st5" d="M27.157,107.826l6.667,4.019l-0.016,8.241c0,0-0.405-4.829-3.238-8.528
	C27.969,108.166,27.157,107.826,27.157,107.826"/>
<path id="Fill-52" class="st5" d="M27.128,126.815l6.667,4.019l-0.016,8.247c0,0-0.405-4.833-3.238-8.532
	C27.939,127.155,27.128,126.815,27.128,126.815"/>
<path id="Fill-54" class="st5" d="M16.186,101.212l6.67,4.021l-0.016,8.241c0,0-0.409-4.831-3.243-8.531
	C16.996,101.552,16.186,101.212,16.186,101.212"/>
<path id="Fill-56" class="st5" d="M16.156,120.201l6.669,4.021l-0.016,8.246c0,0-0.408-4.833-3.241-8.534
	C16.966,120.541,16.156,120.201,16.156,120.201"/>
<path id="Fill-58" class="st5" d="M4.34,113.078l6.666,4.019l-0.016,8.247c0,0-0.406-4.833-3.241-8.535
	C5.149,113.417,4.34,113.078,4.34,113.078"/>
<path id="Fill-60" class="st5" d="M38.73,152.77l6.667,4.02l-0.016,8.245c0,0-0.404-4.832-3.24-8.532
	C39.541,153.113,38.73,152.77,38.73,152.77"/>
<path id="Fill-62" class="st5" d="M4.1,131.896l6.666,4.019l-0.016,8.244c0,0-0.407-4.832-3.237-8.531
	C4.91,132.237,4.1,131.896,4.1,131.896"/>
<path class="st6" d="M41.855,0.004l-0.001,0.001c-0.193-0.018-0.37,0.015-0.52,0.096L0.558,21.745
	c0.151-0.08,0.328-0.113,0.522-0.096l15.394-8.171L1.08,21.649c0.211,0.019,0.444,0.1,0.689,0.246L42.545,0.252
	C42.301,0.104,42.067,0.024,41.855,0.004z"/>
<polygon id="Fill-75" class="st7" points="1.769,21.895 42.545,0.251 88.594,27.919 47.818,49.564 "/>
<polygon class="st8" points="90.458,149.5 90.414,90.228 90.41,90.23 90.366,31.119 49.59,52.764 49.633,112.035 49.638,112.032 
	49.681,171.143 "/>
<g>
	<path class="st9" d="M48.146,49.798c0.08,0.066,0.158,0.138,0.234,0.214l40.776-21.645c-0.076-0.076-0.154-0.147-0.234-0.214l0,0
		c-0.106-0.088-0.217-0.167-0.328-0.235L47.818,49.564C47.93,49.631,48.04,49.71,48.146,49.798"/>
	<path class="st9" d="M48.38,50.012c0.124,0.125,0.242,0.261,0.352,0.407l0,0c0.043,0.058,0.085,0.116,0.126,0.176l0,0
		c0.038,0.057,0.075,0.114,0.111,0.172l0,0c0.043,0.069,0.083,0.141,0.122,0.212h0c0.055,0.102,0.107,0.205,0.154,0.311
		c0.083,0.187,0.154,0.378,0.209,0.568l0,0v0c0.088,0.307,0.137,0.614,0.137,0.906L90.367,31.12c0-0.292-0.049-0.6-0.137-0.906l0,0
		c-0.056-0.192-0.126-0.382-0.209-0.568h0c-0.048-0.105-0.099-0.209-0.154-0.312l0,0c-0.039-0.071-0.08-0.141-0.123-0.211h0
		c-0.035-0.058-0.072-0.116-0.111-0.173l0,0c-0.04-0.059-0.082-0.118-0.125-0.176l-0.001,0c-0.109-0.146-0.227-0.283-0.351-0.408"/>
</g>
<path id="Fill-110" class="st4" d="M46.138,71.741l-8.69-5.222V53.666l8.69,5.221V71.741z M46.138,90.871l-8.69-5.222V72.798
	l8.69,5.221V90.871z M46.138,109.607l-8.69-5.22V91.534l8.69,5.222V109.607z M34.497,64.746l-8.692-5.222V46.67l8.692,5.223V64.746z
	 M34.497,83.877l-8.692-5.224V65.802l8.692,5.223V83.877z M14.82,72.053V59.201l8.695,5.225v12.852L14.82,72.053z M11.814,51.117
	l-8.693-5.224V33.04l8.693,5.223V51.117z M11.814,70.247l-8.693-5.224V52.172l8.693,5.223V70.247z M11.475,88.78l-8.691-5.223
	V70.705l8.691,5.223V88.78z M14.82,40.069l8.695,5.225v12.854l-8.695-5.224V40.069z"/>
<path id="Fill-112" class="st5" d="M38.742,55.73l6.667,4.019l-0.015,8.242c0,0-0.406-4.831-3.24-8.531
	C39.554,56.07,38.742,55.73,38.742,55.73"/>
<path id="Fill-114" class="st5" d="M4.323,34.982L10.989,39l-0.016,8.241c0,0-0.406-4.83-3.242-8.53
	C5.132,35.32,4.323,34.982,4.323,34.982"/>
<path id="Fill-116" class="st5" d="M38.711,74.718l6.667,4.019l-0.016,8.247c0,0-0.404-4.832-3.239-8.532
	C39.523,75.058,38.711,74.718,38.711,74.718"/>
<path id="Fill-118" class="st5" d="M27.109,48.717l6.667,4.019l-0.016,8.241c0,0-0.405-4.829-3.238-8.528
	C27.921,49.057,27.109,48.717,27.109,48.717"/>
<path id="Fill-120" class="st5" d="M27.08,67.706l6.667,4.019l-0.016,8.247c0,0-0.405-4.833-3.238-8.532
	C27.891,68.046,27.08,67.706,27.08,67.706"/>
<path id="Fill-122" class="st5" d="M16.138,42.104l6.67,4.021l-0.016,8.241c0,0-0.409-4.831-3.243-8.531
	C16.948,42.444,16.138,42.104,16.138,42.104"/>
<path id="Fill-124" class="st5" d="M16.108,61.092l6.669,4.021l-0.016,8.246c0,0-0.408-4.833-3.241-8.534
	C16.918,61.432,16.108,61.092,16.108,61.092"/>
<path id="Fill-126" class="st5" d="M4.293,53.97l6.666,4.019l-0.016,8.247c0,0-0.406-4.833-3.241-8.535
	C5.102,54.309,4.293,53.97,4.293,53.97"/>
<path id="Fill-128" class="st5" d="M38.682,93.661l6.667,4.02l-0.016,8.245c0,0-0.404-4.832-3.24-8.532
	C39.493,94.004,38.682,93.661,38.682,93.661"/>
<path id="Fill-130" class="st5" d="M4.052,72.787l6.666,4.019l-0.016,8.244c0,0-0.407-4.832-3.237-8.531
	C4.862,73.128,4.052,72.787,4.052,72.787"/>
<path id="Fill-132" class="st4" d="M34.191,102.095l-8.692-5.222V84.019l8.692,5.223V102.095z M14.514,77.418l8.695,5.225v12.854
	l-8.695-5.224V77.418z"/>
<path id="Fill-134" class="st5" d="M26.615,86.057l6.667,4.019l-0.016,8.241c0,0-0.405-4.829-3.238-8.528
	C27.427,86.397,26.615,86.057,26.615,86.057"/>
<path id="Fill-136" class="st5" d="M15.644,79.444l6.67,4.021l-0.016,8.241c0,0-0.409-4.831-3.243-8.531
	C16.454,79.784,15.644,79.444,15.644,79.444"/>
</svg>
