<?xml version="1.0" encoding="utf-8"?>
<svg version="1.1"
	 id="Layer_1" inkscape:version="0.92.3 (2405546, 2018-03-11)" sodipodi:docname="Building Cluster4.svg" xmlns:cc="http://creativecommons.org/ns#" xmlns:dc="http://purl.org/dc/elements/1.1/" xmlns:inkscape="http://www.inkscape.org/namespaces/inkscape" xmlns:rdf="http://www.w3.org/1999/02/22-rdf-syntax-ns#" xmlns:sodipodi="http://sodipodi.sourceforge.net/DTD/sodipodi-0.dtd" xmlns:svg="http://www.w3.org/2000/svg"
	 xmlns="http://www.w3.org/2000/svg" xmlns:xlink="http://www.w3.org/1999/xlink" x="0px" y="0px" viewBox="0 0 201.889 184.58"
	 style="enable-background:new 0 0 201.889 184.58;" xml:space="preserve">
<style type="text/css">
	.st0{fill:#6089B1;}
	.st1{filter:url(#Adobe_OpacityMaskFilter);}
	.st2{fill:#FFFFFF;}
	.st3{mask:url(#mask-6_2_);fill:#1C5A84;}
	.st4{fill:#276E9F;}
	.st5{fill:#19557D;}
	.st6{fill:#1C5A84;}
	.st7{fill:#1F608C;}
	.st8{fill:#FEFEFE;}
	.st9{fill:#D6DEE6;}
	.st10{filter:url(#Adobe_OpacityMaskFilter_1_);}
	.st11{mask:url(#mask-30_2_);fill:#1C5A84;}
	.st12{filter:url(#Adobe_OpacityMaskFilter_2_);}
	.st13{mask:url(#mask-62_2_);fill:#1C5A84;}
	.st14{fill:#1A5881;}
	.st15{filter:url(#Adobe_OpacityMaskFilter_3_);}
	.st16{mask:url(#mask-82_2_);fill:#1F5F8B;}
</style>
<sodipodi:namedview  bordercolor="#666666" borderopacity="1" gridtolerance="10" guidetolerance="10" id="namedview173" inkscape:current-layer="Layer_1" inkscape:cx="109.60495" inkscape:cy="138.74616" inkscape:pageopacity="0" inkscape:pageshadow="2" inkscape:window-height="1017" inkscape:window-maximized="1" inkscape:window-width="1920" inkscape:window-x="-8" inkscape:window-y="-8" inkscape:zoom="5.6568543" objecttolerance="10" pagecolor="#ffffff" showgrid="false">
	</sodipodi:namedview>
<title  id="title4">icon-building-cluster</title>
<desc  id="desc6">Created with Sketch.</desc>
<g id="g12">
	<path id="path8" inkscape:connector-curvature="0" sodipodi:nodetypes="ccccccc" class="st0" d="M58.628,0.108L15.65,22.92
		c0.155-0.084,0.345-0.116,0.549-0.101c0.221,0.021,0.467,0.105,0.725,0.264L59.907,0.266c-0.258-0.157-0.502-0.243-0.727-0.262
		C58.975-0.014,58.792,0.02,58.628,0.108z"/>
</g>
<defs>
	<filter id="Adobe_OpacityMaskFilter" filterUnits="userSpaceOnUse" x="65.374" y="95.283" width="44.989" height="27.221">
		<feColorMatrix  type="matrix" values="1 0 0 0 0  0 1 0 0 0  0 0 1 0 0  0 0 0 1 0"/>
	</filter>
</defs>
<mask maskUnits="userSpaceOnUse" x="65.374" y="95.283" width="44.989" height="27.221" id="mask-6_2_">
	<g id="g20_1_" class="st1">
		<path id="path-5_2_" class="st2" d="M67.38,118.098c0,2.218-0.77,3.749-2.006,4.406c14.326-7.608,28.653-15.213,42.984-22.818
			c1.235-0.655,2.008-2.183,2.005-4.403"/>
	</g>
</mask>
<path id="Fill-8" class="st3" d="M67.38,118.098l42.983-22.815c0.002,2.22-0.77,3.748-2.005,4.403l-42.984,22.818
	C66.609,121.847,67.38,120.317,67.38,118.098"/>
<polygon id="Fill-11" class="st4" points="16.924,23.081 65.465,52.246 108.45,29.432 59.908,0.266 "/>
<polygon id="Fill-12" class="st5" points="67.335,55.617 110.316,32.803 110.363,95.282 67.38,118.097 "/>
<g id="g32">
	<path id="path26" inkscape:connector-curvature="0" sodipodi:nodetypes="ccccc" class="st6" d="M108.449,29.434L65.465,52.246
		c1.087,0.709,1.871,2.314,1.871,3.371l42.98-22.814C110.316,30.97,109.418,30.034,108.449,29.434z"/>
</g>
<path id="Fill-41" class="st7" d="M65.464,52.246c1.032,0.62,1.869,2.13,1.871,3.371l0.045,62.481
	c0.003,4.234-2.816,5.968-6.291,3.875L21.401,98.132c-3.474-2.089-6.295-7.214-6.295-11.446l-0.047-62.48
	c0-1.241,0.833-1.744,1.865-1.125L65.464,52.246z"/>
<polygon id="polygon35" class="st8" points="63.694,75.625 54.535,70.12 54.535,56.567 63.694,62.076 "/>
<polygon id="polygon37" class="st8" points="51.423,68.25 42.262,62.747 42.262,49.194 51.423,54.703 "/>
<polygon id="polygon39" class="st8" points="30.682,75.954 30.682,62.405 39.848,67.914 39.848,81.458 "/>
<polygon id="polygon41" class="st8" points="27.513,53.885 18.349,48.378 18.349,34.829 27.513,40.337 "/>
<polygon id="polygon43" class="st8" points="27.513,74.05 18.349,68.543 18.349,54.997 27.513,60.501 "/>
<polygon id="polygon45" class="st8" points="27.155,93.587 17.994,88.081 17.994,74.533 27.155,80.04 "/>
<polygon id="polygon47" class="st8" points="30.682,42.24 39.848,47.743 39.848,61.297 30.682,55.791 "/>
<path id="Fill-44" class="st9" d="M55.899,58.748l7.028,4.233l-0.015,8.69c0,0-0.432-5.094-3.419-8.993
	C56.754,59.108,55.899,58.748,55.899,58.748"/>
<path id="Fill-46" class="st9" d="M19.617,36.872l7.025,4.239l-0.016,8.688c0,0-0.43-5.094-3.418-8.997
	C20.469,37.229,19.617,36.872,19.617,36.872"/>
<path id="Fill-50" class="st9" d="M43.639,51.353l7.025,4.239l-0.016,8.686c0,0-0.426-5.09-3.416-8.989
	C44.492,51.716,43.639,51.353,43.639,51.353"/>
<path id="Fill-54" class="st9" d="M32.071,44.38l7.03,4.243l-0.014,8.685c0,0-0.435-5.094-3.421-8.991
	C32.926,44.739,32.071,44.38,32.071,44.38"/>
<path id="Fill-56" class="st9" d="M32.041,64.401l7.032,4.232l-0.019,8.699c0,0-0.429-5.094-3.418-8.996
	C32.895,64.756,32.041,64.401,32.041,64.401"/>
<path id="Fill-58" class="st9" d="M19.583,56.892l7.03,4.235l-0.02,8.694c0,0-0.427-5.096-3.416-8.998
	C20.434,57.247,19.583,56.892,19.583,56.892"/>
<g id="g59">
	<path id="path57" inkscape:connector-curvature="0" sodipodi:nodetypes="ccccccc" class="st0" d="M150.155,55.097l-42.981,22.812
		c0.159-0.085,0.344-0.116,0.558-0.098s0.46,0.104,0.719,0.262l42.982-22.817c-0.258-0.156-0.503-0.242-0.725-0.263
		C150.5,54.977,150.316,55.011,150.155,55.097z"/>
</g>
<defs>
	<filter id="Adobe_OpacityMaskFilter_1_" filterUnits="userSpaceOnUse" x="156.902" y="150.272" width="44.987" height="27.219">
		<feColorMatrix  type="matrix" values="1 0 0 0 0  0 1 0 0 0  0 0 1 0 0  0 0 0 1 0"/>
	</filter>
</defs>
<mask maskUnits="userSpaceOnUse" x="156.902" y="150.272" width="44.987" height="27.219" id="mask-30_2_">
	<g id="g67_1_" class="st10">
		<path id="path-29_2_" class="st2" d="M158.908,173.089c0,2.214-0.774,3.746-2.007,4.403c14.325-7.606,28.652-15.21,42.984-22.814
			c1.233-0.657,2.005-2.187,2.004-4.406"/>
	</g>
</mask>
<path id="Fill-72" class="st11" d="M158.908,173.089l42.981-22.817c0.001,2.219-0.771,3.749-2.004,4.406l-42.983,22.813
	C158.135,176.835,158.908,175.303,158.908,173.089"/>
<polygon id="Fill-75" class="st4" points="108.451,78.073 151.433,55.257 199.975,84.422 156.989,107.236 "/>
<polygon id="Fill-77" class="st5" points="158.861,110.609 201.841,87.793 201.889,150.272 158.908,173.089 "/>
<g id="g79">
	<path id="path73" inkscape:connector-curvature="0" sodipodi:nodetypes="ccccc" class="st6" d="M199.975,84.422l-42.986,22.814
		c1.173,0.804,1.871,2.322,1.871,3.373l42.982-22.816C201.842,86.272,200.943,85.03,199.975,84.422z"/>
</g>
<path id="Fill-108" class="st7" d="M156.989,107.236c1.032,0.621,1.869,2.131,1.872,3.373l0.046,62.481
	c0.003,4.23-2.816,5.964-6.29,3.875l-39.689-23.843c-3.476-2.088-6.297-7.214-6.299-11.444l-0.045-62.482
	c0-1.24,0.833-1.741,1.867-1.123L156.989,107.236z"/>
<polygon id="polygon82" class="st8" points="155.221,130.613 146.06,125.109 146.06,111.558 155.221,117.066 "/>
<polygon id="polygon84" class="st8" points="155.221,150.777 146.06,145.275 146.06,131.728 155.221,137.23 "/>
<polygon id="polygon86" class="st8" points="155.221,170.531 146.06,165.026 146.06,151.48 155.221,156.984 "/>
<polygon id="polygon88" class="st8" points="142.948,123.242 133.788,117.736 133.788,104.186 142.948,109.693 "/>
<polygon id="polygon90" class="st8" points="142.948,143.409 133.788,137.9 133.788,124.35 142.948,129.859 "/>
<polygon id="polygon92" class="st8" points="122.206,130.945 122.206,117.396 131.373,122.902 131.373,136.448 "/>
<polygon id="polygon94" class="st8" points="119.04,108.875 109.877,103.366 109.877,89.819 119.04,95.329 "/>
<polygon id="polygon96" class="st8" points="122.206,97.229 131.373,102.732 131.373,116.285 122.206,110.781 "/>
<polygon id="polygon98" class="st8" points="123.394,159.022 123.394,138.654 131.072,143.264 131.072,163.634 "/>
<polygon id="polygon100" class="st8" points="133.159,164.887 133.159,144.521 140.613,148.999 140.613,169.368 "/>
<path id="Fill-112" class="st9" d="M147.424,113.738l7.028,4.232l-0.016,8.69c0,0-0.429-5.092-3.416-8.99
	C148.281,114.096,147.424,113.738,147.424,113.738"/>
<path id="Fill-114" class="st9" d="M111.142,91.862l7.025,4.238l-0.013,8.687c0,0-0.431-5.09-3.42-8.992
	C111.995,92.223,111.142,91.862,111.142,91.862"/>
<path id="Fill-116" class="st9" d="M147.393,133.75l7.028,4.236l-0.019,8.698c0,0-0.423-5.098-3.412-8.997
	C148.249,134.11,147.393,133.75,147.393,133.75"/>
<path id="Fill-118" class="st9" d="M135.162,106.343l7.027,4.238l-0.016,8.688c0,0-0.427-5.093-3.414-8.991
	C136.017,106.703,135.162,106.343,135.162,106.343"/>
<path id="Fill-120" class="st9" d="M135.133,126.362l7.025,4.236l-0.016,8.694c0,0-0.427-5.099-3.413-8.994
	C135.983,126.718,135.133,126.362,135.133,126.362"/>
<path id="Fill-122" class="st9" d="M123.594,99.367l7.034,4.244l-0.017,8.688c0,0-0.432-5.095-3.419-8.994
	C124.451,99.728,123.594,99.367,123.594,99.367"/>
<path id="Fill-124" class="st9" d="M123.567,119.389l7.029,4.233l-0.017,8.697c0,0-0.43-5.092-3.418-8.993
	C124.417,119.745,123.567,119.389,123.567,119.389"/>
<path id="Fill-128" class="st9" d="M147.363,153.721l7.027,4.238l-0.016,8.693c0,0-0.428-5.097-3.417-8.997
	C148.217,154.083,147.363,153.721,147.363,153.721"/>
<path id="path110" class="st0" d="M46.018,61.226L46.018,61.226c-0.182-0.051-0.462-0.097-0.726,0l-0.009,0.005
	c-0.033,0.012-0.067,0.024-0.099,0.042L0.635,84.919c0.036-0.019,0.077-0.034,0.112-0.048c0.263-0.094,0.542-0.051,0.725,0l0,0
	c0.113,0.032,0.192,0.068,0.207,0.076L46.226,61.3C46.209,61.293,46.131,61.258,46.018,61.226z"/>
<polygon id="Fill-143" class="st4" points="1.678,84.948 46.226,61.3 58.774,68.841 14.228,92.485 "/>
<g id="g117">
	<path id="path113" class="st0" d="M59.283,60.287L14.735,83.934c0.03-0.017,0.058-0.029,0.088-0.039l44.546-23.646
		C59.341,60.26,59.312,60.272,59.283,60.287z"/>
	<path id="path115" inkscape:connector-curvature="0" sodipodi:nodetypes="cccccccc" class="st0" d="M59.91,60.249L59.91,60.249
		c-0.198-0.059-0.381-0.059-0.541,0L14.824,83.895c0.159-0.058,0.346-0.058,0.502-0.013s0.276,0.102,0.401,0.174L60.271,60.41
		C60.147,60.335,60.027,60.282,59.91,60.249z"/>
</g>
<defs>
	<filter id="Adobe_OpacityMaskFilter_2_" filterUnits="userSpaceOnUse" x="77.102" y="156.557" width="46.396" height="27.69">
		<feColorMatrix  type="matrix" values="1 0 0 0 0  0 1 0 0 0  0 0 1 0 0  0 0 0 1 0"/>
	</filter>
</defs>
<mask maskUnits="userSpaceOnUse" x="77.102" y="156.557" width="46.396" height="27.69" id="mask-62_2_">
	<g id="g125_1_" class="st12">
		<path id="path-61_2_" class="st2" d="M78.951,180.196c0.003,2.038-0.709,3.449-1.849,4.05l44.546-23.64
			c1.14-0.605,1.853-2.012,1.851-4.049"/>
	</g>
</mask>
<path id="Fill-155" class="st13" d="M78.951,180.197l44.547-23.64c0.002,2.037-0.71,3.445-1.851,4.049l-44.545,23.641
	C78.242,183.645,78.954,182.234,78.951,180.197"/>
<polygon id="Fill-158" class="st4" points="15.726,84.056 60.271,60.41 105.051,87.32 60.506,110.961 "/>
<polygon id="Fill-160" class="st14" points="61.986,113.628 106.529,89.98 106.536,97.54 61.989,121.184 "/>
<g id="g137">
	<path id="path131" class="st6" d="M105.598,87.772L105.598,87.772c-0.053-0.057-0.108-0.113-0.164-0.165l0,0
		c-0.12-0.113-0.249-0.21-0.383-0.288l-44.546,23.642c0.134,0.081,0.261,0.183,0.383,0.292l13.102-6.955l-13.101,6.955
		c0.058,0.052,0.111,0.104,0.162,0.163l8.022-4.258l-8.022,4.258c0.139,0.15,0.268,0.318,0.382,0.498l44.547-23.649
		C105.866,88.091,105.738,87.921,105.598,87.772z"/>
	<path id="path133" class="st6" d="M106.171,88.605L106.171,88.605c-0.028-0.057-0.057-0.111-0.088-0.163l0,0
		c-0.034-0.059-0.066-0.118-0.103-0.177l-44.547,23.649c0.037,0.058,0.071,0.112,0.105,0.173l0,0
		c0.029,0.054,0.058,0.108,0.087,0.162l3.733-1.981l-3.733,1.982c0.036,0.069,0.066,0.141,0.096,0.209l44.547-23.645
		C106.237,88.742,106.205,88.672,106.171,88.605z"/>
	<path id="path135" class="st6" d="M106.509,89.658L106.509,89.658c-0.022-0.171-0.064-0.348-0.12-0.524l-41.012,21.77l41.012-21.77
		c-0.035-0.109-0.075-0.212-0.12-0.32l-44.547,23.645c0.044,0.105,0.085,0.213,0.122,0.321l0,0c0.056,0.176,0.096,0.35,0.121,0.523
		l12.235-6.494l-12.235,6.495c0.013,0.109,0.02,0.217,0.022,0.325L106.53,89.98C106.53,89.876,106.523,89.768,106.509,89.658z"/>
</g>
<polygon id="Fill-191" class="st4" points="61.989,121.184 106.536,97.54 120.605,105.994 76.059,129.638 "/>
<polygon id="Fill-193" class="st14" points="78.921,134.382 123.466,110.736 123.498,156.557 78.951,180.196 "/>
<defs>
	<filter id="Adobe_OpacityMaskFilter_3_" filterUnits="userSpaceOnUse" x="0" y="83.85" width="78.951" height="100.73">
		<feColorMatrix  type="matrix" values="1 0 0 0 0  0 1 0 0 0  0 0 1 0 0  0 0 0 1 0"/>
	</filter>
</defs>
<mask maskUnits="userSpaceOnUse" x="0" y="83.85" width="78.951" height="100.73" id="mask-82_2_">
	<g id="g147_1_" class="st15">
		<polygon id="path-81_2_" class="st2" points="0,83.85 78.951,83.85 78.951,184.58 0,184.58 		"/>
	</g>
</mask>
<path id="Fill-195" class="st16" d="M60.506,110.961c0.816,0.492,1.478,1.685,1.48,2.667l0.003,7.556l14.071,8.454
	c2.858,1.717,2.862,4.592,2.862,4.744l0.029,45.814c0.003,3.905-2.614,5.501-5.856,3.553L5.898,143.378
	c-3.235-1.946-5.862-6.688-5.865-10.594L0,86.599c0-2.417,1.596-1.691,1.678-1.652l12.55,7.538l-0.005-7.393
	c0.029-1.127,0.686-1.526,1.504-1.036L60.506,110.961z"/>
<g id="g155">
	<path id="path151" inkscape:connector-curvature="0" sodipodi:nodetypes="ccccc" class="st6" d="M120.605,105.993l-44.545,23.646
		c1.561,0.896,2.861,2.881,2.861,4.744l44.545-23.646C123.467,108.787,122.227,107.08,120.605,105.993z"/>
</g>
<path id="Fill-227" class="st8" d="M75.417,147.689l-8.632-5.185v-12.757l8.632,5.182C75.417,134.929,75.417,147.689,75.417,147.689
	z M75.417,166.696l-8.632-5.187v-12.767l8.632,5.184C75.417,153.926,75.417,166.696,75.417,166.696z M59.189,130.248l-8.628-5.185
	v-12.766l8.628,5.185C59.189,117.482,59.189,130.248,59.189,130.248z M59.189,149.249l-8.628-5.189v-12.763l8.628,5.186
	C59.189,136.483,59.189,149.249,59.189,149.249z M59.189,167.854l-8.628-5.185v-12.764l8.628,5.185
	C59.189,155.09,59.189,167.854,59.189,167.854z M47.627,123.302l-8.629-5.188v-12.767l8.629,5.189V123.302z M47.627,142.301
	l-8.629-5.187v-12.765l8.629,5.188V142.301z M28.086,130.559v-12.764l8.636,5.189v12.763L28.086,130.559z M25.102,109.765
	l-8.635-5.185V91.812l8.635,5.187V109.765z M25.102,128.764l-8.635-5.189v-12.76L25.102,116V128.764z M24.765,147.169l-8.633-5.185
	v-12.765l8.633,5.189V147.169z M28.086,98.791l8.636,5.191v12.766l-8.636-5.19V98.791z M11.424,109.241l-8.636-5.19V91.293
	l8.636,5.187V109.241z M11.424,128.242l-8.636-5.189v-12.765l8.636,5.19V128.242z M29.205,157.012v-19.19l7.234,4.347v19.187
	L29.205,157.012z M38.405,162.54v-19.188l7.021,4.218v19.192L38.405,162.54z"/>
<path id="Fill-229" class="st9" d="M51.845,114.566l6.621,3.992l-0.016,8.186c0,0-0.403-4.798-3.217-8.472
	C52.65,114.905,51.845,114.566,51.845,114.566"/>
<path id="Fill-231" class="st9" d="M17.662,93.96l6.621,3.989l-0.018,8.187c0,0-0.405-4.797-3.219-8.474
	C18.463,94.296,17.662,93.96,17.662,93.96"/>
<path id="Fill-233" class="st9" d="M51.812,133.424l6.623,3.992l-0.016,8.192c0,0-0.402-4.8-3.217-8.475
	C52.621,133.76,51.812,133.424,51.812,133.424"/>
<path id="Fill-235" class="st9" d="M40.292,107.602l6.621,3.991l-0.015,8.185c0,0-0.404-4.797-3.218-8.469
	C41.097,107.943,40.292,107.602,40.292,107.602"/>
<path id="Fill-237" class="st9" d="M40.26,126.462l6.624,3.991l-0.016,8.191c0,0-0.404-4.802-3.217-8.474
	C41.068,126.799,40.26,126.462,40.26,126.462"/>
<path id="Fill-239" class="st9" d="M29.396,101.034l6.624,3.992l-0.018,8.186c0,0-0.405-4.797-3.218-8.473
	C30.201,101.371,29.396,101.034,29.396,101.034"/>
<path id="Fill-241" class="st9" d="M29.367,119.891l6.623,3.994l-0.015,8.192c0,0-0.407-4.802-3.221-8.475
	C30.172,120.228,29.367,119.891,29.367,119.891"/>
<path id="Fill-243" class="st9" d="M17.631,112.818l6.619,3.993l-0.014,8.191c0,0-0.404-4.804-3.22-8.476
	C18.434,113.156,17.631,112.818,17.631,112.818"/>
<path id="Fill-245" class="st9" d="M51.784,152.238l6.623,3.99l-0.015,8.191c0,0-0.403-4.798-3.218-8.473
	C52.593,152.581,51.784,152.238,51.784,152.238"/>
<path id="Fill-247" class="st9" d="M17.392,131.509l6.621,3.989l-0.016,8.19c0,0-0.403-4.8-3.215-8.473
	C18.195,131.846,17.392,131.509,17.392,131.509"/>
<path id="Fill-249" class="st9" d="M4.109,93.475l6.618,3.991l-0.015,8.188c0,0-0.399-4.799-3.215-8.469
	C4.914,93.813,4.109,93.475,4.109,93.475"/>
<path id="Fill-251" class="st9" d="M4.079,112.615l6.62,3.989l-0.016,8.192c0,0-0.402-4.798-3.216-8.474
	C4.882,112.954,4.079,112.615,4.079,112.615"/>
<path id="Fill-253" class="st9" d="M68.044,132.016l6.624,3.989l-0.018,8.19c0,0-0.4-4.797-3.215-8.467
	C68.85,132.354,68.044,132.016,68.044,132.016"/>
<path id="Fill-255" class="st9" d="M68.015,151.156l6.621,3.992l-0.014,8.189c0,0-0.401-4.8-3.219-8.474
	C68.819,151.495,68.015,151.156,68.015,151.156"/>
</svg>
