<?xml version="1.0" encoding="utf-8"?>
<svg version="1.1"
	 id="Layer_1" inkscape:version="0.92.3 (2405546, 2018-03-11)" sodipodi:docname="School_Building7.svg" xmlns:cc="http://creativecommons.org/ns#" xmlns:dc="http://purl.org/dc/elements/1.1/" xmlns:inkscape="http://www.inkscape.org/namespaces/inkscape" xmlns:rdf="http://www.w3.org/1999/02/22-rdf-syntax-ns#" xmlns:sodipodi="http://sodipodi.sourceforge.net/DTD/sodipodi-0.dtd" xmlns:svg="http://www.w3.org/2000/svg"
	 xmlns="http://www.w3.org/2000/svg" xmlns:xlink="http://www.w3.org/1999/xlink" x="0px" y="0px" viewBox="0 0 274.629 277.106"
	 style="enable-background:new 0 0 274.629 277.106;" xml:space="preserve">
<style type="text/css">
	.st0{fill:#FEFEFE;}
	.st1{fill:#1D5176;}
	.st2{fill:#276E9F;}
	.st3{fill:#215880;}
	.st4{fill:#1E567D;}
	.st5{fill:#2B75AC;}
	.st6{fill:#1C4F73;}
	.st7{fill:#19557D;}
	.st8{filter:url(#Adobe_OpacityMaskFilter);}
	.st9{fill:#FFFFFF;}
	.st10{mask:url(#mask-2_1_);fill:#1F608C;}
	.st11{fill:#D6DEE6;}
	.st12{fill:#143B55;}
	.st13{fill:#225E89;}
	.st14{fill:#CBCBCB;}
	.st15{fill:#888788;}
	.st16{fill:#1D5174;}
	.st17{fill:#16405D;}
	.st18{fill:#276B9C;}
	.st19{fill:#123953;}
	.st20{fill:#143B56;}
	.st21{fill:#163E5A;}
	.st22{fill:#24618E;}
	.st23{fill:#17405C;}
	.st24{fill:#1B4D70;}
	.st25{fill:#194B6D;}
	.st26{fill:#194A6B;}
	.st27{fill:#194766;}
	.st28{fill:#215B84;}
	.st29{fill:#225C86;}
	.st30{fill:#23608B;}
	.st31{fill:#23618E;}
	.st32{fill:#236390;}
	.st33{fill:#256593;}
	.st34{fill:#256796;}
	.st35{fill:#266A9A;}
	.st36{fill:#286C9D;}
	.st37{fill:#286E9F;}
	.st38{fill:#437FAB;}
	.st39{fill:#4D87AF;}
	.st40{fill:#548CB5;}
	.st41{fill:#5C91B7;}
	.st42{fill:#6195B8;}
	.st43{fill:#1F547A;}
	.st44{fill:#266997;}
	.st45{fill:none;stroke:#1F608C;stroke-width:2;}
	.st46{filter:url(#Adobe_OpacityMaskFilter_1_);}
	.st47{mask:url(#mask-4_1_);fill:#256695;}
</style>
<sodipodi:namedview  bordercolor="#666666" borderopacity="1" gridtolerance="10" guidetolerance="10" id="namedview426" inkscape:current-layer="Layer_1" inkscape:cx="143.20779" inkscape:cy="147.00504" inkscape:pageopacity="0" inkscape:pageshadow="2" inkscape:window-height="1017" inkscape:window-maximized="1" inkscape:window-width="1920" inkscape:window-x="-8" inkscape:window-y="-8" inkscape:zoom="2.8284271" objecttolerance="10" pagecolor="#ffffff" showgrid="false">
	</sodipodi:namedview>
<title  id="title4">icon-school</title>
<desc  id="desc6">Created with Sketch.</desc>
<path id="Fill-1" class="st0" d="M133.623,208.211l-13.33-0.025L133.623,208.211z"/>
<g id="g25">
	<path id="path9" inkscape:connector-curvature="0" sodipodi:nodetypes="ccccc" class="st1" d="M82.617,58.975L0.76,102.418
		c0.388-0.212,0.919-0.074,1.178,0.032l81.857-43.444C83.399,58.849,82.896,58.83,82.617,58.975z"/>
</g>
<polygon id="Fill-26" class="st2" points="1.937,102.45 83.795,59.007 149.154,98.304 67.297,141.748 "/>
<g id="g34">
	<path id="path28" inkscape:connector-curvature="0" sodipodi:nodetypes="ccccc" class="st3" d="M149.752,88.693l-81.857,43.443
		c0.376-0.19,0.849-0.023,1.102,0.143l81.857-43.443C150.541,88.547,150.038,88.561,149.752,88.693z"/>
</g>
<polygon id="Fill-60" class="st2" points="119.373,162.662 68.996,132.278 150.853,88.835 201.23,119.217 "/>
<polygon id="polygon37" class="st4" points="202.883,129.743 202.888,122.22 121.031,165.663 121.025,173.187 192.383,135.315 
	121.025,173.187 121.019,174.149 202.877,130.706 202.882,129.743 "/>
<g id="g51">
	<path id="path39" inkscape:connector-curvature="0" sodipodi:nodetypes="ccccc" class="st5" d="M201.23,119.219l-81.857,43.443
		c0.965,0.584,1.66,2.04,1.66,3.002l81.857-43.443C202.891,120.987,202.299,119.883,201.23,119.219L201.23,119.219z"/>
</g>
<g id="g61">
	<path id="path53" inkscape:connector-curvature="0" sodipodi:nodetypes="ccccc" class="st6" d="M274.58,228.746l-81.857,43.445
		c0,1.935-0.688,3.812-2.078,4.541l81.857-43.445C274.036,232.466,274.58,230.524,274.58,228.746z"/>
</g>
<polygon id="Fill-156" class="st7" points="274.581,228.747 192.723,272.191 192.771,220.702 274.629,177.258 "/>
<path id="Fill-158" inkscape:connector-curvature="0" class="st2" d="M121.02,174.149l81.857-43.443
	c1.713,1.036,67.43,40.547,68.539,41.214l0.124,0.076l-81.858,43.443c-0.041-0.025-0.082-0.051-0.123-0.075
	C188.45,214.697,122.733,175.185,121.02,174.149"/>
<g id="g79">
	<path id="path65" inkscape:connector-curvature="0" sodipodi:nodetypes="ccccccc" class="st5" d="M271.539,171.998l-81.857,43.443
		c2.12,1.322,3.02,3.578,3.09,5.248v0.012l81.857-43.443v-0.012C274.629,175.254,273.255,173.072,271.539,171.998z"/>
</g>
<defs>
	<filter id="Adobe_OpacityMaskFilter" filterUnits="userSpaceOnUse" x="0" y="102.299" width="192.771" height="174.807">
		<feColorMatrix  type="matrix" values="1 0 0 0 0  0 1 0 0 0  0 0 1 0 0  0 0 0 1 0"/>
	</filter>
</defs>
<mask maskUnits="userSpaceOnUse" x="0" y="102.299" width="192.771" height="174.807" id="mask-2_1_">
	<g id="g87_2_" class="st8">
		<polygon id="path-1_1_" class="st9" points="0,102.299 192.771,102.299 192.771,277.106 0,277.106 		"/>
	</g>
</mask>
<path id="Fill-232" class="st10" d="M68.996,132.278l50.377,30.384c0.912,0.548,1.658,1.894,1.658,3.001l-0.006,7.524l-0.006,0.962
	c1.713,1.036,67.43,40.548,68.54,41.215c3.205,1.933,3.212,5.315,3.212,5.338l-0.048,51.489c-0.004,4.393-2.952,6.171-6.6,3.972
	L6.58,168.117c-3.635-2.192-6.59-7.529-6.58-11.92l0.043-51.894c0.004-2.722,1.801-1.896,1.894-1.853l65.36,39.298l0.045-8.29
	C67.34,132.173,68.078,131.726,68.996,132.278"/>
<path id="Fill-235" class="st11" d="M182.621,163.937h0.174C182.676,163.928,182.621,163.937,182.621,163.937"/>
<polygon id="Fill-237" class="st7" points="133.646,133.995 172.626,113.308 172.633,123.899 133.652,144.588 "/>
<polygon id="Fill-239" class="st2" points="100.701,114.202 139.681,93.515 172.625,113.307 133.646,133.995 "/>
<polygon id="Fill-241" class="st12" points="133.646,133.995 133.652,144.588 100.709,124.795 100.701,114.202 "/>
<polygon id="Fill-243" class="st4" points="134.795,91.689 158.184,79.277 158.209,115.264 134.822,127.676 "/>
<polygon id="Fill-247" class="st12" points="134.809,90.956 134.822,127.676 114.088,115.22 114.077,78.5 "/>
<path id="Fill-375" inkscape:connector-curvature="0" sodipodi:nodetypes="ccccc" class="st12" d="M136.07,89.838
	c0,0.857,0,1.713,0,2.57l-24.326-14.623v-2.57L136.07,89.838z"/>
<path id="path1061" inkscape:connector-curvature="0" sodipodi:nodetypes="ccccc" class="st13" d="M111.744,75.215l23.389-12.412
	l24.327,14.623l-23.39,12.412L111.744,75.215z"/>
<polygon id="Fill-377" class="st4" points="134.254,45.303 157.643,32.89 157.674,76.282 134.285,88.696 "/>
<polygon id="Fill-381" class="st12" points="134.254,45.303 134.314,90.038 113.588,77.585 113.527,32.851 "/>
<path id="Fill-516" inkscape:connector-curvature="0" sodipodi:nodetypes="ccccccccccccccccccccccccccc" class="st14" d="
	M117.76,44.105c0.567-0.326,1.252-0.373,1.844-0.424c0.682-0.009,1.31,0.2,1.934,0.401c0.649,0.237,1.271,0.629,1.832,0.979
	c0.706,0.471,1.371,1.11,1.943,1.643c0.731,0.736,1.394,1.647,1.959,2.418c0.548,0.788,1.012,1.667,1.424,2.5
	c0.396,0.811,0.716,1.742,0.979,2.512c0.037,0.126,0.076,0.253,0.111,0.381v0.002c0.08,0.27,0.137,0.541,0.201,0.795
	c0.13,0.536,0.196,1.073,0.268,1.584c0.083,0.632,0.072,1.293,0.063,1.879c-0.015,0.513-0.118,1.009-0.203,1.479
	c-0.125,0.649-0.435,1.23-0.721,1.773c-0.377,0.588-0.855,1.037-1.414,1.334l0.389-0.207c1.148-0.692,1.613-1.573,2.031-2.711
	c0.339-1.106,0.341-2.242,0.283-3.373c-0.066-0.944-0.278-1.864-0.506-2.76v-0.002c-0.314-1.164-0.791-2.263-1.305-3.332
	c-0.633-1.224-1.318-2.214-2.027-3.178c-0.771-1.025-1.85-1.968-2.768-2.717c-0.659-0.514-1.399-0.874-2.148-1.204
	c-0.733-0.311-1.538-0.377-2.318-0.393C118.933,43.517,118.272,43.862,117.76,44.105L117.76,44.105z"/>
<path id="Fill-636" inkscape:connector-curvature="0" class="st15" d="M122.863,44.739c4.121,2.477,7.463,8.508,7.467,13.478
	c0.004,4.968-3.334,6.988-7.455,4.512s-7.465-8.51-7.469-13.478C115.404,44.282,118.74,42.262,122.863,44.739"/>
<polygon id="Fill-638" class="st16" points="122.76,56.244 123.149,56.037 123.377,56.101 122.987,56.307 "/>
<polygon id="Fill-640" class="st17" points="122.986,56.307 123.377,56.101 123.259,56.356 122.871,56.563 "/>
<polygon id="Fill-642" class="st18" points="122.871,56.563 123.26,56.356 123.896,57.069 123.506,57.276 "/>
<path id="Fill-644" inkscape:connector-curvature="0" class="st12" d="M122.986,56.307l-0.115,0.256l0.635,0.713
	c-0.149,0.047-0.336,0.016-0.538-0.105c-0.492-0.296-0.886-1.009-0.886-1.602c0-0.387,0.166-0.623,0.418-0.658l0.259,1.333
	L122.986,56.307z"/>
<path id="Fill-646" inkscape:connector-curvature="0" class="st19" d="M122.359,54.956l0.391-0.207
	c0.019-0.011,0.039-0.02,0.06-0.026l-0.39,0.206C122.4,54.936,122.379,54.945,122.359,54.956"/>
<path id="Fill-648" inkscape:connector-curvature="0" class="st20" d="M122.42,54.929l0.391-0.206
	c0.019-0.007,0.041-0.013,0.06-0.017l-0.389,0.207C122.461,54.917,122.441,54.923,122.42,54.929"/>
<path id="Fill-650" inkscape:connector-curvature="0" class="st21" d="M122.482,54.913l0.389-0.207c0.006,0,0.011-0.002,0.019-0.002
	l-0.39,0.207C122.494,54.911,122.489,54.912,122.482,54.913"/>
<polygon id="Fill-652" class="st22" points="122.5,54.911 122.891,54.704 123.148,56.037 122.76,56.244 "/>
<polygon id="Fill-654" class="st23" points="123.131,56.001 123.522,55.794 123.377,56.102 122.986,56.308 "/>
<polygon id="Fill-656" class="st18" points="123.129,55.998 123.52,55.791 124.234,56.593 123.844,56.8 "/>
<polygon id="Fill-658" class="st22" points="122.939,55.016 123.33,54.809 123.521,55.793 123.131,56 "/>
<polygon id="Fill-660" class="st22" points="121.992,50.139 122.381,49.932 123.33,54.809 122.939,55.016 "/>
<path id="Fill-662" inkscape:connector-curvature="0" class="st4" d="M122.939,55.016l0.391-0.207
	c0.007,0.005,0.015,0.01,0.023,0.014l-0.389,0.207C122.955,55.025,122.948,55.021,122.939,55.016"/>
<path id="Fill-664" inkscape:connector-curvature="0" class="st3" d="M122.965,55.03l0.389-0.207l0.004,0.002l-0.389,0.207
	C122.967,55.032,122.965,55.031,122.965,55.03"/>
<polygon id="Fill-666" class="st6" points="123.855,56.636 124.246,56.429 124.246,56.45 123.855,56.657 "/>
<path id="Fill-668" inkscape:connector-curvature="0" class="st24" d="M123.855,56.657l0.391-0.207c0,0.016-0.002,0.029-0.002,0.044
	l-0.391,0.207C123.855,56.686,123.855,56.673,123.855,56.657"/>
<path id="Fill-670" inkscape:connector-curvature="0" class="st25" d="M123.854,56.701l0.391-0.207
	c-0.002,0.015-0.002,0.03-0.004,0.044l-0.389,0.207C123.852,56.73,123.854,56.716,123.854,56.701"/>
<path id="Fill-672" inkscape:connector-curvature="0" class="st26" d="M123.852,56.745l0.389-0.207c0,0.016-0.002,0.029-0.004,0.045
	l-0.391,0.207C123.848,56.774,123.85,56.761,123.852,56.745"/>
<path id="Fill-674" inkscape:connector-curvature="0" class="st27" d="M123.846,56.79l0.391-0.207
	c-0.002,0.003-0.002,0.006-0.002,0.01l-0.391,0.207C123.846,56.796,123.846,56.793,123.846,56.79"/>
<polygon id="Fill-676" class="st12" points="123.131,56.001 122.986,56.308 122.76,56.243 122.5,54.91 121.547,50.015 
	121.221,49.588 121.127,46.762 122.182,49.861 121.992,50.14 122.939,55.017 "/>
<path id="Fill-678" inkscape:connector-curvature="0" class="st12" d="M122.969,55.032c0.486,0.293,0.887,1.009,0.887,1.604
	c0,0.057-0.004,0.112-0.012,0.164l-0.713-0.799l-0.191-0.985C122.949,55.022,122.959,55.026,122.969,55.032"/>
<path id="Fill-680" inkscape:connector-curvature="0" class="st3" d="M122.969,55.032l0.389-0.207l0.023,0.015l-0.391,0.207
	C122.983,55.042,122.975,55.037,122.969,55.032"/>
<path id="Fill-682" inkscape:connector-curvature="0" class="st28" d="M122.99,55.047l0.391-0.207
	c0.011,0.008,0.025,0.017,0.037,0.024l-0.391,0.207C123.015,55.063,123.004,55.055,122.99,55.047"/>
<path id="Fill-684" inkscape:connector-curvature="0" class="st29" d="M123.027,55.071l0.391-0.207
	c0.011,0.008,0.025,0.018,0.037,0.026l-0.389,0.207C123.052,55.089,123.041,55.079,123.027,55.071"/>
<path id="Fill-686" inkscape:connector-curvature="0" class="st30" d="M123.066,55.097l0.389-0.207
	c0.013,0.009,0.025,0.019,0.037,0.028l-0.389,0.207C123.089,55.117,123.078,55.106,123.066,55.097"/>
<path id="Fill-688" inkscape:connector-curvature="0" class="st31" d="M123.104,55.126l0.389-0.207
	c0.013,0.011,0.027,0.021,0.039,0.032l-0.389,0.207C123.129,55.147,123.118,55.137,123.104,55.126"/>
<path id="Fill-690" inkscape:connector-curvature="0" class="st32" d="M123.143,55.158l0.389-0.207
	c0.013,0.011,0.027,0.022,0.039,0.034l-0.389,0.207C123.168,55.18,123.155,55.169,123.143,55.158"/>
<path id="Fill-692" inkscape:connector-curvature="0" class="st33" d="M123.182,55.192l0.389-0.207
	c0.013,0.012,0.027,0.023,0.039,0.036l-0.389,0.207C123.207,55.215,123.194,55.204,123.182,55.192"/>
<path id="Fill-694" inkscape:connector-curvature="0" class="st34" d="M123.221,55.228l0.389-0.207
	c0.013,0.013,0.025,0.024,0.039,0.038l-0.391,0.207C123.246,55.252,123.233,55.241,123.221,55.228"/>
<path id="Fill-696" inkscape:connector-curvature="0" class="st35" d="M123.258,55.266l0.391-0.207
	c0.011,0.012,0.025,0.025,0.037,0.038l-0.391,0.207C123.283,55.292,123.272,55.278,123.258,55.266"/>
<polygon id="Fill-698" class="st36" points="123.295,55.305 123.686,55.098 123.721,55.136 123.33,55.343 "/>
<path id="Fill-700" inkscape:connector-curvature="0" class="st37" d="M123.33,55.343l0.391-0.207
	c0.009,0.014,0.021,0.026,0.031,0.039l-0.389,0.207C123.351,55.368,123.342,55.357,123.33,55.343"/>
<path id="Fill-702" inkscape:connector-curvature="0" class="st38" d="M123.363,55.382l0.389-0.207
	c0.011,0.014,0.021,0.026,0.033,0.039l-0.391,0.207C123.384,55.407,123.373,55.395,123.363,55.382"/>
<path id="Fill-704" inkscape:connector-curvature="0" class="st39" d="M123.395,55.421l0.391-0.207
	c0.009,0.014,0.019,0.026,0.029,0.04l-0.389,0.207C123.416,55.447,123.405,55.435,123.395,55.421"/>
<path id="Fill-706" inkscape:connector-curvature="0" class="st40" d="M123.426,55.461l0.389-0.207
	c0.011,0.015,0.023,0.03,0.033,0.045l-0.389,0.207C123.447,55.491,123.438,55.476,123.426,55.461"/>
<path id="Fill-708" inkscape:connector-curvature="0" class="st41" d="M123.459,55.506l0.389-0.207
	c0.011,0.017,0.023,0.032,0.035,0.05l-0.391,0.207C123.482,55.538,123.471,55.523,123.459,55.506"/>
<path id="Fill-710" inkscape:connector-curvature="0" class="st42" d="M123.492,55.556l0.391-0.207
	c0.052,0.077,0.099,0.159,0.142,0.244l-0.388,0.207C123.594,55.715,123.545,55.633,123.492,55.556"/>
<path id="Fill-712" inkscape:connector-curvature="0" class="st41" d="M123.637,55.8l0.389-0.207
	c0.009,0.017,0.017,0.034,0.025,0.052l-0.389,0.206C123.653,55.834,123.645,55.817,123.637,55.8"/>
<path id="Fill-714" inkscape:connector-curvature="0" class="st40" d="M123.662,55.85l0.389-0.206
	c0.007,0.016,0.015,0.032,0.023,0.048l-0.391,0.207C123.676,55.883,123.668,55.868,123.662,55.85"/>
<polygon id="Fill-716" class="st39" points="123.684,55.899 124.075,55.692 124.092,55.733 123.702,55.94 "/>
<path id="Fill-718" inkscape:connector-curvature="0" class="st38" d="M123.701,55.94l0.391-0.207
	c0.004,0.014,0.009,0.027,0.015,0.04l-0.388,0.207C123.713,55.966,123.707,55.953,123.701,55.94"/>
<path id="Fill-720" inkscape:connector-curvature="0" class="st37" d="M123.719,55.98l0.389-0.207
	c0.006,0.014,0.011,0.027,0.015,0.041l-0.388,0.207C123.729,56.007,123.723,55.994,123.719,55.98"/>
<path id="Fill-722" inkscape:connector-curvature="0" class="st36" d="M123.734,56.021l0.389-0.207
	c0.006,0.014,0.011,0.027,0.015,0.041l-0.39,0.207C123.744,56.048,123.738,56.035,123.734,56.021"/>
<path id="Fill-724" inkscape:connector-curvature="0" class="st35" d="M123.748,56.062l0.391-0.207
	c0.005,0.015,0.009,0.028,0.015,0.043l-0.39,0.207C123.76,56.09,123.754,56.077,123.748,56.062"/>
<path id="Fill-726" inkscape:connector-curvature="0" class="st34" d="M123.764,56.105l0.391-0.207
	c0.004,0.015,0.007,0.03,0.013,0.044l-0.39,0.207C123.774,56.134,123.768,56.12,123.764,56.105"/>
<path id="Fill-728" inkscape:connector-curvature="0" class="st33" d="M123.777,56.149l0.391-0.207
	c0.004,0.016,0.007,0.031,0.013,0.046l-0.39,0.207C123.787,56.18,123.783,56.165,123.777,56.149"/>
<path id="Fill-730" inkscape:connector-curvature="0" class="st32" d="M123.791,56.195l0.391-0.207
	c0.004,0.016,0.007,0.032,0.011,0.048l-0.39,0.207C123.799,56.226,123.795,56.211,123.791,56.195"/>
<polygon id="Fill-732" class="st31" points="123.803,56.243 124.194,56.036 124.205,56.083 123.815,56.29 "/>
<path id="Fill-734" inkscape:connector-curvature="0" class="st30" d="M123.814,56.29l0.391-0.207
	c0.004,0.016,0.005,0.032,0.009,0.048l-0.39,0.207C123.823,56.321,123.818,56.306,123.814,56.29"/>
<path id="Fill-736" inkscape:connector-curvature="0" class="st29" d="M123.824,56.338l0.391-0.207
	c0.004,0.017,0.005,0.032,0.007,0.048l-0.388,0.207C123.832,56.37,123.828,56.354,123.824,56.338"/>
<path id="Fill-738" inkscape:connector-curvature="0" class="st28" d="M123.834,56.386l0.389-0.207
	c0.004,0.016,0.006,0.031,0.007,0.047l-0.388,0.207C123.838,56.417,123.836,56.402,123.834,56.386"/>
<path id="Fill-740" inkscape:connector-curvature="0" class="st3" d="M123.842,56.432l0.389-0.207
	c0.002,0.016,0.004,0.03,0.006,0.046l-0.389,0.206C123.846,56.462,123.844,56.447,123.842,56.432"/>
<path id="Fill-742" inkscape:connector-curvature="0" class="st4" d="M123.848,56.477l0.389-0.206
	c0.002,0.015,0.004,0.03,0.004,0.046l-0.389,0.206C123.85,56.508,123.848,56.493,123.848,56.477"/>
<path id="Fill-744" inkscape:connector-curvature="0" class="st43" d="M123.852,56.523l0.389-0.206
	c0.002,0.015,0.002,0.029,0.004,0.045l-0.391,0.207C123.854,56.553,123.852,56.538,123.852,56.523"/>
<path id="Fill-746" inkscape:connector-curvature="0" class="st1" d="M123.854,56.569l0.391-0.207c0,0.015,0.002,0.029,0.002,0.045
	l-0.391,0.206C123.855,56.598,123.855,56.583,123.854,56.569"/>
<polygon id="Fill-748" class="st6" points="123.855,56.613 124.246,56.407 124.246,56.428 123.855,56.635 "/>
<polygon id="Fill-750" class="st18" points="123.844,56.8 124.235,56.593 126.096,58.675 125.705,58.882 "/>
<polygon id="Fill-752" class="st36" points="126,58.718 126.391,58.511 127.34,60.493 126.951,60.7 "/>
<polygon id="Fill-754" class="st12" points="126.951,60.7 125.447,59.937 125.447,59.447 123.508,57.275 122.871,56.563 
	122.986,56.308 123.129,55.998 123.844,56.8 125.705,58.882 126,58.718 "/>
<polygon id="Fill-756" class="st20" points="122.182,49.86 122.573,49.653 122.381,49.932 121.993,50.139 "/>
<polygon id="Fill-758" class="st44" points="121.127,46.762 121.518,46.555 122.572,49.654 122.182,49.861 "/>
<polygon id="Fill-760" class="st0" points="83.866,212.32 92.668,217.786 92.668,195.571 83.822,189.873 "/>
<polygon id="Fill-762" class="st0" points="93.459,196.082 93.459,196.103 93.375,196.05 93.486,196.05 93.535,218.562 
	102.232,223.701 102.492,223.611 102.523,201.921 "/>
<polygon id="Fill-764" class="st0" points="173.992,225.411 183.607,231.001 183.469,217.413 174.14,211.62 "/>
<polygon id="Fill-766" class="st0" points="173.992,246.06 183.607,251.65 183.469,238.062 174.14,232.269 "/>
<polygon id="Fill-768" class="st0" points="161.246,217.732 170.861,223.322 170.723,209.734 161.394,203.941 "/>
<polygon id="Fill-770" class="st0" points="161.246,238.381 170.861,243.971 170.723,230.383 161.394,224.59 "/>
<polygon id="Fill-772" class="st0" points="148.236,209.942 157.851,215.532 157.715,201.944 148.384,196.151 "/>
<polygon id="Fill-774" class="st0" points="148.236,230.591 157.851,236.181 157.715,222.593 148.384,216.8 "/>
<polygon id="Fill-776" class="st0" points="135.49,202.264 145.105,207.854 144.969,194.266 135.638,188.473 "/>
<polygon id="Fill-778" class="st0" points="135.49,222.912 145.105,228.502 144.969,214.914 135.638,209.121 "/>
<polygon id="Fill-780" class="st0" points="122.596,194.511 132.211,200.101 132.073,186.513 122.744,180.72 "/>
<polygon id="Fill-782" class="st0" points="122.596,215.159 132.211,220.749 132.073,207.161 122.744,201.368 "/>
<polygon id="Fill-784" class="st0" points="54.934,153.852 64.549,159.441 64.411,145.854 55.082,140.061 "/>
<polygon id="Fill-786" class="st0" points="54.934,174.5 64.549,180.09 64.411,166.502 55.082,160.709 "/>
<polygon id="Fill-788" class="st0" points="42.188,146.173 51.803,151.763 51.665,138.175 42.335,132.382 "/>
<polygon id="Fill-790" class="st0" points="42.188,166.821 51.803,172.411 51.665,158.823 42.335,153.03 "/>
<polygon id="Fill-792" class="st0" points="29.178,138.383 38.793,143.973 38.657,130.385 29.326,124.592 "/>
<polygon id="Fill-794" class="st0" points="29.178,159.031 38.793,164.621 38.657,151.033 29.326,145.24 "/>
<polygon id="Fill-796" class="st0" points="16.432,130.704 26.047,136.294 25.911,122.706 16.58,116.913 "/>
<polygon id="Fill-798" class="st0" points="16.432,151.352 26.047,156.942 25.911,143.354 16.58,137.561 "/>
<polygon id="Fill-800" class="st0" points="108.125,177.286 117.74,182.876 117.604,169.288 108.273,163.495 "/>
<polygon id="Fill-802" class="st0" points="108.125,197.935 117.74,203.525 117.604,189.937 108.273,184.144 "/>
<polygon id="Fill-804" class="st0" points="95.379,169.607 104.994,175.197 104.858,161.609 95.527,155.816 "/>
<polygon id="Fill-806" class="st0" points="95.379,190.256 104.994,195.846 104.858,182.258 95.527,176.465 "/>
<polygon id="Fill-808" class="st0" points="82.371,161.817 91.986,167.407 91.848,153.819 82.519,148.026 "/>
<polygon id="Fill-810" class="st0" points="82.371,182.466 91.986,188.056 91.848,174.468 82.519,168.675 "/>
<polygon id="Fill-812" class="st0" points="69.625,154.139 79.24,159.729 79.102,146.141 69.773,140.348 "/>
<polygon id="Fill-814" class="st0" points="69.625,174.787 79.24,180.377 79.102,166.789 69.773,160.996 "/>
<polygon id="Fill-816" class="st0" points="107.707,218.02 117.322,223.61 117.184,210.022 107.855,204.229 "/>
<polygon id="Fill-818" class="st0" points="69.625,195.501 79.24,201.091 79.102,187.503 69.773,181.71 "/>
<polygon id="Fill-820" class="st0" points="3.537,122.951 13.152,128.541 13.014,114.953 3.685,109.16 "/>
<polygon id="Fill-822" class="st0" points="3.537,143.6 13.152,149.189 13.014,135.602 3.685,129.809 "/>
<path id="Stroke-824" class="st45" d="M72.367,206.395l37.063,21.832"/>
<path id="Fill-826" class="st11" d="M108.852,206.83l6.668,4.019l-0.018,8.247c0,0-0.402-4.832-3.238-8.532
	C109.664,207.17,108.852,206.83,108.852,206.83"/>
<path id="Fill-828" class="st11" d="M43.108,135.374l6.667,4.019l-0.016,8.242c0,0-0.405-4.831-3.24-8.531
	C43.919,135.714,43.108,135.374,43.108,135.374"/>
<path id="Fill-830" class="st11" d="M4.806,112.129l6.666,4.018l-0.016,8.241c0,0-0.406-4.83-3.242-8.53
	C5.615,112.467,4.806,112.129,4.806,112.129"/>
<path id="Fill-832" class="st11" d="M17.608,119.486l6.668,4.019l-0.016,8.241c0,0-0.406-4.829-3.238-8.528
	C18.42,119.826,17.608,119.486,17.608,119.486"/>
<path id="Fill-834" class="st11" d="M30.19,127.644l6.666,4.019l-0.016,8.247c0,0-0.406-4.833-3.238-8.532
	C31,127.984,30.19,127.644,30.19,127.644"/>
<path id="Fill-836" class="st11" d="M55.729,143.103l6.67,4.021l-0.017,8.241c0,0-0.409-4.831-3.243-8.531
	C56.537,143.443,55.729,143.103,55.729,143.103"/>
<path id="Fill-838" class="st11" d="M70.99,184.452l6.668,4.02l-0.016,8.245c0,0-0.405-4.832-3.24-8.532
	C71.802,184.795,70.99,184.452,70.99,184.452"/>
<path id="Fill-375_3_" inkscape:connector-curvature="0" sodipodi:nodetypes="ccccc" class="st12" d="M136.07,43.838
	c0,0.857,0,1.713,0,2.57l-24.326-14.623v-2.57L136.07,43.838z"/>
<path id="path1061_1_" inkscape:connector-curvature="0" sodipodi:nodetypes="ccccc" class="st13" d="M111.744,29.215l23.389-12.412
	l24.327,14.623l-23.39,12.412L111.744,29.215z"/>
<path id="Fill-375_2_" inkscape:connector-curvature="0" sodipodi:nodetypes="ccccc" class="st4" d="M159.46,31.426
	c0,0.857,0,1.713,0,2.57l-23.39,12.412v-2.57L159.46,31.426z"/>
<path id="Fill-840" class="st11" d="M43.313,156.152l6.667,4.019l-0.016,8.242c0,0-0.405-4.831-3.24-8.531
	C44.124,156.492,43.313,156.152,43.313,156.152"/>
<path id="Fill-842" class="st11" d="M5.01,132.907l6.666,4.018l-0.016,8.241c0,0-0.406-4.83-3.242-8.53
	C5.819,133.245,5.01,132.907,5.01,132.907"/>
<path id="Fill-844" class="st11" d="M17.813,140.264l6.666,4.019l-0.016,8.241c0,0-0.404-4.829-3.238-8.528
	C18.624,140.605,17.813,140.264,17.813,140.264"/>
<path id="Fill-846" class="st11" d="M30.393,148.423l6.666,4.019l-0.016,8.247c0,0-0.404-4.833-3.238-8.532
	C31.204,148.763,30.393,148.423,30.393,148.423"/>
<path id="Fill-848" class="st11" d="M55.933,163.882l6.67,4.021l-0.017,8.241c0,0-0.409-4.831-3.243-8.531
	C56.742,164.222,55.933,163.882,55.933,163.882"/>
<path id="Fill-850" class="st11" d="M161.55,206.926l6.667,4.019l-0.016,8.242c0,0-0.405-4.831-3.24-8.531
	C162.361,207.266,161.55,206.926,161.55,206.926"/>
<path id="Fill-852" class="st11" d="M123.247,183.681l6.666,4.018l-0.016,8.241c0,0-0.406-4.83-3.242-8.53
	C124.056,184.019,123.247,183.681,123.247,183.681"/>
<path id="Fill-854" class="st11" d="M136.049,191.038l6.668,4.019l-0.016,8.241c0,0-0.406-4.829-3.238-8.528
	C136.861,191.378,136.049,191.038,136.049,191.038"/>
<path id="Fill-856" class="st11" d="M148.631,199.196l6.666,4.019l-0.016,8.247c0,0-0.406-4.833-3.238-8.532
	C149.442,199.536,148.631,199.196,148.631,199.196"/>
<path id="Fill-858" class="st11" d="M174.17,214.655l6.67,4.021l-0.017,8.241c0,0-0.409-4.831-3.243-8.531
	C174.979,214.995,174.17,214.655,174.17,214.655"/>
<path id="Fill-860" class="st11" d="M162.469,227.679l6.666,4.019l-0.016,8.242c0,0-0.404-4.831-3.24-8.531
	C163.28,228.019,162.469,227.679,162.469,227.679"/>
<path id="Fill-862" class="st11" d="M124.166,204.434l6.666,4.018l-0.016,8.241c0,0-0.406-4.83-3.242-8.53
	C124.975,204.771,124.166,204.434,124.166,204.434"/>
<path id="Fill-864" class="st11" d="M136.968,211.791l6.667,4.019l-0.016,8.241c0,0-0.405-4.829-3.238-8.528
	C137.78,212.131,136.968,211.791,136.968,211.791"/>
<path id="Fill-866" class="st11" d="M149.549,219.949l6.666,4.019l-0.016,8.247c0,0-0.405-4.833-3.238-8.532
	C150.36,220.289,149.549,219.949,149.549,219.949"/>
<path id="Fill-868" class="st11" d="M175.088,235.408l6.67,4.021l-0.016,8.241c0,0-0.41-4.831-3.244-8.531
	C175.897,235.748,175.088,235.408,175.088,235.408"/>
<path id="Fill-870" class="st11" d="M96.23,159.011l6.668,4.019l-0.016,8.242c0,0-0.406-4.831-3.24-8.531
	C97.041,159.351,96.23,159.011,96.23,159.011"/>
<path id="Fill-872" class="st11" d="M70.73,143.123l6.667,4.019l-0.016,8.241c0,0-0.405-4.829-3.238-8.528
	C71.543,143.463,70.73,143.123,70.73,143.123"/>
<path id="Fill-874" class="st11" d="M83.312,151.281l6.666,4.019l-0.016,8.247c0,0-0.405-4.833-3.238-8.532
	C84.123,151.621,83.312,151.281,83.312,151.281"/>
<path id="Fill-876" class="st11" d="M108.852,166.74l6.67,4.021l-0.018,8.241c0,0-0.408-4.831-3.242-8.531
	C109.661,167.08,108.852,166.74,108.852,166.74"/>
<path id="Fill-878" class="st11" d="M96.517,179.521l6.667,4.019l-0.016,8.242c0,0-0.405-4.831-3.24-8.531
	C97.328,179.861,96.517,179.521,96.517,179.521"/>
<path id="Fill-880" class="st11" d="M71.016,163.634l6.668,4.019l-0.016,8.241c0,0-0.406-4.829-3.238-8.528
	C71.828,163.974,71.016,163.634,71.016,163.634"/>
<path id="Fill-882" class="st11" d="M83.598,171.792l6.666,4.019l-0.016,8.247c0,0-0.406-4.833-3.238-8.532
	C84.409,172.132,83.598,171.792,83.598,171.792"/>
<path id="Fill-884" class="st11" d="M109.137,187.251l6.67,4.021l-0.017,8.241c0,0-0.409-4.831-3.243-8.531
	C109.946,187.591,109.137,187.251,109.137,187.251"/>
<path id="Fill-375_1_" inkscape:connector-curvature="0" sodipodi:nodetypes="ccccc" class="st4" d="M159.46,77.426
	c0,0.857,0,1.713,0,2.57l-23.39,12.412v-2.57L159.46,77.426z"/>
<defs>
	<filter id="Adobe_OpacityMaskFilter_1_" filterUnits="userSpaceOnUse" x="125.307" y="0" width="28.375" height="40.665">
		<feColorMatrix  type="matrix" values="1 0 0 0 0  0 1 0 0 0  0 0 1 0 0  0 0 0 1 0"/>
	</filter>
</defs>
<mask maskUnits="userSpaceOnUse" x="125.307" y="0" width="28.375" height="40.665" id="mask-4_1_">
	<g id="g235_2_" class="st46">
		<polygon id="path-3_1_" class="st9" points="125.307,0 153.682,0 153.682,40.665 125.307,40.665 		"/>
	</g>
</mask>
<polygon id="Fill-511" class="st47" points="125.307,10.344 144.797,0 153.682,30.322 134.192,40.665 "/>
<polygon id="Fill-514" class="st12" points="125.307,10.344 134.192,40.665 116.467,30.015 "/>
</svg>
