<?xml version="1.0" encoding="utf-8"?>
<svg version="1.1"
	 id="Layer_1" inkscape:version="0.92.3 (2405546, 2018-03-11)" sodipodi:docname="Secure_Building8.svg" xmlns:cc="http://creativecommons.org/ns#" xmlns:dc="http://purl.org/dc/elements/1.1/" xmlns:inkscape="http://www.inkscape.org/namespaces/inkscape" xmlns:rdf="http://www.w3.org/1999/02/22-rdf-syntax-ns#" xmlns:sodipodi="http://sodipodi.sourceforge.net/DTD/sodipodi-0.dtd" xmlns:svg="http://www.w3.org/2000/svg"
	 xmlns="http://www.w3.org/2000/svg" xmlns:xlink="http://www.w3.org/1999/xlink" x="0px" y="0px" viewBox="0 0 271.87 185.188"
	 style="enable-background:new 0 0 271.87 185.188;" xml:space="preserve">
<style type="text/css">
	.st0{fill:#BBBDBF;}
	.st1{fill:none;stroke:#626366;stroke-width:1.078;}
	.st2{filter:url(#Adobe_OpacityMaskFilter);}
	.st3{fill:#FFFFFF;}
	.st4{mask:url(#mask-2_2_);fill:url(#Fill-10_1_);}
	.st5{filter:url(#Adobe_OpacityMaskFilter_1_);}
	.st6{mask:url(#mask-5_2_);fill:url(#Fill-15_1_);}
	.st7{filter:url(#Adobe_OpacityMaskFilter_2_);}
	.st8{mask:url(#mask-8_2_);fill:url(#Fill-25_1_);}
	.st9{filter:url(#Adobe_OpacityMaskFilter_3_);}
	.st10{mask:url(#mask-11_2_);fill:url(#Fill-30_1_);}
	.st11{filter:url(#Adobe_OpacityMaskFilter_4_);}
	.st12{mask:url(#mask-14_2_);fill:#1D5C87;}
	.st13{fill:#216390;}
	.st14{filter:url(#Adobe_OpacityMaskFilter_5_);}
	.st15{mask:url(#mask-18_2_);fill:#1E5E89;}
	.st16{filter:url(#Adobe_OpacityMaskFilter_6_);}
	.st17{mask:url(#mask-22_2_);fill:#236796;}
	.st18{fill:#276E9F;}
	.st19{filter:url(#Adobe_OpacityMaskFilter_7_);}
	.st20{mask:url(#mask-30_2_);fill:#457AA5;}
	.st21{fill:#1D5C87;}
	.st22{filter:url(#Adobe_OpacityMaskFilter_8_);}
	.st23{mask:url(#mask-42_2_);fill:#467DA8;}
	.st24{fill:#FEFEFE;}
	.st25{fill:#D6DEE6;}
	.st26{fill:#D0D2D3;}
	.st27{filter:url(#Adobe_OpacityMaskFilter_9_);}
	.st28{mask:url(#mask-54_2_);fill:url(#Fill-183_1_);}
	.st29{filter:url(#Adobe_OpacityMaskFilter_10_);}
	.st30{mask:url(#mask-57_2_);fill:url(#Fill-188_1_);}
	.st31{filter:url(#Adobe_OpacityMaskFilter_11_);}
	.st32{mask:url(#mask-60_2_);fill:url(#Fill-202_1_);}
	.st33{filter:url(#Adobe_OpacityMaskFilter_12_);}
	.st34{mask:url(#mask-63_2_);fill:url(#Fill-207_1_);}
	.st35{filter:url(#Adobe_OpacityMaskFilter_13_);}
	.st36{mask:url(#mask-66_2_);fill:url(#Fill-217_1_);}
	.st37{filter:url(#Adobe_OpacityMaskFilter_14_);}
	.st38{mask:url(#mask-69_2_);fill:url(#Fill-222_1_);}
	.st39{filter:url(#Adobe_OpacityMaskFilter_15_);}
	.st40{mask:url(#mask-72_2_);fill:url(#Fill-240_1_);}
	.st41{filter:url(#Adobe_OpacityMaskFilter_16_);}
	.st42{mask:url(#mask-75_2_);fill:url(#Fill-245_1_);}
	.st43{filter:url(#Adobe_OpacityMaskFilter_17_);}
	.st44{mask:url(#mask-78_2_);fill:url(#Fill-255_1_);}
	.st45{filter:url(#Adobe_OpacityMaskFilter_18_);}
	.st46{mask:url(#mask-81_2_);fill:url(#Fill-260_1_);}
	.st47{fill:none;stroke:#4F504F;stroke-width:4.32;}
	.st48{fill:none;stroke:#4F504F;stroke-width:2.25;}
	.st49{filter:url(#Adobe_OpacityMaskFilter_19_);}
	.st50{mask:url(#mask-84_2_);fill:#AC8631;}
	.st51{filter:url(#Adobe_OpacityMaskFilter_20_);}
	.st52{mask:url(#mask-114_2_);fill:#A3802E;}
	.st53{fill:#D3A43E;}
	.st54{fill:#C49939;}
	.st55{filter:url(#Adobe_OpacityMaskFilter_21_);}
	.st56{mask:url(#mask-136_2_);fill:#DFB04B;}
	.st57{fill:#FCBD56;}
	.st58{fill:none;stroke:#F2EFEF;stroke-width:0.115;}
	.st59{fill:#9D8043;}
	.st60{fill:#BFBEC0;}
	.st61{filter:url(#Adobe_OpacityMaskFilter_22_);}
	.st62{mask:url(#mask-246_2_);fill:#B7B7B8;}
	.st63{filter:url(#Adobe_OpacityMaskFilter_23_);}
	.st64{mask:url(#mask-526_2_);fill:#B7B7B8;}
	.st65{fill:#A1A1A3;}
	.st66{fill:#D0D1D1;}
	.st67{fill:none;stroke:#4F504F;stroke-width:0.115;}
</style>
<sodipodi:namedview  bordercolor="#666666" borderopacity="1" gridtolerance="10" guidetolerance="10" id="namedview2733" inkscape:current-layer="Layer_1" inkscape:cx="171.33195" inkscape:cy="113.08455" inkscape:pageopacity="0" inkscape:pageshadow="2" inkscape:window-height="1017" inkscape:window-maximized="1" inkscape:window-width="1920" inkscape:window-x="-8" inkscape:window-y="-8" inkscape:zoom="4" objecttolerance="10" pagecolor="#ffffff" showgrid="false">
	</sodipodi:namedview>
<title  id="title4">icon-chain-building</title>
<desc  id="desc6">Created with Sketch.</desc>
<path id="Fill-1" class="st0" d="M242.087,82.917c0.094,0.293,3.477,0.175,4.705-0.982c0,0-0.707-0.825,0.471-2.885
	c1.119-1.953,6.746-3.672,12.744,0.076c6.92,4.324,6.473,9.367,5.648,10.44c-2.076,2.699-7.041,2.857-11.293,0.816
	c-4.162-1.998-4.289-3.305-5.011-3.682c0,0-2.588,1.151-5.174,0.953c0,0,2.437,3.812,8.344,6.687
	c7.519,3.659,14.597,2.339,17.839-1.971c1.944-2.584,1.858-11.327-8.816-17.345c-8.908-5.021-17.182-2.127-19.094,1.285
	C241.177,78.578,241.749,81.89,242.087,82.917"/>
<path id="Stroke-3" class="st1" d="M242.087,82.917c0.094,0.293,3.477,0.175,4.705-0.982c0,0-0.707-0.825,0.471-2.885
	c1.119-1.953,6.746-3.672,12.744,0.076c6.92,4.324,6.473,9.367,5.648,10.44c-2.076,2.699-7.041,2.857-11.293,0.816
	c-4.162-1.998-4.289-3.305-5.011-3.682c0,0-2.588,1.151-5.174,0.953c0,0,2.437,3.812,8.344,6.687
	c7.519,3.659,14.597,2.339,17.839-1.971c1.944-2.584,1.858-11.327-8.816-17.345c-8.908-5.021-17.182-2.127-19.094,1.285
	C241.177,78.578,241.749,81.89,242.087,82.917z"/>
<path id="Fill-5" class="st0" d="M208.31,63.985c0.094,0.293,3.477,0.176,4.705-0.982c0,0-0.707-0.825,0.471-2.885
	c1.119-1.953,6.746-3.672,12.744,0.076c6.92,4.324,6.473,9.367,5.648,10.439c-2.076,2.7-7.041,2.859-11.293,0.819
	c-4.162-2-4.289-3.307-5.011-3.684c0,0-2.588,1.153-5.174,0.953c0,0,2.437,3.812,8.344,6.686c7.519,3.66,14.597,2.34,17.839-1.97
	c1.944-2.583,1.858-11.327-8.816-17.344c-8.908-5.022-17.182-2.128-19.094,1.284C207.4,59.647,207.974,62.957,208.31,63.985"/>
<path id="Stroke-7" class="st1" d="M208.31,63.985c0.094,0.293,3.477,0.176,4.705-0.982c0,0-0.707-0.825,0.471-2.885
	c1.119-1.953,6.746-3.672,12.744,0.076c6.92,4.324,6.473,9.367,5.648,10.439c-2.076,2.7-7.041,2.859-11.293,0.819
	c-4.162-2-4.289-3.307-5.011-3.684c0,0-2.588,1.153-5.174,0.953c0,0,2.437,3.812,8.344,6.686c7.519,3.66,14.597,2.34,17.839-1.97
	c1.944-2.583,1.858-11.327-8.816-17.344c-8.908-5.022-17.182-2.128-19.094,1.284C207.4,59.647,207.974,62.957,208.31,63.985z"/>
<defs>
	<filter id="Adobe_OpacityMaskFilter" filterUnits="userSpaceOnUse" x="224.763" y="63.426" width="30.06" height="23.889">
		<feColorMatrix  type="matrix" values="1 0 0 0 0  0 1 0 0 0  0 0 1 0 0  0 0 0 1 0"/>
	</filter>
</defs>
<mask maskUnits="userSpaceOnUse" x="224.763" y="63.426" width="30.06" height="23.889" id="mask-2_2_">
	<g id="g18_1_" class="st2">
		<path id="path-1_2_" class="st3" d="M225.212,68.121c-1.146,3.592-0.762,11.01,9.283,16.52c5.969,3.273,10.49,2.731,12.598,2.473
			c3.462-0.425,7.271-3.55,7.672-6.998c0.187-1.629-0.117-3.402-0.356-3.419c-2.769-0.169-4.349,0.384-4.99,0.712
			c0,0,0.817,3.429-3.449,4.953c-1.379,0.492-5.156,0.798-9.402-1.517c-4.12-2.25-5.147-4.293-6.081-6.302
			c-2.269-4.889,2.098-6.034,2.003-6.672c-0.115-0.761-1.27-3.821-2.17-4.439c-0.007-0.004-0.017-0.006-0.031-0.006
			C229.854,63.426,226.004,65.641,225.212,68.121"/>
	</g>
</mask>
<linearGradient id="Fill-10_1_" gradientUnits="userSpaceOnUse" x1="-653.1445" y1="50.4992" x2="-652.886" y2="51.6065" gradientTransform="matrix(30.0601 0 0 23.8889 19869.4102 -1144.5823)">
	<stop  offset="0" style="stop-color:#E6E7E7"/>
	<stop  offset="1" style="stop-color:#A7A9AC"/>
</linearGradient>
<path id="Fill-10" class="st4" d="M225.212,68.121c-1.146,3.592-0.762,11.01,9.283,16.52c5.969,3.273,10.49,2.731,12.598,2.473
	c3.462-0.425,7.271-3.55,7.672-6.998c0.187-1.629-0.117-3.402-0.356-3.419c-2.769-0.169-4.349,0.384-4.99,0.712
	c0,0,0.817,3.429-3.449,4.953c-1.379,0.492-5.156,0.798-9.402-1.517c-4.12-2.25-5.147-4.293-6.081-6.302
	c-2.269-4.889,2.098-6.034,2.003-6.672c-0.115-0.761-1.27-3.821-2.17-4.439c-0.007-0.004-0.017-0.006-0.031-0.006
	C229.854,63.426,226.004,65.641,225.212,68.121"/>
<path id="Stroke-13" class="st1" d="M230.319,63.432c0.9,0.617,2.055,3.678,2.17,4.439c0.096,0.638-4.272,1.783-2.002,6.671
	c0.934,2.009,1.961,4.052,6.08,6.302c4.246,2.317,8.023,2.01,9.402,1.518c4.266-1.524,3.45-4.953,3.45-4.953
	c0.64-0.329,2.22-0.881,4.99-0.711c0.238,0.015,0.543,1.789,0.355,3.418c-0.4,3.448-4.209,6.573-7.672,6.998
	c-2.107,0.257-6.628,0.8-12.597-2.473c-10.045-5.51-10.43-12.928-9.283-16.52C226.028,65.563,230.101,63.286,230.319,63.432z"/>
<defs>
	<filter id="Adobe_OpacityMaskFilter_1_" filterUnits="userSpaceOnUse" x="235.558" y="62.926" width="16.631" height="9.967">
		<feColorMatrix  type="matrix" values="1 0 0 0 0  0 1 0 0 0  0 0 1 0 0  0 0 0 1 0"/>
	</filter>
</defs>
<mask maskUnits="userSpaceOnUse" x="235.558" y="62.926" width="16.631" height="9.967" id="mask-5_2_">
	<g id="g34_1_" class="st5">
		<path id="path-4_2_" class="st3" d="M235.558,62.957l1.209,2.298l0.769,2.363c-0.092-0.551,6.338,0.907,9.666,5.275
			c1.004-0.234,1.006-0.222,2.243-0.597c1.247-0.379,2.744-0.252,2.744-0.252c-1.623-3.242-9.564-9.118-15.859-9.118
			C236.07,62.926,235.812,62.937,235.558,62.957"/>
	</g>
</mask>
<linearGradient id="Fill-15_1_" gradientUnits="userSpaceOnUse" x1="-635.3679" y1="121.2468" x2="-634.3674" y2="122.158" gradientTransform="matrix(16.631 0 0 9.967 10802.126 -1145.0762)">
	<stop  offset="0" style="stop-color:#E6E7E7"/>
	<stop  offset="1" style="stop-color:#A7A9AC"/>
</linearGradient>
<path id="Fill-15" class="st6" d="M235.558,62.957l1.209,2.298l0.769,2.363c-0.092-0.551,6.338,0.907,9.666,5.275
	c1.004-0.234,1.006-0.222,2.243-0.597c1.247-0.379,2.744-0.252,2.744-0.252c-1.623-3.242-9.564-9.118-15.859-9.118
	C236.07,62.926,235.812,62.937,235.558,62.957"/>
<path id="Stroke-18" class="st1" d="M237.536,67.619l-0.77-2.364l-1.209-2.297c6.401-0.522,14.942,5.711,16.631,9.086
	c0,0-1.496-0.127-2.744,0.252c-1.236,0.375-1.238,0.363-2.242,0.597C243.874,68.525,237.444,67.067,237.536,67.619z"/>
<path id="Fill-20" class="st0" d="M44.926,83.588c0.297,0.078,2.029-2.83,1.723-4.49c0,0-1.077,0.15-2.171-1.957
	c-1.036-1.996,0.566-7.658,6.965-10.672c7.382-3.477,11.38-0.369,11.836,0.904c1.145,3.207-1.412,7.467-5.429,9.936
	c-3.935,2.418-5.102,1.814-5.81,2.218c0,0-0.433,2.801-2.001,4.868c0,0,4.525,0.015,10.139-3.395
	c7.149-4.34,9.871-11.006,8.005-16.064c-1.119-3.034-8.517-7.696-19.356-1.981c-9.046,4.77-11.093,13.293-9.26,16.748
	C40.786,82.002,43.879,83.313,44.926,83.588"/>
<path id="Stroke-22" class="st1" d="M44.926,83.588c0.297,0.078,2.029-2.83,1.723-4.49c0,0-1.077,0.15-2.171-1.957
	c-1.036-1.996,0.566-7.658,6.965-10.672c7.382-3.477,11.38-0.369,11.836,0.904c1.145,3.207-1.412,7.467-5.429,9.936
	c-3.935,2.418-5.102,1.814-5.81,2.218c0,0-0.433,2.801-2.001,4.868c0,0,4.525,0.015,10.139-3.395
	c7.149-4.34,9.871-11.006,8.005-16.064c-1.119-3.034-8.517-7.696-19.356-1.981c-9.046,4.77-11.093,13.293-9.26,16.748
	C40.786,82.002,43.879,83.313,44.926,83.588z"/>
<defs>
	<filter id="Adobe_OpacityMaskFilter_2_" filterUnits="userSpaceOnUse" x="21.959" y="70.389" width="30.005" height="23.878">
		<feColorMatrix  type="matrix" values="1 0 0 0 0  0 1 0 0 0  0 0 1 0 0  0 0 0 1 0"/>
	</filter>
</defs>
<mask maskUnits="userSpaceOnUse" x="21.959" y="70.389" width="30.005" height="23.878" id="mask-8_2_">
	<g id="g52_1_" class="st7">
		<path id="path-7_2_" class="st3" d="M46.341,70.421c-1.643,2.232-2.033,3.863-2.104,4.579c0,0,3.324,1.17,2.296,5.583
			c-0.333,1.424-2.121,4.767-6.367,7.08c-4.122,2.246-6.396,2.004-8.591,1.699c-5.337-0.739-3.937-5.032-4.524-5.295
			c-0.704-0.316-3.901-1.002-4.907-0.578c-0.243,0.102-0.532,4.76,1.177,6.832c2.398,2.908,8.843,6.601,18.914,1.14
			c5.983-3.245,7.976-7.339,8.901-9.252c1.518-3.138,0.953-8.032-1.73-10.237c-1.125-0.925-2.558-1.583-2.964-1.583
			C46.391,70.389,46.357,70.399,46.341,70.421"/>
	</g>
</mask>
<linearGradient id="Fill-25_1_" gradientUnits="userSpaceOnUse" x1="-653.4116" y1="50.9084" x2="-652.5302" y2="51.2347" gradientTransform="matrix(30.0051 0 0 23.8779 19629.4277 -1137.6095)">
	<stop  offset="0" style="stop-color:#E6E7E7"/>
	<stop  offset="1" style="stop-color:#A7A9AC"/>
</linearGradient>
<path id="Fill-25" class="st8" d="M46.341,70.421c-1.643,2.232-2.033,3.863-2.104,4.579c0,0,3.324,1.17,2.296,5.583
	c-0.333,1.424-2.121,4.767-6.367,7.08c-4.122,2.246-6.396,2.004-8.591,1.699c-5.337-0.739-3.937-5.032-4.524-5.295
	c-0.704-0.316-3.901-1.002-4.907-0.578c-0.243,0.102-0.532,4.76,1.177,6.832c2.398,2.908,8.843,6.601,18.914,1.14
	c5.983-3.245,7.976-7.339,8.901-9.252c1.518-3.138,0.953-8.032-1.73-10.237c-1.125-0.925-2.558-1.583-2.964-1.583
	C46.391,70.389,46.357,70.399,46.341,70.421"/>
<path id="Stroke-28" class="st1" d="M22.145,83.489c1.005-0.424,4.203,0.262,4.906,0.578c0.587,0.264-0.813,4.557,4.524,5.295
	c2.195,0.305,4.469,0.547,8.591-1.699c4.247-2.313,6.034-5.656,6.367-7.08c1.029-4.412-2.296-5.582-2.296-5.582
	c0.071-0.717,0.462-2.348,2.104-4.58c0.142-0.194,1.798,0.509,3.066,1.55c2.682,2.205,3.248,7.1,1.729,10.239
	c-0.925,1.912-2.918,6.006-8.9,9.252c-10.071,5.461-16.517,1.767-18.915-1.141C21.613,88.249,21.902,83.591,22.145,83.489z"/>
<defs>
	<filter id="Adobe_OpacityMaskFilter_3_" filterUnits="userSpaceOnUse" x="24.58" y="69.737" width="16.645" height="9.949">
		<feColorMatrix  type="matrix" values="1 0 0 0 0  0 1 0 0 0  0 0 1 0 0  0 0 0 1 0"/>
	</filter>
</defs>
<mask maskUnits="userSpaceOnUse" x="24.58" y="69.737" width="16.645" height="9.949" id="mask-11_2_">
	<g id="g68_1_" class="st9">
		<path id="path-10_2_" class="st3" d="M24.58,78.827l2.587,0.228l2.404,0.631c-0.514-0.221,4.194-4.836,9.67-5.267
			c0.345-0.973,0.357-0.967,0.709-2.21c0.357-1.253,1.275-2.442,1.275-2.442c-0.184-0.02-0.383-0.03-0.596-0.03
			C36.52,69.737,27.459,73.444,24.58,78.827"/>
	</g>
</mask>
<linearGradient id="Fill-30_1_" gradientUnits="userSpaceOnUse" x1="-635.3737" y1="122.3767" x2="-634.3741" y2="121.4656" gradientTransform="matrix(16.645 0 0 9.949 10600.6123 -1138.2651)">
	<stop  offset="0" style="stop-color:#E6E7E7"/>
	<stop  offset="1" style="stop-color:#A7A9AC"/>
</linearGradient>
<path id="Fill-30" class="st10" d="M24.58,78.827l2.587,0.228l2.404,0.631c-0.514-0.221,4.194-4.836,9.67-5.267
	c0.345-0.973,0.357-0.967,0.709-2.21c0.357-1.253,1.275-2.442,1.275-2.442c-0.184-0.02-0.383-0.03-0.596-0.03
	C36.52,69.737,27.459,73.444,24.58,78.827"/>
<path id="Stroke-33" class="st1" d="M29.571,79.686l-2.404-0.631l-2.587-0.228c3.028-5.662,12.892-9.469,16.645-9.061
	c0,0-0.918,1.19-1.275,2.443c-0.353,1.243-0.365,1.237-0.71,2.209C33.764,74.85,29.057,79.465,29.571,79.686z"/>
<defs>
	<filter id="Adobe_OpacityMaskFilter_4_" filterUnits="userSpaceOnUse" x="159.526" y="0.504" width="71.394" height="40.691">
		<feColorMatrix  type="matrix" values="1 0 0 0 0  0 1 0 0 0  0 0 1 0 0  0 0 0 1 0"/>
	</filter>
</defs>
<mask maskUnits="userSpaceOnUse" x="159.526" y="0.504" width="71.394" height="40.691" id="mask-14_2_">
	<g id="g84_1_" class="st11">
		<path id="path-13_2_" class="st3" d="M159.527,1.205l68.148,39.991c1.594-0.849,2.603-0.829,3.244-0.454
			c-22.717-13.332-45.432-26.658-68.15-39.99c-0.261-0.153-0.583-0.247-0.982-0.247C161.209,0.505,160.47,0.702,159.527,1.205"/>
	</g>
</mask>
<path id="Fill-35" class="st12" d="M161.767,0.504c-0.408,0.003-0.894,0.106-1.475,0.342h-0.002
	c-0.238,0.096-0.492,0.213-0.764,0.359l68.148,39.99c0.273-0.146,0.527-0.263,0.766-0.359c1.161-0.471,1.948-0.406,2.48-0.096
	L162.769,0.752C162.503,0.596,162.174,0.5,161.767,0.504z"/>
<polygon id="Fill-42" class="st13" points="227.675,41.196 206.2,52.615 138.05,12.623 159.526,1.205 "/>
<defs>
	<filter id="Adobe_OpacityMaskFilter_5_" filterUnits="userSpaceOnUse" x="135.835" y="0" width="69.716" height="40.257">
		<feColorMatrix  type="matrix" values="1 0 0 0 0  0 1 0 0 0  0 0 1 0 0  0 0 0 1 0"/>
	</filter>
</defs>
<mask maskUnits="userSpaceOnUse" x="135.835" y="0" width="69.716" height="40.257" id="mask-18_2_">
	<g id="g105_1_" class="st14">
		<path id="path-17_2_" class="st3" d="M136.753,0c-0.281,0.006-0.592,0.091-0.92,0.265l68.148,39.992
			c0.613-0.325,1.168-0.342,1.571-0.105c-22.717-13.329-45.432-26.66-68.148-39.989c-0.175-0.103-0.376-0.159-0.599-0.163"/>
	</g>
</mask>
<path id="Fill-44" class="st15" d="M136.804,0c-0.222-0.004-0.463,0.044-0.717,0.146c-0.083,0.034-0.168,0.074-0.252,0.119
	l68.146,39.992c0.086-0.046,0.168-0.086,0.254-0.119c0.509-0.207,0.968-0.19,1.316,0.014l-68.148-39.99
	C137.228,0.06,137.026,0.004,136.804,0z"/>
<defs>
	<filter id="Adobe_OpacityMaskFilter_6_" filterUnits="userSpaceOnUse" x="43.257" y="133.857" width="70.838" height="45.912">
		<feColorMatrix  type="matrix" values="1 0 0 0 0  0 1 0 0 0  0 0 1 0 0  0 0 0 1 0"/>
	</filter>
</defs>
<mask maskUnits="userSpaceOnUse" x="43.257" y="133.857" width="70.838" height="45.912" id="mask-22_2_">
	<g id="g125_1_" class="st16">
		<path id="path-21_2_" class="st3" d="M45.947,139.777c22.717,13.33,45.431,26.66,68.148,39.992
			c-1.664-0.977-2.698-3.034-2.689-5.923l-68.15-39.989C43.249,136.744,44.281,138.8,45.947,139.777"/>
	</g>
</mask>
<path id="Fill-51" class="st17" d="M43.257,133.857c-0.001,0.678,0.054,1.306,0.16,1.889l-0.002-0.002
	c0.109,0.586,0.27,1.124,0.479,1.611c0.243,0.563,0.547,1.054,0.91,1.469c0.335,0.385,0.717,0.705,1.141,0.953l68.15,39.992
	c-0.426-0.25-0.808-0.569-1.143-0.955c-0.363-0.415-0.668-0.904-0.908-1.469c-0.21-0.484-0.369-1.021-0.479-1.611
	c-0.107-0.58-0.162-1.214-0.16-1.889L43.257,133.857z"/>
<polygon id="Fill-64" class="st18" points="133.302,91.375 65.152,51.384 65.177,40.645 133.327,80.635 "/>
<polygon id="Fill-66" class="st13" points="135.628,76.603 67.478,36.613 135.833,0.265 203.982,40.257 "/>
<defs>
	<filter id="Adobe_OpacityMaskFilter_7_" filterUnits="userSpaceOnUse" x="65.178" y="36.613" width="70.45" height="44.021">
		<feColorMatrix  type="matrix" values="1 0 0 0 0  0 1 0 0 0  0 0 1 0 0  0 0 0 1 0"/>
	</filter>
</defs>
<mask maskUnits="userSpaceOnUse" x="65.178" y="36.613" width="70.45" height="44.021" id="mask-30_2_">
	<g id="g167_1_" class="st19">
		<path id="path-29_2_" class="st3" d="M65.177,40.644l68.151,39.99c0.046-1.68,1.054-3.37,2.3-4.031l-68.151-39.99
			C66.232,37.273,65.224,38.962,65.177,40.644"/>
	</g>
</mask>
<path id="Fill-69" class="st20" d="M67.478,36.613c-0.08,0.042-0.161,0.088-0.238,0.141h-0.002c-0.14,0.091-0.276,0.194-0.408,0.311
	c-0.125,0.111-0.246,0.232-0.361,0.363c-0.202,0.223-0.383,0.476-0.547,0.75c-0.182,0.307-0.338,0.636-0.459,0.98l-0.002-0.002
	c-0.167,0.477-0.268,0.984-0.283,1.488l68.15,39.99c0.014-0.504,0.115-1.009,0.281-1.488c0.121-0.344,0.274-0.675,0.459-0.979
	c0.162-0.272,0.348-0.524,0.549-0.75c0.116-0.131,0.237-0.251,0.361-0.363h0.002c0.131-0.115,0.267-0.217,0.406-0.309h0.002
	c0.078-0.053,0.158-0.102,0.24-0.143L67.478,36.613z"/>
<polygon id="Fill-88" class="st18" points="111.405,173.846 43.256,133.857 43.421,66.802 111.569,106.791 "/>
<polygon id="Fill-90" class="st13" points="114.146,101.56 45.998,61.569 65.152,51.384 133.302,91.375 "/>
<path id="Fill-92" class="st21" d="M203.982,40.257c1.244-0.662,2.248-0.041,2.246,1.379l-0.027,10.978l21.474-11.419
	c4.364-2.32,4.354,1.852,4.354,2.072l-0.165,66.53c-0.013,5.672-4.026,12.396-8.972,15.026l-102.568,54.538
	c-4.938,2.625-8.934,0.158-8.918-5.515l0.164-67.055c0.008-3.513,2.449-5.144,2.576-5.231l19.156-10.185l0.026-10.741
	c0.047-1.681,1.054-3.371,2.3-4.031L203.982,40.257z"/>
<defs>
	<filter id="Adobe_OpacityMaskFilter_8_" filterUnits="userSpaceOnUse" x="43.423" y="61.568" width="70.722" height="45.225">
		<feColorMatrix  type="matrix" values="1 0 0 0 0  0 1 0 0 0  0 0 1 0 0  0 0 0 1 0"/>
	</filter>
</defs>
<mask maskUnits="userSpaceOnUse" x="43.423" y="61.568" width="70.722" height="45.225" id="mask-42_2_">
	<g id="g230_1_" class="st22">
		<path id="path-41_2_" class="st3" d="M43.421,66.802l68.148,39.99c0.008-3.513,2.45-5.145,2.577-5.232L45.997,61.568
			C45.868,61.656,43.429,63.287,43.421,66.802"/>
	</g>
</mask>
<path id="Fill-95" class="st23" d="M45.997,61.568c-0.031,0.02-0.198,0.133-0.43,0.338c-0.149,0.133-0.329,0.303-0.518,0.516
	c-0.231,0.26-0.478,0.582-0.709,0.969l68.148,39.99c0.229-0.386,0.477-0.708,0.709-0.967h0.002v-0.002
	c0.187-0.214,0.367-0.383,0.516-0.516c0.233-0.205,0.398-0.314,0.43-0.336L45.997,61.568z M112.489,103.381L44.341,63.393
	c-0.203,0.335-0.393,0.722-0.545,1.158c-0.209,0.596-0.352,1.283-0.373,2.068h0.002v0.002c-0.002,0.059-0.002,0.119-0.002,0.182
	l68.146,39.99c0-0.06,0.001-0.124,0.002-0.186c0.022-0.783,0.163-1.472,0.373-2.064
	C112.096,104.105,112.286,103.717,112.489,103.381z"/>
<polygon id="Fill-114" class="st24" points="168.927,152.881 157.174,159.105 157.238,126.874 168.989,120.649 "/>
<polygon id="Fill-116" class="st24" points="185.066,144.173 173.312,150.398 173.377,118.164 185.128,111.939 "/>
<polygon id="Fill-118" class="st24" points="202.366,67.72 189.395,74.591 189.43,56.992 202.401,50.12 "/>
<path id="Fill-120" class="st25" d="M191.148,57.671l9.959-5.277l-0.027,13.867c0,0-0.604-7.379-4.836-8.479
	C192.36,56.78,191.148,57.671,191.148,57.671"/>
<polygon id="Fill-122" class="st24" points="151.14,94.859 138.167,101.73 138.202,84.13 151.175,77.257 "/>
<path id="Fill-124" class="st25" d="M139.732,84.91l9.959-5.275L149.664,93.5c0,0-0.606-7.377-4.84-8.477
	C140.939,84.019,139.732,84.91,139.732,84.91"/>
<polygon id="Fill-126" class="st24" points="202.316,93.914 189.347,100.785 189.378,83.189 202.349,76.318 "/>
<path id="Fill-128" class="st25" d="M191.095,83.867l9.961-5.276l-0.027,13.872c0,0-0.602-7.385-4.837-8.482
	C192.308,82.974,191.095,83.867,191.095,83.867"/>
<polygon id="Fill-130" class="st24" points="184.993,76.925 172.02,83.798 172.055,66.197 185.028,59.324 "/>
<path id="Fill-132" class="st25" d="M173.773,66.876l9.957-5.275l-0.025,13.865c0,0-0.604-7.377-4.834-8.481
	C174.982,65.986,173.773,66.876,173.773,66.876"/>
<polygon id="Fill-134" class="st24" points="184.942,103.117 171.97,109.991 172.004,92.395 184.976,85.523 "/>
<path id="Fill-136" class="st25" d="M173.72,93.074l9.959-5.277l-0.025,13.871c0,0-0.604-7.385-4.836-8.487
	C174.933,92.179,173.72,93.074,173.72,93.074"/>
<polygon id="Fill-138" class="st24" points="168.605,85.605 155.627,92.483 155.662,74.881 168.638,68.007 "/>
<path id="Fill-140" class="st25" d="M157.382,75.56l9.963-5.278l-0.027,13.866c0,0-0.608-7.377-4.841-8.477
	C158.593,74.669,157.382,75.56,157.382,75.56"/>
<polygon id="Fill-142" class="st24" points="168.553,111.8 155.575,118.673 155.611,101.077 168.587,94.204 "/>
<path id="Fill-144" class="st25" d="M157.331,101.755l9.963-5.276l-0.027,13.869c0,0-0.608-7.38-4.84-8.482
	C158.54,100.864,157.331,101.755,157.331,101.755"/>
<polygon id="Fill-146" class="st24" points="151.091,121.05 138.118,127.925 138.15,110.325 151.122,103.454 "/>
<path id="Fill-148" class="st25" d="M139.683,111.105l9.956-5.274l-0.026,13.87c0,0-0.607-7.381-4.842-8.481
	C140.89,110.214,139.683,111.105,139.683,111.105"/>
<polygon id="Fill-150" class="st24" points="202.267,119.57 189.296,126.438 189.33,108.843 202.3,101.97 "/>
<path id="Fill-152" class="st25" d="M191.046,109.517l9.961-5.275l-0.027,13.869c0,0-0.604-7.381-4.838-8.479
	C192.259,108.626,191.046,109.517,191.046,109.517"/>
<polygon id="Fill-154" class="st24" points="150.534,146.972 137.562,153.847 137.598,136.246 150.569,129.374 "/>
<path id="Fill-156" class="st25" d="M139.317,136.921l9.957-5.274l-0.027,13.871c0,0-0.606-7.379-4.834-8.483
	C140.526,136.035,139.317,136.921,139.317,136.921"/>
<polygon id="Fill-158" class="st24" points="130.567,116.349 117.592,123.227 117.625,105.634 130.602,98.759 "/>
<path id="Fill-160" class="st25" d="M119.347,106.304l9.957-5.273l-0.027,13.875c0,0-0.604-7.387-4.834-8.483
	C120.556,105.42,119.347,106.304,119.347,106.304"/>
<polygon id="Fill-162" class="st24" points="130.515,142.55 117.54,149.423 117.576,131.825 130.55,124.949 "/>
<path id="Fill-164" class="st25" d="M119.296,132.5l9.957-5.273l-0.027,13.872c0,0-0.604-7.383-4.834-8.486
	C120.506,131.612,119.296,132.5,119.296,132.5"/>
<polygon id="Fill-166" class="st24" points="226.732,65.407 213.759,72.279 213.794,54.687 226.765,47.816 "/>
<path id="Fill-168" class="st25" d="M215.511,55.358l9.96-5.274l-0.028,13.875c0,0-0.599-7.389-4.832-8.483
	C216.724,54.473,215.511,55.358,215.511,55.358"/>
<polygon id="Fill-170" class="st24" points="226.679,91.604 213.71,98.476 213.741,80.876 226.714,74.007 "/>
<path id="Fill-172" class="st25" d="M215.462,81.554l9.961-5.275l-0.029,13.872c0,0-0.602-7.384-4.834-8.484
	C216.675,80.665,215.462,81.554,215.462,81.554"/>
<path id="Fill-174" class="st26" d="M34.177,89.43c-0.096,0.291-3.665,0.014-4.89-0.775c0,0,0.606-1.442-0.284-3.098
	c-1.065-1.982-6.743-3.676-12.743,0.064c-6.924,4.321-6.48,9.364-5.657,10.438c2.072,2.701,7.04,2.863,11.292,0.826
	c4.163-1.996,4.384-3.437,5.106-3.812c0,0,3.888,1.138,5.082,1.091c0,0-2.441,3.809-8.349,6.678
	c-7.523,3.654-14.599,2.326-17.838-1.984c-1.943-2.584-1.849-11.328,8.83-17.338c8.912-5.014,17.183-2.113,19.093,1.299
	C35.09,85.09,34.514,88.401,34.177,89.43"/>
<path id="Stroke-176" class="st1" d="M34.177,89.43c-0.096,0.291-3.665,0.014-4.89-0.775c0,0,0.606-1.442-0.284-3.098
	c-1.065-1.982-6.743-3.676-12.743,0.064c-6.924,4.321-6.48,9.364-5.657,10.438c2.072,2.701,7.04,2.863,11.292,0.826
	c4.163-1.996,4.384-3.437,5.106-3.812c0,0,3.888,1.138,5.082,1.091c0,0-2.441,3.809-8.349,6.678
	c-7.523,3.654-14.599,2.326-17.838-1.984c-1.943-2.584-1.849-11.328,8.83-17.338c8.912-5.014,17.183-2.113,19.093,1.299
	C35.09,85.09,34.514,88.401,34.177,89.43z"/>
<path id="Fill-178" class="st26" d="M264.179,90.833c-0.094,0.291-4.092,1.395-5.316,0.605c0,0,0.605-1.441-0.284-3.097
	c-1.066-1.983-6.744-3.676-12.744,0.064c-6.924,4.319-6.48,9.364-5.656,10.438c2.072,2.701,7.039,2.863,11.291,0.824
	c4.164-1.994,4.385-3.436,5.107-3.813c0,0,3.887,1.141,5.081,1.092c0,0-2.44,3.811-8.348,6.68c-7.524,3.654-14.6,2.326-17.838-1.984
	c-1.943-2.586-1.85-11.33,8.83-17.338c8.91-5.014,17.182-2.116,19.092,1.299C264.665,87.874,264.517,89.806,264.179,90.833"/>
<path id="Stroke-180" class="st1" d="M264.179,90.833c-0.094,0.291-4.092,1.395-5.316,0.605c0,0,0.605-1.441-0.284-3.097
	c-1.066-1.983-6.744-3.676-12.744,0.064c-6.924,4.319-6.48,9.364-5.656,10.438c2.072,2.701,7.039,2.863,11.291,0.824
	c4.164-1.994,4.385-3.436,5.107-3.813c0,0,3.887,1.141,5.081,1.092c0,0-2.44,3.811-8.348,6.68c-7.524,3.654-14.6,2.326-17.838-1.984
	c-1.943-2.586-1.85-11.33,8.83-17.338c8.91-5.014,17.182-2.116,19.092,1.299C264.665,87.874,264.517,89.806,264.179,90.833z"/>
<defs>
	<filter id="Adobe_OpacityMaskFilter_9_" filterUnits="userSpaceOnUse" x="217.354" y="91.352" width="30.005" height="23.879">
		<feColorMatrix  type="matrix" values="1 0 0 0 0  0 1 0 0 0  0 0 1 0 0  0 0 0 1 0"/>
	</filter>
</defs>
<mask maskUnits="userSpaceOnUse" x="217.354" y="91.352" width="30.005" height="23.879" id="mask-54_2_">
	<g id="g324_1_" class="st27">
		<path id="path-53_2_" class="st3" d="M241.735,91.384c-1.642,2.234-2.033,3.863-2.105,4.58c0,0,3.326,1.172,2.297,5.582
			c-0.334,1.425-2.121,4.765-6.367,7.08c-4.122,2.245-6.395,2.001-8.59,1.699c-5.338-0.739-3.938-5.032-4.525-5.296
			c-0.701-0.315-3.901-1.001-4.907-0.577c-0.242,0.101-0.531,4.76,1.178,6.832c2.399,2.908,8.842,6.603,18.914,1.141
			c5.983-3.247,7.976-7.341,8.901-9.252c1.517-3.139,0.953-8.034-1.731-10.239c-1.124-0.924-2.558-1.582-2.963-1.582
			C241.786,91.352,241.751,91.362,241.735,91.384"/>
	</g>
</mask>
<linearGradient id="Fill-183_1_" gradientUnits="userSpaceOnUse" x1="-653.4114" y1="50.9056" x2="-652.5298" y2="51.2319" gradientTransform="matrix(30.0049 0 0 23.879 19824.6797 -1116.635)">
	<stop  offset="0" style="stop-color:#E6E7E7"/>
	<stop  offset="1" style="stop-color:#A7A9AC"/>
</linearGradient>
<path id="Fill-183" class="st28" d="M241.735,91.384c-1.642,2.234-2.033,3.863-2.105,4.58c0,0,3.326,1.172,2.297,5.582
	c-0.334,1.425-2.121,4.765-6.367,7.08c-4.122,2.245-6.395,2.001-8.59,1.699c-5.338-0.739-3.938-5.032-4.525-5.296
	c-0.701-0.315-3.901-1.001-4.907-0.577c-0.242,0.101-0.531,4.76,1.178,6.832c2.399,2.908,8.842,6.603,18.914,1.141
	c5.983-3.247,7.976-7.341,8.901-9.252c1.517-3.139,0.953-8.034-1.731-10.239c-1.124-0.924-2.558-1.582-2.963-1.582
	C241.786,91.352,241.751,91.362,241.735,91.384"/>
<path id="Stroke-186" class="st1" d="M217.538,104.452c1.006-0.424,4.205,0.262,4.906,0.578c0.588,0.264-0.812,4.557,4.526,5.295
	c2.195,0.303,4.468,0.547,8.589-1.699c4.247-2.315,6.034-5.654,6.368-7.08c1.029-4.41-2.297-5.582-2.297-5.582
	c0.072-0.717,0.463-2.346,2.105-4.58c0.141-0.194,1.799,0.509,3.065,1.55c2.683,2.205,3.248,7.1,1.73,10.239
	c-0.924,1.912-2.918,6.006-8.9,9.252c-10.072,5.463-16.516,1.767-18.914-1.141C217.007,109.212,217.296,104.554,217.538,104.452z"/>
<defs>
	<filter id="Adobe_OpacityMaskFilter_10_" filterUnits="userSpaceOnUse" x="219.976" y="90.699" width="16.644" height="9.95">
		<feColorMatrix  type="matrix" values="1 0 0 0 0  0 1 0 0 0  0 0 1 0 0  0 0 0 1 0"/>
	</filter>
</defs>
<mask maskUnits="userSpaceOnUse" x="219.976" y="90.699" width="16.644" height="9.95" id="mask-57_2_">
	<g id="g340_1_" class="st29">
		<path id="path-56_2_" class="st3" d="M219.976,99.79l2.586,0.228l2.404,0.631c-0.513-0.22,4.194-4.836,9.667-5.268
			c0.347-0.971,0.36-0.966,0.712-2.209c0.358-1.254,1.275-2.443,1.275-2.443c-0.185-0.02-0.384-0.03-0.596-0.03
			C231.915,90.7,222.854,94.404,219.976,99.79"/>
	</g>
</mask>
<linearGradient id="Fill-188_1_" gradientUnits="userSpaceOnUse" x1="-635.3713" y1="122.3644" x2="-634.3717" y2="121.4533" gradientTransform="matrix(16.644 0 0 9.95 10795.3311 -1117.3027)">
	<stop  offset="0" style="stop-color:#E6E7E7"/>
	<stop  offset="1" style="stop-color:#A7A9AC"/>
</linearGradient>
<path id="Fill-188" class="st30" d="M219.976,99.79l2.586,0.228l2.404,0.631c-0.513-0.22,4.194-4.836,9.667-5.268
	c0.347-0.971,0.36-0.966,0.712-2.209c0.358-1.254,1.275-2.443,1.275-2.443c-0.185-0.02-0.384-0.03-0.596-0.03
	C231.915,90.7,222.854,94.404,219.976,99.79"/>
<path id="Stroke-191" class="st1" d="M224.966,100.649l-2.404-0.631l-2.586-0.228c3.027-5.664,12.892-9.469,16.644-9.061
	c0,0-0.918,1.19-1.275,2.443c-0.352,1.243-0.365,1.239-0.711,2.209C229.159,95.813,224.452,100.428,224.966,100.649z"/>
<path id="Fill-193" class="st26" d="M229.853,110.682c-0.094,0.291-3.664,0.014-4.889-0.775c0,0,0.606-1.442-0.283-3.096
	c-1.066-1.984-6.744-3.678-12.744,0.064c-6.924,4.319-6.48,9.364-5.656,10.436c2.072,2.701,7.039,2.863,11.291,0.826
	c4.164-1.996,4.385-3.437,5.107-3.812c0,0,3.887,1.138,5.08,1.091c0,0-2.439,3.809-8.347,6.678c-7.524,3.654-14.6,2.328-17.84-1.984
	c-1.942-2.584-1.848-11.328,8.832-17.338c8.91-5.014,17.181-2.113,19.092,1.299C230.767,106.342,230.191,109.653,229.853,110.682"/>
<path id="Stroke-195" class="st1" d="M229.853,110.682c-0.094,0.291-3.664,0.014-4.889-0.775c0,0,0.606-1.442-0.283-3.096
	c-1.066-1.984-6.744-3.678-12.744,0.064c-6.924,4.319-6.48,9.364-5.656,10.436c2.072,2.701,7.039,2.863,11.291,0.826
	c4.164-1.996,4.385-3.437,5.107-3.812c0,0,3.887,1.138,5.08,1.091c0,0-2.439,3.809-8.347,6.678c-7.524,3.654-14.6,2.328-17.84-1.984
	c-1.942-2.584-1.848-11.328,8.832-17.338c8.91-5.014,17.181-2.113,19.092,1.299C230.767,106.342,230.191,109.653,229.853,110.682z"
	/>
<path id="Fill-197" class="st26" d="M213.442,119.624c-0.096,0.291-3.664,0.014-4.889-0.775c0,0,0.606-1.442-0.285-3.096
	c-1.064-1.984-6.742-3.678-12.742,0.064c-6.924,4.319-6.48,9.362-5.658,10.436c2.072,2.701,7.041,2.863,11.293,0.826
	c4.162-1.996,4.385-3.437,5.105-3.812c0,0,3.889,1.138,5.082,1.091c0,0-2.441,3.809-8.347,6.678
	c-7.524,3.654-14.6,2.328-17.84-1.984c-1.942-2.584-1.848-11.328,8.83-17.338c8.912-5.014,17.183-2.113,19.094,1.299
	C214.356,115.284,213.78,118.595,213.442,119.624"/>
<path id="Stroke-199" class="st1" d="M213.442,119.624c-0.096,0.291-3.664,0.014-4.889-0.775c0,0,0.606-1.442-0.285-3.096
	c-1.064-1.984-6.742-3.678-12.742,0.064c-6.924,4.319-6.48,9.362-5.658,10.436c2.072,2.701,7.041,2.863,11.293,0.826
	c4.162-1.996,4.385-3.437,5.105-3.812c0,0,3.889,1.138,5.082,1.091c0,0-2.441,3.809-8.347,6.678
	c-7.524,3.654-14.6,2.328-17.84-1.984c-1.942-2.584-1.848-11.328,8.83-17.338c8.912-5.014,17.183-2.113,19.094,1.299
	C214.356,115.284,213.78,118.595,213.442,119.624z"/>
<defs>
	<filter id="Adobe_OpacityMaskFilter_11_" filterUnits="userSpaceOnUse" x="167.398" y="118.584" width="30.004" height="23.881">
		<feColorMatrix  type="matrix" values="1 0 0 0 0  0 1 0 0 0  0 0 1 0 0  0 0 0 1 0"/>
	</filter>
</defs>
<mask maskUnits="userSpaceOnUse" x="167.398" y="118.584" width="30.004" height="23.881" id="mask-60_2_">
	<g id="g360_1_" class="st31">
		<path id="path-59_2_" class="st3" d="M191.778,118.616c-1.642,2.235-2.033,3.863-2.103,4.58c0,0,3.326,1.172,2.295,5.582
			c-0.332,1.425-2.12,4.767-6.368,7.082c-4.121,2.245-6.394,2.001-8.589,1.699c-5.338-0.74-3.936-5.031-4.524-5.295
			c-0.703-0.316-3.902-1.001-4.905-0.58c-0.245,0.103-0.534,4.76,1.175,6.835c2.398,2.907,8.843,6.601,18.914,1.14
			c5.984-3.246,7.976-7.34,8.9-9.252c1.518-3.141,0.953-8.035-1.729-10.239c-1.126-0.925-2.56-1.584-2.965-1.584
			C191.829,118.584,191.794,118.595,191.778,118.616"/>
	</g>
</mask>
<linearGradient id="Fill-202_1_" gradientUnits="userSpaceOnUse" x1="-653.4109" y1="50.9036" x2="-652.5294" y2="51.23" gradientTransform="matrix(30.0036 0 0 23.8807 19773.8594 -1089.4443)">
	<stop  offset="0" style="stop-color:#E6E7E7"/>
	<stop  offset="1" style="stop-color:#A7A9AC"/>
</linearGradient>
<path id="Fill-202" class="st32" d="M191.778,118.616c-1.642,2.235-2.033,3.863-2.103,4.58c0,0,3.326,1.172,2.295,5.582
	c-0.332,1.425-2.12,4.767-6.368,7.082c-4.121,2.245-6.394,2.001-8.589,1.699c-5.338-0.74-3.936-5.031-4.524-5.295
	c-0.703-0.316-3.902-1.001-4.905-0.58c-0.245,0.103-0.534,4.76,1.175,6.835c2.398,2.907,8.843,6.601,18.914,1.14
	c5.984-3.246,7.976-7.34,8.9-9.252c1.518-3.141,0.953-8.035-1.729-10.239c-1.126-0.925-2.56-1.584-2.965-1.584
	C191.829,118.584,191.794,118.595,191.778,118.616"/>
<path id="Stroke-205" class="st1" d="M167.583,131.684c1.004-0.422,4.203,0.264,4.906,0.58c0.588,0.264-0.814,4.555,4.524,5.295
	c2.195,0.303,4.468,0.545,8.59-1.699c4.248-2.315,6.035-5.656,6.367-7.082c1.031-4.41-2.295-5.582-2.295-5.582
	c0.07-0.717,0.461-2.346,2.103-4.58c0.143-0.192,1.799,0.511,3.067,1.552c2.681,2.203,3.246,7.098,1.728,10.239
	c-0.924,1.912-2.916,6.006-8.9,9.252c-10.07,5.461-16.516,1.767-18.914-1.141C167.05,136.444,167.339,131.788,167.583,131.684z"/>
<defs>
	<filter id="Adobe_OpacityMaskFilter_12_" filterUnits="userSpaceOnUse" x="170.019" y="117.933" width="16.646" height="9.95">
		<feColorMatrix  type="matrix" values="1 0 0 0 0  0 1 0 0 0  0 0 1 0 0  0 0 0 1 0"/>
	</filter>
</defs>
<mask maskUnits="userSpaceOnUse" x="170.019" y="117.933" width="16.646" height="9.95" id="mask-63_2_">
	<g id="g376_1_" class="st33">
		<path id="path-62_2_" class="st3" d="M170.019,127.024l2.586,0.226l2.406,0.633c-0.516-0.222,4.193-4.836,9.668-5.267
			c0.346-0.972,0.357-0.967,0.711-2.209c0.355-1.257,1.275-2.444,1.275-2.444c-0.184-0.02-0.383-0.03-0.596-0.03
			C181.958,117.934,172.897,121.639,170.019,127.024"/>
	</g>
</mask>
<linearGradient id="Fill-207_1_" gradientUnits="userSpaceOnUse" x1="-635.3762" y1="122.3644" x2="-634.3765" y2="121.4534" gradientTransform="matrix(16.646 0 0 9.95 10746.7266 -1090.0688)">
	<stop  offset="0" style="stop-color:#E6E7E7"/>
	<stop  offset="1" style="stop-color:#A7A9AC"/>
</linearGradient>
<path id="Fill-207" class="st34" d="M170.019,127.024l2.586,0.226l2.406,0.633c-0.516-0.222,4.193-4.836,9.668-5.267
	c0.346-0.972,0.357-0.967,0.711-2.209c0.355-1.257,1.275-2.444,1.275-2.444c-0.184-0.02-0.383-0.03-0.596-0.03
	C181.958,117.934,172.897,121.639,170.019,127.024"/>
<path id="Stroke-210" class="st1" d="M175.011,127.883l-2.406-0.633l-2.586-0.226c3.027-5.664,12.892-9.469,16.646-9.061
	c0,0-0.92,1.188-1.275,2.443c-0.354,1.243-0.365,1.237-0.711,2.209C179.204,123.047,174.495,127.66,175.011,127.883z"/>
<path id="Fill-212" class="st0" d="M157.043,150.352c0.297,0.078,2.029-2.828,1.723-4.488c0,0-1.078,0.148-2.172-1.957
	c-1.035-1.998,0.566-7.66,6.965-10.672c7.381-3.477,11.38-0.371,11.837,0.904c1.144,3.205-1.413,7.467-5.43,9.936
	c-3.935,2.416-5.103,1.814-5.81,2.218c0,0-0.433,2.799-2,4.868c0,0,4.523,0.013,10.138-3.395c7.15-4.34,9.871-11.006,8.004-16.064
	c-1.117-3.034-8.516-7.696-19.355-1.981c-9.046,4.77-11.093,13.293-9.259,16.748C152.902,148.768,155.994,150.079,157.043,150.352"
	/>
<path id="Stroke-214" class="st1" d="M157.043,150.352c0.297,0.078,2.029-2.828,1.723-4.488c0,0-1.078,0.148-2.172-1.957
	c-1.035-1.998,0.566-7.66,6.965-10.672c7.381-3.477,11.38-0.371,11.837,0.904c1.144,3.205-1.413,7.467-5.43,9.936
	c-3.935,2.416-5.103,1.814-5.81,2.218c0,0-0.433,2.799-2,4.868c0,0,4.523,0.013,10.138-3.395c7.15-4.34,9.871-11.006,8.004-16.064
	c-1.117-3.034-8.516-7.696-19.355-1.981c-9.046,4.77-11.093,13.293-9.259,16.748C152.902,148.768,155.994,150.079,157.043,150.352z"
	/>
<defs>
	<filter id="Adobe_OpacityMaskFilter_13_" filterUnits="userSpaceOnUse" x="134.721" y="136.373" width="30.004" height="23.879">
		<feColorMatrix  type="matrix" values="1 0 0 0 0  0 1 0 0 0  0 0 1 0 0  0 0 0 1 0"/>
	</filter>
</defs>
<mask maskUnits="userSpaceOnUse" x="134.721" y="136.373" width="30.004" height="23.879" id="mask-66_2_">
	<g id="g394_1_" class="st35">
		<path id="path-65_2_" class="st3" d="M159.102,136.404c-1.643,2.235-2.033,3.864-2.106,4.58c0,0,3.326,1.173,2.297,5.583
			c-0.332,1.426-2.119,4.767-6.367,7.08c-4.121,2.246-6.394,2.004-8.59,1.701c-5.337-0.74-3.935-5.031-4.524-5.297
			c-0.703-0.314-3.901-1.002-4.906-0.578c-0.244,0.104-0.533,4.76,1.177,6.832c2.397,2.908,8.841,6.604,18.913,1.14
			c5.984-3.243,7.977-7.339,8.9-9.249c1.518-3.141,0.953-8.035-1.728-10.24c-1.127-0.926-2.562-1.583-2.966-1.583
			C159.152,136.373,159.118,136.383,159.102,136.404"/>
	</g>
</mask>
<linearGradient id="Fill-217_1_" gradientUnits="userSpaceOnUse" x1="-653.4106" y1="50.9053" x2="-652.5292" y2="51.2316" gradientTransform="matrix(30.0039 0 0 23.8792 19741.377 -1071.616)">
	<stop  offset="0" style="stop-color:#E6E7E7"/>
	<stop  offset="1" style="stop-color:#A7A9AC"/>
</linearGradient>
<path id="Fill-217" class="st36" d="M159.102,136.404c-1.643,2.235-2.033,3.864-2.106,4.58c0,0,3.326,1.173,2.297,5.583
	c-0.332,1.426-2.119,4.767-6.367,7.08c-4.121,2.246-6.394,2.004-8.59,1.701c-5.337-0.74-3.935-5.031-4.524-5.297
	c-0.703-0.314-3.901-1.002-4.906-0.578c-0.244,0.104-0.533,4.76,1.177,6.832c2.397,2.908,8.841,6.604,18.913,1.14
	c5.984-3.243,7.977-7.339,8.9-9.249c1.518-3.141,0.953-8.035-1.728-10.24c-1.127-0.926-2.562-1.583-2.966-1.583
	C159.152,136.373,159.118,136.383,159.102,136.404"/>
<path id="Stroke-220" class="st1" d="M134.906,149.473c1.004-0.424,4.203,0.264,4.906,0.578c0.588,0.266-0.814,4.557,4.524,5.297
	c2.195,0.303,4.468,0.545,8.59-1.701c4.248-2.313,6.035-5.654,6.367-7.08c1.029-4.41-2.297-5.582-2.297-5.582
	c0.072-0.717,0.463-2.346,2.105-4.58c0.143-0.192,1.799,0.509,3.067,1.55c2.681,2.205,3.246,7.1,1.728,10.241
	c-0.924,1.91-2.916,6.006-8.9,9.25c-10.072,5.463-16.516,1.767-18.914-1.141C134.373,154.233,134.662,149.577,134.906,149.473z"/>
<defs>
	<filter id="Adobe_OpacityMaskFilter_14_" filterUnits="userSpaceOnUse" x="137.342" y="135.72" width="16.646" height="9.951">
		<feColorMatrix  type="matrix" values="1 0 0 0 0  0 1 0 0 0  0 0 1 0 0  0 0 0 1 0"/>
	</filter>
</defs>
<mask maskUnits="userSpaceOnUse" x="137.342" y="135.72" width="16.646" height="9.951" id="mask-69_2_">
	<g id="g410_1_" class="st37">
		<path id="path-68_2_" class="st3" d="M137.342,144.813l2.586,0.227l2.404,0.631c-0.514-0.222,4.193-4.837,9.67-5.268
			c0.344-0.971,0.357-0.966,0.711-2.209c0.355-1.254,1.275-2.444,1.275-2.444c-0.184-0.02-0.383-0.03-0.595-0.03
			C149.283,135.72,140.221,139.425,137.342,144.813"/>
	</g>
</mask>
<linearGradient id="Fill-222_1_" gradientUnits="userSpaceOnUse" x1="-635.3762" y1="122.3522" x2="-634.3765" y2="121.4411" gradientTransform="matrix(16.646 0 0 9.951 10714.0498 -1072.2822)">
	<stop  offset="0" style="stop-color:#E6E7E7"/>
	<stop  offset="1" style="stop-color:#A7A9AC"/>
</linearGradient>
<path id="Fill-222" class="st38" d="M137.342,144.813l2.586,0.227l2.404,0.631c-0.514-0.222,4.193-4.837,9.67-5.268
	c0.344-0.971,0.357-0.966,0.711-2.209c0.355-1.254,1.275-2.444,1.275-2.444c-0.184-0.02-0.383-0.03-0.595-0.03
	C149.283,135.72,140.221,139.425,137.342,144.813"/>
<path id="Stroke-225" class="st1" d="M142.332,145.671l-2.404-0.631l-2.586-0.226c3.027-5.666,12.892-9.471,16.646-9.063
	c0,0-0.92,1.19-1.275,2.443c-0.354,1.243-0.367,1.239-0.711,2.209C146.525,140.835,141.818,145.45,142.332,145.671z"/>
<path id="Fill-227" class="st0" d="M123.83,168.448c0.297,0.078,2.031-2.828,1.723-4.488c0,0-1.077,0.148-2.17-1.957
	c-1.037-1.998,0.566-7.66,6.965-10.672c7.382-3.477,11.38-0.371,11.836,0.904c1.144,3.205-1.413,7.467-5.43,9.936
	c-3.934,2.416-5.102,1.814-5.809,2.218c0,0-0.433,2.799-2,4.866c0,0,4.524,0.015,10.137-3.393c7.15-4.342,9.871-11.006,8.004-16.066
	c-1.117-3.032-8.516-7.694-19.354-1.979c-9.047,4.77-11.093,13.291-9.261,16.748C119.691,166.862,122.783,168.175,123.83,168.448"/>
<path id="Stroke-229" class="st1" d="M123.83,168.448c0.297,0.078,2.031-2.828,1.723-4.488c0,0-1.077,0.148-2.17-1.957
	c-1.037-1.998,0.566-7.66,6.965-10.672c7.382-3.477,11.38-0.371,11.836,0.904c1.144,3.205-1.413,7.467-5.43,9.936
	c-3.934,2.416-5.102,1.814-5.809,2.218c0,0-0.433,2.799-2,4.866c0,0,4.524,0.015,10.137-3.393c7.15-4.342,9.871-11.006,8.004-16.066
	c-1.117-3.032-8.516-7.694-19.354-1.979c-9.047,4.77-11.093,13.291-9.261,16.748C119.691,166.862,122.783,168.175,123.83,168.448z"
	/>
<path id="Fill-231" class="st0" d="M102.192,157.426c0.095,0.291,3.478,0.174,4.706-0.983c0,0-0.708-0.824,0.471-2.885
	c1.118-1.952,6.746-3.671,12.744,0.075c6.92,4.324,6.473,9.367,5.648,10.441c-2.076,2.7-7.041,2.857-11.293,0.817
	c-4.162-1.999-4.289-3.307-5.011-3.683c0,0-2.589,1.152-5.174,0.954c0,0,2.436,3.811,8.344,6.686
	c7.519,3.659,14.597,2.338,17.839-1.971c1.944-2.584,1.858-11.327-8.816-17.344c-8.908-5.023-17.183-2.128-19.095,1.284
	C101.284,153.086,101.855,156.398,102.192,157.426"/>
<path id="Stroke-233" class="st1" d="M102.192,157.426c0.095,0.291,3.478,0.174,4.706-0.983c0,0-0.708-0.824,0.471-2.885
	c1.118-1.952,6.746-3.671,12.744,0.075c6.92,4.324,6.473,9.367,5.648,10.441c-2.076,2.7-7.041,2.857-11.293,0.817
	c-4.162-1.999-4.289-3.307-5.011-3.683c0,0-2.589,1.152-5.174,0.954c0,0,2.436,3.811,8.344,6.686
	c7.519,3.659,14.597,2.338,17.839-1.971c1.944-2.584,1.858-11.327-8.816-17.344c-8.908-5.023-17.183-2.128-19.095,1.284
	C101.284,153.086,101.855,156.398,102.192,157.426z"/>
<path id="Fill-235" class="st26" d="M91.461,151.552c-0.297,0.077-1.998-3.072-1.998-4.53c0,0,1.541-0.271,2.45-1.915
	c1.091-1.971-0.559-7.661-6.954-10.678c-7.381-3.483-11.382-0.379-11.838,0.894c-1.148,3.205,1.405,7.47,5.422,9.94
	c3.932,2.421,5.263,1.825,5.97,2.229c0,0,1.147,3.885,1.834,4.864c0,0-4.525,0.009-10.136-3.403
	c-7.146-4.347-9.862-11.013-7.991-16.072c1.12-3.031,8.522-7.687,19.356-1.965c9.042,4.778,11.082,13.303,9.247,16.756
	C95.602,149.97,92.508,151.278,91.461,151.552"/>
<path id="Stroke-237" class="st1" d="M91.461,151.552c-0.297,0.077-1.998-3.072-1.998-4.53c0,0,1.541-0.271,2.45-1.915
	c1.091-1.971-0.559-7.661-6.954-10.678c-7.381-3.483-11.382-0.379-11.838,0.894c-1.148,3.205,1.405,7.47,5.422,9.94
	c3.932,2.421,5.263,1.825,5.97,2.229c0,0,1.147,3.885,1.834,4.864c0,0-4.525,0.009-10.136-3.403
	c-7.146-4.347-9.862-11.013-7.991-16.072c1.12-3.031,8.522-7.687,19.356-1.965c9.042,4.778,11.082,13.303,9.247,16.756
	C95.602,149.97,92.508,151.278,91.461,151.552z"/>
<defs>
	<filter id="Adobe_OpacityMaskFilter_15_" filterUnits="userSpaceOnUse" x="84.384" y="138.214" width="30.06" height="23.887">
		<feColorMatrix  type="matrix" values="1 0 0 0 0  0 1 0 0 0  0 0 1 0 0  0 0 0 1 0"/>
	</filter>
</defs>
<mask maskUnits="userSpaceOnUse" x="84.384" y="138.214" width="30.06" height="23.887" id="mask-72_2_">
	<g id="g432_1_" class="st39">
		<path id="path-71_2_" class="st3" d="M84.833,142.909c-1.147,3.591-0.762,11.008,9.283,16.518
			c5.968,3.273,10.49,2.731,12.598,2.472c3.46-0.421,7.271-3.549,7.67-6.998c0.19-1.628-0.118-3.402-0.355-3.416
			c-2.768-0.172-4.349,0.382-4.99,0.71c0,0,0.817,3.431-3.449,4.954c-1.379,0.491-5.156,0.799-9.402-1.52
			c-4.12-2.248-5.146-4.291-6.079-6.301c-2.271-4.886,2.096-6.032,2.001-6.67c-0.114-0.763-1.271-3.822-2.17-4.437
			c-0.007-0.005-0.018-0.007-0.032-0.007C89.47,138.214,85.624,140.43,84.833,142.909"/>
	</g>
</mask>
<linearGradient id="Fill-240_1_" gradientUnits="userSpaceOnUse" x1="-653.1442" y1="50.5041" x2="-652.8857" y2="51.6116" gradientTransform="matrix(30.0596 0 0 23.8866 19728.6934 -1069.7941)">
	<stop  offset="0" style="stop-color:#E6E7E7"/>
	<stop  offset="1" style="stop-color:#A7A9AC"/>
</linearGradient>
<path id="Fill-240" class="st40" d="M84.833,142.909c-1.147,3.591-0.762,11.008,9.283,16.518c5.968,3.273,10.49,2.731,12.598,2.472
	c3.46-0.421,7.271-3.549,7.67-6.998c0.19-1.628-0.118-3.402-0.355-3.416c-2.768-0.172-4.349,0.382-4.99,0.71
	c0,0,0.817,3.431-3.449,4.954c-1.379,0.491-5.156,0.799-9.402-1.52c-4.12-2.248-5.146-4.291-6.079-6.301
	c-2.271-4.886,2.096-6.032,2.001-6.67c-0.114-0.763-1.271-3.822-2.17-4.437c-0.007-0.005-0.018-0.007-0.032-0.007
	C89.47,138.214,85.624,140.43,84.833,142.909"/>
<path id="Stroke-243" class="st1" d="M89.94,138.22c0.899,0.616,2.057,3.675,2.17,4.437c0.096,0.638-4.272,1.785-2.001,6.671
	c0.934,2.01,1.96,4.053,6.08,6.301c4.245,2.319,8.022,2.011,9.401,1.52c4.266-1.524,3.45-4.954,3.45-4.954
	c0.64-0.328,2.222-0.882,4.99-0.71c0.236,0.014,0.545,1.788,0.355,3.416c-0.4,3.449-4.211,6.576-7.671,6.998
	c-2.108,0.258-6.629,0.8-12.598-2.472c-10.045-5.51-10.429-12.928-9.282-16.519C85.65,140.35,89.721,138.071,89.94,138.22z"/>
<defs>
	<filter id="Adobe_OpacityMaskFilter_16_" filterUnits="userSpaceOnUse" x="95.178" y="137.712" width="16.631" height="9.969">
		<feColorMatrix  type="matrix" values="1 0 0 0 0  0 1 0 0 0  0 0 1 0 0  0 0 0 1 0"/>
	</filter>
</defs>
<mask maskUnits="userSpaceOnUse" x="95.178" y="137.712" width="16.631" height="9.969" id="mask-75_2_">
	<g id="g448_1_" class="st41">
		<path id="path-74_2_" class="st3" d="M95.178,137.743l1.209,2.298l0.771,2.364c-0.092-0.553,6.336,0.906,9.665,5.276
			c1.002-0.237,1.005-0.224,2.242-0.599c1.248-0.381,2.744-0.25,2.744-0.25c-1.622-3.244-9.563-9.12-15.859-9.12
			C95.689,137.712,95.432,137.722,95.178,137.743"/>
	</g>
</mask>
<linearGradient id="Fill-245_1_" gradientUnits="userSpaceOnUse" x1="-635.368" y1="121.2224" x2="-634.3674" y2="122.1335" gradientTransform="matrix(16.631 0 0 9.969 10661.7461 -1070.29)">
	<stop  offset="0" style="stop-color:#E6E7E7"/>
	<stop  offset="1" style="stop-color:#A7A9AC"/>
</linearGradient>
<path id="Fill-245" class="st42" d="M95.178,137.743l1.209,2.298l0.771,2.364c-0.092-0.553,6.336,0.906,9.665,5.276
	c1.002-0.237,1.005-0.224,2.242-0.599c1.248-0.381,2.744-0.25,2.744-0.25c-1.622-3.244-9.563-9.12-15.859-9.12
	C95.689,137.712,95.432,137.722,95.178,137.743"/>
<path id="Stroke-248" class="st1" d="M97.157,142.405l-0.771-2.363l-1.208-2.299c6.4-0.522,14.942,5.711,16.63,9.089
	c0,0-1.496-0.13-2.744,0.25c-1.236,0.376-1.239,0.362-2.242,0.599C103.494,143.311,97.065,141.852,97.157,142.405z"/>
<defs>
	<filter id="Adobe_OpacityMaskFilter_17_" filterUnits="userSpaceOnUse" x="33.77" y="110.14" width="30.059" height="23.888">
		<feColorMatrix  type="matrix" values="1 0 0 0 0  0 1 0 0 0  0 0 1 0 0  0 0 0 1 0"/>
	</filter>
</defs>
<mask maskUnits="userSpaceOnUse" x="33.77" y="110.14" width="30.059" height="23.888" id="mask-78_2_">
	<g id="g466_1_" class="st43">
		<path id="path-77_2_" class="st3" d="M34.219,114.836c-1.146,3.591-0.762,11.01,9.283,16.519
			c5.969,3.273,10.491,2.729,12.598,2.473c3.462-0.425,7.272-3.55,7.671-6.999c0.188-1.63-0.117-3.402-0.355-3.416
			c-2.77-0.172-4.349,0.381-4.991,0.711c0,0,0.817,3.429-3.449,4.952c-1.378,0.491-5.156,0.799-9.402-1.518
			c-4.119-2.249-5.145-4.293-6.079-6.302c-2.269-4.888,2.098-6.033,2.001-6.669c-0.114-0.764-1.27-3.824-2.17-4.44
			c-0.006-0.005-0.017-0.007-0.031-0.007C38.858,110.14,35.01,112.357,34.219,114.836"/>
	</g>
</mask>
<linearGradient id="Fill-255_1_" gradientUnits="userSpaceOnUse" x1="-653.1441" y1="50.5011" x2="-652.8855" y2="51.6085" gradientTransform="matrix(30.0595 0 0 23.888 19678.0117 -1097.8618)">
	<stop  offset="0" style="stop-color:#E6E7E7"/>
	<stop  offset="1" style="stop-color:#A7A9AC"/>
</linearGradient>
<path id="Fill-255" class="st44" d="M34.219,114.836c-1.146,3.591-0.762,11.01,9.283,16.519c5.969,3.273,10.491,2.729,12.598,2.473
	c3.462-0.425,7.272-3.55,7.671-6.999c0.188-1.63-0.117-3.402-0.355-3.416c-2.77-0.172-4.349,0.381-4.991,0.711
	c0,0,0.817,3.429-3.449,4.952c-1.378,0.491-5.156,0.799-9.402-1.518c-4.119-2.249-5.145-4.293-6.079-6.302
	c-2.269-4.888,2.098-6.033,2.001-6.669c-0.114-0.764-1.27-3.824-2.17-4.44c-0.006-0.005-0.017-0.007-0.031-0.007
	C38.858,110.14,35.01,112.357,34.219,114.836"/>
<path id="Stroke-258" class="st1" d="M39.326,110.147c0.9,0.616,2.056,3.677,2.17,4.439c0.097,0.637-4.271,1.782-2.002,6.67
	c0.935,2.009,1.961,4.053,6.08,6.302c4.246,2.317,8.023,2.009,9.402,1.518c4.265-1.523,3.449-4.952,3.449-4.952
	c0.641-0.33,2.221-0.883,4.991-0.711c0.238,0.014,0.543,1.787,0.355,3.417c-0.4,3.448-4.21,6.573-7.672,6.998
	c-2.107,0.256-6.628,0.799-12.597-2.474c-10.045-5.508-10.429-12.927-9.283-16.519C35.035,112.277,39.107,109.999,39.326,110.147z"
	/>
<defs>
	<filter id="Adobe_OpacityMaskFilter_18_" filterUnits="userSpaceOnUse" x="44.564" y="109.64" width="16.631" height="9.968">
		<feColorMatrix  type="matrix" values="1 0 0 0 0  0 1 0 0 0  0 0 1 0 0  0 0 0 1 0"/>
	</filter>
</defs>
<mask maskUnits="userSpaceOnUse" x="44.564" y="109.64" width="16.631" height="9.968" id="mask-81_2_">
	<g id="g482_1_" class="st45">
		<path id="path-80_2_" class="st3" d="M44.564,109.671l1.21,2.298l0.77,2.364c-0.091-0.552,6.337,0.906,9.665,5.275
			c1.004-0.236,1.006-0.223,2.241-0.598c1.249-0.38,2.745-0.252,2.745-0.252c-1.622-3.243-9.562-9.118-15.859-9.118
			C45.076,109.64,44.818,109.65,44.564,109.671"/>
	</g>
</mask>
<linearGradient id="Fill-260_1_" gradientUnits="userSpaceOnUse" x1="-635.3679" y1="121.2346" x2="-634.3674" y2="122.1457" gradientTransform="matrix(16.631 0 0 9.968 10611.1318 -1098.3618)">
	<stop  offset="0" style="stop-color:#E6E7E7"/>
	<stop  offset="1" style="stop-color:#A7A9AC"/>
</linearGradient>
<path id="Fill-260" class="st46" d="M44.564,109.671l1.21,2.298l0.77,2.364c-0.091-0.552,6.337,0.906,9.665,5.275
	c1.004-0.236,1.006-0.223,2.241-0.598c1.249-0.38,2.745-0.252,2.745-0.252c-1.622-3.243-9.562-9.118-15.859-9.118
	C45.076,109.64,44.818,109.65,44.564,109.671"/>
<path id="Stroke-263" class="st1" d="M46.544,114.333l-0.771-2.363l-1.208-2.299c6.4-0.521,14.941,5.711,16.63,9.088
	c0,0-1.497-0.128-2.745,0.252c-1.235,0.374-1.237,0.361-2.241,0.597C52.881,115.239,46.452,113.781,46.544,114.333z"/>
<path id="Fill-265" class="st26" d="M40.757,123.874c-0.297,0.078-1.997-3.072-1.997-4.529c0,0,1.539-0.273,2.449-1.917
	c1.09-1.97-0.56-7.659-6.954-10.678c-7.38-3.481-11.382-0.378-11.837,0.895c-1.148,3.206,1.404,7.469,5.42,9.94
	c3.932,2.42,5.264,1.826,5.971,2.23c0,0,1.147,3.885,1.834,4.862c0,0-4.526,0.012-10.136-3.402
	c-7.146-4.346-9.862-11.014-7.991-16.071c1.121-3.032,8.523-7.687,19.356-1.965c9.042,4.777,11.083,13.301,9.247,16.755
	C44.899,122.292,41.804,123.601,40.757,123.874"/>
<path id="Stroke-267" class="st1" d="M40.757,123.874c-0.297,0.078-1.997-3.072-1.997-4.529c0,0,1.539-0.273,2.449-1.917
	c1.09-1.97-0.56-7.659-6.954-10.678c-7.38-3.481-11.382-0.378-11.837,0.895c-1.148,3.206,1.404,7.469,5.42,9.94
	c3.932,2.42,5.264,1.826,5.971,2.23c0,0,1.147,3.885,1.834,4.862c0,0-4.526,0.012-10.136-3.402
	c-7.146-4.346-9.862-11.014-7.991-16.071c1.121-3.032,8.523-7.687,19.356-1.965c9.042,4.777,11.083,13.301,9.247,16.755
	C44.899,122.292,41.804,123.601,40.757,123.874z"/>
<path id="Fill-269" class="st26" d="M24.353,114.919c-0.296,0.078-1.996-3.072-1.997-4.529c0,0,1.541-0.272,2.451-1.916
	c1.089-1.969-0.56-7.66-6.955-10.678c-7.381-3.482-11.381-0.379-11.837,0.894c-1.149,3.206,1.405,7.469,5.42,9.942
	c3.932,2.419,5.263,1.825,5.97,2.228c0,0,1.147,3.885,1.835,4.864c0,0-4.525,0.01-10.136-3.403
	c-7.147-4.345-9.862-11.014-7.992-16.072c1.121-3.031,8.523-7.687,19.357-1.965c9.041,4.778,11.083,13.301,9.248,16.756
	C28.495,113.339,25.4,114.646,24.353,114.919"/>
<path id="Stroke-271" class="st1" d="M24.353,114.919c-0.296,0.078-1.996-3.072-1.997-4.529c0,0,1.541-0.272,2.451-1.916
	c1.089-1.969-0.56-7.66-6.955-10.678c-7.381-3.482-11.381-0.379-11.837,0.894c-1.149,3.206,1.405,7.469,5.42,9.942
	c3.932,2.419,5.263,1.825,5.97,2.228c0,0,1.147,3.885,1.835,4.864c0,0-4.525,0.01-10.136-3.403
	c-7.147-4.345-9.862-11.014-7.992-16.072c1.121-3.031,8.523-7.687,19.357-1.965c9.041,4.778,11.083,13.301,9.248,16.756
	C28.495,113.339,25.4,114.646,24.353,114.919z"/>
<path id="Stroke-273" inkscape:connector-curvature="0" class="st47" d="M46.478,168.211c-0.564-0.337-1.754-0.741-1.77-2.095
	c-0.013-1.353,0-22.298,0.11-24.003c0.039-0.627-0.065-1.722,0.322-1.936c0.599-0.331,0.824-0.393,1.637-0.853
	c1.283-0.726,3.986-2.13,3.986-2.13s-0.039-14.607,0.117-15.887c0.157-1.278,0.746-3.267,2.082-4.448
	c1.334-1.18,1.864-1.218,3.801-2.258c1.891-1.017,5.605-3.396,7.221-3.61c1.463-0.196,3.963,0.135,5.43,1.075
	c1.281,0.818,4.56,2.716,6.66,5.839c1.502,2.236,4.304,7.278,5.021,11.016c0.238,1.242,0.36,4.356,0.41,6.302
	c0.018,0.688-0.131,8.434-0.131,8.434s4.54,2.751,4.877,2.977c0.338,0.225,1.471,0.718,1.436,2.297
	c-0.023,1.022-0.019,23.71,0,24.176c0.035,0.861-0.071,1.579-1.615,2.258c-0.979,0.434-14.098,7.462-14.098,7.462
	s-0.467,0.574-1.685-0.217C68.697,181.582,46.478,168.211,46.478,168.211L46.478,168.211z"/>
<path id="Stroke-275" class="st48" d="M69.176,136.412c-0.574-0.108-6.063-3.732-6.063-3.732l-0.037-9.651
	c0,0,3.697,3.733,4.808,6.422c0.682,1.649,1.262,6.073,1.148,6.639C69.025,136.125,69.223,136.421,69.176,136.412z"/>
<defs>
	<filter id="Adobe_OpacityMaskFilter_19_" filterUnits="userSpaceOnUse" x="45.575" y="132.172" width="16.142" height="8.37">
		<feColorMatrix  type="matrix" values="1 0 0 0 0  0 1 0 0 0  0 0 1 0 0  0 0 0 1 0"/>
	</filter>
</defs>
<mask maskUnits="userSpaceOnUse" x="45.575" y="132.172" width="16.142" height="8.37" id="mask-84_2_">
	<g id="g504_1_" class="st49">
		<path id="path-83_2_" class="st3" d="M61.106,132.225l-15.531,8.241c0.162-0.085,0.377-0.067,0.612,0.074l15.529-8.244
			c-0.139-0.084-0.272-0.123-0.391-0.123C61.245,132.173,61.171,132.191,61.106,132.225"/>
	</g>
</mask>
<path id="Fill-278" class="st50" d="M61.284,132.172l-0.053,0.01c-0.022,0.003-0.042,0.009-0.064,0.018l-15.529,8.24
	c0.02-0.009,0.042-0.012,0.064-0.018c0.018-0.003,0.035-0.006,0.053-0.006L61.284,132.172z M45.638,140.439l15.529-8.242
	c-0.02,0.006-0.041,0.015-0.061,0.027l-15.531,8.242C45.596,140.455,45.617,140.444,45.638,140.439z M61.284,132.174l-15.529,8.244
	c0.014-0.003,0.03-0.004,0.047-0.004c0.014,0,0.029,0.004,0.043,0.004c0.012,0.003,0.027,0.003,0.039,0.006l0.002-0.002
	c0.012,0.003,0.024,0.003,0.037,0.006c0.012,0.003,0.025,0.006,0.037,0.012c0.012,0.003,0.022,0.007,0.035,0.01
	c0.012,0.006,0.024,0.01,0.037,0.016l0.002-0.002c0.011,0.003,0.022,0.01,0.033,0.016c0.012,0.003,0.022,0.008,0.035,0.014
	l0.035,0.02h0.002c0.011,0.006,0.022,0.014,0.033,0.02c0.005,0.003,0.01,0.005,0.014,0.008l15.531-8.242
	c-0.005-0.003-0.01-0.005-0.014-0.008c-0.011-0.008-0.023-0.014-0.035-0.02l-0.035-0.018l-0.035-0.018
	c-0.011-0.006-0.023-0.01-0.035-0.016v0.002h-0.002c-0.012-0.003-0.024-0.011-0.035-0.014c-0.013-0.003-0.025-0.009-0.037-0.012
	c-0.011-0.003-0.025-0.005-0.037-0.008s-0.025-0.007-0.039-0.01l-0.004,0.002c-0.01-0.001-0.022-0.004-0.033-0.004
	c-0.015-0.003-0.029-0.002-0.045-0.002H61.284z"/>
<defs>
	<filter id="Adobe_OpacityMaskFilter_20_" filterUnits="userSpaceOnUse" x="71.543" y="173.771" width="15.814" height="8.848">
		<feColorMatrix  type="matrix" values="1 0 0 0 0  0 1 0 0 0  0 0 1 0 0  0 0 0 1 0"/>
	</filter>
</defs>
<mask maskUnits="userSpaceOnUse" x="71.543" y="173.771" width="15.814" height="8.848" id="mask-114_2_">
	<g id="g654_1_" class="st51">
		<path id="path-113_2_" class="st3" d="M71.825,182.012c0,0.305-0.107,0.516-0.28,0.606l15.53-8.241
			c0.172-0.091,0.282-0.301,0.282-0.606L71.825,182.012z"/>
	</g>
</mask>
<path id="Fill-324" class="st52" d="M87.356,173.771l-15.531,8.24v0.023l15.531-8.244V173.771z M71.825,182.035
	c-0.001,0.015-0.001,0.029-0.002,0.041c0,0.015-0.002,0.03-0.004,0.045c0,0.015-0.003,0.028-0.004,0.043
	c-0.002,0.015-0.004,0.03-0.008,0.045c-0.002,0.015-0.006,0.026-0.008,0.041c-0.004,0.018-0.008,0.032-0.012,0.047l-0.018,0.049
	h0.002c-0.007,0.017-0.015,0.034-0.021,0.049l-0.002,0.002c-0.012,0.023-0.023,0.044-0.035,0.064
	c-0.043,0.07-0.102,0.122-0.17,0.158l15.531-8.24c0.067-0.035,0.125-0.092,0.17-0.162c0.012-0.017,0.024-0.039,0.035-0.063
	c0.007-0.018,0.014-0.036,0.02-0.053c0.006-0.014,0.012-0.031,0.018-0.045v-0.002c0.004-0.015,0.01-0.031,0.012-0.045
	c0.004-0.015,0.006-0.03,0.01-0.045c0.002-0.015,0.007-0.028,0.008-0.043s0.004-0.027,0.004-0.041
	c0.001-0.015,0.002-0.031,0.002-0.045c0.002-0.015,0.002-0.028,0.004-0.043L71.825,182.035z"/>
<polygon id="Fill-358" class="st53" points="61.717,132.296 86.439,147.149 70.91,155.394 46.187,140.54 "/>
<polygon id="Fill-360" class="st54" points="87.337,148.769 87.357,173.771 71.826,182.012 71.807,157.01 "/>
<defs>
	<filter id="Adobe_OpacityMaskFilter_21_" filterUnits="userSpaceOnUse" x="70.909" y="147.148" width="16.429" height="9.865">
		<feColorMatrix  type="matrix" values="1 0 0 0 0  0 1 0 0 0  0 0 1 0 0  0 0 0 1 0"/>
	</filter>
</defs>
<mask maskUnits="userSpaceOnUse" x="70.909" y="147.148" width="16.429" height="9.865" id="mask-136_2_">
	<g id="g766_1_" class="st55">
		<path id="path-135_2_" class="st3" d="M70.909,155.394c0.491,0.292,0.897,1.027,0.897,1.616l15.531-8.241
			c0-0.592-0.407-1.324-0.898-1.62"/>
	</g>
</mask>
<path id="Fill-363" class="st56" d="M86.438,147.148l-15.529,8.244c0.008,0.003,0.016,0.009,0.023,0.012
	c0.012,0.009,0.024,0.019,0.037,0.027c0.013,0.006,0.023,0.013,0.035,0.021l15.531-8.24c-0.011-0.009-0.023-0.016-0.037-0.025
	c-0.013-0.009-0.025-0.014-0.037-0.023C86.455,147.158,86.448,147.154,86.438,147.148z M86.536,147.215l-15.531,8.24
	c0.014,0.012,0.027,0.021,0.039,0.029c0.012,0.012,0.025,0.02,0.037,0.031c0.014,0.012,0.027,0.024,0.039,0.033
	c0.014,0.015,0.025,0.025,0.041,0.037l15.529-8.24c-0.013-0.015-0.025-0.027-0.041-0.039c-0.011-0.012-0.024-0.022-0.037-0.031
	c-0.011-0.012-0.027-0.024-0.039-0.033C86.562,147.233,86.549,147.224,86.536,147.215z M86.69,147.346l-15.529,8.242
	c0.012,0.012,0.024,0.021,0.037,0.037c0.012,0.012,0.023,0.025,0.037,0.037c0.011,0.012,0.022,0.027,0.035,0.039
	c0.01,0.015,0.021,0.026,0.033,0.041c0.011,0.012,0.021,0.025,0.033,0.037c0.01,0.015,0.019,0.026,0.029,0.041
	c0.012,0.015,0.023,0.032,0.035,0.047s0.023,0.033,0.035,0.051c0.053,0.079,0.102,0.163,0.146,0.252
	c0.01,0.018,0.018,0.034,0.025,0.053c0.01,0.018,0.018,0.031,0.023,0.049c0.006,0.015,0.012,0.026,0.018,0.041
	c0.007,0.015,0.012,0.029,0.018,0.041c0.006,0.015,0.013,0.03,0.018,0.045c0.006,0.012,0.01,0.026,0.016,0.041
	c0.004,0.015,0.008,0.028,0.014,0.043c0.005,0.015,0.01,0.03,0.016,0.045c0.004,0.018,0.009,0.032,0.014,0.047h-0.002
	c0.005,0.018,0.01,0.032,0.014,0.047c0.004,0.018,0.008,0.033,0.012,0.051c0.004,0.014,0.006,0.03,0.01,0.045v0.002
	c0.003,0.015,0.007,0.031,0.008,0.045c0.004,0.018,0.006,0.032,0.008,0.047s0.004,0.032,0.006,0.047s0.003,0.03,0.004,0.045
	c0.002,0.015,0.004,0.028,0.004,0.043s0.002,0.03,0.002,0.045v0.021l15.529-8.242v-0.021c0-0.015-0.002-0.029-0.002-0.043
	c0-0.015-0.001-0.031-0.002-0.045c-0.002-0.015-0.005-0.03-0.006-0.047c-0.001-0.015-0.005-0.029-0.006-0.043
	c-0.001-0.015-0.004-0.033-0.006-0.047c-0.004-0.015-0.006-0.033-0.01-0.047c-0.002-0.018-0.006-0.032-0.008-0.049
	c-0.005-0.015-0.01-0.03-0.012-0.047c-0.005-0.015-0.01-0.035-0.014-0.049c-0.004-0.015-0.009-0.033-0.014-0.047
	c-0.006-0.015-0.01-0.029-0.014-0.043c-0.006-0.015-0.011-0.031-0.016-0.045c-0.006-0.015-0.01-0.028-0.016-0.043
	c-0.004-0.012-0.01-0.027-0.016-0.041c-0.006-0.015-0.012-0.027-0.018-0.041c-0.006-0.015-0.012-0.029-0.018-0.041
	c-0.008-0.017-0.016-0.035-0.023-0.049v-0.002c-0.01-0.017-0.017-0.034-0.027-0.051c-0.043-0.088-0.093-0.173-0.146-0.252
	c-0.011-0.018-0.023-0.037-0.035-0.051c-0.011-0.018-0.021-0.033-0.033-0.047c-0.01-0.015-0.02-0.027-0.031-0.041
	c-0.012-0.015-0.021-0.026-0.031-0.041c-0.011-0.012-0.022-0.023-0.033-0.037c-0.011-0.012-0.023-0.027-0.035-0.039h-0.002
	c-0.012-0.015-0.023-0.025-0.035-0.037C86.716,147.37,86.702,147.358,86.69,147.346z"/>
<path id="Fill-471" inkscape:connector-curvature="0" class="st57" d="M45.087,141.876c-0.105-0.926,0.059-2.32,1.232-1.485
	c1.071,0.756,22.252,13.532,23.014,13.907c2.457,1.213,2.699,2.32,2.57,3.533c-0.126,1.21-0.023,22.872-0.043,23.78
	c-0.011,0.774,0.157,1.62-1.255,0.888c-0.686-0.357-24.141-14.502-24.726-14.88c-0.581-0.384-0.733-1.134-0.696-2.191
	C45.235,163.937,45.194,142.799,45.087,141.876"/>
<path id="Stroke-473" inkscape:connector-curvature="0" class="st58" d="M45.087,141.876c-0.105-0.926,0.059-2.32,1.232-1.485
	c1.071,0.756,22.252,13.532,23.014,13.907c2.457,1.213,2.699,2.32,2.57,3.533c-0.126,1.21-0.023,22.872-0.043,23.78
	c-0.011,0.774,0.157,1.62-1.255,0.888c-0.686-0.357-24.141-14.502-24.726-14.88c-0.581-0.384-0.733-1.134-0.696-2.191
	C45.235,163.937,45.194,142.799,45.087,141.876z"/>
<path id="Fill-475" inkscape:connector-curvature="0" class="st24" d="M60.605,170.633c0,1.245-0.873,1.737-1.94,1.099l-0.861-0.519
	c-1.066-0.642-1.94-2.183-1.94-3.431v-15.257c0-1.246,0.874-1.741,1.94-1.099l0.861,0.516c1.067,0.641,1.94,2.185,1.94,3.43V170.633
	z"/>
<polygon id="Fill-479" class="st59" points="62.097,132.305 85.597,146.555 70.44,154.479 46.534,140.162 "/>
<path id="path1200" inkscape:connector-curvature="0" sodipodi:nodetypes="csccscccc" class="st60" d="M55.066,127.888
	c0-1.521,0.016-2.906,0.358-3.904c0.342-0.997,0.923-1.978,1.732-2.43l7.766-4.123c-0.767,0.409-1.501,1.516-1.784,2.565
	c-0.268,0.994-0.325,2.26-0.306,3.769l0.01,14.007l-7.766,4.121L55.066,127.888z"/>
<defs>
	<filter id="Adobe_OpacityMaskFilter_22_" filterUnits="userSpaceOnUse" x="55.071" y="129.671" width="7.771" height="12.22">
		<feColorMatrix  type="matrix" values="1 0 0 0 0  0 1 0 0 0  0 0 1 0 0  0 0 0 1 0"/>
	</filter>
</defs>
<mask maskUnits="userSpaceOnUse" x="55.071" y="129.671" width="7.771" height="12.22" id="mask-246_2_">
	<g id="g1323_1_" class="st61">
		<path id="path-245_2_" class="st3" d="M55.072,133.793c0,0.556,0.005,7.722,0.005,8.097l7.766-4.119
			c-0.002-0.377-0.006-7.544-0.006-8.1"/>
	</g>
</mask>
<path id="Fill-545" inkscape:connector-curvature="0" class="st62" d="M55.071,133.793l7.766-4.122c0,0.557,0.005,7.723,0.005,8.101
	l-7.765,4.119C55.077,141.516,55.071,134.35,55.071,133.793"/>
<defs>
	<filter id="Adobe_OpacityMaskFilter_23_" filterUnits="userSpaceOnUse" x="73.307" y="133.063" width="7.845" height="19.74">
		<feColorMatrix  type="matrix" values="1 0 0 0 0  0 1 0 0 0  0 0 1 0 0  0 0 0 1 0"/>
	</filter>
</defs>
<mask maskUnits="userSpaceOnUse" x="73.307" y="133.063" width="7.845" height="19.74" id="mask-526_2_">
	<g id="g2724_1_" class="st63">
		<path id="path-525_2_" class="st3" d="M73.236,134.915c0.147,1.259,0.15,17.209,0.15,17.888l7.765-4.122
			c0-0.679-0.004-16.629-0.152-17.888"/>
	</g>
</mask>
<path id="Fill-981" inkscape:connector-curvature="0" class="st64" d="M73.307,137.182l7.765-4.119
	c0.076,4.743,0.08,15.073,0.08,15.618l-7.766,4.122C73.386,152.258,73.384,141.928,73.307,137.182"/>
<path id="Fill-985" class="st65" d="M69.429,150.369l3.883,2.332c0-0.978-0.012-16.6-0.152-17.818
	c-0.157-1.31-0.872-4.087-1.769-6.331c-0.843-2.098-2.274-4.509-4.254-7.146c-1.415-1.875-3.644-3.58-5.251-4.547
	c-0.451-0.272-0.878-0.504-1.275-0.688c-2.31-1.075-4.573-0.686-5.543-0.279c-3.02,1.248-3.471,4.064-3.682,5.417
	c-0.046,0.317-0.082,0.563-0.139,0.698c-0.276,0.679-0.134,16.467-0.134,17.458l3.89,2.338c0-0.636-0.013-7.527-0.013-8.06
	c0-0.123,0-0.425-0.002-0.838c-0.01-1.564-0.032-4.482-0.004-5.223c0.009-0.153,0.009-0.329,0.018-0.537
	c0.018-1.081,0.044-2.88,0.562-3.794c0.054-0.099,0.111-0.202,0.165-0.301c0.405-0.747,0.858-1.6,2.345-1.899
	c0.953-0.196,2.125-0.205,4.212,0.993c0.047,0.027,0.093,0.056,0.139,0.082c1.983,1.193,3.467,3.258,4.66,5.119
	c1.879,2.944,2.25,6.53,2.287,6.931C69.439,135.029,69.429,149.267,69.429,150.369 M73.236,134.915
	c0.147,1.26,0.15,17.209,0.15,17.889l-4.039-2.382c0-0.202,0.017-15.416-0.059-16.184c-0.036-0.401-0.399-3.937-2.25-6.844
	c-1.183-1.845-2.654-3.887-4.612-5.065l-0.14-0.082c-2.069-1.19-3.223-1.181-4.166-0.99c-1.477,0.281-1.921,1.128-2.316,1.872
	c-0.057,0.111-0.111,0.211-0.168,0.31c-0.516,0.894-0.541,2.681-0.561,3.75c0.002,0.214,0.002,0.402-0.007,0.542
	c-0.028,0.742-0.007,3.771,0.004,5.224v0.838c0,0.556,0.005,7.722,0.005,8.097l-4.039-2.37c-0.009-0.741-0.15-16.883,0.137-17.592
	c0.045-0.138,0.082-0.372,0.137-0.674c0.211-1.365,0.662-4.201,3.709-5.467c0.978-0.401,3.252-0.797,5.582,0.29
	c0.396,0.185,0.832,0.41,1.283,0.683c1.617,0.972,3.863,2.689,5.287,4.59c1.998,2.649,3.44,5.075,4.293,7.202
	C72.364,130.793,73.085,133.599,73.236,134.915"/>
<path id="Fill-989" inkscape:connector-curvature="0" class="st66" d="M51.083,139.494l3.896,2.314c0,0,0.227-16.602,0.235-16.854
	c0.051-1.342,0.806-3.278,2.941-3.847c1.369-0.366,2.166-0.047,3.489,0.709c1.742,0.996,2.843,2.028,4.537,4.301
	c1.653,2.224,2.157,3.53,2.693,5.625c0.52,2.03,0.428,4.808,0.428,4.808l0.113,13.863l3.961,2.317l-0.058-17.877
	c0,0-0.354-1.986-1.372-5.097c-1.019-3.112-1.681-4.407-3.777-7.178c-2.093-2.771-4.664-5.042-6.9-6.167
	c-1.092-0.548-3.313-1.825-5.489-1.02c-2.138,0.794-3.021,1.7-3.902,3.566c-0.904,1.91-0.623,3.621-0.737,4.638
	c-0.113,1.019-0.058,2.434-0.058,2.434V139.494z"/>
<path id="Stroke-991" class="st67" d="M51.083,139.494l3.896,2.314c0,0,0.227-16.602,0.235-16.854
	c0.051-1.342,0.806-3.278,2.941-3.847c1.369-0.366,2.166-0.047,3.489,0.709c1.742,0.996,2.843,2.028,4.537,4.301
	c1.653,2.224,2.157,3.53,2.693,5.625c0.52,2.03,0.428,4.808,0.428,4.808l0.113,13.863l3.961,2.317l-0.058-17.877
	c0,0-0.354-1.986-1.372-5.097c-1.019-3.112-1.681-4.407-3.777-7.178c-2.093-2.771-4.664-5.042-6.9-6.167
	c-1.092-0.548-3.313-1.825-5.489-1.02c-2.138,0.794-3.021,1.7-3.902,3.566c-0.904,1.91-0.623,3.621-0.737,4.638
	c-0.113,1.019-0.058,2.434-0.058,2.434V139.494z"/>
<path id="path1217" inkscape:connector-curvature="0" sodipodi:nodetypes="cccccccscc" class="st60" d="M73.316,152.655
	l-0.129-17.537c-0.421-5.647-4.539-12.433-7.504-15.356c-2.622-2.471-6.767-5.747-11.066-3.701l7.636-4.18
	c2.8-1.342,5.821-0.685,9.124,1.874c3.615,2.662,5.743,6.266,7.611,10.034c0.873,2.078,1.965,5.435,2.025,7.234l0.067,17.512
	L73.316,152.655z"/>
</svg>
