<?xml version="1.0" standalone="no"?>
<svg contentScriptType="text/ecmascript" width="62.5" xmlns:xlink="http://www.w3.org/1999/xlink" baseProfile="full"
    zoomAndPan="magnify" contentStyleType="text/css" height="50.4" viewBox="0 6.1 62.5 56.5" preserveAspectRatio="none meet"
    xmlns="http://www.w3.org/2000/svg" version="1.0">
    <defs>
        <style>.cls-1{fill:#253858;}.cls-2{fill:none;}.cls-3{fill:#2684ff;}.cls-4{fill:url(#New_Gradient_Swatch_1);}</style>
        <linearGradient x1="64.01" y1="30.27" x2="32.99" gradientUnits="userSpaceOnUse" y2="54.48" id="New_Gradient_Swatch_1">
            <stop offset="0.18" stop-color="#0052cc"/>
            <stop offset="1" stop-color="#2684ff"/>
        </linearGradient>
    </defs>
    <title>Bitbucket-blue</title>
    <polygon class="cls-2" points="24.7 43.51 37.75 43.51 40.9 25.12 21.23 25.12 24.7 43.51"/>
    <path class="cls-3" d=
        "M2,6.26A2,2,0,0,0,0,8.58L8.49,60.12a2.72,2.72,0,0,0,2.66,2.27H51.88a2,2,0,0,0,2-1.68L62.37,8.59a2,2,0,0,0-2-2.32ZM37.75,43.51h-13L21.23,25.12H40.9Z"/>
    <path class="cls-4" d="M59.67,25.12H40.9L37.75,43.51h-13L9.4,61.73a2.71,2.71,0,0,0,1.75.66H51.89a2,2,0,0,0,2-1.68Z"/>
</svg>