<svg xmlns="http://www.w3.org/2000/svg" xmlns:xlink="http://www.w3.org/1999/xlink" viewBox="0 0 381.64 79.55"><defs><style>.cls-1{fill:#253858;}.cls-2{fill:url(#New_Gradient_Swatch_1);}</style><linearGradient id="New_Gradient_Swatch_1" x1="32.77" y1="68.57" x2="32.77" y2="26.58" gradientUnits="userSpaceOnUse"><stop offset="0.18" stop-color="#0052cc"/><stop offset="1" stop-color="#2684ff"/></linearGradient></defs><title>Hipchat-blue</title><g id="Layer_2" data-name="Layer 2"><g id="Blue"><path class="cls-1" d="M104,4.58V30.71h30.45V4.58h7.92V62.39h-7.92V38.28H104V62.39H96.08V4.58Z"/><path class="cls-1" d="M158.92,1.5a4.94,4.94,0,0,1,5.28,5.28,5.28,5.28,0,0,1-10.56,0A4.94,4.94,0,0,1,158.92,1.5ZM155,18.39h7.57v44H155Z"/><path class="cls-1" d="M181.62,54.65v24.9h-7.57V18.39h7.57v7.92c2.82-5.81,8.1-8.8,14.87-8.8,11.7,0,17.6,9.94,17.6,22.88,0,12.41-6.16,22.88-18.48,22.88C189.19,63.27,184.26,60.37,181.62,54.65Zm12.85-30.1c-6.78,0-12.85,4.31-12.85,14.08v3.52c0,9.77,5.54,14.08,12,14.08,8.54,0,12.94-5.63,12.94-15.84C206.52,29.83,202.3,24.55,194.47,24.55Z"/><path class="cls-1" d="M254,61.25c-2.64,1.41-6.69,2-10.74,2-15.66,0-23-9.5-23-23,0-13.29,7.3-22.79,23-22.79a23.26,23.26,0,0,1,10.47,2.11v7a22.18,22.18,0,0,0-9.94-2.11c-11.44,0-16.1,7.22-16.1,15.75s4.75,15.75,16.28,15.75a27.8,27.8,0,0,0,10-1.58Z"/><path class="cls-1" d="M300,62.39h-7.57V37.93c0-9.06-3.17-13.55-10.38-13.55-7,0-11.88,4.66-11.88,13.55V62.39h-7.57V0h7.57V25.7a16.07,16.07,0,0,1,14.52-8.18c9.86,0,15.31,6.69,15.31,19.1Z"/><path class="cls-1" d="M340.46,54.47c-2.82,5.81-8.1,8.8-14.87,8.8-11.7,0-17.6-9.94-17.6-22.88,0-12.41,6.16-22.88,18.48-22.88,6.42,0,11.35,2.9,14,8.62V18.39H348v44h-7.57Zm-12.85,1.76c6.78,0,12.85-4.31,12.85-14.08V38.63c0-9.77-5.54-14.08-12-14.08-8.54,0-12.94,5.63-12.94,15.84C315.55,51,319.78,56.23,327.61,56.23Z"/><path class="cls-1" d="M376.89,55a24,24,0,0,0,4.75-.62v7.3a18.19,18.19,0,0,1-5.1.7c-9.42,0-14-5.54-14-13.73V25.43h-7.13v-7h7.13V9.06h7.39v9.33h11.7v7h-11.7V48.49C369.94,52.36,372.23,55,376.89,55Z"/><path class="cls-2" d="M53.9,52.74s.28-.19.74-.55c6.7-5.18,10.91-12.7,10.91-21.07,0-15.61-14.67-28.27-32.77-28.27S0,15.51,0,31.12,14.67,59.41,32.77,59.41a37.93,37.93,0,0,0,6.89-.63l.71-.13c4.61,3,11.31,5.44,17.17,5.44,1.83,0,2.68-1.49,1.52-3C57.29,58.9,54.85,55.42,53.9,52.74Zm-4-12.36c-1.95,2.92-8,7.89-17.08,7.89H32.7c-9.09,0-15.14-5-17.08-7.89a3.05,3.05,0,0,1-.74-1.57,1.33,1.33,0,0,1,1.28-1.44,1.63,1.63,0,0,1,.89.3,25,25,0,0,0,15.72,5.61h0A24,24,0,0,0,48.5,37.66a1.28,1.28,0,0,1,.86-.33,1.31,1.31,0,0,1,1.31,1.3A3.57,3.57,0,0,1,49.93,40.38Z"/></g></g></svg>