<svg xmlns="http://www.w3.org/2000/svg" xmlns:xlink="http://www.w3.org/1999/xlink" viewBox="0 0 397.12 66"><defs><style>.cls-1{fill:#253858;}.cls-2{fill:url(#linear-gradient);}.cls-3{fill:#2684ff;}</style><linearGradient id="linear-gradient" x1="37.13" y1="31.71" x2="52.42" y2="46.24" gradientUnits="userSpaceOnUse"><stop offset="0.17" stop-color="#0052cc"/><stop offset="1" stop-color="#2684ff"/></linearGradient></defs><title>Jira Core-blue</title><g id="Layer_2" data-name="Layer 2"><g id="Blue"><path class="cls-1" d="M103,4.11H111V44.32c0,10.65-4.66,18-15.58,18a28.14,28.14,0,0,1-9.5-1.5V53.12a22.21,22.21,0,0,0,8.18,1.5c6.69,0,9-4,9-9.77Z"/><path class="cls-1" d="M125.39,1a4.94,4.94,0,0,1,5.28,5.28,5.28,5.28,0,0,1-10.56,0A4.94,4.94,0,0,1,125.39,1Zm-3.87,16.9h7.57v44h-7.57Z"/><path class="cls-1" d="M140.52,17.92h7.39v7.74c2.55-5.19,7-8.89,15.58-8.36V24.7c-9.68-1-15.58,1.94-15.58,11.26v26h-7.39Z"/><path class="cls-1" d="M199,54c-2.82,5.81-8.1,8.8-14.87,8.8-11.7,0-17.6-9.94-17.6-22.88C166.48,27.51,172.64,17,185,17c6.42,0,11.35,2.9,14,8.62V17.92h7.57v44H199Zm-12.85,1.76c6.78,0,12.85-4.31,12.85-14.08V38.16c0-9.77-5.54-14.08-12-14.08-8.54,0-12.94,5.63-12.94,15.84C174,50.48,178.27,55.76,186.11,55.76Z"/><path class="cls-1" d="M275.33,59.37C271.73,61.74,266,62.8,260,62.8c-19,0-29.74-11.44-29.74-29.66,0-17.6,10.74-29.92,29.57-29.92,5.63,0,11.26,1.06,15.4,4v7.66c-4.14-2.64-8.71-4-15.4-4-13.55,0-21.65,9-21.65,22.26s8.36,22.09,22.09,22.09a32.46,32.46,0,0,0,15-3.52Z"/><path class="cls-1" d="M280.88,39.83c0-13.2,7.74-22.79,20.94-22.79s20.77,9.59,20.77,22.79-7.66,23-20.77,23S280.88,53,280.88,39.83Zm7.39,0c0,8.36,4.14,15.93,13.55,15.93s13.38-7.57,13.38-15.93-4-15.75-13.37-15.75S288.27,31.47,288.27,39.83Z"/><path class="cls-1" d="M331.39,17.92h7.39v7.74c2.55-5.19,7-8.89,15.58-8.36V24.7c-9.68-1-15.58,1.94-15.58,11.26v26h-7.39Z"/><path class="cls-1" d="M381,62.8c-16.46,0-23.67-9.5-23.67-23,0-13.29,7.39-22.79,20.77-22.79,13.55,0,19,9.42,19,22.79v3.43H365c1.06,7.48,5.9,12.32,16.28,12.32a39,39,0,0,0,13.38-2.38v7C391.05,62.1,385.51,62.8,381,62.8Zm-16.1-26h24.55c-.44-8.18-4.14-12.85-11.7-12.85C369.76,23.9,365.71,29.1,364.92,36.75Z"/><path class="cls-2" d="M33.43,44.48A21.52,21.52,0,0,0,54.95,66h0V23.12L33.43,37.86Z"/><path class="cls-3" d="M54.95,23.12V3.21a3.2,3.2,0,0,0-5-2.64L0,34.67a21.52,21.52,0,0,0,29.89,5.69Z"/></g></g></svg>