<?xml version="1.0" standalone="no"?>
<svg contentScriptType="text/ecmascript" xmlns:xlink="http://www.w3.org/1999/xlink" baseProfile="full" zoomAndPan="magnify"
    contentStyleType="text/css" viewBox="-0.1 -0.1 73.5 76" preserveAspectRatio="none meet" xmlns="http://www.w3.org/2000/svg"
    version="1.0">
    <defs>
        <style>.cls-1{fill:#253858;}.cls-2{fill:#2684ff;}.cls-3{fill:url(#linear-gradient);}.cls-4{fill:url(#linear-gradient-2);}</style>
        <linearGradient x1="34.64" y1="15.35" x2="19" gradientUnits="userSpaceOnUse" y2="30.99" id="linear-gradient">
            <stop offset="0.18" stop-color="#0052cc"/>
            <stop offset="1" stop-color="#2684ff"/>
        </linearGradient>
        <linearGradient x1="38.78" y1="60.28" x2="54.39" xlink:href="#linear-gradient"
            y2="44.67" id="linear-gradient-2"/>
    </defs>
    <title>Jira Software-blue</title>
    <path class="cls-2" d=
        "M72.4,35.76,39.8,3.16,36.64,0h0L12.1,24.54h0L.88,35.76A3,3,0,0,0,.88,40L23.3,62.42,36.64,75.76,61.18,51.22l.38-.38L72.4,40A3,3,0,0,0,72.4,35.76ZM36.64,49.08l-11.2-11.2,11.2-11.2,11.2,11.2Z"/>
    <path class="cls-3" d="M36.64,26.68A18.86,18.86,0,0,1,36.56.09L12.05,24.59,25.39,37.93,36.64,26.68Z"/>
    <path class="cls-4" d="M47.87,37.85,36.64,49.08a18.86,18.86,0,0,1,0,26.68h0L61.21,51.19Z"/>
</svg>