<svg xmlns="http://www.w3.org/2000/svg" xmlns:xlink="http://www.w3.org/1999/xlink" viewBox="0 0 704.21 75.76"><defs><style>.cls-1{fill:#253858;}.cls-2{fill:url(#linear-gradient);}.cls-3{fill:#2684ff;}</style><linearGradient id="linear-gradient" x1="36.5" y1="34.28" x2="45.33" y2="60.42" gradientTransform="translate(-1.77 -1.54) rotate(0.35)" gradientUnits="userSpaceOnUse"><stop offset="0" stop-color="#0052cc"/><stop offset="1" stop-color="#2684ff"/></linearGradient></defs><title>Jira Service Desk-blue</title><g id="Layer_2" data-name="Layer 2"><g id="Blue"><path class="cls-1" d="M102.21,9h7.92V49.2c0,10.65-4.66,18-15.58,18a28.14,28.14,0,0,1-9.5-1.5V58a22.21,22.21,0,0,0,8.18,1.5c6.69,0,9-4,9-9.77Z"/><path class="cls-1" d="M124.56,5.91a4.94,4.94,0,0,1,5.28,5.28,5.28,5.28,0,0,1-10.56,0A4.94,4.94,0,0,1,124.56,5.91Zm-3.87,16.9h7.57v44h-7.57Z"/><path class="cls-1" d="M139.7,22.8h7.39v7.74c2.55-5.19,7-8.89,15.58-8.36v7.39c-9.68-1-15.58,1.94-15.58,11.26v26H139.7Z"/><path class="cls-1" d="M198.13,58.88c-2.82,5.81-8.1,8.8-14.87,8.8-11.7,0-17.6-9.94-17.6-22.88,0-12.41,6.16-22.88,18.48-22.88,6.42,0,11.35,2.9,14,8.62V22.8h7.57v44h-7.57Zm-12.85,1.76c6.78,0,12.85-4.31,12.85-14.08V43c0-9.77-5.54-14.08-12-14.08-8.54,0-12.94,5.63-12.94,15.84C173.23,55.36,177.45,60.64,185.28,60.64Z"/><path class="cls-1" d="M250.49,67.68c-11.18,0-16.37-2.2-20.86-4.49V55.1c5.37,2.82,13.64,4.84,21.29,4.84,8.71,0,12-3.43,12-8.54s-3.17-7.83-14.17-10.47c-13-3.17-18.83-7.66-18.83-17.16,0-9,6.86-15.66,20.33-15.66,8.36,0,13.73,2,17.69,4.22v7.92a35.53,35.53,0,0,0-18-4.4c-7.57,0-12.06,2.64-12.06,7.92,0,4.75,3.7,7.13,13.9,9.68,12.23,3.08,19.1,7,19.1,17.42C270.82,60.9,264.83,67.68,250.49,67.68Z"/><path class="cls-1" d="M301.18,67.68c-16.46,0-23.67-9.5-23.67-23,0-13.29,7.39-22.79,20.77-22.79,13.55,0,19,9.42,19,22.79v3.43H285.16c1.06,7.48,5.9,12.32,16.28,12.32a39,39,0,0,0,13.38-2.38v7C311.21,67,305.67,67.68,301.18,67.68Zm-16.1-26h24.55c-.44-8.18-4.14-12.85-11.7-12.85C289.91,28.78,285.87,34,285.07,41.63Z"/><path class="cls-1" d="M326.26,22.8h7.39v7.74c2.55-5.19,7-8.89,15.58-8.36v7.39c-9.68-1-15.58,1.94-15.58,11.26v26h-7.39Z"/><path class="cls-1" d="M350.81,22.8h7.92L373,60.38,387.15,22.8h7.92L378,66.8H367.88Z"/><path class="cls-1" d="M405.46,5.91a4.94,4.94,0,0,1,5.28,5.28,5.28,5.28,0,0,1-10.56,0A4.94,4.94,0,0,1,405.46,5.91Zm-3.87,16.9h7.57v44h-7.57Z"/><path class="cls-1" d="M451.65,65.66c-2.64,1.41-6.69,2-10.74,2-15.66,0-23-9.5-23-23,0-13.29,7.3-22.79,23-22.79A23.26,23.26,0,0,1,451.39,24v7A22.18,22.18,0,0,0,441.45,29c-11.44,0-16.1,7.22-16.1,15.75s4.75,15.75,16.28,15.75a27.8,27.8,0,0,0,10-1.58Z"/><path class="cls-1" d="M481.31,67.68c-16.46,0-23.67-9.5-23.67-23,0-13.29,7.39-22.79,20.77-22.79,13.55,0,19,9.42,19,22.79v3.43H465.29c1.06,7.48,5.9,12.32,16.28,12.32a39,39,0,0,0,13.38-2.38v7C491.34,67,485.8,67.68,481.31,67.68Zm-16.1-26h24.55c-.44-8.18-4.14-12.85-11.7-12.85C470,28.78,466,34,465.21,41.63Z"/><path class="cls-1" d="M544.76,9c18.74,0,27.81,11.7,27.81,29s-9.15,28.69-27.81,28.69H531.38v.09h-7.92V9Zm-13.38,7.57V59.14h13.46q19.8,0,19.8-20.86c0-14.08-6.25-21.74-20.24-21.74Z"/><path class="cls-1" d="M602.83,67.68c-16.46,0-23.67-9.5-23.67-23,0-13.29,7.39-22.79,20.77-22.79,13.55,0,19,9.42,19,22.79v3.43H586.82c1.06,7.48,5.9,12.32,16.28,12.32a39,39,0,0,0,13.38-2.38v7C612.87,67,607.32,67.68,602.83,67.68Zm-16.1-26h24.55c-.44-8.18-4.14-12.85-11.7-12.85C591.57,28.78,587.52,34,586.73,41.63Z"/><path class="cls-1" d="M641.73,67.68a33.9,33.9,0,0,1-15.31-3.26v-8a34.39,34.39,0,0,0,15.66,4.31c5.81,0,8.8-2.38,8.8-5.81s-2.55-5.28-10.91-7.3c-9.77-2.38-13.9-6.16-13.9-13.38,0-7.66,5.9-12.32,15.93-12.32a31.24,31.24,0,0,1,14.17,3.17v7.83c-5.28-2.64-9.59-4-14.26-4-5.54,0-8.54,1.94-8.54,5.37,0,3.08,2.11,5,10.21,7,9.77,2.38,14.7,6,14.7,13.64C658.27,62.14,653.52,67.68,641.73,67.68Z"/><path class="cls-1" d="M667,66.8V4.41h7.57v39L693.47,22.8h9.86L682.65,44.45,704.21,66.8H693.91L674.55,46.21V66.8Z"/><path class="cls-2" d="M35.34,29.92,55.95,30a3.21,3.21,0,0,1,2.55,5.14L28.08,75.76a21.61,21.61,0,0,1-4.38-30.25Z"/><path class="cls-3" d="M23.69,45.51,3.2,45.38A3.21,3.21,0,0,1,.65,40.24L30.77,0a21.61,21.61,0,0,1,4.38,30.25Z"/></g></g></svg>