<?xml version="1.0" standalone="no"?>
<svg contentScriptType="text/ecmascript" width="102" xmlns:xlink="http://www.w3.org/1999/xlink" baseProfile="full"
    zoomAndPan="magnify" contentStyleType="text/css" height="102" viewBox="0 0 102 101.99" preserveAspectRatio="none meet"
    xmlns="http://www.w3.org/2000/svg" version="1.0">
    <defs>
        <style>.cls-1{fill:url(#linear-gradient);}</style>
        <linearGradient x1="51" y1="101.99" x2="51" gradientUnits="userSpaceOnUse" id="linear-gradient">
            <stop offset="0" stop-color="#0b7abf"/>
            <stop offset="1" stop-color="#368dcc"/>
        </linearGradient>
    </defs>
    <title>mark-trello-blue-Blue</title>
    <g id="Layer_2" data-name="Layer 2">
        <g id="Layer_1-2" data-name="Layer 1">
            <path class="cls-1" d=
                "M89.25,0H12.75A12.75,12.75,0,0,0,0,12.75v76.5A12.75,12.75,0,0,0,12.75,102h76.5A12.75,12.75,0,0,0,102,89.25V12.75A12.75,12.75,0,0,0,89.25,0ZM44.37,77.26a6.12,6.12,0,0,1-6.12,6.12H19.38a6.12,6.12,0,0,1-6.12-6.12V19.38a6.12,6.12,0,0,1,6.12-6.12H38.25a6.12,6.12,0,0,1,6.12,6.12Zm44.37-25.5a6.12,6.12,0,0,1-6.12,6.12H63.75a6.12,6.12,0,0,1-6.12-6.12V19.38a6.12,6.12,0,0,1,6.12-6.12H82.62a6.12,6.12,0,0,1,6.12,6.12Z"/>
        </g>
    </g>
</svg>