<?xml version="1.0" standalone="no"?>
<!DOCTYPE svg PUBLIC "-//W3C//DTD SVG 20010904//EN"
 "http://www.w3.org/TR/2001/REC-SVG-20010904/DTD/svg10.dtd">
<svg version="1.0" xmlns="http://www.w3.org/2000/svg"
 width="451.000000pt" height="451.000000pt" viewBox="0 0 451.000000 451.000000"
 preserveAspectRatio="xMidYMid meet">
<metadata>
Created by potrace 1.11, written by Peter Selinger 2001-2013
</metadata>
<g transform="translate(0.000000,451.000000) scale(0.100000,-0.100000)"
fill="#000000" stroke="none">
<path d="M99 4461 c-31 -19 -53 -44 -68 -73 l-21 -44 0 -2090 c0 -2005 1
-2091 19 -2129 22 -50 69 -91 119 -105 25 -7 717 -10 2116 -10 l2080 0 44 21
c29 15 54 37 73 67 l29 46 0 2103 c0 2081 0 2104 -20 2143 -11 21 -36 51 -57
67 l-36 28 -2117 3 -2116 2 -45 -29z m2652 -512 c53 -16 100 -58 134 -120 l30
-54 0 -370 c0 -288 -3 -379 -14 -409 -19 -53 -77 -115 -132 -140 l-46 -21 251
-427 250 -428 264 0 c290 0 308 -3 370 -63 19 -18 43 -50 55 -72 21 -39 22
-49 22 -425 0 -377 0 -386 -22 -426 -25 -48 -83 -101 -129 -120 -44 -19 -945
-20 -1005 -2 -52 15 -113 68 -138 121 -20 42 -21 58 -21 425 0 417 0 417 59
484 45 51 94 72 183 78 l78 5 -248 422 -247 423 -191 0 -191 0 -247 -420
c-135 -231 -246 -422 -246 -425 0 -3 29 -5 64 -5 113 0 186 -43 231 -134 l26
-53 -3 -385 -3 -385 -30 -49 c-19 -30 -49 -60 -79 -79 l-49 -30 -497 0 -497 0
-52 35 c-39 26 -59 50 -81 94 l-30 59 0 366 c0 363 0 366 24 416 29 62 61 97
117 127 42 22 54 23 309 26 l265 4 247 421 246 422 -33 16 c-65 32 -95 61
-125 123 l-31 62 3 375 c3 365 4 375 25 416 26 48 86 102 134 119 47 17 945
19 1000 3z"/>
</g>
</svg>
