<?xml version="1.0" encoding="utf-8"?>
<!-- Generator: Adobe Illustrator 21.1.0, SVG Export Plug-In . SVG Version: 6.00 Build 0)  -->
<svg version="1.1" id="Layer_1" xmlns="http://www.w3.org/2000/svg" xmlns:xlink="http://www.w3.org/1999/xlink" x="0px" y="0px"
	 viewBox="0 0 59.5 59.5" style="enable-background:new 0 0 59.5 59.5;" xml:space="preserve">
<style type="text/css">
	.st0{fill:#F3783A;}
	.st1{fill:none;stroke:#FFFFFF;stroke-width:6;stroke-miterlimit:10;}
	.st2{fill:none;stroke:#F3783B;stroke-width:2;stroke-miterlimit:10;}
	.st3{fill:#FFFFFF;stroke:#FFFFFF;stroke-miterlimit:10;}
	.st4{fill:#FFFFFF;}
</style>
<title>INDIVIDUAL ICONS</title>
<g id="Layer_2">
	<circle id="devops_artifact_management" class="st0" cx="29.7" cy="29.7" r="29.7"/>
</g>
<ellipse class="st0" cx="35.1" cy="48.8" rx="3" ry="1.7"/>
<ellipse class="st1" cx="29.2" cy="29.4" rx="18.1" ry="18"/>
<line class="st2" x1="51.5" y1="17.4" x2="46.3" y2="25"/>
<line class="st2" x1="47.3" y1="24.5" x2="35" y2="22.9"/>
<line class="st2" x1="4" y1="33.8" x2="11.9" y2="29.3"/>
<line class="st2" x1="10.9" y1="29.2" x2="21.1" y2="36.2"/>
<ellipse class="st0" cx="39.6" cy="45.7" rx="5.3" ry="5.3"/>
<ellipse class="st0" cx="29.1" cy="47.5" rx="7.2" ry="7"/>
<path class="st3" d="M34,47.5c0-0.6-0.1-1.1-0.3-1.7l1.2-1.5l-1.5-1.9l-1.8,0.9c-0.2-0.1-0.4-0.2-0.7-0.3c-0.2-0.1-0.4-0.2-0.7-0.2
	L29.6,41l-2.3,0.5l-0.1,1.8c-0.5,0.2-0.9,0.6-1.3,1.1l-1.8-0.2l-0.9,2.2l1.5,1c0,0.5,0.1,1.1,0.3,1.6l-1.2,1.4l1.5,1.8l1.7-0.8
	c0.2,0.1,0.4,0.2,0.7,0.3c0.2,0.1,0.4,0.2,0.7,0.2l0.7,1.8l2.3-0.4l0.1-1.8c0.5-0.3,0.9-0.6,1.3-1.1l1.8,0.2l0.9-2.2L34,47.5z
	 M34.4,50.3l-1.5-0.2h-0.2l-0.1,0.2c-0.3,0.4-0.7,0.7-1.2,1l-0.2,0.1v0.2L31.2,53l-1.8,0.3l-0.6-1.5l-0.1-0.2h-0.2
	c-0.2-0.1-0.5-0.1-0.7-0.2l-0.6-0.3l-0.2-0.1l-0.2,0.1l-1.5,0.8l-1.1-1.4l1-1.2l0.1-0.2L25.3,49c-0.2-0.5-0.3-1-0.3-1.5v-0.2
	l-0.2-0.1l-1.2-0.8l0.6-1.7l1.5,0.2h0.2l0.1-0.2c0.3-0.4,0.7-0.7,1.2-1l0.2-0.1v-0.2l0.1-1.5l1.8-0.3l0.6,1.5l0.1,0.2h0.2
	c0.2,0.1,0.5,0.1,0.7,0.2l0.6,0.3l0.2,0.1l0.2-0.1l1.5-0.8l1.1,1.4l-1,1.2l-0.1,0.2l0.1,0.2c0.2,0.5,0.3,1,0.3,1.5v0.2l0.2,0.1
	l1.2,0.8L34.4,50.3z"/>
<path class="st4" d="M27.2,46.6c-0.5,1.2,0.2,2.6,1.4,3.1c0,0,0,0,0,0c1.2,0.5,2.6-0.1,3.1-1.3c0,0,0,0,0-0.1
	c0.5-1.2-0.2-2.6-1.4-3.1c0,0,0,0,0,0c-1.2-0.5-2.6,0-3.1,1.2C27.2,46.5,27.2,46.5,27.2,46.6z M30.2,47.8c-0.2,0.4-0.6,0.7-1.1,0.5
	c-0.4-0.2-0.7-0.6-0.5-1.1l0,0c0.1-0.5,0.6-0.6,1.1-0.5C30.1,46.9,30.3,47.3,30.2,47.8L30.2,47.8z"/>
<path class="st3" d="M42.7,44c-0.2-0.3-0.5-0.6-0.8-0.8L42,42l-1.5-0.5l-0.7,1.1c-0.2,0-0.3,0-0.5,0.1c-0.2,0-0.3,0.1-0.5,0.1
	L37.8,42l-1.2,1.1l0.6,1.1c-0.2,0.3-0.3,0.7-0.4,1.1l-1.1,0.5l0.3,1.6h1.2c0.2,0.3,0.5,0.6,0.8,0.8l-0.1,1.2l1.5,0.5l0.7-1.1
	c0.2,0,0.3,0,0.5-0.1c0.2,0,0.3-0.1,0.5-0.1l1.1,0.8l1.2-1.1l-0.6-1.1c0.2-0.3,0.3-0.7,0.4-1.1l1.1-0.5L43.8,44L42.7,44z M43.9,45.5
	L43,45.8l-0.1,0.1V46c-0.1,0.3-0.2,0.7-0.3,1l-0.1,0.1l0.1,0.1l0.5,0.9l-0.9,0.8l-0.9-0.7l-0.1-0.1l-0.1,0.1
	c-0.1,0.1-0.3,0.1-0.4,0.1c-0.2,0-0.3,0-0.5,0.1h-0.2L40,48.5l-0.6,0.9L38.3,49l0.1-1v-0.2l-0.1-0.1c-0.3-0.2-0.5-0.5-0.7-0.8
	l-0.1-0.1h-1l-0.2-1.2l0.9-0.4l0.1-0.1V45c0.1-0.3,0.2-0.7,0.3-1l0.1-0.1l-0.1-0.1L37.1,43l0.9-0.8l0.9,0.7l0.1,0.1l0.1-0.1
	c0.1-0.1,0.3-0.1,0.4-0.1c0.2,0,0.3,0,0.5-0.1h0.2l0.1-0.1l0.6-0.9l1.1,0.4l-0.1,1v0.2l0.1,0.1c0.3,0.2,0.5,0.5,0.7,0.8l0.1,0.1h1.1
	L43.9,45.5z"/>
<path class="st4" d="M38.4,45.9c0.2,0.9,1.1,1.4,1.9,1.3c0.8-0.1,1.4-0.9,1.3-1.8c0,0,0,0,0-0.1c-0.2-0.9-1.1-1.4-1.9-1.3
	C38.8,44.2,38.3,45,38.4,45.9C38.4,45.9,38.4,45.9,38.4,45.9z M40.6,45.5c0.1,0.2,0,0.5-0.3,0.6c0,0-0.1,0-0.1,0
	c-0.3,0.1-0.6-0.1-0.7-0.4c0,0,0,0,0,0c-0.1-0.2,0-0.5,0.3-0.6c0,0,0.1,0,0.1,0C40.2,45,40.5,45.2,40.6,45.5
	C40.6,45.5,40.6,45.5,40.6,45.5z"/>
</svg>
