<?xml version="1.0" encoding="utf-8"?>
<!-- Generator: Adobe Illustrator 21.1.0, SVG Export Plug-In . SVG Version: 6.00 Build 0)  -->
<svg version="1.1" id="Layer_1" xmlns="http://www.w3.org/2000/svg" xmlns:xlink="http://www.w3.org/1999/xlink" x="0px" y="0px"
	 viewBox="0 0 60.2 60.2" style="enable-background:new 0 0 60.2 60.2;" xml:space="preserve">
<style type="text/css">
	.st0{fill:#F37738;}
	.st1{fill:#FFFFFF;}
</style>
<title>INDIVIDUAL ICONS</title>
<g id="Layer_2">
	<ellipse class="st0" cx="30.1" cy="30.1" rx="30.1" ry="30.1"/>
</g>
<path class="st1" d="M16.5,32L12,27.5l1.4-1.4h1.7v-1.7l7.1-7.1h9L19.6,28.9h-1.7v1.7L16.5,32z M13.1,27.5l3.3,3.3l0.6-0.6v-2.2h2.2
	l10-10h-6.7l-6.6,6.7V27h-2.2L13.1,27.5z"/>
<path class="st1" d="M38.8,32.2L38.8,32.2c3.7,1.3,7.7-0.7,9-4.4c0.4-1.1,0.5-2.4,0.3-3.5l-0.3-1.5l-1.1,1.1L44,26.6
	c-1.1,1.1-2.8,1.1-3.9,0s-1.1-2.8,0-3.9l2.7-2.7l1.1-1.1l-1.5-0.3c-3.8-0.7-7.5,1.9-8.2,5.7c-0.1,0.4-0.1,0.8-0.1,1.3
	c0,0.8,0.1,1.6,0.4,2.3l0,0l0,0l-3.4,3.4l-5.6-5.6l-0.6-0.6l-0.6,0.6l-2.5,2.5l-0.6,0.6l0.6,0.6l5.6,5.6l-4.9,4.9
	c-1.2,1.2-1.2,3.1,0,4.3c1.2,1.2,3.1,1.2,4.3,0l4.9-4.9l5.4,5.4l0.6,0.6l0.6-0.6l2.5-2.5l0.6-0.6L40.8,41l-5.4-5.4L38.8,32.2
	L38.8,32.2z M22.4,28.8l2.5-2.5l5.6,5.6L28,34.4L22.4,28.8z M40.2,41.6l-2.5,2.5l-5.4-5.4l0.3-0.3l2.2-2.2L40.2,41.6z M38.2,31.6
	l-5.1,5.1l-1.4,1.4l-5.5,5.5c-0.9,0.9-2.3,0.9-3.2,0s-0.9-2.3,0-3.2l4.9-4.9l0.6-0.6l2.5-2.5l0.6-0.6l3.4-3.4l0.4-0.4l-0.2-0.5
	c-1.1-3.3,0.6-6.8,3.9-8c1-0.3,2.1-0.4,3.1-0.2l-2.7,2.8c-1.4,1.4-1.4,3.6,0,5.1c1.4,1.4,3.6,1.4,5,0l0,0l2.7-2.7
	c0.6,3.4-1.6,6.6-5,7.3c-1.1,0.2-2.2,0.1-3.2-0.3l-0.5-0.3L38.2,31.6z"/>
</svg>
