<?xml version="1.0" encoding="utf-8"?>
<!-- Generator: Adobe Illustrator 21.1.0, SVG Export Plug-In . SVG Version: 6.00 Build 0)  -->
<svg version="1.1" id="Layer_1" xmlns="http://www.w3.org/2000/svg" xmlns:xlink="http://www.w3.org/1999/xlink" x="0px" y="0px"
	 viewBox="0 0 59.9 59.9" style="enable-background:new 0 0 59.9 59.9;" xml:space="preserve">
<style type="text/css">
	.st0{fill:#A5276E;}
	.st1{fill:#FFFFFF;}
</style>
<title>INDIVIDUAL ICONS</title>
<circle class="st0" cx="30" cy="30" r="30"/>
<path class="st1" d="M37.3,51.5H22.7c-2.8,0-5-2.2-5-5v-33c0-2.8,2.2-5,5-5h14.6c2.8,0,5,2.2,5,5v33.1C42.3,49.3,40,51.5,37.3,51.5z
	 M22.7,9.8c-2,0-3.7,1.6-3.7,3.7l0,0v33.1c0,2,1.6,3.7,3.7,3.7l0,0h14.6c2,0,3.7-1.7,3.7-3.7V13.4c0-2-1.6-3.7-3.7-3.7l0,0H22.7z"/>
<ellipse class="st1" cx="30" cy="47.1" rx="1.8" ry="1.8"/>
<rect x="27.6" y="11" class="st1" width="4.8" height="0.9"/>
<path class="st1" d="M20.9,13.4v30.2h18.2V13.4H20.9z M29.9,35l-7.1-7.7c0.4-0.8,7.4-6.6,14.3,0L29.9,35z"/>
</svg>
