<?xml version="1.0" encoding="utf-8"?>
<!-- Generator: Adobe Illustrator 21.1.0, SVG Export Plug-In . SVG Version: 6.00 Build 0)  -->
<svg version="1.1" id="Layer_1" xmlns="http://www.w3.org/2000/svg" xmlns:xlink="http://www.w3.org/1999/xlink" x="0px" y="0px"
	 viewBox="0 0 64.5 65" style="enable-background:new 0 0 64.5 65;" xml:space="preserve">
<style type="text/css">
	.st0{fill:#5F707B;}
	.st1{fill:#2EC3B5;}
	.st2{fill:#37C3E2;}
	.st3{fill:none;stroke:#FFFFFF;stroke-width:0.5;stroke-miterlimit:10;}
</style>
<title>INDIVIDUAL ICONS 3</title>
<polygon class="st0" points="8.6,47 0,30.7 9.8,15.1 28.1,15.8 36.7,32.1 26.9,47.7 "/>
<polygon class="st1" points="36.8,32.2 27.9,15.9 37.3,0 55.6,0.3 64.5,16.6 55.1,32.5 "/>
<path class="st2" d="M35.4,64.2l-8.5-16.5l9.8-15.7L55,32.5l8.5,16.8L53.7,65L35.4,64.2z"/>
<line class="st3" x1="27.6" y1="16.2" x2="36.7" y2="31.9"/>
<line class="st3" x1="36.7" y1="31.9" x2="54.3" y2="31.6"/>
<ellipse transform="matrix(2.164036e-02 -0.9998 0.9998 2.164036e-02 4.5065 67.4099)" class="st3" cx="36.7" cy="31.4" rx="18.7" ry="18.7"/>
<polygon class="st3" points="41,23.6 54.3,31.6 40.7,39.2 27.1,46.8 27.3,31.2 27.6,15.6 "/>
<line class="st3" x1="36.7" y1="31.9" x2="27.1" y2="46.8"/>
</svg>
