<?xml version="1.0" encoding="utf-8"?>
<!-- Generator: Adobe Illustrator 21.1.0, SVG Export Plug-In . SVG Version: 6.00 Build 0)  -->
<svg version="1.1" id="Layer_1" xmlns="http://www.w3.org/2000/svg" xmlns:xlink="http://www.w3.org/1999/xlink" x="0px" y="0px"
	 viewBox="0 0 62.6 61.7" style="enable-background:new 0 0 62.6 61.7;" xml:space="preserve">
<style type="text/css">
	.st0{fill:#C1E8FA;}
	.st1{fill:#18AEE4;}
	.st2{fill:#9DCB3C;}
	.st3{fill:#39B44B;}
	.st4{fill:#6CCDF4;}
	.st5{fill:#D5DE26;}
	.st6{fill:#1F92D0;}
	.st7{fill:#2CA9E1;}
	.st8{fill:#39C5F3;}
	.st9{fill:#BFD631;}
	.st10{fill:#2EA149;}
	.st11{fill:#0083C1;}
	.st12{fill:#A9C239;}
	.st13{fill:#8CB940;}
	.st14{fill:#DCE691;}
	.st15{fill:#FFFFFF;}
</style>
<title>INDIVIDUAL ICONS 2</title>
<path class="st0" d="M34.7,46.5c-0.1-0.1-0.3-0.2-0.4-0.2c-0.1,0-0.2-0.1-0.2-0.1c0-0.1,0-0.1,0.1-0.2c0.3,0.1,0.5,0.2,0.8,0.4
	C34.9,46.4,34.8,46.4,34.7,46.5z"/>
<path class="st0" d="M27.1,42c0.1-0.1,0.1-0.1,0.2-0.2l1.9,1.2c0.4,0.3,0.8,0.5,1.3,0.7c0.1,0,0.1,0,0.2,0c0.2-0.2,0.5-0.2,0.7-0.1
	c0.2,0.1,0.4,0.4,0.3,0.6c0,0.1,0.1,0.3,0.2,0.3l1.8,1l0.1,0.1c0.1,0.1,0,0.1,0,0.2s-0.1,0-0.2,0l-2-1.2c-0.1-0.1-0.1-0.1-0.2,0
	c-0.2,0.1-0.5,0.1-0.7,0c-0.2-0.1-0.3-0.3-0.3-0.6c0-0.1,0-0.2-0.2-0.3C29.1,43.3,28.1,42.7,27.1,42z"/>
<path class="st0" d="M20,37.8c0-0.1,0.1-0.2,0.1-0.2l1.8,1.2c0.4,0.2,0.8,0.5,1.2,0.7c0,0,0.1,0,0.2,0c0.2-0.2,0.5-0.2,0.7-0.1
	c0.2,0.1,0.4,0.3,0.3,0.6c0,0.1,0.1,0.3,0.2,0.3l1.7,1l0.1,0.1c0.1,0.1,0,0.1,0,0.2s-0.1,0-0.1,0l-1.9-1.1c-0.1,0-0.1,0-0.2,0
	c-0.2,0.1-0.4,0.1-0.6,0c-0.2-0.1-0.3-0.3-0.3-0.5c0-0.1,0-0.2-0.1-0.3C21.9,39.1,21,38.5,20,37.8z"/>
<path class="st1" d="M35.3,60.2c-0.2,0.7-0.7,1.3-1.4,1.6h-0.6c-0.6-0.2-1.1-0.6-1.5-1.2l-0.5-0.7l0,0c-0.5-0.8-1-1.7-1.3-2.6
	c0-0.1,0-0.2-0.1-0.2c0-0.1,0-0.2-0.1-0.3c-0.1-0.2-0.1-0.4-0.3-0.6c-0.1-0.3-0.2-0.7-0.3-1c0-0.1,0-0.2-0.1-0.3l-0.5-1.3
	c0-0.1,0-0.1,0-0.2c0-0.1,0-0.1-0.1-0.2c0-0.2-0.1-0.4-0.1-0.5l-0.1-0.4c-0.1-0.3-0.1-0.6-0.3-0.9c0-0.2-0.1-0.4-0.2-0.6
	c-0.1-0.4-0.2-0.8-0.3-1.3c0,0,0,0,0-0.1c-0.4-1.7-0.8-3.5-1.1-5.2c0-0.1,0-0.2,0-0.3c-0.1-0.3-0.1-0.7-0.2-1c0,0,0-0.1,0-0.1
	c-0.2-1.1-0.3-2.1-0.5-3.2c0-0.2-0.1-0.2-0.3-0.3c-1.2-0.4-1.8-1.7-1.5-2.8c0.2-0.6,0.6-1,1.1-1.3c0,0,0.1,0,0.1-0.1l-0.1-0.9v-0.2
	L25,31.8c0-0.2,0-0.4,0-0.7s0-0.6-0.1-0.9s0-0.6,0-1c0,0,0-0.1,0-0.1V29l0,0l0,0c0-1.1,0-2.3,0-3.4h-0.1c-0.5,0.5-1.1,1-1.6,1.5
	l-1,1.1c0-0.1-0.1-0.2,0-0.3c0.4-0.4,0.7-0.8,1.1-1.2s1-1,1.5-1.5c0,0,0.1-0.1,0.1-0.2c0-0.3,0-0.6,0-1v-0.1l0.1-2c0,0,0-0.1,0-0.1
	l0.1-1.4l0.1-0.9l0.1-0.4c0.1-0.7,0.3-1.3,0.5-2l0.3-0.8c0.2-0.4,0.4-0.8,0.6-1.1c0.2-0.2,0.4-0.4,0.7-0.6c0.4-0.2,0.9-0.1,1.3,0.1
	c0.4,0.2,0.7,0.5,0.9,0.9L29,15.8c-0.2-0.3-0.7-0.4-1-0.1c-0.1,0.1-0.2,0.2-0.3,0.3c-0.2,0.2-0.3,0.5-0.4,0.7c0,0,0,0.1-0.1,0.1
	c-0.3,1-0.5,2-0.6,3V20v0.3c-0.1,0.4-0.1,0.8-0.1,1.2c0,0.2,0,0.3,0,0.5c-0.1,0.7-0.1,1.3-0.1,1.9c0,0.2,0,0.2,0.2,0.2h0.1
	c-0.3,0.2-0.4,0.5-0.4,0.8c0,0.1,0,0.2,0,0.2c0,1.3,0,2.5,0,3.8c0,0.4,0,0.8,0,1.3c0,0.1,0,0.2,0,0.3c0,0.4,0,0.8,0.1,1.2
	c0,0.3,0,0.6,0,0.9c0,0.8,0.1,1.6,0.2,2.4c0,0.1,0,0.2,0.2,0.2c0.4,0.1,0.8,0.3,1.1,0.6c0.8,0.9,0.8,2.4-0.2,3.2
	c-0.2,0.1-0.4,0.3-0.6,0.4c-0.1,0-0.2,0.2-0.1,0.3c0.2,1.1,0.3,2.2,0.5,3.3c0.1,0.5,0.1,0.9,0.3,1.4c0,0,0,0.1,0,0.2
	c0.2,1.1,0.4,2.2,0.6,3.3c0.1,0.5,0.2,1,0.3,1.4c0,0,0,0.1,0,0.1l0.3,1.2c0,0.1,0,0.2,0.1,0.2c0.1,0.4,0.2,0.7,0.3,1.1l0.1,0.4
	c0,0.1,0.1,0.2,0.1,0.3c0.1,0.5,0.3,0.9,0.4,1.4c0.2,0.6,0.4,1.2,0.6,1.8c0.1,0.3,0.2,0.7,0.4,1c0.2,0.5,0.4,1,0.6,1.4
	c0.3,0.7,0.6,1.3,1,1.9c0.1,0.2,0.3,0.4,0.5,0.6c0,0,0.1,0.1,0.1,0.1c0.2,0.2,0.5,0.3,0.8,0.2c0.2-0.1,0.4-0.3,0.5-0.5L35.3,60.2z"
	/>
<path class="st1" d="M31.6,0c0.3,0.1,0.5,0.2,0.7,0.4c0.2,0.2,0.4,0.6,0.3,0.9c0,2.7,0,5.3,0,7.9c0,0.7-0.5,1.3-1.3,1.3
	c-0.6,0-1.2-0.4-1.3-1.1c0-0.1,0-0.2,0-0.3c0-2.7,0-5.3,0-7.9c0-0.6,0.4-1.1,1-1.3c0,0,0.1,0,0.1,0L31.6,0z"/>
<path class="st1" d="M0,16.4c0.1-0.3,0.2-0.6,0.5-0.8c0.4-0.3,1-0.4,1.5-0.1l3.8,2.4l2.9,1.8c0.6,0.4,0.8,1.2,0.5,1.8
	C9,21.7,8.7,21.9,8.4,22c-0.4,0.1-0.8,0.1-1.1-0.2l-6-3.8C1.2,18,1,18,0.9,17.9c-0.4-0.2-0.8-0.6-0.9-1L0,16.4z"/>
<path class="st1" d="M62.6,16.9C62.6,16.9,62.6,17,62.6,16.9c-0.1,0.4-0.3,0.7-0.6,0.8L56.7,21l-1.4,0.9c-0.6,0.4-1.4,0.2-1.8-0.4
	c-0.4-0.6-0.2-1.4,0.4-1.8c2.2-1.4,4.5-2.8,6.7-4.1c0.6-0.4,1.4-0.3,1.8,0.3c0.1,0.1,0.1,0.3,0.2,0.4l0,0L62.6,16.9z"/>
<path class="st2" d="M53.3,33.3c0.6,0.2,1.1,0.5,1.6,0.9c0.5,0.4,0.6,1.1,0.3,1.7c-0.2,0.3-0.5,0.7-0.8,0.9L54.2,37
	c-0.2,0.1-0.4,0.2-0.5,0.4L52.6,38c-0.8,0.4-1.6,0.8-2.4,1.1c-0.1,0-0.1,0.1,0,0.1c0.4,1,0.8,2.1,1.1,3.2c0.2,0.8,0.3,1.6,0.4,2.4
	c-0.3-0.1-0.7-0.1-1-0.1l-0.1-0.1l-0.1-0.4c0-0.2-0.1-0.3-0.1-0.5c-0.2-0.9-0.5-1.8-0.9-2.7l-0.2-0.3c-0.1-0.3-0.2-0.6-0.4-0.8
	c0-0.1-0.1-0.1-0.2-0.1c-0.8,0.3-1.7,0.6-2.6,0.9l-2,0.6c-0.1,0-0.2,0-0.3,0.1l-0.8,0.2l-1.5,0.4l-0.8,0.2l0,0l0,0
	c-0.1,0-0.2,0-0.4,0.1l0,0l0,0c0,0-0.1,0-0.1,0c-1.2,0.3-2.5,0.5-3.7,0.8L36.3,43c-0.3,0-0.5,0.1-0.8,0.2c-0.2,0-0.5,0-0.7,0.1
	l-0.9,0.2h-0.1c-1,0.2-2,0.3-3,0.4l-2,0.3c0.1-0.2,0.2-0.5,0.1-0.8c0-0.2-0.1-0.4-0.1-0.6h0.1l1.9-0.2c1.3-0.2,2.5-0.4,3.8-0.6
	l1-0.2l0.6-0.1c0.1,0,0.1,0,0.2,0c1.3-0.2,2.7-0.5,4-0.8c0.5-0.1,1-0.2,1.5-0.4c0.1,0,0.2,0,0.3-0.1c0.2,0,0.3-0.1,0.5-0.1
	c0.3-0.1,0.5-0.1,0.8-0.2h0.1c0.8-0.2,1.5-0.4,2.3-0.6c0.2,0,0.4-0.1,0.5-0.2c0.3-0.1,0.5-0.1,0.8-0.2c0.4-0.1,0.9-0.3,1.3-0.4
	c0.2-0.1,0.3-0.1,0.5-0.2c0.3-0.1,0.5-0.2,0.7-0.3c0.1,0,0.1,0,0.2,0c0.4-0.2,0.9-0.3,1.3-0.5c0.6-0.3,1.2-0.6,1.8-0.9
	c0.2-0.1,0.3-0.2,0.5-0.3c0.2-0.1,0.4-0.2,0.5-0.4c0.2-0.2,0.4-0.4,0.6-0.7c0.1-0.3,0.1-0.6-0.1-0.8c-0.2-0.3-0.5-0.5-0.9-0.7
	L53.3,33.3z"/>
<path class="st2" d="M9.5,43.8c-0.5-0.2-1-0.4-1.4-0.6c-0.3-0.2-0.5-0.4-0.7-0.6c-0.3-0.4-0.4-1-0.1-1.4c0.2-0.5,0.6-0.9,1-1.2
	c0.2-0.1,0.3-0.3,0.5-0.4C8.9,39.7,8.9,39.8,9,40c-0.4,0.3-0.6,0.6-0.9,1c-0.2,0.3-0.1,0.6,0.1,0.8c0.3,0.3,0.6,0.5,1,0.6
	c0.2,0.1,0.4,0.2,0.7,0.2c0.3,0.1,0.5,0.1,0.8,0.2c0.5,0.1,1,0.2,1.5,0.2c0.4,0.1,0.7,0.1,1.1,0.1h0.2c0.3,0,0.7,0.1,1,0
	c0.3,0,0.5,0.1,0.8,0.1c0.4,0,0.8,0.1,1.2,0c0.3,0,0.6,0,0.9,0L17,42.6c0-0.1,0.1-0.2,0.2-0.3l0.6,0.8c0.1,0.1,0.1,0.1,0.2,0.1h2.7
	c0.1,0,0.2,0,0.2-0.1c0.4-1.1,1.7-1.7,2.8-1.3c0.5,0.2,1,0.6,1.2,1.1c0,0.1,0.1,0.1,0.2,0.1h0.4v0.3c0,0.4,0.1,0.7,0.2,1
	c-0.2,0-0.3,0-0.5,0c-0.1,0-0.2,0.1-0.2,0.2c-0.1,0.3-0.3,0.6-0.5,0.8c-0.1,0.2-0.3,0.3-0.5,0.4l-0.2,0.1c-0.2,0.1-0.5,0.1-0.7,0.2
	c-0.9,0-1.7-0.5-2.1-1.3c0-0.1,0-0.1-0.1-0.1h-1h-0.8c0,0,0,0,0,0.1l1.1,1.1c0,0.1,0.1,0,0.2,0c0.3-0.1,0.7,0,0.8,0.3
	c0.1,0.2,0.1,0.3,0,0.5c-0.1,0.1-0.1,0.1,0,0.2c0,0,0,0,0,0c0.5,0.5,1,0.9,1.5,1.3c0.1,0.1,0.3,0.3,0.5,0.3c0,0.1,0.1,0.1,0.2,0.1
	c0,0.1,0.1,0.1,0.1,0.1l0.6,0.5c-0.2,0-0.4-0.1-0.5-0.1c0-0.1-0.1-0.1-0.2-0.2s-0.1-0.1-0.1,0c-0.1,0-0.1,0-0.2-0.1
	c0.1-0.2,0-0.3-0.1-0.4c-0.6-0.5-1.2-1-1.8-1.6c-0.1-0.1-0.1-0.1-0.3-0.1c-0.2,0.1-0.5,0-0.6-0.1c-0.2-0.2-0.2-0.4-0.1-0.7
	c0-0.1,0-0.1,0-0.2c-0.4-0.4-0.8-0.8-1.2-1.3c-0.1-0.1-0.1-0.1-0.2-0.1h-1.4c-0.4,0-0.9,0-1.3,0s-0.7,0-1-0.1c-0.1,0-0.2,0-0.3,0
	l-1.3-0.1l-1-0.1c-0.3-0.1-0.5-0.1-0.8-0.1l-0.4-0.1L10.2,44L9.5,43.8z"/>
<path class="st3" d="M31.4,59.9l0.5,0.7c-0.9,0.1-1.8,0-2.7-0.2c-1.1-0.2-2.2-0.5-3.2-0.9h-0.1L24.8,59l-1-0.5l-1-0.6l-0.7-0.5
	l-0.3-0.2c0,0,0-0.1-0.1-0.1c-0.1-0.1-0.2-0.2-0.3-0.3v0c-0.7-0.5-1.3-1.1-1.9-1.7l0,0l0,0L19,54.5c-0.1-0.1-0.1-0.2-0.2-0.2
	c0,0,0,0,0-0.1L18,53.3l-0.8-1.1l-0.5-0.8c0,0-0.1-0.1-0.1-0.1c-0.2,0-0.3,0-0.5,0c-0.8-0.2-1.2-1-1-1.7c0-0.1,0.1-0.3,0.2-0.4
	c0-0.1,0.1-0.1,0-0.2c-0.2-0.5-0.4-0.9-0.6-1.4s-0.4-1.1-0.6-1.6v-0.1l0,0l0,0c0-0.1,0-0.2,0-0.3s0-0.2,0.1-0.1c0.2,0,0.4,0,0.5,0
	l0.4-0.1l0.2,0.7c0.1,0.3,0.2,0.6,0.3,0.9c0,0.1,0,0.1,0,0.2c0.2,0.4,0.3,0.8,0.5,1.1c0.1,0.2,0.1,0.4,0.4,0.3c0,0,0.1,0,0.1,0
	c0.8,0.1,1.3,0.8,1.2,1.6c0,0.2-0.1,0.4-0.2,0.5c-0.1,0.1-0.1,0.3,0,0.4c0.2,0.3,0.5,0.7,0.7,1c0.2,0.3,0.5,0.7,0.8,1l0.1,0.1
	c0.1,0.2,0.3,0.4,0.5,0.5c0.4,0.5,0.9,1,1.4,1.5c0.2,0.2,0.5,0.4,0.7,0.6l0.3,0.2c0.1,0.1,0.3,0.3,0.5,0.4l0.3,0.2
	c0.5,0.4,1,0.7,1.6,1c0.4,0.2,0.7,0.4,1.1,0.6c0.3,0.2,0.7,0.3,1.1,0.5h0.1C28.1,59.4,29.7,59.8,31.4,59.9z"/>
<path class="st1" d="M14.2,3.9c0.5,0,0.9,0.3,1.1,0.7c0.7,1.4,1.3,2.7,2,4.1l1.5,3c0.4,0.6,0.2,1.4-0.4,1.8
	c-0.6,0.4-1.4,0.2-1.8-0.4c0-0.1-0.1-0.1-0.1-0.2l-2.2-4.6L13,5.8c-0.3-0.7,0-1.4,0.6-1.7C13.8,3.9,14,3.9,14.2,3.9z"/>
<path class="st1" d="M49.3,5.2c0,0.3-0.1,0.6-0.3,0.9l-2.2,4.5l-1.1,2.3c-0.2,0.4-0.6,0.7-1,0.8c-0.7,0.1-1.3-0.4-1.4-1.1
	c0-0.3,0-0.6,0.2-0.9l2.8-5.9c0.2-0.4,0.4-0.8,0.6-1.2c0.4-0.6,1.2-0.8,1.8-0.4c0.3,0.2,0.5,0.4,0.6,0.7C49.3,5,49.3,5.1,49.3,5.2z"
	/>
<path class="st4" d="M22.1,28c-0.1,0.1,0,0.2,0,0.3s0.1,0.3,0.3,0.3l0.4,0.1c0.5,0.2,1,0.4,1.5,0.6c-0.1,0.1-0.1,0.2-0.2,0.3
	c-0.2,0.3-0.3,0.6-0.4,1l-1.9-0.7c-0.1-0.1-0.2-0.1-0.2,0c-0.2,0.2-0.5,0.4-0.9,0.5c-0.1,0-0.3,0-0.4,0.1s-0.1,0-0.2,0h-0.1
	c-0.7-0.1-1.2-0.7-1.3-1.4c0-0.1-0.1-0.2-0.2-0.2c-0.9-0.3-1.8-0.5-2.8-0.8c-0.1,0-0.2-0.1-0.3,0c0-0.1,0-0.1-0.1-0.1
	c-0.3-0.1-0.6-0.1-1-0.2l-0.2-0.1l-0.6-0.1l-0.5-0.1c-0.4,0-0.7-0.1-1.1-0.1c-0.2,0-0.4,0-0.6,0c-0.2,0-0.4,0.1-0.6,0.2
	c-0.3,0.1-0.5,0.5-0.4,0.8c0.1,0.3,0.2,0.7,0.4,1l-0.3,0.4c-0.4-0.5-0.6-1-0.8-1.6c-0.2-0.7,0.2-1.5,0.9-1.7c0,0,0,0,0,0
	c0.4-0.1,0.8-0.2,1.2-0.2h0.7c0.6,0,1.1,0.1,1.7,0.1l1,0.1l1.1,0.2c0.2,0.1,0.5,0.1,0.7,0.1c0,0,0.1,0,0.1,0
	c0.7,0.2,1.4,0.4,2.1,0.6c0.1,0,0.2,0,0.3-0.1c0.3-0.3,0.8-0.5,1.2-0.4C21.3,27,21.8,27.3,22.1,28C22.1,27.9,22.1,28,22.1,28z"/>
<path class="st5" d="M44.2,19c0.6,0,1.2,0.1,1.7,0.3c1.7,0.5,2.9,1.9,3.2,3.6c0.1,0.3,0.1,0.6,0.1,1v0.9l-0.5-0.5
	c0-0.2,0-0.4-0.1-0.6c0-0.1,0-0.2,0-0.2c-0.2-1-0.6-2-1.4-2.7c-0.4-0.4-1-0.7-1.6-0.9c-0.4-0.1-0.9-0.2-1.4-0.2
	c-0.8,0-1.5,0.1-2.3,0.3l-0.3,0.1c-0.6,0.2-1.2,0.4-1.7,0.6l-0.2,0.1c-1.1,0.4-2.1,0.9-3.1,1.5c-0.5,0.3-1.1,0.6-1.6,1
	c-0.4,0.2-0.8,0.5-1.2,0.8c-0.1,0-0.2,0.1-0.3,0.2c-0.1,0-0.2,0.1-0.3,0.2c-0.1,0-0.1,0.1-0.2,0.1c-0.2,0.1-0.4,0.3-0.6,0.5l0,0l0,0
	c-0.2,0-0.3,0.2-0.4,0.3c-0.1,0.1,0,0,0,0l0,0c-0.1,0-0.1,0-0.1,0.1c-0.8,0.6-1.5,1.2-2.2,1.8l-1.4,1.3c-0.2-0.3-0.5-0.6-0.8-0.8v0
	c0.9-0.8,1.8-1.6,2.7-2.4l1.5-1.1c0.1,0,0.2-0.1,0.3-0.2c0.3-0.2,0.6-0.4,0.8-0.6h0.1l1-0.7c0,0,0.1,0,0.1-0.1c0,0,0.1,0,0.1,0
	c0,0,0,0,0,0l0,0c0.1,0,0.1,0,0.2-0.1c0.8-0.5,1.5-0.9,2.3-1.3c0.5-0.3,1-0.5,1.5-0.7c0.7-0.3,1.5-0.6,2.3-0.8c0.1,0,0.2,0,0.3-0.1
	l1.1-0.3c0,0,0.1,0,0.1,0l0.9-0.1C43.2,19,43.7,19,44.2,19z"/>
<path class="st3" d="M12.4,26.1h-0.7c0.3-1.1,0.8-2.1,1.5-3c0.3-0.4,0.6-0.7,0.9-1c0.8-0.8,1.8-1.4,2.8-1.8c0.9-0.4,1.9-0.7,2.9-0.9
	h0.3c0.2,0,0.4-0.1,0.5-0.2c0.8-0.6,1.6-1.2,2.5-1.6c0.1,0,0.1-0.1,0.1-0.2c0.1-0.4,0.5-0.7,0.9-0.5c0,0,0.1,0,0.1,0
	c0.1,0,0.2,0,0.2,0c0.5-0.2,1-0.4,1.6-0.6l-0.3,0.8c-0.3,0.1-0.7,0.3-1,0.4c-0.1,0-0.1,0.1-0.1,0.2c-0.1,0.4-0.4,0.7-0.9,0.7
	c-0.1,0-0.2,0-0.3-0.1c0,0-0.1,0-0.1,0c-0.5,0.3-1,0.6-1.5,1c-0.4,0.3-0.9,0.7-1.3,1l-0.1,0c-0.9,0.8-1.7,1.7-2.4,2.7
	c-0.4,0.6-0.8,1.2-1.2,1.8l0,0l0,0c-0.2,0.2-0.3,0.5-0.4,0.7c-0.1,0-0.2-0.1-0.2-0.1c-0.2-0.1-0.5-0.2-0.7-0.2
	c0.7-1.3,1.5-2.6,2.5-3.7c0.3-0.4,0.7-0.7,1-1.1l0,0l0,0l0,0c-0.2,0-0.4,0-0.6,0.1c-1.7,0.4-3.2,1.2-4.4,2.5
	C13.2,24,12.7,25,12.4,26.1z"/>
<path class="st6" d="M48.7,24.2l0.5,0.5l0.4,0.4c0.8,0.9,1.4,1.9,2,3l0.2,0.3l0.6,1.1c0.2,0.5,0.3,0.9,0.5,1.4
	c0.3,0.8,0.4,1.6,0.6,2.5l0.1,0.5c0,0.1,0,0.1,0,0.2c0,0.4,0.1,0.8,0,1.2l-0.7-1.1c0-0.2,0-0.4-0.1-0.6l-0.1-0.4c0,0,0-0.1,0-0.2
	c-0.1-0.6-0.2-1.1-0.4-1.7c-0.2-0.7-0.5-1.4-0.8-2c-0.3-0.6-0.6-1.1-0.9-1.7c-0.4-0.6-0.9-1.2-1.4-1.7c-0.3-0.4-0.7-0.8-1.1-1.1
	c-0.4-0.4-0.8-0.7-1.3-1c-0.2-0.2-0.5-0.4-0.8-0.5c-0.7-0.5-1.4-0.9-2.2-1.2c-0.1-0.1-0.2-0.1-0.3-0.1l0,0c0.2-0.3,0.2-0.7,0.2-1
	c0,0,0-0.1,0-0.1h0.1c0.9,0.4,1.8,0.9,2.6,1.5c0.2,0.2,0.5,0.4,0.7,0.5l0,0v0c0.4,0.3,0.9,0.7,1.3,1.1c0,0,0.1,0,0.1,0
	C48.5,24,48.6,24.1,48.7,24.2z"/>
<path class="st4" d="M52.9,47.9c-0.3-0.6-0.6-1.2-1-1.7l-0.2-0.3l-1.1-1.2l-0.1-0.1c-0.1-0.1-0.1-0.1-0.2-0.2l-1.2-1.1
	c-0.1,0-0.1-0.1-0.1-0.1c-0.3-0.2-0.5-0.4-0.7-0.6l-1.3-1h-0.1c-0.1,0.3-0.4,0.7-0.6,0.9c0,0-0.1,0.1-0.2,0.1l1,0.8l1.5,1.2l0,0h0h0
	c0,0,0,0,0.1,0l1.1,0.9c0.1,0,0.1,0.1,0.1,0.2c0.2,0.2,0.4,0.4,0.5,0.5c0.1,0,0.1,0.1,0.2,0.2c0.3,0.3,0.6,0.7,0.9,1.1
	c0.3,0.4,0.5,0.8,0.5,1.3c0,0.2-0.1,0.4-0.3,0.5c-0.2,0.2-0.4,0.3-0.7,0.3L51,50.2c0.5,0,1-0.2,1.5-0.4c0.3-0.2,0.5-0.5,0.6-0.8
	C53.1,48.6,53.1,48.2,52.9,47.9z"/>
<path class="st2" d="M51.2,49.7L51,50.2c-0.2,0.6-0.4,1.1-0.7,1.6c-1.2,2.1-3.2,3.6-5.6,4.2c-0.8,0.2-1.6,0.3-2.4,0.4
	c-0.2,0-0.5,0-0.7,0.1c-0.3,0-0.5,0-0.8,0c-1.1,0-2.1-0.1-3.2-0.3l-1.3-0.3c-0.1,0-0.1-0.1-0.2-0.1c-0.2-0.1-0.4-0.1-0.7-0.2
	c-0.1-0.1-0.2-0.1-0.4-0.1L33.5,55c0.1,0,0.2-0.2,0.3-0.1C34,55,34.3,55,34.6,55c0.4,0.1,0.8,0.3,1.3,0.3c0.2,0.1,0.4,0.1,0.6,0.1
	l0,0c1.2,0.3,2.4,0.4,3.6,0.5c0.8,0,1.5,0,2.3-0.1l0,0l0,0c0.2,0,0.4,0,0.6-0.1l0,0l0,0c0.1,0,0.1,0,0.2,0c1.1-0.2,2.1-0.5,3.1-1
	c1.8-0.9,3.2-2.5,3.9-4.5c0.1-0.1,0.1-0.3,0.1-0.4v-0.1c0.1-0.5,0.2-1.1,0.3-1.6c0.1,0,0.3,0,0.4,0c0.1,0,0.3,0,0.4-0.1
	C51.3,48.6,51.3,49.1,51.2,49.7z"/>
<path class="st5" d="M18.8,57.8c-0.5,0.1-1,0.1-1.5,0c-0.8-0.1-1.6-0.3-2.2-0.7c-0.9-0.6-1.5-1.4-1.9-2.5c-0.2-0.7-0.4-1.4-0.4-2.1
	c0-0.1,0-0.2,0-0.2v-0.8l0.1-1l0.1-0.8c0.1-0.2,0.1-0.5,0.1-0.7l0.3-1.2l0,0l0,0c0.3,0.2,0.6,0.4,0.9,0.5l-0.1,0.4
	c-0.1,0.4-0.2,0.9-0.3,1.3c-0.1,0.2-0.1,0.4-0.1,0.6c-0.1,0.2-0.1,0.5-0.1,0.8c0,0.2-0.1,0.3,0,0.5c0,0.3,0,0.6,0,0.8
	c0,0.5,0.1,1,0.2,1.5c0.4,1.8,2.1,3.1,4,3L18.8,57.8z"/>
<path class="st3" d="M13.2,27.4l0.5,0.1c-0.4,0.3-0.8,0.5-1.1,0.9c-0.2,0.2-0.4,0.3-0.6,0.5c-0.2,0.2-0.4,0.4-0.6,0.6
	c-0.1,0.1-0.2,0.2-0.3,0.3c-0.1,0.1-0.2,0.2-0.3,0.4c-0.1,0.1-0.2,0.3-0.4,0.4c-1.4,1.8-2,4.1-1.6,6.3c0.1,0.6,0.3,1.2,0.5,1.8
	l-0.1,1.7C9.1,40.2,9.1,40.1,9,40c0-0.2-0.1-0.3-0.2-0.5c-0.1-0.3-0.2-0.6-0.3-0.9c-1-3-0.3-6.4,1.8-8.7l0.1-0.1l0.3-0.4l0.6-0.6
	l0.6-0.5L13.2,27.4z"/>
<path class="st3" d="M28.9,15.8l0.8-0.1c0.7,0,1.5,0,2.2,0c1.5,0.1,3,0.5,4.4,1c0.5,0.2,1,0.4,1.5,0.6l0.4,0.2
	c0.3,0.2,0.5,0.3,0.8,0.5l-1,0.1c-0.1-0.1-0.2-0.1-0.3-0.2c-0.1-0.1-0.2-0.2-0.4-0.2c0,0-0.1-0.1-0.2-0.1c-0.5-0.2-1-0.4-1.6-0.6
	c-1.7-0.6-3.6-0.9-5.4-0.8c-0.2,0-0.4,0-0.6,0h-0.1c-0.7,0.1-1.4,0.2-2.1,0.4c0.1-0.3,0.2-0.5,0.4-0.7L28.9,15.8z"/>
<path class="st7" d="M18.8,57.8l-1-0.5l-0.1-0.1c-0.8-0.5-1.6-1.2-2.2-2c-0.5-0.7-0.9-1.4-1.2-2.2c0.2,0,0.4,0.1,0.6,0.1
	c0.6,1.3,1.6,2.5,2.8,3.3c0.5,0.4,1,0.6,1.6,0.8c0.3,0.1,0.6,0.2,0.9,0.3c0.5,0.2,1.1,0.2,1.6,0.3c0.1,0,0.2,0,0.4,0
	c0.2,0,0.4,0,0.6,0l1,0.6h-0.7h-0.9h-0.4C20.8,58.4,19.8,58.2,18.8,57.8L18.8,57.8z"/>
<path class="st3" d="M41.6,56.5c0.2,0,0.5-0.1,0.7-0.1c-0.8,0.7-1.6,1.3-2.5,1.8c-1.4,0.8-2.8,1.5-4.4,1.8h-0.1l-0.6,0.1
	c-0.5,0.1-1,0.2-1.5,0.2c-0.2-0.2-0.4-0.4-0.5-0.6c0.5,0,0.9-0.1,1.4-0.2c0.4,0,0.8-0.1,1.1-0.2c0.2,0,0.3,0,0.5-0.1h0.1
	C37.9,58.8,39.8,57.8,41.6,56.5z"/>
<path class="st3" d="M53.7,37.4c0.2-0.2,0.3-0.3,0.5-0.4c0.7,2.1,0.6,4.4-0.4,6.4c-0.3,0.7-0.7,1.3-1.1,1.9c0-0.1,0-0.1-0.1-0.2
	l-0.3-0.4l0.1-0.1C53.9,42.5,54.4,39.8,53.7,37.4z"/>
<path class="st8" d="M12.8,51.5v0.8c-1.2-0.5-2.1-1.5-2.6-2.7c-0.2-0.7-0.3-1.5-0.2-2.3c0-0.4,0.2-0.7,0.2-1.1l0.3-0.9l0.5-1.1
	l0.4,0.1l-0.2,0.4c-0.2,0.4-0.3,0.9-0.4,1.4c-0.1,0.4-0.2,0.7-0.2,1.1c-0.1,0.6-0.1,1.3,0.1,1.9C10.9,50.1,11.7,51.1,12.8,51.5z"/>
<path class="st9" d="M38.1,17.5l-0.4-0.2c0.5-0.6,1.2-1,1.9-1.3c0.6-0.3,1.4,0,1.7,0.7c0.2,0.5,0.4,1,0.5,1.5l0.1,0.7v0.4
	c0,0-0.1,0-0.1,0c0-0.2-0.2-0.2-0.4-0.3c-0.2,0-0.5,0-0.7,0c0-0.1,0-0.2,0-0.3c0-0.2,0-0.4-0.1-0.6c0-0.3-0.1-0.6-0.3-0.9
	c-0.1-0.3-0.5-0.4-0.8-0.3c-0.1,0-0.3,0.1-0.4,0.1C38.7,17.1,38.4,17.3,38.1,17.5z"/>
<path class="st9" d="M21.8,58.5h0.4c0.1,0.4,0.2,0.8,0.5,1.1c0.2,0.2,0.5,0.3,0.8,0.3c0.1,0,0.3-0.1,0.4-0.2
	c0.3-0.2,0.6-0.4,0.9-0.7l1.1,0.5c-0.5,0.5-1.1,1-1.8,1.3c-0.6,0.3-1.4,0.1-1.8-0.6c0,0,0,0,0,0C22,59.6,21.9,59,21.8,58.5z"/>
<path class="st8" d="M52.3,29.5l-0.5-1.1l-0.2-0.3c0,0,0,0,0-0.1c0-0.8-0.2-1.5-0.6-2.2c-0.5-0.6-1.1-1.1-1.7-1.4v-0.6
	c1,0.3,1.8,1,2.4,1.8c0.4,0.7,0.7,1.4,0.7,2.2C52.4,28.4,52.4,28.9,52.3,29.5C52.3,29.4,52.3,29.4,52.3,29.5z"/>
<path class="st6" d="M10.6,45.3l-0.3,0.9c-0.3-0.8-0.6-1.6-0.7-2.5l0.7,0.2C10.3,44.4,10.4,44.9,10.6,45.3z"/>
<path class="st7" d="M41.8,18.8l-0.1-0.7c0.8,0.1,1.5,0.4,2.3,0.7l0.2,0.1c-0.5,0-1,0-1.5,0.1C42.4,18.9,42.1,18.9,41.8,18.8z"/>
<path class="st10" d="M52.3,44.6l0.3,0.4c0,0.1,0.1,0.1,0.1,0.2c-0.2,0.3-0.5,0.6-0.8,0.9l-0.2-0.3c0-0.2,0-0.4,0-0.6
	C51.9,45.1,52.1,44.9,52.3,44.6z"/>
<path class="st3" d="M29.5,51.7c-0.1-0.4-0.2-0.7-0.3-1.1l1.1,0.1h0.2l1.3,0.1h0.2h0.7l2.1,0.2c0,0.3,0,0.7,0.1,1h-0.2
	c-1.2,0-2.4,0-3.5-0.2l-1.5-0.1C29.7,51.7,29.6,51.7,29.5,51.7z"/>
<path class="st7" d="M29.9,57c-0.8,0.4-1.6,0.6-2.4,0.9c-0.1,0-0.2,0.1-0.3,0.1h-0.1l-1,0.3c-0.2,0-0.4,0.1-0.6,0.2
	c-0.4-0.2-0.8-0.4-1.1-0.6c0.6-0.1,1.3-0.2,1.9-0.4l0,0l0,0h0.1c0.5-0.1,0.9-0.3,1.3-0.4c0.3-0.1,0.5-0.2,0.7-0.5
	c0.3,0,0.6,0,0.9-0.2c0.1,0,0.2-0.1,0.2-0.1c0.1,0.2,0.2,0.4,0.3,0.6C29.9,56.8,29.9,56.9,29.9,57z"/>
<path class="st9" d="M26.9,56.4c0.5-0.7,1-1.5,1.4-2.2l0.3-0.6l0.5,1.4c0,0.1,0,0.2,0.1,0.3l-0.8,1.2c-0.1,0.3-0.4,0.4-0.7,0.5
	c-0.4,0.1-0.9,0.3-1.3,0.4h-0.1c0-0.1,0-0.1,0.1-0.1l0.4-0.5L26.9,56.4z"/>
<path class="st11" d="M27.1,21.2l-0.8,0.2c0-0.4,0.1-0.8,0.1-1.2v-0.3c0.1,0,0.2,0,0.3-0.1l1.4-0.4h0.2l0.1,0.2
	c0.2,0.3,0.3,0.6,0.4,1l-0.3,0.1C28.1,20.9,27.6,21,27.1,21.2z"/>
<path class="st6" d="M35.5,55.7c-0.7,0.2-1.4,0.4-2.2,0.5c-0.7,0.2-1.5,0.3-2.2,0.3c-0.1-0.3-0.3-0.7-0.4-1l0.5-0.3l1.1-0.6
	c0.1,0.3,0.2,0.6,0.2,0.9c-0.3,0.2-0.7,0.4-1.1,0.7c1.2-0.1,2.5-0.4,3.7-0.7C35.2,55.5,35.4,55.6,35.5,55.7z"/>
<path class="st12" d="M26.3,28.8l1.1-1l0.1-0.1c0.3,0.2,0.6,0.4,0.8,0.8l-0.6,0.6l0,0l0,0c-0.2,0.2-0.5,0.4-0.7,0.7l0,0c0,0,0,0,0,0
	l0,0l0,0c-0.1,0.1-0.1,0.1-0.2,0.2l-0.3,0.2c-0.1-0.1,0-0.2,0-0.3C26.3,29.7,26.3,29.3,26.3,28.8z"/>
<path class="st5" d="M28.7,53.4c-0.6,0.4-1.3,0.9-2,1.3c0,0-0.1,0.1,0,0.1c0,0.2-0.1,0.4-0.2,0.5c-0.2,0.1-0.4,0.1-0.5,0
	c0,0-0.1-0.1-0.1,0l-1.6,0.8c-0.2,0.1-0.4,0.2-0.5,0.3c-0.3,0.1-0.6,0.3-0.9,0.4l-0.3-0.2c0.2-0.1,0.5-0.2,0.7-0.3
	c0.2-0.1,0.4-0.1,0.6-0.2c0.3-0.1,0.5-0.2,0.8-0.3c0.4-0.2,0.8-0.4,1.1-0.6c0.1,0,0.1-0.1,0.1-0.2c0-0.2,0.1-0.4,0.2-0.5
	c0.2-0.1,0.4-0.1,0.5,0c0,0,0.1,0,0.2,0c0.7-0.4,1.3-0.8,2-1.3C28.6,53.3,28.7,53.3,28.7,53.4z"/>
<path class="st11" d="M25,21.9c-0.3,0.1-0.7,0.3-1,0.4l-0.2,0.1c0,0,0-0.1,0-0.1c-0.2-0.4-0.3-0.8-0.3-1.2l1-0.4l0.6-0.2l-0.1,1.4
	C25.1,21.7,25,21.8,25,21.9z"/>
<path class="st12" d="M30.3,53.6l-0.1,0.2c-0.2-0.5-0.3-0.9-0.4-1.4c0-0.1-0.1-0.2-0.1-0.3l0.2-0.3l1.5,0.1l-0.8,1.4
	c0,0,0,0.1,0,0.1S30.3,53.5,30.3,53.6z"/>
<path class="st7" d="M28.9,49.1l1.1-0.5c0.1,0.1,0.2,0.2,0.2,0.4c0.1,0.3,0.2,0.6,0.1,0.9c-0.4,0.2-0.8,0.3-1.1,0.5l-0.3-1.2
	C28.9,49.2,28.9,49.1,28.9,49.1z"/>
<path class="st3" d="M26.3,23.8h0.1h0.5h1.8c0.1,0,0.1,0,0.1-0.1c0.1-0.2,0.4-0.3,0.6-0.2c0.1,0,0.2,0.1,0.2,0.2
	c0,0.1,0.1,0.1,0.2,0.1c0.7,0,1.4,0.1,2.1,0.2c-0.1,0.1-0.2,0.1-0.3,0.2c-0.5-0.1-1-0.1-1.5-0.1h-0.2c-0.1,0-0.3,0-0.3,0.1
	c-0.1,0.2-0.4,0.3-0.6,0.1c-0.1,0-0.1-0.1-0.2-0.2c0-0.1-0.1-0.1-0.2-0.1c-0.7,0-1.3,0-2,0h-0.1C26.3,24.1,26.2,24,26.3,23.8z"/>
<path class="st13" d="M28.7,44.1l-0.8,0.1c-0.1-0.5-0.2-0.9-0.3-1.4l1-0.1c0.1,0.2,0.1,0.4,0.1,0.6C28.9,43.6,28.8,43.9,28.7,44.1z"
	/>
<path class="st3" d="M19.4,24.8l1.2-0.3c1.4-0.3,2.8-0.5,4.3-0.6v0.2c-1.7,0.1-3.4,0.4-5,0.8l-1,0.3C19.1,25,19.2,24.9,19.4,24.8z"
	/>
<path class="st13" d="M26.5,44.4l-0.9,0.1c-0.2-0.3-0.3-0.7-0.2-1V43l0.9,0c0.1,0.3,0.1,0.7,0.2,1C26.5,44.1,26.5,44.3,26.5,44.4z"
	/>
<path class="st13" d="M25.2,20.4l-0.6,0.2l-0.6-0.1c0.1-0.4,0.2-0.7,0.4-1.1c0.3,0,0.7,0.1,1,0.1L25.2,20.4z"/>
<path class="st14" d="M22.4,34.7l1.2-0.2c0.1,0,0.1-0.1,0.1-0.1c0-0.2,0.2-0.4,0.4-0.4c0.2,0,0.4,0,0.5,0.2c0,0.1,0.1,0.1,0.2,0
	c0.1,0,0.2,0,0.3,0v0.2H25c-0.1,0-0.3,0.1-0.3,0.2c-0.1,0.3-0.4,0.4-0.6,0.3c-0.1,0-0.2-0.1-0.2-0.2c-0.1-0.1-0.2-0.1-0.3-0.1
	c-0.4,0.1-0.8,0.2-1.1,0.3h-0.2L22.4,34.7z"/>
<path class="st12" d="M25,31.8L24.7,32c-0.2-0.1-0.3-0.2-0.4-0.3c-0.1-0.2-0.2-0.3-0.4-0.5l0.4-0.5l0.5-0.6c0.1,0.3,0,0.6,0.1,0.9
	S25,31.5,25,31.8z"/>
<path class="st8" d="M24.9,30.2l-0.5,0.6l-0.5-0.2c0-0.4,0.2-0.7,0.4-1c0.1-0.1,0.1-0.2,0.2-0.3l0.4,0.1c0.1,0,0.1,0,0.1-0.1
	s0-0.2,0-0.3c0,0,0,0.1,0,0.1C24.9,29.5,24.9,29.9,24.9,30.2z"/>
<path class="st7" d="M26.9,49.9l0.7-0.3c0.1,0.4,0.2,0.8,0.3,1.3c-0.1,0.1-0.3,0.1-0.4,0.1c0-0.2-0.2-0.2-0.3-0.3
	C27.1,50.4,27,50.2,26.9,49.9z"/>
<path class="st7" d="M26.3,30.4l0.3-0.2l0.3,0.1c0,0.2,0,0.4,0,0.5c-0.1,0.3-0.2,0.6-0.5,0.8l0,0C26.3,31.2,26.3,30.8,26.3,30.4z"/>
<path class="st2" d="M26.7,51.3c0.5,0.4,1.1,0.7,1.6,1l0.1,0.4c-0.7-0.4-1.3-0.8-2-1.2h0C26.6,51.4,26.6,51.3,26.7,51.3z"/>
<path class="st3" d="M28.1,51.4L27,51.2c0.1-0.1,0.3-0.1,0.5-0.2c0.2,0,0.3-0.1,0.4-0.1C28,51.1,28.1,51.2,28.1,51.4z"/>
<path class="st15" d="M28.9,15.8L27.6,16c0.1-0.1,0.2-0.2,0.3-0.3C28.2,15.4,28.6,15.5,28.9,15.8z"/>
<path class="st13" d="M26.9,19.9c-0.1,0.1-0.2,0.1-0.3,0.1v-0.2L26.9,19.9z"/>
<path class="st8" d="M24.9,29L24.9,29L24.9,29z"/>
<path class="st7" d="M32.3,54.7L32.3,54.7c0.2-0.1,0.3-0.2,0.4-0.3l0.2-0.1c0.1,0,0.1-0.1,0.1-0.2c0,0,0,0,0,0c0-0.2,0-0.4,0-0.5
	c0.2-0.7,0.8-1.1,1.5-0.9c0.1,0,0.2,0.1,0.3,0.1c0,0,0.1,0.1,0.2,0c0.3-0.2,0.6-0.5,0.8-0.7c0.5-0.3,0.9-0.7,1.3-1
	c0.6-0.5,1.1-1.1,1.7-1.6s0.9-0.9,1.3-1.4c0.1,0,0.1-0.1,0.1-0.2c0.1,0,0.1-0.1,0.2-0.2c1-1.2,1.9-2.5,2.8-3.9
	c0.4-0.7,0.8-1.3,1.2-2c0.1-0.1,0.1-0.2-0.1-0.2c-0.1-0.1-0.2-0.1-0.3-0.2l2-0.6c0,0.1-0.1,0.2-0.1,0.3c-0.2,0.4-0.4,0.8-0.7,1.2
	c-0.4,0.7-0.8,1.4-1.3,2.1c-0.9,1.3-1.8,2.6-2.8,3.8c-0.1,0.1-0.1,0.1-0.2,0.2c-0.4,0.4-0.7,0.8-1.1,1.2s-0.9,0.9-1.3,1.3l-1.2,1.1
	l-0.8,0.7c0,0-0.1,0.1-0.1,0.2c0,0.3,0,0.7-0.1,1s-0.1,0.9-0.1,1.4c-0.1,0.1-0.1,0.1-0.2,0.1c0.1-0.8,0.2-1.5,0.2-2.3l-0.8,0.6
	c-0.1,0-0.1,0.1-0.1,0.2c0,0.4-0.1,0.7-0.4,1c-0.4,0.4-1,0.5-1.4,0.3c-0.1,0-0.2,0.1-0.3,0.1l-0.2,0.1c-0.3,0.2-0.5,0.3-0.8,0.5
	C32.5,55.3,32.4,55,32.3,54.7z"/>
<path class="st8" d="M31,48.1l0.8-0.4c0.1,0,0.1-0.1,0.2-0.1c0.2,0,0.3-0.1,0.4-0.2c0.5-0.3,1.1-0.6,1.6-0.9s0.8-0.4,1.1-0.7
	c0.1,0,0.1-0.1,0.2-0.1l0.3-0.2c0.1,0,0.1-0.1,0.1-0.2c0-0.2,0-0.4,0-0.5c0.1-0.4,0.3-0.9,0.6-1.2l0.2-0.1c0.6-0.4,1.4-0.4,2.1,0
	c0,0,0.1,0,0.2,0l1.3-0.9l0,0l0,0l0,0l0,0l0,0c0.2-0.1,0.4-0.3,0.6-0.5l0,0l0,0l0.8-0.2c0,0.1,0,0.1,0.1,0.2
	c0.2,0.2,0.4,0.4,0.6,0.5L42,42.8c-0.9,0.7-1.7,1.3-2.7,1.9c-0.1,0.1-0.2,0.2-0.1,0.3c0,0.2,0,0.4,0,0.6c-0.1,0.6-0.5,1-1,1.3
	c-0.1,0-0.2,0.1-0.3,0.1c-0.4,0.1-0.9,0-1.3-0.2c0,0-0.1,0-0.1-0.1s-0.2-0.1-0.3,0l0,0l0,0c0,0-0.1,0-0.1,0l0,0c0,0-0.1,0-0.1,0
	c-0.7,0.4-1.5,0.8-2.2,1.3c-0.3,0.1-0.6,0.3-0.9,0.5c-0.1,0-0.1,0-0.2,0c-0.5,0.2-0.9,0.5-1.4,0.7c0-0.2-0.1-0.5-0.2-0.7
	C31.2,48.5,31.1,48.3,31,48.1z"/>
<path class="st4" d="M51.4,29.2c0.3,0.6,0.6,1.3,0.8,2c0.2,0.6,0.3,1.1,0.4,1.7c0,0,0,0.1,0,0.2c-0.3-0.1-0.5-0.2-0.8-0.2l-0.5-0.5
	L51,33c-0.3,0.7-0.7,1.3-1.1,1.9l-0.6,0.9c-0.1,0-0.1,0.1-0.1,0.2c-0.2,0.2-0.3,0.4-0.5,0.6c-0.2,0.2-0.3,0.3-0.4,0.5
	c-0.2,0.2-0.4,0.4-0.5,0.6c-0.1,0.1-0.3,0.3-0.4,0.4l0,0l0,0c-0.4,0.3-0.8,0.8-1.1,1.1c-0.2,0.1-0.3,0.1-0.5,0.2
	c-0.1-0.2-0.3-0.5-0.4-0.6c-0.1-0.1-0.1-0.1-0.2-0.2l0.9-0.9c0.3-0.3,0.6-0.6,0.9-1c0.1,0,0.1-0.1,0.2-0.2l0.3-0.3
	c0.2-0.2,0.4-0.5,0.6-0.8c0.2-0.2,0.5-0.5,0.6-0.8c0.1-0.1,0.2-0.3,0.3-0.4c0,0,0.1-0.1,0.1-0.1c0.3-0.4,0.5-0.8,0.8-1.2
	c0.1-0.1,0.1-0.1,0.1-0.2c0.1-0.2,0.2-0.4,0.3-0.6c0.1-0.1,0.2-0.3,0.3-0.5C50.9,30.8,51.2,30,51.4,29.2z"/>
<path class="st6" d="M51.9,42.8l0.2-0.3v-0.1c0.2-0.5,0.4-1,0.5-1.5s0.3-1.2,0.5-1.7l0.1-0.5v-0.2c0-0.1,0-0.3,0-0.3
	c0-0.2,0-0.4,0.1-0.6L52.5,38c0,0.6-0.1,1.2-0.2,1.8c-0.2,0.8-0.5,1.7-0.9,2.5c0,0.1,0,0.1-0.1,0.1c0.1,0.4,0.2,0.8,0.2,1.2
	C51.6,43.4,51.8,43.1,51.9,42.8z"/>
<path class="st3" d="M52.8,35.4c-0.3-0.6-0.7-1.2-1.1-1.7c-0.1-0.2-0.3-0.4-0.4-0.5C51.3,33.1,51.1,33,51,33l0.3-0.6l0.5,0.5
	c0.1,0.1,0.2,0.3,0.3,0.4l0,0l0,0l0.6,0.8l0.7,1.1l0.3,0.7c-0.1,0.2-0.3,0.3-0.5,0.4C53.2,36,53,35.7,52.8,35.4z"/>
<path class="st13" d="M49.4,37.8l0.1,0.2c-0.2,0.1-0.5,0.2-0.7,0.3c-0.2,0.1-0.3,0.1-0.5,0.2c-0.2-0.3-0.3-0.6-0.5-0.9
	c0.1-0.2,0.3-0.4,0.5-0.6c0.1-0.2,0.3-0.3,0.4-0.5l0.6,1.1C49.3,37.7,49.4,37.8,49.4,37.8z"/>
<path class="st12" d="M35.5,43.2c-0.2,0.5-0.4,1-0.7,1.6c-0.2,0-0.5-0.1-0.7-0.2c-0.2-0.1-0.4-0.2-0.5-0.3l0.3-0.8l0.9-0.2
	C35,43.2,35.2,43.2,35.5,43.2z"/>
<path class="st12" d="M36.3,41.2l-0.2,0.4l-0.6,0.1l-1,0.2l0.5-1.3c0.3,0,0.6,0.1,0.8,0.2C36,41,36.1,41.1,36.3,41.2z"/>
<path class="st1" d="M45.1,38.5c0,0.1,0.1,0.2,0.2,0.2c0.2,0.2,0.3,0.4,0.5,0.7c-0.7,0.2-1.5,0.4-2.3,0.6h-0.1
	c0-0.1,0.1-0.1,0.1-0.1c0.2-0.1,0.3-0.3,0.4-0.4c0.1,0,0.1-0.1,0.2-0.1L45.1,38.5z"/>
<path class="st1" d="M43.9,41.3c-0.5,0.5-1,0.9-1.6,1.3c-0.2-0.2-0.4-0.3-0.6-0.5c0,0-0.1-0.1-0.1-0.2l1.5-0.4L43.9,41.3z"/>
<path class="st7" d="M43.9,39.5c-0.1,0.1-0.3,0.3-0.4,0.4c-0.1,0-0.1,0.1-0.1,0.1c-0.3,0.1-0.5,0.2-0.8,0.2l0,0
	c0.1-0.3,0.2-0.5,0.3-0.7c0.1-0.2,0.3-0.3,0.4-0.4C43.5,39.2,43.7,39.3,43.9,39.5z"/>
<path class="st13" d="M51.6,44.8v0.5c0,0.2,0,0.4,0,0.6l-1.1-1.2C50.9,44.7,51.3,44.7,51.6,44.8z"/>
<path class="st3" d="M49.4,41c0,0,0,0.1,0,0.1c-0.1,0.8-0.2,1.5-0.3,2.3c-0.1,0-0.1-0.1-0.1-0.1c0.2-0.9,0.2-1.7,0.3-2.6L49.4,41z"
	/>
<path class="st6" d="M47.4,38.1c0,0.1-0.1,0.3-0.1,0.4c-0.1,0.2-0.1,0.3-0.2,0.5c-0.3,0.1-0.5,0.2-0.8,0.2
	C46.6,38.8,47,38.4,47.4,38.1z"/>
<path class="st6" d="M52.8,35.4c0.2,0.3,0.3,0.6,0.4,0.9c-0.1,0.1-0.3,0.2-0.5,0.3L52.8,35.4z"/>
<path class="st0" d="M36.5,43c0.1,0.2,0,0.4,0.1,0.6l-0.2,0.1c0-0.2,0-0.5,0-0.7L36.5,43z"/>
<path class="st14" d="M41.8,40.4c0.1-0.2,0.2-0.3,0.3-0.5c0,0,0.1,0,0.1,0.1c-0.1,0.1-0.2,0.2-0.2,0.3C42,40.4,41.9,40.4,41.8,40.4z
	"/>
<path class="st14" d="M40.1,42.6c0-0.2,0.2-0.2,0.2-0.4l0,0l0,0c0.1,0,0.2-0.1,0.4-0.1C40.5,42.3,40.3,42.4,40.1,42.6z"/>
<path class="st15" d="M42.1,40.3c0-0.1,0.1-0.2,0.2-0.3l0.3,0.2l0,0C42.4,40.2,42.2,40.3,42.1,40.3z"/>
<path class="st6" d="M50.3,44.4l0.1-0.2l0.1,0.4C50.4,44.6,50.3,44.5,50.3,44.4z"/>
<path class="st14" d="M40.8,42.1L40.8,42.1C40.8,42.1,40.8,42.1,40.8,42.1z"/>
<path class="st15" d="M40.4,42.2L40.4,42.2C40.4,42.2,40.4,42.2,40.4,42.2z"/>
<path class="st5" d="M22.4,34.7l-0.2,0.3c-0.5,0.5-0.9,1-1.3,1.6c-0.3,0.4-0.6,0.7-0.8,1.1c-0.1,0-0.1,0.1-0.1,0.2l-0.1,0.1
	c-0.1,0.1,0,0.1,0,0.2c0.6,0.8,0.5,2-0.3,2.6c-0.3,0.2-0.6,0.3-0.9,0.4c-0.2,0-0.5,0-0.7,0c-0.1,0-0.1,0-0.2,0
	c-0.3,0.4-0.5,0.9-0.8,1.3c-0.1,0.1-0.1,0.2-0.2,0.3c-0.1,0.2-0.3,0.4-0.4,0.6c-0.4,0-0.8,0-1.2,0l0.8-1.4c0-0.1,0.1-0.1,0.1-0.2
	c0.1-0.1,0.1-0.2,0.2-0.3c0,0,0,0,0.1-0.1c0.1-0.3,0.3-0.5,0.4-0.7c0.1-0.1,0.1-0.2,0-0.3c-0.5-0.9-0.3-2,0.6-2.6
	c0.4-0.2,0.8-0.3,1.2-0.3c0.2,0,0.3,0,0.4-0.2v-0.1l0.1-0.2l0.8-1.1c0.1-0.1,0.2-0.3,0.3-0.4l0,0l0,0c0.1-0.1,0.2-0.2,0.2-0.3
	l0.2-0.2l1-1.2l0.9-1l0,0c0,0,0,0,0,0l0,0l0,0c0.2-0.2,0.5-0.5,0.7-0.8l0,0h0c0.1,0.2,0.3,0.4,0.4,0.5c0.1,0.1,0.2,0.3,0.4,0.3
	l-1.5,1.8L22.4,34.7z"/>
<path class="st6" d="M9.2,40.3l0.1-1.7l0.1-0.7c0.2-1.7,0.7-3.4,1.3-4.9c0.2-0.6,0.5-1.1,0.8-1.6l0.5-0.8l0.1-0.2
	c0.4-0.6,0.8-1.1,1.2-1.7c0,0,0.1,0,0.1,0.1c0.1,0.2,0.2,0.3,0.3,0.5c0,0.1,0.1,0.1,0.2,0.1l-0.3,0.9l-0.1,0.2
	c-0.4,0.5-0.8,1.1-1.1,1.7c-0.1,0.1-0.1,0.2-0.2,0.3c-0.2,0.2-0.3,0.5-0.4,0.7c-0.2,0.4-0.4,0.7-0.6,1.1c-0.7,1.5-1.1,3-1.3,4.6
	l-0.1,0.5c0,0.2,0,0.5-0.1,0.7c0,0.1,0,0.2,0,0.4c0,0.4,0,0.8,0,1.2c0,0.3,0.1,0.7,0.1,1c-0.2-0.1-0.4-0.1-0.7-0.2
	C9.3,41.7,9.2,41,9.2,40.3z"/>
<path class="st3" d="M17,46.6c0.3,0.1,0.5,0.2,0.7,0.4c1.6,0.8,3.3,1.5,5,2.1c0.1,0,0.1,0,0.2,0c0,0,0.1,0.1,0.2,0.1
	c0.1,0,0.2,0.1,0.3,0.1c0.2,0.1,0.3,0.1,0.5,0.1l0,0l0,0c0.5,0.2,1,0.3,1.6,0.4l0.9,0.2l-0.5,0.2h-0.1l-1.2,0.4l-1.7-0.5
	c-0.1,0-0.1,0-0.1,0.1l-0.2,1h-0.2c0.1-0.4,0.1-0.7,0.2-1.1c0-0.1,0-0.1-0.1-0.2c-0.5-0.1-0.9-0.3-1.3-0.5c-0.9-0.3-1.8-0.7-2.7-1.1
	c-0.7-0.3-1.4-0.7-2.1-1.1c0-0.1,0-0.1,0.1-0.1C16.7,47,16.9,46.8,17,46.6z"/>
<path class="st3" d="M9.9,41.6c0-0.4,0-0.8,0-1.2c0-0.1,0-0.2,0-0.4c0.6,1,1.3,1.9,2.1,2.7l0.2,0.2l0.1,0.1c-0.5,0-1-0.1-1.5-0.2
	L9.9,41.6z"/>
<path class="st10" d="M13.6,45.5c-0.4-0.3-0.8-0.7-1.2-1l-0.1-0.2l1,0.1l1.3,0.1c0.1,0,0.2,0,0.3,0l0.2,0.6l-0.4,0.1
	c-0.2,0-0.3,0.1-0.5,0c-0.1,0-0.1,0-0.1,0.1s0.1,0.2,0,0.3l-0.2-0.1C13.7,45.6,13.6,45.6,13.6,45.5z"/>
<path class="st10" d="M14.3,42.6l0.1,0.6c-0.3,0-0.7,0-1,0h-0.2l-0.2-1c0,0,0.1,0,0.1,0c0.3-0.2,0.6-0.3,0.9-0.3v0.2L14.3,42.6z"/>
<path class="st12" d="M15,45.3l-0.2-0.6c0.3,0,0.7,0,1,0.1l-0.3,0.8c0,0-0.1,0.1,0,0.2c-0.1,0.1-0.1,0.2-0.2,0.4L15,45.3z"/>
<path class="st5" d="M23,48.6c0.1-0.5,0.3-1,0.4-1.6l0.2,0.1l-0.4,1.6C23.1,48.7,23,48.7,23,48.6z"/>
<path class="st14" d="M23.6,47.1l-0.2-0.1c0-0.3,0.2-0.7,0.3-1c0-0.1,0-0.1,0-0.2l0.2-0.1c-0.1,0.3-0.1,0.6-0.2,0.8
	C23.6,46.8,23.6,47,23.6,47.1z"/>
<path class="st10" d="M16.4,47.4c-0.3-0.1-0.5-0.3-0.8-0.5c-0.1-0.3-0.3-0.6-0.3-0.9c0.1-0.1,0.1-0.3,0.2-0.4c0.5,0.3,1,0.6,1.5,0.9
	l0.1,0.1C16.9,46.9,16.7,47.1,16.4,47.4C16.5,47.3,16.4,47.3,16.4,47.4z"/>
<path class="st9" d="M14.6,47.5c-0.1,0.3-0.2,0.5-0.3,0.8c-0.3-0.1-0.7-0.3-0.9-0.5l0,0l0.3-0.9l0.4-0.9
	C14.3,46.5,14.4,47,14.6,47.5z"/>
<path class="st6" d="M19.4,55c-0.2,0-0.4-0.1-0.6-0.2c-1-0.4-1.9-1-2.8-1.5l0,0c0.2,0,0.3,0,0.5,0c0.2,0,0.4,0,0.6,0
	c0,0,0,0.1,0,0.1c0.5,0.3,1.1,0.6,1.6,0.9c0.1,0,0.2,0.2,0.2,0.2L19.4,55z"/>
<path class="st7" d="M17,53.3c-0.2,0-0.4,0-0.6,0c0,0,0-0.1,0-0.1c-0.2-0.3-0.2-0.6-0.2-0.9h1l0.8,1.1C17.7,53.4,17.3,53.3,17,53.3z
	"/>
<path class="st1" d="M20,53.1l-0.9,0.1l-0.1-0.1c0.2-0.3,0.3-0.8,0.1-1.2c0.3-0.1,0.6-0.1,0.8-0.1C20.2,52.3,20.1,52.7,20,53.1z"/>
<path class="st6" d="M21.1,55.3l0.8,0.2c0.1,0,0.2,0.1,0.3,0.1c0.5,0.2,1,0.3,1.6,0.4h0.1c-0.2,0.1-0.4,0.2-0.6,0.2L22,56
	c-0.1-0.1-0.2-0.1-0.3-0.1C21.5,55.7,21.3,55.5,21.1,55.3z"/>
<path class="st5" d="M19.3,57.2c0.7-0.1,1.4-0.2,2.1-0.4c0.1,0.1,0.2,0.1,0.3,0.3l-0.1,0.1c-0.5,0.2-0.9,0.3-1.4,0.4
	C19.9,57.5,19.6,57.4,19.3,57.2z"/>
<path class="st9" d="M25.5,58.4c0.2-0.1,0.4-0.1,0.6-0.2l1-0.3h0.2c-0.2,0.3-0.5,0.6-0.8,0.9C26.1,58.7,25.8,58.5,25.5,58.4z"/>
<path class="st7" d="M19.3,52c0.1,0.4,0,0.8-0.2,1.1c-0.3-0.3-0.5-0.7-0.8-1L19.3,52z"/>
<path class="st9" d="M21.7,57.8v-0.7l0.3,0.2c0,0.2,0,0.3,0,0.5C22,57.9,21.8,57.9,21.7,57.8z"/>
<path class="st9" d="M22,56v0.2l-0.3-0.2C21.8,55.9,21.9,55.9,22,56z"/>
<path class="st10" d="M14.1,45.9L14.1,45.9L14.1,45.9z"/>
<path class="st6" d="M19.4,55.1L19.4,55.1z"/>
<path class="st7" d="M20.4,30.3l-1.1,1.5c-0.1,0.1-0.1,0.2,0,0.3c0.2,0.3,0.1,0.6-0.2,0.8C19.1,33,19,33,18.9,33
	c-0.2,0-0.3,0.1-0.4,0.2c-0.4,0.7-0.9,1.5-1.3,2.2c0,0.1,0,0.1,0,0.2c-0.1,0-0.1,0.1-0.1,0.2c-0.1,0.1-0.2,0.2-0.2,0.4
	c-0.1,0.1-0.1,0.2-0.2,0.3c-0.2,0.3-0.3,0.7-0.5,1c-0.1,0.1-0.1,0.2-0.1,0.3c-0.1,0.1-0.2,0.3-0.4,0.4c0,0,0-0.1,0-0.1l0.7-1.5
	c0.1-0.1,0.1-0.2,0.1-0.3l0.3-0.6c0.1-0.1,0.1-0.1,0.1-0.2c0.1-0.1,0.2-0.3,0.3-0.5c0.4-0.7,0.7-1.3,1.1-1.9c0.1-0.1,0.1-0.2,0-0.2
	c-0.2-0.2-0.2-0.6,0-0.9c0.2-0.2,0.4-0.2,0.6-0.1c0.1,0,0.1,0,0.2-0.1l1-1.4C20.3,30.3,20.4,30.3,20.4,30.3z"/>
<path class="st11" d="M18.1,25.8L18.1,25.8L18.1,25.8l-1.1,1c-0.3,0-0.5-0.1-0.7-0.1c0.1-0.3,0.3-0.6,0.5-1s0.3-0.5,0.4-0.7l0,0h0.1
	c0,0.1,0,0.1,0.1,0.1l0.3,0.2C17.7,25.4,17.9,25.6,18.1,25.8z"/>
<path class="st10" d="M15.5,28c-0.2,0.4-0.3,0.8-0.4,1.2c-0.1,0-0.2,0-0.3-0.1c-0.2-0.1-0.4-0.2-0.6-0.4c0.1-0.4,0.3-0.8,0.4-1.1
	c0.3,0,0.6,0.1,1,0.2C15.6,27.8,15.6,27.9,15.5,28L15.5,28L15.5,28z"/>
<path class="st10" d="M16.6,25.7c-0.1,0.3-0.3,0.6-0.5,1L15,26.5c0.1-0.1,0.2-0.3,0.2-0.5c0.1-0.2,0.2-0.4,0.3-0.7
	c0.3,0,0.5,0.1,0.7,0.2C16.4,25.6,16.5,25.7,16.6,25.7z"/>
<path class="st11" d="M14.5,27.6c-0.1,0.4-0.3,0.7-0.4,1.1l-0.2,0.6c-0.1,0-0.1,0-0.2-0.1c-0.1-0.1-0.2-0.3-0.3-0.5
	c0,0-0.1-0.1-0.1-0.1c0.3-0.3,0.5-0.7,0.8-1l0.1-0.1L14.5,27.6z"/>
<path class="st2" d="M11.3,28.8c0-0.5,0-1,0.1-1.4c0.2,0,0.4,0,0.6,0L12,28.3L11.3,28.8z"/>
<path class="st6" d="M28.9,20.7c0-0.4-0.2-0.7-0.4-1l-0.1-0.2c0.6-0.2,1.2-0.3,1.8-0.4l0.9-0.1h0.4c0.7-0.1,1.3-0.1,2-0.1
	c0.1,0,0.2-0.1,0.2-0.1c0.3-0.7,1-1.1,1.7-1c0.5,0.1,0.9,0.3,1.2,0.7c0.1,0.2,0.2,0.3,0.2,0.5H37c1,0.1,2,0.3,3,0.5
	c0.1,0,0.3,0,0.4,0.1c-0.8,0.2-1.5,0.5-2.3,0.8c-0.4-0.1-0.8-0.1-1.3-0.2c-0.1,0-0.1,0-0.2,0.1c-0.1,0.2-0.2,0.3-0.4,0.4
	c-0.4,0.3-0.8,0.4-1.3,0.4c-0.1,0-0.2-0.1-0.3-0.1c-0.4-0.1-0.8-0.4-1-0.8c0-0.1-0.1-0.1-0.1-0.1h-0.7c-0.4,0-0.8,0.1-1.3,0.1
	c-0.7,0.1-1.5,0.2-2.2,0.4L28.9,20.7z"/>
<path class="st13" d="M35.1,23.2c0.5,0.3,1.1,0.6,1.6,1l0.4,0.2c-0.1,0.4-0.2,0.7-0.5,1.1c0,0-0.1,0.1-0.1,0.1l-0.3-0.1
	c-0.1-0.1-0.2-0.1-0.3-0.2c-0.3-0.2-0.7-0.5-1-0.7c-0.2-0.1-0.3-0.2-0.5-0.3L33.9,24C34.2,23.7,34.7,23.5,35.1,23.2z"/>
<path class="st11" d="M42,20c0.5,0.2,1,0.4,1.5,0.6l0.1,0.1c0,0,0,0.1,0,0.1c0,0.4,0,0.7-0.2,1c-0.3-0.2-0.6-0.3-1-0.4
	c-0.2-0.1-0.5-0.2-0.7-0.3c-0.4-0.2-0.8-0.3-1.3-0.4l-0.6-0.1c0.6-0.2,1.1-0.4,1.7-0.6L42,20z"/>
<path class="st7" d="M47.1,22.7c0-0.1,0-0.1,0-0.1c-0.6-1.1-1.6-2.1-2.7-2.8l-0.2-0.1c0.5,0,0.9,0,1.3,0.2c0.3,0.3,0.6,0.5,0.9,0.8
	c0.8,0.8,1.4,1.8,1.8,2.8l0.2,0.4c0,0-0.1,0-0.1,0C48,23.5,47.6,23.1,47.1,22.7C47.1,22.8,47.1,22.8,47.1,22.7L47.1,22.7z"/>
<path class="st13" d="M32.7,23.4l-1.3-0.6c0.1-0.3,0.2-0.5,0.4-0.7c0.1-0.1,0.2-0.2,0.3-0.4h0.1c0.1,0.1,0.2,0.1,0.3,0.2
	c0.4,0.2,0.8,0.4,1.2,0.6c0,0.1,0.1,0.1,0.2,0.1c0,0,0,0.1-0.1,0.1l-1,0.7L32.7,23.4z"/>
<path class="st3" d="M40.3,19.5c-0.1-0.1-0.3-0.1-0.4-0.1s-0.1-0.1-0.1-0.1l-1-0.7c0.3,0,0.7,0,1,0l0.3,0.3c0.1,0.1,0.3,0.2,0.5,0.3
	v0.3C40.6,19.5,40.5,19.5,40.3,19.5z"/>
<path class="st14" d="M32.5,25.1l-0.5,1c-0.2,0.4-0.4,0.8-0.6,1.1l0,0l0,0c-0.1,0.1-0.2,0.1-0.3,0.1c0.3-0.6,0.6-1.1,0.9-1.7
	c0.1-0.1,0.1-0.2,0.1-0.3l0,0l0,0C32.2,25.3,32.3,25.1,32.5,25.1z"/>
<path class="st9" d="M35,21.1l-0.8,1.2c0,0-0.1,0.1-0.1,0.2l0,0c0,0,0,0,0,0c0,0-0.1,0-0.1,0c-0.1,0-0.1,0-0.2-0.1l0.9-1.4
	C34.8,21,34.9,21,35,21.1z"/>
<path class="st8" d="M33.6,26.1l-0.4-1.6c0.1-0.1,0.1-0.1,0.2-0.1l0,0c0.1,0.4,0.2,0.8,0.3,1.2c0,0.2,0.1,0.3,0.2,0.5L33.6,26.1
	L33.6,26.1z"/>
<path class="st12" d="M40.6,19.5v-0.5c0.2,0,0.5,0,0.7,0c0.2,0,0.3,0,0.4,0.3L40.6,19.5z"/>
<path class="st3" d="M33.4,24.4L33.4,24.4c0.1-0.1,0.2-0.1,0.3-0.2l0.8,0.1c0.2,0.1,0.4,0.2,0.5,0.3h-0.2
	C34.3,24.5,33.8,24.4,33.4,24.4z"/>
<path class="st8" d="M48.4,23.5l0.3,0.1c0,0.2,0.1,0.4,0.1,0.6c-0.1-0.1-0.1-0.1-0.2-0.2L48.4,23.5z"/>
<path class="st15" d="M32,25.3L32,25.3C32,25.3,32,25.4,32,25.3z"/>
<path class="st15" d="M34,22.5L34,22.5C34,22.5,34,22.5,34,22.5z"/>
<path class="st14" d="M32.5,25L32.5,25z"/>
<path class="st2" d="M23.9,20.5c-0.6-0.1-1.1-0.1-1.7-0.1c-0.5,0-1,0-1.5,0h-0.1c0.4-0.4,0.8-0.7,1.3-1c0.7,0,1.5,0,2.2,0.1h0.2
	C24.1,19.7,24,20.1,23.9,20.5z"/>
<path class="st15" d="M17,24.9L17,24.9z"/>
<path class="st15" d="M19.1,20.6L19.1,20.6L19.1,20.6L19.1,20.6z"/>
<path class="st7" d="M48.6,34.5c-0.2,0.3-0.4,0.6-0.6,0.8l-0.5-0.7c0-0.2,0.1-0.4,0.2-0.5c0.1-0.5,0.3-1,0.3-1.5c0-0.1,0-0.1,0-0.2
	c0.1-0.4,0.2-0.7,0.2-1.1c0-0.1,0.1-0.3,0.1-0.4l0-0.5v-0.5c0-0.4,0-0.8,0-1.2c0-0.3,0-0.6,0-0.9c0-0.6,0-1.1-0.1-1.7
	c-0.1-0.4-0.2-0.9-0.3-1.3c0.4,0.3,0.8,0.7,1.1,1.1c0,0,0,0.1,0,0.1c0.2,1,0.3,2,0.3,3c0,0.5,0,1.1-0.1,1.6l-0.1,0.6l-0.2,1.3
	c0,0.1,0,0.2,0,0.2c-0.1,0.2-0.1,0.4-0.1,0.7c0,0.1-0.1,0.2-0.1,0.3L48.6,34.5z"/>
<path class="st8" d="M46.7,23.8c-0.6-0.1-1.1-0.1-1.7-0.1h-0.6c-0.3,0-0.6,0-1,0.1c-0.1,0-0.2,0-0.2,0.1c-0.1,0.3-0.5,0.5-0.8,0.3
	c-0.1,0-0.2-0.1-0.3-0.2c0-0.1-0.1-0.1-0.2-0.1L41.4,24c0-0.1,0-0.2,0.1-0.3l0.5-0.1c0.1,0,0.1,0,0.1-0.1c0.1-0.3,0.4-0.5,0.8-0.4
	c0.1,0,0.3,0.1,0.4,0.3c0,0,0,0.1,0.1,0.1c0.3,0,0.5,0,0.8-0.1c0.2,0,0.3,0,0.5,0h1.4C46.2,23.4,46.5,23.6,46.7,23.8z"/>
<path class="st2" d="M52.2,33.3c-0.1-0.1-0.2-0.3-0.3-0.4c0.3,0,0.6,0.1,0.8,0.2l0.1,0.4C52.5,33.4,52.4,33.4,52.2,33.3L52.2,33.3
	L52.2,33.3z"/>
<path class="st15" d="M47.1,22.7C47.1,22.7,47.1,22.7,47.1,22.7L47.1,22.7z"/>
<path class="st8" d="M46.1,42.6l-0.5-0.4l-0.2-0.1c0.2-0.4,0.5-0.8,0.7-1.2c0.2,0.2,0.5,0.4,0.7,0.6l0.1,0.1
	c-0.1,0.3-0.4,0.7-0.6,0.9C46.2,42.5,46.2,42.6,46.1,42.6z"/>
<path class="st6" d="M49.9,45.8c-0.5,0.7-1.1,1.4-1.7,2.1L48.2,48c-0.3,0.2-0.6,0.3-0.9,0.5l0.5-0.5l0,0l0,0l0.3-0.4c0,0,0,0,0-0.1
	l0,0c0.1,0,0.1,0,0.1-0.1c0.5-0.5,0.9-1.1,1.3-1.7c0.1-0.2,0.1-0.2,0.3,0L49.9,45.8z"/>
<path class="st3" d="M48.1,47.5l-0.3,0.4l0.4-1.2l0.1-0.3c0-0.2,0.1-0.3-0.1-0.5c-0.1-0.2-0.1-0.4,0.1-0.6c0,0,0.1-0.1,0.2-0.1
	c0.1,0,0.2-0.1,0.2-0.2s0-0.2,0.1-0.3s0.2,0.1,0.1,0.2s0,0.1,0,0.2c0,0,0,0.1,0,0.2c0.1,0.1,0.2,0.3,0.2,0.4c0,0.2-0.2,0.3-0.4,0.3
	c-0.1,0-0.1,0-0.1,0.1l-0.4,1.3l0,0l0,0C48.1,47.4,48.1,47.5,48.1,47.5z"/>
<path class="st13" d="M51.5,48.1c-0.1,0-0.3,0-0.4,0.1c-0.1,0-0.3,0-0.4,0c0-0.3,0-0.5,0-0.8c0,0,0-0.1,0-0.2s0-0.4,0-0.6
	c0.3,0.3,0.6,0.7,0.9,1.1L51.5,48.1z"/>
<path class="st10" d="M50.7,46.5c0,0.2,0,0.4,0,0.6s0,0.1,0,0.2s-0.3,0.3-0.5,0.4c-0.2-0.1-0.4-0.2-0.5-0.3
	c-0.1-0.1-0.2-0.1-0.1-0.2c0.4-0.3,0.7-0.5,1.1-0.8C50.6,46.4,50.7,46.5,50.7,46.5z"/>
<path class="st3" d="M47.1,49.9c-0.8,1.6-1.7,3.1-2.8,4.5c-0.4,0.5-0.8,0.9-1.2,1.3c-0.6,0.6-0.1,0.1-0.1,0.1l0,0l0,0
	c-0.2,0-0.4,0.1-0.6,0.1c0.4-0.4,0.8-0.7,1.1-1.1c1.2-1.3,2.3-2.8,3.1-4.4c0.1-0.2,0.3-0.5,0.4-0.8c-0.3,0.2-0.7,0.3-1,0.4
	c-0.3,0.1-0.5,0.2-0.8,0.3c-0.1,0-0.1,0-0.2,0c-0.5,0.2-1.1,0.4-1.7,0.5c-0.1,0-0.2,0.1-0.2,0.2c-0.2,0.7-0.9,1.1-1.6,0.9
	c-0.2-0.1-0.4-0.2-0.6-0.4c-0.1-0.1-0.2-0.1-0.3-0.1c-0.4,0.1-0.9,0.1-1.3,0.2c0-0.3,0-0.7,0-1l1.2-0.2c0.1,0,0.1-0.1,0.1-0.1
	c0.2-0.7,0.9-1.1,1.6-1c0.3,0.1,0.5,0.2,0.7,0.5c0,0,0.1,0.1,0.1,0c0.6-0.2,1.3-0.3,1.9-0.6c0.1,0,0.3-0.1,0.4-0.1
	c0.7-0.2,1.3-0.5,1.9-0.8c0.3-0.1,0.6-0.2,0.9-0.4c0.5-0.2,0.9-0.5,1.3-0.8c0,0.1,0.1,0.2,0.1,0.2c0.1,0.2,0.3,0.3,0.5,0.3L50,47.9
	c-0.8,0.6-1.7,1.1-2.6,1.6c-0.1,0-0.2,0.1-0.2,0.2L47.1,49.9z"/>
<path class="st6" d="M45.2,50.4c0.3-0.1,0.5-0.2,0.8-0.3c-0.5,0.5-1.1,1-1.7,1.4c-1.1,0.8-2.3,1.5-3.5,2.1c-0.1,0-0.1,0.1-0.1,0.2
	c0,0.2-0.1,0.5-0.3,0.6c-0.2,0.1-0.5,0.1-0.7-0.1c-0.1-0.1-0.2-0.1-0.2,0c-0.9,0.4-1.8,0.8-2.8,1.1c-0.1,0-0.2,0-0.2,0.1
	c-0.2,0-0.4-0.1-0.6-0.1c0.1,0,0.2-0.1,0.4-0.2c0.1,0,0.2,0,0.2-0.1h0.1c0.9-0.3,1.8-0.7,2.7-1.1c0.1,0,0.1-0.1,0.1-0.2
	c0-0.3,0.1-0.5,0.3-0.6c0.2-0.1,0.5-0.1,0.7,0.1c0.1,0.1,0.2,0.1,0.3,0c1.1-0.6,2.1-1.2,3.1-1.9C44.2,51.1,44.7,50.8,45.2,50.4z"/>
<path class="st1" d="M36.4,55.9c-0.1,1.2-0.4,2.4-0.7,3.5c-0.1,0.1-0.3,0.1-0.5,0.1c0.4-1.1,0.8-2.2,0.9-3.3l0.1-0.4
	C36.2,55.8,36.3,55.9,36.4,55.9z"/>
<path class="st4" d="M47.3,49.6c0.8,0.1,1.6,0.2,2.4,0.2c0.3,0,0.5,0,0.7,0c0,0.1-0.1,0.3-0.1,0.4c-1,0-2-0.2-3-0.4h-0.2L47.3,49.6z
	"/>
<path class="st3" d="M42.3,55.9L42.3,55.9z"/>
<path class="st15" d="M43,55.8L43,55.8C43,55.8,43,55.8,43,55.8z"/>
<path class="st6" d="M12.8,50.5c-0.9-1-1.6-2.1-2.2-3.3l-0.1-0.1c0-0.4,0.1-0.7,0.2-1.1c0.5,1.3,1.2,2.4,2,3.5l0.1,0.1L12.8,50.5z"
	/>
<path class="st8" d="M14.3,52.9c-0.2-0.1-0.4-0.2-0.6-0.2c0-0.3,0-0.6,0-0.8c0.1,0,0.2,0,0.3,0C14,52,14.2,52,14.3,52
	c0.2,0.1,0.5,0.1,0.7,0.1c0,0.3,0,0.6,0.1,0.9h-0.2C14.7,53,14.5,52.9,14.3,52.9z"/>
<path class="st6" d="M15,52.1c-0.2,0-0.5-0.1-0.7-0.1c-0.1-0.2-0.3-0.3-0.5-0.5c0-0.1-0.1-0.1-0.1-0.1c0-0.3,0-0.5,0.1-0.8l0.3,0.3
	c0,0,0,0.1,0,0.1c0.4,0.4,0.9,0.8,1.3,1.2C15.2,52.2,15.1,52.1,15,52.1z"/>
<path class="st7" d="M13.8,45.7c-0.1,0.4-0.1,0.8-0.1,1.2l-0.3,0.9l0,0c0-0.6,0-1.2,0.1-1.8c0-0.1,0-0.3,0-0.4
	C13.7,45.6,13.7,45.6,13.8,45.7z"/>
<path class="st7" d="M14.1,50.9l-0.3-0.3c0-0.2,0.1-0.4,0.1-0.6L14.1,50.9z"/>
<path class="st15" d="M13.7,51.4c0.1,0,0.1,0.1,0.1,0.1l0.1,0.4c-0.1,0-0.2,0-0.3,0C13.6,51.7,13.7,51.6,13.7,51.4z"/>
<path class="st2" d="M11.5,31.4L11.4,31l-0.1-0.7v-0.8c0.2-0.2,0.4-0.4,0.6-0.6c0,0.5,0,1,0,1.5v0.2L11.5,31.4z"/>
<path class="st4" d="M11.4,30.3l0.1,0.7c-0.3-0.3-0.5-0.5-0.7-0.8c0.1-0.1,0.2-0.3,0.3-0.4C11.1,30,11.2,30.1,11.4,30.3z"/>
<path class="st7" d="M36.6,18.4L36.6,18.4c0.3,0,0.5-0.1,0.7-0.1c0.2,0,0.4,0,0.6-0.1l1-0.1c0.5,0,1.1,0,1.6,0
	c0,0.2,0.1,0.4,0.1,0.6c-0.3,0-0.5,0-0.8,0c-0.3,0-0.7,0-1,0c-0.3,0-0.5,0-0.8,0.1c-0.4,0-0.8,0.1-1.2,0.2
	C36.8,18.7,36.7,18.6,36.6,18.4z"/>
<path class="st1" d="M30.1,16.3c0.4,0.6,0.7,1.2,1,1.8l0.4,0.8h-0.4c-0.1-0.3-0.3-0.6-0.4-0.9c-0.3-0.6-0.7-1.2-1.2-1.8
	C29.7,16.3,29.9,16.3,30.1,16.3z"/>
<path class="st9" d="M37.3,18.2c-0.2,0.1-0.4,0.1-0.7,0.1l0.5-0.6c0.1,0,0.3,0.1,0.4,0.2L37.3,18.2z"/>
<path class="st15" d="M37.3,18.2l0.3-0.3c0.1,0,0.2,0.1,0.3,0.2C37.7,18.2,37.5,18.2,37.3,18.2z"/>
<path class="st4" d="M41.8,39.7l-2.5-1.5c-0.5-0.3-1-0.6-1.6-0.9s-0.8-0.5-1.2-0.7L35,35.7c-1.2-0.7-2.4-1.3-3.7-1.9
	c-1.6-0.8-3.2-1.5-4.9-2.2l-0.1-0.1c0.2-0.2,0.4-0.5,0.5-0.8c0-0.2,0-0.4,0-0.5h0.1c0.8,0.3,1.5,0.7,2.2,1c1.5,0.7,2.9,1.4,4.3,2.1
	l2.1,1.1l1.4,0.7c0.4,0.3,0.8,0.5,1.2,0.7c1,0.6,2.1,1.2,3.1,1.8c0.4,0.3,0.8,0.5,1.2,0.8c0,0.1-0.2,0.2-0.2,0.3
	C42.1,39.1,41.9,39.4,41.8,39.7z"/>
<path class="st9" d="M36.6,36.6c0.4,0.2,0.8,0.4,1.2,0.7c-0.4,1.2-0.9,2.4-1.4,3.6l-0.1,0.3c-0.2-0.1-0.3-0.2-0.4-0.3
	c-0.2-0.1-0.5-0.2-0.8-0.2l1.1-2.8C36.3,37.4,36.4,37,36.6,36.6z"/>
<path class="st9" d="M33.5,44.2c0.1,0.2,0.3,0.3,0.5,0.3c0.2,0.1,0.5,0.1,0.7,0.2l-0.3,0.6c0,0-0.1,0.1-0.1,0.2
	c-0.2,0.3-0.3,0.7-0.5,1c-0.5,0.3-1.1,0.6-1.6,0.9c-0.1,0.1-0.3,0.2-0.4,0.2c0.5-1.1,1-2.2,1.5-3.3L33.5,44.2z"/>
<path class="st1" d="M31,48.1c0.1,0.2,0.2,0.4,0.2,0.5c0.1,0.2,0.1,0.5,0.2,0.7l-0.5,0.3l-0.6,0.3c0-0.3,0-0.6-0.1-0.9
	c-0.1-0.1-0.1-0.3-0.2-0.4L31,48.1z"/>
<path class="st8" d="M20,53.1c0.1-0.4,0.1-0.8,0.1-1.2l1.1-0.2l1.2-0.3h0.2c0.7-0.2,1.4-0.4,2-0.6l1.2-0.4h0.1c0,0,0.1,0.1,0.1,0.1
	c0.1,0.2,0.2,0.4,0.3,0.5c0.1,0.2,0.2,0.3,0.3,0.4h0L24.9,52c-0.8,0.2-1.6,0.5-2.4,0.7h-0.1c-0.1,0-0.2,0-0.2,0
	c-0.5,0.1-1,0.2-1.5,0.3C20.5,53,20.3,53.1,20,53.1z"/>
<path class="st9" d="M22.1,52.7c0.1,0,0.2,0,0.2,0c-0.2,1-0.3,1.9-0.3,2.9c-0.1,0-0.2,0-0.3-0.1c0.1-0.9,0.2-1.8,0.3-2.7
	C22.1,52.8,22.1,52.8,22.1,52.7z"/>
<path class="st1" d="M26.5,51.4c-0.1-0.2-0.2-0.3-0.3-0.4c-0.1-0.2-0.2-0.4-0.2-0.6c0,0,0-0.1-0.1-0.1l0.5-0.2l0.5-0.2
	c0.1,0.3,0.2,0.5,0.3,0.8c0.1,0.1,0.2,0.2,0.3,0.3c-0.1,0.1-0.3,0.1-0.5,0.2c-0.1,0-0.2,0.1-0.3,0.1C26.6,51.3,26.6,51.4,26.5,51.4z
	"/>
<path class="st2" d="M23.9,49.4L23.9,49.4z"/>
<path class="st6" d="M17.1,24.9c0.5-0.4,1-0.8,1.5-1.1c1.5-1.1,3.2-2,4.9-2.7l0.1,0c0,0.4,0.1,0.8,0.3,1.2c0,0,0,0.1,0,0.1l-1.2,0.5
	c-1.1,0.5-2.2,1.2-3.2,1.8l-0.1,0.1c-0.2,0.1-0.4,0.2-0.6,0.4L18,25.8c-0.2-0.2-0.4-0.4-0.6-0.6L17.2,25C17.1,25,17.1,25,17.1,24.9z
	"/>
<path class="st6" d="M18,25.8L18,25.8z"/>
<path class="st9" d="M30.9,49.6l0.5-0.3c0.5-0.2,0.9-0.5,1.4-0.7c0,0,0.1-0.1,0.2,0c-0.2,0.4-0.5,0.9-0.7,1.3
	c-0.2,0.3-0.3,0.5-0.4,0.8l0,0l0,0c0,0-0.1,0.1,0,0.1l-1.3-0.1h-0.2C30.6,50.3,30.8,50,30.9,49.6z"/>
<path class="st10" d="M36,52h-1c-0.1-0.3-0.1-0.7-0.1-1h1.4h0.2h0.2h0.5C36.8,51.4,36.4,51.7,36,52z"/>
<path class="st14" d="M31.9,50.8c0,0,0-0.1,0-0.1l0,0l0,0H32c0.4-0.3,0.8-0.7,1.2-1s1-0.9,1.5-1.4s1-0.9,1.4-1.4c0,0,0.1,0,0-0.1
	l0,0l0,0l0,0c0.1-0.1,0.2-0.1,0.3,0l-0.1,0.1l-0.8,0.8c-0.4,0.4-0.9,0.8-1.3,1.2c-0.7,0.7-1.4,1.3-2.2,1.9c0,0-0.1,0.1-0.1,0.1
	L31.9,50.8z"/>
<path class="st9" d="M26.3,57.4L26.3,57.4z"/>
<path class="st6" d="M26.7,56.7c-0.7-0.1-1.3-0.1-2-0.2l-1.1-0.2c0.2-0.1,0.4-0.2,0.5-0.3c0.4,0.1,0.8,0.2,1.2,0.2
	c0.5,0.1,1,0.1,1.5,0.1L26.7,56.7z"/>
<path class="st13" d="M28.9,20.7l0.5-0.1h0.1c0,0.4,0,0.8-0.2,1.3l-0.3-0.1c-0.6-0.2-1.2-0.4-1.8-0.6h-0.1c0.5-0.2,1-0.3,1.5-0.4
	L28.9,20.7z"/>
<path class="st7" d="M29.1,21.8l0.3,0.1l0.1,0.1c-0.9,0.5-1.7,1.1-2.5,1.8l-0.1,0.1h-0.5c0.6-0.5,1.2-0.9,1.8-1.4L29.1,21.8z"/>
<path class="st9" d="M23.3,31.9l0.6-0.6c0.2,0.1,0.2,0.3,0.4,0.5c0.1,0.1,0.3,0.3,0.4,0.3c-0.2,0.2-0.4,0.5-0.6,0.7
	c-0.2,0-0.3-0.2-0.4-0.3C23.5,32.3,23.3,32.1,23.3,31.9L23.3,31.9L23.3,31.9L23.3,31.9z"/>
<path class="st0" d="M30.7,27.9c-0.3,0.1-0.5,0.2-0.7,0.3c-0.5,0.2-0.9,0.5-1.4,0.7c-0.5,0.2-1,0.6-1.5,0.9c-0.1,0-0.1,0.1-0.2,0.1
	c0.2-0.2,0.5-0.5,0.7-0.7l0,0l0,0c0.2-0.1,0.4-0.2,0.6-0.3c0.3-0.2,0.6-0.4,1-0.5l1.7-0.9l0.1-0.1c0.1,0,0.2-0.1,0.3-0.1l0,0l0,0
	c0.2,0,0.4-0.1,0.5-0.2c0.5-0.2,1-0.5,1.6-0.7c0,0,0.1,0,0.1-0.1l0,0c0,0.1,0.1,0.1,0.1,0.1s0.2,0,0.2,0.1l0,0c-0.1,0-0.2,0-0.2,0.1
	c-0.2,0.1-0.4,0.1-0.6,0.3c-0.7,0.3-1.3,0.6-2,0.9C30.9,27.7,30.8,27.7,30.7,27.9L30.7,27.9L30.7,27.9z"/>
<path class="st0" d="M26.8,29.9C26.8,29.9,26.8,29.9,26.8,29.9C26.8,29.9,26.8,29.9,26.8,29.9z"/>
<path class="st0" d="M26.8,29.9L26.8,29.9z"/>
<path class="st15" d="M27.6,29.1L27.6,29.1z"/>
<path class="st2" d="M30.4,53.4c0.8,0.3,1.5,0.7,2.3,1h0.1c-0.1,0.1-0.2,0.2-0.3,0.2c-0.7-0.3-1.4-0.6-2.2-1
	C30.3,53.5,30.3,53.5,30.4,53.4z"/>
<path class="st10" d="M38.8,50.7h0.5c0,0.3,0,0.7,0,1c-0.6,0.1-1.1,0.1-1.7,0.2L38.8,50.7z"/>
<path class="st4" d="M44.9,49.4c-0.3-0.1-0.5-0.2-0.8-0.2c-1-0.3-1.9-0.6-2.9-0.9h-0.1c0-0.1,0.1-0.2,0.1-0.2
	c0.1,0.1,0.2,0.1,0.3,0.1c1.2,0.4,2.4,0.8,3.7,1.1l0,0C45.2,49.3,45.1,49.3,44.9,49.4z"/>
<path class="st0" d="M40.1,47.9c-0.4-0.2-0.8-0.3-1.2-0.5c-0.3-0.1-0.7-0.2-1-0.4c0.1,0,0.2-0.1,0.3-0.1c0.3,0.1,0.6,0.3,0.9,0.4
	c0.3,0.1,0.7,0.3,1,0.4c0,0,0.1,0,0.1,0.1C40.2,47.8,40.2,47.8,40.1,47.9z"/>
<path class="st4" d="M36.7,46.8c0,0.5,0.1,1.1,0,1.7h-0.2v-1.6l0.1-0.1C36.6,46.8,36.7,46.8,36.7,46.8z"/>
<path class="st15" d="M36.3,46.8C36.3,46.8,36.3,46.8,36.3,46.8z"/>
<path class="st15" d="M36.3,46.7L36.3,46.7z"/>
<path class="st14" d="M40,42.7L40,42.7z"/>
<path class="st14" d="M40,42.6L40,42.6z"/>
<path class="st14" d="M40.1,42.6L40.1,42.6z"/>
<path class="st13" d="M47,36.3c-0.2-0.4-0.4-0.7-0.7-1l-0.1-0.2c0.3-0.2,0.5-0.3,0.8-0.5c0.1,0,0.3,0,0.3-0.2l0.1,0.2l0.5,0.7
	c-0.2,0.3-0.4,0.5-0.6,0.8l-0.3,0.3L47,36.3z"/>
<path class="st3" d="M50.3,32c-0.3-0.3-0.6-0.6-1-0.9l0.1-0.6c0.4,0.3,0.8,0.6,1.2,1C50.4,31.7,50.4,31.9,50.3,32z"/>
<path class="st3" d="M49.3,37.6c0-0.6-0.1-1.1-0.1-1.7c0-0.1,0.1-0.1,0.1-0.2c0.1,0.7,0.1,1.4,0.2,2.1
	C49.4,37.8,49.3,37.7,49.3,37.6z"/>
<path class="st2" d="M49.8,32.8l-0.8-0.1c0-0.1,0-0.2,0-0.2l0.9,0.1C49.9,32.6,49.9,32.7,49.8,32.8z"/>
<path class="st6" d="M47,36.3L47,36.3c0,0.2,0,0.2-0.1,0.3L47,36.3z"/>
<path class="st6" d="M47.4,38L47.4,38C47.4,38,47.4,38,47.4,38z"/>
<path class="st8" d="M43.1,38.9l0.2,0.1c-0.1,0.2-0.3,0.3-0.4,0.4c-0.2,0.2-0.3,0.4-0.3,0.7L42.3,40c0,0-0.1-0.1-0.2-0.1l-0.3-0.2
	c0.1-0.3,0.3-0.6,0.5-0.8c0.1-0.1,0.2-0.2,0.2-0.3l0.5,0.3C43,38.8,43,38.9,43.1,38.9z"/>
<path class="st15" d="M52.2,33.3L52.2,33.3z"/>
<path class="st2" d="M15.3,39.7c0.3,0.6,0.7,1.1,1.1,1.7c0,0.1-0.1,0.2-0.2,0.3c-0.3-0.4-0.6-0.9-1-1.4l-0.1-0.1L14.9,40
	c-0.1-0.1-0.1-0.3-0.2-0.4c0.1-0.1,0.2-0.2,0.3-0.3l0.1,0.2L15.3,39.7z"/>
<path class="st0" d="M22.5,32.8c-0.2,0.1-0.3,0.2-0.5,0.3L20.8,34l0,0v-0.3c0.2-0.2,0.5-0.4,0.7-0.6c0.5-0.4,1-0.7,1.5-1.1
	c0,0,0.1-0.1,0.2-0.1c-0.2,0.2-0.4,0.5-0.6,0.7l0,0l0,0c0,0-0.1,0,0,0L22.5,32.8z"/>
<path class="st14" d="M20.3,35.4c-0.3,0-0.5,0.1-0.8,0.2l-1,0.3c0-0.1,0.1-0.1,0.2-0.2l0.3-0.2l1.5-0.4h0.1
	C20.5,35.3,20.4,35.3,20.3,35.4L20.3,35.4L20.3,35.4z"/>
<path class="st4" d="M18.1,36.2l1.1,0.7L19,37.2l-1-0.7L18,36.4C18,36.3,18,36.3,18.1,36.2z"/>
<path class="st0" d="M23.3,31.9L23.3,31.9L23.3,31.9L23.3,31.9z"/>
<path class="st15" d="M22.5,32.8C22.5,32.8,22.5,32.8,22.5,32.8C22.6,32.8,22.5,32.8,22.5,32.8z"/>
<path class="st15" d="M22.6,32.7L22.6,32.7z"/>
<path class="st15" d="M20.3,35.4L20.3,35.4C20.3,35.4,20.3,35.4,20.3,35.4z"/>
<path class="st3" d="M13.9,29.3l0.2-0.6c0.2,0.1,0.4,0.3,0.6,0.4c0.1,0,0.2,0.1,0.3,0.1c-0.4,1.1-0.6,2.3-0.8,3.5
	c0,0.2,0,0.3-0.1,0.5v0.4c0,0,0,0.1,0,0.2c0,0.5-0.1,0.9-0.1,1.4c-0.1,0.7-0.1,1.3-0.1,2v1c0,0.4,0,0.7,0,1.1c0,0.3,0,0.6,0.1,0.9
	c0,0.1,0,0.2,0,0.4c0,0.1,0,0.1,0,0.2l0.2,1.3c-0.3,0-0.7,0.1-0.9,0.3c0,0-0.1,0-0.1,0l-0.1-0.5v-0.4c-0.1-1.1-0.2-2.2-0.3-3.4v-0.3
	v-1.8l0.1-1.1c0.1-0.6,0.2-1.3,0.3-1.9c0.1-0.3,0.1-0.7,0.2-1s0.2-1,0.3-1.5L13.9,29.3z"/>
<path class="st2" d="M10,38.8l0.8-0.4c0.1,0,0.1-0.1,0.1-0.1c0-0.3,0.2-0.6,0.5-0.7c0.2,0,0.4,0.1,0.5,0.2c0.1,0.1,0.1,0,0.2,0
	l0.6-0.3v0.3c-0.2,0.1-0.4,0.1-0.6,0.2c-0.1,0,0,0.1-0.1,0.1c0,0.3-0.3,0.6-0.7,0.6c-0.1,0-0.2,0-0.3-0.1c-0.1-0.1-0.2-0.1-0.2,0
	c-0.4,0.2-0.7,0.4-1,0.6L10,38.8z"/>
<path class="st2" d="M12.8,35.7c-0.3-0.6-0.5-1.3-0.7-1.9c-0.1-0.2-0.1-0.5-0.2-0.7c0.1-0.2,0.2-0.5,0.4-0.7
	c0.1,0.3,0.1,0.5,0.2,0.8c0.1,0.5,0.2,0.9,0.4,1.4L12.8,35.7z"/>
<path class="st7" d="M14.9,40l0.1,0.2c-0.3,0.8-0.5,1.6-0.7,2.4l-0.1-0.5c0,0,0-0.1,0.1-0.2C14.5,41.3,14.7,40.6,14.9,40z"/>
<path class="st8" d="M11.9,42.7l0.9-1.3l0.1-0.2v0.4c-0.3,0.4-0.6,0.9-0.9,1.3L11.9,42.7z"/>
<path class="st1" d="M15,52.1c0.1,0,0.3,0,0.4,0h0.7c0,0.3,0.1,0.6,0.2,0.9c0,0,0,0.1,0,0.1c-0.2,0-0.3,0-0.5,0
	c-0.3,0-0.6-0.1-0.9-0.1C15,52.7,15,52.4,15,52.1z"/>
<path class="st4" d="M14.1,33.5v-0.4c0.9,0.8,1.8,1.5,2.7,2.2l0.1,0.1c0,0.1,0,0.2-0.1,0.2l-0.1-0.1c-0.6-0.4-1.2-0.9-1.7-1.3
	L14.1,33.5z"/>
<path class="st4" d="M15.5,28L15.5,28C15.5,28,15.5,28,15.5,28z"/>
<path class="st8" d="M14.7,39.6c-0.2,0.2-0.4,0.5-0.6,0.7L14,40.3c0-0.1,0-0.2,0-0.4c0.2-0.2,0.4-0.5,0.6-0.7
	c0.1-0.1,0.2-0.2,0.3-0.3l0.8-0.8l0,0l0,0c0.2-0.1,0.3-0.2,0.4-0.4c0.5-0.5,1-1,1.5-1.5c0.1,0,0.1-0.1,0-0.2
	c0.2-0.1,0.5-0.2,0.6-0.4c0.1-0.1,0.2-0.2,0.3-0.3s-0.1,0.2,0.1,0.2c0,0.1-0.1,0.1-0.2,0.2c-0.1,0.1-0.3,0.2-0.4,0.3
	c-0.1,0-0.1,0.1-0.1,0.2s-0.1,0-0.1,0.1c-0.7,0.7-1.4,1.3-2.1,2v0.1l0,0c-0.1,0.1-0.3,0.2-0.4,0.4l0,0l0,0c-0.1,0.1-0.2,0.2-0.3,0.4
	C14.9,39.4,14.8,39.5,14.7,39.6z"/>
<path class="st4" d="M18.6,35.7c-0.1,0,0-0.2-0.1-0.2c0.3-0.3,0.7-0.6,1-0.9c0.4-0.3,0.8-0.7,1.2-0.9V34l-1.2,1l-0.7,0.6L18.6,35.7z
	"/>
<path class="st2" d="M18.3,35.7c-0.2,0.2-0.4,0.3-0.6,0.4l-0.9,0.3c0-0.1,0.1-0.2,0.2-0.3c0.2,0,0.3-0.1,0.5-0.2l0.3-0.1L18.3,35.7z
	"/>
<path class="st4" d="M17.6,35.9L17.3,36L17,35.8c0-0.1,0-0.2,0.1-0.2C17.3,35.7,17.5,35.8,17.6,35.9z"/>
<path class="st0" d="M23.3,31.9L23.3,31.9z"/>
<path class="st2" d="M16.4,36.5c-0.8,0.2-1.5,0.5-2.3,0.8c-0.1,0-0.1,0.1,0,0.2c0.3,0.5,0.5,1,0.8,1.5c-0.1,0.1-0.2,0.2-0.3,0.3
	l-0.1-0.1l-0.7-1.2v-1c0.3-0.1,0.6-0.2,0.9-0.3c0.6-0.2,1.2-0.4,1.8-0.6C16.5,36.3,16.4,36.4,16.4,36.5z"/>
<path class="st15" d="M17,35.8l0.3,0.2c-0.2,0.1-0.3,0.1-0.5,0.2C16.9,36,16.9,35.9,17,35.8z"/>
<path class="st7" d="M32.9,20.1c-0.2,0.1-0.4,0.2-0.6,0.3s-0.1,0.1-0.1,0.3c0.2,0.4,0.3,0.8,0.4,1.2c-0.1,0-0.2-0.1-0.3-0.2
	c-0.1-0.4-0.2-0.7-0.4-1c0-0.1-0.1-0.1-0.2,0l-0.8,0.5L30.4,21l0.8-0.5c0.1-0.1,0.3-0.1,0.4-0.2C32,20.2,32.4,20.2,32.9,20.1z"/>
<path class="st2" d="M47.4,34.5c-0.1,0.1-0.2,0.1-0.3,0.2c-0.3,0.1-0.6,0.3-0.8,0.5c-0.2-0.2-0.2-0.4-0.4-0.5c0-0.1,0-0.1-0.1-0.2
	c-0.2-0.3-0.4-0.5-0.6-0.8c-0.1-0.1-0.2-0.1-0.3-0.1c-0.7,0.2-1.4,0-1.8-0.5c-0.2-0.2-0.3-0.4-0.4-0.6c0-0.1,0-0.1-0.1-0.2
	c0,0,0-0.1,0-0.1c-0.1-0.4,0-0.8,0.1-1.2c0-0.1,0-0.1,0-0.2c-0.5-0.5-1-1-1.5-1.4c-0.2-0.2-0.5-0.4-0.7-0.6
	c-0.1-0.1-0.3-0.3-0.4-0.4c-0.2-0.2-0.5-0.4-0.8-0.6c-0.4-0.3-0.8-0.7-1.2-1c-0.5-0.4-1.1-0.8-1.6-1.2c0.1,0,0.1-0.1,0.1-0.1
	c0.2-0.3,0.4-0.7,0.5-1.1l0.5,0.3c0.1,0.1,0.2,0.1,0.3,0.2l0.2,0.2l0.6,0.4l0,0l0,0l0.9,0.7c0,0,0,0.1,0.1,0
	c0.1,0.1,0.3,0.3,0.4,0.4l0.7,0.6l0.1,0.1c0.9,0.8,1.8,1.6,2.7,2.5c0.1,0.1,0.2,0.1,0.3,0.1c1-0.3,2,0.3,2.3,1.3c0,0.1,0,0.1,0,0.2
	c0.1,0.3,0.1,0.6,0,0.9h0.7c0,0.1,0,0.1-0.1,0.2h-0.5c-0.1,0-0.1,0-0.1,0.1c0,0,0,0.1,0,0.2l0.4,0.5l0.1,0.2l0.1,0.2
	C46.9,33.8,47.1,34.1,47.4,34.5z"/>
<path class="st9" d="M41.5,23.7c0,0.1-0.1,0.2-0.1,0.3l-0.2,0.9L41,26c0,0,0,0.1-0.1,0.2c-0.4-0.2-0.9-0.3-1.3-0.2v-0.2l0.1-0.3
	c0.1-0.4,0.2-0.8,0.2-1.3c0-0.1,0.1-0.2,0.1-0.3c0.1-0.4,0.2-0.8,0.2-1.2c0.1-0.6,0.2-1.3,0.3-2c0.4,0.1,0.8,0.2,1.3,0.4
	c0,0,0,0.1,0,0.1c0,0.4,0,0.8-0.1,1.3C41.6,23,41.5,23.3,41.5,23.7z"/>
<path class="st8" d="M40,24c0,0.1,0,0.2-0.1,0.3c-0.7,0.2-1.5,0.4-2.2,0.6c-0.1-0.1-0.2-0.1-0.3-0.2c0.3-0.1,0.7-0.3,1-0.3
	C39,24.3,39.5,24.1,40,24z"/>
<path class="st2" d="M29.5,20.6l0.9,0.3l0.5,0.2l0.2,0.1c0.4,0.2,0.7,0.3,1.1,0.5c-0.1,0.1-0.2,0.2-0.3,0.4
	c-0.2,0.2-0.3,0.5-0.4,0.7c-0.7-0.3-1.3-0.6-2-0.8l-0.1-0.1C29.5,21.5,29.5,21.1,29.5,20.6z"/>
<path class="st4" d="M33.8,26.1l2.1-0.8c0.1,0.1,0.2,0.1,0.3,0.2l-2.3,0.9c0-0.1-0.1-0.1-0.2-0.1s-0.1,0-0.1-0.1L33.8,26.1z"/>
<path class="st15" d="M31.3,27.2L31.3,27.2z"/>
<path class="st5" d="M47.9,30.2l-0.9,2c-0.1,0.1-0.1,0.1-0.1,0.2c-0.2,0.2-0.3,0.5-0.4,0.8l-0.1-0.2c0.1-0.2,0.2-0.4,0.3-0.6
	c0.1-0.1,0.1-0.1,0.1-0.2c0.3-0.6,0.6-1.3,0.8-1.9c0.1-0.1,0.1-0.3,0.2-0.5c0.1-0.1,0.1-0.3,0.2-0.4c0.2-0.5,0.3-0.9,0.4-1.4
	l0.1-0.4c0,0.3,0,0.6,0,0.9c-0.1,0.3-0.2,0.7-0.3,1C48,29.8,47.9,30,47.9,30.2z"/>
<path class="st3" d="M47.9,30.2c0.1-0.2,0.1-0.4,0.2-0.6l0.3,0.2v0.5c-0.1,0-0.1-0.1-0.2-0.1l0,0l0,0c0,0.2,0.1,0.4,0.2,0.6
	c0,0.1,0,0.3-0.1,0.4L47.9,30.2L47.9,30.2z"/>
<path class="st2" d="M46.9,32.5c0-0.1,0-0.2,0.1-0.2c0.1,0,0.2,0,0.2,0l0.8,0c0,0.1,0,0.1,0,0.2L46.9,32.5z"/>
<path class="st15" d="M48.4,29.8l-0.3-0.2c0.1-0.3,0.2-0.7,0.3-1C48.5,29,48.5,29.4,48.4,29.8z"/>
<path class="st15" d="M48.1,30.2c0.1,0,0.2,0.1,0.2,0.1l0,0.5C48.2,30.6,48.2,30.4,48.1,30.2L48.1,30.2z"/>
<path class="st3" d="M47.9,29.5c0,0.1-0.1,0.3-0.2,0.4l-0.1-0.1c-2.1-1.4-4.3-2.6-6.7-3.5v-0.1c0-0.1,0-0.1,0.1-0.2
	c1.2,0.4,2.3,0.9,3.4,1.4c1,0.5,2,1.1,3,1.7l0,0l0,0c-0.5-1.2-1.1-2.4-1.8-3.6c-0.4-0.6-0.8-1.3-1.3-1.9h0.5c0.7,1,1.3,2,1.9,3.1
	c0.4,0.8,0.8,1.7,1.1,2.5C47.8,29.4,47.8,29.5,47.9,29.5z"/>
<path class="st3" d="M47.8,47.9L47.8,47.9z"/>
<path class="st4" d="M48.1,47.5C48.1,47.5,48.1,47.4,48.1,47.5C48.1,47.4,48.1,47.5,48.1,47.5z"/>
<path class="st7" d="M13.9,51.9l-0.1-0.4c0.2,0.1,0.4,0.3,0.5,0.5C14.2,52,14,52,13.9,51.9z"/>
<path class="st9" d="M40.6,32.5c0,0.9-0.8,1.7-1.7,1.8c-0.1,0-0.1,0.1-0.1,0.2l-0.5,1.5c-0.4-0.2-0.8-0.4-1.2-0.7l0.5-1.3
	c0-0.1,0-0.1-0.1-0.2c-0.7-0.7-0.7-1.8-0.1-2.5c0.3-0.3,0.6-0.5,1-0.6c0.1,0,0.2-0.1,0.2-0.2c0.1-0.5,0.3-1,0.4-1.5h0.1
	c0.3,0.3,0.8,0.4,1.2,0.4c-0.1,0.5-0.3,1-0.4,1.5c0,0,0,0.1,0,0.2c0.4,0.3,0.7,0.8,0.7,1.3L40.6,32.5z"/>
<path class="st8" d="M36.5,48.5h0.2v2.5h-0.2L36.5,48.5z"/>
<path class="st15" d="M31.9,50.7L31.9,50.7C31.9,50.7,31.9,50.7,31.9,50.7z"/>
<path class="st0" d="M34.3,28c0.1,0.6,0.3,1.1,0.4,1.7c0,0.1,0.1,0.2,0.2,0.2c0.2,0.1,0.4,0.4,0.3,0.6c0,0.1-0.1,0.1-0.1,0.2
	c-0.1,0.1-0.1,0.2-0.1,0.4c0.1,0.4,0.2,0.8,0.3,1.3s0.2,0.9,0.2,1.3c0,0.2,0,0.3,0.1,0.5s0,0.1,0,0.1s0,0-0.1,0
	c-0.1-0.1-0.2-0.3-0.2-0.5c-0.1-0.9-0.3-1.8-0.5-2.6c0-0.1,0-0.2-0.2-0.2c-0.2,0-0.3-0.1-0.3-0.3c-0.1-0.2-0.1-0.4,0.1-0.5
	c0.2-0.1,0.2-0.3,0.1-0.5c-0.1-0.5-0.2-1-0.3-1.5L34.3,28z"/>
<path class="st12" d="M40.3,29.2c-0.4,0-0.9-0.1-1.2-0.4h-0.1l0.3-1.1c0.3,0.2,0.5,0.4,0.8,0.6c0.1,0.1,0.3,0.2,0.4,0.4L40.3,29.2z"
	/>
<path class="st14" d="M30.8,27.8c0.1-0.1,0.2-0.1,0.3-0.2c-0.2,0.5-0.5,1-0.7,1.5c-0.1,0.3-0.4,0.5-0.8,0.5l0,0
	c0.1-0.1,0.2-0.1,0.3-0.1c0.1,0,0.1,0,0.1-0.1l0.7-1.5C30.7,28,30.7,27.9,30.8,27.8L30.8,27.8L30.8,27.8z"/>
<path class="st4" d="M34.3,28H34l-0.4-1.5c0-0.1,0.1-0.1,0.2-0.1L34.3,28z"/>
<path class="st15" d="M30.8,27.8L30.8,27.8z"/>
<path class="st14" d="M43,38.8l1-1.5l0.2-0.3c0.1-0.1,0.1-0.3,0.1-0.4c-0.1-0.2,0-0.4,0.2-0.5c0,0,0.1,0,0.1,0
	c0.1,0.3,0.1,0.6,0.1,0.8c-0.2,0-0.2,0.1-0.3,0.2c-0.4,0.6-0.8,1.2-1.2,1.8C43,38.9,43,38.9,43,38.8z"/>
<path class="st5" d="M44.6,36.9c0-0.3,0-0.6-0.1-0.8c0.2,0,0.3,0,0.4-0.2c0.3-0.5,0.5-0.9,0.8-1.4c0.1,0,0.1,0.1,0.1,0.2
	c-0.3,0.5-0.5,1-0.8,1.4c-0.1,0.1-0.1,0.2,0,0.3c0.1,0.2,0,0.5-0.2,0.6C44.7,36.9,44.7,36.9,44.6,36.9z"/>
<path class="st7" d="M15.3,38.9c0.1-0.1,0.2-0.3,0.4-0.4l-0.4,1.2l-0.1-0.2C15.2,39.3,15.3,39.1,15.3,38.9L15.3,38.9
	C15.3,38.9,15.3,38.9,15.3,38.9z"/>
<path class="st7" d="M15.7,38.5L15.7,38.5L15.7,38.5z"/>
<path class="st15" d="M15.3,38.9L15.3,38.9z"/>
<path class="st7" d="M15.6,38.2L15.6,38.2z"/>
<path class="st12" d="M41,26.3l-0.2,0.9L40,26.6c-0.2-0.1-0.3-0.2-0.4-0.4c0-0.1,0-0.1,0-0.2C40,25.9,40.5,26,41,26.3L41,26.3z"/>
<path class="st14" d="M40.6,32.3c0.6,0,1.3-0.1,1.9-0.1c0,0.1,0.1,0.1,0.1,0.2h-1.4h-0.5L40.6,32.3z"/>
<path class="st3" d="M38,25.1c0.5,0.1,1,0.3,1.5,0.4h0.2l-0.1,0.3h-0.1c-0.3-0.1-0.7-0.2-1-0.3l0,0l0,0L38,25.1z"/>
<path class="st15" d="M38.6,25.5L38.6,25.5z"/>
<path class="st15" d="M48.1,30.2L48.1,30.2L48.1,30.2z"/>
<path class="st15" d="M47.5,29.1L47.5,29.1L47.5,29.1z"/>
</svg>
