<?xml version="1.0" encoding="utf-8"?>
<!-- Generator: Adobe Illustrator 21.1.0, SVG Export Plug-In . SVG Version: 6.00 Build 0)  -->
<svg version="1.1" id="Layer_1" xmlns="http://www.w3.org/2000/svg" xmlns:xlink="http://www.w3.org/1999/xlink" x="0px" y="0px"
	 viewBox="0 0 80.6 62.3" style="enable-background:new 0 0 80.6 62.3;" xml:space="preserve">
<style type="text/css">
	.st0{fill:#FFFFFF;stroke:#808083;stroke-width:1.32;stroke-miterlimit:10;}
</style>
<title>INDIVIDUAL ICONS 3</title>
<path class="st0" d="M21.4,59.7c-11.4,0.1-20.6-9-20.8-20.4s9-20.6,20.4-20.8c8.2-0.1,15.6,4.7,18.9,12.1l-2.1,1
	c-4.2-9.1-14.9-13.1-24-8.9S0.8,37.7,5,46.8c3,6.4,9.4,10.5,16.4,10.5h0.3v2.3H21.4z"/>
<rect x="21.4" y="57.4" class="st0" width="29.6" height="2.3"/>
<path class="st0" d="M60,21.5C59.2,11.1,50.6,3,40.2,3C30.3,3,22,10.2,20.5,19.9l-2.3-0.4C19.9,8.7,29.2,0.7,40.2,0.7
	c11.6,0.1,21.2,9.1,22.1,20.7L60,21.5z"/>
<path class="st0" d="M59.4,61.6c-9.9,0-18.4-7.2-20.1-16.9l2.3-0.4c1.9,9.8,11.4,16.3,21.2,14.4c9.8-1.9,16.3-11.4,14.4-21.2
	c-1.6-8.4-8.8-14.5-17.4-14.7l0-2.3c11.4,0.3,20.3,9.8,20,21.2C79.5,52.7,70.5,61.5,59.4,61.6L59.4,61.6z"/>
</svg>
