<?xml version="1.0" encoding="utf-8"?>
<!-- Generator: Adobe Illustrator 21.1.0, SVG Export Plug-In . SVG Version: 6.00 Build 0)  -->
<svg version="1.1" id="Layer_1" xmlns="http://www.w3.org/2000/svg" xmlns:xlink="http://www.w3.org/1999/xlink" x="0px" y="0px"
	 viewBox="0 0 59.7 59.9" style="enable-background:new 0 0 59.7 59.9;" xml:space="preserve">
<style type="text/css">
	.st0{fill:#FFFFFF;stroke:#1975B8;stroke-width:2;stroke-miterlimit:10;}
	.st1{fill:#89C542;}
	.st2{fill:#06ADCF;}
	.st3{fill:#FFFFFF;}
	.st4{fill:#074469;}
</style>
<title>INDIVIDUAL ICONS 2</title>
<ellipse class="st0" cx="29.8" cy="30" rx="28.8" ry="29"/>
<rect x="14.5" y="12.8" class="st1" width="14.4" height="14.5"/>
<rect x="14.5" y="29" class="st2" width="14.4" height="14.5"/>
<rect x="30.6" y="12.8" class="st2" width="14.4" height="14.5"/>
<rect x="30.6" y="29" class="st1" width="14.4" height="14.5"/>
<rect x="16.8" y="14.7" class="st3" width="0.9" height="10.5"/>
<rect x="25.9" y="14.7" class="st3" width="0.9" height="10.5"/>
<rect x="22.9" y="14.7" class="st3" width="0.9" height="10.5"/>
<rect x="19.8" y="14.7" class="st3" width="0.9" height="10.5"/>
<rect x="32.8" y="14.7" class="st3" width="0.9" height="10.5"/>
<rect x="42" y="14.7" class="st3" width="0.9" height="10.5"/>
<rect x="38.9" y="14.7" class="st3" width="0.9" height="10.5"/>
<rect x="35.9" y="14.7" class="st3" width="0.9" height="10.5"/>
<rect x="16.8" y="30.9" class="st3" width="0.9" height="10.5"/>
<rect x="25.9" y="30.9" class="st3" width="0.9" height="10.5"/>
<rect x="22.9" y="30.9" class="st3" width="0.9" height="10.5"/>
<rect x="19.8" y="30.9" class="st3" width="0.9" height="10.5"/>
<rect x="32.8" y="30.9" class="st3" width="0.9" height="10.5"/>
<rect x="42" y="30.9" class="st3" width="0.9" height="10.5"/>
<rect x="38.9" y="30.9" class="st3" width="0.9" height="10.5"/>
<rect x="35.9" y="30.9" class="st3" width="0.9" height="10.5"/>
<polygon class="st4" points="49.4,47.2 10.3,47.2 10.3,39.2 12.3,39.2 12.3,45.1 47.3,45.1 47.3,39.2 49.4,39.2 "/>
</svg>
