<?xml version="1.0" encoding="utf-8"?>
<!-- Generator: Adobe Illustrator 21.1.0, SVG Export Plug-In . SVG Version: 6.00 Build 0)  -->
<svg version="1.1" id="Layer_1" xmlns="http://www.w3.org/2000/svg" xmlns:xlink="http://www.w3.org/1999/xlink" x="0px" y="0px"
	 viewBox="0 0 59.5 60" style="enable-background:new 0 0 59.5 60;" xml:space="preserve">
<style type="text/css">
	.st0{fill:#4D5D68;}
	.st1{fill:#2BBAA7;}
	.st2{fill:#31B8DC;}
	.st3{fill:none;stroke:#FFFFFF;stroke-width:0.5;stroke-miterlimit:10;}
</style>
<title>INDIVIDUAL ICONS 2</title>
<polygon class="st0" points="7.9,43.4 0,28.3 9,13.9 26,14.6 33.9,29.6 24.8,44 "/>
<polygon class="st1" points="33.9,29.7 25.7,14.7 34.4,0 51.3,0.3 59.5,15.3 50.8,30 "/>
<path class="st2" d="M32.6,59.3l-7.8-15.2l9.1-14.5L50.7,30l7.8,15.5l-9,14.5L32.6,59.3z"/>
<line class="st3" x1="25.4" y1="15" x2="33.8" y2="29.4"/>
<line class="st3" x1="33.8" y1="29.4" x2="50.1" y2="29.2"/>
<ellipse transform="matrix(1.999600e-02 -0.9998 0.9998 1.999600e-02 4.2076 62.1118)" class="st3" cx="33.8" cy="28.9" rx="17.3" ry="17.3"/>
<polygon class="st3" points="37.8,21.8 50.1,29.2 37.6,36.2 25,43.2 25.2,28.8 25.4,14.4 "/>
<line class="st3" x1="33.8" y1="29.4" x2="25" y2="43.2"/>
</svg>
