<?xml version="1.0" encoding="utf-8"?>
<!-- Generator: Adobe Illustrator 21.1.0, SVG Export Plug-In . SVG Version: 6.00 Build 0)  -->
<svg version="1.1" id="Layer_1" xmlns="http://www.w3.org/2000/svg" xmlns:xlink="http://www.w3.org/1999/xlink" x="0px" y="0px"
	 viewBox="0 0 64.8 50.2" style="enable-background:new 0 0 64.8 50.2;" xml:space="preserve">
<style type="text/css">
	.st0{fill:#FFFFFF;stroke:#808184;stroke-width:1.32;stroke-miterlimit:10;}
</style>
<title>INDIVIDUAL ICONS 2</title>
<path class="st0" d="M17.3,48C8.2,48.1,0.7,40.7,0.7,31.6C0.6,22.5,7.9,15.1,17,15c6.5-0.1,12.5,3.7,15.2,9.7l-1.7,0.8
	c-3.4-7.3-12-10.4-19.3-7s-10.4,12-7,19.3c2.4,5.1,7.5,8.4,13.1,8.4h0.3V48H17.3L17.3,48z"/>
<rect x="17.3" y="46.1" class="st0" width="23.8" height="1.9"/>
<path class="st0" d="M48.3,17.4C47.6,9,40.7,2.6,32.3,2.5c-7.9,0-14.6,5.8-15.7,13.6l-1.8-0.3c1.3-8.7,8.8-15.1,17.6-15.1
	c9.3,0.1,17,7.3,17.7,16.6L48.3,17.4z"/>
<path class="st0" d="M47.8,49.5c-7.9,0-14.7-5.7-16.1-13.6l1.8-0.3c1.5,7.9,9.2,13,17,11.5c7.9-1.5,13-9.2,11.5-17
	c-1.3-6.7-7.1-11.6-13.9-11.8v-1.9c9.1,0.3,16.3,7.9,16,17.1C63.8,42.4,56.6,49.4,47.8,49.5L47.8,49.5z"/>
</svg>
