<?xml version="1.0" encoding="utf-8"?>
<!-- Generator: Adobe Illustrator 21.1.0, SVG Export Plug-In . SVG Version: 6.00 Build 0)  -->
<svg version="1.1" id="Layer_1" xmlns="http://www.w3.org/2000/svg" xmlns:xlink="http://www.w3.org/1999/xlink" x="0px" y="0px"
	 viewBox="0 0 60 60" style="enable-background:new 0 0 60 60;" xml:space="preserve">
<style type="text/css">
	.st0{fill:#5F92CD;}
	.st1{fill:#325C80;}
	.st2{fill:#4278BB;}
	.st3{fill:#FFFFFF;}
	.st4{fill:#274B60;}
</style>
<title>INDIVIDUAL ICONS 2</title>
<circle class="st0" cx="30" cy="30" r="30"/>
<path class="st1" d="M12.3,19.4h38v2.7h-38L12.3,19.4z M12.3,28.5h28.9v2.7H12.3V28.5z M12.7,38h33.5v2.7H12.7V38z"/>
<circle class="st2" cx="18.9" cy="25" r="12.1"/>
<path class="st3" d="M13.1,18.6h15.8v4.6H13.1V18.6z M13.1,27.6h16.4v4.6H13.1V27.6z"/>
<path class="st4" d="M27.9,37.1l3.1-3.1l9.6,9.6l-3.1,3.1L27.9,37.1z"/>
<circle class="st4" cx="28.4" cy="34.2" r="3.1"/>
<path class="st4" d="M18.2,37.7c-7.2,0-13-5.8-13-13s5.8-13,13-13s13,5.8,13,13S25.4,37.7,18.2,37.7z M18.2,15
	c-5.3,0-9.6,4.3-9.6,9.6s4.3,9.6,9.6,9.6s9.6-4.3,9.6-9.6v0C27.8,19.3,23.5,15,18.2,15C18.2,15,18.2,15,18.2,15L18.2,15z"/>
</svg>
