<svg id="Layer_1" xmlns="http://www.w3.org/2000/svg" width="1000" height="1000" viewBox="-915 -139 1000 1000"><style>.st0{fill:#AF6EE8;} .st1{fill:#562F72;} .st2{fill:#FFFFFF;} .st3{fill:#734098;}</style><circle class="st0" cx="-415" cy="361" r="500"/><path class="st1" d="M-418.2 481c0 40.6-14.8 77.4-37.4 107.7-19.4 25.2-83.9 113.5-135.5 159.4v-89.7h-5.2c-98.1 0-176.8-79.4-176.8-177.4s80-177.4 177.4-177.4c97.5 0 177.5 79.3 177.5 177.4z"/><circle class="st2" cx="-513.1" cy="476.5" r="20.6"/><circle class="st2" cx="-595" cy="476.5" r="20.6"/><circle class="st2" cx="-676.3" cy="476.5" r="20.6"/><g><path class="st2" d="M-557.6 140.4l-24.5-20 42.6-52.3-51.6-43.2 20-25.2 77.4 63.9z"/><path class="st2" d="M-755.6 310.7c-3.2-28.4-1.3-57.4 5.2-84.5 16.8-69 63.2-126.5 127.7-158.1 23.9-11.6 50.3-19.4 76.8-22.6l4.5 38.7c-22.6 2.6-44.5 9-64.5 18.7-53.5 25.8-92.3 74.2-107.1 132.3-5.8 23.2-7.1 47.1-4.5 71l-38.1 4.5z"/></g><g><path class="st2" d="M-24.7 530h-431.6V1.6h320l111.6 111z"/><path class="st3" d="M-386.6 149.4h304.5V201h-304.5zM-386.6 261.6h218.7v51.6h-218.7zM-386.6 368.1H-115v51.6h-271.6z"/><path class="st1" d="M-24.7 113.9h-112.2V1.6z"/></g></svg>