<svg id="uuid-cfb7345c-5764-4e07-8795-2d90bf4ee9fa"
	xmlns="http://www.w3.org/2000/svg" width="18" height="18" viewBox="0 0 18 18">
	<defs>
		<linearGradient id="uuid-bcc3f115-baaa-4965-acc2-5ee94031e9e4" x1="-555.066" y1="1011.491" x2="-555.066" y2="1021.414" gradientTransform="translate(564 1025.516) scale(1 -1)" gradientUnits="userSpaceOnUse">
			<stop offset=".16" stop-color="#6f4bb2" />
			<stop offset=".32" stop-color="#7450b5" />
			<stop offset=".51" stop-color="#825dbf" />
			<stop offset=".72" stop-color="#9a72ce" />
			<stop offset=".94" stop-color="#bb90e4" />
			<stop offset="1" stop-color="#c69aeb" />
		</linearGradient>
	</defs>
	<rect x="9.098" width="8.902" height="2.434" rx=".298" ry=".298" fill="#9cebff" />
	<rect x="16.616" y=".426" width=".665" height=".665" rx=".149" ry=".149" fill="#fff" />
	<rect x="16.616" y="1.343" width=".665" height=".665" rx=".149" ry=".149" fill="#fff" isolation="isolate" opacity=".6" />
	<rect x="9.098" y="2.885" width="8.902" height="2.434" rx=".298" ry=".298" fill="#41d2ee" />
	<rect x="16.616" y="3.31" width=".665" height=".665" rx=".149" ry=".149" fill="#fff" />
	<rect x="16.616" y="4.227" width=".665" height=".665" rx=".149" ry=".149" fill="#fff" isolation="isolate" opacity=".6" />
	<rect x="9.098" y="5.769" width="8.902" height="2.434" rx=".298" ry=".298" fill="#198ab3" />
	<rect x="16.616" y="6.194" width=".665" height=".665" rx=".149" ry=".149" fill="#fff" />
	<rect x="16.616" y="7.111" width=".665" height=".665" rx=".149" ry=".149" fill="#fff" isolation="isolate" opacity=".6" />
	<rect x="-.016" y="9.798" width="8.9" height="2.434" rx=".298" ry=".298" fill="#83b9f9" />
	<rect x="7.501" y="10.224" width=".665" height=".665" rx=".149" ry=".149" fill="#fff" />
	<rect x="7.501" y="11.141" width=".665" height=".665" rx=".149" ry=".149" fill="#fff" isolation="isolate" opacity=".6" />
	<rect x="-.016" y="12.683" width="8.9" height="2.434" rx=".298" ry=".298" fill="#2e8ce1" />
	<rect x="7.501" y="13.108" width=".665" height=".665" rx=".149" ry=".149" fill="#fff" />
	<rect x="7.501" y="14.025" width=".665" height=".665" rx=".149" ry=".149" fill="#fff" isolation="isolate" opacity=".6" />
	<rect x="-.016" y="15.566" width="8.9" height="2.434" rx=".298" ry=".298" fill="#005ba1" />
	<rect x="7.501" y="15.992" width=".665" height=".665" rx=".149" ry=".149" fill="#fff" />
	<rect x="7.501" y="16.909" width=".665" height=".665" rx=".149" ry=".149" fill="#fff" isolation="isolate" opacity=".6" />
	<g>
		<path d="m10.854,4.101h-3.841c-.088,0-.172.036-.233.099l-2.709,2.709c-.063.061-.099.145-.099.233v3.841c0,.088.036.172.099.233l2.709,2.709c.061.063.145.099.233.099h3.841c.088,0,.172-.036.233-.099l2.709-2.709c.063-.061.099-.145.099-.233v-3.841c0-.088-.036-.172-.099-.233l-2.709-2.709c-.061-.063-.145-.099-.233-.099Z" fill="url(#uuid-bcc3f115-baaa-4965-acc2-5ee94031e9e4)" />
		<path d="m13.125,7.259l-2.387-2.388c-.031-.031-.073-.047-.117-.047h-3.374c-.044,0-.086.016-.117.047l-2.388,2.388c-.031.031-.047.073-.047.117v3.374c0,.043.017.085.047.117l2.388,2.388c.031.031.073.047.117.047h3.374c.044,0,.086-.016.117-.047l2.387-2.388c.029-.032.046-.073.047-.117v-3.374c0-.044-.016-.086-.047-.117Zm-.21,3.181l-1.839-1.839.444-.449c.039-.034.042-.093.008-.132-.003-.003-.005-.006-.008-.008-.021-.008-.043-.008-.064,0l-1.582-.041c-.053,0-.096.041-.099.093l.041,1.582c0,.052.042.093.093.094.002,0,.004,0,.006,0,.022.011.048.011.07,0l.496-.49,1.956,1.926-1.483,1.483-2.02-2.014.467-.414c.039-.034.042-.093.008-.132-.003-.003-.005-.006-.008-.008-.017-.018-.04-.028-.064-.029l-1.57-.07c-.053,0-.096.041-.099.093l.041,1.582c0,.052.042.094.093.094.002,0,.004,0,.006,0,.026,0,.052-.011.07-.029l.473-.484,1.798,1.798h-2.866l-2.335-2.335v-3.298l.736-.73,1.5,1.471c.03.033.03.083,0,.117l-.041.041-.584.584c-.029.035-.025.086.01.115.014.011.031.018.049.019h2.218c.045,0,.082-.037.082-.082v-2.189c.008-.053-.029-.103-.082-.111-.053-.008-.103.029-.111.082l-.584.584-.041.041c-.033.03-.083.03-.117,0l-1.5-1.477.8-.8h3.304l2.335,2.335-.006,3.03Z" fill="#f2f2f2" />
	</g>
</svg>