<svg id="uuid-e40305a6-fa61-47ba-b28b-6ea940289656"
	xmlns="http://www.w3.org/2000/svg" width="18" height="18" viewBox="0 0 18 18">
	<defs>
		<linearGradient id="uuid-a6aae5d5-bfca-44a6-a803-5291b9b43298" x1="8.957" y1="3.171" x2="8.957" y2="14.829" gradientTransform="matrix(1, 0, 0, 1, 0, 0)" gradientUnits="userSpaceOnUse">
			<stop offset="0" stop-color="#50e6ff" />
			<stop offset=".5" stop-color="#32bedd" />
		</linearGradient>
	</defs>
	<path d="M10.604,9.561v-1.109c-.046-.181-.065-.368-.055-.555h-3.217c.009,.187-.009,.374-.055,.555v1.109c.046,.181,.065,.368,.055,.555h3.217c-.009-.187,.009-.374,.055-.555Zm.277-2.719c.063,.159,.101,.327,.111,.498l1.444,.004c-.109-.233-.238-.456-.388-.665l-.498-.555-.67-.443-.664-.335c.105,.14,.197,.288,.277,.444l.222,.498,.166,.555Zm0,5.491l.665-.443,.498-.555c.151-.209,.282-.432,.392-.665h-1.444c-.01,.171-.047,.339-.111,.498l-.166,.554-.222,.498c-.08,.156-.172,.305-.277,.446,.241-.066,.467-.179,.665-.332Zm3.147-4.552l.575-.578c-.638-2.013-2.32-3.56-4.41-4.008v.727c1.893,.467,3.38,1.962,3.835,3.859Zm-8.967,1.226c-.004,.376,.052,.751,.166,1.109h1.552c.009-.187-.01-.373-.055-.555v-1.109c.046-.181,.064-.368,.055-.555h-1.552c-.114,.359-.17,.733-.166,1.109Zm1.94-2.161l.166-.555,.222-.498c.08-.157,.173-.306,.278-.448-.242,.066-.468,.179-.665,.333l-.665,.446-.498,.555c-.15,.209-.281,.432-.39,.665h1.442c.01-.171,.047-.339,.111-.498Zm-.665,5.044l.665,.443c.198,.154,.424,.267,.665,.332-.105-.14-.197-.288-.278-.443l-.222-.498-.166-.554c-.063-.159-.101-.327-.111-.498l-1.442-.002c.109,.233,.239,.456,.39,.665l.498,.555Zm4.102-1.218h-2.994c.018,.134,.055,.265,.111,.388l.166,.498c.051,.175,.125,.343,.222,.498l.277,.388,.333,.333,.388,.111,.388-.111,.332-.333,.277-.388c.096-.155,.171-.323,.222-.498l.166-.498c.056-.123,.093-.254,.111-.388Zm-6.56-.357l-.567,.57c.672,2.007,2.383,3.536,4.497,3.945v-.72c-1.917-.425-3.438-1.904-3.93-3.795Zm6.314,3.765v.727c2.09-.449,3.772-1.995,4.41-4.008l-.575-.578c-.455,1.897-1.943,3.392-3.835,3.859ZM7.808,3.891v-.72c-2.114,.409-3.825,1.938-4.497,3.945l.567,.57c.492-1.892,2.012-3.37,3.93-3.795Zm5.014,5.116c.003-.376-.053-.751-.167-1.109h-1.552c-.009,.187,.009,.374,.055,.555v1.109c-.046,.181-.065,.368-.055,.555h1.552c.114-.359,.17-.733,.167-1.109Zm-5.266-2.053c-.056,.123-.093,.254-.111,.388h2.994c-.018-.134-.055-.265-.111-.388l-.166-.498c-.051-.175-.126-.343-.222-.498l-.277-.388-.332-.332-.388-.111-.388,.111-.333,.332-.277,.388c-.096,.155-.171,.323-.222,.498l-.166,.498Z" fill="url(#uuid-a6aae5d5-bfca-44a6-a803-5291b9b43298)" />
	<path d="M6.88,2.321h1.24c.061,0,.11,.049,.11,.11v2c0,.061,.049,.11,.11,.11h1.32c.061,0,.11-.049,.11-.11V2.431c0-.061,.049-.11,.11-.11h1.24c.054,.013,.108-.019,.121-.073,.01-.041-.006-.084-.041-.107L9.08,.031c-.046-.041-.114-.041-.16,0l-2.12,2.11c-.046,.031-.058,.093-.027,.139,.023,.035,.066,.051,.107,.041Zm4.24,13.358h-1.24c-.061,0-.11-.049-.11-.11v-2c0-.061-.049-.11-.11-.11h-1.32c-.061,0-.11,.049-.11,.11v2c0,.061-.049,.11-.11,.11h-1.24c-.041-.01-.084,.006-.107,.041-.031,.046-.019,.108,.027,.139l2.12,2.11c.046,.041,.114,.041,.16,0l2.12-2.11c.035-.023,.051-.066,.041-.107-.013-.054-.068-.086-.121-.073Z" fill="#0078d4" />
	<path d="M17.89,8.23h-2c-.061,0-.11-.049-.11-.11v-1.24c.013-.054-.019-.108-.073-.121-.041-.01-.084,.006-.107,.041l-2.11,2.12c-.041,.046-.041,.114,0,.16l2.11,2.12c.031,.046,.093,.058,.139,.027,.035-.023,.051-.066,.041-.107v-1.24c0-.061,.049-.11,.11-.11h2c.061,0,.11-.049,.11-.11v-1.32c0-.061-.049-.11-.11-.11ZM2.4,6.8c-.024-.035-.066-.051-.107-.041-.054,.013-.086,.068-.073,.121v1.24c0,.061-.049,.11-.11,.11H.11c-.061,0-.11,.049-.11,.11v1.32c0,.061,.049,.11,.11,.11H2.11c.061,0,.11,.049,.11,.11v1.24c-.01,.041,.006,.084,.041,.107,.046,.031,.108,.019,.139-.027l2.11-2.12c.041-.046,.041-.114,0-.16l-2.11-2.12Z" fill="#86d633" />
</svg>