<svg
	xmlns="http://www.w3.org/2000/svg" width="18" height="13.06">
	<path d="M6 8.11V6.16h10.35V.64a.64.64 0 0 0-.64-.64H.64A.64.64 0 0 0 0 .64v7.75a.64.64 0 0 0 .64.64H9v-.92zm1.85-2.58H3.42v-2h4.43zm5.15 0H8.53v-2H13zm2.59 0h-1.88v-2h1.84zM11.12.9h4.43v2h-4.43zM6 .9h4.43v2H6zM.9.9h4.44v2H.9zm0 2.63h1.85v2H.9zm4.44 4.58H.9V6.16h4.44z" fill="#821010"/>
	<path fill="#e62323" d="M.9.9h4.43v1.96H.9z"/>
	<path fill="#ff7381" d="M6.01.9h4.43v1.96H6.01z"/>
	<path d="M11.12.9h4.43v1.96h-4.43zM.9 3.53h1.84v1.96H.9z" fill="#e62323"/>
	<path d="M13.71 3.53h1.84v1.96h-1.84zm-10.29 0h4.43v1.96H3.42z" fill="#ff7381"/>
	<path d="M8.53 3.53h4.43v1.96H8.53zM.9 6.16h4.43v1.96H.9z" fill="#e62323"/>
	<path d="M9 6.4a.25.25 0 0 1 .26-.24H6v1.95h3v-1.7z" fill="#ff7381"/>
	<path d="M18 6.41v.95H9v5.44a.27.27 0 0 0 .28.26h8.41a.28.28 0 0 0 .29-.26V6.41zM9.72 8.74a.37.37 0 1 1 .37.37.38.38 0 0 1-.37-.37zm.37 3.36a.37.37 0 1 1 .37-.37.38.38 0 0 1-.37.37zm0-1.58a.38.38 0 0 1-.37-.37.37.37 0 0 1 .74 0 .38.38 0 0 1-.37.38zM17 11.88c0 .07-.1.13-.22.13h-5.55c-.12 0-.22-.06-.22-.13v-.35c0-.06.1-.12.22-.12h5.55c.12 0 .22.06.22.12zm0-1.58c0 .07-.1.13-.22.13h-5.55c-.12 0-.22-.06-.22-.13v-.31c0-.07.1-.12.22-.12h5.55c.12 0 .22.05.22.12zm0-1.41c0 .07-.1.13-.22.13h-5.55c-.12 0-.22-.06-.22-.13v-.31c0-.06.1-.12.22-.12h5.55c.12 0 .22.06.22.12z" fill="#e6e6e6"/>
	<g fill="#666">
		<path d="M9.29 6.15h0A.25.25 0 0 0 9 6.4h0v.95h9v-.94h0a.26.26 0 0 0-.27-.24H9.29zm7.49 3.72h-5.55c-.12 0-.22.05-.22.12v.31c0 .07.1.13.22.13h5.55c.12 0 .22-.06.22-.13v-.31c0-.07-.1-.12-.22-.12zm0-1.41h-5.55c-.12 0-.22.06-.22.12v.31c0 .07.1.13.22.13h5.55c.12 0 .22-.06.22-.13v-.31c0-.05-.1-.12-.22-.12zm0 2.99h-5.55c-.12 0-.22.06-.22.12v.31c0 .07.1.13.22.13h5.55c.12 0 .22-.06.22-.13v-.35s-.1-.08-.22-.08z"/>
		<circle cx="10.09" cy="8.74" r=".37"/>
		<circle cx="10.09" cy="10.15" r=".37"/>
		<circle cx="10.09" cy="11.73" r=".37"/>
	</g>
</svg>