<svg id="uuid-4d47dfe6-6586-471c-b491-64c15961d726"
	xmlns="http://www.w3.org/2000/svg" width="18" height="18" viewBox="0 0 18 18">
	<defs>
		<radialGradient id="uuid-11497cae-ae4c-44de-94fb-2481eee19e25" cx="6.956" cy="6.908" r="6.77" gradientUnits="userSpaceOnUse">
			<stop offset=".18" stop-color="#5ea0ef" />
			<stop offset="1" stop-color="#0078d4" />
		</radialGradient>
		<linearGradient id="uuid-2797d0eb-76b3-4768-ab8a-c8d61f6e224a" x1="-550.016" y1="1007.916" x2="-550.016" y2="1016.72" gradientTransform="translate(564 1025.516) scale(1 -1)" gradientUnits="userSpaceOnUse">
			<stop offset="0" stop-color="#5e9624" />
			<stop offset=".321" stop-color="#639d26" />
			<stop offset=".794" stop-color="#6fb12a" />
			<stop offset=".999" stop-color="#76bc2d" />
		</linearGradient>
	</defs>
	<g>
		<path d="m9.533,12.881v-3.108c.002-.379.311-.691.684-.696,1.178-.031,1.547-.288,1.938-.56.303-.211.64-.444,1.266-.533.325-1.787-.066-3.697-1.235-5.264C9.949-.276,5.707-.891,2.711,1.345l-.072.048C-.316,3.685-.855,7.939,1.437,10.895c1.949,2.514,5.316,3.278,8.098,2.041,0-.018-.002-.037-.002-.055Z" fill="url(#uuid-11497cae-ae4c-44de-94fb-2481eee19e25)" />
		<path d="m2.56,5.152c.306-.044.615-.065.924-.064.49-.039.977.109,1.362.414.309.307.479.727.47,1.163.025.484-.151.956-.486,1.306-.412.349-.943.523-1.481.486-.266.001-.532-.012-.796-.04l.008-3.265Zm.438,2.971c.146.01.292.01.438,0,.708.08,1.347-.429,1.427-1.137.011-.101.011-.204-.002-.305.06-.657-.425-1.238-1.082-1.298-.093-.008-.187-.006-.28.008-.167-.017-.335-.017-.502,0v2.732Z" fill="#fff" />
		<path d="m5.881,8.426v-3.353h.47l1.075,1.673c.225.35.427.715.605,1.091h0c-.04-.446-.048-.852-.048-1.378v-1.386h.398v3.353h-.438l-1.051-1.681c-.231-.374-.454-.796-.629-1.115h0v2.819l-.382-.024Z" fill="#fff" />
		<path d="m9.091,7.9c.242.14.517.215.796.215.446,0,.701-.231.701-.573s-.175-.494-.629-.661-.892-.478-.892-.956c.031-.536.49-.945,1.026-.914.022.001.043.003.065.006.256-.007.51.047.741.159l-.127.358c-.195-.107-.415-.162-.637-.159-.462,0-.637.271-.637.502s.207.47.669.645.86.494.86.988-.382.964-1.179.964c-.298.003-.592-.071-.852-.215l.096-.358Z" fill="#fff" />
		<path d="m9.533,11.839c-.39.203-.802.364-1.232.472.51-.644.875-1.391,1.068-2.189.055.013.109.027.164.042v-.377c-.026-.007-.053-.015-.079-.022.062-.28.116-.567.155-.869l-.366.088c-.04.247-.08.494-.135.725-1.6-.327-3.25-.327-4.85,0-.056-.215-.096-.446-.135-.685-.004-.024-.004-.048,0-.072l-.366-.104c-.004.074-.004.149,0,.223,0,.255.088.494.135.725-.568.125-1.108.355-1.593.677-1.815-2.178-1.778-5.352.088-7.487.507.326,1.068.558,1.657.685-.056.191-.104.398-.143.605-.04.207,0,.199-.064.295l.374-.088v-.135c.048-.207.096-.406.151-.597.801.147,1.615.211,2.429.191.743,0,1.484-.069,2.214-.207.056.215.112.446.159.677l.366.088c-.058-.287-.122-.552-.191-.796.646-.142,1.264-.386,1.832-.725,1.334,1.51,1.741,3.548,1.22,5.382.106-.067.223-.133.356-.191.109-.457.168-.933.168-1.424-.004-3.381-2.744-6.12-6.125-6.125C3.406.62.664,3.362.664,6.745s2.742,6.125,6.125,6.125c.987,0,1.918-.235,2.744-.649v-.381Zm1.358-9.156c-.534.3-1.112.515-1.712.637-.208-.768-.544-1.495-.996-2.15,1.025.246,1.961.77,2.708,1.513ZM6.789.963c.291,0,.581.024.868.072.583.693.999,1.511,1.219,2.389-1.435.263-2.906.263-4.341,0,.219-.861.63-1.662,1.203-2.342.346-.072.698-.112,1.051-.119Zm-1.593.207c-.457.649-.799,1.37-1.011,2.134-.538-.109-1.051-.317-1.513-.613.698-.714,1.567-1.238,2.525-1.521Zm-2.612,9.557c.431-.288.912-.493,1.418-.605.198.791.564,1.53,1.075,2.166-.952-.296-1.811-.834-2.493-1.561Zm4.205,1.8c-.385,0-.77-.039-1.147-.119-.667-.65-1.129-1.48-1.33-2.389,1.545-.315,3.138-.315,4.683,0-.206.911-.674,1.742-1.346,2.389l.04.072c-.298.04-.599.056-.9.048Z" fill="#5ea0ef" />
	</g>
	<path d="m12.239,3.226c.023.017.051.034.08.051-.016-.005-.032-.013-.046-.023-.013-.008-.024-.017-.034-.028Z" fill="#0078d4" />
	<g>
		<path d="m17.984,12.881c0,2.581-3.177,4.659-3.868,5.083-.081.049-.182.049-.263,0-.691-.422-3.868-2.5-3.868-5.083v-3.106c0-.135.11-.246.245-.247,2.472-.064,1.903-1.129,3.755-1.129s1.283,1.065,3.755,1.129c.135.002.244.111.245.246v3.108Z" fill="#76bc2d" />
		<path d="m17.654,12.907c0,2.367-2.914,4.273-3.548,4.659-.074.045-.167.045-.242,0-.636-.386-3.552-2.292-3.552-4.659v-2.849c0-.125.101-.226.226-.226h0c2.268-.06,1.746-1.037,3.445-1.037s1.177.977,3.445,1.037c.125,0,.226.101.226.226v2.848Z" fill="url(#uuid-2797d0eb-76b3-4768-ab8a-c8d61f6e224a)" />
		<path d="m15.595,12.441h-.23v-.8c.002-.378-.139-.743-.395-1.022-.496-.543-1.338-.582-1.881-.086-.03.027-.058.056-.086.086-.258.277-.4.643-.395,1.021v.801h-.234c-.1,0-.182.081-.184.181v2.079c.003.1.084.18.184.181h3.222c.1,0,.181-.081.184-.181v-2.079c-.002-.1-.084-.18-.184-.181Zm-.875,0h-1.471v-.814c.002-.209.085-.41.232-.559.25-.279.678-.302.957-.053.019.017.036.034.053.053.032.035.061.073.086.113h0c.091.131.142.287.146.447l-.003.813Z" fill="#fff" />
		<path d="m12.373,12.44h3.222c.044,0,.086.017.119.045l-3.459,2.35c-.041-.033-.065-.083-.066-.136v-2.078c.002-.1.084-.181.184-.181Z" fill="#b3b3b3" isolation="isolate" opacity=".15" />
		<path d="m15.595,12.44h-3.222c-.043,0-.085.017-.118.045l3.458,2.35c.041-.033.065-.083.066-.136v-2.078c-.002-.1-.084-.18-.184-.181Z" fill="#a3a3a3" isolation="isolate" opacity=".09" />
	</g>
</svg>