<svg id="uuid-989ebc71-d7e8-4fda-be52-90a3aa78eb6e"
	xmlns="http://www.w3.org/2000/svg" width="18" height="18" viewBox="0 0 18 18">
	<path d="m9.405,0h8.298c.164,0,.297.133.297.297v1.836c0,.164-.133.297-.297.297h-8.298c-.164,0-.297-.133-.297-.297V.298C9.107.133,9.241,0,9.405,0Z" fill="#9cebff" />
	<path d="m9.405,2.882h8.298c.164,0,.297.133.297.297v1.836c0,.164-.133.298-.298.298h-8.298c-.164,0-.297-.133-.297-.297v-1.836c0-.164.133-.297.297-.297Z" fill="#41d2ee" />
	<rect x="9.107" y="5.763" width="8.893" height="2.431" rx=".297" ry=".297" fill="#198ab3" />
	<rect x="16.617" y=".426" width=".665" height=".665" rx=".148" ry=".148" fill="#fff" />
	<rect x="16.617" y="1.342" width=".665" height=".665" rx=".148" ry=".148" fill="#e2f2f2" />
	<rect x="16.617" y="3.307" width=".665" height=".665" rx=".148" ry=".148" fill="#fff" />
	<rect x="16.617" y="4.223" width=".665" height=".665" rx=".148" ry=".148" fill="#bdedef" />
	<rect x="16.617" y="6.188" width=".665" height=".665" rx=".148" ry=".148" fill="#fff" />
	<rect x="16.617" y="7.104" width=".665" height=".665" rx=".148" ry=".148" fill="#bdedef" />
	<rect y="9.807" width="8.891" height="2.431" rx=".297" ry=".297" fill="#83b9f9" />
	<rect y="12.688" width="8.891" height="2.431" rx=".297" ry=".297" fill="#2e8ce1" />
	<rect y="15.569" width="8.891" height="2.431" rx=".297" ry=".297" fill="#005ba1" />
	<rect x="7.617" y="14.029" width=".664" height=".664" rx=".148" ry=".148" fill="#68abdd" />
	<rect x="7.617" y="15.994" width=".664" height=".664" rx=".148" ry=".148" fill="#fff" />
	<rect x="7.617" y="16.91" width=".664" height=".664" rx=".148" ry=".148" fill="#97bddd" />
	<g>
		<path id="uuid-f5715330-9e98-403e-8178-567165f6cb1c" d="m12.055,12.969c-2.168,1.681-5.289,1.286-6.97-.882-1.681-2.168-1.286-5.288.882-6.968l.053-.035c2.198-1.64,5.31-1.189,6.95,1.009,1.613,2.16,1.207,5.213-.915,6.877" fill="#0078d4" />
		<path d="m9.011,4.552c-2.481,0-4.493,2.011-4.493,4.492s2.012,4.492,4.493,4.492,4.493-2.011,4.493-4.492c-.003-2.479-2.013-4.489-4.493-4.492Zm3.009,1.513c-.392.22-.816.378-1.256.467-.152-.563-.399-1.096-.73-1.577.752.18,1.439.564,1.986,1.11Zm-3.009-1.262c.213,0,.426.017.637.053h0c.427.509.733,1.108.894,1.752-1.053.193-2.132.193-3.184,0,.16-.632.462-1.219.882-1.717h0c.254-.052.512-.082.771-.088Zm-1.168.152c-.335.476-.586,1.005-.742,1.565-.395-.08-.771-.233-1.11-.45.512-.524,1.15-.908,1.852-1.116Zm-1.916,7.009c.316-.211.669-.361,1.04-.444.145.58.414,1.122.789,1.589-.698-.217-1.328-.612-1.829-1.145Zm3.085,1.32c-.283,0-.565-.029-.841-.088h0c-.489-.477-.828-1.086-.976-1.752,1.133-.231,2.302-.231,3.435,0-.151.668-.491,1.325-.984,1.8,0,0-.413.046-.634.04Zm1.893-1.764c.413.097.808.261,1.168.485-.541.552-1.225.942-1.975,1.127,0,0,.662-1.014.806-1.612Zm.058-.245c.047-.21.088-.426.117-.654l-.269.064c-.029.181-.058.362-.099.532-1.174-.239-2.384-.239-3.558,0-.041-.158-.105-.436-.099-.555l-.269-.076c-.013.168.064.526.099.695-.417.092-.813.26-1.168.496-1.332-1.597-1.304-3.925.064-5.491.372.239.783.409,1.215.502-.041.14-.135.509-.114.651l.237-.055s.07-.397.111-.537c.588.108,1.185.155,1.782.14.545,0,1.089-.051,1.624-.152.041.158.082.327.117.496l.269.064c-.043-.21-.09-.405-.14-.584.474-.104.927-.283,1.344-.532,1.395,1.579,1.41,3.946.035,5.543-.398-.26-.836-.451-1.297-.567v.018Z" fill="#5ea0ef" />
		<path d="m6.587,7.829c-.227-.001-.453.015-.678.047l-.006,2.395c.194.02.389.03.584.029.395.027.785-.101,1.087-.356.246-.257.375-.603.356-.958.007-.319-.118-.628-.345-.853-.283-.224-.64-.332-.999-.304Zm1.012,1.392c-.059.519-.528.893-1.047.834-.107.007-.214.007-.321,0v-2.003c.122-.012.246-.012.368,0,.068-.01.137-.012.206-.006.482.044.837.47.794.952.009.074.01.149.001.224Zm2.289-.387c0,.386.006.683.035,1.011-.131-.276-.279-.543-.444-.8l-.789-1.227h-.345v2.459l.28.018v-2.068c.129.234.292.543.462.818l.771,1.232h.321v-2.459h-.292v1.016Zm1.601.047c-.339-.128-.491-.304-.491-.473s.129-.368.467-.368c.163-.002.324.039.467.117l.094-.263c-.169-.082-.355-.122-.543-.117-.016-.002-.032-.003-.048-.004-.393-.023-.73.277-.753.67,0,.35.321.578.654.701.333.123.462.234.462.485s-.187.421-.514.421c-.205,0-.407-.055-.584-.158l-.07.263c.191.106.407.16.625.158.584,0,.865-.345.865-.707s-.292-.596-.631-.724Z" fill="#fff" />
	</g>
</svg>