<?xml version="1.0" encoding="UTF-8" standalone="no"?>
<svg
   id="uuid-def63458-9ab0-4184-b537-071fd4aa9aab"
   width="18"
   height="15.875003"
   viewBox="0 0 18 15.875003"
   version="1.1"
   xmlns="http://www.w3.org/2000/svg"
   xmlns:svg="http://www.w3.org/2000/svg">
  <defs
     id="defs16">
    <linearGradient
       id="uuid-018f8a21-bcc2-412b-b6c3-c184626c3119"
       x1="7.8239999"
       y1="13.644"
       x2="7.8239999"
       y2="4.395"
       gradientUnits="userSpaceOnUse">
      <stop
         offset="0"
         stop-color="#32bedd"
         id="stop2" />
      <stop
         offset=".18"
         stop-color="#32caea"
         id="stop4" />
      <stop
         offset=".41"
         stop-color="#32d2f2"
         id="stop6" />
      <stop
         offset=".78"
         stop-color="#32d4f5"
         id="stop8" />
    </linearGradient>
    <linearGradient
       id="uuid-a40cb897-dbe1-464d-9058-d250a5951d2c"
       x1="-272.759"
       y1="860.22998"
       x2="-272.759"
       y2="852.711"
       gradientTransform="matrix(1,0,0,-1,287,868.453)"
       gradientUnits="userSpaceOnUse">
      <stop
         offset="0"
         stop-color="#5ea0ef"
         id="stop11" />
      <stop
         offset="1"
         stop-color="#0078d4"
         id="stop13" />
    </linearGradient>
  </defs>
  <g
     id="g24"
     transform="translate(0,-1.0629968)">
    <path
       d="m 10.031,12.739 v -0.328 l 0.312,-0.1 0.832,-0.267 0.082,-0.257 -0.282,-0.749 -0.047,-0.084 -0.165,-0.297 0.24,-0.24 0.602,-0.602 0.225,-0.225 0.287,0.136 0.796,0.379 0.212,-0.086 0.213,-0.648 V 8.868 h 1.655 l 0.107,0.297 0.308,0.854 0.202,0.083 0.035,-0.018 V 4.395 H 0 v 8.724 c 0,0.29 0.235,0.524 0.524,0.524 h 9.507 v -0.905 z"
       fill="url(#uuid-018f8a21-bcc2-412b-b6c3-c184626c3119)"
       stroke-width="0"
       id="path18"
       style="fill:url(#uuid-018f8a21-bcc2-412b-b6c3-c184626c3119)" />
    <path
       d="m 0.526,1.063 h 14.597 c 0.29,0 0.525,0.234 0.526,0.523 0,0 0,0 0,10e-4 V 4.395 H 0.001 V 1.578 C 0.005,1.292 0.239,1.062 0.525,1.063 Z"
       fill="#0078d4"
       stroke-width="0"
       id="path20" />
    <path
       d="m 11.746,6.741 c 0.671,0 1.215,0.544 1.215,1.215 0,0.671 -0.544,1.215 -1.215,1.215 -0.671,0 -1.215,-0.544 -1.215,-1.215 v 0 c 0,-0.671 0.544,-1.215 1.215,-1.215 z M 6.662,7.956 c 0,0.671 0.544,1.215 1.215,1.215 0.671,0 1.215,-0.544 1.215,-1.215 0,-0.671 -0.544,-1.215 -1.215,-1.215 -0.67,0 -1.214,0.542 -1.215,1.213 0,0 0,0.002 0,0.002 z m -3.974,0 c 0,0.671 0.544,1.215 1.215,1.215 0.671,0 1.215,-0.544 1.215,-1.215 0,-0.671 -0.544,-1.215 -1.215,-1.215 0,0 0,0 -10e-4,0 -0.67,0 -1.214,0.543 -1.214,1.214 0,0 0,0 0,0.001 z"
       fill="#0078d4"
       stroke-width="0"
       id="path22" />
  </g>
  <path
     d="m 18,12.478003 v -0.852 h -0.113 l -0.927,-0.288 -0.213,-0.639 0.464,-1.0019998 -0.602,-0.602 h -0.113 l -0.864,0.439 -0.577,-0.238 -0.376,-1.04 H 13.79 v 0.125 l -0.301,0.915 -0.589,0.238 -0.975,-0.464 -0.602,0.602 0.063,0.113 0.348,0.9269998 -0.201,0.627 -1.052,0.338 v 0.915 h 0.125 l 0.914,0.301 0.213,0.563 -0.464,1.003 0.627,0.639 0.125,-0.063 0.852,-0.438 0.589,0.238 0.377,1.04 h 0.852 v -0.125 l 0.301,-0.914 0.589,-0.238 0.99,0.463 0.602,-0.601 -0.063,-0.113 -0.364,-0.905 0.238,-0.588 1.015,-0.373 z m -3.734,1.254 H 14.24 c -0.907,-0.007 -1.636,-0.748 -1.629,-1.654 0.007,-0.907 0.748,-1.636 1.654,-1.629 0.907,0.007 1.636,0.748 1.629,1.654 -0.007,0.897 -0.732,1.622 -1.629,1.629 z"
     fill="url(#uuid-a40cb897-dbe1-464d-9058-d250a5951d2c)"
     stroke-width="0"
     id="path26"
     style="fill:url(#uuid-a40cb897-dbe1-464d-9058-d250a5951d2c)" />
</svg>
