<svg
	xmlns="http://www.w3.org/2000/svg" width="16.998" height="10.175">
	<defs>
		<linearGradient id="A" x1="8.531" y1="6.392" x2="8.531" y2="3.782" gradientUnits="userSpaceOnUse">
			<stop offset="0" stop-color="#5e9624"/>
			<stop offset=".241" stop-color="#6fb02a"/>
			<stop offset=".501" stop-color="#7cc52f"/>
			<stop offset=".756" stop-color="#83d232"/>
			<stop offset="1" stop-color="#86d633"/>
		</linearGradient>
	</defs>
	<path d="M8.529 3.787a1.305 1.305 0 1 0 1.307 1.3 1.305 1.305 0 0 0-1.307-1.3z" fill="url(#A)"/>
	<path d="M5.839 9.462l-.627.629a.284.284 0 0 1-.402.001L.172 5.465a.568.568 0 0 1-.001-.803l.627-.629 5.04 5.026a.284.284 0 0 1 .001.402z" fill="#50e6ff"/>
	<path d="M5.118.083l.628.626a.284.284 0 0 1 .001.402L.793 6.078.167 5.454a.568.568 0 0 1-.001-.803L4.718.085A.284.284 0 0 1 5.12.085z" fill="#1490df"/>
	<path d="M16.2 4.034l.627.629a.568.568 0 0 1-.001.803l-4.639 4.626a.284.284 0 0 1-.402-.001l-.627-.629a.284.284 0 0 1 .001-.402z" fill="#50e6ff"/>
	<path d="M16.831 5.451l-.629.627-4.953-4.967a.284.284 0 0 1 .001-.402l.628-.626a.284.284 0 0 1 .402.001l4.552 4.565a.568.568 0 0 1-.001.803z" fill="#1490df"/>
</svg>