<svg
	xmlns="http://www.w3.org/2000/svg" width="18" height="17.953">
	<defs>
		<linearGradient id="A" x1="9" y1="13.456" x2="9" y2="6.995" gradientUnits="userSpaceOnUse">
			<stop offset="0" stop-color="#0078d4"/>
			<stop offset=".775" stop-color="#5ea0ef"/>
		</linearGradient>
		<linearGradient id="B" x1="9.017" y1="9.494" x2="9.017" y2="10.471" gradientUnits="userSpaceOnUse">
			<stop offset="0" stop-color="#fff"/>
			<stop offset="1" stop-color="#fff" stop-opacity=".6"/>
		</linearGradient>
	</defs>
	<path fill="#9cebff" d="M14.286 8.591v-.016l-2.244-.258V5.875l-.006-.011 1.588-4.062-.788-.302-1.599 4.089.002.001-1.718 1.983-2.706-2-.035-.029L5.198 1.5l-.788.302 1.6 4.09.021-.008 1.451 3.175-3.486-.484-.017.028v-.012l-2.675-.062-.02.844 2.675.062.007-.289 1.767.563.351 1.19-.034 1.368-1.6 4.089.788.303 1.6-4.09-.13-.05 1.261-1.224 3.285.777.411.348-.388.149 1.599 4.09.788-.303-1.599-4.089-.029.011.235-1.701 2.017-1.148v.006l2.705-.062-.019-.844z"/>
	<path d="M18 9.013a1.294 1.294 0 1 1-1.294-1.294A1.294 1.294 0 0 1 18 9.013zM1.294 7.719a1.294 1.294 0 1 0 1.294 1.294 1.294 1.294 0 0 0-1.294-1.294zm3.479 7.646a1.294 1.294 0 1 0 1.293 1.294 1.294 1.294 0 0 0-1.293-1.294zm8.68 0a1.294 1.294 0 1 0 1.293 1.294 1.294 1.294 0 0 0-1.293-1.294zM4.632 0a1.294 1.294 0 1 0 1.294 1.293A1.293 1.293 0 0 0 4.632 0zm8.916 0a1.294 1.294 0 1 0 1.293 1.293A1.293 1.293 0 0 0 13.548 0z" fill="#86d633"/>
	<path d="M3.533 6.995h10.934v6.1a.365.365 0 0 1-.365.365H3.9a.365.365 0 0 1-.365-.365v-6.1z" fill="url(#A)"/>
	<path d="M3.9 4.665h10.2a.365.365 0 0 1 .365.365v1.965H3.535V5.03a.365.365 0 0 1 .365-.365z" fill="#0078d4"/>
	<path d="M10.57 9.491a.487.487 0 1 1-.487.487.487.487 0 0 1 .487-.487zm-2.039.491a.487.487 0 1 0 .486-.487.487.487 0 0 0-.486.487zm-1.553 0a.487.487 0 1 0 .487-.487.487.487 0 0 0-.487.487z" fill="url(#B)"/>
	<g fill="#fff">
		<path d="M7.818 11.928l-.278.279a.126.126 0 0 1-.178 0h0L5.3 10.151a.251.251 0 0 1 0-.356h0l.278-.279h0l2.24 2.234a.126.126 0 0 1 0 .178zm4.605-2.416l-2.24 2.234h0a.125.125 0 0 0 0 .178l.279.279h0a.125.125 0 0 0 .178 0l2.06-2.056h0a.252.252 0 0 0 0-.356l-.278-.279z"/>
		<path d="M7.5 7.762l.279.278a.126.126 0 0 1 0 .178l-2.2 2.208h0l-.279-.279a.251.251 0 0 1 0-.356h0l2.02-2.029a.126.126 0 0 1 .18 0zm5.2 2.379h0a.251.251 0 0 0 0-.356l-2.02-2.029h0a.126.126 0 0 0-.178 0l-.282.282h0a.126.126 0 0 0 0 .178l2.2 2.207h0l.279-.279z" opacity=".8"/>
	</g>
</svg>